<?xml version="1.0" encoding="UTF-8" standalone="no"?>
<!DOCTYPE svg PUBLIC "-//W3C//DTD SVG 1.1//EN"
 "http://www.w3.org/Graphics/SVG/1.1/DTD/svg11.dtd">
<!-- Generated by graphviz version 5.0.0 (0)
 -->
<!-- Title: sample_swarm_1_locale Pages: 1 -->
<!--zoomable 492 -->
<svg id="main" version="1.1" xmlns="http://www.w3.org/2000/svg" xmlns:xlink="http://www.w3.org/1999/xlink" xml:space="preserve" onload="init(evt)">
<style type="text/css"><![CDATA[
.edge:hover path { stroke: red; }
.edge:hover polygon { stroke: red; fill: red; }
]]></style>
<script type="text/javascript"><![CDATA[
var edges = document.getElementsByTagName('g');
if (edges && edges.length) {
  for (var i=0;i<edges.length;i++) {
    if (edges[i].id.substr(0,4)=='edge') {
      edges[i].setAttribute('class','edge');
    }
  }
}
]]></script>
        <defs>
                <circle id="rim" cx="0" cy="0" r="7"/>
                <circle id="rim2" cx="0" cy="0" r="3.5"/>
                <g id="zoomPlus">
                        <use xlink:href="#rim" fill="#404040">
                                <set attributeName="fill" to="#808080" begin="zoomplus.mouseover" end="zoomplus.mouseout"/>
                        </use>
                        <path d="M-4,0h8M0,-4v8" fill="none" stroke="white" stroke-width="1.5" pointer-events="none"/>
                </g>
                <g id="zoomMin">
                        <use xlink:href="#rim" fill="#404040">
                                <set attributeName="fill" to="#808080" begin="zoomminus.mouseover" end="zoomminus.mouseout"/>
                        </use>
                        <path d="M-4,0h8" fill="none" stroke="white" stroke-width="1.5" pointer-events="none"/>
                </g>
                <g id="dirArrow">
                        <path fill="none" stroke="white" stroke-width="1.5" d="M0,-3.0v7 M-2.5,-0.5L0,-3.0L2.5,-0.5"/>
                </g>
               <g id="resetDef">
                       <use xlink:href="#rim2" fill="#404040">
                               <set attributeName="fill" to="#808080" begin="reset.mouseover" end="reset.mouseout"/>
                       </use>
               </g>
        </defs>

<script type="text/javascript">
var viewWidth = 1044;
var viewHeight = 492;
var sectionId = 'dynsection-2';
</script>
<script xlink:href="svgpan.js"/>
<svg id="graph" class="graph">
<g id="viewport">
<title>sample_swarm_1_locale</title>
<!-- Node1 -->
<g id="node1" class="node">
<title>Node1</title>
<g id="a_node1"><a xlink:title="Sample one locale.">
<polygon fill="#999999" stroke="#666666" points="115,-147 0,-147 0,-130 115,-130 115,-147"/>
<text text-anchor="middle" x="57.5" y="-136.6" font-family="SourceSans" font-size="8.00">sample_swarm_1_locale</text>
</a>
</g>
</g>
<!-- Node2 -->
<g id="node2" class="node">
<title>Node2</title>
<g id="a_node2"><a xlink:href="namespacea60.html#a384a69e042867db6ff2e12764444b39c" target="_top" xlink:title="Run session for torrent, repeat &lt; tickmax, put results in now folder. Default tixmax == 4.">
<polygon fill="white" stroke="#666666" points="261,-319.5 151,-319.5 151,-293.5 261,-293.5 261,-319.5"/>
<text text-anchor="start" x="159" y="-309.1" font-family="SourceSans" font-size="8.00">a60::make_session_for</text>
<text text-anchor="middle" x="206" y="-300.1" font-family="SourceSans" font-size="8.00">_torrent</text>
</a>
</g>
</g>
<!-- Node1&#45;&gt;Node2 -->
<g id="edge1" class="edge">
<title>Node1&#45;&gt;Node2</title>
<path fill="none" stroke="#63b8ff" d="M65.97,-147.06C88.19,-172.55 154.38,-248.45 186.76,-285.58"/>
<polygon fill="#63b8ff" stroke="#63b8ff" points="184.28,-288.07 193.49,-293.3 189.56,-283.46 184.28,-288.07"/>
</g>
<!-- Node24 -->
<g id="node24" class="node">
<title>Node24</title>
<g id="a_node24"><a xlink:href="namespacea60.html#a9f2c8dc1d45c663c1017a1b7b651588d" target="_top" xlink:title="ISO date time stamp as default.">
<polygon fill="white" stroke="#666666" points="718.5,-215.5 623.5,-215.5 623.5,-189.5 718.5,-189.5 718.5,-215.5"/>
<text text-anchor="start" x="631.5" y="-205.1" font-family="SourceSans" font-size="8.00">a60::time_point_as</text>
<text text-anchor="middle" x="671" y="-196.1" font-family="SourceSans" font-size="8.00">_string</text>
</a>
</g>
</g>
<!-- Node1&#45;&gt;Node24 -->
<g id="edge43" class="edge">
<title>Node1&#45;&gt;Node24</title>
<path fill="none" stroke="#63b8ff" d="M115.17,-143.57C210.87,-152.27 410.53,-170.98 579,-190.5 590.03,-191.78 601.79,-193.25 613.08,-194.71"/>
<polygon fill="#63b8ff" stroke="#63b8ff" points="612.9,-198.22 623.27,-196.05 613.81,-191.28 612.9,-198.22"/>
</g>
<!-- Node30 -->
<g id="node30" class="node">
<title>Node30</title>
<g id="a_node30"><a xlink:href="namespacea60_1_1io.html#aea30b8fc474f5a7b922516dc1e199037" target="_top" xlink:title="Takes a string representing a directory, returns a sorted list of contents as a std::vector&lt;string&gt;.">
<polygon fill="white" stroke="#666666" points="261,-110 151,-110 151,-93 261,-93 261,-110"/>
<text text-anchor="middle" x="206" y="-99.6" font-family="SourceSans" font-size="8.00">a60::io::populate_files</text>
</a>
</g>
</g>
<!-- Node1&#45;&gt;Node30 -->
<g id="edge42" class="edge">
<title>Node1&#45;&gt;Node30</title>
<path fill="none" stroke="#63b8ff" d="M92.48,-129.92C113,-124.73 139.37,-118.08 161.42,-112.51"/>
<polygon fill="#63b8ff" stroke="#63b8ff" points="162.37,-115.88 171.21,-110.04 160.65,-109.09 162.37,-115.88"/>
</g>
<!-- Node3 -->
<g id="node3" class="node">
<title>Node3</title>
<g id="a_node3"><a xlink:href="namespacea60.html#a732ca2d85679838beb92881e9f39a999" target="_top" xlink:title="Engage bittorrent, create session.">
<polygon fill="white" stroke="#666666" points="417,-419 305,-419 305,-402 417,-402 417,-419"/>
<text text-anchor="middle" x="361" y="-408.6" font-family="SourceSans" font-size="8.00">a60::configure_session</text>
</a>
</g>
</g>
<!-- Node2&#45;&gt;Node3 -->
<g id="edge2" class="edge">
<title>Node2&#45;&gt;Node3</title>
<path fill="none" stroke="#63b8ff" d="M217.16,-319.62C232.47,-338.5 263.25,-373.15 297,-392.5 300.94,-394.76 305.18,-396.75 309.53,-398.5"/>
<polygon fill="#63b8ff" stroke="#63b8ff" points="308.57,-401.87 319.16,-401.97 310.94,-395.29 308.57,-401.87"/>
</g>
<!-- Node4 -->
<g id="node4" class="node">
<title>Node4</title>
<g id="a_node4"><a xlink:href="namespacea60.html#a8b9a182b9bab06f3abea397c373a5f6b" target="_top" xlink:title="Print info about torrent_handle.">
<polygon fill="white" stroke="#666666" points="410,-383.5 312,-383.5 312,-357.5 410,-357.5 410,-383.5"/>
<text text-anchor="start" x="320" y="-373.1" font-family="SourceSans" font-size="8.00">a60::display_torrent</text>
<text text-anchor="middle" x="361" y="-364.1" font-family="SourceSans" font-size="8.00">_handle</text>
</a>
</g>
</g>
<!-- Node2&#45;&gt;Node4 -->
<g id="edge3" class="edge">
<title>Node2&#45;&gt;Node4</title>
<path fill="none" stroke="#63b8ff" d="M233.08,-319.52C250.88,-328.2 275.12,-339.6 297,-348.5 301.52,-350.34 306.27,-352.17 311.03,-353.95"/>
<polygon fill="#63b8ff" stroke="#63b8ff" points="310.19,-357.36 320.79,-357.49 312.59,-350.79 310.19,-357.36"/>
</g>
<!-- Node5 -->
<g id="node5" class="node">
<title>Node5</title>
<g id="a_node5"><a xlink:href="namespacea60.html#a291221a4eb53708506dceedfd78ad3e1" target="_top" xlink:title="Print info about torrent_status. (ie, just from the torrent file).">
<polygon fill="white" stroke="#666666" points="410,-339.5 312,-339.5 312,-313.5 410,-313.5 410,-339.5"/>
<text text-anchor="start" x="320" y="-329.1" font-family="SourceSans" font-size="8.00">a60::display_torrent</text>
<text text-anchor="middle" x="361" y="-320.1" font-family="SourceSans" font-size="8.00">_status</text>
</a>
</g>
</g>
<!-- Node2&#45;&gt;Node5 -->
<g id="edge4" class="edge">
<title>Node2&#45;&gt;Node5</title>
<path fill="none" stroke="#63b8ff" d="M261.37,-313.61C274.51,-315.33 288.61,-317.17 301.91,-318.91"/>
<polygon fill="#63b8ff" stroke="#63b8ff" points="301.54,-322.39 311.9,-320.21 302.44,-315.45 301.54,-322.39"/>
</g>
<!-- Node6 -->
<g id="node6" class="node">
<title>Node6</title>
<g id="a_node6"><a xlink:href="namespacea60_1_1io.html#a89f2bd581ec510ccc0a8cfedccff7bd0" target="_top" xlink:title="Top level of directory for output files.">
<polygon fill="white" stroke="#666666" points="568,-340.5 472,-340.5 472,-314.5 568,-314.5 568,-340.5"/>
<text text-anchor="start" x="480" y="-330.1" font-family="SourceSans" font-size="8.00">a60::io::get_output</text>
<text text-anchor="middle" x="520" y="-321.1" font-family="SourceSans" font-size="8.00">_directory</text>
</a>
</g>
</g>
<!-- Node2&#45;&gt;Node6 -->
<g id="edge5" class="edge">
<title>Node2&#45;&gt;Node6</title>
<path fill="none" stroke="#63b8ff" d="M209.88,-319.79C217.56,-351.54 241.82,-431.53 297,-463.5 346.22,-492.02 374.62,-489.92 425,-463.5 470.64,-439.56 498.5,-382.29 511.07,-350.23"/>
<polygon fill="#63b8ff" stroke="#63b8ff" points="514.38,-351.37 514.62,-340.78 507.83,-348.91 514.38,-351.37"/>
</g>
<!-- Node9 -->
<g id="node9" class="node">
<title>Node9</title>
<g id="a_node9"><a xlink:href="namespacea60.html#afe8d89ca4ef974726fd66dbda364cbf1" target="_top" xlink:title="Given session and magnet file, make session.">
<polygon fill="white" stroke="#666666" points="425,-295 297,-295 297,-278 425,-278 425,-295"/>
<text text-anchor="middle" x="361" y="-284.6" font-family="SourceSans" font-size="8.00">a60::make_magnet_handle</text>
</a>
</g>
</g>
<!-- Node2&#45;&gt;Node9 -->
<g id="edge9" class="edge">
<title>Node2&#45;&gt;Node9</title>
<path fill="none" stroke="#63b8ff" d="M261.37,-299.39C269.65,-298.31 278.3,-297.18 286.89,-296.06"/>
<polygon fill="#63b8ff" stroke="#63b8ff" points="287.46,-299.51 296.92,-294.75 286.55,-292.57 287.46,-299.51"/>
</g>
<!-- Node10 -->
<g id="node10" class="node">
<title>Node10</title>
<g id="a_node10"><a xlink:href="namespacea60.html#a1ae4660be19d8586055437f379fa4985" target="_top" xlink:title="Configure torrent session.">
<polygon fill="white" stroke="#666666" points="421,-454 301,-454 301,-437 421,-437 421,-454"/>
<text text-anchor="middle" x="361" y="-443.6" font-family="SourceSans" font-size="8.00">a60::make_settings_pack</text>
</a>
</g>
</g>
<!-- Node2&#45;&gt;Node10 -->
<g id="edge11" class="edge">
<title>Node2&#45;&gt;Node10</title>
<path fill="none" stroke="#63b8ff" d="M213.05,-319.82C225.2,-345.05 255.06,-399.84 297,-428.5 299.29,-430.06 301.72,-431.48 304.23,-432.77"/>
<polygon fill="#63b8ff" stroke="#63b8ff" points="303.1,-436.1 313.66,-436.9 305.9,-429.68 303.1,-436.1"/>
</g>
<!-- Node11 -->
<g id="node11" class="node">
<title>Node11</title>
<g id="a_node11"><a xlink:href="namespacea60.html#a0024ebebf4beab70240ed62e88733a5e" target="_top" xlink:title="Given session and torrent file, add torrent to session.">
<polygon fill="white" stroke="#666666" points="422.5,-260 299.5,-260 299.5,-243 422.5,-243 422.5,-260"/>
<text text-anchor="middle" x="361" y="-249.6" font-family="SourceSans" font-size="8.00">a60::make_torrent_handle</text>
</a>
</g>
</g>
<!-- Node2&#45;&gt;Node11 -->
<g id="edge12" class="edge">
<title>Node2&#45;&gt;Node11</title>
<path fill="none" stroke="#63b8ff" d="M236.27,-293.49C253.72,-285.99 276.41,-276.65 297,-269.5 303.57,-267.22 310.6,-265 317.48,-262.95"/>
<polygon fill="#63b8ff" stroke="#63b8ff" points="318.78,-266.21 327.41,-260.06 316.83,-259.49 318.78,-266.21"/>
</g>
<!-- Node2&#45;&gt;Node24 -->
<g id="edge41" class="edge">
<title>Node2&#45;&gt;Node24</title>
<path fill="none" stroke="#63b8ff" d="M218.56,-293.34C234.37,-276.37 264.48,-247.49 297,-234.5 402.49,-192.35 537.8,-192.84 613.04,-197.39"/>
<polygon fill="#63b8ff" stroke="#63b8ff" points="613.04,-200.9 623.25,-198.06 613.5,-193.91 613.04,-200.9"/>
</g>
<!-- Node25 -->
<g id="node25" class="node">
<title>Node25</title>
<g id="a_node25"><a xlink:href="namespacea60.html#ab629c2f2a2ce0c6e94f1b2093eceb42e" target="_top" xlink:title="Info about torrent_info, serialized to json.">
<polygon fill="white" stroke="#666666" points="572,-110.5 468,-110.5 468,-84.5 572,-84.5 572,-110.5"/>
<text text-anchor="start" x="476" y="-100.1" font-family="SourceSans" font-size="8.00">a60::serialize_torrent</text>
<text text-anchor="middle" x="520" y="-91.1" font-family="SourceSans" font-size="8.00">_handle_json</text>
</a>
</g>
</g>
<!-- Node2&#45;&gt;Node25 -->
<g id="edge31" class="edge">
<title>Node2&#45;&gt;Node25</title>
<path fill="none" stroke="#63b8ff" d="M215.49,-293.16C229.95,-271.33 261.27,-227.7 297,-200.5 349.71,-160.38 420.56,-130.92 467.9,-114.02"/>
<polygon fill="#63b8ff" stroke="#63b8ff" points="469.36,-117.22 477.63,-110.61 467.04,-110.62 469.36,-117.22"/>
</g>
<!-- Node7 -->
<g id="node7" class="node">
<title>Node7</title>
<g id="a_node7"><a xlink:href="namespacea60_1_1io.html#a16f17ea9e02c1975ca17b77e46cf7629" target="_top" xlink:title="Make sure a path ends in &#39;/&#39;;.">
<polygon fill="white" stroke="#666666" points="868.5,-377 778.5,-377 778.5,-360 868.5,-360 868.5,-377"/>
<text text-anchor="middle" x="823.5" y="-366.6" font-family="SourceSans" font-size="8.00">a60::io::end_path</text>
</a>
</g>
</g>
<!-- Node6&#45;&gt;Node7 -->
<g id="edge6" class="edge">
<title>Node6&#45;&gt;Node7</title>
<path fill="none" stroke="#63b8ff" d="M568.08,-339.87C583,-343.42 599.61,-347.01 615,-349.5 666.63,-357.86 726.12,-362.84 768.13,-365.59"/>
<polygon fill="#63b8ff" stroke="#63b8ff" points="767.95,-369.08 778.16,-366.22 768.4,-362.1 767.95,-369.08"/>
</g>
<!-- Node8 -->
<g id="node8" class="node">
<title>Node8</title>
<g id="a_node8"><a xlink:href="namespacea60_1_1io.html#a6ad052ef18cfb1a1ac708f7c69c9050d" target="_top" xlink:title="Assumes argument is full path, no error checking...">
<polygon fill="white" stroke="#666666" points="719,-340.5 623,-340.5 623,-314.5 719,-314.5 719,-340.5"/>
<text text-anchor="start" x="631" y="-330.1" font-family="SourceSans" font-size="8.00">a60::io::get_output</text>
<text text-anchor="middle" x="671" y="-321.1" font-family="SourceSans" font-size="8.00">_prefix</text>
</a>
</g>
</g>
<!-- Node6&#45;&gt;Node8 -->
<g id="edge7" class="edge">
<title>Node6&#45;&gt;Node8</title>
<path fill="none" stroke="#63b8ff" d="M568.14,-327.5C582.35,-327.5 598.09,-327.5 612.86,-327.5"/>
<polygon fill="#63b8ff" stroke="#63b8ff" points="612.91,-331 622.91,-327.5 612.91,-324 612.91,-331"/>
</g>
<!-- Node8&#45;&gt;Node7 -->
<g id="edge8" class="edge">
<title>Node8&#45;&gt;Node7</title>
<path fill="none" stroke="#63b8ff" d="M719.21,-340.36C739.17,-345.8 762.21,-352.08 781.46,-357.32"/>
<polygon fill="#63b8ff" stroke="#63b8ff" points="780.58,-360.71 791.14,-359.96 782.42,-353.95 780.58,-360.71"/>
</g>
<!-- Node9&#45;&gt;Node6 -->
<g id="edge10" class="edge">
<title>Node9&#45;&gt;Node6</title>
<path fill="none" stroke="#63b8ff" d="M394.91,-295.09C414.34,-300.17 439.46,-306.73 462.02,-312.62"/>
<polygon fill="#63b8ff" stroke="#63b8ff" points="461.28,-316.04 471.83,-315.18 463.04,-309.27 461.28,-316.04"/>
</g>
<!-- Node11&#45;&gt;Node6 -->
<g id="edge30" class="edge">
<title>Node11&#45;&gt;Node6</title>
<path fill="none" stroke="#63b8ff" d="M398.25,-260.02C407.17,-262.61 416.57,-265.78 425,-269.5 449.12,-280.14 474.45,-296.09 492.73,-308.57"/>
<polygon fill="#63b8ff" stroke="#63b8ff" points="490.89,-311.55 501.1,-314.37 494.88,-305.8 490.89,-311.55"/>
</g>
<!-- Node12 -->
<g id="node12" class="node">
<title>Node12</title>
<g id="a_node12"><a xlink:href="namespacea60.html#a36ea22d12ecf44568213ff453ad1da2c" target="_top" xlink:title="Print info about torrent_info.">
<polygon fill="white" stroke="#666666" points="579,-260 461,-260 461,-243 579,-243 579,-260"/>
<text text-anchor="middle" x="520" y="-249.6" font-family="SourceSans" font-size="8.00">a60::display_torrent_info</text>
</a>
</g>
</g>
<!-- Node11&#45;&gt;Node12 -->
<g id="edge13" class="edge">
<title>Node11&#45;&gt;Node12</title>
<path fill="none" stroke="#63b8ff" d="M422.7,-251.5C431.89,-251.5 441.42,-251.5 450.76,-251.5"/>
<polygon fill="#63b8ff" stroke="#63b8ff" points="450.78,-255 460.78,-251.5 450.78,-248 450.78,-255"/>
</g>
<!-- Node13 -->
<g id="node13" class="node">
<title>Node13</title>
<g id="a_node13"><a xlink:href="namespacea60_1_1geo.html#a2ec44da723ee6128696872f94d989c7f" target="_top" xlink:title="Address to IP/Geo.">
<polygon fill="white" stroke="#666666" points="721.5,-277.5 620.5,-277.5 620.5,-251.5 721.5,-251.5 721.5,-277.5"/>
<text text-anchor="start" x="628.5" y="-267.1" font-family="SourceSans" font-size="8.00">a60::geo::display_ip</text>
<text text-anchor="middle" x="671" y="-258.1" font-family="SourceSans" font-size="8.00">_and_geo_info</text>
</a>
</g>
</g>
<!-- Node12&#45;&gt;Node13 -->
<g id="edge14" class="edge">
<title>Node12&#45;&gt;Node13</title>
<path fill="none" stroke="#63b8ff" d="M579.03,-256.56C589.21,-257.45 599.81,-258.38 610.04,-259.27"/>
<polygon fill="#63b8ff" stroke="#63b8ff" points="609.84,-262.76 620.1,-260.15 610.45,-255.79 609.84,-262.76"/>
</g>
<!-- Node22 -->
<g id="node22" class="node">
<title>Node22</title>
<g id="a_node22"><a xlink:href="namespacea60.html#aafdf18ade22a9e669299209ed5a8bdc6" target="_top" xlink:title="Once.">
<polygon fill="white" stroke="#666666" points="723,-171 619,-171 619,-154 723,-154 723,-171"/>
<text text-anchor="middle" x="671" y="-160.6" font-family="SourceSans" font-size="8.00">a60::host_ip_address</text>
</a>
</g>
</g>
<!-- Node12&#45;&gt;Node22 -->
<g id="edge26" class="edge">
<title>Node12&#45;&gt;Node22</title>
<path fill="none" stroke="#63b8ff" d="M530.16,-242.9C546.2,-228.25 580.92,-198.31 615,-180.5 619.23,-178.29 623.78,-176.28 628.39,-174.47"/>
<polygon fill="#63b8ff" stroke="#63b8ff" points="629.65,-177.74 637.86,-171.05 627.26,-171.16 629.65,-177.74"/>
</g>
<!-- Node12&#45;&gt;Node24 -->
<g id="edge28" class="edge">
<title>Node12&#45;&gt;Node24</title>
<path fill="none" stroke="#63b8ff" d="M546.95,-242.96C567.27,-236.28 596.12,-226.8 620.77,-218.69"/>
<polygon fill="#63b8ff" stroke="#63b8ff" points="621.93,-221.99 630.34,-215.54 619.75,-215.34 621.93,-221.99"/>
</g>
<!-- Node14 -->
<g id="node14" class="node">
<title>Node14</title>
<g id="a_node14"><a xlink:href="structa60_1_1geo_1_1country__map.html#a96a87722e7988878c37210a8bb208624" target="_top" xlink:title=" ">
<polygon fill="white" stroke="#666666" points="883.5,-259.5 763.5,-259.5 763.5,-233.5 883.5,-233.5 883.5,-259.5"/>
<text text-anchor="start" x="771.5" y="-249.1" font-family="SourceSans" font-size="8.00">a60::geo::country_map</text>
<text text-anchor="middle" x="823.5" y="-240.1" font-family="SourceSans" font-size="8.00">::country_code_via_string</text>
</a>
</g>
</g>
<!-- Node13&#45;&gt;Node14 -->
<g id="edge15" class="edge">
<title>Node13&#45;&gt;Node14</title>
<path fill="none" stroke="#63b8ff" d="M721.7,-258.56C731.82,-257.35 742.64,-256.05 753.3,-254.78"/>
<polygon fill="#63b8ff" stroke="#63b8ff" points="753.93,-258.23 763.44,-253.56 753.1,-251.28 753.93,-258.23"/>
</g>
<!-- Node16 -->
<g id="node16" class="node">
<title>Node16</title>
<g id="a_node16"><a xlink:href="namespacea60_1_1geo.html#a7d8058b0d2e8d5f5c90dfe2cab6fc462" target="_top" xlink:title=" ">
<polygon fill="white" stroke="#666666" points="1036,-324 920,-324 920,-307 1036,-307 1036,-324"/>
<text text-anchor="middle" x="978" y="-313.6" font-family="SourceSans" font-size="8.00">a60::geo::safe_if_empty</text>
</a>
</g>
</g>
<!-- Node13&#45;&gt;Node16 -->
<g id="edge25" class="edge">
<title>Node13&#45;&gt;Node16</title>
<path fill="none" stroke="#63b8ff" d="M690.45,-277.6C708.11,-289.3 736,-305.61 763,-312.5 811,-324.74 867.04,-325.05 909.73,-322.53"/>
<polygon fill="#63b8ff" stroke="#63b8ff" points="909.98,-326.02 919.73,-321.87 909.52,-319.03 909.98,-326.02"/>
</g>
<!-- Node18 -->
<g id="node18" class="node">
<title>Node18</title>
<g id="a_node18"><a xlink:href="structa60_1_1geo_1_1city__map_1_1record.html#a7b30bf979e46ddb75bc274871e4ab367" target="_top" xlink:title=" ">
<polygon fill="white" stroke="#666666" points="881,-303.5 766,-303.5 766,-277.5 881,-277.5 881,-303.5"/>
<text text-anchor="start" x="774" y="-293.1" font-family="SourceSans" font-size="8.00">a60::geo::city_map</text>
<text text-anchor="middle" x="823.5" y="-284.1" font-family="SourceSans" font-size="8.00">::record::is_record_open</text>
</a>
</g>
</g>
<!-- Node13&#45;&gt;Node18 -->
<g id="edge20" class="edge">
<title>Node13&#45;&gt;Node18</title>
<path fill="none" stroke="#63b8ff" d="M721.7,-273.09C732.62,-274.97 744.37,-277 755.84,-278.98"/>
<polygon fill="#63b8ff" stroke="#63b8ff" points="755.37,-282.46 765.82,-280.71 756.56,-275.56 755.37,-282.46"/>
</g>
<!-- Node19 -->
<g id="node19" class="node">
<title>Node19</title>
<g id="a_node19"><a xlink:href="structa60_1_1geo_1_1map__base.html#a9215731f10e2fa8488b0e081c2a5cef4" target="_top" xlink:title=" ">
<polygon fill="white" stroke="#666666" points="874.5,-135.5 772.5,-135.5 772.5,-109.5 874.5,-109.5 874.5,-135.5"/>
<text text-anchor="start" x="780.5" y="-125.1" font-family="SourceSans" font-size="8.00">a60::geo::map_base</text>
<text text-anchor="middle" x="823.5" y="-116.1" font-family="SourceSans" font-size="8.00">::open</text>
</a>
</g>
</g>
<!-- Node13&#45;&gt;Node19 -->
<g id="edge21" class="edge">
<title>Node13&#45;&gt;Node19</title>
<path fill="none" stroke="#63b8ff" d="M715.37,-251.37C719.64,-248.89 723.63,-245.96 727,-242.5 759.1,-209.58 730.7,-178.23 763,-145.5 764.58,-143.9 766.28,-142.41 768.08,-141.02"/>
<polygon fill="#63b8ff" stroke="#63b8ff" points="770,-143.94 776.48,-135.55 766.19,-138.07 770,-143.94"/>
</g>
<!-- Node21 -->
<g id="node21" class="node">
<title>Node21</title>
<g id="a_node21"><a xlink:href="structa60_1_1geo_1_1city__map.html#a8edb2011397d2166076b33f5187afe18" target="_top" xlink:title=" ">
<polygon fill="white" stroke="#666666" points="871.5,-215.5 775.5,-215.5 775.5,-189.5 871.5,-189.5 871.5,-215.5"/>
<text text-anchor="start" x="783.5" y="-205.1" font-family="SourceSans" font-size="8.00">a60::geo::city_map</text>
<text text-anchor="middle" x="823.5" y="-196.1" font-family="SourceSans" font-size="8.00">::open_record</text>
</a>
</g>
</g>
<!-- Node13&#45;&gt;Node21 -->
<g id="edge23" class="edge">
<title>Node13&#45;&gt;Node21</title>
<path fill="none" stroke="#63b8ff" d="M705.93,-251.44C712.94,-248.6 720.25,-245.53 727,-242.5 743.32,-235.17 746.59,-231.61 763,-224.5 767.09,-222.73 771.37,-220.97 775.69,-219.26"/>
<polygon fill="#63b8ff" stroke="#63b8ff" points="777.05,-222.48 785.12,-215.61 774.53,-215.95 777.05,-222.48"/>
</g>
<!-- Node15 -->
<g id="node15" class="node">
<title>Node15</title>
<g id="a_node15"><a xlink:href="structa60_1_1geo_1_1map__base.html#ae86685f27b25cdaead9c94752618b2e4" target="_top" xlink:title=" ">
<polygon fill="white" stroke="#666666" points="1029,-217.5 927,-217.5 927,-191.5 1029,-191.5 1029,-217.5"/>
<text text-anchor="start" x="935" y="-207.1" font-family="SourceSans" font-size="8.00">a60::geo::map_base</text>
<text text-anchor="middle" x="978" y="-198.1" font-family="SourceSans" font-size="8.00">::is_map_open</text>
</a>
</g>
</g>
<!-- Node14&#45;&gt;Node15 -->
<g id="edge16" class="edge">
<title>Node14&#45;&gt;Node15</title>
<path fill="none" stroke="#63b8ff" d="M871.92,-233.44C887.12,-229.25 904.12,-224.57 919.94,-220.21"/>
<polygon fill="#63b8ff" stroke="#63b8ff" points="920.9,-223.58 929.61,-217.55 919.04,-216.83 920.9,-223.58"/>
</g>
<!-- Node14&#45;&gt;Node16 -->
<g id="edge17" class="edge">
<title>Node14&#45;&gt;Node16</title>
<path fill="none" stroke="#63b8ff" d="M861.89,-259.59C869.28,-262.38 876.93,-265.42 884,-268.5 907.73,-278.84 933.98,-292.3 952.52,-302.17"/>
<polygon fill="#63b8ff" stroke="#63b8ff" points="951,-305.32 961.46,-306.96 954.31,-299.15 951,-305.32"/>
</g>
<!-- Node17 -->
<g id="node17" class="node">
<title>Node17</title>
<g id="a_node17"><a xlink:href="namespacea60_1_1constants.html#a01d9786063fb572d9389b0cd207bbe53" target="_top" xlink:title=" ">
<polygon fill="white" stroke="#666666" points="1027,-255 929,-255 929,-238 1027,-238 1027,-255"/>
<text text-anchor="middle" x="978" y="-244.6" font-family="SourceSans" font-size="8.00">a60::constants::tab</text>
</a>
</g>
</g>
<!-- Node14&#45;&gt;Node17 -->
<g id="edge18" class="edge">
<title>Node14&#45;&gt;Node17</title>
<path fill="none" stroke="#63b8ff" d="M883.9,-246.5C895.29,-246.5 907.22,-246.5 918.59,-246.5"/>
<polygon fill="#63b8ff" stroke="#63b8ff" points="918.84,-250 928.84,-246.5 918.84,-243 918.84,-250"/>
</g>
<!-- Node17&#45;&gt;Node17 -->
<g id="edge19" class="edge">
<title>Node17&#45;&gt;Node17</title>
<path fill="none" stroke="#63b8ff" d="M955.05,-255.19C942.38,-263.67 950.03,-273 978,-273 996.79,-273 1006.41,-268.79 1006.86,-263.45"/>
<polygon fill="#63b8ff" stroke="#63b8ff" points="1009.61,-261.28 1000.95,-255.19 1003.92,-265.36 1009.61,-261.28"/>
</g>
<!-- Node20 -->
<g id="node20" class="node">
<title>Node20</title>
<g id="a_node20"><a xlink:href="namespacea60_1_1io.html#aa5fbb8ab63397dd45c4a54c0758935ef" target="_top" xlink:title="Sanity check input existence.">
<polygon fill="white" stroke="#666666" points="1030,-135.5 926,-135.5 926,-109.5 1030,-109.5 1030,-135.5"/>
<text text-anchor="start" x="934" y="-125.1" font-family="SourceSans" font-size="8.00">a60::io::sanity_check</text>
<text text-anchor="middle" x="978" y="-116.1" font-family="SourceSans" font-size="8.00">_input</text>
</a>
</g>
</g>
<!-- Node19&#45;&gt;Node20 -->
<g id="edge22" class="edge">
<title>Node19&#45;&gt;Node20</title>
<path fill="none" stroke="#63b8ff" d="M874.86,-122.5C887.92,-122.5 902.14,-122.5 915.7,-122.5"/>
<polygon fill="#63b8ff" stroke="#63b8ff" points="915.91,-126 925.91,-122.5 915.91,-119 915.91,-126"/>
</g>
<!-- Node21&#45;&gt;Node15 -->
<g id="edge24" class="edge">
<title>Node21&#45;&gt;Node15</title>
<path fill="none" stroke="#63b8ff" d="M871.92,-203.12C886.12,-203.31 901.9,-203.52 916.81,-203.71"/>
<polygon fill="#63b8ff" stroke="#63b8ff" points="916.93,-207.21 926.97,-203.84 917.02,-200.21 916.93,-207.21"/>
</g>
<!-- Node23 -->
<g id="node23" class="node">
<title>Node23</title>
<g id="a_node23"><a xlink:href="namespacea60.html#ac912026493721c2646a3336faffe1baa" target="_top" xlink:title="Test machine&#39;s address.">
<polygon fill="white" stroke="#666666" points="884,-171 763,-171 763,-154 884,-154 884,-171"/>
<text text-anchor="middle" x="823.5" y="-160.6" font-family="SourceSans" font-size="8.00">a60::get_host_ip_address</text>
</a>
</g>
</g>
<!-- Node22&#45;&gt;Node23 -->
<g id="edge27" class="edge">
<title>Node22&#45;&gt;Node23</title>
<path fill="none" stroke="#63b8ff" d="M723.37,-162.5C732.79,-162.5 742.76,-162.5 752.61,-162.5"/>
<polygon fill="#63b8ff" stroke="#63b8ff" points="752.8,-166 762.8,-162.5 752.8,-159 752.8,-166"/>
</g>
<!-- Node24&#45;&gt;Node24 -->
<g id="edge29" class="edge">
<title>Node24&#45;&gt;Node24</title>
<path fill="none" stroke="#63b8ff" d="M645.62,-215.56C637.93,-224.6 646.39,-233.5 671,-233.5 686,-233.5 695,-230.19 698,-225.57"/>
<polygon fill="#63b8ff" stroke="#63b8ff" points="701.43,-224.87 696.38,-215.56 694.52,-225.99 701.43,-224.87"/>
</g>
<!-- Node25&#45;&gt;Node19 -->
<g id="edge38" class="edge">
<title>Node25&#45;&gt;Node19</title>
<path fill="none" stroke="#63b8ff" d="M572.21,-102.58C586.09,-103.9 601.12,-105.3 615,-106.5 664.45,-110.77 720.57,-115.07 761.97,-118.13"/>
<polygon fill="#63b8ff" stroke="#63b8ff" points="761.93,-121.64 772.16,-118.88 762.45,-114.65 761.93,-121.64"/>
</g>
<!-- Node25&#45;&gt;Node22 -->
<g id="edge32" class="edge">
<title>Node25&#45;&gt;Node22</title>
<path fill="none" stroke="#63b8ff" d="M549.72,-110.55C568.29,-118.93 593.02,-129.99 615,-139.5 623.04,-142.98 631.77,-146.67 639.86,-150.05"/>
<polygon fill="#63b8ff" stroke="#63b8ff" points="638.74,-153.37 649.32,-153.99 641.43,-146.91 638.74,-153.37"/>
</g>
<!-- Node25&#45;&gt;Node24 -->
<g id="edge40" class="edge">
<title>Node25&#45;&gt;Node24</title>
<path fill="none" stroke="#63b8ff" d="M557.27,-110.54C564.94,-114.31 572.64,-118.95 579,-124.5 601.29,-143.96 592.18,-161.67 615,-180.5 616.58,-181.8 618.24,-183.03 619.97,-184.2"/>
<polygon fill="#63b8ff" stroke="#63b8ff" points="618.62,-187.47 629.03,-189.48 622.15,-181.42 618.62,-187.47"/>
</g>
<!-- Node26 -->
<g id="node26" class="node">
<title>Node26</title>
<g id="a_node26"><a xlink:href="namespacea60.html#ad300edc3a7396b9f52a64f37e9443891" target="_top" xlink:title="No GeoIP.">
<polygon fill="white" stroke="#666666" points="877,-17 770,-17 770,0 877,0 877,-17"/>
<text text-anchor="middle" x="823.5" y="-6.6" font-family="SourceSans" font-size="8.00">a60::make_meta_peer</text>
</a>
</g>
</g>
<!-- Node25&#45;&gt;Node26 -->
<g id="edge33" class="edge">
<title>Node25&#45;&gt;Node26</title>
<path fill="none" stroke="#63b8ff" d="M533.53,-84.24C550.29,-67.47 581.78,-39.26 615,-26.5 661.31,-8.71 717.57,-4.82 759.83,-5.04"/>
<polygon fill="#63b8ff" stroke="#63b8ff" points="759.93,-8.54 769.98,-5.17 760.02,-1.54 759.93,-8.54"/>
</g>
<!-- Node27 -->
<g id="node27" class="node">
<title>Node27</title>
<g id="a_node27"><a xlink:href="namespacea60.html#a9d37f2f6f8a4b125ee6304d15a118f61" target="_top" xlink:title=" ">
<polygon fill="white" stroke="#666666" points="727,-53 615,-53 615,-36 727,-36 727,-53"/>
<text text-anchor="middle" x="671" y="-42.6" font-family="SourceSans" font-size="8.00">a60::make_meta_peers</text>
</a>
</g>
</g>
<!-- Node25&#45;&gt;Node27 -->
<g id="edge34" class="edge">
<title>Node25&#45;&gt;Node27</title>
<path fill="none" stroke="#63b8ff" d="M555.26,-84.37C573.02,-77.65 595.11,-69.45 615,-62.5 620.97,-60.41 627.34,-58.26 633.54,-56.2"/>
<polygon fill="#63b8ff" stroke="#63b8ff" points="634.66,-59.52 643.07,-53.07 632.48,-52.87 634.66,-59.52"/>
</g>
<!-- Node29 -->
<g id="node29" class="node">
<title>Node29</title>
<g id="a_node29"><a xlink:href="namespacea60.html#a2228baa081fe66cea91ed8032bda4732" target="_top" xlink:title="Serialize meta_peer.">
<polygon fill="white" stroke="#666666" points="720,-97.5 622,-97.5 622,-71.5 720,-71.5 720,-97.5"/>
<text text-anchor="start" x="630" y="-87.1" font-family="SourceSans" font-size="8.00">a60::serialize_meta</text>
<text text-anchor="middle" x="671" y="-78.1" font-family="SourceSans" font-size="8.00">_peer_json</text>
</a>
</g>
</g>
<!-- Node25&#45;&gt;Node29 -->
<g id="edge39" class="edge">
<title>Node25&#45;&gt;Node29</title>
<path fill="none" stroke="#63b8ff" d="M572.28,-93.03C584.9,-91.93 598.51,-90.74 611.44,-89.61"/>
<polygon fill="#63b8ff" stroke="#63b8ff" points="611.98,-93.08 621.64,-88.72 611.37,-86.1 611.98,-93.08"/>
</g>
<!-- Node27&#45;&gt;Node19 -->
<g id="edge37" class="edge">
<title>Node27&#45;&gt;Node19</title>
<path fill="none" stroke="#63b8ff" d="M702.49,-53.01C710.61,-55.67 719.27,-58.87 727,-62.5 751.64,-74.06 777.67,-90.75 796.33,-103.6"/>
<polygon fill="#63b8ff" stroke="#63b8ff" points="794.4,-106.52 804.6,-109.38 798.4,-100.78 794.4,-106.52"/>
</g>
<!-- Node27&#45;&gt;Node26 -->
<g id="edge35" class="edge">
<title>Node27&#45;&gt;Node26</title>
<path fill="none" stroke="#63b8ff" d="M707.67,-35.97C728.4,-31.01 754.73,-24.71 776.95,-19.4"/>
<polygon fill="#63b8ff" stroke="#63b8ff" points="777.92,-22.76 786.83,-17.03 776.29,-15.96 777.92,-22.76"/>
</g>
<!-- Node28 -->
<g id="node28" class="node">
<title>Node28</title>
<g id="a_node28"><a xlink:href="namespacea60.html#afa4b02aa30f3ff7828561abb787ede03" target="_top" xlink:title="Less than compare for meta_peer via geo.">
<polygon fill="white" stroke="#666666" points="878.5,-53 768.5,-53 768.5,-36 878.5,-36 878.5,-53"/>
<text text-anchor="middle" x="823.5" y="-42.6" font-family="SourceSans" font-size="8.00">a60::meta_peer_lt_geo</text>
</a>
</g>
</g>
<!-- Node27&#45;&gt;Node28 -->
<g id="edge36" class="edge">
<title>Node27&#45;&gt;Node28</title>
<path fill="none" stroke="#63b8ff" d="M727.19,-44.5C737.25,-44.5 747.84,-44.5 758.14,-44.5"/>
<polygon fill="#63b8ff" stroke="#63b8ff" points="758.33,-48 768.33,-44.5 758.33,-41 758.33,-48"/>
</g>
</g>
</svg>
        <g id="navigator" transform="translate(0 0)" fill="#404254">
                <rect fill="#f2f5e9" fill-opacity="0.5" stroke="#606060" stroke-width=".5" x="0" y="0" width="60" height="60"/>
                <use id="zoomplus" xlink:href="#zoomPlus" x="17" y="9" onmousedown="handleZoom(evt,'in')"/>
                <use id="zoomminus" xlink:href="#zoomMin" x="42" y="9" onmousedown="handleZoom(evt,'out')"/>
                <use id="reset" xlink:href="#resetDef" x="30" y="36" onmousedown="handleReset()"/>
                <g id="arrowUp" xlink:href="#dirArrow" transform="translate(30 24)" onmousedown="handlePan(0,-1)">
                  <use xlink:href="#rim" fill="#404040">
                        <set attributeName="fill" to="#808080" begin="arrowUp.mouseover" end="arrowUp.mouseout"/>
                  </use>
                  <path fill="none" stroke="white" stroke-width="1.5" d="M0,-3.0v7 M-2.5,-0.5L0,-3.0L2.5,-0.5"/>
                </g>
                <g id="arrowRight" xlink:href="#dirArrow" transform="rotate(90) translate(36 -43)" onmousedown="handlePan(1,0)">
                  <use xlink:href="#rim" fill="#404040">
                        <set attributeName="fill" to="#808080" begin="arrowRight.mouseover" end="arrowRight.mouseout"/>
                  </use>
                  <path fill="none" stroke="white" stroke-width="1.5" d="M0,-3.0v7 M-2.5,-0.5L0,-3.0L2.5,-0.5"/>
                </g>
                <g id="arrowDown" xlink:href="#dirArrow" transform="rotate(180) translate(-30 -48)" onmousedown="handlePan(0,1)">
                  <use xlink:href="#rim" fill="#404040">
                        <set attributeName="fill" to="#808080" begin="arrowDown.mouseover" end="arrowDown.mouseout"/>
                  </use>
                  <path fill="none" stroke="white" stroke-width="1.5" d="M0,-3.0v7 M-2.5,-0.5L0,-3.0L2.5,-0.5"/>
                </g>
                <g id="arrowLeft" xlink:href="#dirArrow" transform="rotate(270) translate(-36 17)" onmousedown="handlePan(-1,0)">
                  <use xlink:href="#rim" fill="#404040">
                        <set attributeName="fill" to="#808080" begin="arrowLeft.mouseover" end="arrowLeft.mouseout"/>
                  </use>
                  <path fill="none" stroke="white" stroke-width="1.5" d="M0,-3.0v7 M-2.5,-0.5L0,-3.0L2.5,-0.5"/>
                </g>
        </g>
        <svg viewBox="0 0 15 15" width="100%" height="30px" preserveAspectRatio="xMaxYMin meet">
         <g id="arrow_out" transform="scale(0.3 0.3)">
          <a xlink:href="a60-sample-dump-multi_8cc_a8bcc07a401b6f586ae365e12a9f102d3_cgraph_org.svg" target="_base">
           <rect id="button" ry="5" rx="5" y="6" x="6" height="38" width="38"
                fill="#f2f5e9" fill-opacity="0.5" stroke="#606060" stroke-width="1.0"/>
           <path id="arrow"
             d="M 11.500037,31.436501 C 11.940474,20.09759 22.043105,11.32322 32.158766,21.979434 L 37.068811,17.246167 C 37.068811,17.246167 37.088388,32 37.088388,32 L 22.160133,31.978069 C 22.160133,31.978069 26.997745,27.140456 26.997745,27.140456 C 18.528582,18.264221 13.291696,25.230495 11.500037,31.436501 z"
             style="fill:#404040;"/>
          </a>
         </g>
        </svg>
</svg>
