<?xml version="1.0" encoding="UTF-8" standalone="no"?>
<!DOCTYPE svg PUBLIC "-//W3C//DTD SVG 1.1//EN"
 "http://www.w3.org/Graphics/SVG/1.1/DTD/svg11.dtd">
<!-- Generated by graphviz version 5.0.0 (0)
 -->
<!-- Title: main Pages: 1 -->
<!--zoomable 290 -->
<svg id="main" version="1.1" xmlns="http://www.w3.org/2000/svg" xmlns:xlink="http://www.w3.org/1999/xlink" xml:space="preserve" onload="init(evt)">
<style type="text/css"><![CDATA[
.edge:hover path { stroke: red; }
.edge:hover polygon { stroke: red; fill: red; }
]]></style>
<script type="text/javascript"><![CDATA[
var edges = document.getElementsByTagName('g');
if (edges && edges.length) {
  for (var i=0;i<edges.length;i++) {
    if (edges[i].id.substr(0,4)=='edge') {
      edges[i].setAttribute('class','edge');
    }
  }
}
]]></script>
        <defs>
                <circle id="rim" cx="0" cy="0" r="7"/>
                <circle id="rim2" cx="0" cy="0" r="3.5"/>
                <g id="zoomPlus">
                        <use xlink:href="#rim" fill="#404040">
                                <set attributeName="fill" to="#808080" begin="zoomplus.mouseover" end="zoomplus.mouseout"/>
                        </use>
                        <path d="M-4,0h8M0,-4v8" fill="none" stroke="white" stroke-width="1.5" pointer-events="none"/>
                </g>
                <g id="zoomMin">
                        <use xlink:href="#rim" fill="#404040">
                                <set attributeName="fill" to="#808080" begin="zoomminus.mouseover" end="zoomminus.mouseout"/>
                        </use>
                        <path d="M-4,0h8" fill="none" stroke="white" stroke-width="1.5" pointer-events="none"/>
                </g>
                <g id="dirArrow">
                        <path fill="none" stroke="white" stroke-width="1.5" d="M0,-3.0v7 M-2.5,-0.5L0,-3.0L2.5,-0.5"/>
                </g>
               <g id="resetDef">
                       <use xlink:href="#rim2" fill="#404040">
                               <set attributeName="fill" to="#808080" begin="reset.mouseover" end="reset.mouseout"/>
                       </use>
               </g>
        </defs>

<script type="text/javascript">
var viewWidth = 1116;
var viewHeight = 290;
var sectionId = 'dynsection-3';
</script>
<script xlink:href="svgpan.js"/>
<svg id="graph" class="graph">
<g id="viewport">
<title>main</title>
<!-- Node1 -->
<g id="node1" class="node">
<title>Node1</title>
<g id="a_node1"><a xlink:title=" ">
<polygon fill="#999999" stroke="#666666" points="37,-153.5 0,-153.5 0,-136.5 37,-136.5 37,-153.5"/>
<text text-anchor="middle" x="18.5" y="-143.1" font-family="SourceSans" font-size="8.00">main</text>
</a>
</g>
</g>
<!-- Node2 -->
<g id="node2" class="node">
<title>Node2</title>
<g id="a_node2"><a xlink:href="a60-simple_8cc.html#a384ccd364b5c03c0f1210642515e698d" target="_top" xlink:title=" ">
<polygon fill="white" stroke="#666666" points="191,-224 73,-224 73,-198 191,-198 191,-224"/>
<text text-anchor="start" x="81" y="-213.6" font-family="SourceSans" font-size="8.00">add_schema_fields_after</text>
<text text-anchor="middle" x="132" y="-204.6" font-family="SourceSans" font-size="8.00">_matching</text>
</a>
</g>
</g>
<!-- Node1&#45;&gt;Node2 -->
<g id="edge1" class="edge">
<title>Node1&#45;&gt;Node2</title>
<path fill="none" stroke="#63b8ff" d="M28.28,-153.78C38.36,-163.46 55.73,-178.99 73,-189 75.84,-190.65 78.83,-192.21 81.89,-193.7"/>
<polygon fill="#63b8ff" stroke="#63b8ff" points="80.65,-196.98 91.2,-197.89 83.52,-190.59 80.65,-196.98"/>
</g>
<!-- Node4 -->
<g id="node4" class="node">
<title>Node4</title>
<g id="a_node4"><a xlink:href="namespacea60_1_1io.html#a89f2bd581ec510ccc0a8cfedccff7bd0" target="_top" xlink:title="Top level of directory for output files.">
<polygon fill="white" stroke="#666666" points="648,-233 552,-233 552,-207 648,-207 648,-233"/>
<text text-anchor="start" x="560" y="-222.6" font-family="SourceSans" font-size="8.00">a60::io::get_output</text>
<text text-anchor="middle" x="600" y="-213.6" font-family="SourceSans" font-size="8.00">_directory</text>
</a>
</g>
</g>
<!-- Node1&#45;&gt;Node4 -->
<g id="edge3" class="edge">
<title>Node1&#45;&gt;Node4</title>
<path fill="none" stroke="#63b8ff" d="M21.68,-153.51C26.93,-171.95 42.13,-215.31 73,-233 228.76,-322.29 455.4,-266.81 552.27,-236.23"/>
<polygon fill="#63b8ff" stroke="#63b8ff" points="553.61,-239.47 562.06,-233.08 551.46,-232.81 553.61,-239.47"/>
</g>
<!-- Node7 -->
<g id="node7" class="node">
<title>Node7</title>
<g id="a_node7"><a xlink:href="namespacea60_1_1io.html#ad8339b50abcf6975587ba229c04066e7" target="_top" xlink:title="Check directory exists, else make it.">
<polygon fill="white" stroke="#666666" points="184,-180 80,-180 80,-154 184,-154 184,-180"/>
<text text-anchor="start" x="88" y="-169.6" font-family="SourceSans" font-size="8.00">a60::io::sanity_check</text>
<text text-anchor="middle" x="132" y="-160.6" font-family="SourceSans" font-size="8.00">_output_directory</text>
</a>
</g>
</g>
<!-- Node1&#45;&gt;Node7 -->
<g id="edge7" class="edge">
<title>Node1&#45;&gt;Node7</title>
<path fill="none" stroke="#63b8ff" d="M37.41,-148.53C46.46,-150.32 58.01,-152.6 69.89,-154.94"/>
<polygon fill="#63b8ff" stroke="#63b8ff" points="69.42,-158.42 79.91,-156.92 70.77,-151.55 69.42,-158.42"/>
</g>
<!-- Node8 -->
<g id="node8" class="node">
<title>Node8</title>
<g id="a_node8"><a xlink:href="namespacea60.html#a9f2c8dc1d45c663c1017a1b7b651588d" target="_top" xlink:title="ISO date time stamp as default.">
<polygon fill="white" stroke="#666666" points="794.5,-91 699.5,-91 699.5,-65 794.5,-65 794.5,-91"/>
<text text-anchor="start" x="707.5" y="-80.6" font-family="SourceSans" font-size="8.00">a60::time_point_as</text>
<text text-anchor="middle" x="747" y="-71.6" font-family="SourceSans" font-size="8.00">_string</text>
</a>
</g>
</g>
<!-- Node1&#45;&gt;Node8 -->
<g id="edge8" class="edge">
<title>Node1&#45;&gt;Node8</title>
<path fill="none" stroke="#63b8ff" d="M26.84,-136.49C36.34,-126.13 53.94,-109.03 73,-101 159.53,-64.55 189.11,-78 283,-78 283,-78 283,-78 442,-78 528.19,-78 628.12,-78 689.19,-78"/>
<polygon fill="#63b8ff" stroke="#63b8ff" points="689.39,-81.5 699.39,-78 689.39,-74.5 689.39,-81.5"/>
</g>
<!-- Node9 -->
<g id="node9" class="node">
<title>Node9</title>
<g id="a_node9"><a xlink:href="a60-simple_8cc.html#ae7c9d1528bf5e63966d8e280a5cad570" target="_top" xlink:title=" ">
<polygon fill="white" stroke="#666666" points="179.5,-136 84.5,-136 84.5,-110 179.5,-110 179.5,-136"/>
<text text-anchor="start" x="92.5" y="-125.6" font-family="SourceSans" font-size="8.00">unify_torrent_name</text>
<text text-anchor="middle" x="132" y="-116.6" font-family="SourceSans" font-size="8.00">_to_filename</text>
</a>
</g>
</g>
<!-- Node1&#45;&gt;Node9 -->
<g id="edge10" class="edge">
<title>Node1&#45;&gt;Node9</title>
<path fill="none" stroke="#63b8ff" d="M37.41,-141.47C47.52,-139.47 60.77,-136.86 74.1,-134.23"/>
<polygon fill="#63b8ff" stroke="#63b8ff" points="75.13,-137.59 84.26,-132.22 73.77,-130.72 75.13,-137.59"/>
</g>
<!-- Node27 -->
<g id="node27" class="node">
<title>Node27</title>
<g id="a_node27"><a xlink:href="a60-simple_8cc.html#a8a7417c008c049c7237ed639fba10223" target="_top" xlink:title=" ">
<polygon fill="white" stroke="#666666" points="153,-49.5 111,-49.5 111,-32.5 153,-32.5 153,-49.5"/>
<text text-anchor="middle" x="132" y="-39.1" font-family="SourceSans" font-size="8.00">usage</text>
</a>
</g>
</g>
<!-- Node1&#45;&gt;Node27 -->
<g id="edge35" class="edge">
<title>Node1&#45;&gt;Node27</title>
<path fill="none" stroke="#63b8ff" d="M23.15,-136.17C30.35,-119.76 47.89,-84.4 73,-64 81.17,-57.36 91.51,-52.44 101.18,-48.9"/>
<polygon fill="#63b8ff" stroke="#63b8ff" points="102.5,-52.15 110.9,-45.7 100.3,-45.51 102.5,-52.15"/>
</g>
<!-- Node3 -->
<g id="node3" class="node">
<title>Node3</title>
<g id="a_node3"><a xlink:href="namespacea60_1_1io.html#aea30b8fc474f5a7b922516dc1e199037" target="_top" xlink:title="Takes a string representing a directory, returns a sorted list of contents as a std::vector&lt;string&gt;.">
<polygon fill="white" stroke="#666666" points="339,-211.5 229,-211.5 229,-194.5 339,-194.5 339,-211.5"/>
<text text-anchor="middle" x="284" y="-201.1" font-family="SourceSans" font-size="8.00">a60::io::populate_files</text>
</a>
</g>
</g>
<!-- Node2&#45;&gt;Node3 -->
<g id="edge2" class="edge">
<title>Node2&#45;&gt;Node3</title>
<path fill="none" stroke="#63b8ff" d="M191.42,-207.88C200.39,-207.41 209.69,-206.91 218.77,-206.43"/>
<polygon fill="#63b8ff" stroke="#63b8ff" points="219.1,-209.91 228.9,-205.89 218.73,-202.92 219.1,-209.91"/>
</g>
<!-- Node5 -->
<g id="node5" class="node">
<title>Node5</title>
<g id="a_node5"><a xlink:href="namespacea60_1_1io.html#a16f17ea9e02c1975ca17b77e46cf7629" target="_top" xlink:title="Make sure a path ends in &#39;/&#39;;.">
<polygon fill="white" stroke="#666666" points="940.5,-268.5 850.5,-268.5 850.5,-251.5 940.5,-251.5 940.5,-268.5"/>
<text text-anchor="middle" x="895.5" y="-258.1" font-family="SourceSans" font-size="8.00">a60::io::end_path</text>
</a>
</g>
</g>
<!-- Node4&#45;&gt;Node5 -->
<g id="edge4" class="edge">
<title>Node4&#45;&gt;Node5</title>
<path fill="none" stroke="#63b8ff" d="M648.08,-232.38C663,-235.94 679.61,-239.52 695,-242 743.8,-249.87 799.9,-254.55 840.16,-257.16"/>
<polygon fill="#63b8ff" stroke="#63b8ff" points="840.1,-260.66 850.3,-257.79 840.54,-253.67 840.1,-260.66"/>
</g>
<!-- Node6 -->
<g id="node6" class="node">
<title>Node6</title>
<g id="a_node6"><a xlink:href="namespacea60_1_1io.html#a6ad052ef18cfb1a1ac708f7c69c9050d" target="_top" xlink:title="Assumes argument is full path, no error checking...">
<polygon fill="white" stroke="#666666" points="795,-233 699,-233 699,-207 795,-207 795,-233"/>
<text text-anchor="start" x="707" y="-222.6" font-family="SourceSans" font-size="8.00">a60::io::get_output</text>
<text text-anchor="middle" x="747" y="-213.6" font-family="SourceSans" font-size="8.00">_prefix</text>
</a>
</g>
</g>
<!-- Node4&#45;&gt;Node6 -->
<g id="edge5" class="edge">
<title>Node4&#45;&gt;Node6</title>
<path fill="none" stroke="#63b8ff" d="M648.08,-220C660.99,-220 675.14,-220 688.57,-220"/>
<polygon fill="#63b8ff" stroke="#63b8ff" points="688.66,-223.5 698.66,-220 688.66,-216.5 688.66,-223.5"/>
</g>
<!-- Node6&#45;&gt;Node5 -->
<g id="edge6" class="edge">
<title>Node6&#45;&gt;Node5</title>
<path fill="none" stroke="#63b8ff" d="M795.16,-232.88C813.93,-238 835.34,-243.85 853.46,-248.79"/>
<polygon fill="#63b8ff" stroke="#63b8ff" points="852.58,-252.18 863.15,-251.44 854.42,-245.43 852.58,-252.18"/>
</g>
<!-- Node8&#45;&gt;Node8 -->
<g id="edge9" class="edge">
<title>Node8&#45;&gt;Node8</title>
<path fill="none" stroke="#63b8ff" d="M722.3,-91.06C714.81,-100.1 723.05,-109 747,-109 761.6,-109 770.36,-105.69 773.28,-101.07"/>
<polygon fill="#63b8ff" stroke="#63b8ff" points="776.71,-100.39 771.7,-91.06 769.8,-101.48 776.71,-100.39"/>
</g>
<!-- Node9&#45;&gt;Node3 -->
<g id="edge34" class="edge">
<title>Node9&#45;&gt;Node3</title>
<path fill="none" stroke="#63b8ff" d="M172.06,-136.08C178.52,-138.74 185.06,-141.73 191,-145 208.52,-154.64 210.21,-161.13 227,-172 236.51,-178.16 247.34,-184.33 256.92,-189.53"/>
<polygon fill="#63b8ff" stroke="#63b8ff" points="255.51,-192.75 265.98,-194.37 258.81,-186.57 255.51,-192.75"/>
</g>
<!-- Node10 -->
<g id="node10" class="node">
<title>Node10</title>
<g id="a_node10"><a xlink:href="namespacea60.html#a740f542e9c11ec756f6c012830592c73" target="_top" xlink:title="Make session for torrent, but don&#39;t update.">
<polygon fill="white" stroke="#666666" points="341,-163 227,-163 227,-137 341,-137 341,-163"/>
<text text-anchor="start" x="235" y="-152.6" font-family="SourceSans" font-size="8.00">a60::make_null_session</text>
<text text-anchor="middle" x="284" y="-143.6" font-family="SourceSans" font-size="8.00">_for_torrent</text>
</a>
</g>
</g>
<!-- Node9&#45;&gt;Node10 -->
<g id="edge11" class="edge">
<title>Node9&#45;&gt;Node10</title>
<path fill="none" stroke="#63b8ff" d="M179.64,-131.39C191.45,-133.52 204.35,-135.84 216.92,-138.11"/>
<polygon fill="#63b8ff" stroke="#63b8ff" points="216.44,-141.58 226.9,-139.9 217.68,-134.69 216.44,-141.58"/>
</g>
<!-- Node11 -->
<g id="node11" class="node">
<title>Node11</title>
<g id="a_node11"><a xlink:href="namespacea60.html#a732ca2d85679838beb92881e9f39a999" target="_top" xlink:title="Engage bittorrent, create session.">
<polygon fill="white" stroke="#666666" points="497,-123.5 385,-123.5 385,-106.5 497,-106.5 497,-123.5"/>
<text text-anchor="middle" x="441" y="-113.1" font-family="SourceSans" font-size="8.00">a60::configure_session</text>
</a>
</g>
</g>
<!-- Node10&#45;&gt;Node11 -->
<g id="edge12" class="edge">
<title>Node10&#45;&gt;Node11</title>
<path fill="none" stroke="#63b8ff" d="M341.4,-137.27C358.17,-133.48 376.37,-129.37 392.52,-125.72"/>
<polygon fill="#63b8ff" stroke="#63b8ff" points="393.29,-129.14 402.27,-123.52 391.75,-122.31 393.29,-129.14"/>
</g>
<!-- Node12 -->
<g id="node12" class="node">
<title>Node12</title>
<g id="a_node12"><a xlink:href="namespacea60.html#afe8d89ca4ef974726fd66dbda364cbf1" target="_top" xlink:title="Given session and magnet file, make session.">
<polygon fill="white" stroke="#666666" points="505,-228.5 377,-228.5 377,-211.5 505,-211.5 505,-228.5"/>
<text text-anchor="middle" x="441" y="-218.1" font-family="SourceSans" font-size="8.00">a60::make_magnet_handle</text>
</a>
</g>
</g>
<!-- Node10&#45;&gt;Node12 -->
<g id="edge13" class="edge">
<title>Node10&#45;&gt;Node12</title>
<path fill="none" stroke="#63b8ff" d="M304.34,-163.13C322.45,-174.93 350.61,-192.06 377,-203 381.85,-205.01 387,-206.85 392.19,-208.51"/>
<polygon fill="#63b8ff" stroke="#63b8ff" points="391.57,-211.98 402.16,-211.5 393.58,-205.27 391.57,-211.98"/>
</g>
<!-- Node13 -->
<g id="node13" class="node">
<title>Node13</title>
<g id="a_node13"><a xlink:href="namespacea60.html#a1ae4660be19d8586055437f379fa4985" target="_top" xlink:title="Configure torrent session.">
<polygon fill="white" stroke="#666666" points="501,-193.5 381,-193.5 381,-176.5 501,-176.5 501,-193.5"/>
<text text-anchor="middle" x="441" y="-183.1" font-family="SourceSans" font-size="8.00">a60::make_settings_pack</text>
</a>
</g>
</g>
<!-- Node10&#45;&gt;Node13 -->
<g id="edge15" class="edge">
<title>Node10&#45;&gt;Node13</title>
<path fill="none" stroke="#63b8ff" d="M341.4,-162.73C358.17,-166.52 376.37,-170.63 392.52,-174.28"/>
<polygon fill="#63b8ff" stroke="#63b8ff" points="391.75,-177.69 402.27,-176.48 393.29,-170.86 391.75,-177.69"/>
</g>
<!-- Node14 -->
<g id="node14" class="node">
<title>Node14</title>
<g id="a_node14"><a xlink:href="namespacea60.html#a0024ebebf4beab70240ed62e88733a5e" target="_top" xlink:title="Given session and torrent file, add torrent to session.">
<polygon fill="white" stroke="#666666" points="502.5,-158.5 379.5,-158.5 379.5,-141.5 502.5,-141.5 502.5,-158.5"/>
<text text-anchor="middle" x="441" y="-148.1" font-family="SourceSans" font-size="8.00">a60::make_torrent_handle</text>
</a>
</g>
</g>
<!-- Node10&#45;&gt;Node14 -->
<g id="edge16" class="edge">
<title>Node10&#45;&gt;Node14</title>
<path fill="none" stroke="#63b8ff" d="M341.4,-150C350.49,-150 360,-150 369.37,-150"/>
<polygon fill="#63b8ff" stroke="#63b8ff" points="369.46,-153.5 379.46,-150 369.46,-146.5 369.46,-153.5"/>
</g>
<!-- Node12&#45;&gt;Node4 -->
<g id="edge14" class="edge">
<title>Node12&#45;&gt;Node4</title>
<path fill="none" stroke="#63b8ff" d="M505.41,-220C517.39,-220 529.85,-220 541.63,-220"/>
<polygon fill="#63b8ff" stroke="#63b8ff" points="541.78,-223.5 551.78,-220 541.78,-216.5 541.78,-223.5"/>
</g>
<!-- Node14&#45;&gt;Node4 -->
<g id="edge33" class="edge">
<title>Node14&#45;&gt;Node4</title>
<path fill="none" stroke="#63b8ff" d="M477.14,-158.52C486.35,-161.16 496.17,-164.35 505,-168 527.46,-177.28 551.4,-190.58 569.51,-201.41"/>
<polygon fill="#63b8ff" stroke="#63b8ff" points="568.04,-204.61 578.4,-206.81 571.67,-198.63 568.04,-204.61"/>
</g>
<!-- Node15 -->
<g id="node15" class="node">
<title>Node15</title>
<g id="a_node15"><a xlink:href="namespacea60.html#a36ea22d12ecf44568213ff453ad1da2c" target="_top" xlink:title="Print info about torrent_info.">
<polygon fill="white" stroke="#666666" points="659,-153.5 541,-153.5 541,-136.5 659,-136.5 659,-153.5"/>
<text text-anchor="middle" x="600" y="-143.1" font-family="SourceSans" font-size="8.00">a60::display_torrent_info</text>
</a>
</g>
</g>
<!-- Node14&#45;&gt;Node15 -->
<g id="edge17" class="edge">
<title>Node14&#45;&gt;Node15</title>
<path fill="none" stroke="#63b8ff" d="M502.7,-148.07C511.89,-147.77 521.42,-147.47 530.76,-147.17"/>
<polygon fill="#63b8ff" stroke="#63b8ff" points="530.9,-150.67 540.78,-146.85 530.68,-143.67 530.9,-150.67"/>
</g>
<!-- Node15&#45;&gt;Node8 -->
<g id="edge32" class="edge">
<title>Node15&#45;&gt;Node8</title>
<path fill="none" stroke="#63b8ff" d="M619.66,-136.38C641.99,-126.06 679.94,-108.52 708.44,-95.36"/>
<polygon fill="#63b8ff" stroke="#63b8ff" points="710.09,-98.45 717.7,-91.08 707.15,-92.09 710.09,-98.45"/>
</g>
<!-- Node16 -->
<g id="node16" class="node">
<title>Node16</title>
<g id="a_node16"><a xlink:href="namespacea60_1_1geo.html#a2ec44da723ee6128696872f94d989c7f" target="_top" xlink:title="Address to IP/Geo.">
<polygon fill="white" stroke="#666666" points="797.5,-153 696.5,-153 696.5,-127 797.5,-127 797.5,-153"/>
<text text-anchor="start" x="704.5" y="-142.6" font-family="SourceSans" font-size="8.00">a60::geo::display_ip</text>
<text text-anchor="middle" x="747" y="-133.6" font-family="SourceSans" font-size="8.00">_and_geo_info</text>
</a>
</g>
</g>
<!-- Node15&#45;&gt;Node16 -->
<g id="edge18" class="edge">
<title>Node15&#45;&gt;Node16</title>
<path fill="none" stroke="#63b8ff" d="M659.14,-143C667.98,-142.69 677.11,-142.38 685.98,-142.07"/>
<polygon fill="#63b8ff" stroke="#63b8ff" points="686.37,-145.56 696.25,-141.72 686.13,-138.56 686.37,-145.56"/>
</g>
<!-- Node25 -->
<g id="node25" class="node">
<title>Node25</title>
<g id="a_node25"><a xlink:href="namespacea60.html#aafdf18ade22a9e669299209ed5a8bdc6" target="_top" xlink:title="Once.">
<polygon fill="white" stroke="#666666" points="799,-188.5 695,-188.5 695,-171.5 799,-171.5 799,-188.5"/>
<text text-anchor="middle" x="747" y="-178.1" font-family="SourceSans" font-size="8.00">a60::host_ip_address</text>
</a>
</g>
</g>
<!-- Node15&#45;&gt;Node25 -->
<g id="edge30" class="edge">
<title>Node15&#45;&gt;Node25</title>
<path fill="none" stroke="#63b8ff" d="M636.47,-153.56C655.85,-158.24 680.06,-164.08 700.79,-169.09"/>
<polygon fill="#63b8ff" stroke="#63b8ff" points="700.1,-172.52 710.64,-171.47 701.74,-165.72 700.1,-172.52"/>
</g>
<!-- Node17 -->
<g id="node17" class="node">
<title>Node17</title>
<g id="a_node17"><a xlink:href="structa60_1_1geo_1_1country__map.html#a96a87722e7988878c37210a8bb208624" target="_top" xlink:title=" ">
<polygon fill="white" stroke="#666666" points="955.5,-114 835.5,-114 835.5,-88 955.5,-88 955.5,-114"/>
<text text-anchor="start" x="843.5" y="-103.6" font-family="SourceSans" font-size="8.00">a60::geo::country_map</text>
<text text-anchor="middle" x="895.5" y="-94.6" font-family="SourceSans" font-size="8.00">::country_code_via_string</text>
</a>
</g>
</g>
<!-- Node16&#45;&gt;Node17 -->
<g id="edge19" class="edge">
<title>Node16&#45;&gt;Node17</title>
<path fill="none" stroke="#63b8ff" d="M797.19,-126.91C809.39,-123.66 822.59,-120.14 835.22,-116.78"/>
<polygon fill="#63b8ff" stroke="#63b8ff" points="836.43,-120.08 845.19,-114.13 834.63,-113.32 836.43,-120.08"/>
</g>
<!-- Node19 -->
<g id="node19" class="node">
<title>Node19</title>
<g id="a_node19"><a xlink:href="namespacea60_1_1geo.html#a7d8058b0d2e8d5f5c90dfe2cab6fc462" target="_top" xlink:title=" ">
<polygon fill="white" stroke="#666666" points="1108,-150.5 992,-150.5 992,-133.5 1108,-133.5 1108,-150.5"/>
<text text-anchor="middle" x="1050" y="-140.1" font-family="SourceSans" font-size="8.00">a60::geo::safe_if_empty</text>
</a>
</g>
</g>
<!-- Node16&#45;&gt;Node19 -->
<g id="edge29" class="edge">
<title>Node16&#45;&gt;Node19</title>
<path fill="none" stroke="#63b8ff" d="M797.7,-140.33C847.93,-140.66 925.87,-141.18 981.63,-141.55"/>
<polygon fill="#63b8ff" stroke="#63b8ff" points="981.74,-145.05 991.77,-141.62 981.79,-138.05 981.74,-145.05"/>
</g>
<!-- Node21 -->
<g id="node21" class="node">
<title>Node21</title>
<g id="a_node21"><a xlink:href="structa60_1_1geo_1_1city__map_1_1record.html#a7b30bf979e46ddb75bc274871e4ab367" target="_top" xlink:title=" ">
<polygon fill="white" stroke="#666666" points="953,-70 838,-70 838,-44 953,-44 953,-70"/>
<text text-anchor="start" x="846" y="-59.6" font-family="SourceSans" font-size="8.00">a60::geo::city_map</text>
<text text-anchor="middle" x="895.5" y="-50.6" font-family="SourceSans" font-size="8.00">::record::is_record_open</text>
</a>
</g>
</g>
<!-- Node16&#45;&gt;Node21 -->
<g id="edge24" class="edge">
<title>Node16&#45;&gt;Node21</title>
<path fill="none" stroke="#63b8ff" d="M783.61,-126.94C788.97,-124.33 794.28,-121.34 799,-118 818.25,-104.36 815.4,-92.12 835,-79 837.4,-77.39 839.94,-75.88 842.55,-74.47"/>
<polygon fill="#63b8ff" stroke="#63b8ff" points="844.22,-77.55 851.68,-70.02 841.16,-71.26 844.22,-77.55"/>
</g>
<!-- Node22 -->
<g id="node22" class="node">
<title>Node22</title>
<g id="a_node22"><a xlink:href="structa60_1_1geo_1_1map__base.html#a9215731f10e2fa8488b0e081c2a5cef4" target="_top" xlink:title=" ">
<polygon fill="white" stroke="#666666" points="946.5,-196 844.5,-196 844.5,-170 946.5,-170 946.5,-196"/>
<text text-anchor="start" x="852.5" y="-185.6" font-family="SourceSans" font-size="8.00">a60::geo::map_base</text>
<text text-anchor="middle" x="895.5" y="-176.6" font-family="SourceSans" font-size="8.00">::open</text>
</a>
</g>
</g>
<!-- Node16&#45;&gt;Node22 -->
<g id="edge25" class="edge">
<title>Node16&#45;&gt;Node22</title>
<path fill="none" stroke="#63b8ff" d="M792.35,-153.02C807.49,-157.46 824.58,-162.48 840.39,-167.12"/>
<polygon fill="#63b8ff" stroke="#63b8ff" points="839.46,-170.49 850.05,-169.95 841.44,-163.78 839.46,-170.49"/>
</g>
<!-- Node24 -->
<g id="node24" class="node">
<title>Node24</title>
<g id="a_node24"><a xlink:href="structa60_1_1geo_1_1city__map.html#a8edb2011397d2166076b33f5187afe18" target="_top" xlink:title=" ">
<polygon fill="white" stroke="#666666" points="943.5,-26 847.5,-26 847.5,0 943.5,0 943.5,-26"/>
<text text-anchor="start" x="855.5" y="-15.6" font-family="SourceSans" font-size="8.00">a60::geo::city_map</text>
<text text-anchor="middle" x="895.5" y="-6.6" font-family="SourceSans" font-size="8.00">::open_record</text>
</a>
</g>
</g>
<!-- Node16&#45;&gt;Node24 -->
<g id="edge27" class="edge">
<title>Node16&#45;&gt;Node24</title>
<path fill="none" stroke="#63b8ff" d="M787.04,-126.95C791.4,-124.44 795.52,-121.47 799,-118 827.46,-89.6 805.8,-62.64 835,-35 836.26,-33.8 837.6,-32.67 838.99,-31.6"/>
<polygon fill="#63b8ff" stroke="#63b8ff" points="841.01,-34.46 847.5,-26.09 837.2,-28.59 841.01,-34.46"/>
</g>
<!-- Node18 -->
<g id="node18" class="node">
<title>Node18</title>
<g id="a_node18"><a xlink:href="structa60_1_1geo_1_1map__base.html#ae86685f27b25cdaead9c94752618b2e4" target="_top" xlink:title=" ">
<polygon fill="white" stroke="#666666" points="1101,-44 999,-44 999,-18 1101,-18 1101,-44"/>
<text text-anchor="start" x="1007" y="-33.6" font-family="SourceSans" font-size="8.00">a60::geo::map_base</text>
<text text-anchor="middle" x="1050" y="-24.6" font-family="SourceSans" font-size="8.00">::is_map_open</text>
</a>
</g>
</g>
<!-- Node17&#45;&gt;Node18 -->
<g id="edge20" class="edge">
<title>Node17&#45;&gt;Node18</title>
<path fill="none" stroke="#63b8ff" d="M933.92,-87.96C941.3,-85.16 948.95,-82.11 956,-79 976.48,-69.97 998.78,-58.51 1016.42,-49.06"/>
<polygon fill="#63b8ff" stroke="#63b8ff" points="1018.56,-51.88 1025.69,-44.04 1015.23,-45.72 1018.56,-51.88"/>
</g>
<!-- Node17&#45;&gt;Node19 -->
<g id="edge21" class="edge">
<title>Node17&#45;&gt;Node19</title>
<path fill="none" stroke="#63b8ff" d="M945.17,-114.09C965.21,-119.47 988.19,-125.65 1007.43,-130.82"/>
<polygon fill="#63b8ff" stroke="#63b8ff" points="1006.55,-134.21 1017.11,-133.43 1008.37,-127.45 1006.55,-134.21"/>
</g>
<!-- Node20 -->
<g id="node20" class="node">
<title>Node20</title>
<g id="a_node20"><a xlink:href="namespacea60_1_1constants.html#a01d9786063fb572d9389b0cd207bbe53" target="_top" xlink:title=" ">
<polygon fill="white" stroke="#666666" points="1099,-97.5 1001,-97.5 1001,-80.5 1099,-80.5 1099,-97.5"/>
<text text-anchor="middle" x="1050" y="-87.1" font-family="SourceSans" font-size="8.00">a60::constants::tab</text>
</a>
</g>
</g>
<!-- Node17&#45;&gt;Node20 -->
<g id="edge22" class="edge">
<title>Node17&#45;&gt;Node20</title>
<path fill="none" stroke="#63b8ff" d="M955.9,-96.33C967.29,-95.43 979.22,-94.49 990.59,-93.6"/>
<polygon fill="#63b8ff" stroke="#63b8ff" points="991.14,-97.06 1000.84,-92.79 990.59,-90.09 991.14,-97.06"/>
</g>
<!-- Node20&#45;&gt;Node20 -->
<g id="edge23" class="edge">
<title>Node20&#45;&gt;Node20</title>
<path fill="none" stroke="#63b8ff" d="M1027.05,-97.69C1014.38,-106.17 1022.03,-115.5 1050,-115.5 1068.79,-115.5 1078.41,-111.29 1078.86,-105.95"/>
<polygon fill="#63b8ff" stroke="#63b8ff" points="1081.61,-103.78 1072.95,-97.69 1075.92,-107.86 1081.61,-103.78"/>
</g>
<!-- Node23 -->
<g id="node23" class="node">
<title>Node23</title>
<g id="a_node23"><a xlink:href="namespacea60_1_1io.html#aa5fbb8ab63397dd45c4a54c0758935ef" target="_top" xlink:title="Sanity check input existence.">
<polygon fill="white" stroke="#666666" points="1102,-196 998,-196 998,-170 1102,-170 1102,-196"/>
<text text-anchor="start" x="1006" y="-185.6" font-family="SourceSans" font-size="8.00">a60::io::sanity_check</text>
<text text-anchor="middle" x="1050" y="-176.6" font-family="SourceSans" font-size="8.00">_input</text>
</a>
</g>
</g>
<!-- Node22&#45;&gt;Node23 -->
<g id="edge26" class="edge">
<title>Node22&#45;&gt;Node23</title>
<path fill="none" stroke="#63b8ff" d="M946.86,-183C959.92,-183 974.14,-183 987.7,-183"/>
<polygon fill="#63b8ff" stroke="#63b8ff" points="987.91,-186.5 997.91,-183 987.91,-179.5 987.91,-186.5"/>
</g>
<!-- Node24&#45;&gt;Node18 -->
<g id="edge28" class="edge">
<title>Node24&#45;&gt;Node18</title>
<path fill="none" stroke="#63b8ff" d="M943.92,-18.6C958.12,-20.27 973.9,-22.14 988.81,-23.9"/>
<polygon fill="#63b8ff" stroke="#63b8ff" points="988.63,-27.4 998.97,-25.1 989.45,-20.45 988.63,-27.4"/>
</g>
<!-- Node26 -->
<g id="node26" class="node">
<title>Node26</title>
<g id="a_node26"><a xlink:href="namespacea60.html#ac912026493721c2646a3336faffe1baa" target="_top" xlink:title="Test machine&#39;s address.">
<polygon fill="white" stroke="#666666" points="956,-231.5 835,-231.5 835,-214.5 956,-214.5 956,-231.5"/>
<text text-anchor="middle" x="895.5" y="-221.1" font-family="SourceSans" font-size="8.00">a60::get_host_ip_address</text>
</a>
</g>
</g>
<!-- Node25&#45;&gt;Node26 -->
<g id="edge31" class="edge">
<title>Node25&#45;&gt;Node26</title>
<path fill="none" stroke="#63b8ff" d="M777.29,-188.6C799.75,-195.19 830.96,-204.35 855.52,-211.56"/>
<polygon fill="#63b8ff" stroke="#63b8ff" points="854.68,-214.96 865.26,-214.42 856.65,-208.24 854.68,-214.96"/>
</g>
</g>
</svg>
        <g id="navigator" transform="translate(0 0)" fill="#404254">
                <rect fill="#f2f5e9" fill-opacity="0.5" stroke="#606060" stroke-width=".5" x="0" y="0" width="60" height="60"/>
                <use id="zoomplus" xlink:href="#zoomPlus" x="17" y="9" onmousedown="handleZoom(evt,'in')"/>
                <use id="zoomminus" xlink:href="#zoomMin" x="42" y="9" onmousedown="handleZoom(evt,'out')"/>
                <use id="reset" xlink:href="#resetDef" x="30" y="36" onmousedown="handleReset()"/>
                <g id="arrowUp" xlink:href="#dirArrow" transform="translate(30 24)" onmousedown="handlePan(0,-1)">
                  <use xlink:href="#rim" fill="#404040">
                        <set attributeName="fill" to="#808080" begin="arrowUp.mouseover" end="arrowUp.mouseout"/>
                  </use>
                  <path fill="none" stroke="white" stroke-width="1.5" d="M0,-3.0v7 M-2.5,-0.5L0,-3.0L2.5,-0.5"/>
                </g>
                <g id="arrowRight" xlink:href="#dirArrow" transform="rotate(90) translate(36 -43)" onmousedown="handlePan(1,0)">
                  <use xlink:href="#rim" fill="#404040">
                        <set attributeName="fill" to="#808080" begin="arrowRight.mouseover" end="arrowRight.mouseout"/>
                  </use>
                  <path fill="none" stroke="white" stroke-width="1.5" d="M0,-3.0v7 M-2.5,-0.5L0,-3.0L2.5,-0.5"/>
                </g>
                <g id="arrowDown" xlink:href="#dirArrow" transform="rotate(180) translate(-30 -48)" onmousedown="handlePan(0,1)">
                  <use xlink:href="#rim" fill="#404040">
                        <set attributeName="fill" to="#808080" begin="arrowDown.mouseover" end="arrowDown.mouseout"/>
                  </use>
                  <path fill="none" stroke="white" stroke-width="1.5" d="M0,-3.0v7 M-2.5,-0.5L0,-3.0L2.5,-0.5"/>
                </g>
                <g id="arrowLeft" xlink:href="#dirArrow" transform="rotate(270) translate(-36 17)" onmousedown="handlePan(-1,0)">
                  <use xlink:href="#rim" fill="#404040">
                        <set attributeName="fill" to="#808080" begin="arrowLeft.mouseover" end="arrowLeft.mouseout"/>
                  </use>
                  <path fill="none" stroke="white" stroke-width="1.5" d="M0,-3.0v7 M-2.5,-0.5L0,-3.0L2.5,-0.5"/>
                </g>
        </g>
        <svg viewBox="0 0 15 15" width="100%" height="30px" preserveAspectRatio="xMaxYMin meet">
         <g id="arrow_out" transform="scale(0.3 0.3)">
          <a xlink:href="a60-simple_8cc_a0ddf1224851353fc92bfbff6f499fa97_cgraph_org.svg" target="_base">
           <rect id="button" ry="5" rx="5" y="6" x="6" height="38" width="38"
                fill="#f2f5e9" fill-opacity="0.5" stroke="#606060" stroke-width="1.0"/>
           <path id="arrow"
             d="M 11.500037,31.436501 C 11.940474,20.09759 22.043105,11.32322 32.158766,21.979434 L 37.068811,17.246167 C 37.068811,17.246167 37.088388,32 37.088388,32 L 22.160133,31.978069 C 22.160133,31.978069 26.997745,27.140456 26.997745,27.140456 C 18.528582,18.264221 13.291696,25.230495 11.500037,31.436501 z"
             style="fill:#404040;"/>
          </a>
         </g>
        </svg>
</svg>
