<?xml version="1.0" encoding="UTF-8" standalone="no"?>
<!DOCTYPE svg PUBLIC "-//W3C//DTD SVG 1.1//EN"
 "http://www.w3.org/Graphics/SVG/1.1/DTD/svg11.dtd">
<!-- Generated by graphviz version 5.0.0 (0)
 -->
<!-- Title: /home/bkoz/src/alpha60/src/a60&#45;thread&#45;pool.ganler.h Pages: 1 -->
<!--zoomable 87 -->
<svg id="main" version="1.1" xmlns="http://www.w3.org/2000/svg" xmlns:xlink="http://www.w3.org/1999/xlink" xml:space="preserve" onload="init(evt)">
<style type="text/css"><![CDATA[
.edge:hover path { stroke: red; }
.edge:hover polygon { stroke: red; fill: red; }
]]></style>
<script type="text/javascript"><![CDATA[
var edges = document.getElementsByTagName('g');
if (edges && edges.length) {
  for (var i=0;i<edges.length;i++) {
    if (edges[i].id.substr(0,4)=='edge') {
      edges[i].setAttribute('class','edge');
    }
  }
}
]]></script>
        <defs>
                <circle id="rim" cx="0" cy="0" r="7"/>
                <circle id="rim2" cx="0" cy="0" r="3.5"/>
                <g id="zoomPlus">
                        <use xlink:href="#rim" fill="#404040">
                                <set attributeName="fill" to="#808080" begin="zoomplus.mouseover" end="zoomplus.mouseout"/>
                        </use>
                        <path d="M-4,0h8M0,-4v8" fill="none" stroke="white" stroke-width="1.5" pointer-events="none"/>
                </g>
                <g id="zoomMin">
                        <use xlink:href="#rim" fill="#404040">
                                <set attributeName="fill" to="#808080" begin="zoomminus.mouseover" end="zoomminus.mouseout"/>
                        </use>
                        <path d="M-4,0h8" fill="none" stroke="white" stroke-width="1.5" pointer-events="none"/>
                </g>
                <g id="dirArrow">
                        <path fill="none" stroke="white" stroke-width="1.5" d="M0,-3.0v7 M-2.5,-0.5L0,-3.0L2.5,-0.5"/>
                </g>
               <g id="resetDef">
                       <use xlink:href="#rim2" fill="#404040">
                               <set attributeName="fill" to="#808080" begin="reset.mouseover" end="reset.mouseout"/>
                       </use>
               </g>
        </defs>

<script type="text/javascript">
var viewWidth = 946;
var viewHeight = 87;
var sectionId = 'dynsection-0';
</script>
<script xlink:href="svgpan.js"/>
<svg id="graph" class="graph">
<g id="viewport">
<title>/home/bkoz/src/alpha60/src/a60&#45;thread&#45;pool.ganler.h</title>
<!-- Node1 -->
<g id="node1" class="node">
<title>Node1</title>
<g id="a_node1"><a xlink:title=" ">
<polygon fill="#999999" stroke="#666666" points="579,-79 442,-79 442,-53 579,-53 579,-79"/>
<text text-anchor="start" x="450" y="-68.6" font-family="SourceSans" font-size="8.00">/home/bkoz/src/alpha60</text>
<text text-anchor="middle" x="510.5" y="-59.6" font-family="SourceSans" font-size="8.00">/src/a60&#45;thread&#45;pool.ganler.h</text>
</a>
</g>
</g>
<!-- Node2 -->
<g id="node2" class="node">
<title>Node2</title>
<g id="a_node2"><a xlink:title=" ">
<polygon fill="#e0e0e0" stroke="#999999" points="59,-17 0,-17 0,0 59,0 59,-17"/>
<text text-anchor="middle" x="29.5" y="-6.6" font-family="SourceSans" font-size="8.00">type_traits</text>
</a>
</g>
</g>
<!-- Node1&#45;&gt;Node2 -->
<g id="edge1" class="edge">
<title>Node1&#45;&gt;Node2</title>
<path fill="none" stroke="#63b8ff" d="M441.75,-59.29C356.68,-51.83 207.19,-37.44 69.18,-16.97"/>
<polygon fill="#63b8ff" stroke="#63b8ff" points="69.68,-13.5 59.27,-15.48 68.64,-20.43 69.68,-13.5"/>
</g>
<!-- Node3 -->
<g id="node3" class="node">
<title>Node3</title>
<g id="a_node3"><a xlink:title=" ">
<polygon fill="#e0e0e0" stroke="#999999" points="135.5,-17 77.5,-17 77.5,0 135.5,0 135.5,-17"/>
<text text-anchor="middle" x="106.5" y="-6.6" font-family="SourceSans" font-size="8.00">functional</text>
</a>
</g>
</g>
<!-- Node1&#45;&gt;Node3 -->
<g id="edge2" class="edge">
<title>Node1&#45;&gt;Node3</title>
<path fill="none" stroke="#63b8ff" d="M441.84,-57.33C370.3,-49.04 254.75,-34.8 145.39,-17.04"/>
<polygon fill="#63b8ff" stroke="#63b8ff" points="145.95,-13.59 135.51,-15.43 144.81,-20.5 145.95,-13.59"/>
</g>
<!-- Node4 -->
<g id="node4" class="node">
<title>Node4</title>
<g id="a_node4"><a xlink:title=" ">
<polygon fill="#e0e0e0" stroke="#999999" points="209.5,-17 153.5,-17 153.5,0 209.5,0 209.5,-17"/>
<text text-anchor="middle" x="181.5" y="-6.6" font-family="SourceSans" font-size="8.00">algorithm</text>
</a>
</g>
</g>
<!-- Node1&#45;&gt;Node4 -->
<g id="edge3" class="edge">
<title>Node1&#45;&gt;Node4</title>
<path fill="none" stroke="#63b8ff" d="M441.94,-54.46C385,-45.55 301.62,-32.1 219.74,-17.17"/>
<polygon fill="#63b8ff" stroke="#63b8ff" points="220.23,-13.7 209.76,-15.34 218.97,-20.59 220.23,-13.7"/>
</g>
<!-- Node5 -->
<g id="node5" class="node">
<title>Node5</title>
<g id="a_node5"><a xlink:title=" ">
<polygon fill="#e0e0e0" stroke="#999999" points="265.5,-17 227.5,-17 227.5,0 265.5,0 265.5,-17"/>
<text text-anchor="middle" x="246.5" y="-6.6" font-family="SourceSans" font-size="8.00">array</text>
</a>
</g>
</g>
<!-- Node1&#45;&gt;Node5 -->
<g id="edge4" class="edge">
<title>Node1&#45;&gt;Node5</title>
<path fill="none" stroke="#63b8ff" d="M445.91,-52.97C400.77,-44.3 338.86,-31.92 275.86,-17.2"/>
<polygon fill="#63b8ff" stroke="#63b8ff" points="276.28,-13.7 265.74,-14.82 274.67,-20.52 276.28,-13.7"/>
</g>
<!-- Node6 -->
<g id="node6" class="node">
<title>Node6</title>
<g id="a_node6"><a xlink:title=" ">
<polygon fill="#e0e0e0" stroke="#999999" points="327.5,-17 283.5,-17 283.5,0 327.5,0 327.5,-17"/>
<text text-anchor="middle" x="305.5" y="-6.6" font-family="SourceSans" font-size="8.00">atomic</text>
</a>
</g>
</g>
<!-- Node1&#45;&gt;Node6 -->
<g id="edge5" class="edge">
<title>Node1&#45;&gt;Node6</title>
<path fill="none" stroke="#63b8ff" d="M466.02,-52.96C427.28,-42.47 372.05,-27.52 337.52,-18.17"/>
<polygon fill="#63b8ff" stroke="#63b8ff" points="338.08,-14.69 327.51,-15.46 336.25,-21.45 338.08,-14.69"/>
</g>
<!-- Node7 -->
<g id="node7" class="node">
<title>Node7</title>
<g id="a_node7"><a xlink:title=" ">
<polygon fill="#e0e0e0" stroke="#999999" points="437.5,-17 345.5,-17 345.5,0 437.5,0 437.5,-17"/>
<text text-anchor="middle" x="391.5" y="-6.6" font-family="SourceSans" font-size="8.00">condition_variable</text>
</a>
</g>
</g>
<!-- Node1&#45;&gt;Node7 -->
<g id="edge6" class="edge">
<title>Node1&#45;&gt;Node7</title>
<path fill="none" stroke="#63b8ff" d="M484.68,-52.96C464.59,-43.59 436.86,-30.65 416.88,-21.34"/>
<polygon fill="#63b8ff" stroke="#63b8ff" points="418.31,-18.14 407.76,-17.09 415.35,-24.48 418.31,-18.14"/>
</g>
<!-- Node8 -->
<g id="node8" class="node">
<title>Node8</title>
<g id="a_node8"><a xlink:title=" ">
<polygon fill="#e0e0e0" stroke="#999999" points="503,-17 456,-17 456,0 503,0 503,-17"/>
<text text-anchor="middle" x="479.5" y="-6.6" font-family="SourceSans" font-size="8.00">cstddef</text>
</a>
</g>
</g>
<!-- Node1&#45;&gt;Node8 -->
<g id="edge7" class="edge">
<title>Node1&#45;&gt;Node8</title>
<path fill="none" stroke="#63b8ff" d="M503.77,-52.96C499.37,-45.08 493.57,-34.69 488.74,-26.04"/>
<polygon fill="#63b8ff" stroke="#63b8ff" points="491.76,-24.27 483.83,-17.25 485.65,-27.69 491.76,-24.27"/>
</g>
<!-- Node9 -->
<g id="node9" class="node">
<title>Node9</title>
<g id="a_node9"><a xlink:title=" ">
<polygon fill="#e0e0e0" stroke="#999999" points="562,-17 521,-17 521,0 562,0 562,-17"/>
<text text-anchor="middle" x="541.5" y="-6.6" font-family="SourceSans" font-size="8.00">future</text>
</a>
</g>
</g>
<!-- Node1&#45;&gt;Node9 -->
<g id="edge8" class="edge">
<title>Node1&#45;&gt;Node9</title>
<path fill="none" stroke="#63b8ff" d="M517.23,-52.96C521.63,-45.08 527.43,-34.69 532.26,-26.04"/>
<polygon fill="#63b8ff" stroke="#63b8ff" points="535.35,-27.69 537.17,-17.25 529.24,-24.27 535.35,-27.69"/>
</g>
<!-- Node10 -->
<g id="node10" class="node">
<title>Node10</title>
<g id="a_node10"><a xlink:title=" ">
<polygon fill="#e0e0e0" stroke="#999999" points="630.5,-17 580.5,-17 580.5,0 630.5,0 630.5,-17"/>
<text text-anchor="middle" x="605.5" y="-6.6" font-family="SourceSans" font-size="8.00">memory</text>
</a>
</g>
</g>
<!-- Node1&#45;&gt;Node10 -->
<g id="edge9" class="edge">
<title>Node1&#45;&gt;Node10</title>
<path fill="none" stroke="#63b8ff" d="M531.11,-52.96C546.57,-43.93 567.69,-31.59 583.47,-22.37"/>
<polygon fill="#63b8ff" stroke="#63b8ff" points="585.65,-25.15 592.52,-17.09 582.12,-19.11 585.65,-25.15"/>
</g>
<!-- Node11 -->
<g id="node11" class="node">
<title>Node11</title>
<g id="a_node11"><a xlink:title=" ">
<polygon fill="#e0e0e0" stroke="#999999" points="690,-17 649,-17 649,0 690,0 690,-17"/>
<text text-anchor="middle" x="669.5" y="-6.6" font-family="SourceSans" font-size="8.00">mutex</text>
</a>
</g>
</g>
<!-- Node1&#45;&gt;Node11 -->
<g id="edge10" class="edge">
<title>Node1&#45;&gt;Node11</title>
<path fill="none" stroke="#63b8ff" d="M545,-52.96C573.02,-43.18 612.17,-29.51 639.04,-20.13"/>
<polygon fill="#63b8ff" stroke="#63b8ff" points="640.4,-23.36 648.69,-16.76 638.1,-16.75 640.4,-23.36"/>
</g>
<!-- Node12 -->
<g id="node12" class="node">
<title>Node12</title>
<g id="a_node12"><a xlink:title=" ">
<polygon fill="#e0e0e0" stroke="#999999" points="751,-17 708,-17 708,0 751,0 751,-17"/>
<text text-anchor="middle" x="729.5" y="-6.6" font-family="SourceSans" font-size="8.00">queue</text>
</a>
</g>
</g>
<!-- Node1&#45;&gt;Node12 -->
<g id="edge11" class="edge">
<title>Node1&#45;&gt;Node12</title>
<path fill="none" stroke="#63b8ff" d="M558.02,-52.96C600.38,-42.22 661.2,-26.81 697.87,-17.51"/>
<polygon fill="#63b8ff" stroke="#63b8ff" points="699.15,-20.8 707.99,-14.95 697.43,-14.02 699.15,-20.8"/>
</g>
<!-- Node13 -->
<g id="node13" class="node">
<title>Node13</title>
<g id="a_node13"><a xlink:title=" ">
<polygon fill="#e0e0e0" stroke="#999999" points="812,-17 769,-17 769,0 812,0 812,-17"/>
<text text-anchor="middle" x="790.5" y="-6.6" font-family="SourceSans" font-size="8.00">thread</text>
</a>
</g>
</g>
<!-- Node1&#45;&gt;Node13 -->
<g id="edge12" class="edge">
<title>Node1&#45;&gt;Node13</title>
<path fill="none" stroke="#63b8ff" d="M578.62,-52.97C626.64,-44.25 692.68,-31.77 759.1,-17.21"/>
<polygon fill="#63b8ff" stroke="#63b8ff" points="759.89,-20.62 768.9,-15.05 758.38,-13.79 759.89,-20.62"/>
</g>
<!-- Node14 -->
<g id="node14" class="node">
<title>Node14</title>
<g id="a_node14"><a xlink:title=" ">
<polygon fill="#e0e0e0" stroke="#999999" points="872.5,-17 830.5,-17 830.5,0 872.5,0 872.5,-17"/>
<text text-anchor="middle" x="851.5" y="-6.6" font-family="SourceSans" font-size="8.00">vector</text>
</a>
</g>
</g>
<!-- Node1&#45;&gt;Node14 -->
<g id="edge13" class="edge">
<title>Node1&#45;&gt;Node14</title>
<path fill="none" stroke="#63b8ff" d="M579.07,-56.26C640.02,-48.07 731.71,-34.73 820.3,-17.07"/>
<polygon fill="#63b8ff" stroke="#63b8ff" points="821.14,-20.47 830.25,-15.07 819.76,-13.61 821.14,-20.47"/>
</g>
<!-- Node15 -->
<g id="node15" class="node">
<title>Node15</title>
<g id="a_node15"><a xlink:title=" ">
<polygon fill="#e0e0e0" stroke="#999999" points="938,-17 891,-17 891,0 938,0 938,-17"/>
<text text-anchor="middle" x="914.5" y="-6.6" font-family="SourceSans" font-size="8.00">util.hpp</text>
</a>
</g>
</g>
<!-- Node1&#45;&gt;Node15 -->
<g id="edge14" class="edge">
<title>Node1&#45;&gt;Node15</title>
<path fill="none" stroke="#63b8ff" d="M579.18,-58.09C651.68,-50.34 769.48,-36.5 880.71,-16.96"/>
<polygon fill="#63b8ff" stroke="#63b8ff" points="881.53,-20.37 890.76,-15.18 880.3,-13.48 881.53,-20.37"/>
</g>
</g>
</svg>
        <g id="navigator" transform="translate(0 0)" fill="#404254">
                <rect fill="#f2f5e9" fill-opacity="0.5" stroke="#606060" stroke-width=".5" x="0" y="0" width="60" height="60"/>
                <use id="zoomplus" xlink:href="#zoomPlus" x="17" y="9" onmousedown="handleZoom(evt,'in')"/>
                <use id="zoomminus" xlink:href="#zoomMin" x="42" y="9" onmousedown="handleZoom(evt,'out')"/>
                <use id="reset" xlink:href="#resetDef" x="30" y="36" onmousedown="handleReset()"/>
                <g id="arrowUp" xlink:href="#dirArrow" transform="translate(30 24)" onmousedown="handlePan(0,-1)">
                  <use xlink:href="#rim" fill="#404040">
                        <set attributeName="fill" to="#808080" begin="arrowUp.mouseover" end="arrowUp.mouseout"/>
                  </use>
                  <path fill="none" stroke="white" stroke-width="1.5" d="M0,-3.0v7 M-2.5,-0.5L0,-3.0L2.5,-0.5"/>
                </g>
                <g id="arrowRight" xlink:href="#dirArrow" transform="rotate(90) translate(36 -43)" onmousedown="handlePan(1,0)">
                  <use xlink:href="#rim" fill="#404040">
                        <set attributeName="fill" to="#808080" begin="arrowRight.mouseover" end="arrowRight.mouseout"/>
                  </use>
                  <path fill="none" stroke="white" stroke-width="1.5" d="M0,-3.0v7 M-2.5,-0.5L0,-3.0L2.5,-0.5"/>
                </g>
                <g id="arrowDown" xlink:href="#dirArrow" transform="rotate(180) translate(-30 -48)" onmousedown="handlePan(0,1)">
                  <use xlink:href="#rim" fill="#404040">
                        <set attributeName="fill" to="#808080" begin="arrowDown.mouseover" end="arrowDown.mouseout"/>
                  </use>
                  <path fill="none" stroke="white" stroke-width="1.5" d="M0,-3.0v7 M-2.5,-0.5L0,-3.0L2.5,-0.5"/>
                </g>
                <g id="arrowLeft" xlink:href="#dirArrow" transform="rotate(270) translate(-36 17)" onmousedown="handlePan(-1,0)">
                  <use xlink:href="#rim" fill="#404040">
                        <set attributeName="fill" to="#808080" begin="arrowLeft.mouseover" end="arrowLeft.mouseout"/>
                  </use>
                  <path fill="none" stroke="white" stroke-width="1.5" d="M0,-3.0v7 M-2.5,-0.5L0,-3.0L2.5,-0.5"/>
                </g>
        </g>
        <svg viewBox="0 0 15 15" width="100%" height="30px" preserveAspectRatio="xMaxYMin meet">
         <g id="arrow_out" transform="scale(0.3 0.3)">
          <a xlink:href="a60-thread-pool_8ganler_8h__incl_org.svg" target="_base">
           <rect id="button" ry="5" rx="5" y="6" x="6" height="38" width="38"
                fill="#f2f5e9" fill-opacity="0.5" stroke="#606060" stroke-width="1.0"/>
           <path id="arrow"
             d="M 11.500037,31.436501 C 11.940474,20.09759 22.043105,11.32322 32.158766,21.979434 L 37.068811,17.246167 C 37.068811,17.246167 37.088388,32 37.088388,32 L 22.160133,31.978069 C 22.160133,31.978069 26.997745,27.140456 26.997745,27.140456 C 18.528582,18.264221 13.291696,25.230495 11.500037,31.436501 z"
             style="fill:#404040;"/>
          </a>
         </g>
        </svg>
</svg>
