<?xml version="1.0" encoding="UTF-8" standalone="no"?>
<!DOCTYPE svg PUBLIC "-//W3C//DTD SVG 1.1//EN"
 "http://www.w3.org/Graphics/SVG/1.1/DTD/svg11.dtd">
<!-- Generated by graphviz version 5.0.0 (0)
 -->
<!-- Title: main Pages: 1 -->
<svg width="1275pt" height="738pt"
 viewBox="0.00 0.00 1275.00 737.50" xmlns="http://www.w3.org/2000/svg" xmlns:xlink="http://www.w3.org/1999/xlink">
<g id="graph0" class="graph" transform="scale(1 1) rotate(0) translate(4 733.5)">
<title>main</title>
<!-- Node1 -->
<g id="node1" class="node">
<title>Node1</title>
<g id="a_node1"><a xlink:title=" ">
<polygon fill="#999999" stroke="#666666" points="37,-310 0,-310 0,-293 37,-293 37,-310"/>
<text text-anchor="middle" x="18.5" y="-299.6" font-family="SourceSans" font-size="8.00">main</text>
</a>
</g>
</g>
<!-- Node2 -->
<g id="node2" class="node">
<title>Node2</title>
<g id="a_node2"><a xlink:href="namespacea60_1_1io.html#a89f2bd581ec510ccc0a8cfedccff7bd0" target="_top" xlink:title="Top level of directory for output files.">
<polygon fill="white" stroke="#666666" points="799,-587.5 703,-587.5 703,-561.5 799,-561.5 799,-587.5"/>
<text text-anchor="start" x="711" y="-577.1" font-family="SourceSans" font-size="8.00">a60::io::get_output</text>
<text text-anchor="middle" x="751" y="-568.1" font-family="SourceSans" font-size="8.00">_directory</text>
</a>
</g>
</g>
<!-- Node1&#45;&gt;Node2 -->
<g id="edge1" class="edge">
<title>Node1&#45;&gt;Node2</title>
<path fill="none" stroke="#63b8ff" d="M21.43,-310.2C33.98,-364.41 109.31,-653.5 287.5,-653.5 287.5,-653.5 287.5,-653.5 438,-653.5 538.36,-653.5 651.47,-614.61 710.04,-591.41"/>
<polygon fill="#63b8ff" stroke="#63b8ff" points="711.68,-594.52 719.65,-587.55 709.07,-588.03 711.68,-594.52"/>
</g>
<!-- Node4 -->
<g id="node4" class="node">
<title>Node4</title>
<g id="a_node4"><a xlink:href="namespacea60_1_1io.html#a6ad052ef18cfb1a1ac708f7c69c9050d" target="_top" xlink:title="Assumes argument is full path, no error checking...">
<polygon fill="white" stroke="#666666" points="950,-628.5 854,-628.5 854,-602.5 950,-602.5 950,-628.5"/>
<text text-anchor="start" x="862" y="-618.1" font-family="SourceSans" font-size="8.00">a60::io::get_output</text>
<text text-anchor="middle" x="902" y="-609.1" font-family="SourceSans" font-size="8.00">_prefix</text>
</a>
</g>
</g>
<!-- Node1&#45;&gt;Node4 -->
<g id="edge5" class="edge">
<title>Node1&#45;&gt;Node4</title>
<path fill="none" stroke="#63b8ff" d="M19.24,-310.29C18.63,-344.87 20.18,-473.84 73,-559.5 136.84,-663.04 165.86,-729.5 287.5,-729.5 287.5,-729.5 287.5,-729.5 593,-729.5 692.07,-729.5 719.47,-718.73 810,-678.5 835.05,-667.37 860.44,-649.08 878.01,-635.07"/>
<polygon fill="#63b8ff" stroke="#63b8ff" points="880.43,-637.61 885.97,-628.58 876.01,-632.18 880.43,-637.61"/>
</g>
<!-- Node5 -->
<g id="node5" class="node">
<title>Node5</title>
<g id="a_node5"><a xlink:href="a60-sample-dump-multi_8cc.html#a3c40fdf575741c80d34bd1d7dd37dcb0" target="_top" xlink:title="Repeat 1 locale above with delay PAUSE over not more than duration INTERVAL.">
<polygon fill="white" stroke="#666666" points="195,-378 73,-378 73,-361 195,-361 195,-378"/>
<text text-anchor="middle" x="134" y="-367.6" font-family="SourceSans" font-size="8.00">sample_swarm_pause_for</text>
</a>
</g>
</g>
<!-- Node1&#45;&gt;Node5 -->
<g id="edge6" class="edge">
<title>Node1&#45;&gt;Node5</title>
<path fill="none" stroke="#63b8ff" d="M33.87,-310.11C53.06,-321.61 87.27,-342.1 110.05,-355.75"/>
<polygon fill="#63b8ff" stroke="#63b8ff" points="108.36,-358.82 118.74,-360.96 111.96,-352.82 108.36,-358.82"/>
</g>
<!-- Node22 -->
<g id="node22" class="node">
<title>Node22</title>
<g id="a_node22"><a xlink:href="namespacea60_1_1io.html#aa5fbb8ab63397dd45c4a54c0758935ef" target="_top" xlink:title="Sanity check input existence.">
<polygon fill="white" stroke="#666666" points="1261,-115.5 1157,-115.5 1157,-89.5 1261,-89.5 1261,-115.5"/>
<text text-anchor="start" x="1165" y="-105.1" font-family="SourceSans" font-size="8.00">a60::io::sanity_check</text>
<text text-anchor="middle" x="1209" y="-96.1" font-family="SourceSans" font-size="8.00">_input</text>
</a>
</g>
</g>
<!-- Node1&#45;&gt;Node22 -->
<g id="edge55" class="edge">
<title>Node1&#45;&gt;Node22</title>
<path fill="none" stroke="#63b8ff" d="M20.78,-292.67C24.61,-269.05 37.97,-203.53 73,-163.5 144.65,-81.62 178.69,-45.5 287.5,-45.5 287.5,-45.5 287.5,-45.5 903,-45.5 997.64,-45.5 1022.99,-43.34 1115,-65.5 1134.21,-70.13 1154.69,-77.94 1171.54,-85.2"/>
<polygon fill="#63b8ff" stroke="#63b8ff" points="1170.44,-88.54 1181,-89.38 1173.27,-82.14 1170.44,-88.54"/>
</g>
<!-- Node33 -->
<g id="node33" class="node">
<title>Node33</title>
<g id="a_node33"><a xlink:href="namespacea60_1_1io.html#ad8339b50abcf6975587ba229c04066e7" target="_top" xlink:title="Check directory exists, else make it.">
<polygon fill="white" stroke="#666666" points="340.5,-129.5 236.5,-129.5 236.5,-103.5 340.5,-103.5 340.5,-129.5"/>
<text text-anchor="start" x="244.5" y="-119.1" font-family="SourceSans" font-size="8.00">a60::io::sanity_check</text>
<text text-anchor="middle" x="288.5" y="-110.1" font-family="SourceSans" font-size="8.00">_output_directory</text>
</a>
</g>
</g>
<!-- Node1&#45;&gt;Node33 -->
<g id="edge56" class="edge">
<title>Node1&#45;&gt;Node33</title>
<path fill="none" stroke="#63b8ff" d="M29.55,-292.85C59.08,-267.71 148.63,-193.29 231,-143.5 236.43,-140.22 242.33,-137.02 248.19,-134.05"/>
<polygon fill="#63b8ff" stroke="#63b8ff" points="249.87,-137.13 257.31,-129.59 246.79,-130.84 249.87,-137.13"/>
</g>
<!-- Node35 -->
<g id="node35" class="node">
<title>Node35</title>
<g id="a_node35"><a xlink:href="a60-sample-dump-multi_8cc.html#a8a7417c008c049c7237ed639fba10223" target="_top" xlink:title=" ">
<polygon fill="white" stroke="#666666" points="155,-17 113,-17 113,0 155,0 155,-17"/>
<text text-anchor="middle" x="134" y="-6.6" font-family="SourceSans" font-size="8.00">usage</text>
</a>
</g>
</g>
<!-- Node1&#45;&gt;Node35 -->
<g id="edge57" class="edge">
<title>Node1&#45;&gt;Node35</title>
<path fill="none" stroke="#63b8ff" d="M20.1,-292.95C23.15,-251.6 38.21,-72.79 73,-31.5 80.59,-22.49 92.14,-17 103.08,-13.65"/>
<polygon fill="#63b8ff" stroke="#63b8ff" points="104.02,-17.03 112.83,-11.15 102.27,-10.25 104.02,-17.03"/>
</g>
<!-- Node3 -->
<g id="node3" class="node">
<title>Node3</title>
<g id="a_node3"><a xlink:href="namespacea60_1_1io.html#a16f17ea9e02c1975ca17b77e46cf7629" target="_top" xlink:title="Make sure a path ends in &#39;/&#39;;.">
<polygon fill="white" stroke="#666666" points="1099.5,-624 1009.5,-624 1009.5,-607 1099.5,-607 1099.5,-624"/>
<text text-anchor="middle" x="1054.5" y="-613.6" font-family="SourceSans" font-size="8.00">a60::io::end_path</text>
</a>
</g>
</g>
<!-- Node2&#45;&gt;Node3 -->
<g id="edge2" class="edge">
<title>Node2&#45;&gt;Node3</title>
<path fill="none" stroke="#63b8ff" d="M799.27,-577.05C841.17,-579.74 903.92,-584.82 958,-593.5 975.67,-596.34 994.94,-600.56 1011.51,-604.54"/>
<polygon fill="#63b8ff" stroke="#63b8ff" points="1010.9,-608 1021.44,-606.98 1012.57,-601.2 1010.9,-608"/>
</g>
<!-- Node2&#45;&gt;Node4 -->
<g id="edge3" class="edge">
<title>Node2&#45;&gt;Node4</title>
<path fill="none" stroke="#63b8ff" d="M799.14,-587.47C813.35,-591.38 829.09,-595.71 843.86,-599.78"/>
<polygon fill="#63b8ff" stroke="#63b8ff" points="843.34,-603.26 853.91,-602.54 845.19,-596.51 843.34,-603.26"/>
</g>
<!-- Node4&#45;&gt;Node3 -->
<g id="edge4" class="edge">
<title>Node4&#45;&gt;Node3</title>
<path fill="none" stroke="#63b8ff" d="M950.21,-615.5C965.69,-615.5 983.03,-615.5 999.01,-615.5"/>
<polygon fill="#63b8ff" stroke="#63b8ff" points="999.28,-619 1009.28,-615.5 999.28,-612 999.28,-619"/>
</g>
<!-- Node5&#45;&gt;Node2 -->
<g id="edge7" class="edge">
<title>Node5&#45;&gt;Node2</title>
<path fill="none" stroke="#63b8ff" d="M148.59,-378.09C197.5,-408.52 370.07,-511.66 528,-554.5 582.57,-569.3 647.17,-573.72 692.57,-574.79"/>
<polygon fill="#63b8ff" stroke="#63b8ff" points="692.76,-578.3 702.82,-574.98 692.89,-571.3 692.76,-578.3"/>
</g>
<!-- Node5&#45;&gt;Node4 -->
<g id="edge8" class="edge">
<title>Node5&#45;&gt;Node4</title>
<path fill="none" stroke="#63b8ff" d="M139.81,-378.26C164.62,-422.08 282.8,-615.5 436,-615.5 436,-615.5 436,-615.5 593,-615.5 680.32,-615.5 781.57,-615.5 843.44,-615.5"/>
<polygon fill="#63b8ff" stroke="#63b8ff" points="843.78,-619 853.78,-615.5 843.78,-612 843.78,-619"/>
</g>
<!-- Node6 -->
<g id="node6" class="node">
<title>Node6</title>
<g id="a_node6"><a xlink:href="a60-sample-dump-multi_8cc.html#a8bcc07a401b6f586ae365e12a9f102d3" target="_top" xlink:title="Sample one locale.">
<polygon fill="white" stroke="#666666" points="346,-378 231,-378 231,-361 346,-361 346,-378"/>
<text text-anchor="middle" x="288.5" y="-367.6" font-family="SourceSans" font-size="8.00">sample_swarm_1_locale</text>
</a>
</g>
</g>
<!-- Node5&#45;&gt;Node6 -->
<g id="edge9" class="edge">
<title>Node5&#45;&gt;Node6</title>
<path fill="none" stroke="#63b8ff" d="M195.27,-369.5C203.56,-369.5 212.11,-369.5 220.51,-369.5"/>
<polygon fill="#63b8ff" stroke="#63b8ff" points="220.65,-373 230.65,-369.5 220.65,-366 220.65,-373"/>
</g>
<!-- Node26 -->
<g id="node26" class="node">
<title>Node26</title>
<g id="a_node26"><a xlink:href="namespacea60.html#a9f2c8dc1d45c663c1017a1b7b651588d" target="_top" xlink:title="ISO date time stamp as default.">
<polygon fill="white" stroke="#666666" points="949.5,-291.5 854.5,-291.5 854.5,-265.5 949.5,-265.5 949.5,-291.5"/>
<text text-anchor="start" x="862.5" y="-281.1" font-family="SourceSans" font-size="8.00">a60::time_point_as</text>
<text text-anchor="middle" x="902" y="-272.1" font-family="SourceSans" font-size="8.00">_string</text>
</a>
</g>
</g>
<!-- Node5&#45;&gt;Node26 -->
<g id="edge54" class="edge">
<title>Node5&#45;&gt;Node26</title>
<path fill="none" stroke="#63b8ff" d="M140.85,-360.93C168.65,-321.26 292.19,-157.5 436,-157.5 436,-157.5 436,-157.5 593,-157.5 696.1,-157.5 714.63,-200.33 810,-239.5 826.2,-246.15 829.92,-248.57 846,-255.5 850.51,-257.45 855.25,-259.46 859.96,-261.46"/>
<polygon fill="#63b8ff" stroke="#63b8ff" points="858.96,-264.83 869.54,-265.48 861.68,-258.38 858.96,-264.83"/>
</g>
<!-- Node5&#45;&gt;Node33 -->
<g id="edge50" class="edge">
<title>Node5&#45;&gt;Node33</title>
<path fill="none" stroke="#63b8ff" d="M137.74,-360.91C149.68,-323.84 198.14,-177.84 231,-143.5 234.13,-140.23 237.73,-137.31 241.58,-134.71"/>
<polygon fill="#63b8ff" stroke="#63b8ff" points="243.48,-137.65 250.28,-129.53 239.9,-131.64 243.48,-137.65"/>
</g>
<!-- Node34 -->
<g id="node34" class="node">
<title>Node34</title>
<g id="a_node34"><a xlink:href="namespacea60_1_1io.html#a5714619410f0816827d4238eb3291d0a" target="_top" xlink:title="Sets man output directory.">
<polygon fill="white" stroke="#666666" points="798.5,-669.5 703.5,-669.5 703.5,-643.5 798.5,-643.5 798.5,-669.5"/>
<text text-anchor="start" x="711.5" y="-659.1" font-family="SourceSans" font-size="8.00">a60::io::set_output</text>
<text text-anchor="middle" x="751" y="-650.1" font-family="SourceSans" font-size="8.00">_prefix</text>
</a>
</g>
</g>
<!-- Node5&#45;&gt;Node34 -->
<g id="edge51" class="edge">
<title>Node5&#45;&gt;Node34</title>
<path fill="none" stroke="#63b8ff" d="M135.19,-378.02C136.51,-414.98 147.04,-562.68 231,-629.5 367.31,-737.97 593.22,-698.19 696.04,-672.07"/>
<polygon fill="#63b8ff" stroke="#63b8ff" points="697.1,-675.41 705.9,-669.51 695.34,-668.64 697.1,-675.41"/>
</g>
<!-- Node7 -->
<g id="node7" class="node">
<title>Node7</title>
<g id="a_node7"><a xlink:href="namespacea60.html#a384a69e042867db6ff2e12764444b39c" target="_top" xlink:title="Run session for torrent, repeat &lt; tickmax, put results in now folder. Default tixmax == 4.">
<polygon fill="white" stroke="#666666" points="492,-382.5 382,-382.5 382,-356.5 492,-356.5 492,-382.5"/>
<text text-anchor="start" x="390" y="-372.1" font-family="SourceSans" font-size="8.00">a60::make_session_for</text>
<text text-anchor="middle" x="437" y="-363.1" font-family="SourceSans" font-size="8.00">_torrent</text>
</a>
</g>
</g>
<!-- Node6&#45;&gt;Node7 -->
<g id="edge10" class="edge">
<title>Node6&#45;&gt;Node7</title>
<path fill="none" stroke="#63b8ff" d="M346.14,-369.5C354.5,-369.5 363.16,-369.5 371.66,-369.5"/>
<polygon fill="#63b8ff" stroke="#63b8ff" points="371.92,-373 381.92,-369.5 371.92,-366 371.92,-373"/>
</g>
<!-- Node6&#45;&gt;Node26 -->
<g id="edge49" class="edge">
<title>Node6&#45;&gt;Node26</title>
<path fill="none" stroke="#63b8ff" d="M301.65,-360.99C335.51,-337.87 434.55,-274.19 528,-252.5 637.92,-226.99 770.53,-248.11 844.35,-264.3"/>
<polygon fill="#63b8ff" stroke="#63b8ff" points="843.84,-267.77 854.37,-266.54 845.37,-260.94 843.84,-267.77"/>
</g>
<!-- Node32 -->
<g id="node32" class="node">
<title>Node32</title>
<g id="a_node32"><a xlink:href="namespacea60_1_1io.html#aea30b8fc474f5a7b922516dc1e199037" target="_top" xlink:title="Takes a string representing a directory, returns a sorted list of contents as a std::vector&lt;string&gt;.">
<polygon fill="white" stroke="#666666" points="492,-418 382,-418 382,-401 492,-401 492,-418"/>
<text text-anchor="middle" x="437" y="-407.6" font-family="SourceSans" font-size="8.00">a60::io::populate_files</text>
</a>
</g>
</g>
<!-- Node6&#45;&gt;Node32 -->
<g id="edge48" class="edge">
<title>Node6&#45;&gt;Node32</title>
<path fill="none" stroke="#63b8ff" d="M320.93,-378.08C342.56,-383.99 371.5,-391.89 394.95,-398.29"/>
<polygon fill="#63b8ff" stroke="#63b8ff" points="394.06,-401.68 404.62,-400.93 395.9,-394.92 394.06,-401.68"/>
</g>
<!-- Node7&#45;&gt;Node2 -->
<g id="edge14" class="edge">
<title>Node7&#45;&gt;Node2</title>
<path fill="none" stroke="#63b8ff" d="M481.13,-382.61C485.17,-385.09 488.9,-388.03 492,-391.5 531.37,-435.57 485.56,-478.37 528,-519.5 551.27,-542.05 635.09,-558.2 692.81,-566.95"/>
<polygon fill="#63b8ff" stroke="#63b8ff" points="692.5,-570.44 702.9,-568.44 693.52,-563.52 692.5,-570.44"/>
</g>
<!-- Node8 -->
<g id="node8" class="node">
<title>Node8</title>
<g id="a_node8"><a xlink:href="namespacea60.html#a732ca2d85679838beb92881e9f39a999" target="_top" xlink:title="Engage bittorrent, create session.">
<polygon fill="white" stroke="#666666" points="648,-396 536,-396 536,-379 648,-379 648,-396"/>
<text text-anchor="middle" x="592" y="-385.6" font-family="SourceSans" font-size="8.00">a60::configure_session</text>
</a>
</g>
</g>
<!-- Node7&#45;&gt;Node8 -->
<g id="edge11" class="edge">
<title>Node7&#45;&gt;Node8</title>
<path fill="none" stroke="#63b8ff" d="M492.37,-375.9C503.16,-377.17 514.58,-378.51 525.69,-379.82"/>
<polygon fill="#63b8ff" stroke="#63b8ff" points="525.43,-383.31 535.77,-381 526.25,-376.36 525.43,-383.31"/>
</g>
<!-- Node9 -->
<g id="node9" class="node">
<title>Node9</title>
<g id="a_node9"><a xlink:href="namespacea60.html#a8b9a182b9bab06f3abea397c373a5f6b" target="_top" xlink:title="Print info about torrent_handle.">
<polygon fill="white" stroke="#666666" points="641,-287.5 543,-287.5 543,-261.5 641,-261.5 641,-287.5"/>
<text text-anchor="start" x="551" y="-277.1" font-family="SourceSans" font-size="8.00">a60::display_torrent</text>
<text text-anchor="middle" x="592" y="-268.1" font-family="SourceSans" font-size="8.00">_handle</text>
</a>
</g>
</g>
<!-- Node7&#45;&gt;Node9 -->
<g id="edge12" class="edge">
<title>Node7&#45;&gt;Node9</title>
<path fill="none" stroke="#63b8ff" d="M453.13,-356.25C470.39,-341.57 499.89,-317.82 528,-301.5 533.95,-298.05 540.42,-294.78 546.87,-291.79"/>
<polygon fill="#63b8ff" stroke="#63b8ff" points="548.55,-294.87 556.26,-287.61 545.7,-288.48 548.55,-294.87"/>
</g>
<!-- Node10 -->
<g id="node10" class="node">
<title>Node10</title>
<g id="a_node10"><a xlink:href="namespacea60.html#a291221a4eb53708506dceedfd78ad3e1" target="_top" xlink:title="Print info about torrent_status. (ie, just from the torrent file).">
<polygon fill="white" stroke="#666666" points="641,-475.5 543,-475.5 543,-449.5 641,-449.5 641,-475.5"/>
<text text-anchor="start" x="551" y="-465.1" font-family="SourceSans" font-size="8.00">a60::display_torrent</text>
<text text-anchor="middle" x="592" y="-456.1" font-family="SourceSans" font-size="8.00">_status</text>
</a>
</g>
</g>
<!-- Node7&#45;&gt;Node10 -->
<g id="edge13" class="edge">
<title>Node7&#45;&gt;Node10</title>
<path fill="none" stroke="#63b8ff" d="M477.44,-382.6C482.58,-385.14 487.59,-388.1 492,-391.5 513.11,-407.79 506.59,-423.6 528,-439.5 530.62,-441.44 533.42,-443.24 536.33,-444.89"/>
<polygon fill="#63b8ff" stroke="#63b8ff" points="534.81,-448.04 545.31,-449.44 537.97,-441.8 534.81,-448.04"/>
</g>
<!-- Node11 -->
<g id="node11" class="node">
<title>Node11</title>
<g id="a_node11"><a xlink:href="namespacea60.html#afe8d89ca4ef974726fd66dbda364cbf1" target="_top" xlink:title="Given session and magnet file, make session.">
<polygon fill="white" stroke="#666666" points="656,-511 528,-511 528,-494 656,-494 656,-511"/>
<text text-anchor="middle" x="592" y="-500.6" font-family="SourceSans" font-size="8.00">a60::make_magnet_handle</text>
</a>
</g>
</g>
<!-- Node7&#45;&gt;Node11 -->
<g id="edge15" class="edge">
<title>Node7&#45;&gt;Node11</title>
<path fill="none" stroke="#63b8ff" d="M480.27,-382.61C484.57,-385.09 488.59,-388.03 492,-391.5 523.06,-423.11 495.27,-454.62 528,-484.5 529.74,-486.09 531.61,-487.54 533.58,-488.86"/>
<polygon fill="#63b8ff" stroke="#63b8ff" points="532.3,-492.15 542.75,-493.88 535.66,-486.01 532.3,-492.15"/>
</g>
<!-- Node12 -->
<g id="node12" class="node">
<title>Node12</title>
<g id="a_node12"><a xlink:href="namespacea60.html#a1ae4660be19d8586055437f379fa4985" target="_top" xlink:title="Configure torrent session.">
<polygon fill="white" stroke="#666666" points="652,-431 532,-431 532,-414 652,-414 652,-431"/>
<text text-anchor="middle" x="592" y="-420.6" font-family="SourceSans" font-size="8.00">a60::make_settings_pack</text>
</a>
</g>
</g>
<!-- Node7&#45;&gt;Node12 -->
<g id="edge17" class="edge">
<title>Node7&#45;&gt;Node12</title>
<path fill="none" stroke="#63b8ff" d="M469.39,-382.53C486.57,-389.45 508.3,-397.87 528,-404.5 534.66,-406.74 541.78,-408.95 548.75,-411.01"/>
<polygon fill="#63b8ff" stroke="#63b8ff" points="548.19,-414.5 558.77,-413.91 550.14,-407.77 548.19,-414.5"/>
</g>
<!-- Node13 -->
<g id="node13" class="node">
<title>Node13</title>
<g id="a_node13"><a xlink:href="namespacea60.html#a0024ebebf4beab70240ed62e88733a5e" target="_top" xlink:title="Given session and torrent file, add torrent to session.">
<polygon fill="white" stroke="#666666" points="653.5,-361 530.5,-361 530.5,-344 653.5,-344 653.5,-361"/>
<text text-anchor="middle" x="592" y="-350.6" font-family="SourceSans" font-size="8.00">a60::make_torrent_handle</text>
</a>
</g>
</g>
<!-- Node7&#45;&gt;Node13 -->
<g id="edge18" class="edge">
<title>Node7&#45;&gt;Node13</title>
<path fill="none" stroke="#63b8ff" d="M492.37,-363.46C501.39,-362.46 510.86,-361.4 520.22,-360.36"/>
<polygon fill="#63b8ff" stroke="#63b8ff" points="520.74,-363.83 530.3,-359.24 519.97,-356.87 520.74,-363.83"/>
</g>
<!-- Node7&#45;&gt;Node26 -->
<g id="edge47" class="edge">
<title>Node7&#45;&gt;Node26</title>
<path fill="none" stroke="#63b8ff" d="M466.64,-356.48C484.06,-349.04 506.94,-340.1 528,-334.5 638,-305.24 770.59,-289.9 844.38,-283.06"/>
<polygon fill="#63b8ff" stroke="#63b8ff" points="844.75,-286.54 854.39,-282.15 844.11,-279.57 844.75,-286.54"/>
</g>
<!-- Node27 -->
<g id="node27" class="node">
<title>Node27</title>
<g id="a_node27"><a xlink:href="namespacea60.html#ab629c2f2a2ce0c6e94f1b2093eceb42e" target="_top" xlink:title="Info about torrent_info, serialized to json.">
<polygon fill="white" stroke="#666666" points="803,-129.5 699,-129.5 699,-103.5 803,-103.5 803,-129.5"/>
<text text-anchor="start" x="707" y="-119.1" font-family="SourceSans" font-size="8.00">a60::serialize_torrent</text>
<text text-anchor="middle" x="751" y="-110.1" font-family="SourceSans" font-size="8.00">_handle_json</text>
</a>
</g>
</g>
<!-- Node7&#45;&gt;Node27 -->
<g id="edge37" class="edge">
<title>Node7&#45;&gt;Node27</title>
<path fill="none" stroke="#63b8ff" d="M445.87,-356.31C460.09,-333.22 491.98,-284.89 528,-252.5 585.86,-200.48 666.28,-156.92 712.77,-133.97"/>
<polygon fill="#63b8ff" stroke="#63b8ff" points="714.42,-137.06 721.87,-129.53 711.35,-130.77 714.42,-137.06"/>
</g>
<!-- Node11&#45;&gt;Node2 -->
<g id="edge16" class="edge">
<title>Node11&#45;&gt;Node2</title>
<path fill="none" stroke="#63b8ff" d="M618.74,-511.04C630.28,-515.09 643.96,-520.19 656,-525.5 677.08,-534.79 700.02,-546.72 717.96,-556.47"/>
<polygon fill="#63b8ff" stroke="#63b8ff" points="716.4,-559.61 726.85,-561.35 719.77,-553.47 716.4,-559.61"/>
</g>
<!-- Node13&#45;&gt;Node2 -->
<g id="edge36" class="edge">
<title>Node13&#45;&gt;Node2</title>
<path fill="none" stroke="#63b8ff" d="M642.28,-361.11C647.24,-363.31 651.94,-366.06 656,-369.5 713.33,-418.01 737.52,-508.9 746.05,-551.44"/>
<polygon fill="#63b8ff" stroke="#63b8ff" points="742.63,-552.22 747.93,-561.39 749.51,-550.92 742.63,-552.22"/>
</g>
<!-- Node14 -->
<g id="node14" class="node">
<title>Node14</title>
<g id="a_node14"><a xlink:href="namespacea60.html#a36ea22d12ecf44568213ff453ad1da2c" target="_top" xlink:title="Print info about torrent_info.">
<polygon fill="white" stroke="#666666" points="810,-361 692,-361 692,-344 810,-344 810,-361"/>
<text text-anchor="middle" x="751" y="-350.6" font-family="SourceSans" font-size="8.00">a60::display_torrent_info</text>
</a>
</g>
</g>
<!-- Node13&#45;&gt;Node14 -->
<g id="edge19" class="edge">
<title>Node13&#45;&gt;Node14</title>
<path fill="none" stroke="#63b8ff" d="M653.7,-352.5C662.89,-352.5 672.42,-352.5 681.76,-352.5"/>
<polygon fill="#63b8ff" stroke="#63b8ff" points="681.78,-356 691.78,-352.5 681.78,-349 681.78,-356"/>
</g>
<!-- Node15 -->
<g id="node15" class="node">
<title>Node15</title>
<g id="a_node15"><a xlink:href="namespacea60_1_1geo.html#a2ec44da723ee6128696872f94d989c7f" target="_top" xlink:title="Address to IP/Geo.">
<polygon fill="white" stroke="#666666" points="952.5,-361.5 851.5,-361.5 851.5,-335.5 952.5,-335.5 952.5,-361.5"/>
<text text-anchor="start" x="859.5" y="-351.1" font-family="SourceSans" font-size="8.00">a60::geo::display_ip</text>
<text text-anchor="middle" x="902" y="-342.1" font-family="SourceSans" font-size="8.00">_and_geo_info</text>
</a>
</g>
</g>
<!-- Node14&#45;&gt;Node15 -->
<g id="edge20" class="edge">
<title>Node14&#45;&gt;Node15</title>
<path fill="none" stroke="#63b8ff" d="M810.03,-350.94C820.21,-350.67 830.81,-350.38 841.04,-350.11"/>
<polygon fill="#63b8ff" stroke="#63b8ff" points="841.2,-353.61 851.1,-349.84 841.01,-346.61 841.2,-353.61"/>
</g>
<!-- Node24 -->
<g id="node24" class="node">
<title>Node24</title>
<g id="a_node24"><a xlink:href="namespacea60.html#aafdf18ade22a9e669299209ed5a8bdc6" target="_top" xlink:title="Once.">
<polygon fill="white" stroke="#666666" points="954,-247 850,-247 850,-230 954,-230 954,-247"/>
<text text-anchor="middle" x="902" y="-236.6" font-family="SourceSans" font-size="8.00">a60::host_ip_address</text>
</a>
</g>
</g>
<!-- Node14&#45;&gt;Node24 -->
<g id="edge32" class="edge">
<title>Node14&#45;&gt;Node24</title>
<path fill="none" stroke="#63b8ff" d="M758.04,-343.99C771.64,-325.42 806.58,-281 846,-256.5 849.41,-254.38 853.09,-252.49 856.88,-250.8"/>
<polygon fill="#63b8ff" stroke="#63b8ff" points="858.41,-253.95 866.42,-247.01 855.83,-247.45 858.41,-253.95"/>
</g>
<!-- Node14&#45;&gt;Node26 -->
<g id="edge34" class="edge">
<title>Node14&#45;&gt;Node26</title>
<path fill="none" stroke="#63b8ff" d="M775.73,-343.91C786.35,-339.86 798.95,-334.76 810,-329.5 830.75,-319.63 853.29,-307.01 870.74,-296.8"/>
<polygon fill="#63b8ff" stroke="#63b8ff" points="872.54,-299.8 879.37,-291.7 868.98,-293.77 872.54,-299.8"/>
</g>
<!-- Node16 -->
<g id="node16" class="node">
<title>Node16</title>
<g id="a_node16"><a xlink:href="structa60_1_1geo_1_1country__map.html#a96a87722e7988878c37210a8bb208624" target="_top" xlink:title=" ">
<polygon fill="white" stroke="#666666" points="1114.5,-344.5 994.5,-344.5 994.5,-318.5 1114.5,-318.5 1114.5,-344.5"/>
<text text-anchor="start" x="1002.5" y="-334.1" font-family="SourceSans" font-size="8.00">a60::geo::country_map</text>
<text text-anchor="middle" x="1054.5" y="-325.1" font-family="SourceSans" font-size="8.00">::country_code_via_string</text>
</a>
</g>
</g>
<!-- Node15&#45;&gt;Node16 -->
<g id="edge21" class="edge">
<title>Node15&#45;&gt;Node16</title>
<path fill="none" stroke="#63b8ff" d="M952.7,-342.89C962.82,-341.74 973.64,-340.52 984.3,-339.32"/>
<polygon fill="#63b8ff" stroke="#63b8ff" points="984.9,-342.77 994.44,-338.17 984.11,-335.82 984.9,-342.77"/>
</g>
<!-- Node18 -->
<g id="node18" class="node">
<title>Node18</title>
<g id="a_node18"><a xlink:href="namespacea60_1_1geo.html#a7d8058b0d2e8d5f5c90dfe2cab6fc462" target="_top" xlink:title=" ">
<polygon fill="white" stroke="#666666" points="1267,-409 1151,-409 1151,-392 1267,-392 1267,-409"/>
<text text-anchor="middle" x="1209" y="-398.6" font-family="SourceSans" font-size="8.00">a60::geo::safe_if_empty</text>
</a>
</g>
</g>
<!-- Node15&#45;&gt;Node18 -->
<g id="edge31" class="edge">
<title>Node15&#45;&gt;Node18</title>
<path fill="none" stroke="#63b8ff" d="M921.07,-361.64C938.68,-373.6 966.73,-390.42 994,-397.5 1041.95,-409.95 1097.99,-410.24 1140.69,-407.67"/>
<polygon fill="#63b8ff" stroke="#63b8ff" points="1140.95,-411.16 1150.7,-407 1140.48,-404.18 1140.95,-411.16"/>
</g>
<!-- Node20 -->
<g id="node20" class="node">
<title>Node20</title>
<g id="a_node20"><a xlink:href="structa60_1_1geo_1_1city__map_1_1record.html#a7b30bf979e46ddb75bc274871e4ab367" target="_top" xlink:title=" ">
<polygon fill="white" stroke="#666666" points="1112,-388.5 997,-388.5 997,-362.5 1112,-362.5 1112,-388.5"/>
<text text-anchor="start" x="1005" y="-378.1" font-family="SourceSans" font-size="8.00">a60::geo::city_map</text>
<text text-anchor="middle" x="1054.5" y="-369.1" font-family="SourceSans" font-size="8.00">::record::is_record_open</text>
</a>
</g>
</g>
<!-- Node15&#45;&gt;Node20 -->
<g id="edge26" class="edge">
<title>Node15&#45;&gt;Node20</title>
<path fill="none" stroke="#63b8ff" d="M952.7,-357.42C963.62,-359.38 975.37,-361.48 986.84,-363.54"/>
<polygon fill="#63b8ff" stroke="#63b8ff" points="986.36,-367.01 996.82,-365.33 987.6,-360.12 986.36,-367.01"/>
</g>
<!-- Node21 -->
<g id="node21" class="node">
<title>Node21</title>
<g id="a_node21"><a xlink:href="structa60_1_1geo_1_1map__base.html#a9215731f10e2fa8488b0e081c2a5cef4" target="_top" xlink:title=" ">
<polygon fill="white" stroke="#666666" points="1105.5,-171.5 1003.5,-171.5 1003.5,-145.5 1105.5,-145.5 1105.5,-171.5"/>
<text text-anchor="start" x="1011.5" y="-161.1" font-family="SourceSans" font-size="8.00">a60::geo::map_base</text>
<text text-anchor="middle" x="1054.5" y="-152.1" font-family="SourceSans" font-size="8.00">::open</text>
</a>
</g>
</g>
<!-- Node15&#45;&gt;Node21 -->
<g id="edge27" class="edge">
<title>Node15&#45;&gt;Node21</title>
<path fill="none" stroke="#63b8ff" d="M936.04,-335.44C944.06,-331.03 952.03,-325.42 958,-318.5 988.31,-283.36 969.41,-259.85 994,-220.5 1003.79,-204.83 1018.04,-189.81 1030.14,-178.48"/>
<polygon fill="#63b8ff" stroke="#63b8ff" points="1032.66,-180.91 1037.71,-171.59 1027.95,-175.73 1032.66,-180.91"/>
</g>
<!-- Node23 -->
<g id="node23" class="node">
<title>Node23</title>
<g id="a_node23"><a xlink:href="structa60_1_1geo_1_1city__map.html#a8edb2011397d2166076b33f5187afe18" target="_top" xlink:title=" ">
<polygon fill="white" stroke="#666666" points="1102.5,-300.5 1006.5,-300.5 1006.5,-274.5 1102.5,-274.5 1102.5,-300.5"/>
<text text-anchor="start" x="1014.5" y="-290.1" font-family="SourceSans" font-size="8.00">a60::geo::city_map</text>
<text text-anchor="middle" x="1054.5" y="-281.1" font-family="SourceSans" font-size="8.00">::open_record</text>
</a>
</g>
</g>
<!-- Node15&#45;&gt;Node23 -->
<g id="edge29" class="edge">
<title>Node15&#45;&gt;Node23</title>
<path fill="none" stroke="#63b8ff" d="M932.35,-335.47C950.1,-327.71 973.25,-317.78 994,-309.5 998.43,-307.73 1003.07,-305.93 1007.72,-304.16"/>
<polygon fill="#63b8ff" stroke="#63b8ff" points="1009.08,-307.39 1017.2,-300.59 1006.61,-300.84 1009.08,-307.39"/>
</g>
<!-- Node17 -->
<g id="node17" class="node">
<title>Node17</title>
<g id="a_node17"><a xlink:href="structa60_1_1geo_1_1map__base.html#ae86685f27b25cdaead9c94752618b2e4" target="_top" xlink:title=" ">
<polygon fill="white" stroke="#666666" points="1260,-302.5 1158,-302.5 1158,-276.5 1260,-276.5 1260,-302.5"/>
<text text-anchor="start" x="1166" y="-292.1" font-family="SourceSans" font-size="8.00">a60::geo::map_base</text>
<text text-anchor="middle" x="1209" y="-283.1" font-family="SourceSans" font-size="8.00">::is_map_open</text>
</a>
</g>
</g>
<!-- Node16&#45;&gt;Node17 -->
<g id="edge22" class="edge">
<title>Node16&#45;&gt;Node17</title>
<path fill="none" stroke="#63b8ff" d="M1102.92,-318.44C1118.12,-314.25 1135.12,-309.57 1150.94,-305.21"/>
<polygon fill="#63b8ff" stroke="#63b8ff" points="1151.9,-308.58 1160.61,-302.55 1150.04,-301.83 1151.9,-308.58"/>
</g>
<!-- Node16&#45;&gt;Node18 -->
<g id="edge23" class="edge">
<title>Node16&#45;&gt;Node18</title>
<path fill="none" stroke="#63b8ff" d="M1092.89,-344.59C1100.28,-347.38 1107.93,-350.42 1115,-353.5 1138.73,-363.84 1164.98,-377.3 1183.52,-387.17"/>
<polygon fill="#63b8ff" stroke="#63b8ff" points="1182,-390.32 1192.46,-391.96 1185.31,-384.15 1182,-390.32"/>
</g>
<!-- Node19 -->
<g id="node19" class="node">
<title>Node19</title>
<g id="a_node19"><a xlink:href="namespacea60_1_1constants.html#a01d9786063fb572d9389b0cd207bbe53" target="_top" xlink:title=" ">
<polygon fill="white" stroke="#666666" points="1258,-340 1160,-340 1160,-323 1258,-323 1258,-340"/>
<text text-anchor="middle" x="1209" y="-329.6" font-family="SourceSans" font-size="8.00">a60::constants::tab</text>
</a>
</g>
</g>
<!-- Node16&#45;&gt;Node19 -->
<g id="edge24" class="edge">
<title>Node16&#45;&gt;Node19</title>
<path fill="none" stroke="#63b8ff" d="M1114.9,-331.5C1126.29,-331.5 1138.22,-331.5 1149.59,-331.5"/>
<polygon fill="#63b8ff" stroke="#63b8ff" points="1149.84,-335 1159.84,-331.5 1149.84,-328 1149.84,-335"/>
</g>
<!-- Node19&#45;&gt;Node19 -->
<g id="edge25" class="edge">
<title>Node19&#45;&gt;Node19</title>
<path fill="none" stroke="#63b8ff" d="M1186.05,-340.19C1173.38,-348.67 1181.03,-358 1209,-358 1227.79,-358 1237.41,-353.79 1237.86,-348.45"/>
<polygon fill="#63b8ff" stroke="#63b8ff" points="1240.61,-346.28 1231.95,-340.19 1234.92,-350.36 1240.61,-346.28"/>
</g>
<!-- Node21&#45;&gt;Node22 -->
<g id="edge28" class="edge">
<title>Node21&#45;&gt;Node22</title>
<path fill="none" stroke="#63b8ff" d="M1091.25,-145.37C1112.67,-137.51 1140.09,-127.44 1162.97,-119.04"/>
<polygon fill="#63b8ff" stroke="#63b8ff" points="1164.29,-122.28 1172.47,-115.55 1161.88,-115.71 1164.29,-122.28"/>
</g>
<!-- Node23&#45;&gt;Node17 -->
<g id="edge30" class="edge">
<title>Node23&#45;&gt;Node17</title>
<path fill="none" stroke="#63b8ff" d="M1102.92,-288.12C1117.12,-288.31 1132.9,-288.52 1147.81,-288.71"/>
<polygon fill="#63b8ff" stroke="#63b8ff" points="1147.93,-292.21 1157.97,-288.84 1148.02,-285.21 1147.93,-292.21"/>
</g>
<!-- Node25 -->
<g id="node25" class="node">
<title>Node25</title>
<g id="a_node25"><a xlink:href="namespacea60.html#ac912026493721c2646a3336faffe1baa" target="_top" xlink:title="Test machine&#39;s address.">
<polygon fill="white" stroke="#666666" points="1115,-247 994,-247 994,-230 1115,-230 1115,-247"/>
<text text-anchor="middle" x="1054.5" y="-236.6" font-family="SourceSans" font-size="8.00">a60::get_host_ip_address</text>
</a>
</g>
</g>
<!-- Node24&#45;&gt;Node25 -->
<g id="edge33" class="edge">
<title>Node24&#45;&gt;Node25</title>
<path fill="none" stroke="#63b8ff" d="M954.37,-238.5C963.79,-238.5 973.76,-238.5 983.61,-238.5"/>
<polygon fill="#63b8ff" stroke="#63b8ff" points="983.8,-242 993.8,-238.5 983.8,-235 983.8,-242"/>
</g>
<!-- Node26&#45;&gt;Node26 -->
<g id="edge35" class="edge">
<title>Node26&#45;&gt;Node26</title>
<path fill="none" stroke="#63b8ff" d="M876.62,-291.56C868.93,-300.6 877.39,-309.5 902,-309.5 917,-309.5 926,-306.19 929,-301.57"/>
<polygon fill="#63b8ff" stroke="#63b8ff" points="932.43,-300.87 927.38,-291.56 925.52,-301.99 932.43,-300.87"/>
</g>
<!-- Node27&#45;&gt;Node21 -->
<g id="edge44" class="edge">
<title>Node27&#45;&gt;Node21</title>
<path fill="none" stroke="#63b8ff" d="M803.01,-129.05C816.89,-132.15 831.97,-135.23 846,-137.5 895.26,-145.47 951.62,-150.94 993.16,-154.3"/>
<polygon fill="#63b8ff" stroke="#63b8ff" points="993.14,-157.81 1003.39,-155.11 993.7,-150.83 993.14,-157.81"/>
</g>
<!-- Node27&#45;&gt;Node24 -->
<g id="edge38" class="edge">
<title>Node27&#45;&gt;Node24</title>
<path fill="none" stroke="#63b8ff" d="M790.05,-129.54C797.28,-133.24 804.34,-137.85 810,-143.5 836.74,-170.19 817.72,-195.45 846,-220.5 847.94,-222.22 850.05,-223.78 852.27,-225.18"/>
<polygon fill="#63b8ff" stroke="#63b8ff" points="850.82,-228.37 861.3,-229.91 854.07,-222.17 850.82,-228.37"/>
</g>
<!-- Node27&#45;&gt;Node26 -->
<g id="edge46" class="edge">
<title>Node27&#45;&gt;Node26</title>
<path fill="none" stroke="#63b8ff" d="M791.81,-129.63C798.57,-133.28 805,-137.84 810,-143.5 844.6,-182.7 810.63,-216.99 846,-255.5 847.34,-256.96 848.78,-258.33 850.31,-259.61"/>
<polygon fill="#63b8ff" stroke="#63b8ff" points="848.34,-262.5 858.55,-265.35 852.35,-256.76 848.34,-262.5"/>
</g>
<!-- Node28 -->
<g id="node28" class="node">
<title>Node28</title>
<g id="a_node28"><a xlink:href="namespacea60.html#ad300edc3a7396b9f52a64f37e9443891" target="_top" xlink:title="No GeoIP.">
<polygon fill="white" stroke="#666666" points="1108,-92 1001,-92 1001,-75 1108,-75 1108,-92"/>
<text text-anchor="middle" x="1054.5" y="-81.6" font-family="SourceSans" font-size="8.00">a60::make_meta_peer</text>
</a>
</g>
</g>
<!-- Node27&#45;&gt;Node28 -->
<g id="edge39" class="edge">
<title>Node27&#45;&gt;Node28</title>
<path fill="none" stroke="#63b8ff" d="M803.15,-108.34C817.03,-106.28 832.08,-104.17 846,-102.5 894.51,-96.67 949.58,-91.7 990.8,-88.31"/>
<polygon fill="#63b8ff" stroke="#63b8ff" points="991.28,-91.78 1000.97,-87.48 990.72,-84.81 991.28,-91.78"/>
</g>
<!-- Node29 -->
<g id="node29" class="node">
<title>Node29</title>
<g id="a_node29"><a xlink:href="namespacea60.html#a9d37f2f6f8a4b125ee6304d15a118f61" target="_top" xlink:title=" ">
<polygon fill="white" stroke="#666666" points="958,-129 846,-129 846,-112 958,-112 958,-129"/>
<text text-anchor="middle" x="902" y="-118.6" font-family="SourceSans" font-size="8.00">a60::make_meta_peers</text>
</a>
</g>
</g>
<!-- Node27&#45;&gt;Node29 -->
<g id="edge40" class="edge">
<title>Node27&#45;&gt;Node29</title>
<path fill="none" stroke="#63b8ff" d="M803.28,-117.88C813.68,-118.16 824.74,-118.45 835.56,-118.74"/>
<polygon fill="#63b8ff" stroke="#63b8ff" points="835.72,-122.25 845.81,-119.02 835.91,-115.25 835.72,-122.25"/>
</g>
<!-- Node31 -->
<g id="node31" class="node">
<title>Node31</title>
<g id="a_node31"><a xlink:href="namespacea60.html#a2228baa081fe66cea91ed8032bda4732" target="_top" xlink:title="Serialize meta_peer.">
<polygon fill="white" stroke="#666666" points="951,-211.5 853,-211.5 853,-185.5 951,-185.5 951,-211.5"/>
<text text-anchor="start" x="861" y="-201.1" font-family="SourceSans" font-size="8.00">a60::serialize_meta</text>
<text text-anchor="middle" x="902" y="-192.1" font-family="SourceSans" font-size="8.00">_peer_json</text>
</a>
</g>
</g>
<!-- Node27&#45;&gt;Node31 -->
<g id="edge45" class="edge">
<title>Node27&#45;&gt;Node31</title>
<path fill="none" stroke="#63b8ff" d="M783.37,-129.54C792.2,-133.62 801.66,-138.4 810,-143.5 827.3,-154.07 828.81,-160.76 846,-171.5 851.14,-174.71 856.72,-177.84 862.29,-180.75"/>
<polygon fill="#63b8ff" stroke="#63b8ff" points="861.06,-184.05 871.57,-185.43 864.22,-177.8 861.06,-184.05"/>
</g>
<!-- Node29&#45;&gt;Node21 -->
<g id="edge43" class="edge">
<title>Node29&#45;&gt;Node21</title>
<path fill="none" stroke="#63b8ff" d="M936.78,-129.03C953.45,-133.24 974.09,-138.45 993.34,-143.31"/>
<polygon fill="#63b8ff" stroke="#63b8ff" points="992.71,-146.76 1003.26,-145.81 994.42,-139.97 992.71,-146.76"/>
</g>
<!-- Node29&#45;&gt;Node28 -->
<g id="edge41" class="edge">
<title>Node29&#45;&gt;Node28</title>
<path fill="none" stroke="#63b8ff" d="M937.91,-111.92C959.09,-106.71 986.32,-100.02 1009.03,-94.43"/>
<polygon fill="#63b8ff" stroke="#63b8ff" points="1009.91,-97.82 1018.78,-92.04 1008.24,-91.02 1009.91,-97.82"/>
</g>
<!-- Node30 -->
<g id="node30" class="node">
<title>Node30</title>
<g id="a_node30"><a xlink:href="namespacea60.html#afa4b02aa30f3ff7828561abb787ede03" target="_top" xlink:title="Less than compare for meta_peer via geo.">
<polygon fill="white" stroke="#666666" points="1109.5,-127 999.5,-127 999.5,-110 1109.5,-110 1109.5,-127"/>
<text text-anchor="middle" x="1054.5" y="-116.6" font-family="SourceSans" font-size="8.00">a60::meta_peer_lt_geo</text>
</a>
</g>
</g>
<!-- Node29&#45;&gt;Node30 -->
<g id="edge42" class="edge">
<title>Node29&#45;&gt;Node30</title>
<path fill="none" stroke="#63b8ff" d="M958.19,-119.77C968.25,-119.63 978.84,-119.49 989.14,-119.36"/>
<polygon fill="#63b8ff" stroke="#63b8ff" points="989.37,-122.85 999.33,-119.22 989.28,-115.85 989.37,-122.85"/>
</g>
<!-- Node34&#45;&gt;Node3 -->
<g id="edge52" class="edge">
<title>Node34&#45;&gt;Node3</title>
<path fill="none" stroke="#63b8ff" d="M798.86,-653.98C840.76,-651.3 903.74,-646.21 958,-637.5 975.67,-634.66 994.94,-630.44 1011.51,-626.46"/>
<polygon fill="#63b8ff" stroke="#63b8ff" points="1012.57,-629.8 1021.44,-624.02 1010.9,-623 1012.57,-629.8"/>
</g>
<!-- Node34&#45;&gt;Node4 -->
<g id="edge53" class="edge">
<title>Node34&#45;&gt;Node4</title>
<path fill="none" stroke="#63b8ff" d="M798.74,-643.64C813.16,-639.67 829.2,-635.26 844.22,-631.12"/>
<polygon fill="#63b8ff" stroke="#63b8ff" points="845.2,-634.48 853.92,-628.46 843.35,-627.73 845.2,-634.48"/>
</g>
</g>
</svg>
