<?xml version="1.0" encoding="UTF-8" standalone="no"?>
<!DOCTYPE svg PUBLIC "-//W3C//DTD SVG 1.1//EN"
 "http://www.w3.org/Graphics/SVG/1.1/DTD/svg11.dtd">
<!-- Generated by graphviz version 5.0.0 (0)
 -->
<!-- Title: composite_images_vertical_flip_up Pages: 1 -->
<svg width="281pt" height="78pt"
 viewBox="0.00 0.00 281.00 78.00" xmlns="http://www.w3.org/2000/svg" xmlns:xlink="http://www.w3.org/1999/xlink">
<g id="graph0" class="graph" transform="scale(1 1) rotate(0) translate(4 74)">
<title>composite_images_vertical_flip_up</title>
<!-- Node1 -->
<g id="node1" class="node">
<title>Node1</title>
<g id="a_node1"><a xlink:title=" ">
<polygon fill="#999999" stroke="#666666" points="127,-47.5 0,-47.5 0,-21.5 127,-21.5 127,-47.5"/>
<text text-anchor="start" x="8" y="-37.1" font-family="SourceSans" font-size="8.00">composite_images_vertical</text>
<text text-anchor="middle" x="63.5" y="-28.1" font-family="SourceSans" font-size="8.00">_flip_up</text>
</a>
</g>
</g>
<!-- Node2 -->
<g id="node2" class="node">
<title>Node2</title>
<g id="a_node2"><a xlink:href="namespacea60_1_1io.html#aea30b8fc474f5a7b922516dc1e199037" target="_top" xlink:title="Takes a string representing a directory, returns a sorted list of contents as a std::vector&lt;string&gt;.">
<polygon fill="white" stroke="#666666" points="273,-70 163,-70 163,-53 273,-53 273,-70"/>
<text text-anchor="middle" x="218" y="-59.6" font-family="SourceSans" font-size="8.00">a60::io::populate_files</text>
</a>
</g>
</g>
<!-- Node1&#45;&gt;Node2 -->
<g id="edge1" class="edge">
<title>Node1&#45;&gt;Node2</title>
<path fill="none" stroke="#63b8ff" d="M127.41,-45.64C137.75,-47.47 148.42,-49.36 158.64,-51.17"/>
<polygon fill="#63b8ff" stroke="#63b8ff" points="158.23,-54.65 168.68,-52.95 159.45,-47.76 158.23,-54.65"/>
</g>
<!-- Node3 -->
<g id="node3" class="node">
<title>Node3</title>
<g id="a_node3"><a xlink:href="namespacea60.html#a4e8b0cabed112734147b499bf0cc9029" target="_top" xlink:title="Conversion of resolution_mode to string.">
<polygon fill="white" stroke="#666666" points="255,-17 181,-17 181,0 255,0 255,-17"/>
<text text-anchor="middle" x="218" y="-6.6" font-family="SourceSans" font-size="8.00">a60::to_string</text>
</a>
</g>
</g>
<!-- Node1&#45;&gt;Node3 -->
<g id="edge2" class="edge">
<title>Node1&#45;&gt;Node3</title>
<path fill="none" stroke="#63b8ff" d="M127.41,-23.77C141.92,-21.3 157.1,-18.71 170.76,-16.38"/>
<polygon fill="#63b8ff" stroke="#63b8ff" points="171.59,-19.79 180.86,-14.66 170.42,-12.89 171.59,-19.79"/>
</g>
<!-- Node3&#45;&gt;Node3 -->
<g id="edge3" class="edge">
<title>Node3&#45;&gt;Node3</title>
<path fill="none" stroke="#63b8ff" d="M195.05,-17.19C182.38,-25.67 190.03,-35 218,-35 236.79,-35 246.41,-30.79 246.86,-25.45"/>
<polygon fill="#63b8ff" stroke="#63b8ff" points="249.61,-23.28 240.95,-17.19 243.92,-27.36 249.61,-23.28"/>
</g>
</g>
</svg>
