<?xml version="1.0" encoding="UTF-8" standalone="no"?>
<!DOCTYPE svg PUBLIC "-//W3C//DTD SVG 1.1//EN"
 "http://www.w3.org/Graphics/SVG/1.1/DTD/svg11.dtd">
<!-- Generated by graphviz version 5.0.0 (0)
 -->
<!-- Title: /home/bkoz/src/alpha60/src/a60&#45;collection&#45;objects&#45;explicit.h Pages: 1 -->
<!--zoomable 202 -->
<svg id="main" version="1.1" xmlns="http://www.w3.org/2000/svg" xmlns:xlink="http://www.w3.org/1999/xlink" xml:space="preserve" onload="init(evt)">
<style type="text/css"><![CDATA[
.edge:hover path { stroke: red; }
.edge:hover polygon { stroke: red; fill: red; }
]]></style>
<script type="text/javascript"><![CDATA[
var edges = document.getElementsByTagName('g');
if (edges && edges.length) {
  for (var i=0;i<edges.length;i++) {
    if (edges[i].id.substr(0,4)=='edge') {
      edges[i].setAttribute('class','edge');
    }
  }
}
]]></script>
        <defs>
                <circle id="rim" cx="0" cy="0" r="7"/>
                <circle id="rim2" cx="0" cy="0" r="3.5"/>
                <g id="zoomPlus">
                        <use xlink:href="#rim" fill="#404040">
                                <set attributeName="fill" to="#808080" begin="zoomplus.mouseover" end="zoomplus.mouseout"/>
                        </use>
                        <path d="M-4,0h8M0,-4v8" fill="none" stroke="white" stroke-width="1.5" pointer-events="none"/>
                </g>
                <g id="zoomMin">
                        <use xlink:href="#rim" fill="#404040">
                                <set attributeName="fill" to="#808080" begin="zoomminus.mouseover" end="zoomminus.mouseout"/>
                        </use>
                        <path d="M-4,0h8" fill="none" stroke="white" stroke-width="1.5" pointer-events="none"/>
                </g>
                <g id="dirArrow">
                        <path fill="none" stroke="white" stroke-width="1.5" d="M0,-3.0v7 M-2.5,-0.5L0,-3.0L2.5,-0.5"/>
                </g>
               <g id="resetDef">
                       <use xlink:href="#rim2" fill="#404040">
                               <set attributeName="fill" to="#808080" begin="reset.mouseover" end="reset.mouseout"/>
                       </use>
               </g>
        </defs>

<script type="text/javascript">
var viewWidth = 1155;
var viewHeight = 202;
var sectionId = 'dynsection-0';
</script>
<script xlink:href="svgpan.js"/>
<svg id="graph" class="graph">
<g id="viewport">
<title>/home/bkoz/src/alpha60/src/a60&#45;collection&#45;objects&#45;explicit.h</title>
<!-- Node1 -->
<g id="node1" class="node">
<title>Node1</title>
<g id="a_node1"><a xlink:title=" ">
<polygon fill="#999999" stroke="#666666" points="563,-194 437,-194 437,-159 563,-159 563,-194"/>
<text text-anchor="start" x="445" y="-183.6" font-family="SourceSans" font-size="8.00">/home/bkoz/src/alpha60</text>
<text text-anchor="start" x="445" y="-174.6" font-family="SourceSans" font-size="8.00">/src/a60&#45;collection&#45;objects</text>
<text text-anchor="middle" x="500" y="-165.6" font-family="SourceSans" font-size="8.00">&#45;explicit.h</text>
</a>
</g>
</g>
<!-- Node2 -->
<g id="node2" class="node">
<title>Node2</title>
<g id="a_node2"><a xlink:href="a60-collection-base_8h.html" target="_top" xlink:title=" ">
<polygon fill="white" stroke="#666666" points="553,-123 447,-123 447,-106 553,-106 553,-123"/>
<text text-anchor="middle" x="500" y="-112.6" font-family="SourceSans" font-size="8.00">a60&#45;collection&#45;base.h</text>
</a>
</g>
</g>
<!-- Node1&#45;&gt;Node2 -->
<g id="edge1" class="edge">
<title>Node1&#45;&gt;Node2</title>
<path fill="none" stroke="#63b8ff" d="M500,-158.79C500,-150.87 500,-141.4 500,-133.34"/>
<polygon fill="#63b8ff" stroke="#63b8ff" points="503.5,-133.2 500,-123.2 496.5,-133.2 503.5,-133.2"/>
</g>
<!-- Node3 -->
<g id="node3" class="node">
<title>Node3</title>
<g id="a_node3"><a xlink:title=" ">
<polygon fill="#e0e0e0" stroke="#999999" points="489.5,-70 454.5,-70 454.5,-53 489.5,-53 489.5,-70"/>
<text text-anchor="middle" x="472" y="-59.6" font-family="SourceSans" font-size="8.00">map</text>
</a>
</g>
</g>
<!-- Node2&#45;&gt;Node3 -->
<g id="edge2" class="edge">
<title>Node2&#45;&gt;Node3</title>
<path fill="none" stroke="#63b8ff" d="M495.87,-105.97C491.98,-98.89 486.03,-88.05 481.04,-78.96"/>
<polygon fill="#63b8ff" stroke="#63b8ff" points="484.03,-77.14 476.15,-70.06 477.89,-80.51 484.03,-77.14"/>
</g>
<!-- Node4 -->
<g id="node4" class="node">
<title>Node4</title>
<g id="a_node4"><a xlink:href="a60_8h.html" target="_top" xlink:title=" ">
<polygon fill="white" stroke="#666666" points="548,-70 508,-70 508,-53 548,-53 548,-70"/>
<text text-anchor="middle" x="528" y="-59.6" font-family="SourceSans" font-size="8.00">a60.h</text>
</a>
</g>
</g>
<!-- Node2&#45;&gt;Node4 -->
<g id="edge3" class="edge">
<title>Node2&#45;&gt;Node4</title>
<path fill="none" stroke="#63b8ff" d="M504.13,-105.97C508.02,-98.89 513.97,-88.05 518.96,-78.96"/>
<polygon fill="#63b8ff" stroke="#63b8ff" points="522.11,-80.51 523.85,-70.06 515.97,-77.14 522.11,-80.51"/>
</g>
<!-- Node5 -->
<g id="node5" class="node">
<title>Node5</title>
<g id="a_node5"><a xlink:title=" ">
<polygon fill="#e0e0e0" stroke="#999999" points="42,-17 0,-17 0,0 42,0 42,-17"/>
<text text-anchor="middle" x="21" y="-6.6" font-family="SourceSans" font-size="8.00">cmath</text>
</a>
</g>
</g>
<!-- Node4&#45;&gt;Node5 -->
<g id="edge4" class="edge">
<title>Node4&#45;&gt;Node5</title>
<path fill="none" stroke="#63b8ff" d="M507.76,-54.96C504.52,-54.21 501.18,-53.52 498,-53 304.59,-21.26 249.5,-48.35 52.32,-16.91"/>
<polygon fill="#63b8ff" stroke="#63b8ff" points="52.65,-13.41 42.22,-15.26 51.52,-20.32 52.65,-13.41"/>
</g>
<!-- Node6 -->
<g id="node6" class="node">
<title>Node6</title>
<g id="a_node6"><a xlink:title=" ">
<polygon fill="#e0e0e0" stroke="#999999" points="98,-17 60,-17 60,0 98,0 98,-17"/>
<text text-anchor="middle" x="79" y="-6.6" font-family="SourceSans" font-size="8.00">tuple</text>
</a>
</g>
</g>
<!-- Node4&#45;&gt;Node6 -->
<g id="edge5" class="edge">
<title>Node4&#45;&gt;Node6</title>
<path fill="none" stroke="#63b8ff" d="M507.76,-54.99C504.51,-54.24 501.18,-53.54 498,-53 329.15,-24.29 280.59,-46.82 108.1,-16.85"/>
<polygon fill="#63b8ff" stroke="#63b8ff" points="108.64,-13.4 98.18,-15.1 107.42,-20.29 108.64,-13.4"/>
</g>
<!-- Node7 -->
<g id="node7" class="node">
<title>Node7</title>
<g id="a_node7"><a xlink:title=" ">
<polygon fill="#e0e0e0" stroke="#999999" points="156,-17 116,-17 116,0 156,0 156,-17"/>
<text text-anchor="middle" x="136" y="-6.6" font-family="SourceSans" font-size="8.00">string</text>
</a>
</g>
</g>
<!-- Node4&#45;&gt;Node7 -->
<g id="edge6" class="edge">
<title>Node4&#45;&gt;Node7</title>
<path fill="none" stroke="#63b8ff" d="M507.75,-55.04C504.5,-54.28 501.17,-53.57 498,-53 354.59,-27.45 313.21,-43 166.05,-16.9"/>
<polygon fill="#63b8ff" stroke="#63b8ff" points="166.66,-13.46 156.2,-15.12 165.42,-20.35 166.66,-13.46"/>
</g>
<!-- Node8 -->
<g id="node8" class="node">
<title>Node8</title>
<g id="a_node8"><a xlink:title=" ">
<polygon fill="#e0e0e0" stroke="#999999" points="216,-17 174,-17 174,0 216,0 216,-17"/>
<text text-anchor="middle" x="195" y="-6.6" font-family="SourceSans" font-size="8.00">vector</text>
</a>
</g>
</g>
<!-- Node4&#45;&gt;Node8 -->
<g id="edge7" class="edge">
<title>Node4&#45;&gt;Node8</title>
<path fill="none" stroke="#63b8ff" d="M507.74,-55.1C504.49,-54.33 501.16,-53.6 498,-53 380.94,-30.72 347,-39.39 226.24,-17.01"/>
<polygon fill="#63b8ff" stroke="#63b8ff" points="226.71,-13.54 216.24,-15.13 225.42,-20.42 226.71,-13.54"/>
</g>
<!-- Node9 -->
<g id="node9" class="node">
<title>Node9</title>
<g id="a_node9"><a xlink:title=" ">
<polygon fill="#e0e0e0" stroke="#999999" points="263.5,-17 234.5,-17 234.5,0 263.5,0 263.5,-17"/>
<text text-anchor="middle" x="249" y="-6.6" font-family="SourceSans" font-size="8.00">set</text>
</a>
</g>
</g>
<!-- Node4&#45;&gt;Node9 -->
<g id="edge8" class="edge">
<title>Node4&#45;&gt;Node9</title>
<path fill="none" stroke="#63b8ff" d="M507.72,-55.18C504.48,-54.4 501.16,-53.65 498,-53 401.88,-33.33 373.36,-39.72 273.52,-16.76"/>
<polygon fill="#63b8ff" stroke="#63b8ff" points="274.17,-13.31 263.63,-14.44 272.57,-20.13 274.17,-13.31"/>
</g>
<!-- Node10 -->
<g id="node10" class="node">
<title>Node10</title>
<g id="a_node10"><a xlink:title=" ">
<polygon fill="#e0e0e0" stroke="#999999" points="362,-17 282,-17 282,0 362,0 362,-17"/>
<text text-anchor="middle" x="322" y="-6.6" font-family="SourceSans" font-size="8.00">unordered_map</text>
</a>
</g>
</g>
<!-- Node4&#45;&gt;Node10 -->
<g id="edge9" class="edge">
<title>Node4&#45;&gt;Node10</title>
<path fill="none" stroke="#63b8ff" d="M507.99,-55.49C504.66,-54.66 501.23,-53.8 498,-53 451.57,-41.46 398.23,-28.29 362.55,-19.49"/>
<polygon fill="#63b8ff" stroke="#63b8ff" points="363.08,-16.01 352.53,-17.02 361.4,-22.81 363.08,-16.01"/>
</g>
<!-- Node11 -->
<g id="node11" class="node">
<title>Node11</title>
<g id="a_node11"><a xlink:title=" ">
<polygon fill="#e0e0e0" stroke="#999999" points="455.5,-17 380.5,-17 380.5,0 455.5,0 455.5,-17"/>
<text text-anchor="middle" x="418" y="-6.6" font-family="SourceSans" font-size="8.00">unordered_set</text>
</a>
</g>
</g>
<!-- Node4&#45;&gt;Node11 -->
<g id="edge10" class="edge">
<title>Node4&#45;&gt;Node11</title>
<path fill="none" stroke="#63b8ff" d="M511.77,-52.97C493.82,-44.65 464.65,-31.13 443.61,-21.37"/>
<polygon fill="#63b8ff" stroke="#63b8ff" points="444.84,-18.09 434.3,-17.06 441.9,-24.44 444.84,-18.09"/>
</g>
<!-- Node12 -->
<g id="node12" class="node">
<title>Node12</title>
<g id="a_node12"><a xlink:title=" ">
<polygon fill="#e0e0e0" stroke="#999999" points="518,-17 474,-17 474,0 518,0 518,-17"/>
<text text-anchor="middle" x="496" y="-6.6" font-family="SourceSans" font-size="8.00">chrono</text>
</a>
</g>
</g>
<!-- Node4&#45;&gt;Node12 -->
<g id="edge11" class="edge">
<title>Node4&#45;&gt;Node12</title>
<path fill="none" stroke="#63b8ff" d="M523.28,-52.97C518.79,-45.82 511.89,-34.82 506.15,-25.67"/>
<polygon fill="#63b8ff" stroke="#63b8ff" points="509.02,-23.67 500.74,-17.06 503.09,-27.39 509.02,-23.67"/>
</g>
<!-- Node13 -->
<g id="node13" class="node">
<title>Node13</title>
<g id="a_node13"><a xlink:title=" ">
<polygon fill="#e0e0e0" stroke="#999999" points="586,-17 536,-17 536,0 586,0 586,-17"/>
<text text-anchor="middle" x="561" y="-6.6" font-family="SourceSans" font-size="8.00">numeric</text>
</a>
</g>
</g>
<!-- Node4&#45;&gt;Node13 -->
<g id="edge12" class="edge">
<title>Node4&#45;&gt;Node13</title>
<path fill="none" stroke="#63b8ff" d="M532.87,-52.97C537.5,-45.82 544.62,-34.82 550.53,-25.67"/>
<polygon fill="#63b8ff" stroke="#63b8ff" points="553.62,-27.35 556.11,-17.06 547.74,-23.55 553.62,-27.35"/>
</g>
<!-- Node14 -->
<g id="node14" class="node">
<title>Node14</title>
<g id="a_node14"><a xlink:title=" ">
<polygon fill="#e0e0e0" stroke="#999999" points="660,-17 604,-17 604,0 660,0 660,-17"/>
<text text-anchor="middle" x="632" y="-6.6" font-family="SourceSans" font-size="8.00">algorithm</text>
</a>
</g>
</g>
<!-- Node4&#45;&gt;Node14 -->
<g id="edge13" class="edge">
<title>Node4&#45;&gt;Node14</title>
<path fill="none" stroke="#63b8ff" d="M543.35,-52.97C560.24,-44.69 587.65,-31.25 607.52,-21.5"/>
<polygon fill="#63b8ff" stroke="#63b8ff" points="609.15,-24.6 616.59,-17.06 606.07,-18.32 609.15,-24.6"/>
</g>
<!-- Node15 -->
<g id="node15" class="node">
<title>Node15</title>
<g id="a_node15"><a xlink:title=" ">
<polygon fill="#e0e0e0" stroke="#999999" points="719.5,-17 678.5,-17 678.5,0 719.5,0 719.5,-17"/>
<text text-anchor="middle" x="699" y="-6.6" font-family="SourceSans" font-size="8.00">locale</text>
</a>
</g>
</g>
<!-- Node4&#45;&gt;Node15 -->
<g id="edge14" class="edge">
<title>Node4&#45;&gt;Node15</title>
<path fill="none" stroke="#63b8ff" d="M548.29,-54.45C578.16,-45.54 634.18,-28.83 668.87,-18.49"/>
<polygon fill="#63b8ff" stroke="#63b8ff" points="669.89,-21.83 678.47,-15.62 667.89,-15.13 669.89,-21.83"/>
</g>
<!-- Node16 -->
<g id="node16" class="node">
<title>Node16</title>
<g id="a_node16"><a xlink:title=" ">
<polygon fill="#e0e0e0" stroke="#999999" points="786.5,-17 737.5,-17 737.5,0 786.5,0 786.5,-17"/>
<text text-anchor="middle" x="762" y="-6.6" font-family="SourceSans" font-size="8.00">codecvt</text>
</a>
</g>
</g>
<!-- Node4&#45;&gt;Node16 -->
<g id="edge15" class="edge">
<title>Node4&#45;&gt;Node16</title>
<path fill="none" stroke="#63b8ff" d="M548.27,-56.19C582.92,-48.8 655.99,-33.14 727.43,-17.33"/>
<polygon fill="#63b8ff" stroke="#63b8ff" points="728.49,-20.68 737.5,-15.1 726.98,-13.85 728.49,-20.68"/>
</g>
<!-- Node17 -->
<g id="node17" class="node">
<title>Node17</title>
<g id="a_node17"><a xlink:title=" ">
<polygon fill="#e0e0e0" stroke="#999999" points="941.5,-17 804.5,-17 804.5,0 941.5,0 941.5,-17"/>
<text text-anchor="middle" x="873" y="-6.6" font-family="SourceSans" font-size="8.00">ext/codecvt_specializations.h</text>
</a>
</g>
</g>
<!-- Node4&#45;&gt;Node17 -->
<g id="edge16" class="edge">
<title>Node4&#45;&gt;Node17</title>
<path fill="none" stroke="#63b8ff" d="M548.04,-57.54C598.48,-50.08 732.32,-30.3 811.62,-18.57"/>
<polygon fill="#63b8ff" stroke="#63b8ff" points="812.57,-21.97 821.96,-17.05 811.55,-15.05 812.57,-21.97"/>
</g>
<!-- Node18 -->
<g id="node18" class="node">
<title>Node18</title>
<g id="a_node18"><a xlink:title=" ">
<polygon fill="#e0e0e0" stroke="#999999" points="1008.5,-17 959.5,-17 959.5,0 1008.5,0 1008.5,-17"/>
<text text-anchor="middle" x="984" y="-6.6" font-family="SourceSans" font-size="8.00">sstream</text>
</a>
</g>
</g>
<!-- Node4&#45;&gt;Node18 -->
<g id="edge17" class="edge">
<title>Node4&#45;&gt;Node18</title>
<path fill="none" stroke="#63b8ff" d="M548.37,-59.28C608.35,-55.52 789.65,-42.81 949.21,-17.11"/>
<polygon fill="#63b8ff" stroke="#63b8ff" points="949.89,-20.54 959.2,-15.48 948.76,-13.63 949.89,-20.54"/>
</g>
<!-- Node19 -->
<g id="node19" class="node">
<title>Node19</title>
<g id="a_node19"><a xlink:title=" ">
<polygon fill="#e0e0e0" stroke="#999999" points="1077,-17 1027,-17 1027,0 1077,0 1077,-17"/>
<text text-anchor="middle" x="1052" y="-6.6" font-family="SourceSans" font-size="8.00">iomanip</text>
</a>
</g>
</g>
<!-- Node4&#45;&gt;Node19 -->
<g id="edge18" class="edge">
<title>Node4&#45;&gt;Node19</title>
<path fill="none" stroke="#63b8ff" d="M548.18,-59.64C614.11,-56.64 829.2,-45.3 1016.78,-16.97"/>
<polygon fill="#63b8ff" stroke="#63b8ff" points="1017.46,-20.41 1026.82,-15.43 1016.4,-13.49 1017.46,-20.41"/>
</g>
<!-- Node20 -->
<g id="node20" class="node">
<title>Node20</title>
<g id="a_node20"><a xlink:title=" ">
<polygon fill="#e0e0e0" stroke="#999999" points="1147,-17 1095,-17 1095,0 1147,0 1147,-17"/>
<text text-anchor="middle" x="1121" y="-6.6" font-family="SourceSans" font-size="8.00">iostream</text>
</a>
</g>
</g>
<!-- Node4&#45;&gt;Node20 -->
<g id="edge19" class="edge">
<title>Node4&#45;&gt;Node20</title>
<path fill="none" stroke="#63b8ff" d="M548.13,-59.9C619.8,-57.56 869.38,-47.69 1084.79,-16.96"/>
<polygon fill="#63b8ff" stroke="#63b8ff" points="1085.3,-20.42 1094.69,-15.53 1084.3,-13.5 1085.3,-20.42"/>
</g>
</g>
</svg>
        <g id="navigator" transform="translate(0 0)" fill="#404254">
                <rect fill="#f2f5e9" fill-opacity="0.5" stroke="#606060" stroke-width=".5" x="0" y="0" width="60" height="60"/>
                <use id="zoomplus" xlink:href="#zoomPlus" x="17" y="9" onmousedown="handleZoom(evt,'in')"/>
                <use id="zoomminus" xlink:href="#zoomMin" x="42" y="9" onmousedown="handleZoom(evt,'out')"/>
                <use id="reset" xlink:href="#resetDef" x="30" y="36" onmousedown="handleReset()"/>
                <g id="arrowUp" xlink:href="#dirArrow" transform="translate(30 24)" onmousedown="handlePan(0,-1)">
                  <use xlink:href="#rim" fill="#404040">
                        <set attributeName="fill" to="#808080" begin="arrowUp.mouseover" end="arrowUp.mouseout"/>
                  </use>
                  <path fill="none" stroke="white" stroke-width="1.5" d="M0,-3.0v7 M-2.5,-0.5L0,-3.0L2.5,-0.5"/>
                </g>
                <g id="arrowRight" xlink:href="#dirArrow" transform="rotate(90) translate(36 -43)" onmousedown="handlePan(1,0)">
                  <use xlink:href="#rim" fill="#404040">
                        <set attributeName="fill" to="#808080" begin="arrowRight.mouseover" end="arrowRight.mouseout"/>
                  </use>
                  <path fill="none" stroke="white" stroke-width="1.5" d="M0,-3.0v7 M-2.5,-0.5L0,-3.0L2.5,-0.5"/>
                </g>
                <g id="arrowDown" xlink:href="#dirArrow" transform="rotate(180) translate(-30 -48)" onmousedown="handlePan(0,1)">
                  <use xlink:href="#rim" fill="#404040">
                        <set attributeName="fill" to="#808080" begin="arrowDown.mouseover" end="arrowDown.mouseout"/>
                  </use>
                  <path fill="none" stroke="white" stroke-width="1.5" d="M0,-3.0v7 M-2.5,-0.5L0,-3.0L2.5,-0.5"/>
                </g>
                <g id="arrowLeft" xlink:href="#dirArrow" transform="rotate(270) translate(-36 17)" onmousedown="handlePan(-1,0)">
                  <use xlink:href="#rim" fill="#404040">
                        <set attributeName="fill" to="#808080" begin="arrowLeft.mouseover" end="arrowLeft.mouseout"/>
                  </use>
                  <path fill="none" stroke="white" stroke-width="1.5" d="M0,-3.0v7 M-2.5,-0.5L0,-3.0L2.5,-0.5"/>
                </g>
        </g>
        <svg viewBox="0 0 15 15" width="100%" height="30px" preserveAspectRatio="xMaxYMin meet">
         <g id="arrow_out" transform="scale(0.3 0.3)">
          <a xlink:href="a60-collection-objects-explicit_8h__incl_org.svg" target="_base">
           <rect id="button" ry="5" rx="5" y="6" x="6" height="38" width="38"
                fill="#f2f5e9" fill-opacity="0.5" stroke="#606060" stroke-width="1.0"/>
           <path id="arrow"
             d="M 11.500037,31.436501 C 11.940474,20.09759 22.043105,11.32322 32.158766,21.979434 L 37.068811,17.246167 C 37.068811,17.246167 37.088388,32 37.088388,32 L 22.160133,31.978069 C 22.160133,31.978069 26.997745,27.140456 26.997745,27.140456 C 18.528582,18.264221 13.291696,25.230495 11.500037,31.436501 z"
             style="fill:#404040;"/>
          </a>
         </g>
        </svg>
</svg>
