<?xml version="1.0" encoding="UTF-8" standalone="no"?>
<!DOCTYPE svg PUBLIC "-//W3C//DTD SVG 1.1//EN"
 "http://www.w3.org/Graphics/SVG/1.1/DTD/svg11.dtd">
<!-- Generated by graphviz version 5.0.0 (0)
 -->
<!-- Title: /home/bkoz/src/alpha60/src/a60&#45;cache&#45;edit.cc Pages: 1 -->
<svg width="2902pt" height="423pt"
 viewBox="0.00 0.00 2902.00 423.00" xmlns="http://www.w3.org/2000/svg" xmlns:xlink="http://www.w3.org/1999/xlink">
<g id="graph0" class="graph" transform="scale(1 1) rotate(0) translate(4 419)">
<title>/home/bkoz/src/alpha60/src/a60&#45;cache&#45;edit.cc</title>
<!-- Node1 -->
<g id="node1" class="node">
<title>Node1</title>
<g id="a_node1"><a xlink:title=" ">
<polygon fill="#999999" stroke="#666666" points="2570.5,-415 2454.5,-415 2454.5,-389 2570.5,-389 2570.5,-415"/>
<text text-anchor="start" x="2462.5" y="-404.6" font-family="SourceSans" font-size="8.00">/home/bkoz/src/alpha60</text>
<text text-anchor="middle" x="2512.5" y="-395.6" font-family="SourceSans" font-size="8.00">/src/a60&#45;cache&#45;edit.cc</text>
</a>
</g>
</g>
<!-- Node2 -->
<g id="node2" class="node">
<title>Node2</title>
<g id="a_node2"><a xlink:href="a60-json_8h.html" target="_top" xlink:title=" ">
<polygon fill="white" stroke="#666666" points="2306.5,-353 2246.5,-353 2246.5,-336 2306.5,-336 2306.5,-353"/>
<text text-anchor="middle" x="2276.5" y="-342.6" font-family="SourceSans" font-size="8.00">a60&#45;json.h</text>
</a>
</g>
</g>
<!-- Node1&#45;&gt;Node2 -->
<g id="edge1" class="edge">
<title>Node1&#45;&gt;Node2</title>
<path fill="none" stroke="#63b8ff" d="M2461.29,-388.96C2417.89,-378.75 2356.52,-364.32 2316.62,-354.93"/>
<polygon fill="#63b8ff" stroke="#63b8ff" points="2317.25,-351.49 2306.71,-352.6 2315.65,-358.3 2317.25,-351.49"/>
</g>
<!-- Node51 -->
<g id="node51" class="node">
<title>Node51</title>
<g id="a_node51"><a xlink:href="a60-collection-json_8h.html" target="_top" xlink:title=" ">
<polygon fill="white" stroke="#666666" points="2502,-353 2399,-353 2399,-336 2502,-336 2502,-353"/>
<text text-anchor="middle" x="2450.5" y="-342.6" font-family="SourceSans" font-size="8.00">a60&#45;collection&#45;json.h</text>
</a>
</g>
</g>
<!-- Node1&#45;&gt;Node51 -->
<g id="edge53" class="edge">
<title>Node1&#45;&gt;Node51</title>
<path fill="none" stroke="#63b8ff" d="M2499.05,-388.96C2489.59,-380.49 2476.88,-369.11 2466.83,-360.12"/>
<polygon fill="#63b8ff" stroke="#63b8ff" points="2468.94,-357.31 2459.16,-353.25 2464.27,-362.53 2468.94,-357.31"/>
</g>
<!-- Node56 -->
<g id="node56" class="node">
<title>Node56</title>
<g id="a_node56"><a xlink:href="a60-collection-cache_8h.html" target="_top" xlink:title=" ">
<polygon fill="white" stroke="#666666" points="2632.5,-353 2522.5,-353 2522.5,-336 2632.5,-336 2632.5,-353"/>
<text text-anchor="middle" x="2577.5" y="-342.6" font-family="SourceSans" font-size="8.00">a60&#45;collection&#45;cache.h</text>
</a>
</g>
</g>
<!-- Node1&#45;&gt;Node56 -->
<g id="edge61" class="edge">
<title>Node1&#45;&gt;Node56</title>
<path fill="none" stroke="#63b8ff" d="M2526.6,-388.96C2536.62,-380.4 2550.11,-368.88 2560.69,-359.85"/>
<polygon fill="#63b8ff" stroke="#63b8ff" points="2563.09,-362.4 2568.43,-353.25 2558.55,-357.08 2563.09,-362.4"/>
</g>
<!-- Node65 -->
<g id="node65" class="node">
<title>Node65</title>
<g id="a_node65"><a xlink:href="a60-collection-objects_8h.html" target="_top" xlink:title=" ">
<polygon fill="white" stroke="#666666" points="2776.5,-300 2660.5,-300 2660.5,-283 2776.5,-283 2776.5,-300"/>
<text text-anchor="middle" x="2718.5" y="-289.6" font-family="SourceSans" font-size="8.00">a60&#45;collection&#45;objects.h</text>
</a>
</g>
</g>
<!-- Node1&#45;&gt;Node65 -->
<g id="edge73" class="edge">
<title>Node1&#45;&gt;Node65</title>
<path fill="none" stroke="#63b8ff" d="M2554.61,-388.98C2580.55,-380.71 2613.99,-368.43 2641.5,-353 2664.56,-340.07 2688.01,-320.53 2702.87,-307.18"/>
<polygon fill="#63b8ff" stroke="#63b8ff" points="2705.56,-309.46 2710.56,-300.13 2700.83,-304.3 2705.56,-309.46"/>
</g>
<!-- Node3 -->
<g id="node3" class="node">
<title>Node3</title>
<g id="a_node3"><a xlink:href="a60-swarm-functions_8h.html" target="_top" xlink:title=" ">
<polygon fill="white" stroke="#666666" points="2185,-300 2074,-300 2074,-283 2185,-283 2185,-300"/>
<text text-anchor="middle" x="2129.5" y="-289.6" font-family="SourceSans" font-size="8.00">a60&#45;swarm&#45;functions.h</text>
</a>
</g>
</g>
<!-- Node2&#45;&gt;Node3 -->
<g id="edge2" class="edge">
<title>Node2&#45;&gt;Node3</title>
<path fill="none" stroke="#63b8ff" d="M2254.81,-335.97C2230.06,-327.39 2189.35,-313.27 2161.08,-303.46"/>
<polygon fill="#63b8ff" stroke="#63b8ff" points="2161.87,-300.03 2151.28,-300.06 2159.58,-306.64 2161.87,-300.03"/>
</g>
<!-- Node4 -->
<g id="node4" class="node">
<title>Node4</title>
<g id="a_node4"><a xlink:href="a60-peer_8h.html" target="_top" xlink:title=" ">
<polygon fill="white" stroke="#666666" points="920.5,-247 858.5,-247 858.5,-230 920.5,-230 920.5,-247"/>
<text text-anchor="middle" x="889.5" y="-236.6" font-family="SourceSans" font-size="8.00">a60&#45;peer.h</text>
</a>
</g>
</g>
<!-- Node3&#45;&gt;Node4 -->
<g id="edge3" class="edge">
<title>Node3&#45;&gt;Node4</title>
<path fill="none" stroke="#63b8ff" d="M2073.81,-288.21C1862.78,-279.53 1114.94,-248.77 930.73,-241.2"/>
<polygon fill="#63b8ff" stroke="#63b8ff" points="930.78,-237.7 920.65,-240.78 930.5,-244.69 930.78,-237.7"/>
</g>
<!-- Node44 -->
<g id="node44" class="node">
<title>Node44</title>
<g id="a_node44"><a xlink:href="a60-json-fwd_8h.html" target="_top" xlink:title=" ">
<polygon fill="white" stroke="#666666" points="2097.5,-247 2019.5,-247 2019.5,-230 2097.5,-230 2097.5,-247"/>
<text text-anchor="middle" x="2058.5" y="-236.6" font-family="SourceSans" font-size="8.00">a60&#45;json&#45;fwd.h</text>
</a>
</g>
</g>
<!-- Node3&#45;&gt;Node44 -->
<g id="edge46" class="edge">
<title>Node3&#45;&gt;Node44</title>
<path fill="none" stroke="#63b8ff" d="M2119.02,-282.97C2108.12,-275.14 2090.8,-262.7 2077.48,-253.13"/>
<polygon fill="#63b8ff" stroke="#63b8ff" points="2079.18,-250.05 2069.02,-247.06 2075.1,-255.73 2079.18,-250.05"/>
</g>
<!-- Node5 -->
<g id="node5" class="node">
<title>Node5</title>
<g id="a_node5"><a xlink:href="a60-geo_8h.html" target="_top" xlink:title=" ">
<polygon fill="white" stroke="#666666" points="1135.5,-189.5 1077.5,-189.5 1077.5,-172.5 1135.5,-172.5 1135.5,-189.5"/>
<text text-anchor="middle" x="1106.5" y="-179.1" font-family="SourceSans" font-size="8.00">a60&#45;geo.h</text>
</a>
</g>
</g>
<!-- Node4&#45;&gt;Node5 -->
<g id="edge4" class="edge">
<title>Node4&#45;&gt;Node5</title>
<path fill="none" stroke="#63b8ff" d="M920.51,-230.5C956.14,-222.33 1016.29,-208.12 1067.5,-194 1069.19,-193.53 1070.92,-193.05 1072.66,-192.54"/>
<polygon fill="#63b8ff" stroke="#63b8ff" points="1074.05,-195.78 1082.64,-189.58 1072.06,-189.07 1074.05,-195.78"/>
</g>
<!-- Node31 -->
<g id="node31" class="node">
<title>Node31</title>
<g id="a_node31"><a xlink:href="a60-network-functions_8h.html" target="_top" xlink:title=" ">
<polygon fill="white" stroke="#666666" points="1271,-189.5 1154,-189.5 1154,-172.5 1271,-172.5 1271,-189.5"/>
<text text-anchor="middle" x="1212.5" y="-179.1" font-family="SourceSans" font-size="8.00">a60&#45;network&#45;functions.h</text>
</a>
</g>
</g>
<!-- Node4&#45;&gt;Node31 -->
<g id="edge33" class="edge">
<title>Node4&#45;&gt;Node31</title>
<path fill="none" stroke="#63b8ff" d="M920.52,-232.27C968.53,-224.15 1063.75,-208.01 1144.5,-194 1149.54,-193.13 1154.79,-192.21 1160.03,-191.29"/>
<polygon fill="#63b8ff" stroke="#63b8ff" points="1160.82,-194.7 1170.07,-189.53 1159.61,-187.81 1160.82,-194.7"/>
</g>
<!-- Node32 -->
<g id="node32" class="node">
<title>Node32</title>
<g id="a_node32"><a xlink:title=" ">
<polygon fill="#e0e0e0" stroke="#999999" points="1384,-189.5 1289,-189.5 1289,-172.5 1384,-172.5 1384,-189.5"/>
<text text-anchor="middle" x="1336.5" y="-179.1" font-family="SourceSans" font-size="8.00">libtorrent/entry.hpp</text>
</a>
</g>
</g>
<!-- Node4&#45;&gt;Node32 -->
<g id="edge34" class="edge">
<title>Node4&#45;&gt;Node32</title>
<path fill="none" stroke="#63b8ff" d="M920.73,-235.05C987.07,-229.61 1146.82,-215.32 1279.5,-194 1284,-193.28 1288.69,-192.44 1293.35,-191.54"/>
<polygon fill="#63b8ff" stroke="#63b8ff" points="1294.33,-194.92 1303.45,-189.52 1292.95,-188.05 1294.33,-194.92"/>
</g>
<!-- Node33 -->
<g id="node33" class="node">
<title>Node33</title>
<g id="a_node33"><a xlink:title=" ">
<polygon fill="#e0e0e0" stroke="#999999" points="1512.5,-189.5 1402.5,-189.5 1402.5,-172.5 1512.5,-172.5 1512.5,-189.5"/>
<text text-anchor="middle" x="1457.5" y="-179.1" font-family="SourceSans" font-size="8.00">libtorrent/bencode.hpp</text>
</a>
</g>
</g>
<!-- Node4&#45;&gt;Node33 -->
<g id="edge35" class="edge">
<title>Node4&#45;&gt;Node33</title>
<path fill="none" stroke="#63b8ff" d="M920.52,-235.86C999.53,-231.46 1214.65,-218.05 1392.5,-194 1398.26,-193.22 1404.28,-192.28 1410.23,-191.28"/>
<polygon fill="#63b8ff" stroke="#63b8ff" points="1410.89,-194.71 1420.13,-189.53 1409.68,-187.82 1410.89,-194.71"/>
</g>
<!-- Node34 -->
<g id="node34" class="node">
<title>Node34</title>
<g id="a_node34"><a xlink:title=" ">
<polygon fill="#e0e0e0" stroke="#999999" points="1632,-189.5 1531,-189.5 1531,-172.5 1632,-172.5 1632,-189.5"/>
<text text-anchor="middle" x="1581.5" y="-179.1" font-family="SourceSans" font-size="8.00">libtorrent/torrent.hpp</text>
</a>
</g>
</g>
<!-- Node4&#45;&gt;Node34 -->
<g id="edge36" class="edge">
<title>Node4&#45;&gt;Node34</title>
<path fill="none" stroke="#63b8ff" d="M920.55,-236.78C1012.62,-234.33 1292.03,-224.71 1521.5,-194 1526.7,-193.3 1532.12,-192.43 1537.49,-191.47"/>
<polygon fill="#63b8ff" stroke="#63b8ff" points="1538.5,-194.85 1547.68,-189.56 1537.2,-187.97 1538.5,-194.85"/>
</g>
<!-- Node35 -->
<g id="node35" class="node">
<title>Node35</title>
<g id="a_node35"><a xlink:title=" ">
<polygon fill="#e0e0e0" stroke="#999999" points="83,-194 0,-194 0,-168 83,-168 83,-194"/>
<text text-anchor="start" x="8" y="-183.6" font-family="SourceSans" font-size="8.00">libtorrent/torrent</text>
<text text-anchor="middle" x="41.5" y="-174.6" font-family="SourceSans" font-size="8.00">_info.hpp</text>
</a>
</g>
</g>
<!-- Node4&#45;&gt;Node35 -->
<g id="edge37" class="edge">
<title>Node4&#45;&gt;Node35</title>
<path fill="none" stroke="#63b8ff" d="M858.49,-237.82C752.64,-238.49 395.84,-237.28 93.42,-194.08"/>
<polygon fill="#63b8ff" stroke="#63b8ff" points="93.53,-190.56 83.13,-192.59 92.53,-197.48 93.53,-190.56"/>
</g>
<!-- Node36 -->
<g id="node36" class="node">
<title>Node36</title>
<g id="a_node36"><a xlink:title=" ">
<polygon fill="#e0e0e0" stroke="#999999" points="184,-194 101,-194 101,-168 184,-168 184,-194"/>
<text text-anchor="start" x="109" y="-183.6" font-family="SourceSans" font-size="8.00">libtorrent/torrent</text>
<text text-anchor="middle" x="142.5" y="-174.6" font-family="SourceSans" font-size="8.00">_status.hpp</text>
</a>
</g>
</g>
<!-- Node4&#45;&gt;Node36 -->
<g id="edge38" class="edge">
<title>Node4&#45;&gt;Node36</title>
<path fill="none" stroke="#63b8ff" d="M858.43,-237.42C761.54,-236.78 456.19,-231.79 194.22,-193.88"/>
<polygon fill="#63b8ff" stroke="#63b8ff" points="194.54,-190.39 184.14,-192.4 193.52,-197.32 194.54,-190.39"/>
</g>
<!-- Node37 -->
<g id="node37" class="node">
<title>Node37</title>
<g id="a_node37"><a xlink:title=" ">
<polygon fill="#e0e0e0" stroke="#999999" points="314.5,-189.5 202.5,-189.5 202.5,-172.5 314.5,-172.5 314.5,-189.5"/>
<text text-anchor="middle" x="258.5" y="-179.1" font-family="SourceSans" font-size="8.00">libtorrent/peer_info.hpp</text>
</a>
</g>
</g>
<!-- Node4&#45;&gt;Node37 -->
<g id="edge39" class="edge">
<title>Node4&#45;&gt;Node37</title>
<path fill="none" stroke="#63b8ff" d="M858.4,-236.27C772.78,-232.62 526.53,-220.47 323.5,-194 317.67,-193.24 311.57,-192.3 305.54,-191.29"/>
<polygon fill="#63b8ff" stroke="#63b8ff" points="305.97,-187.81 295.52,-189.53 304.76,-194.71 305.97,-187.81"/>
</g>
<!-- Node38 -->
<g id="node38" class="node">
<title>Node38</title>
<g id="a_node38"><a xlink:title=" ">
<polygon fill="#e0e0e0" stroke="#999999" points="430.5,-194 332.5,-194 332.5,-168 430.5,-168 430.5,-194"/>
<text text-anchor="start" x="340.5" y="-183.6" font-family="SourceSans" font-size="8.00">libtorrent/announce</text>
<text text-anchor="middle" x="381.5" y="-174.6" font-family="SourceSans" font-size="8.00">_entry.hpp</text>
</a>
</g>
</g>
<!-- Node4&#45;&gt;Node38 -->
<g id="edge40" class="edge">
<title>Node4&#45;&gt;Node38</title>
<path fill="none" stroke="#63b8ff" d="M858.26,-235.64C786.38,-231.12 603.58,-218.21 440.98,-194.1"/>
<polygon fill="#63b8ff" stroke="#63b8ff" points="441.2,-190.6 430.8,-192.58 440.17,-197.52 441.2,-190.6"/>
</g>
<!-- Node39 -->
<g id="node39" class="node">
<title>Node39</title>
<g id="a_node39"><a xlink:title=" ">
<polygon fill="#e0e0e0" stroke="#999999" points="558.5,-189.5 448.5,-189.5 448.5,-172.5 558.5,-172.5 558.5,-189.5"/>
<text text-anchor="middle" x="503.5" y="-179.1" font-family="SourceSans" font-size="8.00">libtorrent/bdecode.hpp</text>
</a>
</g>
</g>
<!-- Node4&#45;&gt;Node39 -->
<g id="edge41" class="edge">
<title>Node4&#45;&gt;Node39</title>
<path fill="none" stroke="#63b8ff" d="M858.34,-233.83C800.76,-226.92 673.87,-211.15 567.5,-194 562.47,-193.19 557.22,-192.29 551.99,-191.36"/>
<polygon fill="#63b8ff" stroke="#63b8ff" points="552.49,-187.9 542.03,-189.55 551.24,-194.78 552.49,-187.9"/>
</g>
<!-- Node40 -->
<g id="node40" class="node">
<title>Node40</title>
<g id="a_node40"><a xlink:title=" ">
<polygon fill="#e0e0e0" stroke="#999999" points="696.5,-189.5 576.5,-189.5 576.5,-172.5 696.5,-172.5 696.5,-189.5"/>
<text text-anchor="middle" x="636.5" y="-179.1" font-family="SourceSans" font-size="8.00">libtorrent/magnet_uri.hpp</text>
</a>
</g>
</g>
<!-- Node4&#45;&gt;Node40 -->
<g id="edge42" class="edge">
<title>Node4&#45;&gt;Node40</title>
<path fill="none" stroke="#63b8ff" d="M858.48,-230.69C814.04,-220.95 732.01,-202.95 681.08,-191.78"/>
<polygon fill="#63b8ff" stroke="#63b8ff" points="681.53,-188.3 671.02,-189.57 680.03,-195.13 681.53,-188.3"/>
</g>
<!-- Node41 -->
<g id="node41" class="node">
<title>Node41</title>
<g id="a_node41"><a xlink:title=" ">
<polygon fill="#e0e0e0" stroke="#999999" points="820.5,-189.5 714.5,-189.5 714.5,-172.5 820.5,-172.5 820.5,-189.5"/>
<text text-anchor="middle" x="767.5" y="-179.1" font-family="SourceSans" font-size="8.00">libtorrent/session.hpp</text>
</a>
</g>
</g>
<!-- Node4&#45;&gt;Node41 -->
<g id="edge43" class="edge">
<title>Node4&#45;&gt;Node41</title>
<path fill="none" stroke="#63b8ff" d="M872.79,-229.9C852.26,-220.56 817.2,-204.61 793.22,-193.7"/>
<polygon fill="#63b8ff" stroke="#63b8ff" points="794.56,-190.46 784.01,-189.51 791.66,-196.84 794.56,-190.46"/>
</g>
<!-- Node42 -->
<g id="node42" class="node">
<title>Node42</title>
<g id="a_node42"><a xlink:title=" ">
<polygon fill="#e0e0e0" stroke="#999999" points="940,-194 839,-194 839,-168 940,-168 940,-194"/>
<text text-anchor="start" x="847" y="-183.6" font-family="SourceSans" font-size="8.00">libtorrent/extensions</text>
<text text-anchor="middle" x="889.5" y="-174.6" font-family="SourceSans" font-size="8.00">/ut_metadata.hpp</text>
</a>
</g>
</g>
<!-- Node4&#45;&gt;Node42 -->
<g id="edge44" class="edge">
<title>Node4&#45;&gt;Node42</title>
<path fill="none" stroke="#63b8ff" d="M889.5,-229.78C889.5,-223.26 889.5,-213.58 889.5,-204.63"/>
<polygon fill="#63b8ff" stroke="#63b8ff" points="893,-204.34 889.5,-194.34 886,-204.34 893,-204.34"/>
</g>
<!-- Node43 -->
<g id="node43" class="node">
<title>Node43</title>
<g id="a_node43"><a xlink:title=" ">
<polygon fill="#e0e0e0" stroke="#999999" points="1059,-194 958,-194 958,-168 1059,-168 1059,-194"/>
<text text-anchor="start" x="966" y="-183.6" font-family="SourceSans" font-size="8.00">libtorrent/extensions</text>
<text text-anchor="middle" x="1008.5" y="-174.6" font-family="SourceSans" font-size="8.00">/ut_pex.hpp</text>
</a>
</g>
</g>
<!-- Node4&#45;&gt;Node43 -->
<g id="edge45" class="edge">
<title>Node4&#45;&gt;Node43</title>
<path fill="none" stroke="#63b8ff" d="M906.05,-229.78C923.37,-221.7 951.09,-208.77 973.34,-198.4"/>
<polygon fill="#63b8ff" stroke="#63b8ff" points="974.9,-201.53 982.49,-194.13 971.94,-195.19 974.9,-201.53"/>
</g>
<!-- Node6 -->
<g id="node6" class="node">
<title>Node6</title>
<g id="a_node6"><a xlink:title=" ">
<polygon fill="#e0e0e0" stroke="#999999" points="1035.5,-17 993.5,-17 993.5,0 1035.5,0 1035.5,-17"/>
<text text-anchor="middle" x="1014.5" y="-6.6" font-family="SourceSans" font-size="8.00">cmath</text>
</a>
</g>
</g>
<!-- Node5&#45;&gt;Node6 -->
<g id="edge5" class="edge">
<title>Node5&#45;&gt;Node6</title>
<path fill="none" stroke="#63b8ff" d="M1102.31,-172.23C1088.36,-146.38 1043.29,-62.85 1023.71,-26.57"/>
<polygon fill="#63b8ff" stroke="#63b8ff" points="1026.55,-24.45 1018.72,-17.31 1020.39,-27.78 1026.55,-24.45"/>
</g>
<!-- Node7 -->
<g id="node7" class="node">
<title>Node7</title>
<g id="a_node7"><a xlink:title=" ">
<polygon fill="#e0e0e0" stroke="#999999" points="1083,-17 1054,-17 1054,0 1083,0 1083,-17"/>
<text text-anchor="middle" x="1068.5" y="-6.6" font-family="SourceSans" font-size="8.00">set</text>
</a>
</g>
</g>
<!-- Node5&#45;&gt;Node7 -->
<g id="edge6" class="edge">
<title>Node5&#45;&gt;Node7</title>
<path fill="none" stroke="#63b8ff" d="M1104.77,-172.23C1099.06,-146.6 1080.71,-64.28 1072.52,-27.52"/>
<polygon fill="#63b8ff" stroke="#63b8ff" points="1075.83,-26.31 1070.24,-17.31 1069,-27.84 1075.83,-26.31"/>
</g>
<!-- Node8 -->
<g id="node8" class="node">
<title>Node8</title>
<g id="a_node8"><a xlink:title=" ">
<polygon fill="#e0e0e0" stroke="#999999" points="1880.5,-127.5 1822.5,-127.5 1822.5,-110.5 1880.5,-110.5 1880.5,-127.5"/>
<text text-anchor="middle" x="1851.5" y="-117.1" font-family="SourceSans" font-size="8.00">functional</text>
</a>
</g>
</g>
<!-- Node5&#45;&gt;Node8 -->
<g id="edge7" class="edge">
<title>Node5&#45;&gt;Node8</title>
<path fill="none" stroke="#63b8ff" d="M1127.18,-172.49C1132.74,-170.74 1138.79,-169.08 1144.5,-168 1395.44,-120.56 1704.29,-118.5 1812.13,-119.41"/>
<polygon fill="#63b8ff" stroke="#63b8ff" points="1812.19,-122.91 1822.23,-119.51 1812.26,-115.91 1812.19,-122.91"/>
</g>
<!-- Node9 -->
<g id="node9" class="node">
<title>Node9</title>
<g id="a_node9"><a xlink:title=" ">
<polygon fill="#e0e0e0" stroke="#999999" points="1153.5,-17 1101.5,-17 1101.5,0 1153.5,0 1153.5,-17"/>
<text text-anchor="middle" x="1127.5" y="-6.6" font-family="SourceSans" font-size="8.00">iostream</text>
</a>
</g>
</g>
<!-- Node5&#45;&gt;Node9 -->
<g id="edge8" class="edge">
<title>Node5&#45;&gt;Node9</title>
<path fill="none" stroke="#63b8ff" d="M1107.46,-172.23C1110.61,-146.6 1120.75,-64.28 1125.28,-27.52"/>
<polygon fill="#63b8ff" stroke="#63b8ff" points="1128.79,-27.67 1126.54,-17.31 1121.84,-26.81 1128.79,-27.67"/>
</g>
<!-- Node10 -->
<g id="node10" class="node">
<title>Node10</title>
<g id="a_node10"><a xlink:href="a60-io_8h.html" target="_top" xlink:title=" ">
<polygon fill="white" stroke="#666666" points="1269.5,-127.5 1219.5,-127.5 1219.5,-110.5 1269.5,-110.5 1269.5,-127.5"/>
<text text-anchor="middle" x="1244.5" y="-117.1" font-family="SourceSans" font-size="8.00">a60&#45;io.h</text>
</a>
</g>
</g>
<!-- Node5&#45;&gt;Node10 -->
<g id="edge9" class="edge">
<title>Node5&#45;&gt;Node10</title>
<path fill="none" stroke="#63b8ff" d="M1123.98,-172.4C1147.62,-162.12 1190.01,-143.69 1217.69,-131.66"/>
<polygon fill="#63b8ff" stroke="#63b8ff" points="1219.39,-134.73 1227.16,-127.54 1216.6,-128.31 1219.39,-134.73"/>
</g>
<!-- Node29 -->
<g id="node29" class="node">
<title>Node29</title>
<g id="a_node29"><a xlink:title=" ">
<polygon fill="#e0e0e0" stroke="#999999" points="1335,-127.5 1288,-127.5 1288,-110.5 1335,-110.5 1335,-127.5"/>
<text text-anchor="middle" x="1311.5" y="-117.1" font-family="SourceSans" font-size="8.00">GeoIP.h</text>
</a>
</g>
</g>
<!-- Node5&#45;&gt;Node29 -->
<g id="edge31" class="edge">
<title>Node5&#45;&gt;Node29</title>
<path fill="none" stroke="#63b8ff" d="M1129.76,-172.48C1134.62,-170.96 1139.72,-169.4 1144.5,-168 1203.69,-150.71 1219.69,-150.55 1278.5,-132 1279.71,-131.62 1280.94,-131.22 1282.18,-130.81"/>
<polygon fill="#63b8ff" stroke="#63b8ff" points="1283.4,-134.09 1291.7,-127.51 1281.11,-127.48 1283.4,-134.09"/>
</g>
<!-- Node30 -->
<g id="node30" class="node">
<title>Node30</title>
<g id="a_node30"><a xlink:title=" ">
<polygon fill="#e0e0e0" stroke="#999999" points="1415.5,-127.5 1353.5,-127.5 1353.5,-110.5 1415.5,-110.5 1415.5,-127.5"/>
<text text-anchor="middle" x="1384.5" y="-117.1" font-family="SourceSans" font-size="8.00">GeoIPCity.h</text>
</a>
</g>
</g>
<!-- Node5&#45;&gt;Node30 -->
<g id="edge32" class="edge">
<title>Node5&#45;&gt;Node30</title>
<path fill="none" stroke="#63b8ff" d="M1128.87,-172.42C1133.97,-170.83 1139.4,-169.26 1144.5,-168 1231.75,-146.42 1256.02,-152.65 1343.5,-132 1345.81,-131.45 1348.19,-130.86 1350.58,-130.23"/>
<polygon fill="#63b8ff" stroke="#63b8ff" points="1351.62,-133.57 1360.33,-127.53 1349.76,-126.82 1351.62,-133.57"/>
</g>
<!-- Node11 -->
<g id="node11" class="node">
<title>Node11</title>
<g id="a_node11"><a xlink:title=" ">
<polygon fill="#e0e0e0" stroke="#999999" points="1446,-70 1399,-70 1399,-53 1446,-53 1446,-70"/>
<text text-anchor="middle" x="1422.5" y="-59.6" font-family="SourceSans" font-size="8.00">fstream</text>
</a>
</g>
</g>
<!-- Node10&#45;&gt;Node11 -->
<g id="edge10" class="edge">
<title>Node10&#45;&gt;Node11</title>
<path fill="none" stroke="#63b8ff" d="M1265.31,-110.49C1269.65,-108.96 1274.22,-107.4 1278.5,-106 1316.24,-93.65 1359.96,-80.62 1389.23,-72.08"/>
<polygon fill="#63b8ff" stroke="#63b8ff" points="1390.33,-75.41 1398.95,-69.25 1388.37,-68.68 1390.33,-75.41"/>
</g>
<!-- Node12 -->
<g id="node12" class="node">
<title>Node12</title>
<g id="a_node12"><a xlink:title=" ">
<polygon fill="#e0e0e0" stroke="#999999" points="1250,-70 1135,-70 1135,-53 1250,-53 1250,-70"/>
<text text-anchor="middle" x="1192.5" y="-59.6" font-family="SourceSans" font-size="8.00">experimental/filesystem</text>
</a>
</g>
</g>
<!-- Node10&#45;&gt;Node12 -->
<g id="edge11" class="edge">
<title>Node10&#45;&gt;Node12</title>
<path fill="none" stroke="#63b8ff" d="M1237.27,-110.28C1229.35,-101.83 1216.46,-88.08 1206.54,-77.49"/>
<polygon fill="#63b8ff" stroke="#63b8ff" points="1209.06,-75.06 1199.67,-70.15 1203.95,-79.84 1209.06,-75.06"/>
</g>
<!-- Node13 -->
<g id="node13" class="node">
<title>Node13</title>
<g id="a_node13"><a xlink:title=" ">
<polygon fill="#e0e0e0" stroke="#999999" points="1324.5,-70 1268.5,-70 1268.5,-53 1324.5,-53 1324.5,-70"/>
<text text-anchor="middle" x="1296.5" y="-59.6" font-family="SourceSans" font-size="8.00">stdexcept</text>
</a>
</g>
</g>
<!-- Node10&#45;&gt;Node13 -->
<g id="edge12" class="edge">
<title>Node10&#45;&gt;Node13</title>
<path fill="none" stroke="#63b8ff" d="M1251.73,-110.28C1259.65,-101.83 1272.54,-88.08 1282.46,-77.49"/>
<polygon fill="#63b8ff" stroke="#63b8ff" points="1285.05,-79.84 1289.33,-70.15 1279.94,-75.06 1285.05,-79.84"/>
</g>
<!-- Node14 -->
<g id="node14" class="node">
<title>Node14</title>
<g id="a_node14"><a xlink:title=" ">
<polygon fill="#e0e0e0" stroke="#999999" points="1380.5,-70 1342.5,-70 1342.5,-53 1380.5,-53 1380.5,-70"/>
<text text-anchor="middle" x="1361.5" y="-59.6" font-family="SourceSans" font-size="8.00">regex</text>
</a>
</g>
</g>
<!-- Node10&#45;&gt;Node14 -->
<g id="edge13" class="edge">
<title>Node10&#45;&gt;Node14</title>
<path fill="none" stroke="#63b8ff" d="M1260.77,-110.28C1280.33,-101 1313.37,-85.33 1336.25,-74.48"/>
<polygon fill="#63b8ff" stroke="#63b8ff" points="1337.83,-77.6 1345.37,-70.15 1334.83,-71.28 1337.83,-77.6"/>
</g>
<!-- Node15 -->
<g id="node15" class="node">
<title>Node15</title>
<g id="a_node15"><a xlink:href="a60_8h.html" target="_top" xlink:title=" ">
<polygon fill="white" stroke="#666666" points="1596.5,-70 1556.5,-70 1556.5,-53 1596.5,-53 1596.5,-70"/>
<text text-anchor="middle" x="1576.5" y="-59.6" font-family="SourceSans" font-size="8.00">a60.h</text>
</a>
</g>
</g>
<!-- Node10&#45;&gt;Node15 -->
<g id="edge14" class="edge">
<title>Node10&#45;&gt;Node15</title>
<path fill="none" stroke="#63b8ff" d="M1263.72,-110.49C1268.49,-108.82 1273.64,-107.2 1278.5,-106 1374.86,-82.2 1492.19,-69.78 1546.39,-64.95"/>
<polygon fill="#63b8ff" stroke="#63b8ff" points="1546.7,-68.43 1556.36,-64.08 1546.1,-61.46 1546.7,-68.43"/>
</g>
<!-- Node15&#45;&gt;Node6 -->
<g id="edge15" class="edge">
<title>Node15&#45;&gt;Node6</title>
<path fill="none" stroke="#63b8ff" d="M1556.5,-59.3C1474.65,-54.34 1164.39,-34.89 1045.6,-16.83"/>
<polygon fill="#63b8ff" stroke="#63b8ff" points="1046.14,-13.38 1035.72,-15.26 1045.04,-20.29 1046.14,-13.38"/>
</g>
<!-- Node15&#45;&gt;Node7 -->
<g id="edge19" class="edge">
<title>Node15&#45;&gt;Node7</title>
<path fill="none" stroke="#63b8ff" d="M1556.42,-59.27C1479.36,-54.46 1201.84,-36.32 1093.08,-16.52"/>
<polygon fill="#63b8ff" stroke="#63b8ff" points="1093.58,-13.06 1083.09,-14.6 1092.25,-19.93 1093.58,-13.06"/>
</g>
<!-- Node15&#45;&gt;Node9 -->
<g id="edge30" class="edge">
<title>Node15&#45;&gt;Node9</title>
<path fill="none" stroke="#63b8ff" d="M1556.15,-59.13C1497.11,-55 1320.55,-41.52 1164.09,-17.08"/>
<polygon fill="#63b8ff" stroke="#63b8ff" points="1164.24,-13.56 1153.82,-15.45 1163.15,-20.47 1164.24,-13.56"/>
</g>
<!-- Node16 -->
<g id="node16" class="node">
<title>Node16</title>
<g id="a_node16"><a xlink:title=" ">
<polygon fill="#e0e0e0" stroke="#999999" points="1626.5,-17 1588.5,-17 1588.5,0 1626.5,0 1626.5,-17"/>
<text text-anchor="middle" x="1607.5" y="-6.6" font-family="SourceSans" font-size="8.00">tuple</text>
</a>
</g>
</g>
<!-- Node15&#45;&gt;Node16 -->
<g id="edge16" class="edge">
<title>Node15&#45;&gt;Node16</title>
<path fill="none" stroke="#63b8ff" d="M1581.07,-52.97C1585.42,-45.82 1592.11,-34.82 1597.67,-25.67"/>
<polygon fill="#63b8ff" stroke="#63b8ff" points="1600.7,-27.42 1602.91,-17.06 1594.72,-23.78 1600.7,-27.42"/>
</g>
<!-- Node17 -->
<g id="node17" class="node">
<title>Node17</title>
<g id="a_node17"><a xlink:title=" ">
<polygon fill="#e0e0e0" stroke="#999999" points="1684.5,-17 1644.5,-17 1644.5,0 1684.5,0 1684.5,-17"/>
<text text-anchor="middle" x="1664.5" y="-6.6" font-family="SourceSans" font-size="8.00">string</text>
</a>
</g>
</g>
<!-- Node15&#45;&gt;Node17 -->
<g id="edge17" class="edge">
<title>Node15&#45;&gt;Node17</title>
<path fill="none" stroke="#63b8ff" d="M1589.48,-52.97C1603.39,-44.91 1625.71,-31.98 1642.4,-22.31"/>
<polygon fill="#63b8ff" stroke="#63b8ff" points="1644.56,-25.1 1651.46,-17.06 1641.05,-19.04 1644.56,-25.1"/>
</g>
<!-- Node18 -->
<g id="node18" class="node">
<title>Node18</title>
<g id="a_node18"><a xlink:title=" ">
<polygon fill="#e0e0e0" stroke="#999999" points="1744.5,-17 1702.5,-17 1702.5,0 1744.5,0 1744.5,-17"/>
<text text-anchor="middle" x="1723.5" y="-6.6" font-family="SourceSans" font-size="8.00">vector</text>
</a>
</g>
</g>
<!-- Node15&#45;&gt;Node18 -->
<g id="edge18" class="edge">
<title>Node15&#45;&gt;Node18</title>
<path fill="none" stroke="#63b8ff" d="M1596.63,-53.52C1621.39,-44.93 1663.68,-30.25 1692.57,-20.23"/>
<polygon fill="#63b8ff" stroke="#63b8ff" points="1693.88,-23.48 1702.18,-16.9 1691.59,-16.87 1693.88,-23.48"/>
</g>
<!-- Node19 -->
<g id="node19" class="node">
<title>Node19</title>
<g id="a_node19"><a xlink:title=" ">
<polygon fill="#e0e0e0" stroke="#999999" points="1842.5,-17 1762.5,-17 1762.5,0 1842.5,0 1842.5,-17"/>
<text text-anchor="middle" x="1802.5" y="-6.6" font-family="SourceSans" font-size="8.00">unordered_map</text>
</a>
</g>
</g>
<!-- Node15&#45;&gt;Node19 -->
<g id="edge20" class="edge">
<title>Node15&#45;&gt;Node19</title>
<path fill="none" stroke="#63b8ff" d="M1596.56,-55.97C1632.86,-47.78 1710.25,-30.32 1759.13,-19.29"/>
<polygon fill="#63b8ff" stroke="#63b8ff" points="1760.12,-22.65 1769.11,-17.04 1758.58,-15.82 1760.12,-22.65"/>
</g>
<!-- Node20 -->
<g id="node20" class="node">
<title>Node20</title>
<g id="a_node20"><a xlink:title=" ">
<polygon fill="#e0e0e0" stroke="#999999" points="1936,-17 1861,-17 1861,0 1936,0 1936,-17"/>
<text text-anchor="middle" x="1898.5" y="-6.6" font-family="SourceSans" font-size="8.00">unordered_set</text>
</a>
</g>
</g>
<!-- Node15&#45;&gt;Node20 -->
<g id="edge21" class="edge">
<title>Node15&#45;&gt;Node20</title>
<path fill="none" stroke="#63b8ff" d="M1596.51,-57.34C1640.42,-50.42 1748.74,-33.32 1850.64,-17.14"/>
<polygon fill="#63b8ff" stroke="#63b8ff" points="1851.46,-20.55 1860.79,-15.52 1850.37,-13.63 1851.46,-20.55"/>
</g>
<!-- Node21 -->
<g id="node21" class="node">
<title>Node21</title>
<g id="a_node21"><a xlink:title=" ">
<polygon fill="#e0e0e0" stroke="#999999" points="1998.5,-17 1954.5,-17 1954.5,0 1998.5,0 1998.5,-17"/>
<text text-anchor="middle" x="1976.5" y="-6.6" font-family="SourceSans" font-size="8.00">chrono</text>
</a>
</g>
</g>
<!-- Node15&#45;&gt;Node21 -->
<g id="edge22" class="edge">
<title>Node15&#45;&gt;Node21</title>
<path fill="none" stroke="#63b8ff" d="M1596.62,-58.98C1651.07,-54.7 1805.94,-41.32 1944.29,-17"/>
<polygon fill="#63b8ff" stroke="#63b8ff" points="1944.99,-20.43 1954.22,-15.23 1943.76,-13.54 1944.99,-20.43"/>
</g>
<!-- Node22 -->
<g id="node22" class="node">
<title>Node22</title>
<g id="a_node22"><a xlink:title=" ">
<polygon fill="#e0e0e0" stroke="#999999" points="2066.5,-17 2016.5,-17 2016.5,0 2066.5,0 2066.5,-17"/>
<text text-anchor="middle" x="2041.5" y="-6.6" font-family="SourceSans" font-size="8.00">numeric</text>
</a>
</g>
</g>
<!-- Node15&#45;&gt;Node22 -->
<g id="edge23" class="edge">
<title>Node15&#45;&gt;Node22</title>
<path fill="none" stroke="#63b8ff" d="M1596.8,-59.29C1657.44,-55.52 1842.63,-42.7 2006.08,-17.03"/>
<polygon fill="#63b8ff" stroke="#63b8ff" points="2006.99,-20.43 2016.31,-15.4 2005.89,-13.51 2006.99,-20.43"/>
</g>
<!-- Node23 -->
<g id="node23" class="node">
<title>Node23</title>
<g id="a_node23"><a xlink:title=" ">
<polygon fill="#e0e0e0" stroke="#999999" points="2140.5,-17 2084.5,-17 2084.5,0 2140.5,0 2140.5,-17"/>
<text text-anchor="middle" x="2112.5" y="-6.6" font-family="SourceSans" font-size="8.00">algorithm</text>
</a>
</g>
</g>
<!-- Node15&#45;&gt;Node23 -->
<g id="edge24" class="edge">
<title>Node15&#45;&gt;Node23</title>
<path fill="none" stroke="#63b8ff" d="M1596.56,-59.57C1663.11,-56.3 1882.77,-44.16 2074.31,-16.99"/>
<polygon fill="#63b8ff" stroke="#63b8ff" points="2074.87,-20.45 2084.28,-15.56 2073.88,-13.52 2074.87,-20.45"/>
</g>
<!-- Node24 -->
<g id="node24" class="node">
<title>Node24</title>
<g id="a_node24"><a xlink:title=" ">
<polygon fill="#e0e0e0" stroke="#999999" points="1213,-17 1172,-17 1172,0 1213,0 1213,-17"/>
<text text-anchor="middle" x="1192.5" y="-6.6" font-family="SourceSans" font-size="8.00">locale</text>
</a>
</g>
</g>
<!-- Node15&#45;&gt;Node24 -->
<g id="edge25" class="edge">
<title>Node15&#45;&gt;Node24</title>
<path fill="none" stroke="#63b8ff" d="M1556.34,-58.96C1503.28,-54.72 1355.25,-41.62 1222.92,-17.03"/>
<polygon fill="#63b8ff" stroke="#63b8ff" points="1223.5,-13.58 1213.02,-15.16 1222.2,-20.45 1223.5,-13.58"/>
</g>
<!-- Node25 -->
<g id="node25" class="node">
<title>Node25</title>
<g id="a_node25"><a xlink:title=" ">
<polygon fill="#e0e0e0" stroke="#999999" points="1280,-17 1231,-17 1231,0 1280,0 1280,-17"/>
<text text-anchor="middle" x="1255.5" y="-6.6" font-family="SourceSans" font-size="8.00">codecvt</text>
</a>
</g>
</g>
<!-- Node15&#45;&gt;Node25 -->
<g id="edge26" class="edge">
<title>Node15&#45;&gt;Node25</title>
<path fill="none" stroke="#63b8ff" d="M1556.16,-57.95C1510.39,-52.11 1395.61,-36.83 1290.17,-17.2"/>
<polygon fill="#63b8ff" stroke="#63b8ff" points="1290.8,-13.76 1280.33,-15.35 1289.51,-20.64 1290.8,-13.76"/>
</g>
<!-- Node26 -->
<g id="node26" class="node">
<title>Node26</title>
<g id="a_node26"><a xlink:title=" ">
<polygon fill="#e0e0e0" stroke="#999999" points="1435,-17 1298,-17 1298,0 1435,0 1435,-17"/>
<text text-anchor="middle" x="1366.5" y="-6.6" font-family="SourceSans" font-size="8.00">ext/codecvt_specializations.h</text>
</a>
</g>
</g>
<!-- Node15&#45;&gt;Node26 -->
<g id="edge27" class="edge">
<title>Node15&#45;&gt;Node26</title>
<path fill="none" stroke="#63b8ff" d="M1556.36,-55.61C1522.27,-47.33 1452.51,-30.39 1407.71,-19.51"/>
<polygon fill="#63b8ff" stroke="#63b8ff" points="1408.27,-16.04 1397.72,-17.08 1406.61,-22.84 1408.27,-16.04"/>
</g>
<!-- Node27 -->
<g id="node27" class="node">
<title>Node27</title>
<g id="a_node27"><a xlink:title=" ">
<polygon fill="#e0e0e0" stroke="#999999" points="1502,-17 1453,-17 1453,0 1502,0 1502,-17"/>
<text text-anchor="middle" x="1477.5" y="-6.6" font-family="SourceSans" font-size="8.00">sstream</text>
</a>
</g>
</g>
<!-- Node15&#45;&gt;Node27 -->
<g id="edge28" class="edge">
<title>Node15&#45;&gt;Node27</title>
<path fill="none" stroke="#63b8ff" d="M1561.89,-52.97C1545.88,-44.73 1519.96,-31.37 1501.06,-21.64"/>
<polygon fill="#63b8ff" stroke="#63b8ff" points="1502.66,-18.52 1492.17,-17.06 1499.45,-24.75 1502.66,-18.52"/>
</g>
<!-- Node28 -->
<g id="node28" class="node">
<title>Node28</title>
<g id="a_node28"><a xlink:title=" ">
<polygon fill="#e0e0e0" stroke="#999999" points="1570.5,-17 1520.5,-17 1520.5,0 1570.5,0 1570.5,-17"/>
<text text-anchor="middle" x="1545.5" y="-6.6" font-family="SourceSans" font-size="8.00">iomanip</text>
</a>
</g>
</g>
<!-- Node15&#45;&gt;Node28 -->
<g id="edge29" class="edge">
<title>Node15&#45;&gt;Node28</title>
<path fill="none" stroke="#63b8ff" d="M1571.93,-52.97C1567.58,-45.82 1560.89,-34.82 1555.33,-25.67"/>
<polygon fill="#63b8ff" stroke="#63b8ff" points="1558.28,-23.78 1550.09,-17.06 1552.3,-27.42 1558.28,-23.78"/>
</g>
<!-- Node45 -->
<g id="node45" class="node">
<title>Node45</title>
<g id="a_node45"><a xlink:title=" ">
<polygon fill="#e0e0e0" stroke="#999999" points="2114.5,-189.5 2002.5,-189.5 2002.5,-172.5 2114.5,-172.5 2114.5,-189.5"/>
<text text-anchor="middle" x="2058.5" y="-179.1" font-family="SourceSans" font-size="8.00">rapidjson/prettywriter.h</text>
</a>
</g>
</g>
<!-- Node44&#45;&gt;Node45 -->
<g id="edge47" class="edge">
<title>Node44&#45;&gt;Node45</title>
<path fill="none" stroke="#63b8ff" d="M2058.5,-229.78C2058.5,-222.08 2058.5,-209.96 2058.5,-199.86"/>
<polygon fill="#63b8ff" stroke="#63b8ff" points="2062,-199.65 2058.5,-189.65 2055,-199.65 2062,-199.65"/>
</g>
<!-- Node46 -->
<g id="node46" class="node">
<title>Node46</title>
<g id="a_node46"><a xlink:title=" ">
<polygon fill="#e0e0e0" stroke="#999999" points="2228,-189.5 2133,-189.5 2133,-172.5 2228,-172.5 2228,-189.5"/>
<text text-anchor="middle" x="2180.5" y="-179.1" font-family="SourceSans" font-size="8.00">rapidjson/pointer.h</text>
</a>
</g>
</g>
<!-- Node44&#45;&gt;Node46 -->
<g id="edge48" class="edge">
<title>Node44&#45;&gt;Node46</title>
<path fill="none" stroke="#63b8ff" d="M2075.21,-229.9C2095.74,-220.56 2130.8,-204.61 2154.78,-193.7"/>
<polygon fill="#63b8ff" stroke="#63b8ff" points="2156.34,-196.84 2163.99,-189.51 2153.44,-190.46 2156.34,-196.84"/>
</g>
<!-- Node47 -->
<g id="node47" class="node">
<title>Node47</title>
<g id="a_node47"><a xlink:title=" ">
<polygon fill="#e0e0e0" stroke="#999999" points="2370.5,-189.5 2246.5,-189.5 2246.5,-172.5 2370.5,-172.5 2370.5,-189.5"/>
<text text-anchor="middle" x="2308.5" y="-179.1" font-family="SourceSans" font-size="8.00">rapidjson/filereadstream.h</text>
</a>
</g>
</g>
<!-- Node44&#45;&gt;Node47 -->
<g id="edge49" class="edge">
<title>Node44&#45;&gt;Node47</title>
<path fill="none" stroke="#63b8ff" d="M2092.48,-229.96C2137.1,-220.05 2215.52,-202.64 2264.59,-191.75"/>
<polygon fill="#63b8ff" stroke="#63b8ff" points="2265.59,-195.11 2274.6,-189.53 2264.08,-188.28 2265.59,-195.11"/>
</g>
<!-- Node48 -->
<g id="node48" class="node">
<title>Node48</title>
<g id="a_node48"><a xlink:title=" ">
<polygon fill="#e0e0e0" stroke="#999999" points="1742.5,-189.5 1650.5,-189.5 1650.5,-172.5 1742.5,-172.5 1742.5,-189.5"/>
<text text-anchor="middle" x="1696.5" y="-179.1" font-family="SourceSans" font-size="8.00">rapidjson/reader.h</text>
</a>
</g>
</g>
<!-- Node44&#45;&gt;Node48 -->
<g id="edge50" class="edge">
<title>Node44&#45;&gt;Node48</title>
<path fill="none" stroke="#63b8ff" d="M2019.1,-232.86C1960.53,-225.76 1847.13,-211.18 1751.5,-194 1747.39,-193.26 1743.12,-192.43 1738.85,-191.57"/>
<polygon fill="#63b8ff" stroke="#63b8ff" points="1739.5,-188.13 1728.99,-189.51 1738.06,-194.98 1739.5,-188.13"/>
</g>
<!-- Node49 -->
<g id="node49" class="node">
<title>Node49</title>
<g id="a_node49"><a xlink:title=" ">
<polygon fill="#e0e0e0" stroke="#999999" points="1868,-189.5 1761,-189.5 1761,-172.5 1868,-172.5 1868,-189.5"/>
<text text-anchor="middle" x="1814.5" y="-179.1" font-family="SourceSans" font-size="8.00">rapidjson/document.h</text>
</a>
</g>
</g>
<!-- Node44&#45;&gt;Node49 -->
<g id="edge51" class="edge">
<title>Node44&#45;&gt;Node49</title>
<path fill="none" stroke="#63b8ff" d="M2025.34,-229.96C1981.79,-220.05 1905.25,-202.64 1857.35,-191.75"/>
<polygon fill="#63b8ff" stroke="#63b8ff" points="1858.12,-188.33 1847.59,-189.53 1856.56,-195.16 1858.12,-188.33"/>
</g>
<!-- Node50 -->
<g id="node50" class="node">
<title>Node50</title>
<g id="a_node50"><a xlink:title=" ">
<polygon fill="#e0e0e0" stroke="#999999" points="1984.5,-189.5 1886.5,-189.5 1886.5,-172.5 1984.5,-172.5 1984.5,-189.5"/>
<text text-anchor="middle" x="1935.5" y="-179.1" font-family="SourceSans" font-size="8.00">rapidjson/error/en.h</text>
</a>
</g>
</g>
<!-- Node44&#45;&gt;Node50 -->
<g id="edge52" class="edge">
<title>Node44&#45;&gt;Node50</title>
<path fill="none" stroke="#63b8ff" d="M2041.66,-229.9C2020.95,-220.56 1985.6,-204.61 1961.43,-193.7"/>
<polygon fill="#63b8ff" stroke="#63b8ff" points="1962.7,-190.43 1952.14,-189.51 1959.82,-196.81 1962.7,-190.43"/>
</g>
<!-- Node51&#45;&gt;Node3 -->
<g id="edge60" class="edge">
<title>Node51&#45;&gt;Node3</title>
<path fill="none" stroke="#63b8ff" d="M2403.14,-335.97C2345.56,-326.83 2248.47,-311.4 2186.76,-301.6"/>
<polygon fill="#63b8ff" stroke="#63b8ff" points="2187.22,-298.13 2176.8,-300.01 2186.12,-305.04 2187.22,-298.13"/>
</g>
<!-- Node52 -->
<g id="node52" class="node">
<title>Node52</title>
<g id="a_node52"><a xlink:href="a60-collection-base_8h.html" target="_top" xlink:title=" ">
<polygon fill="white" stroke="#666666" points="2589.5,-127.5 2483.5,-127.5 2483.5,-110.5 2589.5,-110.5 2589.5,-127.5"/>
<text text-anchor="middle" x="2536.5" y="-117.1" font-family="SourceSans" font-size="8.00">a60&#45;collection&#45;base.h</text>
</a>
</g>
</g>
<!-- Node51&#45;&gt;Node52 -->
<g id="edge54" class="edge">
<title>Node51&#45;&gt;Node52</title>
<path fill="none" stroke="#63b8ff" d="M2454.46,-335.91C2465.64,-314.25 2497.88,-250.11 2517.5,-194 2524.06,-175.24 2529.45,-153.1 2532.79,-137.95"/>
<polygon fill="#63b8ff" stroke="#63b8ff" points="2536.27,-138.42 2534.93,-127.91 2529.42,-136.96 2536.27,-138.42"/>
</g>
<!-- Node54 -->
<g id="node54" class="node">
<title>Node54</title>
<g id="a_node54"><a xlink:href="a60-collection-duration_8h.html" target="_top" xlink:title=" ">
<polygon fill="white" stroke="#666666" points="2508.5,-189.5 2388.5,-189.5 2388.5,-172.5 2508.5,-172.5 2508.5,-189.5"/>
<text text-anchor="middle" x="2448.5" y="-179.1" font-family="SourceSans" font-size="8.00">a60&#45;collection&#45;duration.h</text>
</a>
</g>
</g>
<!-- Node51&#45;&gt;Node54 -->
<g id="edge57" class="edge">
<title>Node51&#45;&gt;Node54</title>
<path fill="none" stroke="#63b8ff" d="M2450.4,-335.71C2450.1,-311.14 2449.15,-234.85 2448.72,-199.86"/>
<polygon fill="#63b8ff" stroke="#63b8ff" points="2452.22,-199.67 2448.6,-189.71 2445.22,-199.75 2452.22,-199.67"/>
</g>
<!-- Node52&#45;&gt;Node15 -->
<g id="edge56" class="edge">
<title>Node52&#45;&gt;Node15</title>
<path fill="none" stroke="#63b8ff" d="M2502.2,-110.46C2493.23,-108.73 2483.53,-107.09 2474.5,-106 2135.97,-65.25 1721.29,-62.37 1606.94,-62.4"/>
<polygon fill="#63b8ff" stroke="#63b8ff" points="1606.82,-58.9 1596.82,-62.41 1606.83,-65.9 1606.82,-58.9"/>
</g>
<!-- Node53 -->
<g id="node53" class="node">
<title>Node53</title>
<g id="a_node53"><a xlink:title=" ">
<polygon fill="#e0e0e0" stroke="#999999" points="2554,-70 2519,-70 2519,-53 2554,-53 2554,-70"/>
<text text-anchor="middle" x="2536.5" y="-59.6" font-family="SourceSans" font-size="8.00">map</text>
</a>
</g>
</g>
<!-- Node52&#45;&gt;Node53 -->
<g id="edge55" class="edge">
<title>Node52&#45;&gt;Node53</title>
<path fill="none" stroke="#63b8ff" d="M2536.5,-110.28C2536.5,-102.58 2536.5,-90.46 2536.5,-80.36"/>
<polygon fill="#63b8ff" stroke="#63b8ff" points="2540,-80.15 2536.5,-70.15 2533,-80.15 2540,-80.15"/>
</g>
<!-- Node54&#45;&gt;Node52 -->
<g id="edge58" class="edge">
<title>Node54&#45;&gt;Node52</title>
<path fill="none" stroke="#63b8ff" d="M2459.65,-172.4C2474.06,-162.57 2499.4,-145.29 2517.03,-133.27"/>
<polygon fill="#63b8ff" stroke="#63b8ff" points="2519.15,-136.06 2525.45,-127.54 2515.21,-130.28 2519.15,-136.06"/>
</g>
<!-- Node55 -->
<g id="node55" class="node">
<title>Node55</title>
<g id="a_node55"><a xlink:title=" ">
<polygon fill="#e0e0e0" stroke="#999999" points="2465,-132 2340,-132 2340,-106 2465,-106 2465,-132"/>
<text text-anchor="start" x="2348" y="-121.6" font-family="SourceSans" font-size="8.00">boost/date_time/gregorian</text>
<text text-anchor="middle" x="2402.5" y="-112.6" font-family="SourceSans" font-size="8.00">/gregorian.hpp</text>
</a>
</g>
</g>
<!-- Node54&#45;&gt;Node55 -->
<g id="edge59" class="edge">
<title>Node54&#45;&gt;Node55</title>
<path fill="none" stroke="#63b8ff" d="M2442.49,-172.16C2436.34,-164.14 2426.53,-151.34 2418.16,-140.43"/>
<polygon fill="#63b8ff" stroke="#63b8ff" points="2420.73,-138.02 2411.86,-132.21 2415.17,-142.28 2420.73,-138.02"/>
</g>
<!-- Node57 -->
<g id="node57" class="node">
<title>Node57</title>
<g id="a_node57"><a xlink:href="a60-collection-persistent_8h.html" target="_top" xlink:title=" ">
<polygon fill="white" stroke="#666666" points="2642,-300 2515,-300 2515,-283 2642,-283 2642,-300"/>
<text text-anchor="middle" x="2578.5" y="-289.6" font-family="SourceSans" font-size="8.00">a60&#45;collection&#45;persistent.h</text>
</a>
</g>
</g>
<!-- Node56&#45;&gt;Node57 -->
<g id="edge62" class="edge">
<title>Node56&#45;&gt;Node57</title>
<path fill="none" stroke="#63b8ff" d="M2577.65,-335.97C2577.78,-329.19 2577.98,-318.97 2578.15,-310.13"/>
<polygon fill="#63b8ff" stroke="#63b8ff" points="2581.66,-310.12 2578.35,-300.06 2574.66,-309.99 2581.66,-310.12"/>
</g>
<!-- Node58 -->
<g id="node58" class="node">
<title>Node58</title>
<g id="a_node58"><a xlink:href="a60-collection-coalesce_8h.html" target="_top" xlink:title=" ">
<polygon fill="white" stroke="#666666" points="2636.5,-247 2514.5,-247 2514.5,-230 2636.5,-230 2636.5,-247"/>
<text text-anchor="middle" x="2575.5" y="-236.6" font-family="SourceSans" font-size="8.00">a60&#45;collection&#45;coalesce.h</text>
</a>
</g>
</g>
<!-- Node57&#45;&gt;Node58 -->
<g id="edge63" class="edge">
<title>Node57&#45;&gt;Node58</title>
<path fill="none" stroke="#63b8ff" d="M2578.06,-282.97C2577.66,-276.19 2577.06,-265.97 2576.54,-257.13"/>
<polygon fill="#63b8ff" stroke="#63b8ff" points="2580.03,-256.83 2575.94,-247.06 2573.04,-257.24 2580.03,-256.83"/>
</g>
<!-- Node58&#45;&gt;Node52 -->
<g id="edge64" class="edge">
<title>Node58&#45;&gt;Node52</title>
<path fill="none" stroke="#63b8ff" d="M2572.94,-229.79C2566.74,-211.12 2550.8,-163.1 2542.2,-137.19"/>
<polygon fill="#63b8ff" stroke="#63b8ff" points="2545.49,-135.97 2539.02,-127.59 2538.85,-138.18 2545.49,-135.97"/>
</g>
<!-- Node58&#45;&gt;Node54 -->
<g id="edge65" class="edge">
<title>Node58&#45;&gt;Node54</title>
<path fill="none" stroke="#63b8ff" d="M2558.11,-229.9C2536.64,-220.52 2499.91,-204.47 2474.94,-193.55"/>
<polygon fill="#63b8ff" stroke="#63b8ff" points="2476.25,-190.31 2465.68,-189.51 2473.44,-196.72 2476.25,-190.31"/>
</g>
<!-- Node59 -->
<g id="node59" class="node">
<title>Node59</title>
<g id="a_node59"><a xlink:href="a60-thread-pool_8h.html" target="_top" xlink:title=" ">
<polygon fill="white" stroke="#666666" points="2782.5,-189.5 2692.5,-189.5 2692.5,-172.5 2782.5,-172.5 2782.5,-189.5"/>
<text text-anchor="middle" x="2737.5" y="-179.1" font-family="SourceSans" font-size="8.00">a60&#45;thread&#45;pool.h</text>
</a>
</g>
</g>
<!-- Node58&#45;&gt;Node59 -->
<g id="edge66" class="edge">
<title>Node58&#45;&gt;Node59</title>
<path fill="none" stroke="#63b8ff" d="M2597.69,-229.9C2625.68,-220.31 2674.01,-203.75 2705.86,-192.84"/>
<polygon fill="#63b8ff" stroke="#63b8ff" points="2707.26,-196.06 2715.58,-189.51 2704.99,-189.44 2707.26,-196.06"/>
</g>
<!-- Node59&#45;&gt;Node8 -->
<g id="edge67" class="edge">
<title>Node59&#45;&gt;Node8</title>
<path fill="none" stroke="#63b8ff" d="M2692.35,-176.94C2538.39,-166.52 2035.63,-132.47 1890.84,-122.66"/>
<polygon fill="#63b8ff" stroke="#63b8ff" points="1890.87,-119.16 1880.66,-121.97 1890.4,-126.14 1890.87,-119.16"/>
</g>
<!-- Node60 -->
<g id="node60" class="node">
<title>Node60</title>
<g id="a_node60"><a xlink:title=" ">
<polygon fill="#e0e0e0" stroke="#999999" points="2847,-127.5 2806,-127.5 2806,-110.5 2847,-110.5 2847,-127.5"/>
<text text-anchor="middle" x="2826.5" y="-117.1" font-family="SourceSans" font-size="8.00">future</text>
</a>
</g>
</g>
<!-- Node59&#45;&gt;Node60 -->
<g id="edge68" class="edge">
<title>Node59&#45;&gt;Node60</title>
<path fill="none" stroke="#63b8ff" d="M2748.77,-172.4C2763.35,-162.57 2788.98,-145.29 2806.81,-133.27"/>
<polygon fill="#63b8ff" stroke="#63b8ff" points="2808.98,-136.03 2815.32,-127.54 2805.07,-130.23 2808.98,-136.03"/>
</g>
<!-- Node61 -->
<g id="node61" class="node">
<title>Node61</title>
<g id="a_node61"><a xlink:title=" ">
<polygon fill="#e0e0e0" stroke="#999999" points="2894,-127.5 2865,-127.5 2865,-110.5 2894,-110.5 2894,-127.5"/>
<text text-anchor="middle" x="2879.5" y="-117.1" font-family="SourceSans" font-size="8.00">list</text>
</a>
</g>
</g>
<!-- Node59&#45;&gt;Node61 -->
<g id="edge69" class="edge">
<title>Node59&#45;&gt;Node61</title>
<path fill="none" stroke="#63b8ff" d="M2757.97,-172.44C2781.89,-163.45 2822.52,-147.67 2856.5,-132 2856.59,-131.96 2856.68,-131.91 2856.78,-131.87"/>
<polygon fill="#63b8ff" stroke="#63b8ff" points="2858.07,-135.14 2865.5,-127.58 2854.98,-128.86 2858.07,-135.14"/>
</g>
<!-- Node62 -->
<g id="node62" class="node">
<title>Node62</title>
<g id="a_node62"><a xlink:title=" ">
<polygon fill="#e0e0e0" stroke="#999999" points="2657.5,-127.5 2607.5,-127.5 2607.5,-110.5 2657.5,-110.5 2657.5,-127.5"/>
<text text-anchor="middle" x="2632.5" y="-117.1" font-family="SourceSans" font-size="8.00">memory</text>
</a>
</g>
</g>
<!-- Node59&#45;&gt;Node62 -->
<g id="edge70" class="edge">
<title>Node59&#45;&gt;Node62</title>
<path fill="none" stroke="#63b8ff" d="M2724.2,-172.4C2706.69,-162.39 2675.65,-144.66 2654.58,-132.62"/>
<polygon fill="#63b8ff" stroke="#63b8ff" points="2656.11,-129.46 2645.69,-127.54 2652.64,-135.54 2656.11,-129.46"/>
</g>
<!-- Node63 -->
<g id="node63" class="node">
<title>Node63</title>
<g id="a_node63"><a xlink:title=" ">
<polygon fill="#e0e0e0" stroke="#999999" points="2719,-127.5 2676,-127.5 2676,-110.5 2719,-110.5 2719,-127.5"/>
<text text-anchor="middle" x="2697.5" y="-117.1" font-family="SourceSans" font-size="8.00">queue</text>
</a>
</g>
</g>
<!-- Node59&#45;&gt;Node63 -->
<g id="edge71" class="edge">
<title>Node59&#45;&gt;Node63</title>
<path fill="none" stroke="#63b8ff" d="M2732.27,-172.16C2726.19,-163.03 2715.99,-147.73 2708.2,-136.06"/>
<polygon fill="#63b8ff" stroke="#63b8ff" points="2711.06,-134.04 2702.6,-127.66 2705.24,-137.92 2711.06,-134.04"/>
</g>
<!-- Node64 -->
<g id="node64" class="node">
<title>Node64</title>
<g id="a_node64"><a xlink:title=" ">
<polygon fill="#e0e0e0" stroke="#999999" points="2787.5,-127.5 2737.5,-127.5 2737.5,-110.5 2787.5,-110.5 2787.5,-127.5"/>
<text text-anchor="middle" x="2762.5" y="-117.1" font-family="SourceSans" font-size="8.00">optional</text>
</a>
</g>
</g>
<!-- Node59&#45;&gt;Node64 -->
<g id="edge72" class="edge">
<title>Node59&#45;&gt;Node64</title>
<path fill="none" stroke="#63b8ff" d="M2740.77,-172.16C2744.46,-163.3 2750.57,-148.64 2755.37,-137.11"/>
<polygon fill="#63b8ff" stroke="#63b8ff" points="2758.69,-138.23 2759.31,-127.66 2752.23,-135.54 2758.69,-138.23"/>
</g>
<!-- Node65&#45;&gt;Node52 -->
<g id="edge74" class="edge">
<title>Node65&#45;&gt;Node52</title>
<path fill="none" stroke="#63b8ff" d="M2710.21,-282.73C2682.02,-256.32 2589.59,-169.73 2552.3,-134.81"/>
<polygon fill="#63b8ff" stroke="#63b8ff" points="2554.53,-132.1 2544.84,-127.81 2549.75,-137.21 2554.53,-132.1"/>
</g>
</g>
</svg>
