<?xml version="1.0" encoding="UTF-8" standalone="no"?>
<!DOCTYPE svg PUBLIC "-//W3C//DTD SVG 1.1//EN"
 "http://www.w3.org/Graphics/SVG/1.1/DTD/svg11.dtd">
<!-- Generated by graphviz version 5.0.0 (0)
 -->
<!-- Title: /home/bkoz/src/alpha60/src/a60&#45;svg&#45;collection.h Pages: 1 -->
<svg width="3059pt" height="441pt"
 viewBox="0.00 0.00 3058.50 441.00" xmlns="http://www.w3.org/2000/svg" xmlns:xlink="http://www.w3.org/1999/xlink">
<g id="graph0" class="graph" transform="scale(1 1) rotate(0) translate(4 437)">
<title>/home/bkoz/src/alpha60/src/a60&#45;svg&#45;collection.h</title>
<!-- Node1 -->
<g id="node1" class="node">
<title>Node1</title>
<g id="a_node1"><a xlink:title=" ">
<polygon fill="#999999" stroke="#666666" points="1869,-433 1751,-433 1751,-407 1869,-407 1869,-433"/>
<text text-anchor="start" x="1759" y="-422.6" font-family="SourceSans" font-size="8.00">/home/bkoz/src/alpha60</text>
<text text-anchor="middle" x="1810" y="-413.6" font-family="SourceSans" font-size="8.00">/src/a60&#45;svg&#45;collection.h</text>
</a>
</g>
</g>
<!-- Node2 -->
<g id="node2" class="node">
<title>Node2</title>
<g id="a_node2"><a xlink:title=" ">
<polygon fill="#e0e0e0" stroke="#999999" points="331,-17 275,-17 275,0 331,0 331,-17"/>
<text text-anchor="middle" x="303" y="-6.6" font-family="SourceSans" font-size="8.00">algorithm</text>
</a>
</g>
</g>
<!-- Node1&#45;&gt;Node2 -->
<g id="edge1" class="edge">
<title>Node1&#45;&gt;Node2</title>
<path fill="none" stroke="#63b8ff" d="M1750.81,-418.18C1438.87,-413.47 0,-386.86 0,-297 0,-297 0,-297 0,-118 0,-62.45 182.77,-27.74 264.41,-15.01"/>
<polygon fill="#63b8ff" stroke="#63b8ff" points="265.41,-18.39 274.77,-13.42 264.35,-11.47 265.41,-18.39"/>
</g>
<!-- Node3 -->
<g id="node3" class="node">
<title>Node3</title>
<g id="a_node3"><a xlink:title=" ">
<polygon fill="#e0e0e0" stroke="#999999" points="1708.5,-366.5 1651.5,-366.5 1651.5,-349.5 1708.5,-349.5 1708.5,-366.5"/>
<text text-anchor="middle" x="1680" y="-356.1" font-family="SourceSans" font-size="8.00">a60&#45;svg.h</text>
</a>
</g>
</g>
<!-- Node1&#45;&gt;Node3 -->
<g id="edge2" class="edge">
<title>Node1&#45;&gt;Node3</title>
<path fill="none" stroke="#63b8ff" d="M1783.69,-406.86C1760.94,-396.36 1728.25,-381.27 1705.69,-370.86"/>
<polygon fill="#63b8ff" stroke="#63b8ff" points="1706.95,-367.58 1696.4,-366.57 1704.01,-373.94 1706.95,-367.58"/>
</g>
<!-- Node4 -->
<g id="node4" class="node">
<title>Node4</title>
<g id="a_node4"><a xlink:href="a60-svg-collection-color_8h.html" target="_top" xlink:title=" ">
<polygon fill="white" stroke="#666666" points="1819,-371 1727,-371 1727,-345 1819,-345 1819,-371"/>
<text text-anchor="start" x="1735" y="-360.6" font-family="SourceSans" font-size="8.00">a60&#45;svg&#45;collection</text>
<text text-anchor="middle" x="1773" y="-351.6" font-family="SourceSans" font-size="8.00">&#45;color.h</text>
</a>
</g>
</g>
<!-- Node1&#45;&gt;Node4 -->
<g id="edge3" class="edge">
<title>Node1&#45;&gt;Node4</title>
<path fill="none" stroke="#63b8ff" d="M1802.51,-406.86C1797.75,-399.13 1791.45,-388.92 1785.9,-379.92"/>
<polygon fill="#63b8ff" stroke="#63b8ff" points="1788.7,-377.8 1780.48,-371.12 1782.75,-381.47 1788.7,-377.8"/>
</g>
<!-- Node5 -->
<g id="node5" class="node">
<title>Node5</title>
<g id="a_node5"><a xlink:href="a60-svg-collection-glyphs_8h.html" target="_top" xlink:title=" ">
<polygon fill="white" stroke="#666666" points="1967,-371 1875,-371 1875,-345 1967,-345 1967,-371"/>
<text text-anchor="start" x="1883" y="-360.6" font-family="SourceSans" font-size="8.00">a60&#45;svg&#45;collection</text>
<text text-anchor="middle" x="1921" y="-351.6" font-family="SourceSans" font-size="8.00">&#45;glyphs.h</text>
</a>
</g>
</g>
<!-- Node1&#45;&gt;Node5 -->
<g id="edge4" class="edge">
<title>Node1&#45;&gt;Node5</title>
<path fill="none" stroke="#63b8ff" d="M1832.46,-406.86C1848.86,-397.99 1871.31,-385.86 1889.5,-376.03"/>
<polygon fill="#63b8ff" stroke="#63b8ff" points="1891.44,-378.96 1898.57,-371.12 1888.11,-372.8 1891.44,-378.96"/>
</g>
<!-- Node57 -->
<g id="node57" class="node">
<title>Node57</title>
<g id="a_node57"><a xlink:href="a60-svg-titles-and-legends_8h.html" target="_top" xlink:title=" ">
<polygon fill="white" stroke="#666666" points="2041,-309 1949,-309 1949,-283 2041,-283 2041,-309"/>
<text text-anchor="start" x="1957" y="-298.6" font-family="SourceSans" font-size="8.00">a60&#45;svg&#45;titles&#45;and</text>
<text text-anchor="middle" x="1995" y="-289.6" font-family="SourceSans" font-size="8.00">&#45;legends.h</text>
</a>
</g>
</g>
<!-- Node1&#45;&gt;Node57 -->
<g id="edge68" class="edge">
<title>Node1&#45;&gt;Node57</title>
<path fill="none" stroke="#63b8ff" d="M1869.3,-416.18C1904.82,-411.38 1948.32,-399.53 1976,-371 1989.21,-357.39 1993.59,-335.89 1994.88,-319.57"/>
<polygon fill="#63b8ff" stroke="#63b8ff" points="1998.39,-319.4 1995.36,-309.25 1991.4,-319.08 1998.39,-319.4"/>
</g>
<!-- Node58 -->
<g id="node58" class="node">
<title>Node58</title>
<g id="a_node58"><a xlink:href="a60-demographia_8h.html" target="_top" xlink:title=" ">
<polygon fill="white" stroke="#666666" points="1902,-304.5 1804,-304.5 1804,-287.5 1902,-287.5 1902,-304.5"/>
<text text-anchor="middle" x="1853" y="-294.1" font-family="SourceSans" font-size="8.00">a60&#45;demographia.h</text>
</a>
</g>
</g>
<!-- Node1&#45;&gt;Node58 -->
<g id="edge70" class="edge">
<title>Node1&#45;&gt;Node58</title>
<path fill="none" stroke="#63b8ff" d="M1814.7,-406.81C1818.4,-397.13 1823.64,-383.24 1828,-371 1834.89,-351.68 1842.36,-329.35 1847.33,-314.32"/>
<polygon fill="#63b8ff" stroke="#63b8ff" points="1850.66,-315.4 1850.46,-304.81 1844.01,-313.21 1850.66,-315.4"/>
</g>
<!-- Node6 -->
<g id="node6" class="node">
<title>Node6</title>
<g id="a_node6"><a xlink:href="a60-carto_8h.html" target="_top" xlink:title=" ">
<polygon fill="white" stroke="#666666" points="2367.5,-189.5 2304.5,-189.5 2304.5,-172.5 2367.5,-172.5 2367.5,-189.5"/>
<text text-anchor="middle" x="2336" y="-179.1" font-family="SourceSans" font-size="8.00">a60&#45;carto.h</text>
</a>
</g>
</g>
<!-- Node5&#45;&gt;Node6 -->
<g id="edge5" class="edge">
<title>Node5&#45;&gt;Node6</title>
<path fill="none" stroke="#63b8ff" d="M1955.17,-344.93C1981.3,-335.55 2018.14,-321.99 2050,-309 2147.43,-269.29 2261.12,-216.98 2310.71,-193.86"/>
<polygon fill="#63b8ff" stroke="#63b8ff" points="2312.44,-196.91 2320.02,-189.51 2309.48,-190.57 2312.44,-196.91"/>
</g>
<!-- Node36 -->
<g id="node36" class="node">
<title>Node36</title>
<g id="a_node36"><a xlink:href="a60-torrent_8h.html" target="_top" xlink:title=" ">
<polygon fill="white" stroke="#666666" points="1014,-304.5 944,-304.5 944,-287.5 1014,-287.5 1014,-304.5"/>
<text text-anchor="middle" x="979" y="-294.1" font-family="SourceSans" font-size="8.00">a60&#45;torrent.h</text>
</a>
</g>
</g>
<!-- Node5&#45;&gt;Node36 -->
<g id="edge39" class="edge">
<title>Node5&#45;&gt;Node36</title>
<path fill="none" stroke="#63b8ff" d="M1874.71,-350.36C1859.82,-348.4 1843.24,-346.41 1828,-345 1521.66,-316.61 1151.48,-302.63 1024.38,-298.42"/>
<polygon fill="#63b8ff" stroke="#63b8ff" points="1024.36,-294.91 1014.25,-298.08 1024.13,-301.91 1024.36,-294.91"/>
</g>
<!-- Node7 -->
<g id="node7" class="node">
<title>Node7</title>
<g id="a_node7"><a xlink:title=" ">
<polygon fill="#e0e0e0" stroke="#999999" points="2211,-17 2169,-17 2169,0 2211,0 2211,-17"/>
<text text-anchor="middle" x="2190" y="-6.6" font-family="SourceSans" font-size="8.00">cmath</text>
</a>
</g>
</g>
<!-- Node6&#45;&gt;Node7 -->
<g id="edge6" class="edge">
<title>Node6&#45;&gt;Node7</title>
<path fill="none" stroke="#63b8ff" d="M2326.09,-172.43C2314.62,-163.42 2295.45,-147.64 2281,-132 2248.44,-96.78 2216.42,-50.1 2200.46,-25.79"/>
<polygon fill="#63b8ff" stroke="#63b8ff" points="2203.2,-23.59 2194.82,-17.11 2197.33,-27.4 2203.2,-23.59"/>
</g>
<!-- Node8 -->
<g id="node8" class="node">
<title>Node8</title>
<g id="a_node8"><a xlink:title=" ">
<polygon fill="#e0e0e0" stroke="#999999" points="2258.5,-17 2229.5,-17 2229.5,0 2258.5,0 2258.5,-17"/>
<text text-anchor="middle" x="2244" y="-6.6" font-family="SourceSans" font-size="8.00">set</text>
</a>
</g>
</g>
<!-- Node6&#45;&gt;Node8 -->
<g id="edge7" class="edge">
<title>Node6&#45;&gt;Node8</title>
<path fill="none" stroke="#63b8ff" d="M2329.11,-172.26C2321.18,-163.1 2308.08,-147.17 2299,-132 2277.72,-96.44 2259.47,-51.19 2250.31,-26.86"/>
<polygon fill="#63b8ff" stroke="#63b8ff" points="2253.51,-25.43 2246.76,-17.27 2246.94,-27.86 2253.51,-25.43"/>
</g>
<!-- Node9 -->
<g id="node9" class="node">
<title>Node9</title>
<g id="a_node9"><a xlink:title=" ">
<polygon fill="#e0e0e0" stroke="#999999" points="2183,-127.5 2125,-127.5 2125,-110.5 2183,-110.5 2183,-127.5"/>
<text text-anchor="middle" x="2154" y="-117.1" font-family="SourceSans" font-size="8.00">functional</text>
</a>
</g>
</g>
<!-- Node6&#45;&gt;Node9 -->
<g id="edge8" class="edge">
<title>Node6&#45;&gt;Node9</title>
<path fill="none" stroke="#63b8ff" d="M2312.95,-172.4C2280.95,-161.85 2222.9,-142.72 2186.51,-130.72"/>
<polygon fill="#63b8ff" stroke="#63b8ff" points="2187.46,-127.34 2176.86,-127.54 2185.26,-133.99 2187.46,-127.34"/>
</g>
<!-- Node10 -->
<g id="node10" class="node">
<title>Node10</title>
<g id="a_node10"><a xlink:title=" ">
<polygon fill="#e0e0e0" stroke="#999999" points="2329,-17 2277,-17 2277,0 2329,0 2329,-17"/>
<text text-anchor="middle" x="2303" y="-6.6" font-family="SourceSans" font-size="8.00">iostream</text>
</a>
</g>
</g>
<!-- Node6&#45;&gt;Node10 -->
<g id="edge9" class="edge">
<title>Node6&#45;&gt;Node10</title>
<path fill="none" stroke="#63b8ff" d="M2329.72,-172.44C2322.68,-163.45 2311.65,-147.68 2307,-132 2301.37,-112.99 2301.82,-56.76 2302.48,-27.56"/>
<polygon fill="#63b8ff" stroke="#63b8ff" points="2305.98,-27.28 2302.75,-17.2 2298.99,-27.1 2305.98,-27.28"/>
</g>
<!-- Node11 -->
<g id="node11" class="node">
<title>Node11</title>
<g id="a_node11"><a xlink:title=" ">
<polygon fill="#e0e0e0" stroke="#999999" points="2356.5,-127.5 2315.5,-127.5 2315.5,-110.5 2356.5,-110.5 2356.5,-127.5"/>
<text text-anchor="middle" x="2336" y="-117.1" font-family="SourceSans" font-size="8.00">mutex</text>
</a>
</g>
</g>
<!-- Node6&#45;&gt;Node11 -->
<g id="edge10" class="edge">
<title>Node6&#45;&gt;Node11</title>
<path fill="none" stroke="#63b8ff" d="M2336,-172.16C2336,-163.48 2336,-149.23 2336,-137.82"/>
<polygon fill="#63b8ff" stroke="#63b8ff" points="2339.5,-137.66 2336,-127.66 2332.5,-137.66 2339.5,-137.66"/>
</g>
<!-- Node12 -->
<g id="node12" class="node">
<title>Node12</title>
<g id="a_node12"><a xlink:title=" ">
<polygon fill="#e0e0e0" stroke="#999999" points="2467,-127.5 2375,-127.5 2375,-110.5 2467,-110.5 2467,-127.5"/>
<text text-anchor="middle" x="2421" y="-117.1" font-family="SourceSans" font-size="8.00">condition_variable</text>
</a>
</g>
</g>
<!-- Node6&#45;&gt;Node12 -->
<g id="edge11" class="edge">
<title>Node6&#45;&gt;Node12</title>
<path fill="none" stroke="#63b8ff" d="M2346.77,-172.4C2360.56,-162.66 2384.72,-145.61 2401.72,-133.61"/>
<polygon fill="#63b8ff" stroke="#63b8ff" points="2404.17,-136.16 2410.32,-127.54 2400.13,-130.44 2404.17,-136.16"/>
</g>
<!-- Node13 -->
<g id="node13" class="node">
<title>Node13</title>
<g id="a_node13"><a xlink:title=" ">
<polygon fill="#e0e0e0" stroke="#999999" points="2558.5,-127.5 2485.5,-127.5 2485.5,-110.5 2558.5,-110.5 2558.5,-127.5"/>
<text text-anchor="middle" x="2522" y="-117.1" font-family="SourceSans" font-size="8.00">shared_mutex</text>
</a>
</g>
</g>
<!-- Node6&#45;&gt;Node13 -->
<g id="edge12" class="edge">
<title>Node6&#45;&gt;Node13</title>
<path fill="none" stroke="#63b8ff" d="M2359.56,-172.4C2392.26,-161.85 2451.58,-142.72 2488.77,-130.72"/>
<polygon fill="#63b8ff" stroke="#63b8ff" points="2490.19,-133.94 2498.63,-127.54 2488.04,-127.28 2490.19,-133.94"/>
</g>
<!-- Node14 -->
<g id="node14" class="node">
<title>Node14</title>
<g id="a_node14"><a xlink:href="a60-io_8h.html" target="_top" xlink:title=" ">
<polygon fill="white" stroke="#666666" points="2020,-127.5 1970,-127.5 1970,-110.5 2020,-110.5 2020,-127.5"/>
<text text-anchor="middle" x="1995" y="-117.1" font-family="SourceSans" font-size="8.00">a60&#45;io.h</text>
</a>
</g>
</g>
<!-- Node6&#45;&gt;Node14 -->
<g id="edge13" class="edge">
<title>Node6&#45;&gt;Node14</title>
<path fill="none" stroke="#63b8ff" d="M2304.23,-174.41C2240.35,-163.17 2096.81,-137.91 2030.2,-126.19"/>
<polygon fill="#63b8ff" stroke="#63b8ff" points="2030.65,-122.72 2020.19,-124.43 2029.43,-129.61 2030.65,-122.72"/>
</g>
<!-- Node32 -->
<g id="node32" class="node">
<title>Node32</title>
<g id="a_node32"><a xlink:href="a60-carto-projection_8h.html" target="_top" xlink:title=" ">
<polygon fill="white" stroke="#666666" points="2683.5,-127.5 2576.5,-127.5 2576.5,-110.5 2683.5,-110.5 2683.5,-127.5"/>
<text text-anchor="middle" x="2630" y="-117.1" font-family="SourceSans" font-size="8.00">a60&#45;carto&#45;projection.h</text>
</a>
</g>
</g>
<!-- Node6&#45;&gt;Node32 -->
<g id="edge35" class="edge">
<title>Node6&#45;&gt;Node32</title>
<path fill="none" stroke="#63b8ff" d="M2367.74,-173.52C2419.54,-162.95 2522.48,-141.94 2582.85,-129.62"/>
<polygon fill="#63b8ff" stroke="#63b8ff" points="2583.78,-133.01 2592.88,-127.58 2582.38,-126.15 2583.78,-133.01"/>
</g>
<!-- Node33 -->
<g id="node33" class="node">
<title>Node33</title>
<g id="a_node33"><a xlink:href="a60-carto-projection-un_8h.html" target="_top" xlink:title=" ">
<polygon fill="white" stroke="#666666" points="2822.5,-127.5 2701.5,-127.5 2701.5,-110.5 2822.5,-110.5 2822.5,-127.5"/>
<text text-anchor="middle" x="2762" y="-117.1" font-family="SourceSans" font-size="8.00">a60&#45;carto&#45;projection&#45;un.h</text>
</a>
</g>
</g>
<!-- Node6&#45;&gt;Node33 -->
<g id="edge36" class="edge">
<title>Node6&#45;&gt;Node33</title>
<path fill="none" stroke="#63b8ff" d="M2367.58,-176.17C2429.9,-168.52 2573.09,-150.48 2693,-132 2698.48,-131.15 2704.2,-130.23 2709.9,-129.28"/>
<polygon fill="#63b8ff" stroke="#63b8ff" points="2710.81,-132.68 2720.08,-127.56 2709.64,-125.78 2710.81,-132.68"/>
</g>
<!-- Node34 -->
<g id="node34" class="node">
<title>Node34</title>
<g id="a_node34"><a xlink:href="a60-carto-projection-cahill-keyes_8h.html" target="_top" xlink:title=" ">
<polygon fill="white" stroke="#666666" points="2941,-132 2841,-132 2841,-106 2941,-106 2941,-132"/>
<text text-anchor="start" x="2849" y="-121.6" font-family="SourceSans" font-size="8.00">a60&#45;carto&#45;projection</text>
<text text-anchor="middle" x="2891" y="-112.6" font-family="SourceSans" font-size="8.00">&#45;cahill&#45;keyes.h</text>
</a>
</g>
</g>
<!-- Node6&#45;&gt;Node34 -->
<g id="edge37" class="edge">
<title>Node6&#45;&gt;Node34</title>
<path fill="none" stroke="#63b8ff" d="M2367.77,-178.08C2445.22,-173.15 2650.09,-158.63 2830.9,-132.05"/>
<polygon fill="#63b8ff" stroke="#63b8ff" points="2831.47,-135.5 2840.85,-130.57 2830.45,-128.58 2831.47,-135.5"/>
</g>
<!-- Node35 -->
<g id="node35" class="node">
<title>Node35</title>
<g id="a_node35"><a xlink:href="a60-carto-frame_8h.html" target="_top" xlink:title=" ">
<polygon fill="white" stroke="#666666" points="3050.5,-127.5 2959.5,-127.5 2959.5,-110.5 3050.5,-110.5 3050.5,-127.5"/>
<text text-anchor="middle" x="3005" y="-117.1" font-family="SourceSans" font-size="8.00">a60&#45;carto&#45;frame.h</text>
</a>
</g>
</g>
<!-- Node6&#45;&gt;Node35 -->
<g id="edge38" class="edge">
<title>Node6&#45;&gt;Node35</title>
<path fill="none" stroke="#63b8ff" d="M2367.81,-179.05C2458.94,-175.99 2728.66,-164.64 2950,-132 2954.53,-131.33 2959.24,-130.51 2963.92,-129.61"/>
<polygon fill="#63b8ff" stroke="#63b8ff" points="2964.92,-132.97 2974.01,-127.54 2963.51,-126.11 2964.92,-132.97"/>
</g>
<!-- Node15 -->
<g id="node15" class="node">
<title>Node15</title>
<g id="a_node15"><a xlink:title=" ">
<polygon fill="#e0e0e0" stroke="#999999" points="1733.5,-70 1686.5,-70 1686.5,-53 1733.5,-53 1733.5,-70"/>
<text text-anchor="middle" x="1710" y="-59.6" font-family="SourceSans" font-size="8.00">fstream</text>
</a>
</g>
</g>
<!-- Node14&#45;&gt;Node15 -->
<g id="edge14" class="edge">
<title>Node14&#45;&gt;Node15</title>
<path fill="none" stroke="#63b8ff" d="M1969.75,-113.12C1925.04,-104.47 1829.02,-85.87 1748,-70 1746.56,-69.72 1745.08,-69.43 1743.59,-69.14"/>
<polygon fill="#63b8ff" stroke="#63b8ff" points="1744.2,-65.69 1733.71,-67.19 1742.85,-72.56 1744.2,-65.69"/>
</g>
<!-- Node16 -->
<g id="node16" class="node">
<title>Node16</title>
<g id="a_node16"><a xlink:title=" ">
<polygon fill="#e0e0e0" stroke="#999999" points="2052.5,-70 1937.5,-70 1937.5,-53 2052.5,-53 2052.5,-70"/>
<text text-anchor="middle" x="1995" y="-59.6" font-family="SourceSans" font-size="8.00">experimental/filesystem</text>
</a>
</g>
</g>
<!-- Node14&#45;&gt;Node16 -->
<g id="edge15" class="edge">
<title>Node14&#45;&gt;Node16</title>
<path fill="none" stroke="#63b8ff" d="M1995,-110.28C1995,-102.58 1995,-90.46 1995,-80.36"/>
<polygon fill="#63b8ff" stroke="#63b8ff" points="1998.5,-80.15 1995,-70.15 1991.5,-80.15 1998.5,-80.15"/>
</g>
<!-- Node17 -->
<g id="node17" class="node">
<title>Node17</title>
<g id="a_node17"><a xlink:title=" ">
<polygon fill="#e0e0e0" stroke="#999999" points="2127,-70 2071,-70 2071,-53 2127,-53 2127,-70"/>
<text text-anchor="middle" x="2099" y="-59.6" font-family="SourceSans" font-size="8.00">stdexcept</text>
</a>
</g>
</g>
<!-- Node14&#45;&gt;Node17 -->
<g id="edge16" class="edge">
<title>Node14&#45;&gt;Node17</title>
<path fill="none" stroke="#63b8ff" d="M2009.46,-110.28C2026.61,-101.13 2055.44,-85.75 2075.74,-74.91"/>
<polygon fill="#63b8ff" stroke="#63b8ff" points="2077.49,-77.95 2084.66,-70.15 2074.19,-71.77 2077.49,-77.95"/>
</g>
<!-- Node18 -->
<g id="node18" class="node">
<title>Node18</title>
<g id="a_node18"><a xlink:title=" ">
<polygon fill="#e0e0e0" stroke="#999999" points="2183,-70 2145,-70 2145,-53 2183,-53 2183,-70"/>
<text text-anchor="middle" x="2164" y="-59.6" font-family="SourceSans" font-size="8.00">regex</text>
</a>
</g>
</g>
<!-- Node14&#45;&gt;Node18 -->
<g id="edge17" class="edge">
<title>Node14&#45;&gt;Node18</title>
<path fill="none" stroke="#63b8ff" d="M2018.14,-110.4C2048.62,-100.39 2102.2,-82.8 2135.24,-71.94"/>
<polygon fill="#63b8ff" stroke="#63b8ff" points="2136.38,-75.25 2144.79,-68.81 2134.2,-68.6 2136.38,-75.25"/>
</g>
<!-- Node19 -->
<g id="node19" class="node">
<title>Node19</title>
<g id="a_node19"><a xlink:href="a60_8h.html" target="_top" xlink:title=" ">
<polygon fill="white" stroke="#666666" points="1797,-70 1757,-70 1757,-53 1797,-53 1797,-70"/>
<text text-anchor="middle" x="1777" y="-59.6" font-family="SourceSans" font-size="8.00">a60.h</text>
</a>
</g>
</g>
<!-- Node14&#45;&gt;Node19 -->
<g id="edge18" class="edge">
<title>Node14&#45;&gt;Node19</title>
<path fill="none" stroke="#63b8ff" d="M1969.99,-111.63C1929.7,-101.37 1850.55,-81.22 1807.18,-70.18"/>
<polygon fill="#63b8ff" stroke="#63b8ff" points="1807.78,-66.72 1797.22,-67.65 1806.05,-73.51 1807.78,-66.72"/>
</g>
<!-- Node19&#45;&gt;Node2 -->
<g id="edge28" class="edge">
<title>Node19&#45;&gt;Node2</title>
<path fill="none" stroke="#63b8ff" d="M1756.75,-55.51C1751.94,-54.51 1746.81,-53.58 1742,-53 1459.53,-18.75 541.23,-11.01 341.55,-9.72"/>
<polygon fill="#63b8ff" stroke="#63b8ff" points="341.29,-6.22 331.27,-9.66 341.24,-13.22 341.29,-6.22"/>
</g>
<!-- Node19&#45;&gt;Node7 -->
<g id="edge19" class="edge">
<title>Node19&#45;&gt;Node7</title>
<path fill="none" stroke="#63b8ff" d="M1797.4,-58.54C1863.46,-52.15 2071.87,-31.54 2158.79,-16.93"/>
<polygon fill="#63b8ff" stroke="#63b8ff" points="2159.53,-20.35 2168.77,-15.18 2158.32,-13.46 2159.53,-20.35"/>
</g>
<!-- Node19&#45;&gt;Node8 -->
<g id="edge23" class="edge">
<title>Node19&#45;&gt;Node8</title>
<path fill="none" stroke="#63b8ff" d="M1797.15,-59.07C1869.86,-53.84 2119.29,-35.16 2219.35,-16.56"/>
<polygon fill="#63b8ff" stroke="#63b8ff" points="2220.26,-19.95 2229.4,-14.58 2218.91,-13.08 2220.26,-19.95"/>
</g>
<!-- Node19&#45;&gt;Node10 -->
<g id="edge34" class="edge">
<title>Node19&#45;&gt;Node10</title>
<path fill="none" stroke="#63b8ff" d="M1797.22,-59.6C1863.26,-56.47 2078.73,-44.8 2266.63,-17.01"/>
<polygon fill="#63b8ff" stroke="#63b8ff" points="2267.32,-20.44 2276.69,-15.5 2266.28,-13.52 2267.32,-20.44"/>
</g>
<!-- Node20 -->
<g id="node20" class="node">
<title>Node20</title>
<g id="a_node20"><a xlink:title=" ">
<polygon fill="#e0e0e0" stroke="#999999" points="1424,-17 1386,-17 1386,0 1424,0 1424,-17"/>
<text text-anchor="middle" x="1405" y="-6.6" font-family="SourceSans" font-size="8.00">tuple</text>
</a>
</g>
</g>
<!-- Node19&#45;&gt;Node20 -->
<g id="edge20" class="edge">
<title>Node19&#45;&gt;Node20</title>
<path fill="none" stroke="#63b8ff" d="M1756.7,-55.81C1751.9,-54.79 1746.78,-53.79 1742,-53 1608.78,-31.02 1570.58,-42.39 1434.19,-16.93"/>
<polygon fill="#63b8ff" stroke="#63b8ff" points="1434.67,-13.46 1424.19,-15.04 1433.37,-20.34 1434.67,-13.46"/>
</g>
<!-- Node21 -->
<g id="node21" class="node">
<title>Node21</title>
<g id="a_node21"><a xlink:title=" ">
<polygon fill="#e0e0e0" stroke="#999999" points="1482,-17 1442,-17 1442,0 1482,0 1482,-17"/>
<text text-anchor="middle" x="1462" y="-6.6" font-family="SourceSans" font-size="8.00">string</text>
</a>
</g>
</g>
<!-- Node19&#45;&gt;Node21 -->
<g id="edge21" class="edge">
<title>Node19&#45;&gt;Node21</title>
<path fill="none" stroke="#63b8ff" d="M1756.69,-55.9C1751.88,-54.88 1746.77,-53.85 1742,-53 1634.2,-33.74 1603.24,-38.83 1492.14,-17.01"/>
<polygon fill="#63b8ff" stroke="#63b8ff" points="1492.71,-13.55 1482.22,-15.03 1491.34,-20.42 1492.71,-13.55"/>
</g>
<!-- Node22 -->
<g id="node22" class="node">
<title>Node22</title>
<g id="a_node22"><a xlink:title=" ">
<polygon fill="#e0e0e0" stroke="#999999" points="1542,-17 1500,-17 1500,0 1542,0 1542,-17"/>
<text text-anchor="middle" x="1521" y="-6.6" font-family="SourceSans" font-size="8.00">vector</text>
</a>
</g>
</g>
<!-- Node19&#45;&gt;Node22 -->
<g id="edge22" class="edge">
<title>Node19&#45;&gt;Node22</title>
<path fill="none" stroke="#63b8ff" d="M1756.66,-56.05C1751.86,-55.03 1746.75,-53.96 1742,-53 1660.38,-36.56 1637.05,-35.54 1552.09,-17.13"/>
<polygon fill="#63b8ff" stroke="#63b8ff" points="1552.79,-13.7 1542.27,-14.98 1551.29,-20.53 1552.79,-13.7"/>
</g>
<!-- Node23 -->
<g id="node23" class="node">
<title>Node23</title>
<g id="a_node23"><a xlink:title=" ">
<polygon fill="#e0e0e0" stroke="#999999" points="1640,-17 1560,-17 1560,0 1640,0 1640,-17"/>
<text text-anchor="middle" x="1600" y="-6.6" font-family="SourceSans" font-size="8.00">unordered_map</text>
</a>
</g>
</g>
<!-- Node19&#45;&gt;Node23 -->
<g id="edge24" class="edge">
<title>Node19&#45;&gt;Node23</title>
<path fill="none" stroke="#63b8ff" d="M1756.7,-54.65C1727.23,-46.16 1672.17,-30.3 1635.8,-19.82"/>
<polygon fill="#63b8ff" stroke="#63b8ff" points="1636.65,-16.42 1626.07,-17.01 1634.71,-23.14 1636.65,-16.42"/>
</g>
<!-- Node24 -->
<g id="node24" class="node">
<title>Node24</title>
<g id="a_node24"><a xlink:title=" ">
<polygon fill="#e0e0e0" stroke="#999999" points="1733.5,-17 1658.5,-17 1658.5,0 1733.5,0 1733.5,-17"/>
<text text-anchor="middle" x="1696" y="-6.6" font-family="SourceSans" font-size="8.00">unordered_set</text>
</a>
</g>
</g>
<!-- Node19&#45;&gt;Node24 -->
<g id="edge25" class="edge">
<title>Node19&#45;&gt;Node24</title>
<path fill="none" stroke="#63b8ff" d="M1765.05,-52.97C1752.37,-44.99 1732.08,-32.22 1716.78,-22.58"/>
<polygon fill="#63b8ff" stroke="#63b8ff" points="1718.33,-19.42 1708,-17.06 1714.6,-25.35 1718.33,-19.42"/>
</g>
<!-- Node25 -->
<g id="node25" class="node">
<title>Node25</title>
<g id="a_node25"><a xlink:title=" ">
<polygon fill="#e0e0e0" stroke="#999999" points="998,-17 954,-17 954,0 998,0 998,-17"/>
<text text-anchor="middle" x="976" y="-6.6" font-family="SourceSans" font-size="8.00">chrono</text>
</a>
</g>
</g>
<!-- Node19&#45;&gt;Node25 -->
<g id="edge26" class="edge">
<title>Node19&#45;&gt;Node25</title>
<path fill="none" stroke="#63b8ff" d="M1756.73,-55.6C1751.93,-54.6 1746.8,-53.65 1742,-53 1459.31,-14.92 1113.56,-10.11 1008.06,-9.55"/>
<polygon fill="#63b8ff" stroke="#63b8ff" points="1008.07,-6.05 998.05,-9.51 1008.04,-13.05 1008.07,-6.05"/>
</g>
<!-- Node26 -->
<g id="node26" class="node">
<title>Node26</title>
<g id="a_node26"><a xlink:title=" ">
<polygon fill="#e0e0e0" stroke="#999999" points="1802,-17 1752,-17 1752,0 1802,0 1802,-17"/>
<text text-anchor="middle" x="1777" y="-6.6" font-family="SourceSans" font-size="8.00">numeric</text>
</a>
</g>
</g>
<!-- Node19&#45;&gt;Node26 -->
<g id="edge27" class="edge">
<title>Node19&#45;&gt;Node26</title>
<path fill="none" stroke="#63b8ff" d="M1777,-52.97C1777,-46.19 1777,-35.97 1777,-27.13"/>
<polygon fill="#63b8ff" stroke="#63b8ff" points="1780.5,-27.06 1777,-17.06 1773.5,-27.06 1780.5,-27.06"/>
</g>
<!-- Node27 -->
<g id="node27" class="node">
<title>Node27</title>
<g id="a_node27"><a xlink:title=" ">
<polygon fill="#e0e0e0" stroke="#999999" points="1861.5,-17 1820.5,-17 1820.5,0 1861.5,0 1861.5,-17"/>
<text text-anchor="middle" x="1841" y="-6.6" font-family="SourceSans" font-size="8.00">locale</text>
</a>
</g>
</g>
<!-- Node19&#45;&gt;Node27 -->
<g id="edge29" class="edge">
<title>Node19&#45;&gt;Node27</title>
<path fill="none" stroke="#63b8ff" d="M1786.44,-52.97C1796.18,-45.22 1811.59,-32.94 1823.55,-23.41"/>
<polygon fill="#63b8ff" stroke="#63b8ff" points="1825.88,-26.03 1831.52,-17.06 1821.52,-20.55 1825.88,-26.03"/>
</g>
<!-- Node28 -->
<g id="node28" class="node">
<title>Node28</title>
<g id="a_node28"><a xlink:title=" ">
<polygon fill="#e0e0e0" stroke="#999999" points="1928.5,-17 1879.5,-17 1879.5,0 1928.5,0 1928.5,-17"/>
<text text-anchor="middle" x="1904" y="-6.6" font-family="SourceSans" font-size="8.00">codecvt</text>
</a>
</g>
</g>
<!-- Node19&#45;&gt;Node28 -->
<g id="edge30" class="edge">
<title>Node19&#45;&gt;Node28</title>
<path fill="none" stroke="#63b8ff" d="M1795.74,-52.97C1816.84,-44.5 1851.37,-30.64 1875.75,-20.85"/>
<polygon fill="#63b8ff" stroke="#63b8ff" points="1877.21,-24.03 1885.18,-17.06 1874.6,-17.53 1877.21,-24.03"/>
</g>
<!-- Node29 -->
<g id="node29" class="node">
<title>Node29</title>
<g id="a_node29"><a xlink:title=" ">
<polygon fill="#e0e0e0" stroke="#999999" points="2083.5,-17 1946.5,-17 1946.5,0 2083.5,0 2083.5,-17"/>
<text text-anchor="middle" x="2015" y="-6.6" font-family="SourceSans" font-size="8.00">ext/codecvt_specializations.h</text>
</a>
</g>
</g>
<!-- Node19&#45;&gt;Node29 -->
<g id="edge31" class="edge">
<title>Node19&#45;&gt;Node29</title>
<path fill="none" stroke="#63b8ff" d="M1797.29,-56.15C1835.34,-48 1918.21,-30.24 1970.02,-19.14"/>
<polygon fill="#63b8ff" stroke="#63b8ff" points="1970.91,-22.53 1979.95,-17.01 1969.44,-15.68 1970.91,-22.53"/>
</g>
<!-- Node30 -->
<g id="node30" class="node">
<title>Node30</title>
<g id="a_node30"><a xlink:title=" ">
<polygon fill="#e0e0e0" stroke="#999999" points="2150.5,-17 2101.5,-17 2101.5,0 2150.5,0 2150.5,-17"/>
<text text-anchor="middle" x="2126" y="-6.6" font-family="SourceSans" font-size="8.00">sstream</text>
</a>
</g>
</g>
<!-- Node19&#45;&gt;Node30 -->
<g id="edge32" class="edge">
<title>Node19&#45;&gt;Node30</title>
<path fill="none" stroke="#63b8ff" d="M1797.06,-58.35C1845.77,-53 1974.3,-38.12 2091.01,-17.22"/>
<polygon fill="#63b8ff" stroke="#63b8ff" points="2091.96,-20.61 2101.18,-15.38 2090.72,-13.72 2091.96,-20.61"/>
</g>
<!-- Node31 -->
<g id="node31" class="node">
<title>Node31</title>
<g id="a_node31"><a xlink:title=" ">
<polygon fill="#e0e0e0" stroke="#999999" points="1368,-17 1318,-17 1318,0 1368,0 1368,-17"/>
<text text-anchor="middle" x="1343" y="-6.6" font-family="SourceSans" font-size="8.00">iomanip</text>
</a>
</g>
</g>
<!-- Node19&#45;&gt;Node31 -->
<g id="edge33" class="edge">
<title>Node19&#45;&gt;Node31</title>
<path fill="none" stroke="#63b8ff" d="M1756.71,-55.75C1751.91,-54.73 1746.79,-53.75 1742,-53 1584.24,-28.4 1539.8,-42.02 1378.48,-17.03"/>
<polygon fill="#63b8ff" stroke="#63b8ff" points="1378.61,-13.5 1368.19,-15.41 1377.52,-20.42 1378.61,-13.5"/>
</g>
<!-- Node36&#45;&gt;Node15 -->
<g id="edge42" class="edge">
<title>Node36&#45;&gt;Node15</title>
<path fill="none" stroke="#63b8ff" d="M1014.14,-294.9C1146.91,-294.22 1612.91,-288.82 1663,-247 1688.74,-225.51 1703.21,-122.16 1708.1,-80.23"/>
<polygon fill="#63b8ff" stroke="#63b8ff" points="1711.59,-80.48 1709.22,-70.15 1704.63,-79.7 1711.59,-80.48"/>
</g>
<!-- Node36&#45;&gt;Node25 -->
<g id="edge45" class="edge">
<title>Node36&#45;&gt;Node25</title>
<path fill="none" stroke="#63b8ff" d="M943.83,-294.55C773,-291.89 38,-275.07 38,-182 38,-182 38,-182 38,-118 38,-24.76 778.81,-11.55 943.72,-9.77"/>
<polygon fill="#63b8ff" stroke="#63b8ff" points="943.77,-13.27 953.74,-9.67 943.7,-6.27 943.77,-13.27"/>
</g>
<!-- Node36&#45;&gt;Node31 -->
<g id="edge43" class="edge">
<title>Node36&#45;&gt;Node31</title>
<path fill="none" stroke="#63b8ff" d="M1014.08,-292.84C1151.94,-283.87 1649,-247.03 1649,-182 1649,-182 1649,-182 1649,-118 1649,-89.54 1458.6,-38.47 1378.18,-18.17"/>
<polygon fill="#63b8ff" stroke="#63b8ff" points="1378.59,-14.66 1368.04,-15.62 1376.89,-21.45 1378.59,-14.66"/>
</g>
<!-- Node37 -->
<g id="node37" class="node">
<title>Node37</title>
<g id="a_node37"><a xlink:title=" ">
<polygon fill="#e0e0e0" stroke="#999999" points="846,-247 792,-247 792,-230 846,-230 846,-247"/>
<text text-anchor="middle" x="819" y="-236.6" font-family="SourceSans" font-size="8.00">cinttypes</text>
</a>
</g>
</g>
<!-- Node36&#45;&gt;Node37 -->
<g id="edge40" class="edge">
<title>Node36&#45;&gt;Node37</title>
<path fill="none" stroke="#63b8ff" d="M957.09,-287.4C929.44,-277.81 881.71,-261.25 850.25,-250.34"/>
<polygon fill="#63b8ff" stroke="#63b8ff" points="851.24,-246.98 840.65,-247.01 848.95,-253.59 851.24,-246.98"/>
</g>
<!-- Node38 -->
<g id="node38" class="node">
<title>Node38</title>
<g id="a_node38"><a xlink:title=" ">
<polygon fill="#e0e0e0" stroke="#999999" points="903.5,-247 864.5,-247 864.5,-230 903.5,-230 903.5,-247"/>
<text text-anchor="middle" x="884" y="-236.6" font-family="SourceSans" font-size="8.00">ctime</text>
</a>
</g>
</g>
<!-- Node36&#45;&gt;Node38 -->
<g id="edge41" class="edge">
<title>Node36&#45;&gt;Node38</title>
<path fill="none" stroke="#63b8ff" d="M965.79,-287.28C950.26,-278.21 924.27,-263.03 905.75,-252.21"/>
<polygon fill="#63b8ff" stroke="#63b8ff" points="907.5,-249.17 897.1,-247.15 903.97,-255.22 907.5,-249.17"/>
</g>
<!-- Node39 -->
<g id="node39" class="node">
<title>Node39</title>
<g id="a_node39"><a xlink:title=" ">
<polygon fill="#e0e0e0" stroke="#999999" points="964.5,-247 921.5,-247 921.5,-230 964.5,-230 964.5,-247"/>
<text text-anchor="middle" x="943" y="-236.6" font-family="SourceSans" font-size="8.00">thread</text>
</a>
</g>
</g>
<!-- Node36&#45;&gt;Node39 -->
<g id="edge44" class="edge">
<title>Node36&#45;&gt;Node39</title>
<path fill="none" stroke="#63b8ff" d="M973.99,-287.28C968.73,-279.16 960.29,-266.15 953.54,-255.75"/>
<polygon fill="#63b8ff" stroke="#63b8ff" points="956.34,-253.64 947.96,-247.15 950.47,-257.45 956.34,-253.64"/>
</g>
<!-- Node40 -->
<g id="node40" class="node">
<title>Node40</title>
<g id="a_node40"><a xlink:href="a60-peer_8h.html" target="_top" xlink:title=" ">
<polygon fill="white" stroke="#666666" points="1045,-247 983,-247 983,-230 1045,-230 1045,-247"/>
<text text-anchor="middle" x="1014" y="-236.6" font-family="SourceSans" font-size="8.00">a60&#45;peer.h</text>
</a>
</g>
</g>
<!-- Node36&#45;&gt;Node40 -->
<g id="edge46" class="edge">
<title>Node36&#45;&gt;Node40</title>
<path fill="none" stroke="#63b8ff" d="M983.87,-287.28C988.99,-279.16 997.19,-266.15 1003.75,-255.75"/>
<polygon fill="#63b8ff" stroke="#63b8ff" points="1006.8,-257.48 1009.17,-247.15 1000.88,-253.74 1006.8,-257.48"/>
</g>
<!-- Node41 -->
<g id="node41" class="node">
<title>Node41</title>
<g id="a_node41"><a xlink:href="a60-geo_8h.html" target="_top" xlink:title=" ">
<polygon fill="white" stroke="#666666" points="1900,-189.5 1842,-189.5 1842,-172.5 1900,-172.5 1900,-189.5"/>
<text text-anchor="middle" x="1871" y="-179.1" font-family="SourceSans" font-size="8.00">a60&#45;geo.h</text>
</a>
</g>
</g>
<!-- Node40&#45;&gt;Node41 -->
<g id="edge47" class="edge">
<title>Node40&#45;&gt;Node41</title>
<path fill="none" stroke="#63b8ff" d="M1045.01,-235.49C1176.16,-227 1685.3,-194.03 1831.53,-184.56"/>
<polygon fill="#63b8ff" stroke="#63b8ff" points="1832.06,-188.03 1841.81,-183.89 1831.6,-181.04 1832.06,-188.03"/>
</g>
<!-- Node44 -->
<g id="node44" class="node">
<title>Node44</title>
<g id="a_node44"><a xlink:href="a60-network-functions_8h.html" target="_top" xlink:title=" ">
<polygon fill="white" stroke="#666666" points="1379.5,-189.5 1262.5,-189.5 1262.5,-172.5 1379.5,-172.5 1379.5,-189.5"/>
<text text-anchor="middle" x="1321" y="-179.1" font-family="SourceSans" font-size="8.00">a60&#45;network&#45;functions.h</text>
</a>
</g>
</g>
<!-- Node40&#45;&gt;Node44 -->
<g id="edge55" class="edge">
<title>Node40&#45;&gt;Node44</title>
<path fill="none" stroke="#63b8ff" d="M1045.13,-231.87C1097.87,-222.34 1205.31,-202.92 1269.43,-191.32"/>
<polygon fill="#63b8ff" stroke="#63b8ff" points="1270.12,-194.75 1279.34,-189.53 1268.88,-187.87 1270.12,-194.75"/>
</g>
<!-- Node45 -->
<g id="node45" class="node">
<title>Node45</title>
<g id="a_node45"><a xlink:title=" ">
<polygon fill="#e0e0e0" stroke="#999999" points="1492.5,-189.5 1397.5,-189.5 1397.5,-172.5 1492.5,-172.5 1492.5,-189.5"/>
<text text-anchor="middle" x="1445" y="-179.1" font-family="SourceSans" font-size="8.00">libtorrent/entry.hpp</text>
</a>
</g>
</g>
<!-- Node40&#45;&gt;Node45 -->
<g id="edge56" class="edge">
<title>Node40&#45;&gt;Node45</title>
<path fill="none" stroke="#63b8ff" d="M1045.16,-234.85C1109.49,-229.16 1261.55,-214.62 1388,-194 1392.44,-193.28 1397.06,-192.44 1401.67,-191.55"/>
<polygon fill="#63b8ff" stroke="#63b8ff" points="1402.52,-194.95 1411.64,-189.56 1401.15,-188.09 1402.52,-194.95"/>
</g>
<!-- Node46 -->
<g id="node46" class="node">
<title>Node46</title>
<g id="a_node46"><a xlink:title=" ">
<polygon fill="#e0e0e0" stroke="#999999" points="1621,-189.5 1511,-189.5 1511,-172.5 1621,-172.5 1621,-189.5"/>
<text text-anchor="middle" x="1566" y="-179.1" font-family="SourceSans" font-size="8.00">libtorrent/bencode.hpp</text>
</a>
</g>
</g>
<!-- Node40&#45;&gt;Node46 -->
<g id="edge57" class="edge">
<title>Node40&#45;&gt;Node46</title>
<path fill="none" stroke="#63b8ff" d="M1045.16,-235.73C1122.56,-231.11 1329.64,-217.42 1501,-194 1506.75,-193.21 1512.77,-192.27 1518.73,-191.26"/>
<polygon fill="#63b8ff" stroke="#63b8ff" points="1519.39,-194.7 1528.63,-189.52 1518.18,-187.8 1519.39,-194.7"/>
</g>
<!-- Node47 -->
<g id="node47" class="node">
<title>Node47</title>
<g id="a_node47"><a xlink:title=" ">
<polygon fill="#e0e0e0" stroke="#999999" points="167.5,-189.5 66.5,-189.5 66.5,-172.5 167.5,-172.5 167.5,-189.5"/>
<text text-anchor="middle" x="117" y="-179.1" font-family="SourceSans" font-size="8.00">libtorrent/torrent.hpp</text>
</a>
</g>
</g>
<!-- Node40&#45;&gt;Node47 -->
<g id="edge58" class="edge">
<title>Node40&#45;&gt;Node47</title>
<path fill="none" stroke="#63b8ff" d="M982.73,-231.33C979.45,-230.82 976.16,-230.36 973,-230 620.68,-190.01 527.91,-237.47 176,-194 170.55,-193.33 164.86,-192.43 159.25,-191.42"/>
<polygon fill="#63b8ff" stroke="#63b8ff" points="159.79,-187.96 149.31,-189.51 158.47,-194.83 159.79,-187.96"/>
</g>
<!-- Node48 -->
<g id="node48" class="node">
<title>Node48</title>
<g id="a_node48"><a xlink:title=" ">
<polygon fill="#e0e0e0" stroke="#999999" points="268.5,-194 185.5,-194 185.5,-168 268.5,-168 268.5,-194"/>
<text text-anchor="start" x="193.5" y="-183.6" font-family="SourceSans" font-size="8.00">libtorrent/torrent</text>
<text text-anchor="middle" x="227" y="-174.6" font-family="SourceSans" font-size="8.00">_info.hpp</text>
</a>
</g>
</g>
<!-- Node40&#45;&gt;Node48 -->
<g id="edge59" class="edge">
<title>Node40&#45;&gt;Node48</title>
<path fill="none" stroke="#63b8ff" d="M982.72,-231.35C979.45,-230.83 976.16,-230.37 973,-230 668.65,-194.44 585.34,-237.39 278.7,-194.04"/>
<polygon fill="#63b8ff" stroke="#63b8ff" points="279.03,-190.55 268.63,-192.6 278.03,-197.48 279.03,-190.55"/>
</g>
<!-- Node49 -->
<g id="node49" class="node">
<title>Node49</title>
<g id="a_node49"><a xlink:title=" ">
<polygon fill="#e0e0e0" stroke="#999999" points="369.5,-194 286.5,-194 286.5,-168 369.5,-168 369.5,-194"/>
<text text-anchor="start" x="294.5" y="-183.6" font-family="SourceSans" font-size="8.00">libtorrent/torrent</text>
<text text-anchor="middle" x="328" y="-174.6" font-family="SourceSans" font-size="8.00">_status.hpp</text>
</a>
</g>
</g>
<!-- Node40&#45;&gt;Node49 -->
<g id="edge60" class="edge">
<title>Node40&#45;&gt;Node49</title>
<path fill="none" stroke="#63b8ff" d="M982.72,-231.38C979.45,-230.86 976.16,-230.38 973,-230 713.77,-198.55 642.48,-231.57 379.86,-193.9"/>
<polygon fill="#63b8ff" stroke="#63b8ff" points="380.04,-190.38 369.64,-192.41 379.03,-197.31 380.04,-190.38"/>
</g>
<!-- Node50 -->
<g id="node50" class="node">
<title>Node50</title>
<g id="a_node50"><a xlink:title=" ">
<polygon fill="#e0e0e0" stroke="#999999" points="500,-189.5 388,-189.5 388,-172.5 500,-172.5 500,-189.5"/>
<text text-anchor="middle" x="444" y="-179.1" font-family="SourceSans" font-size="8.00">libtorrent/peer_info.hpp</text>
</a>
</g>
</g>
<!-- Node40&#45;&gt;Node50 -->
<g id="edge61" class="edge">
<title>Node40&#45;&gt;Node50</title>
<path fill="none" stroke="#63b8ff" d="M982.71,-231.43C979.44,-230.9 976.16,-230.41 973,-230 767.88,-203.35 714.1,-220.81 509,-194 503.17,-193.24 497.07,-192.3 491.04,-191.29"/>
<polygon fill="#63b8ff" stroke="#63b8ff" points="491.47,-187.81 481.02,-189.53 490.26,-194.7 491.47,-187.81"/>
</g>
<!-- Node51 -->
<g id="node51" class="node">
<title>Node51</title>
<g id="a_node51"><a xlink:title=" ">
<polygon fill="#e0e0e0" stroke="#999999" points="616,-194 518,-194 518,-168 616,-168 616,-194"/>
<text text-anchor="start" x="526" y="-183.6" font-family="SourceSans" font-size="8.00">libtorrent/announce</text>
<text text-anchor="middle" x="567" y="-174.6" font-family="SourceSans" font-size="8.00">_entry.hpp</text>
</a>
</g>
</g>
<!-- Node40&#45;&gt;Node51 -->
<g id="edge62" class="edge">
<title>Node40&#45;&gt;Node51</title>
<path fill="none" stroke="#63b8ff" d="M982.7,-231.52C979.43,-230.97 976.15,-230.45 973,-230 822.38,-208.47 780.45,-217.38 626.6,-194.13"/>
<polygon fill="#63b8ff" stroke="#63b8ff" points="626.71,-190.61 616.3,-192.55 625.65,-197.53 626.71,-190.61"/>
</g>
<!-- Node52 -->
<g id="node52" class="node">
<title>Node52</title>
<g id="a_node52"><a xlink:title=" ">
<polygon fill="#e0e0e0" stroke="#999999" points="744,-189.5 634,-189.5 634,-172.5 744,-172.5 744,-189.5"/>
<text text-anchor="middle" x="689" y="-179.1" font-family="SourceSans" font-size="8.00">libtorrent/bdecode.hpp</text>
</a>
</g>
</g>
<!-- Node40&#45;&gt;Node52 -->
<g id="edge63" class="edge">
<title>Node40&#45;&gt;Node52</title>
<path fill="none" stroke="#63b8ff" d="M982.67,-231.71C979.41,-231.12 976.14,-230.54 973,-230 875.38,-213.09 850.59,-211.13 753,-194 748.24,-193.16 743.29,-192.27 738.33,-191.37"/>
<polygon fill="#63b8ff" stroke="#63b8ff" points="738.7,-187.88 728.24,-189.51 737.43,-194.76 738.7,-187.88"/>
</g>
<!-- Node53 -->
<g id="node53" class="node">
<title>Node53</title>
<g id="a_node53"><a xlink:title=" ">
<polygon fill="#e0e0e0" stroke="#999999" points="882,-189.5 762,-189.5 762,-172.5 882,-172.5 882,-189.5"/>
<text text-anchor="middle" x="822" y="-179.1" font-family="SourceSans" font-size="8.00">libtorrent/magnet_uri.hpp</text>
</a>
</g>
</g>
<!-- Node40&#45;&gt;Node53 -->
<g id="edge64" class="edge">
<title>Node40&#45;&gt;Node53</title>
<path fill="none" stroke="#63b8ff" d="M987.71,-229.9C954.1,-220.18 895.76,-203.32 858.03,-192.42"/>
<polygon fill="#63b8ff" stroke="#63b8ff" points="858.56,-188.92 847.98,-189.51 856.61,-195.65 858.56,-188.92"/>
</g>
<!-- Node54 -->
<g id="node54" class="node">
<title>Node54</title>
<g id="a_node54"><a xlink:title=" ">
<polygon fill="#e0e0e0" stroke="#999999" points="1006,-189.5 900,-189.5 900,-172.5 1006,-172.5 1006,-189.5"/>
<text text-anchor="middle" x="953" y="-179.1" font-family="SourceSans" font-size="8.00">libtorrent/session.hpp</text>
</a>
</g>
</g>
<!-- Node40&#45;&gt;Node54 -->
<g id="edge65" class="edge">
<title>Node40&#45;&gt;Node54</title>
<path fill="none" stroke="#63b8ff" d="M1005.52,-229.78C996.14,-221.25 980.82,-207.31 969.13,-196.68"/>
<polygon fill="#63b8ff" stroke="#63b8ff" points="971.16,-193.79 961.41,-189.65 966.45,-198.97 971.16,-193.79"/>
</g>
<!-- Node55 -->
<g id="node55" class="node">
<title>Node55</title>
<g id="a_node55"><a xlink:title=" ">
<polygon fill="#e0e0e0" stroke="#999999" points="1125.5,-194 1024.5,-194 1024.5,-168 1125.5,-168 1125.5,-194"/>
<text text-anchor="start" x="1032.5" y="-183.6" font-family="SourceSans" font-size="8.00">libtorrent/extensions</text>
<text text-anchor="middle" x="1075" y="-174.6" font-family="SourceSans" font-size="8.00">/ut_metadata.hpp</text>
</a>
</g>
</g>
<!-- Node40&#45;&gt;Node55 -->
<g id="edge66" class="edge">
<title>Node40&#45;&gt;Node55</title>
<path fill="none" stroke="#63b8ff" d="M1022.48,-229.78C1030.6,-222.4 1043.16,-210.97 1053.97,-201.14"/>
<polygon fill="#63b8ff" stroke="#63b8ff" points="1056.39,-203.66 1061.43,-194.34 1051.68,-198.48 1056.39,-203.66"/>
</g>
<!-- Node56 -->
<g id="node56" class="node">
<title>Node56</title>
<g id="a_node56"><a xlink:title=" ">
<polygon fill="#e0e0e0" stroke="#999999" points="1244.5,-194 1143.5,-194 1143.5,-168 1244.5,-168 1244.5,-194"/>
<text text-anchor="start" x="1151.5" y="-183.6" font-family="SourceSans" font-size="8.00">libtorrent/extensions</text>
<text text-anchor="middle" x="1194" y="-174.6" font-family="SourceSans" font-size="8.00">/ut_pex.hpp</text>
</a>
</g>
</g>
<!-- Node40&#45;&gt;Node56 -->
<g id="edge67" class="edge">
<title>Node40&#45;&gt;Node56</title>
<path fill="none" stroke="#63b8ff" d="M1038.65,-229.9C1065.9,-221.5 1110.51,-207.74 1144.94,-197.13"/>
<polygon fill="#63b8ff" stroke="#63b8ff" points="1146.29,-200.37 1154.82,-194.08 1144.23,-193.68 1146.29,-200.37"/>
</g>
<!-- Node41&#45;&gt;Node7 -->
<g id="edge48" class="edge">
<title>Node41&#45;&gt;Node7</title>
<path fill="none" stroke="#63b8ff" d="M1869.74,-172.31C1866.57,-150.12 1860.83,-85.45 1895,-53 1936.08,-14 2086.57,-26.84 2158.71,-16.78"/>
<polygon fill="#63b8ff" stroke="#63b8ff" points="2159.46,-20.2 2168.76,-15.12 2158.32,-13.29 2159.46,-20.2"/>
</g>
<!-- Node41&#45;&gt;Node8 -->
<g id="edge49" class="edge">
<title>Node41&#45;&gt;Node8</title>
<path fill="none" stroke="#63b8ff" d="M1873.37,-172.46C1881.36,-147.51 1907.99,-68.41 1929,-53 1979.29,-16.12 2141.52,-29.47 2219.42,-16.45"/>
<polygon fill="#63b8ff" stroke="#63b8ff" points="2220.23,-19.85 2229.39,-14.52 2218.91,-12.98 2220.23,-19.85"/>
</g>
<!-- Node41&#45;&gt;Node9 -->
<g id="edge50" class="edge">
<title>Node41&#45;&gt;Node9</title>
<path fill="none" stroke="#63b8ff" d="M1900.34,-174.86C1945.72,-166.75 2035.58,-150.04 2111,-132 2113.44,-131.42 2115.95,-130.79 2118.48,-130.14"/>
<polygon fill="#63b8ff" stroke="#63b8ff" points="2119.4,-133.51 2128.16,-127.55 2117.6,-126.75 2119.4,-133.51"/>
</g>
<!-- Node41&#45;&gt;Node10 -->
<g id="edge51" class="edge">
<title>Node41&#45;&gt;Node10</title>
<path fill="none" stroke="#63b8ff" d="M1899.22,-172.42C1956.02,-156.71 2087.64,-118.02 2192,-70 2223.96,-55.3 2259.41,-35.29 2281.45,-22.38"/>
<polygon fill="#63b8ff" stroke="#63b8ff" points="2283.47,-25.26 2290.3,-17.16 2279.91,-19.23 2283.47,-25.26"/>
</g>
<!-- Node41&#45;&gt;Node14 -->
<g id="edge52" class="edge">
<title>Node41&#45;&gt;Node14</title>
<path fill="none" stroke="#63b8ff" d="M1886.7,-172.4C1907.76,-162.21 1945.37,-144.01 1970.25,-131.97"/>
<polygon fill="#63b8ff" stroke="#63b8ff" points="1971.95,-135.04 1979.42,-127.54 1968.9,-128.74 1971.95,-135.04"/>
</g>
<!-- Node42 -->
<g id="node42" class="node">
<title>Node42</title>
<g id="a_node42"><a xlink:title=" ">
<polygon fill="#e0e0e0" stroke="#999999" points="1842.5,-127.5 1795.5,-127.5 1795.5,-110.5 1842.5,-110.5 1842.5,-127.5"/>
<text text-anchor="middle" x="1819" y="-117.1" font-family="SourceSans" font-size="8.00">GeoIP.h</text>
</a>
</g>
</g>
<!-- Node41&#45;&gt;Node42 -->
<g id="edge53" class="edge">
<title>Node41&#45;&gt;Node42</title>
<path fill="none" stroke="#63b8ff" d="M1864.2,-172.16C1856.14,-162.85 1842.51,-147.12 1832.32,-135.37"/>
<polygon fill="#63b8ff" stroke="#63b8ff" points="1834.83,-132.92 1825.64,-127.66 1829.54,-137.51 1834.83,-132.92"/>
</g>
<!-- Node43 -->
<g id="node43" class="node">
<title>Node43</title>
<g id="a_node43"><a xlink:title=" ">
<polygon fill="#e0e0e0" stroke="#999999" points="1777,-127.5 1715,-127.5 1715,-110.5 1777,-110.5 1777,-127.5"/>
<text text-anchor="middle" x="1746" y="-117.1" font-family="SourceSans" font-size="8.00">GeoIPCity.h</text>
</a>
</g>
</g>
<!-- Node41&#45;&gt;Node43 -->
<g id="edge54" class="edge">
<title>Node41&#45;&gt;Node43</title>
<path fill="none" stroke="#63b8ff" d="M1855.17,-172.4C1833.94,-162.21 1796.03,-144.01 1770.95,-131.97"/>
<polygon fill="#63b8ff" stroke="#63b8ff" points="1772.23,-128.71 1761.7,-127.54 1769.2,-135.02 1772.23,-128.71"/>
</g>
<!-- Node57&#45;&gt;Node14 -->
<g id="edge69" class="edge">
<title>Node57&#45;&gt;Node14</title>
<path fill="none" stroke="#63b8ff" d="M1995,-282.97C1995,-252.86 1995,-174.09 1995,-138.24"/>
<polygon fill="#63b8ff" stroke="#63b8ff" points="1998.5,-137.86 1995,-127.86 1991.5,-137.86 1998.5,-137.86"/>
</g>
<!-- Node58&#45;&gt;Node41 -->
<g id="edge71" class="edge">
<title>Node58&#45;&gt;Node41</title>
<path fill="none" stroke="#63b8ff" d="M1854.24,-287.23C1857.1,-269.24 1864.25,-224.36 1868.23,-199.42"/>
<polygon fill="#63b8ff" stroke="#63b8ff" points="1871.68,-199.95 1869.8,-189.52 1864.77,-198.85 1871.68,-199.95"/>
</g>
</g>
</svg>
