<?xml version="1.0" encoding="UTF-8" standalone="no"?>
<!DOCTYPE svg PUBLIC "-//W3C//DTD SVG 1.1//EN"
 "http://www.w3.org/Graphics/SVG/1.1/DTD/svg11.dtd">
<!-- Generated by graphviz version 5.0.0 (0)
 -->
<!-- Title: sanity_check_geoip_install Pages: 1 -->
<svg width="561pt" height="150pt"
 viewBox="0.00 0.00 561.00 149.50" xmlns="http://www.w3.org/2000/svg" xmlns:xlink="http://www.w3.org/1999/xlink">
<g id="graph0" class="graph" transform="scale(1 1) rotate(0) translate(4 145.5)">
<title>sanity_check_geoip_install</title>
<!-- Node1 -->
<g id="node1" class="node">
<title>Node1</title>
<g id="a_node1"><a xlink:title=" ">
<polygon fill="#999999" stroke="#666666" points="96,-76.5 0,-76.5 0,-50.5 96,-50.5 96,-76.5"/>
<text text-anchor="start" x="8" y="-66.1" font-family="SourceSans" font-size="8.00">sanity_check_geoip</text>
<text text-anchor="middle" x="48" y="-57.1" font-family="SourceSans" font-size="8.00">_install</text>
</a>
</g>
</g>
<!-- Node2 -->
<g id="node2" class="node">
<title>Node2</title>
<g id="a_node2"><a xlink:href="namespacea60.html#ad300edc3a7396b9f52a64f37e9443891" target="_top" xlink:title="No GeoIP.">
<polygon fill="white" stroke="#666666" points="388,-128 281,-128 281,-111 388,-111 388,-128"/>
<text text-anchor="middle" x="334.5" y="-117.6" font-family="SourceSans" font-size="8.00">a60::make_meta_peer</text>
</a>
</g>
</g>
<!-- Node1&#45;&gt;Node2 -->
<g id="edge1" class="edge">
<title>Node1&#45;&gt;Node2</title>
<path fill="none" stroke="#63b8ff" d="M72.93,-76.68C89.12,-84.95 111.25,-95.05 132,-100.5 177.49,-112.44 230.5,-117.09 270.72,-118.81"/>
<polygon fill="#63b8ff" stroke="#63b8ff" points="270.8,-122.31 280.92,-119.19 271.06,-115.32 270.8,-122.31"/>
</g>
<!-- Node3 -->
<g id="node3" class="node">
<title>Node3</title>
<g id="a_node3"><a xlink:href="structa60_1_1geo_1_1map__base.html#a9215731f10e2fa8488b0e081c2a5cef4" target="_top" xlink:title=" ">
<polygon fill="white" stroke="#666666" points="385.5,-57.5 283.5,-57.5 283.5,-31.5 385.5,-31.5 385.5,-57.5"/>
<text text-anchor="start" x="291.5" y="-47.1" font-family="SourceSans" font-size="8.00">a60::geo::map_base</text>
<text text-anchor="middle" x="334.5" y="-38.1" font-family="SourceSans" font-size="8.00">::open</text>
</a>
</g>
</g>
<!-- Node1&#45;&gt;Node3 -->
<g id="edge2" class="edge">
<title>Node1&#45;&gt;Node3</title>
<path fill="none" stroke="#63b8ff" d="M96.3,-60.34C144.74,-57.11 220.21,-52.07 272.98,-48.54"/>
<polygon fill="#63b8ff" stroke="#63b8ff" points="273.47,-52.02 283.21,-47.86 273,-45.03 273.47,-52.02"/>
</g>
<!-- Node5 -->
<g id="node5" class="node">
<title>Node5</title>
<g id="a_node5"><a xlink:href="a60-carto-geo_8cc.html#a8619d21f1977fdaf4e7658c790145b6c" target="_top" xlink:title=" ">
<polygon fill="white" stroke="#666666" points="229,-17 146,-17 146,0 229,0 229,-17"/>
<text text-anchor="middle" x="187.5" y="-6.6" font-family="SourceSans" font-size="8.00">print_meta_peer</text>
</a>
</g>
</g>
<!-- Node1&#45;&gt;Node5 -->
<g id="edge4" class="edge">
<title>Node1&#45;&gt;Node5</title>
<path fill="none" stroke="#63b8ff" d="M81.59,-50.47C103.9,-41.54 133.32,-29.77 155.32,-20.97"/>
<polygon fill="#63b8ff" stroke="#63b8ff" points="156.87,-24.12 164.86,-17.16 154.27,-17.62 156.87,-24.12"/>
</g>
<!-- Node6 -->
<g id="node6" class="node">
<title>Node6</title>
<g id="a_node6"><a xlink:href="namespacea60.html#a24d75332c6079b3a73c8c69498455c55" target="_top" xlink:title="Try again to get geoip information for peers that are returning (0,0).">
<polygon fill="white" stroke="#666666" points="243,-91 132,-91 132,-74 243,-74 243,-91"/>
<text text-anchor="middle" x="187.5" y="-80.6" font-family="SourceSans" font-size="8.00">a60::rescue_lost_peers</text>
</a>
</g>
</g>
<!-- Node1&#45;&gt;Node6 -->
<g id="edge5" class="edge">
<title>Node1&#45;&gt;Node6</title>
<path fill="none" stroke="#63b8ff" d="M96.32,-70.04C104.47,-71.17 113.07,-72.35 121.59,-73.53"/>
<polygon fill="#63b8ff" stroke="#63b8ff" points="121.14,-77 131.52,-74.9 122.1,-70.07 121.14,-77"/>
</g>
<!-- Node4 -->
<g id="node4" class="node">
<title>Node4</title>
<g id="a_node4"><a xlink:href="namespacea60_1_1io.html#aa5fbb8ab63397dd45c4a54c0758935ef" target="_top" xlink:title="Sanity check input existence.">
<polygon fill="white" stroke="#666666" points="541.5,-53.5 437.5,-53.5 437.5,-27.5 541.5,-27.5 541.5,-53.5"/>
<text text-anchor="start" x="445.5" y="-43.1" font-family="SourceSans" font-size="8.00">a60::io::sanity_check</text>
<text text-anchor="middle" x="489.5" y="-34.1" font-family="SourceSans" font-size="8.00">_input</text>
</a>
</g>
</g>
<!-- Node3&#45;&gt;Node4 -->
<g id="edge3" class="edge">
<title>Node3&#45;&gt;Node4</title>
<path fill="none" stroke="#63b8ff" d="M385.6,-43.19C398.79,-42.85 413.18,-42.47 426.91,-42.11"/>
<polygon fill="#63b8ff" stroke="#63b8ff" points="427.34,-45.6 437.24,-41.84 427.15,-38.6 427.34,-45.6"/>
</g>
<!-- Node6&#45;&gt;Node2 -->
<g id="edge9" class="edge">
<title>Node6&#45;&gt;Node2</title>
<path fill="none" stroke="#63b8ff" d="M222.13,-91.08C242.44,-96.27 268.54,-102.92 290.36,-108.49"/>
<polygon fill="#63b8ff" stroke="#63b8ff" points="289.5,-111.88 300.05,-110.96 291.23,-105.1 289.5,-111.88"/>
</g>
<!-- Node6&#45;&gt;Node3 -->
<g id="edge10" class="edge">
<title>Node6&#45;&gt;Node3</title>
<path fill="none" stroke="#63b8ff" d="M221.04,-73.97C236.61,-69.89 255.76,-64.87 273.81,-60.14"/>
<polygon fill="#63b8ff" stroke="#63b8ff" points="274.91,-63.47 283.69,-57.55 273.13,-56.7 274.91,-63.47"/>
</g>
<!-- Node7 -->
<g id="node7" class="node">
<title>Node7</title>
<g id="a_node7"><a xlink:href="namespacea60.html#ac39b0d667e2ffa7a1bf2df7cc4e5ac38" target="_top" xlink:title="IFF either of the above is true.">
<polygon fill="white" stroke="#666666" points="390,-93 279,-93 279,-76 390,-76 390,-93"/>
<text text-anchor="middle" x="334.5" y="-82.6" font-family="SourceSans" font-size="8.00">a60::is_meta_peer_lost</text>
</a>
</g>
</g>
<!-- Node6&#45;&gt;Node7 -->
<g id="edge6" class="edge">
<title>Node6&#45;&gt;Node7</title>
<path fill="none" stroke="#63b8ff" d="M243.32,-83.26C251.53,-83.37 260.06,-83.49 268.46,-83.6"/>
<polygon fill="#63b8ff" stroke="#63b8ff" points="268.56,-87.1 278.6,-83.74 268.65,-80.11 268.56,-87.1"/>
</g>
<!-- Node8 -->
<g id="node8" class="node">
<title>Node8</title>
<g id="a_node8"><a xlink:href="namespacea60.html#a63bf2b0abf68edc3f3e74a0811fe771b" target="_top" xlink:title="Error checking support. Null Island Check (aka latitude and longitude set to zero).">
<polygon fill="white" stroke="#666666" points="543,-97.5 436,-97.5 436,-71.5 543,-71.5 543,-97.5"/>
<text text-anchor="start" x="444" y="-87.1" font-family="SourceSans" font-size="8.00">a60::is_meta_peer_on</text>
<text text-anchor="middle" x="489.5" y="-78.1" font-family="SourceSans" font-size="8.00">_null_island</text>
</a>
</g>
</g>
<!-- Node7&#45;&gt;Node8 -->
<g id="edge7" class="edge">
<title>Node7&#45;&gt;Node8</title>
<path fill="none" stroke="#63b8ff" d="M390.3,-84.5C401.78,-84.5 413.96,-84.5 425.7,-84.5"/>
<polygon fill="#63b8ff" stroke="#63b8ff" points="425.87,-88 435.87,-84.5 425.87,-81 425.87,-88"/>
</g>
<!-- Node9 -->
<g id="node9" class="node">
<title>Node9</title>
<g id="a_node9"><a xlink:href="namespacea60.html#a0ff511c579a9f94ffff788b1cd4ae864" target="_top" xlink:title="Null Country Check.">
<polygon fill="white" stroke="#666666" points="553,-141.5 426,-141.5 426,-115.5 553,-115.5 553,-141.5"/>
<text text-anchor="start" x="434" y="-131.1" font-family="SourceSans" font-size="8.00">a60::is_meta_peer_without</text>
<text text-anchor="middle" x="489.5" y="-122.1" font-family="SourceSans" font-size="8.00">_country</text>
</a>
</g>
</g>
<!-- Node7&#45;&gt;Node9 -->
<g id="edge8" class="edge">
<title>Node7&#45;&gt;Node9</title>
<path fill="none" stroke="#63b8ff" d="M365.36,-93.09C384.69,-98.65 410.44,-106.05 433.4,-112.65"/>
<polygon fill="#63b8ff" stroke="#63b8ff" points="432.46,-116.03 443.04,-115.43 434.39,-109.3 432.46,-116.03"/>
</g>
</g>
</svg>
