<?xml version="1.0" encoding="UTF-8" standalone="no"?>
<!DOCTYPE svg PUBLIC "-//W3C//DTD SVG 1.1//EN"
 "http://www.w3.org/Graphics/SVG/1.1/DTD/svg11.dtd">
<!-- Generated by graphviz version 5.0.0 (0)
 -->
<!-- Title: /home/bkoz/src/alpha60/src/a60&#45;metadata.h Pages: 1 -->
<svg width="1155pt" height="140pt"
 viewBox="0.00 0.00 1155.00 140.00" xmlns="http://www.w3.org/2000/svg" xmlns:xlink="http://www.w3.org/1999/xlink">
<g id="graph0" class="graph" transform="scale(1 1) rotate(0) translate(4 136)">
<title>/home/bkoz/src/alpha60/src/a60&#45;metadata.h</title>
<!-- Node1 -->
<g id="node1" class="node">
<title>Node1</title>
<g id="a_node1"><a xlink:title=" ">
<polygon fill="#999999" stroke="#666666" points="586,-132 470,-132 470,-106 586,-106 586,-132"/>
<text text-anchor="start" x="478" y="-121.6" font-family="SourceSans" font-size="8.00">/home/bkoz/src/alpha60</text>
<text text-anchor="middle" x="528" y="-112.6" font-family="SourceSans" font-size="8.00">/src/a60&#45;metadata.h</text>
</a>
</g>
</g>
<!-- Node2 -->
<g id="node2" class="node">
<title>Node2</title>
<g id="a_node2"><a xlink:href="a60_8h.html" target="_top" xlink:title=" ">
<polygon fill="white" stroke="#666666" points="548,-70 508,-70 508,-53 548,-53 548,-70"/>
<text text-anchor="middle" x="528" y="-59.6" font-family="SourceSans" font-size="8.00">a60.h</text>
</a>
</g>
</g>
<!-- Node1&#45;&gt;Node2 -->
<g id="edge1" class="edge">
<title>Node1&#45;&gt;Node2</title>
<path fill="none" stroke="#63b8ff" d="M528,-105.96C528,-98.51 528,-88.8 528,-80.45"/>
<polygon fill="#63b8ff" stroke="#63b8ff" points="531.5,-80.25 528,-70.25 524.5,-80.25 531.5,-80.25"/>
</g>
<!-- Node3 -->
<g id="node3" class="node">
<title>Node3</title>
<g id="a_node3"><a xlink:title=" ">
<polygon fill="#e0e0e0" stroke="#999999" points="42,-17 0,-17 0,0 42,0 42,-17"/>
<text text-anchor="middle" x="21" y="-6.6" font-family="SourceSans" font-size="8.00">cmath</text>
</a>
</g>
</g>
<!-- Node2&#45;&gt;Node3 -->
<g id="edge2" class="edge">
<title>Node2&#45;&gt;Node3</title>
<path fill="none" stroke="#63b8ff" d="M507.86,-59.77C443.08,-57.21 234.19,-47.12 52.23,-16.92"/>
<polygon fill="#63b8ff" stroke="#63b8ff" points="52.66,-13.44 42.22,-15.23 51.5,-20.35 52.66,-13.44"/>
</g>
<!-- Node4 -->
<g id="node4" class="node">
<title>Node4</title>
<g id="a_node4"><a xlink:title=" ">
<polygon fill="#e0e0e0" stroke="#999999" points="98,-17 60,-17 60,0 98,0 98,-17"/>
<text text-anchor="middle" x="79" y="-6.6" font-family="SourceSans" font-size="8.00">tuple</text>
</a>
</g>
</g>
<!-- Node2&#45;&gt;Node4 -->
<g id="edge3" class="edge">
<title>Node2&#45;&gt;Node4</title>
<path fill="none" stroke="#63b8ff" d="M507.68,-59.55C447.86,-56.5 267.09,-45.57 108.14,-16.89"/>
<polygon fill="#63b8ff" stroke="#63b8ff" points="108.66,-13.43 98.19,-15.07 107.39,-20.32 108.66,-13.43"/>
</g>
<!-- Node5 -->
<g id="node5" class="node">
<title>Node5</title>
<g id="a_node5"><a xlink:title=" ">
<polygon fill="#e0e0e0" stroke="#999999" points="156,-17 116,-17 116,0 156,0 156,-17"/>
<text text-anchor="middle" x="136" y="-6.6" font-family="SourceSans" font-size="8.00">string</text>
</a>
</g>
</g>
<!-- Node2&#45;&gt;Node5 -->
<g id="edge4" class="edge">
<title>Node2&#45;&gt;Node5</title>
<path fill="none" stroke="#63b8ff" d="M507.79,-59.03C453.88,-54.92 302.09,-42.03 166.36,-17"/>
<polygon fill="#63b8ff" stroke="#63b8ff" points="166.68,-13.49 156.2,-15.09 165.39,-20.37 166.68,-13.49"/>
</g>
<!-- Node6 -->
<g id="node6" class="node">
<title>Node6</title>
<g id="a_node6"><a xlink:title=" ">
<polygon fill="#e0e0e0" stroke="#999999" points="216,-17 174,-17 174,0 216,0 216,-17"/>
<text text-anchor="middle" x="195" y="-6.6" font-family="SourceSans" font-size="8.00">vector</text>
</a>
</g>
</g>
<!-- Node2&#45;&gt;Node6 -->
<g id="edge5" class="edge">
<title>Node2&#45;&gt;Node6</title>
<path fill="none" stroke="#63b8ff" d="M507.67,-58.31C460.16,-53.04 338.04,-38.6 226.33,-17.07"/>
<polygon fill="#63b8ff" stroke="#63b8ff" points="226.73,-13.58 216.24,-15.1 225.39,-20.45 226.73,-13.58"/>
</g>
<!-- Node7 -->
<g id="node7" class="node">
<title>Node7</title>
<g id="a_node7"><a xlink:title=" ">
<polygon fill="#e0e0e0" stroke="#999999" points="263.5,-17 234.5,-17 234.5,0 263.5,0 263.5,-17"/>
<text text-anchor="middle" x="249" y="-6.6" font-family="SourceSans" font-size="8.00">set</text>
</a>
</g>
</g>
<!-- Node2&#45;&gt;Node7 -->
<g id="edge6" class="edge">
<title>Node2&#45;&gt;Node7</title>
<path fill="none" stroke="#63b8ff" d="M507.98,-58.01C466.2,-52.63 366.58,-38.78 273.49,-16.78"/>
<polygon fill="#63b8ff" stroke="#63b8ff" points="274.18,-13.35 263.64,-14.42 272.54,-20.15 274.18,-13.35"/>
</g>
<!-- Node8 -->
<g id="node8" class="node">
<title>Node8</title>
<g id="a_node8"><a xlink:title=" ">
<polygon fill="#e0e0e0" stroke="#999999" points="362,-17 282,-17 282,0 362,0 362,-17"/>
<text text-anchor="middle" x="322" y="-6.6" font-family="SourceSans" font-size="8.00">unordered_map</text>
</a>
</g>
</g>
<!-- Node2&#45;&gt;Node8 -->
<g id="edge7" class="edge">
<title>Node2&#45;&gt;Node8</title>
<path fill="none" stroke="#63b8ff" d="M507.87,-55.52C474.25,-47.19 406.03,-30.3 362.25,-19.47"/>
<polygon fill="#63b8ff" stroke="#63b8ff" points="363.04,-16.06 352.49,-17.05 361.36,-22.85 363.04,-16.06"/>
</g>
<!-- Node9 -->
<g id="node9" class="node">
<title>Node9</title>
<g id="a_node9"><a xlink:title=" ">
<polygon fill="#e0e0e0" stroke="#999999" points="455.5,-17 380.5,-17 380.5,0 455.5,0 455.5,-17"/>
<text text-anchor="middle" x="418" y="-6.6" font-family="SourceSans" font-size="8.00">unordered_set</text>
</a>
</g>
</g>
<!-- Node2&#45;&gt;Node9 -->
<g id="edge8" class="edge">
<title>Node2&#45;&gt;Node9</title>
<path fill="none" stroke="#63b8ff" d="M511.77,-52.97C493.82,-44.65 464.65,-31.13 443.61,-21.37"/>
<polygon fill="#63b8ff" stroke="#63b8ff" points="444.84,-18.09 434.3,-17.06 441.9,-24.44 444.84,-18.09"/>
</g>
<!-- Node10 -->
<g id="node10" class="node">
<title>Node10</title>
<g id="a_node10"><a xlink:title=" ">
<polygon fill="#e0e0e0" stroke="#999999" points="518,-17 474,-17 474,0 518,0 518,-17"/>
<text text-anchor="middle" x="496" y="-6.6" font-family="SourceSans" font-size="8.00">chrono</text>
</a>
</g>
</g>
<!-- Node2&#45;&gt;Node10 -->
<g id="edge9" class="edge">
<title>Node2&#45;&gt;Node10</title>
<path fill="none" stroke="#63b8ff" d="M523.28,-52.97C518.79,-45.82 511.89,-34.82 506.15,-25.67"/>
<polygon fill="#63b8ff" stroke="#63b8ff" points="509.02,-23.67 500.74,-17.06 503.09,-27.39 509.02,-23.67"/>
</g>
<!-- Node11 -->
<g id="node11" class="node">
<title>Node11</title>
<g id="a_node11"><a xlink:title=" ">
<polygon fill="#e0e0e0" stroke="#999999" points="586,-17 536,-17 536,0 586,0 586,-17"/>
<text text-anchor="middle" x="561" y="-6.6" font-family="SourceSans" font-size="8.00">numeric</text>
</a>
</g>
</g>
<!-- Node2&#45;&gt;Node11 -->
<g id="edge10" class="edge">
<title>Node2&#45;&gt;Node11</title>
<path fill="none" stroke="#63b8ff" d="M532.87,-52.97C537.5,-45.82 544.62,-34.82 550.53,-25.67"/>
<polygon fill="#63b8ff" stroke="#63b8ff" points="553.62,-27.35 556.11,-17.06 547.74,-23.55 553.62,-27.35"/>
</g>
<!-- Node12 -->
<g id="node12" class="node">
<title>Node12</title>
<g id="a_node12"><a xlink:title=" ">
<polygon fill="#e0e0e0" stroke="#999999" points="660,-17 604,-17 604,0 660,0 660,-17"/>
<text text-anchor="middle" x="632" y="-6.6" font-family="SourceSans" font-size="8.00">algorithm</text>
</a>
</g>
</g>
<!-- Node2&#45;&gt;Node12 -->
<g id="edge11" class="edge">
<title>Node2&#45;&gt;Node12</title>
<path fill="none" stroke="#63b8ff" d="M543.35,-52.97C560.24,-44.69 587.65,-31.25 607.52,-21.5"/>
<polygon fill="#63b8ff" stroke="#63b8ff" points="609.15,-24.6 616.59,-17.06 606.07,-18.32 609.15,-24.6"/>
</g>
<!-- Node13 -->
<g id="node13" class="node">
<title>Node13</title>
<g id="a_node13"><a xlink:title=" ">
<polygon fill="#e0e0e0" stroke="#999999" points="719.5,-17 678.5,-17 678.5,0 719.5,0 719.5,-17"/>
<text text-anchor="middle" x="699" y="-6.6" font-family="SourceSans" font-size="8.00">locale</text>
</a>
</g>
</g>
<!-- Node2&#45;&gt;Node13 -->
<g id="edge12" class="edge">
<title>Node2&#45;&gt;Node13</title>
<path fill="none" stroke="#63b8ff" d="M548.29,-54.45C578.16,-45.54 634.18,-28.83 668.87,-18.49"/>
<polygon fill="#63b8ff" stroke="#63b8ff" points="669.89,-21.83 678.47,-15.62 667.89,-15.13 669.89,-21.83"/>
</g>
<!-- Node14 -->
<g id="node14" class="node">
<title>Node14</title>
<g id="a_node14"><a xlink:title=" ">
<polygon fill="#e0e0e0" stroke="#999999" points="786.5,-17 737.5,-17 737.5,0 786.5,0 786.5,-17"/>
<text text-anchor="middle" x="762" y="-6.6" font-family="SourceSans" font-size="8.00">codecvt</text>
</a>
</g>
</g>
<!-- Node2&#45;&gt;Node14 -->
<g id="edge13" class="edge">
<title>Node2&#45;&gt;Node14</title>
<path fill="none" stroke="#63b8ff" d="M548.27,-56.19C582.92,-48.8 655.99,-33.14 727.43,-17.33"/>
<polygon fill="#63b8ff" stroke="#63b8ff" points="728.49,-20.68 737.5,-15.1 726.98,-13.85 728.49,-20.68"/>
</g>
<!-- Node15 -->
<g id="node15" class="node">
<title>Node15</title>
<g id="a_node15"><a xlink:title=" ">
<polygon fill="#e0e0e0" stroke="#999999" points="941.5,-17 804.5,-17 804.5,0 941.5,0 941.5,-17"/>
<text text-anchor="middle" x="873" y="-6.6" font-family="SourceSans" font-size="8.00">ext/codecvt_specializations.h</text>
</a>
</g>
</g>
<!-- Node2&#45;&gt;Node15 -->
<g id="edge14" class="edge">
<title>Node2&#45;&gt;Node15</title>
<path fill="none" stroke="#63b8ff" d="M548.04,-57.54C598.48,-50.08 732.32,-30.3 811.62,-18.57"/>
<polygon fill="#63b8ff" stroke="#63b8ff" points="812.57,-21.97 821.96,-17.05 811.55,-15.05 812.57,-21.97"/>
</g>
<!-- Node16 -->
<g id="node16" class="node">
<title>Node16</title>
<g id="a_node16"><a xlink:title=" ">
<polygon fill="#e0e0e0" stroke="#999999" points="1008.5,-17 959.5,-17 959.5,0 1008.5,0 1008.5,-17"/>
<text text-anchor="middle" x="984" y="-6.6" font-family="SourceSans" font-size="8.00">sstream</text>
</a>
</g>
</g>
<!-- Node2&#45;&gt;Node16 -->
<g id="edge15" class="edge">
<title>Node2&#45;&gt;Node16</title>
<path fill="none" stroke="#63b8ff" d="M548.37,-59.28C608.35,-55.52 789.65,-42.81 949.21,-17.11"/>
<polygon fill="#63b8ff" stroke="#63b8ff" points="949.89,-20.54 959.2,-15.48 948.76,-13.63 949.89,-20.54"/>
</g>
<!-- Node17 -->
<g id="node17" class="node">
<title>Node17</title>
<g id="a_node17"><a xlink:title=" ">
<polygon fill="#e0e0e0" stroke="#999999" points="1077,-17 1027,-17 1027,0 1077,0 1077,-17"/>
<text text-anchor="middle" x="1052" y="-6.6" font-family="SourceSans" font-size="8.00">iomanip</text>
</a>
</g>
</g>
<!-- Node2&#45;&gt;Node17 -->
<g id="edge16" class="edge">
<title>Node2&#45;&gt;Node17</title>
<path fill="none" stroke="#63b8ff" d="M548.18,-59.64C614.11,-56.64 829.2,-45.3 1016.78,-16.97"/>
<polygon fill="#63b8ff" stroke="#63b8ff" points="1017.46,-20.41 1026.82,-15.43 1016.4,-13.49 1017.46,-20.41"/>
</g>
<!-- Node18 -->
<g id="node18" class="node">
<title>Node18</title>
<g id="a_node18"><a xlink:title=" ">
<polygon fill="#e0e0e0" stroke="#999999" points="1147,-17 1095,-17 1095,0 1147,0 1147,-17"/>
<text text-anchor="middle" x="1121" y="-6.6" font-family="SourceSans" font-size="8.00">iostream</text>
</a>
</g>
</g>
<!-- Node2&#45;&gt;Node18 -->
<g id="edge17" class="edge">
<title>Node2&#45;&gt;Node18</title>
<path fill="none" stroke="#63b8ff" d="M548.13,-59.9C619.8,-57.56 869.38,-47.69 1084.79,-16.96"/>
<polygon fill="#63b8ff" stroke="#63b8ff" points="1085.3,-20.42 1094.69,-15.53 1084.3,-13.5 1085.3,-20.42"/>
</g>
</g>
</svg>
