<?xml version="1.0" encoding="UTF-8" standalone="no"?>
<!DOCTYPE svg PUBLIC "-//W3C//DTD SVG 1.1//EN"
 "http://www.w3.org/Graphics/SVG/1.1/DTD/svg11.dtd">
<!-- Generated by graphviz version 5.0.0 (0)
 -->
<!-- Title: /home/bkoz/src/alpha60/src/a60&#45;thread&#45;pool.harden.h Pages: 1 -->
<svg width="428pt" height="87pt"
 viewBox="0.00 0.00 427.50 87.00" xmlns="http://www.w3.org/2000/svg" xmlns:xlink="http://www.w3.org/1999/xlink">
<g id="graph0" class="graph" transform="scale(1 1) rotate(0) translate(4 83)">
<title>/home/bkoz/src/alpha60/src/a60&#45;thread&#45;pool.harden.h</title>
<!-- Node1 -->
<g id="node1" class="node">
<title>Node1</title>
<g id="a_node1"><a xlink:title=" ">
<polygon fill="#999999" stroke="#666666" points="249,-79 109,-79 109,-53 249,-53 249,-79"/>
<text text-anchor="start" x="117" y="-68.6" font-family="SourceSans" font-size="8.00">/home/bkoz/src/alpha60</text>
<text text-anchor="middle" x="179" y="-59.6" font-family="SourceSans" font-size="8.00">/src/a60&#45;thread&#45;pool.harden.h</text>
</a>
</g>
</g>
<!-- Node2 -->
<g id="node2" class="node">
<title>Node2</title>
<g id="a_node2"><a xlink:title=" ">
<polygon fill="#e0e0e0" stroke="#999999" points="58,-17 0,-17 0,0 58,0 58,-17"/>
<text text-anchor="middle" x="29" y="-6.6" font-family="SourceSans" font-size="8.00">functional</text>
</a>
</g>
</g>
<!-- Node1&#45;&gt;Node2 -->
<g id="edge1" class="edge">
<title>Node1&#45;&gt;Node2</title>
<path fill="none" stroke="#63b8ff" d="M146.45,-52.96C120.44,-43.33 84.26,-29.95 58.95,-20.58"/>
<polygon fill="#63b8ff" stroke="#63b8ff" points="60.09,-17.27 49.5,-17.09 57.66,-23.84 60.09,-17.27"/>
</g>
<!-- Node3 -->
<g id="node3" class="node">
<title>Node3</title>
<g id="a_node3"><a xlink:title=" ">
<polygon fill="#e0e0e0" stroke="#999999" points="117.5,-17 76.5,-17 76.5,0 117.5,0 117.5,-17"/>
<text text-anchor="middle" x="97" y="-6.6" font-family="SourceSans" font-size="8.00">future</text>
</a>
</g>
</g>
<!-- Node1&#45;&gt;Node3 -->
<g id="edge2" class="edge">
<title>Node1&#45;&gt;Node3</title>
<path fill="none" stroke="#63b8ff" d="M161.21,-52.96C148.19,-44.15 130.53,-32.2 117.03,-23.05"/>
<polygon fill="#63b8ff" stroke="#63b8ff" points="118.69,-19.95 108.45,-17.25 114.77,-25.75 118.69,-19.95"/>
</g>
<!-- Node4 -->
<g id="node4" class="node">
<title>Node4</title>
<g id="a_node4"><a xlink:title=" ">
<polygon fill="#e0e0e0" stroke="#999999" points="164.5,-17 135.5,-17 135.5,0 164.5,0 164.5,-17"/>
<text text-anchor="middle" x="150" y="-6.6" font-family="SourceSans" font-size="8.00">list</text>
</a>
</g>
</g>
<!-- Node1&#45;&gt;Node4 -->
<g id="edge3" class="edge">
<title>Node1&#45;&gt;Node4</title>
<path fill="none" stroke="#63b8ff" d="M172.71,-52.96C168.64,-45.17 163.28,-34.91 158.79,-26.32"/>
<polygon fill="#63b8ff" stroke="#63b8ff" points="161.78,-24.49 154.05,-17.25 155.58,-27.73 161.78,-24.49"/>
</g>
<!-- Node5 -->
<g id="node5" class="node">
<title>Node5</title>
<g id="a_node5"><a xlink:title=" ">
<polygon fill="#e0e0e0" stroke="#999999" points="233,-17 183,-17 183,0 233,0 233,-17"/>
<text text-anchor="middle" x="208" y="-6.6" font-family="SourceSans" font-size="8.00">memory</text>
</a>
</g>
</g>
<!-- Node1&#45;&gt;Node5 -->
<g id="edge4" class="edge">
<title>Node1&#45;&gt;Node5</title>
<path fill="none" stroke="#63b8ff" d="M185.29,-52.96C189.36,-45.17 194.72,-34.91 199.21,-26.32"/>
<polygon fill="#63b8ff" stroke="#63b8ff" points="202.42,-27.73 203.95,-17.25 196.22,-24.49 202.42,-27.73"/>
</g>
<!-- Node6 -->
<g id="node6" class="node">
<title>Node6</title>
<g id="a_node6"><a xlink:title=" ">
<polygon fill="#e0e0e0" stroke="#999999" points="294.5,-17 251.5,-17 251.5,0 294.5,0 294.5,-17"/>
<text text-anchor="middle" x="273" y="-6.6" font-family="SourceSans" font-size="8.00">queue</text>
</a>
</g>
</g>
<!-- Node1&#45;&gt;Node6 -->
<g id="edge5" class="edge">
<title>Node1&#45;&gt;Node6</title>
<path fill="none" stroke="#63b8ff" d="M199.4,-52.96C214.69,-43.93 235.59,-31.59 251.21,-22.37"/>
<polygon fill="#63b8ff" stroke="#63b8ff" points="253.32,-25.18 260.15,-17.09 249.76,-19.16 253.32,-25.18"/>
</g>
<!-- Node7 -->
<g id="node7" class="node">
<title>Node7</title>
<g id="a_node7"><a xlink:title=" ">
<polygon fill="#e0e0e0" stroke="#999999" points="419.5,-17 312.5,-17 312.5,0 419.5,0 419.5,-17"/>
<text text-anchor="middle" x="366" y="-6.6" font-family="SourceSans" font-size="8.00">experimental/optional</text>
</a>
</g>
</g>
<!-- Node1&#45;&gt;Node7 -->
<g id="edge6" class="edge">
<title>Node1&#45;&gt;Node7</title>
<path fill="none" stroke="#63b8ff" d="M219.58,-52.96C252.82,-43.09 299.38,-29.27 331.01,-19.89"/>
<polygon fill="#63b8ff" stroke="#63b8ff" points="332.12,-23.21 340.72,-17 330.13,-16.49 332.12,-23.21"/>
</g>
</g>
</svg>
