<?xml version="1.0" encoding="UTF-8" standalone="no"?>
<!DOCTYPE svg PUBLIC "-//W3C//DTD SVG 1.1//EN"
 "http://www.w3.org/Graphics/SVG/1.1/DTD/svg11.dtd">
<!-- Generated by graphviz version 5.0.0 (0)
 -->
<!-- Title: strip_match_from_filename_then_nest_in_subdir Pages: 1 -->
<svg width="279pt" height="105pt"
 viewBox="0.00 0.00 279.00 104.50" xmlns="http://www.w3.org/2000/svg" xmlns:xlink="http://www.w3.org/1999/xlink">
<g id="graph0" class="graph" transform="scale(1 1) rotate(0) translate(4 100.5)">
<title>strip_match_from_filename_then_nest_in_subdir</title>
<!-- Node1 -->
<g id="node1" class="node">
<title>Node1</title>
<g id="a_node1"><a xlink:title=" ">
<polygon fill="#999999" stroke="#666666" points="125,-66 0,-66 0,-40 125,-40 125,-66"/>
<text text-anchor="start" x="8" y="-55.6" font-family="SourceSans" font-size="8.00">strip_match_from_filename</text>
<text text-anchor="middle" x="62.5" y="-46.6" font-family="SourceSans" font-size="8.00">_then_nest_in_subdir</text>
</a>
</g>
</g>
<!-- Node2 -->
<g id="node2" class="node">
<title>Node2</title>
<g id="a_node2"><a xlink:href="namespacea60_1_1io.html#a16f17ea9e02c1975ca17b77e46cf7629" target="_top" xlink:title="Make sure a path ends in &#39;/&#39;;.">
<polygon fill="white" stroke="#666666" points="261,-96.5 171,-96.5 171,-79.5 261,-79.5 261,-96.5"/>
<text text-anchor="middle" x="216" y="-86.1" font-family="SourceSans" font-size="8.00">a60::io::end_path</text>
</a>
</g>
</g>
<!-- Node1&#45;&gt;Node2 -->
<g id="edge1" class="edge">
<title>Node1&#45;&gt;Node2</title>
<path fill="none" stroke="#63b8ff" d="M119.91,-66.03C135.63,-69.66 152.55,-73.57 167.69,-77.07"/>
<polygon fill="#63b8ff" stroke="#63b8ff" points="167.32,-80.58 177.85,-79.42 168.89,-73.76 167.32,-80.58"/>
</g>
<!-- Node3 -->
<g id="node3" class="node">
<title>Node3</title>
<g id="a_node3"><a xlink:href="namespacea60_1_1io.html#aea30b8fc474f5a7b922516dc1e199037" target="_top" xlink:title="Takes a string representing a directory, returns a sorted list of contents as a std::vector&lt;string&gt;.">
<polygon fill="white" stroke="#666666" points="271,-61.5 161,-61.5 161,-44.5 271,-44.5 271,-61.5"/>
<text text-anchor="middle" x="216" y="-51.1" font-family="SourceSans" font-size="8.00">a60::io::populate_files</text>
</a>
</g>
</g>
<!-- Node1&#45;&gt;Node3 -->
<g id="edge2" class="edge">
<title>Node1&#45;&gt;Node3</title>
<path fill="none" stroke="#63b8ff" d="M125.12,-53C133.51,-53 142.13,-53 150.57,-53"/>
<polygon fill="#63b8ff" stroke="#63b8ff" points="150.73,-56.5 160.73,-53 150.73,-49.5 150.73,-56.5"/>
</g>
<!-- Node4 -->
<g id="node4" class="node">
<title>Node4</title>
<g id="a_node4"><a xlink:href="namespacea60_1_1io.html#ad8339b50abcf6975587ba229c04066e7" target="_top" xlink:title="Check directory exists, else make it.">
<polygon fill="white" stroke="#666666" points="268,-26 164,-26 164,0 268,0 268,-26"/>
<text text-anchor="start" x="172" y="-15.6" font-family="SourceSans" font-size="8.00">a60::io::sanity_check</text>
<text text-anchor="middle" x="216" y="-6.6" font-family="SourceSans" font-size="8.00">_output_directory</text>
</a>
</g>
</g>
<!-- Node1&#45;&gt;Node4 -->
<g id="edge3" class="edge">
<title>Node1&#45;&gt;Node4</title>
<path fill="none" stroke="#63b8ff" d="M113.11,-39.9C126.65,-36.33 141.46,-32.42 155.49,-28.71"/>
<polygon fill="#63b8ff" stroke="#63b8ff" points="156.77,-32 165.54,-26.06 154.98,-25.23 156.77,-32"/>
</g>
</g>
</svg>
