<?xml version="1.0" encoding="UTF-8" standalone="no"?>
<!DOCTYPE svg PUBLIC "-//W3C//DTD SVG 1.1//EN"
 "http://www.w3.org/Graphics/SVG/1.1/DTD/svg11.dtd">
<!-- Generated by graphviz version 5.0.0 (0)
 -->
<!-- Title: unify_torrent_name_to_filename Pages: 1 -->
<!--zoomable 310 -->
<svg id="main" version="1.1" xmlns="http://www.w3.org/2000/svg" xmlns:xlink="http://www.w3.org/1999/xlink" xml:space="preserve" onload="init(evt)">
<style type="text/css"><![CDATA[
.edge:hover path { stroke: red; }
.edge:hover polygon { stroke: red; fill: red; }
]]></style>
<script type="text/javascript"><![CDATA[
var edges = document.getElementsByTagName('g');
if (edges && edges.length) {
  for (var i=0;i<edges.length;i++) {
    if (edges[i].id.substr(0,4)=='edge') {
      edges[i].setAttribute('class','edge');
    }
  }
}
]]></script>
        <defs>
                <circle id="rim" cx="0" cy="0" r="7"/>
                <circle id="rim2" cx="0" cy="0" r="3.5"/>
                <g id="zoomPlus">
                        <use xlink:href="#rim" fill="#404040">
                                <set attributeName="fill" to="#808080" begin="zoomplus.mouseover" end="zoomplus.mouseout"/>
                        </use>
                        <path d="M-4,0h8M0,-4v8" fill="none" stroke="white" stroke-width="1.5" pointer-events="none"/>
                </g>
                <g id="zoomMin">
                        <use xlink:href="#rim" fill="#404040">
                                <set attributeName="fill" to="#808080" begin="zoomminus.mouseover" end="zoomminus.mouseout"/>
                        </use>
                        <path d="M-4,0h8" fill="none" stroke="white" stroke-width="1.5" pointer-events="none"/>
                </g>
                <g id="dirArrow">
                        <path fill="none" stroke="white" stroke-width="1.5" d="M0,-3.0v7 M-2.5,-0.5L0,-3.0L2.5,-0.5"/>
                </g>
               <g id="resetDef">
                       <use xlink:href="#rim2" fill="#404040">
                               <set attributeName="fill" to="#808080" begin="reset.mouseover" end="reset.mouseout"/>
                       </use>
               </g>
        </defs>

<script type="text/javascript">
var viewWidth = 1020;
var viewHeight = 310;
var sectionId = 'dynsection-6';
</script>
<script xlink:href="svgpan.js"/>
<svg id="graph" class="graph">
<g id="viewport">
<title>unify_torrent_name_to_filename</title>
<!-- Node1 -->
<g id="node1" class="node">
<title>Node1</title>
<g id="a_node1"><a xlink:title=" ">
<polygon fill="#999999" stroke="#666666" points="95,-233 0,-233 0,-207 95,-207 95,-233"/>
<text text-anchor="start" x="8" y="-222.6" font-family="SourceSans" font-size="8.00">unify_torrent_name</text>
<text text-anchor="middle" x="47.5" y="-213.6" font-family="SourceSans" font-size="8.00">_to_filename</text>
</a>
</g>
</g>
<!-- Node2 -->
<g id="node2" class="node">
<title>Node2</title>
<g id="a_node2"><a xlink:href="namespacea60.html#a740f542e9c11ec756f6c012830592c73" target="_top" xlink:title="Make session for torrent, but don&#39;t update.">
<polygon fill="white" stroke="#666666" points="245,-253 131,-253 131,-227 245,-227 245,-253"/>
<text text-anchor="start" x="139" y="-242.6" font-family="SourceSans" font-size="8.00">a60::make_null_session</text>
<text text-anchor="middle" x="188" y="-233.6" font-family="SourceSans" font-size="8.00">_for_torrent</text>
</a>
</g>
</g>
<!-- Node1&#45;&gt;Node2 -->
<g id="edge1" class="edge">
<title>Node1&#45;&gt;Node2</title>
<path fill="none" stroke="#63b8ff" d="M95,-226.72C103.25,-227.91 111.98,-229.17 120.65,-230.42"/>
<polygon fill="#63b8ff" stroke="#63b8ff" points="120.37,-233.91 130.77,-231.88 121.37,-226.99 120.37,-233.91"/>
</g>
<!-- Node23 -->
<g id="node23" class="node">
<title>Node23</title>
<g id="a_node23"><a xlink:href="namespacea60_1_1io.html#aea30b8fc474f5a7b922516dc1e199037" target="_top" xlink:title="Takes a string representing a directory, returns a sorted list of contents as a std::vector&lt;string&gt;.">
<polygon fill="white" stroke="#666666" points="243,-208.5 133,-208.5 133,-191.5 243,-191.5 243,-208.5"/>
<text text-anchor="middle" x="188" y="-198.1" font-family="SourceSans" font-size="8.00">a60::io::populate_files</text>
</a>
</g>
</g>
<!-- Node1&#45;&gt;Node23 -->
<g id="edge28" class="edge">
<title>Node1&#45;&gt;Node23</title>
<path fill="none" stroke="#63b8ff" d="M95,-213.28C103.89,-212 113.34,-210.64 122.67,-209.29"/>
<polygon fill="#63b8ff" stroke="#63b8ff" points="123.32,-212.73 132.72,-207.84 122.32,-205.8 123.32,-212.73"/>
</g>
<!-- Node3 -->
<g id="node3" class="node">
<title>Node3</title>
<g id="a_node3"><a xlink:href="namespacea60.html#a732ca2d85679838beb92881e9f39a999" target="_top" xlink:title="Engage bittorrent, create session.">
<polygon fill="white" stroke="#666666" points="401,-301.5 289,-301.5 289,-284.5 401,-284.5 401,-301.5"/>
<text text-anchor="middle" x="345" y="-291.1" font-family="SourceSans" font-size="8.00">a60::configure_session</text>
</a>
</g>
</g>
<!-- Node2&#45;&gt;Node3 -->
<g id="edge2" class="edge">
<title>Node2&#45;&gt;Node3</title>
<path fill="none" stroke="#63b8ff" d="M219.78,-253.02C237.51,-260.27 260.31,-269.18 281,-276 287.07,-278 293.53,-279.95 299.91,-281.76"/>
<polygon fill="#63b8ff" stroke="#63b8ff" points="299.22,-285.2 309.79,-284.5 301.09,-278.46 299.22,-285.2"/>
</g>
<!-- Node4 -->
<g id="node4" class="node">
<title>Node4</title>
<g id="a_node4"><a xlink:href="namespacea60.html#afe8d89ca4ef974726fd66dbda364cbf1" target="_top" xlink:title="Given session and magnet file, make session.">
<polygon fill="white" stroke="#666666" points="409,-266.5 281,-266.5 281,-249.5 409,-249.5 409,-266.5"/>
<text text-anchor="middle" x="345" y="-256.1" font-family="SourceSans" font-size="8.00">a60::make_magnet_handle</text>
</a>
</g>
</g>
<!-- Node2&#45;&gt;Node4 -->
<g id="edge3" class="edge">
<title>Node2&#45;&gt;Node4</title>
<path fill="none" stroke="#63b8ff" d="M245.4,-246.55C253.67,-247.51 262.29,-248.51 270.84,-249.5"/>
<polygon fill="#63b8ff" stroke="#63b8ff" points="270.49,-252.99 280.83,-250.66 271.3,-246.03 270.49,-252.99"/>
</g>
<!-- Node8 -->
<g id="node8" class="node">
<title>Node8</title>
<g id="a_node8"><a xlink:href="namespacea60.html#a1ae4660be19d8586055437f379fa4985" target="_top" xlink:title="Configure torrent session.">
<polygon fill="white" stroke="#666666" points="405,-231.5 285,-231.5 285,-214.5 405,-214.5 405,-231.5"/>
<text text-anchor="middle" x="345" y="-221.1" font-family="SourceSans" font-size="8.00">a60::make_settings_pack</text>
</a>
</g>
</g>
<!-- Node2&#45;&gt;Node8 -->
<g id="edge8" class="edge">
<title>Node2&#45;&gt;Node8</title>
<path fill="none" stroke="#63b8ff" d="M245.4,-233.81C254.91,-232.77 264.87,-231.68 274.66,-230.6"/>
<polygon fill="#63b8ff" stroke="#63b8ff" points="275.22,-234.07 284.78,-229.5 274.45,-227.11 275.22,-234.07"/>
</g>
<!-- Node9 -->
<g id="node9" class="node">
<title>Node9</title>
<g id="a_node9"><a xlink:href="namespacea60.html#a0024ebebf4beab70240ed62e88733a5e" target="_top" xlink:title="Given session and torrent file, add torrent to session.">
<polygon fill="white" stroke="#666666" points="406.5,-196.5 283.5,-196.5 283.5,-179.5 406.5,-179.5 406.5,-196.5"/>
<text text-anchor="middle" x="345" y="-186.1" font-family="SourceSans" font-size="8.00">a60::make_torrent_handle</text>
</a>
</g>
</g>
<!-- Node2&#45;&gt;Node9 -->
<g id="edge9" class="edge">
<title>Node2&#45;&gt;Node9</title>
<path fill="none" stroke="#63b8ff" d="M221.08,-226.89C238.63,-219.95 260.84,-211.54 281,-205 287.08,-203.03 293.54,-201.1 299.92,-199.29"/>
<polygon fill="#63b8ff" stroke="#63b8ff" points="301.11,-202.59 309.81,-196.56 299.24,-195.85 301.11,-202.59"/>
</g>
<!-- Node5 -->
<g id="node5" class="node">
<title>Node5</title>
<g id="a_node5"><a xlink:href="namespacea60_1_1io.html#a89f2bd581ec510ccc0a8cfedccff7bd0" target="_top" xlink:title="Top level of directory for output files.">
<polygon fill="white" stroke="#666666" points="552,-271 456,-271 456,-245 552,-245 552,-271"/>
<text text-anchor="start" x="464" y="-260.6" font-family="SourceSans" font-size="8.00">a60::io::get_output</text>
<text text-anchor="middle" x="504" y="-251.6" font-family="SourceSans" font-size="8.00">_directory</text>
</a>
</g>
</g>
<!-- Node4&#45;&gt;Node5 -->
<g id="edge4" class="edge">
<title>Node4&#45;&gt;Node5</title>
<path fill="none" stroke="#63b8ff" d="M409.41,-258C421.39,-258 433.85,-258 445.63,-258"/>
<polygon fill="#63b8ff" stroke="#63b8ff" points="445.78,-261.5 455.78,-258 445.78,-254.5 445.78,-261.5"/>
</g>
<!-- Node6 -->
<g id="node6" class="node">
<title>Node6</title>
<g id="a_node6"><a xlink:href="namespacea60_1_1io.html#a16f17ea9e02c1975ca17b77e46cf7629" target="_top" xlink:title="Make sure a path ends in &#39;/&#39;;.">
<polygon fill="white" stroke="#666666" points="844.5,-287.5 754.5,-287.5 754.5,-270.5 844.5,-270.5 844.5,-287.5"/>
<text text-anchor="middle" x="799.5" y="-277.1" font-family="SourceSans" font-size="8.00">a60::io::end_path</text>
</a>
</g>
</g>
<!-- Node5&#45;&gt;Node6 -->
<g id="edge5" class="edge">
<title>Node5&#45;&gt;Node6</title>
<path fill="none" stroke="#63b8ff" d="M551.48,-271.11C566.52,-274.75 583.35,-278.19 599,-280 647.9,-285.65 704,-284.71 744.22,-282.77"/>
<polygon fill="#63b8ff" stroke="#63b8ff" points="744.55,-286.26 754.35,-282.24 744.19,-279.27 744.55,-286.26"/>
</g>
<!-- Node7 -->
<g id="node7" class="node">
<title>Node7</title>
<g id="a_node7"><a xlink:href="namespacea60_1_1io.html#a6ad052ef18cfb1a1ac708f7c69c9050d" target="_top" xlink:title="Assumes argument is full path, no error checking...">
<polygon fill="white" stroke="#666666" points="699,-271 603,-271 603,-245 699,-245 699,-271"/>
<text text-anchor="start" x="611" y="-260.6" font-family="SourceSans" font-size="8.00">a60::io::get_output</text>
<text text-anchor="middle" x="651" y="-251.6" font-family="SourceSans" font-size="8.00">_prefix</text>
</a>
</g>
</g>
<!-- Node5&#45;&gt;Node7 -->
<g id="edge6" class="edge">
<title>Node5&#45;&gt;Node7</title>
<path fill="none" stroke="#63b8ff" d="M552.08,-258C564.99,-258 579.14,-258 592.57,-258"/>
<polygon fill="#63b8ff" stroke="#63b8ff" points="592.66,-261.5 602.66,-258 592.66,-254.5 592.66,-261.5"/>
</g>
<!-- Node7&#45;&gt;Node6 -->
<g id="edge7" class="edge">
<title>Node7&#45;&gt;Node6</title>
<path fill="none" stroke="#63b8ff" d="M699.16,-264.76C713.57,-266.83 729.52,-269.11 744.36,-271.24"/>
<polygon fill="#63b8ff" stroke="#63b8ff" points="744.02,-274.73 754.41,-272.68 745.01,-267.8 744.02,-274.73"/>
</g>
<!-- Node9&#45;&gt;Node5 -->
<g id="edge27" class="edge">
<title>Node9&#45;&gt;Node5</title>
<path fill="none" stroke="#63b8ff" d="M383.82,-196.56C392.24,-198.92 401.03,-201.74 409,-205 431.89,-214.37 456.16,-228.16 474.31,-239.33"/>
<polygon fill="#63b8ff" stroke="#63b8ff" points="472.87,-242.56 483.2,-244.9 476.58,-236.63 472.87,-242.56"/>
</g>
<!-- Node10 -->
<g id="node10" class="node">
<title>Node10</title>
<g id="a_node10"><a xlink:href="namespacea60.html#a36ea22d12ecf44568213ff453ad1da2c" target="_top" xlink:title="Print info about torrent_info.">
<polygon fill="white" stroke="#666666" points="563,-182.5 445,-182.5 445,-165.5 563,-165.5 563,-182.5"/>
<text text-anchor="middle" x="504" y="-172.1" font-family="SourceSans" font-size="8.00">a60::display_torrent_info</text>
</a>
</g>
</g>
<!-- Node9&#45;&gt;Node10 -->
<g id="edge10" class="edge">
<title>Node9&#45;&gt;Node10</title>
<path fill="none" stroke="#63b8ff" d="M406.7,-182.59C415.89,-181.77 425.42,-180.92 434.76,-180.09"/>
<polygon fill="#63b8ff" stroke="#63b8ff" points="435.13,-183.57 444.78,-179.19 434.51,-176.59 435.13,-183.57"/>
</g>
<!-- Node11 -->
<g id="node11" class="node">
<title>Node11</title>
<g id="a_node11"><a xlink:href="namespacea60_1_1geo.html#a2ec44da723ee6128696872f94d989c7f" target="_top" xlink:title="Address to IP/Geo.">
<polygon fill="white" stroke="#666666" points="701.5,-124 600.5,-124 600.5,-98 701.5,-98 701.5,-124"/>
<text text-anchor="start" x="608.5" y="-113.6" font-family="SourceSans" font-size="8.00">a60::geo::display_ip</text>
<text text-anchor="middle" x="651" y="-104.6" font-family="SourceSans" font-size="8.00">_and_geo_info</text>
</a>
</g>
</g>
<!-- Node10&#45;&gt;Node11 -->
<g id="edge11" class="edge">
<title>Node10&#45;&gt;Node11</title>
<path fill="none" stroke="#63b8ff" d="M524.86,-165.37C546.85,-155.82 582.87,-140.17 610.63,-128.11"/>
<polygon fill="#63b8ff" stroke="#63b8ff" points="612.29,-131.2 620.07,-124 609.5,-124.78 612.29,-131.2"/>
</g>
<!-- Node20 -->
<g id="node20" class="node">
<title>Node20</title>
<g id="a_node20"><a xlink:href="namespacea60.html#aafdf18ade22a9e669299209ed5a8bdc6" target="_top" xlink:title="Once.">
<polygon fill="white" stroke="#666666" points="703,-226.5 599,-226.5 599,-209.5 703,-209.5 703,-226.5"/>
<text text-anchor="middle" x="651" y="-216.1" font-family="SourceSans" font-size="8.00">a60::host_ip_address</text>
</a>
</g>
</g>
<!-- Node10&#45;&gt;Node20 -->
<g id="edge23" class="edge">
<title>Node10&#45;&gt;Node20</title>
<path fill="none" stroke="#63b8ff" d="M533.3,-182.59C555.76,-189.4 587.36,-198.99 612.02,-206.47"/>
<polygon fill="#63b8ff" stroke="#63b8ff" points="611.18,-209.88 621.77,-209.43 613.22,-203.18 611.18,-209.88"/>
</g>
<!-- Node22 -->
<g id="node22" class="node">
<title>Node22</title>
<g id="a_node22"><a xlink:href="namespacea60.html#a9f2c8dc1d45c663c1017a1b7b651588d" target="_top" xlink:title="ISO date time stamp as default.">
<polygon fill="white" stroke="#666666" points="698.5,-173 603.5,-173 603.5,-147 698.5,-147 698.5,-173"/>
<text text-anchor="start" x="611.5" y="-162.6" font-family="SourceSans" font-size="8.00">a60::time_point_as</text>
<text text-anchor="middle" x="651" y="-153.6" font-family="SourceSans" font-size="8.00">_string</text>
</a>
</g>
</g>
<!-- Node10&#45;&gt;Node22 -->
<g id="edge25" class="edge">
<title>Node10&#45;&gt;Node22</title>
<path fill="none" stroke="#63b8ff" d="M563.14,-168.39C573.08,-167.43 583.4,-166.43 593.3,-165.47"/>
<polygon fill="#63b8ff" stroke="#63b8ff" points="593.82,-168.94 603.44,-164.5 593.15,-161.97 593.82,-168.94"/>
</g>
<!-- Node12 -->
<g id="node12" class="node">
<title>Node12</title>
<g id="a_node12"><a xlink:href="structa60_1_1geo_1_1country__map.html#a96a87722e7988878c37210a8bb208624" target="_top" xlink:title=" ">
<polygon fill="white" stroke="#666666" points="859.5,-114 739.5,-114 739.5,-88 859.5,-88 859.5,-114"/>
<text text-anchor="start" x="747.5" y="-103.6" font-family="SourceSans" font-size="8.00">a60::geo::country_map</text>
<text text-anchor="middle" x="799.5" y="-94.6" font-family="SourceSans" font-size="8.00">::country_code_via_string</text>
</a>
</g>
</g>
<!-- Node11&#45;&gt;Node12 -->
<g id="edge12" class="edge">
<title>Node11&#45;&gt;Node12</title>
<path fill="none" stroke="#63b8ff" d="M701.6,-107.61C710.5,-107.01 719.92,-106.36 729.26,-105.73"/>
<polygon fill="#63b8ff" stroke="#63b8ff" points="729.58,-109.21 739.32,-105.04 729.11,-102.23 729.58,-109.21"/>
</g>
<!-- Node14 -->
<g id="node14" class="node">
<title>Node14</title>
<g id="a_node14"><a xlink:href="namespacea60_1_1geo.html#a7d8058b0d2e8d5f5c90dfe2cab6fc462" target="_top" xlink:title=" ">
<polygon fill="white" stroke="#666666" points="1012,-150.5 896,-150.5 896,-133.5 1012,-133.5 1012,-150.5"/>
<text text-anchor="middle" x="954" y="-140.1" font-family="SourceSans" font-size="8.00">a60::geo::safe_if_empty</text>
</a>
</g>
</g>
<!-- Node11&#45;&gt;Node14 -->
<g id="edge22" class="edge">
<title>Node11&#45;&gt;Node14</title>
<path fill="none" stroke="#63b8ff" d="M701.64,-118.27C713.84,-119.94 726.88,-121.63 739,-123 787.96,-128.55 843.38,-133.43 885.55,-136.85"/>
<polygon fill="#63b8ff" stroke="#63b8ff" points="885.45,-140.36 895.7,-137.67 886.01,-133.38 885.45,-140.36"/>
</g>
<!-- Node16 -->
<g id="node16" class="node">
<title>Node16</title>
<g id="a_node16"><a xlink:href="structa60_1_1geo_1_1city__map_1_1record.html#a7b30bf979e46ddb75bc274871e4ab367" target="_top" xlink:title=" ">
<polygon fill="white" stroke="#666666" points="857,-70 742,-70 742,-44 857,-44 857,-70"/>
<text text-anchor="start" x="750" y="-59.6" font-family="SourceSans" font-size="8.00">a60::geo::city_map</text>
<text text-anchor="middle" x="799.5" y="-50.6" font-family="SourceSans" font-size="8.00">::record::is_record_open</text>
</a>
</g>
</g>
<!-- Node11&#45;&gt;Node16 -->
<g id="edge17" class="edge">
<title>Node11&#45;&gt;Node16</title>
<path fill="none" stroke="#63b8ff" d="M687.46,-97.93C707.36,-90.59 732.39,-81.37 753.64,-73.53"/>
<polygon fill="#63b8ff" stroke="#63b8ff" points="754.94,-76.79 763.11,-70.04 752.52,-70.22 754.94,-76.79"/>
</g>
<!-- Node17 -->
<g id="node17" class="node">
<title>Node17</title>
<g id="a_node17"><a xlink:href="structa60_1_1geo_1_1map__base.html#a9215731f10e2fa8488b0e081c2a5cef4" target="_top" xlink:title=" ">
<polygon fill="white" stroke="#666666" points="850.5,-196 748.5,-196 748.5,-170 850.5,-170 850.5,-196"/>
<text text-anchor="start" x="756.5" y="-185.6" font-family="SourceSans" font-size="8.00">a60::geo::map_base</text>
<text text-anchor="middle" x="799.5" y="-176.6" font-family="SourceSans" font-size="8.00">::open</text>
</a>
</g>
</g>
<!-- Node11&#45;&gt;Node17 -->
<g id="edge18" class="edge">
<title>Node11&#45;&gt;Node17</title>
<path fill="none" stroke="#63b8ff" d="M676.58,-124.14C693.91,-133.3 717.73,-145.68 739,-156 745.67,-159.23 752.8,-162.57 759.74,-165.76"/>
<polygon fill="#63b8ff" stroke="#63b8ff" points="758.45,-169.02 769,-169.98 761.35,-162.65 758.45,-169.02"/>
</g>
<!-- Node19 -->
<g id="node19" class="node">
<title>Node19</title>
<g id="a_node19"><a xlink:href="structa60_1_1geo_1_1city__map.html#a8edb2011397d2166076b33f5187afe18" target="_top" xlink:title=" ">
<polygon fill="white" stroke="#666666" points="847.5,-26 751.5,-26 751.5,0 847.5,0 847.5,-26"/>
<text text-anchor="start" x="759.5" y="-15.6" font-family="SourceSans" font-size="8.00">a60::geo::city_map</text>
<text text-anchor="middle" x="799.5" y="-6.6" font-family="SourceSans" font-size="8.00">::open_record</text>
</a>
</g>
</g>
<!-- Node11&#45;&gt;Node19 -->
<g id="edge20" class="edge">
<title>Node11&#45;&gt;Node19</title>
<path fill="none" stroke="#63b8ff" d="M664.1,-97.8C679.93,-81.2 709.17,-52.72 739,-35 741.84,-33.31 744.83,-31.72 747.9,-30.22"/>
<polygon fill="#63b8ff" stroke="#63b8ff" points="749.58,-33.3 757.26,-26.01 746.71,-26.92 749.58,-33.3"/>
</g>
<!-- Node13 -->
<g id="node13" class="node">
<title>Node13</title>
<g id="a_node13"><a xlink:href="structa60_1_1geo_1_1map__base.html#ae86685f27b25cdaead9c94752618b2e4" target="_top" xlink:title=" ">
<polygon fill="white" stroke="#666666" points="1005,-44 903,-44 903,-18 1005,-18 1005,-44"/>
<text text-anchor="start" x="911" y="-33.6" font-family="SourceSans" font-size="8.00">a60::geo::map_base</text>
<text text-anchor="middle" x="954" y="-24.6" font-family="SourceSans" font-size="8.00">::is_map_open</text>
</a>
</g>
</g>
<!-- Node12&#45;&gt;Node13 -->
<g id="edge13" class="edge">
<title>Node12&#45;&gt;Node13</title>
<path fill="none" stroke="#63b8ff" d="M837.92,-87.96C845.3,-85.16 852.95,-82.11 860,-79 880.48,-69.97 902.78,-58.51 920.42,-49.06"/>
<polygon fill="#63b8ff" stroke="#63b8ff" points="922.56,-51.88 929.69,-44.04 919.23,-45.72 922.56,-51.88"/>
</g>
<!-- Node12&#45;&gt;Node14 -->
<g id="edge14" class="edge">
<title>Node12&#45;&gt;Node14</title>
<path fill="none" stroke="#63b8ff" d="M849.17,-114.09C869.21,-119.47 892.19,-125.65 911.43,-130.82"/>
<polygon fill="#63b8ff" stroke="#63b8ff" points="910.55,-134.21 921.11,-133.43 912.37,-127.45 910.55,-134.21"/>
</g>
<!-- Node15 -->
<g id="node15" class="node">
<title>Node15</title>
<g id="a_node15"><a xlink:href="namespacea60_1_1constants.html#a01d9786063fb572d9389b0cd207bbe53" target="_top" xlink:title=" ">
<polygon fill="white" stroke="#666666" points="1003,-97.5 905,-97.5 905,-80.5 1003,-80.5 1003,-97.5"/>
<text text-anchor="middle" x="954" y="-87.1" font-family="SourceSans" font-size="8.00">a60::constants::tab</text>
</a>
</g>
</g>
<!-- Node12&#45;&gt;Node15 -->
<g id="edge15" class="edge">
<title>Node12&#45;&gt;Node15</title>
<path fill="none" stroke="#63b8ff" d="M859.9,-96.33C871.29,-95.43 883.22,-94.49 894.59,-93.6"/>
<polygon fill="#63b8ff" stroke="#63b8ff" points="895.14,-97.06 904.84,-92.79 894.59,-90.09 895.14,-97.06"/>
</g>
<!-- Node15&#45;&gt;Node15 -->
<g id="edge16" class="edge">
<title>Node15&#45;&gt;Node15</title>
<path fill="none" stroke="#63b8ff" d="M931.05,-97.69C918.38,-106.17 926.03,-115.5 954,-115.5 972.79,-115.5 982.41,-111.29 982.86,-105.95"/>
<polygon fill="#63b8ff" stroke="#63b8ff" points="985.61,-103.78 976.95,-97.69 979.92,-107.86 985.61,-103.78"/>
</g>
<!-- Node18 -->
<g id="node18" class="node">
<title>Node18</title>
<g id="a_node18"><a xlink:href="namespacea60_1_1io.html#aa5fbb8ab63397dd45c4a54c0758935ef" target="_top" xlink:title="Sanity check input existence.">
<polygon fill="white" stroke="#666666" points="1006,-196 902,-196 902,-170 1006,-170 1006,-196"/>
<text text-anchor="start" x="910" y="-185.6" font-family="SourceSans" font-size="8.00">a60::io::sanity_check</text>
<text text-anchor="middle" x="954" y="-176.6" font-family="SourceSans" font-size="8.00">_input</text>
</a>
</g>
</g>
<!-- Node17&#45;&gt;Node18 -->
<g id="edge19" class="edge">
<title>Node17&#45;&gt;Node18</title>
<path fill="none" stroke="#63b8ff" d="M850.86,-183C863.92,-183 878.14,-183 891.7,-183"/>
<polygon fill="#63b8ff" stroke="#63b8ff" points="891.91,-186.5 901.91,-183 891.91,-179.5 891.91,-186.5"/>
</g>
<!-- Node19&#45;&gt;Node13 -->
<g id="edge21" class="edge">
<title>Node19&#45;&gt;Node13</title>
<path fill="none" stroke="#63b8ff" d="M847.92,-18.6C862.12,-20.27 877.9,-22.14 892.81,-23.9"/>
<polygon fill="#63b8ff" stroke="#63b8ff" points="892.63,-27.4 902.97,-25.1 893.45,-20.45 892.63,-27.4"/>
</g>
<!-- Node21 -->
<g id="node21" class="node">
<title>Node21</title>
<g id="a_node21"><a xlink:href="namespacea60.html#ac912026493721c2646a3336faffe1baa" target="_top" xlink:title="Test machine&#39;s address.">
<polygon fill="white" stroke="#666666" points="860,-231.5 739,-231.5 739,-214.5 860,-214.5 860,-231.5"/>
<text text-anchor="middle" x="799.5" y="-221.1" font-family="SourceSans" font-size="8.00">a60::get_host_ip_address</text>
</a>
</g>
</g>
<!-- Node20&#45;&gt;Node21 -->
<g id="edge24" class="edge">
<title>Node20&#45;&gt;Node21</title>
<path fill="none" stroke="#63b8ff" d="M703.24,-219.75C711.48,-220.03 720.14,-220.33 728.73,-220.62"/>
<polygon fill="#63b8ff" stroke="#63b8ff" points="728.64,-224.12 738.75,-220.96 728.88,-217.12 728.64,-224.12"/>
</g>
<!-- Node22&#45;&gt;Node22 -->
<g id="edge26" class="edge">
<title>Node22&#45;&gt;Node22</title>
<path fill="none" stroke="#63b8ff" d="M626.3,-173.06C618.81,-182.1 627.05,-191 651,-191 665.6,-191 674.36,-187.69 677.28,-183.07"/>
<polygon fill="#63b8ff" stroke="#63b8ff" points="680.71,-182.39 675.7,-173.06 673.8,-183.48 680.71,-182.39"/>
</g>
</g>
</svg>
        <g id="navigator" transform="translate(0 0)" fill="#404254">
                <rect fill="#f2f5e9" fill-opacity="0.5" stroke="#606060" stroke-width=".5" x="0" y="0" width="60" height="60"/>
                <use id="zoomplus" xlink:href="#zoomPlus" x="17" y="9" onmousedown="handleZoom(evt,'in')"/>
                <use id="zoomminus" xlink:href="#zoomMin" x="42" y="9" onmousedown="handleZoom(evt,'out')"/>
                <use id="reset" xlink:href="#resetDef" x="30" y="36" onmousedown="handleReset()"/>
                <g id="arrowUp" xlink:href="#dirArrow" transform="translate(30 24)" onmousedown="handlePan(0,-1)">
                  <use xlink:href="#rim" fill="#404040">
                        <set attributeName="fill" to="#808080" begin="arrowUp.mouseover" end="arrowUp.mouseout"/>
                  </use>
                  <path fill="none" stroke="white" stroke-width="1.5" d="M0,-3.0v7 M-2.5,-0.5L0,-3.0L2.5,-0.5"/>
                </g>
                <g id="arrowRight" xlink:href="#dirArrow" transform="rotate(90) translate(36 -43)" onmousedown="handlePan(1,0)">
                  <use xlink:href="#rim" fill="#404040">
                        <set attributeName="fill" to="#808080" begin="arrowRight.mouseover" end="arrowRight.mouseout"/>
                  </use>
                  <path fill="none" stroke="white" stroke-width="1.5" d="M0,-3.0v7 M-2.5,-0.5L0,-3.0L2.5,-0.5"/>
                </g>
                <g id="arrowDown" xlink:href="#dirArrow" transform="rotate(180) translate(-30 -48)" onmousedown="handlePan(0,1)">
                  <use xlink:href="#rim" fill="#404040">
                        <set attributeName="fill" to="#808080" begin="arrowDown.mouseover" end="arrowDown.mouseout"/>
                  </use>
                  <path fill="none" stroke="white" stroke-width="1.5" d="M0,-3.0v7 M-2.5,-0.5L0,-3.0L2.5,-0.5"/>
                </g>
                <g id="arrowLeft" xlink:href="#dirArrow" transform="rotate(270) translate(-36 17)" onmousedown="handlePan(-1,0)">
                  <use xlink:href="#rim" fill="#404040">
                        <set attributeName="fill" to="#808080" begin="arrowLeft.mouseover" end="arrowLeft.mouseout"/>
                  </use>
                  <path fill="none" stroke="white" stroke-width="1.5" d="M0,-3.0v7 M-2.5,-0.5L0,-3.0L2.5,-0.5"/>
                </g>
        </g>
        <svg viewBox="0 0 15 15" width="100%" height="30px" preserveAspectRatio="xMaxYMin meet">
         <g id="arrow_out" transform="scale(0.3 0.3)">
          <a xlink:href="a60-simple_8cc_ae7c9d1528bf5e63966d8e280a5cad570_cgraph_org.svg" target="_base">
           <rect id="button" ry="5" rx="5" y="6" x="6" height="38" width="38"
                fill="#f2f5e9" fill-opacity="0.5" stroke="#606060" stroke-width="1.0"/>
           <path id="arrow"
             d="M 11.500037,31.436501 C 11.940474,20.09759 22.043105,11.32322 32.158766,21.979434 L 37.068811,17.246167 C 37.068811,17.246167 37.088388,32 37.088388,32 L 22.160133,31.978069 C 22.160133,31.978069 26.997745,27.140456 26.997745,27.140456 C 18.528582,18.264221 13.291696,25.230495 11.500037,31.436501 z"
             style="fill:#404040;"/>
          </a>
         </g>
        </svg>
</svg>
