<?xml version="1.0" encoding="UTF-8" standalone="no"?>
<!DOCTYPE svg PUBLIC "-//W3C//DTD SVG 1.1//EN"
 "http://www.w3.org/Graphics/SVG/1.1/DTD/svg11.dtd">
<!-- Generated by graphviz version 5.0.0 (0)
 -->
<!-- Title: /home/bkoz/src/alpha60/src/a60&#45;svg&#45;titles&#45;and&#45;legends.h Pages: 1 -->
<svg width="1155pt" height="202pt"
 viewBox="0.00 0.00 1155.00 202.00" xmlns="http://www.w3.org/2000/svg" xmlns:xlink="http://www.w3.org/1999/xlink">
<g id="graph0" class="graph" transform="scale(1 1) rotate(0) translate(4 198)">
<title>/home/bkoz/src/alpha60/src/a60&#45;svg&#45;titles&#45;and&#45;legends.h</title>
<!-- Node1 -->
<g id="node1" class="node">
<title>Node1</title>
<g id="a_node1"><a xlink:title=" ">
<polygon fill="#999999" stroke="#666666" points="464,-194 348,-194 348,-159 464,-159 464,-194"/>
<text text-anchor="start" x="356" y="-183.6" font-family="SourceSans" font-size="8.00">/home/bkoz/src/alpha60</text>
<text text-anchor="start" x="356" y="-174.6" font-family="SourceSans" font-size="8.00">/src/a60&#45;svg&#45;titles&#45;and</text>
<text text-anchor="middle" x="406" y="-165.6" font-family="SourceSans" font-size="8.00">&#45;legends.h</text>
</a>
</g>
</g>
<!-- Node2 -->
<g id="node2" class="node">
<title>Node2</title>
<g id="a_node2"><a xlink:href="a60-io_8h.html" target="_top" xlink:title=" ">
<polygon fill="white" stroke="#666666" points="431,-123 381,-123 381,-106 431,-106 431,-123"/>
<text text-anchor="middle" x="406" y="-112.6" font-family="SourceSans" font-size="8.00">a60&#45;io.h</text>
</a>
</g>
</g>
<!-- Node1&#45;&gt;Node2 -->
<g id="edge1" class="edge">
<title>Node1&#45;&gt;Node2</title>
<path fill="none" stroke="#63b8ff" d="M406,-158.79C406,-150.87 406,-141.4 406,-133.34"/>
<polygon fill="#63b8ff" stroke="#63b8ff" points="409.5,-133.2 406,-123.2 402.5,-133.2 409.5,-133.2"/>
</g>
<!-- Node3 -->
<g id="node3" class="node">
<title>Node3</title>
<g id="a_node3"><a xlink:title=" ">
<polygon fill="#e0e0e0" stroke="#999999" points="226.5,-70 179.5,-70 179.5,-53 226.5,-53 226.5,-70"/>
<text text-anchor="middle" x="203" y="-59.6" font-family="SourceSans" font-size="8.00">fstream</text>
</a>
</g>
</g>
<!-- Node2&#45;&gt;Node3 -->
<g id="edge2" class="edge">
<title>Node2&#45;&gt;Node3</title>
<path fill="none" stroke="#63b8ff" d="M380.7,-107.14C344.33,-98.01 277.19,-81.14 236.67,-70.96"/>
<polygon fill="#63b8ff" stroke="#63b8ff" points="237.28,-67.5 226.72,-68.46 235.57,-74.29 237.28,-67.5"/>
</g>
<!-- Node4 -->
<g id="node4" class="node">
<title>Node4</title>
<g id="a_node4"><a xlink:title=" ">
<polygon fill="#e0e0e0" stroke="#999999" points="359.5,-70 244.5,-70 244.5,-53 359.5,-53 359.5,-70"/>
<text text-anchor="middle" x="302" y="-59.6" font-family="SourceSans" font-size="8.00">experimental/filesystem</text>
</a>
</g>
</g>
<!-- Node2&#45;&gt;Node4 -->
<g id="edge3" class="edge">
<title>Node2&#45;&gt;Node4</title>
<path fill="none" stroke="#63b8ff" d="M390.65,-105.97C373.76,-97.69 346.35,-84.25 326.48,-74.5"/>
<polygon fill="#63b8ff" stroke="#63b8ff" points="327.93,-71.32 317.41,-70.06 324.85,-77.6 327.93,-71.32"/>
</g>
<!-- Node5 -->
<g id="node5" class="node">
<title>Node5</title>
<g id="a_node5"><a xlink:title=" ">
<polygon fill="#e0e0e0" stroke="#999999" points="434,-70 378,-70 378,-53 434,-53 434,-70"/>
<text text-anchor="middle" x="406" y="-59.6" font-family="SourceSans" font-size="8.00">stdexcept</text>
</a>
</g>
</g>
<!-- Node2&#45;&gt;Node5 -->
<g id="edge4" class="edge">
<title>Node2&#45;&gt;Node5</title>
<path fill="none" stroke="#63b8ff" d="M406,-105.97C406,-99.19 406,-88.97 406,-80.13"/>
<polygon fill="#63b8ff" stroke="#63b8ff" points="409.5,-80.06 406,-70.06 402.5,-80.06 409.5,-80.06"/>
</g>
<!-- Node6 -->
<g id="node6" class="node">
<title>Node6</title>
<g id="a_node6"><a xlink:title=" ">
<polygon fill="#e0e0e0" stroke="#999999" points="490,-70 452,-70 452,-53 490,-53 490,-70"/>
<text text-anchor="middle" x="471" y="-59.6" font-family="SourceSans" font-size="8.00">regex</text>
</a>
</g>
</g>
<!-- Node2&#45;&gt;Node6 -->
<g id="edge5" class="edge">
<title>Node2&#45;&gt;Node6</title>
<path fill="none" stroke="#63b8ff" d="M415.59,-105.97C425.48,-98.22 441.13,-85.94 453.27,-76.41"/>
<polygon fill="#63b8ff" stroke="#63b8ff" points="455.66,-78.98 461.37,-70.06 451.34,-73.48 455.66,-78.98"/>
</g>
<!-- Node7 -->
<g id="node7" class="node">
<title>Node7</title>
<g id="a_node7"><a xlink:href="a60_8h.html" target="_top" xlink:title=" ">
<polygon fill="white" stroke="#666666" points="548,-70 508,-70 508,-53 548,-53 548,-70"/>
<text text-anchor="middle" x="528" y="-59.6" font-family="SourceSans" font-size="8.00">a60.h</text>
</a>
</g>
</g>
<!-- Node2&#45;&gt;Node7 -->
<g id="edge6" class="edge">
<title>Node2&#45;&gt;Node7</title>
<path fill="none" stroke="#63b8ff" d="M424,-105.97C444.18,-97.54 477.14,-83.76 500.55,-73.98"/>
<polygon fill="#63b8ff" stroke="#63b8ff" points="502.05,-77.14 509.92,-70.06 499.35,-70.68 502.05,-77.14"/>
</g>
<!-- Node8 -->
<g id="node8" class="node">
<title>Node8</title>
<g id="a_node8"><a xlink:title=" ">
<polygon fill="#e0e0e0" stroke="#999999" points="42,-17 0,-17 0,0 42,0 42,-17"/>
<text text-anchor="middle" x="21" y="-6.6" font-family="SourceSans" font-size="8.00">cmath</text>
</a>
</g>
</g>
<!-- Node7&#45;&gt;Node8 -->
<g id="edge7" class="edge">
<title>Node7&#45;&gt;Node8</title>
<path fill="none" stroke="#63b8ff" d="M507.81,-54.8C504.87,-54.11 501.87,-53.48 499,-53 305.28,-20.42 249.95,-48.37 52.35,-16.91"/>
<polygon fill="#63b8ff" stroke="#63b8ff" points="52.65,-13.41 42.21,-15.26 51.52,-20.32 52.65,-13.41"/>
</g>
<!-- Node9 -->
<g id="node9" class="node">
<title>Node9</title>
<g id="a_node9"><a xlink:title=" ">
<polygon fill="#e0e0e0" stroke="#999999" points="98,-17 60,-17 60,0 98,0 98,-17"/>
<text text-anchor="middle" x="79" y="-6.6" font-family="SourceSans" font-size="8.00">tuple</text>
</a>
</g>
</g>
<!-- Node7&#45;&gt;Node9 -->
<g id="edge8" class="edge">
<title>Node7&#45;&gt;Node9</title>
<path fill="none" stroke="#63b8ff" d="M507.81,-54.83C504.87,-54.14 501.87,-53.5 499,-53 329.83,-23.56 281.03,-46.85 108.12,-16.86"/>
<polygon fill="#63b8ff" stroke="#63b8ff" points="108.64,-13.39 98.18,-15.1 107.42,-20.29 108.64,-13.39"/>
</g>
<!-- Node10 -->
<g id="node10" class="node">
<title>Node10</title>
<g id="a_node10"><a xlink:title=" ">
<polygon fill="#e0e0e0" stroke="#999999" points="156,-17 116,-17 116,0 156,0 156,-17"/>
<text text-anchor="middle" x="136" y="-6.6" font-family="SourceSans" font-size="8.00">string</text>
</a>
</g>
</g>
<!-- Node7&#45;&gt;Node10 -->
<g id="edge9" class="edge">
<title>Node7&#45;&gt;Node10</title>
<path fill="none" stroke="#63b8ff" d="M507.8,-54.88C504.86,-54.17 501.87,-53.52 499,-53 355.27,-26.81 313.66,-43.03 166.07,-16.91"/>
<polygon fill="#63b8ff" stroke="#63b8ff" points="166.66,-13.46 156.2,-15.12 165.42,-20.35 166.66,-13.46"/>
</g>
<!-- Node11 -->
<g id="node11" class="node">
<title>Node11</title>
<g id="a_node11"><a xlink:title=" ">
<polygon fill="#e0e0e0" stroke="#999999" points="216,-17 174,-17 174,0 216,0 216,-17"/>
<text text-anchor="middle" x="195" y="-6.6" font-family="SourceSans" font-size="8.00">vector</text>
</a>
</g>
</g>
<!-- Node7&#45;&gt;Node11 -->
<g id="edge10" class="edge">
<title>Node7&#45;&gt;Node11</title>
<path fill="none" stroke="#63b8ff" d="M507.79,-54.94C504.85,-54.23 501.86,-53.56 499,-53 381.61,-30.2 347.45,-39.41 226.28,-17.02"/>
<polygon fill="#63b8ff" stroke="#63b8ff" points="226.71,-13.54 216.24,-15.13 225.42,-20.42 226.71,-13.54"/>
</g>
<!-- Node12 -->
<g id="node12" class="node">
<title>Node12</title>
<g id="a_node12"><a xlink:title=" ">
<polygon fill="#e0e0e0" stroke="#999999" points="263.5,-17 234.5,-17 234.5,0 263.5,0 263.5,-17"/>
<text text-anchor="middle" x="249" y="-6.6" font-family="SourceSans" font-size="8.00">set</text>
</a>
</g>
</g>
<!-- Node7&#45;&gt;Node12 -->
<g id="edge11" class="edge">
<title>Node7&#45;&gt;Node12</title>
<path fill="none" stroke="#63b8ff" d="M507.78,-55.01C504.84,-54.29 501.85,-53.59 499,-53 402.54,-32.89 373.81,-39.76 273.56,-16.76"/>
<polygon fill="#63b8ff" stroke="#63b8ff" points="274.16,-13.31 263.63,-14.44 272.57,-20.13 274.16,-13.31"/>
</g>
<!-- Node13 -->
<g id="node13" class="node">
<title>Node13</title>
<g id="a_node13"><a xlink:title=" ">
<polygon fill="#e0e0e0" stroke="#999999" points="362,-17 282,-17 282,0 362,0 362,-17"/>
<text text-anchor="middle" x="322" y="-6.6" font-family="SourceSans" font-size="8.00">unordered_map</text>
</a>
</g>
</g>
<!-- Node7&#45;&gt;Node13 -->
<g id="edge12" class="edge">
<title>Node7&#45;&gt;Node13</title>
<path fill="none" stroke="#63b8ff" d="M507.73,-55.22C504.8,-54.47 501.82,-53.71 499,-53 452.5,-41.27 399.03,-28.19 363.14,-19.46"/>
<polygon fill="#63b8ff" stroke="#63b8ff" points="363.59,-15.97 353.04,-17.01 361.93,-22.77 363.59,-15.97"/>
</g>
<!-- Node14 -->
<g id="node14" class="node">
<title>Node14</title>
<g id="a_node14"><a xlink:title=" ">
<polygon fill="#e0e0e0" stroke="#999999" points="455.5,-17 380.5,-17 380.5,0 455.5,0 455.5,-17"/>
<text text-anchor="middle" x="418" y="-6.6" font-family="SourceSans" font-size="8.00">unordered_set</text>
</a>
</g>
</g>
<!-- Node7&#45;&gt;Node14 -->
<g id="edge13" class="edge">
<title>Node7&#45;&gt;Node14</title>
<path fill="none" stroke="#63b8ff" d="M511.77,-52.97C493.82,-44.65 464.65,-31.13 443.61,-21.37"/>
<polygon fill="#63b8ff" stroke="#63b8ff" points="444.84,-18.09 434.3,-17.06 441.9,-24.44 444.84,-18.09"/>
</g>
<!-- Node15 -->
<g id="node15" class="node">
<title>Node15</title>
<g id="a_node15"><a xlink:title=" ">
<polygon fill="#e0e0e0" stroke="#999999" points="518,-17 474,-17 474,0 518,0 518,-17"/>
<text text-anchor="middle" x="496" y="-6.6" font-family="SourceSans" font-size="8.00">chrono</text>
</a>
</g>
</g>
<!-- Node7&#45;&gt;Node15 -->
<g id="edge14" class="edge">
<title>Node7&#45;&gt;Node15</title>
<path fill="none" stroke="#63b8ff" d="M523.28,-52.97C518.79,-45.82 511.89,-34.82 506.15,-25.67"/>
<polygon fill="#63b8ff" stroke="#63b8ff" points="509.02,-23.67 500.74,-17.06 503.09,-27.39 509.02,-23.67"/>
</g>
<!-- Node16 -->
<g id="node16" class="node">
<title>Node16</title>
<g id="a_node16"><a xlink:title=" ">
<polygon fill="#e0e0e0" stroke="#999999" points="586,-17 536,-17 536,0 586,0 586,-17"/>
<text text-anchor="middle" x="561" y="-6.6" font-family="SourceSans" font-size="8.00">numeric</text>
</a>
</g>
</g>
<!-- Node7&#45;&gt;Node16 -->
<g id="edge15" class="edge">
<title>Node7&#45;&gt;Node16</title>
<path fill="none" stroke="#63b8ff" d="M532.87,-52.97C537.5,-45.82 544.62,-34.82 550.53,-25.67"/>
<polygon fill="#63b8ff" stroke="#63b8ff" points="553.62,-27.35 556.11,-17.06 547.74,-23.55 553.62,-27.35"/>
</g>
<!-- Node17 -->
<g id="node17" class="node">
<title>Node17</title>
<g id="a_node17"><a xlink:title=" ">
<polygon fill="#e0e0e0" stroke="#999999" points="660,-17 604,-17 604,0 660,0 660,-17"/>
<text text-anchor="middle" x="632" y="-6.6" font-family="SourceSans" font-size="8.00">algorithm</text>
</a>
</g>
</g>
<!-- Node7&#45;&gt;Node17 -->
<g id="edge16" class="edge">
<title>Node7&#45;&gt;Node17</title>
<path fill="none" stroke="#63b8ff" d="M543.35,-52.97C560.24,-44.69 587.65,-31.25 607.52,-21.5"/>
<polygon fill="#63b8ff" stroke="#63b8ff" points="609.15,-24.6 616.59,-17.06 606.07,-18.32 609.15,-24.6"/>
</g>
<!-- Node18 -->
<g id="node18" class="node">
<title>Node18</title>
<g id="a_node18"><a xlink:title=" ">
<polygon fill="#e0e0e0" stroke="#999999" points="719.5,-17 678.5,-17 678.5,0 719.5,0 719.5,-17"/>
<text text-anchor="middle" x="699" y="-6.6" font-family="SourceSans" font-size="8.00">locale</text>
</a>
</g>
</g>
<!-- Node7&#45;&gt;Node18 -->
<g id="edge17" class="edge">
<title>Node7&#45;&gt;Node18</title>
<path fill="none" stroke="#63b8ff" d="M548.29,-54.45C578.16,-45.54 634.18,-28.83 668.87,-18.49"/>
<polygon fill="#63b8ff" stroke="#63b8ff" points="669.89,-21.83 678.47,-15.62 667.89,-15.13 669.89,-21.83"/>
</g>
<!-- Node19 -->
<g id="node19" class="node">
<title>Node19</title>
<g id="a_node19"><a xlink:title=" ">
<polygon fill="#e0e0e0" stroke="#999999" points="786.5,-17 737.5,-17 737.5,0 786.5,0 786.5,-17"/>
<text text-anchor="middle" x="762" y="-6.6" font-family="SourceSans" font-size="8.00">codecvt</text>
</a>
</g>
</g>
<!-- Node7&#45;&gt;Node19 -->
<g id="edge18" class="edge">
<title>Node7&#45;&gt;Node19</title>
<path fill="none" stroke="#63b8ff" d="M548.27,-56.19C582.92,-48.8 655.99,-33.14 727.43,-17.33"/>
<polygon fill="#63b8ff" stroke="#63b8ff" points="728.49,-20.68 737.5,-15.1 726.98,-13.85 728.49,-20.68"/>
</g>
<!-- Node20 -->
<g id="node20" class="node">
<title>Node20</title>
<g id="a_node20"><a xlink:title=" ">
<polygon fill="#e0e0e0" stroke="#999999" points="941.5,-17 804.5,-17 804.5,0 941.5,0 941.5,-17"/>
<text text-anchor="middle" x="873" y="-6.6" font-family="SourceSans" font-size="8.00">ext/codecvt_specializations.h</text>
</a>
</g>
</g>
<!-- Node7&#45;&gt;Node20 -->
<g id="edge19" class="edge">
<title>Node7&#45;&gt;Node20</title>
<path fill="none" stroke="#63b8ff" d="M548.04,-57.54C598.48,-50.08 732.32,-30.3 811.62,-18.57"/>
<polygon fill="#63b8ff" stroke="#63b8ff" points="812.57,-21.97 821.96,-17.05 811.55,-15.05 812.57,-21.97"/>
</g>
<!-- Node21 -->
<g id="node21" class="node">
<title>Node21</title>
<g id="a_node21"><a xlink:title=" ">
<polygon fill="#e0e0e0" stroke="#999999" points="1008.5,-17 959.5,-17 959.5,0 1008.5,0 1008.5,-17"/>
<text text-anchor="middle" x="984" y="-6.6" font-family="SourceSans" font-size="8.00">sstream</text>
</a>
</g>
</g>
<!-- Node7&#45;&gt;Node21 -->
<g id="edge20" class="edge">
<title>Node7&#45;&gt;Node21</title>
<path fill="none" stroke="#63b8ff" d="M548.37,-59.28C608.35,-55.52 789.65,-42.81 949.21,-17.11"/>
<polygon fill="#63b8ff" stroke="#63b8ff" points="949.89,-20.54 959.2,-15.48 948.76,-13.63 949.89,-20.54"/>
</g>
<!-- Node22 -->
<g id="node22" class="node">
<title>Node22</title>
<g id="a_node22"><a xlink:title=" ">
<polygon fill="#e0e0e0" stroke="#999999" points="1077,-17 1027,-17 1027,0 1077,0 1077,-17"/>
<text text-anchor="middle" x="1052" y="-6.6" font-family="SourceSans" font-size="8.00">iomanip</text>
</a>
</g>
</g>
<!-- Node7&#45;&gt;Node22 -->
<g id="edge21" class="edge">
<title>Node7&#45;&gt;Node22</title>
<path fill="none" stroke="#63b8ff" d="M548.18,-59.64C614.11,-56.64 829.2,-45.3 1016.78,-16.97"/>
<polygon fill="#63b8ff" stroke="#63b8ff" points="1017.46,-20.41 1026.82,-15.43 1016.4,-13.49 1017.46,-20.41"/>
</g>
<!-- Node23 -->
<g id="node23" class="node">
<title>Node23</title>
<g id="a_node23"><a xlink:title=" ">
<polygon fill="#e0e0e0" stroke="#999999" points="1147,-17 1095,-17 1095,0 1147,0 1147,-17"/>
<text text-anchor="middle" x="1121" y="-6.6" font-family="SourceSans" font-size="8.00">iostream</text>
</a>
</g>
</g>
<!-- Node7&#45;&gt;Node23 -->
<g id="edge22" class="edge">
<title>Node7&#45;&gt;Node23</title>
<path fill="none" stroke="#63b8ff" d="M548.13,-59.9C619.8,-57.56 869.38,-47.69 1084.79,-16.96"/>
<polygon fill="#63b8ff" stroke="#63b8ff" points="1085.3,-20.42 1094.69,-15.53 1084.3,-13.5 1085.3,-20.42"/>
</g>
</g>
</svg>
