<?xml version="1.0" encoding="UTF-8" standalone="no"?>
<!DOCTYPE svg PUBLIC "-//W3C//DTD SVG 1.1//EN"
 "http://www.w3.org/Graphics/SVG/1.1/DTD/svg11.dtd">
<!-- Generated by graphviz version 5.0.0 (0)
 -->
<!-- Title: sample_swarm_repeat Pages: 1 -->
<!--zoomable 547 -->
<svg id="main" version="1.1" xmlns="http://www.w3.org/2000/svg" xmlns:xlink="http://www.w3.org/1999/xlink" xml:space="preserve" onload="init(evt)">
<style type="text/css"><![CDATA[
.edge:hover path { stroke: red; }
.edge:hover polygon { stroke: red; fill: red; }
]]></style>
<script type="text/javascript"><![CDATA[
var edges = document.getElementsByTagName('g');
if (edges && edges.length) {
  for (var i=0;i<edges.length;i++) {
    if (edges[i].id.substr(0,4)=='edge') {
      edges[i].setAttribute('class','edge');
    }
  }
}
]]></script>
        <defs>
                <circle id="rim" cx="0" cy="0" r="7"/>
                <circle id="rim2" cx="0" cy="0" r="3.5"/>
                <g id="zoomPlus">
                        <use xlink:href="#rim" fill="#404040">
                                <set attributeName="fill" to="#808080" begin="zoomplus.mouseover" end="zoomplus.mouseout"/>
                        </use>
                        <path d="M-4,0h8M0,-4v8" fill="none" stroke="white" stroke-width="1.5" pointer-events="none"/>
                </g>
                <g id="zoomMin">
                        <use xlink:href="#rim" fill="#404040">
                                <set attributeName="fill" to="#808080" begin="zoomminus.mouseover" end="zoomminus.mouseout"/>
                        </use>
                        <path d="M-4,0h8" fill="none" stroke="white" stroke-width="1.5" pointer-events="none"/>
                </g>
                <g id="dirArrow">
                        <path fill="none" stroke="white" stroke-width="1.5" d="M0,-3.0v7 M-2.5,-0.5L0,-3.0L2.5,-0.5"/>
                </g>
               <g id="resetDef">
                       <use xlink:href="#rim2" fill="#404040">
                               <set attributeName="fill" to="#808080" begin="reset.mouseover" end="reset.mouseout"/>
                       </use>
               </g>
        </defs>

<script type="text/javascript">
var viewWidth = 1338;
var viewHeight = 547;
var sectionId = 'dynsection-5';
</script>
<script xlink:href="svgpan.js"/>
<svg id="graph" class="graph">
<g id="viewport">
<title>sample_swarm_repeat</title>
<!-- Node1 -->
<g id="node1" class="node">
<title>Node1</title>
<g id="a_node1"><a xlink:title="Repeat 3 locale above n times at intervals of no less than (interval) minutes.">
<polygon fill="#999999" stroke="#666666" points="107,-456 0,-456 0,-439 107,-439 107,-456"/>
<text text-anchor="middle" x="53.5" y="-445.6" font-family="SourceSans" font-size="8.00">sample_swarm_repeat</text>
</a>
</g>
</g>
<!-- Node2 -->
<g id="node2" class="node">
<title>Node2</title>
<g id="a_node2"><a xlink:href="a60-sample-dump-multi_8cc.html#a7d162b08732e1de1af3ede955b6d40a3" target="_top" xlink:title="Sample three locales: Toronto, London, Sydney.">
<polygon fill="white" stroke="#666666" points="258,-456 143,-456 143,-439 258,-439 258,-456"/>
<text text-anchor="middle" x="200.5" y="-445.6" font-family="SourceSans" font-size="8.00">sample_swarm_3_locale</text>
</a>
</g>
</g>
<!-- Node1&#45;&gt;Node2 -->
<g id="edge1" class="edge">
<title>Node1&#45;&gt;Node2</title>
<path fill="none" stroke="#63b8ff" d="M107.26,-447.5C115.43,-447.5 123.97,-447.5 132.41,-447.5"/>
<polygon fill="#63b8ff" stroke="#63b8ff" points="132.62,-451 142.62,-447.5 132.62,-444 132.62,-451"/>
</g>
<!-- Node3 -->
<g id="node3" class="node">
<title>Node3</title>
<g id="a_node3"><a xlink:href="namespacea60_1_1io.html#a6ad052ef18cfb1a1ac708f7c69c9050d" target="_top" xlink:title="Assumes argument is full path, no error checking...">
<polygon fill="white" stroke="#666666" points="1013,-477.5 917,-477.5 917,-451.5 1013,-451.5 1013,-477.5"/>
<text text-anchor="start" x="925" y="-467.1" font-family="SourceSans" font-size="8.00">a60::io::get_output</text>
<text text-anchor="middle" x="965" y="-458.1" font-family="SourceSans" font-size="8.00">_prefix</text>
</a>
</g>
</g>
<!-- Node2&#45;&gt;Node3 -->
<g id="edge2" class="edge">
<title>Node2&#45;&gt;Node3</title>
<path fill="none" stroke="#63b8ff" d="M258.19,-453.28C317.99,-458.87 415.03,-466.5 499,-466.5 499,-466.5 499,-466.5 656,-466.5 743.32,-466.5 844.57,-465.69 906.44,-465.1"/>
<polygon fill="#63b8ff" stroke="#63b8ff" points="906.81,-468.59 916.78,-465 906.74,-461.59 906.81,-468.59"/>
</g>
<!-- Node5 -->
<g id="node5" class="node">
<title>Node5</title>
<g id="a_node5"><a xlink:href="namespacea60_1_1io.html#aff5d72d9d64945e355a39c2b72a245bd" target="_top" xlink:title="Make subdirectory for output files.">
<polygon fill="white" stroke="#666666" points="862,-520.5 766,-520.5 766,-494.5 862,-494.5 862,-520.5"/>
<text text-anchor="start" x="774" y="-510.1" font-family="SourceSans" font-size="8.00">a60::io::get_output</text>
<text text-anchor="middle" x="814" y="-501.1" font-family="SourceSans" font-size="8.00">_sub_directory</text>
</a>
</g>
</g>
<!-- Node2&#45;&gt;Node5 -->
<g id="edge4" class="edge">
<title>Node2&#45;&gt;Node5</title>
<path fill="none" stroke="#63b8ff" d="M220.52,-456.13C238.91,-464.03 267.75,-475.25 294,-480.5 459.18,-513.52 659.47,-512.74 755.8,-509.9"/>
<polygon fill="#63b8ff" stroke="#63b8ff" points="756.03,-513.39 765.91,-509.58 755.81,-506.39 756.03,-513.39"/>
</g>
<!-- Node7 -->
<g id="node7" class="node">
<title>Node7</title>
<g id="a_node7"><a xlink:href="a60-sample-dump-multi_8cc.html#a8bcc07a401b6f586ae365e12a9f102d3" target="_top" xlink:title="Sample one locale.">
<polygon fill="white" stroke="#666666" points="409,-150 294,-150 294,-133 409,-133 409,-150"/>
<text text-anchor="middle" x="351.5" y="-139.6" font-family="SourceSans" font-size="8.00">sample_swarm_1_locale</text>
</a>
</g>
</g>
<!-- Node2&#45;&gt;Node7 -->
<g id="edge8" class="edge">
<title>Node2&#45;&gt;Node7</title>
<path fill="none" stroke="#63b8ff" d="M205.64,-439C225.77,-397.65 313.61,-217.27 341.77,-159.42"/>
<polygon fill="#63b8ff" stroke="#63b8ff" points="345.08,-160.63 346.31,-150.11 338.78,-157.57 345.08,-160.63"/>
</g>
<!-- Node35 -->
<g id="node35" class="node">
<title>Node35</title>
<g id="a_node35"><a xlink:href="namespacea60_1_1io.html#a5714619410f0816827d4238eb3291d0a" target="_top" xlink:title="Sets man output directory.">
<polygon fill="white" stroke="#666666" points="861.5,-438.5 766.5,-438.5 766.5,-412.5 861.5,-412.5 861.5,-438.5"/>
<text text-anchor="start" x="774.5" y="-428.1" font-family="SourceSans" font-size="8.00">a60::io::set_output</text>
<text text-anchor="middle" x="814" y="-419.1" font-family="SourceSans" font-size="8.00">_prefix</text>
</a>
</g>
</g>
<!-- Node2&#45;&gt;Node35 -->
<g id="edge51" class="edge">
<title>Node2&#45;&gt;Node35</title>
<path fill="none" stroke="#63b8ff" d="M258.21,-445.46C374.61,-441.27 639.35,-431.75 756,-427.55"/>
<polygon fill="#63b8ff" stroke="#63b8ff" points="756.28,-431.04 766.15,-427.19 756.03,-424.05 756.28,-431.04"/>
</g>
<!-- Node4 -->
<g id="node4" class="node">
<title>Node4</title>
<g id="a_node4"><a xlink:href="namespacea60_1_1io.html#a16f17ea9e02c1975ca17b77e46cf7629" target="_top" xlink:title="Make sure a path ends in &#39;/&#39;;.">
<polygon fill="white" stroke="#666666" points="1162.5,-473 1072.5,-473 1072.5,-456 1162.5,-456 1162.5,-473"/>
<text text-anchor="middle" x="1117.5" y="-462.6" font-family="SourceSans" font-size="8.00">a60::io::end_path</text>
</a>
</g>
</g>
<!-- Node3&#45;&gt;Node4 -->
<g id="edge3" class="edge">
<title>Node3&#45;&gt;Node4</title>
<path fill="none" stroke="#63b8ff" d="M1013.21,-464.5C1028.69,-464.5 1046.03,-464.5 1062.01,-464.5"/>
<polygon fill="#63b8ff" stroke="#63b8ff" points="1062.28,-468 1072.28,-464.5 1062.28,-461 1062.28,-468"/>
</g>
<!-- Node5&#45;&gt;Node3 -->
<g id="edge6" class="edge">
<title>Node5&#45;&gt;Node3</title>
<path fill="none" stroke="#63b8ff" d="M860.11,-494.48C875.5,-490.04 892.89,-485.02 908.97,-480.38"/>
<polygon fill="#63b8ff" stroke="#63b8ff" points="910.15,-483.68 918.79,-477.55 908.21,-476.96 910.15,-483.68"/>
</g>
<!-- Node5&#45;&gt;Node4 -->
<g id="edge5" class="edge">
<title>Node5&#45;&gt;Node4</title>
<path fill="none" stroke="#63b8ff" d="M851.96,-520.51C893.87,-533.25 963.8,-548.34 1021,-530.5 1052.41,-520.7 1082.61,-496.55 1100.36,-480.35"/>
<polygon fill="#63b8ff" stroke="#63b8ff" points="1103.14,-482.53 1108.02,-473.12 1098.34,-477.43 1103.14,-482.53"/>
</g>
<!-- Node6 -->
<g id="node6" class="node">
<title>Node6</title>
<g id="a_node6"><a xlink:href="namespacea60_1_1io.html#ad8339b50abcf6975587ba229c04066e7" target="_top" xlink:title="Check directory exists, else make it.">
<polygon fill="white" stroke="#666666" points="1017,-521.5 913,-521.5 913,-495.5 1017,-495.5 1017,-521.5"/>
<text text-anchor="start" x="921" y="-511.1" font-family="SourceSans" font-size="8.00">a60::io::sanity_check</text>
<text text-anchor="middle" x="965" y="-502.1" font-family="SourceSans" font-size="8.00">_output_directory</text>
</a>
</g>
</g>
<!-- Node5&#45;&gt;Node6 -->
<g id="edge7" class="edge">
<title>Node5&#45;&gt;Node6</title>
<path fill="none" stroke="#63b8ff" d="M862.14,-507.82C874.99,-507.9 889.09,-508 902.59,-508.09"/>
<polygon fill="#63b8ff" stroke="#63b8ff" points="902.75,-511.59 912.77,-508.16 902.8,-504.59 902.75,-511.59"/>
</g>
<!-- Node8 -->
<g id="node8" class="node">
<title>Node8</title>
<g id="a_node8"><a xlink:href="namespacea60.html#a384a69e042867db6ff2e12764444b39c" target="_top" xlink:title="Run session for torrent, repeat &lt; tickmax, put results in now folder. Default tixmax == 4.">
<polygon fill="white" stroke="#666666" points="555,-232.5 445,-232.5 445,-206.5 555,-206.5 555,-232.5"/>
<text text-anchor="start" x="453" y="-222.1" font-family="SourceSans" font-size="8.00">a60::make_session_for</text>
<text text-anchor="middle" x="500" y="-213.1" font-family="SourceSans" font-size="8.00">_torrent</text>
</a>
</g>
</g>
<!-- Node7&#45;&gt;Node8 -->
<g id="edge9" class="edge">
<title>Node7&#45;&gt;Node8</title>
<path fill="none" stroke="#63b8ff" d="M368.74,-150.15C391.96,-162.51 435.2,-185.53 465.47,-201.65"/>
<polygon fill="#63b8ff" stroke="#63b8ff" points="463.94,-204.8 474.41,-206.41 467.22,-198.62 463.94,-204.8"/>
</g>
<!-- Node28 -->
<g id="node28" class="node">
<title>Node28</title>
<g id="a_node28"><a xlink:href="namespacea60.html#a9f2c8dc1d45c663c1017a1b7b651588d" target="_top" xlink:title="ISO date time stamp as default.">
<polygon fill="white" stroke="#666666" points="1012.5,-57.5 917.5,-57.5 917.5,-31.5 1012.5,-31.5 1012.5,-57.5"/>
<text text-anchor="start" x="925.5" y="-47.1" font-family="SourceSans" font-size="8.00">a60::time_point_as</text>
<text text-anchor="middle" x="965" y="-38.1" font-family="SourceSans" font-size="8.00">_string</text>
</a>
</g>
</g>
<!-- Node7&#45;&gt;Node28 -->
<g id="edge50" class="edge">
<title>Node7&#45;&gt;Node28</title>
<path fill="none" stroke="#63b8ff" d="M371.47,-132.97C411.22,-115.58 506.54,-76.32 591,-60.5 701.36,-39.83 833.16,-39.81 906.85,-41.95"/>
<polygon fill="#63b8ff" stroke="#63b8ff" points="907.18,-45.47 917.29,-42.28 907.41,-38.47 907.18,-45.47"/>
</g>
<!-- Node34 -->
<g id="node34" class="node">
<title>Node34</title>
<g id="a_node34"><a xlink:href="namespacea60_1_1io.html#aea30b8fc474f5a7b922516dc1e199037" target="_top" xlink:title="Takes a string representing a directory, returns a sorted list of contents as a std::vector&lt;string&gt;.">
<polygon fill="white" stroke="#666666" points="555,-17 445,-17 445,0 555,0 555,-17"/>
<text text-anchor="middle" x="500" y="-6.6" font-family="SourceSans" font-size="8.00">a60::io::populate_files</text>
</a>
</g>
</g>
<!-- Node7&#45;&gt;Node34 -->
<g id="edge49" class="edge">
<title>Node7&#45;&gt;Node34</title>
<path fill="none" stroke="#63b8ff" d="M357.7,-132.88C370.32,-112.64 404.49,-61.48 445,-31.5 450.32,-27.56 456.42,-24.14 462.56,-21.23"/>
<polygon fill="#63b8ff" stroke="#63b8ff" points="464.35,-24.26 472.13,-17.07 461.56,-17.84 464.35,-24.26"/>
</g>
<!-- Node9 -->
<g id="node9" class="node">
<title>Node9</title>
<g id="a_node9"><a xlink:href="namespacea60.html#a732ca2d85679838beb92881e9f39a999" target="_top" xlink:title="Engage bittorrent, create session.">
<polygon fill="white" stroke="#666666" points="711,-173 599,-173 599,-156 711,-156 711,-173"/>
<text text-anchor="middle" x="655" y="-162.6" font-family="SourceSans" font-size="8.00">a60::configure_session</text>
</a>
</g>
</g>
<!-- Node8&#45;&gt;Node9 -->
<g id="edge10" class="edge">
<title>Node8&#45;&gt;Node9</title>
<path fill="none" stroke="#63b8ff" d="M537.26,-206.47C562.42,-197.42 595.71,-185.45 620.3,-176.62"/>
<polygon fill="#63b8ff" stroke="#63b8ff" points="621.69,-179.83 629.92,-173.16 619.33,-173.25 621.69,-179.83"/>
</g>
<!-- Node10 -->
<g id="node10" class="node">
<title>Node10</title>
<g id="a_node10"><a xlink:href="namespacea60.html#a8b9a182b9bab06f3abea397c373a5f6b" target="_top" xlink:title="Print info about torrent_handle.">
<polygon fill="white" stroke="#666666" points="704,-137.5 606,-137.5 606,-111.5 704,-111.5 704,-137.5"/>
<text text-anchor="start" x="614" y="-127.1" font-family="SourceSans" font-size="8.00">a60::display_torrent</text>
<text text-anchor="middle" x="655" y="-118.1" font-family="SourceSans" font-size="8.00">_handle</text>
</a>
</g>
</g>
<!-- Node8&#45;&gt;Node10 -->
<g id="edge11" class="edge">
<title>Node8&#45;&gt;Node10</title>
<path fill="none" stroke="#63b8ff" d="M514.24,-206.24C530.89,-190.2 560.95,-163.26 591,-146.5 594.08,-144.78 597.31,-143.16 600.63,-141.64"/>
<polygon fill="#63b8ff" stroke="#63b8ff" points="602.27,-144.75 610.1,-137.62 599.53,-138.31 602.27,-144.75"/>
</g>
<!-- Node11 -->
<g id="node11" class="node">
<title>Node11</title>
<g id="a_node11"><a xlink:href="namespacea60.html#a291221a4eb53708506dceedfd78ad3e1" target="_top" xlink:title="Print info about torrent_status. (ie, just from the torrent file).">
<polygon fill="white" stroke="#666666" points="704,-400.5 606,-400.5 606,-374.5 704,-374.5 704,-400.5"/>
<text text-anchor="start" x="614" y="-390.1" font-family="SourceSans" font-size="8.00">a60::display_torrent</text>
<text text-anchor="middle" x="655" y="-381.1" font-family="SourceSans" font-size="8.00">_status</text>
</a>
</g>
</g>
<!-- Node8&#45;&gt;Node11 -->
<g id="edge12" class="edge">
<title>Node8&#45;&gt;Node11</title>
<path fill="none" stroke="#63b8ff" d="M505.76,-232.76C516.54,-260.99 545.48,-327.49 591,-364.5 593.24,-366.32 595.65,-368.01 598.15,-369.57"/>
<polygon fill="#63b8ff" stroke="#63b8ff" points="596.56,-372.69 607.02,-374.39 599.9,-366.54 596.56,-372.69"/>
</g>
<!-- Node12 -->
<g id="node12" class="node">
<title>Node12</title>
<g id="a_node12"><a xlink:href="namespacea60_1_1io.html#a89f2bd581ec510ccc0a8cfedccff7bd0" target="_top" xlink:title="Top level of directory for output files.">
<polygon fill="white" stroke="#666666" points="862,-325.5 766,-325.5 766,-299.5 862,-299.5 862,-325.5"/>
<text text-anchor="start" x="774" y="-315.1" font-family="SourceSans" font-size="8.00">a60::io::get_output</text>
<text text-anchor="middle" x="814" y="-306.1" font-family="SourceSans" font-size="8.00">_directory</text>
</a>
</g>
</g>
<!-- Node8&#45;&gt;Node12 -->
<g id="edge13" class="edge">
<title>Node8&#45;&gt;Node12</title>
<path fill="none" stroke="#63b8ff" d="M531.05,-232.65C548.38,-239.95 570.69,-248.86 591,-255.5 646.21,-273.54 710.63,-289.54 755.81,-299.96"/>
<polygon fill="#63b8ff" stroke="#63b8ff" points="755.19,-303.41 765.72,-302.23 756.75,-296.59 755.19,-303.41"/>
</g>
<!-- Node13 -->
<g id="node13" class="node">
<title>Node13</title>
<g id="a_node13"><a xlink:href="namespacea60.html#afe8d89ca4ef974726fd66dbda364cbf1" target="_top" xlink:title="Given session and magnet file, make session.">
<polygon fill="white" stroke="#666666" points="719,-321 591,-321 591,-304 719,-304 719,-321"/>
<text text-anchor="middle" x="655" y="-310.6" font-family="SourceSans" font-size="8.00">a60::make_magnet_handle</text>
</a>
</g>
</g>
<!-- Node8&#45;&gt;Node13 -->
<g id="edge16" class="edge">
<title>Node8&#45;&gt;Node13</title>
<path fill="none" stroke="#63b8ff" d="M514.98,-232.65C531.88,-247.98 561.73,-273.3 591,-289.5 598.54,-293.67 606.99,-297.36 615.19,-300.49"/>
<polygon fill="#63b8ff" stroke="#63b8ff" points="614.04,-303.79 624.63,-303.9 616.42,-297.21 614.04,-303.79"/>
</g>
<!-- Node14 -->
<g id="node14" class="node">
<title>Node14</title>
<g id="a_node14"><a xlink:href="namespacea60.html#a1ae4660be19d8586055437f379fa4985" target="_top" xlink:title="Configure torrent session.">
<polygon fill="white" stroke="#666666" points="715,-356 595,-356 595,-339 715,-339 715,-356"/>
<text text-anchor="middle" x="655" y="-345.6" font-family="SourceSans" font-size="8.00">a60::make_settings_pack</text>
</a>
</g>
</g>
<!-- Node8&#45;&gt;Node14 -->
<g id="edge18" class="edge">
<title>Node8&#45;&gt;Node14</title>
<path fill="none" stroke="#63b8ff" d="M508.05,-232.53C521.23,-255.63 551.83,-303.74 591,-329.5 594.27,-331.65 597.81,-333.55 601.47,-335.23"/>
<polygon fill="#63b8ff" stroke="#63b8ff" points="600.19,-338.49 610.78,-338.95 602.79,-331.99 600.19,-338.49"/>
</g>
<!-- Node15 -->
<g id="node15" class="node">
<title>Node15</title>
<g id="a_node15"><a xlink:href="namespacea60.html#a0024ebebf4beab70240ed62e88733a5e" target="_top" xlink:title="Given session and torrent file, add torrent to session.">
<polygon fill="white" stroke="#666666" points="716.5,-247 593.5,-247 593.5,-230 716.5,-230 716.5,-247"/>
<text text-anchor="middle" x="655" y="-236.6" font-family="SourceSans" font-size="8.00">a60::make_torrent_handle</text>
</a>
</g>
</g>
<!-- Node8&#45;&gt;Node15 -->
<g id="edge19" class="edge">
<title>Node8&#45;&gt;Node15</title>
<path fill="none" stroke="#63b8ff" d="M555.37,-226.25C564.39,-227.37 573.86,-228.55 583.22,-229.71"/>
<polygon fill="#63b8ff" stroke="#63b8ff" points="582.94,-233.2 593.3,-230.96 583.8,-226.26 582.94,-233.2"/>
</g>
<!-- Node8&#45;&gt;Node28 -->
<g id="edge48" class="edge">
<title>Node8&#45;&gt;Node28</title>
<path fill="none" stroke="#63b8ff" d="M506.93,-206.3C518.88,-181.37 548.41,-127.64 591,-102.5 700.18,-38.06 747.78,-79.37 873,-59.5 884.02,-57.75 895.78,-55.84 907.06,-53.99"/>
<polygon fill="#63b8ff" stroke="#63b8ff" points="907.96,-57.39 917.26,-52.32 906.82,-50.49 907.96,-57.39"/>
</g>
<!-- Node29 -->
<g id="node29" class="node">
<title>Node29</title>
<g id="a_node29"><a xlink:href="namespacea60.html#ab629c2f2a2ce0c6e94f1b2093eceb42e" target="_top" xlink:title="Info about torrent_info, serialized to json.">
<polygon fill="white" stroke="#666666" points="866,-197.5 762,-197.5 762,-171.5 866,-171.5 866,-197.5"/>
<text text-anchor="start" x="770" y="-187.1" font-family="SourceSans" font-size="8.00">a60::serialize_torrent</text>
<text text-anchor="middle" x="814" y="-178.1" font-family="SourceSans" font-size="8.00">_handle_json</text>
</a>
</g>
</g>
<!-- Node8&#45;&gt;Node29 -->
<g id="edge38" class="edge">
<title>Node8&#45;&gt;Node29</title>
<path fill="none" stroke="#63b8ff" d="M555.35,-213.4C610.19,-207.25 694.73,-197.77 751.88,-191.36"/>
<polygon fill="#63b8ff" stroke="#63b8ff" points="752.31,-194.83 761.86,-190.24 751.53,-187.87 752.31,-194.83"/>
</g>
<!-- Node12&#45;&gt;Node3 -->
<g id="edge15" class="edge">
<title>Node12&#45;&gt;Node3</title>
<path fill="none" stroke="#63b8ff" d="M827.96,-325.72C853.94,-352.22 912.55,-412.01 943.68,-443.77"/>
<polygon fill="#63b8ff" stroke="#63b8ff" points="941.46,-446.51 950.96,-451.2 946.46,-441.61 941.46,-446.51"/>
</g>
<!-- Node12&#45;&gt;Node4 -->
<g id="edge14" class="edge">
<title>Node12&#45;&gt;Node4</title>
<path fill="none" stroke="#63b8ff" d="M838.8,-325.65C877.16,-346.86 955.05,-389.93 1021,-426.5 1037.01,-435.38 1040.14,-439.37 1057,-446.5 1062.41,-448.79 1068.21,-450.92 1073.99,-452.86"/>
<polygon fill="#63b8ff" stroke="#63b8ff" points="1073.04,-456.23 1083.63,-455.92 1075.16,-449.56 1073.04,-456.23"/>
</g>
<!-- Node13&#45;&gt;Node12 -->
<g id="edge17" class="edge">
<title>Node13&#45;&gt;Node12</title>
<path fill="none" stroke="#63b8ff" d="M719.41,-312.5C731.39,-312.5 743.85,-312.5 755.63,-312.5"/>
<polygon fill="#63b8ff" stroke="#63b8ff" points="755.78,-316 765.78,-312.5 755.78,-309 755.78,-316"/>
</g>
<!-- Node15&#45;&gt;Node12 -->
<g id="edge37" class="edge">
<title>Node15&#45;&gt;Node12</title>
<path fill="none" stroke="#63b8ff" d="M682.09,-247.06C693.57,-251.07 707.11,-256.14 719,-261.5 740.62,-271.25 764.07,-283.97 782.14,-294.26"/>
<polygon fill="#63b8ff" stroke="#63b8ff" points="780.64,-297.44 791.06,-299.4 784.14,-291.37 780.64,-297.44"/>
</g>
<!-- Node16 -->
<g id="node16" class="node">
<title>Node16</title>
<g id="a_node16"><a xlink:href="namespacea60.html#a36ea22d12ecf44568213ff453ad1da2c" target="_top" xlink:title="Print info about torrent_info.">
<polygon fill="white" stroke="#666666" points="873,-257 755,-257 755,-240 873,-240 873,-257"/>
<text text-anchor="middle" x="814" y="-246.6" font-family="SourceSans" font-size="8.00">a60::display_torrent_info</text>
</a>
</g>
</g>
<!-- Node15&#45;&gt;Node16 -->
<g id="edge20" class="edge">
<title>Node15&#45;&gt;Node16</title>
<path fill="none" stroke="#63b8ff" d="M716.7,-242.37C725.89,-242.95 735.42,-243.56 744.76,-244.15"/>
<polygon fill="#63b8ff" stroke="#63b8ff" points="744.58,-247.65 754.78,-244.79 745.02,-240.66 744.58,-247.65"/>
</g>
<!-- Node17 -->
<g id="node17" class="node">
<title>Node17</title>
<g id="a_node17"><a xlink:href="namespacea60_1_1geo.html#a2ec44da723ee6128696872f94d989c7f" target="_top" xlink:title="Address to IP/Geo.">
<polygon fill="white" stroke="#666666" points="1015.5,-330.5 914.5,-330.5 914.5,-304.5 1015.5,-304.5 1015.5,-330.5"/>
<text text-anchor="start" x="922.5" y="-320.1" font-family="SourceSans" font-size="8.00">a60::geo::display_ip</text>
<text text-anchor="middle" x="965" y="-311.1" font-family="SourceSans" font-size="8.00">_and_geo_info</text>
</a>
</g>
</g>
<!-- Node16&#45;&gt;Node17 -->
<g id="edge21" class="edge">
<title>Node16&#45;&gt;Node17</title>
<path fill="none" stroke="#63b8ff" d="M833.57,-257.1C856.73,-267.82 896.88,-286.42 926.54,-300.15"/>
<polygon fill="#63b8ff" stroke="#63b8ff" points="925.21,-303.4 935.76,-304.42 928.16,-297.04 925.21,-303.4"/>
</g>
<!-- Node26 -->
<g id="node26" class="node">
<title>Node26</title>
<g id="a_node26"><a xlink:href="namespacea60.html#aafdf18ade22a9e669299209ed5a8bdc6" target="_top" xlink:title="Once.">
<polygon fill="white" stroke="#666666" points="1017,-267 913,-267 913,-250 1017,-250 1017,-267"/>
<text text-anchor="middle" x="965" y="-256.6" font-family="SourceSans" font-size="8.00">a60::host_ip_address</text>
</a>
</g>
</g>
<!-- Node16&#45;&gt;Node26 -->
<g id="edge33" class="edge">
<title>Node16&#45;&gt;Node26</title>
<path fill="none" stroke="#63b8ff" d="M873.03,-252.39C882.74,-253.05 892.83,-253.72 902.62,-254.38"/>
<polygon fill="#63b8ff" stroke="#63b8ff" points="902.46,-257.88 912.67,-255.06 902.93,-250.89 902.46,-257.88"/>
</g>
<!-- Node16&#45;&gt;Node28 -->
<g id="edge35" class="edge">
<title>Node16&#45;&gt;Node28</title>
<path fill="none" stroke="#63b8ff" d="M832.39,-239.96C845.37,-232.74 862.59,-221.22 873,-206.5 905.64,-160.34 876.41,-130.69 909,-84.5 914.76,-76.34 922.72,-69.2 930.8,-63.3"/>
<polygon fill="#63b8ff" stroke="#63b8ff" points="932.86,-66.13 939.17,-57.62 928.93,-60.34 932.86,-66.13"/>
</g>
<!-- Node18 -->
<g id="node18" class="node">
<title>Node18</title>
<g id="a_node18"><a xlink:href="structa60_1_1geo_1_1country__map.html#a96a87722e7988878c37210a8bb208624" target="_top" xlink:title=" ">
<polygon fill="white" stroke="#666666" points="1177.5,-349.5 1057.5,-349.5 1057.5,-323.5 1177.5,-323.5 1177.5,-349.5"/>
<text text-anchor="start" x="1065.5" y="-339.1" font-family="SourceSans" font-size="8.00">a60::geo::country_map</text>
<text text-anchor="middle" x="1117.5" y="-330.1" font-family="SourceSans" font-size="8.00">::country_code_via_string</text>
</a>
</g>
</g>
<!-- Node17&#45;&gt;Node18 -->
<g id="edge22" class="edge">
<title>Node17&#45;&gt;Node18</title>
<path fill="none" stroke="#63b8ff" d="M1015.7,-323.77C1025.82,-325.05 1036.64,-326.42 1047.3,-327.76"/>
<polygon fill="#63b8ff" stroke="#63b8ff" points="1047.08,-331.26 1057.44,-329.04 1047.96,-324.32 1047.08,-331.26"/>
</g>
<!-- Node20 -->
<g id="node20" class="node">
<title>Node20</title>
<g id="a_node20"><a xlink:href="namespacea60_1_1geo.html#a7d8058b0d2e8d5f5c90dfe2cab6fc462" target="_top" xlink:title=" ">
<polygon fill="white" stroke="#666666" points="1330,-304 1214,-304 1214,-287 1330,-287 1330,-304"/>
<text text-anchor="middle" x="1272" y="-293.6" font-family="SourceSans" font-size="8.00">a60::geo::safe_if_empty</text>
</a>
</g>
</g>
<!-- Node17&#45;&gt;Node20 -->
<g id="edge32" class="edge">
<title>Node17&#45;&gt;Node20</title>
<path fill="none" stroke="#63b8ff" d="M1015.68,-313.92C1066.77,-310.23 1146.68,-304.47 1203.48,-300.37"/>
<polygon fill="#63b8ff" stroke="#63b8ff" points="1204.08,-303.84 1213.8,-299.63 1203.58,-296.85 1204.08,-303.84"/>
</g>
<!-- Node22 -->
<g id="node22" class="node">
<title>Node22</title>
<g id="a_node22"><a xlink:href="structa60_1_1geo_1_1city__map_1_1record.html#a7b30bf979e46ddb75bc274871e4ab367" target="_top" xlink:title=" ">
<polygon fill="white" stroke="#666666" points="1175,-437.5 1060,-437.5 1060,-411.5 1175,-411.5 1175,-437.5"/>
<text text-anchor="start" x="1068" y="-427.1" font-family="SourceSans" font-size="8.00">a60::geo::city_map</text>
<text text-anchor="middle" x="1117.5" y="-418.1" font-family="SourceSans" font-size="8.00">::record::is_record_open</text>
</a>
</g>
</g>
<!-- Node17&#45;&gt;Node22 -->
<g id="edge27" class="edge">
<title>Node17&#45;&gt;Node22</title>
<path fill="none" stroke="#63b8ff" d="M980.6,-330.53C991.75,-340.54 1007.46,-354.77 1021,-367.5 1037.26,-382.79 1038.13,-390.59 1057,-402.5 1059.62,-404.15 1062.38,-405.7 1065.21,-407.16"/>
<polygon fill="#63b8ff" stroke="#63b8ff" points="1063.93,-410.43 1074.47,-411.49 1066.9,-404.09 1063.93,-410.43"/>
</g>
<!-- Node23 -->
<g id="node23" class="node">
<title>Node23</title>
<g id="a_node23"><a xlink:href="structa60_1_1geo_1_1map__base.html#a9215731f10e2fa8488b0e081c2a5cef4" target="_top" xlink:title=" ">
<polygon fill="white" stroke="#666666" points="1168.5,-231.5 1066.5,-231.5 1066.5,-205.5 1168.5,-205.5 1168.5,-231.5"/>
<text text-anchor="start" x="1074.5" y="-221.1" font-family="SourceSans" font-size="8.00">a60::geo::map_base</text>
<text text-anchor="middle" x="1117.5" y="-212.1" font-family="SourceSans" font-size="8.00">::open</text>
</a>
</g>
</g>
<!-- Node17&#45;&gt;Node23 -->
<g id="edge28" class="edge">
<title>Node17&#45;&gt;Node23</title>
<path fill="none" stroke="#63b8ff" d="M984.26,-304.41C995.17,-296.37 1009.17,-285.7 1021,-275.5 1037.9,-260.92 1038.13,-252.41 1057,-240.5 1059.62,-238.85 1062.38,-237.3 1065.21,-235.84"/>
<polygon fill="#63b8ff" stroke="#63b8ff" points="1066.9,-238.91 1074.47,-231.51 1063.93,-232.57 1066.9,-238.91"/>
</g>
<!-- Node25 -->
<g id="node25" class="node">
<title>Node25</title>
<g id="a_node25"><a xlink:href="structa60_1_1geo_1_1city__map.html#a8edb2011397d2166076b33f5187afe18" target="_top" xlink:title=" ">
<polygon fill="white" stroke="#666666" points="1165.5,-393.5 1069.5,-393.5 1069.5,-367.5 1165.5,-367.5 1165.5,-393.5"/>
<text text-anchor="start" x="1077.5" y="-383.1" font-family="SourceSans" font-size="8.00">a60::geo::city_map</text>
<text text-anchor="middle" x="1117.5" y="-374.1" font-family="SourceSans" font-size="8.00">::open_record</text>
</a>
</g>
</g>
<!-- Node17&#45;&gt;Node25 -->
<g id="edge30" class="edge">
<title>Node17&#45;&gt;Node25</title>
<path fill="none" stroke="#63b8ff" d="M993.66,-330.56C1011.59,-338.88 1035.51,-349.7 1057,-358.5 1061.36,-360.28 1065.92,-362.09 1070.49,-363.85"/>
<polygon fill="#63b8ff" stroke="#63b8ff" points="1069.25,-367.12 1079.84,-367.4 1071.74,-360.58 1069.25,-367.12"/>
</g>
<!-- Node19 -->
<g id="node19" class="node">
<title>Node19</title>
<g id="a_node19"><a xlink:href="structa60_1_1geo_1_1map__base.html#ae86685f27b25cdaead9c94752618b2e4" target="_top" xlink:title=" ">
<polygon fill="white" stroke="#666666" points="1323,-401.5 1221,-401.5 1221,-375.5 1323,-375.5 1323,-401.5"/>
<text text-anchor="start" x="1229" y="-391.1" font-family="SourceSans" font-size="8.00">a60::geo::map_base</text>
<text text-anchor="middle" x="1272" y="-382.1" font-family="SourceSans" font-size="8.00">::is_map_open</text>
</a>
</g>
</g>
<!-- Node18&#45;&gt;Node19 -->
<g id="edge23" class="edge">
<title>Node18&#45;&gt;Node19</title>
<path fill="none" stroke="#63b8ff" d="M1156.98,-349.62C1177.11,-356.48 1201.93,-364.95 1223.26,-372.22"/>
<polygon fill="#63b8ff" stroke="#63b8ff" points="1222.2,-375.56 1232.79,-375.47 1224.46,-368.93 1222.2,-375.56"/>
</g>
<!-- Node18&#45;&gt;Node20 -->
<g id="edge24" class="edge">
<title>Node18&#45;&gt;Node20</title>
<path fill="none" stroke="#63b8ff" d="M1167.17,-323.41C1187.21,-318.03 1210.19,-311.85 1229.43,-306.68"/>
<polygon fill="#63b8ff" stroke="#63b8ff" points="1230.37,-310.05 1239.11,-304.07 1228.55,-303.29 1230.37,-310.05"/>
</g>
<!-- Node21 -->
<g id="node21" class="node">
<title>Node21</title>
<g id="a_node21"><a xlink:href="namespacea60_1_1constants.html#a01d9786063fb572d9389b0cd207bbe53" target="_top" xlink:title=" ">
<polygon fill="white" stroke="#666666" points="1321,-339 1223,-339 1223,-322 1321,-322 1321,-339"/>
<text text-anchor="middle" x="1272" y="-328.6" font-family="SourceSans" font-size="8.00">a60::constants::tab</text>
</a>
</g>
</g>
<!-- Node18&#45;&gt;Node21 -->
<g id="edge25" class="edge">
<title>Node18&#45;&gt;Node21</title>
<path fill="none" stroke="#63b8ff" d="M1177.9,-334.16C1189.29,-333.71 1201.22,-333.25 1212.59,-332.8"/>
<polygon fill="#63b8ff" stroke="#63b8ff" points="1212.98,-336.29 1222.84,-332.39 1212.71,-329.29 1212.98,-336.29"/>
</g>
<!-- Node21&#45;&gt;Node21 -->
<g id="edge26" class="edge">
<title>Node21&#45;&gt;Node21</title>
<path fill="none" stroke="#63b8ff" d="M1249.05,-339.19C1236.38,-347.67 1244.03,-357 1272,-357 1290.79,-357 1300.41,-352.79 1300.86,-347.45"/>
<polygon fill="#63b8ff" stroke="#63b8ff" points="1303.61,-345.28 1294.95,-339.19 1297.92,-349.36 1303.61,-345.28"/>
</g>
<!-- Node24 -->
<g id="node24" class="node">
<title>Node24</title>
<g id="a_node24"><a xlink:href="namespacea60_1_1io.html#aa5fbb8ab63397dd45c4a54c0758935ef" target="_top" xlink:title="Sanity check input existence.">
<polygon fill="white" stroke="#666666" points="1324,-231.5 1220,-231.5 1220,-205.5 1324,-205.5 1324,-231.5"/>
<text text-anchor="start" x="1228" y="-221.1" font-family="SourceSans" font-size="8.00">a60::io::sanity_check</text>
<text text-anchor="middle" x="1272" y="-212.1" font-family="SourceSans" font-size="8.00">_input</text>
</a>
</g>
</g>
<!-- Node23&#45;&gt;Node24 -->
<g id="edge29" class="edge">
<title>Node23&#45;&gt;Node24</title>
<path fill="none" stroke="#63b8ff" d="M1168.86,-218.5C1181.92,-218.5 1196.14,-218.5 1209.7,-218.5"/>
<polygon fill="#63b8ff" stroke="#63b8ff" points="1209.91,-222 1219.91,-218.5 1209.91,-215 1209.91,-222"/>
</g>
<!-- Node25&#45;&gt;Node19 -->
<g id="edge31" class="edge">
<title>Node25&#45;&gt;Node19</title>
<path fill="none" stroke="#63b8ff" d="M1165.92,-382.99C1180.12,-383.73 1195.9,-384.56 1210.81,-385.34"/>
<polygon fill="#63b8ff" stroke="#63b8ff" points="1210.8,-388.85 1220.97,-385.88 1211.17,-381.86 1210.8,-388.85"/>
</g>
<!-- Node27 -->
<g id="node27" class="node">
<title>Node27</title>
<g id="a_node27"><a xlink:href="namespacea60.html#ac912026493721c2646a3336faffe1baa" target="_top" xlink:title="Test machine&#39;s address.">
<polygon fill="white" stroke="#666666" points="1178,-267 1057,-267 1057,-250 1178,-250 1178,-267"/>
<text text-anchor="middle" x="1117.5" y="-256.6" font-family="SourceSans" font-size="8.00">a60::get_host_ip_address</text>
</a>
</g>
</g>
<!-- Node26&#45;&gt;Node27 -->
<g id="edge34" class="edge">
<title>Node26&#45;&gt;Node27</title>
<path fill="none" stroke="#63b8ff" d="M1017.37,-258.5C1026.79,-258.5 1036.76,-258.5 1046.61,-258.5"/>
<polygon fill="#63b8ff" stroke="#63b8ff" points="1046.8,-262 1056.8,-258.5 1046.8,-255 1046.8,-262"/>
</g>
<!-- Node28&#45;&gt;Node28 -->
<g id="edge36" class="edge">
<title>Node28&#45;&gt;Node28</title>
<path fill="none" stroke="#63b8ff" d="M939.62,-57.56C931.93,-66.6 940.39,-75.5 965,-75.5 980,-75.5 989,-72.19 992,-67.57"/>
<polygon fill="#63b8ff" stroke="#63b8ff" points="995.43,-66.87 990.38,-57.56 988.52,-67.99 995.43,-66.87"/>
</g>
<!-- Node29&#45;&gt;Node23 -->
<g id="edge45" class="edge">
<title>Node29&#45;&gt;Node23</title>
<path fill="none" stroke="#63b8ff" d="M866.08,-194.67C879.96,-197.18 895.02,-199.67 909,-201.5 958.39,-207.97 1014.74,-212.4 1056.24,-215.12"/>
<polygon fill="#63b8ff" stroke="#63b8ff" points="1056.26,-218.62 1066.46,-215.77 1056.71,-211.64 1056.26,-218.62"/>
</g>
<!-- Node29&#45;&gt;Node26 -->
<g id="edge39" class="edge">
<title>Node29&#45;&gt;Node26</title>
<path fill="none" stroke="#63b8ff" d="M837.46,-197.52C856.3,-208.24 884.05,-223.55 909,-235.5 916.55,-239.11 924.82,-242.74 932.59,-246.01"/>
<polygon fill="#63b8ff" stroke="#63b8ff" points="931.52,-249.35 942.09,-249.93 934.19,-242.88 931.52,-249.35"/>
</g>
<!-- Node29&#45;&gt;Node28 -->
<g id="edge47" class="edge">
<title>Node29&#45;&gt;Node28</title>
<path fill="none" stroke="#63b8ff" d="M825.87,-171.45C842.68,-151.62 876.47,-113.18 909,-84.5 917.39,-77.1 927.1,-69.7 936.01,-63.32"/>
<polygon fill="#63b8ff" stroke="#63b8ff" points="938.06,-66.15 944.23,-57.54 934.04,-60.42 938.06,-66.15"/>
</g>
<!-- Node30 -->
<g id="node30" class="node">
<title>Node30</title>
<g id="a_node30"><a xlink:href="namespacea60.html#ad300edc3a7396b9f52a64f37e9443891" target="_top" xlink:title="No GeoIP.">
<polygon fill="white" stroke="#666666" points="1171,-152 1064,-152 1064,-135 1171,-135 1171,-152"/>
<text text-anchor="middle" x="1117.5" y="-141.6" font-family="SourceSans" font-size="8.00">a60::make_meta_peer</text>
</a>
</g>
</g>
<!-- Node29&#45;&gt;Node30 -->
<g id="edge40" class="edge">
<title>Node29&#45;&gt;Node30</title>
<path fill="none" stroke="#63b8ff" d="M866.1,-173.96C879.98,-171.3 895.03,-168.61 909,-166.5 957.4,-159.19 1012.49,-153.2 1053.73,-149.16"/>
<polygon fill="#63b8ff" stroke="#63b8ff" points="1054.29,-152.62 1063.9,-148.17 1053.61,-145.65 1054.29,-152.62"/>
</g>
<!-- Node31 -->
<g id="node31" class="node">
<title>Node31</title>
<g id="a_node31"><a xlink:href="namespacea60.html#a9d37f2f6f8a4b125ee6304d15a118f61" target="_top" xlink:title=" ">
<polygon fill="white" stroke="#666666" points="1021,-193 909,-193 909,-176 1021,-176 1021,-193"/>
<text text-anchor="middle" x="965" y="-182.6" font-family="SourceSans" font-size="8.00">a60::make_meta_peers</text>
</a>
</g>
</g>
<!-- Node29&#45;&gt;Node31 -->
<g id="edge41" class="edge">
<title>Node29&#45;&gt;Node31</title>
<path fill="none" stroke="#63b8ff" d="M866.28,-184.5C876.68,-184.5 887.74,-184.5 898.56,-184.5"/>
<polygon fill="#63b8ff" stroke="#63b8ff" points="898.81,-188 908.81,-184.5 898.81,-181 898.81,-188"/>
</g>
<!-- Node33 -->
<g id="node33" class="node">
<title>Node33</title>
<g id="a_node33"><a xlink:href="namespacea60.html#a2228baa081fe66cea91ed8032bda4732" target="_top" xlink:title="Serialize meta_peer.">
<polygon fill="white" stroke="#666666" points="1014,-119.5 916,-119.5 916,-93.5 1014,-93.5 1014,-119.5"/>
<text text-anchor="start" x="924" y="-109.1" font-family="SourceSans" font-size="8.00">a60::serialize_meta</text>
<text text-anchor="middle" x="965" y="-100.1" font-family="SourceSans" font-size="8.00">_peer_json</text>
</a>
</g>
</g>
<!-- Node29&#45;&gt;Node33 -->
<g id="edge46" class="edge">
<title>Node29&#45;&gt;Node33</title>
<path fill="none" stroke="#63b8ff" d="M838.42,-171.45C857.36,-160.98 884.75,-146.02 909,-133.5 915.03,-130.38 921.48,-127.14 927.75,-124.03"/>
<polygon fill="#63b8ff" stroke="#63b8ff" points="929.33,-127.16 936.75,-119.6 926.24,-120.88 929.33,-127.16"/>
</g>
<!-- Node31&#45;&gt;Node23 -->
<g id="edge44" class="edge">
<title>Node31&#45;&gt;Node23</title>
<path fill="none" stroke="#63b8ff" d="M1003.98,-193.08C1019.77,-196.65 1038.5,-200.88 1056.1,-204.85"/>
<polygon fill="#63b8ff" stroke="#63b8ff" points="1055.78,-208.37 1066.3,-207.16 1057.32,-201.54 1055.78,-208.37"/>
</g>
<!-- Node31&#45;&gt;Node30 -->
<g id="edge42" class="edge">
<title>Node31&#45;&gt;Node30</title>
<path fill="none" stroke="#63b8ff" d="M997.55,-175.91C1020.2,-169.73 1050.94,-161.36 1075.49,-154.67"/>
<polygon fill="#63b8ff" stroke="#63b8ff" points="1076.52,-158.02 1085.25,-152.01 1074.68,-151.26 1076.52,-158.02"/>
</g>
<!-- Node32 -->
<g id="node32" class="node">
<title>Node32</title>
<g id="a_node32"><a xlink:href="namespacea60.html#afa4b02aa30f3ff7828561abb787ede03" target="_top" xlink:title="Less than compare for meta_peer via geo.">
<polygon fill="white" stroke="#666666" points="1172.5,-187 1062.5,-187 1062.5,-170 1172.5,-170 1172.5,-187"/>
<text text-anchor="middle" x="1117.5" y="-176.6" font-family="SourceSans" font-size="8.00">a60::meta_peer_lt_geo</text>
</a>
</g>
</g>
<!-- Node31&#45;&gt;Node32 -->
<g id="edge43" class="edge">
<title>Node31&#45;&gt;Node32</title>
<path fill="none" stroke="#63b8ff" d="M1021.19,-182.3C1031.25,-181.9 1041.84,-181.48 1052.14,-181.07"/>
<polygon fill="#63b8ff" stroke="#63b8ff" points="1052.47,-184.56 1062.33,-180.66 1052.19,-177.56 1052.47,-184.56"/>
</g>
<!-- Node35&#45;&gt;Node3 -->
<g id="edge53" class="edge">
<title>Node35&#45;&gt;Node3</title>
<path fill="none" stroke="#63b8ff" d="M861.74,-437.73C876.16,-441.51 892.2,-445.71 907.22,-449.64"/>
<polygon fill="#63b8ff" stroke="#63b8ff" points="906.36,-453.03 916.92,-452.18 908.13,-446.26 906.36,-453.03"/>
</g>
<!-- Node35&#45;&gt;Node4 -->
<g id="edge52" class="edge">
<title>Node35&#45;&gt;Node4</title>
<path fill="none" stroke="#63b8ff" d="M861.86,-427.44C903.76,-429.63 966.75,-434.06 1021,-442.5 1038.68,-445.25 1057.95,-449.46 1074.52,-453.45"/>
<polygon fill="#63b8ff" stroke="#63b8ff" points="1073.91,-456.91 1084.45,-455.9 1075.58,-450.11 1073.91,-456.91"/>
</g>
</g>
</svg>
        <g id="navigator" transform="translate(0 0)" fill="#404254">
                <rect fill="#f2f5e9" fill-opacity="0.5" stroke="#606060" stroke-width=".5" x="0" y="0" width="60" height="60"/>
                <use id="zoomplus" xlink:href="#zoomPlus" x="17" y="9" onmousedown="handleZoom(evt,'in')"/>
                <use id="zoomminus" xlink:href="#zoomMin" x="42" y="9" onmousedown="handleZoom(evt,'out')"/>
                <use id="reset" xlink:href="#resetDef" x="30" y="36" onmousedown="handleReset()"/>
                <g id="arrowUp" xlink:href="#dirArrow" transform="translate(30 24)" onmousedown="handlePan(0,-1)">
                  <use xlink:href="#rim" fill="#404040">
                        <set attributeName="fill" to="#808080" begin="arrowUp.mouseover" end="arrowUp.mouseout"/>
                  </use>
                  <path fill="none" stroke="white" stroke-width="1.5" d="M0,-3.0v7 M-2.5,-0.5L0,-3.0L2.5,-0.5"/>
                </g>
                <g id="arrowRight" xlink:href="#dirArrow" transform="rotate(90) translate(36 -43)" onmousedown="handlePan(1,0)">
                  <use xlink:href="#rim" fill="#404040">
                        <set attributeName="fill" to="#808080" begin="arrowRight.mouseover" end="arrowRight.mouseout"/>
                  </use>
                  <path fill="none" stroke="white" stroke-width="1.5" d="M0,-3.0v7 M-2.5,-0.5L0,-3.0L2.5,-0.5"/>
                </g>
                <g id="arrowDown" xlink:href="#dirArrow" transform="rotate(180) translate(-30 -48)" onmousedown="handlePan(0,1)">
                  <use xlink:href="#rim" fill="#404040">
                        <set attributeName="fill" to="#808080" begin="arrowDown.mouseover" end="arrowDown.mouseout"/>
                  </use>
                  <path fill="none" stroke="white" stroke-width="1.5" d="M0,-3.0v7 M-2.5,-0.5L0,-3.0L2.5,-0.5"/>
                </g>
                <g id="arrowLeft" xlink:href="#dirArrow" transform="rotate(270) translate(-36 17)" onmousedown="handlePan(-1,0)">
                  <use xlink:href="#rim" fill="#404040">
                        <set attributeName="fill" to="#808080" begin="arrowLeft.mouseover" end="arrowLeft.mouseout"/>
                  </use>
                  <path fill="none" stroke="white" stroke-width="1.5" d="M0,-3.0v7 M-2.5,-0.5L0,-3.0L2.5,-0.5"/>
                </g>
        </g>
        <svg viewBox="0 0 15 15" width="100%" height="30px" preserveAspectRatio="xMaxYMin meet">
         <g id="arrow_out" transform="scale(0.3 0.3)">
          <a xlink:href="a60-sample-dump-multi_8cc_ab58b216d67bfd918b0255bf7e25f1ca1_cgraph_org.svg" target="_base">
           <rect id="button" ry="5" rx="5" y="6" x="6" height="38" width="38"
                fill="#f2f5e9" fill-opacity="0.5" stroke="#606060" stroke-width="1.0"/>
           <path id="arrow"
             d="M 11.500037,31.436501 C 11.940474,20.09759 22.043105,11.32322 32.158766,21.979434 L 37.068811,17.246167 C 37.068811,17.246167 37.088388,32 37.088388,32 L 22.160133,31.978069 C 22.160133,31.978069 26.997745,27.140456 26.997745,27.140456 C 18.528582,18.264221 13.291696,25.230495 11.500037,31.436501 z"
             style="fill:#404040;"/>
          </a>
         </g>
        </svg>
</svg>
