<?xml version="1.0" encoding="UTF-8" standalone="no"?>
<!DOCTYPE svg PUBLIC "-//W3C//DTD SVG 1.1//EN"
 "http://www.w3.org/Graphics/SVG/1.1/DTD/svg11.dtd">
<!-- Generated by graphviz version 5.0.0 (0)
 -->
<!-- Title: base_thread_pool::base_thread_pool Pages: 1 -->
<svg width="625pt" height="60pt"
 viewBox="0.00 0.00 625.00 60.00" xmlns="http://www.w3.org/2000/svg" xmlns:xlink="http://www.w3.org/1999/xlink">
<g id="graph0" class="graph" transform="scale(1 1) rotate(0) translate(4 56)">
<title>base_thread_pool::base_thread_pool</title>
<!-- Node1 -->
<g id="node1" class="node">
<title>Node1</title>
<g id="a_node1"><a xlink:title=" ">
<polygon fill="#999999" stroke="#666666" points="115,-38.5 0,-38.5 0,-12.5 115,-12.5 115,-38.5"/>
<text text-anchor="start" x="8" y="-28.1" font-family="SourceSans" font-size="8.00">base_thread_pool::base</text>
<text text-anchor="middle" x="57.5" y="-19.1" font-family="SourceSans" font-size="8.00">_thread_pool</text>
</a>
</g>
</g>
<!-- Node2 -->
<g id="node2" class="node">
<title>Node2</title>
<g id="a_node2"><a xlink:href="classbase__thread__pool.html#aa82c863e3f13aee3a9e5691b79c39433" target="_top" xlink:title=" ">
<polygon fill="white" stroke="#666666" points="258,-38.5 151,-38.5 151,-12.5 258,-12.5 258,-38.5"/>
<text text-anchor="start" x="159" y="-28.1" font-family="SourceSans" font-size="8.00">base_thread_pool::init</text>
<text text-anchor="middle" x="204.5" y="-19.1" font-family="SourceSans" font-size="8.00">_threads</text>
</a>
</g>
</g>
<!-- Node1&#45;&gt;Node2 -->
<g id="edge1" class="edge">
<title>Node1&#45;&gt;Node2</title>
<path fill="none" stroke="#63b8ff" d="M115.39,-25.5C123.63,-25.5 132.14,-25.5 140.49,-25.5"/>
<polygon fill="#63b8ff" stroke="#63b8ff" points="140.56,-29 150.56,-25.5 140.56,-22 140.56,-29"/>
</g>
<!-- Node3 -->
<g id="node3" class="node">
<title>Node3</title>
<g id="a_node3"><a xlink:href="classbase__thread__pool.html#ad38ba20da69d96a5e935ed4749e7a28c" target="_top" xlink:title=" ">
<polygon fill="white" stroke="#666666" points="437,-34 294,-34 294,-17 437,-17 437,-34"/>
<text text-anchor="middle" x="365.5" y="-23.6" font-family="SourceSans" font-size="8.00">base_thread_pool::thread_func</text>
</a>
</g>
</g>
<!-- Node2&#45;&gt;Node3 -->
<g id="edge2" class="edge">
<title>Node2&#45;&gt;Node3</title>
<path fill="none" stroke="#63b8ff" d="M258,-25.5C266.26,-25.5 274.96,-25.5 283.68,-25.5"/>
<polygon fill="#63b8ff" stroke="#63b8ff" points="283.9,-29 293.9,-25.5 283.9,-22 283.9,-29"/>
</g>
<!-- Node4 -->
<g id="node4" class="node">
<title>Node4</title>
<g id="a_node4"><a xlink:href="classbase__thread__pool.html#a26dbb8b73b03c984475073e9d8ca106d" target="_top" xlink:title=" ">
<polygon fill="white" stroke="#666666" points="609.5,-52 480.5,-52 480.5,-35 609.5,-35 609.5,-52"/>
<text text-anchor="middle" x="545" y="-41.6" font-family="SourceSans" font-size="8.00">base_thread_pool::get_task</text>
</a>
</g>
</g>
<!-- Node3&#45;&gt;Node4 -->
<g id="edge3" class="edge">
<title>Node3&#45;&gt;Node4</title>
<path fill="none" stroke="#63b8ff" d="M437.16,-32.67C448.12,-33.78 459.46,-34.93 470.47,-36.04"/>
<polygon fill="#63b8ff" stroke="#63b8ff" points="470.18,-39.53 480.48,-37.06 470.88,-32.57 470.18,-39.53"/>
</g>
<!-- Node5 -->
<g id="node5" class="node">
<title>Node5</title>
<g id="a_node5"><a xlink:href="classbase__thread__pool.html#a848ed2050ce67936ef04130e50d8f97d" target="_top" xlink:title=" ">
<polygon fill="white" stroke="#666666" points="617,-17 473,-17 473,0 617,0 617,-17"/>
<text text-anchor="middle" x="545" y="-6.6" font-family="SourceSans" font-size="8.00">base_thread_pool::handle_task</text>
</a>
</g>
</g>
<!-- Node3&#45;&gt;Node5 -->
<g id="edge4" class="edge">
<title>Node3&#45;&gt;Node5</title>
<path fill="none" stroke="#63b8ff" d="M437.16,-18.73C445.57,-17.93 454.2,-17.1 462.75,-16.28"/>
<polygon fill="#63b8ff" stroke="#63b8ff" points="463.09,-19.77 472.71,-15.33 462.42,-12.8 463.09,-19.77"/>
</g>
</g>
</svg>
