<?xml version="1.0" encoding="UTF-8" standalone="no"?>
<!DOCTYPE svg PUBLIC "-//W3C//DTD SVG 1.1//EN"
 "http://www.w3.org/Graphics/SVG/1.1/DTD/svg11.dtd">
<!-- Generated by graphviz version 5.0.0 (0)
 -->
<!-- Title: thread_pool::~thread_pool Pages: 1 -->
<svg width="283pt" height="48pt"
 viewBox="0.00 0.00 283.00 47.50" xmlns="http://www.w3.org/2000/svg" xmlns:xlink="http://www.w3.org/1999/xlink">
<g id="graph0" class="graph" transform="scale(1 1) rotate(0) translate(4 43.5)">
<title>thread_pool::~thread_pool</title>
<!-- Node1 -->
<g id="node1" class="node">
<title>Node1</title>
<g id="a_node1"><a xlink:title=" ">
<polygon fill="#999999" stroke="#666666" points="125,-21.5 0,-21.5 0,-4.5 125,-4.5 125,-21.5"/>
<text text-anchor="middle" x="62.5" y="-11.1" font-family="SourceSans" font-size="8.00">thread_pool::~thread_pool</text>
</a>
</g>
</g>
<!-- Node1&#45;&gt;Node1 -->
<g id="edge1" class="edge">
<title>Node1&#45;&gt;Node1</title>
<path fill="none" stroke="#63b8ff" d="M39.55,-21.69C26.88,-30.17 34.53,-39.5 62.5,-39.5 81.29,-39.5 90.91,-35.29 91.36,-29.95"/>
<polygon fill="#63b8ff" stroke="#63b8ff" points="94.11,-27.78 85.45,-21.69 88.42,-31.86 94.11,-27.78"/>
</g>
<!-- Node2 -->
<g id="node2" class="node">
<title>Node2</title>
<g id="a_node2"><a xlink:href="classbase__thread__pool.html#a872b6b551206881e0fa6021341b6250b" target="_top" xlink:title=" ">
<polygon fill="white" stroke="#666666" points="275,-26 161,-26 161,0 275,0 275,-26"/>
<text text-anchor="start" x="169" y="-15.6" font-family="SourceSans" font-size="8.00">base_thread_pool&lt; std</text>
<text text-anchor="middle" x="218" y="-6.6" font-family="SourceSans" font-size="8.00">::future&lt; void &gt; &gt;::wait</text>
</a>
</g>
</g>
<!-- Node1&#45;&gt;Node2 -->
<g id="edge2" class="edge">
<title>Node1&#45;&gt;Node2</title>
<path fill="none" stroke="#63b8ff" d="M125.05,-13C133.47,-13 142.14,-13 150.65,-13"/>
<polygon fill="#63b8ff" stroke="#63b8ff" points="150.9,-16.5 160.9,-13 150.9,-9.5 150.9,-16.5"/>
</g>
</g>
</svg>
