<?xml version="1.0" encoding="UTF-8" standalone="no"?>
<!DOCTYPE svg PUBLIC "-//W3C//DTD SVG 1.1//EN"
 "http://www.w3.org/Graphics/SVG/1.1/DTD/svg11.dtd">
<!-- Generated by graphviz version 5.0.0 (0)
 -->
<!-- Title: a60::augment_wgeo_peers_location Pages: 1 -->
<svg width="620pt" height="149pt"
 viewBox="0.00 0.00 620.00 148.50" xmlns="http://www.w3.org/2000/svg" xmlns:xlink="http://www.w3.org/1999/xlink">
<g id="graph0" class="graph" transform="scale(1 1) rotate(0) translate(4 144.5)">
<title>a60::augment_wgeo_peers_location</title>
<!-- Node1 -->
<g id="node1" class="node">
<title>Node1</title>
<g id="a_node1"><a xlink:title="Scaling proportional to circle area (aratio, adivisor) aratio == 1 GOT, 3 others adivisor == 4 GOT,...">
<polygon fill="#999999" stroke="#666666" points="128,-90 0,-90 0,-64 128,-64 128,-90"/>
<text text-anchor="start" x="8" y="-79.6" font-family="SourceSans" font-size="8.00">a60::augment_wgeo_peers</text>
<text text-anchor="middle" x="64" y="-70.6" font-family="SourceSans" font-size="8.00">_location</text>
</a>
</g>
</g>
<!-- Node2 -->
<g id="node2" class="node">
<title>Node2</title>
<g id="a_node2"><a xlink:href="namespacea60.html#ac997b39099fe8c748ee393875dd23c9e" target="_top" xlink:title=" ">
<polygon fill="white" stroke="#666666" points="298,-85.5 164,-85.5 164,-68.5 298,-68.5 298,-85.5"/>
<text text-anchor="middle" x="231" y="-75.1" font-family="SourceSans" font-size="8.00">a60::augment_peer_location</text>
</a>
</g>
</g>
<!-- Node1&#45;&gt;Node2 -->
<g id="edge1" class="edge">
<title>Node1&#45;&gt;Node2</title>
<path fill="none" stroke="#63b8ff" d="M128.32,-77C136.59,-77 145.13,-77 153.59,-77"/>
<polygon fill="#63b8ff" stroke="#63b8ff" points="153.84,-80.5 163.84,-77 153.84,-73.5 153.84,-80.5"/>
</g>
<!-- Node3 -->
<g id="node3" class="node">
<title>Node3</title>
<g id="a_node3"><a xlink:href="namespacea60.html#a935512b7346e03fbd98295ec07511666" target="_top" xlink:title=" ">
<polygon fill="white" stroke="#666666" points="450,-140.5 334,-140.5 334,-123.5 450,-123.5 450,-140.5"/>
<text text-anchor="middle" x="392" y="-130.1" font-family="SourceSans" font-size="8.00">a60::augment_peer_text</text>
</a>
</g>
</g>
<!-- Node2&#45;&gt;Node3 -->
<g id="edge2" class="edge">
<title>Node2&#45;&gt;Node3</title>
<path fill="none" stroke="#63b8ff" d="M253.74,-85.58C274.29,-93.57 306.05,-105.64 334,-115 339.58,-116.87 345.51,-118.75 351.34,-120.54"/>
<polygon fill="#63b8ff" stroke="#63b8ff" points="350.42,-123.92 361,-123.46 352.44,-117.22 350.42,-123.92"/>
</g>
<!-- Node4 -->
<g id="node4" class="node">
<title>Node4</title>
<g id="a_node4"><a xlink:href="namespacea60.html#a67a216731ae229be675dbcbfa228d865" target="_top" xlink:title=" ">
<polygon fill="white" stroke="#666666" points="442.5,-105.5 341.5,-105.5 341.5,-88.5 442.5,-88.5 442.5,-105.5"/>
<text text-anchor="middle" x="392" y="-95.1" font-family="SourceSans" font-size="8.00">a60::convert_to_utf8</text>
</a>
</g>
</g>
<!-- Node2&#45;&gt;Node4 -->
<g id="edge3" class="edge">
<title>Node2&#45;&gt;Node4</title>
<path fill="none" stroke="#63b8ff" d="M298.05,-85.31C309.04,-86.69 320.39,-88.12 331.21,-89.48"/>
<polygon fill="#63b8ff" stroke="#63b8ff" points="331.04,-92.99 341.4,-90.76 331.92,-86.04 331.04,-92.99"/>
</g>
<!-- Node6 -->
<g id="node6" class="node">
<title>Node6</title>
<g id="a_node6"><a xlink:href="namespacea60.html#a63bf2b0abf68edc3f3e74a0811fe771b" target="_top" xlink:title="Error checking support. Null Island Check (aka latitude and longitude set to zero).">
<polygon fill="white" stroke="#666666" points="445.5,-70 338.5,-70 338.5,-44 445.5,-44 445.5,-70"/>
<text text-anchor="start" x="346.5" y="-59.6" font-family="SourceSans" font-size="8.00">a60::is_meta_peer_on</text>
<text text-anchor="middle" x="392" y="-50.6" font-family="SourceSans" font-size="8.00">_null_island</text>
</a>
</g>
</g>
<!-- Node2&#45;&gt;Node6 -->
<g id="edge5" class="edge">
<title>Node2&#45;&gt;Node6</title>
<path fill="none" stroke="#63b8ff" d="M298.05,-68.69C308.05,-67.43 318.35,-66.14 328.28,-64.89"/>
<polygon fill="#63b8ff" stroke="#63b8ff" points="328.99,-68.33 338.47,-63.61 328.12,-61.38 328.99,-68.33"/>
</g>
<!-- Node7 -->
<g id="node7" class="node">
<title>Node7</title>
<g id="a_node7"><a xlink:href="structa60_1_1carto_1_1cartography.html#a57e14cabb4993189316e369a27752a73" target="_top" xlink:title=" ">
<polygon fill="white" stroke="#666666" points="449.5,-26 334.5,-26 334.5,0 449.5,0 449.5,-26"/>
<text text-anchor="start" x="342.5" y="-15.6" font-family="SourceSans" font-size="8.00">a60::carto::cartography</text>
<text text-anchor="middle" x="392" y="-6.6" font-family="SourceSans" font-size="8.00">::to_point_2d</text>
</a>
</g>
</g>
<!-- Node2&#45;&gt;Node7 -->
<g id="edge6" class="edge">
<title>Node2&#45;&gt;Node7</title>
<path fill="none" stroke="#63b8ff" d="M252.27,-68.5C272.81,-59.92 305.54,-46.35 334,-35 338.39,-33.25 342.97,-31.44 347.56,-29.65"/>
<polygon fill="#63b8ff" stroke="#63b8ff" points="348.84,-32.91 356.89,-26.02 346.3,-26.38 348.84,-32.91"/>
</g>
<!-- Node5 -->
<g id="node5" class="node">
<title>Node5</title>
<g id="a_node5"><a xlink:href="namespacea60.html#a1c4e23f164dec11b9fee53e2292af224" target="_top" xlink:title="Convert MaxMind GeoIP information from ISO&#45;8859&#45;1 encoding to UTF&#45;8.">
<polygon fill="white" stroke="#666666" points="612,-105.5 486,-105.5 486,-88.5 612,-88.5 612,-105.5"/>
<text text-anchor="middle" x="549" y="-95.1" font-family="SourceSans" font-size="8.00">a60::convert_8859_to_utf8</text>
</a>
</g>
</g>
<!-- Node4&#45;&gt;Node5 -->
<g id="edge4" class="edge">
<title>Node4&#45;&gt;Node5</title>
<path fill="none" stroke="#63b8ff" d="M442.9,-97C453.4,-97 464.68,-97 475.81,-97"/>
<polygon fill="#63b8ff" stroke="#63b8ff" points="475.97,-100.5 485.97,-97 475.97,-93.5 475.97,-100.5"/>
</g>
</g>
</svg>
