<?xml version="1.0" encoding="UTF-8" standalone="no"?>
<!DOCTYPE svg PUBLIC "-//W3C//DTD SVG 1.1//EN"
 "http://www.w3.org/Graphics/SVG/1.1/DTD/svg11.dtd">
<!-- Generated by graphviz version 5.0.0 (0)
 -->
<!-- Title: a60::serialize_btiha_summary Pages: 1 -->
<svg width="422pt" height="140pt"
 viewBox="0.00 0.00 422.00 139.50" xmlns="http://www.w3.org/2000/svg" xmlns:xlink="http://www.w3.org/1999/xlink">
<g id="graph0" class="graph" transform="scale(1 1) rotate(0) translate(4 135.5)">
<title>a60::serialize_btiha_summary</title>
<!-- Node1 -->
<g id="node1" class="node">
<title>Node1</title>
<g id="a_node1"><a xlink:title="Assumes weigh() and then summarize_swarm()">
<polygon fill="#999999" stroke="#666666" points="98,-83 0,-83 0,-57 98,-57 98,-83"/>
<text text-anchor="start" x="8" y="-72.6" font-family="SourceSans" font-size="8.00">a60::serialize_btiha</text>
<text text-anchor="middle" x="49" y="-63.6" font-family="SourceSans" font-size="8.00">_summary</text>
</a>
</g>
</g>
<!-- Node2 -->
<g id="node2" class="node">
<title>Node2</title>
<g id="a_node2"><a xlink:href="namespacea60.html#a8b7adb162bb4ef4bdf937a7a75bc3e1e" target="_top" xlink:title=" ">
<polygon fill="white" stroke="#666666" points="265.5,-131.5 141.5,-131.5 141.5,-114.5 265.5,-114.5 265.5,-131.5"/>
<text text-anchor="middle" x="203.5" y="-121.1" font-family="SourceSans" font-size="8.00">a60::serialize_percentage</text>
</a>
</g>
</g>
<!-- Node1&#45;&gt;Node2 -->
<g id="edge1" class="edge">
<title>Node1&#45;&gt;Node2</title>
<path fill="none" stroke="#63b8ff" d="M77.56,-83.15C93.75,-90.53 114.75,-99.53 134,-106 140.32,-108.12 147.05,-110.11 153.73,-111.93"/>
<polygon fill="#63b8ff" stroke="#63b8ff" points="152.86,-115.32 163.42,-114.46 154.63,-108.55 152.86,-115.32"/>
</g>
<!-- Node3 -->
<g id="node3" class="node">
<title>Node3</title>
<g id="a_node3"><a xlink:href="namespacea60.html#a4e8b0cabed112734147b499bf0cc9029" target="_top" xlink:title="Conversion of resolution_mode to string.">
<polygon fill="white" stroke="#666666" points="240.5,-78.5 166.5,-78.5 166.5,-61.5 240.5,-61.5 240.5,-78.5"/>
<text text-anchor="middle" x="203.5" y="-68.1" font-family="SourceSans" font-size="8.00">a60::to_string</text>
</a>
</g>
</g>
<!-- Node1&#45;&gt;Node3 -->
<g id="edge2" class="edge">
<title>Node1&#45;&gt;Node3</title>
<path fill="none" stroke="#63b8ff" d="M98.25,-70C116.72,-70 137.73,-70 156.03,-70"/>
<polygon fill="#63b8ff" stroke="#63b8ff" points="156.17,-73.5 166.17,-70 156.17,-66.5 156.17,-73.5"/>
</g>
<!-- Node4 -->
<g id="node4" class="node">
<title>Node4</title>
<g id="a_node4"><a xlink:href="namespacea60.html#a1f3d90a57e2a63d06c3c5e8efdfda9d4" target="_top" xlink:title=" ">
<polygon fill="white" stroke="#666666" points="273,-43.5 134,-43.5 134,-26.5 273,-26.5 273,-43.5"/>
<text text-anchor="middle" x="203.5" y="-33.1" font-family="SourceSans" font-size="8.00">a60::weigh_unique_collection</text>
</a>
</g>
</g>
<!-- Node1&#45;&gt;Node4 -->
<g id="edge4" class="edge">
<title>Node1&#45;&gt;Node4</title>
<path fill="none" stroke="#63b8ff" d="M98.25,-58.93C116.51,-54.74 137.26,-49.97 155.41,-45.81"/>
<polygon fill="#63b8ff" stroke="#63b8ff" points="156.23,-49.21 165.19,-43.56 154.66,-42.39 156.23,-49.21"/>
</g>
<!-- Node3&#45;&gt;Node3 -->
<g id="edge3" class="edge">
<title>Node3&#45;&gt;Node3</title>
<path fill="none" stroke="#63b8ff" d="M180.55,-78.69C167.88,-87.17 175.53,-96.5 203.5,-96.5 222.29,-96.5 231.91,-92.29 232.36,-86.95"/>
<polygon fill="#63b8ff" stroke="#63b8ff" points="235.11,-84.78 226.45,-78.69 229.42,-88.86 235.11,-84.78"/>
</g>
<!-- Node5 -->
<g id="node5" class="node">
<title>Node5</title>
<g id="a_node5"><a xlink:href="structa60_1_1swarm__gcache.html#a52c65b0040757a229beb63361678c73b" target="_top" xlink:title="Count of total added before weighing, should match weights &#45; anomalies.">
<polygon fill="white" stroke="#666666" points="414,-70 309,-70 309,-44 414,-44 414,-70"/>
<text text-anchor="start" x="317" y="-59.6" font-family="SourceSans" font-size="8.00">a60::swarm_gcache::</text>
<text text-anchor="middle" x="361.5" y="-50.6" font-family="SourceSans" font-size="8.00">summarize_totals</text>
</a>
</g>
</g>
<!-- Node4&#45;&gt;Node5 -->
<g id="edge5" class="edge">
<title>Node4&#45;&gt;Node5</title>
<path fill="none" stroke="#63b8ff" d="M264.81,-43.51C275.97,-45.08 287.64,-46.73 298.84,-48.3"/>
<polygon fill="#63b8ff" stroke="#63b8ff" points="298.57,-51.8 308.97,-49.73 299.55,-44.87 298.57,-51.8"/>
</g>
<!-- Node6 -->
<g id="node6" class="node">
<title>Node6</title>
<g id="a_node6"><a xlink:href="structa60_1_1swarm__gcache.html#af7d9f24d11c6fd83baf2f2593034a6c4" target="_top" xlink:title="Insert ranked peers into ordered set. Top n will be the first n results. Input depends on peer or see...">
<polygon fill="white" stroke="#666666" points="414,-26 309,-26 309,0 414,0 414,-26"/>
<text text-anchor="start" x="317" y="-15.6" font-family="SourceSans" font-size="8.00">a60::swarm_gcache::</text>
<text text-anchor="middle" x="361.5" y="-6.6" font-family="SourceSans" font-size="8.00">weigh</text>
</a>
</g>
</g>
<!-- Node4&#45;&gt;Node6 -->
<g id="edge6" class="edge">
<title>Node4&#45;&gt;Node6</title>
<path fill="none" stroke="#63b8ff" d="M264.81,-26.49C275.97,-24.92 287.64,-23.27 298.84,-21.7"/>
<polygon fill="#63b8ff" stroke="#63b8ff" points="299.55,-25.13 308.97,-20.27 298.57,-18.2 299.55,-25.13"/>
</g>
</g>
</svg>
