<?xml version="1.0" encoding="UTF-8" standalone="no"?>
<!DOCTYPE svg PUBLIC "-//W3C//DTD SVG 1.1//EN"
 "http://www.w3.org/Graphics/SVG/1.1/DTD/svg11.dtd">
<!-- Generated by graphviz version 5.0.0 (0)
 -->
<!-- Title: a60::weigh_sort_unique_collection Pages: 1 -->
<svg width="302pt" height="166pt"
 viewBox="0.00 0.00 302.00 166.00" xmlns="http://www.w3.org/2000/svg" xmlns:xlink="http://www.w3.org/1999/xlink">
<g id="graph0" class="graph" transform="scale(1 1) rotate(0) translate(4 162)">
<title>a60::weigh_sort_unique_collection</title>
<!-- Node1 -->
<g id="node1" class="node">
<title>Node1</title>
<g id="a_node1"><a xlink:title=" ">
<polygon fill="#999999" stroke="#666666" points="115,-92 0,-92 0,-66 115,-66 115,-92"/>
<text text-anchor="start" x="8" y="-81.6" font-family="SourceSans" font-size="8.00">a60::weigh_sort_unique</text>
<text text-anchor="middle" x="57.5" y="-72.6" font-family="SourceSans" font-size="8.00">_collection</text>
</a>
</g>
</g>
<!-- Node2 -->
<g id="node2" class="node">
<title>Node2</title>
<g id="a_node2"><a xlink:href="structa60_1_1swarm__gcache.html#af752f05e47718f1abac72ef3bf4f22b1" target="_top" xlink:title="Sort the accumulated elements so that the torrents with the largest number of (peers,...">
<polygon fill="white" stroke="#666666" points="294,-158 151,-158 151,-132 294,-132 294,-158"/>
<text text-anchor="start" x="159" y="-147.6" font-family="SourceSans" font-size="8.00">a60::swarm_gcache::</text>
<text text-anchor="middle" x="222.5" y="-138.6" font-family="SourceSans" font-size="8.00">sort_by_swarm_mode_and_size</text>
</a>
</g>
</g>
<!-- Node1&#45;&gt;Node2 -->
<g id="edge1" class="edge">
<title>Node1&#45;&gt;Node2</title>
<path fill="none" stroke="#63b8ff" d="M83.59,-92.12C101.96,-101.44 127.65,-113.86 151,-123 156.07,-124.99 161.41,-126.92 166.77,-128.76"/>
<polygon fill="#63b8ff" stroke="#63b8ff" points="165.82,-132.14 176.42,-131.98 168.03,-125.49 165.82,-132.14"/>
</g>
<!-- Node3 -->
<g id="node3" class="node">
<title>Node3</title>
<g id="a_node3"><a xlink:href="structa60_1_1swarm__gcache.html#a9db2cb6e5bf6d1200cd8d389a398e252" target="_top" xlink:title=" ">
<polygon fill="white" stroke="#666666" points="275,-114 170,-114 170,-88 275,-88 275,-114"/>
<text text-anchor="start" x="178" y="-103.6" font-family="SourceSans" font-size="8.00">a60::swarm_gcache::</text>
<text text-anchor="middle" x="222.5" y="-94.6" font-family="SourceSans" font-size="8.00">summarize_swarm</text>
</a>
</g>
</g>
<!-- Node1&#45;&gt;Node3 -->
<g id="edge2" class="edge">
<title>Node1&#45;&gt;Node3</title>
<path fill="none" stroke="#63b8ff" d="M115.05,-86.63C129.55,-88.59 145.2,-90.7 159.94,-92.69"/>
<polygon fill="#63b8ff" stroke="#63b8ff" points="159.58,-96.17 169.96,-94.04 160.52,-89.24 159.58,-96.17"/>
</g>
<!-- Node4 -->
<g id="node4" class="node">
<title>Node4</title>
<g id="a_node4"><a xlink:href="structa60_1_1swarm__gcache.html#a52c65b0040757a229beb63361678c73b" target="_top" xlink:title="Count of total added before weighing, should match weights &#45; anomalies.">
<polygon fill="white" stroke="#666666" points="275,-70 170,-70 170,-44 275,-44 275,-70"/>
<text text-anchor="start" x="178" y="-59.6" font-family="SourceSans" font-size="8.00">a60::swarm_gcache::</text>
<text text-anchor="middle" x="222.5" y="-50.6" font-family="SourceSans" font-size="8.00">summarize_totals</text>
</a>
</g>
</g>
<!-- Node1&#45;&gt;Node4 -->
<g id="edge3" class="edge">
<title>Node1&#45;&gt;Node4</title>
<path fill="none" stroke="#63b8ff" d="M115.05,-71.37C129.55,-69.41 145.2,-67.3 159.94,-65.31"/>
<polygon fill="#63b8ff" stroke="#63b8ff" points="160.52,-68.76 169.96,-63.96 159.58,-61.83 160.52,-68.76"/>
</g>
<!-- Node5 -->
<g id="node5" class="node">
<title>Node5</title>
<g id="a_node5"><a xlink:href="structa60_1_1swarm__gcache.html#af7d9f24d11c6fd83baf2f2593034a6c4" target="_top" xlink:title="Insert ranked peers into ordered set. Top n will be the first n results. Input depends on peer or see...">
<polygon fill="white" stroke="#666666" points="275,-26 170,-26 170,0 275,0 275,-26"/>
<text text-anchor="start" x="178" y="-15.6" font-family="SourceSans" font-size="8.00">a60::swarm_gcache::</text>
<text text-anchor="middle" x="222.5" y="-6.6" font-family="SourceSans" font-size="8.00">weigh</text>
</a>
</g>
</g>
<!-- Node1&#45;&gt;Node5 -->
<g id="edge4" class="edge">
<title>Node1&#45;&gt;Node5</title>
<path fill="none" stroke="#63b8ff" d="M83.59,-65.88C101.96,-56.56 127.65,-44.14 151,-35 156.07,-33.01 161.41,-31.08 166.77,-29.24"/>
<polygon fill="#63b8ff" stroke="#63b8ff" points="168.03,-32.51 176.42,-26.02 165.82,-25.86 168.03,-32.51"/>
</g>
</g>
</svg>
