<?xml version="1.0" encoding="UTF-8" standalone="no"?>
<!DOCTYPE svg PUBLIC "-//W3C//DTD SVG 1.1//EN"
 "http://www.w3.org/Graphics/SVG/1.1/DTD/svg11.dtd">
<!-- Generated by graphviz version 5.0.0 (0)
 -->
<!-- Title: a60::carto::get_slices Pages: 1 -->
<svg width="421pt" height="238pt"
 viewBox="0.00 0.00 421.00 238.00" xmlns="http://www.w3.org/2000/svg" xmlns:xlink="http://www.w3.org/1999/xlink">
<g id="graph0" class="graph" transform="scale(1 1) rotate(0) translate(4 234)">
<title>a60::carto::get_slices</title>
<!-- Node1 -->
<g id="node1" class="node">
<title>Node1</title>
<g id="a_node1"><a xlink:title="Cahill&#45;Keyes slices.">
<polygon fill="#999999" stroke="#666666" points="106,-123.5 0,-123.5 0,-106.5 106,-106.5 106,-123.5"/>
<text text-anchor="middle" x="53" y="-113.1" font-family="SourceSans" font-size="8.00">a60::carto::get_slices</text>
</a>
</g>
</g>
<!-- Node2 -->
<g id="node2" class="node">
<title>Node2</title>
<g id="a_node2"><a xlink:href="namespacea60_1_1carto.html#a83691e5b941ef8caec88c183a259a897" target="_top" xlink:title="Per&#45;country slices.">
<polygon fill="white" stroke="#666666" points="257.5,-230 151.5,-230 151.5,-204 257.5,-204 257.5,-230"/>
<text text-anchor="start" x="159.5" y="-219.6" font-family="SourceSans" font-size="8.00">a60::carto::get_slices</text>
<text text-anchor="middle" x="204.5" y="-210.6" font-family="SourceSans" font-size="8.00">_by_country</text>
</a>
</g>
</g>
<!-- Node1&#45;&gt;Node2 -->
<g id="edge1" class="edge">
<title>Node1&#45;&gt;Node2</title>
<path fill="none" stroke="#63b8ff" d="M61.38,-123.67C75.51,-139.8 108.01,-174.6 142,-195 144.82,-196.69 147.79,-198.28 150.84,-199.78"/>
<polygon fill="#63b8ff" stroke="#63b8ff" points="149.6,-203.06 160.16,-203.95 152.46,-196.67 149.6,-203.06"/>
</g>
<!-- Node3 -->
<g id="node3" class="node">
<title>Node3</title>
<g id="a_node3"><a xlink:href="namespacea60_1_1carto.html#a9b79e74acdcde452b2737ad08bc5973d" target="_top" xlink:title=" ">
<polygon fill="white" stroke="#666666" points="267,-185.5 142,-185.5 142,-168.5 267,-168.5 267,-185.5"/>
<text text-anchor="middle" x="204.5" y="-175.1" font-family="SourceSans" font-size="8.00">a60::carto::get_slices_duo</text>
</a>
</g>
</g>
<!-- Node1&#45;&gt;Node3 -->
<g id="edge2" class="edge">
<title>Node1&#45;&gt;Node3</title>
<path fill="none" stroke="#63b8ff" d="M69.2,-123.65C86.44,-133.21 115.61,-148.64 142,-159 147.91,-161.32 154.25,-163.5 160.52,-165.49"/>
<polygon fill="#63b8ff" stroke="#63b8ff" points="159.67,-168.89 170.26,-168.45 161.71,-162.19 159.67,-168.89"/>
</g>
<!-- Node4 -->
<g id="node4" class="node">
<title>Node4</title>
<g id="a_node4"><a xlink:href="namespacea60_1_1carto.html#a00bbecdf369c25b366e2b98f65443a6f" target="_top" xlink:title=" ">
<polygon fill="white" stroke="#666666" points="257.5,-150 151.5,-150 151.5,-124 257.5,-124 257.5,-150"/>
<text text-anchor="start" x="159.5" y="-139.6" font-family="SourceSans" font-size="8.00">a60::carto::get_slices</text>
<text text-anchor="middle" x="204.5" y="-130.6" font-family="SourceSans" font-size="8.00">_quatro</text>
</a>
</g>
</g>
<!-- Node1&#45;&gt;Node4 -->
<g id="edge3" class="edge">
<title>Node1&#45;&gt;Node4</title>
<path fill="none" stroke="#63b8ff" d="M106.29,-122.69C117.62,-124.36 129.71,-126.14 141.38,-127.86"/>
<polygon fill="#63b8ff" stroke="#63b8ff" points="141.09,-131.35 151.49,-129.35 142.11,-124.43 141.09,-131.35"/>
</g>
<!-- Node5 -->
<g id="node5" class="node">
<title>Node5</title>
<g id="a_node5"><a xlink:href="namespacea60_1_1carto.html#ae29960ab9e9f74363e02ca8cac205ba1" target="_top" xlink:title=" ">
<polygon fill="white" stroke="#666666" points="257.5,-106 151.5,-106 151.5,-80 257.5,-80 257.5,-106"/>
<text text-anchor="start" x="159.5" y="-95.6" font-family="SourceSans" font-size="8.00">a60::carto::get_slices</text>
<text text-anchor="middle" x="204.5" y="-86.6" font-family="SourceSans" font-size="8.00">_quatro_v_s</text>
</a>
</g>
</g>
<!-- Node1&#45;&gt;Node5 -->
<g id="edge4" class="edge">
<title>Node1&#45;&gt;Node5</title>
<path fill="none" stroke="#63b8ff" d="M106.29,-107.31C117.62,-105.64 129.71,-103.86 141.38,-102.14"/>
<polygon fill="#63b8ff" stroke="#63b8ff" points="142.11,-105.57 151.49,-100.65 141.09,-98.65 142.11,-105.57"/>
</g>
<!-- Node7 -->
<g id="node7" class="node">
<title>Node7</title>
<g id="a_node7"><a xlink:href="namespacea60_1_1carto.html#a46b3c5235aa7e9f9ab3e5cd9cf0044cb" target="_top" xlink:title="Also fpod_iso, fpod_usa sizes.">
<polygon fill="white" stroke="#666666" points="266,-61.5 143,-61.5 143,-44.5 266,-44.5 266,-61.5"/>
<text text-anchor="middle" x="204.5" y="-51.1" font-family="SourceSans" font-size="8.00">a60::carto::get_slices_trio</text>
</a>
</g>
</g>
<!-- Node1&#45;&gt;Node7 -->
<g id="edge6" class="edge">
<title>Node1&#45;&gt;Node7</title>
<path fill="none" stroke="#63b8ff" d="M69.2,-106.35C86.44,-96.79 115.61,-81.36 142,-71 147.91,-68.68 154.25,-66.5 160.52,-64.51"/>
<polygon fill="#63b8ff" stroke="#63b8ff" points="161.71,-67.81 170.26,-61.55 159.67,-61.11 161.71,-67.81"/>
</g>
<!-- Node8 -->
<g id="node8" class="node">
<title>Node8</title>
<g id="a_node8"><a xlink:href="namespacea60_1_1carto.html#ace1359c9924df560856a763e4dbf641e" target="_top" xlink:title=" ">
<polygon fill="white" stroke="#666666" points="257.5,-26 151.5,-26 151.5,0 257.5,0 257.5,-26"/>
<text text-anchor="start" x="159.5" y="-15.6" font-family="SourceSans" font-size="8.00">a60::carto::get_slices</text>
<text text-anchor="middle" x="204.5" y="-6.6" font-family="SourceSans" font-size="8.00">_trio_v_s</text>
</a>
</g>
</g>
<!-- Node1&#45;&gt;Node8 -->
<g id="edge7" class="edge">
<title>Node1&#45;&gt;Node8</title>
<path fill="none" stroke="#63b8ff" d="M61.38,-106.33C75.51,-90.2 108.01,-55.4 142,-35 144.82,-33.31 147.79,-31.72 150.84,-30.22"/>
<polygon fill="#63b8ff" stroke="#63b8ff" points="152.46,-33.33 160.16,-26.05 149.6,-26.94 152.46,-33.33"/>
</g>
<!-- Node6 -->
<g id="node6" class="node">
<title>Node6</title>
<g id="a_node6"><a xlink:href="namespacea60_1_1constants.html#a4eca9d522711df25806d6dd1ff38e904" target="_top" xlink:title=" ">
<polygon fill="white" stroke="#666666" points="413,-81.5 303,-81.5 303,-64.5 413,-64.5 413,-81.5"/>
<text text-anchor="middle" x="358" y="-71.1" font-family="SourceSans" font-size="8.00">a60::constants::space</text>
</a>
</g>
</g>
<!-- Node5&#45;&gt;Node6 -->
<g id="edge5" class="edge">
<title>Node5&#45;&gt;Node6</title>
<path fill="none" stroke="#63b8ff" d="M257.64,-86.12C268.96,-84.62 281.06,-83.03 292.78,-81.48"/>
<polygon fill="#63b8ff" stroke="#63b8ff" points="293.51,-84.91 302.96,-80.13 292.59,-77.97 293.51,-84.91"/>
</g>
<!-- Node8&#45;&gt;Node6 -->
<g id="edge9" class="edge">
<title>Node8&#45;&gt;Node6</title>
<path fill="none" stroke="#63b8ff" d="M243.03,-26.05C250.97,-28.91 259.29,-31.99 267,-35 287.48,-42.98 310.28,-52.61 327.81,-60.19"/>
<polygon fill="#63b8ff" stroke="#63b8ff" points="326.9,-63.61 337.47,-64.38 329.69,-57.19 326.9,-63.61"/>
</g>
<!-- Node9 -->
<g id="node9" class="node">
<title>Node9</title>
<g id="a_node9"><a xlink:href="structa60_1_1carto_1_1frame.html#a991c85ae945ad0513554cae7a42b8002" target="_top" xlink:title=" ">
<polygon fill="white" stroke="#666666" points="405.5,-26 310.5,-26 310.5,0 405.5,0 405.5,-26"/>
<text text-anchor="start" x="318.5" y="-15.6" font-family="SourceSans" font-size="8.00">a60::carto::frame::</text>
<text text-anchor="middle" x="358" y="-6.6" font-family="SourceSans" font-size="8.00">bottom_tile_frame</text>
</a>
</g>
</g>
<!-- Node8&#45;&gt;Node9 -->
<g id="edge8" class="edge">
<title>Node8&#45;&gt;Node9</title>
<path fill="none" stroke="#63b8ff" d="M257.64,-13C271.41,-13 286.35,-13 300.35,-13"/>
<polygon fill="#63b8ff" stroke="#63b8ff" points="300.35,-16.5 310.35,-13 300.35,-9.5 300.35,-16.5"/>
</g>
</g>
</svg>
