<?xml version="1.0" encoding="UTF-8" standalone="no"?>
<!DOCTYPE svg PUBLIC "-//W3C//DTD SVG 1.1//EN"
 "http://www.w3.org/Graphics/SVG/1.1/DTD/svg11.dtd">
<!-- Generated by graphviz version 5.0.0 (0)
 -->
<!-- Title: a60::cached_whois_to_meta_peer Pages: 1 -->
<!--zoomable 194 -->
<svg id="main" version="1.1" xmlns="http://www.w3.org/2000/svg" xmlns:xlink="http://www.w3.org/1999/xlink" xml:space="preserve" onload="init(evt)">
<style type="text/css"><![CDATA[
.edge:hover path { stroke: red; }
.edge:hover polygon { stroke: red; fill: red; }
]]></style>
<script type="text/javascript"><![CDATA[
var edges = document.getElementsByTagName('g');
if (edges && edges.length) {
  for (var i=0;i<edges.length;i++) {
    if (edges[i].id.substr(0,4)=='edge') {
      edges[i].setAttribute('class','edge');
    }
  }
}
]]></script>
        <defs>
                <circle id="rim" cx="0" cy="0" r="7"/>
                <circle id="rim2" cx="0" cy="0" r="3.5"/>
                <g id="zoomPlus">
                        <use xlink:href="#rim" fill="#404040">
                                <set attributeName="fill" to="#808080" begin="zoomplus.mouseover" end="zoomplus.mouseout"/>
                        </use>
                        <path d="M-4,0h8M0,-4v8" fill="none" stroke="white" stroke-width="1.5" pointer-events="none"/>
                </g>
                <g id="zoomMin">
                        <use xlink:href="#rim" fill="#404040">
                                <set attributeName="fill" to="#808080" begin="zoomminus.mouseover" end="zoomminus.mouseout"/>
                        </use>
                        <path d="M-4,0h8" fill="none" stroke="white" stroke-width="1.5" pointer-events="none"/>
                </g>
                <g id="dirArrow">
                        <path fill="none" stroke="white" stroke-width="1.5" d="M0,-3.0v7 M-2.5,-0.5L0,-3.0L2.5,-0.5"/>
                </g>
               <g id="resetDef">
                       <use xlink:href="#rim2" fill="#404040">
                               <set attributeName="fill" to="#808080" begin="reset.mouseover" end="reset.mouseout"/>
                       </use>
               </g>
        </defs>

<script type="text/javascript">
var viewWidth = 732;
var viewHeight = 194;
var sectionId = 'dynsection-95';
</script>
<script xlink:href="svgpan.js"/>
<svg id="graph" class="graph">
<g id="viewport">
<title>a60::cached_whois_to_meta_peer</title>
<!-- Node1 -->
<g id="node1" class="node">
<title>Node1</title>
<g id="a_node1"><a xlink:title="Cache for whois calls.">
<polygon fill="#999999" stroke="#666666" points="108,-86 0,-86 0,-60 108,-60 108,-86"/>
<text text-anchor="start" x="8" y="-75.6" font-family="SourceSans" font-size="8.00">a60::cached_whois_to</text>
<text text-anchor="middle" x="54" y="-66.6" font-family="SourceSans" font-size="8.00">_meta_peer</text>
</a>
</g>
</g>
<!-- Node2 -->
<g id="node2" class="node">
<title>Node2</title>
<g id="a_node2"><a xlink:href="namespacea60.html#aa5a85040742ee6c68d51e0b91131eac9" target="_top" xlink:title="Use whois service to get more information about the netblock.">
<polygon fill="white" stroke="#666666" points="266,-81.5 144,-81.5 144,-64.5 266,-64.5 266,-81.5"/>
<text text-anchor="middle" x="205" y="-71.1" font-family="SourceSans" font-size="8.00">a60::whois_to_meta_peer</text>
</a>
</g>
</g>
<!-- Node1&#45;&gt;Node2 -->
<g id="edge1" class="edge">
<title>Node1&#45;&gt;Node2</title>
<path fill="none" stroke="#63b8ff" d="M108.37,-73C116.65,-73 125.32,-73 133.9,-73"/>
<polygon fill="#63b8ff" stroke="#63b8ff" points="133.91,-76.5 143.91,-73 133.91,-69.5 133.91,-76.5"/>
</g>
<!-- Node3 -->
<g id="node3" class="node">
<title>Node3</title>
<g id="a_node3"><a xlink:href="namespacea60_1_1geo.html#a5f9ec94084fb0de60a38f64865ae7de6" target="_top" xlink:title="Convert ISO 2 to ISO 3.">
<polygon fill="white" stroke="#666666" points="411.5,-106 307.5,-106 307.5,-80 411.5,-80 411.5,-106"/>
<text text-anchor="start" x="315.5" y="-95.6" font-family="SourceSans" font-size="8.00">a60::geo::alpha_2_to</text>
<text text-anchor="middle" x="359.5" y="-86.6" font-family="SourceSans" font-size="8.00">_alpha_3</text>
</a>
</g>
</g>
<!-- Node2&#45;&gt;Node3 -->
<g id="edge2" class="edge">
<title>Node2&#45;&gt;Node3</title>
<path fill="none" stroke="#63b8ff" d="M266.27,-80.9C276.39,-82.23 286.9,-83.61 297.04,-84.94"/>
<polygon fill="#63b8ff" stroke="#63b8ff" points="296.67,-88.42 307.04,-86.25 297.58,-81.48 296.67,-88.42"/>
</g>
<!-- Node10 -->
<g id="node10" class="node">
<title>Node10</title>
<g id="a_node10"><a xlink:href="namespacea60_1_1constants.html#a2fd5efb0c88809132a730787d05a080a" target="_top" xlink:title=" ">
<polygon fill="white" stroke="#666666" points="417,-61.5 302,-61.5 302,-44.5 417,-44.5 417,-61.5"/>
<text text-anchor="middle" x="359.5" y="-51.1" font-family="SourceSans" font-size="8.00">a60::constants::comma</text>
</a>
</g>
</g>
<!-- Node2&#45;&gt;Node10 -->
<g id="edge9" class="edge">
<title>Node2&#45;&gt;Node10</title>
<path fill="none" stroke="#63b8ff" d="M266.27,-65.1C274.56,-64.01 283.11,-62.89 291.51,-61.79"/>
<polygon fill="#63b8ff" stroke="#63b8ff" points="292.19,-65.23 301.65,-60.46 291.28,-58.29 292.19,-65.23"/>
</g>
<!-- Node4 -->
<g id="node4" class="node">
<title>Node4</title>
<g id="a_node4"><a xlink:href="namespacea60_1_1geo.html#aa72939682c5a6daa05ddeb6103fde043" target="_top" xlink:title="ISO&#45;2 to ISO&#45;3.">
<polygon fill="white" stroke="#666666" points="574,-106 453,-106 453,-80 574,-80 574,-106"/>
<text text-anchor="start" x="461" y="-95.6" font-family="SourceSans" font-size="8.00">a60::geo::deserialize</text>
<text text-anchor="middle" x="513.5" y="-86.6" font-family="SourceSans" font-size="8.00">_json_to_iso_3166_2_map</text>
</a>
</g>
</g>
<!-- Node3&#45;&gt;Node4 -->
<g id="edge3" class="edge">
<title>Node3&#45;&gt;Node4</title>
<path fill="none" stroke="#63b8ff" d="M411.54,-93C421.6,-93 432.32,-93 442.88,-93"/>
<polygon fill="#63b8ff" stroke="#63b8ff" points="442.92,-96.5 452.92,-93 442.92,-89.5 442.92,-96.5"/>
</g>
<!-- Node5 -->
<g id="node5" class="node">
<title>Node5</title>
<g id="a_node5"><a xlink:href="namespacea60.html#a538d43bb9bfa488a54cea929736dbe2d" target="_top" xlink:title="Deserialize input file.">
<polygon fill="white" stroke="#666666" points="719,-186 615,-186 615,-160 719,-160 719,-186"/>
<text text-anchor="start" x="623" y="-175.6" font-family="SourceSans" font-size="8.00">a60::deserialize_json</text>
<text text-anchor="middle" x="667" y="-166.6" font-family="SourceSans" font-size="8.00">_to_dom</text>
</a>
</g>
</g>
<!-- Node4&#45;&gt;Node5 -->
<g id="edge4" class="edge">
<title>Node4&#45;&gt;Node5</title>
<path fill="none" stroke="#63b8ff" d="M533.7,-106.01C552.6,-118.49 582.54,-137.39 610,-151 613.48,-152.72 617.13,-154.41 620.83,-156.04"/>
<polygon fill="#63b8ff" stroke="#63b8ff" points="619.48,-159.27 630.05,-159.93 622.2,-152.82 619.48,-159.27"/>
</g>
<!-- Node6 -->
<g id="node6" class="node">
<title>Node6</title>
<g id="a_node6"><a xlink:href="namespacea60_1_1io.html#a16f17ea9e02c1975ca17b77e46cf7629" target="_top" xlink:title="Make sure a path ends in &#39;/&#39;;.">
<polygon fill="white" stroke="#666666" points="712,-141.5 622,-141.5 622,-124.5 712,-124.5 712,-141.5"/>
<text text-anchor="middle" x="667" y="-131.1" font-family="SourceSans" font-size="8.00">a60::io::end_path</text>
</a>
</g>
</g>
<!-- Node4&#45;&gt;Node6 -->
<g id="edge5" class="edge">
<title>Node4&#45;&gt;Node6</title>
<path fill="none" stroke="#63b8ff" d="M564.11,-106.1C583.33,-111.17 605.11,-116.92 623.59,-121.8"/>
<polygon fill="#63b8ff" stroke="#63b8ff" points="622.91,-125.24 633.48,-124.41 624.7,-118.48 622.91,-125.24"/>
</g>
<!-- Node7 -->
<g id="node7" class="node">
<title>Node7</title>
<g id="a_node7"><a xlink:href="namespacea60_1_1io.html#ac95e5271a27a23bc2336d84b3f821fa2" target="_top" xlink:title="Constant filesystem and run&#45;time resources.">
<polygon fill="white" stroke="#666666" points="719,-106 615,-106 615,-80 719,-80 719,-106"/>
<text text-anchor="start" x="623" y="-95.6" font-family="SourceSans" font-size="8.00">a60::io::get_run_time</text>
<text text-anchor="middle" x="667" y="-86.6" font-family="SourceSans" font-size="8.00">_resources</text>
</a>
</g>
</g>
<!-- Node4&#45;&gt;Node7 -->
<g id="edge6" class="edge">
<title>Node4&#45;&gt;Node7</title>
<path fill="none" stroke="#63b8ff" d="M574.38,-93C584.32,-93 594.65,-93 604.63,-93"/>
<polygon fill="#63b8ff" stroke="#63b8ff" points="604.87,-96.5 614.87,-93 604.87,-89.5 604.87,-96.5"/>
</g>
<!-- Node8 -->
<g id="node8" class="node">
<title>Node8</title>
<g id="a_node8"><a xlink:href="namespacea60.html#a0fc88c5c87f54b303a1856bc2aa76a45" target="_top" xlink:title=" ">
<polygon fill="white" stroke="#666666" points="724,-61.5 610,-61.5 610,-44.5 724,-44.5 724,-61.5"/>
<text text-anchor="middle" x="667" y="-51.1" font-family="SourceSans" font-size="8.00">a60::insert_to_iso_3166</text>
</a>
</g>
</g>
<!-- Node4&#45;&gt;Node8 -->
<g id="edge7" class="edge">
<title>Node4&#45;&gt;Node8</title>
<path fill="none" stroke="#63b8ff" d="M564.11,-79.9C583.33,-74.83 605.11,-69.08 623.59,-64.2"/>
<polygon fill="#63b8ff" stroke="#63b8ff" points="624.7,-67.52 633.48,-61.59 622.91,-60.76 624.7,-67.52"/>
</g>
<!-- Node9 -->
<g id="node9" class="node">
<title>Node9</title>
<g id="a_node9"><a xlink:href="namespacea60_1_1io.html#aa5fbb8ab63397dd45c4a54c0758935ef" target="_top" xlink:title="Sanity check input existence.">
<polygon fill="white" stroke="#666666" points="719,-26 615,-26 615,0 719,0 719,-26"/>
<text text-anchor="start" x="623" y="-15.6" font-family="SourceSans" font-size="8.00">a60::io::sanity_check</text>
<text text-anchor="middle" x="667" y="-6.6" font-family="SourceSans" font-size="8.00">_input</text>
</a>
</g>
</g>
<!-- Node4&#45;&gt;Node9 -->
<g id="edge8" class="edge">
<title>Node4&#45;&gt;Node9</title>
<path fill="none" stroke="#63b8ff" d="M534.5,-79.87C553.49,-67.7 583.06,-49.48 610,-36 614.02,-33.99 618.26,-32.01 622.54,-30.1"/>
<polygon fill="#63b8ff" stroke="#63b8ff" points="624.08,-33.25 631.88,-26.07 621.31,-26.82 624.08,-33.25"/>
</g>
</g>
</svg>
        <g id="navigator" transform="translate(0 0)" fill="#404254">
                <rect fill="#f2f5e9" fill-opacity="0.5" stroke="#606060" stroke-width=".5" x="0" y="0" width="60" height="60"/>
                <use id="zoomplus" xlink:href="#zoomPlus" x="17" y="9" onmousedown="handleZoom(evt,'in')"/>
                <use id="zoomminus" xlink:href="#zoomMin" x="42" y="9" onmousedown="handleZoom(evt,'out')"/>
                <use id="reset" xlink:href="#resetDef" x="30" y="36" onmousedown="handleReset()"/>
                <g id="arrowUp" xlink:href="#dirArrow" transform="translate(30 24)" onmousedown="handlePan(0,-1)">
                  <use xlink:href="#rim" fill="#404040">
                        <set attributeName="fill" to="#808080" begin="arrowUp.mouseover" end="arrowUp.mouseout"/>
                  </use>
                  <path fill="none" stroke="white" stroke-width="1.5" d="M0,-3.0v7 M-2.5,-0.5L0,-3.0L2.5,-0.5"/>
                </g>
                <g id="arrowRight" xlink:href="#dirArrow" transform="rotate(90) translate(36 -43)" onmousedown="handlePan(1,0)">
                  <use xlink:href="#rim" fill="#404040">
                        <set attributeName="fill" to="#808080" begin="arrowRight.mouseover" end="arrowRight.mouseout"/>
                  </use>
                  <path fill="none" stroke="white" stroke-width="1.5" d="M0,-3.0v7 M-2.5,-0.5L0,-3.0L2.5,-0.5"/>
                </g>
                <g id="arrowDown" xlink:href="#dirArrow" transform="rotate(180) translate(-30 -48)" onmousedown="handlePan(0,1)">
                  <use xlink:href="#rim" fill="#404040">
                        <set attributeName="fill" to="#808080" begin="arrowDown.mouseover" end="arrowDown.mouseout"/>
                  </use>
                  <path fill="none" stroke="white" stroke-width="1.5" d="M0,-3.0v7 M-2.5,-0.5L0,-3.0L2.5,-0.5"/>
                </g>
                <g id="arrowLeft" xlink:href="#dirArrow" transform="rotate(270) translate(-36 17)" onmousedown="handlePan(-1,0)">
                  <use xlink:href="#rim" fill="#404040">
                        <set attributeName="fill" to="#808080" begin="arrowLeft.mouseover" end="arrowLeft.mouseout"/>
                  </use>
                  <path fill="none" stroke="white" stroke-width="1.5" d="M0,-3.0v7 M-2.5,-0.5L0,-3.0L2.5,-0.5"/>
                </g>
        </g>
        <svg viewBox="0 0 15 15" width="100%" height="30px" preserveAspectRatio="xMaxYMin meet">
         <g id="arrow_out" transform="scale(0.3 0.3)">
          <a xlink:href="namespacea60_a3c58a6378d57386252f6ec31d1fbb808_cgraph_org.svg" target="_base">
           <rect id="button" ry="5" rx="5" y="6" x="6" height="38" width="38"
                fill="#f2f5e9" fill-opacity="0.5" stroke="#606060" stroke-width="1.0"/>
           <path id="arrow"
             d="M 11.500037,31.436501 C 11.940474,20.09759 22.043105,11.32322 32.158766,21.979434 L 37.068811,17.246167 C 37.068811,17.246167 37.088388,32 37.088388,32 L 22.160133,31.978069 C 22.160133,31.978069 26.997745,27.140456 26.997745,27.140456 C 18.528582,18.264221 13.291696,25.230495 11.500037,31.436501 z"
             style="fill:#404040;"/>
          </a>
         </g>
        </svg>
</svg>
