<?xml version="1.0" encoding="UTF-8" standalone="no"?>
<!DOCTYPE svg PUBLIC "-//W3C//DTD SVG 1.1//EN"
 "http://www.w3.org/Graphics/SVG/1.1/DTD/svg11.dtd">
<!-- Generated by graphviz version 5.0.0 (0)
 -->
<!-- Title: a60::metadata::count_values_in_fields_matching Pages: 1 -->
<svg width="282pt" height="88pt"
 viewBox="0.00 0.00 282.00 87.50" xmlns="http://www.w3.org/2000/svg" xmlns:xlink="http://www.w3.org/1999/xlink">
<g id="graph0" class="graph" transform="scale(1 1) rotate(0) translate(4 83.5)">
<title>a60::metadata::count_values_in_fields_matching</title>
<!-- Node1 -->
<g id="node1" class="node">
<title>Node1</title>
<g id="a_node1"><a xlink:title="Returns the number of cast&#45;lead&#45;n&#45;[agg] fields with non&#45;blank entries.">
<polygon fill="#999999" stroke="#666666" points="127,-46 0,-46 0,-20 127,-20 127,-46"/>
<text text-anchor="start" x="8" y="-35.6" font-family="SourceSans" font-size="8.00">a60::metadata::count</text>
<text text-anchor="middle" x="63.5" y="-26.6" font-family="SourceSans" font-size="8.00">_values_in_fields_matching</text>
</a>
</g>
</g>
<!-- Node2 -->
<g id="node2" class="node">
<title>Node2</title>
<g id="a_node2"><a xlink:href="namespacea60.html#a4e8b0cabed112734147b499bf0cc9029" target="_top" xlink:title="Conversion of resolution_mode to string.">
<polygon fill="white" stroke="#666666" points="255.5,-61.5 181.5,-61.5 181.5,-44.5 255.5,-44.5 255.5,-61.5"/>
<text text-anchor="middle" x="218.5" y="-51.1" font-family="SourceSans" font-size="8.00">a60::to_string</text>
</a>
</g>
</g>
<!-- Node1&#45;&gt;Node2 -->
<g id="edge1" class="edge">
<title>Node1&#45;&gt;Node2</title>
<path fill="none" stroke="#63b8ff" d="M127.17,-41.19C141.9,-43.12 157.34,-45.14 171.2,-46.95"/>
<polygon fill="#63b8ff" stroke="#63b8ff" points="171.09,-50.46 181.46,-48.29 172,-43.52 171.09,-50.46"/>
</g>
<!-- Node3 -->
<g id="node3" class="node">
<title>Node3</title>
<g id="a_node3"><a xlink:href="namespacea60_1_1metadata.html#a80da6438996a07a5fa1df5728c004b2a" target="_top" xlink:title="Find name &#39;field&#39; in JSON file and return vector of values.">
<polygon fill="white" stroke="#666666" points="274,-26 163,-26 163,0 274,0 274,-26"/>
<text text-anchor="start" x="171" y="-15.6" font-family="SourceSans" font-size="8.00">a60::metadata::values</text>
<text text-anchor="middle" x="218.5" y="-6.6" font-family="SourceSans" font-size="8.00">_from_field</text>
</a>
</g>
</g>
<!-- Node1&#45;&gt;Node3 -->
<g id="edge3" class="edge">
<title>Node1&#45;&gt;Node3</title>
<path fill="none" stroke="#63b8ff" d="M127.17,-24.81C135.5,-23.72 144.06,-22.6 152.43,-21.51"/>
<polygon fill="#63b8ff" stroke="#63b8ff" points="153.06,-24.95 162.52,-20.19 152.15,-18.01 153.06,-24.95"/>
</g>
<!-- Node2&#45;&gt;Node2 -->
<g id="edge2" class="edge">
<title>Node2&#45;&gt;Node2</title>
<path fill="none" stroke="#63b8ff" d="M195.55,-61.69C182.88,-70.17 190.53,-79.5 218.5,-79.5 237.29,-79.5 246.91,-75.29 247.36,-69.95"/>
<polygon fill="#63b8ff" stroke="#63b8ff" points="250.11,-67.78 241.45,-61.69 244.42,-71.86 250.11,-67.78"/>
</g>
</g>
</svg>
