<?xml version="1.0" encoding="UTF-8" standalone="no"?>
<!DOCTYPE svg PUBLIC "-//W3C//DTD SVG 1.1//EN"
 "http://www.w3.org/Graphics/SVG/1.1/DTD/svg11.dtd">
<!-- Generated by graphviz version 5.0.0 (0)
 -->
<!-- Title: a60::to_string Pages: 1 -->
<svg width="233pt" height="78pt"
 viewBox="0.00 0.00 233.00 78.00" xmlns="http://www.w3.org/2000/svg" xmlns:xlink="http://www.w3.org/1999/xlink">
<g id="graph0" class="graph" transform="scale(1 1) rotate(0) translate(4 74)">
<title>a60::to_string</title>
<!-- Node1 -->
<g id="node1" class="node">
<title>Node1</title>
<g id="a_node1"><a xlink:title="Convert point_2t to string.">
<polygon fill="#999999" stroke="#666666" points="74,-43 0,-43 0,-26 74,-26 74,-43"/>
<text text-anchor="middle" x="37" y="-32.6" font-family="SourceSans" font-size="8.00">a60::to_string</text>
</a>
</g>
</g>
<!-- Node2 -->
<g id="node2" class="node">
<title>Node2</title>
<g id="a_node2"><a xlink:href="namespacea60_1_1constants.html#a2fd5efb0c88809132a730787d05a080a" target="_top" xlink:title=" ">
<polygon fill="white" stroke="#666666" points="225,-70 110,-70 110,-53 225,-53 225,-70"/>
<text text-anchor="middle" x="167.5" y="-59.6" font-family="SourceSans" font-size="8.00">a60::constants::comma</text>
</a>
</g>
</g>
<!-- Node1&#45;&gt;Node2 -->
<g id="edge1" class="edge">
<title>Node1&#45;&gt;Node2</title>
<path fill="none" stroke="#63b8ff" d="M74.14,-42.09C87.04,-44.8 101.83,-47.91 115.73,-50.83"/>
<polygon fill="#63b8ff" stroke="#63b8ff" points="115.15,-54.29 125.66,-52.92 116.59,-47.44 115.15,-54.29"/>
</g>
<!-- Node3 -->
<g id="node3" class="node">
<title>Node3</title>
<g id="a_node3"><a xlink:href="namespacea60.html#a4e8b0cabed112734147b499bf0cc9029" target="_top" xlink:title="Conversion of resolution_mode to string.">
<polygon fill="white" stroke="#666666" points="204.5,-17 130.5,-17 130.5,0 204.5,0 204.5,-17"/>
<text text-anchor="middle" x="167.5" y="-6.6" font-family="SourceSans" font-size="8.00">a60::to_string</text>
</a>
</g>
</g>
<!-- Node1&#45;&gt;Node3 -->
<g id="edge2" class="edge">
<title>Node1&#45;&gt;Node3</title>
<path fill="none" stroke="#63b8ff" d="M74.14,-27.19C88.37,-24.31 104.9,-20.96 120,-17.91"/>
<polygon fill="#63b8ff" stroke="#63b8ff" points="121.08,-21.26 130.19,-15.85 119.69,-14.4 121.08,-21.26"/>
</g>
<!-- Node3&#45;&gt;Node3 -->
<g id="edge3" class="edge">
<title>Node3&#45;&gt;Node3</title>
<path fill="none" stroke="#63b8ff" d="M148.13,-17.19C137.43,-25.67 143.89,-35 167.5,-35 182.63,-35 190.71,-31.17 191.76,-26.19"/>
<polygon fill="#63b8ff" stroke="#63b8ff" points="194.72,-24.3 186.87,-17.19 188.57,-27.64 194.72,-24.3"/>
</g>
</g>
</svg>
