<?xml version="1.0" encoding="UTF-8" standalone="no"?>
<!DOCTYPE svg PUBLIC "-//W3C//DTD SVG 1.1//EN"
 "http://www.w3.org/Graphics/SVG/1.1/DTD/svg11.dtd">
<!-- Generated by graphviz version 5.0.0 (0)
 -->
<!-- Title: a60::augment_carto_starlink_gateways Pages: 1 -->
<svg width="715pt" height="170pt"
 viewBox="0.00 0.00 715.00 169.50" xmlns="http://www.w3.org/2000/svg" xmlns:xlink="http://www.w3.org/1999/xlink">
<g id="graph0" class="graph" transform="scale(1 1) rotate(0) translate(4 165.5)">
<title>a60::augment_carto_starlink_gateways</title>
<!-- Node1 -->
<g id="node1" class="node">
<title>Node1</title>
<g id="a_node1"><a xlink:title="Augment Starlink ground gateways.">
<polygon fill="#999999" stroke="#666666" points="100,-79.5 0,-79.5 0,-53.5 100,-53.5 100,-79.5"/>
<text text-anchor="start" x="8" y="-69.1" font-family="SourceSans" font-size="8.00">a60::augment_carto</text>
<text text-anchor="middle" x="50" y="-60.1" font-family="SourceSans" font-size="8.00">_starlink_gateways</text>
</a>
</g>
</g>
<!-- Node2 -->
<g id="node2" class="node">
<title>Node2</title>
<g id="a_node2"><a xlink:href="namespacea60.html#a9bd046b95dceb868b8852784c3764562" target="_top" xlink:title="Augment Starlink ground gateways object version.">
<polygon fill="white" stroke="#666666" points="239,-99.5 139,-99.5 139,-73.5 239,-73.5 239,-99.5"/>
<text text-anchor="start" x="147" y="-89.1" font-family="SourceSans" font-size="8.00">a60::augment_carto</text>
<text text-anchor="middle" x="189" y="-80.1" font-family="SourceSans" font-size="8.00">_starlink_gateways</text>
</a>
</g>
</g>
<!-- Node1&#45;&gt;Node2 -->
<g id="edge1" class="edge">
<title>Node1&#45;&gt;Node2</title>
<path fill="none" stroke="#63b8ff" d="M100.07,-73.66C109.42,-75.03 119.29,-76.47 128.91,-77.87"/>
<polygon fill="#63b8ff" stroke="#63b8ff" points="128.41,-81.34 138.81,-79.32 129.42,-74.41 128.41,-81.34"/>
</g>
<!-- Node11 -->
<g id="node11" class="node">
<title>Node11</title>
<g id="a_node11"><a xlink:href="namespacea60.html#a1bf91ba66297e089d99c49d6a376c0ad" target="_top" xlink:title="NEW STYLE First composite with map, black on white.">
<polygon fill="white" stroke="#666666" points="242,-55 136,-55 136,-38 242,-38 242,-55"/>
<text text-anchor="middle" x="189" y="-44.6" font-family="SourceSans" font-size="8.00">a60::make_map_base</text>
</a>
</g>
</g>
<!-- Node1&#45;&gt;Node11 -->
<g id="edge12" class="edge">
<title>Node1&#45;&gt;Node11</title>
<path fill="none" stroke="#63b8ff" d="M100.07,-59.34C108.35,-58.13 117.04,-56.86 125.6,-55.61"/>
<polygon fill="#63b8ff" stroke="#63b8ff" points="126.17,-59.06 135.56,-54.16 125.16,-52.14 126.17,-59.06"/>
</g>
<!-- Node3 -->
<g id="node3" class="node">
<title>Node3</title>
<g id="a_node3"><a xlink:href="namespacea60_1_1io.html#ac95e5271a27a23bc2336d84b3f821fa2" target="_top" xlink:title="Constant filesystem and run&#45;time resources.">
<polygon fill="white" stroke="#666666" points="391,-143.5 287,-143.5 287,-117.5 391,-117.5 391,-143.5"/>
<text text-anchor="start" x="295" y="-133.1" font-family="SourceSans" font-size="8.00">a60::io::get_run_time</text>
<text text-anchor="middle" x="339" y="-124.1" font-family="SourceSans" font-size="8.00">_resources</text>
</a>
</g>
</g>
<!-- Node2&#45;&gt;Node3 -->
<g id="edge2" class="edge">
<title>Node2&#45;&gt;Node3</title>
<path fill="none" stroke="#63b8ff" d="M234,-99.58C249.74,-104.26 267.65,-109.59 284.13,-114.48"/>
<polygon fill="#63b8ff" stroke="#63b8ff" points="283.58,-117.97 294.17,-117.47 285.58,-111.26 283.58,-117.97"/>
</g>
<!-- Node4 -->
<g id="node4" class="node">
<title>Node4</title>
<g id="a_node4"><a xlink:href="namespacea60.html#a5d00f2b761b78b232d5b3494d85ae4a9" target="_top" xlink:title="Create triangles at starlink gateways.">
<polygon fill="white" stroke="#666666" points="395,-99.5 283,-99.5 283,-73.5 395,-73.5 395,-99.5"/>
<text text-anchor="start" x="291" y="-89.1" font-family="SourceSans" font-size="8.00">a60::starlink_gateways</text>
<text text-anchor="middle" x="339" y="-80.1" font-family="SourceSans" font-size="8.00">_geojson</text>
</a>
</g>
</g>
<!-- Node2&#45;&gt;Node4 -->
<g id="edge3" class="edge">
<title>Node2&#45;&gt;Node4</title>
<path fill="none" stroke="#63b8ff" d="M239.28,-86.5C249.97,-86.5 261.43,-86.5 272.63,-86.5"/>
<polygon fill="#63b8ff" stroke="#63b8ff" points="272.81,-90 282.81,-86.5 272.81,-83 272.81,-90"/>
</g>
<!-- Node5 -->
<g id="node5" class="node">
<title>Node5</title>
<g id="a_node5"><a xlink:href="namespacea60.html#af45982273a7a2e61b6aaa436081238c0" target="_top" xlink:title="Load JSON file to in&#45;memory DOM.">
<polygon fill="white" stroke="#666666" points="547,-161.5 443,-161.5 443,-135.5 547,-135.5 547,-161.5"/>
<text text-anchor="start" x="451" y="-151.1" font-family="SourceSans" font-size="8.00">a60::deserialize_json</text>
<text text-anchor="middle" x="495" y="-142.1" font-family="SourceSans" font-size="8.00">_to_dom_object</text>
</a>
</g>
</g>
<!-- Node4&#45;&gt;Node5 -->
<g id="edge4" class="edge">
<title>Node4&#45;&gt;Node5</title>
<path fill="none" stroke="#63b8ff" d="M376.6,-99.58C384.35,-102.45 392.47,-105.52 400,-108.5 418.06,-115.65 437.87,-124 454.63,-131.22"/>
<polygon fill="#63b8ff" stroke="#63b8ff" points="453.54,-134.56 464.1,-135.32 456.32,-128.14 453.54,-134.56"/>
</g>
<!-- Node7 -->
<g id="node7" class="node">
<title>Node7</title>
<g id="a_node7"><a xlink:href="namespacea60_1_1constants.html#ac27c77e4606552ae5f74a1c21dd9258e" target="_top" xlink:title=" ">
<polygon fill="white" stroke="#666666" points="707,-116 590,-116 590,-99 707,-99 707,-116"/>
<text text-anchor="middle" x="648.5" y="-105.6" font-family="SourceSans" font-size="8.00">a60::constants::newline</text>
</a>
</g>
</g>
<!-- Node4&#45;&gt;Node7 -->
<g id="edge6" class="edge">
<title>Node4&#45;&gt;Node7</title>
<path fill="none" stroke="#63b8ff" d="M395.33,-90.28C447.01,-93.81 524.29,-99.09 579.67,-102.87"/>
<polygon fill="#63b8ff" stroke="#63b8ff" points="579.53,-106.37 589.74,-103.56 580.01,-99.38 579.53,-106.37"/>
</g>
<!-- Node8 -->
<g id="node8" class="node">
<title>Node8</title>
<g id="a_node8"><a xlink:href="namespacea60.html#a3fdf876ab1d06c5cfd12a9018c231dd8" target="_top" xlink:title=" ">
<polygon fill="white" stroke="#666666" points="554,-79.5 436,-79.5 436,-53.5 554,-53.5 554,-79.5"/>
<text text-anchor="start" x="444" y="-69.1" font-family="SourceSans" font-size="8.00">a60::point_from_geojson</text>
<text text-anchor="middle" x="495" y="-60.1" font-family="SourceSans" font-size="8.00">_coordinate</text>
</a>
</g>
</g>
<!-- Node4&#45;&gt;Node8 -->
<g id="edge7" class="edge">
<title>Node4&#45;&gt;Node8</title>
<path fill="none" stroke="#63b8ff" d="M395.16,-79.34C405.07,-78.05 415.5,-76.7 425.72,-75.37"/>
<polygon fill="#63b8ff" stroke="#63b8ff" points="426.38,-78.81 435.84,-74.05 425.47,-71.87 426.38,-78.81"/>
</g>
<!-- Node10 -->
<g id="node10" class="node">
<title>Node10</title>
<g id="a_node10"><a xlink:href="namespacea60_1_1constants.html#a01d9786063fb572d9389b0cd207bbe53" target="_top" xlink:title=" ">
<polygon fill="white" stroke="#666666" points="544,-17 446,-17 446,0 544,0 544,-17"/>
<text text-anchor="middle" x="495" y="-6.6" font-family="SourceSans" font-size="8.00">a60::constants::tab</text>
</a>
</g>
</g>
<!-- Node4&#45;&gt;Node10 -->
<g id="edge10" class="edge">
<title>Node4&#45;&gt;Node10</title>
<path fill="none" stroke="#63b8ff" d="M378.85,-73.46C385.98,-70.73 393.29,-67.7 400,-64.5 414.08,-57.8 448.77,-36.65 471.84,-22.35"/>
<polygon fill="#63b8ff" stroke="#63b8ff" points="473.69,-25.32 480.34,-17.07 470,-19.38 473.69,-25.32"/>
</g>
<!-- Node6 -->
<g id="node6" class="node">
<title>Node6</title>
<g id="a_node6"><a xlink:href="namespacea60.html#a538d43bb9bfa488a54cea929736dbe2d" target="_top" xlink:title="Deserialize input file.">
<polygon fill="white" stroke="#666666" points="700.5,-161.5 596.5,-161.5 596.5,-135.5 700.5,-135.5 700.5,-161.5"/>
<text text-anchor="start" x="604.5" y="-151.1" font-family="SourceSans" font-size="8.00">a60::deserialize_json</text>
<text text-anchor="middle" x="648.5" y="-142.1" font-family="SourceSans" font-size="8.00">_to_dom</text>
</a>
</g>
</g>
<!-- Node5&#45;&gt;Node6 -->
<g id="edge5" class="edge">
<title>Node5&#45;&gt;Node6</title>
<path fill="none" stroke="#63b8ff" d="M547.29,-148.5C559.75,-148.5 573.21,-148.5 586.09,-148.5"/>
<polygon fill="#63b8ff" stroke="#63b8ff" points="586.26,-152 596.26,-148.5 586.26,-145 586.26,-152"/>
</g>
<!-- Node8&#45;&gt;Node7 -->
<g id="edge8" class="edge">
<title>Node8&#45;&gt;Node7</title>
<path fill="none" stroke="#63b8ff" d="M544.35,-79.59C564.17,-84.95 586.88,-91.1 605.94,-96.25"/>
<polygon fill="#63b8ff" stroke="#63b8ff" points="605.26,-99.69 615.82,-98.93 607.08,-92.94 605.26,-99.69"/>
</g>
<!-- Node9 -->
<g id="node9" class="node">
<title>Node9</title>
<g id="a_node9"><a xlink:href="structa60_1_1carto_1_1cartography.html#a57e14cabb4993189316e369a27752a73" target="_top" xlink:title=" ">
<polygon fill="white" stroke="#666666" points="706,-79.5 591,-79.5 591,-53.5 706,-53.5 706,-79.5"/>
<text text-anchor="start" x="599" y="-69.1" font-family="SourceSans" font-size="8.00">a60::carto::cartography</text>
<text text-anchor="middle" x="648.5" y="-60.1" font-family="SourceSans" font-size="8.00">::to_point_2d</text>
</a>
</g>
</g>
<!-- Node8&#45;&gt;Node9 -->
<g id="edge9" class="edge">
<title>Node8&#45;&gt;Node9</title>
<path fill="none" stroke="#63b8ff" d="M554.14,-66.5C562.78,-66.5 571.74,-66.5 580.54,-66.5"/>
<polygon fill="#63b8ff" stroke="#63b8ff" points="580.76,-70 590.76,-66.5 580.76,-63 580.76,-70"/>
</g>
<!-- Node10&#45;&gt;Node10 -->
<g id="edge11" class="edge">
<title>Node10&#45;&gt;Node10</title>
<path fill="none" stroke="#63b8ff" d="M472.35,-17.19C459.84,-25.67 467.39,-35 495,-35 513.55,-35 523.04,-30.79 523.48,-25.45"/>
<polygon fill="#63b8ff" stroke="#63b8ff" points="526.27,-23.34 517.65,-17.19 520.56,-27.37 526.27,-23.34"/>
</g>
<!-- Node12 -->
<g id="node12" class="node">
<title>Node12</title>
<g id="a_node12"><a xlink:href="namespacea60.html#a63203aef78ad674129103340323d3b63" target="_top" xlink:title="First layer.">
<polygon fill="white" stroke="#666666" points="400,-55 278,-55 278,-38 400,-38 400,-55"/>
<text text-anchor="middle" x="339" y="-44.6" font-family="SourceSans" font-size="8.00">a60::place_map_in_frame</text>
</a>
</g>
</g>
<!-- Node11&#45;&gt;Node12 -->
<g id="edge13" class="edge">
<title>Node11&#45;&gt;Node12</title>
<path fill="none" stroke="#63b8ff" d="M242.18,-46.5C250.49,-46.5 259.21,-46.5 267.86,-46.5"/>
<polygon fill="#63b8ff" stroke="#63b8ff" points="267.95,-50 277.95,-46.5 267.95,-43 267.95,-50"/>
</g>
</g>
</svg>
