<?xml version="1.0" encoding="UTF-8" standalone="no"?>
<!DOCTYPE svg PUBLIC "-//W3C//DTD SVG 1.1//EN"
 "http://www.w3.org/Graphics/SVG/1.1/DTD/svg11.dtd">
<!-- Generated by graphviz version 5.0.0 (0)
 -->
<!-- Title: a60::coalesce_torrents_cumulative Pages: 1 -->
<!--zoomable 405 -->
<svg id="main" version="1.1" xmlns="http://www.w3.org/2000/svg" xmlns:xlink="http://www.w3.org/1999/xlink" xml:space="preserve" onload="init(evt)">
<style type="text/css"><![CDATA[
.edge:hover path { stroke: red; }
.edge:hover polygon { stroke: red; fill: red; }
]]></style>
<script type="text/javascript"><![CDATA[
var edges = document.getElementsByTagName('g');
if (edges && edges.length) {
  for (var i=0;i<edges.length;i++) {
    if (edges[i].id.substr(0,4)=='edge') {
      edges[i].setAttribute('class','edge');
    }
  }
}
]]></script>
        <defs>
                <circle id="rim" cx="0" cy="0" r="7"/>
                <circle id="rim2" cx="0" cy="0" r="3.5"/>
                <g id="zoomPlus">
                        <use xlink:href="#rim" fill="#404040">
                                <set attributeName="fill" to="#808080" begin="zoomplus.mouseover" end="zoomplus.mouseout"/>
                        </use>
                        <path d="M-4,0h8M0,-4v8" fill="none" stroke="white" stroke-width="1.5" pointer-events="none"/>
                </g>
                <g id="zoomMin">
                        <use xlink:href="#rim" fill="#404040">
                                <set attributeName="fill" to="#808080" begin="zoomminus.mouseover" end="zoomminus.mouseout"/>
                        </use>
                        <path d="M-4,0h8" fill="none" stroke="white" stroke-width="1.5" pointer-events="none"/>
                </g>
                <g id="dirArrow">
                        <path fill="none" stroke="white" stroke-width="1.5" d="M0,-3.0v7 M-2.5,-0.5L0,-3.0L2.5,-0.5"/>
                </g>
               <g id="resetDef">
                       <use xlink:href="#rim2" fill="#404040">
                               <set attributeName="fill" to="#808080" begin="reset.mouseover" end="reset.mouseout"/>
                       </use>
               </g>
        </defs>

<script type="text/javascript">
var viewWidth = 907;
var viewHeight = 405;
var sectionId = 'dynsection-99';
</script>
<script xlink:href="svgpan.js"/>
<svg id="graph" class="graph">
<g id="viewport">
<title>a60::coalesce_torrents_cumulative</title>
<!-- Node1 -->
<g id="node1" class="node">
<title>Node1</title>
<g id="a_node1"><a xlink:title="Coalesce cumulative since origin.">
<polygon fill="#999999" stroke="#666666" points="110,-169 0,-169 0,-143 110,-143 110,-169"/>
<text text-anchor="start" x="8" y="-158.6" font-family="SourceSans" font-size="8.00">a60::coalesce_torrents</text>
<text text-anchor="middle" x="55" y="-149.6" font-family="SourceSans" font-size="8.00">_cumulative</text>
</a>
</g>
</g>
<!-- Node2 -->
<g id="node2" class="node">
<title>Node2</title>
<g id="a_node2"><a xlink:href="structa60_1_1collection.html#a7f30fa0063ad1433476a3fbb3ba689a6" target="_top" xlink:title=" ">
<polygon fill="white" stroke="#666666" points="268,-361 159,-361 159,-335 268,-335 268,-361"/>
<text text-anchor="start" x="167" y="-350.6" font-family="SourceSans" font-size="8.00">a60::collection::cache</text>
<text text-anchor="middle" x="213.5" y="-341.6" font-family="SourceSans" font-size="8.00">_files_by</text>
</a>
</g>
</g>
<!-- Node1&#45;&gt;Node2 -->
<g id="edge1" class="edge">
<title>Node1&#45;&gt;Node2</title>
<path fill="none" stroke="#63b8ff" d="M66.76,-169.2C93.46,-201.95 162.94,-287.2 195.37,-326.98"/>
<polygon fill="#63b8ff" stroke="#63b8ff" points="192.84,-329.42 201.87,-334.96 198.27,-325 192.84,-329.42"/>
</g>
<!-- Node6 -->
<g id="node6" class="node">
<title>Node6</title>
<g id="a_node6"><a xlink:href="namespacea60.html#af45982273a7a2e61b6aaa436081238c0" target="_top" xlink:title="Load JSON file to in&#45;memory DOM.">
<polygon fill="white" stroke="#666666" points="265.5,-213 161.5,-213 161.5,-187 265.5,-187 265.5,-213"/>
<text text-anchor="start" x="169.5" y="-202.6" font-family="SourceSans" font-size="8.00">a60::deserialize_json</text>
<text text-anchor="middle" x="213.5" y="-193.6" font-family="SourceSans" font-size="8.00">_to_dom_object</text>
</a>
</g>
</g>
<!-- Node1&#45;&gt;Node6 -->
<g id="edge5" class="edge">
<title>Node1&#45;&gt;Node6</title>
<path fill="none" stroke="#63b8ff" d="M102.53,-169.08C119.48,-173.85 138.83,-179.29 156.52,-184.26"/>
<polygon fill="#63b8ff" stroke="#63b8ff" points="155.57,-187.63 166.15,-186.97 157.47,-180.89 155.57,-187.63"/>
</g>
<!-- Node8 -->
<g id="node8" class="node">
<title>Node8</title>
<g id="a_node8"><a xlink:href="structa60_1_1collection.html#af04bc78a8049450c52a9460f5ae6b4cc" target="_top" xlink:title=" ">
<polygon fill="white" stroke="#666666" points="263.5,-169 163.5,-169 163.5,-143 263.5,-143 263.5,-169"/>
<text text-anchor="start" x="171.5" y="-158.6" font-family="SourceSans" font-size="8.00">a60::collection::find</text>
<text text-anchor="middle" x="213.5" y="-149.6" font-family="SourceSans" font-size="8.00">_data_dates</text>
</a>
</g>
</g>
<!-- Node1&#45;&gt;Node8 -->
<g id="edge7" class="edge">
<title>Node1&#45;&gt;Node8</title>
<path fill="none" stroke="#63b8ff" d="M110.3,-156C124.15,-156 139.11,-156 153.2,-156"/>
<polygon fill="#63b8ff" stroke="#63b8ff" points="153.28,-159.5 163.28,-156 153.28,-152.5 153.28,-159.5"/>
</g>
<!-- Node16 -->
<g id="node16" class="node">
<title>Node16</title>
<g id="a_node16"><a xlink:href="structa60_1_1collection.html#a3780f3266ff2355e74b737a201c89116" target="_top" xlink:title=" ">
<polygon fill="white" stroke="#666666" points="271,-257 156,-257 156,-231 271,-231 271,-257"/>
<text text-anchor="start" x="164" y="-246.6" font-family="SourceSans" font-size="8.00">a60::collection::mangle</text>
<text text-anchor="middle" x="213.5" y="-237.6" font-family="SourceSans" font-size="8.00">_tid_match_id</text>
</a>
</g>
</g>
<!-- Node1&#45;&gt;Node16 -->
<g id="edge19" class="edge">
<title>Node1&#45;&gt;Node16</title>
<path fill="none" stroke="#63b8ff" d="M70.64,-169.01C87.7,-183.6 117.24,-207.17 146,-222 149.55,-223.83 153.28,-225.55 157.08,-227.16"/>
<polygon fill="#63b8ff" stroke="#63b8ff" points="156.06,-230.52 166.65,-230.94 158.64,-224.01 156.06,-230.52"/>
</g>
<!-- Node23 -->
<g id="node23" class="node">
<title>Node23</title>
<g id="a_node23"><a xlink:href="namespacea60.html#a2dca4b99e18faf436d8783999c7d1713" target="_top" xlink:title="Less than compare for meta_peer via ip address.">
<polygon fill="white" stroke="#666666" points="264.5,-124.5 162.5,-124.5 162.5,-107.5 264.5,-107.5 264.5,-124.5"/>
<text text-anchor="middle" x="213.5" y="-114.1" font-family="SourceSans" font-size="8.00">a60::meta_peer_lt_ip</text>
</a>
</g>
</g>
<!-- Node1&#45;&gt;Node23 -->
<g id="edge27" class="edge">
<title>Node1&#45;&gt;Node23</title>
<path fill="none" stroke="#63b8ff" d="M107.24,-142.9C127.19,-137.8 149.81,-132.02 168.95,-127.13"/>
<polygon fill="#63b8ff" stroke="#63b8ff" points="170.08,-130.45 178.9,-124.59 168.35,-123.67 170.08,-130.45"/>
</g>
<!-- Node24 -->
<g id="node24" class="node">
<title>Node24</title>
<g id="a_node24"><a xlink:href="namespacea60.html#a481196ce0dd2fed071183fa6e47ecd70" target="_top" xlink:title="Write out meta_peers for a specific ID at SUFFIX.">
<polygon fill="white" stroke="#666666" points="281,-89.5 146,-89.5 146,-72.5 281,-72.5 281,-89.5"/>
<text text-anchor="middle" x="213.5" y="-79.1" font-family="SourceSans" font-size="8.00">a60::reserialize_sample_json</text>
</a>
</g>
</g>
<!-- Node1&#45;&gt;Node24 -->
<g id="edge28" class="edge">
<title>Node1&#45;&gt;Node24</title>
<path fill="none" stroke="#63b8ff" d="M73.05,-142.99C90.53,-130.2 118.91,-110.92 146,-99 151.47,-96.59 157.34,-94.44 163.24,-92.53"/>
<polygon fill="#63b8ff" stroke="#63b8ff" points="164.58,-95.79 173.14,-89.56 162.56,-89.08 164.58,-95.79"/>
</g>
<!-- Node31 -->
<g id="node31" class="node">
<title>Node31</title>
<g id="a_node31"><a xlink:href="namespacea60.html#a6ce8704ec3c4d5e258d062283dd40efb" target="_top" xlink:title="Search DOM for meta_peer(s).">
<polygon fill="white" stroke="#666666" points="265,-54 162,-54 162,-28 265,-28 265,-54"/>
<text text-anchor="start" x="170" y="-43.6" font-family="SourceSans" font-size="8.00">a60::search_dom_for</text>
<text text-anchor="middle" x="213.5" y="-34.6" font-family="SourceSans" font-size="8.00">_meta_peers</text>
</a>
</g>
</g>
<!-- Node1&#45;&gt;Node31 -->
<g id="edge35" class="edge">
<title>Node1&#45;&gt;Node31</title>
<path fill="none" stroke="#63b8ff" d="M65.6,-142.84C80.65,-123.08 111.65,-85.76 146,-64 149.33,-61.89 152.88,-59.95 156.53,-58.16"/>
<polygon fill="#63b8ff" stroke="#63b8ff" points="158.07,-61.31 165.79,-54.05 155.23,-54.91 158.07,-61.31"/>
</g>
<!-- Node3 -->
<g id="node3" class="node">
<title>Node3</title>
<g id="a_node3"><a xlink:href="namespacea60_1_1io.html#aea30b8fc474f5a7b922516dc1e199037" target="_top" xlink:title="Takes a string representing a directory, returns a sorted list of contents as a std::vector&lt;string&gt;.">
<polygon fill="white" stroke="#666666" points="430,-396.5 320,-396.5 320,-379.5 430,-379.5 430,-396.5"/>
<text text-anchor="middle" x="375" y="-386.1" font-family="SourceSans" font-size="8.00">a60::io::populate_files</text>
</a>
</g>
</g>
<!-- Node2&#45;&gt;Node3 -->
<g id="edge2" class="edge">
<title>Node2&#45;&gt;Node3</title>
<path fill="none" stroke="#63b8ff" d="M266.73,-361.1C287.15,-366.22 310.32,-372.03 329.89,-376.94"/>
<polygon fill="#63b8ff" stroke="#63b8ff" points="329.21,-380.38 339.76,-379.41 330.91,-373.59 329.21,-380.38"/>
</g>
<!-- Node4 -->
<g id="node4" class="node">
<title>Node4</title>
<g id="a_node4"><a xlink:href="structa60_1_1collection.html#a481d8e6e9ea5f9cb136846d75b0f50c4" target="_top" xlink:title=" ">
<polygon fill="white" stroke="#666666" points="432,-361 318,-361 318,-335 432,-335 432,-361"/>
<text text-anchor="start" x="326" y="-350.6" font-family="SourceSans" font-size="8.00">a60::collection::remove</text>
<text text-anchor="middle" x="375" y="-341.6" font-family="SourceSans" font-size="8.00">_matching_strings</text>
</a>
</g>
</g>
<!-- Node2&#45;&gt;Node4 -->
<g id="edge3" class="edge">
<title>Node2&#45;&gt;Node4</title>
<path fill="none" stroke="#63b8ff" d="M268.05,-348C280.82,-348 294.59,-348 307.85,-348"/>
<polygon fill="#63b8ff" stroke="#63b8ff" points="307.86,-351.5 317.86,-348 307.86,-344.5 307.86,-351.5"/>
</g>
<!-- Node5 -->
<g id="node5" class="node">
<title>Node5</title>
<g id="a_node5"><a xlink:href="namespacea60.html#ac7eddb2e330d8983ddc852edde5335c5" target="_top" xlink:title=" ">
<polygon fill="white" stroke="#666666" points="593.5,-364.5 474.5,-364.5 474.5,-347.5 593.5,-347.5 593.5,-364.5"/>
<text text-anchor="middle" x="534" y="-354.1" font-family="SourceSans" font-size="8.00">a60::to_lowercase_string</text>
</a>
</g>
</g>
<!-- Node4&#45;&gt;Node5 -->
<g id="edge4" class="edge">
<title>Node4&#45;&gt;Node5</title>
<path fill="none" stroke="#63b8ff" d="M432.24,-350.87C442.57,-351.39 453.47,-351.95 464.12,-352.49"/>
<polygon fill="#63b8ff" stroke="#63b8ff" points="464.08,-355.99 474.24,-353.01 464.43,-349 464.08,-355.99"/>
</g>
<!-- Node7 -->
<g id="node7" class="node">
<title>Node7</title>
<g id="a_node7"><a xlink:href="namespacea60.html#a538d43bb9bfa488a54cea929736dbe2d" target="_top" xlink:title="Deserialize input file.">
<polygon fill="white" stroke="#666666" points="427,-213 323,-213 323,-187 427,-187 427,-213"/>
<text text-anchor="start" x="331" y="-202.6" font-family="SourceSans" font-size="8.00">a60::deserialize_json</text>
<text text-anchor="middle" x="375" y="-193.6" font-family="SourceSans" font-size="8.00">_to_dom</text>
</a>
</g>
</g>
<!-- Node6&#45;&gt;Node7 -->
<g id="edge6" class="edge">
<title>Node6&#45;&gt;Node7</title>
<path fill="none" stroke="#63b8ff" d="M265.84,-200C280.79,-200 297.26,-200 312.74,-200"/>
<polygon fill="#63b8ff" stroke="#63b8ff" points="312.75,-203.5 322.75,-200 312.75,-196.5 312.75,-203.5"/>
</g>
<!-- Node9 -->
<g id="node9" class="node">
<title>Node9</title>
<g id="a_node9"><a xlink:href="structa60_1_1collection.html#a61604643dbeea09b4fb20d6db5658b91" target="_top" xlink:title=" ">
<polygon fill="white" stroke="#666666" points="425,-169 325,-169 325,-143 425,-143 425,-169"/>
<text text-anchor="start" x="333" y="-158.6" font-family="SourceSans" font-size="8.00">a60::collection::find</text>
<text text-anchor="middle" x="375" y="-149.6" font-family="SourceSans" font-size="8.00">_data_dates_times</text>
</a>
</g>
</g>
<!-- Node8&#45;&gt;Node9 -->
<g id="edge8" class="edge">
<title>Node8&#45;&gt;Node9</title>
<path fill="none" stroke="#63b8ff" d="M263.66,-156C279.73,-156 297.75,-156 314.5,-156"/>
<polygon fill="#63b8ff" stroke="#63b8ff" points="314.73,-159.5 324.73,-156 314.73,-152.5 314.73,-159.5"/>
</g>
<!-- Node10 -->
<g id="node10" class="node">
<title>Node10</title>
<g id="a_node10"><a xlink:href="structa60_1_1collection.html#a772cab0c0123491c08a92fce4cf0eacb" target="_top" xlink:title=" ">
<polygon fill="white" stroke="#666666" points="759,-218 635,-218 635,-192 759,-192 759,-218"/>
<text text-anchor="start" x="643" y="-207.6" font-family="SourceSans" font-size="8.00">a60::collection::collection</text>
<text text-anchor="middle" x="697" y="-198.6" font-family="SourceSans" font-size="8.00">_archive_directory</text>
</a>
</g>
</g>
<!-- Node9&#45;&gt;Node10 -->
<g id="edge9" class="edge">
<title>Node9&#45;&gt;Node10</title>
<path fill="none" stroke="#63b8ff" d="M425.3,-163.55C478.69,-171.72 564.34,-184.84 624.98,-194.13"/>
<polygon fill="#63b8ff" stroke="#63b8ff" points="624.46,-197.59 634.87,-195.64 625.52,-190.67 624.46,-197.59"/>
</g>
<!-- Node13 -->
<g id="node13" class="node">
<title>Node13</title>
<g id="a_node13"><a xlink:href="structa60_1_1collection.html#abc4d01b1b17d4622939cb6c5c0f9b38b" target="_top" xlink:title=" ">
<polygon fill="white" stroke="#666666" points="592,-158 476,-158 476,-132 592,-132 592,-158"/>
<text text-anchor="start" x="484" y="-147.6" font-family="SourceSans" font-size="8.00">a60::collection::prune</text>
<text text-anchor="middle" x="534" y="-138.6" font-family="SourceSans" font-size="8.00">_archive_sub_directories</text>
</a>
</g>
</g>
<!-- Node9&#45;&gt;Node13 -->
<g id="edge12" class="edge">
<title>Node9&#45;&gt;Node13</title>
<path fill="none" stroke="#63b8ff" d="M425.25,-152.55C438.07,-151.65 452.12,-150.67 465.7,-149.72"/>
<polygon fill="#63b8ff" stroke="#63b8ff" points="466.24,-153.19 475.98,-149 465.75,-146.2 466.24,-153.19"/>
</g>
<!-- Node11 -->
<g id="node11" class="node">
<title>Node11</title>
<g id="a_node11"><a xlink:href="namespacea60_1_1io.html#a16f17ea9e02c1975ca17b77e46cf7629" target="_top" xlink:title="Make sure a path ends in &#39;/&#39;;.">
<polygon fill="white" stroke="#666666" points="892,-203.5 802,-203.5 802,-186.5 892,-186.5 892,-203.5"/>
<text text-anchor="middle" x="847" y="-193.1" font-family="SourceSans" font-size="8.00">a60::io::end_path</text>
</a>
</g>
</g>
<!-- Node10&#45;&gt;Node11 -->
<g id="edge10" class="edge">
<title>Node10&#45;&gt;Node11</title>
<path fill="none" stroke="#63b8ff" d="M759.05,-200.87C769.91,-200.14 781.16,-199.38 791.81,-198.66"/>
<polygon fill="#63b8ff" stroke="#63b8ff" points="792.07,-202.15 801.81,-197.99 791.6,-195.17 792.07,-202.15"/>
</g>
<!-- Node12 -->
<g id="node12" class="node">
<title>Node12</title>
<g id="a_node12"><a xlink:href="namespacea60_1_1io.html#ac95e5271a27a23bc2336d84b3f821fa2" target="_top" xlink:title="Constant filesystem and run&#45;time resources.">
<polygon fill="white" stroke="#666666" points="899,-158 795,-158 795,-132 899,-132 899,-158"/>
<text text-anchor="start" x="803" y="-147.6" font-family="SourceSans" font-size="8.00">a60::io::get_run_time</text>
<text text-anchor="middle" x="847" y="-138.6" font-family="SourceSans" font-size="8.00">_resources</text>
</a>
</g>
</g>
<!-- Node10&#45;&gt;Node12 -->
<g id="edge11" class="edge">
<title>Node10&#45;&gt;Node12</title>
<path fill="none" stroke="#63b8ff" d="M730.11,-191.98C751.86,-183.17 780.8,-171.43 804.31,-161.9"/>
<polygon fill="#63b8ff" stroke="#63b8ff" points="805.74,-165.1 813.69,-158.1 803.11,-158.61 805.74,-165.1"/>
</g>
<!-- Node13&#45;&gt;Node10 -->
<g id="edge13" class="edge">
<title>Node13&#45;&gt;Node10</title>
<path fill="none" stroke="#63b8ff" d="M569.93,-158.02C593.8,-166.91 625.63,-178.77 651.33,-188.35"/>
<polygon fill="#63b8ff" stroke="#63b8ff" points="650.26,-191.69 660.86,-191.9 652.71,-185.13 650.26,-191.69"/>
</g>
<!-- Node13&#45;&gt;Node11 -->
<g id="edge14" class="edge">
<title>Node13&#45;&gt;Node11</title>
<path fill="none" stroke="#63b8ff" d="M592.04,-154.17C649,-163.33 735.88,-177.3 791.81,-186.29"/>
<polygon fill="#63b8ff" stroke="#63b8ff" points="791.45,-189.77 801.88,-187.91 792.56,-182.86 791.45,-189.77"/>
</g>
<!-- Node13&#45;&gt;Node12 -->
<g id="edge15" class="edge">
<title>Node13&#45;&gt;Node12</title>
<path fill="none" stroke="#63b8ff" d="M592.04,-145C646.68,-145 728.88,-145 784.85,-145"/>
<polygon fill="#63b8ff" stroke="#63b8ff" points="784.99,-148.5 794.99,-145 784.99,-141.5 784.99,-148.5"/>
</g>
<!-- Node14 -->
<g id="node14" class="node">
<title>Node14</title>
<g id="a_node14"><a xlink:href="namespacea60_1_1constants.html#ac27c77e4606552ae5f74a1c21dd9258e" target="_top" xlink:title=" ">
<polygon fill="white" stroke="#666666" points="755.5,-97.5 638.5,-97.5 638.5,-80.5 755.5,-80.5 755.5,-97.5"/>
<text text-anchor="middle" x="697" y="-87.1" font-family="SourceSans" font-size="8.00">a60::constants::newline</text>
</a>
</g>
</g>
<!-- Node13&#45;&gt;Node14 -->
<g id="edge16" class="edge">
<title>Node13&#45;&gt;Node14</title>
<path fill="none" stroke="#63b8ff" d="M573.25,-131.89C581.74,-128.97 590.68,-125.89 599,-123 620.01,-115.71 643.54,-107.46 662.17,-100.91"/>
<polygon fill="#63b8ff" stroke="#63b8ff" points="663.42,-104.18 671.7,-97.56 661.1,-97.58 663.42,-104.18"/>
</g>
<!-- Node15 -->
<g id="node15" class="node">
<title>Node15</title>
<g id="a_node15"><a xlink:href="namespacea60_1_1io.html#afbc9bd4e46187119419128390e16a033" target="_top" xlink:title="Takes a string representing a directory, returns a list of contents as a std::vector&lt;string&gt;.">
<polygon fill="white" stroke="#666666" points="750.5,-44 643.5,-44 643.5,-18 750.5,-18 750.5,-44"/>
<text text-anchor="start" x="651.5" y="-33.6" font-family="SourceSans" font-size="8.00">a60::io::populate_sub</text>
<text text-anchor="middle" x="697" y="-24.6" font-family="SourceSans" font-size="8.00">_directories</text>
</a>
</g>
</g>
<!-- Node13&#45;&gt;Node15 -->
<g id="edge17" class="edge">
<title>Node13&#45;&gt;Node15</title>
<path fill="none" stroke="#63b8ff" d="M583.83,-131.89C589.21,-129.39 594.39,-126.45 599,-123 621.19,-106.35 615.16,-91.39 635,-72 643.45,-63.74 653.78,-56.09 663.51,-49.68"/>
<polygon fill="#63b8ff" stroke="#63b8ff" points="665.63,-52.48 672.21,-44.18 661.89,-46.57 665.63,-52.48"/>
</g>
<!-- Node15&#45;&gt;Node15 -->
<g id="edge18" class="edge">
<title>Node15&#45;&gt;Node15</title>
<path fill="none" stroke="#63b8ff" d="M671.62,-44.06C663.93,-53.1 672.39,-62 697,-62 712,-62 721,-58.69 724,-54.07"/>
<polygon fill="#63b8ff" stroke="#63b8ff" points="727.43,-53.37 722.38,-44.06 720.52,-54.49 727.43,-53.37"/>
</g>
<!-- Node17 -->
<g id="node17" class="node">
<title>Node17</title>
<g id="a_node17"><a xlink:href="structa60_1_1collection.html#ab234addb5725bb5900b44f55ec1aae10" target="_top" xlink:title=" ">
<polygon fill="white" stroke="#666666" points="432.5,-257 317.5,-257 317.5,-231 432.5,-231 432.5,-257"/>
<text text-anchor="start" x="325.5" y="-246.6" font-family="SourceSans" font-size="8.00">a60::collection::mangle</text>
<text text-anchor="middle" x="375" y="-237.6" font-family="SourceSans" font-size="8.00">_with_id</text>
</a>
</g>
</g>
<!-- Node16&#45;&gt;Node17 -->
<g id="edge20" class="edge">
<title>Node16&#45;&gt;Node17</title>
<path fill="none" stroke="#63b8ff" d="M271.18,-244C282.94,-244 295.42,-244 307.49,-244"/>
<polygon fill="#63b8ff" stroke="#63b8ff" points="307.5,-247.5 317.5,-244 307.5,-240.5 307.5,-247.5"/>
</g>
<!-- Node19 -->
<g id="node19" class="node">
<title>Node19</title>
<g id="a_node19"><a xlink:href="structa60_1_1collection.html#a80993af9aec8238db8e44da1e9a3c994" target="_top" xlink:title=" ">
<polygon fill="white" stroke="#666666" points="426.5,-302 323.5,-302 323.5,-276 426.5,-276 426.5,-302"/>
<text text-anchor="start" x="331.5" y="-291.6" font-family="SourceSans" font-size="8.00">a60::collection::slice</text>
<text text-anchor="middle" x="375" y="-282.6" font-family="SourceSans" font-size="8.00">_name_mangled</text>
</a>
</g>
</g>
<!-- Node16&#45;&gt;Node19 -->
<g id="edge22" class="edge">
<title>Node16&#45;&gt;Node19</title>
<path fill="none" stroke="#63b8ff" d="M260.63,-257.02C278.49,-262.05 299.11,-267.87 317.82,-273.15"/>
<polygon fill="#63b8ff" stroke="#63b8ff" points="317.12,-276.59 327.69,-275.94 319.02,-269.85 317.12,-276.59"/>
</g>
<!-- Node18 -->
<g id="node18" class="node">
<title>Node18</title>
<g id="a_node18"><a xlink:href="structa60_1_1collection.html#a899f781ad983b2ec1f0da35a5d3f8b54" target="_top" xlink:title=" ">
<polygon fill="white" stroke="#666666" points="591.5,-249.5 476.5,-249.5 476.5,-214.5 591.5,-214.5 591.5,-249.5"/>
<text text-anchor="start" x="484.5" y="-239.1" font-family="SourceSans" font-size="8.00">a60::collection::mangle</text>
<text text-anchor="start" x="484.5" y="-230.1" font-family="SourceSans" font-size="8.00">_duration_significant</text>
<text text-anchor="middle" x="534" y="-221.1" font-family="SourceSans" font-size="8.00">_digits</text>
</a>
</g>
</g>
<!-- Node17&#45;&gt;Node18 -->
<g id="edge21" class="edge">
<title>Node17&#45;&gt;Node18</title>
<path fill="none" stroke="#63b8ff" d="M432.68,-239.67C443.57,-238.84 455.08,-237.96 466.26,-237.1"/>
<polygon fill="#63b8ff" stroke="#63b8ff" points="466.7,-240.58 476.4,-236.33 466.16,-233.6 466.7,-240.58"/>
</g>
<!-- Node19&#45;&gt;Node5 -->
<g id="edge24" class="edge">
<title>Node19&#45;&gt;Node5</title>
<path fill="none" stroke="#63b8ff" d="M397.11,-302.2C415.53,-313.26 443.26,-328.82 469,-339 474.15,-341.03 479.62,-342.9 485.11,-344.6"/>
<polygon fill="#63b8ff" stroke="#63b8ff" points="484.38,-348.03 494.96,-347.46 486.34,-341.31 484.38,-348.03"/>
</g>
<!-- Node20 -->
<g id="node20" class="node">
<title>Node20</title>
<g id="a_node20"><a xlink:href="structa60_1_1collection.html#a25b35cf4ac39da89d868fe2cf41b5acd" target="_top" xlink:title=" ">
<polygon fill="white" stroke="#666666" points="599,-329.5 469,-329.5 469,-312.5 599,-312.5 599,-329.5"/>
<text text-anchor="middle" x="534" y="-319.1" font-family="SourceSans" font-size="8.00">a60::collection::slice_name</text>
</a>
</g>
</g>
<!-- Node19&#45;&gt;Node20 -->
<g id="edge23" class="edge">
<title>Node19&#45;&gt;Node20</title>
<path fill="none" stroke="#63b8ff" d="M426.54,-299.3C444,-302.86 463.58,-306.85 481.15,-310.43"/>
<polygon fill="#63b8ff" stroke="#63b8ff" points="480.72,-313.92 491.22,-312.48 482.12,-307.06 480.72,-313.92"/>
</g>
<!-- Node21 -->
<g id="node21" class="node">
<title>Node21</title>
<g id="a_node21"><a xlink:href="namespacea60.html#a11d9ffc210e8dca8410e7a5ad62deabc" target="_top" xlink:title=" ">
<polygon fill="white" stroke="#666666" points="590.5,-294 477.5,-294 477.5,-268 590.5,-268 590.5,-294"/>
<text text-anchor="start" x="485.5" y="-283.6" font-family="SourceSans" font-size="8.00">a60::to_replace_spaces</text>
<text text-anchor="middle" x="534" y="-274.6" font-family="SourceSans" font-size="8.00">_string</text>
</a>
</g>
</g>
<!-- Node19&#45;&gt;Node21 -->
<g id="edge25" class="edge">
<title>Node19&#45;&gt;Node21</title>
<path fill="none" stroke="#63b8ff" d="M426.54,-286.42C439.47,-285.77 453.56,-285.05 467.14,-284.36"/>
<polygon fill="#63b8ff" stroke="#63b8ff" points="467.58,-287.84 477.39,-283.83 467.23,-280.85 467.58,-287.84"/>
</g>
<!-- Node22 -->
<g id="node22" class="node">
<title>Node22</title>
<g id="a_node22"><a xlink:href="namespacea60.html#a751f954fe64233f1dc6517220e4b5692" target="_top" xlink:title=" ">
<polygon fill="white" stroke="#666666" points="750.5,-289.5 643.5,-289.5 643.5,-272.5 750.5,-272.5 750.5,-289.5"/>
<text text-anchor="middle" x="697" y="-279.1" font-family="SourceSans" font-size="8.00">a60::to_replace_string</text>
</a>
</g>
</g>
<!-- Node21&#45;&gt;Node22 -->
<g id="edge26" class="edge">
<title>Node21&#45;&gt;Node22</title>
<path fill="none" stroke="#63b8ff" d="M590.86,-281C604.6,-281 619.4,-281 633.43,-281"/>
<polygon fill="#63b8ff" stroke="#63b8ff" points="633.49,-284.5 643.49,-281 633.49,-277.5 633.49,-284.5"/>
</g>
<!-- Node25 -->
<g id="node25" class="node">
<title>Node25</title>
<g id="a_node25"><a xlink:href="namespacea60.html#aba8b47de875bd5bebeed9c57e3b52c06" target="_top" xlink:title="Serialize buffer to output file.">
<polygon fill="white" stroke="#666666" points="425.5,-121.5 324.5,-121.5 324.5,-104.5 425.5,-104.5 425.5,-121.5"/>
<text text-anchor="middle" x="375" y="-111.1" font-family="SourceSans" font-size="8.00">a60::serialize_buffer</text>
</a>
</g>
</g>
<!-- Node24&#45;&gt;Node25 -->
<g id="edge29" class="edge">
<title>Node24&#45;&gt;Node25</title>
<path fill="none" stroke="#63b8ff" d="M257.24,-89.58C276.99,-93.54 300.62,-98.28 321.45,-102.46"/>
<polygon fill="#63b8ff" stroke="#63b8ff" points="320.92,-105.92 331.42,-104.46 322.3,-99.06 320.92,-105.92"/>
</g>
<!-- Node26 -->
<g id="node26" class="node">
<title>Node26</title>
<g id="a_node26"><a xlink:href="namespacea60.html#a94d004bc4c17246fd2bb76cabb121d9a" target="_top" xlink:title="Per collection metadata for given duration.">
<polygon fill="white" stroke="#666666" points="433,-86 317,-86 317,-60 433,-60 433,-86"/>
<text text-anchor="start" x="325" y="-75.6" font-family="SourceSans" font-size="8.00">a60::serialize_collection</text>
<text text-anchor="middle" x="375" y="-66.6" font-family="SourceSans" font-size="8.00">_metadata_json</text>
</a>
</g>
</g>
<!-- Node24&#45;&gt;Node26 -->
<g id="edge30" class="edge">
<title>Node24&#45;&gt;Node26</title>
<path fill="none" stroke="#63b8ff" d="M281.22,-77.65C289.59,-77.23 298.17,-76.8 306.55,-76.38"/>
<polygon fill="#63b8ff" stroke="#63b8ff" points="306.85,-79.87 316.66,-75.88 306.5,-72.88 306.85,-79.87"/>
</g>
<!-- Node29 -->
<g id="node29" class="node">
<title>Node29</title>
<g id="a_node29"><a xlink:href="namespacea60.html#a87cd73602b7d6cf64ef441200cfda504" target="_top" xlink:title="Serialize vector of meta_peer.">
<polygon fill="white" stroke="#666666" points="424,-36 326,-36 326,-10 424,-10 424,-36"/>
<text text-anchor="start" x="334" y="-25.6" font-family="SourceSans" font-size="8.00">a60::serialize_meta</text>
<text text-anchor="middle" x="375" y="-16.6" font-family="SourceSans" font-size="8.00">_peers_json</text>
</a>
</g>
</g>
<!-- Node24&#45;&gt;Node29 -->
<g id="edge33" class="edge">
<title>Node24&#45;&gt;Node29</title>
<path fill="none" stroke="#63b8ff" d="M249.64,-72.49C259.85,-69.75 270.95,-66.5 281,-63 299.73,-56.47 320.02,-47.93 336.85,-40.41"/>
<polygon fill="#63b8ff" stroke="#63b8ff" points="338.66,-43.44 346.33,-36.13 335.77,-37.06 338.66,-43.44"/>
</g>
<!-- Node27 -->
<g id="node27" class="node">
<title>Node27</title>
<g id="a_node27"><a xlink:href="structa60_1_1collection.html#a8ac066ef3bb824d0ecff3b1238e358e4" target="_top" xlink:title=" ">
<polygon fill="white" stroke="#666666" points="583,-114 485,-114 485,-88 583,-88 583,-114"/>
<text text-anchor="start" x="493" y="-103.6" font-family="SourceSans" font-size="8.00">a60::collection::get</text>
<text text-anchor="middle" x="534" y="-94.6" font-family="SourceSans" font-size="8.00">_name_from_tid</text>
</a>
</g>
</g>
<!-- Node26&#45;&gt;Node27 -->
<g id="edge31" class="edge">
<title>Node26&#45;&gt;Node27</title>
<path fill="none" stroke="#63b8ff" d="M433.12,-83.19C446.68,-85.61 461.15,-88.19 474.76,-90.61"/>
<polygon fill="#63b8ff" stroke="#63b8ff" points="474.5,-94.12 484.96,-92.43 475.73,-87.23 474.5,-94.12"/>
</g>
<!-- Node28 -->
<g id="node28" class="node">
<title>Node28</title>
<g id="a_node28"><a xlink:href="namespacea60.html#a5491ff3ca7dc34407696caaa90828819" target="_top" xlink:title="First collection serialization, common for all writing.">
<polygon fill="white" stroke="#666666" points="592,-70 476,-70 476,-44 592,-44 592,-70"/>
<text text-anchor="start" x="484" y="-59.6" font-family="SourceSans" font-size="8.00">a60::serialize_collection</text>
<text text-anchor="middle" x="534" y="-50.6" font-family="SourceSans" font-size="8.00">_base_json</text>
</a>
</g>
</g>
<!-- Node26&#45;&gt;Node28 -->
<g id="edge32" class="edge">
<title>Node26&#45;&gt;Node28</title>
<path fill="none" stroke="#63b8ff" d="M433.12,-67.18C443.69,-66.1 454.81,-64.97 465.65,-63.86"/>
<polygon fill="#63b8ff" stroke="#63b8ff" points="466.32,-67.31 475.92,-62.82 465.61,-60.35 466.32,-67.31"/>
</g>
<!-- Node30 -->
<g id="node30" class="node">
<title>Node30</title>
<g id="a_node30"><a xlink:href="namespacea60.html#a2228baa081fe66cea91ed8032bda4732" target="_top" xlink:title="Serialize meta_peer.">
<polygon fill="white" stroke="#666666" points="583,-26 485,-26 485,0 583,0 583,-26"/>
<text text-anchor="start" x="493" y="-15.6" font-family="SourceSans" font-size="8.00">a60::serialize_meta</text>
<text text-anchor="middle" x="534" y="-6.6" font-family="SourceSans" font-size="8.00">_peer_json</text>
</a>
</g>
</g>
<!-- Node29&#45;&gt;Node30 -->
<g id="edge34" class="edge">
<title>Node29&#45;&gt;Node30</title>
<path fill="none" stroke="#63b8ff" d="M424.39,-19.92C440.28,-18.91 458.11,-17.77 474.66,-16.72"/>
<polygon fill="#63b8ff" stroke="#63b8ff" points="475.02,-20.2 484.77,-16.07 474.57,-13.21 475.02,-20.2"/>
</g>
</g>
</svg>
        <g id="navigator" transform="translate(0 0)" fill="#404254">
                <rect fill="#f2f5e9" fill-opacity="0.5" stroke="#606060" stroke-width=".5" x="0" y="0" width="60" height="60"/>
                <use id="zoomplus" xlink:href="#zoomPlus" x="17" y="9" onmousedown="handleZoom(evt,'in')"/>
                <use id="zoomminus" xlink:href="#zoomMin" x="42" y="9" onmousedown="handleZoom(evt,'out')"/>
                <use id="reset" xlink:href="#resetDef" x="30" y="36" onmousedown="handleReset()"/>
                <g id="arrowUp" xlink:href="#dirArrow" transform="translate(30 24)" onmousedown="handlePan(0,-1)">
                  <use xlink:href="#rim" fill="#404040">
                        <set attributeName="fill" to="#808080" begin="arrowUp.mouseover" end="arrowUp.mouseout"/>
                  </use>
                  <path fill="none" stroke="white" stroke-width="1.5" d="M0,-3.0v7 M-2.5,-0.5L0,-3.0L2.5,-0.5"/>
                </g>
                <g id="arrowRight" xlink:href="#dirArrow" transform="rotate(90) translate(36 -43)" onmousedown="handlePan(1,0)">
                  <use xlink:href="#rim" fill="#404040">
                        <set attributeName="fill" to="#808080" begin="arrowRight.mouseover" end="arrowRight.mouseout"/>
                  </use>
                  <path fill="none" stroke="white" stroke-width="1.5" d="M0,-3.0v7 M-2.5,-0.5L0,-3.0L2.5,-0.5"/>
                </g>
                <g id="arrowDown" xlink:href="#dirArrow" transform="rotate(180) translate(-30 -48)" onmousedown="handlePan(0,1)">
                  <use xlink:href="#rim" fill="#404040">
                        <set attributeName="fill" to="#808080" begin="arrowDown.mouseover" end="arrowDown.mouseout"/>
                  </use>
                  <path fill="none" stroke="white" stroke-width="1.5" d="M0,-3.0v7 M-2.5,-0.5L0,-3.0L2.5,-0.5"/>
                </g>
                <g id="arrowLeft" xlink:href="#dirArrow" transform="rotate(270) translate(-36 17)" onmousedown="handlePan(-1,0)">
                  <use xlink:href="#rim" fill="#404040">
                        <set attributeName="fill" to="#808080" begin="arrowLeft.mouseover" end="arrowLeft.mouseout"/>
                  </use>
                  <path fill="none" stroke="white" stroke-width="1.5" d="M0,-3.0v7 M-2.5,-0.5L0,-3.0L2.5,-0.5"/>
                </g>
        </g>
        <svg viewBox="0 0 15 15" width="100%" height="30px" preserveAspectRatio="xMaxYMin meet">
         <g id="arrow_out" transform="scale(0.3 0.3)">
          <a xlink:href="namespacea60_a2ed655a7168586fc58e082bfe9714b72_cgraph_org.svg" target="_base">
           <rect id="button" ry="5" rx="5" y="6" x="6" height="38" width="38"
                fill="#f2f5e9" fill-opacity="0.5" stroke="#606060" stroke-width="1.0"/>
           <path id="arrow"
             d="M 11.500037,31.436501 C 11.940474,20.09759 22.043105,11.32322 32.158766,21.979434 L 37.068811,17.246167 C 37.068811,17.246167 37.088388,32 37.088388,32 L 22.160133,31.978069 C 22.160133,31.978069 26.997745,27.140456 26.997745,27.140456 C 18.528582,18.264221 13.291696,25.230495 11.500037,31.436501 z"
             style="fill:#404040;"/>
          </a>
         </g>
        </svg>
</svg>
