<?xml version="1.0" encoding="UTF-8" standalone="no"?>
<!DOCTYPE svg PUBLIC "-//W3C//DTD SVG 1.1//EN"
 "http://www.w3.org/Graphics/SVG/1.1/DTD/svg11.dtd">
<!-- Generated by graphviz version 5.0.0 (0)
 -->
<!-- Title: a60::augment_weighed_by_torrent Pages: 1 -->
<svg width="937pt" height="357pt"
 viewBox="0.00 0.00 937.00 357.00" xmlns="http://www.w3.org/2000/svg" xmlns:xlink="http://www.w3.org/1999/xlink">
<g id="graph0" class="graph" transform="scale(1 1) rotate(0) translate(4 353)">
<title>a60::augment_weighed_by_torrent</title>
<!-- Node1 -->
<g id="node1" class="node">
<title>Node1</title>
<g id="a_node1"><a xlink:title="Augment peers/seeds for all d(days, weeks) that have been coalesced.">
<polygon fill="#999999" stroke="#666666" points="114,-136 0,-136 0,-110 114,-110 114,-136"/>
<text text-anchor="start" x="8" y="-125.6" font-family="SourceSans" font-size="8.00">a60::augment_weighed</text>
<text text-anchor="middle" x="57" y="-116.6" font-family="SourceSans" font-size="8.00">_by_torrent</text>
</a>
</g>
</g>
<!-- Node2 -->
<g id="node2" class="node">
<title>Node2</title>
<g id="a_node2"><a xlink:href="namespacea60.html#afd267ab94266951ec08784e178349e3c" target="_top" xlink:title="Common parts of weighed collections.">
<polygon fill="white" stroke="#666666" points="263.5,-264.5 164.5,-264.5 164.5,-247.5 263.5,-247.5 263.5,-264.5"/>
<text text-anchor="middle" x="214" y="-254.1" font-family="SourceSans" font-size="8.00">a60::augment_base</text>
</a>
</g>
</g>
<!-- Node1&#45;&gt;Node2 -->
<g id="edge1" class="edge">
<title>Node1&#45;&gt;Node2</title>
<path fill="none" stroke="#63b8ff" d="M68.69,-136.02C84.96,-155.35 117.48,-192.13 150,-218 161.51,-227.16 175.42,-235.77 187.24,-242.47"/>
<polygon fill="#63b8ff" stroke="#63b8ff" points="185.74,-245.64 196.18,-247.41 189.12,-239.51 185.74,-245.64"/>
</g>
<!-- Node14 -->
<g id="node14" class="node">
<title>Node14</title>
<g id="a_node14"><a xlink:href="namespacea60.html#a9aeac8f37ba3b5b580d305b0e6e406ac" target="_top" xlink:title=" ">
<polygon fill="white" stroke="#666666" points="273.5,-176 154.5,-176 154.5,-150 273.5,-150 273.5,-176"/>
<text text-anchor="start" x="162.5" y="-165.6" font-family="SourceSans" font-size="8.00">a60::augment_collection</text>
<text text-anchor="middle" x="214" y="-156.6" font-family="SourceSans" font-size="8.00">_color_bar</text>
</a>
</g>
</g>
<!-- Node1&#45;&gt;Node14 -->
<g id="edge19" class="edge">
<title>Node1&#45;&gt;Node14</title>
<path fill="none" stroke="#63b8ff" d="M108.75,-136.1C122.74,-139.71 138.05,-143.66 152.53,-147.4"/>
<polygon fill="#63b8ff" stroke="#63b8ff" points="151.84,-150.83 162.4,-149.94 153.59,-144.05 151.84,-150.83"/>
</g>
<!-- Node15 -->
<g id="node15" class="node">
<title>Node15</title>
<g id="a_node15"><a xlink:href="namespacea60.html#ac2702e5ee0d3e84919043e65e486f8cc" target="_top" xlink:title="Swarm_mode dominates.">
<polygon fill="white" stroke="#666666" points="449,-210.5 327,-210.5 327,-193.5 449,-193.5 449,-210.5"/>
<text text-anchor="middle" x="388" y="-200.1" font-family="SourceSans" font-size="8.00">a60::augment_sum_glyph</text>
</a>
</g>
</g>
<!-- Node1&#45;&gt;Node15 -->
<g id="edge20" class="edge">
<title>Node1&#45;&gt;Node15</title>
<path fill="none" stroke="#63b8ff" d="M72.3,-136.2C89.35,-151.04 119.41,-174.44 150,-185 203.88,-203.59 268.64,-207.07 316.84,-206.33"/>
<polygon fill="#63b8ff" stroke="#63b8ff" points="316.94,-209.83 326.86,-206.11 316.79,-202.83 316.94,-209.83"/>
</g>
<!-- Node16 -->
<g id="node16" class="node">
<title>Node16</title>
<g id="a_node16"><a xlink:href="namespacea60.html#a1e6677c479d89336c9f30a6eae2ff1d8" target="_top" xlink:title=" ">
<polygon fill="white" stroke="#666666" points="278,-131.5 150,-131.5 150,-114.5 278,-114.5 278,-131.5"/>
<text text-anchor="middle" x="214" y="-121.1" font-family="SourceSans" font-size="8.00">a60::augment_wgeo_peers</text>
</a>
</g>
</g>
<!-- Node1&#45;&gt;Node16 -->
<g id="edge22" class="edge">
<title>Node1&#45;&gt;Node16</title>
<path fill="none" stroke="#63b8ff" d="M114.4,-123C122.58,-123 131.11,-123 139.57,-123"/>
<polygon fill="#63b8ff" stroke="#63b8ff" points="139.83,-126.5 149.83,-123 139.83,-119.5 139.83,-126.5"/>
</g>
<!-- Node19 -->
<g id="node19" class="node">
<title>Node19</title>
<g id="a_node19"><a xlink:href="namespacea60_1_1carto.html#af59ef7858ef576e7f17b781f38436f28" target="_top" xlink:title=" ">
<polygon fill="white" stroke="#666666" points="275,-96.5 153,-96.5 153,-79.5 275,-79.5 275,-96.5"/>
<text text-anchor="middle" x="214" y="-86.1" font-family="SourceSans" font-size="8.00">a60::carto::frame_margin</text>
</a>
</g>
</g>
<!-- Node1&#45;&gt;Node19 -->
<g id="edge25" class="edge">
<title>Node1&#45;&gt;Node19</title>
<path fill="none" stroke="#63b8ff" d="M114.4,-110.27C131.17,-106.48 149.37,-102.37 165.52,-98.72"/>
<polygon fill="#63b8ff" stroke="#63b8ff" points="166.29,-102.14 175.27,-96.52 164.75,-95.31 166.29,-102.14"/>
</g>
<!-- Node20 -->
<g id="node20" class="node">
<title>Node20</title>
<g id="a_node20"><a xlink:href="structa60_1_1collection.html#a9362f7bd0044c014125da1362ce3e8d7" target="_top" xlink:title=" ">
<polygon fill="white" stroke="#666666" points="270,-61.5 158,-61.5 158,-44.5 270,-44.5 270,-61.5"/>
<text text-anchor="middle" x="214" y="-51.1" font-family="SourceSans" font-size="8.00">a60::collection::get_tid</text>
</a>
</g>
</g>
<!-- Node1&#45;&gt;Node20 -->
<g id="edge26" class="edge">
<title>Node1&#45;&gt;Node20</title>
<path fill="none" stroke="#63b8ff" d="M77.34,-109.87C95.45,-98.07 123.61,-80.94 150,-70 154.85,-67.99 160,-66.15 165.19,-64.49"/>
<polygon fill="#63b8ff" stroke="#63b8ff" points="166.58,-67.73 175.16,-61.5 164.57,-61.02 166.58,-67.73"/>
</g>
<!-- Node21 -->
<g id="node21" class="node">
<title>Node21</title>
<g id="a_node21"><a xlink:href="structa60_1_1collection.html#a4b5f4e6148e18b08ccc033e200327cdf" target="_top" xlink:title="Display/output name for torrent collection, including partition, episode/multiepisode,...">
<polygon fill="white" stroke="#666666" points="269,-26 159,-26 159,0 269,0 269,-26"/>
<text text-anchor="start" x="167" y="-15.6" font-family="SourceSans" font-size="8.00">a60::collection::media</text>
<text text-anchor="middle" x="214" y="-6.6" font-family="SourceSans" font-size="8.00">_object_name</text>
</a>
</g>
</g>
<!-- Node1&#45;&gt;Node21 -->
<g id="edge27" class="edge">
<title>Node1&#45;&gt;Node21</title>
<path fill="none" stroke="#63b8ff" d="M68.54,-109.83C84.37,-90.84 116.07,-55.78 150,-35 152.77,-33.31 155.68,-31.72 158.68,-30.24"/>
<polygon fill="#63b8ff" stroke="#63b8ff" points="160.18,-33.4 167.86,-26.1 157.3,-27.02 160.18,-33.4"/>
</g>
<!-- Node3 -->
<g id="node3" class="node">
<title>Node3</title>
<g id="a_node3"><a xlink:href="namespacea60.html#a578d5079a62c97b1fb3a1693a82d7430" target="_top" xlink:title="Base name for output for non&#45;map, data/info.">
<polygon fill="white" stroke="#666666" points="461,-315.5 315,-315.5 315,-298.5 461,-298.5 461,-315.5"/>
<text text-anchor="middle" x="388" y="-305.1" font-family="SourceSans" font-size="8.00">a60::augment_base_info_name</text>
</a>
</g>
</g>
<!-- Node2&#45;&gt;Node3 -->
<g id="edge2" class="edge">
<title>Node2&#45;&gt;Node3</title>
<path fill="none" stroke="#63b8ff" d="M237.99,-264.64C257.92,-271.95 287.63,-282.42 314,-290 321.47,-292.15 329.44,-294.22 337.25,-296.13"/>
<polygon fill="#63b8ff" stroke="#63b8ff" points="336.49,-299.55 347.03,-298.47 338.12,-292.74 336.49,-299.55"/>
</g>
<!-- Node4 -->
<g id="node4" class="node">
<title>Node4</title>
<g id="a_node4"><a xlink:href="structa60_1_1collection.html#a80993af9aec8238db8e44da1e9a3c994" target="_top" xlink:title=" ">
<polygon fill="white" stroke="#666666" points="610.5,-349 507.5,-349 507.5,-323 610.5,-323 610.5,-349"/>
<text text-anchor="start" x="515.5" y="-338.6" font-family="SourceSans" font-size="8.00">a60::collection::slice</text>
<text text-anchor="middle" x="559" y="-329.6" font-family="SourceSans" font-size="8.00">_name_mangled</text>
</a>
</g>
</g>
<!-- Node2&#45;&gt;Node4 -->
<g id="edge18" class="edge">
<title>Node2&#45;&gt;Node4</title>
<path fill="none" stroke="#63b8ff" d="M223.58,-264.6C239.65,-280.07 276.1,-312.15 314,-325 373.93,-345.32 446.89,-345.69 497.34,-342.46"/>
<polygon fill="#63b8ff" stroke="#63b8ff" points="497.7,-345.94 507.43,-341.75 497.21,-338.96 497.7,-345.94"/>
</g>
<!-- Node9 -->
<g id="node9" class="node">
<title>Node9</title>
<g id="a_node9"><a xlink:href="namespacea60.html#af7680b43cbe9dfe398fb13de46e09895" target="_top" xlink:title="Base name for output with maps.">
<polygon fill="white" stroke="#666666" points="462,-280.5 314,-280.5 314,-263.5 462,-263.5 462,-280.5"/>
<text text-anchor="middle" x="388" y="-270.1" font-family="SourceSans" font-size="8.00">a60::augment_base_map_name</text>
</a>
</g>
</g>
<!-- Node2&#45;&gt;Node9 -->
<g id="edge8" class="edge">
<title>Node2&#45;&gt;Node9</title>
<path fill="none" stroke="#63b8ff" d="M263.83,-260.54C276.38,-261.71 290.23,-263 303.98,-264.28"/>
<polygon fill="#63b8ff" stroke="#63b8ff" points="303.68,-267.76 313.96,-265.21 304.33,-260.79 303.68,-267.76"/>
</g>
<!-- Node11 -->
<g id="node11" class="node">
<title>Node11</title>
<g id="a_node11"><a xlink:href="namespacea60.html#a1bf91ba66297e089d99c49d6a376c0ad" target="_top" xlink:title="NEW STYLE First composite with map, black on white.">
<polygon fill="white" stroke="#666666" points="441,-245.5 335,-245.5 335,-228.5 441,-228.5 441,-245.5"/>
<text text-anchor="middle" x="388" y="-235.1" font-family="SourceSans" font-size="8.00">a60::make_map_base</text>
</a>
</g>
</g>
<!-- Node2&#45;&gt;Node11 -->
<g id="edge14" class="edge">
<title>Node2&#45;&gt;Node11</title>
<path fill="none" stroke="#63b8ff" d="M263.83,-250.61C282.78,-248.51 304.7,-246.09 324.76,-243.88"/>
<polygon fill="#63b8ff" stroke="#63b8ff" points="325.19,-247.35 334.74,-242.77 324.42,-240.39 325.19,-247.35"/>
</g>
<!-- Node13 -->
<g id="node13" class="node">
<title>Node13</title>
<g id="a_node13"><a xlink:href="namespacea60.html#af951ad59a8649d55d5075079447bf0e7" target="_top" xlink:title="First composite with map, white on black.">
<polygon fill="white" stroke="#666666" points="458,-175.5 318,-175.5 318,-158.5 458,-158.5 458,-175.5"/>
<text text-anchor="middle" x="388" y="-165.1" font-family="SourceSans" font-size="8.00">a60::make_map_inverse_base</text>
</a>
</g>
</g>
<!-- Node2&#45;&gt;Node13 -->
<g id="edge16" class="edge">
<title>Node2&#45;&gt;Node13</title>
<path fill="none" stroke="#63b8ff" d="M224.33,-247.39C241.04,-232.46 277.7,-201.74 314,-185 319.39,-182.51 325.17,-180.34 331.03,-178.45"/>
<polygon fill="#63b8ff" stroke="#63b8ff" points="332.32,-181.72 340.92,-175.54 330.34,-175.01 332.32,-181.72"/>
</g>
<!-- Node3&#45;&gt;Node4 -->
<g id="edge3" class="edge">
<title>Node3&#45;&gt;Node4</title>
<path fill="none" stroke="#63b8ff" d="M438.79,-315.54C457.2,-318.7 478.26,-322.32 497.52,-325.62"/>
<polygon fill="#63b8ff" stroke="#63b8ff" points="496.95,-329.07 507.39,-327.32 498.13,-322.18 496.95,-329.07"/>
</g>
<!-- Node5 -->
<g id="node5" class="node">
<title>Node5</title>
<g id="a_node5"><a xlink:href="structa60_1_1collection.html#a25b35cf4ac39da89d868fe2cf41b5acd" target="_top" xlink:title=" ">
<polygon fill="white" stroke="#666666" points="786,-345.5 656,-345.5 656,-328.5 786,-328.5 786,-345.5"/>
<text text-anchor="middle" x="721" y="-335.1" font-family="SourceSans" font-size="8.00">a60::collection::slice_name</text>
</a>
</g>
</g>
<!-- Node4&#45;&gt;Node5 -->
<g id="edge4" class="edge">
<title>Node4&#45;&gt;Node5</title>
<path fill="none" stroke="#63b8ff" d="M610.62,-336.32C621.74,-336.39 633.74,-336.46 645.57,-336.53"/>
<polygon fill="#63b8ff" stroke="#63b8ff" points="645.88,-340.04 655.9,-336.6 645.92,-333.04 645.88,-340.04"/>
</g>
<!-- Node6 -->
<g id="node6" class="node">
<title>Node6</title>
<g id="a_node6"><a xlink:href="namespacea60.html#ac7eddb2e330d8983ddc852edde5335c5" target="_top" xlink:title=" ">
<polygon fill="white" stroke="#666666" points="780.5,-265.5 661.5,-265.5 661.5,-248.5 780.5,-248.5 780.5,-265.5"/>
<text text-anchor="middle" x="721" y="-255.1" font-family="SourceSans" font-size="8.00">a60::to_lowercase_string</text>
</a>
</g>
</g>
<!-- Node4&#45;&gt;Node6 -->
<g id="edge5" class="edge">
<title>Node4&#45;&gt;Node6</title>
<path fill="none" stroke="#63b8ff" d="M577.17,-322.9C595.73,-309.27 626.61,-288.13 656,-275 661.33,-272.62 667.06,-270.47 672.81,-268.57"/>
<polygon fill="#63b8ff" stroke="#63b8ff" points="673.94,-271.88 682.46,-265.58 671.87,-265.19 673.94,-271.88"/>
</g>
<!-- Node7 -->
<g id="node7" class="node">
<title>Node7</title>
<g id="a_node7"><a xlink:href="namespacea60.html#a11d9ffc210e8dca8410e7a5ad62deabc" target="_top" xlink:title=" ">
<polygon fill="white" stroke="#666666" points="777.5,-310 664.5,-310 664.5,-284 777.5,-284 777.5,-310"/>
<text text-anchor="start" x="672.5" y="-299.6" font-family="SourceSans" font-size="8.00">a60::to_replace_spaces</text>
<text text-anchor="middle" x="721" y="-290.6" font-family="SourceSans" font-size="8.00">_string</text>
</a>
</g>
</g>
<!-- Node4&#45;&gt;Node7 -->
<g id="edge6" class="edge">
<title>Node4&#45;&gt;Node7</title>
<path fill="none" stroke="#63b8ff" d="M610.62,-323.66C625.19,-320.11 641.27,-316.19 656.52,-312.47"/>
<polygon fill="#63b8ff" stroke="#63b8ff" points="657.5,-315.84 666.39,-310.07 655.84,-309.04 657.5,-315.84"/>
</g>
<!-- Node8 -->
<g id="node8" class="node">
<title>Node8</title>
<g id="a_node8"><a xlink:href="namespacea60.html#a751f954fe64233f1dc6517220e4b5692" target="_top" xlink:title=" ">
<polygon fill="white" stroke="#666666" points="929,-305.5 822,-305.5 822,-288.5 929,-288.5 929,-305.5"/>
<text text-anchor="middle" x="875.5" y="-295.1" font-family="SourceSans" font-size="8.00">a60::to_replace_string</text>
</a>
</g>
</g>
<!-- Node7&#45;&gt;Node8 -->
<g id="edge7" class="edge">
<title>Node7&#45;&gt;Node8</title>
<path fill="none" stroke="#63b8ff" d="M777.92,-297C788.92,-297 800.53,-297 811.73,-297"/>
<polygon fill="#63b8ff" stroke="#63b8ff" points="811.88,-300.5 821.88,-297 811.88,-293.5 811.88,-300.5"/>
</g>
<!-- Node9&#45;&gt;Node4 -->
<g id="edge9" class="edge">
<title>Node9&#45;&gt;Node4</title>
<path fill="none" stroke="#63b8ff" d="M431.23,-280.56C441.45,-283.13 452.24,-286.29 462,-290 478.91,-296.44 481.74,-301.06 498,-309 504.63,-312.24 511.74,-315.56 518.66,-318.72"/>
<polygon fill="#63b8ff" stroke="#63b8ff" points="517.37,-321.98 527.92,-322.91 520.25,-315.6 517.37,-321.98"/>
</g>
<!-- Node9&#45;&gt;Node6 -->
<g id="edge10" class="edge">
<title>Node9&#45;&gt;Node6</title>
<path fill="none" stroke="#63b8ff" d="M462.05,-268.69C518.51,-266.13 596.1,-262.61 651.4,-260.11"/>
<polygon fill="#63b8ff" stroke="#63b8ff" points="651.63,-263.6 661.46,-259.65 651.31,-256.61 651.63,-263.6"/>
</g>
<!-- Node9&#45;&gt;Node7 -->
<g id="edge11" class="edge">
<title>Node9&#45;&gt;Node7</title>
<path fill="none" stroke="#63b8ff" d="M462.05,-277.52C519.49,-281.86 598.81,-287.85 654.28,-292.04"/>
<polygon fill="#63b8ff" stroke="#63b8ff" points="654.11,-295.53 664.34,-292.8 654.64,-288.55 654.11,-295.53"/>
</g>
<!-- Node10 -->
<g id="node10" class="node">
<title>Node10</title>
<g id="a_node10"><a xlink:href="namespacea60.html#a4e8b0cabed112734147b499bf0cc9029" target="_top" xlink:title="Conversion of resolution_mode to string.">
<polygon fill="white" stroke="#666666" points="596,-210.5 522,-210.5 522,-193.5 596,-193.5 596,-210.5"/>
<text text-anchor="middle" x="559" y="-200.1" font-family="SourceSans" font-size="8.00">a60::to_string</text>
</a>
</g>
</g>
<!-- Node9&#45;&gt;Node10 -->
<g id="edge12" class="edge">
<title>Node9&#45;&gt;Node10</title>
<path fill="none" stroke="#63b8ff" d="M434.37,-263.48C443.65,-261.17 453.25,-258.36 462,-255 489.03,-244.62 517.83,-227.86 536.76,-215.97"/>
<polygon fill="#63b8ff" stroke="#63b8ff" points="538.66,-218.91 545.2,-210.58 534.89,-213.01 538.66,-218.91"/>
</g>
<!-- Node10&#45;&gt;Node10 -->
<g id="edge13" class="edge">
<title>Node10&#45;&gt;Node10</title>
<path fill="none" stroke="#63b8ff" d="M534.86,-210.69C521.53,-219.17 529.57,-228.5 559,-228.5 579.23,-228.5 589.36,-224.09 589.37,-218.58"/>
<polygon fill="#63b8ff" stroke="#63b8ff" points="592.08,-216.36 583.14,-210.69 586.59,-220.7 592.08,-216.36"/>
</g>
<!-- Node12 -->
<g id="node12" class="node">
<title>Node12</title>
<g id="a_node12"><a xlink:href="namespacea60.html#a63203aef78ad674129103340323d3b63" target="_top" xlink:title="First layer.">
<polygon fill="white" stroke="#666666" points="620,-175.5 498,-175.5 498,-158.5 620,-158.5 620,-175.5"/>
<text text-anchor="middle" x="559" y="-165.1" font-family="SourceSans" font-size="8.00">a60::place_map_in_frame</text>
</a>
</g>
</g>
<!-- Node11&#45;&gt;Node12 -->
<g id="edge15" class="edge">
<title>Node11&#45;&gt;Node12</title>
<path fill="none" stroke="#63b8ff" d="M441.34,-228.48C448.51,-226.27 455.61,-223.49 462,-220 481.58,-209.3 478.76,-196.31 498,-185 501.69,-182.83 505.67,-180.9 509.75,-179.19"/>
<polygon fill="#63b8ff" stroke="#63b8ff" points="511.26,-182.37 519.4,-175.59 508.81,-175.81 511.26,-182.37"/>
</g>
<!-- Node13&#45;&gt;Node12 -->
<g id="edge17" class="edge">
<title>Node13&#45;&gt;Node12</title>
<path fill="none" stroke="#63b8ff" d="M458.23,-167C467.97,-167 477.99,-167 487.75,-167"/>
<polygon fill="#63b8ff" stroke="#63b8ff" points="487.81,-170.5 497.81,-167 487.81,-163.5 487.81,-170.5"/>
</g>
<!-- Node15&#45;&gt;Node10 -->
<g id="edge21" class="edge">
<title>Node15&#45;&gt;Node10</title>
<path fill="none" stroke="#63b8ff" d="M449.06,-202C469.65,-202 492.35,-202 511.68,-202"/>
<polygon fill="#63b8ff" stroke="#63b8ff" points="511.75,-205.5 521.75,-202 511.75,-198.5 511.75,-205.5"/>
</g>
<!-- Node17 -->
<g id="node17" class="node">
<title>Node17</title>
<g id="a_node17"><a xlink:href="namespacea60_1_1geo.html#ac883e224021a4d5d0ac4c2d307f4808a" target="_top" xlink:title="Error checking for common anomalies.">
<polygon fill="white" stroke="#666666" points="438,-137 338,-137 338,-111 438,-111 438,-137"/>
<text text-anchor="start" x="346" y="-126.6" font-family="SourceSans" font-size="8.00">a60::geo::is_on_null</text>
<text text-anchor="middle" x="388" y="-117.6" font-family="SourceSans" font-size="8.00">_island</text>
</a>
</g>
</g>
<!-- Node16&#45;&gt;Node17 -->
<g id="edge23" class="edge">
<title>Node16&#45;&gt;Node17</title>
<path fill="none" stroke="#63b8ff" d="M278.07,-123.37C294.27,-123.46 311.64,-123.56 327.65,-123.65"/>
<polygon fill="#63b8ff" stroke="#63b8ff" points="327.93,-127.16 337.95,-123.71 327.97,-120.16 327.93,-127.16"/>
</g>
<!-- Node18 -->
<g id="node18" class="node">
<title>Node18</title>
<g id="a_node18"><a xlink:href="structa60_1_1carto_1_1cartography.html#a57e14cabb4993189316e369a27752a73" target="_top" xlink:title=" ">
<polygon fill="white" stroke="#666666" points="445.5,-93 330.5,-93 330.5,-67 445.5,-67 445.5,-93"/>
<text text-anchor="start" x="338.5" y="-82.6" font-family="SourceSans" font-size="8.00">a60::carto::cartography</text>
<text text-anchor="middle" x="388" y="-73.6" font-family="SourceSans" font-size="8.00">::to_point_2d</text>
</a>
</g>
</g>
<!-- Node16&#45;&gt;Node18 -->
<g id="edge24" class="edge">
<title>Node16&#45;&gt;Node18</title>
<path fill="none" stroke="#63b8ff" d="M249.39,-114.4C270.94,-109.01 299.35,-101.91 324.76,-95.56"/>
<polygon fill="#63b8ff" stroke="#63b8ff" points="325.85,-98.9 334.7,-93.08 324.15,-92.11 325.85,-98.9"/>
</g>
</g>
</svg>
