<?xml version="1.0" encoding="UTF-8" standalone="no"?>
<!DOCTYPE svg PUBLIC "-//W3C//DTD SVG 1.1//EN"
 "http://www.w3.org/Graphics/SVG/1.1/DTD/svg11.dtd">
<!-- Generated by graphviz version 5.0.0 (0)
 -->
<!-- Title: a60::metadata::analyze_metadata_by_dimension Pages: 1 -->
<svg width="898pt" height="787pt"
 viewBox="0.00 0.00 898.00 787.40" xmlns="http://www.w3.org/2000/svg" xmlns:xlink="http://www.w3.org/1999/xlink">
<g id="graph0" class="graph" transform="scale(1 1) rotate(0) translate(4 783.4)">
<title>a60::metadata::analyze_metadata_by_dimension</title>
<!-- Node1 -->
<g id="node1" class="node">
<title>Node1</title>
<g id="a_node1"><a xlink:title="Each plate per.">
<polygon fill="#999999" stroke="#666666" points="120,-412 0,-412 0,-386 120,-386 120,-412"/>
<text text-anchor="start" x="8" y="-401.6" font-family="SourceSans" font-size="8.00">a60::metadata::analyze</text>
<text text-anchor="middle" x="60" y="-392.6" font-family="SourceSans" font-size="8.00">_metadata_by_dimension</text>
</a>
</g>
</g>
<!-- Node2 -->
<g id="node2" class="node">
<title>Node2</title>
<g id="a_node2"><a xlink:href="namespacea60.html#a538d43bb9bfa488a54cea929736dbe2d" target="_top" xlink:title="Deserialize input file.">
<polygon fill="white" stroke="#666666" points="580,-764 476,-764 476,-738 580,-738 580,-764"/>
<text text-anchor="start" x="484" y="-753.6" font-family="SourceSans" font-size="8.00">a60::deserialize_json</text>
<text text-anchor="middle" x="528" y="-744.6" font-family="SourceSans" font-size="8.00">_to_dom</text>
</a>
</g>
</g>
<!-- Node1&#45;&gt;Node2 -->
<g id="edge1" class="edge">
<title>Node1&#45;&gt;Node2</title>
<path fill="none" stroke="#63b8ff" d="M63,-412.32C71.58,-467.76 107.13,-679.32 156,-722 241.74,-796.89 385.23,-782.42 466.34,-766.13"/>
<polygon fill="#63b8ff" stroke="#63b8ff" points="467.32,-769.5 476.39,-764.04 465.89,-762.65 467.32,-769.5"/>
</g>
<!-- Node3 -->
<g id="node3" class="node">
<title>Node3</title>
<g id="a_node3"><a xlink:href="namespacea60_1_1constants.html#aa2d8262405ba8638e9d38e5a714db26f" target="_top" xlink:title="Find index for specific value in id_dimensions.">
<polygon fill="white" stroke="#666666" points="264,-152 163,-152 163,-126 264,-126 264,-152"/>
<text text-anchor="start" x="171" y="-141.6" font-family="SourceSans" font-size="8.00">a60::constants::find</text>
<text text-anchor="middle" x="213.5" y="-132.6" font-family="SourceSans" font-size="8.00">_id_index</text>
</a>
</g>
</g>
<!-- Node1&#45;&gt;Node3 -->
<g id="edge2" class="edge">
<title>Node1&#45;&gt;Node3</title>
<path fill="none" stroke="#63b8ff" d="M62.96,-385.88C69.34,-347.32 92.91,-232.9 156,-166 158.98,-162.84 162.4,-160.01 166.06,-157.48"/>
<polygon fill="#63b8ff" stroke="#63b8ff" points="168.18,-160.29 174.92,-152.12 164.56,-154.3 168.18,-160.29"/>
</g>
<!-- Node5 -->
<g id="node5" class="node">
<title>Node5</title>
<g id="a_node5"><a xlink:href="namespacea60_1_1metadata.html#abcd6d192e6ed0f853c3c6cd9bcf13cad" target="_top" xlink:title=" ">
<polygon fill="white" stroke="#666666" points="729.5,-333 631.5,-333 631.5,-307 729.5,-307 729.5,-333"/>
<text text-anchor="start" x="639.5" y="-322.6" font-family="SourceSans" font-size="8.00">a60::metadata::get</text>
<text text-anchor="middle" x="680.5" y="-313.6" font-family="SourceSans" font-size="8.00">_metadata_style</text>
</a>
</g>
</g>
<!-- Node1&#45;&gt;Node5 -->
<g id="edge4" class="edge">
<title>Node1&#45;&gt;Node5</title>
<path fill="none" stroke="#63b8ff" d="M66.49,-385.76C78.36,-359.01 109.16,-298.81 156,-272 239.21,-224.38 496.38,-202.96 586,-237 618.31,-249.27 646.61,-278.4 663.38,-298.65"/>
<polygon fill="#63b8ff" stroke="#63b8ff" points="660.85,-301.1 669.84,-306.72 666.32,-296.73 660.85,-301.1"/>
</g>
<!-- Node6 -->
<g id="node6" class="node">
<title>Node6</title>
<g id="a_node6"><a xlink:href="namespacea60_1_1metadata.html#a0e500e6b24fc0c34c086dbbef210bfbb" target="_top" xlink:title=" ">
<polygon fill="white" stroke="#666666" points="267,-622 160,-622 160,-596 267,-596 267,-622"/>
<text text-anchor="start" x="168" y="-611.6" font-family="SourceSans" font-size="8.00">a60::metadata::get</text>
<text text-anchor="middle" x="213.5" y="-602.6" font-family="SourceSans" font-size="8.00">_vsids_from_metadata</text>
</a>
</g>
</g>
<!-- Node1&#45;&gt;Node6 -->
<g id="edge5" class="edge">
<title>Node1&#45;&gt;Node6</title>
<path fill="none" stroke="#63b8ff" d="M64.8,-412.06C74.78,-444.36 104.57,-529.04 156,-580 160.16,-584.13 165.04,-587.79 170.14,-591"/>
<polygon fill="#63b8ff" stroke="#63b8ff" points="168.45,-594.07 178.87,-595.99 171.93,-587.99 168.45,-594.07"/>
</g>
<!-- Node8 -->
<g id="node8" class="node">
<title>Node8</title>
<g id="a_node8"><a xlink:href="namespacea60_1_1metadata.html#a90edc2a49e803d1acc1c9c44c8c7cb46" target="_top" xlink:title="From multiset of strings to ordered elements of id (aka count, identifier).">
<polygon fill="white" stroke="#666666" points="429,-580 312,-580 312,-554 429,-554 429,-580"/>
<text text-anchor="start" x="320" y="-569.6" font-family="SourceSans" font-size="8.00">a60::metadata::multiset</text>
<text text-anchor="middle" x="370.5" y="-560.6" font-family="SourceSans" font-size="8.00">_to_set_of_ids</text>
</a>
</g>
</g>
<!-- Node1&#45;&gt;Node8 -->
<g id="edge21" class="edge">
<title>Node1&#45;&gt;Node8</title>
<path fill="none" stroke="#63b8ff" d="M65.59,-412.28C76.32,-441.09 105.98,-509.21 156,-540 199.39,-566.71 257.14,-572.63 301.64,-572.32"/>
<polygon fill="#63b8ff" stroke="#63b8ff" points="301.84,-575.82 311.78,-572.14 301.72,-568.82 301.84,-575.82"/>
</g>
<!-- Node10 -->
<g id="node10" class="node">
<title>Node10</title>
<g id="a_node10"><a xlink:href="namespacea60.html#a4e8b0cabed112734147b499bf0cc9029" target="_top" xlink:title="Conversion of resolution_mode to string.">
<polygon fill="white" stroke="#666666" points="565,-629.5 491,-629.5 491,-612.5 565,-612.5 565,-629.5"/>
<text text-anchor="middle" x="528" y="-619.1" font-family="SourceSans" font-size="8.00">a60::to_string</text>
</a>
</g>
</g>
<!-- Node1&#45;&gt;Node10 -->
<g id="edge60" class="edge">
<title>Node1&#45;&gt;Node10</title>
<path fill="none" stroke="#63b8ff" d="M71.42,-412.26C87.42,-431.66 120.01,-467.48 156,-486 268.31,-543.8 330.63,-472.41 434,-545 458.83,-562.44 446.04,-584.38 470,-603 473.41,-605.65 477.22,-607.91 481.21,-609.85"/>
<polygon fill="#63b8ff" stroke="#63b8ff" points="480.15,-613.2 490.73,-613.79 482.83,-606.73 480.15,-613.2"/>
</g>
<!-- Node11 -->
<g id="node11" class="node">
<title>Node11</title>
<g id="a_node11"><a xlink:href="namespacea60_1_1metadata.html#a80da6438996a07a5fa1df5728c004b2a" target="_top" xlink:title="Find name &#39;field&#39; in JSON file and return vector of values.">
<polygon fill="white" stroke="#666666" points="583.5,-692 472.5,-692 472.5,-666 583.5,-666 583.5,-692"/>
<text text-anchor="start" x="480.5" y="-681.6" font-family="SourceSans" font-size="8.00">a60::metadata::values</text>
<text text-anchor="middle" x="528" y="-672.6" font-family="SourceSans" font-size="8.00">_from_field</text>
</a>
</g>
</g>
<!-- Node1&#45;&gt;Node11 -->
<g id="edge61" class="edge">
<title>Node1&#45;&gt;Node11</title>
<path fill="none" stroke="#63b8ff" d="M61.43,-412.28C63.59,-456.65 76.71,-601.25 156,-677 246.45,-763.41 311.71,-747.33 434,-721 455.63,-716.34 478.28,-706.24 495.82,-697.1"/>
<polygon fill="#63b8ff" stroke="#63b8ff" points="497.84,-699.99 505,-692.17 494.53,-693.82 497.84,-699.99"/>
</g>
<!-- Node12 -->
<g id="node12" class="node">
<title>Node12</title>
<g id="a_node12"><a xlink:href="namespacea60_1_1metadata.html#ae5e62e468146b1719cb2e622a6f396f2" target="_top" xlink:title=" ">
<polygon fill="white" stroke="#666666" points="262.5,-668 164.5,-668 164.5,-642 262.5,-642 262.5,-668"/>
<text text-anchor="start" x="172.5" y="-657.6" font-family="SourceSans" font-size="8.00">a60::metadata::get</text>
<text text-anchor="middle" x="213.5" y="-648.6" font-family="SourceSans" font-size="8.00">_vul_from_metadata</text>
</a>
</g>
</g>
<!-- Node1&#45;&gt;Node12 -->
<g id="edge13" class="edge">
<title>Node1&#45;&gt;Node12</title>
<path fill="none" stroke="#63b8ff" d="M62.84,-412.2C68.89,-450.96 91.64,-565.8 156,-631 157.87,-632.89 159.91,-634.64 162.07,-636.26"/>
<polygon fill="#63b8ff" stroke="#63b8ff" points="160.58,-639.46 170.89,-641.88 164.33,-633.56 160.58,-639.46"/>
</g>
<!-- Node14 -->
<g id="node14" class="node">
<title>Node14</title>
<g id="a_node14"><a xlink:href="namespacea60_1_1metadata.html#a9cc9dad3ecb76b7ebaec5ea1833c88af" target="_top" xlink:title="How to name metadata subsets.">
<polygon fill="white" stroke="#666666" points="271,-108 156,-108 156,-82 271,-82 271,-108"/>
<text text-anchor="start" x="164" y="-97.6" font-family="SourceSans" font-size="8.00">a60::metadata::mangle</text>
<text text-anchor="middle" x="213.5" y="-88.6" font-family="SourceSans" font-size="8.00">_metadata_aggregate</text>
</a>
</g>
</g>
<!-- Node1&#45;&gt;Node14 -->
<g id="edge18" class="edge">
<title>Node1&#45;&gt;Node14</title>
<path fill="none" stroke="#63b8ff" d="M61.63,-385.8C64.43,-341.64 79.3,-197.34 156,-117 157.04,-115.91 158.15,-114.86 159.31,-113.87"/>
<polygon fill="#63b8ff" stroke="#63b8ff" points="161.41,-116.68 167.57,-108.05 157.38,-110.95 161.41,-116.68"/>
</g>
<!-- Node17 -->
<g id="node17" class="node">
<title>Node17</title>
<g id="a_node17"><a xlink:href="namespacea60_1_1metadata.html#acac3003bbaeb00d1c2dbfab86874dd04" target="_top" xlink:title="Base Radial Visualization.">
<polygon fill="white" stroke="#666666" points="425.5,-392 315.5,-392 315.5,-366 425.5,-366 425.5,-392"/>
<text text-anchor="start" x="323.5" y="-381.6" font-family="SourceSans" font-size="8.00">a60::metadata::render</text>
<text text-anchor="middle" x="370.5" y="-372.6" font-family="SourceSans" font-size="8.00">_id_base</text>
</a>
</g>
</g>
<!-- Node1&#45;&gt;Node17 -->
<g id="edge22" class="edge">
<title>Node1&#45;&gt;Node17</title>
<path fill="none" stroke="#63b8ff" d="M120.12,-395.17C173.12,-391.73 250.72,-386.7 305.25,-383.17"/>
<polygon fill="#63b8ff" stroke="#63b8ff" points="305.74,-386.64 315.49,-382.5 305.28,-379.66 305.74,-386.64"/>
</g>
<!-- Node20 -->
<g id="node20" class="node">
<title>Node20</title>
<g id="a_node20"><a xlink:href="namespacea60_1_1metadata.html#a0ebea31a8739b305a9ef94783f22a077" target="_top" xlink:title="Entry point specialized for age dimension for media object.">
<polygon fill="white" stroke="#666666" points="268.5,-477 158.5,-477 158.5,-451 268.5,-451 268.5,-477"/>
<text text-anchor="start" x="166.5" y="-466.6" font-family="SourceSans" font-size="8.00">a60::metadata::render</text>
<text text-anchor="middle" x="213.5" y="-457.6" font-family="SourceSans" font-size="8.00">_ids_ages</text>
</a>
</g>
</g>
<!-- Node1&#45;&gt;Node20 -->
<g id="edge29" class="edge">
<title>Node1&#45;&gt;Node20</title>
<path fill="none" stroke="#63b8ff" d="M88.68,-412C107.54,-420.74 133.14,-432.38 156,-442 160.09,-443.72 164.38,-445.48 168.67,-447.2"/>
<polygon fill="#63b8ff" stroke="#63b8ff" points="167.44,-450.48 178.02,-450.91 170.02,-443.97 167.44,-450.48"/>
</g>
<!-- Node27 -->
<g id="node27" class="node">
<title>Node27</title>
<g id="a_node27"><a xlink:href="namespacea60_1_1metadata.html#ab14b21a214cd0916c470888625283bbc" target="_top" xlink:title="Entry point specialized for bias tag display.">
<polygon fill="white" stroke="#666666" points="268.5,-307 158.5,-307 158.5,-281 268.5,-281 268.5,-307"/>
<text text-anchor="start" x="166.5" y="-296.6" font-family="SourceSans" font-size="8.00">a60::metadata::render</text>
<text text-anchor="middle" x="213.5" y="-287.6" font-family="SourceSans" font-size="8.00">_ids_text_bias</text>
</a>
</g>
</g>
<!-- Node1&#45;&gt;Node27 -->
<g id="edge41" class="edge">
<title>Node1&#45;&gt;Node27</title>
<path fill="none" stroke="#63b8ff" d="M73.08,-385.9C90.12,-368.07 122.84,-336.09 156,-316 158.66,-314.39 161.46,-312.86 164.33,-311.41"/>
<polygon fill="#63b8ff" stroke="#63b8ff" points="166.07,-314.45 173.65,-307.06 163.11,-308.11 166.07,-314.45"/>
</g>
<!-- Node28 -->
<g id="node28" class="node">
<title>Node28</title>
<g id="a_node28"><a xlink:href="namespacea60_1_1metadata.html#a31e71511446504010db6175ee0f25f1d" target="_top" xlink:title="Entry point specialized for recption tags display.">
<polygon fill="white" stroke="#666666" points="268.5,-351 158.5,-351 158.5,-325 268.5,-325 268.5,-351"/>
<text text-anchor="start" x="166.5" y="-340.6" font-family="SourceSans" font-size="8.00">a60::metadata::render</text>
<text text-anchor="middle" x="213.5" y="-331.6" font-family="SourceSans" font-size="8.00">_ids_text_reception</text>
</a>
</g>
</g>
<!-- Node1&#45;&gt;Node28 -->
<g id="edge44" class="edge">
<title>Node1&#45;&gt;Node28</title>
<path fill="none" stroke="#63b8ff" d="M93.5,-385.91C116.07,-376.83 146.33,-364.64 170.7,-354.83"/>
<polygon fill="#63b8ff" stroke="#63b8ff" points="172.08,-358.05 180.05,-351.06 169.47,-351.55 172.08,-358.05"/>
</g>
<!-- Node30 -->
<g id="node30" class="node">
<title>Node30</title>
<g id="a_node30"><a xlink:href="namespacea60_1_1metadata.html#ac059aaea1bbe1e28b32dabb7dddd16f8" target="_top" xlink:title="Text grow&#45;up columns, horizontal with values (LHS) and values playing (RHS). Entry point specialized ...">
<polygon fill="white" stroke="#666666" points="425.5,-190 315.5,-190 315.5,-164 425.5,-164 425.5,-190"/>
<text text-anchor="start" x="323.5" y="-179.6" font-family="SourceSans" font-size="8.00">a60::metadata::render</text>
<text text-anchor="middle" x="370.5" y="-170.6" font-family="SourceSans" font-size="8.00">_ids_text_x</text>
</a>
</g>
</g>
<!-- Node1&#45;&gt;Node30 -->
<g id="edge50" class="edge">
<title>Node1&#45;&gt;Node30</title>
<path fill="none" stroke="#63b8ff" d="M63.05,-385.82C69.41,-349.84 92.32,-249.62 156,-204 198.92,-173.25 259.51,-168.22 305.19,-169.89"/>
<polygon fill="#63b8ff" stroke="#63b8ff" points="305.12,-173.39 315.28,-170.37 305.46,-166.4 305.12,-173.39"/>
</g>
<!-- Node33 -->
<g id="node33" class="node">
<title>Node33</title>
<g id="a_node33"><a xlink:href="namespacea60_1_1metadata.html#a9a7209089206738890db1c3ab9f9902a" target="_top" xlink:title="Entry point for output, per identity dimension, per unique value. If kusamap == true,...">
<polygon fill="white" stroke="#666666" points="268.5,-433 158.5,-433 158.5,-407 268.5,-407 268.5,-433"/>
<text text-anchor="start" x="166.5" y="-422.6" font-family="SourceSans" font-size="8.00">a60::metadata::render</text>
<text text-anchor="middle" x="213.5" y="-413.6" font-family="SourceSans" font-size="8.00">_ids_uvalue</text>
</a>
</g>
</g>
<!-- Node1&#45;&gt;Node33 -->
<g id="edge55" class="edge">
<title>Node1&#45;&gt;Node33</title>
<path fill="none" stroke="#63b8ff" d="M120.01,-407.18C129.28,-408.46 138.91,-409.8 148.29,-411.1"/>
<polygon fill="#63b8ff" stroke="#63b8ff" points="147.97,-414.59 158.35,-412.49 148.93,-407.65 147.97,-414.59"/>
</g>
<!-- Node35 -->
<g id="node35" class="node">
<title>Node35</title>
<g id="a_node35"><a xlink:href="namespacea60_1_1metadata.html#a4eb35209c54ffd28eebbfa8e07365b69" target="_top" xlink:title="From string to sids with count n.">
<polygon fill="white" stroke="#666666" points="269.5,-64 157.5,-64 157.5,-38 269.5,-38 269.5,-64"/>
<text text-anchor="start" x="165.5" y="-53.6" font-family="SourceSans" font-size="8.00">a60::metadata::strings</text>
<text text-anchor="middle" x="213.5" y="-44.6" font-family="SourceSans" font-size="8.00">_to_set_of_ids</text>
</a>
</g>
</g>
<!-- Node1&#45;&gt;Node35 -->
<g id="edge59" class="edge">
<title>Node1&#45;&gt;Node35</title>
<path fill="none" stroke="#63b8ff" d="M60.92,-385.85C61.34,-337.54 69.2,-167.77 156,-73 156.9,-72.02 157.85,-71.08 158.84,-70.18"/>
<polygon fill="#63b8ff" stroke="#63b8ff" points="161.16,-72.82 167.14,-64.08 157.01,-67.18 161.16,-72.82"/>
</g>
<!-- Node4 -->
<g id="node4" class="node">
<title>Node4</title>
<g id="a_node4"><a xlink:href="namespacea60_1_1constants.html#ac27c77e4606552ae5f74a1c21dd9258e" target="_top" xlink:title=" ">
<polygon fill="white" stroke="#666666" points="739,-206.5 622,-206.5 622,-189.5 739,-189.5 739,-206.5"/>
<text text-anchor="middle" x="680.5" y="-196.1" font-family="SourceSans" font-size="8.00">a60::constants::newline</text>
</a>
</g>
</g>
<!-- Node3&#45;&gt;Node4 -->
<g id="edge3" class="edge">
<title>Node3&#45;&gt;Node4</title>
<path fill="none" stroke="#63b8ff" d="M254.14,-125.9C337.49,-99.32 528.01,-43.96 586,-73 631.11,-95.59 660.05,-151.41 672.49,-180.2"/>
<polygon fill="#63b8ff" stroke="#63b8ff" points="669.27,-181.57 676.32,-189.47 675.74,-178.89 669.27,-181.57"/>
</g>
<!-- Node7 -->
<g id="node7" class="node">
<title>Node7</title>
<g id="a_node7"><a xlink:href="namespacea60.html#af45982273a7a2e61b6aaa436081238c0" target="_top" xlink:title="Load JSON file to in&#45;memory DOM.">
<polygon fill="white" stroke="#666666" points="422.5,-712 318.5,-712 318.5,-686 422.5,-686 422.5,-712"/>
<text text-anchor="start" x="326.5" y="-701.6" font-family="SourceSans" font-size="8.00">a60::deserialize_json</text>
<text text-anchor="middle" x="370.5" y="-692.6" font-family="SourceSans" font-size="8.00">_to_dom_object</text>
</a>
</g>
</g>
<!-- Node6&#45;&gt;Node7 -->
<g id="edge6" class="edge">
<title>Node6&#45;&gt;Node7</title>
<path fill="none" stroke="#63b8ff" d="M252.37,-622.06C258.89,-625.14 265.37,-628.78 271,-633 291.22,-648.16 286.32,-662.49 307,-677 309.22,-678.56 311.56,-680.01 313.98,-681.37"/>
<polygon fill="#63b8ff" stroke="#63b8ff" points="312.51,-684.55 323.02,-685.9 315.64,-678.29 312.51,-684.55"/>
</g>
<!-- Node6&#45;&gt;Node8 -->
<g id="edge8" class="edge">
<title>Node6&#45;&gt;Node8</title>
<path fill="none" stroke="#63b8ff" d="M262.69,-595.94C278.15,-591.75 295.43,-587.07 311.51,-582.71"/>
<polygon fill="#63b8ff" stroke="#63b8ff" points="312.6,-586.04 321.34,-580.05 310.77,-579.29 312.6,-586.04"/>
</g>
<!-- Node9 -->
<g id="node9" class="node">
<title>Node9</title>
<g id="a_node9"><a xlink:href="namespacea60_1_1metadata.html#ad5a0a0992f537497235f04e35bea124b" target="_top" xlink:title="Find the values from all matching fields containing agg.">
<polygon fill="white" stroke="#666666" points="426,-624 315,-624 315,-598 426,-598 426,-624"/>
<text text-anchor="start" x="323" y="-613.6" font-family="SourceSans" font-size="8.00">a60::metadata::values</text>
<text text-anchor="middle" x="370.5" y="-604.6" font-family="SourceSans" font-size="8.00">_from_fields_matching</text>
</a>
</g>
</g>
<!-- Node6&#45;&gt;Node9 -->
<g id="edge9" class="edge">
<title>Node6&#45;&gt;Node9</title>
<path fill="none" stroke="#63b8ff" d="M267.41,-609.68C279.4,-609.84 292.27,-610 304.68,-610.16"/>
<polygon fill="#63b8ff" stroke="#63b8ff" points="304.94,-613.67 314.98,-610.3 305.03,-606.67 304.94,-613.67"/>
</g>
<!-- Node7&#45;&gt;Node2 -->
<g id="edge7" class="edge">
<title>Node7&#45;&gt;Node2</title>
<path fill="none" stroke="#63b8ff" d="M410.74,-712.12C431.26,-718.98 456.57,-727.45 478.33,-734.72"/>
<polygon fill="#63b8ff" stroke="#63b8ff" points="477.45,-738.12 488.04,-737.97 479.67,-731.48 477.45,-738.12"/>
</g>
<!-- Node9&#45;&gt;Node10 -->
<g id="edge10" class="edge">
<title>Node9&#45;&gt;Node10</title>
<path fill="none" stroke="#63b8ff" d="M426.32,-614.53C443.99,-615.66 463.39,-616.91 480.41,-618"/>
<polygon fill="#63b8ff" stroke="#63b8ff" points="480.46,-621.51 490.66,-618.66 480.91,-614.53 480.46,-621.51"/>
</g>
<!-- Node9&#45;&gt;Node11 -->
<g id="edge12" class="edge">
<title>Node9&#45;&gt;Node11</title>
<path fill="none" stroke="#63b8ff" d="M413.12,-624.01C420.21,-626.69 427.41,-629.71 434,-633 451.2,-641.59 452.93,-648.15 470,-657 473.3,-658.71 476.77,-660.37 480.29,-661.95"/>
<polygon fill="#63b8ff" stroke="#63b8ff" points="479.11,-665.25 489.68,-665.96 481.86,-658.81 479.11,-665.25"/>
</g>
<!-- Node10&#45;&gt;Node10 -->
<g id="edge11" class="edge">
<title>Node10&#45;&gt;Node10</title>
<path fill="none" stroke="#63b8ff" d="M505.35,-629.69C492.84,-638.17 500.39,-647.5 528,-647.5 546.55,-647.5 556.04,-643.29 556.48,-637.95"/>
<polygon fill="#63b8ff" stroke="#63b8ff" points="559.27,-635.84 550.65,-629.69 553.56,-639.87 559.27,-635.84"/>
</g>
<!-- Node12&#45;&gt;Node7 -->
<g id="edge17" class="edge">
<title>Node12&#45;&gt;Node7</title>
<path fill="none" stroke="#63b8ff" d="M260.59,-668.08C277.22,-672.8 296.18,-678.19 313.57,-683.12"/>
<polygon fill="#63b8ff" stroke="#63b8ff" points="313.02,-686.6 323.59,-685.97 314.93,-679.87 313.02,-686.6"/>
</g>
<!-- Node13 -->
<g id="node13" class="node">
<title>Node13</title>
<g id="a_node13"><a xlink:href="namespacea60_1_1metadata.html#a251c367137aefe7cb575c85a8256c5a5" target="_top" xlink:title="Returns the number of cast&#45;lead&#45;n&#45;[agg] fields with non&#45;blank entries.">
<polygon fill="white" stroke="#666666" points="434,-668 307,-668 307,-642 434,-642 434,-668"/>
<text text-anchor="start" x="315" y="-657.6" font-family="SourceSans" font-size="8.00">a60::metadata::count</text>
<text text-anchor="middle" x="370.5" y="-648.6" font-family="SourceSans" font-size="8.00">_values_in_fields_matching</text>
</a>
</g>
</g>
<!-- Node12&#45;&gt;Node13 -->
<g id="edge14" class="edge">
<title>Node12&#45;&gt;Node13</title>
<path fill="none" stroke="#63b8ff" d="M262.69,-655C273.48,-655 285.16,-655 296.71,-655"/>
<polygon fill="#63b8ff" stroke="#63b8ff" points="296.79,-658.5 306.79,-655 296.79,-651.5 296.79,-658.5"/>
</g>
<!-- Node13&#45;&gt;Node10 -->
<g id="edge15" class="edge">
<title>Node13&#45;&gt;Node10</title>
<path fill="none" stroke="#63b8ff" d="M431.18,-641.95C447.62,-638.36 465.2,-634.51 480.75,-631.11"/>
<polygon fill="#63b8ff" stroke="#63b8ff" points="481.63,-634.5 490.65,-628.95 480.14,-627.66 481.63,-634.5"/>
</g>
<!-- Node13&#45;&gt;Node11 -->
<g id="edge16" class="edge">
<title>Node13&#45;&gt;Node11</title>
<path fill="none" stroke="#63b8ff" d="M434.3,-664.69C443.58,-666.13 453.17,-667.6 462.48,-669.04"/>
<polygon fill="#63b8ff" stroke="#63b8ff" points="462.05,-672.52 472.47,-670.58 463.12,-665.6 462.05,-672.52"/>
</g>
<!-- Node15 -->
<g id="node15" class="node">
<title>Node15</title>
<g id="a_node15"><a xlink:href="namespacea60.html#a11d9ffc210e8dca8410e7a5ad62deabc" target="_top" xlink:title=" ">
<polygon fill="white" stroke="#666666" points="427,-26 314,-26 314,0 427,0 427,-26"/>
<text text-anchor="start" x="322" y="-15.6" font-family="SourceSans" font-size="8.00">a60::to_replace_spaces</text>
<text text-anchor="middle" x="370.5" y="-6.6" font-family="SourceSans" font-size="8.00">_string</text>
</a>
</g>
</g>
<!-- Node14&#45;&gt;Node15 -->
<g id="edge19" class="edge">
<title>Node14&#45;&gt;Node15</title>
<path fill="none" stroke="#63b8ff" d="M253.71,-81.93C259.69,-79.32 265.64,-76.34 271,-73 289.43,-61.53 288.78,-51.8 307,-40 312.4,-36.5 318.34,-33.27 324.33,-30.34"/>
<polygon fill="#63b8ff" stroke="#63b8ff" points="326.11,-33.38 333.73,-26.02 323.18,-27.02 326.11,-33.38"/>
</g>
<!-- Node16 -->
<g id="node16" class="node">
<title>Node16</title>
<g id="a_node16"><a xlink:href="namespacea60.html#a751f954fe64233f1dc6517220e4b5692" target="_top" xlink:title=" ">
<polygon fill="white" stroke="#666666" points="581.5,-21.5 474.5,-21.5 474.5,-4.5 581.5,-4.5 581.5,-21.5"/>
<text text-anchor="middle" x="528" y="-11.1" font-family="SourceSans" font-size="8.00">a60::to_replace_string</text>
</a>
</g>
</g>
<!-- Node15&#45;&gt;Node16 -->
<g id="edge20" class="edge">
<title>Node15&#45;&gt;Node16</title>
<path fill="none" stroke="#63b8ff" d="M427.2,-13C439.18,-13 451.93,-13 464.16,-13"/>
<polygon fill="#63b8ff" stroke="#63b8ff" points="464.29,-16.5 474.29,-13 464.29,-9.5 464.29,-16.5"/>
</g>
<!-- Node17&#45;&gt;Node5 -->
<g id="edge25" class="edge">
<title>Node17&#45;&gt;Node5</title>
<path fill="none" stroke="#63b8ff" d="M425.69,-380.24C469.59,-379.99 532.67,-376.77 586,-363 607.46,-357.46 630.07,-347.19 647.68,-338.08"/>
<polygon fill="#63b8ff" stroke="#63b8ff" points="649.73,-340.96 656.91,-333.18 646.44,-334.78 649.73,-340.96"/>
</g>
<!-- Node17&#45;&gt;Node10 -->
<g id="edge28" class="edge">
<title>Node17&#45;&gt;Node10</title>
<path fill="none" stroke="#63b8ff" d="M423.54,-392.07C427.45,-394.55 431.02,-397.49 434,-401 493.05,-470.49 409.83,-534.48 470,-603 473.25,-606.7 477.26,-609.65 481.63,-612"/>
<polygon fill="#63b8ff" stroke="#63b8ff" points="480.42,-615.29 490.99,-616.02 483.18,-608.86 480.42,-615.29"/>
</g>
<!-- Node18 -->
<g id="node18" class="node">
<title>Node18</title>
<g id="a_node18"><a xlink:href="namespacea60_1_1constants.html#a613cac7d85819a545849f5eefd733896" target="_top" xlink:title=" ">
<polygon fill="white" stroke="#666666" points="578.5,-354 477.5,-354 477.5,-328 578.5,-328 578.5,-354"/>
<text text-anchor="start" x="485.5" y="-343.6" font-family="SourceSans" font-size="8.00">a60::constants::age</text>
<text text-anchor="middle" x="528" y="-334.6" font-family="SourceSans" font-size="8.00">_value_to_multiple</text>
</a>
</g>
</g>
<!-- Node17&#45;&gt;Node18 -->
<g id="edge23" class="edge">
<title>Node17&#45;&gt;Node18</title>
<path fill="none" stroke="#63b8ff" d="M425.01,-365.92C438.66,-362.59 453.41,-358.98 467.34,-355.58"/>
<polygon fill="#63b8ff" stroke="#63b8ff" points="468.43,-358.92 477.31,-353.14 466.76,-352.12 468.43,-358.92"/>
</g>
<!-- Node19 -->
<g id="node19" class="node">
<title>Node19</title>
<g id="a_node19"><a xlink:href="namespacea60_1_1metadata.html#aeba42336cc4f30ed9ee705111d3e82a9" target="_top" xlink:title="Typographic defaults for text labels.">
<polygon fill="white" stroke="#666666" points="577,-272 479,-272 479,-246 577,-246 577,-272"/>
<text text-anchor="start" x="487" y="-261.6" font-family="SourceSans" font-size="8.00">a60::metadata::get</text>
<text text-anchor="middle" x="528" y="-252.6" font-family="SourceSans" font-size="8.00">_metadata_typo</text>
</a>
</g>
</g>
<!-- Node17&#45;&gt;Node19 -->
<g id="edge26" class="edge">
<title>Node17&#45;&gt;Node19</title>
<path fill="none" stroke="#63b8ff" d="M416.77,-365.98C422.78,-363.42 428.69,-360.44 434,-357 453.52,-344.34 453.99,-335.88 470,-319 482.37,-305.96 496.27,-291.33 507.24,-279.78"/>
<polygon fill="#63b8ff" stroke="#63b8ff" points="509.96,-282 514.32,-272.34 504.89,-277.18 509.96,-282"/>
</g>
<!-- Node18&#45;&gt;Node4 -->
<g id="edge24" class="edge">
<title>Node18&#45;&gt;Node4</title>
<path fill="none" stroke="#63b8ff" d="M542.89,-327.8C570.69,-301.39 633.08,-242.11 662.95,-213.73"/>
<polygon fill="#63b8ff" stroke="#63b8ff" points="665.61,-216.02 670.45,-206.6 660.79,-210.95 665.61,-216.02"/>
</g>
<!-- Node19&#45;&gt;Node5 -->
<g id="edge27" class="edge">
<title>Node19&#45;&gt;Node5</title>
<path fill="none" stroke="#63b8ff" d="M561.29,-272.09C583.7,-281.17 613.77,-293.36 637.97,-303.17"/>
<polygon fill="#63b8ff" stroke="#63b8ff" points="636.68,-306.42 647.27,-306.94 639.31,-299.94 636.68,-306.42"/>
</g>
<!-- Node20&#45;&gt;Node17 -->
<g id="edge40" class="edge">
<title>Node20&#45;&gt;Node17</title>
<path fill="none" stroke="#63b8ff" d="M255.23,-450.89C260.75,-448.34 266.17,-445.38 271,-442 290.87,-428.09 286.91,-414.58 307,-401 309.37,-399.4 311.86,-397.9 314.44,-396.5"/>
<polygon fill="#63b8ff" stroke="#63b8ff" points="315.99,-399.64 323.46,-392.12 312.93,-393.35 315.99,-399.64"/>
</g>
<!-- Node21 -->
<g id="node21" class="node">
<title>Node21</title>
<g id="a_node21"><a xlink:href="namespacea60_1_1metadata.html#a322c3cae56a5e97a9cb15dcc19be2911" target="_top" xlink:title="Ages and ages playing composited into one ring glyph. Select, sort, and composite if necessary the va...">
<polygon fill="white" stroke="#666666" points="434,-480 307,-480 307,-454 434,-454 434,-480"/>
<text text-anchor="start" x="315" y="-469.6" font-family="SourceSans" font-size="8.00">a60::metadata::composite</text>
<text text-anchor="middle" x="370.5" y="-460.6" font-family="SourceSans" font-size="8.00">_age_glyph</text>
</a>
</g>
</g>
<!-- Node20&#45;&gt;Node21 -->
<g id="edge30" class="edge">
<title>Node20&#45;&gt;Node21</title>
<path fill="none" stroke="#63b8ff" d="M268.71,-465.05C277.75,-465.22 287.26,-465.41 296.67,-465.59"/>
<polygon fill="#63b8ff" stroke="#63b8ff" points="296.76,-469.09 306.82,-465.79 296.89,-462.09 296.76,-469.09"/>
</g>
<!-- Node21&#45;&gt;Node5 -->
<g id="edge33" class="edge">
<title>Node21&#45;&gt;Node5</title>
<path fill="none" stroke="#63b8ff" d="M434.37,-459.74C478.95,-452.54 538.97,-438.56 586,-412 617.89,-393.99 646.62,-362.29 663.57,-341.22"/>
<polygon fill="#63b8ff" stroke="#63b8ff" points="666.46,-343.2 669.88,-333.18 660.95,-338.88 666.46,-343.2"/>
</g>
<!-- Node21&#45;&gt;Node18 -->
<g id="edge31" class="edge">
<title>Node21&#45;&gt;Node18</title>
<path fill="none" stroke="#63b8ff" d="M417.19,-453.98C423.07,-451.43 428.84,-448.46 434,-445 467.23,-422.76 496.28,-385.95 512.72,-362.62"/>
<polygon fill="#63b8ff" stroke="#63b8ff" points="515.79,-364.32 518.58,-354.1 510.02,-360.36 515.79,-364.32"/>
</g>
<!-- Node21&#45;&gt;Node21 -->
<g id="edge32" class="edge">
<title>Node21&#45;&gt;Node21</title>
<path fill="none" stroke="#63b8ff" d="M344.11,-480.06C336.11,-489.1 344.91,-498 370.5,-498 386.1,-498 395.46,-494.69 398.58,-490.07"/>
<polygon fill="#63b8ff" stroke="#63b8ff" points="402,-489.34 396.89,-480.06 395.1,-490.5 402,-489.34"/>
</g>
<!-- Node22 -->
<g id="node22" class="node">
<title>Node22</title>
<g id="a_node22"><a xlink:href="namespacea60_1_1metadata.html#aa74f3d32a4793b6323d54e93c6c911b9" target="_top" xlink:title="Grows out from center &#39;as if&#39; a tree growing a tree ring. Spans unknown to [00&#45;01,...">
<polygon fill="white" stroke="#666666" points="578,-512 478,-512 478,-486 578,-486 578,-512"/>
<text text-anchor="start" x="486" y="-501.6" font-family="SourceSans" font-size="8.00">a60::metadata::ring</text>
<text text-anchor="middle" x="528" y="-492.6" font-family="SourceSans" font-size="8.00">_glyph</text>
</a>
</g>
</g>
<!-- Node21&#45;&gt;Node22 -->
<g id="edge34" class="edge">
<title>Node21&#45;&gt;Node22</title>
<path fill="none" stroke="#63b8ff" d="M434.3,-479.92C445.4,-482.21 456.92,-484.58 467.92,-486.84"/>
<polygon fill="#63b8ff" stroke="#63b8ff" points="467.34,-490.29 477.84,-488.88 468.75,-483.44 467.34,-490.29"/>
</g>
<!-- Node23 -->
<g id="node23" class="node">
<title>Node23</title>
<g id="a_node23"><a xlink:href="namespacea60_1_1metadata.html#ae3aa31b1fc054034f40b30f22bf0d4b8" target="_top" xlink:title="Find orbit of ring, given radius, rspace, and number ring. Assume: ringsn starts with 1 for values an...">
<polygon fill="white" stroke="#666666" points="730.5,-512 630.5,-512 630.5,-486 730.5,-486 730.5,-512"/>
<text text-anchor="start" x="638.5" y="-501.6" font-family="SourceSans" font-size="8.00">a60::metadata::ring</text>
<text text-anchor="middle" x="680.5" y="-492.6" font-family="SourceSans" font-size="8.00">_radius</text>
</a>
</g>
</g>
<!-- Node21&#45;&gt;Node23 -->
<g id="edge36" class="edge">
<title>Node21&#45;&gt;Node23</title>
<path fill="none" stroke="#63b8ff" d="M388.86,-480.08C407.69,-493.38 439.21,-513.11 470,-521 522.48,-534.44 584.37,-524.96 627.21,-514.59"/>
<polygon fill="#63b8ff" stroke="#63b8ff" points="628.29,-517.92 637.13,-512.09 626.57,-511.14 628.29,-517.92"/>
</g>
<!-- Node24 -->
<g id="node24" class="node">
<title>Node24</title>
<g id="a_node24"><a xlink:href="namespacea60_1_1metadata.html#a5156bb42291c8eb54dc6ddef8688be1e" target="_top" xlink:title="Split playing value into actor &#45;&gt; LHS of playing &quot;person&quot; role &#45;&gt; RHS of playing &quot;persona&quot; NB: Each s...">
<polygon fill="white" stroke="#666666" points="578.5,-594 477.5,-594 477.5,-568 578.5,-568 578.5,-594"/>
<text text-anchor="start" x="485.5" y="-583.6" font-family="SourceSans" font-size="8.00">a60::metadata::split</text>
<text text-anchor="middle" x="528" y="-574.6" font-family="SourceSans" font-size="8.00">_playing_value</text>
</a>
</g>
</g>
<!-- Node21&#45;&gt;Node24 -->
<g id="edge37" class="edge">
<title>Node21&#45;&gt;Node24</title>
<path fill="none" stroke="#63b8ff" d="M392.14,-480.04C404.79,-488.47 421,-500.06 434,-512 452.1,-528.63 450.46,-539.08 470,-554 474.41,-557.36 479.3,-560.45 484.31,-563.25"/>
<polygon fill="#63b8ff" stroke="#63b8ff" points="482.9,-566.46 493.39,-567.95 486.12,-560.24 482.9,-566.46"/>
</g>
<!-- Node22&#45;&gt;Node23 -->
<g id="edge35" class="edge">
<title>Node22&#45;&gt;Node23</title>
<path fill="none" stroke="#63b8ff" d="M578.28,-499C591.6,-499 606.16,-499 619.98,-499"/>
<polygon fill="#63b8ff" stroke="#63b8ff" points="620.37,-502.5 630.37,-499 620.37,-495.5 620.37,-502.5"/>
</g>
<!-- Node25 -->
<g id="node25" class="node">
<title>Node25</title>
<g id="a_node25"><a xlink:href="namespacea60_1_1metadata.html#acd47cfb00b07af853234227fdaa04cf9" target="_top" xlink:title="Convert a comma&#45;space&#45;separated list of strings to a vector of strings.">
<polygon fill="white" stroke="#666666" points="731.5,-594 629.5,-594 629.5,-568 731.5,-568 731.5,-594"/>
<text text-anchor="start" x="637.5" y="-583.6" font-family="SourceSans" font-size="8.00">a60::metadata::cssv</text>
<text text-anchor="middle" x="680.5" y="-574.6" font-family="SourceSans" font-size="8.00">_string_to_strings</text>
</a>
</g>
</g>
<!-- Node24&#45;&gt;Node25 -->
<g id="edge38" class="edge">
<title>Node24&#45;&gt;Node25</title>
<path fill="none" stroke="#63b8ff" d="M578.7,-581C591.66,-581 605.77,-581 619.22,-581"/>
<polygon fill="#63b8ff" stroke="#63b8ff" points="619.34,-584.5 629.34,-581 619.34,-577.5 619.34,-584.5"/>
</g>
<!-- Node26 -->
<g id="node26" class="node">
<title>Node26</title>
<g id="a_node26"><a xlink:href="namespacea60_1_1constants.html#a2fd5efb0c88809132a730787d05a080a" target="_top" xlink:title=" ">
<polygon fill="white" stroke="#666666" points="890,-589.5 775,-589.5 775,-572.5 890,-572.5 890,-589.5"/>
<text text-anchor="middle" x="832.5" y="-579.1" font-family="SourceSans" font-size="8.00">a60::constants::comma</text>
</a>
</g>
</g>
<!-- Node25&#45;&gt;Node26 -->
<g id="edge39" class="edge">
<title>Node25&#45;&gt;Node26</title>
<path fill="none" stroke="#63b8ff" d="M731.87,-581C742.42,-581 753.71,-581 764.76,-581"/>
<polygon fill="#63b8ff" stroke="#63b8ff" points="764.81,-584.5 774.81,-581 764.81,-577.5 764.81,-584.5"/>
</g>
<!-- Node27&#45;&gt;Node17 -->
<g id="edge43" class="edge">
<title>Node27&#45;&gt;Node17</title>
<path fill="none" stroke="#63b8ff" d="M255.23,-307.11C260.75,-309.66 266.17,-312.62 271,-316 290.87,-329.91 286.91,-343.42 307,-357 309.37,-358.6 311.86,-360.1 314.44,-361.5"/>
<polygon fill="#63b8ff" stroke="#63b8ff" points="312.93,-364.65 323.46,-365.88 315.99,-358.36 312.93,-364.65"/>
</g>
<!-- Node27&#45;&gt;Node19 -->
<g id="edge42" class="edge">
<title>Node27&#45;&gt;Node19</title>
<path fill="none" stroke="#63b8ff" d="M268.72,-285.28C281.27,-283.41 294.59,-281.53 307,-280 361.76,-273.25 424.41,-267.46 468.82,-263.67"/>
<polygon fill="#63b8ff" stroke="#63b8ff" points="469.18,-267.16 478.85,-262.83 468.59,-260.18 469.18,-267.16"/>
</g>
<!-- Node28&#45;&gt;Node17 -->
<g id="edge49" class="edge">
<title>Node28&#45;&gt;Node17</title>
<path fill="none" stroke="#63b8ff" d="M263.97,-351.09C278.72,-354.99 295.04,-359.3 310.35,-363.35"/>
<polygon fill="#63b8ff" stroke="#63b8ff" points="309.67,-366.79 320.23,-365.97 311.46,-360.03 309.67,-366.79"/>
</g>
<!-- Node28&#45;&gt;Node19 -->
<g id="edge48" class="edge">
<title>Node28&#45;&gt;Node19</title>
<path fill="none" stroke="#63b8ff" d="M261.98,-324.94C276.42,-321.03 292.34,-316.78 307,-313 361.88,-298.85 424.68,-283.52 469.1,-272.82"/>
<polygon fill="#63b8ff" stroke="#63b8ff" points="469.95,-276.22 478.85,-270.48 468.31,-269.41 469.95,-276.22"/>
</g>
<!-- Node29 -->
<g id="node29" class="node">
<title>Node29</title>
<g id="a_node29"><a xlink:href="namespacea60_1_1metadata.html#a2ab9482eb9c490babd5b19085c76f4ca" target="_top" xlink:title="Find the center points of vertical (top and bottom) diptych circles.">
<polygon fill="white" stroke="#666666" points="427.5,-348 313.5,-348 313.5,-322 427.5,-322 427.5,-348"/>
<text text-anchor="start" x="321.5" y="-337.6" font-family="SourceSans" font-size="8.00">a60::metadata::diptych</text>
<text text-anchor="middle" x="370.5" y="-328.6" font-family="SourceSans" font-size="8.00">_ydipoles</text>
</a>
</g>
</g>
<!-- Node28&#45;&gt;Node29 -->
<g id="edge45" class="edge">
<title>Node28&#45;&gt;Node29</title>
<path fill="none" stroke="#63b8ff" d="M268.71,-336.95C279.92,-336.73 291.84,-336.5 303.42,-336.28"/>
<polygon fill="#63b8ff" stroke="#63b8ff" points="303.55,-339.78 313.48,-336.08 303.41,-332.78 303.55,-339.78"/>
</g>
<!-- Node29&#45;&gt;Node18 -->
<g id="edge46" class="edge">
<title>Node29&#45;&gt;Node18</title>
<path fill="none" stroke="#63b8ff" d="M427.64,-337.17C440.48,-337.66 454.17,-338.19 467.15,-338.69"/>
<polygon fill="#63b8ff" stroke="#63b8ff" points="467.26,-342.2 477.38,-339.09 467.53,-335.2 467.26,-342.2"/>
</g>
<!-- Node29&#45;&gt;Node23 -->
<g id="edge47" class="edge">
<title>Node29&#45;&gt;Node23</title>
<path fill="none" stroke="#63b8ff" d="M402.91,-321.97C447.22,-305.83 529.03,-284.39 586,-319 643.07,-353.66 666.89,-435.73 675.41,-475.96"/>
<polygon fill="#63b8ff" stroke="#63b8ff" points="672,-476.77 677.38,-485.9 678.87,-475.41 672,-476.77"/>
</g>
<!-- Node30&#45;&gt;Node5 -->
<g id="edge51" class="edge">
<title>Node30&#45;&gt;Node5</title>
<path fill="none" stroke="#63b8ff" d="M425.63,-172.96C471.2,-171.99 536.67,-176.48 586,-204 624.83,-225.66 653.67,-270.53 668.43,-297.68"/>
<polygon fill="#63b8ff" stroke="#63b8ff" points="665.47,-299.58 673.22,-306.8 671.67,-296.32 665.47,-299.58"/>
</g>
<!-- Node30&#45;&gt;Node19 -->
<g id="edge52" class="edge">
<title>Node30&#45;&gt;Node19</title>
<path fill="none" stroke="#63b8ff" d="M396.48,-190.17C422.75,-204.02 464.21,-225.89 493.35,-241.25"/>
<polygon fill="#63b8ff" stroke="#63b8ff" points="491.86,-244.42 502.34,-245.99 495.12,-238.23 491.86,-244.42"/>
</g>
<!-- Node31 -->
<g id="node31" class="node">
<title>Node31</title>
<g id="a_node31"><a xlink:href="namespacea60_1_1metadata.html#ab809b870c71701237f98849a7fe94a35" target="_top" xlink:title="Substitue &quot;&#45;&gt;&quot; for &quot;playing&quot; in input string s.">
<polygon fill="white" stroke="#666666" points="586,-152 470,-152 470,-126 586,-126 586,-152"/>
<text text-anchor="start" x="478" y="-141.6" font-family="SourceSans" font-size="8.00">a60::metadata::shorten</text>
<text text-anchor="middle" x="528" y="-132.6" font-family="SourceSans" font-size="8.00">_playing_value</text>
</a>
</g>
</g>
<!-- Node30&#45;&gt;Node31 -->
<g id="edge53" class="edge">
<title>Node30&#45;&gt;Node31</title>
<path fill="none" stroke="#63b8ff" d="M425.01,-163.92C437.55,-160.86 451.01,-157.57 463.92,-154.42"/>
<polygon fill="#63b8ff" stroke="#63b8ff" points="464.77,-157.81 473.65,-152.04 463.11,-151.01 464.77,-157.81"/>
</g>
<!-- Node32 -->
<g id="node32" class="node">
<title>Node32</title>
<g id="a_node32"><a xlink:href="namespacea60_1_1metadata.html#a841cf4a54bf053a6f8b77d8254053548" target="_top" xlink:title="Text moving up.">
<polygon fill="white" stroke="#666666" points="577.5,-108 478.5,-108 478.5,-82 577.5,-82 577.5,-108"/>
<text text-anchor="start" x="486.5" y="-97.6" font-family="SourceSans" font-size="8.00">a60::metadata::text</text>
<text text-anchor="middle" x="528" y="-88.6" font-family="SourceSans" font-size="8.00">_grow_up_from</text>
</a>
</g>
</g>
<!-- Node30&#45;&gt;Node32 -->
<g id="edge54" class="edge">
<title>Node30&#45;&gt;Node32</title>
<path fill="none" stroke="#63b8ff" d="M390.54,-163.99C409.97,-151.06 441.26,-131.16 470,-117 473.54,-115.26 477.25,-113.56 481.01,-111.92"/>
<polygon fill="#63b8ff" stroke="#63b8ff" points="482.51,-115.09 490.4,-108.01 479.82,-108.63 482.51,-115.09"/>
</g>
<!-- Node33&#45;&gt;Node17 -->
<g id="edge58" class="edge">
<title>Node33&#45;&gt;Node17</title>
<path fill="none" stroke="#63b8ff" d="M263.97,-406.91C278.72,-403.01 295.04,-398.7 310.35,-394.65"/>
<polygon fill="#63b8ff" stroke="#63b8ff" points="311.46,-397.97 320.23,-392.03 309.67,-391.21 311.46,-397.97"/>
</g>
<!-- Node34 -->
<g id="node34" class="node">
<title>Node34</title>
<g id="a_node34"><a xlink:href="namespacea60_1_1metadata.html#a0f59763af905b28339abf072db876919" target="_top" xlink:title="Typographic defaults for radial diagrams.">
<polygon fill="white" stroke="#666666" points="419.5,-436 321.5,-436 321.5,-410 419.5,-410 419.5,-436"/>
<text text-anchor="start" x="329.5" y="-425.6" font-family="SourceSans" font-size="8.00">a60::metadata::get</text>
<text text-anchor="middle" x="370.5" y="-416.6" font-family="SourceSans" font-size="8.00">_radial_typo</text>
</a>
</g>
</g>
<!-- Node33&#45;&gt;Node34 -->
<g id="edge56" class="edge">
<title>Node33&#45;&gt;Node34</title>
<path fill="none" stroke="#63b8ff" d="M268.71,-421.05C282.35,-421.31 297.04,-421.6 310.88,-421.87"/>
<polygon fill="#63b8ff" stroke="#63b8ff" points="311.2,-425.37 321.27,-422.07 311.34,-418.37 311.2,-425.37"/>
</g>
<!-- Node34&#45;&gt;Node5 -->
<g id="edge57" class="edge">
<title>Node34&#45;&gt;Node5</title>
<path fill="none" stroke="#63b8ff" d="M419.55,-420.03C464.12,-415.96 531.56,-406.38 586,-384 612.27,-373.2 638.65,-354.23 656.65,-339.73"/>
<polygon fill="#63b8ff" stroke="#63b8ff" points="659.29,-342.09 664.79,-333.03 654.84,-336.69 659.29,-342.09"/>
</g>
</g>
</svg>
