<?xml version="1.0" encoding="UTF-8" standalone="no"?>
<!DOCTYPE svg PUBLIC "-//W3C//DTD SVG 1.1//EN"
 "http://www.w3.org/Graphics/SVG/1.1/DTD/svg11.dtd">
<!-- Generated by graphviz version 5.0.0 (0)
 -->
<!-- Title: a60::augment_weighed_demititle Pages: 1 -->
<!--zoomable 470 -->
<svg id="main" version="1.1" xmlns="http://www.w3.org/2000/svg" xmlns:xlink="http://www.w3.org/1999/xlink" xml:space="preserve" onload="init(evt)">
<style type="text/css"><![CDATA[
.edge:hover path { stroke: red; }
.edge:hover polygon { stroke: red; fill: red; }
]]></style>
<script type="text/javascript"><![CDATA[
var edges = document.getElementsByTagName('g');
if (edges && edges.length) {
  for (var i=0;i<edges.length;i++) {
    if (edges[i].id.substr(0,4)=='edge') {
      edges[i].setAttribute('class','edge');
    }
  }
}
]]></script>
        <defs>
                <circle id="rim" cx="0" cy="0" r="7"/>
                <circle id="rim2" cx="0" cy="0" r="3.5"/>
                <g id="zoomPlus">
                        <use xlink:href="#rim" fill="#404040">
                                <set attributeName="fill" to="#808080" begin="zoomplus.mouseover" end="zoomplus.mouseout"/>
                        </use>
                        <path d="M-4,0h8M0,-4v8" fill="none" stroke="white" stroke-width="1.5" pointer-events="none"/>
                </g>
                <g id="zoomMin">
                        <use xlink:href="#rim" fill="#404040">
                                <set attributeName="fill" to="#808080" begin="zoomminus.mouseover" end="zoomminus.mouseout"/>
                        </use>
                        <path d="M-4,0h8" fill="none" stroke="white" stroke-width="1.5" pointer-events="none"/>
                </g>
                <g id="dirArrow">
                        <path fill="none" stroke="white" stroke-width="1.5" d="M0,-3.0v7 M-2.5,-0.5L0,-3.0L2.5,-0.5"/>
                </g>
               <g id="resetDef">
                       <use xlink:href="#rim2" fill="#404040">
                               <set attributeName="fill" to="#808080" begin="reset.mouseover" end="reset.mouseout"/>
                       </use>
               </g>
        </defs>

<script type="text/javascript">
var viewWidth = 1056;
var viewHeight = 470;
var sectionId = 'dynsection-74';
</script>
<script xlink:href="svgpan.js"/>
<svg id="graph" class="graph">
<g id="viewport">
<title>a60::augment_weighed_demititle</title>
<!-- Node1 -->
<g id="node1" class="node">
<title>Node1</title>
<g id="a_node1"><a xlink:title="Demi&#45; and Sub&#45;titles: maps details, logos, sample details.">
<polygon fill="#999999" stroke="#666666" points="114,-111 0,-111 0,-85 114,-85 114,-111"/>
<text text-anchor="start" x="8" y="-100.6" font-family="SourceSans" font-size="8.00">a60::augment_weighed</text>
<text text-anchor="middle" x="57" y="-91.6" font-family="SourceSans" font-size="8.00">_demititle</text>
</a>
</g>
</g>
<!-- Node2 -->
<g id="node2" class="node">
<title>Node2</title>
<g id="a_node2"><a xlink:href="namespacea60.html#a12bb965ea738f7cc71cbc107d3e60a92" target="_top" xlink:title=" ">
<polygon fill="white" stroke="#666666" points="277,-143.5 150,-143.5 150,-126.5 277,-126.5 277,-143.5"/>
<text text-anchor="middle" x="213.5" y="-133.1" font-family="SourceSans" font-size="8.00">a60::augment_corner_logo</text>
</a>
</g>
</g>
<!-- Node1&#45;&gt;Node2 -->
<g id="edge1" class="edge">
<title>Node1&#45;&gt;Node2</title>
<path fill="none" stroke="#63b8ff" d="M112.47,-111.04C130.34,-115.32 149.99,-120.03 167.11,-124.13"/>
<polygon fill="#63b8ff" stroke="#63b8ff" points="166.32,-127.54 176.86,-126.47 167.95,-120.73 166.32,-127.54"/>
</g>
<!-- Node5 -->
<g id="node5" class="node">
<title>Node5</title>
<g id="a_node5"><a xlink:href="namespacea60_1_1carto.html#af59ef7858ef576e7f17b781f38436f28" target="_top" xlink:title=" ">
<polygon fill="white" stroke="#666666" points="447,-103.5 325,-103.5 325,-86.5 447,-86.5 447,-103.5"/>
<text text-anchor="middle" x="386" y="-93.1" font-family="SourceSans" font-size="8.00">a60::carto::frame_margin</text>
</a>
</g>
</g>
<!-- Node1&#45;&gt;Node5 -->
<g id="edge27" class="edge">
<title>Node1&#45;&gt;Node5</title>
<path fill="none" stroke="#63b8ff" d="M114.21,-97.48C169.71,-96.98 254.73,-96.2 314.68,-95.65"/>
<polygon fill="#63b8ff" stroke="#63b8ff" points="314.85,-99.14 324.82,-95.55 314.79,-92.14 314.85,-99.14"/>
</g>
<!-- Node7 -->
<g id="node7" class="node">
<title>Node7</title>
<g id="a_node7"><a xlink:href="namespacea60.html#a554e2875958559a98316741ce8660bb5" target="_top" xlink:title="Cache glyphs.">
<polygon fill="white" stroke="#666666" points="263,-294.5 164,-294.5 164,-277.5 263,-277.5 263,-294.5"/>
<text text-anchor="middle" x="213.5" y="-284.1" font-family="SourceSans" font-size="8.00">a60::cached_glyphs</text>
</a>
</g>
</g>
<!-- Node1&#45;&gt;Node7 -->
<g id="edge6" class="edge">
<title>Node1&#45;&gt;Node7</title>
<path fill="none" stroke="#63b8ff" d="M68.86,-111.22C96.33,-144.65 168.53,-232.5 198.82,-269.35"/>
<polygon fill="#63b8ff" stroke="#63b8ff" points="196.2,-271.67 205.25,-277.18 201.6,-267.23 196.2,-271.67"/>
</g>
<!-- Node19 -->
<g id="node19" class="node">
<title>Node19</title>
<g id="a_node19"><a xlink:href="namespacea60.html#a6c3e0c242287f663d7e80ee91e094e07" target="_top" xlink:title=" ">
<polygon fill="white" stroke="#666666" points="262.5,-70 164.5,-70 164.5,-44 262.5,-44 262.5,-70"/>
<text text-anchor="start" x="172.5" y="-59.6" font-family="SourceSans" font-size="8.00">a60::collection_size</text>
<text text-anchor="middle" x="213.5" y="-50.6" font-family="SourceSans" font-size="8.00">_and_partition</text>
</a>
</g>
</g>
<!-- Node1&#45;&gt;Node19 -->
<g id="edge23" class="edge">
<title>Node1&#45;&gt;Node19</title>
<path fill="none" stroke="#63b8ff" d="M107.31,-84.91C122.31,-80.94 138.92,-76.52 154.44,-72.41"/>
<polygon fill="#63b8ff" stroke="#63b8ff" points="155.68,-75.7 164.45,-69.75 153.89,-68.93 155.68,-75.7"/>
</g>
<!-- Node22 -->
<g id="node22" class="node">
<title>Node22</title>
<g id="a_node22"><a xlink:href="structa60_1_1collection.html#a4b5f4e6148e18b08ccc033e200327cdf" target="_top" xlink:title="Display/output name for torrent collection, including partition, episode/multiepisode,...">
<polygon fill="white" stroke="#666666" points="268.5,-26 158.5,-26 158.5,0 268.5,0 268.5,-26"/>
<text text-anchor="start" x="166.5" y="-15.6" font-family="SourceSans" font-size="8.00">a60::collection::media</text>
<text text-anchor="middle" x="213.5" y="-6.6" font-family="SourceSans" font-size="8.00">_object_name</text>
</a>
</g>
</g>
<!-- Node1&#45;&gt;Node22 -->
<g id="edge28" class="edge">
<title>Node1&#45;&gt;Node22</title>
<path fill="none" stroke="#63b8ff" d="M74.46,-84.75C92.26,-70.91 121.86,-49.27 150,-35 153.53,-33.21 157.25,-31.5 161.03,-29.88"/>
<polygon fill="#63b8ff" stroke="#63b8ff" points="162.54,-33.05 170.51,-26.07 159.93,-26.55 162.54,-33.05"/>
</g>
<!-- Node3 -->
<g id="node3" class="node">
<title>Node3</title>
<g id="a_node3"><a xlink:href="namespacea60.html#a9a4a56d4df51571fc4799d7320c74c73" target="_top" xlink:title=" ">
<polygon fill="white" stroke="#666666" points="439.5,-138.5 332.5,-138.5 332.5,-121.5 439.5,-121.5 439.5,-138.5"/>
<text text-anchor="middle" x="386" y="-128.1" font-family="SourceSans" font-size="8.00">a60::corner_logo_size</text>
</a>
</g>
</g>
<!-- Node2&#45;&gt;Node3 -->
<g id="edge2" class="edge">
<title>Node2&#45;&gt;Node3</title>
<path fill="none" stroke="#63b8ff" d="M277.02,-133.17C291.77,-132.73 307.5,-132.27 322.26,-131.84"/>
<polygon fill="#63b8ff" stroke="#63b8ff" points="322.4,-135.34 332.29,-131.55 322.2,-128.34 322.4,-135.34"/>
</g>
<!-- Node4 -->
<g id="node4" class="node">
<title>Node4</title>
<g id="a_node4"><a xlink:href="namespacea60_1_1io.html#a16f17ea9e02c1975ca17b77e46cf7629" target="_top" xlink:title="Make sure a path ends in &#39;/&#39;;.">
<polygon fill="white" stroke="#666666" points="1048,-295.5 958,-295.5 958,-278.5 1048,-278.5 1048,-295.5"/>
<text text-anchor="middle" x="1003" y="-285.1" font-family="SourceSans" font-size="8.00">a60::io::end_path</text>
</a>
</g>
</g>
<!-- Node2&#45;&gt;Node4 -->
<g id="edge3" class="edge">
<title>Node2&#45;&gt;Node4</title>
<path fill="none" stroke="#63b8ff" d="M270.18,-143.53C336.97,-153.01 452.39,-167 552,-167 552,-167 552,-167 708,-167 803.49,-167 837.96,-140.66 922,-186 956.64,-204.69 981.46,-245.4 993.59,-269.04"/>
<polygon fill="#63b8ff" stroke="#63b8ff" points="990.58,-270.85 998.13,-278.28 996.86,-267.76 990.58,-270.85"/>
</g>
<!-- Node2&#45;&gt;Node5 -->
<g id="edge4" class="edge">
<title>Node2&#45;&gt;Node5</title>
<path fill="none" stroke="#63b8ff" d="M251.08,-126.42C276.7,-120.41 311.14,-112.33 338.68,-105.87"/>
<polygon fill="#63b8ff" stroke="#63b8ff" points="339.55,-109.26 348.48,-103.57 337.95,-102.44 339.55,-109.26"/>
</g>
<!-- Node6 -->
<g id="node6" class="node">
<title>Node6</title>
<g id="a_node6"><a xlink:href="namespacea60_1_1io.html#ac95e5271a27a23bc2336d84b3f821fa2" target="_top" xlink:title="Constant filesystem and run&#45;time resources.">
<polygon fill="white" stroke="#666666" points="914.5,-221 810.5,-221 810.5,-195 914.5,-195 914.5,-221"/>
<text text-anchor="start" x="818.5" y="-210.6" font-family="SourceSans" font-size="8.00">a60::io::get_run_time</text>
<text text-anchor="middle" x="862.5" y="-201.6" font-family="SourceSans" font-size="8.00">_resources</text>
</a>
</g>
</g>
<!-- Node2&#45;&gt;Node6 -->
<g id="edge5" class="edge">
<title>Node2&#45;&gt;Node6</title>
<path fill="none" stroke="#63b8ff" d="M228.21,-143.51C246.68,-154.47 280.94,-173.05 313,-181 485.45,-223.76 697.48,-218.57 800.08,-212.59"/>
<polygon fill="#63b8ff" stroke="#63b8ff" points="800.49,-216.07 810.26,-211.97 800.07,-209.08 800.49,-216.07"/>
</g>
<!-- Node8 -->
<g id="node8" class="node">
<title>Node8</title>
<g id="a_node8"><a xlink:href="namespacea60.html#a93afe633a2da7041b3d7ac7ba8da41a4" target="_top" xlink:title="Expensive. Should this be part of a weighed collection?">
<polygon fill="white" stroke="#666666" points="431.5,-294.5 340.5,-294.5 340.5,-277.5 431.5,-277.5 431.5,-294.5"/>
<text text-anchor="middle" x="386" y="-284.1" font-family="SourceSans" font-size="8.00">a60::make_glyphs</text>
</a>
</g>
</g>
<!-- Node7&#45;&gt;Node8 -->
<g id="edge7" class="edge">
<title>Node7&#45;&gt;Node8</title>
<path fill="none" stroke="#63b8ff" d="M263.36,-286C284.16,-286 308.52,-286 329.96,-286"/>
<polygon fill="#63b8ff" stroke="#63b8ff" points="330.22,-289.5 340.22,-286 330.22,-282.5 330.22,-289.5"/>
</g>
<!-- Node18 -->
<g id="node18" class="node">
<title>Node18</title>
<g id="a_node18"><a xlink:href="namespacea60.html#af9e02e1293a4eadf10ef7ca9f3979c74" target="_top" xlink:title="Eraser.">
<polygon fill="white" stroke="#666666" points="450,-329.5 322,-329.5 322,-312.5 450,-312.5 450,-329.5"/>
<text text-anchor="middle" x="386" y="-319.1" font-family="SourceSans" font-size="8.00">a60::remove_empty_glyphs</text>
</a>
</g>
</g>
<!-- Node7&#45;&gt;Node18 -->
<g id="edge22" class="edge">
<title>Node7&#45;&gt;Node18</title>
<path fill="none" stroke="#63b8ff" d="M256.21,-294.56C279.52,-299.35 308.76,-305.35 333.49,-310.43"/>
<polygon fill="#63b8ff" stroke="#63b8ff" points="332.93,-313.88 343.43,-312.47 334.33,-307.03 332.93,-313.88"/>
</g>
<!-- Node9 -->
<g id="node9" class="node">
<title>Node9</title>
<g id="a_node9"><a xlink:href="namespacea60.html#ae9dd8f5f0bd8cfc07cfc19f957cf2c95" target="_top" xlink:title="Shell for titles page.">
<polygon fill="white" stroke="#666666" points="611,-338.5 495,-338.5 495,-321.5 611,-321.5 611,-338.5"/>
<text text-anchor="middle" x="553" y="-328.1" font-family="SourceSans" font-size="8.00">a60::make_glyphs_basic</text>
</a>
</g>
</g>
<!-- Node8&#45;&gt;Node9 -->
<g id="edge8" class="edge">
<title>Node8&#45;&gt;Node9</title>
<path fill="none" stroke="#63b8ff" d="M421.84,-294.5C433.65,-297.44 446.92,-300.8 459,-304 476.58,-308.65 495.96,-314.03 512.46,-318.69"/>
<polygon fill="#63b8ff" stroke="#63b8ff" points="511.74,-322.12 522.32,-321.48 513.65,-315.39 511.74,-322.12"/>
</g>
<!-- Node9&#45;&gt;Node4 -->
<g id="edge10" class="edge">
<title>Node9&#45;&gt;Node4</title>
<path fill="none" stroke="#63b8ff" d="M562.81,-321.44C578.3,-307.05 612.08,-278.57 647,-268 756.85,-234.74 894.42,-259.82 961.48,-276.04"/>
<polygon fill="#63b8ff" stroke="#63b8ff" points="960.69,-279.45 971.24,-278.46 962.38,-272.66 960.69,-279.45"/>
</g>
<!-- Node10 -->
<g id="node10" class="node">
<title>Node10</title>
<g id="a_node10"><a xlink:href="namespacea60.html#a732ca2d85679838beb92881e9f39a999" target="_top" xlink:title="Engage bittorrent, create session.">
<polygon fill="white" stroke="#666666" points="763,-373.5 651,-373.5 651,-356.5 763,-356.5 763,-373.5"/>
<text text-anchor="middle" x="707" y="-363.1" font-family="SourceSans" font-size="8.00">a60::configure_session</text>
</a>
</g>
</g>
<!-- Node9&#45;&gt;Node10 -->
<g id="edge9" class="edge">
<title>Node9&#45;&gt;Node10</title>
<path fill="none" stroke="#63b8ff" d="M591.18,-338.56C611.59,-343.26 637.11,-349.14 658.9,-354.15"/>
<polygon fill="#63b8ff" stroke="#63b8ff" points="658.41,-357.63 668.94,-356.47 659.98,-350.81 658.41,-357.63"/>
</g>
<!-- Node11 -->
<g id="node11" class="node">
<title>Node11</title>
<g id="a_node11"><a xlink:href="namespacea60_1_1io.html#a89f2bd581ec510ccc0a8cfedccff7bd0" target="_top" xlink:title="Top level of directory for output files.">
<polygon fill="white" stroke="#666666" points="755,-418 659,-418 659,-392 755,-392 755,-418"/>
<text text-anchor="start" x="667" y="-407.6" font-family="SourceSans" font-size="8.00">a60::io::get_output</text>
<text text-anchor="middle" x="707" y="-398.6" font-family="SourceSans" font-size="8.00">_directory</text>
</a>
</g>
</g>
<!-- Node9&#45;&gt;Node11 -->
<g id="edge11" class="edge">
<title>Node9&#45;&gt;Node11</title>
<path fill="none" stroke="#63b8ff" d="M567.5,-338.61C585.27,-349.74 617.71,-369.3 647,-383 650.79,-384.77 654.76,-386.5 658.78,-388.17"/>
<polygon fill="#63b8ff" stroke="#63b8ff" points="657.59,-391.46 668.17,-391.93 660.19,-384.96 657.59,-391.46"/>
</g>
<!-- Node13 -->
<g id="node13" class="node">
<title>Node13</title>
<g id="a_node13"><a xlink:href="namespacea60.html#a1ae4660be19d8586055437f379fa4985" target="_top" xlink:title="Configure torrent session.">
<polygon fill="white" stroke="#666666" points="767,-338.5 647,-338.5 647,-321.5 767,-321.5 767,-338.5"/>
<text text-anchor="middle" x="707" y="-328.1" font-family="SourceSans" font-size="8.00">a60::make_settings_pack</text>
</a>
</g>
</g>
<!-- Node9&#45;&gt;Node13 -->
<g id="edge15" class="edge">
<title>Node9&#45;&gt;Node13</title>
<path fill="none" stroke="#63b8ff" d="M611.03,-330C619.45,-330 628.2,-330 636.82,-330"/>
<polygon fill="#63b8ff" stroke="#63b8ff" points="636.87,-333.5 646.87,-330 636.87,-326.5 636.87,-333.5"/>
</g>
<!-- Node14 -->
<g id="node14" class="node">
<title>Node14</title>
<g id="a_node14"><a xlink:href="structa60_1_1collection.html#a997d47a7fc3ffcabaeba3fd74cce0d82" target="_top" xlink:title=" ">
<polygon fill="white" stroke="#666666" points="762.5,-303 651.5,-303 651.5,-277 762.5,-277 762.5,-303"/>
<text text-anchor="start" x="659.5" y="-292.6" font-family="SourceSans" font-size="8.00">a60::collection::torrent</text>
<text text-anchor="middle" x="707" y="-283.6" font-family="SourceSans" font-size="8.00">_directory</text>
</a>
</g>
</g>
<!-- Node9&#45;&gt;Node14 -->
<g id="edge16" class="edge">
<title>Node9&#45;&gt;Node14</title>
<path fill="none" stroke="#63b8ff" d="M586.61,-321.42C604.07,-316.82 626.14,-311.02 646.54,-305.65"/>
<polygon fill="#63b8ff" stroke="#63b8ff" points="647.61,-308.99 656.39,-303.06 645.82,-302.22 647.61,-308.99"/>
</g>
<!-- Node16 -->
<g id="node16" class="node">
<title>Node16</title>
<g id="a_node16"><a xlink:href="structa60_1_1collection.html#a7f3662085b6407ab2a8916075c984151" target="_top" xlink:title=" ">
<polygon fill="white" stroke="#666666" points="757,-462 657,-462 657,-436 757,-436 757,-462"/>
<text text-anchor="start" x="665" y="-451.6" font-family="SourceSans" font-size="8.00">a60::collection::trim</text>
<text text-anchor="middle" x="707" y="-442.6" font-family="SourceSans" font-size="8.00">_string</text>
</a>
</g>
</g>
<!-- Node9&#45;&gt;Node16 -->
<g id="edge20" class="edge">
<title>Node9&#45;&gt;Node16</title>
<path fill="none" stroke="#63b8ff" d="M560.21,-338.77C573.88,-357.47 608.4,-401.62 647,-427 649.44,-428.6 652.01,-430.11 654.67,-431.53"/>
<polygon fill="#63b8ff" stroke="#63b8ff" points="653.38,-434.8 663.91,-435.99 656.43,-428.49 653.38,-434.8"/>
</g>
<!-- Node11&#45;&gt;Node4 -->
<g id="edge12" class="edge">
<title>Node11&#45;&gt;Node4</title>
<path fill="none" stroke="#63b8ff" d="M755.28,-395.24C808.99,-383.74 892.95,-364.37 922,-350 946.6,-337.83 970.79,-317.25 986.01,-302.94"/>
<polygon fill="#63b8ff" stroke="#63b8ff" points="988.72,-305.19 993.49,-295.72 983.87,-300.15 988.72,-305.19"/>
</g>
<!-- Node12 -->
<g id="node12" class="node">
<title>Node12</title>
<g id="a_node12"><a xlink:href="namespacea60_1_1io.html#a6ad052ef18cfb1a1ac708f7c69c9050d" target="_top" xlink:title="Assumes argument is full path, no error checking...">
<polygon fill="white" stroke="#666666" points="910.5,-423 814.5,-423 814.5,-397 910.5,-397 910.5,-423"/>
<text text-anchor="start" x="822.5" y="-412.6" font-family="SourceSans" font-size="8.00">a60::io::get_output</text>
<text text-anchor="middle" x="862.5" y="-403.6" font-family="SourceSans" font-size="8.00">_prefix</text>
</a>
</g>
</g>
<!-- Node11&#45;&gt;Node12 -->
<g id="edge13" class="edge">
<title>Node11&#45;&gt;Node12</title>
<path fill="none" stroke="#63b8ff" d="M755.31,-406.54C770.7,-407.04 787.95,-407.6 804.01,-408.13"/>
<polygon fill="#63b8ff" stroke="#63b8ff" points="804.24,-411.64 814.35,-408.46 804.47,-404.64 804.24,-411.64"/>
</g>
<!-- Node12&#45;&gt;Node4 -->
<g id="edge14" class="edge">
<title>Node12&#45;&gt;Node4</title>
<path fill="none" stroke="#63b8ff" d="M898.36,-396.98C906.52,-393.12 914.9,-388.45 922,-383 951.56,-360.33 977.46,-324.88 991.31,-304"/>
<polygon fill="#63b8ff" stroke="#63b8ff" points="994.29,-305.82 996.79,-295.52 988.42,-302.02 994.29,-305.82"/>
</g>
<!-- Node14&#45;&gt;Node4 -->
<g id="edge17" class="edge">
<title>Node14&#45;&gt;Node4</title>
<path fill="none" stroke="#63b8ff" d="M762.61,-289.44C815.39,-288.9 894.88,-288.09 947.59,-287.56"/>
<polygon fill="#63b8ff" stroke="#63b8ff" points="947.79,-291.05 957.76,-287.45 947.72,-284.05 947.79,-291.05"/>
</g>
<!-- Node14&#45;&gt;Node6 -->
<g id="edge18" class="edge">
<title>Node14&#45;&gt;Node6</title>
<path fill="none" stroke="#63b8ff" d="M732.66,-276.83C758.59,-262.98 799.52,-241.11 828.28,-225.75"/>
<polygon fill="#63b8ff" stroke="#63b8ff" points="829.98,-228.81 837.15,-221.01 826.68,-222.63 829.98,-228.81"/>
</g>
<!-- Node15 -->
<g id="node15" class="node">
<title>Node15</title>
<g id="a_node15"><a xlink:href="namespacea60_1_1io.html#aa5fbb8ab63397dd45c4a54c0758935ef" target="_top" xlink:title="Sanity check input existence.">
<polygon fill="white" stroke="#666666" points="914.5,-341 810.5,-341 810.5,-315 914.5,-315 914.5,-341"/>
<text text-anchor="start" x="818.5" y="-330.6" font-family="SourceSans" font-size="8.00">a60::io::sanity_check</text>
<text text-anchor="middle" x="862.5" y="-321.6" font-family="SourceSans" font-size="8.00">_input</text>
</a>
</g>
</g>
<!-- Node14&#45;&gt;Node15 -->
<g id="edge19" class="edge">
<title>Node14&#45;&gt;Node15</title>
<path fill="none" stroke="#63b8ff" d="M760.83,-303.08C773.61,-306.24 787.38,-309.65 800.51,-312.9"/>
<polygon fill="#63b8ff" stroke="#63b8ff" points="799.84,-316.34 810.39,-315.35 801.53,-309.55 799.84,-316.34"/>
</g>
<!-- Node17 -->
<g id="node17" class="node">
<title>Node17</title>
<g id="a_node17"><a xlink:href="namespacea60.html#ac7eddb2e330d8983ddc852edde5335c5" target="_top" xlink:title=" ">
<polygon fill="white" stroke="#666666" points="922,-458.5 803,-458.5 803,-441.5 922,-441.5 922,-458.5"/>
<text text-anchor="middle" x="862.5" y="-448.1" font-family="SourceSans" font-size="8.00">a60::to_lowercase_string</text>
</a>
</g>
</g>
<!-- Node16&#45;&gt;Node17 -->
<g id="edge21" class="edge">
<title>Node16&#45;&gt;Node17</title>
<path fill="none" stroke="#63b8ff" d="M757.41,-449.32C768.6,-449.39 780.67,-449.47 792.5,-449.55"/>
<polygon fill="#63b8ff" stroke="#63b8ff" points="792.78,-453.05 802.8,-449.62 792.83,-446.05 792.78,-453.05"/>
</g>
<!-- Node20 -->
<g id="node20" class="node">
<title>Node20</title>
<g id="a_node20"><a xlink:href="structa60_1_1collection.html#af73cc1411b568c10442a9999f52531b4" target="_top" xlink:title=" ">
<polygon fill="white" stroke="#666666" points="459,-65.5 313,-65.5 313,-48.5 459,-48.5 459,-65.5"/>
<text text-anchor="middle" x="386" y="-55.1" font-family="SourceSans" font-size="8.00">a60::collection::partition_name</text>
</a>
</g>
</g>
<!-- Node19&#45;&gt;Node20 -->
<g id="edge24" class="edge">
<title>Node19&#45;&gt;Node20</title>
<path fill="none" stroke="#63b8ff" d="M262.9,-57C275.3,-57 288.98,-57 302.57,-57"/>
<polygon fill="#63b8ff" stroke="#63b8ff" points="302.92,-60.5 312.92,-57 302.92,-53.5 302.92,-60.5"/>
</g>
<!-- Node21 -->
<g id="node21" class="node">
<title>Node21</title>
<g id="a_node21"><a xlink:href="namespacea60.html#a4e8b0cabed112734147b499bf0cc9029" target="_top" xlink:title="Conversion of resolution_mode to string.">
<polygon fill="white" stroke="#666666" points="590,-65.5 516,-65.5 516,-48.5 590,-48.5 590,-65.5"/>
<text text-anchor="middle" x="553" y="-55.1" font-family="SourceSans" font-size="8.00">a60::to_string</text>
</a>
</g>
</g>
<!-- Node20&#45;&gt;Node21 -->
<g id="edge25" class="edge">
<title>Node20&#45;&gt;Node21</title>
<path fill="none" stroke="#63b8ff" d="M459.37,-57C475.12,-57 491.37,-57 505.77,-57"/>
<polygon fill="#63b8ff" stroke="#63b8ff" points="505.9,-60.5 515.9,-57 505.9,-53.5 505.9,-60.5"/>
</g>
<!-- Node21&#45;&gt;Node21 -->
<g id="edge26" class="edge">
<title>Node21&#45;&gt;Node21</title>
<path fill="none" stroke="#63b8ff" d="M530.05,-65.69C517.38,-74.17 525.03,-83.5 553,-83.5 571.79,-83.5 581.41,-79.29 581.86,-73.95"/>
<polygon fill="#63b8ff" stroke="#63b8ff" points="584.61,-71.78 575.95,-65.69 578.92,-75.86 584.61,-71.78"/>
</g>
</g>
</svg>
        <g id="navigator" transform="translate(0 0)" fill="#404254">
                <rect fill="#f2f5e9" fill-opacity="0.5" stroke="#606060" stroke-width=".5" x="0" y="0" width="60" height="60"/>
                <use id="zoomplus" xlink:href="#zoomPlus" x="17" y="9" onmousedown="handleZoom(evt,'in')"/>
                <use id="zoomminus" xlink:href="#zoomMin" x="42" y="9" onmousedown="handleZoom(evt,'out')"/>
                <use id="reset" xlink:href="#resetDef" x="30" y="36" onmousedown="handleReset()"/>
                <g id="arrowUp" xlink:href="#dirArrow" transform="translate(30 24)" onmousedown="handlePan(0,-1)">
                  <use xlink:href="#rim" fill="#404040">
                        <set attributeName="fill" to="#808080" begin="arrowUp.mouseover" end="arrowUp.mouseout"/>
                  </use>
                  <path fill="none" stroke="white" stroke-width="1.5" d="M0,-3.0v7 M-2.5,-0.5L0,-3.0L2.5,-0.5"/>
                </g>
                <g id="arrowRight" xlink:href="#dirArrow" transform="rotate(90) translate(36 -43)" onmousedown="handlePan(1,0)">
                  <use xlink:href="#rim" fill="#404040">
                        <set attributeName="fill" to="#808080" begin="arrowRight.mouseover" end="arrowRight.mouseout"/>
                  </use>
                  <path fill="none" stroke="white" stroke-width="1.5" d="M0,-3.0v7 M-2.5,-0.5L0,-3.0L2.5,-0.5"/>
                </g>
                <g id="arrowDown" xlink:href="#dirArrow" transform="rotate(180) translate(-30 -48)" onmousedown="handlePan(0,1)">
                  <use xlink:href="#rim" fill="#404040">
                        <set attributeName="fill" to="#808080" begin="arrowDown.mouseover" end="arrowDown.mouseout"/>
                  </use>
                  <path fill="none" stroke="white" stroke-width="1.5" d="M0,-3.0v7 M-2.5,-0.5L0,-3.0L2.5,-0.5"/>
                </g>
                <g id="arrowLeft" xlink:href="#dirArrow" transform="rotate(270) translate(-36 17)" onmousedown="handlePan(-1,0)">
                  <use xlink:href="#rim" fill="#404040">
                        <set attributeName="fill" to="#808080" begin="arrowLeft.mouseover" end="arrowLeft.mouseout"/>
                  </use>
                  <path fill="none" stroke="white" stroke-width="1.5" d="M0,-3.0v7 M-2.5,-0.5L0,-3.0L2.5,-0.5"/>
                </g>
        </g>
        <svg viewBox="0 0 15 15" width="100%" height="30px" preserveAspectRatio="xMaxYMin meet">
         <g id="arrow_out" transform="scale(0.3 0.3)">
          <a xlink:href="namespacea60_a4b62830380bc77ab684d35c2b2e28584_cgraph_org.svg" target="_base">
           <rect id="button" ry="5" rx="5" y="6" x="6" height="38" width="38"
                fill="#f2f5e9" fill-opacity="0.5" stroke="#606060" stroke-width="1.0"/>
           <path id="arrow"
             d="M 11.500037,31.436501 C 11.940474,20.09759 22.043105,11.32322 32.158766,21.979434 L 37.068811,17.246167 C 37.068811,17.246167 37.088388,32 37.088388,32 L 22.160133,31.978069 C 22.160133,31.978069 26.997745,27.140456 26.997745,27.140456 C 18.528582,18.264221 13.291696,25.230495 11.500037,31.436501 z"
             style="fill:#404040;"/>
          </a>
         </g>
        </svg>
</svg>
