<?xml version="1.0" encoding="UTF-8" standalone="no"?>
<!DOCTYPE svg PUBLIC "-//W3C//DTD SVG 1.1//EN"
 "http://www.w3.org/Graphics/SVG/1.1/DTD/svg11.dtd">
<!-- Generated by graphviz version 5.0.0 (0)
 -->
<!-- Title: a60::augment_base_map_name Pages: 1 -->
<svg width="604pt" height="159pt"
 viewBox="0.00 0.00 604.00 159.00" xmlns="http://www.w3.org/2000/svg" xmlns:xlink="http://www.w3.org/1999/xlink">
<g id="graph0" class="graph" transform="scale(1 1) rotate(0) translate(4 155)">
<title>a60::augment_base_map_name</title>
<!-- Node1 -->
<g id="node1" class="node">
<title>Node1</title>
<g id="a_node1"><a xlink:title="Base name for output with maps.">
<polygon fill="#999999" stroke="#666666" points="148,-92 0,-92 0,-75 148,-75 148,-92"/>
<text text-anchor="middle" x="74" y="-81.6" font-family="SourceSans" font-size="8.00">a60::augment_base_map_name</text>
</a>
</g>
</g>
<!-- Node2 -->
<g id="node2" class="node">
<title>Node2</title>
<g id="a_node2"><a xlink:href="structa60_1_1collection.html#a80993af9aec8238db8e44da1e9a3c994" target="_top" xlink:title=" ">
<polygon fill="white" stroke="#666666" points="287,-117.5 184,-117.5 184,-91.5 287,-91.5 287,-117.5"/>
<text text-anchor="start" x="192" y="-107.1" font-family="SourceSans" font-size="8.00">a60::collection::slice</text>
<text text-anchor="middle" x="235.5" y="-98.1" font-family="SourceSans" font-size="8.00">_name_mangled</text>
</a>
</g>
</g>
<!-- Node1&#45;&gt;Node2 -->
<g id="edge1" class="edge">
<title>Node1&#45;&gt;Node2</title>
<path fill="none" stroke="#63b8ff" d="M139.87,-92.04C151.1,-93.52 162.73,-95.05 173.84,-96.51"/>
<polygon fill="#63b8ff" stroke="#63b8ff" points="173.5,-100 183.87,-97.83 174.41,-93.06 173.5,-100"/>
</g>
<!-- Node4 -->
<g id="node4" class="node">
<title>Node4</title>
<g id="a_node4"><a xlink:href="namespacea60.html#ac7eddb2e330d8983ddc852edde5335c5" target="_top" xlink:title=" ">
<polygon fill="white" stroke="#666666" points="447.5,-151 328.5,-151 328.5,-134 447.5,-134 447.5,-151"/>
<text text-anchor="middle" x="388" y="-140.6" font-family="SourceSans" font-size="8.00">a60::to_lowercase_string</text>
</a>
</g>
</g>
<!-- Node1&#45;&gt;Node4 -->
<g id="edge6" class="edge">
<title>Node1&#45;&gt;Node4</title>
<path fill="none" stroke="#63b8ff" d="M92.23,-92.16C113.3,-102.3 150.31,-118.71 184,-126.5 227.88,-136.65 278.37,-140.66 318.02,-142.12"/>
<polygon fill="#63b8ff" stroke="#63b8ff" points="318,-145.63 328.11,-142.45 318.23,-138.63 318,-145.63"/>
</g>
<!-- Node5 -->
<g id="node5" class="node">
<title>Node5</title>
<g id="a_node5"><a xlink:href="namespacea60.html#a11d9ffc210e8dca8410e7a5ad62deabc" target="_top" xlink:title=" ">
<polygon fill="white" stroke="#666666" points="444.5,-77.5 331.5,-77.5 331.5,-51.5 444.5,-51.5 444.5,-77.5"/>
<text text-anchor="start" x="339.5" y="-67.1" font-family="SourceSans" font-size="8.00">a60::to_replace_spaces</text>
<text text-anchor="middle" x="388" y="-58.1" font-family="SourceSans" font-size="8.00">_string</text>
</a>
</g>
</g>
<!-- Node1&#45;&gt;Node5 -->
<g id="edge7" class="edge">
<title>Node1&#45;&gt;Node5</title>
<path fill="none" stroke="#63b8ff" d="M148.15,-79.05C200.55,-75.85 270.53,-71.59 321.19,-68.51"/>
<polygon fill="#63b8ff" stroke="#63b8ff" points="321.6,-71.99 331.37,-67.89 321.17,-65 321.6,-71.99"/>
</g>
<!-- Node7 -->
<g id="node7" class="node">
<title>Node7</title>
<g id="a_node7"><a xlink:href="namespacea60.html#a4e8b0cabed112734147b499bf0cc9029" target="_top" xlink:title="Conversion of resolution_mode to string.">
<polygon fill="white" stroke="#666666" points="272.5,-17 198.5,-17 198.5,0 272.5,0 272.5,-17"/>
<text text-anchor="middle" x="235.5" y="-6.6" font-family="SourceSans" font-size="8.00">a60::to_string</text>
</a>
</g>
</g>
<!-- Node1&#45;&gt;Node7 -->
<g id="edge8" class="edge">
<title>Node1&#45;&gt;Node7</title>
<path fill="none" stroke="#63b8ff" d="M93.3,-74.9C121.18,-61.79 174.49,-36.72 207.03,-21.41"/>
<polygon fill="#63b8ff" stroke="#63b8ff" points="208.86,-24.43 216.42,-17 205.88,-18.09 208.86,-24.43"/>
</g>
<!-- Node3 -->
<g id="node3" class="node">
<title>Node3</title>
<g id="a_node3"><a xlink:href="structa60_1_1collection.html#a25b35cf4ac39da89d868fe2cf41b5acd" target="_top" xlink:title=" ">
<polygon fill="white" stroke="#666666" points="453,-113 323,-113 323,-96 453,-96 453,-113"/>
<text text-anchor="middle" x="388" y="-102.6" font-family="SourceSans" font-size="8.00">a60::collection::slice_name</text>
</a>
</g>
</g>
<!-- Node2&#45;&gt;Node3 -->
<g id="edge2" class="edge">
<title>Node2&#45;&gt;Node3</title>
<path fill="none" stroke="#63b8ff" d="M287.03,-104.5C295.32,-104.5 304.05,-104.5 312.77,-104.5"/>
<polygon fill="#63b8ff" stroke="#63b8ff" points="312.97,-108 322.97,-104.5 312.97,-101 312.97,-108"/>
</g>
<!-- Node2&#45;&gt;Node4 -->
<g id="edge3" class="edge">
<title>Node2&#45;&gt;Node4</title>
<path fill="none" stroke="#63b8ff" d="M287.03,-117.26C305.16,-121.84 325.45,-126.96 342.98,-131.39"/>
<polygon fill="#63b8ff" stroke="#63b8ff" points="342.4,-134.85 352.95,-133.9 344.11,-128.06 342.4,-134.85"/>
</g>
<!-- Node2&#45;&gt;Node5 -->
<g id="edge4" class="edge">
<title>Node2&#45;&gt;Node5</title>
<path fill="none" stroke="#63b8ff" d="M285.78,-91.4C299.23,-87.83 313.94,-83.92 327.88,-80.21"/>
<polygon fill="#63b8ff" stroke="#63b8ff" points="329.1,-83.51 337.87,-77.56 327.3,-76.74 329.1,-83.51"/>
</g>
<!-- Node6 -->
<g id="node6" class="node">
<title>Node6</title>
<g id="a_node6"><a xlink:href="namespacea60.html#a751f954fe64233f1dc6517220e4b5692" target="_top" xlink:title=" ">
<polygon fill="white" stroke="#666666" points="596,-73 489,-73 489,-56 596,-56 596,-73"/>
<text text-anchor="middle" x="542.5" y="-62.6" font-family="SourceSans" font-size="8.00">a60::to_replace_string</text>
</a>
</g>
</g>
<!-- Node5&#45;&gt;Node6 -->
<g id="edge5" class="edge">
<title>Node5&#45;&gt;Node6</title>
<path fill="none" stroke="#63b8ff" d="M444.92,-64.5C455.92,-64.5 467.53,-64.5 478.73,-64.5"/>
<polygon fill="#63b8ff" stroke="#63b8ff" points="478.88,-68 488.88,-64.5 478.88,-61 478.88,-68"/>
</g>
<!-- Node7&#45;&gt;Node7 -->
<g id="edge9" class="edge">
<title>Node7&#45;&gt;Node7</title>
<path fill="none" stroke="#63b8ff" d="M212.85,-17.19C200.34,-25.67 207.89,-35 235.5,-35 254.05,-35 263.54,-30.79 263.98,-25.45"/>
<polygon fill="#63b8ff" stroke="#63b8ff" points="266.77,-23.34 258.15,-17.19 261.06,-27.37 266.77,-23.34"/>
</g>
</g>
</svg>
