<?xml version="1.0" encoding="UTF-8" standalone="no"?>
<!DOCTYPE svg PUBLIC "-//W3C//DTD SVG 1.1//EN"
 "http://www.w3.org/Graphics/SVG/1.1/DTD/svg11.dtd">
<!-- Generated by graphviz version 5.0.0 (0)
 -->
<!-- Title: a60::metadata::ring_w_glyph Pages: 1 -->
<svg width="407pt" height="258pt"
 viewBox="0.00 0.00 407.00 257.50" xmlns="http://www.w3.org/2000/svg" xmlns:xlink="http://www.w3.org/1999/xlink">
<g id="graph0" class="graph" transform="scale(1 1) rotate(0) translate(4 253.5)">
<title>a60::metadata::ring_w_glyph</title>
<!-- Node1 -->
<g id="node1" class="node">
<title>Node1</title>
<g id="a_node1"><a xlink:title="Weighted ring glyph. Not opacity, but breadth. More weight, wider bands around ring_radius length.">
<polygon fill="#999999" stroke="#666666" points="100,-145.5 0,-145.5 0,-119.5 100,-119.5 100,-145.5"/>
<text text-anchor="start" x="8" y="-135.1" font-family="SourceSans" font-size="8.00">a60::metadata::ring</text>
<text text-anchor="middle" x="50" y="-126.1" font-family="SourceSans" font-size="8.00">_w_glyph</text>
</a>
</g>
</g>
<!-- Node2 -->
<g id="node2" class="node">
<title>Node2</title>
<g id="a_node2"><a xlink:href="namespacea60_1_1constants.html#a613cac7d85819a545849f5eefd733896" target="_top" xlink:title=" ">
<polygon fill="white" stroke="#666666" points="241.5,-249.5 140.5,-249.5 140.5,-223.5 241.5,-223.5 241.5,-249.5"/>
<text text-anchor="start" x="148.5" y="-239.1" font-family="SourceSans" font-size="8.00">a60::constants::age</text>
<text text-anchor="middle" x="191" y="-230.1" font-family="SourceSans" font-size="8.00">_value_to_multiple</text>
</a>
</g>
</g>
<!-- Node1&#45;&gt;Node2 -->
<g id="edge1" class="edge">
<title>Node1&#45;&gt;Node2</title>
<path fill="none" stroke="#63b8ff" d="M63.32,-145.69C79.08,-162.05 107.73,-190.17 136,-209.5 140.82,-212.8 146.1,-215.94 151.42,-218.84"/>
<polygon fill="#63b8ff" stroke="#63b8ff" points="149.83,-221.95 160.31,-223.47 153.06,-215.74 149.83,-221.95"/>
</g>
<!-- Node3 -->
<g id="node3" class="node">
<title>Node3</title>
<g id="a_node3"><a xlink:href="namespacea60_1_1constants.html#ac27c77e4606552ae5f74a1c21dd9258e" target="_top" xlink:title=" ">
<polygon fill="white" stroke="#666666" points="399,-224 282,-224 282,-207 399,-207 399,-224"/>
<text text-anchor="middle" x="340.5" y="-213.6" font-family="SourceSans" font-size="8.00">a60::constants::newline</text>
</a>
</g>
</g>
<!-- Node1&#45;&gt;Node3 -->
<g id="edge5" class="edge">
<title>Node1&#45;&gt;Node3</title>
<path fill="none" stroke="#63b8ff" d="M72.24,-145.69C88.99,-155.54 113.23,-168.61 136,-176.5 180.03,-191.75 231.6,-201.55 271.8,-207.52"/>
<polygon fill="#63b8ff" stroke="#63b8ff" points="271.37,-210.99 281.77,-208.95 272.37,-204.06 271.37,-210.99"/>
</g>
<!-- Node4 -->
<g id="node4" class="node">
<title>Node4</title>
<g id="a_node4"><a xlink:href="namespacea60_1_1metadata.html#a0f59763af905b28339abf072db876919" target="_top" xlink:title="Typographic defaults for radial diagrams.">
<polygon fill="white" stroke="#666666" points="240,-167.5 142,-167.5 142,-141.5 240,-141.5 240,-167.5"/>
<text text-anchor="start" x="150" y="-157.1" font-family="SourceSans" font-size="8.00">a60::metadata::get</text>
<text text-anchor="middle" x="191" y="-148.1" font-family="SourceSans" font-size="8.00">_radial_typo</text>
</a>
</g>
</g>
<!-- Node1&#45;&gt;Node4 -->
<g id="edge3" class="edge">
<title>Node1&#45;&gt;Node4</title>
<path fill="none" stroke="#63b8ff" d="M100.01,-140.26C110.31,-141.89 121.28,-143.62 131.88,-145.3"/>
<polygon fill="#63b8ff" stroke="#63b8ff" points="131.48,-148.78 141.9,-146.89 132.57,-141.87 131.48,-148.78"/>
</g>
<!-- Node6 -->
<g id="node6" class="node">
<title>Node6</title>
<g id="a_node6"><a xlink:href="namespacea60_1_1metadata.html#ac76923f3952666a3ce767d9259fba1dc" target="_top" xlink:title="Ring glyph with arc missing on the bottom.">
<polygon fill="white" stroke="#666666" points="246,-123.5 136,-123.5 136,-97.5 246,-97.5 246,-123.5"/>
<text text-anchor="start" x="144" y="-113.1" font-family="SourceSans" font-size="8.00">a60::metadata::partial</text>
<text text-anchor="middle" x="191" y="-104.1" font-family="SourceSans" font-size="8.00">_ring_glyph</text>
</a>
</g>
</g>
<!-- Node1&#45;&gt;Node6 -->
<g id="edge6" class="edge">
<title>Node1&#45;&gt;Node6</title>
<path fill="none" stroke="#63b8ff" d="M100.01,-124.74C108.32,-123.43 117.06,-122.04 125.7,-120.68"/>
<polygon fill="#63b8ff" stroke="#63b8ff" points="126.43,-124.11 135.76,-119.09 125.33,-117.19 126.43,-124.11"/>
</g>
<!-- Node7 -->
<g id="node7" class="node">
<title>Node7</title>
<g id="a_node7"><a xlink:href="namespacea60_1_1metadata.html#ae3aa31b1fc054034f40b30f22bf0d4b8" target="_top" xlink:title="Find orbit of ring, given radius, rspace, and number ring. Assume: ringsn starts with 1 for values an...">
<polygon fill="white" stroke="#666666" points="241,-79.5 141,-79.5 141,-53.5 241,-53.5 241,-79.5"/>
<text text-anchor="start" x="149" y="-69.1" font-family="SourceSans" font-size="8.00">a60::metadata::ring</text>
<text text-anchor="middle" x="191" y="-60.1" font-family="SourceSans" font-size="8.00">_radius</text>
</a>
</g>
</g>
<!-- Node1&#45;&gt;Node7 -->
<g id="edge7" class="edge">
<title>Node1&#45;&gt;Node7</title>
<path fill="none" stroke="#63b8ff" d="M74.89,-119.39C91.77,-110.32 115.03,-98.18 136,-88.5 139.62,-86.83 143.4,-85.15 147.21,-83.51"/>
<polygon fill="#63b8ff" stroke="#63b8ff" points="148.81,-86.64 156.67,-79.53 146.09,-80.19 148.81,-86.64"/>
</g>
<!-- Node8 -->
<g id="node8" class="node">
<title>Node8</title>
<g id="a_node8"><a xlink:href="namespacea60.html#a4e8b0cabed112734147b499bf0cc9029" target="_top" xlink:title="Conversion of resolution_mode to string.">
<polygon fill="white" stroke="#666666" points="228,-17 154,-17 154,0 228,0 228,-17"/>
<text text-anchor="middle" x="191" y="-6.6" font-family="SourceSans" font-size="8.00">a60::to_string</text>
</a>
</g>
</g>
<!-- Node1&#45;&gt;Node8 -->
<g id="edge8" class="edge">
<title>Node1&#45;&gt;Node8</title>
<path fill="none" stroke="#63b8ff" d="M62.04,-119.41C77.55,-101.43 107.13,-68.59 136,-44.5 145.54,-36.54 156.88,-28.76 166.69,-22.48"/>
<polygon fill="#63b8ff" stroke="#63b8ff" points="168.56,-25.44 175.19,-17.17 164.85,-19.5 168.56,-25.44"/>
</g>
<!-- Node2&#45;&gt;Node3 -->
<g id="edge2" class="edge">
<title>Node2&#45;&gt;Node3</title>
<path fill="none" stroke="#63b8ff" d="M241.53,-229.45C251.25,-228.06 261.62,-226.59 271.82,-225.14"/>
<polygon fill="#63b8ff" stroke="#63b8ff" points="272.54,-228.57 281.95,-223.69 271.55,-221.64 272.54,-228.57"/>
</g>
<!-- Node5 -->
<g id="node5" class="node">
<title>Node5</title>
<g id="a_node5"><a xlink:href="namespacea60_1_1metadata.html#abcd6d192e6ed0f853c3c6cd9bcf13cad" target="_top" xlink:title=" ">
<polygon fill="white" stroke="#666666" points="389.5,-167.5 291.5,-167.5 291.5,-141.5 389.5,-141.5 389.5,-167.5"/>
<text text-anchor="start" x="299.5" y="-157.1" font-family="SourceSans" font-size="8.00">a60::metadata::get</text>
<text text-anchor="middle" x="340.5" y="-148.1" font-family="SourceSans" font-size="8.00">_metadata_style</text>
</a>
</g>
</g>
<!-- Node4&#45;&gt;Node5 -->
<g id="edge4" class="edge">
<title>Node4&#45;&gt;Node5</title>
<path fill="none" stroke="#63b8ff" d="M240.3,-154.5C253.35,-154.5 267.62,-154.5 281.16,-154.5"/>
<polygon fill="#63b8ff" stroke="#63b8ff" points="281.35,-158 291.35,-154.5 281.35,-151 281.35,-158"/>
</g>
<!-- Node8&#45;&gt;Node8 -->
<g id="edge9" class="edge">
<title>Node8&#45;&gt;Node8</title>
<path fill="none" stroke="#63b8ff" d="M170.14,-17.19C158.62,-25.67 165.57,-35 191,-35 207.69,-35 216.42,-30.98 217.19,-25.82"/>
<polygon fill="#63b8ff" stroke="#63b8ff" points="220.09,-23.86 211.86,-17.19 214.14,-27.53 220.09,-23.86"/>
</g>
</g>
</svg>
