<?xml version="1.0" encoding="UTF-8" standalone="no"?>
<!DOCTYPE svg PUBLIC "-//W3C//DTD SVG 1.1//EN"
 "http://www.w3.org/Graphics/SVG/1.1/DTD/svg11.dtd">
<!-- Generated by graphviz version 5.0.0 (0)
 -->
<!-- Title: a60::make_intertitle Pages: 1 -->
<!--zoomable 420 -->
<svg id="main" version="1.1" xmlns="http://www.w3.org/2000/svg" xmlns:xlink="http://www.w3.org/1999/xlink" xml:space="preserve" onload="init(evt)">
<style type="text/css"><![CDATA[
.edge:hover path { stroke: red; }
.edge:hover polygon { stroke: red; fill: red; }
]]></style>
<script type="text/javascript"><![CDATA[
var edges = document.getElementsByTagName('g');
if (edges && edges.length) {
  for (var i=0;i<edges.length;i++) {
    if (edges[i].id.substr(0,4)=='edge') {
      edges[i].setAttribute('class','edge');
    }
  }
}
]]></script>
        <defs>
                <circle id="rim" cx="0" cy="0" r="7"/>
                <circle id="rim2" cx="0" cy="0" r="3.5"/>
                <g id="zoomPlus">
                        <use xlink:href="#rim" fill="#404040">
                                <set attributeName="fill" to="#808080" begin="zoomplus.mouseover" end="zoomplus.mouseout"/>
                        </use>
                        <path d="M-4,0h8M0,-4v8" fill="none" stroke="white" stroke-width="1.5" pointer-events="none"/>
                </g>
                <g id="zoomMin">
                        <use xlink:href="#rim" fill="#404040">
                                <set attributeName="fill" to="#808080" begin="zoomminus.mouseover" end="zoomminus.mouseout"/>
                        </use>
                        <path d="M-4,0h8" fill="none" stroke="white" stroke-width="1.5" pointer-events="none"/>
                </g>
                <g id="dirArrow">
                        <path fill="none" stroke="white" stroke-width="1.5" d="M0,-3.0v7 M-2.5,-0.5L0,-3.0L2.5,-0.5"/>
                </g>
               <g id="resetDef">
                       <use xlink:href="#rim2" fill="#404040">
                               <set attributeName="fill" to="#808080" begin="reset.mouseover" end="reset.mouseout"/>
                       </use>
               </g>
        </defs>

<script type="text/javascript">
var viewWidth = 917;
var viewHeight = 420;
var sectionId = 'dynsection-138';
</script>
<script xlink:href="svgpan.js"/>
<svg id="graph" class="graph">
<g id="viewport">
<title>a60::make_intertitle</title>
<!-- Node1 -->
<g id="node1" class="node">
<title>Node1</title>
<g id="a_node1"><a xlink:title="Add intertitle page for by&#45;* variants.">
<polygon fill="#999999" stroke="#666666" points="98,-101.5 0,-101.5 0,-84.5 98,-84.5 98,-101.5"/>
<text text-anchor="middle" x="49" y="-91.1" font-family="SourceSans" font-size="8.00">a60::make_intertitle</text>
</a>
</g>
</g>
<!-- Node2 -->
<g id="node2" class="node">
<title>Node2</title>
<g id="a_node2"><a xlink:href="namespacea60.html#afd267ab94266951ec08784e178349e3c" target="_top" xlink:title="Common parts of weighed collections.">
<polygon fill="white" stroke="#666666" points="244.5,-296.5 145.5,-296.5 145.5,-279.5 244.5,-279.5 244.5,-296.5"/>
<text text-anchor="middle" x="195" y="-286.1" font-family="SourceSans" font-size="8.00">a60::augment_base</text>
</a>
</g>
</g>
<!-- Node1&#45;&gt;Node2 -->
<g id="edge1" class="edge">
<title>Node1&#45;&gt;Node2</title>
<path fill="none" stroke="#63b8ff" d="M56.37,-101.63C78.49,-131.58 152.19,-231.38 181.66,-271.29"/>
<polygon fill="#63b8ff" stroke="#63b8ff" points="178.94,-273.5 187.7,-279.47 184.58,-269.35 178.94,-273.5"/>
</g>
<!-- Node14 -->
<g id="node14" class="node">
<title>Node14</title>
<g id="a_node14"><a xlink:href="namespacea60.html#a9aeac8f37ba3b5b580d305b0e6e406ac" target="_top" xlink:title=" ">
<polygon fill="white" stroke="#666666" points="254.5,-150 135.5,-150 135.5,-124 254.5,-124 254.5,-150"/>
<text text-anchor="start" x="143.5" y="-139.6" font-family="SourceSans" font-size="8.00">a60::augment_collection</text>
<text text-anchor="middle" x="195" y="-130.6" font-family="SourceSans" font-size="8.00">_color_bar</text>
</a>
</g>
</g>
<!-- Node1&#45;&gt;Node14 -->
<g id="edge19" class="edge">
<title>Node1&#45;&gt;Node14</title>
<path fill="none" stroke="#63b8ff" d="M78.11,-101.59C96.13,-107.1 120.1,-114.42 141.56,-120.98"/>
<polygon fill="#63b8ff" stroke="#63b8ff" points="140.62,-124.35 151.21,-123.93 142.67,-117.66 140.62,-124.35"/>
</g>
<!-- Node15 -->
<g id="node15" class="node">
<title>Node15</title>
<g id="a_node15"><a xlink:href="structa60_1_1collection.html#a61604643dbeea09b4fb20d6db5658b91" target="_top" xlink:title=" ">
<polygon fill="white" stroke="#666666" points="245,-106 145,-106 145,-80 245,-80 245,-106"/>
<text text-anchor="start" x="153" y="-95.6" font-family="SourceSans" font-size="8.00">a60::collection::find</text>
<text text-anchor="middle" x="195" y="-86.6" font-family="SourceSans" font-size="8.00">_data_dates_times</text>
</a>
</g>
</g>
<!-- Node1&#45;&gt;Node15 -->
<g id="edge20" class="edge">
<title>Node1&#45;&gt;Node15</title>
<path fill="none" stroke="#63b8ff" d="M98.35,-93C109.85,-93 122.26,-93 134.2,-93"/>
<polygon fill="#63b8ff" stroke="#63b8ff" points="134.55,-96.5 144.55,-93 134.55,-89.5 134.55,-96.5"/>
</g>
<!-- Node22 -->
<g id="node22" class="node">
<title>Node22</title>
<g id="a_node22"><a xlink:href="namespacea60_1_1carto.html#af59ef7858ef576e7f17b781f38436f28" target="_top" xlink:title=" ">
<polygon fill="white" stroke="#666666" points="256,-61.5 134,-61.5 134,-44.5 256,-44.5 256,-61.5"/>
<text text-anchor="middle" x="195" y="-51.1" font-family="SourceSans" font-size="8.00">a60::carto::frame_margin</text>
</a>
</g>
</g>
<!-- Node1&#45;&gt;Node22 -->
<g id="edge31" class="edge">
<title>Node1&#45;&gt;Node22</title>
<path fill="none" stroke="#63b8ff" d="M80.89,-84.42C102.06,-78.54 130.35,-70.68 153.34,-64.29"/>
<polygon fill="#63b8ff" stroke="#63b8ff" points="154.46,-67.62 163.16,-61.57 152.59,-60.87 154.46,-67.62"/>
</g>
<!-- Node23 -->
<g id="node23" class="node">
<title>Node23</title>
<g id="a_node23"><a xlink:href="namespacea60.html#ab8e4135bf0b91ea44a27a6fcb7a648e4" target="_top" xlink:title=" ">
<polygon fill="white" stroke="#666666" points="240,-26 150,-26 150,0 240,0 240,-26"/>
<text text-anchor="start" x="158" y="-15.6" font-family="SourceSans" font-size="8.00">a60::get_intertitle</text>
<text text-anchor="middle" x="195" y="-6.6" font-family="SourceSans" font-size="8.00">_render_state</text>
</a>
</g>
</g>
<!-- Node1&#45;&gt;Node23 -->
<g id="edge32" class="edge">
<title>Node1&#45;&gt;Node23</title>
<path fill="none" stroke="#63b8ff" d="M60.58,-84.37C75.99,-72.13 105.83,-49.59 134,-35 137.45,-33.21 141.08,-31.51 144.77,-29.89"/>
<polygon fill="#63b8ff" stroke="#63b8ff" points="146.12,-33.11 154.02,-26.05 143.44,-26.65 146.12,-33.11"/>
</g>
<!-- Node3 -->
<g id="node3" class="node">
<title>Node3</title>
<g id="a_node3"><a xlink:href="namespacea60.html#a578d5079a62c97b1fb3a1693a82d7430" target="_top" xlink:title="Base name for output for non&#45;map, data/info.">
<polygon fill="white" stroke="#666666" points="439,-241.5 293,-241.5 293,-224.5 439,-224.5 439,-241.5"/>
<text text-anchor="middle" x="366" y="-231.1" font-family="SourceSans" font-size="8.00">a60::augment_base_info_name</text>
</a>
</g>
</g>
<!-- Node2&#45;&gt;Node3 -->
<g id="edge2" class="edge">
<title>Node2&#45;&gt;Node3</title>
<path fill="none" stroke="#63b8ff" d="M221.23,-279.46C240.57,-272.95 267.93,-263.8 292,-256 303.63,-252.23 316.34,-248.2 327.84,-244.58"/>
<polygon fill="#63b8ff" stroke="#63b8ff" points="329.09,-247.85 337.58,-241.52 326.99,-241.18 329.09,-247.85"/>
</g>
<!-- Node4 -->
<g id="node4" class="node">
<title>Node4</title>
<g id="a_node4"><a xlink:href="structa60_1_1collection.html#a80993af9aec8238db8e44da1e9a3c994" target="_top" xlink:title=" ">
<polygon fill="white" stroke="#666666" points="589.5,-246 486.5,-246 486.5,-220 589.5,-220 589.5,-246"/>
<text text-anchor="start" x="494.5" y="-235.6" font-family="SourceSans" font-size="8.00">a60::collection::slice</text>
<text text-anchor="middle" x="538" y="-226.6" font-family="SourceSans" font-size="8.00">_name_mangled</text>
</a>
</g>
</g>
<!-- Node2&#45;&gt;Node4 -->
<g id="edge18" class="edge">
<title>Node2&#45;&gt;Node4</title>
<path fill="none" stroke="#63b8ff" d="M244.68,-281.1C293.99,-274 372.4,-262.39 440,-251 451.81,-249.01 464.4,-246.76 476.47,-244.55"/>
<polygon fill="#63b8ff" stroke="#63b8ff" points="477.26,-247.96 486.46,-242.7 475.99,-241.08 477.26,-247.96"/>
</g>
<!-- Node9 -->
<g id="node9" class="node">
<title>Node9</title>
<g id="a_node9"><a xlink:href="namespacea60.html#af7680b43cbe9dfe398fb13de46e09895" target="_top" xlink:title="Base name for output with maps.">
<polygon fill="white" stroke="#666666" points="440,-315.5 292,-315.5 292,-298.5 440,-298.5 440,-315.5"/>
<text text-anchor="middle" x="366" y="-305.1" font-family="SourceSans" font-size="8.00">a60::augment_base_map_name</text>
</a>
</g>
</g>
<!-- Node2&#45;&gt;Node9 -->
<g id="edge8" class="edge">
<title>Node2&#45;&gt;Node9</title>
<path fill="none" stroke="#63b8ff" d="M244.88,-293.5C256.42,-294.79 269.04,-296.21 281.63,-297.63"/>
<polygon fill="#63b8ff" stroke="#63b8ff" points="281.37,-301.12 291.7,-298.76 282.15,-294.16 281.37,-301.12"/>
</g>
<!-- Node11 -->
<g id="node11" class="node">
<title>Node11</title>
<g id="a_node11"><a xlink:href="namespacea60.html#a1bf91ba66297e089d99c49d6a376c0ad" target="_top" xlink:title="NEW STYLE First composite with map, black on white.">
<polygon fill="white" stroke="#666666" points="419,-363.5 313,-363.5 313,-346.5 419,-346.5 419,-363.5"/>
<text text-anchor="middle" x="366" y="-353.1" font-family="SourceSans" font-size="8.00">a60::make_map_base</text>
</a>
</g>
</g>
<!-- Node2&#45;&gt;Node11 -->
<g id="edge14" class="edge">
<title>Node2&#45;&gt;Node11</title>
<path fill="none" stroke="#63b8ff" d="M217.75,-296.62C247.28,-308.33 300.25,-329.33 333.96,-342.69"/>
<polygon fill="#63b8ff" stroke="#63b8ff" points="332.75,-345.98 343.34,-346.41 335.33,-339.47 332.75,-345.98"/>
</g>
<!-- Node13 -->
<g id="node13" class="node">
<title>Node13</title>
<g id="a_node13"><a xlink:href="namespacea60.html#af951ad59a8649d55d5075079447bf0e7" target="_top" xlink:title="First composite with map, white on black.">
<polygon fill="white" stroke="#666666" points="436,-404.5 296,-404.5 296,-387.5 436,-387.5 436,-404.5"/>
<text text-anchor="middle" x="366" y="-394.1" font-family="SourceSans" font-size="8.00">a60::make_map_inverse_base</text>
</a>
</g>
</g>
<!-- Node2&#45;&gt;Node13 -->
<g id="edge16" class="edge">
<title>Node2&#45;&gt;Node13</title>
<path fill="none" stroke="#63b8ff" d="M203.32,-296.54C218.3,-313.49 254.22,-351.62 292,-373 299.98,-377.52 308.97,-381.27 317.84,-384.34"/>
<polygon fill="#63b8ff" stroke="#63b8ff" points="316.77,-387.68 327.36,-387.42 318.92,-381.01 316.77,-387.68"/>
</g>
<!-- Node3&#45;&gt;Node4 -->
<g id="edge3" class="edge">
<title>Node3&#45;&gt;Node4</title>
<path fill="none" stroke="#63b8ff" d="M439.1,-233C451.41,-233 464.1,-233 476.09,-233"/>
<polygon fill="#63b8ff" stroke="#63b8ff" points="476.43,-236.5 486.43,-233 476.43,-229.5 476.43,-236.5"/>
</g>
<!-- Node5 -->
<g id="node5" class="node">
<title>Node5</title>
<g id="a_node5"><a xlink:href="structa60_1_1collection.html#a25b35cf4ac39da89d868fe2cf41b5acd" target="_top" xlink:title=" ">
<polygon fill="white" stroke="#666666" points="766,-241.5 636,-241.5 636,-224.5 766,-224.5 766,-241.5"/>
<text text-anchor="middle" x="701" y="-231.1" font-family="SourceSans" font-size="8.00">a60::collection::slice_name</text>
</a>
</g>
</g>
<!-- Node4&#45;&gt;Node5 -->
<g id="edge4" class="edge">
<title>Node4&#45;&gt;Node5</title>
<path fill="none" stroke="#63b8ff" d="M589.94,-233C601.31,-233 613.6,-233 625.7,-233"/>
<polygon fill="#63b8ff" stroke="#63b8ff" points="625.79,-236.5 635.79,-233 625.79,-229.5 625.79,-236.5"/>
</g>
<!-- Node6 -->
<g id="node6" class="node">
<title>Node6</title>
<g id="a_node6"><a xlink:href="namespacea60.html#ac7eddb2e330d8983ddc852edde5335c5" target="_top" xlink:title=" ">
<polygon fill="white" stroke="#666666" points="760.5,-279.5 641.5,-279.5 641.5,-262.5 760.5,-262.5 760.5,-279.5"/>
<text text-anchor="middle" x="701" y="-269.1" font-family="SourceSans" font-size="8.00">a60::to_lowercase_string</text>
</a>
</g>
</g>
<!-- Node4&#45;&gt;Node6 -->
<g id="edge5" class="edge">
<title>Node4&#45;&gt;Node6</title>
<path fill="none" stroke="#63b8ff" d="M589.94,-245.02C610.51,-249.88 634.07,-255.44 654.1,-260.17"/>
<polygon fill="#63b8ff" stroke="#63b8ff" points="653.38,-263.59 663.92,-262.48 654.99,-256.78 653.38,-263.59"/>
</g>
<!-- Node7 -->
<g id="node7" class="node">
<title>Node7</title>
<g id="a_node7"><a xlink:href="namespacea60.html#a11d9ffc210e8dca8410e7a5ad62deabc" target="_top" xlink:title=" ">
<polygon fill="white" stroke="#666666" points="757.5,-351 644.5,-351 644.5,-325 757.5,-325 757.5,-351"/>
<text text-anchor="start" x="652.5" y="-340.6" font-family="SourceSans" font-size="8.00">a60::to_replace_spaces</text>
<text text-anchor="middle" x="701" y="-331.6" font-family="SourceSans" font-size="8.00">_string</text>
</a>
</g>
</g>
<!-- Node4&#45;&gt;Node7 -->
<g id="edge6" class="edge">
<title>Node4&#45;&gt;Node7</title>
<path fill="none" stroke="#63b8ff" d="M559.07,-246.09C587.34,-264.53 639.07,-298.26 671.37,-319.33"/>
<polygon fill="#63b8ff" stroke="#63b8ff" points="669.65,-322.38 679.94,-324.91 673.47,-316.52 669.65,-322.38"/>
</g>
<!-- Node8 -->
<g id="node8" class="node">
<title>Node8</title>
<g id="a_node8"><a xlink:href="namespacea60.html#a751f954fe64233f1dc6517220e4b5692" target="_top" xlink:title=" ">
<polygon fill="white" stroke="#666666" points="909,-346.5 802,-346.5 802,-329.5 909,-329.5 909,-346.5"/>
<text text-anchor="middle" x="855.5" y="-336.1" font-family="SourceSans" font-size="8.00">a60::to_replace_string</text>
</a>
</g>
</g>
<!-- Node7&#45;&gt;Node8 -->
<g id="edge7" class="edge">
<title>Node7&#45;&gt;Node8</title>
<path fill="none" stroke="#63b8ff" d="M757.92,-338C768.92,-338 780.53,-338 791.73,-338"/>
<polygon fill="#63b8ff" stroke="#63b8ff" points="791.88,-341.5 801.88,-338 791.88,-334.5 791.88,-341.5"/>
</g>
<!-- Node9&#45;&gt;Node4 -->
<g id="edge9" class="edge">
<title>Node9&#45;&gt;Node4</title>
<path fill="none" stroke="#63b8ff" d="M401.2,-298.4C413.7,-294.69 427.78,-289.85 440,-284 457.34,-275.69 459.15,-269.26 476,-260 482.14,-256.63 488.78,-253.34 495.34,-250.29"/>
<polygon fill="#63b8ff" stroke="#63b8ff" points="497.17,-253.31 504.84,-246 494.29,-246.93 497.17,-253.31"/>
</g>
<!-- Node9&#45;&gt;Node6 -->
<g id="edge10" class="edge">
<title>Node9&#45;&gt;Node6</title>
<path fill="none" stroke="#63b8ff" d="M437.05,-298.47C450,-296.95 463.4,-295.4 476,-294 528.09,-288.22 587.05,-282.19 631.4,-277.75"/>
<polygon fill="#63b8ff" stroke="#63b8ff" points="631.89,-281.22 641.49,-276.74 631.19,-274.25 631.89,-281.22"/>
</g>
<!-- Node9&#45;&gt;Node7 -->
<g id="edge11" class="edge">
<title>Node9&#45;&gt;Node7</title>
<path fill="none" stroke="#63b8ff" d="M384.59,-315.65C405.7,-325.52 442.46,-341.04 476,-347 528.62,-356.35 589.23,-353.08 634.12,-348.04"/>
<polygon fill="#63b8ff" stroke="#63b8ff" points="634.8,-351.48 644.32,-346.83 633.98,-344.53 634.8,-351.48"/>
</g>
<!-- Node10 -->
<g id="node10" class="node">
<title>Node10</title>
<g id="a_node10"><a xlink:href="namespacea60.html#a4e8b0cabed112734147b499bf0cc9029" target="_top" xlink:title="Conversion of resolution_mode to string.">
<polygon fill="white" stroke="#666666" points="575,-319.5 501,-319.5 501,-302.5 575,-302.5 575,-319.5"/>
<text text-anchor="middle" x="538" y="-309.1" font-family="SourceSans" font-size="8.00">a60::to_string</text>
</a>
</g>
</g>
<!-- Node9&#45;&gt;Node10 -->
<g id="edge12" class="edge">
<title>Node9&#45;&gt;Node10</title>
<path fill="none" stroke="#63b8ff" d="M440.08,-308.72C457.19,-309.12 474.96,-309.54 490.54,-309.91"/>
<polygon fill="#63b8ff" stroke="#63b8ff" points="490.85,-313.42 500.93,-310.15 491.02,-306.42 490.85,-313.42"/>
</g>
<!-- Node10&#45;&gt;Node10 -->
<g id="edge13" class="edge">
<title>Node10&#45;&gt;Node10</title>
<path fill="none" stroke="#63b8ff" d="M513.86,-319.69C500.53,-328.17 508.57,-337.5 538,-337.5 558.23,-337.5 568.36,-333.09 568.37,-327.58"/>
<polygon fill="#63b8ff" stroke="#63b8ff" points="571.08,-325.36 562.14,-319.69 565.59,-329.7 571.08,-325.36"/>
</g>
<!-- Node12 -->
<g id="node12" class="node">
<title>Node12</title>
<g id="a_node12"><a xlink:href="namespacea60.html#a63203aef78ad674129103340323d3b63" target="_top" xlink:title="First layer.">
<polygon fill="white" stroke="#666666" points="599,-411.5 477,-411.5 477,-394.5 599,-394.5 599,-411.5"/>
<text text-anchor="middle" x="538" y="-401.1" font-family="SourceSans" font-size="8.00">a60::place_map_in_frame</text>
</a>
</g>
</g>
<!-- Node11&#45;&gt;Node12 -->
<g id="edge15" class="edge">
<title>Node11&#45;&gt;Node12</title>
<path fill="none" stroke="#63b8ff" d="M397.39,-363.58C425.19,-371.43 466.51,-383.1 496.99,-391.7"/>
<polygon fill="#63b8ff" stroke="#63b8ff" points="496.3,-395.14 506.87,-394.49 498.2,-388.41 496.3,-395.14"/>
</g>
<!-- Node13&#45;&gt;Node12 -->
<g id="edge17" class="edge">
<title>Node13&#45;&gt;Node12</title>
<path fill="none" stroke="#63b8ff" d="M436.15,-398.85C446.28,-399.26 456.73,-399.69 466.88,-400.11"/>
<polygon fill="#63b8ff" stroke="#63b8ff" points="466.78,-403.61 476.91,-400.53 467.07,-396.62 466.78,-403.61"/>
</g>
<!-- Node16 -->
<g id="node16" class="node">
<title>Node16</title>
<g id="a_node16"><a xlink:href="structa60_1_1collection.html#a772cab0c0123491c08a92fce4cf0eacb" target="_top" xlink:title=" ">
<polygon fill="white" stroke="#666666" points="600,-28 476,-28 476,-2 600,-2 600,-28"/>
<text text-anchor="start" x="484" y="-17.6" font-family="SourceSans" font-size="8.00">a60::collection::collection</text>
<text text-anchor="middle" x="538" y="-8.6" font-family="SourceSans" font-size="8.00">_archive_directory</text>
</a>
</g>
</g>
<!-- Node15&#45;&gt;Node16 -->
<g id="edge21" class="edge">
<title>Node15&#45;&gt;Node16</title>
<path fill="none" stroke="#63b8ff" d="M245.33,-81.69C260.32,-78.25 276.83,-74.47 292,-71 352.28,-57.2 420.91,-41.52 470.17,-30.26"/>
<polygon fill="#63b8ff" stroke="#63b8ff" points="471.1,-33.64 480.07,-28 469.54,-26.82 471.1,-33.64"/>
</g>
<!-- Node19 -->
<g id="node19" class="node">
<title>Node19</title>
<g id="a_node19"><a xlink:href="structa60_1_1collection.html#abc4d01b1b17d4622939cb6c5c0f9b38b" target="_top" xlink:title=" ">
<polygon fill="white" stroke="#666666" points="424,-106 308,-106 308,-80 424,-80 424,-106"/>
<text text-anchor="start" x="316" y="-95.6" font-family="SourceSans" font-size="8.00">a60::collection::prune</text>
<text text-anchor="middle" x="366" y="-86.6" font-family="SourceSans" font-size="8.00">_archive_sub_directories</text>
</a>
</g>
</g>
<!-- Node15&#45;&gt;Node19 -->
<g id="edge24" class="edge">
<title>Node15&#45;&gt;Node19</title>
<path fill="none" stroke="#63b8ff" d="M245.34,-93C261.71,-93 280.22,-93 297.71,-93"/>
<polygon fill="#63b8ff" stroke="#63b8ff" points="297.86,-96.5 307.86,-93 297.86,-89.5 297.86,-96.5"/>
</g>
<!-- Node17 -->
<g id="node17" class="node">
<title>Node17</title>
<g id="a_node17"><a xlink:href="namespacea60_1_1io.html#a16f17ea9e02c1975ca17b77e46cf7629" target="_top" xlink:title="Make sure a path ends in &#39;/&#39;;.">
<polygon fill="white" stroke="#666666" points="746,-142.5 656,-142.5 656,-125.5 746,-125.5 746,-142.5"/>
<text text-anchor="middle" x="701" y="-132.1" font-family="SourceSans" font-size="8.00">a60::io::end_path</text>
</a>
</g>
</g>
<!-- Node16&#45;&gt;Node17 -->
<g id="edge22" class="edge">
<title>Node16&#45;&gt;Node17</title>
<path fill="none" stroke="#63b8ff" d="M556.84,-28.19C587.23,-50.65 648.78,-96.14 680.35,-119.47"/>
<polygon fill="#63b8ff" stroke="#63b8ff" points="678.28,-122.3 688.41,-125.43 682.45,-116.67 678.28,-122.3"/>
</g>
<!-- Node18 -->
<g id="node18" class="node">
<title>Node18</title>
<g id="a_node18"><a xlink:href="namespacea60_1_1io.html#ac95e5271a27a23bc2336d84b3f821fa2" target="_top" xlink:title="Constant filesystem and run&#45;time resources.">
<polygon fill="white" stroke="#666666" points="753,-49 649,-49 649,-23 753,-23 753,-49"/>
<text text-anchor="start" x="657" y="-38.6" font-family="SourceSans" font-size="8.00">a60::io::get_run_time</text>
<text text-anchor="middle" x="701" y="-29.6" font-family="SourceSans" font-size="8.00">_resources</text>
</a>
</g>
</g>
<!-- Node16&#45;&gt;Node18 -->
<g id="edge23" class="edge">
<title>Node16&#45;&gt;Node18</title>
<path fill="none" stroke="#63b8ff" d="M600.33,-23C612.95,-24.65 626.24,-26.38 638.85,-28.02"/>
<polygon fill="#63b8ff" stroke="#63b8ff" points="638.43,-31.5 648.8,-29.32 639.34,-24.56 638.43,-31.5"/>
</g>
<!-- Node19&#45;&gt;Node16 -->
<g id="edge25" class="edge">
<title>Node19&#45;&gt;Node16</title>
<path fill="none" stroke="#63b8ff" d="M394.7,-79.84C416.69,-69.45 448.24,-54.64 476,-42 482.96,-38.83 490.38,-35.5 497.57,-32.31"/>
<polygon fill="#63b8ff" stroke="#63b8ff" points="499.43,-35.31 507.16,-28.06 496.6,-28.91 499.43,-35.31"/>
</g>
<!-- Node19&#45;&gt;Node17 -->
<g id="edge26" class="edge">
<title>Node19&#45;&gt;Node17</title>
<path fill="none" stroke="#63b8ff" d="M379.19,-106.17C397.85,-125.26 435.62,-159.77 476,-173 528.37,-190.16 545.84,-183.19 600,-173 626.32,-168.05 654.6,-156.37 674.35,-147.07"/>
<polygon fill="#63b8ff" stroke="#63b8ff" points="676.1,-150.11 683.58,-142.61 673.05,-143.81 676.1,-150.11"/>
</g>
<!-- Node19&#45;&gt;Node18 -->
<g id="edge27" class="edge">
<title>Node19&#45;&gt;Node18</title>
<path fill="none" stroke="#63b8ff" d="M424.24,-83.2C484.14,-72.95 577.79,-56.92 639.04,-46.43"/>
<polygon fill="#63b8ff" stroke="#63b8ff" points="639.69,-49.87 648.95,-44.74 638.51,-42.98 639.69,-49.87"/>
</g>
<!-- Node20 -->
<g id="node20" class="node">
<title>Node20</title>
<g id="a_node20"><a xlink:href="namespacea60_1_1constants.html#ac27c77e4606552ae5f74a1c21dd9258e" target="_top" xlink:title=" ">
<polygon fill="white" stroke="#666666" points="596.5,-101.5 479.5,-101.5 479.5,-84.5 596.5,-84.5 596.5,-101.5"/>
<text text-anchor="middle" x="538" y="-91.1" font-family="SourceSans" font-size="8.00">a60::constants::newline</text>
</a>
</g>
</g>
<!-- Node19&#45;&gt;Node20 -->
<g id="edge28" class="edge">
<title>Node19&#45;&gt;Node20</title>
<path fill="none" stroke="#63b8ff" d="M424.08,-93C438.58,-93 454.3,-93 469.27,-93"/>
<polygon fill="#63b8ff" stroke="#63b8ff" points="469.49,-96.5 479.49,-93 469.49,-89.5 469.49,-96.5"/>
</g>
<!-- Node21 -->
<g id="node21" class="node">
<title>Node21</title>
<g id="a_node21"><a xlink:href="namespacea60_1_1io.html#afbc9bd4e46187119419128390e16a033" target="_top" xlink:title="Takes a string representing a directory, returns a list of contents as a std::vector&lt;string&gt;.">
<polygon fill="white" stroke="#666666" points="591.5,-146 484.5,-146 484.5,-120 591.5,-120 591.5,-146"/>
<text text-anchor="start" x="492.5" y="-135.6" font-family="SourceSans" font-size="8.00">a60::io::populate_sub</text>
<text text-anchor="middle" x="538" y="-126.6" font-family="SourceSans" font-size="8.00">_directories</text>
</a>
</g>
</g>
<!-- Node19&#45;&gt;Node21 -->
<g id="edge29" class="edge">
<title>Node19&#45;&gt;Node21</title>
<path fill="none" stroke="#63b8ff" d="M422.66,-106.1C439.26,-110 457.55,-114.31 474.55,-118.31"/>
<polygon fill="#63b8ff" stroke="#63b8ff" points="473.85,-121.74 484.39,-120.62 475.45,-114.92 473.85,-121.74"/>
</g>
<!-- Node21&#45;&gt;Node21 -->
<g id="edge30" class="edge">
<title>Node21&#45;&gt;Node21</title>
<path fill="none" stroke="#63b8ff" d="M510.59,-146.06C502.29,-155.1 511.42,-164 538,-164 554.2,-164 563.92,-160.69 567.16,-156.07"/>
<polygon fill="#63b8ff" stroke="#63b8ff" points="570.58,-155.31 565.41,-146.06 563.68,-156.51 570.58,-155.31"/>
</g>
</g>
</svg>
        <g id="navigator" transform="translate(0 0)" fill="#404254">
                <rect fill="#f2f5e9" fill-opacity="0.5" stroke="#606060" stroke-width=".5" x="0" y="0" width="60" height="60"/>
                <use id="zoomplus" xlink:href="#zoomPlus" x="17" y="9" onmousedown="handleZoom(evt,'in')"/>
                <use id="zoomminus" xlink:href="#zoomMin" x="42" y="9" onmousedown="handleZoom(evt,'out')"/>
                <use id="reset" xlink:href="#resetDef" x="30" y="36" onmousedown="handleReset()"/>
                <g id="arrowUp" xlink:href="#dirArrow" transform="translate(30 24)" onmousedown="handlePan(0,-1)">
                  <use xlink:href="#rim" fill="#404040">
                        <set attributeName="fill" to="#808080" begin="arrowUp.mouseover" end="arrowUp.mouseout"/>
                  </use>
                  <path fill="none" stroke="white" stroke-width="1.5" d="M0,-3.0v7 M-2.5,-0.5L0,-3.0L2.5,-0.5"/>
                </g>
                <g id="arrowRight" xlink:href="#dirArrow" transform="rotate(90) translate(36 -43)" onmousedown="handlePan(1,0)">
                  <use xlink:href="#rim" fill="#404040">
                        <set attributeName="fill" to="#808080" begin="arrowRight.mouseover" end="arrowRight.mouseout"/>
                  </use>
                  <path fill="none" stroke="white" stroke-width="1.5" d="M0,-3.0v7 M-2.5,-0.5L0,-3.0L2.5,-0.5"/>
                </g>
                <g id="arrowDown" xlink:href="#dirArrow" transform="rotate(180) translate(-30 -48)" onmousedown="handlePan(0,1)">
                  <use xlink:href="#rim" fill="#404040">
                        <set attributeName="fill" to="#808080" begin="arrowDown.mouseover" end="arrowDown.mouseout"/>
                  </use>
                  <path fill="none" stroke="white" stroke-width="1.5" d="M0,-3.0v7 M-2.5,-0.5L0,-3.0L2.5,-0.5"/>
                </g>
                <g id="arrowLeft" xlink:href="#dirArrow" transform="rotate(270) translate(-36 17)" onmousedown="handlePan(-1,0)">
                  <use xlink:href="#rim" fill="#404040">
                        <set attributeName="fill" to="#808080" begin="arrowLeft.mouseover" end="arrowLeft.mouseout"/>
                  </use>
                  <path fill="none" stroke="white" stroke-width="1.5" d="M0,-3.0v7 M-2.5,-0.5L0,-3.0L2.5,-0.5"/>
                </g>
        </g>
        <svg viewBox="0 0 15 15" width="100%" height="30px" preserveAspectRatio="xMaxYMin meet">
         <g id="arrow_out" transform="scale(0.3 0.3)">
          <a xlink:href="namespacea60_aa1aac7fccd86cddbc4022c0af12c542a_cgraph_org.svg" target="_base">
           <rect id="button" ry="5" rx="5" y="6" x="6" height="38" width="38"
                fill="#f2f5e9" fill-opacity="0.5" stroke="#606060" stroke-width="1.0"/>
           <path id="arrow"
             d="M 11.500037,31.436501 C 11.940474,20.09759 22.043105,11.32322 32.158766,21.979434 L 37.068811,17.246167 C 37.068811,17.246167 37.088388,32 37.088388,32 L 22.160133,31.978069 C 22.160133,31.978069 26.997745,27.140456 26.997745,27.140456 C 18.528582,18.264221 13.291696,25.230495 11.500037,31.436501 z"
             style="fill:#404040;"/>
          </a>
         </g>
        </svg>
</svg>
