<?xml version="1.0" encoding="UTF-8" standalone="no"?>
<!DOCTYPE svg PUBLIC "-//W3C//DTD SVG 1.1//EN"
 "http://www.w3.org/Graphics/SVG/1.1/DTD/svg11.dtd">
<!-- Generated by graphviz version 5.0.0 (0)
 -->
<!-- Title: a60::metadata::get_vul_from_metadata Pages: 1 -->
<svg width="416pt" height="132pt"
 viewBox="0.00 0.00 416.00 131.50" xmlns="http://www.w3.org/2000/svg" xmlns:xlink="http://www.w3.org/1999/xlink">
<g id="graph0" class="graph" transform="scale(1 1) rotate(0) translate(4 127.5)">
<title>a60::metadata::get_vul_from_metadata</title>
<!-- Node1 -->
<g id="node1" class="node">
<title>Node1</title>
<g id="a_node1"><a xlink:title=" ">
<polygon fill="#999999" stroke="#666666" points="98,-48 0,-48 0,-22 98,-22 98,-48"/>
<text text-anchor="start" x="8" y="-37.6" font-family="SourceSans" font-size="8.00">a60::metadata::get</text>
<text text-anchor="middle" x="49" y="-28.6" font-family="SourceSans" font-size="8.00">_vul_from_metadata</text>
</a>
</g>
</g>
<!-- Node2 -->
<g id="node2" class="node">
<title>Node2</title>
<g id="a_node2"><a xlink:href="namespacea60_1_1metadata.html#a251c367137aefe7cb575c85a8256c5a5" target="_top" xlink:title="Returns the number of cast&#45;lead&#45;n&#45;[agg] fields with non&#45;blank entries.">
<polygon fill="white" stroke="#666666" points="261,-70 134,-70 134,-44 261,-44 261,-70"/>
<text text-anchor="start" x="142" y="-59.6" font-family="SourceSans" font-size="8.00">a60::metadata::count</text>
<text text-anchor="middle" x="197.5" y="-50.6" font-family="SourceSans" font-size="8.00">_values_in_fields_matching</text>
</a>
</g>
</g>
<!-- Node1&#45;&gt;Node2 -->
<g id="edge1" class="edge">
<title>Node1&#45;&gt;Node2</title>
<path fill="none" stroke="#63b8ff" d="M98.38,-42.26C106.52,-43.49 115.14,-44.78 123.74,-46.07"/>
<polygon fill="#63b8ff" stroke="#63b8ff" points="123.4,-49.56 133.81,-47.59 124.44,-42.64 123.4,-49.56"/>
</g>
<!-- Node5 -->
<g id="node5" class="node">
<title>Node5</title>
<g id="a_node5"><a xlink:href="namespacea60.html#af45982273a7a2e61b6aaa436081238c0" target="_top" xlink:title="Load JSON file to in&#45;memory DOM.">
<polygon fill="white" stroke="#666666" points="249.5,-26 145.5,-26 145.5,0 249.5,0 249.5,-26"/>
<text text-anchor="start" x="153.5" y="-15.6" font-family="SourceSans" font-size="8.00">a60::deserialize_json</text>
<text text-anchor="middle" x="197.5" y="-6.6" font-family="SourceSans" font-size="8.00">_to_dom_object</text>
</a>
</g>
</g>
<!-- Node1&#45;&gt;Node5 -->
<g id="edge5" class="edge">
<title>Node1&#45;&gt;Node5</title>
<path fill="none" stroke="#63b8ff" d="M98.38,-27.74C110.16,-25.97 122.92,-24.05 135.22,-22.2"/>
<polygon fill="#63b8ff" stroke="#63b8ff" points="136.04,-25.62 145.41,-20.67 135,-18.7 136.04,-25.62"/>
</g>
<!-- Node3 -->
<g id="node3" class="node">
<title>Node3</title>
<g id="a_node3"><a xlink:href="namespacea60.html#a4e8b0cabed112734147b499bf0cc9029" target="_top" xlink:title="Conversion of resolution_mode to string.">
<polygon fill="white" stroke="#666666" points="389.5,-105.5 315.5,-105.5 315.5,-88.5 389.5,-88.5 389.5,-105.5"/>
<text text-anchor="middle" x="352.5" y="-95.1" font-family="SourceSans" font-size="8.00">a60::to_string</text>
</a>
</g>
</g>
<!-- Node2&#45;&gt;Node3 -->
<g id="edge2" class="edge">
<title>Node2&#45;&gt;Node3</title>
<path fill="none" stroke="#63b8ff" d="M248.6,-70.1C268.1,-75.2 290.21,-80.98 308.93,-85.87"/>
<polygon fill="#63b8ff" stroke="#63b8ff" points="308.09,-89.27 318.65,-88.41 309.86,-82.5 308.09,-89.27"/>
</g>
<!-- Node4 -->
<g id="node4" class="node">
<title>Node4</title>
<g id="a_node4"><a xlink:href="namespacea60_1_1metadata.html#a80da6438996a07a5fa1df5728c004b2a" target="_top" xlink:title="Find name &#39;field&#39; in JSON file and return vector of values.">
<polygon fill="white" stroke="#666666" points="408,-70 297,-70 297,-44 408,-44 408,-70"/>
<text text-anchor="start" x="305" y="-59.6" font-family="SourceSans" font-size="8.00">a60::metadata::values</text>
<text text-anchor="middle" x="352.5" y="-50.6" font-family="SourceSans" font-size="8.00">_from_field</text>
</a>
</g>
</g>
<!-- Node2&#45;&gt;Node4 -->
<g id="edge4" class="edge">
<title>Node2&#45;&gt;Node4</title>
<path fill="none" stroke="#63b8ff" d="M261.17,-57C269.5,-57 278.06,-57 286.43,-57"/>
<polygon fill="#63b8ff" stroke="#63b8ff" points="286.52,-60.5 296.52,-57 286.52,-53.5 286.52,-60.5"/>
</g>
<!-- Node3&#45;&gt;Node3 -->
<g id="edge3" class="edge">
<title>Node3&#45;&gt;Node3</title>
<path fill="none" stroke="#63b8ff" d="M329.55,-105.69C316.88,-114.17 324.53,-123.5 352.5,-123.5 371.29,-123.5 380.91,-119.29 381.36,-113.95"/>
<polygon fill="#63b8ff" stroke="#63b8ff" points="384.11,-111.78 375.45,-105.69 378.42,-115.86 384.11,-111.78"/>
</g>
<!-- Node6 -->
<g id="node6" class="node">
<title>Node6</title>
<g id="a_node6"><a xlink:href="namespacea60.html#a538d43bb9bfa488a54cea929736dbe2d" target="_top" xlink:title="Deserialize input file.">
<polygon fill="white" stroke="#666666" points="404.5,-26 300.5,-26 300.5,0 404.5,0 404.5,-26"/>
<text text-anchor="start" x="308.5" y="-15.6" font-family="SourceSans" font-size="8.00">a60::deserialize_json</text>
<text text-anchor="middle" x="352.5" y="-6.6" font-family="SourceSans" font-size="8.00">_to_dom</text>
</a>
</g>
</g>
<!-- Node5&#45;&gt;Node6 -->
<g id="edge6" class="edge">
<title>Node5&#45;&gt;Node6</title>
<path fill="none" stroke="#63b8ff" d="M249.87,-13C262.81,-13 276.82,-13 290.19,-13"/>
<polygon fill="#63b8ff" stroke="#63b8ff" points="290.26,-16.5 300.26,-13 290.26,-9.5 290.26,-16.5"/>
</g>
</g>
</svg>
