<?xml version="1.0" encoding="UTF-8" standalone="no"?>
<!DOCTYPE svg PUBLIC "-//W3C//DTD SVG 1.1//EN"
 "http://www.w3.org/Graphics/SVG/1.1/DTD/svg11.dtd">
<!-- Generated by graphviz version 5.0.0 (0)
 -->
<!-- Title: a60::metadata::age_value_to_color_tint_shade Pages: 1 -->
<svg width="423pt" height="34pt"
 viewBox="0.00 0.00 423.00 34.00" xmlns="http://www.w3.org/2000/svg" xmlns:xlink="http://www.w3.org/1999/xlink">
<g id="graph0" class="graph" transform="scale(1 1) rotate(0) translate(4 30)">
<title>a60::metadata::age_value_to_color_tint_shade</title>
<!-- Node1 -->
<g id="node1" class="node">
<title>Node1</title>
<g id="a_node1"><a xlink:title="Darker and lighter versions of red.">
<polygon fill="#999999" stroke="#666666" points="125,-26 0,-26 0,0 125,0 125,-26"/>
<text text-anchor="start" x="8" y="-15.6" font-family="SourceSans" font-size="8.00">a60::metadata::age</text>
<text text-anchor="middle" x="62.5" y="-6.6" font-family="SourceSans" font-size="8.00">_value_to_color_tint_shade</text>
</a>
</g>
</g>
<!-- Node2 -->
<g id="node2" class="node">
<title>Node2</title>
<g id="a_node2"><a xlink:href="namespacea60_1_1constants.html#a613cac7d85819a545849f5eefd733896" target="_top" xlink:title=" ">
<polygon fill="white" stroke="#666666" points="262,-26 161,-26 161,0 262,0 262,-26"/>
<text text-anchor="start" x="169" y="-15.6" font-family="SourceSans" font-size="8.00">a60::constants::age</text>
<text text-anchor="middle" x="211.5" y="-6.6" font-family="SourceSans" font-size="8.00">_value_to_multiple</text>
</a>
</g>
</g>
<!-- Node1&#45;&gt;Node2 -->
<g id="edge1" class="edge">
<title>Node1&#45;&gt;Node2</title>
<path fill="none" stroke="#63b8ff" d="M125.42,-13C133.78,-13 142.36,-13 150.69,-13"/>
<polygon fill="#63b8ff" stroke="#63b8ff" points="150.7,-16.5 160.7,-13 150.7,-9.5 150.7,-16.5"/>
</g>
<!-- Node3 -->
<g id="node3" class="node">
<title>Node3</title>
<g id="a_node3"><a xlink:href="namespacea60_1_1constants.html#ac27c77e4606552ae5f74a1c21dd9258e" target="_top" xlink:title=" ">
<polygon fill="white" stroke="#666666" points="415,-21.5 298,-21.5 298,-4.5 415,-4.5 415,-21.5"/>
<text text-anchor="middle" x="356.5" y="-11.1" font-family="SourceSans" font-size="8.00">a60::constants::newline</text>
</a>
</g>
</g>
<!-- Node2&#45;&gt;Node3 -->
<g id="edge2" class="edge">
<title>Node2&#45;&gt;Node3</title>
<path fill="none" stroke="#63b8ff" d="M262.11,-13C270.35,-13 279.01,-13 287.6,-13"/>
<polygon fill="#63b8ff" stroke="#63b8ff" points="287.62,-16.5 297.62,-13 287.62,-9.5 287.62,-16.5"/>
</g>
</g>
</svg>
