<?xml version="1.0" encoding="UTF-8" standalone="no"?>
<!DOCTYPE svg PUBLIC "-//W3C//DTD SVG 1.1//EN"
 "http://www.w3.org/Graphics/SVG/1.1/DTD/svg11.dtd">
<!-- Generated by graphviz version 5.0.0 (0)
 -->
<!-- Title: a60::metadata::rank_metadata_by_dimension_and_match Pages: 1 -->
<svg width="446pt" height="501pt"
 viewBox="0.00 0.00 446.00 500.50" xmlns="http://www.w3.org/2000/svg" xmlns:xlink="http://www.w3.org/1999/xlink">
<g id="graph0" class="graph" transform="scale(1 1) rotate(0) translate(4 496.5)">
<title>a60::metadata::rank_metadata_by_dimension_and_match</title>
<!-- Node1 -->
<g id="node1" class="node">
<title>Node1</title>
<g id="a_node1"><a xlink:title="rdim == &quot;ethnicities&quot; etc rmatch == match specific tag like &quot;black&quot;">
<polygon fill="#999999" stroke="#666666" points="120,-140.5 0,-140.5 0,-105.5 120,-105.5 120,-140.5"/>
<text text-anchor="start" x="8" y="-130.1" font-family="SourceSans" font-size="8.00">a60::metadata::rank</text>
<text text-anchor="start" x="8" y="-121.1" font-family="SourceSans" font-size="8.00">_metadata_by_dimension</text>
<text text-anchor="middle" x="60" y="-112.1" font-family="SourceSans" font-size="8.00">_and_match</text>
</a>
</g>
</g>
<!-- Node2 -->
<g id="node2" class="node">
<title>Node2</title>
<g id="a_node2"><a xlink:href="namespacea60_1_1metadata.html#adefdcf326e3314b557066902a1e2dcf9" target="_top" xlink:title=" ">
<polygon fill="white" stroke="#666666" points="281.5,-304 157.5,-304 157.5,-278 281.5,-278 281.5,-304"/>
<text text-anchor="start" x="165.5" y="-293.6" font-family="SourceSans" font-size="8.00">a60::metadata::canonical</text>
<text text-anchor="middle" x="219.5" y="-284.6" font-family="SourceSans" font-size="8.00">_media_name</text>
</a>
</g>
</g>
<!-- Node1&#45;&gt;Node2 -->
<g id="edge1" class="edge">
<title>Node1&#45;&gt;Node2</title>
<path fill="none" stroke="#63b8ff" d="M77.56,-140.66C106.95,-172.01 168.08,-237.22 199.28,-270.5"/>
<polygon fill="#63b8ff" stroke="#63b8ff" points="196.78,-272.95 206.18,-277.85 201.89,-268.16 196.78,-272.95"/>
</g>
<!-- Node10 -->
<g id="node10" class="node">
<title>Node10</title>
<g id="a_node10"><a xlink:href="namespacea60_1_1metadata.html#a251c367137aefe7cb575c85a8256c5a5" target="_top" xlink:title="Returns the number of cast&#45;lead&#45;n&#45;[agg] fields with non&#45;blank entries.">
<polygon fill="white" stroke="#666666" points="283,-158 156,-158 156,-132 283,-132 283,-158"/>
<text text-anchor="start" x="164" y="-147.6" font-family="SourceSans" font-size="8.00">a60::metadata::count</text>
<text text-anchor="middle" x="219.5" y="-138.6" font-family="SourceSans" font-size="8.00">_values_in_fields_matching</text>
</a>
</g>
</g>
<!-- Node1&#45;&gt;Node10 -->
<g id="edge9" class="edge">
<title>Node1&#45;&gt;Node10</title>
<path fill="none" stroke="#63b8ff" d="M120.1,-131.25C128.5,-132.43 137.23,-133.65 145.86,-134.85"/>
<polygon fill="#63b8ff" stroke="#63b8ff" points="145.53,-138.34 155.91,-136.26 146.49,-131.41 145.53,-138.34"/>
</g>
<!-- Node13 -->
<g id="node13" class="node">
<title>Node13</title>
<g id="a_node13"><a xlink:href="namespacea60.html#af45982273a7a2e61b6aaa436081238c0" target="_top" xlink:title="Load JSON file to in&#45;memory DOM.">
<polygon fill="white" stroke="#666666" points="271.5,-70 167.5,-70 167.5,-44 271.5,-44 271.5,-70"/>
<text text-anchor="start" x="175.5" y="-59.6" font-family="SourceSans" font-size="8.00">a60::deserialize_json</text>
<text text-anchor="middle" x="219.5" y="-50.6" font-family="SourceSans" font-size="8.00">_to_dom_object</text>
</a>
</g>
</g>
<!-- Node1&#45;&gt;Node13 -->
<g id="edge13" class="edge">
<title>Node1&#45;&gt;Node13</title>
<path fill="none" stroke="#63b8ff" d="M96.73,-105.47C114.39,-97.06 136.13,-87.08 156,-79 160.49,-77.17 165.2,-75.35 169.93,-73.58"/>
<polygon fill="#63b8ff" stroke="#63b8ff" points="171.42,-76.77 179.61,-70.04 169.02,-70.19 171.42,-76.77"/>
</g>
<!-- Node15 -->
<g id="node15" class="node">
<title>Node15</title>
<g id="a_node15"><a xlink:href="namespacea60_1_1metadata.html#a90edc2a49e803d1acc1c9c44c8c7cb46" target="_top" xlink:title="From multiset of strings to ordered elements of id (aka count, identifier).">
<polygon fill="white" stroke="#666666" points="278,-26 161,-26 161,0 278,0 278,-26"/>
<text text-anchor="start" x="169" y="-15.6" font-family="SourceSans" font-size="8.00">a60::metadata::multiset</text>
<text text-anchor="middle" x="219.5" y="-6.6" font-family="SourceSans" font-size="8.00">_to_set_of_ids</text>
</a>
</g>
</g>
<!-- Node1&#45;&gt;Node15 -->
<g id="edge15" class="edge">
<title>Node1&#45;&gt;Node15</title>
<path fill="none" stroke="#63b8ff" d="M76.12,-105.17C93.59,-85.56 124.04,-54.28 156,-35 158.81,-33.31 161.76,-31.72 164.8,-30.23"/>
<polygon fill="#63b8ff" stroke="#63b8ff" points="166.39,-33.35 174.09,-26.07 163.54,-26.96 166.39,-33.35"/>
</g>
<!-- Node16 -->
<g id="node16" class="node">
<title>Node16</title>
<g id="a_node16"><a xlink:href="namespacea60_1_1metadata.html#a4ffb1ab0b6aa36e73fc117c333d402c7" target="_top" xlink:title="Output ranked list in text format.">
<polygon fill="white" stroke="#666666" points="279,-427 160,-427 160,-401 279,-401 279,-427"/>
<text text-anchor="start" x="168" y="-416.6" font-family="SourceSans" font-size="8.00">a60::metadata::serialize</text>
<text text-anchor="middle" x="219.5" y="-407.6" font-family="SourceSans" font-size="8.00">_ranked_media_object</text>
</a>
</g>
</g>
<!-- Node1&#45;&gt;Node16 -->
<g id="edge16" class="edge">
<title>Node1&#45;&gt;Node16</title>
<path fill="none" stroke="#63b8ff" d="M69.13,-140.56C84.94,-174.42 121.32,-250.84 156,-313 171.59,-340.95 191.26,-372.14 204.32,-392.36"/>
<polygon fill="#63b8ff" stroke="#63b8ff" points="201.44,-394.35 209.82,-400.83 207.31,-390.54 201.44,-394.35"/>
</g>
<!-- Node19 -->
<g id="node19" class="node">
<title>Node19</title>
<g id="a_node19"><a xlink:href="namespacea60_1_1metadata.html#ad5a0a0992f537497235f04e35bea124b" target="_top" xlink:title="Find the values from all matching fields containing agg.">
<polygon fill="white" stroke="#666666" points="275,-114 164,-114 164,-88 275,-88 275,-114"/>
<text text-anchor="start" x="172" y="-103.6" font-family="SourceSans" font-size="8.00">a60::metadata::values</text>
<text text-anchor="middle" x="219.5" y="-94.6" font-family="SourceSans" font-size="8.00">_from_fields_matching</text>
</a>
</g>
</g>
<!-- Node1&#45;&gt;Node19 -->
<g id="edge21" class="edge">
<title>Node1&#45;&gt;Node19</title>
<path fill="none" stroke="#63b8ff" d="M120.1,-114.75C131.06,-113.21 142.56,-111.61 153.68,-110.05"/>
<polygon fill="#63b8ff" stroke="#63b8ff" points="154.34,-113.5 163.76,-108.65 153.37,-106.56 154.34,-113.5"/>
</g>
<!-- Node3 -->
<g id="node3" class="node">
<title>Node3</title>
<g id="a_node3"><a xlink:href="namespacea60_1_1constants.html#a8a38c40674ec5fbf57af8127a67d1609" target="_top" xlink:title=" ">
<polygon fill="white" stroke="#666666" points="432,-317.5 325,-317.5 325,-300.5 432,-300.5 432,-317.5"/>
<text text-anchor="middle" x="378.5" y="-307.1" font-family="SourceSans" font-size="8.00">a60::constants::colon</text>
</a>
</g>
</g>
<!-- Node2&#45;&gt;Node3 -->
<g id="edge2" class="edge">
<title>Node2&#45;&gt;Node3</title>
<path fill="none" stroke="#63b8ff" d="M281.65,-298.01C292.59,-299.27 304.01,-300.57 314.99,-301.83"/>
<polygon fill="#63b8ff" stroke="#63b8ff" points="314.59,-305.31 324.92,-302.97 315.39,-298.36 314.59,-305.31"/>
</g>
<!-- Node4 -->
<g id="node4" class="node">
<title>Node4</title>
<g id="a_node4"><a xlink:href="namespacea60_1_1constants.html#a6338b74a1c5c6dc024b03069e07e34ac" target="_top" xlink:title=" ">
<polygon fill="white" stroke="#666666" points="436.5,-422.5 320.5,-422.5 320.5,-405.5 436.5,-405.5 436.5,-422.5"/>
<text text-anchor="middle" x="378.5" y="-412.1" font-family="SourceSans" font-size="8.00">a60::constants::hyphen</text>
</a>
</g>
</g>
<!-- Node2&#45;&gt;Node4 -->
<g id="edge3" class="edge">
<title>Node2&#45;&gt;Node4</title>
<path fill="none" stroke="#63b8ff" d="M229.15,-304.22C244.52,-326.67 278.8,-372.22 319,-397 321.79,-398.72 324.76,-400.27 327.83,-401.67"/>
<polygon fill="#63b8ff" stroke="#63b8ff" points="326.66,-404.98 337.25,-405.44 329.26,-398.48 326.66,-404.98"/>
</g>
<!-- Node5 -->
<g id="node5" class="node">
<title>Node5</title>
<g id="a_node5"><a xlink:href="namespacea60_1_1constants.html#a370b70e28b3935e8736cb9e79697ceda" target="_top" xlink:title=" ">
<polygon fill="white" stroke="#666666" points="434,-282.5 323,-282.5 323,-265.5 434,-265.5 434,-282.5"/>
<text text-anchor="middle" x="378.5" y="-272.1" font-family="SourceSans" font-size="8.00">a60::constants::period</text>
</a>
</g>
</g>
<!-- Node2&#45;&gt;Node5 -->
<g id="edge4" class="edge">
<title>Node2&#45;&gt;Node5</title>
<path fill="none" stroke="#63b8ff" d="M281.65,-284.38C291.85,-283.27 302.47,-282.12 312.76,-281.01"/>
<polygon fill="#63b8ff" stroke="#63b8ff" points="313.34,-284.47 322.91,-279.91 312.59,-277.51 313.34,-284.47"/>
</g>
<!-- Node6 -->
<g id="node6" class="node">
<title>Node6</title>
<g id="a_node6"><a xlink:href="namespacea60.html#a34d53970ee23a7c014960a2bf1a10e2b" target="_top" xlink:title="Search DOM for string literals.">
<polygon fill="white" stroke="#666666" points="430,-247 327,-247 327,-221 430,-221 430,-247"/>
<text text-anchor="start" x="335" y="-236.6" font-family="SourceSans" font-size="8.00">a60::search_dom_for</text>
<text text-anchor="middle" x="378.5" y="-227.6" font-family="SourceSans" font-size="8.00">_string_field</text>
</a>
</g>
</g>
<!-- Node2&#45;&gt;Node6 -->
<g id="edge5" class="edge">
<title>Node2&#45;&gt;Node6</title>
<path fill="none" stroke="#63b8ff" d="M256.52,-277.92C278.96,-269.78 308.02,-259.22 332.04,-250.5"/>
<polygon fill="#63b8ff" stroke="#63b8ff" points="333.44,-253.72 341.65,-247.02 331.05,-247.14 333.44,-253.72"/>
</g>
<!-- Node7 -->
<g id="node7" class="node">
<title>Node7</title>
<g id="a_node7"><a xlink:href="namespacea60.html#a0022cb8323c9a304730c5d70e4da4e4b" target="_top" xlink:title=" ">
<polygon fill="white" stroke="#666666" points="429,-202.5 328,-202.5 328,-185.5 429,-185.5 429,-202.5"/>
<text text-anchor="middle" x="378.5" y="-192.1" font-family="SourceSans" font-size="8.00">a60::to_erase_string</text>
</a>
</g>
</g>
<!-- Node2&#45;&gt;Node7 -->
<g id="edge6" class="edge">
<title>Node2&#45;&gt;Node7</title>
<path fill="none" stroke="#63b8ff" d="M233.36,-277.97C251.14,-260.63 284.91,-230.06 319,-212 323.24,-209.76 327.8,-207.74 332.44,-205.95"/>
<polygon fill="#63b8ff" stroke="#63b8ff" points="333.73,-209.21 341.99,-202.57 331.4,-202.61 333.73,-209.21"/>
</g>
<!-- Node8 -->
<g id="node8" class="node">
<title>Node8</title>
<g id="a_node8"><a xlink:href="namespacea60.html#ac7eddb2e330d8983ddc852edde5335c5" target="_top" xlink:title=" ">
<polygon fill="white" stroke="#666666" points="438,-352.5 319,-352.5 319,-335.5 438,-335.5 438,-352.5"/>
<text text-anchor="middle" x="378.5" y="-342.1" font-family="SourceSans" font-size="8.00">a60::to_lowercase_string</text>
</a>
</g>
</g>
<!-- Node2&#45;&gt;Node8 -->
<g id="edge7" class="edge">
<title>Node2&#45;&gt;Node8</title>
<path fill="none" stroke="#63b8ff" d="M254.49,-304.07C273.38,-311.17 297.37,-319.91 319,-327 324.73,-328.88 330.81,-330.76 336.8,-332.56"/>
<polygon fill="#63b8ff" stroke="#63b8ff" points="336.13,-336.01 346.72,-335.48 338.11,-329.29 336.13,-336.01"/>
</g>
<!-- Node9 -->
<g id="node9" class="node">
<title>Node9</title>
<g id="a_node9"><a xlink:href="namespacea60.html#a751f954fe64233f1dc6517220e4b5692" target="_top" xlink:title=" ">
<polygon fill="white" stroke="#666666" points="432,-387.5 325,-387.5 325,-370.5 432,-370.5 432,-387.5"/>
<text text-anchor="middle" x="378.5" y="-377.1" font-family="SourceSans" font-size="8.00">a60::to_replace_string</text>
</a>
</g>
</g>
<!-- Node2&#45;&gt;Node9 -->
<g id="edge8" class="edge">
<title>Node2&#45;&gt;Node9</title>
<path fill="none" stroke="#63b8ff" d="M235.15,-304.06C253.54,-319.83 286.6,-346.2 319,-362 322.85,-363.88 326.95,-365.59 331.11,-367.13"/>
<polygon fill="#63b8ff" stroke="#63b8ff" points="330.29,-370.55 340.89,-370.45 332.54,-363.92 330.29,-370.55"/>
</g>
<!-- Node11 -->
<g id="node11" class="node">
<title>Node11</title>
<g id="a_node11"><a xlink:href="namespacea60.html#a4e8b0cabed112734147b499bf0cc9029" target="_top" xlink:title="Conversion of resolution_mode to string.">
<polygon fill="white" stroke="#666666" points="415.5,-149.5 341.5,-149.5 341.5,-132.5 415.5,-132.5 415.5,-149.5"/>
<text text-anchor="middle" x="378.5" y="-139.1" font-family="SourceSans" font-size="8.00">a60::to_string</text>
</a>
</g>
</g>
<!-- Node10&#45;&gt;Node11 -->
<g id="edge10" class="edge">
<title>Node10&#45;&gt;Node11</title>
<path fill="none" stroke="#63b8ff" d="M283,-143.41C299.12,-143 316.18,-142.56 331.3,-142.18"/>
<polygon fill="#63b8ff" stroke="#63b8ff" points="331.52,-145.67 341.43,-141.92 331.34,-138.68 331.52,-145.67"/>
</g>
<!-- Node12 -->
<g id="node12" class="node">
<title>Node12</title>
<g id="a_node12"><a xlink:href="namespacea60_1_1metadata.html#a80da6438996a07a5fa1df5728c004b2a" target="_top" xlink:title="Find name &#39;field&#39; in JSON file and return vector of values.">
<polygon fill="white" stroke="#666666" points="434,-114 323,-114 323,-88 434,-88 434,-114"/>
<text text-anchor="start" x="331" y="-103.6" font-family="SourceSans" font-size="8.00">a60::metadata::values</text>
<text text-anchor="middle" x="378.5" y="-94.6" font-family="SourceSans" font-size="8.00">_from_field</text>
</a>
</g>
</g>
<!-- Node10&#45;&gt;Node12 -->
<g id="edge12" class="edge">
<title>Node10&#45;&gt;Node12</title>
<path fill="none" stroke="#63b8ff" d="M267.18,-131.92C284.19,-127.15 303.59,-121.71 321.34,-116.74"/>
<polygon fill="#63b8ff" stroke="#63b8ff" points="322.32,-120.1 331,-114.03 320.43,-113.36 322.32,-120.1"/>
</g>
<!-- Node11&#45;&gt;Node11 -->
<g id="edge11" class="edge">
<title>Node11&#45;&gt;Node11</title>
<path fill="none" stroke="#63b8ff" d="M354.96,-149.69C341.95,-158.17 349.8,-167.5 378.5,-167.5 397.78,-167.5 407.65,-163.29 408.11,-157.95"/>
<polygon fill="#63b8ff" stroke="#63b8ff" points="410.78,-155.68 402.04,-149.69 405.14,-159.82 410.78,-155.68"/>
</g>
<!-- Node14 -->
<g id="node14" class="node">
<title>Node14</title>
<g id="a_node14"><a xlink:href="namespacea60.html#a538d43bb9bfa488a54cea929736dbe2d" target="_top" xlink:title="Deserialize input file.">
<polygon fill="white" stroke="#666666" points="430.5,-70 326.5,-70 326.5,-44 430.5,-44 430.5,-70"/>
<text text-anchor="start" x="334.5" y="-59.6" font-family="SourceSans" font-size="8.00">a60::deserialize_json</text>
<text text-anchor="middle" x="378.5" y="-50.6" font-family="SourceSans" font-size="8.00">_to_dom</text>
</a>
</g>
</g>
<!-- Node13&#45;&gt;Node14 -->
<g id="edge14" class="edge">
<title>Node13&#45;&gt;Node14</title>
<path fill="none" stroke="#63b8ff" d="M271.91,-57C285.94,-57 301.29,-57 315.83,-57"/>
<polygon fill="#63b8ff" stroke="#63b8ff" points="316.25,-60.5 326.25,-57 316.25,-53.5 316.25,-60.5"/>
</g>
<!-- Node16&#45;&gt;Node4 -->
<g id="edge18" class="edge">
<title>Node16&#45;&gt;Node4</title>
<path fill="none" stroke="#63b8ff" d="M279.41,-414C289.46,-414 299.96,-414 310.21,-414"/>
<polygon fill="#63b8ff" stroke="#63b8ff" points="310.35,-417.5 320.35,-414 310.35,-410.5 310.35,-417.5"/>
</g>
<!-- Node16&#45;&gt;Node9 -->
<g id="edge20" class="edge">
<title>Node16&#45;&gt;Node9</title>
<path fill="none" stroke="#63b8ff" d="M278.96,-400.97C295.41,-397.3 313.12,-393.35 328.92,-389.83"/>
<polygon fill="#63b8ff" stroke="#63b8ff" points="330,-393.18 339,-387.58 328.48,-386.34 330,-393.18"/>
</g>
<!-- Node17 -->
<g id="node17" class="node">
<title>Node17</title>
<g id="a_node17"><a xlink:href="namespacea60_1_1constants.html#a2fd5efb0c88809132a730787d05a080a" target="_top" xlink:title=" ">
<polygon fill="white" stroke="#666666" points="436,-492.5 321,-492.5 321,-475.5 436,-475.5 436,-492.5"/>
<text text-anchor="middle" x="378.5" y="-482.1" font-family="SourceSans" font-size="8.00">a60::constants::comma</text>
</a>
</g>
</g>
<!-- Node16&#45;&gt;Node17 -->
<g id="edge17" class="edge">
<title>Node16&#45;&gt;Node17</title>
<path fill="none" stroke="#63b8ff" d="M241.77,-427.15C261.3,-438.8 291.32,-455.68 319,-467 323.77,-468.95 328.85,-470.78 333.94,-472.45"/>
<polygon fill="#63b8ff" stroke="#63b8ff" points="333.08,-475.85 343.67,-475.48 335.17,-469.17 333.08,-475.85"/>
</g>
<!-- Node18 -->
<g id="node18" class="node">
<title>Node18</title>
<g id="a_node18"><a xlink:href="namespacea60_1_1constants.html#a4eca9d522711df25806d6dd1ff38e904" target="_top" xlink:title=" ">
<polygon fill="white" stroke="#666666" points="433.5,-457.5 323.5,-457.5 323.5,-440.5 433.5,-440.5 433.5,-457.5"/>
<text text-anchor="middle" x="378.5" y="-447.1" font-family="SourceSans" font-size="8.00">a60::constants::space</text>
</a>
</g>
</g>
<!-- Node16&#45;&gt;Node18 -->
<g id="edge19" class="edge">
<title>Node16&#45;&gt;Node18</title>
<path fill="none" stroke="#63b8ff" d="M278.96,-427.03C295.41,-430.7 313.12,-434.65 328.92,-438.17"/>
<polygon fill="#63b8ff" stroke="#63b8ff" points="328.48,-441.66 339,-440.42 330,-434.82 328.48,-441.66"/>
</g>
<!-- Node19&#45;&gt;Node11 -->
<g id="edge22" class="edge">
<title>Node19&#45;&gt;Node11</title>
<path fill="none" stroke="#63b8ff" d="M271.91,-114.1C292.01,-119.22 314.82,-125.03 334.08,-129.94"/>
<polygon fill="#63b8ff" stroke="#63b8ff" points="333.24,-133.34 343.8,-132.41 334.97,-126.55 333.24,-133.34"/>
</g>
<!-- Node19&#45;&gt;Node12 -->
<g id="edge23" class="edge">
<title>Node19&#45;&gt;Node12</title>
<path fill="none" stroke="#63b8ff" d="M275.41,-101C287.43,-101 300.27,-101 312.63,-101"/>
<polygon fill="#63b8ff" stroke="#63b8ff" points="312.89,-104.5 322.89,-101 312.89,-97.5 312.89,-104.5"/>
</g>
</g>
</svg>
