<?xml version="1.0" encoding="UTF-8" standalone="no"?>
<!DOCTYPE svg PUBLIC "-//W3C//DTD SVG 1.1//EN"
 "http://www.w3.org/Graphics/SVG/1.1/DTD/svg11.dtd">
<!-- Generated by graphviz version 5.0.0 (0)
 -->
<!-- Title: a60::augment_collection_partitions Pages: 1 -->
<!--zoomable 663 -->
<svg id="main" version="1.1" xmlns="http://www.w3.org/2000/svg" xmlns:xlink="http://www.w3.org/1999/xlink" xml:space="preserve" onload="init(evt)">
<style type="text/css"><![CDATA[
.edge:hover path { stroke: red; }
.edge:hover polygon { stroke: red; fill: red; }
]]></style>
<script type="text/javascript"><![CDATA[
var edges = document.getElementsByTagName('g');
if (edges && edges.length) {
  for (var i=0;i<edges.length;i++) {
    if (edges[i].id.substr(0,4)=='edge') {
      edges[i].setAttribute('class','edge');
    }
  }
}
]]></script>
        <defs>
                <circle id="rim" cx="0" cy="0" r="7"/>
                <circle id="rim2" cx="0" cy="0" r="3.5"/>
                <g id="zoomPlus">
                        <use xlink:href="#rim" fill="#404040">
                                <set attributeName="fill" to="#808080" begin="zoomplus.mouseover" end="zoomplus.mouseout"/>
                        </use>
                        <path d="M-4,0h8M0,-4v8" fill="none" stroke="white" stroke-width="1.5" pointer-events="none"/>
                </g>
                <g id="zoomMin">
                        <use xlink:href="#rim" fill="#404040">
                                <set attributeName="fill" to="#808080" begin="zoomminus.mouseover" end="zoomminus.mouseout"/>
                        </use>
                        <path d="M-4,0h8" fill="none" stroke="white" stroke-width="1.5" pointer-events="none"/>
                </g>
                <g id="dirArrow">
                        <path fill="none" stroke="white" stroke-width="1.5" d="M0,-3.0v7 M-2.5,-0.5L0,-3.0L2.5,-0.5"/>
                </g>
               <g id="resetDef">
                       <use xlink:href="#rim2" fill="#404040">
                               <set attributeName="fill" to="#808080" begin="reset.mouseover" end="reset.mouseout"/>
                       </use>
               </g>
        </defs>

<script type="text/javascript">
var viewWidth = 1052;
var viewHeight = 663;
var sectionId = 'dynsection-28';
</script>
<script xlink:href="svgpan.js"/>
<svg id="graph" class="graph">
<g id="viewport">
<title>a60::augment_collection_partitions</title>
<!-- Node1 -->
<g id="node1" class="node">
<title>Node1</title>
<g id="a_node1"><a xlink:title=" ">
<polygon fill="#999999" stroke="#666666" points="119,-318 0,-318 0,-292 119,-292 119,-318"/>
<text text-anchor="start" x="8" y="-307.6" font-family="SourceSans" font-size="8.00">a60::augment_collection</text>
<text text-anchor="middle" x="59.5" y="-298.6" font-family="SourceSans" font-size="8.00">_partitions</text>
</a>
</g>
</g>
<!-- Node2 -->
<g id="node2" class="node">
<title>Node2</title>
<g id="a_node2"><a xlink:href="namespacea60.html#a9a697cdfc8952416ef8f9c1b56e0b365" target="_top" xlink:title="Make metadata listing for torrent collection, per partition.">
<polygon fill="white" stroke="#666666" points="274,-340 155,-340 155,-314 274,-314 274,-340"/>
<text text-anchor="start" x="163" y="-329.6" font-family="SourceSans" font-size="8.00">a60::augment_collection</text>
<text text-anchor="middle" x="214.5" y="-320.6" font-family="SourceSans" font-size="8.00">_by_partition</text>
</a>
</g>
</g>
<!-- Node1&#45;&gt;Node2 -->
<g id="edge1" class="edge">
<title>Node1&#45;&gt;Node2</title>
<path fill="none" stroke="#63b8ff" d="M119.22,-313.44C127.64,-314.65 136.36,-315.91 144.95,-317.14"/>
<polygon fill="#63b8ff" stroke="#63b8ff" points="144.54,-320.62 154.94,-318.58 145.54,-313.69 144.54,-320.62"/>
</g>
<!-- Node38 -->
<g id="node38" class="node">
<title>Node38</title>
<g id="a_node38"><a xlink:href="structa60_1_1collection.html#ac65dd0f92ebbcd78b277e48903a2f2b7" target="_top" xlink:title="Adjust internal member data (members) to operate on a subset of the total collection determined by @r...">
<polygon fill="white" stroke="#666666" points="274,-296 155,-296 155,-270 274,-270 274,-296"/>
<text text-anchor="start" x="163" y="-285.6" font-family="SourceSans" font-size="8.00">a60::collection::partition</text>
<text text-anchor="middle" x="214.5" y="-276.6" font-family="SourceSans" font-size="8.00">_by_mode</text>
</a>
</g>
</g>
<!-- Node1&#45;&gt;Node38 -->
<g id="edge53" class="edge">
<title>Node1&#45;&gt;Node38</title>
<path fill="none" stroke="#63b8ff" d="M119.22,-296.56C127.64,-295.35 136.36,-294.09 144.95,-292.86"/>
<polygon fill="#63b8ff" stroke="#63b8ff" points="145.54,-296.31 154.94,-291.42 144.54,-289.38 145.54,-296.31"/>
</g>
<!-- Node3 -->
<g id="node3" class="node">
<title>Node3</title>
<g id="a_node3"><a xlink:href="namespacea60.html#ab0d9a2011f191a12b47785473f9d9743" target="_top" xlink:title="Make metadata listing for torrent collection, per partition.">
<polygon fill="white" stroke="#666666" points="429,-420 310,-420 310,-394 429,-394 429,-420"/>
<text text-anchor="start" x="318" y="-409.6" font-family="SourceSans" font-size="8.00">a60::augment_collection</text>
<text text-anchor="middle" x="369.5" y="-400.6" font-family="SourceSans" font-size="8.00">_by_partition_colors</text>
</a>
</g>
</g>
<!-- Node2&#45;&gt;Node3 -->
<g id="edge2" class="edge">
<title>Node2&#45;&gt;Node3</title>
<path fill="none" stroke="#63b8ff" d="M237.76,-340.14C256.74,-351.18 284.87,-367.18 310,-380 316.29,-383.21 323.04,-386.48 329.64,-389.58"/>
<polygon fill="#63b8ff" stroke="#63b8ff" points="328.58,-392.95 339.12,-393.99 331.53,-386.6 328.58,-392.95"/>
</g>
<!-- Node4 -->
<g id="node4" class="node">
<title>Node4</title>
<g id="a_node4"><a xlink:href="namespacea60.html#a6c3e0c242287f663d7e80ee91e094e07" target="_top" xlink:title=" ">
<polygon fill="white" stroke="#666666" points="572,-616 474,-616 474,-590 572,-590 572,-616"/>
<text text-anchor="start" x="482" y="-605.6" font-family="SourceSans" font-size="8.00">a60::collection_size</text>
<text text-anchor="middle" x="523" y="-596.6" font-family="SourceSans" font-size="8.00">_and_partition</text>
</a>
</g>
</g>
<!-- Node2&#45;&gt;Node4 -->
<g id="edge45" class="edge">
<title>Node2&#45;&gt;Node4</title>
<path fill="none" stroke="#63b8ff" d="M226.21,-340.25C258.69,-379.79 360.28,-498.78 465,-573 471.08,-577.31 477.87,-581.41 484.57,-585.12"/>
<polygon fill="#63b8ff" stroke="#63b8ff" points="483.12,-588.31 493.59,-589.92 486.4,-582.13 483.12,-588.31"/>
</g>
<!-- Node5 -->
<g id="node5" class="node">
<title>Node5</title>
<g id="a_node5"><a xlink:href="structa60_1_1collection.html#af73cc1411b568c10442a9999f52531b4" target="_top" xlink:title=" ">
<polygon fill="white" stroke="#666666" points="763,-611.5 617,-611.5 617,-594.5 763,-594.5 763,-611.5"/>
<text text-anchor="middle" x="690" y="-601.1" font-family="SourceSans" font-size="8.00">a60::collection::partition_name</text>
</a>
</g>
</g>
<!-- Node2&#45;&gt;Node5 -->
<g id="edge50" class="edge">
<title>Node2&#45;&gt;Node5</title>
<path fill="none" stroke="#63b8ff" d="M220.33,-340.03C232.16,-370.78 264.96,-449.34 310,-503 366.37,-570.14 382.16,-596.31 465,-625 529.91,-647.48 611.31,-628.71 655.94,-614.74"/>
<polygon fill="#63b8ff" stroke="#63b8ff" points="657.24,-618 665.67,-611.59 655.08,-611.34 657.24,-618"/>
</g>
<!-- Node6 -->
<g id="node6" class="node">
<title>Node6</title>
<g id="a_node6"><a xlink:href="namespacea60.html#a4e8b0cabed112734147b499bf0cc9029" target="_top" xlink:title="Conversion of resolution_mode to string.">
<polygon fill="white" stroke="#666666" points="895.5,-611.5 821.5,-611.5 821.5,-594.5 895.5,-594.5 895.5,-611.5"/>
<text text-anchor="middle" x="858.5" y="-601.1" font-family="SourceSans" font-size="8.00">a60::to_string</text>
</a>
</g>
</g>
<!-- Node2&#45;&gt;Node6 -->
<g id="edge52" class="edge">
<title>Node2&#45;&gt;Node6</title>
<path fill="none" stroke="#63b8ff" d="M217.17,-340.11C222.86,-379.74 244.87,-499.83 310,-570 361.93,-625.95 390.55,-627.14 465,-644 593.97,-673.21 751.57,-635.07 821.33,-614.53"/>
<polygon fill="#63b8ff" stroke="#63b8ff" points="822.39,-617.86 830.97,-611.64 820.38,-611.16 822.39,-617.86"/>
</g>
<!-- Node9 -->
<g id="node9" class="node">
<title>Node9</title>
<g id="a_node9"><a xlink:href="namespacea60.html#ab8e4135bf0b91ea44a27a6fcb7a648e4" target="_top" xlink:title=" ">
<polygon fill="white" stroke="#666666" points="568,-380 478,-380 478,-354 568,-354 568,-380"/>
<text text-anchor="start" x="486" y="-369.6" font-family="SourceSans" font-size="8.00">a60::get_intertitle</text>
<text text-anchor="middle" x="523" y="-360.6" font-family="SourceSans" font-size="8.00">_render_state</text>
</a>
</g>
</g>
<!-- Node2&#45;&gt;Node9 -->
<g id="edge47" class="edge">
<title>Node2&#45;&gt;Node9</title>
<path fill="none" stroke="#63b8ff" d="M274.2,-335.93C286.04,-337.67 298.41,-339.43 310,-341 363.58,-348.25 424.9,-355.68 467.76,-360.73"/>
<polygon fill="#63b8ff" stroke="#63b8ff" points="467.36,-364.2 477.7,-361.89 468.18,-357.25 467.36,-364.2"/>
</g>
<!-- Node11 -->
<g id="node11" class="node">
<title>Node11</title>
<g id="a_node11"><a xlink:href="namespacea60.html#ae9dd8f5f0bd8cfc07cfc19f957cf2c95" target="_top" xlink:title="Shell for titles page.">
<polygon fill="white" stroke="#666666" points="581,-335.5 465,-335.5 465,-318.5 581,-318.5 581,-335.5"/>
<text text-anchor="middle" x="523" y="-325.1" font-family="SourceSans" font-size="8.00">a60::make_glyphs_basic</text>
</a>
</g>
</g>
<!-- Node2&#45;&gt;Node11 -->
<g id="edge48" class="edge">
<title>Node2&#45;&gt;Node11</title>
<path fill="none" stroke="#63b8ff" d="M274.23,-327C325.75,-327 400.66,-327 454.6,-327"/>
<polygon fill="#63b8ff" stroke="#63b8ff" points="454.76,-330.5 464.76,-327 454.76,-323.5 454.76,-330.5"/>
</g>
<!-- Node22 -->
<g id="node22" class="node">
<title>Node22</title>
<g id="a_node22"><a xlink:href="namespacea60.html#a1bf91ba66297e089d99c49d6a376c0ad" target="_top" xlink:title="NEW STYLE First composite with map, black on white.">
<polygon fill="white" stroke="#666666" points="576,-255.5 470,-255.5 470,-238.5 576,-238.5 576,-255.5"/>
<text text-anchor="middle" x="523" y="-245.1" font-family="SourceSans" font-size="8.00">a60::make_map_base</text>
</a>
</g>
</g>
<!-- Node2&#45;&gt;Node22 -->
<g id="edge49" class="edge">
<title>Node2&#45;&gt;Node22</title>
<path fill="none" stroke="#63b8ff" d="M251.13,-313.96C268.71,-307.77 290.33,-300.54 310,-295 363.3,-279.99 425.15,-266.41 468.24,-257.56"/>
<polygon fill="#63b8ff" stroke="#63b8ff" points="469.12,-260.95 478.22,-255.53 467.73,-254.09 469.12,-260.95"/>
</g>
<!-- Node24 -->
<g id="node24" class="node">
<title>Node24</title>
<g id="a_node24"><a xlink:href="structa60_1_1collection.html#a80993af9aec8238db8e44da1e9a3c994" target="_top" xlink:title=" ">
<polygon fill="white" stroke="#666666" points="574.5,-300 471.5,-300 471.5,-274 574.5,-274 574.5,-300"/>
<text text-anchor="start" x="479.5" y="-289.6" font-family="SourceSans" font-size="8.00">a60::collection::slice</text>
<text text-anchor="middle" x="523" y="-280.6" font-family="SourceSans" font-size="8.00">_name_mangled</text>
</a>
</g>
</g>
<!-- Node2&#45;&gt;Node24 -->
<g id="edge51" class="edge">
<title>Node2&#45;&gt;Node24</title>
<path fill="none" stroke="#63b8ff" d="M274.23,-319.33C327.8,-312.34 406.63,-302.06 460.92,-294.97"/>
<polygon fill="#63b8ff" stroke="#63b8ff" points="461.63,-298.41 471.09,-293.64 460.72,-291.47 461.63,-298.41"/>
</g>
<!-- Node28 -->
<g id="node28" class="node">
<title>Node28</title>
<g id="a_node28"><a xlink:href="namespacea60.html#a509aad812b39c14aec23d7c28a1bbab1" target="_top" xlink:title=" ">
<polygon fill="white" stroke="#666666" points="429,-211 310,-211 310,-185 429,-185 429,-211"/>
<text text-anchor="start" x="318" y="-200.6" font-family="SourceSans" font-size="8.00">a60::augment_collection</text>
<text text-anchor="middle" x="369.5" y="-191.6" font-family="SourceSans" font-size="8.00">_titles_4</text>
</a>
</g>
</g>
<!-- Node2&#45;&gt;Node28 -->
<g id="edge34" class="edge">
<title>Node2&#45;&gt;Node28</title>
<path fill="none" stroke="#63b8ff" d="M260.92,-313.91C265.64,-311.42 270.12,-308.48 274,-305 300.35,-281.39 286.03,-260.03 310,-234 316.22,-227.24 323.99,-221.29 331.82,-216.28"/>
<polygon fill="#63b8ff" stroke="#63b8ff" points="333.82,-219.16 340.6,-211.02 330.23,-213.15 333.82,-219.16"/>
</g>
<!-- Node31 -->
<g id="node31" class="node">
<title>Node31</title>
<g id="a_node31"><a xlink:href="namespacea60.html#a69624c6be17252776249bb53c80bd6ff" target="_top" xlink:title="v5 short files: stagger step info hash long names: 90 rotate top column. NB: Assumed that multi&#45;page ...">
<polygon fill="white" stroke="#666666" points="422.5,-138 316.5,-138 316.5,-112 422.5,-112 422.5,-138"/>
<text text-anchor="start" x="324.5" y="-127.6" font-family="SourceSans" font-size="8.00">a60::augment_torrent</text>
<text text-anchor="middle" x="369.5" y="-118.6" font-family="SourceSans" font-size="8.00">_collection_glyphs_v5</text>
</a>
</g>
</g>
<!-- Node2&#45;&gt;Node31 -->
<g id="edge37" class="edge">
<title>Node2&#45;&gt;Node31</title>
<path fill="none" stroke="#63b8ff" d="M262.77,-313.97C266.93,-311.48 270.78,-308.52 274,-305 314.21,-261.11 278.23,-226.34 310,-176 317.74,-163.74 329.3,-152.78 340.11,-144.19"/>
<polygon fill="#63b8ff" stroke="#63b8ff" points="342.29,-146.93 348.15,-138.1 338.07,-141.35 342.29,-146.93"/>
</g>
<!-- Node37 -->
<g id="node37" class="node">
<title>Node37</title>
<g id="a_node37"><a xlink:href="namespacea60.html#ac88b9bd5680f14f810ff0cc02caabe22" target="_top" xlink:title="bndlsize is the subgrouping of names into bundles of 10 max bundles per row is 5 for vertical stacks,...">
<polygon fill="white" stroke="#666666" points="424.5,-94 314.5,-94 314.5,-68 424.5,-68 424.5,-94"/>
<text text-anchor="start" x="322.5" y="-83.6" font-family="SourceSans" font-size="8.00">a60::compute_number</text>
<text text-anchor="middle" x="369.5" y="-74.6" font-family="SourceSans" font-size="8.00">_of_glyph_rows</text>
</a>
</g>
</g>
<!-- Node2&#45;&gt;Node37 -->
<g id="edge46" class="edge">
<title>Node2&#45;&gt;Node37</title>
<path fill="none" stroke="#63b8ff" d="M263.68,-313.93C267.55,-311.45 271.09,-308.5 274,-305 332.31,-234.89 251.69,-173.11 310,-103 310.73,-102.12 311.5,-101.28 312.3,-100.48"/>
<polygon fill="#63b8ff" stroke="#63b8ff" points="314.69,-103.05 320.32,-94.07 310.32,-97.58 314.69,-103.05"/>
</g>
<!-- Node3&#45;&gt;Node4 -->
<g id="edge3" class="edge">
<title>Node3&#45;&gt;Node4</title>
<path fill="none" stroke="#63b8ff" d="M377.84,-420.19C399.91,-459.84 464.19,-575.24 465,-576 468.51,-579.29 472.5,-582.24 476.7,-584.88"/>
<polygon fill="#63b8ff" stroke="#63b8ff" points="475.08,-587.98 485.51,-589.85 478.52,-581.89 475.08,-587.98"/>
</g>
<!-- Node3&#45;&gt;Node5 -->
<g id="edge27" class="edge">
<title>Node3&#45;&gt;Node5</title>
<path fill="none" stroke="#63b8ff" d="M375.86,-420.15C387.68,-447.45 418.66,-510.43 465,-543 479.51,-553.2 580.15,-577.78 641.49,-592.11"/>
<polygon fill="#63b8ff" stroke="#63b8ff" points="640.82,-595.55 651.35,-594.41 642.4,-588.73 640.82,-595.55"/>
</g>
<!-- Node3&#45;&gt;Node6 -->
<g id="edge33" class="edge">
<title>Node3&#45;&gt;Node6</title>
<path fill="none" stroke="#63b8ff" d="M410.75,-420.02C417.1,-422.86 423.42,-426.18 429,-430 448.47,-443.32 445.2,-456.17 465,-469 510.65,-498.57 529.5,-490.5 581,-508 668.18,-537.63 770.65,-572.97 822.96,-591.05"/>
<polygon fill="#63b8ff" stroke="#63b8ff" points="822.14,-594.47 832.73,-594.43 824.43,-587.85 822.14,-594.47"/>
</g>
<!-- Node7 -->
<g id="node7" class="node">
<title>Node7</title>
<g id="a_node7"><a xlink:href="namespacea60.html#a01a07073eb94fd95b2daf64dedaa9d80" target="_top" xlink:title="Less than compare for glyph.">
<polygon fill="white" stroke="#666666" points="579.5,-533.5 466.5,-533.5 466.5,-516.5 579.5,-516.5 579.5,-533.5"/>
<text text-anchor="middle" x="523" y="-523.1" font-family="SourceSans" font-size="8.00">a60::color_glyph_lt_hue</text>
</a>
</g>
</g>
<!-- Node3&#45;&gt;Node7 -->
<g id="edge7" class="edge">
<title>Node3&#45;&gt;Node7</title>
<path fill="none" stroke="#63b8ff" d="M380.52,-420.03C396.48,-440.03 429.53,-478.46 465,-502 471.17,-506.1 478.19,-509.66 485.14,-512.69"/>
<polygon fill="#63b8ff" stroke="#63b8ff" points="483.91,-515.96 494.49,-516.47 486.54,-509.47 483.91,-515.96"/>
</g>
<!-- Node8 -->
<g id="node8" class="node">
<title>Node8</title>
<g id="a_node8"><a xlink:href="structa60_1_1carto_1_1cartography.html#ab7156ee4a876cec09fec7e513467ac2d" target="_top" xlink:title=" ">
<polygon fill="white" stroke="#666666" points="580.5,-460 465.5,-460 465.5,-434 580.5,-434 580.5,-460"/>
<text text-anchor="start" x="473.5" y="-449.6" font-family="SourceSans" font-size="8.00">a60::carto::cartography</text>
<text text-anchor="middle" x="523" y="-440.6" font-family="SourceSans" font-size="8.00">::get_frame</text>
</a>
</g>
</g>
<!-- Node3&#45;&gt;Node8 -->
<g id="edge8" class="edge">
<title>Node3&#45;&gt;Node8</title>
<path fill="none" stroke="#63b8ff" d="M420.11,-420.1C433.65,-423.67 448.46,-427.58 462.49,-431.29"/>
<polygon fill="#63b8ff" stroke="#63b8ff" points="461.98,-434.77 472.54,-433.94 463.77,-428 461.98,-434.77"/>
</g>
<!-- Node3&#45;&gt;Node9 -->
<g id="edge9" class="edge">
<title>Node3&#45;&gt;Node9</title>
<path fill="none" stroke="#63b8ff" d="M420.11,-393.9C435.4,-389.87 452.31,-385.4 467.89,-381.29"/>
<polygon fill="#63b8ff" stroke="#63b8ff" points="469.12,-384.58 477.9,-378.64 467.34,-377.81 469.12,-384.58"/>
</g>
<!-- Node10 -->
<g id="node10" class="node">
<title>Node10</title>
<g id="a_node10"><a xlink:href="namespacea60_1_1constants.html#a6338b74a1c5c6dc024b03069e07e34ac" target="_top" xlink:title=" ">
<polygon fill="white" stroke="#666666" points="581,-415.5 465,-415.5 465,-398.5 581,-398.5 581,-415.5"/>
<text text-anchor="middle" x="523" y="-405.1" font-family="SourceSans" font-size="8.00">a60::constants::hyphen</text>
</a>
</g>
</g>
<!-- Node3&#45;&gt;Node10 -->
<g id="edge10" class="edge">
<title>Node3&#45;&gt;Node10</title>
<path fill="none" stroke="#63b8ff" d="M429.07,-407C437.36,-407 445.94,-407 454.38,-407"/>
<polygon fill="#63b8ff" stroke="#63b8ff" points="454.58,-410.5 464.58,-407 454.58,-403.5 454.58,-410.5"/>
</g>
<!-- Node3&#45;&gt;Node11 -->
<g id="edge11" class="edge">
<title>Node3&#45;&gt;Node11</title>
<path fill="none" stroke="#63b8ff" d="M387.41,-393.83C405.7,-380.1 436.11,-358.72 465,-345 469.68,-342.78 474.71,-340.73 479.77,-338.89"/>
<polygon fill="#63b8ff" stroke="#63b8ff" points="481.12,-342.13 489.45,-335.58 478.86,-335.5 481.12,-342.13"/>
</g>
<!-- Node3&#45;&gt;Node22 -->
<g id="edge25" class="edge">
<title>Node3&#45;&gt;Node22</title>
<path fill="none" stroke="#63b8ff" d="M375.64,-393.86C387.23,-365.91 418.14,-300.24 465,-265 467.61,-263.04 470.45,-261.28 473.4,-259.72"/>
<polygon fill="#63b8ff" stroke="#63b8ff" points="474.9,-262.88 482.57,-255.57 472.01,-256.5 474.9,-262.88"/>
</g>
<!-- Node3&#45;&gt;Node24 -->
<g id="edge28" class="edge">
<title>Node3&#45;&gt;Node24</title>
<path fill="none" stroke="#63b8ff" d="M380.45,-393.68C396.33,-373.24 429.27,-333.97 465,-310 467.88,-308.07 470.94,-306.26 474.1,-304.57"/>
<polygon fill="#63b8ff" stroke="#63b8ff" points="475.74,-307.66 483.18,-300.12 472.66,-301.38 475.74,-307.66"/>
</g>
<!-- Node4&#45;&gt;Node5 -->
<g id="edge4" class="edge">
<title>Node4&#45;&gt;Node5</title>
<path fill="none" stroke="#63b8ff" d="M572.17,-603C582.98,-603 594.76,-603 606.53,-603"/>
<polygon fill="#63b8ff" stroke="#63b8ff" points="606.85,-606.5 616.85,-603 606.85,-599.5 606.85,-606.5"/>
</g>
<!-- Node5&#45;&gt;Node6 -->
<g id="edge5" class="edge">
<title>Node5&#45;&gt;Node6</title>
<path fill="none" stroke="#63b8ff" d="M763.06,-603C779.19,-603 795.88,-603 810.67,-603"/>
<polygon fill="#63b8ff" stroke="#63b8ff" points="811.06,-606.5 821.06,-603 811.06,-599.5 811.06,-606.5"/>
</g>
<!-- Node6&#45;&gt;Node6 -->
<g id="edge6" class="edge">
<title>Node6&#45;&gt;Node6</title>
<path fill="none" stroke="#63b8ff" d="M837.64,-611.69C826.12,-620.17 833.07,-629.5 858.5,-629.5 875.19,-629.5 883.92,-625.48 884.69,-620.32"/>
<polygon fill="#63b8ff" stroke="#63b8ff" points="887.59,-618.36 879.36,-611.69 881.64,-622.03 887.59,-618.36"/>
</g>
<!-- Node12 -->
<g id="node12" class="node">
<title>Node12</title>
<g id="a_node12"><a xlink:href="namespacea60.html#a732ca2d85679838beb92881e9f39a999" target="_top" xlink:title="Engage bittorrent, create session.">
<polygon fill="white" stroke="#666666" points="746,-501.5 634,-501.5 634,-484.5 746,-484.5 746,-501.5"/>
<text text-anchor="middle" x="690" y="-491.1" font-family="SourceSans" font-size="8.00">a60::configure_session</text>
</a>
</g>
</g>
<!-- Node11&#45;&gt;Node12 -->
<g id="edge12" class="edge">
<title>Node11&#45;&gt;Node12</title>
<path fill="none" stroke="#63b8ff" d="M567.44,-335.58C572.47,-337.98 577.16,-341.06 581,-345 621.36,-386.4 576.71,-428.54 617,-470 620.89,-474 625.47,-477.31 630.4,-480.04"/>
<polygon fill="#63b8ff" stroke="#63b8ff" points="629.06,-483.27 639.6,-484.36 632.04,-476.94 629.06,-483.27"/>
</g>
<!-- Node13 -->
<g id="node13" class="node">
<title>Node13</title>
<g id="a_node13"><a xlink:href="namespacea60_1_1io.html#a16f17ea9e02c1975ca17b77e46cf7629" target="_top" xlink:title="Make sure a path ends in &#39;/&#39;;.">
<polygon fill="white" stroke="#666666" points="1044,-401.5 954,-401.5 954,-384.5 1044,-384.5 1044,-401.5"/>
<text text-anchor="middle" x="999" y="-391.1" font-family="SourceSans" font-size="8.00">a60::io::end_path</text>
</a>
</g>
</g>
<!-- Node11&#45;&gt;Node13 -->
<g id="edge13" class="edge">
<title>Node11&#45;&gt;Node13</title>
<path fill="none" stroke="#63b8ff" d="M566.24,-335.53C571.64,-337.94 576.76,-341.03 581,-345 613.07,-374.99 581.93,-410.59 617,-437 670.52,-477.3 854.53,-475.44 918,-454 943.97,-445.23 968.16,-424.29 983,-409.39"/>
<polygon fill="#63b8ff" stroke="#63b8ff" points="985.83,-411.5 990.23,-401.86 980.78,-406.65 985.83,-411.5"/>
</g>
<!-- Node14 -->
<g id="node14" class="node">
<title>Node14</title>
<g id="a_node14"><a xlink:href="namespacea60_1_1io.html#a89f2bd581ec510ccc0a8cfedccff7bd0" target="_top" xlink:title="Top level of directory for output files.">
<polygon fill="white" stroke="#666666" points="738,-384 642,-384 642,-358 738,-358 738,-384"/>
<text text-anchor="start" x="650" y="-373.6" font-family="SourceSans" font-size="8.00">a60::io::get_output</text>
<text text-anchor="middle" x="690" y="-364.6" font-family="SourceSans" font-size="8.00">_directory</text>
</a>
</g>
</g>
<!-- Node11&#45;&gt;Node14 -->
<g id="edge14" class="edge">
<title>Node11&#45;&gt;Node14</title>
<path fill="none" stroke="#63b8ff" d="M556.21,-335.59C577.73,-341.33 606.65,-349.04 632,-355.8"/>
<polygon fill="#63b8ff" stroke="#63b8ff" points="631.32,-359.24 641.88,-358.43 633.12,-352.48 631.32,-359.24"/>
</g>
<!-- Node16 -->
<g id="node16" class="node">
<title>Node16</title>
<g id="a_node16"><a xlink:href="namespacea60.html#a1ae4660be19d8586055437f379fa4985" target="_top" xlink:title="Configure torrent session.">
<polygon fill="white" stroke="#666666" points="750,-339.5 630,-339.5 630,-322.5 750,-322.5 750,-339.5"/>
<text text-anchor="middle" x="690" y="-329.1" font-family="SourceSans" font-size="8.00">a60::make_settings_pack</text>
</a>
</g>
</g>
<!-- Node11&#45;&gt;Node16 -->
<g id="edge18" class="edge">
<title>Node11&#45;&gt;Node16</title>
<path fill="none" stroke="#63b8ff" d="M581.25,-328.39C593.66,-328.69 606.91,-329.01 619.73,-329.32"/>
<polygon fill="#63b8ff" stroke="#63b8ff" points="619.81,-332.82 629.89,-329.57 619.98,-325.83 619.81,-332.82"/>
</g>
<!-- Node17 -->
<g id="node17" class="node">
<title>Node17</title>
<g id="a_node17"><a xlink:href="structa60_1_1collection.html#a997d47a7fc3ffcabaeba3fd74cce0d82" target="_top" xlink:title=" ">
<polygon fill="white" stroke="#666666" points="745.5,-428 634.5,-428 634.5,-402 745.5,-402 745.5,-428"/>
<text text-anchor="start" x="642.5" y="-417.6" font-family="SourceSans" font-size="8.00">a60::collection::torrent</text>
<text text-anchor="middle" x="690" y="-408.6" font-family="SourceSans" font-size="8.00">_directory</text>
</a>
</g>
</g>
<!-- Node11&#45;&gt;Node17 -->
<g id="edge19" class="edge">
<title>Node11&#45;&gt;Node17</title>
<path fill="none" stroke="#63b8ff" d="M562.65,-335.59C569.11,-338.02 575.5,-341.1 581,-345 602.76,-360.42 595.17,-377.68 617,-393 619.54,-394.78 622.23,-396.42 625.01,-397.93"/>
<polygon fill="#63b8ff" stroke="#63b8ff" points="623.66,-401.16 634.19,-402.33 626.68,-394.85 623.66,-401.16"/>
</g>
<!-- Node20 -->
<g id="node20" class="node">
<title>Node20</title>
<g id="a_node20"><a xlink:href="structa60_1_1collection.html#a7f3662085b6407ab2a8916075c984151" target="_top" xlink:title=" ">
<polygon fill="white" stroke="#666666" points="740,-304 640,-304 640,-278 740,-278 740,-304"/>
<text text-anchor="start" x="648" y="-293.6" font-family="SourceSans" font-size="8.00">a60::collection::trim</text>
<text text-anchor="middle" x="690" y="-284.6" font-family="SourceSans" font-size="8.00">_string</text>
</a>
</g>
</g>
<!-- Node11&#45;&gt;Node20 -->
<g id="edge23" class="edge">
<title>Node11&#45;&gt;Node20</title>
<path fill="none" stroke="#63b8ff" d="M563.1,-318.47C583.02,-314.12 607.65,-308.75 629.83,-303.91"/>
<polygon fill="#63b8ff" stroke="#63b8ff" points="630.8,-307.28 639.83,-301.73 629.31,-300.44 630.8,-307.28"/>
</g>
<!-- Node14&#45;&gt;Node13 -->
<g id="edge15" class="edge">
<title>Node14&#45;&gt;Node13</title>
<path fill="none" stroke="#63b8ff" d="M734.78,-357.93C781.01,-346.17 855.68,-332.99 918,-349 940.33,-354.74 963.11,-368.16 978.62,-378.68"/>
<polygon fill="#63b8ff" stroke="#63b8ff" points="976.66,-381.58 986.86,-384.46 980.68,-375.85 976.66,-381.58"/>
</g>
<!-- Node15 -->
<g id="node15" class="node">
<title>Node15</title>
<g id="a_node15"><a xlink:href="namespacea60_1_1io.html#a6ad052ef18cfb1a1ac708f7c69c9050d" target="_top" xlink:title="Assumes argument is full path, no error checking...">
<polygon fill="white" stroke="#666666" points="906.5,-302 810.5,-302 810.5,-276 906.5,-276 906.5,-302"/>
<text text-anchor="start" x="818.5" y="-291.6" font-family="SourceSans" font-size="8.00">a60::io::get_output</text>
<text text-anchor="middle" x="858.5" y="-282.6" font-family="SourceSans" font-size="8.00">_prefix</text>
</a>
</g>
</g>
<!-- Node14&#45;&gt;Node15 -->
<g id="edge16" class="edge">
<title>Node14&#45;&gt;Node15</title>
<path fill="none" stroke="#63b8ff" d="M738.35,-359.84C746.84,-356.92 755.4,-353.35 763,-349 781.84,-338.23 780.93,-328.02 799,-316 804.01,-312.67 809.5,-309.54 815.05,-306.68"/>
<polygon fill="#63b8ff" stroke="#63b8ff" points="816.9,-309.67 824.36,-302.14 813.83,-303.38 816.9,-309.67"/>
</g>
<!-- Node15&#45;&gt;Node13 -->
<g id="edge17" class="edge">
<title>Node15&#45;&gt;Node13</title>
<path fill="none" stroke="#63b8ff" d="M892.73,-302.01C901.28,-305.97 910.24,-310.7 918,-316 943.75,-333.59 968.91,-359.71 983.94,-376.54"/>
<polygon fill="#63b8ff" stroke="#63b8ff" points="981.6,-379.19 990.82,-384.4 986.87,-374.58 981.6,-379.19"/>
</g>
<!-- Node17&#45;&gt;Node13 -->
<g id="edge20" class="edge">
<title>Node17&#45;&gt;Node13</title>
<path fill="none" stroke="#63b8ff" d="M734.78,-428.07C781.01,-439.83 855.68,-453.01 918,-437 940.33,-431.26 963.11,-417.84 978.62,-407.32"/>
<polygon fill="#63b8ff" stroke="#63b8ff" points="980.68,-410.15 986.86,-401.54 976.66,-404.42 980.68,-410.15"/>
</g>
<!-- Node18 -->
<g id="node18" class="node">
<title>Node18</title>
<g id="a_node18"><a xlink:href="namespacea60_1_1io.html#ac95e5271a27a23bc2336d84b3f821fa2" target="_top" xlink:title="Constant filesystem and run&#45;time resources.">
<polygon fill="white" stroke="#666666" points="910.5,-428 806.5,-428 806.5,-402 910.5,-402 910.5,-428"/>
<text text-anchor="start" x="814.5" y="-417.6" font-family="SourceSans" font-size="8.00">a60::io::get_run_time</text>
<text text-anchor="middle" x="858.5" y="-408.6" font-family="SourceSans" font-size="8.00">_resources</text>
</a>
</g>
</g>
<!-- Node17&#45;&gt;Node18 -->
<g id="edge21" class="edge">
<title>Node17&#45;&gt;Node18</title>
<path fill="none" stroke="#63b8ff" d="M745.52,-415C761.7,-415 779.53,-415 796.11,-415"/>
<polygon fill="#63b8ff" stroke="#63b8ff" points="796.25,-418.5 806.25,-415 796.25,-411.5 796.25,-418.5"/>
</g>
<!-- Node19 -->
<g id="node19" class="node">
<title>Node19</title>
<g id="a_node19"><a xlink:href="namespacea60_1_1io.html#aa5fbb8ab63397dd45c4a54c0758935ef" target="_top" xlink:title="Sanity check input existence.">
<polygon fill="white" stroke="#666666" points="910.5,-384 806.5,-384 806.5,-358 910.5,-358 910.5,-384"/>
<text text-anchor="start" x="814.5" y="-373.6" font-family="SourceSans" font-size="8.00">a60::io::sanity_check</text>
<text text-anchor="middle" x="858.5" y="-364.6" font-family="SourceSans" font-size="8.00">_input</text>
</a>
</g>
</g>
<!-- Node17&#45;&gt;Node19 -->
<g id="edge22" class="edge">
<title>Node17&#45;&gt;Node19</title>
<path fill="none" stroke="#63b8ff" d="M740.5,-401.92C758.71,-397.11 779.5,-391.61 798.46,-386.6"/>
<polygon fill="#63b8ff" stroke="#63b8ff" points="799.41,-389.97 808.19,-384.03 797.62,-383.2 799.41,-389.97"/>
</g>
<!-- Node21 -->
<g id="node21" class="node">
<title>Node21</title>
<g id="a_node21"><a xlink:href="namespacea60.html#ac7eddb2e330d8983ddc852edde5335c5" target="_top" xlink:title=" ">
<polygon fill="white" stroke="#666666" points="918,-257.5 799,-257.5 799,-240.5 918,-240.5 918,-257.5"/>
<text text-anchor="middle" x="858.5" y="-247.1" font-family="SourceSans" font-size="8.00">a60::to_lowercase_string</text>
</a>
</g>
</g>
<!-- Node20&#45;&gt;Node21 -->
<g id="edge24" class="edge">
<title>Node20&#45;&gt;Node21</title>
<path fill="none" stroke="#63b8ff" d="M740.05,-278.63C763.35,-272.75 790.96,-265.78 813.56,-260.08"/>
<polygon fill="#63b8ff" stroke="#63b8ff" points="814.72,-263.4 823.56,-257.56 813,-256.61 814.72,-263.4"/>
</g>
<!-- Node23 -->
<g id="node23" class="node">
<title>Node23</title>
<g id="a_node23"><a xlink:href="namespacea60.html#a63203aef78ad674129103340323d3b63" target="_top" xlink:title="First layer.">
<polygon fill="white" stroke="#666666" points="751,-141.5 629,-141.5 629,-124.5 751,-124.5 751,-141.5"/>
<text text-anchor="middle" x="690" y="-131.1" font-family="SourceSans" font-size="8.00">a60::place_map_in_frame</text>
</a>
</g>
</g>
<!-- Node22&#45;&gt;Node23 -->
<g id="edge26" class="edge">
<title>Node22&#45;&gt;Node23</title>
<path fill="none" stroke="#63b8ff" d="M542.8,-238.43C554.76,-232.3 570.01,-223.18 581,-212 603.06,-189.55 591.77,-169.83 617,-151 619.63,-149.03 622.46,-147.28 625.4,-145.72"/>
<polygon fill="#63b8ff" stroke="#63b8ff" points="626.89,-148.89 634.56,-141.58 624.01,-142.51 626.89,-148.89"/>
</g>
<!-- Node24&#45;&gt;Node21 -->
<g id="edge30" class="edge">
<title>Node24&#45;&gt;Node21</title>
<path fill="none" stroke="#63b8ff" d="M574.51,-276.19C588.25,-273.54 603.15,-270.91 617,-269 674.74,-261.04 740.74,-255.82 788.97,-252.72"/>
<polygon fill="#63b8ff" stroke="#63b8ff" points="789.23,-256.21 798.99,-252.09 788.79,-249.23 789.23,-256.21"/>
</g>
<!-- Node25 -->
<g id="node25" class="node">
<title>Node25</title>
<g id="a_node25"><a xlink:href="structa60_1_1collection.html#a25b35cf4ac39da89d868fe2cf41b5acd" target="_top" xlink:title=" ">
<polygon fill="white" stroke="#666666" points="755,-221.5 625,-221.5 625,-204.5 755,-204.5 755,-221.5"/>
<text text-anchor="middle" x="690" y="-211.1" font-family="SourceSans" font-size="8.00">a60::collection::slice_name</text>
</a>
</g>
</g>
<!-- Node24&#45;&gt;Node25 -->
<g id="edge29" class="edge">
<title>Node24&#45;&gt;Node25</title>
<path fill="none" stroke="#63b8ff" d="M562.78,-273.91C569.02,-271.27 575.3,-268.29 581,-265 598.8,-254.73 598.91,-245.74 617,-236 625.32,-231.52 634.65,-227.75 643.76,-224.63"/>
<polygon fill="#63b8ff" stroke="#63b8ff" points="645.06,-227.89 653.52,-221.51 642.93,-221.22 645.06,-227.89"/>
</g>
<!-- Node26 -->
<g id="node26" class="node">
<title>Node26</title>
<g id="a_node26"><a xlink:href="namespacea60.html#a11d9ffc210e8dca8410e7a5ad62deabc" target="_top" xlink:title=" ">
<polygon fill="white" stroke="#666666" points="746.5,-186 633.5,-186 633.5,-160 746.5,-160 746.5,-186"/>
<text text-anchor="start" x="641.5" y="-175.6" font-family="SourceSans" font-size="8.00">a60::to_replace_spaces</text>
<text text-anchor="middle" x="690" y="-166.6" font-family="SourceSans" font-size="8.00">_string</text>
</a>
</g>
</g>
<!-- Node24&#45;&gt;Node26 -->
<g id="edge31" class="edge">
<title>Node24&#45;&gt;Node26</title>
<path fill="none" stroke="#63b8ff" d="M567.93,-273.9C572.64,-271.41 577.12,-268.46 581,-265 606.8,-241.96 590.53,-218.27 617,-196 619.26,-194.1 621.68,-192.35 624.21,-190.75"/>
<polygon fill="#63b8ff" stroke="#63b8ff" points="626.09,-193.71 633.19,-185.85 622.74,-187.57 626.09,-193.71"/>
</g>
<!-- Node27 -->
<g id="node27" class="node">
<title>Node27</title>
<g id="a_node27"><a xlink:href="namespacea60.html#a751f954fe64233f1dc6517220e4b5692" target="_top" xlink:title=" ">
<polygon fill="white" stroke="#666666" points="912,-181.5 805,-181.5 805,-164.5 912,-164.5 912,-181.5"/>
<text text-anchor="middle" x="858.5" y="-171.1" font-family="SourceSans" font-size="8.00">a60::to_replace_string</text>
</a>
</g>
</g>
<!-- Node26&#45;&gt;Node27 -->
<g id="edge32" class="edge">
<title>Node26&#45;&gt;Node27</title>
<path fill="none" stroke="#63b8ff" d="M746.91,-173C762.25,-173 778.99,-173 794.69,-173"/>
<polygon fill="#63b8ff" stroke="#63b8ff" points="794.84,-176.5 804.84,-173 794.84,-169.5 794.84,-176.5"/>
</g>
<!-- Node29 -->
<g id="node29" class="node">
<title>Node29</title>
<g id="a_node29"><a xlink:href="namespacea60_1_1carto.html#af59ef7858ef576e7f17b781f38436f28" target="_top" xlink:title=" ">
<polygon fill="white" stroke="#666666" points="751,-61.5 629,-61.5 629,-44.5 751,-44.5 751,-61.5"/>
<text text-anchor="middle" x="690" y="-51.1" font-family="SourceSans" font-size="8.00">a60::carto::frame_margin</text>
</a>
</g>
</g>
<!-- Node28&#45;&gt;Node29 -->
<g id="edge35" class="edge">
<title>Node28&#45;&gt;Node29</title>
<path fill="none" stroke="#63b8ff" d="M429.01,-208.76C475.15,-213.78 538.56,-212.59 581,-179 620.67,-147.6 579.88,-105.38 617,-71 618.69,-69.44 620.49,-68 622.39,-66.69"/>
<polygon fill="#63b8ff" stroke="#63b8ff" points="624.25,-69.65 631.21,-61.66 620.79,-63.57 624.25,-69.65"/>
</g>
<!-- Node30 -->
<g id="node30" class="node">
<title>Node30</title>
<g id="a_node30"><a xlink:href="structa60_1_1collection.html#a4b5f4e6148e18b08ccc033e200327cdf" target="_top" xlink:title="Display/output name for torrent collection, including partition, episode/multiepisode,...">
<polygon fill="white" stroke="#666666" points="578,-170 468,-170 468,-144 578,-144 578,-170"/>
<text text-anchor="start" x="476" y="-159.6" font-family="SourceSans" font-size="8.00">a60::collection::media</text>
<text text-anchor="middle" x="523" y="-150.6" font-family="SourceSans" font-size="8.00">_object_name</text>
</a>
</g>
</g>
<!-- Node28&#45;&gt;Node30 -->
<g id="edge36" class="edge">
<title>Node28&#45;&gt;Node30</title>
<path fill="none" stroke="#63b8ff" d="M418.85,-184.91C433.27,-181.01 449.22,-176.7 464.18,-172.65"/>
<polygon fill="#63b8ff" stroke="#63b8ff" points="465.11,-176.02 473.85,-170.03 463.28,-169.27 465.11,-176.02"/>
</g>
<!-- Node32 -->
<g id="node32" class="node">
<title>Node32</title>
<g id="a_node32"><a xlink:href="namespacea60.html#a3c6dad07bcebd8445f8254ecef13c499" target="_top" xlink:title="v4h, horizontal fill stagger step info hash long file names">
<polygon fill="white" stroke="#666666" points="578,-108 468,-108 468,-82 578,-82 578,-108"/>
<text text-anchor="start" x="476" y="-97.6" font-family="SourceSans" font-size="8.00">a60::augment_torrent</text>
<text text-anchor="middle" x="523" y="-88.6" font-family="SourceSans" font-size="8.00">_collection_glyphs_v4h</text>
</a>
</g>
</g>
<!-- Node31&#45;&gt;Node32 -->
<g id="edge38" class="edge">
<title>Node31&#45;&gt;Node32</title>
<path fill="none" stroke="#63b8ff" d="M422.64,-114.68C434.07,-112.41 446.3,-109.99 458.14,-107.65"/>
<polygon fill="#63b8ff" stroke="#63b8ff" points="458.83,-111.08 467.96,-105.7 457.47,-104.21 458.83,-111.08"/>
</g>
<!-- Node34 -->
<g id="node34" class="node">
<title>Node34</title>
<g id="a_node34"><a xlink:href="namespacea60.html#af74628c9eb1ff204b92982d6352b47fa" target="_top" xlink:title="v4v, vertical fill stagger step info hash">
<polygon fill="white" stroke="#666666" points="577.5,-64 468.5,-64 468.5,-38 577.5,-38 577.5,-64"/>
<text text-anchor="start" x="476.5" y="-53.6" font-family="SourceSans" font-size="8.00">a60::augment_torrent</text>
<text text-anchor="middle" x="523" y="-44.6" font-family="SourceSans" font-size="8.00">_collection_glyphs_v4v</text>
</a>
</g>
</g>
<!-- Node31&#45;&gt;Node34 -->
<g id="edge41" class="edge">
<title>Node31&#45;&gt;Node34</title>
<path fill="none" stroke="#63b8ff" d="M410.66,-111.95C416.96,-109.32 423.28,-106.33 429,-103 447,-92.52 447.05,-83.56 465,-73 467.83,-71.33 470.82,-69.75 473.87,-68.25"/>
<polygon fill="#63b8ff" stroke="#63b8ff" points="475.53,-71.34 483.18,-64.01 472.63,-64.97 475.53,-71.34"/>
</g>
<!-- Node32&#45;&gt;Node29 -->
<g id="edge40" class="edge">
<title>Node32&#45;&gt;Node29</title>
<path fill="none" stroke="#63b8ff" d="M574.18,-81.98C588.05,-78.4 603.1,-74.53 617,-71 625.99,-68.72 635.61,-66.29 644.81,-63.99"/>
<polygon fill="#63b8ff" stroke="#63b8ff" points="645.71,-67.37 654.56,-61.55 644.01,-60.58 645.71,-67.37"/>
</g>
<!-- Node33 -->
<g id="node33" class="node">
<title>Node33</title>
<g id="a_node33"><a xlink:href="namespacea60.html#a16fc823eda0f1e7ba8a80a0a7a2bd413" target="_top" xlink:title="Ziggurat style for infohash datum layout: tid &#45; color &#45; name/btih/private.">
<polygon fill="white" stroke="#666666" points="743,-106 637,-106 637,-80 743,-80 743,-106"/>
<text text-anchor="start" x="645" y="-95.6" font-family="SourceSans" font-size="8.00">a60::augment_torrent</text>
<text text-anchor="middle" x="690" y="-86.6" font-family="SourceSans" font-size="8.00">_glyph_v4h</text>
</a>
</g>
</g>
<!-- Node32&#45;&gt;Node33 -->
<g id="edge39" class="edge">
<title>Node32&#45;&gt;Node33</title>
<path fill="none" stroke="#63b8ff" d="M578.03,-94.35C593.52,-94.16 610.55,-93.95 626.51,-93.76"/>
<polygon fill="#63b8ff" stroke="#63b8ff" points="626.86,-97.25 636.82,-93.63 626.78,-90.25 626.86,-97.25"/>
</g>
<!-- Node34&#45;&gt;Node29 -->
<g id="edge44" class="edge">
<title>Node34&#45;&gt;Node29</title>
<path fill="none" stroke="#63b8ff" d="M577.57,-51.65C590.62,-51.81 604.77,-51.98 618.47,-52.15"/>
<polygon fill="#63b8ff" stroke="#63b8ff" points="618.8,-55.65 628.84,-52.27 618.88,-48.65 618.8,-55.65"/>
</g>
<!-- Node35 -->
<g id="node35" class="node">
<title>Node35</title>
<g id="a_node35"><a xlink:href="namespacea60.html#ab8c17046693e57506def23f3a977a8ab" target="_top" xlink:title="Ziggurat style for infohash datum layout: tid &#45; color &#45; name/btih/private.">
<polygon fill="white" stroke="#666666" points="743,-26 637,-26 637,0 743,0 743,-26"/>
<text text-anchor="start" x="645" y="-15.6" font-family="SourceSans" font-size="8.00">a60::augment_torrent</text>
<text text-anchor="middle" x="690" y="-6.6" font-family="SourceSans" font-size="8.00">_glyph_v4v</text>
</a>
</g>
</g>
<!-- Node34&#45;&gt;Node35 -->
<g id="edge42" class="edge">
<title>Node34&#45;&gt;Node35</title>
<path fill="none" stroke="#63b8ff" d="M577.57,-38.66C593.31,-35.04 610.66,-31.04 626.89,-27.3"/>
<polygon fill="#63b8ff" stroke="#63b8ff" points="627.86,-30.67 636.82,-25.02 626.29,-23.85 627.86,-30.67"/>
</g>
<!-- Node36 -->
<g id="node36" class="node">
<title>Node36</title>
<g id="a_node36"><a xlink:href="namespacea60.html#aa101f579d83d22aa64d69dcbd54789c3" target="_top" xlink:title=" ">
<polygon fill="white" stroke="#666666" points="911.5,-26 805.5,-26 805.5,0 911.5,0 911.5,-26"/>
<text text-anchor="start" x="813.5" y="-15.6" font-family="SourceSans" font-size="8.00">a60::augment_torrent</text>
<text text-anchor="middle" x="858.5" y="-6.6" font-family="SourceSans" font-size="8.00">_glyph_numbers</text>
</a>
</g>
</g>
<!-- Node35&#45;&gt;Node36 -->
<g id="edge43" class="edge">
<title>Node35&#45;&gt;Node36</title>
<path fill="none" stroke="#63b8ff" d="M743.22,-13C759.65,-13 777.96,-13 795.02,-13"/>
<polygon fill="#63b8ff" stroke="#63b8ff" points="795.46,-16.5 805.46,-13 795.46,-9.5 795.46,-16.5"/>
</g>
</g>
</svg>
        <g id="navigator" transform="translate(0 0)" fill="#404254">
                <rect fill="#f2f5e9" fill-opacity="0.5" stroke="#606060" stroke-width=".5" x="0" y="0" width="60" height="60"/>
                <use id="zoomplus" xlink:href="#zoomPlus" x="17" y="9" onmousedown="handleZoom(evt,'in')"/>
                <use id="zoomminus" xlink:href="#zoomMin" x="42" y="9" onmousedown="handleZoom(evt,'out')"/>
                <use id="reset" xlink:href="#resetDef" x="30" y="36" onmousedown="handleReset()"/>
                <g id="arrowUp" xlink:href="#dirArrow" transform="translate(30 24)" onmousedown="handlePan(0,-1)">
                  <use xlink:href="#rim" fill="#404040">
                        <set attributeName="fill" to="#808080" begin="arrowUp.mouseover" end="arrowUp.mouseout"/>
                  </use>
                  <path fill="none" stroke="white" stroke-width="1.5" d="M0,-3.0v7 M-2.5,-0.5L0,-3.0L2.5,-0.5"/>
                </g>
                <g id="arrowRight" xlink:href="#dirArrow" transform="rotate(90) translate(36 -43)" onmousedown="handlePan(1,0)">
                  <use xlink:href="#rim" fill="#404040">
                        <set attributeName="fill" to="#808080" begin="arrowRight.mouseover" end="arrowRight.mouseout"/>
                  </use>
                  <path fill="none" stroke="white" stroke-width="1.5" d="M0,-3.0v7 M-2.5,-0.5L0,-3.0L2.5,-0.5"/>
                </g>
                <g id="arrowDown" xlink:href="#dirArrow" transform="rotate(180) translate(-30 -48)" onmousedown="handlePan(0,1)">
                  <use xlink:href="#rim" fill="#404040">
                        <set attributeName="fill" to="#808080" begin="arrowDown.mouseover" end="arrowDown.mouseout"/>
                  </use>
                  <path fill="none" stroke="white" stroke-width="1.5" d="M0,-3.0v7 M-2.5,-0.5L0,-3.0L2.5,-0.5"/>
                </g>
                <g id="arrowLeft" xlink:href="#dirArrow" transform="rotate(270) translate(-36 17)" onmousedown="handlePan(-1,0)">
                  <use xlink:href="#rim" fill="#404040">
                        <set attributeName="fill" to="#808080" begin="arrowLeft.mouseover" end="arrowLeft.mouseout"/>
                  </use>
                  <path fill="none" stroke="white" stroke-width="1.5" d="M0,-3.0v7 M-2.5,-0.5L0,-3.0L2.5,-0.5"/>
                </g>
        </g>
        <svg viewBox="0 0 15 15" width="100%" height="30px" preserveAspectRatio="xMaxYMin meet">
         <g id="arrow_out" transform="scale(0.3 0.3)">
          <a xlink:href="namespacea60_a2f705f252137bcf8f83694f225bac2d9_cgraph_org.svg" target="_base">
           <rect id="button" ry="5" rx="5" y="6" x="6" height="38" width="38"
                fill="#f2f5e9" fill-opacity="0.5" stroke="#606060" stroke-width="1.0"/>
           <path id="arrow"
             d="M 11.500037,31.436501 C 11.940474,20.09759 22.043105,11.32322 32.158766,21.979434 L 37.068811,17.246167 C 37.068811,17.246167 37.088388,32 37.088388,32 L 22.160133,31.978069 C 22.160133,31.978069 26.997745,27.140456 26.997745,27.140456 C 18.528582,18.264221 13.291696,25.230495 11.500037,31.436501 z"
             style="fill:#404040;"/>
          </a>
         </g>
        </svg>
</svg>
