<?xml version="1.0" encoding="UTF-8" standalone="no"?>
<!DOCTYPE svg PUBLIC "-//W3C//DTD SVG 1.1//EN"
 "http://www.w3.org/Graphics/SVG/1.1/DTD/svg11.dtd">
<!-- Generated by graphviz version 5.0.0 (0)
 -->
<!-- Title: a60::make_partition_glyphs Pages: 1 -->
<svg width="880pt" height="307pt"
 viewBox="0.00 0.00 880.00 307.00" xmlns="http://www.w3.org/2000/svg" xmlns:xlink="http://www.w3.org/1999/xlink">
<g id="graph0" class="graph" transform="scale(1 1) rotate(0) translate(4 303)">
<title>a60::make_partition_glyphs</title>
<!-- Node1 -->
<g id="node1" class="node">
<title>Node1</title>
<g id="a_node1"><a xlink:title=" ">
<polygon fill="#999999" stroke="#666666" points="98,-86.5 0,-86.5 0,-60.5 98,-60.5 98,-86.5"/>
<text text-anchor="start" x="8" y="-76.1" font-family="SourceSans" font-size="8.00">a60::make_partition</text>
<text text-anchor="middle" x="49" y="-67.1" font-family="SourceSans" font-size="8.00">_glyphs</text>
</a>
</g>
</g>
<!-- Node2 -->
<g id="node2" class="node">
<title>Node2</title>
<g id="a_node2"><a xlink:href="namespacea60.html#a93afe633a2da7041b3d7ac7ba8da41a4" target="_top" xlink:title="Expensive. Should this be part of a weighed collection?">
<polygon fill="white" stroke="#666666" points="252.5,-162 161.5,-162 161.5,-145 252.5,-145 252.5,-162"/>
<text text-anchor="middle" x="207" y="-151.6" font-family="SourceSans" font-size="8.00">a60::make_glyphs</text>
</a>
</g>
</g>
<!-- Node1&#45;&gt;Node2 -->
<g id="edge1" class="edge">
<title>Node1&#45;&gt;Node2</title>
<path fill="none" stroke="#63b8ff" d="M75.41,-86.53C104.27,-101.33 151.1,-125.34 180.14,-140.24"/>
<polygon fill="#63b8ff" stroke="#63b8ff" points="178.76,-143.46 189.25,-144.91 181.95,-137.23 178.76,-143.46"/>
</g>
<!-- Node14 -->
<g id="node14" class="node">
<title>Node14</title>
<g id="a_node14"><a xlink:href="structa60_1_1swarm__gcache.html#a907ae4206cf78357c69df4eab6bf1c41" target="_top" xlink:title="Return a copy of the current cached collection, but only specific parts of it as determined by resolu...">
<polygon fill="white" stroke="#666666" points="267,-106.5 147,-106.5 147,-80.5 267,-80.5 267,-106.5"/>
<text text-anchor="start" x="155" y="-96.1" font-family="SourceSans" font-size="8.00">a60::swarm_gcache::</text>
<text text-anchor="middle" x="207" y="-87.1" font-family="SourceSans" font-size="8.00">partition_cache_by_mode</text>
</a>
</g>
</g>
<!-- Node1&#45;&gt;Node14 -->
<g id="edge16" class="edge">
<title>Node1&#45;&gt;Node14</title>
<path fill="none" stroke="#63b8ff" d="M98.08,-79.66C110.35,-81.24 123.78,-82.96 136.88,-84.64"/>
<polygon fill="#63b8ff" stroke="#63b8ff" points="136.44,-88.11 146.8,-85.91 137.33,-81.17 136.44,-88.11"/>
</g>
<!-- Node18 -->
<g id="node18" class="node">
<title>Node18</title>
<g id="a_node18"><a xlink:href="structa60_1_1collection.html#af73cc1411b568c10442a9999f52531b4" target="_top" xlink:title=" ">
<polygon fill="white" stroke="#666666" points="280,-62 134,-62 134,-45 280,-45 280,-62"/>
<text text-anchor="middle" x="207" y="-51.6" font-family="SourceSans" font-size="8.00">a60::collection::partition_name</text>
</a>
</g>
</g>
<!-- Node1&#45;&gt;Node18 -->
<g id="edge21" class="edge">
<title>Node1&#45;&gt;Node18</title>
<path fill="none" stroke="#63b8ff" d="M98.08,-67.34C107.98,-66.07 118.65,-64.7 129.28,-63.34"/>
<polygon fill="#63b8ff" stroke="#63b8ff" points="129.96,-66.78 139.44,-62.03 129.07,-59.83 129.96,-66.78"/>
</g>
<!-- Node19 -->
<g id="node19" class="node">
<title>Node19</title>
<g id="a_node19"><a xlink:href="namespacea60.html#a75f5d9553ad7cfab9f6af56253bc746d" target="_top" xlink:title="Sum over vector glyphs, return as new summary glyph.">
<polygon fill="white" stroke="#666666" points="250,-27 164,-27 164,-10 250,-10 250,-27"/>
<text text-anchor="middle" x="207" y="-16.6" font-family="SourceSans" font-size="8.00">a60::sum_glyphs</text>
</a>
</g>
</g>
<!-- Node1&#45;&gt;Node19 -->
<g id="edge23" class="edge">
<title>Node1&#45;&gt;Node19</title>
<path fill="none" stroke="#63b8ff" d="M75.58,-60.37C91.96,-52.35 113.85,-42.37 134,-35.5 140.37,-33.33 147.15,-31.34 153.91,-29.54"/>
<polygon fill="#63b8ff" stroke="#63b8ff" points="154.9,-32.89 163.73,-27.04 153.18,-26.11 154.9,-32.89"/>
</g>
<!-- Node3 -->
<g id="node3" class="node">
<title>Node3</title>
<g id="a_node3"><a xlink:href="namespacea60.html#ae9dd8f5f0bd8cfc07cfc19f957cf2c95" target="_top" xlink:title="Shell for titles page.">
<polygon fill="white" stroke="#666666" points="433.5,-182 317.5,-182 317.5,-165 433.5,-165 433.5,-182"/>
<text text-anchor="middle" x="375.5" y="-171.6" font-family="SourceSans" font-size="8.00">a60::make_glyphs_basic</text>
</a>
</g>
</g>
<!-- Node2&#45;&gt;Node3 -->
<g id="edge2" class="edge">
<title>Node2&#45;&gt;Node3</title>
<path fill="none" stroke="#63b8ff" d="M252.62,-158.86C269.36,-160.87 288.78,-163.2 307.13,-165.41"/>
<polygon fill="#63b8ff" stroke="#63b8ff" points="306.85,-168.9 317.2,-166.62 307.69,-161.95 306.85,-168.9"/>
</g>
<!-- Node4 -->
<g id="node4" class="node">
<title>Node4</title>
<g id="a_node4"><a xlink:href="namespacea60.html#a732ca2d85679838beb92881e9f39a999" target="_top" xlink:title="Engage bittorrent, create session.">
<polygon fill="white" stroke="#666666" points="587,-299 475,-299 475,-282 587,-282 587,-299"/>
<text text-anchor="middle" x="531" y="-288.6" font-family="SourceSans" font-size="8.00">a60::configure_session</text>
</a>
</g>
</g>
<!-- Node3&#45;&gt;Node4 -->
<g id="edge3" class="edge">
<title>Node3&#45;&gt;Node4</title>
<path fill="none" stroke="#63b8ff" d="M383.16,-182.21C397.43,-200.37 432.8,-242.62 471,-267.5 477.33,-271.62 484.52,-275.19 491.65,-278.21"/>
<polygon fill="#63b8ff" stroke="#63b8ff" points="490.65,-281.57 501.24,-281.97 493.21,-275.06 490.65,-281.57"/>
</g>
<!-- Node5 -->
<g id="node5" class="node">
<title>Node5</title>
<g id="a_node5"><a xlink:href="namespacea60_1_1io.html#a16f17ea9e02c1975ca17b77e46cf7629" target="_top" xlink:title="Make sure a path ends in &#39;/&#39;;.">
<polygon fill="white" stroke="#666666" points="872,-203 782,-203 782,-186 872,-186 872,-203"/>
<text text-anchor="middle" x="827" y="-192.6" font-family="SourceSans" font-size="8.00">a60::io::end_path</text>
</a>
</g>
</g>
<!-- Node3&#45;&gt;Node5 -->
<g id="edge4" class="edge">
<title>Node3&#45;&gt;Node5</title>
<path fill="none" stroke="#63b8ff" d="M390.59,-182.03C408.52,-192.33 440.79,-209.09 471,-215.5 579.57,-238.54 710.72,-218.87 779.2,-205.11"/>
<polygon fill="#63b8ff" stroke="#63b8ff" points="780.15,-208.48 789.23,-203.04 778.73,-201.63 780.15,-208.48"/>
</g>
<!-- Node6 -->
<g id="node6" class="node">
<title>Node6</title>
<g id="a_node6"><a xlink:href="namespacea60_1_1io.html#a89f2bd581ec510ccc0a8cfedccff7bd0" target="_top" xlink:title="Top level of directory for output files.">
<polygon fill="white" stroke="#666666" points="579,-206.5 483,-206.5 483,-180.5 579,-180.5 579,-206.5"/>
<text text-anchor="start" x="491" y="-196.1" font-family="SourceSans" font-size="8.00">a60::io::get_output</text>
<text text-anchor="middle" x="531" y="-187.1" font-family="SourceSans" font-size="8.00">_directory</text>
</a>
</g>
</g>
<!-- Node3&#45;&gt;Node6 -->
<g id="edge5" class="edge">
<title>Node3&#45;&gt;Node6</title>
<path fill="none" stroke="#63b8ff" d="M433.66,-180.95C446.44,-182.61 459.99,-184.38 472.77,-186.04"/>
<polygon fill="#63b8ff" stroke="#63b8ff" points="472.46,-189.53 482.83,-187.35 473.37,-182.59 472.46,-189.53"/>
</g>
<!-- Node8 -->
<g id="node8" class="node">
<title>Node8</title>
<g id="a_node8"><a xlink:href="namespacea60.html#a1ae4660be19d8586055437f379fa4985" target="_top" xlink:title="Configure torrent session.">
<polygon fill="white" stroke="#666666" points="591,-162 471,-162 471,-145 591,-145 591,-162"/>
<text text-anchor="middle" x="531" y="-151.6" font-family="SourceSans" font-size="8.00">a60::make_settings_pack</text>
</a>
</g>
</g>
<!-- Node3&#45;&gt;Node8 -->
<g id="edge9" class="edge">
<title>Node3&#45;&gt;Node8</title>
<path fill="none" stroke="#63b8ff" d="M433.66,-166.05C442.51,-164.9 451.74,-163.7 460.83,-162.51"/>
<polygon fill="#63b8ff" stroke="#63b8ff" points="461.54,-165.95 471,-161.19 460.63,-159.01 461.54,-165.95"/>
</g>
<!-- Node9 -->
<g id="node9" class="node">
<title>Node9</title>
<g id="a_node9"><a xlink:href="structa60_1_1collection.html#a997d47a7fc3ffcabaeba3fd74cce0d82" target="_top" xlink:title=" ">
<polygon fill="white" stroke="#666666" points="586.5,-106.5 475.5,-106.5 475.5,-80.5 586.5,-80.5 586.5,-106.5"/>
<text text-anchor="start" x="483.5" y="-96.1" font-family="SourceSans" font-size="8.00">a60::collection::torrent</text>
<text text-anchor="middle" x="531" y="-87.1" font-family="SourceSans" font-size="8.00">_directory</text>
</a>
</g>
</g>
<!-- Node3&#45;&gt;Node9 -->
<g id="edge10" class="edge">
<title>Node3&#45;&gt;Node9</title>
<path fill="none" stroke="#63b8ff" d="M409.9,-164.98C418.27,-162.37 427.11,-159.2 435,-155.5 460.09,-143.74 486.3,-126.17 504.82,-112.74"/>
<polygon fill="#63b8ff" stroke="#63b8ff" points="507.03,-115.46 513.01,-106.71 502.88,-109.82 507.03,-115.46"/>
</g>
<!-- Node12 -->
<g id="node12" class="node">
<title>Node12</title>
<g id="a_node12"><a xlink:href="structa60_1_1collection.html#a7f3662085b6407ab2a8916075c984151" target="_top" xlink:title=" ">
<polygon fill="white" stroke="#666666" points="581,-42.5 481,-42.5 481,-16.5 581,-16.5 581,-42.5"/>
<text text-anchor="start" x="489" y="-32.1" font-family="SourceSans" font-size="8.00">a60::collection::trim</text>
<text text-anchor="middle" x="531" y="-23.1" font-family="SourceSans" font-size="8.00">_string</text>
</a>
</g>
</g>
<!-- Node3&#45;&gt;Node12 -->
<g id="edge14" class="edge">
<title>Node3&#45;&gt;Node12</title>
<path fill="none" stroke="#63b8ff" d="M419.72,-164.99C425.29,-162.58 430.57,-159.48 435,-155.5 465.21,-128.35 445.51,-103.12 471,-71.5 478.25,-62.51 487.9,-54.56 497.28,-48.06"/>
<polygon fill="#63b8ff" stroke="#63b8ff" points="499.3,-50.93 505.76,-42.52 495.47,-45.07 499.3,-50.93"/>
</g>
<!-- Node6&#45;&gt;Node5 -->
<g id="edge6" class="edge">
<title>Node6&#45;&gt;Node5</title>
<path fill="none" stroke="#63b8ff" d="M579.35,-195.29C594.56,-195.79 611.49,-196.26 627,-196.5 679.88,-197.33 693.12,-197.16 746,-196.5 754.39,-196.4 763.27,-196.23 771.94,-196.04"/>
<polygon fill="#63b8ff" stroke="#63b8ff" points="772.08,-199.53 781.99,-195.8 771.91,-192.54 772.08,-199.53"/>
</g>
<!-- Node7 -->
<g id="node7" class="node">
<title>Node7</title>
<g id="a_node7"><a xlink:href="namespacea60_1_1io.html#a6ad052ef18cfb1a1ac708f7c69c9050d" target="_top" xlink:title="Assumes argument is full path, no error checking...">
<polygon fill="white" stroke="#666666" points="734.5,-187.5 638.5,-187.5 638.5,-161.5 734.5,-161.5 734.5,-187.5"/>
<text text-anchor="start" x="646.5" y="-177.1" font-family="SourceSans" font-size="8.00">a60::io::get_output</text>
<text text-anchor="middle" x="686.5" y="-168.1" font-family="SourceSans" font-size="8.00">_prefix</text>
</a>
</g>
</g>
<!-- Node6&#45;&gt;Node7 -->
<g id="edge7" class="edge">
<title>Node6&#45;&gt;Node7</title>
<path fill="none" stroke="#63b8ff" d="M579.31,-187.64C594.7,-185.74 611.95,-183.6 628.01,-181.62"/>
<polygon fill="#63b8ff" stroke="#63b8ff" points="628.85,-185.04 638.35,-180.34 627.99,-178.09 628.85,-185.04"/>
</g>
<!-- Node7&#45;&gt;Node5 -->
<g id="edge8" class="edge">
<title>Node7&#45;&gt;Node5</title>
<path fill="none" stroke="#63b8ff" d="M734.78,-181.33C746.65,-183.04 759.49,-184.9 771.68,-186.66"/>
<polygon fill="#63b8ff" stroke="#63b8ff" points="771.34,-190.14 781.74,-188.11 772.34,-183.21 771.34,-190.14"/>
</g>
<!-- Node9&#45;&gt;Node5 -->
<g id="edge11" class="edge">
<title>Node9&#45;&gt;Node5</title>
<path fill="none" stroke="#63b8ff" d="M586.69,-105.16C630.57,-115.32 693.31,-131.68 746,-152.5 765.94,-160.38 787.38,-171.81 803.05,-180.76"/>
<polygon fill="#63b8ff" stroke="#63b8ff" points="801.58,-183.96 811.99,-185.96 805.1,-177.91 801.58,-183.96"/>
</g>
<!-- Node10 -->
<g id="node10" class="node">
<title>Node10</title>
<g id="a_node10"><a xlink:href="namespacea60_1_1io.html#ac95e5271a27a23bc2336d84b3f821fa2" target="_top" xlink:title="Constant filesystem and run&#45;time resources.">
<polygon fill="white" stroke="#666666" points="738.5,-105.5 634.5,-105.5 634.5,-79.5 738.5,-79.5 738.5,-105.5"/>
<text text-anchor="start" x="642.5" y="-95.1" font-family="SourceSans" font-size="8.00">a60::io::get_run_time</text>
<text text-anchor="middle" x="686.5" y="-86.1" font-family="SourceSans" font-size="8.00">_resources</text>
</a>
</g>
</g>
<!-- Node9&#45;&gt;Node10 -->
<g id="edge12" class="edge">
<title>Node9&#45;&gt;Node10</title>
<path fill="none" stroke="#63b8ff" d="M586.55,-93.14C598.74,-93.07 611.74,-92.98 624.18,-92.9"/>
<polygon fill="#63b8ff" stroke="#63b8ff" points="624.48,-96.4 634.46,-92.83 624.44,-89.4 624.48,-96.4"/>
</g>
<!-- Node11 -->
<g id="node11" class="node">
<title>Node11</title>
<g id="a_node11"><a xlink:href="namespacea60_1_1io.html#aa5fbb8ab63397dd45c4a54c0758935ef" target="_top" xlink:title="Sanity check input existence.">
<polygon fill="white" stroke="#666666" points="738.5,-61.5 634.5,-61.5 634.5,-35.5 738.5,-35.5 738.5,-61.5"/>
<text text-anchor="start" x="642.5" y="-51.1" font-family="SourceSans" font-size="8.00">a60::io::sanity_check</text>
<text text-anchor="middle" x="686.5" y="-42.1" font-family="SourceSans" font-size="8.00">_input</text>
</a>
</g>
</g>
<!-- Node9&#45;&gt;Node11 -->
<g id="edge13" class="edge">
<title>Node9&#45;&gt;Node11</title>
<path fill="none" stroke="#63b8ff" d="M576.4,-80.48C593.51,-75.47 613.24,-69.68 631.18,-64.42"/>
<polygon fill="#63b8ff" stroke="#63b8ff" points="632.32,-67.74 640.94,-61.56 630.35,-61.02 632.32,-67.74"/>
</g>
<!-- Node13 -->
<g id="node13" class="node">
<title>Node13</title>
<g id="a_node13"><a xlink:href="namespacea60.html#ac7eddb2e330d8983ddc852edde5335c5" target="_top" xlink:title=" ">
<polygon fill="white" stroke="#666666" points="746,-17 627,-17 627,0 746,0 746,-17"/>
<text text-anchor="middle" x="686.5" y="-6.6" font-family="SourceSans" font-size="8.00">a60::to_lowercase_string</text>
</a>
</g>
</g>
<!-- Node12&#45;&gt;Node13 -->
<g id="edge15" class="edge">
<title>Node12&#45;&gt;Node13</title>
<path fill="none" stroke="#63b8ff" d="M581.41,-22.74C592.71,-21.19 604.92,-19.52 616.86,-17.89"/>
<polygon fill="#63b8ff" stroke="#63b8ff" points="617.37,-21.35 626.8,-16.53 616.42,-14.42 617.37,-21.35"/>
</g>
<!-- Node15 -->
<g id="node15" class="node">
<title>Node15</title>
<g id="a_node15"><a xlink:href="structa60_1_1collection.html#ac65dd0f92ebbcd78b277e48903a2f2b7" target="_top" xlink:title="Adjust internal member data (members) to operate on a subset of the total collection determined by @r...">
<polygon fill="white" stroke="#666666" points="435,-146.5 316,-146.5 316,-120.5 435,-120.5 435,-146.5"/>
<text text-anchor="start" x="324" y="-136.1" font-family="SourceSans" font-size="8.00">a60::collection::partition</text>
<text text-anchor="middle" x="375.5" y="-127.1" font-family="SourceSans" font-size="8.00">_by_mode</text>
</a>
</g>
</g>
<!-- Node14&#45;&gt;Node15 -->
<g id="edge17" class="edge">
<title>Node14&#45;&gt;Node15</title>
<path fill="none" stroke="#63b8ff" d="M262.52,-106.6C277.69,-110.24 294.31,-114.24 310,-118"/>
<polygon fill="#63b8ff" stroke="#63b8ff" points="309.6,-121.51 320.14,-120.44 311.24,-114.7 309.6,-121.51"/>
</g>
<!-- Node16 -->
<g id="node16" class="node">
<title>Node16</title>
<g id="a_node16"><a xlink:href="namespacea60_1_1constants.html#a4eca9d522711df25806d6dd1ff38e904" target="_top" xlink:title=" ">
<polygon fill="white" stroke="#666666" points="430.5,-102 320.5,-102 320.5,-85 430.5,-85 430.5,-102"/>
<text text-anchor="middle" x="375.5" y="-91.6" font-family="SourceSans" font-size="8.00">a60::constants::space</text>
</a>
</g>
</g>
<!-- Node14&#45;&gt;Node16 -->
<g id="edge18" class="edge">
<title>Node14&#45;&gt;Node16</title>
<path fill="none" stroke="#63b8ff" d="M267.17,-93.5C281.09,-93.5 295.98,-93.5 310.11,-93.5"/>
<polygon fill="#63b8ff" stroke="#63b8ff" points="310.24,-97 320.24,-93.5 310.24,-90 310.24,-97"/>
</g>
<!-- Node17 -->
<g id="node17" class="node">
<title>Node17</title>
<g id="a_node17"><a xlink:href="namespacea60.html#a4e8b0cabed112734147b499bf0cc9029" target="_top" xlink:title="Conversion of resolution_mode to string.">
<polygon fill="white" stroke="#666666" points="412.5,-49 338.5,-49 338.5,-32 412.5,-32 412.5,-49"/>
<text text-anchor="middle" x="375.5" y="-38.6" font-family="SourceSans" font-size="8.00">a60::to_string</text>
</a>
</g>
</g>
<!-- Node14&#45;&gt;Node17 -->
<g id="edge19" class="edge">
<title>Node14&#45;&gt;Node17</title>
<path fill="none" stroke="#63b8ff" d="M249.16,-80.4C276.4,-71.73 311.8,-60.46 338.02,-52.11"/>
<polygon fill="#63b8ff" stroke="#63b8ff" points="339.12,-55.43 347.59,-49.07 337,-48.76 339.12,-55.43"/>
</g>
<!-- Node17&#45;&gt;Node17 -->
<g id="edge20" class="edge">
<title>Node17&#45;&gt;Node17</title>
<path fill="none" stroke="#63b8ff" d="M352.55,-49.19C339.88,-57.67 347.53,-67 375.5,-67 394.29,-67 403.91,-62.79 404.36,-57.45"/>
<polygon fill="#63b8ff" stroke="#63b8ff" points="407.11,-55.28 398.45,-49.19 401.42,-59.36 407.11,-55.28"/>
</g>
<!-- Node18&#45;&gt;Node17 -->
<g id="edge22" class="edge">
<title>Node18&#45;&gt;Node17</title>
<path fill="none" stroke="#63b8ff" d="M280.06,-47.87C296.19,-46.61 312.88,-45.31 327.67,-44.16"/>
<polygon fill="#63b8ff" stroke="#63b8ff" points="328.36,-47.61 338.06,-43.35 327.82,-40.63 328.36,-47.61"/>
</g>
</g>
</svg>
