<?xml version="1.0" encoding="UTF-8" standalone="no"?>
<!DOCTYPE svg PUBLIC "-//W3C//DTD SVG 1.1//EN"
 "http://www.w3.org/Graphics/SVG/1.1/DTD/svg11.dtd">
<!-- Generated by graphviz version 5.0.0 (0)
 -->
<!-- Title: a60::io::get_output_directory Pages: 1 -->
<svg width="362pt" height="54pt"
 viewBox="0.00 0.00 362.00 54.00" xmlns="http://www.w3.org/2000/svg" xmlns:xlink="http://www.w3.org/1999/xlink">
<g id="graph0" class="graph" transform="scale(1 1) rotate(0) translate(4 50)">
<title>a60::io::get_output_directory</title>
<!-- Node1 -->
<g id="node1" class="node">
<title>Node1</title>
<g id="a_node1"><a xlink:title="Top level of directory for output files.">
<polygon fill="#999999" stroke="#666666" points="96,-46 0,-46 0,-20 96,-20 96,-46"/>
<text text-anchor="start" x="8" y="-35.6" font-family="SourceSans" font-size="8.00">a60::io::get_output</text>
<text text-anchor="middle" x="48" y="-26.6" font-family="SourceSans" font-size="8.00">_directory</text>
</a>
</g>
</g>
<!-- Node2 -->
<g id="node2" class="node">
<title>Node2</title>
<g id="a_node2"><a xlink:href="namespacea60_1_1io.html#a16f17ea9e02c1975ca17b77e46cf7629" target="_top" xlink:title="Make sure a path ends in &#39;/&#39;;.">
<polygon fill="white" stroke="#666666" points="354,-41.5 264,-41.5 264,-24.5 354,-24.5 354,-41.5"/>
<text text-anchor="middle" x="309" y="-31.1" font-family="SourceSans" font-size="8.00">a60::io::end_path</text>
</a>
</g>
</g>
<!-- Node1&#45;&gt;Node2 -->
<g id="edge1" class="edge">
<title>Node1&#45;&gt;Node2</title>
<path fill="none" stroke="#63b8ff" d="M96.4,-34.34C108.04,-34.61 120.47,-34.86 132,-35 174.66,-35.51 185.34,-35.53 228,-35 236.39,-34.9 245.27,-34.73 253.94,-34.54"/>
<polygon fill="#63b8ff" stroke="#63b8ff" points="254.08,-38.03 263.99,-34.3 253.91,-31.04 254.08,-38.03"/>
</g>
<!-- Node3 -->
<g id="node3" class="node">
<title>Node3</title>
<g id="a_node3"><a xlink:href="namespacea60_1_1io.html#a6ad052ef18cfb1a1ac708f7c69c9050d" target="_top" xlink:title="Assumes argument is full path, no error checking...">
<polygon fill="white" stroke="#666666" points="228,-26 132,-26 132,0 228,0 228,-26"/>
<text text-anchor="start" x="140" y="-15.6" font-family="SourceSans" font-size="8.00">a60::io::get_output</text>
<text text-anchor="middle" x="180" y="-6.6" font-family="SourceSans" font-size="8.00">_prefix</text>
</a>
</g>
</g>
<!-- Node1&#45;&gt;Node3 -->
<g id="edge2" class="edge">
<title>Node1&#45;&gt;Node3</title>
<path fill="none" stroke="#63b8ff" d="M96.3,-25.72C104.65,-24.44 113.42,-23.09 122,-21.77"/>
<polygon fill="#63b8ff" stroke="#63b8ff" points="122.6,-25.22 131.95,-20.24 121.54,-18.3 122.6,-25.22"/>
</g>
<!-- Node3&#45;&gt;Node2 -->
<g id="edge3" class="edge">
<title>Node3&#45;&gt;Node2</title>
<path fill="none" stroke="#63b8ff" d="M228.29,-20.45C236.51,-21.74 245.12,-23.1 253.52,-24.42"/>
<polygon fill="#63b8ff" stroke="#63b8ff" points="253.19,-27.91 263.62,-26.01 254.28,-21 253.19,-27.91"/>
</g>
</g>
</svg>
