<?xml version="1.0" encoding="UTF-8" standalone="no"?>
<!DOCTYPE svg PUBLIC "-//W3C//DTD SVG 1.1//EN"
 "http://www.w3.org/Graphics/SVG/1.1/DTD/svg11.dtd">
<!-- Generated by graphviz version 5.0.0 (0)
 -->
<!-- Title: a60::metadata::composite_age_glyph Pages: 1 -->
<svg width="576pt" height="204pt"
 viewBox="0.00 0.00 576.00 204.00" xmlns="http://www.w3.org/2000/svg" xmlns:xlink="http://www.w3.org/1999/xlink">
<g id="graph0" class="graph" transform="scale(1 1) rotate(0) translate(4 200)">
<title>a60::metadata::composite_age_glyph</title>
<!-- Node1 -->
<g id="node1" class="node">
<title>Node1</title>
<g id="a_node1"><a xlink:title="Ages and ages playing composited into one ring glyph. Select, sort, and composite if necessary the va...">
<polygon fill="#999999" stroke="#666666" points="127,-108 0,-108 0,-82 127,-82 127,-108"/>
<text text-anchor="start" x="8" y="-97.6" font-family="SourceSans" font-size="8.00">a60::metadata::composite</text>
<text text-anchor="middle" x="63.5" y="-88.6" font-family="SourceSans" font-size="8.00">_age_glyph</text>
</a>
</g>
</g>
<!-- Node1&#45;&gt;Node1 -->
<g id="edge3" class="edge">
<title>Node1&#45;&gt;Node1</title>
<path fill="none" stroke="#63b8ff" d="M38.12,-108.06C30.43,-117.1 38.89,-126 63.5,-126 78.5,-126 87.5,-122.69 90.5,-118.07"/>
<polygon fill="#63b8ff" stroke="#63b8ff" points="93.93,-117.37 88.88,-108.06 87.02,-118.49 93.93,-117.37"/>
</g>
<!-- Node2 -->
<g id="node2" class="node">
<title>Node2</title>
<g id="a_node2"><a xlink:href="namespacea60_1_1constants.html#a613cac7d85819a545849f5eefd733896" target="_top" xlink:title=" ">
<polygon fill="white" stroke="#666666" points="264,-196 163,-196 163,-170 264,-170 264,-196"/>
<text text-anchor="start" x="171" y="-185.6" font-family="SourceSans" font-size="8.00">a60::constants::age</text>
<text text-anchor="middle" x="213.5" y="-176.6" font-family="SourceSans" font-size="8.00">_value_to_multiple</text>
</a>
</g>
</g>
<!-- Node1&#45;&gt;Node2 -->
<g id="edge1" class="edge">
<title>Node1&#45;&gt;Node2</title>
<path fill="none" stroke="#63b8ff" d="M82.07,-108.13C101.33,-122.19 133.44,-144.69 163,-161 165.84,-162.57 168.81,-164.11 171.83,-165.61"/>
<polygon fill="#63b8ff" stroke="#63b8ff" points="170.41,-168.81 180.94,-169.95 173.42,-162.49 170.41,-168.81"/>
</g>
<!-- Node4 -->
<g id="node4" class="node">
<title>Node4</title>
<g id="a_node4"><a xlink:href="namespacea60_1_1metadata.html#abcd6d192e6ed0f853c3c6cd9bcf13cad" target="_top" xlink:title=" ">
<polygon fill="white" stroke="#666666" points="262.5,-152 164.5,-152 164.5,-126 262.5,-126 262.5,-152"/>
<text text-anchor="start" x="172.5" y="-141.6" font-family="SourceSans" font-size="8.00">a60::metadata::get</text>
<text text-anchor="middle" x="213.5" y="-132.6" font-family="SourceSans" font-size="8.00">_metadata_style</text>
</a>
</g>
</g>
<!-- Node1&#45;&gt;Node4 -->
<g id="edge4" class="edge">
<title>Node1&#45;&gt;Node4</title>
<path fill="none" stroke="#63b8ff" d="M108.5,-108.08C124.24,-112.76 142.15,-118.09 158.63,-122.98"/>
<polygon fill="#63b8ff" stroke="#63b8ff" points="158.08,-126.47 168.67,-125.97 160.08,-119.76 158.08,-126.47"/>
</g>
<!-- Node5 -->
<g id="node5" class="node">
<title>Node5</title>
<g id="a_node5"><a xlink:href="namespacea60_1_1metadata.html#aa74f3d32a4793b6323d54e93c6c911b9" target="_top" xlink:title="Grows out from center &#39;as if&#39; a tree growing a tree ring. Spans unknown to [00&#45;01,...">
<polygon fill="white" stroke="#666666" points="263.5,-108 163.5,-108 163.5,-82 263.5,-82 263.5,-108"/>
<text text-anchor="start" x="171.5" y="-97.6" font-family="SourceSans" font-size="8.00">a60::metadata::ring</text>
<text text-anchor="middle" x="213.5" y="-88.6" font-family="SourceSans" font-size="8.00">_glyph</text>
</a>
</g>
</g>
<!-- Node1&#45;&gt;Node5 -->
<g id="edge5" class="edge">
<title>Node1&#45;&gt;Node5</title>
<path fill="none" stroke="#63b8ff" d="M127.27,-95C135.78,-95 144.5,-95 152.95,-95"/>
<polygon fill="#63b8ff" stroke="#63b8ff" points="153.1,-98.5 163.1,-95 153.1,-91.5 153.1,-98.5"/>
</g>
<!-- Node6 -->
<g id="node6" class="node">
<title>Node6</title>
<g id="a_node6"><a xlink:href="namespacea60_1_1metadata.html#ae3aa31b1fc054034f40b30f22bf0d4b8" target="_top" xlink:title="Find orbit of ring, given radius, rspace, and number ring. Assume: ringsn starts with 1 for values an...">
<polygon fill="white" stroke="#666666" points="408.5,-89 308.5,-89 308.5,-63 408.5,-63 408.5,-89"/>
<text text-anchor="start" x="316.5" y="-78.6" font-family="SourceSans" font-size="8.00">a60::metadata::ring</text>
<text text-anchor="middle" x="358.5" y="-69.6" font-family="SourceSans" font-size="8.00">_radius</text>
</a>
</g>
</g>
<!-- Node1&#45;&gt;Node6 -->
<g id="edge7" class="edge">
<title>Node1&#45;&gt;Node6</title>
<path fill="none" stroke="#63b8ff" d="M112.99,-81.95C128.81,-78.29 146.54,-74.82 163,-73 208.14,-68.02 259.53,-69.1 298.15,-71.25"/>
<polygon fill="#63b8ff" stroke="#63b8ff" points="297.99,-74.74 308.18,-71.85 298.4,-67.76 297.99,-74.74"/>
</g>
<!-- Node7 -->
<g id="node7" class="node">
<title>Node7</title>
<g id="a_node7"><a xlink:href="namespacea60_1_1metadata.html#a5156bb42291c8eb54dc6ddef8688be1e" target="_top" xlink:title="Split playing value into actor &#45;&gt; LHS of playing &quot;person&quot; role &#45;&gt; RHS of playing &quot;persona&quot; NB: Each s...">
<polygon fill="white" stroke="#666666" points="264,-26 163,-26 163,0 264,0 264,-26"/>
<text text-anchor="start" x="171" y="-15.6" font-family="SourceSans" font-size="8.00">a60::metadata::split</text>
<text text-anchor="middle" x="213.5" y="-6.6" font-family="SourceSans" font-size="8.00">_playing_value</text>
</a>
</g>
</g>
<!-- Node1&#45;&gt;Node7 -->
<g id="edge8" class="edge">
<title>Node1&#45;&gt;Node7</title>
<path fill="none" stroke="#63b8ff" d="M87.95,-81.82C107.88,-70.64 137.28,-54.2 163,-40 168.27,-37.09 173.87,-34.02 179.33,-31.04"/>
<polygon fill="#63b8ff" stroke="#63b8ff" points="181.2,-34 188.3,-26.14 177.85,-27.85 181.2,-34"/>
</g>
<!-- Node3 -->
<g id="node3" class="node">
<title>Node3</title>
<g id="a_node3"><a xlink:href="namespacea60_1_1constants.html#ac27c77e4606552ae5f74a1c21dd9258e" target="_top" xlink:title=" ">
<polygon fill="white" stroke="#666666" points="417,-191.5 300,-191.5 300,-174.5 417,-174.5 417,-191.5"/>
<text text-anchor="middle" x="358.5" y="-181.1" font-family="SourceSans" font-size="8.00">a60::constants::newline</text>
</a>
</g>
</g>
<!-- Node2&#45;&gt;Node3 -->
<g id="edge2" class="edge">
<title>Node2&#45;&gt;Node3</title>
<path fill="none" stroke="#63b8ff" d="M264.11,-183C272.35,-183 281.01,-183 289.6,-183"/>
<polygon fill="#63b8ff" stroke="#63b8ff" points="289.62,-186.5 299.62,-183 289.62,-179.5 289.62,-186.5"/>
</g>
<!-- Node5&#45;&gt;Node6 -->
<g id="edge6" class="edge">
<title>Node5&#45;&gt;Node6</title>
<path fill="none" stroke="#63b8ff" d="M263.71,-88.46C274.84,-86.98 286.76,-85.4 298.24,-83.87"/>
<polygon fill="#63b8ff" stroke="#63b8ff" points="298.74,-87.34 308.2,-82.55 297.82,-80.4 298.74,-87.34"/>
</g>
<!-- Node8 -->
<g id="node8" class="node">
<title>Node8</title>
<g id="a_node8"><a xlink:href="namespacea60_1_1metadata.html#acd47cfb00b07af853234227fdaa04cf9" target="_top" xlink:title="Convert a comma&#45;space&#45;separated list of strings to a vector of strings.">
<polygon fill="white" stroke="#666666" points="409.5,-26 307.5,-26 307.5,0 409.5,0 409.5,-26"/>
<text text-anchor="start" x="315.5" y="-15.6" font-family="SourceSans" font-size="8.00">a60::metadata::cssv</text>
<text text-anchor="middle" x="358.5" y="-6.6" font-family="SourceSans" font-size="8.00">_string_to_strings</text>
</a>
</g>
</g>
<!-- Node7&#45;&gt;Node8 -->
<g id="edge9" class="edge">
<title>Node7&#45;&gt;Node8</title>
<path fill="none" stroke="#63b8ff" d="M264.11,-13C274.86,-13 286.34,-13 297.44,-13"/>
<polygon fill="#63b8ff" stroke="#63b8ff" points="297.49,-16.5 307.49,-13 297.49,-9.5 297.49,-16.5"/>
</g>
<!-- Node9 -->
<g id="node9" class="node">
<title>Node9</title>
<g id="a_node9"><a xlink:href="namespacea60_1_1constants.html#a2fd5efb0c88809132a730787d05a080a" target="_top" xlink:title=" ">
<polygon fill="white" stroke="#666666" points="568,-21.5 453,-21.5 453,-4.5 568,-4.5 568,-21.5"/>
<text text-anchor="middle" x="510.5" y="-11.1" font-family="SourceSans" font-size="8.00">a60::constants::comma</text>
</a>
</g>
</g>
<!-- Node8&#45;&gt;Node9 -->
<g id="edge10" class="edge">
<title>Node8&#45;&gt;Node9</title>
<path fill="none" stroke="#63b8ff" d="M409.87,-13C420.42,-13 431.71,-13 442.76,-13"/>
<polygon fill="#63b8ff" stroke="#63b8ff" points="442.81,-16.5 452.81,-13 442.81,-9.5 442.81,-16.5"/>
</g>
</g>
</svg>
