<?xml version="1.0" encoding="UTF-8" standalone="no"?>
<!DOCTYPE svg PUBLIC "-//W3C//DTD SVG 1.1//EN"
 "http://www.w3.org/Graphics/SVG/1.1/DTD/svg11.dtd">
<!-- Generated by graphviz version 5.0.0 (0)
 -->
<!-- Title: a60::augment_torrent_collection_multi_glyphs Pages: 1 -->
<svg width="729pt" height="90pt"
 viewBox="0.00 0.00 729.00 89.50" xmlns="http://www.w3.org/2000/svg" xmlns:xlink="http://www.w3.org/1999/xlink">
<g id="graph0" class="graph" transform="scale(1 1) rotate(0) translate(4 85.5)">
<title>a60::augment_torrent_collection_multi_glyphs</title>
<!-- Node1 -->
<g id="node1" class="node">
<title>Node1</title>
<g id="a_node1"><a xlink:title="Tie in both of the above.">
<polygon fill="#999999" stroke="#666666" points="115,-41.5 0,-41.5 0,-15.5 115,-15.5 115,-41.5"/>
<text text-anchor="start" x="8" y="-31.1" font-family="SourceSans" font-size="8.00">a60::augment_torrent</text>
<text text-anchor="middle" x="57.5" y="-22.1" font-family="SourceSans" font-size="8.00">_collection_multi_glyphs</text>
</a>
</g>
</g>
<!-- Node2 -->
<g id="node2" class="node">
<title>Node2</title>
<g id="a_node2"><a xlink:href="namespacea60.html#a826e5c1cdfc4c827219e93fac1bc708a" target="_top" xlink:title=" ">
<polygon fill="white" stroke="#666666" points="268,-61.5 162,-61.5 162,-35.5 268,-35.5 268,-61.5"/>
<text text-anchor="start" x="170" y="-51.1" font-family="SourceSans" font-size="8.00">a60::augment_torrent</text>
<text text-anchor="middle" x="215" y="-42.1" font-family="SourceSans" font-size="8.00">_collection_glyphs</text>
</a>
</g>
</g>
<!-- Node1&#45;&gt;Node2 -->
<g id="edge1" class="edge">
<title>Node1&#45;&gt;Node2</title>
<path fill="none" stroke="#63b8ff" d="M115.08,-35.78C127.02,-37.31 139.68,-38.94 151.81,-40.5"/>
<polygon fill="#63b8ff" stroke="#63b8ff" points="151.49,-43.99 161.86,-41.79 152.38,-37.05 151.49,-43.99"/>
</g>
<!-- Node7 -->
<g id="node7" class="node">
<title>Node7</title>
<g id="a_node7"><a xlink:href="namespacea60.html#af9e02e1293a4eadf10ef7ca9f3979c74" target="_top" xlink:title="Eraser.">
<polygon fill="white" stroke="#666666" points="279,-17 151,-17 151,0 279,0 279,-17"/>
<text text-anchor="middle" x="215" y="-6.6" font-family="SourceSans" font-size="8.00">a60::remove_empty_glyphs</text>
</a>
</g>
</g>
<!-- Node1&#45;&gt;Node7 -->
<g id="edge6" class="edge">
<title>Node1&#45;&gt;Node7</title>
<path fill="none" stroke="#63b8ff" d="M115.08,-21.22C123.44,-20.15 132.16,-19.03 140.8,-17.91"/>
<polygon fill="#63b8ff" stroke="#63b8ff" points="141.42,-21.36 150.89,-16.62 140.52,-14.42 141.42,-21.36"/>
</g>
<!-- Node3 -->
<g id="node3" class="node">
<title>Node3</title>
<g id="a_node3"><a xlink:href="namespacea60.html#a3cfdea4dd7a458ed4e7905deee906a99" target="_top" xlink:title="v3 by day/week/hour">
<polygon fill="white" stroke="#666666" points="421,-61.5 315,-61.5 315,-35.5 421,-35.5 421,-61.5"/>
<text text-anchor="start" x="323" y="-51.1" font-family="SourceSans" font-size="8.00">a60::augment_torrent</text>
<text text-anchor="middle" x="368" y="-42.1" font-family="SourceSans" font-size="8.00">_collection_glyphs_v3</text>
</a>
</g>
</g>
<!-- Node2&#45;&gt;Node3 -->
<g id="edge2" class="edge">
<title>Node2&#45;&gt;Node3</title>
<path fill="none" stroke="#63b8ff" d="M268.39,-48.5C280.17,-48.5 292.78,-48.5 304.91,-48.5"/>
<polygon fill="#63b8ff" stroke="#63b8ff" points="304.96,-52 314.96,-48.5 304.96,-45 304.96,-52"/>
</g>
<!-- Node4 -->
<g id="node4" class="node">
<title>Node4</title>
<g id="a_node4"><a xlink:href="namespacea60.html#a9a4d29d7f3a95a87dd84b13ef03eba4d" target="_top" xlink:title="Marian Bantje conversation picks up steam here. Compact stacked layout with torrent name vertical,...">
<polygon fill="white" stroke="#666666" points="571,-81.5 465,-81.5 465,-55.5 571,-55.5 571,-81.5"/>
<text text-anchor="start" x="473" y="-71.1" font-family="SourceSans" font-size="8.00">a60::augment_torrent</text>
<text text-anchor="middle" x="518" y="-62.1" font-family="SourceSans" font-size="8.00">_glyph_v3</text>
</a>
</g>
</g>
<!-- Node3&#45;&gt;Node4 -->
<g id="edge3" class="edge">
<title>Node3&#45;&gt;Node4</title>
<path fill="none" stroke="#63b8ff" d="M421.18,-55.55C432.01,-57.02 443.53,-58.57 454.68,-60.08"/>
<polygon fill="#63b8ff" stroke="#63b8ff" points="454.41,-63.57 464.79,-61.45 455.35,-56.64 454.41,-63.57"/>
</g>
<!-- Node6 -->
<g id="node6" class="node">
<title>Node6</title>
<g id="a_node6"><a xlink:href="namespacea60_1_1carto.html#af59ef7858ef576e7f17b781f38436f28" target="_top" xlink:title=" ">
<polygon fill="white" stroke="#666666" points="579,-37 457,-37 457,-20 579,-20 579,-37"/>
<text text-anchor="middle" x="518" y="-26.6" font-family="SourceSans" font-size="8.00">a60::carto::frame_margin</text>
</a>
</g>
</g>
<!-- Node3&#45;&gt;Node6 -->
<g id="edge5" class="edge">
<title>Node3&#45;&gt;Node6</title>
<path fill="none" stroke="#63b8ff" d="M421.18,-41.45C429.49,-40.33 438.21,-39.15 446.86,-37.98"/>
<polygon fill="#63b8ff" stroke="#63b8ff" points="447.51,-41.42 456.95,-36.61 446.57,-34.49 447.51,-41.42"/>
</g>
<!-- Node5 -->
<g id="node5" class="node">
<title>Node5</title>
<g id="a_node5"><a xlink:href="namespacea60.html#aa101f579d83d22aa64d69dcbd54789c3" target="_top" xlink:title=" ">
<polygon fill="white" stroke="#666666" points="721,-81.5 615,-81.5 615,-55.5 721,-55.5 721,-81.5"/>
<text text-anchor="start" x="623" y="-71.1" font-family="SourceSans" font-size="8.00">a60::augment_torrent</text>
<text text-anchor="middle" x="668" y="-62.1" font-family="SourceSans" font-size="8.00">_glyph_numbers</text>
</a>
</g>
</g>
<!-- Node4&#45;&gt;Node5 -->
<g id="edge4" class="edge">
<title>Node4&#45;&gt;Node5</title>
<path fill="none" stroke="#63b8ff" d="M571.18,-68.5C582.01,-68.5 593.53,-68.5 604.68,-68.5"/>
<polygon fill="#63b8ff" stroke="#63b8ff" points="604.79,-72 614.79,-68.5 604.79,-65 604.79,-72"/>
</g>
</g>
</svg>
