<?xml version="1.0" encoding="UTF-8" standalone="no"?>
<!DOCTYPE svg PUBLIC "-//W3C//DTD SVG 1.1//EN"
 "http://www.w3.org/Graphics/SVG/1.1/DTD/svg11.dtd">
<!-- Generated by graphviz version 5.0.0 (0)
 -->
<!-- Title: a60::make_null_session_for_torrent Pages: 1 -->
<svg width="889pt" height="310pt"
 viewBox="0.00 0.00 889.00 309.50" xmlns="http://www.w3.org/2000/svg" xmlns:xlink="http://www.w3.org/1999/xlink">
<g id="graph0" class="graph" transform="scale(1 1) rotate(0) translate(4 305.5)">
<title>a60::make_null_session_for_torrent</title>
<!-- Node1 -->
<g id="node1" class="node">
<title>Node1</title>
<g id="a_node1"><a xlink:title="Make session for torrent, but don&#39;t update.">
<polygon fill="#999999" stroke="#666666" points="114,-253 0,-253 0,-227 114,-227 114,-253"/>
<text text-anchor="start" x="8" y="-242.6" font-family="SourceSans" font-size="8.00">a60::make_null_session</text>
<text text-anchor="middle" x="57" y="-233.6" font-family="SourceSans" font-size="8.00">_for_torrent</text>
</a>
</g>
</g>
<!-- Node2 -->
<g id="node2" class="node">
<title>Node2</title>
<g id="a_node2"><a xlink:href="namespacea60.html#a732ca2d85679838beb92881e9f39a999" target="_top" xlink:title="Engage bittorrent, create session.">
<polygon fill="white" stroke="#666666" points="270,-301.5 158,-301.5 158,-284.5 270,-284.5 270,-301.5"/>
<text text-anchor="middle" x="214" y="-291.1" font-family="SourceSans" font-size="8.00">a60::configure_session</text>
</a>
</g>
</g>
<!-- Node1&#45;&gt;Node2 -->
<g id="edge1" class="edge">
<title>Node1&#45;&gt;Node2</title>
<path fill="none" stroke="#63b8ff" d="M88.78,-253.02C106.51,-260.27 129.31,-269.18 150,-276 156.07,-278 162.53,-279.95 168.91,-281.76"/>
<polygon fill="#63b8ff" stroke="#63b8ff" points="168.22,-285.2 178.79,-284.5 170.09,-278.46 168.22,-285.2"/>
</g>
<!-- Node3 -->
<g id="node3" class="node">
<title>Node3</title>
<g id="a_node3"><a xlink:href="namespacea60.html#afe8d89ca4ef974726fd66dbda364cbf1" target="_top" xlink:title="Given session and magnet file, make session.">
<polygon fill="white" stroke="#666666" points="278,-266.5 150,-266.5 150,-249.5 278,-249.5 278,-266.5"/>
<text text-anchor="middle" x="214" y="-256.1" font-family="SourceSans" font-size="8.00">a60::make_magnet_handle</text>
</a>
</g>
</g>
<!-- Node1&#45;&gt;Node3 -->
<g id="edge2" class="edge">
<title>Node1&#45;&gt;Node3</title>
<path fill="none" stroke="#63b8ff" d="M114.4,-246.55C122.67,-247.51 131.29,-248.51 139.84,-249.5"/>
<polygon fill="#63b8ff" stroke="#63b8ff" points="139.49,-252.99 149.83,-250.66 140.3,-246.03 139.49,-252.99"/>
</g>
<!-- Node7 -->
<g id="node7" class="node">
<title>Node7</title>
<g id="a_node7"><a xlink:href="namespacea60.html#a1ae4660be19d8586055437f379fa4985" target="_top" xlink:title="Configure torrent session.">
<polygon fill="white" stroke="#666666" points="274,-231.5 154,-231.5 154,-214.5 274,-214.5 274,-231.5"/>
<text text-anchor="middle" x="214" y="-221.1" font-family="SourceSans" font-size="8.00">a60::make_settings_pack</text>
</a>
</g>
</g>
<!-- Node1&#45;&gt;Node7 -->
<g id="edge7" class="edge">
<title>Node1&#45;&gt;Node7</title>
<path fill="none" stroke="#63b8ff" d="M114.4,-233.81C123.91,-232.77 133.87,-231.68 143.66,-230.6"/>
<polygon fill="#63b8ff" stroke="#63b8ff" points="144.22,-234.07 153.78,-229.5 143.45,-227.11 144.22,-234.07"/>
</g>
<!-- Node8 -->
<g id="node8" class="node">
<title>Node8</title>
<g id="a_node8"><a xlink:href="namespacea60.html#a0024ebebf4beab70240ed62e88733a5e" target="_top" xlink:title="Given session and torrent file, add torrent to session.">
<polygon fill="white" stroke="#666666" points="275.5,-196.5 152.5,-196.5 152.5,-179.5 275.5,-179.5 275.5,-196.5"/>
<text text-anchor="middle" x="214" y="-186.1" font-family="SourceSans" font-size="8.00">a60::make_torrent_handle</text>
</a>
</g>
</g>
<!-- Node1&#45;&gt;Node8 -->
<g id="edge8" class="edge">
<title>Node1&#45;&gt;Node8</title>
<path fill="none" stroke="#63b8ff" d="M90.08,-226.89C107.63,-219.95 129.84,-211.54 150,-205 156.08,-203.03 162.54,-201.1 168.92,-199.29"/>
<polygon fill="#63b8ff" stroke="#63b8ff" points="170.11,-202.59 178.81,-196.56 168.24,-195.85 170.11,-202.59"/>
</g>
<!-- Node4 -->
<g id="node4" class="node">
<title>Node4</title>
<g id="a_node4"><a xlink:href="namespacea60_1_1io.html#a89f2bd581ec510ccc0a8cfedccff7bd0" target="_top" xlink:title="Top level of directory for output files.">
<polygon fill="white" stroke="#666666" points="421,-271 325,-271 325,-245 421,-245 421,-271"/>
<text text-anchor="start" x="333" y="-260.6" font-family="SourceSans" font-size="8.00">a60::io::get_output</text>
<text text-anchor="middle" x="373" y="-251.6" font-family="SourceSans" font-size="8.00">_directory</text>
</a>
</g>
</g>
<!-- Node3&#45;&gt;Node4 -->
<g id="edge3" class="edge">
<title>Node3&#45;&gt;Node4</title>
<path fill="none" stroke="#63b8ff" d="M278.41,-258C290.39,-258 302.85,-258 314.63,-258"/>
<polygon fill="#63b8ff" stroke="#63b8ff" points="314.78,-261.5 324.78,-258 314.78,-254.5 314.78,-261.5"/>
</g>
<!-- Node5 -->
<g id="node5" class="node">
<title>Node5</title>
<g id="a_node5"><a xlink:href="namespacea60_1_1io.html#a16f17ea9e02c1975ca17b77e46cf7629" target="_top" xlink:title="Make sure a path ends in &#39;/&#39;;.">
<polygon fill="white" stroke="#666666" points="713.5,-287.5 623.5,-287.5 623.5,-270.5 713.5,-270.5 713.5,-287.5"/>
<text text-anchor="middle" x="668.5" y="-277.1" font-family="SourceSans" font-size="8.00">a60::io::end_path</text>
</a>
</g>
</g>
<!-- Node4&#45;&gt;Node5 -->
<g id="edge4" class="edge">
<title>Node4&#45;&gt;Node5</title>
<path fill="none" stroke="#63b8ff" d="M420.48,-271.11C435.52,-274.75 452.35,-278.19 468,-280 516.9,-285.65 573,-284.71 613.22,-282.77"/>
<polygon fill="#63b8ff" stroke="#63b8ff" points="613.55,-286.26 623.35,-282.24 613.19,-279.27 613.55,-286.26"/>
</g>
<!-- Node6 -->
<g id="node6" class="node">
<title>Node6</title>
<g id="a_node6"><a xlink:href="namespacea60_1_1io.html#a6ad052ef18cfb1a1ac708f7c69c9050d" target="_top" xlink:title="Assumes argument is full path, no error checking...">
<polygon fill="white" stroke="#666666" points="568,-271 472,-271 472,-245 568,-245 568,-271"/>
<text text-anchor="start" x="480" y="-260.6" font-family="SourceSans" font-size="8.00">a60::io::get_output</text>
<text text-anchor="middle" x="520" y="-251.6" font-family="SourceSans" font-size="8.00">_prefix</text>
</a>
</g>
</g>
<!-- Node4&#45;&gt;Node6 -->
<g id="edge5" class="edge">
<title>Node4&#45;&gt;Node6</title>
<path fill="none" stroke="#63b8ff" d="M421.08,-258C433.99,-258 448.14,-258 461.57,-258"/>
<polygon fill="#63b8ff" stroke="#63b8ff" points="461.66,-261.5 471.66,-258 461.66,-254.5 461.66,-261.5"/>
</g>
<!-- Node6&#45;&gt;Node5 -->
<g id="edge6" class="edge">
<title>Node6&#45;&gt;Node5</title>
<path fill="none" stroke="#63b8ff" d="M568.16,-264.76C582.57,-266.83 598.52,-269.11 613.36,-271.24"/>
<polygon fill="#63b8ff" stroke="#63b8ff" points="613.02,-274.73 623.41,-272.68 614.01,-267.8 613.02,-274.73"/>
</g>
<!-- Node8&#45;&gt;Node4 -->
<g id="edge26" class="edge">
<title>Node8&#45;&gt;Node4</title>
<path fill="none" stroke="#63b8ff" d="M252.82,-196.56C261.24,-198.92 270.03,-201.74 278,-205 300.89,-214.37 325.16,-228.16 343.31,-239.33"/>
<polygon fill="#63b8ff" stroke="#63b8ff" points="341.87,-242.56 352.2,-244.9 345.58,-236.63 341.87,-242.56"/>
</g>
<!-- Node9 -->
<g id="node9" class="node">
<title>Node9</title>
<g id="a_node9"><a xlink:href="namespacea60.html#a36ea22d12ecf44568213ff453ad1da2c" target="_top" xlink:title="Print info about torrent_info.">
<polygon fill="white" stroke="#666666" points="432,-182.5 314,-182.5 314,-165.5 432,-165.5 432,-182.5"/>
<text text-anchor="middle" x="373" y="-172.1" font-family="SourceSans" font-size="8.00">a60::display_torrent_info</text>
</a>
</g>
</g>
<!-- Node8&#45;&gt;Node9 -->
<g id="edge9" class="edge">
<title>Node8&#45;&gt;Node9</title>
<path fill="none" stroke="#63b8ff" d="M275.7,-182.59C284.89,-181.77 294.42,-180.92 303.76,-180.09"/>
<polygon fill="#63b8ff" stroke="#63b8ff" points="304.13,-183.57 313.78,-179.19 303.51,-176.59 304.13,-183.57"/>
</g>
<!-- Node10 -->
<g id="node10" class="node">
<title>Node10</title>
<g id="a_node10"><a xlink:href="namespacea60_1_1geo.html#a2ec44da723ee6128696872f94d989c7f" target="_top" xlink:title="Address to IP/Geo.">
<polygon fill="white" stroke="#666666" points="570.5,-124 469.5,-124 469.5,-98 570.5,-98 570.5,-124"/>
<text text-anchor="start" x="477.5" y="-113.6" font-family="SourceSans" font-size="8.00">a60::geo::display_ip</text>
<text text-anchor="middle" x="520" y="-104.6" font-family="SourceSans" font-size="8.00">_and_geo_info</text>
</a>
</g>
</g>
<!-- Node9&#45;&gt;Node10 -->
<g id="edge10" class="edge">
<title>Node9&#45;&gt;Node10</title>
<path fill="none" stroke="#63b8ff" d="M393.86,-165.37C415.85,-155.82 451.87,-140.17 479.63,-128.11"/>
<polygon fill="#63b8ff" stroke="#63b8ff" points="481.29,-131.2 489.07,-124 478.5,-124.78 481.29,-131.2"/>
</g>
<!-- Node19 -->
<g id="node19" class="node">
<title>Node19</title>
<g id="a_node19"><a xlink:href="namespacea60.html#aafdf18ade22a9e669299209ed5a8bdc6" target="_top" xlink:title="Once.">
<polygon fill="white" stroke="#666666" points="572,-226.5 468,-226.5 468,-209.5 572,-209.5 572,-226.5"/>
<text text-anchor="middle" x="520" y="-216.1" font-family="SourceSans" font-size="8.00">a60::host_ip_address</text>
</a>
</g>
</g>
<!-- Node9&#45;&gt;Node19 -->
<g id="edge22" class="edge">
<title>Node9&#45;&gt;Node19</title>
<path fill="none" stroke="#63b8ff" d="M402.3,-182.59C424.76,-189.4 456.36,-198.99 481.02,-206.47"/>
<polygon fill="#63b8ff" stroke="#63b8ff" points="480.18,-209.88 490.77,-209.43 482.22,-203.18 480.18,-209.88"/>
</g>
<!-- Node21 -->
<g id="node21" class="node">
<title>Node21</title>
<g id="a_node21"><a xlink:href="namespacea60.html#a9f2c8dc1d45c663c1017a1b7b651588d" target="_top" xlink:title="ISO date time stamp as default.">
<polygon fill="white" stroke="#666666" points="567.5,-173 472.5,-173 472.5,-147 567.5,-147 567.5,-173"/>
<text text-anchor="start" x="480.5" y="-162.6" font-family="SourceSans" font-size="8.00">a60::time_point_as</text>
<text text-anchor="middle" x="520" y="-153.6" font-family="SourceSans" font-size="8.00">_string</text>
</a>
</g>
</g>
<!-- Node9&#45;&gt;Node21 -->
<g id="edge24" class="edge">
<title>Node9&#45;&gt;Node21</title>
<path fill="none" stroke="#63b8ff" d="M432.14,-168.39C442.08,-167.43 452.4,-166.43 462.3,-165.47"/>
<polygon fill="#63b8ff" stroke="#63b8ff" points="462.82,-168.94 472.44,-164.5 462.15,-161.97 462.82,-168.94"/>
</g>
<!-- Node11 -->
<g id="node11" class="node">
<title>Node11</title>
<g id="a_node11"><a xlink:href="structa60_1_1geo_1_1country__map.html#a96a87722e7988878c37210a8bb208624" target="_top" xlink:title=" ">
<polygon fill="white" stroke="#666666" points="728.5,-114 608.5,-114 608.5,-88 728.5,-88 728.5,-114"/>
<text text-anchor="start" x="616.5" y="-103.6" font-family="SourceSans" font-size="8.00">a60::geo::country_map</text>
<text text-anchor="middle" x="668.5" y="-94.6" font-family="SourceSans" font-size="8.00">::country_code_via_string</text>
</a>
</g>
</g>
<!-- Node10&#45;&gt;Node11 -->
<g id="edge11" class="edge">
<title>Node10&#45;&gt;Node11</title>
<path fill="none" stroke="#63b8ff" d="M570.6,-107.61C579.5,-107.01 588.92,-106.36 598.26,-105.73"/>
<polygon fill="#63b8ff" stroke="#63b8ff" points="598.58,-109.21 608.32,-105.04 598.11,-102.23 598.58,-109.21"/>
</g>
<!-- Node13 -->
<g id="node13" class="node">
<title>Node13</title>
<g id="a_node13"><a xlink:href="namespacea60_1_1geo.html#a7d8058b0d2e8d5f5c90dfe2cab6fc462" target="_top" xlink:title=" ">
<polygon fill="white" stroke="#666666" points="881,-150.5 765,-150.5 765,-133.5 881,-133.5 881,-150.5"/>
<text text-anchor="middle" x="823" y="-140.1" font-family="SourceSans" font-size="8.00">a60::geo::safe_if_empty</text>
</a>
</g>
</g>
<!-- Node10&#45;&gt;Node13 -->
<g id="edge21" class="edge">
<title>Node10&#45;&gt;Node13</title>
<path fill="none" stroke="#63b8ff" d="M570.64,-118.27C582.84,-119.94 595.88,-121.63 608,-123 656.96,-128.55 712.38,-133.43 754.55,-136.85"/>
<polygon fill="#63b8ff" stroke="#63b8ff" points="754.45,-140.36 764.7,-137.67 755.01,-133.38 754.45,-140.36"/>
</g>
<!-- Node15 -->
<g id="node15" class="node">
<title>Node15</title>
<g id="a_node15"><a xlink:href="structa60_1_1geo_1_1city__map_1_1record.html#a7b30bf979e46ddb75bc274871e4ab367" target="_top" xlink:title=" ">
<polygon fill="white" stroke="#666666" points="726,-70 611,-70 611,-44 726,-44 726,-70"/>
<text text-anchor="start" x="619" y="-59.6" font-family="SourceSans" font-size="8.00">a60::geo::city_map</text>
<text text-anchor="middle" x="668.5" y="-50.6" font-family="SourceSans" font-size="8.00">::record::is_record_open</text>
</a>
</g>
</g>
<!-- Node10&#45;&gt;Node15 -->
<g id="edge16" class="edge">
<title>Node10&#45;&gt;Node15</title>
<path fill="none" stroke="#63b8ff" d="M556.46,-97.93C576.36,-90.59 601.39,-81.37 622.64,-73.53"/>
<polygon fill="#63b8ff" stroke="#63b8ff" points="623.94,-76.79 632.11,-70.04 621.52,-70.22 623.94,-76.79"/>
</g>
<!-- Node16 -->
<g id="node16" class="node">
<title>Node16</title>
<g id="a_node16"><a xlink:href="structa60_1_1geo_1_1map__base.html#a9215731f10e2fa8488b0e081c2a5cef4" target="_top" xlink:title=" ">
<polygon fill="white" stroke="#666666" points="719.5,-196 617.5,-196 617.5,-170 719.5,-170 719.5,-196"/>
<text text-anchor="start" x="625.5" y="-185.6" font-family="SourceSans" font-size="8.00">a60::geo::map_base</text>
<text text-anchor="middle" x="668.5" y="-176.6" font-family="SourceSans" font-size="8.00">::open</text>
</a>
</g>
</g>
<!-- Node10&#45;&gt;Node16 -->
<g id="edge17" class="edge">
<title>Node10&#45;&gt;Node16</title>
<path fill="none" stroke="#63b8ff" d="M545.58,-124.14C562.91,-133.3 586.73,-145.68 608,-156 614.67,-159.23 621.8,-162.57 628.74,-165.76"/>
<polygon fill="#63b8ff" stroke="#63b8ff" points="627.45,-169.02 638,-169.98 630.35,-162.65 627.45,-169.02"/>
</g>
<!-- Node18 -->
<g id="node18" class="node">
<title>Node18</title>
<g id="a_node18"><a xlink:href="structa60_1_1geo_1_1city__map.html#a8edb2011397d2166076b33f5187afe18" target="_top" xlink:title=" ">
<polygon fill="white" stroke="#666666" points="716.5,-26 620.5,-26 620.5,0 716.5,0 716.5,-26"/>
<text text-anchor="start" x="628.5" y="-15.6" font-family="SourceSans" font-size="8.00">a60::geo::city_map</text>
<text text-anchor="middle" x="668.5" y="-6.6" font-family="SourceSans" font-size="8.00">::open_record</text>
</a>
</g>
</g>
<!-- Node10&#45;&gt;Node18 -->
<g id="edge19" class="edge">
<title>Node10&#45;&gt;Node18</title>
<path fill="none" stroke="#63b8ff" d="M533.1,-97.8C548.93,-81.2 578.17,-52.72 608,-35 610.84,-33.31 613.83,-31.72 616.9,-30.22"/>
<polygon fill="#63b8ff" stroke="#63b8ff" points="618.58,-33.3 626.26,-26.01 615.71,-26.92 618.58,-33.3"/>
</g>
<!-- Node12 -->
<g id="node12" class="node">
<title>Node12</title>
<g id="a_node12"><a xlink:href="structa60_1_1geo_1_1map__base.html#ae86685f27b25cdaead9c94752618b2e4" target="_top" xlink:title=" ">
<polygon fill="white" stroke="#666666" points="874,-44 772,-44 772,-18 874,-18 874,-44"/>
<text text-anchor="start" x="780" y="-33.6" font-family="SourceSans" font-size="8.00">a60::geo::map_base</text>
<text text-anchor="middle" x="823" y="-24.6" font-family="SourceSans" font-size="8.00">::is_map_open</text>
</a>
</g>
</g>
<!-- Node11&#45;&gt;Node12 -->
<g id="edge12" class="edge">
<title>Node11&#45;&gt;Node12</title>
<path fill="none" stroke="#63b8ff" d="M706.92,-87.96C714.3,-85.16 721.95,-82.11 729,-79 749.48,-69.97 771.78,-58.51 789.42,-49.06"/>
<polygon fill="#63b8ff" stroke="#63b8ff" points="791.56,-51.88 798.69,-44.04 788.23,-45.72 791.56,-51.88"/>
</g>
<!-- Node11&#45;&gt;Node13 -->
<g id="edge13" class="edge">
<title>Node11&#45;&gt;Node13</title>
<path fill="none" stroke="#63b8ff" d="M718.17,-114.09C738.21,-119.47 761.19,-125.65 780.43,-130.82"/>
<polygon fill="#63b8ff" stroke="#63b8ff" points="779.55,-134.21 790.11,-133.43 781.37,-127.45 779.55,-134.21"/>
</g>
<!-- Node14 -->
<g id="node14" class="node">
<title>Node14</title>
<g id="a_node14"><a xlink:href="namespacea60_1_1constants.html#a01d9786063fb572d9389b0cd207bbe53" target="_top" xlink:title=" ">
<polygon fill="white" stroke="#666666" points="872,-97.5 774,-97.5 774,-80.5 872,-80.5 872,-97.5"/>
<text text-anchor="middle" x="823" y="-87.1" font-family="SourceSans" font-size="8.00">a60::constants::tab</text>
</a>
</g>
</g>
<!-- Node11&#45;&gt;Node14 -->
<g id="edge14" class="edge">
<title>Node11&#45;&gt;Node14</title>
<path fill="none" stroke="#63b8ff" d="M728.9,-96.33C740.29,-95.43 752.22,-94.49 763.59,-93.6"/>
<polygon fill="#63b8ff" stroke="#63b8ff" points="764.14,-97.06 773.84,-92.79 763.59,-90.09 764.14,-97.06"/>
</g>
<!-- Node14&#45;&gt;Node14 -->
<g id="edge15" class="edge">
<title>Node14&#45;&gt;Node14</title>
<path fill="none" stroke="#63b8ff" d="M800.05,-97.69C787.38,-106.17 795.03,-115.5 823,-115.5 841.79,-115.5 851.41,-111.29 851.86,-105.95"/>
<polygon fill="#63b8ff" stroke="#63b8ff" points="854.61,-103.78 845.95,-97.69 848.92,-107.86 854.61,-103.78"/>
</g>
<!-- Node17 -->
<g id="node17" class="node">
<title>Node17</title>
<g id="a_node17"><a xlink:href="namespacea60_1_1io.html#aa5fbb8ab63397dd45c4a54c0758935ef" target="_top" xlink:title="Sanity check input existence.">
<polygon fill="white" stroke="#666666" points="875,-196 771,-196 771,-170 875,-170 875,-196"/>
<text text-anchor="start" x="779" y="-185.6" font-family="SourceSans" font-size="8.00">a60::io::sanity_check</text>
<text text-anchor="middle" x="823" y="-176.6" font-family="SourceSans" font-size="8.00">_input</text>
</a>
</g>
</g>
<!-- Node16&#45;&gt;Node17 -->
<g id="edge18" class="edge">
<title>Node16&#45;&gt;Node17</title>
<path fill="none" stroke="#63b8ff" d="M719.86,-183C732.92,-183 747.14,-183 760.7,-183"/>
<polygon fill="#63b8ff" stroke="#63b8ff" points="760.91,-186.5 770.91,-183 760.91,-179.5 760.91,-186.5"/>
</g>
<!-- Node18&#45;&gt;Node12 -->
<g id="edge20" class="edge">
<title>Node18&#45;&gt;Node12</title>
<path fill="none" stroke="#63b8ff" d="M716.92,-18.6C731.12,-20.27 746.9,-22.14 761.81,-23.9"/>
<polygon fill="#63b8ff" stroke="#63b8ff" points="761.63,-27.4 771.97,-25.1 762.45,-20.45 761.63,-27.4"/>
</g>
<!-- Node20 -->
<g id="node20" class="node">
<title>Node20</title>
<g id="a_node20"><a xlink:href="namespacea60.html#ac912026493721c2646a3336faffe1baa" target="_top" xlink:title="Test machine&#39;s address.">
<polygon fill="white" stroke="#666666" points="729,-231.5 608,-231.5 608,-214.5 729,-214.5 729,-231.5"/>
<text text-anchor="middle" x="668.5" y="-221.1" font-family="SourceSans" font-size="8.00">a60::get_host_ip_address</text>
</a>
</g>
</g>
<!-- Node19&#45;&gt;Node20 -->
<g id="edge23" class="edge">
<title>Node19&#45;&gt;Node20</title>
<path fill="none" stroke="#63b8ff" d="M572.24,-219.75C580.48,-220.03 589.14,-220.33 597.73,-220.62"/>
<polygon fill="#63b8ff" stroke="#63b8ff" points="597.64,-224.12 607.75,-220.96 597.88,-217.12 597.64,-224.12"/>
</g>
<!-- Node21&#45;&gt;Node21 -->
<g id="edge25" class="edge">
<title>Node21&#45;&gt;Node21</title>
<path fill="none" stroke="#63b8ff" d="M495.3,-173.06C487.81,-182.1 496.05,-191 520,-191 534.6,-191 543.36,-187.69 546.28,-183.07"/>
<polygon fill="#63b8ff" stroke="#63b8ff" points="549.71,-182.39 544.7,-173.06 542.8,-183.48 549.71,-182.39"/>
</g>
</g>
</svg>
