<?xml version="1.0" encoding="UTF-8" standalone="no"?>
<!DOCTYPE svg PUBLIC "-//W3C//DTD SVG 1.1//EN"
 "http://www.w3.org/Graphics/SVG/1.1/DTD/svg11.dtd">
<!-- Generated by graphviz version 5.0.0 (0)
 -->
<!-- Title: a60::make_intertitle Pages: 1 -->
<!--zoomable 307 -->
<svg id="main" version="1.1" xmlns="http://www.w3.org/2000/svg" xmlns:xlink="http://www.w3.org/1999/xlink" xml:space="preserve" onload="init(evt)">
<style type="text/css"><![CDATA[
.edge:hover path { stroke: red; }
.edge:hover polygon { stroke: red; fill: red; }
]]></style>
<script type="text/javascript"><![CDATA[
var edges = document.getElementsByTagName('g');
if (edges && edges.length) {
  for (var i=0;i<edges.length;i++) {
    if (edges[i].id.substr(0,4)=='edge') {
      edges[i].setAttribute('class','edge');
    }
  }
}
]]></script>
        <defs>
                <circle id="rim" cx="0" cy="0" r="7"/>
                <circle id="rim2" cx="0" cy="0" r="3.5"/>
                <g id="zoomPlus">
                        <use xlink:href="#rim" fill="#404040">
                                <set attributeName="fill" to="#808080" begin="zoomplus.mouseover" end="zoomplus.mouseout"/>
                        </use>
                        <path d="M-4,0h8M0,-4v8" fill="none" stroke="white" stroke-width="1.5" pointer-events="none"/>
                </g>
                <g id="zoomMin">
                        <use xlink:href="#rim" fill="#404040">
                                <set attributeName="fill" to="#808080" begin="zoomminus.mouseover" end="zoomminus.mouseout"/>
                        </use>
                        <path d="M-4,0h8" fill="none" stroke="white" stroke-width="1.5" pointer-events="none"/>
                </g>
                <g id="dirArrow">
                        <path fill="none" stroke="white" stroke-width="1.5" d="M0,-3.0v7 M-2.5,-0.5L0,-3.0L2.5,-0.5"/>
                </g>
               <g id="resetDef">
                       <use xlink:href="#rim2" fill="#404040">
                               <set attributeName="fill" to="#808080" begin="reset.mouseover" end="reset.mouseout"/>
                       </use>
               </g>
        </defs>

<script type="text/javascript">
var viewWidth = 912;
var viewHeight = 307;
var sectionId = 'dynsection-137';
</script>
<script xlink:href="svgpan.js"/>
<svg id="graph" class="graph">
<g id="viewport">
<title>a60::make_intertitle</title>
<!-- Node1 -->
<g id="node1" class="node">
<title>Node1</title>
<g id="a_node1"><a xlink:title="Add intertitle page.">
<polygon fill="#999999" stroke="#666666" points="98,-65.5 0,-65.5 0,-48.5 98,-48.5 98,-65.5"/>
<text text-anchor="middle" x="49" y="-55.1" font-family="SourceSans" font-size="8.00">a60::make_intertitle</text>
</a>
</g>
</g>
<!-- Node2 -->
<g id="node2" class="node">
<title>Node2</title>
<g id="a_node2"><a xlink:href="namespacea60.html#afd267ab94266951ec08784e178349e3c" target="_top" xlink:title="Common parts of weighed collections.">
<polygon fill="white" stroke="#666666" points="243,-157.5 144,-157.5 144,-140.5 243,-140.5 243,-157.5"/>
<text text-anchor="middle" x="193.5" y="-147.1" font-family="SourceSans" font-size="8.00">a60::augment_base</text>
</a>
</g>
</g>
<!-- Node1&#45;&gt;Node2 -->
<g id="edge1" class="edge">
<title>Node1&#45;&gt;Node2</title>
<path fill="none" stroke="#63b8ff" d="M63.41,-65.66C88.02,-81.55 140.63,-115.51 170.53,-134.82"/>
<polygon fill="#63b8ff" stroke="#63b8ff" points="168.73,-137.82 179.03,-140.3 172.52,-131.94 168.73,-137.82"/>
</g>
<!-- Node14 -->
<g id="node14" class="node">
<title>Node14</title>
<g id="a_node14"><a xlink:href="namespacea60.html#a509aad812b39c14aec23d7c28a1bbab1" target="_top" xlink:title=" ">
<polygon fill="white" stroke="#666666" points="253,-70 134,-70 134,-44 253,-44 253,-70"/>
<text text-anchor="start" x="142" y="-59.6" font-family="SourceSans" font-size="8.00">a60::augment_collection</text>
<text text-anchor="middle" x="193.5" y="-50.6" font-family="SourceSans" font-size="8.00">_titles_4</text>
</a>
</g>
</g>
<!-- Node1&#45;&gt;Node14 -->
<g id="edge19" class="edge">
<title>Node1&#45;&gt;Node14</title>
<path fill="none" stroke="#63b8ff" d="M98.24,-57C106.48,-57 115.19,-57 123.84,-57"/>
<polygon fill="#63b8ff" stroke="#63b8ff" points="123.94,-60.5 133.94,-57 123.94,-53.5 123.94,-60.5"/>
</g>
<!-- Node17 -->
<g id="node17" class="node">
<title>Node17</title>
<g id="a_node17"><a xlink:href="namespacea60.html#ab8e4135bf0b91ea44a27a6fcb7a648e4" target="_top" xlink:title=" ">
<polygon fill="white" stroke="#666666" points="238.5,-26 148.5,-26 148.5,0 238.5,0 238.5,-26"/>
<text text-anchor="start" x="156.5" y="-15.6" font-family="SourceSans" font-size="8.00">a60::get_intertitle</text>
<text text-anchor="middle" x="193.5" y="-6.6" font-family="SourceSans" font-size="8.00">_render_state</text>
</a>
</g>
</g>
<!-- Node1&#45;&gt;Node17 -->
<g id="edge22" class="edge">
<title>Node1&#45;&gt;Node17</title>
<path fill="none" stroke="#63b8ff" d="M77.81,-48.41C95.57,-42.93 119.16,-35.65 140.32,-29.11"/>
<polygon fill="#63b8ff" stroke="#63b8ff" points="141.63,-32.37 150.16,-26.07 139.57,-25.68 141.63,-32.37"/>
</g>
<!-- Node3 -->
<g id="node3" class="node">
<title>Node3</title>
<g id="a_node3"><a xlink:href="namespacea60.html#a578d5079a62c97b1fb3a1693a82d7430" target="_top" xlink:title="Base name for output for non&#45;map, data/info.">
<polygon fill="white" stroke="#666666" points="436,-175.5 290,-175.5 290,-158.5 436,-158.5 436,-175.5"/>
<text text-anchor="middle" x="363" y="-165.1" font-family="SourceSans" font-size="8.00">a60::augment_base_info_name</text>
</a>
</g>
</g>
<!-- Node2&#45;&gt;Node3 -->
<g id="edge2" class="edge">
<title>Node2&#45;&gt;Node3</title>
<path fill="none" stroke="#63b8ff" d="M243.4,-154.25C254.83,-155.48 267.31,-156.82 279.75,-158.16"/>
<polygon fill="#63b8ff" stroke="#63b8ff" points="279.38,-161.64 289.69,-159.23 280.13,-154.68 279.38,-161.64"/>
</g>
<!-- Node4 -->
<g id="node4" class="node">
<title>Node4</title>
<g id="a_node4"><a xlink:href="structa60_1_1collection.html#a80993af9aec8238db8e44da1e9a3c994" target="_top" xlink:title=" ">
<polygon fill="white" stroke="#666666" points="585.5,-190 482.5,-190 482.5,-164 585.5,-164 585.5,-190"/>
<text text-anchor="start" x="490.5" y="-179.6" font-family="SourceSans" font-size="8.00">a60::collection::slice</text>
<text text-anchor="middle" x="534" y="-170.6" font-family="SourceSans" font-size="8.00">_name_mangled</text>
</a>
</g>
</g>
<!-- Node2&#45;&gt;Node4 -->
<g id="edge18" class="edge">
<title>Node2&#45;&gt;Node4</title>
<path fill="none" stroke="#63b8ff" d="M211.37,-157.59C229.86,-166.48 260.68,-179.79 289,-185 350.62,-196.34 422.43,-191.92 472.12,-186.15"/>
<polygon fill="#63b8ff" stroke="#63b8ff" points="472.55,-189.63 482.06,-184.95 471.71,-182.68 472.55,-189.63"/>
</g>
<!-- Node9 -->
<g id="node9" class="node">
<title>Node9</title>
<g id="a_node9"><a xlink:href="namespacea60.html#af7680b43cbe9dfe398fb13de46e09895" target="_top" xlink:title="Base name for output with maps.">
<polygon fill="white" stroke="#666666" points="437,-249.5 289,-249.5 289,-232.5 437,-232.5 437,-249.5"/>
<text text-anchor="middle" x="363" y="-239.1" font-family="SourceSans" font-size="8.00">a60::augment_base_map_name</text>
</a>
</g>
</g>
<!-- Node2&#45;&gt;Node9 -->
<g id="edge8" class="edge">
<title>Node2&#45;&gt;Node9</title>
<path fill="none" stroke="#63b8ff" d="M204.01,-157.6C220.3,-171.95 255.1,-200.87 289,-218 297.8,-222.45 307.64,-226.25 317.16,-229.41"/>
<polygon fill="#63b8ff" stroke="#63b8ff" points="316.34,-232.82 326.93,-232.46 318.43,-226.14 316.34,-232.82"/>
</g>
<!-- Node11 -->
<g id="node11" class="node">
<title>Node11</title>
<g id="a_node11"><a xlink:href="namespacea60.html#a1bf91ba66297e089d99c49d6a376c0ad" target="_top" xlink:title="NEW STYLE First composite with map, black on white.">
<polygon fill="white" stroke="#666666" points="416,-105.5 310,-105.5 310,-88.5 416,-88.5 416,-105.5"/>
<text text-anchor="middle" x="363" y="-95.1" font-family="SourceSans" font-size="8.00">a60::make_map_base</text>
</a>
</g>
</g>
<!-- Node2&#45;&gt;Node11 -->
<g id="edge14" class="edge">
<title>Node2&#45;&gt;Node11</title>
<path fill="none" stroke="#63b8ff" d="M216.43,-140.38C235.45,-133.08 263.8,-122.62 289,-115 297.17,-112.53 305.93,-110.15 314.45,-107.97"/>
<polygon fill="#63b8ff" stroke="#63b8ff" points="315.43,-111.33 324.28,-105.51 313.73,-104.54 315.43,-111.33"/>
</g>
<!-- Node13 -->
<g id="node13" class="node">
<title>Node13</title>
<g id="a_node13"><a xlink:href="namespacea60.html#af951ad59a8649d55d5075079447bf0e7" target="_top" xlink:title="First composite with map, white on black.">
<polygon fill="white" stroke="#666666" points="433,-140.5 293,-140.5 293,-123.5 433,-123.5 433,-140.5"/>
<text text-anchor="middle" x="363" y="-130.1" font-family="SourceSans" font-size="8.00">a60::make_map_inverse_base</text>
</a>
</g>
</g>
<!-- Node2&#45;&gt;Node13 -->
<g id="edge16" class="edge">
<title>Node2&#45;&gt;Node13</title>
<path fill="none" stroke="#63b8ff" d="M243.4,-144.04C255.71,-142.79 269.24,-141.41 282.63,-140.06"/>
<polygon fill="#63b8ff" stroke="#63b8ff" points="283.22,-143.51 292.81,-139.02 282.51,-136.55 283.22,-143.51"/>
</g>
<!-- Node3&#45;&gt;Node4 -->
<g id="edge3" class="edge">
<title>Node3&#45;&gt;Node4</title>
<path fill="none" stroke="#63b8ff" d="M436.16,-171.27C448.17,-171.98 460.51,-172.71 472.2,-173.4"/>
<polygon fill="#63b8ff" stroke="#63b8ff" points="472.08,-176.9 482.27,-174 472.49,-169.91 472.08,-176.9"/>
</g>
<!-- Node5 -->
<g id="node5" class="node">
<title>Node5</title>
<g id="a_node5"><a xlink:href="structa60_1_1collection.html#a25b35cf4ac39da89d868fe2cf41b5acd" target="_top" xlink:title=" ">
<polygon fill="white" stroke="#666666" points="761,-185.5 631,-185.5 631,-168.5 761,-168.5 761,-185.5"/>
<text text-anchor="middle" x="696" y="-175.1" font-family="SourceSans" font-size="8.00">a60::collection::slice_name</text>
</a>
</g>
</g>
<!-- Node4&#45;&gt;Node5 -->
<g id="edge4" class="edge">
<title>Node4&#45;&gt;Node5</title>
<path fill="none" stroke="#63b8ff" d="M585.62,-177C596.74,-177 608.74,-177 620.57,-177"/>
<polygon fill="#63b8ff" stroke="#63b8ff" points="620.9,-180.5 630.9,-177 620.9,-173.5 620.9,-180.5"/>
</g>
<!-- Node6 -->
<g id="node6" class="node">
<title>Node6</title>
<g id="a_node6"><a xlink:href="namespacea60.html#ac7eddb2e330d8983ddc852edde5335c5" target="_top" xlink:title=" ">
<polygon fill="white" stroke="#666666" points="755.5,-223.5 636.5,-223.5 636.5,-206.5 755.5,-206.5 755.5,-223.5"/>
<text text-anchor="middle" x="696" y="-213.1" font-family="SourceSans" font-size="8.00">a60::to_lowercase_string</text>
</a>
</g>
</g>
<!-- Node4&#45;&gt;Node6 -->
<g id="edge5" class="edge">
<title>Node4&#45;&gt;Node6</title>
<path fill="none" stroke="#63b8ff" d="M585.62,-189.02C605.99,-193.86 629.3,-199.4 649.16,-204.11"/>
<polygon fill="#63b8ff" stroke="#63b8ff" points="648.36,-207.52 658.89,-206.42 649.97,-200.71 648.36,-207.52"/>
</g>
<!-- Node7 -->
<g id="node7" class="node">
<title>Node7</title>
<g id="a_node7"><a xlink:href="namespacea60.html#a11d9ffc210e8dca8410e7a5ad62deabc" target="_top" xlink:title=" ">
<polygon fill="white" stroke="#666666" points="752.5,-295 639.5,-295 639.5,-269 752.5,-269 752.5,-295"/>
<text text-anchor="start" x="647.5" y="-284.6" font-family="SourceSans" font-size="8.00">a60::to_replace_spaces</text>
<text text-anchor="middle" x="696" y="-275.6" font-family="SourceSans" font-size="8.00">_string</text>
</a>
</g>
</g>
<!-- Node4&#45;&gt;Node7 -->
<g id="edge6" class="edge">
<title>Node4&#45;&gt;Node7</title>
<path fill="none" stroke="#63b8ff" d="M554.94,-190.09C583.04,-208.53 634.45,-242.26 666.55,-263.33"/>
<polygon fill="#63b8ff" stroke="#63b8ff" points="664.78,-266.35 675.06,-268.91 668.62,-260.5 664.78,-266.35"/>
</g>
<!-- Node8 -->
<g id="node8" class="node">
<title>Node8</title>
<g id="a_node8"><a xlink:href="namespacea60.html#a751f954fe64233f1dc6517220e4b5692" target="_top" xlink:title=" ">
<polygon fill="white" stroke="#666666" points="904,-290.5 797,-290.5 797,-273.5 904,-273.5 904,-290.5"/>
<text text-anchor="middle" x="850.5" y="-280.1" font-family="SourceSans" font-size="8.00">a60::to_replace_string</text>
</a>
</g>
</g>
<!-- Node7&#45;&gt;Node8 -->
<g id="edge7" class="edge">
<title>Node7&#45;&gt;Node8</title>
<path fill="none" stroke="#63b8ff" d="M752.92,-282C763.92,-282 775.53,-282 786.73,-282"/>
<polygon fill="#63b8ff" stroke="#63b8ff" points="786.88,-285.5 796.88,-282 786.88,-278.5 786.88,-285.5"/>
</g>
<!-- Node9&#45;&gt;Node4 -->
<g id="edge9" class="edge">
<title>Node9&#45;&gt;Node4</title>
<path fill="none" stroke="#63b8ff" d="M393.35,-232.47C406.76,-228.39 422.79,-223.26 437,-218 456.36,-210.84 477.5,-201.93 495,-194.25"/>
<polygon fill="#63b8ff" stroke="#63b8ff" points="496.58,-197.38 504.31,-190.13 493.75,-190.98 496.58,-197.38"/>
</g>
<!-- Node9&#45;&gt;Node6 -->
<g id="edge10" class="edge">
<title>Node9&#45;&gt;Node6</title>
<path fill="none" stroke="#63b8ff" d="M437.05,-235.26C493.51,-230.83 571.1,-224.73 626.4,-220.39"/>
<polygon fill="#63b8ff" stroke="#63b8ff" points="626.76,-223.87 636.46,-219.6 626.21,-216.89 626.76,-223.87"/>
</g>
<!-- Node9&#45;&gt;Node7 -->
<g id="edge11" class="edge">
<title>Node9&#45;&gt;Node7</title>
<path fill="none" stroke="#63b8ff" d="M377.77,-249.69C397.81,-261.77 436.59,-283.05 473,-291 524.57,-302.26 584.44,-298.91 629,-293.36"/>
<polygon fill="#63b8ff" stroke="#63b8ff" points="629.67,-296.8 639.12,-292.02 628.75,-289.86 629.67,-296.8"/>
</g>
<!-- Node10 -->
<g id="node10" class="node">
<title>Node10</title>
<g id="a_node10"><a xlink:href="namespacea60.html#a4e8b0cabed112734147b499bf0cc9029" target="_top" xlink:title="Conversion of resolution_mode to string.">
<polygon fill="white" stroke="#666666" points="571,-263.5 497,-263.5 497,-246.5 571,-246.5 571,-263.5"/>
<text text-anchor="middle" x="534" y="-253.1" font-family="SourceSans" font-size="8.00">a60::to_string</text>
</a>
</g>
</g>
<!-- Node9&#45;&gt;Node10 -->
<g id="edge12" class="edge">
<title>Node9&#45;&gt;Node10</title>
<path fill="none" stroke="#63b8ff" d="M437.14,-247.06C453.96,-248.45 471.39,-249.9 486.69,-251.16"/>
<polygon fill="#63b8ff" stroke="#63b8ff" points="486.67,-254.67 496.92,-252.01 487.24,-247.7 486.67,-254.67"/>
</g>
<!-- Node10&#45;&gt;Node10 -->
<g id="edge13" class="edge">
<title>Node10&#45;&gt;Node10</title>
<path fill="none" stroke="#63b8ff" d="M509.86,-263.69C496.53,-272.17 504.57,-281.5 534,-281.5 554.23,-281.5 564.36,-277.09 564.37,-271.58"/>
<polygon fill="#63b8ff" stroke="#63b8ff" points="567.08,-269.36 558.14,-263.69 561.59,-273.7 567.08,-269.36"/>
</g>
<!-- Node12 -->
<g id="node12" class="node">
<title>Node12</title>
<g id="a_node12"><a xlink:href="namespacea60.html#a63203aef78ad674129103340323d3b63" target="_top" xlink:title="First layer.">
<polygon fill="white" stroke="#666666" points="595,-130.5 473,-130.5 473,-113.5 595,-113.5 595,-130.5"/>
<text text-anchor="middle" x="534" y="-120.1" font-family="SourceSans" font-size="8.00">a60::place_map_in_frame</text>
</a>
</g>
</g>
<!-- Node11&#45;&gt;Node12 -->
<g id="edge15" class="edge">
<title>Node11&#45;&gt;Node12</title>
<path fill="none" stroke="#63b8ff" d="M416.08,-104.7C431.67,-107.01 448.98,-109.57 465.41,-112"/>
<polygon fill="#63b8ff" stroke="#63b8ff" points="465.09,-115.49 475.5,-113.49 466.11,-108.57 465.09,-115.49"/>
</g>
<!-- Node13&#45;&gt;Node12 -->
<g id="edge17" class="edge">
<title>Node13&#45;&gt;Node12</title>
<path fill="none" stroke="#63b8ff" d="M433.23,-127.9C442.97,-127.33 452.99,-126.73 462.75,-126.16"/>
<polygon fill="#63b8ff" stroke="#63b8ff" points="463.03,-129.65 472.81,-125.56 462.62,-122.66 463.03,-129.65"/>
</g>
<!-- Node15 -->
<g id="node15" class="node">
<title>Node15</title>
<g id="a_node15"><a xlink:href="namespacea60_1_1carto.html#af59ef7858ef576e7f17b781f38436f28" target="_top" xlink:title=" ">
<polygon fill="white" stroke="#666666" points="424,-25.5 302,-25.5 302,-8.5 424,-8.5 424,-25.5"/>
<text text-anchor="middle" x="363" y="-15.1" font-family="SourceSans" font-size="8.00">a60::carto::frame_margin</text>
</a>
</g>
</g>
<!-- Node14&#45;&gt;Node15 -->
<g id="edge20" class="edge">
<title>Node14&#45;&gt;Node15</title>
<path fill="none" stroke="#63b8ff" d="M249.35,-43.9C271.07,-38.71 295.76,-32.82 316.48,-27.87"/>
<polygon fill="#63b8ff" stroke="#63b8ff" points="317.38,-31.25 326.29,-25.53 315.76,-24.45 317.38,-31.25"/>
</g>
<!-- Node16 -->
<g id="node16" class="node">
<title>Node16</title>
<g id="a_node16"><a xlink:href="structa60_1_1collection.html#a4b5f4e6148e18b08ccc033e200327cdf" target="_top" xlink:title="Display/output name for torrent collection, including partition, episode/multiepisode,...">
<polygon fill="white" stroke="#666666" points="418,-70 308,-70 308,-44 418,-44 418,-70"/>
<text text-anchor="start" x="316" y="-59.6" font-family="SourceSans" font-size="8.00">a60::collection::media</text>
<text text-anchor="middle" x="363" y="-50.6" font-family="SourceSans" font-size="8.00">_object_name</text>
</a>
</g>
</g>
<!-- Node14&#45;&gt;Node16 -->
<g id="edge21" class="edge">
<title>Node14&#45;&gt;Node16</title>
<path fill="none" stroke="#63b8ff" d="M253.08,-57C267.57,-57 283.17,-57 297.9,-57"/>
<polygon fill="#63b8ff" stroke="#63b8ff" points="297.94,-60.5 307.94,-57 297.94,-53.5 297.94,-60.5"/>
</g>
</g>
</svg>
        <g id="navigator" transform="translate(0 0)" fill="#404254">
                <rect fill="#f2f5e9" fill-opacity="0.5" stroke="#606060" stroke-width=".5" x="0" y="0" width="60" height="60"/>
                <use id="zoomplus" xlink:href="#zoomPlus" x="17" y="9" onmousedown="handleZoom(evt,'in')"/>
                <use id="zoomminus" xlink:href="#zoomMin" x="42" y="9" onmousedown="handleZoom(evt,'out')"/>
                <use id="reset" xlink:href="#resetDef" x="30" y="36" onmousedown="handleReset()"/>
                <g id="arrowUp" xlink:href="#dirArrow" transform="translate(30 24)" onmousedown="handlePan(0,-1)">
                  <use xlink:href="#rim" fill="#404040">
                        <set attributeName="fill" to="#808080" begin="arrowUp.mouseover" end="arrowUp.mouseout"/>
                  </use>
                  <path fill="none" stroke="white" stroke-width="1.5" d="M0,-3.0v7 M-2.5,-0.5L0,-3.0L2.5,-0.5"/>
                </g>
                <g id="arrowRight" xlink:href="#dirArrow" transform="rotate(90) translate(36 -43)" onmousedown="handlePan(1,0)">
                  <use xlink:href="#rim" fill="#404040">
                        <set attributeName="fill" to="#808080" begin="arrowRight.mouseover" end="arrowRight.mouseout"/>
                  </use>
                  <path fill="none" stroke="white" stroke-width="1.5" d="M0,-3.0v7 M-2.5,-0.5L0,-3.0L2.5,-0.5"/>
                </g>
                <g id="arrowDown" xlink:href="#dirArrow" transform="rotate(180) translate(-30 -48)" onmousedown="handlePan(0,1)">
                  <use xlink:href="#rim" fill="#404040">
                        <set attributeName="fill" to="#808080" begin="arrowDown.mouseover" end="arrowDown.mouseout"/>
                  </use>
                  <path fill="none" stroke="white" stroke-width="1.5" d="M0,-3.0v7 M-2.5,-0.5L0,-3.0L2.5,-0.5"/>
                </g>
                <g id="arrowLeft" xlink:href="#dirArrow" transform="rotate(270) translate(-36 17)" onmousedown="handlePan(-1,0)">
                  <use xlink:href="#rim" fill="#404040">
                        <set attributeName="fill" to="#808080" begin="arrowLeft.mouseover" end="arrowLeft.mouseout"/>
                  </use>
                  <path fill="none" stroke="white" stroke-width="1.5" d="M0,-3.0v7 M-2.5,-0.5L0,-3.0L2.5,-0.5"/>
                </g>
        </g>
        <svg viewBox="0 0 15 15" width="100%" height="30px" preserveAspectRatio="xMaxYMin meet">
         <g id="arrow_out" transform="scale(0.3 0.3)">
          <a xlink:href="namespacea60_a4f31c405cc12cd3115220cbcb3469650_cgraph_org.svg" target="_base">
           <rect id="button" ry="5" rx="5" y="6" x="6" height="38" width="38"
                fill="#f2f5e9" fill-opacity="0.5" stroke="#606060" stroke-width="1.0"/>
           <path id="arrow"
             d="M 11.500037,31.436501 C 11.940474,20.09759 22.043105,11.32322 32.158766,21.979434 L 37.068811,17.246167 C 37.068811,17.246167 37.088388,32 37.088388,32 L 22.160133,31.978069 C 22.160133,31.978069 26.997745,27.140456 26.997745,27.140456 C 18.528582,18.264221 13.291696,25.230495 11.500037,31.436501 z"
             style="fill:#404040;"/>
          </a>
         </g>
        </svg>
</svg>
