<?xml version="1.0" encoding="UTF-8" standalone="no"?>
<!DOCTYPE svg PUBLIC "-//W3C//DTD SVG 1.1//EN"
 "http://www.w3.org/Graphics/SVG/1.1/DTD/svg11.dtd">
<!-- Generated by graphviz version 5.0.0 (0)
 -->
<!-- Title: a60::coalesce_torrents_per_day Pages: 1 -->
<svg width="907pt" height="414pt"
 viewBox="0.00 0.00 907.00 413.50" xmlns="http://www.w3.org/2000/svg" xmlns:xlink="http://www.w3.org/1999/xlink">
<g id="graph0" class="graph" transform="scale(1 1) rotate(0) translate(4 409.5)">
<title>a60::coalesce_torrents_per_day</title>
<!-- Node1 -->
<g id="node1" class="node">
<title>Node1</title>
<g id="a_node1"><a xlink:title="Coalesce per day.">
<polygon fill="#999999" stroke="#666666" points="110,-178 0,-178 0,-152 110,-152 110,-178"/>
<text text-anchor="start" x="8" y="-167.6" font-family="SourceSans" font-size="8.00">a60::coalesce_torrents</text>
<text text-anchor="middle" x="55" y="-158.6" font-family="SourceSans" font-size="8.00">_per_day</text>
</a>
</g>
</g>
<!-- Node2 -->
<g id="node2" class="node">
<title>Node2</title>
<g id="a_node2"><a xlink:href="structa60_1_1collection.html#a7f30fa0063ad1433476a3fbb3ba689a6" target="_top" xlink:title=" ">
<polygon fill="white" stroke="#666666" points="268,-370 159,-370 159,-344 268,-344 268,-370"/>
<text text-anchor="start" x="167" y="-359.6" font-family="SourceSans" font-size="8.00">a60::collection::cache</text>
<text text-anchor="middle" x="213.5" y="-350.6" font-family="SourceSans" font-size="8.00">_files_by</text>
</a>
</g>
</g>
<!-- Node1&#45;&gt;Node2 -->
<g id="edge1" class="edge">
<title>Node1&#45;&gt;Node2</title>
<path fill="none" stroke="#63b8ff" d="M64.26,-178.05C79.36,-201.53 112.91,-252.09 146,-291 159.92,-307.37 177.18,-324.41 190.62,-337.08"/>
<polygon fill="#63b8ff" stroke="#63b8ff" points="188.34,-339.74 198.04,-344 193.11,-334.62 188.34,-339.74"/>
</g>
<!-- Node6 -->
<g id="node6" class="node">
<title>Node6</title>
<g id="a_node6"><a xlink:href="namespacea60.html#af45982273a7a2e61b6aaa436081238c0" target="_top" xlink:title="Load JSON file to in&#45;memory DOM.">
<polygon fill="white" stroke="#666666" points="265.5,-200 161.5,-200 161.5,-174 265.5,-174 265.5,-200"/>
<text text-anchor="start" x="169.5" y="-189.6" font-family="SourceSans" font-size="8.00">a60::deserialize_json</text>
<text text-anchor="middle" x="213.5" y="-180.6" font-family="SourceSans" font-size="8.00">_to_dom_object</text>
</a>
</g>
</g>
<!-- Node1&#45;&gt;Node6 -->
<g id="edge5" class="edge">
<title>Node1&#45;&gt;Node6</title>
<path fill="none" stroke="#63b8ff" d="M110.3,-172.63C123.52,-174.49 137.76,-176.49 151.28,-178.39"/>
<polygon fill="#63b8ff" stroke="#63b8ff" points="151.07,-181.9 161.46,-179.82 152.04,-174.97 151.07,-181.9"/>
</g>
<!-- Node8 -->
<g id="node8" class="node">
<title>Node8</title>
<g id="a_node8"><a xlink:href="structa60_1_1collection.html#af04bc78a8049450c52a9460f5ae6b4cc" target="_top" xlink:title=" ">
<polygon fill="white" stroke="#666666" points="263.5,-156 163.5,-156 163.5,-130 263.5,-130 263.5,-156"/>
<text text-anchor="start" x="171.5" y="-145.6" font-family="SourceSans" font-size="8.00">a60::collection::find</text>
<text text-anchor="middle" x="213.5" y="-136.6" font-family="SourceSans" font-size="8.00">_data_dates</text>
</a>
</g>
</g>
<!-- Node1&#45;&gt;Node8 -->
<g id="edge7" class="edge">
<title>Node1&#45;&gt;Node8</title>
<path fill="none" stroke="#63b8ff" d="M110.3,-157.37C124.15,-155.42 139.11,-153.32 153.2,-151.34"/>
<polygon fill="#63b8ff" stroke="#63b8ff" points="153.86,-154.78 163.28,-149.92 152.89,-147.85 153.86,-154.78"/>
</g>
<!-- Node16 -->
<g id="node16" class="node">
<title>Node16</title>
<g id="a_node16"><a xlink:href="structa60_1_1collection.html#a899f781ad983b2ec1f0da35a5d3f8b54" target="_top" xlink:title=" ">
<polygon fill="white" stroke="#666666" points="591.5,-250.5 476.5,-250.5 476.5,-215.5 591.5,-215.5 591.5,-250.5"/>
<text text-anchor="start" x="484.5" y="-240.1" font-family="SourceSans" font-size="8.00">a60::collection::mangle</text>
<text text-anchor="start" x="484.5" y="-231.1" font-family="SourceSans" font-size="8.00">_duration_significant</text>
<text text-anchor="middle" x="534" y="-222.1" font-family="SourceSans" font-size="8.00">_digits</text>
</a>
</g>
</g>
<!-- Node1&#45;&gt;Node16 -->
<g id="edge19" class="edge">
<title>Node1&#45;&gt;Node16</title>
<path fill="none" stroke="#63b8ff" d="M76.89,-178.16C94.57,-188.56 120.95,-202.38 146,-209 255.47,-237.93 388.15,-239.2 466.29,-236.67"/>
<polygon fill="#63b8ff" stroke="#63b8ff" points="466.6,-240.17 476.47,-236.31 466.36,-233.17 466.6,-240.17"/>
</g>
<!-- Node17 -->
<g id="node17" class="node">
<title>Node17</title>
<g id="a_node17"><a xlink:href="structa60_1_1collection.html#a3780f3266ff2355e74b737a201c89116" target="_top" xlink:title=" ">
<polygon fill="white" stroke="#666666" points="271,-282 156,-282 156,-256 271,-256 271,-282"/>
<text text-anchor="start" x="164" y="-271.6" font-family="SourceSans" font-size="8.00">a60::collection::mangle</text>
<text text-anchor="middle" x="213.5" y="-262.6" font-family="SourceSans" font-size="8.00">_tid_match_id</text>
</a>
</g>
</g>
<!-- Node1&#45;&gt;Node17 -->
<g id="edge20" class="edge">
<title>Node1&#45;&gt;Node17</title>
<path fill="none" stroke="#63b8ff" d="M68.66,-178.2C85.19,-194.84 115.61,-223.51 146,-242 151.86,-245.57 158.28,-248.85 164.75,-251.81"/>
<polygon fill="#63b8ff" stroke="#63b8ff" points="163.63,-255.14 174.19,-255.9 166.41,-248.71 163.63,-255.14"/>
</g>
<!-- Node23 -->
<g id="node23" class="node">
<title>Node23</title>
<g id="a_node23"><a xlink:href="namespacea60.html#a481196ce0dd2fed071183fa6e47ecd70" target="_top" xlink:title="Write out meta_peers for a specific ID at SUFFIX.">
<polygon fill="white" stroke="#666666" points="281,-111.5 146,-111.5 146,-94.5 281,-94.5 281,-111.5"/>
<text text-anchor="middle" x="213.5" y="-101.1" font-family="SourceSans" font-size="8.00">a60::reserialize_sample_json</text>
</a>
</g>
</g>
<!-- Node1&#45;&gt;Node23 -->
<g id="edge28" class="edge">
<title>Node1&#45;&gt;Node23</title>
<path fill="none" stroke="#63b8ff" d="M79.52,-151.96C97.36,-142.45 122.72,-129.75 146,-121 152.39,-118.6 159.24,-116.37 166.03,-114.36"/>
<polygon fill="#63b8ff" stroke="#63b8ff" points="167.2,-117.67 175.86,-111.58 165.29,-110.93 167.2,-117.67"/>
</g>
<!-- Node30 -->
<g id="node30" class="node">
<title>Node30</title>
<g id="a_node30"><a xlink:href="namespacea60.html#a800a2e54e8f2d2481c4bb2fb929dba7f" target="_top" xlink:title="Search DOM for integer values.">
<polygon fill="white" stroke="#666666" points="265,-76 162,-76 162,-50 265,-50 265,-76"/>
<text text-anchor="start" x="170" y="-65.6" font-family="SourceSans" font-size="8.00">a60::search_dom_for</text>
<text text-anchor="middle" x="213.5" y="-56.6" font-family="SourceSans" font-size="8.00">_int_field</text>
</a>
</g>
</g>
<!-- Node1&#45;&gt;Node30 -->
<g id="edge35" class="edge">
<title>Node1&#45;&gt;Node30</title>
<path fill="none" stroke="#63b8ff" d="M67.88,-151.77C84.04,-134.49 114.55,-104.29 146,-86 149.68,-83.86 153.6,-81.87 157.61,-80.04"/>
<polygon fill="#63b8ff" stroke="#63b8ff" points="159.24,-83.16 167.09,-76.05 156.52,-76.7 159.24,-83.16"/>
</g>
<!-- Node31 -->
<g id="node31" class="node">
<title>Node31</title>
<g id="a_node31"><a xlink:href="namespacea60.html#a6ce8704ec3c4d5e258d062283dd40efb" target="_top" xlink:title="Search DOM for meta_peer(s).">
<polygon fill="white" stroke="#666666" points="265,-32 162,-32 162,-6 265,-6 265,-32"/>
<text text-anchor="start" x="170" y="-21.6" font-family="SourceSans" font-size="8.00">a60::search_dom_for</text>
<text text-anchor="middle" x="213.5" y="-12.6" font-family="SourceSans" font-size="8.00">_meta_peers</text>
</a>
</g>
</g>
<!-- Node1&#45;&gt;Node31 -->
<g id="edge36" class="edge">
<title>Node1&#45;&gt;Node31</title>
<path fill="none" stroke="#63b8ff" d="M62.14,-151.67C74.45,-126.39 104.55,-71.3 146,-41 148.1,-39.46 150.32,-38.03 152.62,-36.69"/>
<polygon fill="#63b8ff" stroke="#63b8ff" points="154.5,-39.66 161.81,-31.99 151.31,-33.43 154.5,-39.66"/>
</g>
<!-- Node3 -->
<g id="node3" class="node">
<title>Node3</title>
<g id="a_node3"><a xlink:href="namespacea60_1_1io.html#aea30b8fc474f5a7b922516dc1e199037" target="_top" xlink:title="Takes a string representing a directory, returns a sorted list of contents as a std::vector&lt;string&gt;.">
<polygon fill="white" stroke="#666666" points="430,-405.5 320,-405.5 320,-388.5 430,-388.5 430,-405.5"/>
<text text-anchor="middle" x="375" y="-395.1" font-family="SourceSans" font-size="8.00">a60::io::populate_files</text>
</a>
</g>
</g>
<!-- Node2&#45;&gt;Node3 -->
<g id="edge2" class="edge">
<title>Node2&#45;&gt;Node3</title>
<path fill="none" stroke="#63b8ff" d="M266.73,-370.1C287.15,-375.22 310.32,-381.03 329.89,-385.94"/>
<polygon fill="#63b8ff" stroke="#63b8ff" points="329.21,-389.38 339.76,-388.41 330.91,-382.59 329.21,-389.38"/>
</g>
<!-- Node4 -->
<g id="node4" class="node">
<title>Node4</title>
<g id="a_node4"><a xlink:href="structa60_1_1collection.html#a481d8e6e9ea5f9cb136846d75b0f50c4" target="_top" xlink:title=" ">
<polygon fill="white" stroke="#666666" points="432,-370 318,-370 318,-344 432,-344 432,-370"/>
<text text-anchor="start" x="326" y="-359.6" font-family="SourceSans" font-size="8.00">a60::collection::remove</text>
<text text-anchor="middle" x="375" y="-350.6" font-family="SourceSans" font-size="8.00">_matching_strings</text>
</a>
</g>
</g>
<!-- Node2&#45;&gt;Node4 -->
<g id="edge3" class="edge">
<title>Node2&#45;&gt;Node4</title>
<path fill="none" stroke="#63b8ff" d="M268.05,-357C280.82,-357 294.59,-357 307.85,-357"/>
<polygon fill="#63b8ff" stroke="#63b8ff" points="307.86,-360.5 317.86,-357 307.86,-353.5 307.86,-360.5"/>
</g>
<!-- Node5 -->
<g id="node5" class="node">
<title>Node5</title>
<g id="a_node5"><a xlink:href="namespacea60.html#ac7eddb2e330d8983ddc852edde5335c5" target="_top" xlink:title=" ">
<polygon fill="white" stroke="#666666" points="593.5,-365.5 474.5,-365.5 474.5,-348.5 593.5,-348.5 593.5,-365.5"/>
<text text-anchor="middle" x="534" y="-355.1" font-family="SourceSans" font-size="8.00">a60::to_lowercase_string</text>
</a>
</g>
</g>
<!-- Node4&#45;&gt;Node5 -->
<g id="edge4" class="edge">
<title>Node4&#45;&gt;Node5</title>
<path fill="none" stroke="#63b8ff" d="M432.24,-357C442.57,-357 453.47,-357 464.12,-357"/>
<polygon fill="#63b8ff" stroke="#63b8ff" points="464.24,-360.5 474.24,-357 464.24,-353.5 464.24,-360.5"/>
</g>
<!-- Node7 -->
<g id="node7" class="node">
<title>Node7</title>
<g id="a_node7"><a xlink:href="namespacea60.html#a538d43bb9bfa488a54cea929736dbe2d" target="_top" xlink:title="Deserialize input file.">
<polygon fill="white" stroke="#666666" points="427,-200 323,-200 323,-174 427,-174 427,-200"/>
<text text-anchor="start" x="331" y="-189.6" font-family="SourceSans" font-size="8.00">a60::deserialize_json</text>
<text text-anchor="middle" x="375" y="-180.6" font-family="SourceSans" font-size="8.00">_to_dom</text>
</a>
</g>
</g>
<!-- Node6&#45;&gt;Node7 -->
<g id="edge6" class="edge">
<title>Node6&#45;&gt;Node7</title>
<path fill="none" stroke="#63b8ff" d="M265.84,-187C280.79,-187 297.26,-187 312.74,-187"/>
<polygon fill="#63b8ff" stroke="#63b8ff" points="312.75,-190.5 322.75,-187 312.75,-183.5 312.75,-190.5"/>
</g>
<!-- Node9 -->
<g id="node9" class="node">
<title>Node9</title>
<g id="a_node9"><a xlink:href="structa60_1_1collection.html#a61604643dbeea09b4fb20d6db5658b91" target="_top" xlink:title=" ">
<polygon fill="white" stroke="#666666" points="425,-156 325,-156 325,-130 425,-130 425,-156"/>
<text text-anchor="start" x="333" y="-145.6" font-family="SourceSans" font-size="8.00">a60::collection::find</text>
<text text-anchor="middle" x="375" y="-136.6" font-family="SourceSans" font-size="8.00">_data_dates_times</text>
</a>
</g>
</g>
<!-- Node8&#45;&gt;Node9 -->
<g id="edge8" class="edge">
<title>Node8&#45;&gt;Node9</title>
<path fill="none" stroke="#63b8ff" d="M263.66,-143C279.73,-143 297.75,-143 314.5,-143"/>
<polygon fill="#63b8ff" stroke="#63b8ff" points="314.73,-146.5 324.73,-143 314.73,-139.5 314.73,-146.5"/>
</g>
<!-- Node10 -->
<g id="node10" class="node">
<title>Node10</title>
<g id="a_node10"><a xlink:href="structa60_1_1collection.html#a772cab0c0123491c08a92fce4cf0eacb" target="_top" xlink:title=" ">
<polygon fill="white" stroke="#666666" points="759,-118 635,-118 635,-92 759,-92 759,-118"/>
<text text-anchor="start" x="643" y="-107.6" font-family="SourceSans" font-size="8.00">a60::collection::collection</text>
<text text-anchor="middle" x="697" y="-98.6" font-family="SourceSans" font-size="8.00">_archive_directory</text>
</a>
</g>
</g>
<!-- Node9&#45;&gt;Node10 -->
<g id="edge9" class="edge">
<title>Node9&#45;&gt;Node10</title>
<path fill="none" stroke="#63b8ff" d="M425.31,-139.91C470.6,-136.76 539.5,-131.17 599,-123 607.35,-121.85 616.08,-120.48 624.73,-119.01"/>
<polygon fill="#63b8ff" stroke="#63b8ff" points="625.57,-122.42 634.82,-117.25 624.37,-115.52 625.57,-122.42"/>
</g>
<!-- Node13 -->
<g id="node13" class="node">
<title>Node13</title>
<g id="a_node13"><a xlink:href="structa60_1_1collection.html#abc4d01b1b17d4622939cb6c5c0f9b38b" target="_top" xlink:title=" ">
<polygon fill="white" stroke="#666666" points="592,-196 476,-196 476,-170 592,-170 592,-196"/>
<text text-anchor="start" x="484" y="-185.6" font-family="SourceSans" font-size="8.00">a60::collection::prune</text>
<text text-anchor="middle" x="534" y="-176.6" font-family="SourceSans" font-size="8.00">_archive_sub_directories</text>
</a>
</g>
</g>
<!-- Node9&#45;&gt;Node13 -->
<g id="edge12" class="edge">
<title>Node9&#45;&gt;Node13</title>
<path fill="none" stroke="#63b8ff" d="M425.25,-155.55C440,-159.31 456.36,-163.47 471.79,-167.4"/>
<polygon fill="#63b8ff" stroke="#63b8ff" points="471.21,-170.87 481.76,-169.95 472.94,-164.09 471.21,-170.87"/>
</g>
<!-- Node11 -->
<g id="node11" class="node">
<title>Node11</title>
<g id="a_node11"><a xlink:href="namespacea60_1_1io.html#a16f17ea9e02c1975ca17b77e46cf7629" target="_top" xlink:title="Make sure a path ends in &#39;/&#39;;.">
<polygon fill="white" stroke="#666666" points="892,-231.5 802,-231.5 802,-214.5 892,-214.5 892,-231.5"/>
<text text-anchor="middle" x="847" y="-221.1" font-family="SourceSans" font-size="8.00">a60::io::end_path</text>
</a>
</g>
</g>
<!-- Node10&#45;&gt;Node11 -->
<g id="edge10" class="edge">
<title>Node10&#45;&gt;Node11</title>
<path fill="none" stroke="#63b8ff" d="M714.4,-118.08C742.08,-140.14 797.88,-184.63 827.13,-207.95"/>
<polygon fill="#63b8ff" stroke="#63b8ff" points="824.96,-210.7 834.96,-214.2 829.33,-205.23 824.96,-210.7"/>
</g>
<!-- Node12 -->
<g id="node12" class="node">
<title>Node12</title>
<g id="a_node12"><a xlink:href="namespacea60_1_1io.html#ac95e5271a27a23bc2336d84b3f821fa2" target="_top" xlink:title="Constant filesystem and run&#45;time resources.">
<polygon fill="white" stroke="#666666" points="899,-138 795,-138 795,-112 899,-112 899,-138"/>
<text text-anchor="start" x="803" y="-127.6" font-family="SourceSans" font-size="8.00">a60::io::get_run_time</text>
<text text-anchor="middle" x="847" y="-118.6" font-family="SourceSans" font-size="8.00">_resources</text>
</a>
</g>
</g>
<!-- Node10&#45;&gt;Node12 -->
<g id="edge11" class="edge">
<title>Node10&#45;&gt;Node12</title>
<path fill="none" stroke="#63b8ff" d="M759.05,-113.25C767.64,-114.41 776.46,-115.6 785.04,-116.76"/>
<polygon fill="#63b8ff" stroke="#63b8ff" points="784.6,-120.23 794.98,-118.11 785.54,-113.3 784.6,-120.23"/>
</g>
<!-- Node13&#45;&gt;Node10 -->
<g id="edge13" class="edge">
<title>Node13&#45;&gt;Node10</title>
<path fill="none" stroke="#63b8ff" d="M569.44,-169.87C579.17,-165.79 589.65,-161.03 599,-156 615.93,-146.89 618.15,-141.26 635,-132 641.14,-128.63 647.78,-125.34 654.34,-122.29"/>
<polygon fill="#63b8ff" stroke="#63b8ff" points="656.17,-125.31 663.84,-118 653.29,-118.93 656.17,-125.31"/>
</g>
<!-- Node13&#45;&gt;Node11 -->
<g id="edge14" class="edge">
<title>Node13&#45;&gt;Node11</title>
<path fill="none" stroke="#63b8ff" d="M581.02,-196.1C587.43,-199.08 593.64,-202.68 599,-207 622.02,-225.58 609.03,-248.82 635,-263 696.96,-296.82 782.67,-258.74 823.12,-236.61"/>
<polygon fill="#63b8ff" stroke="#63b8ff" points="824.95,-239.6 831.94,-231.64 821.51,-233.5 824.95,-239.6"/>
</g>
<!-- Node13&#45;&gt;Node12 -->
<g id="edge15" class="edge">
<title>Node13&#45;&gt;Node12</title>
<path fill="none" stroke="#63b8ff" d="M592.04,-172.36C646.68,-162.17 728.88,-146.84 784.85,-136.4"/>
<polygon fill="#63b8ff" stroke="#63b8ff" points="785.8,-139.79 794.99,-134.51 784.52,-132.91 785.8,-139.79"/>
</g>
<!-- Node14 -->
<g id="node14" class="node">
<title>Node14</title>
<g id="a_node14"><a xlink:href="namespacea60_1_1constants.html#ac27c77e4606552ae5f74a1c21dd9258e" target="_top" xlink:title=" ">
<polygon fill="white" stroke="#666666" points="755.5,-191.5 638.5,-191.5 638.5,-174.5 755.5,-174.5 755.5,-191.5"/>
<text text-anchor="middle" x="697" y="-181.1" font-family="SourceSans" font-size="8.00">a60::constants::newline</text>
</a>
</g>
</g>
<!-- Node13&#45;&gt;Node14 -->
<g id="edge16" class="edge">
<title>Node13&#45;&gt;Node14</title>
<path fill="none" stroke="#63b8ff" d="M592.22,-183C603.94,-183 616.38,-183 628.43,-183"/>
<polygon fill="#63b8ff" stroke="#63b8ff" points="628.43,-186.5 638.43,-183 628.43,-179.5 628.43,-186.5"/>
</g>
<!-- Node15 -->
<g id="node15" class="node">
<title>Node15</title>
<g id="a_node15"><a xlink:href="namespacea60_1_1io.html#afbc9bd4e46187119419128390e16a033" target="_top" xlink:title="Takes a string representing a directory, returns a list of contents as a std::vector&lt;string&gt;.">
<polygon fill="white" stroke="#666666" points="750.5,-236 643.5,-236 643.5,-210 750.5,-210 750.5,-236"/>
<text text-anchor="start" x="651.5" y="-225.6" font-family="SourceSans" font-size="8.00">a60::io::populate_sub</text>
<text text-anchor="middle" x="697" y="-216.6" font-family="SourceSans" font-size="8.00">_directories</text>
</a>
</g>
</g>
<!-- Node13&#45;&gt;Node15 -->
<g id="edge17" class="edge">
<title>Node13&#45;&gt;Node15</title>
<path fill="none" stroke="#63b8ff" d="M587.72,-196.1C602.39,-199.74 618.46,-203.74 633.63,-207.5"/>
<polygon fill="#63b8ff" stroke="#63b8ff" points="632.89,-210.93 643.44,-209.94 634.58,-204.13 632.89,-210.93"/>
</g>
<!-- Node15&#45;&gt;Node15 -->
<g id="edge18" class="edge">
<title>Node15&#45;&gt;Node15</title>
<path fill="none" stroke="#63b8ff" d="M671.62,-236.06C663.93,-245.1 672.39,-254 697,-254 712,-254 721,-250.69 724,-246.07"/>
<polygon fill="#63b8ff" stroke="#63b8ff" points="727.43,-245.37 722.38,-236.06 720.52,-246.49 727.43,-245.37"/>
</g>
<!-- Node18 -->
<g id="node18" class="node">
<title>Node18</title>
<g id="a_node18"><a xlink:href="structa60_1_1collection.html#ab234addb5725bb5900b44f55ec1aae10" target="_top" xlink:title=" ">
<polygon fill="white" stroke="#666666" points="432.5,-282 317.5,-282 317.5,-256 432.5,-256 432.5,-282"/>
<text text-anchor="start" x="325.5" y="-271.6" font-family="SourceSans" font-size="8.00">a60::collection::mangle</text>
<text text-anchor="middle" x="375" y="-262.6" font-family="SourceSans" font-size="8.00">_with_id</text>
</a>
</g>
</g>
<!-- Node17&#45;&gt;Node18 -->
<g id="edge21" class="edge">
<title>Node17&#45;&gt;Node18</title>
<path fill="none" stroke="#63b8ff" d="M271.18,-269C282.94,-269 295.42,-269 307.49,-269"/>
<polygon fill="#63b8ff" stroke="#63b8ff" points="307.5,-272.5 317.5,-269 307.5,-265.5 307.5,-272.5"/>
</g>
<!-- Node19 -->
<g id="node19" class="node">
<title>Node19</title>
<g id="a_node19"><a xlink:href="structa60_1_1collection.html#a80993af9aec8238db8e44da1e9a3c994" target="_top" xlink:title=" ">
<polygon fill="white" stroke="#666666" points="426.5,-326 323.5,-326 323.5,-300 426.5,-300 426.5,-326"/>
<text text-anchor="start" x="331.5" y="-315.6" font-family="SourceSans" font-size="8.00">a60::collection::slice</text>
<text text-anchor="middle" x="375" y="-306.6" font-family="SourceSans" font-size="8.00">_name_mangled</text>
</a>
</g>
</g>
<!-- Node17&#45;&gt;Node19 -->
<g id="edge23" class="edge">
<title>Node17&#45;&gt;Node19</title>
<path fill="none" stroke="#63b8ff" d="M261.92,-282.08C279.2,-286.85 298.92,-292.29 316.94,-297.26"/>
<polygon fill="#63b8ff" stroke="#63b8ff" points="316.19,-300.68 326.76,-299.97 318.05,-293.93 316.19,-300.68"/>
</g>
<!-- Node18&#45;&gt;Node16 -->
<g id="edge22" class="edge">
<title>Node18&#45;&gt;Node16</title>
<path fill="none" stroke="#63b8ff" d="M432.68,-256C443.69,-253.48 455.31,-250.81 466.6,-248.23"/>
<polygon fill="#63b8ff" stroke="#63b8ff" points="467.44,-251.62 476.4,-245.98 465.87,-244.8 467.44,-251.62"/>
</g>
<!-- Node19&#45;&gt;Node5 -->
<g id="edge25" class="edge">
<title>Node19&#45;&gt;Node5</title>
<path fill="none" stroke="#63b8ff" d="M422.68,-326.08C445,-332.34 471.44,-339.75 492.85,-345.75"/>
<polygon fill="#63b8ff" stroke="#63b8ff" points="492.03,-349.15 502.6,-348.48 493.92,-342.41 492.03,-349.15"/>
</g>
<!-- Node20 -->
<g id="node20" class="node">
<title>Node20</title>
<g id="a_node20"><a xlink:href="structa60_1_1collection.html#a25b35cf4ac39da89d868fe2cf41b5acd" target="_top" xlink:title=" ">
<polygon fill="white" stroke="#666666" points="599,-285.5 469,-285.5 469,-268.5 599,-268.5 599,-285.5"/>
<text text-anchor="middle" x="534" y="-275.1" font-family="SourceSans" font-size="8.00">a60::collection::slice_name</text>
</a>
</g>
</g>
<!-- Node19&#45;&gt;Node20 -->
<g id="edge24" class="edge">
<title>Node19&#45;&gt;Node20</title>
<path fill="none" stroke="#63b8ff" d="M426.54,-301.41C445.54,-297.06 467.05,-292.12 485.73,-287.84"/>
<polygon fill="#63b8ff" stroke="#63b8ff" points="486.54,-291.24 495.5,-285.6 484.97,-284.42 486.54,-291.24"/>
</g>
<!-- Node21 -->
<g id="node21" class="node">
<title>Node21</title>
<g id="a_node21"><a xlink:href="namespacea60.html#a11d9ffc210e8dca8410e7a5ad62deabc" target="_top" xlink:title=" ">
<polygon fill="white" stroke="#666666" points="590.5,-330 477.5,-330 477.5,-304 590.5,-304 590.5,-330"/>
<text text-anchor="start" x="485.5" y="-319.6" font-family="SourceSans" font-size="8.00">a60::to_replace_spaces</text>
<text text-anchor="middle" x="534" y="-310.6" font-family="SourceSans" font-size="8.00">_string</text>
</a>
</g>
</g>
<!-- Node19&#45;&gt;Node21 -->
<g id="edge26" class="edge">
<title>Node19&#45;&gt;Node21</title>
<path fill="none" stroke="#63b8ff" d="M426.54,-314.29C439.47,-314.62 453.56,-314.98 467.14,-315.32"/>
<polygon fill="#63b8ff" stroke="#63b8ff" points="467.3,-318.83 477.39,-315.58 467.48,-311.83 467.3,-318.83"/>
</g>
<!-- Node22 -->
<g id="node22" class="node">
<title>Node22</title>
<g id="a_node22"><a xlink:href="namespacea60.html#a751f954fe64233f1dc6517220e4b5692" target="_top" xlink:title=" ">
<polygon fill="white" stroke="#666666" points="750.5,-327.5 643.5,-327.5 643.5,-310.5 750.5,-310.5 750.5,-327.5"/>
<text text-anchor="middle" x="697" y="-317.1" font-family="SourceSans" font-size="8.00">a60::to_replace_string</text>
</a>
</g>
</g>
<!-- Node21&#45;&gt;Node22 -->
<g id="edge27" class="edge">
<title>Node21&#45;&gt;Node22</title>
<path fill="none" stroke="#63b8ff" d="M590.86,-317.69C604.6,-317.86 619.4,-318.05 633.43,-318.22"/>
<polygon fill="#63b8ff" stroke="#63b8ff" points="633.45,-321.72 643.49,-318.35 633.53,-314.72 633.45,-321.72"/>
</g>
<!-- Node24 -->
<g id="node24" class="node">
<title>Node24</title>
<g id="a_node24"><a xlink:href="namespacea60.html#aba8b47de875bd5bebeed9c57e3b52c06" target="_top" xlink:title="Serialize buffer to output file.">
<polygon fill="white" stroke="#666666" points="425.5,-111.5 324.5,-111.5 324.5,-94.5 425.5,-94.5 425.5,-111.5"/>
<text text-anchor="middle" x="375" y="-101.1" font-family="SourceSans" font-size="8.00">a60::serialize_buffer</text>
</a>
</g>
</g>
<!-- Node23&#45;&gt;Node24 -->
<g id="edge29" class="edge">
<title>Node23&#45;&gt;Node24</title>
<path fill="none" stroke="#63b8ff" d="M281.22,-103C292.09,-103 303.29,-103 313.98,-103"/>
<polygon fill="#63b8ff" stroke="#63b8ff" points="314.05,-106.5 324.05,-103 314.05,-99.5 314.05,-106.5"/>
</g>
<!-- Node25 -->
<g id="node25" class="node">
<title>Node25</title>
<g id="a_node25"><a xlink:href="namespacea60.html#a94d004bc4c17246fd2bb76cabb121d9a" target="_top" xlink:title="Per collection metadata for given duration.">
<polygon fill="white" stroke="#666666" points="433,-76 317,-76 317,-50 433,-50 433,-76"/>
<text text-anchor="start" x="325" y="-65.6" font-family="SourceSans" font-size="8.00">a60::serialize_collection</text>
<text text-anchor="middle" x="375" y="-56.6" font-family="SourceSans" font-size="8.00">_metadata_json</text>
</a>
</g>
</g>
<!-- Node23&#45;&gt;Node25 -->
<g id="edge30" class="edge">
<title>Node23&#45;&gt;Node25</title>
<path fill="none" stroke="#63b8ff" d="M248.72,-94.42C267.21,-89.78 290.62,-83.91 312.18,-78.5"/>
<polygon fill="#63b8ff" stroke="#63b8ff" points="313.09,-81.88 321.94,-76.06 311.39,-75.09 313.09,-81.88"/>
</g>
<!-- Node28 -->
<g id="node28" class="node">
<title>Node28</title>
<g id="a_node28"><a xlink:href="namespacea60.html#a87cd73602b7d6cf64ef441200cfda504" target="_top" xlink:title="Serialize vector of meta_peer.">
<polygon fill="white" stroke="#666666" points="424,-30 326,-30 326,-4 424,-4 424,-30"/>
<text text-anchor="start" x="334" y="-19.6" font-family="SourceSans" font-size="8.00">a60::serialize_meta</text>
<text text-anchor="middle" x="375" y="-10.6" font-family="SourceSans" font-size="8.00">_peers_json</text>
</a>
</g>
</g>
<!-- Node23&#45;&gt;Node28 -->
<g id="edge33" class="edge">
<title>Node23&#45;&gt;Node28</title>
<path fill="none" stroke="#63b8ff" d="M260.81,-94.48C267.89,-92.06 274.88,-88.97 281,-85 302.21,-71.27 296.76,-56.13 317,-41 320.02,-38.75 323.27,-36.66 326.65,-34.74"/>
<polygon fill="#63b8ff" stroke="#63b8ff" points="328.51,-37.72 335.79,-30.03 325.3,-31.5 328.51,-37.72"/>
</g>
<!-- Node26 -->
<g id="node26" class="node">
<title>Node26</title>
<g id="a_node26"><a xlink:href="structa60_1_1collection.html#a8ac066ef3bb824d0ecff3b1238e358e4" target="_top" xlink:title=" ">
<polygon fill="white" stroke="#666666" points="583,-114 485,-114 485,-88 583,-88 583,-114"/>
<text text-anchor="start" x="493" y="-103.6" font-family="SourceSans" font-size="8.00">a60::collection::get</text>
<text text-anchor="middle" x="534" y="-94.6" font-family="SourceSans" font-size="8.00">_name_from_tid</text>
</a>
</g>
</g>
<!-- Node25&#45;&gt;Node26 -->
<g id="edge31" class="edge">
<title>Node25&#45;&gt;Node26</title>
<path fill="none" stroke="#63b8ff" d="M430.03,-76.08C444.52,-79.58 460.24,-83.39 474.93,-86.95"/>
<polygon fill="#63b8ff" stroke="#63b8ff" points="474.37,-90.41 484.91,-89.36 476.02,-83.61 474.37,-90.41"/>
</g>
<!-- Node27 -->
<g id="node27" class="node">
<title>Node27</title>
<g id="a_node27"><a xlink:href="namespacea60.html#a5491ff3ca7dc34407696caaa90828819" target="_top" xlink:title="First collection serialization, common for all writing.">
<polygon fill="white" stroke="#666666" points="592,-70 476,-70 476,-44 592,-44 592,-70"/>
<text text-anchor="start" x="484" y="-59.6" font-family="SourceSans" font-size="8.00">a60::serialize_collection</text>
<text text-anchor="middle" x="534" y="-50.6" font-family="SourceSans" font-size="8.00">_base_json</text>
</a>
</g>
</g>
<!-- Node25&#45;&gt;Node27 -->
<g id="edge32" class="edge">
<title>Node25&#45;&gt;Node27</title>
<path fill="none" stroke="#63b8ff" d="M433.12,-60.82C443.69,-60.41 454.81,-59.99 465.65,-59.57"/>
<polygon fill="#63b8ff" stroke="#63b8ff" points="466.06,-63.06 475.92,-59.18 465.79,-56.07 466.06,-63.06"/>
</g>
<!-- Node29 -->
<g id="node29" class="node">
<title>Node29</title>
<g id="a_node29"><a xlink:href="namespacea60.html#a2228baa081fe66cea91ed8032bda4732" target="_top" xlink:title="Serialize meta_peer.">
<polygon fill="white" stroke="#666666" points="583,-26 485,-26 485,0 583,0 583,-26"/>
<text text-anchor="start" x="493" y="-15.6" font-family="SourceSans" font-size="8.00">a60::serialize_meta</text>
<text text-anchor="middle" x="534" y="-6.6" font-family="SourceSans" font-size="8.00">_peer_json</text>
</a>
</g>
</g>
<!-- Node28&#45;&gt;Node29 -->
<g id="edge34" class="edge">
<title>Node28&#45;&gt;Node29</title>
<path fill="none" stroke="#63b8ff" d="M424.39,-15.77C440.28,-15.36 458.11,-14.91 474.66,-14.49"/>
<polygon fill="#63b8ff" stroke="#63b8ff" points="474.87,-17.98 484.77,-14.23 474.69,-10.98 474.87,-17.98"/>
</g>
</g>
</svg>
