<?xml version="1.0" encoding="UTF-8" standalone="no"?>
<!DOCTYPE svg PUBLIC "-//W3C//DTD SVG 1.1//EN"
 "http://www.w3.org/Graphics/SVG/1.1/DTD/svg11.dtd">
<!-- Generated by graphviz version 5.0.0 (0)
 -->
<!-- Title: a60::augment_ray_meta_peers Pages: 1 -->
<svg width="275pt" height="78pt"
 viewBox="0.00 0.00 275.00 78.00" xmlns="http://www.w3.org/2000/svg" xmlns:xlink="http://www.w3.org/1999/xlink">
<g id="graph0" class="graph" transform="scale(1 1) rotate(0) translate(4 74)">
<title>a60::augment_ray_meta_peers</title>
<!-- Node1 -->
<g id="node1" class="node">
<title>Node1</title>
<g id="a_node1"><a xlink:title=" ">
<polygon fill="#999999" stroke="#666666" points="116,-48 0,-48 0,-22 116,-22 116,-48"/>
<text text-anchor="start" x="8" y="-37.6" font-family="SourceSans" font-size="8.00">a60::augment_ray_meta</text>
<text text-anchor="middle" x="58" y="-28.6" font-family="SourceSans" font-size="8.00">_peers</text>
</a>
</g>
</g>
<!-- Node2 -->
<g id="node2" class="node">
<title>Node2</title>
<g id="a_node2"><a xlink:href="namespacea60.html#a63bf2b0abf68edc3f3e74a0811fe771b" target="_top" xlink:title="Error checking support. Null Island Check (aka latitude and longitude set to zero).">
<polygon fill="white" stroke="#666666" points="263,-70 156,-70 156,-44 263,-44 263,-70"/>
<text text-anchor="start" x="164" y="-59.6" font-family="SourceSans" font-size="8.00">a60::is_meta_peer_on</text>
<text text-anchor="middle" x="209.5" y="-50.6" font-family="SourceSans" font-size="8.00">_null_island</text>
</a>
</g>
</g>
<!-- Node1&#45;&gt;Node2 -->
<g id="edge1" class="edge">
<title>Node1&#45;&gt;Node2</title>
<path fill="none" stroke="#63b8ff" d="M116.37,-43.44C126.03,-44.86 136.09,-46.35 145.88,-47.78"/>
<polygon fill="#63b8ff" stroke="#63b8ff" points="145.53,-51.27 155.94,-49.26 146.55,-44.35 145.53,-51.27"/>
</g>
<!-- Node3 -->
<g id="node3" class="node">
<title>Node3</title>
<g id="a_node3"><a xlink:href="structa60_1_1carto_1_1cartography.html#a57e14cabb4993189316e369a27752a73" target="_top" xlink:title=" ">
<polygon fill="white" stroke="#666666" points="267,-26 152,-26 152,0 267,0 267,-26"/>
<text text-anchor="start" x="160" y="-15.6" font-family="SourceSans" font-size="8.00">a60::carto::cartography</text>
<text text-anchor="middle" x="209.5" y="-6.6" font-family="SourceSans" font-size="8.00">::to_point_2d</text>
</a>
</g>
</g>
<!-- Node1&#45;&gt;Node3 -->
<g id="edge2" class="edge">
<title>Node1&#45;&gt;Node3</title>
<path fill="none" stroke="#63b8ff" d="M116.37,-26.56C124.57,-25.35 133.06,-24.1 141.42,-22.87"/>
<polygon fill="#63b8ff" stroke="#63b8ff" points="142.14,-26.3 151.53,-21.38 141.12,-19.38 142.14,-26.3"/>
</g>
</g>
</svg>
