<?xml version="1.0" encoding="UTF-8" standalone="no"?>
<!DOCTYPE svg PUBLIC "-//W3C//DTD SVG 1.1//EN"
 "http://www.w3.org/Graphics/SVG/1.1/DTD/svg11.dtd">
<!-- Generated by graphviz version 5.0.0 (0)
 -->
<!-- Title: a60::is_meta_peer_lost Pages: 1 -->
<svg width="282pt" height="78pt"
 viewBox="0.00 0.00 282.00 78.00" xmlns="http://www.w3.org/2000/svg" xmlns:xlink="http://www.w3.org/1999/xlink">
<g id="graph0" class="graph" transform="scale(1 1) rotate(0) translate(4 74)">
<title>a60::is_meta_peer_lost</title>
<!-- Node1 -->
<g id="node1" class="node">
<title>Node1</title>
<g id="a_node1"><a xlink:title="IFF either of the above is true.">
<polygon fill="#999999" stroke="#666666" points="111,-43.5 0,-43.5 0,-26.5 111,-26.5 111,-43.5"/>
<text text-anchor="middle" x="55.5" y="-33.1" font-family="SourceSans" font-size="8.00">a60::is_meta_peer_lost</text>
</a>
</g>
</g>
<!-- Node2 -->
<g id="node2" class="node">
<title>Node2</title>
<g id="a_node2"><a xlink:href="namespacea60.html#a63bf2b0abf68edc3f3e74a0811fe771b" target="_top" xlink:title="Error checking support. Null Island Check (aka latitude and longitude set to zero).">
<polygon fill="white" stroke="#666666" points="264,-70 157,-70 157,-44 264,-44 264,-70"/>
<text text-anchor="start" x="165" y="-59.6" font-family="SourceSans" font-size="8.00">a60::is_meta_peer_on</text>
<text text-anchor="middle" x="210.5" y="-50.6" font-family="SourceSans" font-size="8.00">_null_island</text>
</a>
</g>
</g>
<!-- Node1&#45;&gt;Node2 -->
<g id="edge1" class="edge">
<title>Node1&#45;&gt;Node2</title>
<path fill="none" stroke="#63b8ff" d="M111.3,-42.88C122.78,-44.53 134.96,-46.28 146.7,-47.97"/>
<polygon fill="#63b8ff" stroke="#63b8ff" points="146.47,-51.47 156.87,-49.43 147.47,-44.54 146.47,-51.47"/>
</g>
<!-- Node3 -->
<g id="node3" class="node">
<title>Node3</title>
<g id="a_node3"><a xlink:href="namespacea60.html#a0ff511c579a9f94ffff788b1cd4ae864" target="_top" xlink:title="Null Country Check.">
<polygon fill="white" stroke="#666666" points="274,-26 147,-26 147,0 274,0 274,-26"/>
<text text-anchor="start" x="155" y="-15.6" font-family="SourceSans" font-size="8.00">a60::is_meta_peer_without</text>
<text text-anchor="middle" x="210.5" y="-6.6" font-family="SourceSans" font-size="8.00">_country</text>
</a>
</g>
</g>
<!-- Node1&#45;&gt;Node3 -->
<g id="edge2" class="edge">
<title>Node1&#45;&gt;Node3</title>
<path fill="none" stroke="#63b8ff" d="M111.3,-27.12C119.56,-25.93 128.19,-24.69 136.75,-23.46"/>
<polygon fill="#63b8ff" stroke="#63b8ff" points="137.35,-26.91 146.75,-22.02 136.35,-19.98 137.35,-26.91"/>
</g>
</g>
</svg>
