<?xml version="1.0" encoding="UTF-8" standalone="no"?>
<!DOCTYPE svg PUBLIC "-//W3C//DTD SVG 1.1//EN"
 "http://www.w3.org/Graphics/SVG/1.1/DTD/svg11.dtd">
<!-- Generated by graphviz version 5.0.0 (0)
 -->
<!-- Title: a60::augment_torrent_collection_glyphs_v5 Pages: 1 -->
<svg width="560pt" height="114pt"
 viewBox="0.00 0.00 560.00 114.00" xmlns="http://www.w3.org/2000/svg" xmlns:xlink="http://www.w3.org/1999/xlink">
<g id="graph0" class="graph" transform="scale(1 1) rotate(0) translate(4 110)">
<title>a60::augment_torrent_collection_glyphs_v5</title>
<!-- Node1 -->
<g id="node1" class="node">
<title>Node1</title>
<g id="a_node1"><a xlink:title="v5 short files: stagger step info hash long names: 90 rotate top column. NB: Assumed that multi&#45;page ...">
<polygon fill="#999999" stroke="#666666" points="106,-66 0,-66 0,-40 106,-40 106,-66"/>
<text text-anchor="start" x="8" y="-55.6" font-family="SourceSans" font-size="8.00">a60::augment_torrent</text>
<text text-anchor="middle" x="53" y="-46.6" font-family="SourceSans" font-size="8.00">_collection_glyphs_v5</text>
</a>
</g>
</g>
<!-- Node2 -->
<g id="node2" class="node">
<title>Node2</title>
<g id="a_node2"><a xlink:href="namespacea60.html#a3c6dad07bcebd8445f8254ecef13c499" target="_top" xlink:title="v4h, horizontal fill stagger step info hash long file names">
<polygon fill="white" stroke="#666666" points="252,-88 142,-88 142,-62 252,-62 252,-88"/>
<text text-anchor="start" x="150" y="-77.6" font-family="SourceSans" font-size="8.00">a60::augment_torrent</text>
<text text-anchor="middle" x="197" y="-68.6" font-family="SourceSans" font-size="8.00">_collection_glyphs_v4h</text>
</a>
</g>
</g>
<!-- Node1&#45;&gt;Node2 -->
<g id="edge1" class="edge">
<title>Node1&#45;&gt;Node2</title>
<path fill="none" stroke="#63b8ff" d="M106.07,-61.07C114.38,-62.35 123.05,-63.7 131.6,-65.02"/>
<polygon fill="#63b8ff" stroke="#63b8ff" points="131.13,-68.49 141.55,-66.56 132.21,-61.57 131.13,-68.49"/>
</g>
<!-- Node5 -->
<g id="node5" class="node">
<title>Node5</title>
<g id="a_node5"><a xlink:href="namespacea60.html#af74628c9eb1ff204b92982d6352b47fa" target="_top" xlink:title="v4v, vertical fill stagger step info hash">
<polygon fill="white" stroke="#666666" points="251.5,-44 142.5,-44 142.5,-18 251.5,-18 251.5,-44"/>
<text text-anchor="start" x="150.5" y="-33.6" font-family="SourceSans" font-size="8.00">a60::augment_torrent</text>
<text text-anchor="middle" x="197" y="-24.6" font-family="SourceSans" font-size="8.00">_collection_glyphs_v4v</text>
</a>
</g>
</g>
<!-- Node1&#45;&gt;Node5 -->
<g id="edge4" class="edge">
<title>Node1&#45;&gt;Node5</title>
<path fill="none" stroke="#63b8ff" d="M106.07,-44.93C114.49,-43.63 123.29,-42.26 131.96,-40.92"/>
<polygon fill="#63b8ff" stroke="#63b8ff" points="132.68,-44.35 142.03,-39.36 131.61,-37.43 132.68,-44.35"/>
</g>
<!-- Node3 -->
<g id="node3" class="node">
<title>Node3</title>
<g id="a_node3"><a xlink:href="namespacea60.html#a16fc823eda0f1e7ba8a80a0a7a2bd413" target="_top" xlink:title="Ziggurat style for infohash datum layout: tid &#45; color &#45; name/btih/private.">
<polygon fill="white" stroke="#666666" points="402,-106 296,-106 296,-80 402,-80 402,-106"/>
<text text-anchor="start" x="304" y="-95.6" font-family="SourceSans" font-size="8.00">a60::augment_torrent</text>
<text text-anchor="middle" x="349" y="-86.6" font-family="SourceSans" font-size="8.00">_glyph_v4h</text>
</a>
</g>
</g>
<!-- Node2&#45;&gt;Node3 -->
<g id="edge2" class="edge">
<title>Node2&#45;&gt;Node3</title>
<path fill="none" stroke="#63b8ff" d="M252.15,-81.5C263.08,-82.81 274.64,-84.2 285.81,-85.54"/>
<polygon fill="#63b8ff" stroke="#63b8ff" points="285.59,-89.04 295.93,-86.75 286.42,-82.09 285.59,-89.04"/>
</g>
<!-- Node4 -->
<g id="node4" class="node">
<title>Node4</title>
<g id="a_node4"><a xlink:href="namespacea60_1_1carto.html#af59ef7858ef576e7f17b781f38436f28" target="_top" xlink:title=" ">
<polygon fill="white" stroke="#666666" points="410,-61.5 288,-61.5 288,-44.5 410,-44.5 410,-61.5"/>
<text text-anchor="middle" x="349" y="-51.1" font-family="SourceSans" font-size="8.00">a60::carto::frame_margin</text>
</a>
</g>
</g>
<!-- Node2&#45;&gt;Node4 -->
<g id="edge3" class="edge">
<title>Node2&#45;&gt;Node4</title>
<path fill="none" stroke="#63b8ff" d="M252.15,-67.06C261.15,-65.74 270.58,-64.35 279.87,-62.99"/>
<polygon fill="#63b8ff" stroke="#63b8ff" points="280.49,-66.44 289.87,-61.53 279.47,-59.51 280.49,-66.44"/>
</g>
<!-- Node5&#45;&gt;Node4 -->
<g id="edge7" class="edge">
<title>Node5&#45;&gt;Node4</title>
<path fill="none" stroke="#63b8ff" d="M251.73,-38.88C260.8,-40.21 270.33,-41.61 279.72,-42.99"/>
<polygon fill="#63b8ff" stroke="#63b8ff" points="279.42,-46.48 289.82,-44.47 280.43,-39.55 279.42,-46.48"/>
</g>
<!-- Node6 -->
<g id="node6" class="node">
<title>Node6</title>
<g id="a_node6"><a xlink:href="namespacea60.html#ab8c17046693e57506def23f3a977a8ab" target="_top" xlink:title="Ziggurat style for infohash datum layout: tid &#45; color &#45; name/btih/private.">
<polygon fill="white" stroke="#666666" points="402,-26 296,-26 296,0 402,0 402,-26"/>
<text text-anchor="start" x="304" y="-15.6" font-family="SourceSans" font-size="8.00">a60::augment_torrent</text>
<text text-anchor="middle" x="349" y="-6.6" font-family="SourceSans" font-size="8.00">_glyph_v4v</text>
</a>
</g>
</g>
<!-- Node5&#45;&gt;Node6 -->
<g id="edge5" class="edge">
<title>Node5&#45;&gt;Node6</title>
<path fill="none" stroke="#63b8ff" d="M251.73,-24.55C262.74,-23.23 274.41,-21.83 285.69,-20.48"/>
<polygon fill="#63b8ff" stroke="#63b8ff" points="286.39,-23.92 295.9,-19.25 285.56,-16.97 286.39,-23.92"/>
</g>
<!-- Node7 -->
<g id="node7" class="node">
<title>Node7</title>
<g id="a_node7"><a xlink:href="namespacea60.html#aa101f579d83d22aa64d69dcbd54789c3" target="_top" xlink:title=" ">
<polygon fill="white" stroke="#666666" points="552,-26 446,-26 446,0 552,0 552,-26"/>
<text text-anchor="start" x="454" y="-15.6" font-family="SourceSans" font-size="8.00">a60::augment_torrent</text>
<text text-anchor="middle" x="499" y="-6.6" font-family="SourceSans" font-size="8.00">_glyph_numbers</text>
</a>
</g>
</g>
<!-- Node6&#45;&gt;Node7 -->
<g id="edge6" class="edge">
<title>Node6&#45;&gt;Node7</title>
<path fill="none" stroke="#63b8ff" d="M402.18,-13C413.01,-13 424.53,-13 435.68,-13"/>
<polygon fill="#63b8ff" stroke="#63b8ff" points="435.79,-16.5 445.79,-13 435.79,-9.5 435.79,-16.5"/>
</g>
</g>
</svg>
