<?xml version="1.0" encoding="UTF-8" standalone="no"?>
<!DOCTYPE svg PUBLIC "-//W3C//DTD SVG 1.1//EN"
 "http://www.w3.org/Graphics/SVG/1.1/DTD/svg11.dtd">
<!-- Generated by graphviz version 5.0.0 (0)
 -->
<!-- Title: a60::augment_collection_by_partition Pages: 1 -->
<!--zoomable 663 -->
<svg id="main" version="1.1" xmlns="http://www.w3.org/2000/svg" xmlns:xlink="http://www.w3.org/1999/xlink" xml:space="preserve" onload="init(evt)">
<style type="text/css"><![CDATA[
.edge:hover path { stroke: red; }
.edge:hover polygon { stroke: red; fill: red; }
]]></style>
<script type="text/javascript"><![CDATA[
var edges = document.getElementsByTagName('g');
if (edges && edges.length) {
  for (var i=0;i<edges.length;i++) {
    if (edges[i].id.substr(0,4)=='edge') {
      edges[i].setAttribute('class','edge');
    }
  }
}
]]></script>
        <defs>
                <circle id="rim" cx="0" cy="0" r="7"/>
                <circle id="rim2" cx="0" cy="0" r="3.5"/>
                <g id="zoomPlus">
                        <use xlink:href="#rim" fill="#404040">
                                <set attributeName="fill" to="#808080" begin="zoomplus.mouseover" end="zoomplus.mouseout"/>
                        </use>
                        <path d="M-4,0h8M0,-4v8" fill="none" stroke="white" stroke-width="1.5" pointer-events="none"/>
                </g>
                <g id="zoomMin">
                        <use xlink:href="#rim" fill="#404040">
                                <set attributeName="fill" to="#808080" begin="zoomminus.mouseover" end="zoomminus.mouseout"/>
                        </use>
                        <path d="M-4,0h8" fill="none" stroke="white" stroke-width="1.5" pointer-events="none"/>
                </g>
                <g id="dirArrow">
                        <path fill="none" stroke="white" stroke-width="1.5" d="M0,-3.0v7 M-2.5,-0.5L0,-3.0L2.5,-0.5"/>
                </g>
               <g id="resetDef">
                       <use xlink:href="#rim2" fill="#404040">
                               <set attributeName="fill" to="#808080" begin="reset.mouseover" end="reset.mouseout"/>
                       </use>
               </g>
        </defs>

<script type="text/javascript">
var viewWidth = 897;
var viewHeight = 663;
var sectionId = 'dynsection-22';
</script>
<script xlink:href="svgpan.js"/>
<svg id="graph" class="graph">
<g id="viewport">
<title>a60::augment_collection_by_partition</title>
<!-- Node1 -->
<g id="node1" class="node">
<title>Node1</title>
<g id="a_node1"><a xlink:title="Make metadata listing for torrent collection, per partition.">
<polygon fill="#999999" stroke="#666666" points="119,-340 0,-340 0,-314 119,-314 119,-340"/>
<text text-anchor="start" x="8" y="-329.6" font-family="SourceSans" font-size="8.00">a60::augment_collection</text>
<text text-anchor="middle" x="59.5" y="-320.6" font-family="SourceSans" font-size="8.00">_by_partition</text>
</a>
</g>
</g>
<!-- Node2 -->
<g id="node2" class="node">
<title>Node2</title>
<g id="a_node2"><a xlink:href="namespacea60.html#ab0d9a2011f191a12b47785473f9d9743" target="_top" xlink:title="Make metadata listing for torrent collection, per partition.">
<polygon fill="white" stroke="#666666" points="274,-420 155,-420 155,-394 274,-394 274,-420"/>
<text text-anchor="start" x="163" y="-409.6" font-family="SourceSans" font-size="8.00">a60::augment_collection</text>
<text text-anchor="middle" x="214.5" y="-400.6" font-family="SourceSans" font-size="8.00">_by_partition_colors</text>
</a>
</g>
</g>
<!-- Node1&#45;&gt;Node2 -->
<g id="edge1" class="edge">
<title>Node1&#45;&gt;Node2</title>
<path fill="none" stroke="#63b8ff" d="M82.76,-340.14C101.74,-351.18 129.87,-367.18 155,-380 161.29,-383.21 168.04,-386.48 174.64,-389.58"/>
<polygon fill="#63b8ff" stroke="#63b8ff" points="173.58,-392.95 184.12,-393.99 176.53,-386.6 173.58,-392.95"/>
</g>
<!-- Node3 -->
<g id="node3" class="node">
<title>Node3</title>
<g id="a_node3"><a xlink:href="namespacea60.html#a6c3e0c242287f663d7e80ee91e094e07" target="_top" xlink:title=" ">
<polygon fill="white" stroke="#666666" points="417,-616 319,-616 319,-590 417,-590 417,-616"/>
<text text-anchor="start" x="327" y="-605.6" font-family="SourceSans" font-size="8.00">a60::collection_size</text>
<text text-anchor="middle" x="368" y="-596.6" font-family="SourceSans" font-size="8.00">_and_partition</text>
</a>
</g>
</g>
<!-- Node1&#45;&gt;Node3 -->
<g id="edge44" class="edge">
<title>Node1&#45;&gt;Node3</title>
<path fill="none" stroke="#63b8ff" d="M71.21,-340.25C103.69,-379.79 205.28,-498.78 310,-573 316.08,-577.31 322.87,-581.41 329.57,-585.12"/>
<polygon fill="#63b8ff" stroke="#63b8ff" points="328.12,-588.31 338.59,-589.92 331.4,-582.13 328.12,-588.31"/>
</g>
<!-- Node4 -->
<g id="node4" class="node">
<title>Node4</title>
<g id="a_node4"><a xlink:href="structa60_1_1collection.html#af73cc1411b568c10442a9999f52531b4" target="_top" xlink:title=" ">
<polygon fill="white" stroke="#666666" points="608,-611.5 462,-611.5 462,-594.5 608,-594.5 608,-611.5"/>
<text text-anchor="middle" x="535" y="-601.1" font-family="SourceSans" font-size="8.00">a60::collection::partition_name</text>
</a>
</g>
</g>
<!-- Node1&#45;&gt;Node4 -->
<g id="edge49" class="edge">
<title>Node1&#45;&gt;Node4</title>
<path fill="none" stroke="#63b8ff" d="M65.33,-340.03C77.16,-370.78 109.96,-449.34 155,-503 211.37,-570.14 227.16,-596.31 310,-625 374.91,-647.48 456.31,-628.71 500.94,-614.74"/>
<polygon fill="#63b8ff" stroke="#63b8ff" points="502.24,-618 510.67,-611.59 500.08,-611.34 502.24,-618"/>
</g>
<!-- Node5 -->
<g id="node5" class="node">
<title>Node5</title>
<g id="a_node5"><a xlink:href="namespacea60.html#a4e8b0cabed112734147b499bf0cc9029" target="_top" xlink:title="Conversion of resolution_mode to string.">
<polygon fill="white" stroke="#666666" points="740.5,-611.5 666.5,-611.5 666.5,-594.5 740.5,-594.5 740.5,-611.5"/>
<text text-anchor="middle" x="703.5" y="-601.1" font-family="SourceSans" font-size="8.00">a60::to_string</text>
</a>
</g>
</g>
<!-- Node1&#45;&gt;Node5 -->
<g id="edge51" class="edge">
<title>Node1&#45;&gt;Node5</title>
<path fill="none" stroke="#63b8ff" d="M62.17,-340.11C67.86,-379.74 89.87,-499.83 155,-570 206.93,-625.95 235.55,-627.14 310,-644 438.97,-673.21 596.57,-635.07 666.33,-614.53"/>
<polygon fill="#63b8ff" stroke="#63b8ff" points="667.39,-617.86 675.97,-611.64 665.38,-611.16 667.39,-617.86"/>
</g>
<!-- Node8 -->
<g id="node8" class="node">
<title>Node8</title>
<g id="a_node8"><a xlink:href="namespacea60.html#ab8e4135bf0b91ea44a27a6fcb7a648e4" target="_top" xlink:title=" ">
<polygon fill="white" stroke="#666666" points="413,-380 323,-380 323,-354 413,-354 413,-380"/>
<text text-anchor="start" x="331" y="-369.6" font-family="SourceSans" font-size="8.00">a60::get_intertitle</text>
<text text-anchor="middle" x="368" y="-360.6" font-family="SourceSans" font-size="8.00">_render_state</text>
</a>
</g>
</g>
<!-- Node1&#45;&gt;Node8 -->
<g id="edge46" class="edge">
<title>Node1&#45;&gt;Node8</title>
<path fill="none" stroke="#63b8ff" d="M119.2,-335.93C131.04,-337.67 143.41,-339.43 155,-341 208.58,-348.25 269.9,-355.68 312.76,-360.73"/>
<polygon fill="#63b8ff" stroke="#63b8ff" points="312.36,-364.2 322.7,-361.89 313.18,-357.25 312.36,-364.2"/>
</g>
<!-- Node10 -->
<g id="node10" class="node">
<title>Node10</title>
<g id="a_node10"><a xlink:href="namespacea60.html#ae9dd8f5f0bd8cfc07cfc19f957cf2c95" target="_top" xlink:title="Shell for titles page.">
<polygon fill="white" stroke="#666666" points="426,-335.5 310,-335.5 310,-318.5 426,-318.5 426,-335.5"/>
<text text-anchor="middle" x="368" y="-325.1" font-family="SourceSans" font-size="8.00">a60::make_glyphs_basic</text>
</a>
</g>
</g>
<!-- Node1&#45;&gt;Node10 -->
<g id="edge47" class="edge">
<title>Node1&#45;&gt;Node10</title>
<path fill="none" stroke="#63b8ff" d="M119.23,-327C170.75,-327 245.66,-327 299.6,-327"/>
<polygon fill="#63b8ff" stroke="#63b8ff" points="299.76,-330.5 309.76,-327 299.76,-323.5 299.76,-330.5"/>
</g>
<!-- Node21 -->
<g id="node21" class="node">
<title>Node21</title>
<g id="a_node21"><a xlink:href="namespacea60.html#a1bf91ba66297e089d99c49d6a376c0ad" target="_top" xlink:title="NEW STYLE First composite with map, black on white.">
<polygon fill="white" stroke="#666666" points="421,-255.5 315,-255.5 315,-238.5 421,-238.5 421,-255.5"/>
<text text-anchor="middle" x="368" y="-245.1" font-family="SourceSans" font-size="8.00">a60::make_map_base</text>
</a>
</g>
</g>
<!-- Node1&#45;&gt;Node21 -->
<g id="edge48" class="edge">
<title>Node1&#45;&gt;Node21</title>
<path fill="none" stroke="#63b8ff" d="M96.13,-313.96C113.71,-307.77 135.33,-300.54 155,-295 208.3,-279.99 270.15,-266.41 313.24,-257.56"/>
<polygon fill="#63b8ff" stroke="#63b8ff" points="314.12,-260.95 323.22,-255.53 312.73,-254.09 314.12,-260.95"/>
</g>
<!-- Node23 -->
<g id="node23" class="node">
<title>Node23</title>
<g id="a_node23"><a xlink:href="structa60_1_1collection.html#a80993af9aec8238db8e44da1e9a3c994" target="_top" xlink:title=" ">
<polygon fill="white" stroke="#666666" points="419.5,-300 316.5,-300 316.5,-274 419.5,-274 419.5,-300"/>
<text text-anchor="start" x="324.5" y="-289.6" font-family="SourceSans" font-size="8.00">a60::collection::slice</text>
<text text-anchor="middle" x="368" y="-280.6" font-family="SourceSans" font-size="8.00">_name_mangled</text>
</a>
</g>
</g>
<!-- Node1&#45;&gt;Node23 -->
<g id="edge50" class="edge">
<title>Node1&#45;&gt;Node23</title>
<path fill="none" stroke="#63b8ff" d="M119.23,-319.33C172.8,-312.34 251.63,-302.06 305.92,-294.97"/>
<polygon fill="#63b8ff" stroke="#63b8ff" points="306.63,-298.41 316.09,-293.64 305.72,-291.47 306.63,-298.41"/>
</g>
<!-- Node27 -->
<g id="node27" class="node">
<title>Node27</title>
<g id="a_node27"><a xlink:href="namespacea60.html#a509aad812b39c14aec23d7c28a1bbab1" target="_top" xlink:title=" ">
<polygon fill="white" stroke="#666666" points="274,-211 155,-211 155,-185 274,-185 274,-211"/>
<text text-anchor="start" x="163" y="-200.6" font-family="SourceSans" font-size="8.00">a60::augment_collection</text>
<text text-anchor="middle" x="214.5" y="-191.6" font-family="SourceSans" font-size="8.00">_titles_4</text>
</a>
</g>
</g>
<!-- Node1&#45;&gt;Node27 -->
<g id="edge33" class="edge">
<title>Node1&#45;&gt;Node27</title>
<path fill="none" stroke="#63b8ff" d="M72.2,-313.72C89.29,-294.75 122.56,-259.41 155,-234 163.01,-227.72 172.19,-221.63 180.85,-216.3"/>
<polygon fill="#63b8ff" stroke="#63b8ff" points="182.85,-219.18 189.63,-211.04 179.26,-213.17 182.85,-219.18"/>
</g>
<!-- Node30 -->
<g id="node30" class="node">
<title>Node30</title>
<g id="a_node30"><a xlink:href="namespacea60.html#a69624c6be17252776249bb53c80bd6ff" target="_top" xlink:title="v5 short files: stagger step info hash long names: 90 rotate top column. NB: Assumed that multi&#45;page ...">
<polygon fill="white" stroke="#666666" points="267.5,-138 161.5,-138 161.5,-112 267.5,-112 267.5,-138"/>
<text text-anchor="start" x="169.5" y="-127.6" font-family="SourceSans" font-size="8.00">a60::augment_torrent</text>
<text text-anchor="middle" x="214.5" y="-118.6" font-family="SourceSans" font-size="8.00">_collection_glyphs_v5</text>
</a>
</g>
</g>
<!-- Node1&#45;&gt;Node30 -->
<g id="edge36" class="edge">
<title>Node1&#45;&gt;Node30</title>
<path fill="none" stroke="#63b8ff" d="M67.16,-313.6C81.16,-286.13 115.65,-222.11 155,-176 164.76,-164.57 177.12,-153.41 187.97,-144.47"/>
<polygon fill="#63b8ff" stroke="#63b8ff" points="190.3,-147.08 195.89,-138.09 185.91,-141.63 190.3,-147.08"/>
</g>
<!-- Node36 -->
<g id="node36" class="node">
<title>Node36</title>
<g id="a_node36"><a xlink:href="namespacea60.html#ac88b9bd5680f14f810ff0cc02caabe22" target="_top" xlink:title="bndlsize is the subgrouping of names into bundles of 10 max bundles per row is 5 for vertical stacks,...">
<polygon fill="white" stroke="#666666" points="269.5,-94 159.5,-94 159.5,-68 269.5,-68 269.5,-94"/>
<text text-anchor="start" x="167.5" y="-83.6" font-family="SourceSans" font-size="8.00">a60::compute_number</text>
<text text-anchor="middle" x="214.5" y="-74.6" font-family="SourceSans" font-size="8.00">_of_glyph_rows</text>
</a>
</g>
</g>
<!-- Node1&#45;&gt;Node36 -->
<g id="edge45" class="edge">
<title>Node1&#45;&gt;Node36</title>
<path fill="none" stroke="#63b8ff" d="M62.37,-313.85C68.45,-275.81 91.1,-164.43 155,-103 156.12,-101.92 157.31,-100.89 158.54,-99.91"/>
<polygon fill="#63b8ff" stroke="#63b8ff" points="160.85,-102.58 167.25,-94.14 156.98,-96.74 160.85,-102.58"/>
</g>
<!-- Node2&#45;&gt;Node3 -->
<g id="edge2" class="edge">
<title>Node2&#45;&gt;Node3</title>
<path fill="none" stroke="#63b8ff" d="M222.84,-420.19C244.91,-459.84 309.19,-575.24 310,-576 313.51,-579.29 317.5,-582.24 321.7,-584.88"/>
<polygon fill="#63b8ff" stroke="#63b8ff" points="320.08,-587.98 330.51,-589.85 323.52,-581.89 320.08,-587.98"/>
</g>
<!-- Node2&#45;&gt;Node4 -->
<g id="edge26" class="edge">
<title>Node2&#45;&gt;Node4</title>
<path fill="none" stroke="#63b8ff" d="M220.86,-420.15C232.68,-447.45 263.66,-510.43 310,-543 324.51,-553.2 425.15,-577.78 486.49,-592.11"/>
<polygon fill="#63b8ff" stroke="#63b8ff" points="485.82,-595.55 496.35,-594.41 487.4,-588.73 485.82,-595.55"/>
</g>
<!-- Node2&#45;&gt;Node5 -->
<g id="edge32" class="edge">
<title>Node2&#45;&gt;Node5</title>
<path fill="none" stroke="#63b8ff" d="M255.75,-420.02C262.1,-422.86 268.42,-426.18 274,-430 293.47,-443.32 290.2,-456.17 310,-469 355.65,-498.57 374.5,-490.5 426,-508 513.18,-537.63 615.65,-572.97 667.96,-591.05"/>
<polygon fill="#63b8ff" stroke="#63b8ff" points="667.14,-594.47 677.73,-594.43 669.43,-587.85 667.14,-594.47"/>
</g>
<!-- Node6 -->
<g id="node6" class="node">
<title>Node6</title>
<g id="a_node6"><a xlink:href="namespacea60.html#a01a07073eb94fd95b2daf64dedaa9d80" target="_top" xlink:title="Less than compare for glyph.">
<polygon fill="white" stroke="#666666" points="424.5,-533.5 311.5,-533.5 311.5,-516.5 424.5,-516.5 424.5,-533.5"/>
<text text-anchor="middle" x="368" y="-523.1" font-family="SourceSans" font-size="8.00">a60::color_glyph_lt_hue</text>
</a>
</g>
</g>
<!-- Node2&#45;&gt;Node6 -->
<g id="edge6" class="edge">
<title>Node2&#45;&gt;Node6</title>
<path fill="none" stroke="#63b8ff" d="M225.52,-420.03C241.48,-440.03 274.53,-478.46 310,-502 316.17,-506.1 323.19,-509.66 330.14,-512.69"/>
<polygon fill="#63b8ff" stroke="#63b8ff" points="328.91,-515.96 339.49,-516.47 331.54,-509.47 328.91,-515.96"/>
</g>
<!-- Node7 -->
<g id="node7" class="node">
<title>Node7</title>
<g id="a_node7"><a xlink:href="structa60_1_1carto_1_1cartography.html#ab7156ee4a876cec09fec7e513467ac2d" target="_top" xlink:title=" ">
<polygon fill="white" stroke="#666666" points="425.5,-460 310.5,-460 310.5,-434 425.5,-434 425.5,-460"/>
<text text-anchor="start" x="318.5" y="-449.6" font-family="SourceSans" font-size="8.00">a60::carto::cartography</text>
<text text-anchor="middle" x="368" y="-440.6" font-family="SourceSans" font-size="8.00">::get_frame</text>
</a>
</g>
</g>
<!-- Node2&#45;&gt;Node7 -->
<g id="edge7" class="edge">
<title>Node2&#45;&gt;Node7</title>
<path fill="none" stroke="#63b8ff" d="M265.11,-420.1C278.65,-423.67 293.46,-427.58 307.49,-431.29"/>
<polygon fill="#63b8ff" stroke="#63b8ff" points="306.98,-434.77 317.54,-433.94 308.77,-428 306.98,-434.77"/>
</g>
<!-- Node2&#45;&gt;Node8 -->
<g id="edge8" class="edge">
<title>Node2&#45;&gt;Node8</title>
<path fill="none" stroke="#63b8ff" d="M265.11,-393.9C280.4,-389.87 297.31,-385.4 312.89,-381.29"/>
<polygon fill="#63b8ff" stroke="#63b8ff" points="314.12,-384.58 322.9,-378.64 312.34,-377.81 314.12,-384.58"/>
</g>
<!-- Node9 -->
<g id="node9" class="node">
<title>Node9</title>
<g id="a_node9"><a xlink:href="namespacea60_1_1constants.html#a6338b74a1c5c6dc024b03069e07e34ac" target="_top" xlink:title=" ">
<polygon fill="white" stroke="#666666" points="426,-415.5 310,-415.5 310,-398.5 426,-398.5 426,-415.5"/>
<text text-anchor="middle" x="368" y="-405.1" font-family="SourceSans" font-size="8.00">a60::constants::hyphen</text>
</a>
</g>
</g>
<!-- Node2&#45;&gt;Node9 -->
<g id="edge9" class="edge">
<title>Node2&#45;&gt;Node9</title>
<path fill="none" stroke="#63b8ff" d="M274.07,-407C282.36,-407 290.94,-407 299.38,-407"/>
<polygon fill="#63b8ff" stroke="#63b8ff" points="299.58,-410.5 309.58,-407 299.58,-403.5 299.58,-410.5"/>
</g>
<!-- Node2&#45;&gt;Node10 -->
<g id="edge10" class="edge">
<title>Node2&#45;&gt;Node10</title>
<path fill="none" stroke="#63b8ff" d="M232.41,-393.83C250.7,-380.1 281.11,-358.72 310,-345 314.68,-342.78 319.71,-340.73 324.77,-338.89"/>
<polygon fill="#63b8ff" stroke="#63b8ff" points="326.12,-342.13 334.45,-335.58 323.86,-335.5 326.12,-342.13"/>
</g>
<!-- Node2&#45;&gt;Node21 -->
<g id="edge24" class="edge">
<title>Node2&#45;&gt;Node21</title>
<path fill="none" stroke="#63b8ff" d="M220.64,-393.86C232.23,-365.91 263.14,-300.24 310,-265 312.61,-263.04 315.45,-261.28 318.4,-259.72"/>
<polygon fill="#63b8ff" stroke="#63b8ff" points="319.9,-262.88 327.57,-255.57 317.01,-256.5 319.9,-262.88"/>
</g>
<!-- Node2&#45;&gt;Node23 -->
<g id="edge27" class="edge">
<title>Node2&#45;&gt;Node23</title>
<path fill="none" stroke="#63b8ff" d="M225.45,-393.68C241.33,-373.24 274.27,-333.97 310,-310 312.88,-308.07 315.94,-306.26 319.1,-304.57"/>
<polygon fill="#63b8ff" stroke="#63b8ff" points="320.74,-307.66 328.18,-300.12 317.66,-301.38 320.74,-307.66"/>
</g>
<!-- Node3&#45;&gt;Node4 -->
<g id="edge3" class="edge">
<title>Node3&#45;&gt;Node4</title>
<path fill="none" stroke="#63b8ff" d="M417.17,-603C427.98,-603 439.76,-603 451.53,-603"/>
<polygon fill="#63b8ff" stroke="#63b8ff" points="451.85,-606.5 461.85,-603 451.85,-599.5 451.85,-606.5"/>
</g>
<!-- Node4&#45;&gt;Node5 -->
<g id="edge4" class="edge">
<title>Node4&#45;&gt;Node5</title>
<path fill="none" stroke="#63b8ff" d="M608.06,-603C624.19,-603 640.88,-603 655.67,-603"/>
<polygon fill="#63b8ff" stroke="#63b8ff" points="656.06,-606.5 666.06,-603 656.06,-599.5 656.06,-606.5"/>
</g>
<!-- Node5&#45;&gt;Node5 -->
<g id="edge5" class="edge">
<title>Node5&#45;&gt;Node5</title>
<path fill="none" stroke="#63b8ff" d="M682.64,-611.69C671.12,-620.17 678.07,-629.5 703.5,-629.5 720.19,-629.5 728.92,-625.48 729.69,-620.32"/>
<polygon fill="#63b8ff" stroke="#63b8ff" points="732.59,-618.36 724.36,-611.69 726.64,-622.03 732.59,-618.36"/>
</g>
<!-- Node11 -->
<g id="node11" class="node">
<title>Node11</title>
<g id="a_node11"><a xlink:href="namespacea60.html#a732ca2d85679838beb92881e9f39a999" target="_top" xlink:title="Engage bittorrent, create session.">
<polygon fill="white" stroke="#666666" points="591,-501.5 479,-501.5 479,-484.5 591,-484.5 591,-501.5"/>
<text text-anchor="middle" x="535" y="-491.1" font-family="SourceSans" font-size="8.00">a60::configure_session</text>
</a>
</g>
</g>
<!-- Node10&#45;&gt;Node11 -->
<g id="edge11" class="edge">
<title>Node10&#45;&gt;Node11</title>
<path fill="none" stroke="#63b8ff" d="M412.44,-335.58C417.47,-337.98 422.16,-341.06 426,-345 466.36,-386.4 421.71,-428.54 462,-470 465.89,-474 470.47,-477.31 475.4,-480.04"/>
<polygon fill="#63b8ff" stroke="#63b8ff" points="474.06,-483.27 484.6,-484.36 477.04,-476.94 474.06,-483.27"/>
</g>
<!-- Node12 -->
<g id="node12" class="node">
<title>Node12</title>
<g id="a_node12"><a xlink:href="namespacea60_1_1io.html#a16f17ea9e02c1975ca17b77e46cf7629" target="_top" xlink:title="Make sure a path ends in &#39;/&#39;;.">
<polygon fill="white" stroke="#666666" points="889,-401.5 799,-401.5 799,-384.5 889,-384.5 889,-401.5"/>
<text text-anchor="middle" x="844" y="-391.1" font-family="SourceSans" font-size="8.00">a60::io::end_path</text>
</a>
</g>
</g>
<!-- Node10&#45;&gt;Node12 -->
<g id="edge12" class="edge">
<title>Node10&#45;&gt;Node12</title>
<path fill="none" stroke="#63b8ff" d="M411.24,-335.53C416.64,-337.94 421.76,-341.03 426,-345 458.07,-374.99 426.93,-410.59 462,-437 515.52,-477.3 699.53,-475.44 763,-454 788.97,-445.23 813.16,-424.29 828,-409.39"/>
<polygon fill="#63b8ff" stroke="#63b8ff" points="830.83,-411.5 835.23,-401.86 825.78,-406.65 830.83,-411.5"/>
</g>
<!-- Node13 -->
<g id="node13" class="node">
<title>Node13</title>
<g id="a_node13"><a xlink:href="namespacea60_1_1io.html#a89f2bd581ec510ccc0a8cfedccff7bd0" target="_top" xlink:title="Top level of directory for output files.">
<polygon fill="white" stroke="#666666" points="583,-384 487,-384 487,-358 583,-358 583,-384"/>
<text text-anchor="start" x="495" y="-373.6" font-family="SourceSans" font-size="8.00">a60::io::get_output</text>
<text text-anchor="middle" x="535" y="-364.6" font-family="SourceSans" font-size="8.00">_directory</text>
</a>
</g>
</g>
<!-- Node10&#45;&gt;Node13 -->
<g id="edge13" class="edge">
<title>Node10&#45;&gt;Node13</title>
<path fill="none" stroke="#63b8ff" d="M401.21,-335.59C422.73,-341.33 451.65,-349.04 477,-355.8"/>
<polygon fill="#63b8ff" stroke="#63b8ff" points="476.32,-359.24 486.88,-358.43 478.12,-352.48 476.32,-359.24"/>
</g>
<!-- Node15 -->
<g id="node15" class="node">
<title>Node15</title>
<g id="a_node15"><a xlink:href="namespacea60.html#a1ae4660be19d8586055437f379fa4985" target="_top" xlink:title="Configure torrent session.">
<polygon fill="white" stroke="#666666" points="595,-339.5 475,-339.5 475,-322.5 595,-322.5 595,-339.5"/>
<text text-anchor="middle" x="535" y="-329.1" font-family="SourceSans" font-size="8.00">a60::make_settings_pack</text>
</a>
</g>
</g>
<!-- Node10&#45;&gt;Node15 -->
<g id="edge17" class="edge">
<title>Node10&#45;&gt;Node15</title>
<path fill="none" stroke="#63b8ff" d="M426.25,-328.39C438.66,-328.69 451.91,-329.01 464.73,-329.32"/>
<polygon fill="#63b8ff" stroke="#63b8ff" points="464.81,-332.82 474.89,-329.57 464.98,-325.83 464.81,-332.82"/>
</g>
<!-- Node16 -->
<g id="node16" class="node">
<title>Node16</title>
<g id="a_node16"><a xlink:href="structa60_1_1collection.html#a997d47a7fc3ffcabaeba3fd74cce0d82" target="_top" xlink:title=" ">
<polygon fill="white" stroke="#666666" points="590.5,-428 479.5,-428 479.5,-402 590.5,-402 590.5,-428"/>
<text text-anchor="start" x="487.5" y="-417.6" font-family="SourceSans" font-size="8.00">a60::collection::torrent</text>
<text text-anchor="middle" x="535" y="-408.6" font-family="SourceSans" font-size="8.00">_directory</text>
</a>
</g>
</g>
<!-- Node10&#45;&gt;Node16 -->
<g id="edge18" class="edge">
<title>Node10&#45;&gt;Node16</title>
<path fill="none" stroke="#63b8ff" d="M407.65,-335.59C414.11,-338.02 420.5,-341.1 426,-345 447.76,-360.42 440.17,-377.68 462,-393 464.54,-394.78 467.23,-396.42 470.01,-397.93"/>
<polygon fill="#63b8ff" stroke="#63b8ff" points="468.66,-401.16 479.19,-402.33 471.68,-394.85 468.66,-401.16"/>
</g>
<!-- Node19 -->
<g id="node19" class="node">
<title>Node19</title>
<g id="a_node19"><a xlink:href="structa60_1_1collection.html#a7f3662085b6407ab2a8916075c984151" target="_top" xlink:title=" ">
<polygon fill="white" stroke="#666666" points="585,-304 485,-304 485,-278 585,-278 585,-304"/>
<text text-anchor="start" x="493" y="-293.6" font-family="SourceSans" font-size="8.00">a60::collection::trim</text>
<text text-anchor="middle" x="535" y="-284.6" font-family="SourceSans" font-size="8.00">_string</text>
</a>
</g>
</g>
<!-- Node10&#45;&gt;Node19 -->
<g id="edge22" class="edge">
<title>Node10&#45;&gt;Node19</title>
<path fill="none" stroke="#63b8ff" d="M408.1,-318.47C428.02,-314.12 452.65,-308.75 474.83,-303.91"/>
<polygon fill="#63b8ff" stroke="#63b8ff" points="475.8,-307.28 484.83,-301.73 474.31,-300.44 475.8,-307.28"/>
</g>
<!-- Node13&#45;&gt;Node12 -->
<g id="edge14" class="edge">
<title>Node13&#45;&gt;Node12</title>
<path fill="none" stroke="#63b8ff" d="M579.78,-357.93C626.01,-346.17 700.68,-332.99 763,-349 785.33,-354.74 808.11,-368.16 823.62,-378.68"/>
<polygon fill="#63b8ff" stroke="#63b8ff" points="821.66,-381.58 831.86,-384.46 825.68,-375.85 821.66,-381.58"/>
</g>
<!-- Node14 -->
<g id="node14" class="node">
<title>Node14</title>
<g id="a_node14"><a xlink:href="namespacea60_1_1io.html#a6ad052ef18cfb1a1ac708f7c69c9050d" target="_top" xlink:title="Assumes argument is full path, no error checking...">
<polygon fill="white" stroke="#666666" points="751.5,-302 655.5,-302 655.5,-276 751.5,-276 751.5,-302"/>
<text text-anchor="start" x="663.5" y="-291.6" font-family="SourceSans" font-size="8.00">a60::io::get_output</text>
<text text-anchor="middle" x="703.5" y="-282.6" font-family="SourceSans" font-size="8.00">_prefix</text>
</a>
</g>
</g>
<!-- Node13&#45;&gt;Node14 -->
<g id="edge15" class="edge">
<title>Node13&#45;&gt;Node14</title>
<path fill="none" stroke="#63b8ff" d="M583.35,-359.84C591.84,-356.92 600.4,-353.35 608,-349 626.84,-338.23 625.93,-328.02 644,-316 649.01,-312.67 654.5,-309.54 660.05,-306.68"/>
<polygon fill="#63b8ff" stroke="#63b8ff" points="661.9,-309.67 669.36,-302.14 658.83,-303.38 661.9,-309.67"/>
</g>
<!-- Node14&#45;&gt;Node12 -->
<g id="edge16" class="edge">
<title>Node14&#45;&gt;Node12</title>
<path fill="none" stroke="#63b8ff" d="M737.73,-302.01C746.28,-305.97 755.24,-310.7 763,-316 788.75,-333.59 813.91,-359.71 828.94,-376.54"/>
<polygon fill="#63b8ff" stroke="#63b8ff" points="826.6,-379.19 835.82,-384.4 831.87,-374.58 826.6,-379.19"/>
</g>
<!-- Node16&#45;&gt;Node12 -->
<g id="edge19" class="edge">
<title>Node16&#45;&gt;Node12</title>
<path fill="none" stroke="#63b8ff" d="M579.78,-428.07C626.01,-439.83 700.68,-453.01 763,-437 785.33,-431.26 808.11,-417.84 823.62,-407.32"/>
<polygon fill="#63b8ff" stroke="#63b8ff" points="825.68,-410.15 831.86,-401.54 821.66,-404.42 825.68,-410.15"/>
</g>
<!-- Node17 -->
<g id="node17" class="node">
<title>Node17</title>
<g id="a_node17"><a xlink:href="namespacea60_1_1io.html#ac95e5271a27a23bc2336d84b3f821fa2" target="_top" xlink:title="Constant filesystem and run&#45;time resources.">
<polygon fill="white" stroke="#666666" points="755.5,-428 651.5,-428 651.5,-402 755.5,-402 755.5,-428"/>
<text text-anchor="start" x="659.5" y="-417.6" font-family="SourceSans" font-size="8.00">a60::io::get_run_time</text>
<text text-anchor="middle" x="703.5" y="-408.6" font-family="SourceSans" font-size="8.00">_resources</text>
</a>
</g>
</g>
<!-- Node16&#45;&gt;Node17 -->
<g id="edge20" class="edge">
<title>Node16&#45;&gt;Node17</title>
<path fill="none" stroke="#63b8ff" d="M590.52,-415C606.7,-415 624.53,-415 641.11,-415"/>
<polygon fill="#63b8ff" stroke="#63b8ff" points="641.25,-418.5 651.25,-415 641.25,-411.5 641.25,-418.5"/>
</g>
<!-- Node18 -->
<g id="node18" class="node">
<title>Node18</title>
<g id="a_node18"><a xlink:href="namespacea60_1_1io.html#aa5fbb8ab63397dd45c4a54c0758935ef" target="_top" xlink:title="Sanity check input existence.">
<polygon fill="white" stroke="#666666" points="755.5,-384 651.5,-384 651.5,-358 755.5,-358 755.5,-384"/>
<text text-anchor="start" x="659.5" y="-373.6" font-family="SourceSans" font-size="8.00">a60::io::sanity_check</text>
<text text-anchor="middle" x="703.5" y="-364.6" font-family="SourceSans" font-size="8.00">_input</text>
</a>
</g>
</g>
<!-- Node16&#45;&gt;Node18 -->
<g id="edge21" class="edge">
<title>Node16&#45;&gt;Node18</title>
<path fill="none" stroke="#63b8ff" d="M585.5,-401.92C603.71,-397.11 624.5,-391.61 643.46,-386.6"/>
<polygon fill="#63b8ff" stroke="#63b8ff" points="644.41,-389.97 653.19,-384.03 642.62,-383.2 644.41,-389.97"/>
</g>
<!-- Node20 -->
<g id="node20" class="node">
<title>Node20</title>
<g id="a_node20"><a xlink:href="namespacea60.html#ac7eddb2e330d8983ddc852edde5335c5" target="_top" xlink:title=" ">
<polygon fill="white" stroke="#666666" points="763,-257.5 644,-257.5 644,-240.5 763,-240.5 763,-257.5"/>
<text text-anchor="middle" x="703.5" y="-247.1" font-family="SourceSans" font-size="8.00">a60::to_lowercase_string</text>
</a>
</g>
</g>
<!-- Node19&#45;&gt;Node20 -->
<g id="edge23" class="edge">
<title>Node19&#45;&gt;Node20</title>
<path fill="none" stroke="#63b8ff" d="M585.05,-278.63C608.35,-272.75 635.96,-265.78 658.56,-260.08"/>
<polygon fill="#63b8ff" stroke="#63b8ff" points="659.72,-263.4 668.56,-257.56 658,-256.61 659.72,-263.4"/>
</g>
<!-- Node22 -->
<g id="node22" class="node">
<title>Node22</title>
<g id="a_node22"><a xlink:href="namespacea60.html#a63203aef78ad674129103340323d3b63" target="_top" xlink:title="First layer.">
<polygon fill="white" stroke="#666666" points="596,-141.5 474,-141.5 474,-124.5 596,-124.5 596,-141.5"/>
<text text-anchor="middle" x="535" y="-131.1" font-family="SourceSans" font-size="8.00">a60::place_map_in_frame</text>
</a>
</g>
</g>
<!-- Node21&#45;&gt;Node22 -->
<g id="edge25" class="edge">
<title>Node21&#45;&gt;Node22</title>
<path fill="none" stroke="#63b8ff" d="M387.8,-238.43C399.76,-232.3 415.01,-223.18 426,-212 448.06,-189.55 436.77,-169.83 462,-151 464.63,-149.03 467.46,-147.28 470.4,-145.72"/>
<polygon fill="#63b8ff" stroke="#63b8ff" points="471.89,-148.89 479.56,-141.58 469.01,-142.51 471.89,-148.89"/>
</g>
<!-- Node23&#45;&gt;Node20 -->
<g id="edge29" class="edge">
<title>Node23&#45;&gt;Node20</title>
<path fill="none" stroke="#63b8ff" d="M419.51,-276.19C433.25,-273.54 448.15,-270.91 462,-269 519.74,-261.04 585.74,-255.82 633.97,-252.72"/>
<polygon fill="#63b8ff" stroke="#63b8ff" points="634.23,-256.21 643.99,-252.09 633.79,-249.23 634.23,-256.21"/>
</g>
<!-- Node24 -->
<g id="node24" class="node">
<title>Node24</title>
<g id="a_node24"><a xlink:href="structa60_1_1collection.html#a25b35cf4ac39da89d868fe2cf41b5acd" target="_top" xlink:title=" ">
<polygon fill="white" stroke="#666666" points="600,-221.5 470,-221.5 470,-204.5 600,-204.5 600,-221.5"/>
<text text-anchor="middle" x="535" y="-211.1" font-family="SourceSans" font-size="8.00">a60::collection::slice_name</text>
</a>
</g>
</g>
<!-- Node23&#45;&gt;Node24 -->
<g id="edge28" class="edge">
<title>Node23&#45;&gt;Node24</title>
<path fill="none" stroke="#63b8ff" d="M407.78,-273.91C414.02,-271.27 420.3,-268.29 426,-265 443.8,-254.73 443.91,-245.74 462,-236 470.32,-231.52 479.65,-227.75 488.76,-224.63"/>
<polygon fill="#63b8ff" stroke="#63b8ff" points="490.06,-227.89 498.52,-221.51 487.93,-221.22 490.06,-227.89"/>
</g>
<!-- Node25 -->
<g id="node25" class="node">
<title>Node25</title>
<g id="a_node25"><a xlink:href="namespacea60.html#a11d9ffc210e8dca8410e7a5ad62deabc" target="_top" xlink:title=" ">
<polygon fill="white" stroke="#666666" points="591.5,-186 478.5,-186 478.5,-160 591.5,-160 591.5,-186"/>
<text text-anchor="start" x="486.5" y="-175.6" font-family="SourceSans" font-size="8.00">a60::to_replace_spaces</text>
<text text-anchor="middle" x="535" y="-166.6" font-family="SourceSans" font-size="8.00">_string</text>
</a>
</g>
</g>
<!-- Node23&#45;&gt;Node25 -->
<g id="edge30" class="edge">
<title>Node23&#45;&gt;Node25</title>
<path fill="none" stroke="#63b8ff" d="M412.93,-273.9C417.64,-271.41 422.12,-268.46 426,-265 451.8,-241.96 435.53,-218.27 462,-196 464.26,-194.1 466.68,-192.35 469.21,-190.75"/>
<polygon fill="#63b8ff" stroke="#63b8ff" points="471.09,-193.71 478.19,-185.85 467.74,-187.57 471.09,-193.71"/>
</g>
<!-- Node26 -->
<g id="node26" class="node">
<title>Node26</title>
<g id="a_node26"><a xlink:href="namespacea60.html#a751f954fe64233f1dc6517220e4b5692" target="_top" xlink:title=" ">
<polygon fill="white" stroke="#666666" points="757,-181.5 650,-181.5 650,-164.5 757,-164.5 757,-181.5"/>
<text text-anchor="middle" x="703.5" y="-171.1" font-family="SourceSans" font-size="8.00">a60::to_replace_string</text>
</a>
</g>
</g>
<!-- Node25&#45;&gt;Node26 -->
<g id="edge31" class="edge">
<title>Node25&#45;&gt;Node26</title>
<path fill="none" stroke="#63b8ff" d="M591.91,-173C607.25,-173 623.99,-173 639.69,-173"/>
<polygon fill="#63b8ff" stroke="#63b8ff" points="639.84,-176.5 649.84,-173 639.84,-169.5 639.84,-176.5"/>
</g>
<!-- Node28 -->
<g id="node28" class="node">
<title>Node28</title>
<g id="a_node28"><a xlink:href="namespacea60_1_1carto.html#af59ef7858ef576e7f17b781f38436f28" target="_top" xlink:title=" ">
<polygon fill="white" stroke="#666666" points="596,-61.5 474,-61.5 474,-44.5 596,-44.5 596,-61.5"/>
<text text-anchor="middle" x="535" y="-51.1" font-family="SourceSans" font-size="8.00">a60::carto::frame_margin</text>
</a>
</g>
</g>
<!-- Node27&#45;&gt;Node28 -->
<g id="edge34" class="edge">
<title>Node27&#45;&gt;Node28</title>
<path fill="none" stroke="#63b8ff" d="M274.01,-208.76C320.15,-213.78 383.56,-212.59 426,-179 465.67,-147.6 424.88,-105.38 462,-71 463.69,-69.44 465.49,-68 467.39,-66.69"/>
<polygon fill="#63b8ff" stroke="#63b8ff" points="469.25,-69.65 476.21,-61.66 465.79,-63.57 469.25,-69.65"/>
</g>
<!-- Node29 -->
<g id="node29" class="node">
<title>Node29</title>
<g id="a_node29"><a xlink:href="structa60_1_1collection.html#a4b5f4e6148e18b08ccc033e200327cdf" target="_top" xlink:title="Display/output name for torrent collection, including partition, episode/multiepisode,...">
<polygon fill="white" stroke="#666666" points="423,-170 313,-170 313,-144 423,-144 423,-170"/>
<text text-anchor="start" x="321" y="-159.6" font-family="SourceSans" font-size="8.00">a60::collection::media</text>
<text text-anchor="middle" x="368" y="-150.6" font-family="SourceSans" font-size="8.00">_object_name</text>
</a>
</g>
</g>
<!-- Node27&#45;&gt;Node29 -->
<g id="edge35" class="edge">
<title>Node27&#45;&gt;Node29</title>
<path fill="none" stroke="#63b8ff" d="M263.85,-184.91C278.27,-181.01 294.22,-176.7 309.18,-172.65"/>
<polygon fill="#63b8ff" stroke="#63b8ff" points="310.11,-176.02 318.85,-170.03 308.28,-169.27 310.11,-176.02"/>
</g>
<!-- Node31 -->
<g id="node31" class="node">
<title>Node31</title>
<g id="a_node31"><a xlink:href="namespacea60.html#a3c6dad07bcebd8445f8254ecef13c499" target="_top" xlink:title="v4h, horizontal fill stagger step info hash long file names">
<polygon fill="white" stroke="#666666" points="423,-108 313,-108 313,-82 423,-82 423,-108"/>
<text text-anchor="start" x="321" y="-97.6" font-family="SourceSans" font-size="8.00">a60::augment_torrent</text>
<text text-anchor="middle" x="368" y="-88.6" font-family="SourceSans" font-size="8.00">_collection_glyphs_v4h</text>
</a>
</g>
</g>
<!-- Node30&#45;&gt;Node31 -->
<g id="edge37" class="edge">
<title>Node30&#45;&gt;Node31</title>
<path fill="none" stroke="#63b8ff" d="M267.64,-114.68C279.07,-112.41 291.3,-109.99 303.14,-107.65"/>
<polygon fill="#63b8ff" stroke="#63b8ff" points="303.83,-111.08 312.96,-105.7 302.47,-104.21 303.83,-111.08"/>
</g>
<!-- Node33 -->
<g id="node33" class="node">
<title>Node33</title>
<g id="a_node33"><a xlink:href="namespacea60.html#af74628c9eb1ff204b92982d6352b47fa" target="_top" xlink:title="v4v, vertical fill stagger step info hash">
<polygon fill="white" stroke="#666666" points="422.5,-64 313.5,-64 313.5,-38 422.5,-38 422.5,-64"/>
<text text-anchor="start" x="321.5" y="-53.6" font-family="SourceSans" font-size="8.00">a60::augment_torrent</text>
<text text-anchor="middle" x="368" y="-44.6" font-family="SourceSans" font-size="8.00">_collection_glyphs_v4v</text>
</a>
</g>
</g>
<!-- Node30&#45;&gt;Node33 -->
<g id="edge40" class="edge">
<title>Node30&#45;&gt;Node33</title>
<path fill="none" stroke="#63b8ff" d="M255.66,-111.95C261.96,-109.32 268.28,-106.33 274,-103 292,-92.52 292.05,-83.56 310,-73 312.83,-71.33 315.82,-69.75 318.87,-68.25"/>
<polygon fill="#63b8ff" stroke="#63b8ff" points="320.53,-71.34 328.18,-64.01 317.63,-64.97 320.53,-71.34"/>
</g>
<!-- Node31&#45;&gt;Node28 -->
<g id="edge39" class="edge">
<title>Node31&#45;&gt;Node28</title>
<path fill="none" stroke="#63b8ff" d="M419.18,-81.98C433.05,-78.4 448.1,-74.53 462,-71 470.99,-68.72 480.61,-66.29 489.81,-63.99"/>
<polygon fill="#63b8ff" stroke="#63b8ff" points="490.71,-67.37 499.56,-61.55 489.01,-60.58 490.71,-67.37"/>
</g>
<!-- Node32 -->
<g id="node32" class="node">
<title>Node32</title>
<g id="a_node32"><a xlink:href="namespacea60.html#a16fc823eda0f1e7ba8a80a0a7a2bd413" target="_top" xlink:title="Ziggurat style for infohash datum layout: tid &#45; color &#45; name/btih/private.">
<polygon fill="white" stroke="#666666" points="588,-106 482,-106 482,-80 588,-80 588,-106"/>
<text text-anchor="start" x="490" y="-95.6" font-family="SourceSans" font-size="8.00">a60::augment_torrent</text>
<text text-anchor="middle" x="535" y="-86.6" font-family="SourceSans" font-size="8.00">_glyph_v4h</text>
</a>
</g>
</g>
<!-- Node31&#45;&gt;Node32 -->
<g id="edge38" class="edge">
<title>Node31&#45;&gt;Node32</title>
<path fill="none" stroke="#63b8ff" d="M423.03,-94.35C438.52,-94.16 455.55,-93.95 471.51,-93.76"/>
<polygon fill="#63b8ff" stroke="#63b8ff" points="471.86,-97.25 481.82,-93.63 471.78,-90.25 471.86,-97.25"/>
</g>
<!-- Node33&#45;&gt;Node28 -->
<g id="edge43" class="edge">
<title>Node33&#45;&gt;Node28</title>
<path fill="none" stroke="#63b8ff" d="M422.57,-51.65C435.62,-51.81 449.77,-51.98 463.47,-52.15"/>
<polygon fill="#63b8ff" stroke="#63b8ff" points="463.8,-55.65 473.84,-52.27 463.88,-48.65 463.8,-55.65"/>
</g>
<!-- Node34 -->
<g id="node34" class="node">
<title>Node34</title>
<g id="a_node34"><a xlink:href="namespacea60.html#ab8c17046693e57506def23f3a977a8ab" target="_top" xlink:title="Ziggurat style for infohash datum layout: tid &#45; color &#45; name/btih/private.">
<polygon fill="white" stroke="#666666" points="588,-26 482,-26 482,0 588,0 588,-26"/>
<text text-anchor="start" x="490" y="-15.6" font-family="SourceSans" font-size="8.00">a60::augment_torrent</text>
<text text-anchor="middle" x="535" y="-6.6" font-family="SourceSans" font-size="8.00">_glyph_v4v</text>
</a>
</g>
</g>
<!-- Node33&#45;&gt;Node34 -->
<g id="edge41" class="edge">
<title>Node33&#45;&gt;Node34</title>
<path fill="none" stroke="#63b8ff" d="M422.57,-38.66C438.31,-35.04 455.66,-31.04 471.89,-27.3"/>
<polygon fill="#63b8ff" stroke="#63b8ff" points="472.86,-30.67 481.82,-25.02 471.29,-23.85 472.86,-30.67"/>
</g>
<!-- Node35 -->
<g id="node35" class="node">
<title>Node35</title>
<g id="a_node35"><a xlink:href="namespacea60.html#aa101f579d83d22aa64d69dcbd54789c3" target="_top" xlink:title=" ">
<polygon fill="white" stroke="#666666" points="756.5,-26 650.5,-26 650.5,0 756.5,0 756.5,-26"/>
<text text-anchor="start" x="658.5" y="-15.6" font-family="SourceSans" font-size="8.00">a60::augment_torrent</text>
<text text-anchor="middle" x="703.5" y="-6.6" font-family="SourceSans" font-size="8.00">_glyph_numbers</text>
</a>
</g>
</g>
<!-- Node34&#45;&gt;Node35 -->
<g id="edge42" class="edge">
<title>Node34&#45;&gt;Node35</title>
<path fill="none" stroke="#63b8ff" d="M588.22,-13C604.65,-13 622.96,-13 640.02,-13"/>
<polygon fill="#63b8ff" stroke="#63b8ff" points="640.46,-16.5 650.46,-13 640.46,-9.5 640.46,-16.5"/>
</g>
</g>
</svg>
        <g id="navigator" transform="translate(0 0)" fill="#404254">
                <rect fill="#f2f5e9" fill-opacity="0.5" stroke="#606060" stroke-width=".5" x="0" y="0" width="60" height="60"/>
                <use id="zoomplus" xlink:href="#zoomPlus" x="17" y="9" onmousedown="handleZoom(evt,'in')"/>
                <use id="zoomminus" xlink:href="#zoomMin" x="42" y="9" onmousedown="handleZoom(evt,'out')"/>
                <use id="reset" xlink:href="#resetDef" x="30" y="36" onmousedown="handleReset()"/>
                <g id="arrowUp" xlink:href="#dirArrow" transform="translate(30 24)" onmousedown="handlePan(0,-1)">
                  <use xlink:href="#rim" fill="#404040">
                        <set attributeName="fill" to="#808080" begin="arrowUp.mouseover" end="arrowUp.mouseout"/>
                  </use>
                  <path fill="none" stroke="white" stroke-width="1.5" d="M0,-3.0v7 M-2.5,-0.5L0,-3.0L2.5,-0.5"/>
                </g>
                <g id="arrowRight" xlink:href="#dirArrow" transform="rotate(90) translate(36 -43)" onmousedown="handlePan(1,0)">
                  <use xlink:href="#rim" fill="#404040">
                        <set attributeName="fill" to="#808080" begin="arrowRight.mouseover" end="arrowRight.mouseout"/>
                  </use>
                  <path fill="none" stroke="white" stroke-width="1.5" d="M0,-3.0v7 M-2.5,-0.5L0,-3.0L2.5,-0.5"/>
                </g>
                <g id="arrowDown" xlink:href="#dirArrow" transform="rotate(180) translate(-30 -48)" onmousedown="handlePan(0,1)">
                  <use xlink:href="#rim" fill="#404040">
                        <set attributeName="fill" to="#808080" begin="arrowDown.mouseover" end="arrowDown.mouseout"/>
                  </use>
                  <path fill="none" stroke="white" stroke-width="1.5" d="M0,-3.0v7 M-2.5,-0.5L0,-3.0L2.5,-0.5"/>
                </g>
                <g id="arrowLeft" xlink:href="#dirArrow" transform="rotate(270) translate(-36 17)" onmousedown="handlePan(-1,0)">
                  <use xlink:href="#rim" fill="#404040">
                        <set attributeName="fill" to="#808080" begin="arrowLeft.mouseover" end="arrowLeft.mouseout"/>
                  </use>
                  <path fill="none" stroke="white" stroke-width="1.5" d="M0,-3.0v7 M-2.5,-0.5L0,-3.0L2.5,-0.5"/>
                </g>
        </g>
        <svg viewBox="0 0 15 15" width="100%" height="30px" preserveAspectRatio="xMaxYMin meet">
         <g id="arrow_out" transform="scale(0.3 0.3)">
          <a xlink:href="namespacea60_a9a697cdfc8952416ef8f9c1b56e0b365_cgraph_org.svg" target="_base">
           <rect id="button" ry="5" rx="5" y="6" x="6" height="38" width="38"
                fill="#f2f5e9" fill-opacity="0.5" stroke="#606060" stroke-width="1.0"/>
           <path id="arrow"
             d="M 11.500037,31.436501 C 11.940474,20.09759 22.043105,11.32322 32.158766,21.979434 L 37.068811,17.246167 C 37.068811,17.246167 37.088388,32 37.088388,32 L 22.160133,31.978069 C 22.160133,31.978069 26.997745,27.140456 26.997745,27.140456 C 18.528582,18.264221 13.291696,25.230495 11.500037,31.436501 z"
             style="fill:#404040;"/>
          </a>
         </g>
        </svg>
</svg>
