<?xml version="1.0" encoding="UTF-8" standalone="no"?>
<!DOCTYPE svg PUBLIC "-//W3C//DTD SVG 1.1//EN"
 "http://www.w3.org/Graphics/SVG/1.1/DTD/svg11.dtd">
<!-- Generated by graphviz version 5.0.0 (0)
 -->
<!-- Title: a60::exit_node_meta_peers Pages: 1 -->
<svg width="538pt" height="194pt"
 viewBox="0.00 0.00 538.00 193.50" xmlns="http://www.w3.org/2000/svg" xmlns:xlink="http://www.w3.org/1999/xlink">
<g id="graph0" class="graph" transform="scale(1 1) rotate(0) translate(4 189.5)">
<title>a60::exit_node_meta_peers</title>
<!-- Node1 -->
<g id="node1" class="node">
<title>Node1</title>
<g id="a_node1"><a xlink:title="Create list of current Tor Exit Nodes.">
<polygon fill="#999999" stroke="#666666" points="102,-106 0,-106 0,-80 102,-80 102,-106"/>
<text text-anchor="start" x="8" y="-95.6" font-family="SourceSans" font-size="8.00">a60::exit_node_meta</text>
<text text-anchor="middle" x="51" y="-86.6" font-family="SourceSans" font-size="8.00">_peers</text>
</a>
</g>
</g>
<!-- Node2 -->
<g id="node2" class="node">
<title>Node2</title>
<g id="a_node2"><a xlink:href="namespacea60.html#a55d7f8d5aa523f5270d478a635ee03b4" target="_top" xlink:title="Survey current tor exit nodes and convert into meta_peers. Assume input list is sorted low to high,...">
<polygon fill="white" stroke="#666666" points="241,-106 138,-106 138,-80 241,-80 241,-106"/>
<text text-anchor="start" x="146" y="-95.6" font-family="SourceSans" font-size="8.00">a60::make_exit_node</text>
<text text-anchor="middle" x="189.5" y="-86.6" font-family="SourceSans" font-size="8.00">_meta_peers</text>
</a>
</g>
</g>
<!-- Node1&#45;&gt;Node2 -->
<g id="edge1" class="edge">
<title>Node1&#45;&gt;Node2</title>
<path fill="none" stroke="#63b8ff" d="M102.05,-93C110.47,-93 119.3,-93 127.95,-93"/>
<polygon fill="#63b8ff" stroke="#63b8ff" points="128,-96.5 138,-93 128,-89.5 128,-96.5"/>
</g>
<!-- Node3 -->
<g id="node3" class="node">
<title>Node3</title>
<g id="a_node3"><a xlink:href="namespacea60_1_1io.html#a16f17ea9e02c1975ca17b77e46cf7629" target="_top" xlink:title="Make sure a path ends in &#39;/&#39;;.">
<polygon fill="white" stroke="#666666" points="378.5,-185.5 288.5,-185.5 288.5,-168.5 378.5,-168.5 378.5,-185.5"/>
<text text-anchor="middle" x="333.5" y="-175.1" font-family="SourceSans" font-size="8.00">a60::io::end_path</text>
</a>
</g>
</g>
<!-- Node2&#45;&gt;Node3 -->
<g id="edge2" class="edge">
<title>Node2&#45;&gt;Node3</title>
<path fill="none" stroke="#63b8ff" d="M204.46,-106.08C220.76,-120.73 249.06,-144.36 277,-159 281.21,-161.21 285.74,-163.21 290.33,-165.01"/>
<polygon fill="#63b8ff" stroke="#63b8ff" points="289.16,-168.31 299.76,-168.41 291.54,-161.72 289.16,-168.31"/>
</g>
<!-- Node4 -->
<g id="node4" class="node">
<title>Node4</title>
<g id="a_node4"><a xlink:href="namespacea60_1_1io.html#ac95e5271a27a23bc2336d84b3f821fa2" target="_top" xlink:title="Constant filesystem and run&#45;time resources.">
<polygon fill="white" stroke="#666666" points="385.5,-150 281.5,-150 281.5,-124 385.5,-124 385.5,-150"/>
<text text-anchor="start" x="289.5" y="-139.6" font-family="SourceSans" font-size="8.00">a60::io::get_run_time</text>
<text text-anchor="middle" x="333.5" y="-130.6" font-family="SourceSans" font-size="8.00">_resources</text>
</a>
</g>
</g>
<!-- Node2&#45;&gt;Node4 -->
<g id="edge3" class="edge">
<title>Node2&#45;&gt;Node4</title>
<path fill="none" stroke="#63b8ff" d="M232.72,-106.08C247.75,-110.74 264.85,-116.04 280.6,-120.92"/>
<polygon fill="#63b8ff" stroke="#63b8ff" points="279.61,-124.28 290.2,-123.89 281.68,-117.59 279.61,-124.28"/>
</g>
<!-- Node5 -->
<g id="node5" class="node">
<title>Node5</title>
<g id="a_node5"><a xlink:href="namespacea60.html#a439bb950e8e56f95462cb70ab0bab2f0" target="_top" xlink:title="Pruned line of text that starts with an IP4 address.">
<polygon fill="white" stroke="#666666" points="390,-106 277,-106 277,-80 390,-80 390,-106"/>
<text text-anchor="start" x="285" y="-95.6" font-family="SourceSans" font-size="8.00">a60::line_to_ip_address</text>
<text text-anchor="middle" x="333.5" y="-86.6" font-family="SourceSans" font-size="8.00">_as_string</text>
</a>
</g>
</g>
<!-- Node2&#45;&gt;Node5 -->
<g id="edge4" class="edge">
<title>Node2&#45;&gt;Node5</title>
<path fill="none" stroke="#63b8ff" d="M241.36,-93C249.51,-93 258.04,-93 266.48,-93"/>
<polygon fill="#63b8ff" stroke="#63b8ff" points="266.7,-96.5 276.7,-93 266.7,-89.5 266.7,-96.5"/>
</g>
<!-- Node6 -->
<g id="node6" class="node">
<title>Node6</title>
<g id="a_node6"><a xlink:href="namespacea60.html#ad300edc3a7396b9f52a64f37e9443891" target="_top" xlink:title="No GeoIP.">
<polygon fill="white" stroke="#666666" points="387,-61.5 280,-61.5 280,-44.5 387,-44.5 387,-61.5"/>
<text text-anchor="middle" x="333.5" y="-51.1" font-family="SourceSans" font-size="8.00">a60::make_meta_peer</text>
</a>
</g>
</g>
<!-- Node2&#45;&gt;Node6 -->
<g id="edge5" class="edge">
<title>Node2&#45;&gt;Node6</title>
<path fill="none" stroke="#63b8ff" d="M237,-79.9C254.85,-74.87 275.05,-69.18 292.27,-64.33"/>
<polygon fill="#63b8ff" stroke="#63b8ff" points="293.34,-67.67 302.02,-61.59 291.44,-60.93 293.34,-67.67"/>
</g>
<!-- Node7 -->
<g id="node7" class="node">
<title>Node7</title>
<g id="a_node7"><a xlink:href="structa60_1_1geo_1_1map__base.html#a9215731f10e2fa8488b0e081c2a5cef4" target="_top" xlink:title=" ">
<polygon fill="white" stroke="#666666" points="384.5,-26 282.5,-26 282.5,0 384.5,0 384.5,-26"/>
<text text-anchor="start" x="290.5" y="-15.6" font-family="SourceSans" font-size="8.00">a60::geo::map_base</text>
<text text-anchor="middle" x="333.5" y="-6.6" font-family="SourceSans" font-size="8.00">::open</text>
</a>
</g>
</g>
<!-- Node2&#45;&gt;Node7 -->
<g id="edge6" class="edge">
<title>Node2&#45;&gt;Node7</title>
<path fill="none" stroke="#63b8ff" d="M208.11,-79.96C225.17,-67.67 252.06,-49.23 277,-36 280.73,-34.02 284.67,-32.09 288.66,-30.25"/>
<polygon fill="#63b8ff" stroke="#63b8ff" points="290.26,-33.37 297.98,-26.11 287.42,-26.97 290.26,-33.37"/>
</g>
<!-- Node8 -->
<g id="node8" class="node">
<title>Node8</title>
<g id="a_node8"><a xlink:href="namespacea60_1_1io.html#aa5fbb8ab63397dd45c4a54c0758935ef" target="_top" xlink:title="Sanity check input existence.">
<polygon fill="white" stroke="#666666" points="530,-26 426,-26 426,0 530,0 530,-26"/>
<text text-anchor="start" x="434" y="-15.6" font-family="SourceSans" font-size="8.00">a60::io::sanity_check</text>
<text text-anchor="middle" x="478" y="-6.6" font-family="SourceSans" font-size="8.00">_input</text>
</a>
</g>
</g>
<!-- Node7&#45;&gt;Node8 -->
<g id="edge7" class="edge">
<title>Node7&#45;&gt;Node8</title>
<path fill="none" stroke="#63b8ff" d="M384.74,-13C394.72,-13 405.3,-13 415.6,-13"/>
<polygon fill="#63b8ff" stroke="#63b8ff" points="415.77,-16.5 425.77,-13 415.77,-9.5 415.77,-16.5"/>
</g>
</g>
</svg>
