<?xml version="1.0" encoding="UTF-8" standalone="no"?>
<!DOCTYPE svg PUBLIC "-//W3C//DTD SVG 1.1//EN"
 "http://www.w3.org/Graphics/SVG/1.1/DTD/svg11.dtd">
<!-- Generated by graphviz version 5.0.0 (0)
 -->
<!-- Title: a60::io::set_output_prefix Pages: 1 -->
<svg width="361pt" height="54pt"
 viewBox="0.00 0.00 361.00 54.00" xmlns="http://www.w3.org/2000/svg" xmlns:xlink="http://www.w3.org/1999/xlink">
<g id="graph0" class="graph" transform="scale(1 1) rotate(0) translate(4 50)">
<title>a60::io::set_output_prefix</title>
<!-- Node1 -->
<g id="node1" class="node">
<title>Node1</title>
<g id="a_node1"><a xlink:title="Sets man output directory.">
<polygon fill="#999999" stroke="#666666" points="95,-46 0,-46 0,-20 95,-20 95,-46"/>
<text text-anchor="start" x="8" y="-35.6" font-family="SourceSans" font-size="8.00">a60::io::set_output</text>
<text text-anchor="middle" x="47.5" y="-26.6" font-family="SourceSans" font-size="8.00">_prefix</text>
</a>
</g>
</g>
<!-- Node2 -->
<g id="node2" class="node">
<title>Node2</title>
<g id="a_node2"><a xlink:href="namespacea60_1_1io.html#a16f17ea9e02c1975ca17b77e46cf7629" target="_top" xlink:title="Make sure a path ends in &#39;/&#39;;.">
<polygon fill="white" stroke="#666666" points="353,-41.5 263,-41.5 263,-24.5 353,-24.5 353,-41.5"/>
<text text-anchor="middle" x="308" y="-31.1" font-family="SourceSans" font-size="8.00">a60::io::end_path</text>
</a>
</g>
</g>
<!-- Node1&#45;&gt;Node2 -->
<g id="edge1" class="edge">
<title>Node1&#45;&gt;Node2</title>
<path fill="none" stroke="#63b8ff" d="M95.18,-34.33C106.88,-34.61 119.4,-34.86 131,-35 173.66,-35.52 184.34,-35.53 227,-35 235.39,-34.9 244.27,-34.73 252.94,-34.54"/>
<polygon fill="#63b8ff" stroke="#63b8ff" points="253.08,-38.03 262.99,-34.3 252.91,-31.04 253.08,-38.03"/>
</g>
<!-- Node3 -->
<g id="node3" class="node">
<title>Node3</title>
<g id="a_node3"><a xlink:href="namespacea60_1_1io.html#a6ad052ef18cfb1a1ac708f7c69c9050d" target="_top" xlink:title="Assumes argument is full path, no error checking...">
<polygon fill="white" stroke="#666666" points="227,-26 131,-26 131,0 227,0 227,-26"/>
<text text-anchor="start" x="139" y="-15.6" font-family="SourceSans" font-size="8.00">a60::io::get_output</text>
<text text-anchor="middle" x="179" y="-6.6" font-family="SourceSans" font-size="8.00">_prefix</text>
</a>
</g>
</g>
<!-- Node1&#45;&gt;Node3 -->
<g id="edge2" class="edge">
<title>Node1&#45;&gt;Node3</title>
<path fill="none" stroke="#63b8ff" d="M95.25,-25.78C103.58,-24.49 112.35,-23.14 120.93,-21.81"/>
<polygon fill="#63b8ff" stroke="#63b8ff" points="121.53,-25.26 130.88,-20.28 120.46,-18.34 121.53,-25.26"/>
</g>
<!-- Node3&#45;&gt;Node2 -->
<g id="edge3" class="edge">
<title>Node3&#45;&gt;Node2</title>
<path fill="none" stroke="#63b8ff" d="M227.29,-20.45C235.51,-21.74 244.12,-23.1 252.52,-24.42"/>
<polygon fill="#63b8ff" stroke="#63b8ff" points="252.19,-27.91 262.62,-26.01 253.28,-21 252.19,-27.91"/>
</g>
</g>
</svg>
