<?xml version="1.0" encoding="UTF-8" standalone="no"?>
<!DOCTYPE svg PUBLIC "-//W3C//DTD SVG 1.1//EN"
 "http://www.w3.org/Graphics/SVG/1.1/DTD/svg11.dtd">
<!-- Generated by graphviz version 5.0.0 (0)
 -->
<!-- Title: a60::metadata::values_from_fields_matching Pages: 1 -->
<svg width="266pt" height="88pt"
 viewBox="0.00 0.00 266.00 87.50" xmlns="http://www.w3.org/2000/svg" xmlns:xlink="http://www.w3.org/1999/xlink">
<g id="graph0" class="graph" transform="scale(1 1) rotate(0) translate(4 83.5)">
<title>a60::metadata::values_from_fields_matching</title>
<!-- Node1 -->
<g id="node1" class="node">
<title>Node1</title>
<g id="a_node1"><a xlink:title="Find the values from all matching fields containing agg.">
<polygon fill="#999999" stroke="#666666" points="111,-46 0,-46 0,-20 111,-20 111,-46"/>
<text text-anchor="start" x="8" y="-35.6" font-family="SourceSans" font-size="8.00">a60::metadata::values</text>
<text text-anchor="middle" x="55.5" y="-26.6" font-family="SourceSans" font-size="8.00">_from_fields_matching</text>
</a>
</g>
</g>
<!-- Node2 -->
<g id="node2" class="node">
<title>Node2</title>
<g id="a_node2"><a xlink:href="namespacea60.html#a4e8b0cabed112734147b499bf0cc9029" target="_top" xlink:title="Conversion of resolution_mode to string.">
<polygon fill="white" stroke="#666666" points="239.5,-61.5 165.5,-61.5 165.5,-44.5 239.5,-44.5 239.5,-61.5"/>
<text text-anchor="middle" x="202.5" y="-51.1" font-family="SourceSans" font-size="8.00">a60::to_string</text>
</a>
</g>
</g>
<!-- Node1&#45;&gt;Node2 -->
<g id="edge1" class="edge">
<title>Node1&#45;&gt;Node2</title>
<path fill="none" stroke="#63b8ff" d="M111.32,-40.56C125.9,-42.57 141.5,-44.72 155.56,-46.66"/>
<polygon fill="#63b8ff" stroke="#63b8ff" points="155.1,-50.13 165.49,-48.03 156.06,-43.2 155.1,-50.13"/>
</g>
<!-- Node3 -->
<g id="node3" class="node">
<title>Node3</title>
<g id="a_node3"><a xlink:href="namespacea60_1_1metadata.html#a80da6438996a07a5fa1df5728c004b2a" target="_top" xlink:title="Find name &#39;field&#39; in JSON file and return vector of values.">
<polygon fill="white" stroke="#666666" points="258,-26 147,-26 147,0 258,0 258,-26"/>
<text text-anchor="start" x="155" y="-15.6" font-family="SourceSans" font-size="8.00">a60::metadata::values</text>
<text text-anchor="middle" x="202.5" y="-6.6" font-family="SourceSans" font-size="8.00">_from_field</text>
</a>
</g>
</g>
<!-- Node1&#45;&gt;Node3 -->
<g id="edge3" class="edge">
<title>Node1&#45;&gt;Node3</title>
<path fill="none" stroke="#63b8ff" d="M111.32,-25.44C119.53,-24.31 128.06,-23.13 136.46,-21.97"/>
<polygon fill="#63b8ff" stroke="#63b8ff" points="137.18,-25.41 146.6,-20.57 136.22,-18.47 137.18,-25.41"/>
</g>
<!-- Node2&#45;&gt;Node2 -->
<g id="edge2" class="edge">
<title>Node2&#45;&gt;Node2</title>
<path fill="none" stroke="#63b8ff" d="M180.75,-61.69C168.73,-70.17 175.98,-79.5 202.5,-79.5 219.9,-79.5 229.01,-75.48 229.82,-70.32"/>
<polygon fill="#63b8ff" stroke="#63b8ff" points="232.61,-68.2 224.25,-61.69 226.73,-71.99 232.61,-68.2"/>
</g>
</g>
</svg>
