<?xml version="1.0" encoding="UTF-8" standalone="no"?>
<!DOCTYPE svg PUBLIC "-//W3C//DTD SVG 1.1//EN"
 "http://www.w3.org/Graphics/SVG/1.1/DTD/svg11.dtd">
<!-- Generated by graphviz version 5.0.0 (0)
 -->
<!-- Title: a60::vwpeers_to_text_data Pages: 1 -->
<svg width="433pt" height="25pt"
 viewBox="0.00 0.00 433.00 25.00" xmlns="http://www.w3.org/2000/svg" xmlns:xlink="http://www.w3.org/1999/xlink">
<g id="graph0" class="graph" transform="scale(1 1) rotate(0) translate(4 21)">
<title>a60::vwpeers_to_text_data</title>
<!-- Node1 -->
<g id="node1" class="node">
<title>Node1</title>
<g id="a_node1"><a xlink:title=" ">
<polygon fill="#999999" stroke="#666666" points="126,-17 0,-17 0,0 126,0 126,-17"/>
<text text-anchor="middle" x="63" y="-6.6" font-family="SourceSans" font-size="8.00">a60::vwpeers_to_text_data</text>
</a>
</g>
</g>
<!-- Node2 -->
<g id="node2" class="node">
<title>Node2</title>
<g id="a_node2"><a xlink:href="namespacea60.html#a67a216731ae229be675dbcbfa228d865" target="_top" xlink:title=" ">
<polygon fill="white" stroke="#666666" points="263,-17 162,-17 162,0 263,0 263,-17"/>
<text text-anchor="middle" x="212.5" y="-6.6" font-family="SourceSans" font-size="8.00">a60::convert_to_utf8</text>
</a>
</g>
</g>
<!-- Node1&#45;&gt;Node2 -->
<g id="edge1" class="edge">
<title>Node1&#45;&gt;Node2</title>
<path fill="none" stroke="#63b8ff" d="M126.13,-8.5C134.63,-8.5 143.35,-8.5 151.82,-8.5"/>
<polygon fill="#63b8ff" stroke="#63b8ff" points="151.98,-12 161.98,-8.5 151.98,-5 151.98,-12"/>
</g>
<!-- Node3 -->
<g id="node3" class="node">
<title>Node3</title>
<g id="a_node3"><a xlink:href="namespacea60.html#a1c4e23f164dec11b9fee53e2292af224" target="_top" xlink:title="Convert MaxMind GeoIP information from ISO&#45;8859&#45;1 encoding to UTF&#45;8.">
<polygon fill="white" stroke="#666666" points="425,-17 299,-17 299,0 425,0 425,-17"/>
<text text-anchor="middle" x="362" y="-6.6" font-family="SourceSans" font-size="8.00">a60::convert_8859_to_utf8</text>
</a>
</g>
</g>
<!-- Node2&#45;&gt;Node3 -->
<g id="edge2" class="edge">
<title>Node2&#45;&gt;Node3</title>
<path fill="none" stroke="#63b8ff" d="M263.03,-8.5C271.27,-8.5 279.96,-8.5 288.63,-8.5"/>
<polygon fill="#63b8ff" stroke="#63b8ff" points="288.77,-12 298.77,-8.5 288.77,-5 288.77,-12"/>
</g>
</g>
</svg>
