<?xml version="1.0" encoding="UTF-8" standalone="no"?>
<!DOCTYPE svg PUBLIC "-//W3C//DTD SVG 1.1//EN"
 "http://www.w3.org/Graphics/SVG/1.1/DTD/svg11.dtd">
<!-- Generated by graphviz version 5.0.0 (0)
 -->
<!-- Title: a60::metadata::render_cast_leads_grid Pages: 1 -->
<!--zoomable 717 -->
<svg id="main" version="1.1" xmlns="http://www.w3.org/2000/svg" xmlns:xlink="http://www.w3.org/1999/xlink" xml:space="preserve" onload="init(evt)">
<style type="text/css"><![CDATA[
.edge:hover path { stroke: red; }
.edge:hover polygon { stroke: red; fill: red; }
]]></style>
<script type="text/javascript"><![CDATA[
var edges = document.getElementsByTagName('g');
if (edges && edges.length) {
  for (var i=0;i<edges.length;i++) {
    if (edges[i].id.substr(0,4)=='edge') {
      edges[i].setAttribute('class','edge');
    }
  }
}
]]></script>
        <defs>
                <circle id="rim" cx="0" cy="0" r="7"/>
                <circle id="rim2" cx="0" cy="0" r="3.5"/>
                <g id="zoomPlus">
                        <use xlink:href="#rim" fill="#404040">
                                <set attributeName="fill" to="#808080" begin="zoomplus.mouseover" end="zoomplus.mouseout"/>
                        </use>
                        <path d="M-4,0h8M0,-4v8" fill="none" stroke="white" stroke-width="1.5" pointer-events="none"/>
                </g>
                <g id="zoomMin">
                        <use xlink:href="#rim" fill="#404040">
                                <set attributeName="fill" to="#808080" begin="zoomminus.mouseover" end="zoomminus.mouseout"/>
                        </use>
                        <path d="M-4,0h8" fill="none" stroke="white" stroke-width="1.5" pointer-events="none"/>
                </g>
                <g id="dirArrow">
                        <path fill="none" stroke="white" stroke-width="1.5" d="M0,-3.0v7 M-2.5,-0.5L0,-3.0L2.5,-0.5"/>
                </g>
               <g id="resetDef">
                       <use xlink:href="#rim2" fill="#404040">
                               <set attributeName="fill" to="#808080" begin="reset.mouseover" end="reset.mouseout"/>
                       </use>
               </g>
        </defs>

<script type="text/javascript">
var viewWidth = 1045;
var viewHeight = 717;
var sectionId = 'dynsection-51';
</script>
<script xlink:href="svgpan.js"/>
<svg id="graph" class="graph">
<g id="viewport">
<title>a60::metadata::render_cast_leads_grid</title>
<!-- Node1 -->
<g id="node1" class="node">
<title>Node1</title>
<g id="a_node1"><a xlink:title="Entry point for per&#45;character&#45;leads, composited on single page. Assume f has non&#45;zero entries.">
<polygon fill="#999999" stroke="#666666" points="110,-335.75 0,-335.75 0,-309.75 110,-309.75 110,-335.75"/>
<text text-anchor="start" x="8" y="-325.35" font-family="SourceSans" font-size="8.00">a60::metadata::render</text>
<text text-anchor="middle" x="55" y="-316.35" font-family="SourceSans" font-size="8.00">_cast_leads_grid</text>
</a>
</g>
</g>
<!-- Node2 -->
<g id="node2" class="node">
<title>Node2</title>
<g id="a_node2"><a xlink:href="namespacea60_1_1metadata.html#a826951d79c6be34a2ce4a06abee65fcf" target="_top" xlink:title="Base plate color, identity graphics, svg file.">
<polygon fill="white" stroke="#666666" points="268.5,-652.75 147.5,-652.75 147.5,-626.75 268.5,-626.75 268.5,-652.75"/>
<text text-anchor="start" x="155.5" y="-642.35" font-family="SourceSans" font-size="8.00">a60::metadata::augment</text>
<text text-anchor="middle" x="208" y="-633.35" font-family="SourceSans" font-size="8.00">_metadata_background</text>
</a>
</g>
</g>
<!-- Node1&#45;&gt;Node2 -->
<g id="edge1" class="edge">
<title>Node1&#45;&gt;Node2</title>
<path fill="none" stroke="#63b8ff" d="M59.51,-335.99C69.63,-373.04 101.07,-480.34 146,-560.75 157.84,-581.94 174.98,-603.59 188.08,-618.85"/>
<polygon fill="#63b8ff" stroke="#63b8ff" points="185.67,-621.41 194.89,-626.63 190.94,-616.8 185.67,-621.41"/>
</g>
<!-- Node6 -->
<g id="node6" class="node">
<title>Node6</title>
<g id="a_node6"><a xlink:href="namespacea60_1_1metadata.html#adefdcf326e3314b557066902a1e2dcf9" target="_top" xlink:title=" ">
<polygon fill="white" stroke="#666666" points="270,-465.75 146,-465.75 146,-439.75 270,-439.75 270,-465.75"/>
<text text-anchor="start" x="154" y="-455.35" font-family="SourceSans" font-size="8.00">a60::metadata::canonical</text>
<text text-anchor="middle" x="208" y="-446.35" font-family="SourceSans" font-size="8.00">_media_name</text>
</a>
</g>
</g>
<!-- Node1&#45;&gt;Node6 -->
<g id="edge5" class="edge">
<title>Node1&#45;&gt;Node6</title>
<path fill="none" stroke="#63b8ff" d="M71.31,-335.93C97.88,-358.8 152.66,-405.97 183.88,-432.85"/>
<polygon fill="#63b8ff" stroke="#63b8ff" points="181.79,-435.66 191.65,-439.53 186.35,-430.36 181.79,-435.66"/>
</g>
<!-- Node8 -->
<g id="node8" class="node">
<title>Node8</title>
<g id="a_node8"><a xlink:href="namespacea60_1_1constants.html#a6338b74a1c5c6dc024b03069e07e34ac" target="_top" xlink:title=" ">
<polygon fill="white" stroke="#666666" points="427.5,-591.25 311.5,-591.25 311.5,-574.25 427.5,-574.25 427.5,-591.25"/>
<text text-anchor="middle" x="369.5" y="-580.85" font-family="SourceSans" font-size="8.00">a60::constants::hyphen</text>
</a>
</g>
</g>
<!-- Node1&#45;&gt;Node8 -->
<g id="edge15" class="edge">
<title>Node1&#45;&gt;Node8</title>
<path fill="none" stroke="#63b8ff" d="M61.1,-336.07C72.54,-364.54 102.69,-432.19 146,-474.75 204.35,-532.09 230.38,-534.55 306,-565.75 310.81,-567.74 315.93,-569.56 321.09,-571.22"/>
<polygon fill="#63b8ff" stroke="#63b8ff" points="320.39,-574.66 330.97,-574.19 322.4,-567.96 320.39,-574.66"/>
</g>
<!-- Node14 -->
<g id="node14" class="node">
<title>Node14</title>
<g id="a_node14"><a xlink:href="namespacea60.html#af45982273a7a2e61b6aaa436081238c0" target="_top" xlink:title="Load JSON file to in&#45;memory DOM.">
<polygon fill="white" stroke="#666666" points="260,-335.75 156,-335.75 156,-309.75 260,-309.75 260,-335.75"/>
<text text-anchor="start" x="164" y="-325.35" font-family="SourceSans" font-size="8.00">a60::deserialize_json</text>
<text text-anchor="middle" x="208" y="-316.35" font-family="SourceSans" font-size="8.00">_to_dom_object</text>
</a>
</g>
</g>
<!-- Node1&#45;&gt;Node14 -->
<g id="edge13" class="edge">
<title>Node1&#45;&gt;Node14</title>
<path fill="none" stroke="#63b8ff" d="M110.09,-322.75C121.61,-322.75 133.85,-322.75 145.62,-322.75"/>
<polygon fill="#63b8ff" stroke="#63b8ff" points="145.81,-326.25 155.81,-322.75 145.81,-319.25 145.81,-326.25"/>
</g>
<!-- Node16 -->
<g id="node16" class="node">
<title>Node16</title>
<g id="a_node16"><a xlink:href="namespacea60_1_1metadata.html#a2a2fe41343d678592a60609687661b6b" target="_top" xlink:title=" ">
<polygon fill="white" stroke="#666666" points="263,-233.75 153,-233.75 153,-207.75 263,-207.75 263,-233.75"/>
<text text-anchor="start" x="161" y="-223.35" font-family="SourceSans" font-size="8.00">a60::metadata::render</text>
<text text-anchor="middle" x="208" y="-214.35" font-family="SourceSans" font-size="8.00">_individual</text>
</a>
</g>
</g>
<!-- Node1&#45;&gt;Node16 -->
<g id="edge16" class="edge">
<title>Node1&#45;&gt;Node16</title>
<path fill="none" stroke="#63b8ff" d="M75.43,-309.62C101.82,-291.8 149.15,-259.83 179.26,-239.49"/>
<polygon fill="#63b8ff" stroke="#63b8ff" points="181.32,-242.32 187.64,-233.83 177.4,-236.52 181.32,-242.32"/>
</g>
<!-- Node36 -->
<g id="node36" class="node">
<title>Node36</title>
<g id="a_node36"><a xlink:href="namespacea60.html#a4e8b0cabed112734147b499bf0cc9029" target="_top" xlink:title="Conversion of resolution_mode to string.">
<polygon fill="white" stroke="#666666" points="245,-171.25 171,-171.25 171,-154.25 245,-154.25 245,-171.25"/>
<text text-anchor="middle" x="208" y="-160.85" font-family="SourceSans" font-size="8.00">a60::to_string</text>
</a>
</g>
</g>
<!-- Node1&#45;&gt;Node36 -->
<g id="edge45" class="edge">
<title>Node1&#45;&gt;Node36</title>
<path fill="none" stroke="#63b8ff" d="M63.19,-309.44C76.81,-285.14 108.41,-232.94 146,-198.75 155.81,-189.83 168.17,-182.04 179.2,-176.01"/>
<polygon fill="#63b8ff" stroke="#63b8ff" points="180.83,-179.1 188.07,-171.37 177.59,-172.9 180.83,-179.1"/>
</g>
<!-- Node37 -->
<g id="node37" class="node">
<title>Node37</title>
<g id="a_node37"><a xlink:href="namespacea60_1_1metadata.html#a80da6438996a07a5fa1df5728c004b2a" target="_top" xlink:title="Find name &#39;field&#39; in JSON file and return vector of values.">
<polygon fill="white" stroke="#666666" points="263.5,-135.75 152.5,-135.75 152.5,-109.75 263.5,-109.75 263.5,-135.75"/>
<text text-anchor="start" x="160.5" y="-125.35" font-family="SourceSans" font-size="8.00">a60::metadata::values</text>
<text text-anchor="middle" x="208" y="-116.35" font-family="SourceSans" font-size="8.00">_from_field</text>
</a>
</g>
</g>
<!-- Node1&#45;&gt;Node37 -->
<g id="edge47" class="edge">
<title>Node1&#45;&gt;Node37</title>
<path fill="none" stroke="#63b8ff" d="M59.08,-309.5C67.36,-276.8 93.1,-191.56 146,-144.75 147.49,-143.43 149.06,-142.2 150.69,-141.03"/>
<polygon fill="#63b8ff" stroke="#63b8ff" points="152.6,-143.97 159.34,-135.79 148.97,-137.98 152.6,-143.97"/>
</g>
<!-- Node3 -->
<g id="node3" class="node">
<title>Node3</title>
<g id="a_node3"><a xlink:href="namespacea60_1_1io.html#a16f17ea9e02c1975ca17b77e46cf7629" target="_top" xlink:title="Make sure a path ends in &#39;/&#39;;.">
<polygon fill="white" stroke="#666666" points="414.5,-709.25 324.5,-709.25 324.5,-692.25 414.5,-692.25 414.5,-709.25"/>
<text text-anchor="middle" x="369.5" y="-698.85" font-family="SourceSans" font-size="8.00">a60::io::end_path</text>
</a>
</g>
</g>
<!-- Node2&#45;&gt;Node3 -->
<g id="edge2" class="edge">
<title>Node2&#45;&gt;Node3</title>
<path fill="none" stroke="#63b8ff" d="M235.77,-652.81C255.03,-661.9 281.76,-673.93 306,-682.75 312.42,-685.08 319.29,-687.32 326.04,-689.37"/>
<polygon fill="#63b8ff" stroke="#63b8ff" points="325.21,-692.78 335.79,-692.24 327.19,-686.06 325.21,-692.78"/>
</g>
<!-- Node4 -->
<g id="node4" class="node">
<title>Node4</title>
<g id="a_node4"><a xlink:href="namespacea60_1_1metadata.html#abcd6d192e6ed0f853c3c6cd9bcf13cad" target="_top" xlink:title=" ">
<polygon fill="white" stroke="#666666" points="731.5,-319.75 633.5,-319.75 633.5,-293.75 731.5,-293.75 731.5,-319.75"/>
<text text-anchor="start" x="641.5" y="-309.35" font-family="SourceSans" font-size="8.00">a60::metadata::get</text>
<text text-anchor="middle" x="682.5" y="-300.35" font-family="SourceSans" font-size="8.00">_metadata_style</text>
</a>
</g>
</g>
<!-- Node2&#45;&gt;Node4 -->
<g id="edge3" class="edge">
<title>Node2&#45;&gt;Node4</title>
<path fill="none" stroke="#63b8ff" d="M268.87,-640.26C316.28,-638.19 382.66,-629.62 433,-600.75 440.75,-596.31 608.96,-394.12 664.14,-327.67"/>
<polygon fill="#63b8ff" stroke="#63b8ff" points="666.89,-329.85 670.58,-319.92 661.5,-325.37 666.89,-329.85"/>
</g>
<!-- Node5 -->
<g id="node5" class="node">
<title>Node5</title>
<g id="a_node5"><a xlink:href="namespacea60_1_1io.html#ac95e5271a27a23bc2336d84b3f821fa2" target="_top" xlink:title="Constant filesystem and run&#45;time resources.">
<polygon fill="white" stroke="#666666" points="421.5,-673.75 317.5,-673.75 317.5,-647.75 421.5,-647.75 421.5,-673.75"/>
<text text-anchor="start" x="325.5" y="-663.35" font-family="SourceSans" font-size="8.00">a60::io::get_run_time</text>
<text text-anchor="middle" x="369.5" y="-654.35" font-family="SourceSans" font-size="8.00">_resources</text>
</a>
</g>
</g>
<!-- Node2&#45;&gt;Node5 -->
<g id="edge4" class="edge">
<title>Node2&#45;&gt;Node5</title>
<path fill="none" stroke="#63b8ff" d="M268.85,-647.63C281.47,-649.29 294.81,-651.05 307.47,-652.72"/>
<polygon fill="#63b8ff" stroke="#63b8ff" points="307.09,-656.19 317.46,-654.03 308.01,-649.25 307.09,-656.19"/>
</g>
<!-- Node7 -->
<g id="node7" class="node">
<title>Node7</title>
<g id="a_node7"><a xlink:href="namespacea60_1_1constants.html#a8a38c40674ec5fbf57af8127a67d1609" target="_top" xlink:title=" ">
<polygon fill="white" stroke="#666666" points="423,-556.25 316,-556.25 316,-539.25 423,-539.25 423,-556.25"/>
<text text-anchor="middle" x="369.5" y="-545.85" font-family="SourceSans" font-size="8.00">a60::constants::colon</text>
</a>
</g>
</g>
<!-- Node6&#45;&gt;Node7 -->
<g id="edge6" class="edge">
<title>Node6&#45;&gt;Node7</title>
<path fill="none" stroke="#63b8ff" d="M221.57,-465.78C238.97,-483.09 272.12,-513.48 306,-530.75 309.78,-532.67 313.79,-534.4 317.9,-535.95"/>
<polygon fill="#63b8ff" stroke="#63b8ff" points="316.98,-539.33 327.58,-539.23 319.23,-532.7 316.98,-539.33"/>
</g>
<!-- Node6&#45;&gt;Node8 -->
<g id="edge7" class="edge">
<title>Node6&#45;&gt;Node8</title>
<path fill="none" stroke="#63b8ff" d="M218.65,-465.82C238.64,-492.56 284.47,-552.15 306,-565.75 308.76,-567.49 311.69,-569.06 314.73,-570.46"/>
<polygon fill="#63b8ff" stroke="#63b8ff" points="313.48,-573.74 324.07,-574.22 316.1,-567.24 313.48,-573.74"/>
</g>
<!-- Node9 -->
<g id="node9" class="node">
<title>Node9</title>
<g id="a_node9"><a xlink:href="namespacea60_1_1constants.html#a370b70e28b3935e8736cb9e79697ceda" target="_top" xlink:title=" ">
<polygon fill="white" stroke="#666666" points="425,-521.25 314,-521.25 314,-504.25 425,-504.25 425,-521.25"/>
<text text-anchor="middle" x="369.5" y="-510.85" font-family="SourceSans" font-size="8.00">a60::constants::period</text>
</a>
</g>
</g>
<!-- Node6&#45;&gt;Node9 -->
<g id="edge8" class="edge">
<title>Node6&#45;&gt;Node9</title>
<path fill="none" stroke="#63b8ff" d="M236.63,-465.84C255.84,-474.66 282.16,-486.2 306,-494.75 312.43,-497.06 319.3,-499.28 326.06,-501.32"/>
<polygon fill="#63b8ff" stroke="#63b8ff" points="325.23,-504.73 335.81,-504.19 327.2,-498.01 325.23,-504.73"/>
</g>
<!-- Node10 -->
<g id="node10" class="node">
<title>Node10</title>
<g id="a_node10"><a xlink:href="namespacea60.html#a34d53970ee23a7c014960a2bf1a10e2b" target="_top" xlink:title="Search DOM for string literals.">
<polygon fill="white" stroke="#666666" points="421,-485.75 318,-485.75 318,-459.75 421,-459.75 421,-485.75"/>
<text text-anchor="start" x="326" y="-475.35" font-family="SourceSans" font-size="8.00">a60::search_dom_for</text>
<text text-anchor="middle" x="369.5" y="-466.35" font-family="SourceSans" font-size="8.00">_string_field</text>
</a>
</g>
</g>
<!-- Node6&#45;&gt;Node10 -->
<g id="edge9" class="edge">
<title>Node6&#45;&gt;Node10</title>
<path fill="none" stroke="#63b8ff" d="M270.21,-460.43C282.5,-461.97 295.4,-463.58 307.68,-465.12"/>
<polygon fill="#63b8ff" stroke="#63b8ff" points="307.45,-468.62 317.81,-466.39 308.32,-461.68 307.45,-468.62"/>
</g>
<!-- Node11 -->
<g id="node11" class="node">
<title>Node11</title>
<g id="a_node11"><a xlink:href="namespacea60.html#a0022cb8323c9a304730c5d70e4da4e4b" target="_top" xlink:title=" ">
<polygon fill="white" stroke="#666666" points="420,-441.25 319,-441.25 319,-424.25 420,-424.25 420,-441.25"/>
<text text-anchor="middle" x="369.5" y="-430.85" font-family="SourceSans" font-size="8.00">a60::to_erase_string</text>
</a>
</g>
</g>
<!-- Node6&#45;&gt;Node11 -->
<g id="edge10" class="edge">
<title>Node6&#45;&gt;Node11</title>
<path fill="none" stroke="#63b8ff" d="M270.21,-445.07C282.9,-443.48 296.24,-441.81 308.87,-440.23"/>
<polygon fill="#63b8ff" stroke="#63b8ff" points="309.33,-443.7 318.82,-438.98 308.46,-436.75 309.33,-443.7"/>
</g>
<!-- Node12 -->
<g id="node12" class="node">
<title>Node12</title>
<g id="a_node12"><a xlink:href="namespacea60.html#ac7eddb2e330d8983ddc852edde5335c5" target="_top" xlink:title=" ">
<polygon fill="white" stroke="#666666" points="429,-406.25 310,-406.25 310,-389.25 429,-389.25 429,-406.25"/>
<text text-anchor="middle" x="369.5" y="-395.85" font-family="SourceSans" font-size="8.00">a60::to_lowercase_string</text>
</a>
</g>
</g>
<!-- Node6&#45;&gt;Node12 -->
<g id="edge11" class="edge">
<title>Node6&#45;&gt;Node12</title>
<path fill="none" stroke="#63b8ff" d="M241.09,-439.73C259.87,-432.31 284.12,-423.06 306,-415.75 312.69,-413.51 319.84,-411.3 326.82,-409.22"/>
<polygon fill="#63b8ff" stroke="#63b8ff" points="328.24,-412.46 336.87,-406.3 326.29,-405.74 328.24,-412.46"/>
</g>
<!-- Node13 -->
<g id="node13" class="node">
<title>Node13</title>
<g id="a_node13"><a xlink:href="namespacea60.html#a751f954fe64233f1dc6517220e4b5692" target="_top" xlink:title=" ">
<polygon fill="white" stroke="#666666" points="423,-371.25 316,-371.25 316,-354.25 423,-354.25 423,-371.25"/>
<text text-anchor="middle" x="369.5" y="-360.85" font-family="SourceSans" font-size="8.00">a60::to_replace_string</text>
</a>
</g>
</g>
<!-- Node6&#45;&gt;Node13 -->
<g id="edge12" class="edge">
<title>Node6&#45;&gt;Node13</title>
<path fill="none" stroke="#63b8ff" d="M222.96,-439.48C240.85,-423.17 273.44,-395.69 306,-379.75 309.97,-377.81 314.19,-376.06 318.5,-374.49"/>
<polygon fill="#63b8ff" stroke="#63b8ff" points="319.6,-377.81 328,-371.35 317.4,-371.17 319.6,-377.81"/>
</g>
<!-- Node15 -->
<g id="node15" class="node">
<title>Node15</title>
<g id="a_node15"><a xlink:href="namespacea60.html#a538d43bb9bfa488a54cea929736dbe2d" target="_top" xlink:title="Deserialize input file.">
<polygon fill="white" stroke="#666666" points="421.5,-335.75 317.5,-335.75 317.5,-309.75 421.5,-309.75 421.5,-335.75"/>
<text text-anchor="start" x="325.5" y="-325.35" font-family="SourceSans" font-size="8.00">a60::deserialize_json</text>
<text text-anchor="middle" x="369.5" y="-316.35" font-family="SourceSans" font-size="8.00">_to_dom</text>
</a>
</g>
</g>
<!-- Node14&#45;&gt;Node15 -->
<g id="edge14" class="edge">
<title>Node14&#45;&gt;Node15</title>
<path fill="none" stroke="#63b8ff" d="M260.34,-322.75C275.29,-322.75 291.76,-322.75 307.24,-322.75"/>
<polygon fill="#63b8ff" stroke="#63b8ff" points="307.25,-326.25 317.25,-322.75 307.25,-319.25 307.25,-326.25"/>
</g>
<!-- Node17 -->
<g id="node17" class="node">
<title>Node17</title>
<g id="a_node17"><a xlink:href="namespacea60_1_1metadata.html#ac3d8bff60ee108b9a2bf2d10b30bc3ea" target="_top" xlink:title="For invidual, all age values.">
<polygon fill="white" stroke="#666666" points="433,-127.75 306,-127.75 306,-101.75 433,-101.75 433,-127.75"/>
<text text-anchor="start" x="314" y="-117.35" font-family="SourceSans" font-size="8.00">a60::metadata::composite</text>
<text text-anchor="middle" x="369.5" y="-108.35" font-family="SourceSans" font-size="8.00">_age_glyphs</text>
</a>
</g>
</g>
<!-- Node16&#45;&gt;Node17 -->
<g id="edge17" class="edge">
<title>Node16&#45;&gt;Node17</title>
<path fill="none" stroke="#63b8ff" d="M254.26,-207.73C259.9,-204.98 265.32,-201.68 270,-197.75 294.1,-177.49 281.68,-156.74 306,-136.75 307.73,-135.33 309.56,-133.99 311.47,-132.74"/>
<polygon fill="#63b8ff" stroke="#63b8ff" points="313.25,-135.76 320.22,-127.78 309.79,-129.67 313.25,-135.76"/>
</g>
<!-- Node26 -->
<g id="node26" class="node">
<title>Node26</title>
<g id="a_node26"><a xlink:href="namespacea60_1_1metadata.html#a55e36110e27d916f83d730da5d1cd635" target="_top" xlink:title="Create experimental gender glyph with multiple layers.">
<polygon fill="white" stroke="#666666" points="596,-190.75 469,-190.75 469,-164.75 596,-164.75 596,-190.75"/>
<text text-anchor="start" x="477" y="-180.35" font-family="SourceSans" font-size="8.00">a60::metadata::composite</text>
<text text-anchor="middle" x="532.5" y="-171.35" font-family="SourceSans" font-size="8.00">_gender_glyph</text>
</a>
</g>
</g>
<!-- Node16&#45;&gt;Node26 -->
<g id="edge29" class="edge">
<title>Node16&#45;&gt;Node26</title>
<path fill="none" stroke="#63b8ff" d="M263.34,-213.5C317.05,-206.34 399.56,-195.34 458.87,-187.43"/>
<polygon fill="#63b8ff" stroke="#63b8ff" points="459.47,-190.89 468.92,-186.09 458.54,-183.95 459.47,-190.89"/>
</g>
<!-- Node27 -->
<g id="node27" class="node">
<title>Node27</title>
<g id="a_node27"><a xlink:href="namespacea60_1_1metadata.html#a102f53bc307750d33f3592c94be9bd62" target="_top" xlink:title="Z/species glyph.">
<polygon fill="white" stroke="#666666" points="433,-43.75 306,-43.75 306,-17.75 433,-17.75 433,-43.75"/>
<text text-anchor="start" x="314" y="-33.35" font-family="SourceSans" font-size="8.00">a60::metadata::composite</text>
<text text-anchor="middle" x="369.5" y="-24.35" font-family="SourceSans" font-size="8.00">_z_glyph</text>
</a>
</g>
</g>
<!-- Node16&#45;&gt;Node27 -->
<g id="edge31" class="edge">
<title>Node16&#45;&gt;Node27</title>
<path fill="none" stroke="#63b8ff" d="M257.48,-207.7C262.14,-204.99 266.45,-201.71 270,-197.75 312.64,-150.27 264.81,-107.5 306,-58.75 309.1,-55.08 312.77,-51.88 316.77,-49.08"/>
<polygon fill="#63b8ff" stroke="#63b8ff" points="318.6,-52.06 325.33,-43.88 314.96,-46.08 318.6,-52.06"/>
</g>
<!-- Node29 -->
<g id="node29" class="node">
<title>Node29</title>
<g id="a_node29"><a xlink:href="namespacea60_1_1metadata.html#adc2e2f567c754963b5e5b5ca3960798e" target="_top" xlink:title="Input string vector @values is the vector of string field values from one field, say character&#45;lead&#45;1...">
<polygon fill="white" stroke="#666666" points="593,-84.75 472,-84.75 472,-58.75 593,-58.75 593,-84.75"/>
<text text-anchor="start" x="480" y="-74.35" font-family="SourceSans" font-size="8.00">a60::metadata::separate</text>
<text text-anchor="middle" x="532.5" y="-65.35" font-family="SourceSans" font-size="8.00">_playing_values</text>
</a>
</g>
</g>
<!-- Node16&#45;&gt;Node29 -->
<g id="edge43" class="edge">
<title>Node16&#45;&gt;Node29</title>
<path fill="none" stroke="#63b8ff" d="M256.88,-207.59C261.71,-204.89 266.22,-201.65 270,-197.75 304.35,-162.34 267.23,-123.26 306,-92.75 349.42,-58.59 413.1,-55.6 461.73,-59.86"/>
<polygon fill="#63b8ff" stroke="#63b8ff" points="461.57,-63.36 471.87,-60.87 462.26,-56.39 461.57,-63.36"/>
</g>
<!-- Node30 -->
<g id="node30" class="node">
<title>Node30</title>
<g id="a_node30"><a xlink:href="namespacea60_1_1constants.html#aa2d8262405ba8638e9d38e5a714db26f" target="_top" xlink:title="Find index for specific value in id_dimensions.">
<polygon fill="white" stroke="#666666" points="733,-401.75 632,-401.75 632,-375.75 733,-375.75 733,-401.75"/>
<text text-anchor="start" x="640" y="-391.35" font-family="SourceSans" font-size="8.00">a60::constants::find</text>
<text text-anchor="middle" x="682.5" y="-382.35" font-family="SourceSans" font-size="8.00">_id_index</text>
</a>
</g>
</g>
<!-- Node16&#45;&gt;Node30 -->
<g id="edge35" class="edge">
<title>Node16&#45;&gt;Node30</title>
<path fill="none" stroke="#63b8ff" d="M236.66,-233.76C255.88,-242.55 282.21,-254.07 306,-262.75 361.35,-282.93 387.57,-263.23 433,-300.75 459.67,-322.78 440.25,-350.52 469,-369.75 513.79,-399.71 576.31,-401.75 621.94,-397.93"/>
<polygon fill="#63b8ff" stroke="#63b8ff" points="622.36,-401.41 631.99,-396.98 621.7,-394.44 622.36,-401.41"/>
</g>
<!-- Node31 -->
<g id="node31" class="node">
<title>Node31</title>
<g id="a_node31"><a xlink:href="namespacea60_1_1metadata.html#ac059aaea1bbe1e28b32dabb7dddd16f8" target="_top" xlink:title="Text grow&#45;up columns, horizontal with values (LHS) and values playing (RHS). Entry point specialized ...">
<polygon fill="white" stroke="#666666" points="424.5,-253.75 314.5,-253.75 314.5,-227.75 424.5,-227.75 424.5,-253.75"/>
<text text-anchor="start" x="322.5" y="-243.35" font-family="SourceSans" font-size="8.00">a60::metadata::render</text>
<text text-anchor="middle" x="369.5" y="-234.35" font-family="SourceSans" font-size="8.00">_ids_text_x</text>
</a>
</g>
</g>
<!-- Node16&#45;&gt;Node31 -->
<g id="edge37" class="edge">
<title>Node16&#45;&gt;Node31</title>
<path fill="none" stroke="#63b8ff" d="M263.44,-227.58C276.53,-229.22 290.64,-230.99 304.13,-232.68"/>
<polygon fill="#63b8ff" stroke="#63b8ff" points="303.94,-236.18 314.3,-233.95 304.81,-229.24 303.94,-236.18"/>
</g>
<!-- Node35 -->
<g id="node35" class="node">
<title>Node35</title>
<g id="a_node35"><a xlink:href="namespacea60_1_1metadata.html#a4eb35209c54ffd28eebbfa8e07365b69" target="_top" xlink:title="From string to sids with count n.">
<polygon fill="white" stroke="#666666" points="425.5,-171.75 313.5,-171.75 313.5,-145.75 425.5,-145.75 425.5,-171.75"/>
<text text-anchor="start" x="321.5" y="-161.35" font-family="SourceSans" font-size="8.00">a60::metadata::strings</text>
<text text-anchor="middle" x="369.5" y="-152.35" font-family="SourceSans" font-size="8.00">_to_set_of_ids</text>
</a>
</g>
</g>
<!-- Node16&#45;&gt;Node35 -->
<g id="edge44" class="edge">
<title>Node16&#45;&gt;Node35</title>
<path fill="none" stroke="#63b8ff" d="M243.88,-207.71C252.43,-204.48 261.55,-201.01 270,-197.75 288.53,-190.59 308.95,-182.53 326.38,-175.6"/>
<polygon fill="#63b8ff" stroke="#63b8ff" points="327.72,-178.84 335.72,-171.88 325.13,-172.33 327.72,-178.84"/>
</g>
<!-- Node18 -->
<g id="node18" class="node">
<title>Node18</title>
<g id="a_node18"><a xlink:href="namespacea60_1_1metadata.html#a322c3cae56a5e97a9cb15dcc19be2911" target="_top" xlink:title="Ages and ages playing composited into one ring glyph. Select, sort, and composite if necessary the va...">
<polygon fill="white" stroke="#666666" points="596,-128.75 469,-128.75 469,-102.75 596,-102.75 596,-128.75"/>
<text text-anchor="start" x="477" y="-118.35" font-family="SourceSans" font-size="8.00">a60::metadata::composite</text>
<text text-anchor="middle" x="532.5" y="-109.35" font-family="SourceSans" font-size="8.00">_age_glyph</text>
</a>
</g>
</g>
<!-- Node17&#45;&gt;Node18 -->
<g id="edge18" class="edge">
<title>Node17&#45;&gt;Node18</title>
<path fill="none" stroke="#63b8ff" d="M433.21,-115.14C441.65,-115.19 450.36,-115.25 458.96,-115.3"/>
<polygon fill="#63b8ff" stroke="#63b8ff" points="458.94,-118.8 468.96,-115.36 458.99,-111.8 458.94,-118.8"/>
</g>
<!-- Node18&#45;&gt;Node4 -->
<g id="edge22" class="edge">
<title>Node18&#45;&gt;Node4</title>
<path fill="none" stroke="#63b8ff" d="M560.95,-128.8C572.9,-135.54 586.35,-144.68 596,-155.75 621.09,-184.53 613.22,-200.51 632,-233.75 642.23,-251.86 655.53,-271.3 665.78,-285.56"/>
<polygon fill="#63b8ff" stroke="#63b8ff" points="662.99,-287.68 671.7,-293.71 668.65,-283.57 662.99,-287.68"/>
</g>
<!-- Node18&#45;&gt;Node18 -->
<g id="edge21" class="edge">
<title>Node18&#45;&gt;Node18</title>
<path fill="none" stroke="#63b8ff" d="M507.12,-128.81C499.43,-137.85 507.89,-146.75 532.5,-146.75 547.5,-146.75 556.5,-143.44 559.5,-138.82"/>
<polygon fill="#63b8ff" stroke="#63b8ff" points="562.93,-138.12 557.88,-128.81 556.02,-139.24 562.93,-138.12"/>
</g>
<!-- Node19 -->
<g id="node19" class="node">
<title>Node19</title>
<g id="a_node19"><a xlink:href="namespacea60_1_1constants.html#a613cac7d85819a545849f5eefd733896" target="_top" xlink:title=" ">
<polygon fill="white" stroke="#666666" points="733,-224.75 632,-224.75 632,-198.75 733,-198.75 733,-224.75"/>
<text text-anchor="start" x="640" y="-214.35" font-family="SourceSans" font-size="8.00">a60::constants::age</text>
<text text-anchor="middle" x="682.5" y="-205.35" font-family="SourceSans" font-size="8.00">_value_to_multiple</text>
</a>
</g>
</g>
<!-- Node18&#45;&gt;Node19 -->
<g id="edge19" class="edge">
<title>Node18&#45;&gt;Node19</title>
<path fill="none" stroke="#63b8ff" d="M554.08,-128.85C566.29,-136.63 582.05,-146.72 596,-155.75 614.98,-168.04 636.24,-181.96 652.82,-192.86"/>
<polygon fill="#63b8ff" stroke="#63b8ff" points="651.22,-195.99 661.5,-198.56 655.07,-190.15 651.22,-195.99"/>
</g>
<!-- Node21 -->
<g id="node21" class="node">
<title>Node21</title>
<g id="a_node21"><a xlink:href="namespacea60_1_1metadata.html#aa74f3d32a4793b6323d54e93c6c911b9" target="_top" xlink:title="Grows out from center &#39;as if&#39; a tree growing a tree ring. Spans unknown to [00&#45;01,...">
<polygon fill="white" stroke="#666666" points="732.5,-148.75 632.5,-148.75 632.5,-122.75 732.5,-122.75 732.5,-148.75"/>
<text text-anchor="start" x="640.5" y="-138.35" font-family="SourceSans" font-size="8.00">a60::metadata::ring</text>
<text text-anchor="middle" x="682.5" y="-129.35" font-family="SourceSans" font-size="8.00">_glyph</text>
</a>
</g>
</g>
<!-- Node18&#45;&gt;Node21 -->
<g id="edge23" class="edge">
<title>Node18&#45;&gt;Node21</title>
<path fill="none" stroke="#63b8ff" d="M596.27,-124.23C604.78,-125.38 613.5,-126.56 621.95,-127.7"/>
<polygon fill="#63b8ff" stroke="#63b8ff" points="621.72,-131.2 632.1,-129.07 622.66,-124.27 621.72,-131.2"/>
</g>
<!-- Node22 -->
<g id="node22" class="node">
<title>Node22</title>
<g id="a_node22"><a xlink:href="namespacea60_1_1metadata.html#ae3aa31b1fc054034f40b30f22bf0d4b8" target="_top" xlink:title="Find orbit of ring, given radius, rspace, and number ring. Assume: ringsn starts with 1 for values an...">
<polygon fill="white" stroke="#666666" points="877.5,-128.75 777.5,-128.75 777.5,-102.75 877.5,-102.75 877.5,-128.75"/>
<text text-anchor="start" x="785.5" y="-118.35" font-family="SourceSans" font-size="8.00">a60::metadata::ring</text>
<text text-anchor="middle" x="827.5" y="-109.35" font-family="SourceSans" font-size="8.00">_radius</text>
</a>
</g>
</g>
<!-- Node18&#45;&gt;Node22 -->
<g id="edge25" class="edge">
<title>Node18&#45;&gt;Node22</title>
<path fill="none" stroke="#63b8ff" d="M596.03,-114.29C607.97,-114.06 620.37,-113.87 632,-113.75 676.89,-113.29 688.11,-113.27 733,-113.75 744.06,-113.87 755.86,-114.07 767.22,-114.29"/>
<polygon fill="#63b8ff" stroke="#63b8ff" points="767.42,-117.8 777.49,-114.5 767.57,-110.8 767.42,-117.8"/>
</g>
<!-- Node23 -->
<g id="node23" class="node">
<title>Node23</title>
<g id="a_node23"><a xlink:href="namespacea60_1_1metadata.html#a5156bb42291c8eb54dc6ddef8688be1e" target="_top" xlink:title="Split playing value into actor &#45;&gt; LHS of playing &quot;person&quot; role &#45;&gt; RHS of playing &quot;persona&quot; NB: Each s...">
<polygon fill="white" stroke="#666666" points="733,-43.75 632,-43.75 632,-17.75 733,-17.75 733,-43.75"/>
<text text-anchor="start" x="640" y="-33.35" font-family="SourceSans" font-size="8.00">a60::metadata::split</text>
<text text-anchor="middle" x="682.5" y="-24.35" font-family="SourceSans" font-size="8.00">_playing_value</text>
</a>
</g>
</g>
<!-- Node18&#45;&gt;Node23 -->
<g id="edge26" class="edge">
<title>Node18&#45;&gt;Node23</title>
<path fill="none" stroke="#63b8ff" d="M575.92,-102.74C582.78,-100.1 589.7,-97.09 596,-93.75 618.76,-81.71 642.13,-64.05 658.68,-50.5"/>
<polygon fill="#63b8ff" stroke="#63b8ff" points="661.23,-52.92 666.66,-43.83 656.74,-47.55 661.23,-52.92"/>
</g>
<!-- Node20 -->
<g id="node20" class="node">
<title>Node20</title>
<g id="a_node20"><a xlink:href="namespacea60_1_1constants.html#ac27c77e4606552ae5f74a1c21dd9258e" target="_top" xlink:title=" ">
<polygon fill="white" stroke="#666666" points="886,-308.25 769,-308.25 769,-291.25 886,-291.25 886,-308.25"/>
<text text-anchor="middle" x="827.5" y="-297.85" font-family="SourceSans" font-size="8.00">a60::constants::newline</text>
</a>
</g>
</g>
<!-- Node19&#45;&gt;Node20 -->
<g id="edge20" class="edge">
<title>Node19&#45;&gt;Node20</title>
<path fill="none" stroke="#63b8ff" d="M704.91,-224.92C731.39,-241.22 776.31,-268.86 803.5,-285.6"/>
<polygon fill="#63b8ff" stroke="#63b8ff" points="801.97,-288.77 812.33,-291.03 805.64,-282.81 801.97,-288.77"/>
</g>
<!-- Node21&#45;&gt;Node22 -->
<g id="edge24" class="edge">
<title>Node21&#45;&gt;Node22</title>
<path fill="none" stroke="#63b8ff" d="M732.71,-128.87C743.84,-127.31 755.76,-125.64 767.24,-124.04"/>
<polygon fill="#63b8ff" stroke="#63b8ff" points="767.78,-127.5 777.2,-122.65 766.81,-120.56 767.78,-127.5"/>
</g>
<!-- Node24 -->
<g id="node24" class="node">
<title>Node24</title>
<g id="a_node24"><a xlink:href="namespacea60_1_1metadata.html#acd47cfb00b07af853234227fdaa04cf9" target="_top" xlink:title="Convert a comma&#45;space&#45;separated list of strings to a vector of strings.">
<polygon fill="white" stroke="#666666" points="878.5,-43.75 776.5,-43.75 776.5,-17.75 878.5,-17.75 878.5,-43.75"/>
<text text-anchor="start" x="784.5" y="-33.35" font-family="SourceSans" font-size="8.00">a60::metadata::cssv</text>
<text text-anchor="middle" x="827.5" y="-24.35" font-family="SourceSans" font-size="8.00">_string_to_strings</text>
</a>
</g>
</g>
<!-- Node23&#45;&gt;Node24 -->
<g id="edge27" class="edge">
<title>Node23&#45;&gt;Node24</title>
<path fill="none" stroke="#63b8ff" d="M733.11,-30.75C743.86,-30.75 755.34,-30.75 766.44,-30.75"/>
<polygon fill="#63b8ff" stroke="#63b8ff" points="766.49,-34.25 776.49,-30.75 766.49,-27.25 766.49,-34.25"/>
</g>
<!-- Node25 -->
<g id="node25" class="node">
<title>Node25</title>
<g id="a_node25"><a xlink:href="namespacea60_1_1constants.html#a2fd5efb0c88809132a730787d05a080a" target="_top" xlink:title=" ">
<polygon fill="white" stroke="#666666" points="1037,-39.25 922,-39.25 922,-22.25 1037,-22.25 1037,-39.25"/>
<text text-anchor="middle" x="979.5" y="-28.85" font-family="SourceSans" font-size="8.00">a60::constants::comma</text>
</a>
</g>
</g>
<!-- Node24&#45;&gt;Node25 -->
<g id="edge28" class="edge">
<title>Node24&#45;&gt;Node25</title>
<path fill="none" stroke="#63b8ff" d="M878.87,-30.75C889.42,-30.75 900.71,-30.75 911.76,-30.75"/>
<polygon fill="#63b8ff" stroke="#63b8ff" points="911.81,-34.25 921.81,-30.75 911.81,-27.25 911.81,-34.25"/>
</g>
<!-- Node26&#45;&gt;Node4 -->
<g id="edge30" class="edge">
<title>Node26&#45;&gt;Node4</title>
<path fill="none" stroke="#63b8ff" d="M580.02,-190.8C585.65,-193.32 591.12,-196.29 596,-199.75 613.06,-211.86 647.06,-257.87 666.65,-285.46"/>
<polygon fill="#63b8ff" stroke="#63b8ff" points="663.84,-287.55 672.47,-293.71 669.56,-283.52 663.84,-287.55"/>
</g>
<!-- Node27&#45;&gt;Node23 -->
<g id="edge34" class="edge">
<title>Node27&#45;&gt;Node23</title>
<path fill="none" stroke="#63b8ff" d="M412.24,-17.71C429.61,-12.93 450.09,-8.11 469,-5.75 525.01,1.25 540.13,2.25 596,-5.75 609.05,-7.62 622.88,-11.01 635.53,-14.71"/>
<polygon fill="#63b8ff" stroke="#63b8ff" points="634.8,-18.15 645.39,-17.72 636.85,-11.45 634.8,-18.15"/>
</g>
<!-- Node28 -->
<g id="node28" class="node">
<title>Node28</title>
<g id="a_node28"><a xlink:href="namespacea60_1_1metadata.html#a5570579c703597755acb69f31662661b" target="_top" xlink:title="Species (z, the unknown) glyph.">
<polygon fill="white" stroke="#666666" points="587.5,-40.75 477.5,-40.75 477.5,-14.75 587.5,-14.75 587.5,-40.75"/>
<text text-anchor="start" x="485.5" y="-30.35" font-family="SourceSans" font-size="8.00">a60::metadata::render</text>
<text text-anchor="middle" x="532.5" y="-21.35" font-family="SourceSans" font-size="8.00">_z_glyph</text>
</a>
</g>
</g>
<!-- Node27&#45;&gt;Node28 -->
<g id="edge32" class="edge">
<title>Node27&#45;&gt;Node28</title>
<path fill="none" stroke="#63b8ff" d="M433.21,-29.58C444.36,-29.37 456,-29.16 467.19,-28.95"/>
<polygon fill="#63b8ff" stroke="#63b8ff" points="467.39,-32.45 477.33,-28.76 467.26,-25.45 467.39,-32.45"/>
</g>
<!-- Node27&#45;&gt;Node29 -->
<g id="edge33" class="edge">
<title>Node27&#45;&gt;Node29</title>
<path fill="none" stroke="#63b8ff" d="M421.88,-43.84C437.35,-47.77 454.48,-52.14 470.51,-56.22"/>
<polygon fill="#63b8ff" stroke="#63b8ff" points="469.77,-59.64 480.33,-58.72 471.5,-52.86 469.77,-59.64"/>
</g>
<!-- Node30&#45;&gt;Node20 -->
<g id="edge36" class="edge">
<title>Node30&#45;&gt;Node20</title>
<path fill="none" stroke="#63b8ff" d="M704.6,-375.62C731.15,-359.09 776.56,-330.83 803.83,-313.86"/>
<polygon fill="#63b8ff" stroke="#63b8ff" points="806.01,-316.62 812.65,-308.37 802.32,-310.68 806.01,-316.62"/>
</g>
<!-- Node31&#45;&gt;Node4 -->
<g id="edge38" class="edge">
<title>Node31&#45;&gt;Node4</title>
<path fill="none" stroke="#63b8ff" d="M402.57,-253.88C412.43,-258.11 423.24,-262.95 433,-267.75 449.42,-275.83 451.5,-282.37 469,-287.75 519.48,-303.26 579.64,-307.39 623.04,-308"/>
<polygon fill="#63b8ff" stroke="#63b8ff" points="623.12,-311.5 633.15,-308.08 623.17,-304.5 623.12,-311.5"/>
</g>
<!-- Node32 -->
<g id="node32" class="node">
<title>Node32</title>
<g id="a_node32"><a xlink:href="namespacea60_1_1metadata.html#aeba42336cc4f30ed9ee705111d3e82a9" target="_top" xlink:title="Typographic defaults for text labels.">
<polygon fill="white" stroke="#666666" points="581.5,-360.75 483.5,-360.75 483.5,-334.75 581.5,-334.75 581.5,-360.75"/>
<text text-anchor="start" x="491.5" y="-350.35" font-family="SourceSans" font-size="8.00">a60::metadata::get</text>
<text text-anchor="middle" x="532.5" y="-341.35" font-family="SourceSans" font-size="8.00">_metadata_typo</text>
</a>
</g>
</g>
<!-- Node31&#45;&gt;Node32 -->
<g id="edge39" class="edge">
<title>Node31&#45;&gt;Node32</title>
<path fill="none" stroke="#63b8ff" d="M410.13,-253.83C418.19,-257.57 426.26,-262.18 433,-267.75 454.94,-285.9 447.06,-302.6 469,-320.75 473.21,-324.23 477.94,-327.34 482.87,-330.09"/>
<polygon fill="#63b8ff" stroke="#63b8ff" points="481.37,-333.26 491.87,-334.67 484.54,-327.02 481.37,-333.26"/>
</g>
<!-- Node33 -->
<g id="node33" class="node">
<title>Node33</title>
<g id="a_node33"><a xlink:href="namespacea60_1_1metadata.html#ab809b870c71701237f98849a7fe94a35" target="_top" xlink:title="Substitue &quot;&#45;&gt;&quot; for &quot;playing&quot; in input string s.">
<polygon fill="white" stroke="#666666" points="590.5,-278.75 474.5,-278.75 474.5,-252.75 590.5,-252.75 590.5,-278.75"/>
<text text-anchor="start" x="482.5" y="-268.35" font-family="SourceSans" font-size="8.00">a60::metadata::shorten</text>
<text text-anchor="middle" x="532.5" y="-259.35" font-family="SourceSans" font-size="8.00">_playing_value</text>
</a>
</g>
</g>
<!-- Node31&#45;&gt;Node33 -->
<g id="edge41" class="edge">
<title>Node31&#45;&gt;Node33</title>
<path fill="none" stroke="#63b8ff" d="M424.56,-249.14C437.3,-251.12 451.03,-253.25 464.27,-255.31"/>
<polygon fill="#63b8ff" stroke="#63b8ff" points="463.86,-258.79 474.28,-256.86 464.93,-251.87 463.86,-258.79"/>
</g>
<!-- Node34 -->
<g id="node34" class="node">
<title>Node34</title>
<g id="a_node34"><a xlink:href="namespacea60_1_1metadata.html#a841cf4a54bf053a6f8b77d8254053548" target="_top" xlink:title="Text moving up.">
<polygon fill="white" stroke="#666666" points="582,-234.75 483,-234.75 483,-208.75 582,-208.75 582,-234.75"/>
<text text-anchor="start" x="491" y="-224.35" font-family="SourceSans" font-size="8.00">a60::metadata::text</text>
<text text-anchor="middle" x="532.5" y="-215.35" font-family="SourceSans" font-size="8.00">_grow_up_from</text>
</a>
</g>
</g>
<!-- Node31&#45;&gt;Node34 -->
<g id="edge42" class="edge">
<title>Node31&#45;&gt;Node34</title>
<path fill="none" stroke="#63b8ff" d="M424.56,-234.37C440.07,-232.54 457.06,-230.54 472.83,-228.67"/>
<polygon fill="#63b8ff" stroke="#63b8ff" points="473.48,-232.12 483,-227.47 472.65,-225.17 473.48,-232.12"/>
</g>
<!-- Node32&#45;&gt;Node4 -->
<g id="edge40" class="edge">
<title>Node32&#45;&gt;Node4</title>
<path fill="none" stroke="#63b8ff" d="M580.74,-334.66C594.69,-330.8 610.11,-326.53 624.6,-322.51"/>
<polygon fill="#63b8ff" stroke="#63b8ff" points="625.76,-325.82 634.46,-319.78 623.89,-319.08 625.76,-325.82"/>
</g>
<!-- Node36&#45;&gt;Node36 -->
<g id="edge46" class="edge">
<title>Node36&#45;&gt;Node36</title>
<path fill="none" stroke="#63b8ff" d="M185.35,-171.44C172.84,-179.92 180.39,-189.25 208,-189.25 226.55,-189.25 236.04,-185.04 236.48,-179.7"/>
<polygon fill="#63b8ff" stroke="#63b8ff" points="239.27,-177.59 230.65,-171.44 233.56,-181.62 239.27,-177.59"/>
</g>
</g>
</svg>
        <g id="navigator" transform="translate(0 0)" fill="#404254">
                <rect fill="#f2f5e9" fill-opacity="0.5" stroke="#606060" stroke-width=".5" x="0" y="0" width="60" height="60"/>
                <use id="zoomplus" xlink:href="#zoomPlus" x="17" y="9" onmousedown="handleZoom(evt,'in')"/>
                <use id="zoomminus" xlink:href="#zoomMin" x="42" y="9" onmousedown="handleZoom(evt,'out')"/>
                <use id="reset" xlink:href="#resetDef" x="30" y="36" onmousedown="handleReset()"/>
                <g id="arrowUp" xlink:href="#dirArrow" transform="translate(30 24)" onmousedown="handlePan(0,-1)">
                  <use xlink:href="#rim" fill="#404040">
                        <set attributeName="fill" to="#808080" begin="arrowUp.mouseover" end="arrowUp.mouseout"/>
                  </use>
                  <path fill="none" stroke="white" stroke-width="1.5" d="M0,-3.0v7 M-2.5,-0.5L0,-3.0L2.5,-0.5"/>
                </g>
                <g id="arrowRight" xlink:href="#dirArrow" transform="rotate(90) translate(36 -43)" onmousedown="handlePan(1,0)">
                  <use xlink:href="#rim" fill="#404040">
                        <set attributeName="fill" to="#808080" begin="arrowRight.mouseover" end="arrowRight.mouseout"/>
                  </use>
                  <path fill="none" stroke="white" stroke-width="1.5" d="M0,-3.0v7 M-2.5,-0.5L0,-3.0L2.5,-0.5"/>
                </g>
                <g id="arrowDown" xlink:href="#dirArrow" transform="rotate(180) translate(-30 -48)" onmousedown="handlePan(0,1)">
                  <use xlink:href="#rim" fill="#404040">
                        <set attributeName="fill" to="#808080" begin="arrowDown.mouseover" end="arrowDown.mouseout"/>
                  </use>
                  <path fill="none" stroke="white" stroke-width="1.5" d="M0,-3.0v7 M-2.5,-0.5L0,-3.0L2.5,-0.5"/>
                </g>
                <g id="arrowLeft" xlink:href="#dirArrow" transform="rotate(270) translate(-36 17)" onmousedown="handlePan(-1,0)">
                  <use xlink:href="#rim" fill="#404040">
                        <set attributeName="fill" to="#808080" begin="arrowLeft.mouseover" end="arrowLeft.mouseout"/>
                  </use>
                  <path fill="none" stroke="white" stroke-width="1.5" d="M0,-3.0v7 M-2.5,-0.5L0,-3.0L2.5,-0.5"/>
                </g>
        </g>
        <svg viewBox="0 0 15 15" width="100%" height="30px" preserveAspectRatio="xMaxYMin meet">
         <g id="arrow_out" transform="scale(0.3 0.3)">
          <a xlink:href="namespacea60_1_1metadata_a5d8105bbec10afec2f56ef1c3633ee10_cgraph_org.svg" target="_base">
           <rect id="button" ry="5" rx="5" y="6" x="6" height="38" width="38"
                fill="#f2f5e9" fill-opacity="0.5" stroke="#606060" stroke-width="1.0"/>
           <path id="arrow"
             d="M 11.500037,31.436501 C 11.940474,20.09759 22.043105,11.32322 32.158766,21.979434 L 37.068811,17.246167 C 37.068811,17.246167 37.088388,32 37.088388,32 L 22.160133,31.978069 C 22.160133,31.978069 26.997745,27.140456 26.997745,27.140456 C 18.528582,18.264221 13.291696,25.230495 11.500037,31.436501 z"
             style="fill:#404040;"/>
          </a>
         </g>
        </svg>
</svg>
