<?xml version="1.0" encoding="UTF-8" standalone="no"?>
<!DOCTYPE svg PUBLIC "-//W3C//DTD SVG 1.1//EN"
 "http://www.w3.org/Graphics/SVG/1.1/DTD/svg11.dtd">
<!-- Generated by graphviz version 5.0.0 (0)
 -->
<!-- Title: a60::metadata::files_with_fields_matching Pages: 1 -->
<!--zoomable 330 -->
<svg id="main" version="1.1" xmlns="http://www.w3.org/2000/svg" xmlns:xlink="http://www.w3.org/1999/xlink" xml:space="preserve" onload="init(evt)">
<style type="text/css"><![CDATA[
.edge:hover path { stroke: red; }
.edge:hover polygon { stroke: red; fill: red; }
]]></style>
<script type="text/javascript"><![CDATA[
var edges = document.getElementsByTagName('g');
if (edges && edges.length) {
  for (var i=0;i<edges.length;i++) {
    if (edges[i].id.substr(0,4)=='edge') {
      edges[i].setAttribute('class','edge');
    }
  }
}
]]></script>
        <defs>
                <circle id="rim" cx="0" cy="0" r="7"/>
                <circle id="rim2" cx="0" cy="0" r="3.5"/>
                <g id="zoomPlus">
                        <use xlink:href="#rim" fill="#404040">
                                <set attributeName="fill" to="#808080" begin="zoomplus.mouseover" end="zoomplus.mouseout"/>
                        </use>
                        <path d="M-4,0h8M0,-4v8" fill="none" stroke="white" stroke-width="1.5" pointer-events="none"/>
                </g>
                <g id="zoomMin">
                        <use xlink:href="#rim" fill="#404040">
                                <set attributeName="fill" to="#808080" begin="zoomminus.mouseover" end="zoomminus.mouseout"/>
                        </use>
                        <path d="M-4,0h8" fill="none" stroke="white" stroke-width="1.5" pointer-events="none"/>
                </g>
                <g id="dirArrow">
                        <path fill="none" stroke="white" stroke-width="1.5" d="M0,-3.0v7 M-2.5,-0.5L0,-3.0L2.5,-0.5"/>
                </g>
               <g id="resetDef">
                       <use xlink:href="#rim2" fill="#404040">
                               <set attributeName="fill" to="#808080" begin="reset.mouseover" end="reset.mouseout"/>
                       </use>
               </g>
        </defs>

<script type="text/javascript">
var viewWidth = 566;
var viewHeight = 330;
var sectionId = 'dynsection-33';
</script>
<script xlink:href="svgpan.js"/>
<svg id="graph" class="graph">
<g id="viewport">
<title>a60::metadata::files_with_fields_matching</title>
<!-- Node1 -->
<g id="node1" class="node">
<title>Node1</title>
<g id="a_node1"><a xlink:title="Convenience function for above.">
<polygon fill="#999999" stroke="#666666" points="106,-50.5 0,-50.5 0,-24.5 106,-24.5 106,-50.5"/>
<text text-anchor="start" x="8" y="-40.1" font-family="SourceSans" font-size="8.00">a60::metadata::files</text>
<text text-anchor="middle" x="53" y="-31.1" font-family="SourceSans" font-size="8.00">_with_fields_matching</text>
</a>
</g>
</g>
<!-- Node2 -->
<g id="node2" class="node">
<title>Node2</title>
<g id="a_node2"><a xlink:href="namespacea60_1_1metadata.html#a98d5807e6dc5b5f4a7a33b45b5e7e816" target="_top" xlink:title="Find metadata files containing. Find field of name &#39;field&#39; in JSON file and return vector of name&#45;key...">
<polygon fill="white" stroke="#666666" points="243,-79.5 142,-79.5 142,-53.5 243,-53.5 243,-79.5"/>
<text text-anchor="start" x="150" y="-69.1" font-family="SourceSans" font-size="8.00">a60::metadata::files</text>
<text text-anchor="middle" x="192.5" y="-60.1" font-family="SourceSans" font-size="8.00">_with_field_matching</text>
</a>
</g>
</g>
<!-- Node1&#45;&gt;Node2 -->
<g id="edge1" class="edge">
<title>Node1&#45;&gt;Node2</title>
<path fill="none" stroke="#63b8ff" d="M106.38,-48.55C114.78,-50.32 123.52,-52.16 132.07,-53.97"/>
<polygon fill="#63b8ff" stroke="#63b8ff" points="131.48,-57.42 141.99,-56.06 132.93,-50.57 131.48,-57.42"/>
</g>
<!-- Node15 -->
<g id="node15" class="node">
<title>Node15</title>
<g id="a_node15"><a xlink:href="namespacea60.html#a4e8b0cabed112734147b499bf0cc9029" target="_top" xlink:title="Conversion of resolution_mode to string.">
<polygon fill="white" stroke="#666666" points="229.5,-17 155.5,-17 155.5,0 229.5,0 229.5,-17"/>
<text text-anchor="middle" x="192.5" y="-6.6" font-family="SourceSans" font-size="8.00">a60::to_string</text>
</a>
</g>
</g>
<!-- Node1&#45;&gt;Node15 -->
<g id="edge14" class="edge">
<title>Node1&#45;&gt;Node15</title>
<path fill="none" stroke="#63b8ff" d="M106.38,-26.45C119.31,-23.73 133.07,-20.82 145.66,-18.17"/>
<polygon fill="#63b8ff" stroke="#63b8ff" points="146.42,-21.59 155.48,-16.1 144.97,-14.74 146.42,-21.59"/>
</g>
<!-- Node3 -->
<g id="node3" class="node">
<title>Node3</title>
<g id="a_node3"><a xlink:href="namespacea60_1_1metadata.html#adefdcf326e3314b557066902a1e2dcf9" target="_top" xlink:title=" ">
<polygon fill="white" stroke="#666666" points="403,-196.5 279,-196.5 279,-170.5 403,-170.5 403,-196.5"/>
<text text-anchor="start" x="287" y="-186.1" font-family="SourceSans" font-size="8.00">a60::metadata::canonical</text>
<text text-anchor="middle" x="341" y="-177.1" font-family="SourceSans" font-size="8.00">_media_name</text>
</a>
</g>
</g>
<!-- Node2&#45;&gt;Node3 -->
<g id="edge2" class="edge">
<title>Node2&#45;&gt;Node3</title>
<path fill="none" stroke="#63b8ff" d="M210.02,-79.69C235.74,-100.23 285.5,-139.97 315.43,-163.88"/>
<polygon fill="#63b8ff" stroke="#63b8ff" points="313.32,-166.67 323.31,-170.17 317.69,-161.2 313.32,-166.67"/>
</g>
<!-- Node11 -->
<g id="node11" class="node">
<title>Node11</title>
<g id="a_node11"><a xlink:href="namespacea60.html#af45982273a7a2e61b6aaa436081238c0" target="_top" xlink:title="Load JSON file to in&#45;memory DOM.">
<polygon fill="white" stroke="#666666" points="393,-99.5 289,-99.5 289,-73.5 393,-73.5 393,-99.5"/>
<text text-anchor="start" x="297" y="-89.1" font-family="SourceSans" font-size="8.00">a60::deserialize_json</text>
<text text-anchor="middle" x="341" y="-80.1" font-family="SourceSans" font-size="8.00">_to_dom_object</text>
</a>
</g>
</g>
<!-- Node2&#45;&gt;Node11 -->
<g id="edge10" class="edge">
<title>Node2&#45;&gt;Node11</title>
<path fill="none" stroke="#63b8ff" d="M243.1,-73.27C254.64,-74.85 267.06,-76.54 279.03,-78.18"/>
<polygon fill="#63b8ff" stroke="#63b8ff" points="278.57,-81.65 288.95,-79.53 279.52,-74.71 278.57,-81.65"/>
</g>
<!-- Node13 -->
<g id="node13" class="node">
<title>Node13</title>
<g id="a_node13"><a xlink:href="namespacea60_1_1constants.html#ac27c77e4606552ae5f74a1c21dd9258e" target="_top" xlink:title=" ">
<polygon fill="white" stroke="#666666" points="399.5,-55 282.5,-55 282.5,-38 399.5,-38 399.5,-55"/>
<text text-anchor="middle" x="341" y="-44.6" font-family="SourceSans" font-size="8.00">a60::constants::newline</text>
</a>
</g>
</g>
<!-- Node2&#45;&gt;Node13 -->
<g id="edge12" class="edge">
<title>Node2&#45;&gt;Node13</title>
<path fill="none" stroke="#63b8ff" d="M243.1,-59.73C252.46,-58.45 262.4,-57.09 272.22,-55.75"/>
<polygon fill="#63b8ff" stroke="#63b8ff" points="272.93,-59.19 282.36,-54.37 271.98,-52.25 272.93,-59.19"/>
</g>
<!-- Node14 -->
<g id="node14" class="node">
<title>Node14</title>
<g id="a_node14"><a xlink:href="namespacea60_1_1constants.html#a114d624cfb36c0f4079b16739844e840" target="_top" xlink:title=" ">
<polygon fill="white" stroke="#666666" points="395.5,-20 286.5,-20 286.5,-3 395.5,-3 395.5,-20"/>
<text text-anchor="middle" x="341" y="-9.6" font-family="SourceSans" font-size="8.00">a60::constants::quote</text>
</a>
</g>
</g>
<!-- Node2&#45;&gt;Node14 -->
<g id="edge13" class="edge">
<title>Node2&#45;&gt;Node14</title>
<path fill="none" stroke="#63b8ff" d="M221.96,-53.32C242.32,-43.98 267.99,-32.46 279,-28.5 284.5,-26.52 290.35,-24.63 296.16,-22.88"/>
<polygon fill="#63b8ff" stroke="#63b8ff" points="297.22,-26.22 305.84,-20.07 295.26,-19.5 297.22,-26.22"/>
</g>
<!-- Node4 -->
<g id="node4" class="node">
<title>Node4</title>
<g id="a_node4"><a xlink:href="namespacea60_1_1constants.html#a8a38c40674ec5fbf57af8127a67d1609" target="_top" xlink:title=" ">
<polygon fill="white" stroke="#666666" points="552,-322 445,-322 445,-305 552,-305 552,-322"/>
<text text-anchor="middle" x="498.5" y="-311.6" font-family="SourceSans" font-size="8.00">a60::constants::colon</text>
</a>
</g>
</g>
<!-- Node3&#45;&gt;Node4 -->
<g id="edge3" class="edge">
<title>Node3&#45;&gt;Node4</title>
<path fill="none" stroke="#63b8ff" d="M349.78,-196.86C364.27,-220.54 397.7,-269.9 439,-296.5 441.58,-298.16 444.34,-299.67 447.18,-301.03"/>
<polygon fill="#63b8ff" stroke="#63b8ff" points="445.94,-304.3 456.52,-304.91 448.62,-297.84 445.94,-304.3"/>
</g>
<!-- Node5 -->
<g id="node5" class="node">
<title>Node5</title>
<g id="a_node5"><a xlink:href="namespacea60_1_1constants.html#a6338b74a1c5c6dc024b03069e07e34ac" target="_top" xlink:title=" ">
<polygon fill="white" stroke="#666666" points="556.5,-287 440.5,-287 440.5,-270 556.5,-270 556.5,-287"/>
<text text-anchor="middle" x="498.5" y="-276.6" font-family="SourceSans" font-size="8.00">a60::constants::hyphen</text>
</a>
</g>
</g>
<!-- Node3&#45;&gt;Node5 -->
<g id="edge4" class="edge">
<title>Node3&#45;&gt;Node5</title>
<path fill="none" stroke="#63b8ff" d="M354.91,-196.74C372.45,-214 405.46,-244.04 439,-261.5 442.54,-263.34 446.31,-265.01 450.16,-266.52"/>
<polygon fill="#63b8ff" stroke="#63b8ff" points="449.23,-269.9 459.82,-269.93 451.56,-263.3 449.23,-269.9"/>
</g>
<!-- Node6 -->
<g id="node6" class="node">
<title>Node6</title>
<g id="a_node6"><a xlink:href="namespacea60_1_1constants.html#a370b70e28b3935e8736cb9e79697ceda" target="_top" xlink:title=" ">
<polygon fill="white" stroke="#666666" points="554,-252 443,-252 443,-235 554,-235 554,-252"/>
<text text-anchor="middle" x="498.5" y="-241.6" font-family="SourceSans" font-size="8.00">a60::constants::period</text>
</a>
</g>
</g>
<!-- Node3&#45;&gt;Node6 -->
<g id="edge5" class="edge">
<title>Node3&#45;&gt;Node6</title>
<path fill="none" stroke="#63b8ff" d="M370.1,-196.65C389.29,-205.38 415.41,-216.8 439,-225.5 445.02,-227.72 451.45,-229.9 457.77,-231.92"/>
<polygon fill="#63b8ff" stroke="#63b8ff" points="456.94,-235.33 467.53,-234.97 459.03,-228.65 456.94,-235.33"/>
</g>
<!-- Node7 -->
<g id="node7" class="node">
<title>Node7</title>
<g id="a_node7"><a xlink:href="namespacea60.html#a34d53970ee23a7c014960a2bf1a10e2b" target="_top" xlink:title="Search DOM for string literals.">
<polygon fill="white" stroke="#666666" points="550,-216.5 447,-216.5 447,-190.5 550,-190.5 550,-216.5"/>
<text text-anchor="start" x="455" y="-206.1" font-family="SourceSans" font-size="8.00">a60::search_dom_for</text>
<text text-anchor="middle" x="498.5" y="-197.1" font-family="SourceSans" font-size="8.00">_string_field</text>
</a>
</g>
</g>
<!-- Node3&#45;&gt;Node7 -->
<g id="edge6" class="edge">
<title>Node3&#45;&gt;Node7</title>
<path fill="none" stroke="#63b8ff" d="M403.01,-191.35C414.09,-192.77 425.64,-194.26 436.7,-195.68"/>
<polygon fill="#63b8ff" stroke="#63b8ff" points="436.34,-199.16 446.71,-196.97 437.23,-192.22 436.34,-199.16"/>
</g>
<!-- Node8 -->
<g id="node8" class="node">
<title>Node8</title>
<g id="a_node8"><a xlink:href="namespacea60.html#a0022cb8323c9a304730c5d70e4da4e4b" target="_top" xlink:title=" ">
<polygon fill="white" stroke="#666666" points="549,-172 448,-172 448,-155 549,-155 549,-172"/>
<text text-anchor="middle" x="498.5" y="-161.6" font-family="SourceSans" font-size="8.00">a60::to_erase_string</text>
</a>
</g>
</g>
<!-- Node3&#45;&gt;Node8 -->
<g id="edge7" class="edge">
<title>Node3&#45;&gt;Node8</title>
<path fill="none" stroke="#63b8ff" d="M403.01,-175.65C414.35,-174.19 426.18,-172.67 437.48,-171.22"/>
<polygon fill="#63b8ff" stroke="#63b8ff" points="438.22,-174.65 447.69,-169.91 437.32,-167.71 438.22,-174.65"/>
</g>
<!-- Node9 -->
<g id="node9" class="node">
<title>Node9</title>
<g id="a_node9"><a xlink:href="namespacea60.html#ac7eddb2e330d8983ddc852edde5335c5" target="_top" xlink:title=" ">
<polygon fill="white" stroke="#666666" points="558,-137 439,-137 439,-120 558,-120 558,-137"/>
<text text-anchor="middle" x="498.5" y="-126.6" font-family="SourceSans" font-size="8.00">a60::to_lowercase_string</text>
</a>
</g>
</g>
<!-- Node3&#45;&gt;Node9 -->
<g id="edge8" class="edge">
<title>Node3&#45;&gt;Node9</title>
<path fill="none" stroke="#63b8ff" d="M374.58,-170.46C393.31,-163.11 417.36,-153.95 439,-146.5 445.41,-144.29 452.27,-142.07 458.94,-139.97"/>
<polygon fill="#63b8ff" stroke="#63b8ff" points="460,-143.31 468.52,-137.01 457.93,-136.62 460,-143.31"/>
</g>
<!-- Node10 -->
<g id="node10" class="node">
<title>Node10</title>
<g id="a_node10"><a xlink:href="namespacea60.html#a751f954fe64233f1dc6517220e4b5692" target="_top" xlink:title=" ">
<polygon fill="white" stroke="#666666" points="552,-102 445,-102 445,-85 552,-85 552,-102"/>
<text text-anchor="middle" x="498.5" y="-91.6" font-family="SourceSans" font-size="8.00">a60::to_replace_string</text>
</a>
</g>
</g>
<!-- Node3&#45;&gt;Node10 -->
<g id="edge9" class="edge">
<title>Node3&#45;&gt;Node10</title>
<path fill="none" stroke="#63b8ff" d="M356.4,-170.31C374.47,-154.38 407,-127.69 439,-111.5 443.39,-109.28 448.11,-107.27 452.89,-105.47"/>
<polygon fill="#63b8ff" stroke="#63b8ff" points="454.4,-108.65 462.71,-102.08 452.11,-102.04 454.4,-108.65"/>
</g>
<!-- Node12 -->
<g id="node12" class="node">
<title>Node12</title>
<g id="a_node12"><a xlink:href="namespacea60.html#a538d43bb9bfa488a54cea929736dbe2d" target="_top" xlink:title="Deserialize input file.">
<polygon fill="white" stroke="#666666" points="550.5,-66.5 446.5,-66.5 446.5,-40.5 550.5,-40.5 550.5,-66.5"/>
<text text-anchor="start" x="454.5" y="-56.1" font-family="SourceSans" font-size="8.00">a60::deserialize_json</text>
<text text-anchor="middle" x="498.5" y="-47.1" font-family="SourceSans" font-size="8.00">_to_dom</text>
</a>
</g>
</g>
<!-- Node11&#45;&gt;Node12 -->
<g id="edge11" class="edge">
<title>Node11&#45;&gt;Node12</title>
<path fill="none" stroke="#63b8ff" d="M393.35,-75.6C407.09,-72.69 422.07,-69.51 436.29,-66.49"/>
<polygon fill="#63b8ff" stroke="#63b8ff" points="437.42,-69.83 446.47,-64.33 435.96,-62.98 437.42,-69.83"/>
</g>
<!-- Node15&#45;&gt;Node15 -->
<g id="edge15" class="edge">
<title>Node15&#45;&gt;Node15</title>
<path fill="none" stroke="#63b8ff" d="M171.94,-17.19C160.58,-25.67 167.43,-35 192.5,-35 208.95,-35 217.56,-30.98 218.32,-25.82"/>
<polygon fill="#63b8ff" stroke="#63b8ff" points="221.25,-23.91 213.06,-17.19 215.27,-27.55 221.25,-23.91"/>
</g>
</g>
</svg>
        <g id="navigator" transform="translate(0 0)" fill="#404254">
                <rect fill="#f2f5e9" fill-opacity="0.5" stroke="#606060" stroke-width=".5" x="0" y="0" width="60" height="60"/>
                <use id="zoomplus" xlink:href="#zoomPlus" x="17" y="9" onmousedown="handleZoom(evt,'in')"/>
                <use id="zoomminus" xlink:href="#zoomMin" x="42" y="9" onmousedown="handleZoom(evt,'out')"/>
                <use id="reset" xlink:href="#resetDef" x="30" y="36" onmousedown="handleReset()"/>
                <g id="arrowUp" xlink:href="#dirArrow" transform="translate(30 24)" onmousedown="handlePan(0,-1)">
                  <use xlink:href="#rim" fill="#404040">
                        <set attributeName="fill" to="#808080" begin="arrowUp.mouseover" end="arrowUp.mouseout"/>
                  </use>
                  <path fill="none" stroke="white" stroke-width="1.5" d="M0,-3.0v7 M-2.5,-0.5L0,-3.0L2.5,-0.5"/>
                </g>
                <g id="arrowRight" xlink:href="#dirArrow" transform="rotate(90) translate(36 -43)" onmousedown="handlePan(1,0)">
                  <use xlink:href="#rim" fill="#404040">
                        <set attributeName="fill" to="#808080" begin="arrowRight.mouseover" end="arrowRight.mouseout"/>
                  </use>
                  <path fill="none" stroke="white" stroke-width="1.5" d="M0,-3.0v7 M-2.5,-0.5L0,-3.0L2.5,-0.5"/>
                </g>
                <g id="arrowDown" xlink:href="#dirArrow" transform="rotate(180) translate(-30 -48)" onmousedown="handlePan(0,1)">
                  <use xlink:href="#rim" fill="#404040">
                        <set attributeName="fill" to="#808080" begin="arrowDown.mouseover" end="arrowDown.mouseout"/>
                  </use>
                  <path fill="none" stroke="white" stroke-width="1.5" d="M0,-3.0v7 M-2.5,-0.5L0,-3.0L2.5,-0.5"/>
                </g>
                <g id="arrowLeft" xlink:href="#dirArrow" transform="rotate(270) translate(-36 17)" onmousedown="handlePan(-1,0)">
                  <use xlink:href="#rim" fill="#404040">
                        <set attributeName="fill" to="#808080" begin="arrowLeft.mouseover" end="arrowLeft.mouseout"/>
                  </use>
                  <path fill="none" stroke="white" stroke-width="1.5" d="M0,-3.0v7 M-2.5,-0.5L0,-3.0L2.5,-0.5"/>
                </g>
        </g>
        <svg viewBox="0 0 15 15" width="100%" height="30px" preserveAspectRatio="xMaxYMin meet">
         <g id="arrow_out" transform="scale(0.3 0.3)">
          <a xlink:href="namespacea60_1_1metadata_a878800b08b602c86cebbebc538060e9a_cgraph_org.svg" target="_base">
           <rect id="button" ry="5" rx="5" y="6" x="6" height="38" width="38"
                fill="#f2f5e9" fill-opacity="0.5" stroke="#606060" stroke-width="1.0"/>
           <path id="arrow"
             d="M 11.500037,31.436501 C 11.940474,20.09759 22.043105,11.32322 32.158766,21.979434 L 37.068811,17.246167 C 37.068811,17.246167 37.088388,32 37.088388,32 L 22.160133,31.978069 C 22.160133,31.978069 26.997745,27.140456 26.997745,27.140456 C 18.528582,18.264221 13.291696,25.230495 11.500037,31.436501 z"
             style="fill:#404040;"/>
          </a>
         </g>
        </svg>
</svg>
