<?xml version="1.0" encoding="UTF-8" standalone="no"?>
<!DOCTYPE svg PUBLIC "-//W3C//DTD SVG 1.1//EN"
 "http://www.w3.org/Graphics/SVG/1.1/DTD/svg11.dtd">
<!-- Generated by graphviz version 5.0.0 (0)
 -->
<!-- Title: a60::fiber_paths_from_dir Pages: 1 -->
<svg width="432pt" height="222pt"
 viewBox="0.00 0.00 432.00 221.50" xmlns="http://www.w3.org/2000/svg" xmlns:xlink="http://www.w3.org/1999/xlink">
<g id="graph0" class="graph" transform="scale(1 1) rotate(0) translate(4 217.5)">
<title>a60::fiber_paths_from_dir</title>
<!-- Node1 -->
<g id="node1" class="node">
<title>Node1</title>
<g id="a_node1"><a xlink:title="Create paths that map out telecom cables from individual files populating the cables toplevel directo...">
<polygon fill="#999999" stroke="#666666" points="120,-105 0,-105 0,-88 120,-88 120,-105"/>
<text text-anchor="middle" x="60" y="-94.6" font-family="SourceSans" font-size="8.00">a60::fiber_paths_from_dir</text>
</a>
</g>
</g>
<!-- Node2 -->
<g id="node2" class="node">
<title>Node2</title>
<g id="a_node2"><a xlink:href="namespacea60.html#af45982273a7a2e61b6aaa436081238c0" target="_top" xlink:title="Load JSON file to in&#45;memory DOM.">
<polygon fill="white" stroke="#666666" points="266.5,-213.5 162.5,-213.5 162.5,-187.5 266.5,-187.5 266.5,-213.5"/>
<text text-anchor="start" x="170.5" y="-203.1" font-family="SourceSans" font-size="8.00">a60::deserialize_json</text>
<text text-anchor="middle" x="214.5" y="-194.1" font-family="SourceSans" font-size="8.00">_to_dom_object</text>
</a>
</g>
</g>
<!-- Node1&#45;&gt;Node2 -->
<g id="edge1" class="edge">
<title>Node1&#45;&gt;Node2</title>
<path fill="none" stroke="#63b8ff" d="M69.11,-105.29C84.61,-121.64 120.09,-157.04 156,-178.5 158.8,-180.17 161.75,-181.76 164.77,-183.26"/>
<polygon fill="#63b8ff" stroke="#63b8ff" points="163.43,-186.49 173.98,-187.47 166.35,-180.13 163.43,-186.49"/>
</g>
<!-- Node4 -->
<g id="node4" class="node">
<title>Node4</title>
<g id="a_node4"><a xlink:href="namespacea60_1_1carto.html#af6e00609f7cb8d99c578df7700445c2c" target="_top" xlink:title="Returns minimized path, fitting points to a globe. If the minimized path is redirected,...">
<polygon fill="white" stroke="#666666" points="265.5,-169.5 163.5,-169.5 163.5,-143.5 265.5,-143.5 265.5,-169.5"/>
<text text-anchor="start" x="171.5" y="-159.1" font-family="SourceSans" font-size="8.00">a60::carto::minimize</text>
<text text-anchor="middle" x="214.5" y="-150.1" font-family="SourceSans" font-size="8.00">_path_distance</text>
</a>
</g>
</g>
<!-- Node1&#45;&gt;Node4 -->
<g id="edge3" class="edge">
<title>Node1&#45;&gt;Node4</title>
<path fill="none" stroke="#63b8ff" d="M82.85,-105.1C105.71,-114.09 142.19,-128.45 170.8,-139.7"/>
<polygon fill="#63b8ff" stroke="#63b8ff" points="169.59,-142.98 180.17,-143.39 172.15,-136.47 169.59,-142.98"/>
</g>
<!-- Node6 -->
<g id="node6" class="node">
<title>Node6</title>
<g id="a_node6"><a xlink:href="structa60_1_1carto_1_1cartography.html#a57e14cabb4993189316e369a27752a73" target="_top" xlink:title=" ">
<polygon fill="white" stroke="#666666" points="424,-129.5 309,-129.5 309,-103.5 424,-103.5 424,-129.5"/>
<text text-anchor="start" x="317" y="-119.1" font-family="SourceSans" font-size="8.00">a60::carto::cartography</text>
<text text-anchor="middle" x="366.5" y="-110.1" font-family="SourceSans" font-size="8.00">::to_point_2d</text>
</a>
</g>
</g>
<!-- Node1&#45;&gt;Node6 -->
<g id="edge9" class="edge">
<title>Node1&#45;&gt;Node6</title>
<path fill="none" stroke="#63b8ff" d="M120.07,-100.38C171.33,-103.75 245.49,-108.62 298.86,-112.12"/>
<polygon fill="#63b8ff" stroke="#63b8ff" points="298.7,-115.62 308.91,-112.78 299.16,-108.64 298.7,-115.62"/>
</g>
<!-- Node7 -->
<g id="node7" class="node">
<title>Node7</title>
<g id="a_node7"><a xlink:href="namespacea60_1_1constants.html#ac27c77e4606552ae5f74a1c21dd9258e" target="_top" xlink:title=" ">
<polygon fill="white" stroke="#666666" points="273,-87 156,-87 156,-70 273,-70 273,-87"/>
<text text-anchor="middle" x="214.5" y="-76.6" font-family="SourceSans" font-size="8.00">a60::constants::newline</text>
</a>
</g>
</g>
<!-- Node1&#45;&gt;Node7 -->
<g id="edge6" class="edge">
<title>Node1&#45;&gt;Node7</title>
<path fill="none" stroke="#63b8ff" d="M120.4,-89.49C128.6,-88.52 137.08,-87.52 145.43,-86.53"/>
<polygon fill="#63b8ff" stroke="#63b8ff" points="146,-89.99 155.52,-85.34 145.18,-83.04 146,-89.99"/>
</g>
<!-- Node8 -->
<g id="node8" class="node">
<title>Node8</title>
<g id="a_node8"><a xlink:href="namespacea60_1_1io.html#aea30b8fc474f5a7b922516dc1e199037" target="_top" xlink:title="Takes a string representing a directory, returns a sorted list of contents as a std::vector&lt;string&gt;.">
<polygon fill="white" stroke="#666666" points="269.5,-52 159.5,-52 159.5,-35 269.5,-35 269.5,-52"/>
<text text-anchor="middle" x="214.5" y="-41.6" font-family="SourceSans" font-size="8.00">a60::io::populate_files</text>
</a>
</g>
</g>
<!-- Node1&#45;&gt;Node8 -->
<g id="edge7" class="edge">
<title>Node1&#45;&gt;Node8</title>
<path fill="none" stroke="#63b8ff" d="M82.34,-87.89C101.49,-80.29 130.43,-69.11 156,-60.5 161.56,-58.63 167.46,-56.75 173.28,-54.97"/>
<polygon fill="#63b8ff" stroke="#63b8ff" points="174.36,-58.3 182.93,-52.08 172.34,-51.6 174.36,-58.3"/>
</g>
<!-- Node9 -->
<g id="node9" class="node">
<title>Node9</title>
<g id="a_node9"><a xlink:href="namespacea60_1_1io.html#af9ba5ecc6e668e47fb2f020216f7b611" target="_top" xlink:title="Strip off path component from full&#45;qualified filename.">
<polygon fill="white" stroke="#666666" points="263.5,-17 165.5,-17 165.5,0 263.5,0 263.5,-17"/>
<text text-anchor="middle" x="214.5" y="-6.6" font-family="SourceSans" font-size="8.00">a60::io::prune_path</text>
</a>
</g>
</g>
<!-- Node1&#45;&gt;Node9 -->
<g id="edge8" class="edge">
<title>Node1&#45;&gt;Node9</title>
<path fill="none" stroke="#63b8ff" d="M70.22,-87.8C86.38,-73.01 121.39,-42.85 156,-25.5 159.77,-23.61 163.78,-21.89 167.87,-20.34"/>
<polygon fill="#63b8ff" stroke="#63b8ff" points="169.17,-23.6 177.47,-17.02 166.88,-16.98 169.17,-23.6"/>
</g>
<!-- Node3 -->
<g id="node3" class="node">
<title>Node3</title>
<g id="a_node3"><a xlink:href="namespacea60.html#a538d43bb9bfa488a54cea929736dbe2d" target="_top" xlink:title="Deserialize input file.">
<polygon fill="white" stroke="#666666" points="418.5,-213.5 314.5,-213.5 314.5,-187.5 418.5,-187.5 418.5,-213.5"/>
<text text-anchor="start" x="322.5" y="-203.1" font-family="SourceSans" font-size="8.00">a60::deserialize_json</text>
<text text-anchor="middle" x="366.5" y="-194.1" font-family="SourceSans" font-size="8.00">_to_dom</text>
</a>
</g>
</g>
<!-- Node2&#45;&gt;Node3 -->
<g id="edge2" class="edge">
<title>Node2&#45;&gt;Node3</title>
<path fill="none" stroke="#63b8ff" d="M266.7,-200.5C278.7,-200.5 291.61,-200.5 304.01,-200.5"/>
<polygon fill="#63b8ff" stroke="#63b8ff" points="304.27,-204 314.27,-200.5 304.27,-197 304.27,-204"/>
</g>
<!-- Node5 -->
<g id="node5" class="node">
<title>Node5</title>
<g id="a_node5"><a xlink:href="namespacea60.html#a3c32f6c147e634c4b4c383aa09007d74" target="_top" xlink:title=" ">
<polygon fill="white" stroke="#666666" points="421.5,-165 311.5,-165 311.5,-148 421.5,-148 421.5,-165"/>
<text text-anchor="middle" x="366.5" y="-154.6" font-family="SourceSans" font-size="8.00">a60::distance_point_2t</text>
</a>
</g>
</g>
<!-- Node4&#45;&gt;Node5 -->
<g id="edge4" class="edge">
<title>Node4&#45;&gt;Node5</title>
<path fill="none" stroke="#63b8ff" d="M265.87,-156.5C277.19,-156.5 289.35,-156.5 301.16,-156.5"/>
<polygon fill="#63b8ff" stroke="#63b8ff" points="301.41,-160 311.41,-156.5 301.41,-153 301.41,-160"/>
</g>
<!-- Node4&#45;&gt;Node6 -->
<g id="edge5" class="edge">
<title>Node4&#45;&gt;Node6</title>
<path fill="none" stroke="#63b8ff" d="M264.62,-143.4C278.02,-139.83 292.69,-135.92 306.58,-132.21"/>
<polygon fill="#63b8ff" stroke="#63b8ff" points="307.77,-135.52 316.53,-129.56 305.97,-128.75 307.77,-135.52"/>
</g>
</g>
</svg>
