<?xml version="1.0" encoding="UTF-8" standalone="no"?>
<!DOCTYPE svg PUBLIC "-//W3C//DTD SVG 1.1//EN"
 "http://www.w3.org/Graphics/SVG/1.1/DTD/svg11.dtd">
<!-- Generated by graphviz version 5.0.0 (0)
 -->
<!-- Title: a60::serialize_buffer Pages: 1 -->
<svg width="275pt" height="60pt"
 viewBox="0.00 0.00 275.00 60.00" xmlns="http://www.w3.org/2000/svg" xmlns:xlink="http://www.w3.org/1999/xlink">
<g id="graph0" class="graph" transform="scale(1 1) rotate(0) translate(4 56)">
<title>a60::serialize_buffer</title>
<!-- Node1 -->
<g id="node1" class="node">
<title>Node1</title>
<g id="a_node1"><a xlink:title="Serialize buffer to output file.">
<polygon fill="#999999" stroke="#666666" points="101,-34 0,-34 0,-17 101,-17 101,-34"/>
<text text-anchor="middle" x="50.5" y="-23.6" font-family="SourceSans" font-size="8.00">a60::serialize_buffer</text>
</a>
</g>
</g>
<!-- Node2 -->
<g id="node2" class="node">
<title>Node2</title>
<g id="a_node2"><a xlink:href="namespacea60.html#a3bbefaaf01ec5233643f8e09b629a61e" target="_top" xlink:title="Common output buffer filename.">
<polygon fill="white" stroke="#666666" points="267,-52 137,-52 137,-35 267,-35 267,-52"/>
<text text-anchor="middle" x="202" y="-41.6" font-family="SourceSans" font-size="8.00">a60::buffer_name_mangled</text>
</a>
</g>
</g>
<!-- Node1&#45;&gt;Node2 -->
<g id="edge1" class="edge">
<title>Node1&#45;&gt;Node2</title>
<path fill="none" stroke="#63b8ff" d="M101.28,-31.49C109.46,-32.48 118.09,-33.52 126.72,-34.56"/>
<polygon fill="#63b8ff" stroke="#63b8ff" points="126.46,-38.05 136.81,-35.77 127.3,-31.1 126.46,-38.05"/>
</g>
<!-- Node3 -->
<g id="node3" class="node">
<title>Node3</title>
<g id="a_node3"><a xlink:href="namespacea60.html#aba8b47de875bd5bebeed9c57e3b52c06" target="_top" xlink:title="Serialize buffer to output file.">
<polygon fill="white" stroke="#666666" points="252.5,-17 151.5,-17 151.5,0 252.5,0 252.5,-17"/>
<text text-anchor="middle" x="202" y="-6.6" font-family="SourceSans" font-size="8.00">a60::serialize_buffer</text>
</a>
</g>
</g>
<!-- Node1&#45;&gt;Node3 -->
<g id="edge2" class="edge">
<title>Node1&#45;&gt;Node3</title>
<path fill="none" stroke="#63b8ff" d="M101.28,-19.84C114.14,-18.38 128.12,-16.79 141.42,-15.27"/>
<polygon fill="#63b8ff" stroke="#63b8ff" points="141.9,-18.74 151.44,-14.14 141.1,-11.79 141.9,-18.74"/>
</g>
</g>
</svg>
