<?xml version="1.0" encoding="UTF-8" standalone="no"?>
<!DOCTYPE svg PUBLIC "-//W3C//DTD SVG 1.1//EN"
 "http://www.w3.org/Graphics/SVG/1.1/DTD/svg11.dtd">
<!-- Generated by graphviz version 5.0.0 (0)
 -->
<!-- Title: a60::persistent_each Pages: 1 -->
<svg width="916pt" height="388pt"
 viewBox="0.00 0.00 916.00 387.50" xmlns="http://www.w3.org/2000/svg" xmlns:xlink="http://www.w3.org/1999/xlink">
<g id="graph0" class="graph" transform="scale(1 1) rotate(0) translate(4 383.5)">
<title>a60::persistent_each</title>
<!-- Node1 -->
<g id="node1" class="node">
<title>Node1</title>
<g id="a_node1"><a xlink:title="Using previously coalesced files, compute persistence between durations (d) and (dprev).">
<polygon fill="#999999" stroke="#666666" points="104,-248.5 0,-248.5 0,-231.5 104,-231.5 104,-248.5"/>
<text text-anchor="middle" x="52" y="-238.1" font-family="SourceSans" font-size="8.00">a60::persistent_each</text>
</a>
</g>
</g>
<!-- Node2 -->
<g id="node2" class="node">
<title>Node2</title>
<g id="a_node2"><a xlink:href="structa60_1_1collection.html#a899f781ad983b2ec1f0da35a5d3f8b54" target="_top" xlink:title=" ">
<polygon fill="white" stroke="#666666" points="757.5,-379.5 642.5,-379.5 642.5,-344.5 757.5,-344.5 757.5,-379.5"/>
<text text-anchor="start" x="650.5" y="-369.1" font-family="SourceSans" font-size="8.00">a60::collection::mangle</text>
<text text-anchor="start" x="650.5" y="-360.1" font-family="SourceSans" font-size="8.00">_duration_significant</text>
<text text-anchor="middle" x="700" y="-351.1" font-family="SourceSans" font-size="8.00">_digits</text>
</a>
</g>
</g>
<!-- Node1&#45;&gt;Node2 -->
<g id="edge1" class="edge">
<title>Node1&#45;&gt;Node2</title>
<path fill="none" stroke="#63b8ff" d="M65.36,-248.52C81.69,-259.38 111.72,-277.94 140,-288 310.21,-348.55 525.52,-360.26 632.45,-362.07"/>
<polygon fill="#63b8ff" stroke="#63b8ff" points="632.4,-365.57 642.45,-362.22 632.5,-358.57 632.4,-365.57"/>
</g>
<!-- Node3 -->
<g id="node3" class="node">
<title>Node3</title>
<g id="a_node3"><a xlink:href="structa60_1_1collection.html#a3780f3266ff2355e74b737a201c89116" target="_top" xlink:title=" ">
<polygon fill="white" stroke="#666666" points="442,-312 327,-312 327,-286 442,-286 442,-312"/>
<text text-anchor="start" x="335" y="-301.6" font-family="SourceSans" font-size="8.00">a60::collection::mangle</text>
<text text-anchor="middle" x="384.5" y="-292.6" font-family="SourceSans" font-size="8.00">_tid_match_id</text>
</a>
</g>
</g>
<!-- Node1&#45;&gt;Node3 -->
<g id="edge2" class="edge">
<title>Node1&#45;&gt;Node3</title>
<path fill="none" stroke="#63b8ff" d="M82.2,-248.59C99,-253.32 120.56,-259.01 140,-263 199.21,-275.16 267.32,-284.88 316.42,-291.13"/>
<polygon fill="#63b8ff" stroke="#63b8ff" points="316.24,-294.64 326.6,-292.41 317.12,-287.69 316.24,-294.64"/>
</g>
<!-- Node10 -->
<g id="node10" class="node">
<title>Node10</title>
<g id="a_node10"><a xlink:href="namespacea60.html#a13a3caf3539f435224ed108790559c95" target="_top" xlink:title="Write out per&#45;sample details for swarm_uinon meta_peers.">
<polygon fill="white" stroke="#666666" points="286,-230.5 140,-230.5 140,-213.5 286,-213.5 286,-230.5"/>
<text text-anchor="middle" x="213" y="-220.1" font-family="SourceSans" font-size="8.00">a60::reserialize_persistent_json</text>
</a>
</g>
</g>
<!-- Node1&#45;&gt;Node10 -->
<g id="edge10" class="edge">
<title>Node1&#45;&gt;Node10</title>
<path fill="none" stroke="#63b8ff" d="M104.18,-234.21C112.34,-233.28 120.95,-232.31 129.61,-231.33"/>
<polygon fill="#63b8ff" stroke="#63b8ff" points="130.23,-234.78 139.77,-230.18 129.44,-227.82 130.23,-234.78"/>
</g>
<!-- Node17 -->
<g id="node17" class="node">
<title>Node17</title>
<g id="a_node17"><a xlink:href="namespacea60.html#ac7ec35d2a0f81f1570817264e4ef49f2" target="_top" xlink:title="Serialization minimal summary info per duration.">
<polygon fill="white" stroke="#666666" points="447,-267.5 322,-267.5 322,-250.5 447,-250.5 447,-267.5"/>
<text text-anchor="middle" x="384.5" y="-257.1" font-family="SourceSans" font-size="8.00">a60::serialize_swarm_json</text>
</a>
</g>
</g>
<!-- Node1&#45;&gt;Node17 -->
<g id="edge18" class="edge">
<title>Node1&#45;&gt;Node17</title>
<path fill="none" stroke="#63b8ff" d="M104.28,-242.95C159.92,-246.15 249.19,-251.28 311.77,-254.88"/>
<polygon fill="#63b8ff" stroke="#63b8ff" points="311.78,-258.38 321.97,-255.46 312.19,-251.39 311.78,-258.38"/>
</g>
<!-- Node18 -->
<g id="node18" class="node">
<title>Node18</title>
<g id="a_node18"><a xlink:href="namespacea60.html#afaa1913d8f75fba4675c3a13046e548d" target="_top" xlink:title=" ">
<polygon fill="white" stroke="#666666" points="262,-101.5 164,-101.5 164,-84.5 262,-84.5 262,-101.5"/>
<text text-anchor="middle" x="213" y="-91.1" font-family="SourceSans" font-size="8.00">a60::sunique_peers</text>
</a>
</g>
</g>
<!-- Node1&#45;&gt;Node18 -->
<g id="edge23" class="edge">
<title>Node1&#45;&gt;Node18</title>
<path fill="none" stroke="#63b8ff" d="M62.47,-231.24C88.6,-207.08 161.98,-139.24 195.24,-108.49"/>
<polygon fill="#63b8ff" stroke="#63b8ff" points="197.81,-110.88 202.78,-101.53 193.06,-105.74 197.81,-110.88"/>
</g>
<!-- Node23 -->
<g id="node23" class="node">
<title>Node23</title>
<g id="a_node23"><a xlink:href="namespacea60.html#aefa42cfe5a843f4db6544399f9062bc9" target="_top" xlink:title="Difference between swarmA and swarmB. (a &#45; b)">
<polygon fill="white" stroke="#666666" points="268,-66.5 158,-66.5 158,-49.5 268,-49.5 268,-66.5"/>
<text text-anchor="middle" x="213" y="-56.1" font-family="SourceSans" font-size="8.00">a60::swarm_difference</text>
</a>
</g>
</g>
<!-- Node1&#45;&gt;Node23 -->
<g id="edge28" class="edge">
<title>Node1&#45;&gt;Node23</title>
<path fill="none" stroke="#63b8ff" d="M54.92,-231.17C61.45,-203.41 85.45,-117.22 140,-75 142.64,-72.96 145.49,-71.15 148.47,-69.56"/>
<polygon fill="#63b8ff" stroke="#63b8ff" points="150.07,-72.68 157.77,-65.39 147.21,-66.29 150.07,-72.68"/>
</g>
<!-- Node4 -->
<g id="node4" class="node">
<title>Node4</title>
<g id="a_node4"><a xlink:href="structa60_1_1collection.html#ab234addb5725bb5900b44f55ec1aae10" target="_top" xlink:title=" ">
<polygon fill="white" stroke="#666666" points="598.5,-337 483.5,-337 483.5,-311 598.5,-311 598.5,-337"/>
<text text-anchor="start" x="491.5" y="-326.6" font-family="SourceSans" font-size="8.00">a60::collection::mangle</text>
<text text-anchor="middle" x="541" y="-317.6" font-family="SourceSans" font-size="8.00">_with_id</text>
</a>
</g>
</g>
<!-- Node3&#45;&gt;Node4 -->
<g id="edge3" class="edge">
<title>Node3&#45;&gt;Node4</title>
<path fill="none" stroke="#63b8ff" d="M442.15,-308.17C452.33,-309.81 463.03,-311.55 473.46,-313.23"/>
<polygon fill="#63b8ff" stroke="#63b8ff" points="472.92,-316.69 483.35,-314.83 474.04,-309.78 472.92,-316.69"/>
</g>
<!-- Node5 -->
<g id="node5" class="node">
<title>Node5</title>
<g id="a_node5"><a xlink:href="structa60_1_1collection.html#a80993af9aec8238db8e44da1e9a3c994" target="_top" xlink:title=" ">
<polygon fill="white" stroke="#666666" points="592.5,-293 489.5,-293 489.5,-267 592.5,-267 592.5,-293"/>
<text text-anchor="start" x="497.5" y="-282.6" font-family="SourceSans" font-size="8.00">a60::collection::slice</text>
<text text-anchor="middle" x="541" y="-273.6" font-family="SourceSans" font-size="8.00">_name_mangled</text>
</a>
</g>
</g>
<!-- Node3&#45;&gt;Node5 -->
<g id="edge5" class="edge">
<title>Node3&#45;&gt;Node5</title>
<path fill="none" stroke="#63b8ff" d="M442.15,-292.03C454.26,-290.54 467.1,-288.96 479.36,-287.46"/>
<polygon fill="#63b8ff" stroke="#63b8ff" points="479.99,-290.91 489.48,-286.21 479.13,-283.96 479.99,-290.91"/>
</g>
<!-- Node4&#45;&gt;Node2 -->
<g id="edge4" class="edge">
<title>Node4&#45;&gt;Node2</title>
<path fill="none" stroke="#63b8ff" d="M596.03,-337.08C607.74,-339.91 620.26,-342.94 632.39,-345.88"/>
<polygon fill="#63b8ff" stroke="#63b8ff" points="631.92,-349.37 642.46,-348.32 633.57,-342.56 631.92,-349.37"/>
</g>
<!-- Node6 -->
<g id="node6" class="node">
<title>Node6</title>
<g id="a_node6"><a xlink:href="structa60_1_1collection.html#a25b35cf4ac39da89d868fe2cf41b5acd" target="_top" xlink:title=" ">
<polygon fill="white" stroke="#666666" points="765,-323.5 635,-323.5 635,-306.5 765,-306.5 765,-323.5"/>
<text text-anchor="middle" x="700" y="-313.1" font-family="SourceSans" font-size="8.00">a60::collection::slice_name</text>
</a>
</g>
</g>
<!-- Node5&#45;&gt;Node6 -->
<g id="edge6" class="edge">
<title>Node5&#45;&gt;Node6</title>
<path fill="none" stroke="#63b8ff" d="M592.54,-291.27C611.22,-295.43 632.33,-300.14 650.8,-304.26"/>
<polygon fill="#63b8ff" stroke="#63b8ff" points="650.24,-307.71 660.76,-306.47 651.76,-300.88 650.24,-307.71"/>
</g>
<!-- Node7 -->
<g id="node7" class="node">
<title>Node7</title>
<g id="a_node7"><a xlink:href="namespacea60.html#ac7eddb2e330d8983ddc852edde5335c5" target="_top" xlink:title=" ">
<polygon fill="white" stroke="#666666" points="759.5,-288.5 640.5,-288.5 640.5,-271.5 759.5,-271.5 759.5,-288.5"/>
<text text-anchor="middle" x="700" y="-278.1" font-family="SourceSans" font-size="8.00">a60::to_lowercase_string</text>
</a>
</g>
</g>
<!-- Node5&#45;&gt;Node7 -->
<g id="edge7" class="edge">
<title>Node5&#45;&gt;Node7</title>
<path fill="none" stroke="#63b8ff" d="M592.54,-280C604.56,-280 617.6,-280 630.28,-280"/>
<polygon fill="#63b8ff" stroke="#63b8ff" points="630.35,-283.5 640.35,-280 630.35,-276.5 630.35,-283.5"/>
</g>
<!-- Node8 -->
<g id="node8" class="node">
<title>Node8</title>
<g id="a_node8"><a xlink:href="namespacea60.html#a11d9ffc210e8dca8410e7a5ad62deabc" target="_top" xlink:title=" ">
<polygon fill="white" stroke="#666666" points="756.5,-253 643.5,-253 643.5,-227 756.5,-227 756.5,-253"/>
<text text-anchor="start" x="651.5" y="-242.6" font-family="SourceSans" font-size="8.00">a60::to_replace_spaces</text>
<text text-anchor="middle" x="700" y="-233.6" font-family="SourceSans" font-size="8.00">_string</text>
</a>
</g>
</g>
<!-- Node5&#45;&gt;Node8 -->
<g id="edge8" class="edge">
<title>Node5&#45;&gt;Node8</title>
<path fill="none" stroke="#63b8ff" d="M592.54,-267.12C607.03,-263.43 622.97,-259.37 638.02,-255.54"/>
<polygon fill="#63b8ff" stroke="#63b8ff" points="638.92,-258.92 647.75,-253.06 637.19,-252.14 638.92,-258.92"/>
</g>
<!-- Node9 -->
<g id="node9" class="node">
<title>Node9</title>
<g id="a_node9"><a xlink:href="namespacea60.html#a751f954fe64233f1dc6517220e4b5692" target="_top" xlink:title=" ">
<polygon fill="white" stroke="#666666" points="908,-248.5 801,-248.5 801,-231.5 908,-231.5 908,-248.5"/>
<text text-anchor="middle" x="854.5" y="-238.1" font-family="SourceSans" font-size="8.00">a60::to_replace_string</text>
</a>
</g>
</g>
<!-- Node8&#45;&gt;Node9 -->
<g id="edge9" class="edge">
<title>Node8&#45;&gt;Node9</title>
<path fill="none" stroke="#63b8ff" d="M756.92,-240C767.92,-240 779.53,-240 790.73,-240"/>
<polygon fill="#63b8ff" stroke="#63b8ff" points="790.88,-243.5 800.88,-240 790.88,-236.5 790.88,-243.5"/>
</g>
<!-- Node10&#45;&gt;Node3 -->
<g id="edge11" class="edge">
<title>Node10&#45;&gt;Node3</title>
<path fill="none" stroke="#63b8ff" d="M229.44,-230.65C250.14,-242.07 288.19,-262.41 322,-277 326.15,-278.79 330.51,-280.56 334.89,-282.27"/>
<polygon fill="#63b8ff" stroke="#63b8ff" points="333.9,-285.63 344.5,-285.89 336.38,-279.09 333.9,-285.63"/>
</g>
<!-- Node11 -->
<g id="node11" class="node">
<title>Node11</title>
<g id="a_node11"><a xlink:href="namespacea60.html#aba8b47de875bd5bebeed9c57e3b52c06" target="_top" xlink:title="Serialize buffer to output file.">
<polygon fill="white" stroke="#666666" points="591.5,-248.5 490.5,-248.5 490.5,-231.5 591.5,-231.5 591.5,-248.5"/>
<text text-anchor="middle" x="541" y="-238.1" font-family="SourceSans" font-size="8.00">a60::serialize_buffer</text>
</a>
</g>
</g>
<!-- Node10&#45;&gt;Node11 -->
<g id="edge12" class="edge">
<title>Node10&#45;&gt;Node11</title>
<path fill="none" stroke="#63b8ff" d="M286.35,-225.99C344.5,-229.21 425.23,-233.66 479.87,-236.68"/>
<polygon fill="#63b8ff" stroke="#63b8ff" points="479.92,-240.19 490.1,-237.24 480.31,-233.2 479.92,-240.19"/>
</g>
<!-- Node12 -->
<g id="node12" class="node">
<title>Node12</title>
<g id="a_node12"><a xlink:href="namespacea60.html#a94d004bc4c17246fd2bb76cabb121d9a" target="_top" xlink:title="Per collection metadata for given duration.">
<polygon fill="white" stroke="#666666" points="442.5,-194 326.5,-194 326.5,-168 442.5,-168 442.5,-194"/>
<text text-anchor="start" x="334.5" y="-183.6" font-family="SourceSans" font-size="8.00">a60::serialize_collection</text>
<text text-anchor="middle" x="384.5" y="-174.6" font-family="SourceSans" font-size="8.00">_metadata_json</text>
</a>
</g>
</g>
<!-- Node10&#45;&gt;Node12 -->
<g id="edge13" class="edge">
<title>Node10&#45;&gt;Node12</title>
<path fill="none" stroke="#63b8ff" d="M249.53,-213.41C269.83,-208.49 295.9,-202.19 319.64,-196.45"/>
<polygon fill="#63b8ff" stroke="#63b8ff" points="320.75,-199.78 329.64,-194.03 319.1,-192.98 320.75,-199.78"/>
</g>
<!-- Node15 -->
<g id="node15" class="node">
<title>Node15</title>
<g id="a_node15"><a xlink:href="namespacea60.html#a87cd73602b7d6cf64ef441200cfda504" target="_top" xlink:title="Serialize vector of meta_peer.">
<polygon fill="white" stroke="#666666" points="433.5,-150 335.5,-150 335.5,-124 433.5,-124 433.5,-150"/>
<text text-anchor="start" x="343.5" y="-139.6" font-family="SourceSans" font-size="8.00">a60::serialize_meta</text>
<text text-anchor="middle" x="384.5" y="-130.6" font-family="SourceSans" font-size="8.00">_peers_json</text>
</a>
</g>
</g>
<!-- Node10&#45;&gt;Node15 -->
<g id="edge16" class="edge">
<title>Node10&#45;&gt;Node15</title>
<path fill="none" stroke="#63b8ff" d="M226.88,-213.43C246.71,-200.48 286.19,-175.68 322,-159 325.87,-157.2 329.94,-155.45 334.06,-153.77"/>
<polygon fill="#63b8ff" stroke="#63b8ff" points="335.65,-156.91 343.69,-150.02 333.11,-150.39 335.65,-156.91"/>
</g>
<!-- Node13 -->
<g id="node13" class="node">
<title>Node13</title>
<g id="a_node13"><a xlink:href="structa60_1_1collection.html#a8ac066ef3bb824d0ecff3b1238e358e4" target="_top" xlink:title=" ">
<polygon fill="white" stroke="#666666" points="590,-169 492,-169 492,-143 590,-143 590,-169"/>
<text text-anchor="start" x="500" y="-158.6" font-family="SourceSans" font-size="8.00">a60::collection::get</text>
<text text-anchor="middle" x="541" y="-149.6" font-family="SourceSans" font-size="8.00">_name_from_tid</text>
</a>
</g>
</g>
<!-- Node12&#45;&gt;Node13 -->
<g id="edge14" class="edge">
<title>Node12&#45;&gt;Node13</title>
<path fill="none" stroke="#63b8ff" d="M442.59,-171.76C455.34,-169.7 468.88,-167.51 481.68,-165.44"/>
<polygon fill="#63b8ff" stroke="#63b8ff" points="482.45,-168.86 491.76,-163.81 481.33,-161.95 482.45,-168.86"/>
</g>
<!-- Node14 -->
<g id="node14" class="node">
<title>Node14</title>
<g id="a_node14"><a xlink:href="namespacea60.html#a5491ff3ca7dc34407696caaa90828819" target="_top" xlink:title="First collection serialization, common for all writing.">
<polygon fill="white" stroke="#666666" points="599,-213 483,-213 483,-187 599,-187 599,-213"/>
<text text-anchor="start" x="491" y="-202.6" font-family="SourceSans" font-size="8.00">a60::serialize_collection</text>
<text text-anchor="middle" x="541" y="-193.6" font-family="SourceSans" font-size="8.00">_base_json</text>
</a>
</g>
</g>
<!-- Node12&#45;&gt;Node14 -->
<g id="edge15" class="edge">
<title>Node12&#45;&gt;Node14</title>
<path fill="none" stroke="#63b8ff" d="M442.59,-188.02C452.45,-189.23 462.79,-190.5 472.89,-191.75"/>
<polygon fill="#63b8ff" stroke="#63b8ff" points="472.53,-195.23 482.89,-192.98 473.39,-188.28 472.53,-195.23"/>
</g>
<!-- Node16 -->
<g id="node16" class="node">
<title>Node16</title>
<g id="a_node16"><a xlink:href="namespacea60.html#a2228baa081fe66cea91ed8032bda4732" target="_top" xlink:title="Serialize meta_peer.">
<polygon fill="white" stroke="#666666" points="590,-125 492,-125 492,-99 590,-99 590,-125"/>
<text text-anchor="start" x="500" y="-114.6" font-family="SourceSans" font-size="8.00">a60::serialize_meta</text>
<text text-anchor="middle" x="541" y="-105.6" font-family="SourceSans" font-size="8.00">_peer_json</text>
</a>
</g>
</g>
<!-- Node15&#45;&gt;Node16 -->
<g id="edge17" class="edge">
<title>Node15&#45;&gt;Node16</title>
<path fill="none" stroke="#63b8ff" d="M433.54,-129.23C448.8,-126.76 465.84,-124 481.74,-121.43"/>
<polygon fill="#63b8ff" stroke="#63b8ff" points="482.68,-124.82 491.99,-119.77 481.56,-117.91 482.68,-124.82"/>
</g>
<!-- Node17&#45;&gt;Node4 -->
<g id="edge19" class="edge">
<title>Node17&#45;&gt;Node4</title>
<path fill="none" stroke="#63b8ff" d="M422,-267.58C430.4,-270.13 439.17,-273.26 447,-277 464.58,-285.4 465.79,-292.87 483,-302 486.24,-303.72 489.64,-305.37 493.1,-306.95"/>
<polygon fill="#63b8ff" stroke="#63b8ff" points="491.76,-310.18 502.33,-310.93 494.53,-303.75 491.76,-310.18"/>
</g>
<!-- Node17&#45;&gt;Node5 -->
<g id="edge22" class="edge">
<title>Node17&#45;&gt;Node5</title>
<path fill="none" stroke="#63b8ff" d="M447.01,-267.36C457.59,-268.8 468.59,-270.29 479.16,-271.73"/>
<polygon fill="#63b8ff" stroke="#63b8ff" points="478.75,-275.21 489.13,-273.09 479.69,-268.27 478.75,-275.21"/>
</g>
<!-- Node17&#45;&gt;Node11 -->
<g id="edge20" class="edge">
<title>Node17&#45;&gt;Node11</title>
<path fill="none" stroke="#63b8ff" d="M447.01,-251.44C457.85,-250.1 469.12,-248.72 479.92,-247.39"/>
<polygon fill="#63b8ff" stroke="#63b8ff" points="480.61,-250.83 490.1,-246.14 479.75,-243.88 480.61,-250.83"/>
</g>
<!-- Node17&#45;&gt;Node14 -->
<g id="edge21" class="edge">
<title>Node17&#45;&gt;Node14</title>
<path fill="none" stroke="#63b8ff" d="M407.97,-250.42C431.05,-241.61 467.58,-227.66 496.37,-216.66"/>
<polygon fill="#63b8ff" stroke="#63b8ff" points="497.71,-219.89 505.81,-213.06 495.22,-213.36 497.71,-219.89"/>
</g>
<!-- Node19 -->
<g id="node19" class="node">
<title>Node19</title>
<g id="a_node19"><a xlink:href="namespacea60.html#af45982273a7a2e61b6aaa436081238c0" target="_top" xlink:title="Load JSON file to in&#45;memory DOM.">
<polygon fill="white" stroke="#666666" points="436.5,-106 332.5,-106 332.5,-80 436.5,-80 436.5,-106"/>
<text text-anchor="start" x="340.5" y="-95.6" font-family="SourceSans" font-size="8.00">a60::deserialize_json</text>
<text text-anchor="middle" x="384.5" y="-86.6" font-family="SourceSans" font-size="8.00">_to_dom_object</text>
</a>
</g>
</g>
<!-- Node18&#45;&gt;Node19 -->
<g id="edge24" class="edge">
<title>Node18&#45;&gt;Node19</title>
<path fill="none" stroke="#63b8ff" d="M262.12,-93C280.79,-93 302.39,-93 322.16,-93"/>
<polygon fill="#63b8ff" stroke="#63b8ff" points="322.3,-96.5 332.3,-93 322.3,-89.5 322.3,-96.5"/>
</g>
<!-- Node21 -->
<g id="node21" class="node">
<title>Node21</title>
<g id="a_node21"><a xlink:href="namespacea60_1_1io.html#aea30b8fc474f5a7b922516dc1e199037" target="_top" xlink:title="Takes a string representing a directory, returns a sorted list of contents as a std::vector&lt;string&gt;.">
<polygon fill="white" stroke="#666666" points="439.5,-61.5 329.5,-61.5 329.5,-44.5 439.5,-44.5 439.5,-61.5"/>
<text text-anchor="middle" x="384.5" y="-51.1" font-family="SourceSans" font-size="8.00">a60::io::populate_files</text>
</a>
</g>
</g>
<!-- Node18&#45;&gt;Node21 -->
<g id="edge26" class="edge">
<title>Node18&#45;&gt;Node21</title>
<path fill="none" stroke="#63b8ff" d="M250.36,-84.42C275.83,-78.41 310.07,-70.33 337.45,-63.87"/>
<polygon fill="#63b8ff" stroke="#63b8ff" points="338.27,-67.27 347.2,-61.57 336.66,-60.46 338.27,-67.27"/>
</g>
<!-- Node22 -->
<g id="node22" class="node">
<title>Node22</title>
<g id="a_node22"><a xlink:href="namespacea60.html#a6ce8704ec3c4d5e258d062283dd40efb" target="_top" xlink:title="Search DOM for meta_peer(s).">
<polygon fill="white" stroke="#666666" points="436,-26 333,-26 333,0 436,0 436,-26"/>
<text text-anchor="start" x="341" y="-15.6" font-family="SourceSans" font-size="8.00">a60::search_dom_for</text>
<text text-anchor="middle" x="384.5" y="-6.6" font-family="SourceSans" font-size="8.00">_meta_peers</text>
</a>
</g>
</g>
<!-- Node18&#45;&gt;Node22 -->
<g id="edge27" class="edge">
<title>Node18&#45;&gt;Node22</title>
<path fill="none" stroke="#63b8ff" d="M262.07,-85.22C270.4,-82.7 278.71,-79.38 286,-75 306.5,-62.67 302.14,-48.32 322,-35 324.38,-33.4 326.9,-31.9 329.49,-30.5"/>
<polygon fill="#63b8ff" stroke="#63b8ff" points="331.09,-33.62 338.55,-26.11 328.03,-27.32 331.09,-33.62"/>
</g>
<!-- Node20 -->
<g id="node20" class="node">
<title>Node20</title>
<g id="a_node20"><a xlink:href="namespacea60.html#a538d43bb9bfa488a54cea929736dbe2d" target="_top" xlink:title="Deserialize input file.">
<polygon fill="white" stroke="#666666" points="593,-81 489,-81 489,-55 593,-55 593,-81"/>
<text text-anchor="start" x="497" y="-70.6" font-family="SourceSans" font-size="8.00">a60::deserialize_json</text>
<text text-anchor="middle" x="541" y="-61.6" font-family="SourceSans" font-size="8.00">_to_dom</text>
</a>
</g>
</g>
<!-- Node19&#45;&gt;Node20 -->
<g id="edge25" class="edge">
<title>Node19&#45;&gt;Node20</title>
<path fill="none" stroke="#63b8ff" d="M436.52,-84.74C450.03,-82.56 464.75,-80.18 478.74,-77.91"/>
<polygon fill="#63b8ff" stroke="#63b8ff" points="479.46,-81.34 488.77,-76.29 478.34,-74.43 479.46,-81.34"/>
</g>
</g>
</svg>
