<?xml version="1.0" encoding="UTF-8" standalone="no"?>
<!DOCTYPE svg PUBLIC "-//W3C//DTD SVG 1.1//EN"
 "http://www.w3.org/Graphics/SVG/1.1/DTD/svg11.dtd">
<!-- Generated by graphviz version 5.0.0 (0)
 -->
<!-- Title: a60::augment_sum_glyph Pages: 1 -->
<svg width="240pt" height="43pt"
 viewBox="0.00 0.00 240.00 43.00" xmlns="http://www.w3.org/2000/svg" xmlns:xlink="http://www.w3.org/1999/xlink">
<g id="graph0" class="graph" transform="scale(1 1) rotate(0) translate(4 39)">
<title>a60::augment_sum_glyph</title>
<!-- Node1 -->
<g id="node1" class="node">
<title>Node1</title>
<g id="a_node1"><a xlink:title="Swarm_mode dominates.">
<polygon fill="#999999" stroke="#666666" points="122,-17 0,-17 0,0 122,0 122,-17"/>
<text text-anchor="middle" x="61" y="-6.6" font-family="SourceSans" font-size="8.00">a60::augment_sum_glyph</text>
</a>
</g>
</g>
<!-- Node2 -->
<g id="node2" class="node">
<title>Node2</title>
<g id="a_node2"><a xlink:href="namespacea60.html#a4e8b0cabed112734147b499bf0cc9029" target="_top" xlink:title="Conversion of resolution_mode to string.">
<polygon fill="white" stroke="#666666" points="232,-17 158,-17 158,0 232,0 232,-17"/>
<text text-anchor="middle" x="195" y="-6.6" font-family="SourceSans" font-size="8.00">a60::to_string</text>
</a>
</g>
</g>
<!-- Node1&#45;&gt;Node2 -->
<g id="edge1" class="edge">
<title>Node1&#45;&gt;Node2</title>
<path fill="none" stroke="#63b8ff" d="M122.21,-8.5C130.72,-8.5 139.36,-8.5 147.55,-8.5"/>
<polygon fill="#63b8ff" stroke="#63b8ff" points="147.66,-12 157.66,-8.5 147.66,-5 147.66,-12"/>
</g>
<!-- Node2&#45;&gt;Node2 -->
<g id="edge2" class="edge">
<title>Node2&#45;&gt;Node2</title>
<path fill="none" stroke="#63b8ff" d="M175.03,-17.19C164,-25.67 170.66,-35 195,-35 210.97,-35 219.33,-30.98 220.07,-25.82"/>
<polygon fill="#63b8ff" stroke="#63b8ff" points="223.07,-24.01 214.97,-17.19 217.04,-27.58 223.07,-24.01"/>
</g>
</g>
</svg>
