<?xml version="1.0" encoding="UTF-8" standalone="no"?>
<!DOCTYPE svg PUBLIC "-//W3C//DTD SVG 1.1//EN"
 "http://www.w3.org/Graphics/SVG/1.1/DTD/svg11.dtd">
<!-- Generated by graphviz version 5.0.0 (0)
 -->
<!-- Title: a60::augment_torrent_collection_glyphs_v2 Pages: 1 -->
<svg width="414pt" height="70pt"
 viewBox="0.00 0.00 414.00 69.50" xmlns="http://www.w3.org/2000/svg" xmlns:xlink="http://www.w3.org/1999/xlink">
<g id="graph0" class="graph" transform="scale(1 1) rotate(0) translate(4 65.5)">
<title>a60::augment_torrent_collection_glyphs_v2</title>
<!-- Node1 -->
<g id="node1" class="node">
<title>Node1</title>
<g id="a_node1"><a xlink:title="v2 Left to right glyphs that staircase up and to the right.">
<polygon fill="#999999" stroke="#666666" points="106,-41.5 0,-41.5 0,-15.5 106,-15.5 106,-41.5"/>
<text text-anchor="start" x="8" y="-31.1" font-family="SourceSans" font-size="8.00">a60::augment_torrent</text>
<text text-anchor="middle" x="53" y="-22.1" font-family="SourceSans" font-size="8.00">_collection_glyphs_v2</text>
</a>
</g>
</g>
<!-- Node2 -->
<g id="node2" class="node">
<title>Node2</title>
<g id="a_node2"><a xlink:href="namespacea60.html#ae7bbb7110401a791bf56e55a805c495d" target="_top" xlink:title="Marian Bantje conversation starts here. Stacked layout with torrent name vertical,...">
<polygon fill="white" stroke="#666666" points="256,-61.5 150,-61.5 150,-35.5 256,-35.5 256,-61.5"/>
<text text-anchor="start" x="158" y="-51.1" font-family="SourceSans" font-size="8.00">a60::augment_torrent</text>
<text text-anchor="middle" x="203" y="-42.1" font-family="SourceSans" font-size="8.00">_glyph_v2</text>
</a>
</g>
</g>
<!-- Node1&#45;&gt;Node2 -->
<g id="edge1" class="edge">
<title>Node1&#45;&gt;Node2</title>
<path fill="none" stroke="#63b8ff" d="M106.18,-35.55C117.01,-37.02 128.53,-38.57 139.68,-40.08"/>
<polygon fill="#63b8ff" stroke="#63b8ff" points="139.41,-43.57 149.79,-41.45 140.35,-36.64 139.41,-43.57"/>
</g>
<!-- Node4 -->
<g id="node4" class="node">
<title>Node4</title>
<g id="a_node4"><a xlink:href="namespacea60_1_1carto.html#af59ef7858ef576e7f17b781f38436f28" target="_top" xlink:title=" ">
<polygon fill="white" stroke="#666666" points="264,-17 142,-17 142,0 264,0 264,-17"/>
<text text-anchor="middle" x="203" y="-6.6" font-family="SourceSans" font-size="8.00">a60::carto::frame_margin</text>
</a>
</g>
</g>
<!-- Node1&#45;&gt;Node4 -->
<g id="edge3" class="edge">
<title>Node1&#45;&gt;Node4</title>
<path fill="none" stroke="#63b8ff" d="M106.18,-21.45C114.49,-20.33 123.21,-19.15 131.86,-17.98"/>
<polygon fill="#63b8ff" stroke="#63b8ff" points="132.51,-21.42 141.95,-16.61 131.57,-14.49 132.51,-21.42"/>
</g>
<!-- Node3 -->
<g id="node3" class="node">
<title>Node3</title>
<g id="a_node3"><a xlink:href="namespacea60.html#aa101f579d83d22aa64d69dcbd54789c3" target="_top" xlink:title=" ">
<polygon fill="white" stroke="#666666" points="406,-61.5 300,-61.5 300,-35.5 406,-35.5 406,-61.5"/>
<text text-anchor="start" x="308" y="-51.1" font-family="SourceSans" font-size="8.00">a60::augment_torrent</text>
<text text-anchor="middle" x="353" y="-42.1" font-family="SourceSans" font-size="8.00">_glyph_numbers</text>
</a>
</g>
</g>
<!-- Node2&#45;&gt;Node3 -->
<g id="edge2" class="edge">
<title>Node2&#45;&gt;Node3</title>
<path fill="none" stroke="#63b8ff" d="M256.18,-48.5C267.01,-48.5 278.53,-48.5 289.68,-48.5"/>
<polygon fill="#63b8ff" stroke="#63b8ff" points="289.79,-52 299.79,-48.5 289.79,-45 289.79,-52"/>
</g>
</g>
</svg>
