<?xml version="1.0" encoding="UTF-8" standalone="no"?>
<!DOCTYPE svg PUBLIC "-//W3C//DTD SVG 1.1//EN"
 "http://www.w3.org/Graphics/SVG/1.1/DTD/svg11.dtd">
<!-- Generated by graphviz version 5.0.0 (0)
 -->
<!-- Title: a60::augment_torrent_collection_glyphs_v4v Pages: 1 -->
<svg width="417pt" height="70pt"
 viewBox="0.00 0.00 417.00 69.50" xmlns="http://www.w3.org/2000/svg" xmlns:xlink="http://www.w3.org/1999/xlink">
<g id="graph0" class="graph" transform="scale(1 1) rotate(0) translate(4 65.5)">
<title>a60::augment_torrent_collection_glyphs_v4v</title>
<!-- Node1 -->
<g id="node1" class="node">
<title>Node1</title>
<g id="a_node1"><a xlink:title="v4v, vertical fill stagger step info hash">
<polygon fill="#999999" stroke="#666666" points="109,-41.5 0,-41.5 0,-15.5 109,-15.5 109,-41.5"/>
<text text-anchor="start" x="8" y="-31.1" font-family="SourceSans" font-size="8.00">a60::augment_torrent</text>
<text text-anchor="middle" x="54.5" y="-22.1" font-family="SourceSans" font-size="8.00">_collection_glyphs_v4v</text>
</a>
</g>
</g>
<!-- Node2 -->
<g id="node2" class="node">
<title>Node2</title>
<g id="a_node2"><a xlink:href="namespacea60.html#ab8c17046693e57506def23f3a977a8ab" target="_top" xlink:title="Ziggurat style for infohash datum layout: tid &#45; color &#45; name/btih/private.">
<polygon fill="white" stroke="#666666" points="259,-61.5 153,-61.5 153,-35.5 259,-35.5 259,-61.5"/>
<text text-anchor="start" x="161" y="-51.1" font-family="SourceSans" font-size="8.00">a60::augment_torrent</text>
<text text-anchor="middle" x="206" y="-42.1" font-family="SourceSans" font-size="8.00">_glyph_v4v</text>
</a>
</g>
</g>
<!-- Node1&#45;&gt;Node2 -->
<g id="edge1" class="edge">
<title>Node1&#45;&gt;Node2</title>
<path fill="none" stroke="#63b8ff" d="M109.05,-35.66C119.96,-37.12 131.52,-38.67 142.7,-40.17"/>
<polygon fill="#63b8ff" stroke="#63b8ff" points="142.45,-43.66 152.83,-41.52 143.38,-36.72 142.45,-43.66"/>
</g>
<!-- Node4 -->
<g id="node4" class="node">
<title>Node4</title>
<g id="a_node4"><a xlink:href="namespacea60_1_1carto.html#af59ef7858ef576e7f17b781f38436f28" target="_top" xlink:title=" ">
<polygon fill="white" stroke="#666666" points="267,-17 145,-17 145,0 267,0 267,-17"/>
<text text-anchor="middle" x="206" y="-6.6" font-family="SourceSans" font-size="8.00">a60::carto::frame_margin</text>
</a>
</g>
</g>
<!-- Node1&#45;&gt;Node4 -->
<g id="edge3" class="edge">
<title>Node1&#45;&gt;Node4</title>
<path fill="none" stroke="#63b8ff" d="M109.05,-21.34C117.42,-20.22 126.18,-19.04 134.85,-17.88"/>
<polygon fill="#63b8ff" stroke="#63b8ff" points="135.52,-21.33 144.97,-16.53 134.59,-14.39 135.52,-21.33"/>
</g>
<!-- Node3 -->
<g id="node3" class="node">
<title>Node3</title>
<g id="a_node3"><a xlink:href="namespacea60.html#aa101f579d83d22aa64d69dcbd54789c3" target="_top" xlink:title=" ">
<polygon fill="white" stroke="#666666" points="409,-61.5 303,-61.5 303,-35.5 409,-35.5 409,-61.5"/>
<text text-anchor="start" x="311" y="-51.1" font-family="SourceSans" font-size="8.00">a60::augment_torrent</text>
<text text-anchor="middle" x="356" y="-42.1" font-family="SourceSans" font-size="8.00">_glyph_numbers</text>
</a>
</g>
</g>
<!-- Node2&#45;&gt;Node3 -->
<g id="edge2" class="edge">
<title>Node2&#45;&gt;Node3</title>
<path fill="none" stroke="#63b8ff" d="M259.18,-48.5C270.01,-48.5 281.53,-48.5 292.68,-48.5"/>
<polygon fill="#63b8ff" stroke="#63b8ff" points="292.79,-52 302.79,-48.5 292.79,-45 292.79,-52"/>
</g>
</g>
</svg>
