<?xml version="1.0" encoding="UTF-8" standalone="no"?>
<!DOCTYPE svg PUBLIC "-//W3C//DTD SVG 1.1//EN"
 "http://www.w3.org/Graphics/SVG/1.1/DTD/svg11.dtd">
<!-- Generated by graphviz version 5.0.0 (0)
 -->
<!-- Title: a60::swpeers_to_text_data Pages: 1 -->
<svg width="772pt" height="230pt"
 viewBox="0.00 0.00 772.00 229.50" xmlns="http://www.w3.org/2000/svg" xmlns:xlink="http://www.w3.org/1999/xlink">
<g id="graph0" class="graph" transform="scale(1 1) rotate(0) translate(4 225.5)">
<title>a60::swpeers_to_text_data</title>
<!-- Node1 -->
<g id="node1" class="node">
<title>Node1</title>
<g id="a_node1"><a xlink:title=" ">
<polygon fill="#999999" stroke="#666666" points="126,-157 0,-157 0,-140 126,-140 126,-157"/>
<text text-anchor="middle" x="63" y="-146.6" font-family="SourceSans" font-size="8.00">a60::swpeers_to_text_data</text>
</a>
</g>
</g>
<!-- Node2 -->
<g id="node2" class="node">
<title>Node2</title>
<g id="a_node2"><a xlink:href="namespacea60.html#a287cf51553486f749678a37cc38eb317" target="_top" xlink:title="Get geo info.">
<polygon fill="white" stroke="#666666" points="288,-157 162,-157 162,-140 288,-140 288,-157"/>
<text text-anchor="middle" x="225" y="-146.6" font-family="SourceSans" font-size="8.00">a60::demangle_geo_name</text>
</a>
</g>
</g>
<!-- Node1&#45;&gt;Node2 -->
<g id="edge1" class="edge">
<title>Node1&#45;&gt;Node2</title>
<path fill="none" stroke="#63b8ff" d="M126.32,-148.5C134.62,-148.5 143.18,-148.5 151.63,-148.5"/>
<polygon fill="#63b8ff" stroke="#63b8ff" points="151.85,-152 161.85,-148.5 151.85,-145 151.85,-152"/>
</g>
<!-- Node3 -->
<g id="node3" class="node">
<title>Node3</title>
<g id="a_node3"><a xlink:href="namespacea60_1_1geo.html#a00bb7f340977ec5d930c92291b382901" target="_top" xlink:title=" ">
<polygon fill="white" stroke="#666666" points="437.5,-201.5 333.5,-201.5 333.5,-175.5 437.5,-175.5 437.5,-201.5"/>
<text text-anchor="start" x="341.5" y="-191.1" font-family="SourceSans" font-size="8.00">a60::geo::alpha_3_to</text>
<text text-anchor="middle" x="385.5" y="-182.1" font-family="SourceSans" font-size="8.00">_country</text>
</a>
</g>
</g>
<!-- Node2&#45;&gt;Node3 -->
<g id="edge2" class="edge">
<title>Node2&#45;&gt;Node3</title>
<path fill="none" stroke="#63b8ff" d="M260,-157.08C278.54,-161.76 302.04,-167.69 323.62,-173.14"/>
<polygon fill="#63b8ff" stroke="#63b8ff" points="322.83,-176.55 333.38,-175.6 324.54,-169.76 322.83,-176.55"/>
</g>
<!-- Node4 -->
<g id="node4" class="node">
<title>Node4</title>
<g id="a_node4"><a xlink:href="namespacea60.html#a67a216731ae229be675dbcbfa228d865" target="_top" xlink:title=" ">
<polygon fill="white" stroke="#666666" points="436,-157 335,-157 335,-140 436,-140 436,-157"/>
<text text-anchor="middle" x="385.5" y="-146.6" font-family="SourceSans" font-size="8.00">a60::convert_to_utf8</text>
</a>
</g>
</g>
<!-- Node2&#45;&gt;Node4 -->
<g id="edge3" class="edge">
<title>Node2&#45;&gt;Node4</title>
<path fill="none" stroke="#63b8ff" d="M288.19,-148.5C300.13,-148.5 312.61,-148.5 324.48,-148.5"/>
<polygon fill="#63b8ff" stroke="#63b8ff" points="324.73,-152 334.73,-148.5 324.73,-145 324.73,-152"/>
</g>
<!-- Node6 -->
<g id="node6" class="node">
<title>Node6</title>
<g id="a_node6"><a xlink:href="namespacea60_1_1geo.html#a4abe1cc8c4c5d836fa8f23910b36a360" target="_top" xlink:title=" ">
<polygon fill="white" stroke="#666666" points="447,-121.5 324,-121.5 324,-95.5 447,-95.5 447,-121.5"/>
<text text-anchor="start" x="332" y="-111.1" font-family="SourceSans" font-size="8.00">a60::geo::map_alpha</text>
<text text-anchor="middle" x="385.5" y="-102.1" font-family="SourceSans" font-size="8.00">_3_code_to_country_name</text>
</a>
</g>
</g>
<!-- Node2&#45;&gt;Node6 -->
<g id="edge5" class="edge">
<title>Node2&#45;&gt;Node6</title>
<path fill="none" stroke="#63b8ff" d="M260,-139.92C278.3,-135.3 301.43,-129.46 322.78,-124.08"/>
<polygon fill="#63b8ff" stroke="#63b8ff" points="323.93,-127.4 332.76,-121.56 322.21,-120.61 323.93,-127.4"/>
</g>
<!-- Node5 -->
<g id="node5" class="node">
<title>Node5</title>
<g id="a_node5"><a xlink:href="namespacea60.html#a1c4e23f164dec11b9fee53e2292af224" target="_top" xlink:title="Convert MaxMind GeoIP information from ISO&#45;8859&#45;1 encoding to UTF&#45;8.">
<polygon fill="white" stroke="#666666" points="609,-157 483,-157 483,-140 609,-140 609,-157"/>
<text text-anchor="middle" x="546" y="-146.6" font-family="SourceSans" font-size="8.00">a60::convert_8859_to_utf8</text>
</a>
</g>
</g>
<!-- Node4&#45;&gt;Node5 -->
<g id="edge4" class="edge">
<title>Node4&#45;&gt;Node5</title>
<path fill="none" stroke="#63b8ff" d="M436.22,-148.5C447.78,-148.5 460.32,-148.5 472.63,-148.5"/>
<polygon fill="#63b8ff" stroke="#63b8ff" points="472.9,-152 482.9,-148.5 472.9,-145 472.9,-152"/>
</g>
<!-- Node7 -->
<g id="node7" class="node">
<title>Node7</title>
<g id="a_node7"><a xlink:href="namespacea60_1_1geo.html#a3592e801fc5730fc27bab32d194a7a5b" target="_top" xlink:title="Forward declaration for function in a60&#45;json.h.">
<polygon fill="white" stroke="#666666" points="606.5,-121.5 485.5,-121.5 485.5,-95.5 606.5,-95.5 606.5,-121.5"/>
<text text-anchor="start" x="493.5" y="-111.1" font-family="SourceSans" font-size="8.00">a60::geo::deserialize</text>
<text text-anchor="middle" x="546" y="-102.1" font-family="SourceSans" font-size="8.00">_json_to_iso_3166_3_map</text>
</a>
</g>
</g>
<!-- Node6&#45;&gt;Node7 -->
<g id="edge6" class="edge">
<title>Node6&#45;&gt;Node7</title>
<path fill="none" stroke="#63b8ff" d="M447.33,-108.5C456.49,-108.5 466.01,-108.5 475.35,-108.5"/>
<polygon fill="#63b8ff" stroke="#63b8ff" points="475.38,-112 485.38,-108.5 475.38,-105 475.38,-112"/>
</g>
<!-- Node8 -->
<g id="node8" class="node">
<title>Node8</title>
<g id="a_node8"><a xlink:href="namespacea60.html#a538d43bb9bfa488a54cea929736dbe2d" target="_top" xlink:title="Deserialize input file.">
<polygon fill="white" stroke="#666666" points="756.5,-221.5 652.5,-221.5 652.5,-195.5 756.5,-195.5 756.5,-221.5"/>
<text text-anchor="start" x="660.5" y="-211.1" font-family="SourceSans" font-size="8.00">a60::deserialize_json</text>
<text text-anchor="middle" x="704.5" y="-202.1" font-family="SourceSans" font-size="8.00">_to_dom</text>
</a>
</g>
</g>
<!-- Node7&#45;&gt;Node8 -->
<g id="edge7" class="edge">
<title>Node7&#45;&gt;Node8</title>
<path fill="none" stroke="#63b8ff" d="M592.83,-121.64C598.59,-124.38 604.15,-127.63 609,-131.5 631.84,-149.72 622.2,-168.23 645,-186.5 646.75,-187.91 648.61,-189.23 650.53,-190.47"/>
<polygon fill="#63b8ff" stroke="#63b8ff" points="648.92,-193.58 659.35,-195.43 652.35,-187.48 648.92,-193.58"/>
</g>
<!-- Node9 -->
<g id="node9" class="node">
<title>Node9</title>
<g id="a_node9"><a xlink:href="namespacea60_1_1io.html#a16f17ea9e02c1975ca17b77e46cf7629" target="_top" xlink:title="Make sure a path ends in &#39;/&#39;;.">
<polygon fill="white" stroke="#666666" points="749.5,-177 659.5,-177 659.5,-160 749.5,-160 749.5,-177"/>
<text text-anchor="middle" x="704.5" y="-166.6" font-family="SourceSans" font-size="8.00">a60::io::end_path</text>
</a>
</g>
</g>
<!-- Node7&#45;&gt;Node9 -->
<g id="edge8" class="edge">
<title>Node7&#45;&gt;Node9</title>
<path fill="none" stroke="#63b8ff" d="M584.69,-121.59C592.79,-124.65 601.24,-128.03 609,-131.5 625.52,-138.88 628.28,-143.59 645,-150.5 650.47,-152.76 656.34,-154.89 662.16,-156.84"/>
<polygon fill="#63b8ff" stroke="#63b8ff" points="661.26,-160.23 671.85,-159.94 663.39,-153.56 661.26,-160.23"/>
</g>
<!-- Node10 -->
<g id="node10" class="node">
<title>Node10</title>
<g id="a_node10"><a xlink:href="namespacea60_1_1io.html#ac95e5271a27a23bc2336d84b3f821fa2" target="_top" xlink:title="Constant filesystem and run&#45;time resources.">
<polygon fill="white" stroke="#666666" points="756.5,-141.5 652.5,-141.5 652.5,-115.5 756.5,-115.5 756.5,-141.5"/>
<text text-anchor="start" x="660.5" y="-131.1" font-family="SourceSans" font-size="8.00">a60::io::get_run_time</text>
<text text-anchor="middle" x="704.5" y="-122.1" font-family="SourceSans" font-size="8.00">_resources</text>
</a>
</g>
</g>
<!-- Node7&#45;&gt;Node10 -->
<g id="edge9" class="edge">
<title>Node7&#45;&gt;Node10</title>
<path fill="none" stroke="#63b8ff" d="M606.61,-116.12C618.3,-117.61 630.59,-119.18 642.33,-120.68"/>
<polygon fill="#63b8ff" stroke="#63b8ff" points="642.12,-124.18 652.48,-121.98 643,-117.24 642.12,-124.18"/>
</g>
<!-- Node11 -->
<g id="node11" class="node">
<title>Node11</title>
<g id="a_node11"><a xlink:href="namespacea60.html#a0fc88c5c87f54b303a1856bc2aa76a45" target="_top" xlink:title=" ">
<polygon fill="white" stroke="#666666" points="761.5,-97 647.5,-97 647.5,-80 761.5,-80 761.5,-97"/>
<text text-anchor="middle" x="704.5" y="-86.6" font-family="SourceSans" font-size="8.00">a60::insert_to_iso_3166</text>
</a>
</g>
</g>
<!-- Node7&#45;&gt;Node11 -->
<g id="edge10" class="edge">
<title>Node7&#45;&gt;Node11</title>
<path fill="none" stroke="#63b8ff" d="M606.61,-100.88C616.65,-99.6 627.13,-98.26 637.33,-96.96"/>
<polygon fill="#63b8ff" stroke="#63b8ff" points="637.93,-100.41 647.4,-95.67 637.04,-93.46 637.93,-100.41"/>
</g>
<!-- Node12 -->
<g id="node12" class="node">
<title>Node12</title>
<g id="a_node12"><a xlink:href="namespacea60_1_1io.html#aa5fbb8ab63397dd45c4a54c0758935ef" target="_top" xlink:title="Sanity check input existence.">
<polygon fill="white" stroke="#666666" points="756.5,-61.5 652.5,-61.5 652.5,-35.5 756.5,-35.5 756.5,-61.5"/>
<text text-anchor="start" x="660.5" y="-51.1" font-family="SourceSans" font-size="8.00">a60::io::sanity_check</text>
<text text-anchor="middle" x="704.5" y="-42.1" font-family="SourceSans" font-size="8.00">_input</text>
</a>
</g>
</g>
<!-- Node7&#45;&gt;Node12 -->
<g id="edge11" class="edge">
<title>Node7&#45;&gt;Node12</title>
<path fill="none" stroke="#63b8ff" d="M580.96,-95.48C604.05,-86.63 634.82,-74.83 659.75,-65.27"/>
<polygon fill="#63b8ff" stroke="#63b8ff" points="661.25,-68.45 669.34,-61.6 658.75,-61.91 661.25,-68.45"/>
</g>
<!-- Node13 -->
<g id="node13" class="node">
<title>Node13</title>
<g id="a_node13"><a xlink:href="namespacea60.html#ac7eddb2e330d8983ddc852edde5335c5" target="_top" xlink:title=" ">
<polygon fill="white" stroke="#666666" points="764,-17 645,-17 645,0 764,0 764,-17"/>
<text text-anchor="middle" x="704.5" y="-6.6" font-family="SourceSans" font-size="8.00">a60::to_lowercase_string</text>
</a>
</g>
</g>
<!-- Node7&#45;&gt;Node13 -->
<g id="edge12" class="edge">
<title>Node7&#45;&gt;Node13</title>
<path fill="none" stroke="#63b8ff" d="M559.38,-95.25C576.86,-77.27 610.5,-45.24 645,-26.5 649.16,-24.24 653.64,-22.22 658.21,-20.43"/>
<polygon fill="#63b8ff" stroke="#63b8ff" points="659.39,-23.73 667.62,-17.07 657.03,-17.14 659.39,-23.73"/>
</g>
</g>
</svg>
