<?xml version="1.0" encoding="UTF-8" standalone="no"?>
<!DOCTYPE svg PUBLIC "-//W3C//DTD SVG 1.1//EN"
 "http://www.w3.org/Graphics/SVG/1.1/DTD/svg11.dtd">
<!-- Generated by graphviz version 5.0.0 (0)
 -->
<!-- Title: a60::metadata::render_ids_text_x Pages: 1 -->
<!--zoomable 142 -->
<svg id="main" version="1.1" xmlns="http://www.w3.org/2000/svg" xmlns:xlink="http://www.w3.org/1999/xlink" xml:space="preserve" onload="init(evt)">
<style type="text/css"><![CDATA[
.edge:hover path { stroke: red; }
.edge:hover polygon { stroke: red; fill: red; }
]]></style>
<script type="text/javascript"><![CDATA[
var edges = document.getElementsByTagName('g');
if (edges && edges.length) {
  for (var i=0;i<edges.length;i++) {
    if (edges[i].id.substr(0,4)=='edge') {
      edges[i].setAttribute('class','edge');
    }
  }
}
]]></script>
        <defs>
                <circle id="rim" cx="0" cy="0" r="7"/>
                <circle id="rim2" cx="0" cy="0" r="3.5"/>
                <g id="zoomPlus">
                        <use xlink:href="#rim" fill="#404040">
                                <set attributeName="fill" to="#808080" begin="zoomplus.mouseover" end="zoomplus.mouseout"/>
                        </use>
                        <path d="M-4,0h8M0,-4v8" fill="none" stroke="white" stroke-width="1.5" pointer-events="none"/>
                </g>
                <g id="zoomMin">
                        <use xlink:href="#rim" fill="#404040">
                                <set attributeName="fill" to="#808080" begin="zoomminus.mouseover" end="zoomminus.mouseout"/>
                        </use>
                        <path d="M-4,0h8" fill="none" stroke="white" stroke-width="1.5" pointer-events="none"/>
                </g>
                <g id="dirArrow">
                        <path fill="none" stroke="white" stroke-width="1.5" d="M0,-3.0v7 M-2.5,-0.5L0,-3.0L2.5,-0.5"/>
                </g>
               <g id="resetDef">
                       <use xlink:href="#rim2" fill="#404040">
                               <set attributeName="fill" to="#808080" begin="reset.mouseover" end="reset.mouseout"/>
                       </use>
               </g>
        </defs>

<script type="text/javascript">
var viewWidth = 550;
var viewHeight = 142;
var sectionId = 'dynsection-58';
</script>
<script xlink:href="svgpan.js"/>
<svg id="graph" class="graph">
<g id="viewport">
<title>a60::metadata::render_ids_text_x</title>
<!-- Node1 -->
<g id="node1" class="node">
<title>Node1</title>
<g id="a_node1"><a xlink:title="Entry point specialized for nationalities side&#45;by&#45;side: dimension with ages (ids) and ages playing (i...">
<polygon fill="#999999" stroke="#666666" points="110,-92 0,-92 0,-66 110,-66 110,-92"/>
<text text-anchor="start" x="8" y="-81.6" font-family="SourceSans" font-size="8.00">a60::metadata::render</text>
<text text-anchor="middle" x="55" y="-72.6" font-family="SourceSans" font-size="8.00">_ids_text_x</text>
</a>
</g>
</g>
<!-- Node2 -->
<g id="node2" class="node">
<title>Node2</title>
<g id="a_node2"><a xlink:href="namespacea60_1_1metadata.html#ac059aaea1bbe1e28b32dabb7dddd16f8" target="_top" xlink:title="Text grow&#45;up columns, horizontal with values (LHS) and values playing (RHS). Entry point specialized ...">
<polygon fill="white" stroke="#666666" points="256,-92 146,-92 146,-66 256,-66 256,-92"/>
<text text-anchor="start" x="154" y="-81.6" font-family="SourceSans" font-size="8.00">a60::metadata::render</text>
<text text-anchor="middle" x="201" y="-72.6" font-family="SourceSans" font-size="8.00">_ids_text_x</text>
</a>
</g>
</g>
<!-- Node1&#45;&gt;Node2 -->
<g id="edge1" class="edge">
<title>Node1&#45;&gt;Node2</title>
<path fill="none" stroke="#63b8ff" d="M110.03,-79C118.31,-79 126.94,-79 135.42,-79"/>
<polygon fill="#63b8ff" stroke="#63b8ff" points="135.67,-82.5 145.67,-79 135.67,-75.5 135.67,-82.5"/>
</g>
<!-- Node3 -->
<g id="node3" class="node">
<title>Node3</title>
<g id="a_node3"><a xlink:href="namespacea60_1_1metadata.html#abcd6d192e6ed0f853c3c6cd9bcf13cad" target="_top" xlink:title=" ">
<polygon fill="white" stroke="#666666" points="542,-134 444,-134 444,-108 542,-108 542,-134"/>
<text text-anchor="start" x="452" y="-123.6" font-family="SourceSans" font-size="8.00">a60::metadata::get</text>
<text text-anchor="middle" x="493" y="-114.6" font-family="SourceSans" font-size="8.00">_metadata_style</text>
</a>
</g>
</g>
<!-- Node2&#45;&gt;Node3 -->
<g id="edge2" class="edge">
<title>Node2&#45;&gt;Node3</title>
<path fill="none" stroke="#63b8ff" d="M222.09,-92.15C239.7,-102.84 266.41,-117.08 292,-123 338.68,-133.8 393.15,-132.38 433.44,-128.77"/>
<polygon fill="#63b8ff" stroke="#63b8ff" points="434.01,-132.23 443.63,-127.78 433.34,-125.26 434.01,-132.23"/>
</g>
<!-- Node4 -->
<g id="node4" class="node">
<title>Node4</title>
<g id="a_node4"><a xlink:href="namespacea60_1_1metadata.html#aeba42336cc4f30ed9ee705111d3e82a9" target="_top" xlink:title="Typographic defaults for text labels.">
<polygon fill="white" stroke="#666666" points="399,-114 301,-114 301,-88 399,-88 399,-114"/>
<text text-anchor="start" x="309" y="-103.6" font-family="SourceSans" font-size="8.00">a60::metadata::get</text>
<text text-anchor="middle" x="350" y="-94.6" font-family="SourceSans" font-size="8.00">_metadata_typo</text>
</a>
</g>
</g>
<!-- Node2&#45;&gt;Node4 -->
<g id="edge3" class="edge">
<title>Node2&#45;&gt;Node4</title>
<path fill="none" stroke="#63b8ff" d="M256.32,-87.13C267.47,-88.8 279.24,-90.56 290.53,-92.25"/>
<polygon fill="#63b8ff" stroke="#63b8ff" points="290.31,-95.76 300.72,-93.77 291.35,-88.83 290.31,-95.76"/>
</g>
<!-- Node5 -->
<g id="node5" class="node">
<title>Node5</title>
<g id="a_node5"><a xlink:href="namespacea60_1_1metadata.html#ab809b870c71701237f98849a7fe94a35" target="_top" xlink:title="Substitue &quot;&#45;&gt;&quot; for &quot;playing&quot; in input string s.">
<polygon fill="white" stroke="#666666" points="408,-70 292,-70 292,-44 408,-44 408,-70"/>
<text text-anchor="start" x="300" y="-59.6" font-family="SourceSans" font-size="8.00">a60::metadata::shorten</text>
<text text-anchor="middle" x="350" y="-50.6" font-family="SourceSans" font-size="8.00">_playing_value</text>
</a>
</g>
</g>
<!-- Node2&#45;&gt;Node5 -->
<g id="edge5" class="edge">
<title>Node2&#45;&gt;Node5</title>
<path fill="none" stroke="#63b8ff" d="M256.32,-70.87C264.67,-69.62 273.37,-68.32 281.95,-67.03"/>
<polygon fill="#63b8ff" stroke="#63b8ff" points="282.58,-70.48 291.95,-65.54 281.54,-63.56 282.58,-70.48"/>
</g>
<!-- Node6 -->
<g id="node6" class="node">
<title>Node6</title>
<g id="a_node6"><a xlink:href="namespacea60_1_1metadata.html#a841cf4a54bf053a6f8b77d8254053548" target="_top" xlink:title="Text moving up.">
<polygon fill="white" stroke="#666666" points="399.5,-26 300.5,-26 300.5,0 399.5,0 399.5,-26"/>
<text text-anchor="start" x="308.5" y="-15.6" font-family="SourceSans" font-size="8.00">a60::metadata::text</text>
<text text-anchor="middle" x="350" y="-6.6" font-family="SourceSans" font-size="8.00">_grow_up_from</text>
</a>
</g>
</g>
<!-- Node2&#45;&gt;Node6 -->
<g id="edge6" class="edge">
<title>Node2&#45;&gt;Node6</title>
<path fill="none" stroke="#63b8ff" d="M227.33,-65.89C245.21,-56.81 269.84,-44.67 292,-35 296.05,-33.23 300.28,-31.46 304.54,-29.73"/>
<polygon fill="#63b8ff" stroke="#63b8ff" points="305.85,-32.98 313.84,-26.02 303.25,-26.48 305.85,-32.98"/>
</g>
<!-- Node4&#45;&gt;Node3 -->
<g id="edge4" class="edge">
<title>Node4&#45;&gt;Node3</title>
<path fill="none" stroke="#63b8ff" d="M399.13,-107.83C410.24,-109.4 422.17,-111.09 433.66,-112.72"/>
<polygon fill="#63b8ff" stroke="#63b8ff" points="433.22,-116.2 443.61,-114.14 434.2,-109.27 433.22,-116.2"/>
</g>
</g>
</svg>
        <g id="navigator" transform="translate(0 0)" fill="#404254">
                <rect fill="#f2f5e9" fill-opacity="0.5" stroke="#606060" stroke-width=".5" x="0" y="0" width="60" height="60"/>
                <use id="zoomplus" xlink:href="#zoomPlus" x="17" y="9" onmousedown="handleZoom(evt,'in')"/>
                <use id="zoomminus" xlink:href="#zoomMin" x="42" y="9" onmousedown="handleZoom(evt,'out')"/>
                <use id="reset" xlink:href="#resetDef" x="30" y="36" onmousedown="handleReset()"/>
                <g id="arrowUp" xlink:href="#dirArrow" transform="translate(30 24)" onmousedown="handlePan(0,-1)">
                  <use xlink:href="#rim" fill="#404040">
                        <set attributeName="fill" to="#808080" begin="arrowUp.mouseover" end="arrowUp.mouseout"/>
                  </use>
                  <path fill="none" stroke="white" stroke-width="1.5" d="M0,-3.0v7 M-2.5,-0.5L0,-3.0L2.5,-0.5"/>
                </g>
                <g id="arrowRight" xlink:href="#dirArrow" transform="rotate(90) translate(36 -43)" onmousedown="handlePan(1,0)">
                  <use xlink:href="#rim" fill="#404040">
                        <set attributeName="fill" to="#808080" begin="arrowRight.mouseover" end="arrowRight.mouseout"/>
                  </use>
                  <path fill="none" stroke="white" stroke-width="1.5" d="M0,-3.0v7 M-2.5,-0.5L0,-3.0L2.5,-0.5"/>
                </g>
                <g id="arrowDown" xlink:href="#dirArrow" transform="rotate(180) translate(-30 -48)" onmousedown="handlePan(0,1)">
                  <use xlink:href="#rim" fill="#404040">
                        <set attributeName="fill" to="#808080" begin="arrowDown.mouseover" end="arrowDown.mouseout"/>
                  </use>
                  <path fill="none" stroke="white" stroke-width="1.5" d="M0,-3.0v7 M-2.5,-0.5L0,-3.0L2.5,-0.5"/>
                </g>
                <g id="arrowLeft" xlink:href="#dirArrow" transform="rotate(270) translate(-36 17)" onmousedown="handlePan(-1,0)">
                  <use xlink:href="#rim" fill="#404040">
                        <set attributeName="fill" to="#808080" begin="arrowLeft.mouseover" end="arrowLeft.mouseout"/>
                  </use>
                  <path fill="none" stroke="white" stroke-width="1.5" d="M0,-3.0v7 M-2.5,-0.5L0,-3.0L2.5,-0.5"/>
                </g>
        </g>
        <svg viewBox="0 0 15 15" width="100%" height="30px" preserveAspectRatio="xMaxYMin meet">
         <g id="arrow_out" transform="scale(0.3 0.3)">
          <a xlink:href="namespacea60_1_1metadata_a5191d9449a677b217ef2dbe17ecb40c4_cgraph_org.svg" target="_base">
           <rect id="button" ry="5" rx="5" y="6" x="6" height="38" width="38"
                fill="#f2f5e9" fill-opacity="0.5" stroke="#606060" stroke-width="1.0"/>
           <path id="arrow"
             d="M 11.500037,31.436501 C 11.940474,20.09759 22.043105,11.32322 32.158766,21.979434 L 37.068811,17.246167 C 37.068811,17.246167 37.088388,32 37.088388,32 L 22.160133,31.978069 C 22.160133,31.978069 26.997745,27.140456 26.997745,27.140456 C 18.528582,18.264221 13.291696,25.230495 11.500037,31.436501 z"
             style="fill:#404040;"/>
          </a>
         </g>
        </svg>
</svg>
