<?xml version="1.0" encoding="UTF-8" standalone="no"?>
<!DOCTYPE svg PUBLIC "-//W3C//DTD SVG 1.1//EN"
 "http://www.w3.org/Graphics/SVG/1.1/DTD/svg11.dtd">
<!-- Generated by graphviz version 5.0.0 (0)
 -->
<!-- Title: a60::sunique_peers Pages: 1 -->
<svg width="392pt" height="114pt"
 viewBox="0.00 0.00 392.00 114.00" xmlns="http://www.w3.org/2000/svg" xmlns:xlink="http://www.w3.org/1999/xlink">
<g id="graph0" class="graph" transform="scale(1 1) rotate(0) translate(4 110)">
<title>a60::sunique_peers</title>
<!-- Node1 -->
<g id="node1" class="node">
<title>Node1</title>
<g id="a_node1"><a xlink:title=" ">
<polygon fill="#999999" stroke="#666666" points="98,-61.5 0,-61.5 0,-44.5 98,-44.5 98,-61.5"/>
<text text-anchor="middle" x="49" y="-51.1" font-family="SourceSans" font-size="8.00">a60::sunique_peers</text>
</a>
</g>
</g>
<!-- Node2 -->
<g id="node2" class="node">
<title>Node2</title>
<g id="a_node2"><a xlink:href="namespacea60.html#af45982273a7a2e61b6aaa436081238c0" target="_top" xlink:title="Load JSON file to in&#45;memory DOM.">
<polygon fill="white" stroke="#666666" points="241,-106 137,-106 137,-80 241,-80 241,-106"/>
<text text-anchor="start" x="145" y="-95.6" font-family="SourceSans" font-size="8.00">a60::deserialize_json</text>
<text text-anchor="middle" x="189" y="-86.6" font-family="SourceSans" font-size="8.00">_to_dom_object</text>
</a>
</g>
</g>
<!-- Node1&#45;&gt;Node2 -->
<g id="edge1" class="edge">
<title>Node1&#45;&gt;Node2</title>
<path fill="none" stroke="#63b8ff" d="M79.6,-61.58C95.25,-66.11 114.95,-71.83 133.25,-77.13"/>
<polygon fill="#63b8ff" stroke="#63b8ff" points="132.38,-80.52 142.96,-79.94 134.33,-73.8 132.38,-80.52"/>
</g>
<!-- Node4 -->
<g id="node4" class="node">
<title>Node4</title>
<g id="a_node4"><a xlink:href="namespacea60_1_1io.html#aea30b8fc474f5a7b922516dc1e199037" target="_top" xlink:title="Takes a string representing a directory, returns a sorted list of contents as a std::vector&lt;string&gt;.">
<polygon fill="white" stroke="#666666" points="244,-61.5 134,-61.5 134,-44.5 244,-44.5 244,-61.5"/>
<text text-anchor="middle" x="189" y="-51.1" font-family="SourceSans" font-size="8.00">a60::io::populate_files</text>
</a>
</g>
</g>
<!-- Node1&#45;&gt;Node4 -->
<g id="edge3" class="edge">
<title>Node1&#45;&gt;Node4</title>
<path fill="none" stroke="#63b8ff" d="M98.27,-53C106.53,-53 115.24,-53 123.84,-53"/>
<polygon fill="#63b8ff" stroke="#63b8ff" points="123.87,-56.5 133.87,-53 123.87,-49.5 123.87,-56.5"/>
</g>
<!-- Node5 -->
<g id="node5" class="node">
<title>Node5</title>
<g id="a_node5"><a xlink:href="namespacea60.html#a6ce8704ec3c4d5e258d062283dd40efb" target="_top" xlink:title="Search DOM for meta_peer(s).">
<polygon fill="white" stroke="#666666" points="240.5,-26 137.5,-26 137.5,0 240.5,0 240.5,-26"/>
<text text-anchor="start" x="145.5" y="-15.6" font-family="SourceSans" font-size="8.00">a60::search_dom_for</text>
<text text-anchor="middle" x="189" y="-6.6" font-family="SourceSans" font-size="8.00">_meta_peers</text>
</a>
</g>
</g>
<!-- Node1&#45;&gt;Node5 -->
<g id="edge4" class="edge">
<title>Node1&#45;&gt;Node5</title>
<path fill="none" stroke="#63b8ff" d="M79.6,-44.42C95.25,-39.89 114.95,-34.17 133.25,-28.87"/>
<polygon fill="#63b8ff" stroke="#63b8ff" points="134.33,-32.2 142.96,-26.06 132.38,-25.48 134.33,-32.2"/>
</g>
<!-- Node3 -->
<g id="node3" class="node">
<title>Node3</title>
<g id="a_node3"><a xlink:href="namespacea60.html#a538d43bb9bfa488a54cea929736dbe2d" target="_top" xlink:title="Deserialize input file.">
<polygon fill="white" stroke="#666666" points="384,-106 280,-106 280,-80 384,-80 384,-106"/>
<text text-anchor="start" x="288" y="-95.6" font-family="SourceSans" font-size="8.00">a60::deserialize_json</text>
<text text-anchor="middle" x="332" y="-86.6" font-family="SourceSans" font-size="8.00">_to_dom</text>
</a>
</g>
</g>
<!-- Node2&#45;&gt;Node3 -->
<g id="edge2" class="edge">
<title>Node2&#45;&gt;Node3</title>
<path fill="none" stroke="#63b8ff" d="M241.3,-93C250.56,-93 260.28,-93 269.79,-93"/>
<polygon fill="#63b8ff" stroke="#63b8ff" points="269.97,-96.5 279.97,-93 269.97,-89.5 269.97,-96.5"/>
</g>
</g>
</svg>
