<?xml version="1.0" encoding="UTF-8" standalone="no"?>
<!DOCTYPE svg PUBLIC "-//W3C//DTD SVG 1.1//EN"
 "http://www.w3.org/Graphics/SVG/1.1/DTD/svg11.dtd">
<!-- Generated by graphviz version 5.0.0 (0)
 -->
<!-- Title: a60::augment_wmeta_peers_location Pages: 1 -->
<!--zoomable 184 -->
<svg id="main" version="1.1" xmlns="http://www.w3.org/2000/svg" xmlns:xlink="http://www.w3.org/1999/xlink" xml:space="preserve" onload="init(evt)">
<style type="text/css"><![CDATA[
.edge:hover path { stroke: red; }
.edge:hover polygon { stroke: red; fill: red; }
]]></style>
<script type="text/javascript"><![CDATA[
var edges = document.getElementsByTagName('g');
if (edges && edges.length) {
  for (var i=0;i<edges.length;i++) {
    if (edges[i].id.substr(0,4)=='edge') {
      edges[i].setAttribute('class','edge');
    }
  }
}
]]></script>
        <defs>
                <circle id="rim" cx="0" cy="0" r="7"/>
                <circle id="rim2" cx="0" cy="0" r="3.5"/>
                <g id="zoomPlus">
                        <use xlink:href="#rim" fill="#404040">
                                <set attributeName="fill" to="#808080" begin="zoomplus.mouseover" end="zoomplus.mouseout"/>
                        </use>
                        <path d="M-4,0h8M0,-4v8" fill="none" stroke="white" stroke-width="1.5" pointer-events="none"/>
                </g>
                <g id="zoomMin">
                        <use xlink:href="#rim" fill="#404040">
                                <set attributeName="fill" to="#808080" begin="zoomminus.mouseover" end="zoomminus.mouseout"/>
                        </use>
                        <path d="M-4,0h8" fill="none" stroke="white" stroke-width="1.5" pointer-events="none"/>
                </g>
                <g id="dirArrow">
                        <path fill="none" stroke="white" stroke-width="1.5" d="M0,-3.0v7 M-2.5,-0.5L0,-3.0L2.5,-0.5"/>
                </g>
               <g id="resetDef">
                       <use xlink:href="#rim2" fill="#404040">
                               <set attributeName="fill" to="#808080" begin="reset.mouseover" end="reset.mouseout"/>
                       </use>
               </g>
        </defs>

<script type="text/javascript">
var viewWidth = 604;
var viewHeight = 184;
var sectionId = 'dynsection-92';
</script>
<script xlink:href="svgpan.js"/>
<svg id="graph" class="graph">
<g id="viewport">
<title>a60::augment_wmeta_peers_location</title>
<!-- Node1 -->
<g id="node1" class="node">
<title>Node1</title>
<g id="a_node1"><a xlink:title=" ">
<polygon fill="#999999" stroke="#666666" points="107,-63.5 0,-63.5 0,-37.5 107,-37.5 107,-63.5"/>
<text text-anchor="start" x="8" y="-53.1" font-family="SourceSans" font-size="8.00">a60::augment_wmeta</text>
<text text-anchor="middle" x="53.5" y="-44.1" font-family="SourceSans" font-size="8.00">_peers_location</text>
</a>
</g>
</g>
<!-- Node2 -->
<g id="node2" class="node">
<title>Node2</title>
<g id="a_node2"><a xlink:href="namespacea60.html#ac997b39099fe8c748ee393875dd23c9e" target="_top" xlink:title=" ">
<polygon fill="white" stroke="#666666" points="277,-101 143,-101 143,-84 277,-84 277,-101"/>
<text text-anchor="middle" x="210" y="-90.6" font-family="SourceSans" font-size="8.00">a60::augment_peer_location</text>
</a>
</g>
</g>
<!-- Node1&#45;&gt;Node2 -->
<g id="edge1" class="edge">
<title>Node1&#45;&gt;Node2</title>
<path fill="none" stroke="#63b8ff" d="M102.54,-63.56C123.45,-69.24 147.72,-75.84 167.8,-81.3"/>
<polygon fill="#63b8ff" stroke="#63b8ff" points="167.01,-84.71 177.58,-83.96 168.85,-77.96 167.01,-84.71"/>
</g>
<!-- Node8 -->
<g id="node8" class="node">
<title>Node8</title>
<g id="a_node8"><a xlink:href="namespacea60.html#ad45d3b038bf48365dfb373e98c2ab22b" target="_top" xlink:title=" ">
<polygon fill="white" stroke="#666666" points="270.5,-43.5 149.5,-43.5 149.5,-17.5 270.5,-17.5 270.5,-43.5"/>
<text text-anchor="start" x="157.5" y="-33.1" font-family="SourceSans" font-size="8.00">a60::normalize_weighted</text>
<text text-anchor="middle" x="210" y="-24.1" font-family="SourceSans" font-size="8.00">_peers</text>
</a>
</g>
</g>
<!-- Node1&#45;&gt;Node8 -->
<g id="edge7" class="edge">
<title>Node1&#45;&gt;Node8</title>
<path fill="none" stroke="#63b8ff" d="M107.24,-43.67C117.51,-42.34 128.42,-40.93 139.14,-39.54"/>
<polygon fill="#63b8ff" stroke="#63b8ff" points="139.86,-42.98 149.33,-38.22 138.97,-36.04 139.86,-42.98"/>
</g>
<!-- Node3 -->
<g id="node3" class="node">
<title>Node3</title>
<g id="a_node3"><a xlink:href="namespacea60.html#a935512b7346e03fbd98295ec07511666" target="_top" xlink:title=" ">
<polygon fill="white" stroke="#666666" points="431.5,-176 315.5,-176 315.5,-159 431.5,-159 431.5,-176"/>
<text text-anchor="middle" x="373.5" y="-165.6" font-family="SourceSans" font-size="8.00">a60::augment_peer_text</text>
</a>
</g>
</g>
<!-- Node2&#45;&gt;Node3 -->
<g id="edge2" class="edge">
<title>Node2&#45;&gt;Node3</title>
<path fill="none" stroke="#63b8ff" d="M223.69,-101.05C242.5,-113.39 279.19,-136.3 313,-150.5 317.71,-152.48 322.72,-154.31 327.76,-155.97"/>
<polygon fill="#63b8ff" stroke="#63b8ff" points="326.82,-159.35 337.41,-158.98 328.9,-152.67 326.82,-159.35"/>
</g>
<!-- Node4 -->
<g id="node4" class="node">
<title>Node4</title>
<g id="a_node4"><a xlink:href="namespacea60.html#a67a216731ae229be675dbcbfa228d865" target="_top" xlink:title=" ">
<polygon fill="white" stroke="#666666" points="424,-141 323,-141 323,-124 424,-124 424,-141"/>
<text text-anchor="middle" x="373.5" y="-130.6" font-family="SourceSans" font-size="8.00">a60::convert_to_utf8</text>
</a>
</g>
</g>
<!-- Node2&#45;&gt;Node4 -->
<g id="edge3" class="edge">
<title>Node2&#45;&gt;Node4</title>
<path fill="none" stroke="#63b8ff" d="M245.65,-101.08C269.7,-107.04 301.97,-115.03 327.94,-121.46"/>
<polygon fill="#63b8ff" stroke="#63b8ff" points="327.36,-124.93 337.91,-123.93 329.05,-118.13 327.36,-124.93"/>
</g>
<!-- Node6 -->
<g id="node6" class="node">
<title>Node6</title>
<g id="a_node6"><a xlink:href="namespacea60.html#a63bf2b0abf68edc3f3e74a0811fe771b" target="_top" xlink:title="Error checking support. Null Island Check (aka latitude and longitude set to zero).">
<polygon fill="white" stroke="#666666" points="427,-105.5 320,-105.5 320,-79.5 427,-79.5 427,-105.5"/>
<text text-anchor="start" x="328" y="-95.1" font-family="SourceSans" font-size="8.00">a60::is_meta_peer_on</text>
<text text-anchor="middle" x="373.5" y="-86.1" font-family="SourceSans" font-size="8.00">_null_island</text>
</a>
</g>
</g>
<!-- Node2&#45;&gt;Node6 -->
<g id="edge5" class="edge">
<title>Node2&#45;&gt;Node6</title>
<path fill="none" stroke="#63b8ff" d="M277.15,-92.5C287.91,-92.5 299.03,-92.5 309.71,-92.5"/>
<polygon fill="#63b8ff" stroke="#63b8ff" points="309.78,-96 319.78,-92.5 309.78,-89 309.78,-96"/>
</g>
<!-- Node7 -->
<g id="node7" class="node">
<title>Node7</title>
<g id="a_node7"><a xlink:href="structa60_1_1carto_1_1cartography.html#a57e14cabb4993189316e369a27752a73" target="_top" xlink:title=" ">
<polygon fill="white" stroke="#666666" points="431,-61.5 316,-61.5 316,-35.5 431,-35.5 431,-61.5"/>
<text text-anchor="start" x="324" y="-51.1" font-family="SourceSans" font-size="8.00">a60::carto::cartography</text>
<text text-anchor="middle" x="373.5" y="-42.1" font-family="SourceSans" font-size="8.00">::to_point_2d</text>
</a>
</g>
</g>
<!-- Node2&#45;&gt;Node7 -->
<g id="edge6" class="edge">
<title>Node2&#45;&gt;Node7</title>
<path fill="none" stroke="#63b8ff" d="M242.52,-83.91C263.01,-78.33 290.35,-70.88 314.66,-64.26"/>
<polygon fill="#63b8ff" stroke="#63b8ff" points="315.78,-67.58 324.51,-61.57 313.94,-60.83 315.78,-67.58"/>
</g>
<!-- Node5 -->
<g id="node5" class="node">
<title>Node5</title>
<g id="a_node5"><a xlink:href="namespacea60.html#a1c4e23f164dec11b9fee53e2292af224" target="_top" xlink:title="Convert MaxMind GeoIP information from ISO&#45;8859&#45;1 encoding to UTF&#45;8.">
<polygon fill="white" stroke="#666666" points="596,-141 470,-141 470,-124 596,-124 596,-141"/>
<text text-anchor="middle" x="533" y="-130.6" font-family="SourceSans" font-size="8.00">a60::convert_8859_to_utf8</text>
</a>
</g>
</g>
<!-- Node4&#45;&gt;Node5 -->
<g id="edge4" class="edge">
<title>Node4&#45;&gt;Node5</title>
<path fill="none" stroke="#63b8ff" d="M424.33,-132.5C435.49,-132.5 447.54,-132.5 459.4,-132.5"/>
<polygon fill="#63b8ff" stroke="#63b8ff" points="459.75,-136 469.75,-132.5 459.75,-129 459.75,-136"/>
</g>
<!-- Node9 -->
<g id="node9" class="node">
<title>Node9</title>
<g id="a_node9"><a xlink:href="namespacea60.html#a0d53d95ed1faf99432c1eaaa0d238732" target="_top" xlink:title="Normalize value from (min, max) on (nfloor, nceil)">
<polygon fill="white" stroke="#666666" points="434,-17 313,-17 313,0 434,0 434,-17"/>
<text text-anchor="middle" x="373.5" y="-6.6" font-family="SourceSans" font-size="8.00">a60::normalize_on_range</text>
</a>
</g>
</g>
<!-- Node8&#45;&gt;Node9 -->
<g id="edge8" class="edge">
<title>Node8&#45;&gt;Node9</title>
<path fill="none" stroke="#63b8ff" d="M270.68,-22.37C281.1,-20.95 292.02,-19.46 302.68,-18.01"/>
<polygon fill="#63b8ff" stroke="#63b8ff" points="303.36,-21.45 312.8,-16.63 302.42,-14.51 303.36,-21.45"/>
</g>
</g>
</svg>
        <g id="navigator" transform="translate(0 0)" fill="#404254">
                <rect fill="#f2f5e9" fill-opacity="0.5" stroke="#606060" stroke-width=".5" x="0" y="0" width="60" height="60"/>
                <use id="zoomplus" xlink:href="#zoomPlus" x="17" y="9" onmousedown="handleZoom(evt,'in')"/>
                <use id="zoomminus" xlink:href="#zoomMin" x="42" y="9" onmousedown="handleZoom(evt,'out')"/>
                <use id="reset" xlink:href="#resetDef" x="30" y="36" onmousedown="handleReset()"/>
                <g id="arrowUp" xlink:href="#dirArrow" transform="translate(30 24)" onmousedown="handlePan(0,-1)">
                  <use xlink:href="#rim" fill="#404040">
                        <set attributeName="fill" to="#808080" begin="arrowUp.mouseover" end="arrowUp.mouseout"/>
                  </use>
                  <path fill="none" stroke="white" stroke-width="1.5" d="M0,-3.0v7 M-2.5,-0.5L0,-3.0L2.5,-0.5"/>
                </g>
                <g id="arrowRight" xlink:href="#dirArrow" transform="rotate(90) translate(36 -43)" onmousedown="handlePan(1,0)">
                  <use xlink:href="#rim" fill="#404040">
                        <set attributeName="fill" to="#808080" begin="arrowRight.mouseover" end="arrowRight.mouseout"/>
                  </use>
                  <path fill="none" stroke="white" stroke-width="1.5" d="M0,-3.0v7 M-2.5,-0.5L0,-3.0L2.5,-0.5"/>
                </g>
                <g id="arrowDown" xlink:href="#dirArrow" transform="rotate(180) translate(-30 -48)" onmousedown="handlePan(0,1)">
                  <use xlink:href="#rim" fill="#404040">
                        <set attributeName="fill" to="#808080" begin="arrowDown.mouseover" end="arrowDown.mouseout"/>
                  </use>
                  <path fill="none" stroke="white" stroke-width="1.5" d="M0,-3.0v7 M-2.5,-0.5L0,-3.0L2.5,-0.5"/>
                </g>
                <g id="arrowLeft" xlink:href="#dirArrow" transform="rotate(270) translate(-36 17)" onmousedown="handlePan(-1,0)">
                  <use xlink:href="#rim" fill="#404040">
                        <set attributeName="fill" to="#808080" begin="arrowLeft.mouseover" end="arrowLeft.mouseout"/>
                  </use>
                  <path fill="none" stroke="white" stroke-width="1.5" d="M0,-3.0v7 M-2.5,-0.5L0,-3.0L2.5,-0.5"/>
                </g>
        </g>
        <svg viewBox="0 0 15 15" width="100%" height="30px" preserveAspectRatio="xMaxYMin meet">
         <g id="arrow_out" transform="scale(0.3 0.3)">
          <a xlink:href="namespacea60_a6d403a4a31ab2746a85876c5b57449e7_cgraph_org.svg" target="_base">
           <rect id="button" ry="5" rx="5" y="6" x="6" height="38" width="38"
                fill="#f2f5e9" fill-opacity="0.5" stroke="#606060" stroke-width="1.0"/>
           <path id="arrow"
             d="M 11.500037,31.436501 C 11.940474,20.09759 22.043105,11.32322 32.158766,21.979434 L 37.068811,17.246167 C 37.068811,17.246167 37.088388,32 37.088388,32 L 22.160133,31.978069 C 22.160133,31.978069 26.997745,27.140456 26.997745,27.140456 C 18.528582,18.264221 13.291696,25.230495 11.500037,31.436501 z"
             style="fill:#404040;"/>
          </a>
         </g>
        </svg>
</svg>
