<?xml version="1.0" encoding="UTF-8" standalone="no"?>
<!DOCTYPE svg PUBLIC "-//W3C//DTD SVG 1.1//EN"
 "http://www.w3.org/Graphics/SVG/1.1/DTD/svg11.dtd">
<!-- Generated by graphviz version 5.0.0 (0)
 -->
<!-- Title: a60::metadata::render_ids_ages Pages: 1 -->
<svg width="722pt" height="334pt"
 viewBox="0.00 0.00 722.00 334.00" xmlns="http://www.w3.org/2000/svg" xmlns:xlink="http://www.w3.org/1999/xlink">
<g id="graph0" class="graph" transform="scale(1 1) rotate(0) translate(4 330)">
<title>a60::metadata::render_ids_ages</title>
<!-- Node1 -->
<g id="node1" class="node">
<title>Node1</title>
<g id="a_node1"><a xlink:title="Entry point specialized for age dimension for media object.">
<polygon fill="#999999" stroke="#666666" points="110,-171 0,-171 0,-145 110,-145 110,-171"/>
<text text-anchor="start" x="8" y="-160.6" font-family="SourceSans" font-size="8.00">a60::metadata::render</text>
<text text-anchor="middle" x="55" y="-151.6" font-family="SourceSans" font-size="8.00">_ids_ages</text>
</a>
</g>
</g>
<!-- Node2 -->
<g id="node2" class="node">
<title>Node2</title>
<g id="a_node2"><a xlink:href="namespacea60_1_1metadata.html#a322c3cae56a5e97a9cb15dcc19be2911" target="_top" xlink:title="Ages and ages playing composited into one ring glyph. Select, sort, and composite if necessary the va...">
<polygon fill="white" stroke="#666666" points="273,-130 146,-130 146,-104 273,-104 273,-130"/>
<text text-anchor="start" x="154" y="-119.6" font-family="SourceSans" font-size="8.00">a60::metadata::composite</text>
<text text-anchor="middle" x="209.5" y="-110.6" font-family="SourceSans" font-size="8.00">_age_glyph</text>
</a>
</g>
</g>
<!-- Node1&#45;&gt;Node2 -->
<g id="edge1" class="edge">
<title>Node1&#45;&gt;Node2</title>
<path fill="none" stroke="#63b8ff" d="M104.67,-144.91C119.19,-141.01 135.24,-136.7 150.3,-132.65"/>
<polygon fill="#63b8ff" stroke="#63b8ff" points="151.28,-136.01 160.03,-130.03 149.46,-129.25 151.28,-136.01"/>
</g>
<!-- Node11 -->
<g id="node11" class="node">
<title>Node11</title>
<g id="a_node11"><a xlink:href="namespacea60_1_1metadata.html#acac3003bbaeb00d1c2dbfab86874dd04" target="_top" xlink:title="Base Radial Visualization.">
<polygon fill="white" stroke="#666666" points="264.5,-231 154.5,-231 154.5,-205 264.5,-205 264.5,-231"/>
<text text-anchor="start" x="162.5" y="-220.6" font-family="SourceSans" font-size="8.00">a60::metadata::render</text>
<text text-anchor="middle" x="209.5" y="-211.6" font-family="SourceSans" font-size="8.00">_id_base</text>
</a>
</g>
</g>
<!-- Node1&#45;&gt;Node11 -->
<g id="edge12" class="edge">
<title>Node1&#45;&gt;Node11</title>
<path fill="none" stroke="#63b8ff" d="M89.09,-171.02C111.59,-179.87 141.58,-191.67 165.87,-201.23"/>
<polygon fill="#63b8ff" stroke="#63b8ff" points="164.62,-204.5 175.21,-204.9 167.19,-197.98 164.62,-204.5"/>
</g>
<!-- Node2&#45;&gt;Node2 -->
<g id="edge4" class="edge">
<title>Node2&#45;&gt;Node2</title>
<path fill="none" stroke="#63b8ff" d="M184.12,-130.06C176.43,-139.1 184.89,-148 209.5,-148 224.5,-148 233.5,-144.69 236.5,-140.07"/>
<polygon fill="#63b8ff" stroke="#63b8ff" points="239.93,-139.37 234.88,-130.06 233.02,-140.49 239.93,-139.37"/>
</g>
<!-- Node3 -->
<g id="node3" class="node">
<title>Node3</title>
<g id="a_node3"><a xlink:href="namespacea60_1_1constants.html#a613cac7d85819a545849f5eefd733896" target="_top" xlink:title=" ">
<polygon fill="white" stroke="#666666" points="410,-190 309,-190 309,-164 410,-164 410,-190"/>
<text text-anchor="start" x="317" y="-179.6" font-family="SourceSans" font-size="8.00">a60::constants::age</text>
<text text-anchor="middle" x="359.5" y="-170.6" font-family="SourceSans" font-size="8.00">_value_to_multiple</text>
</a>
</g>
</g>
<!-- Node2&#45;&gt;Node3 -->
<g id="edge2" class="edge">
<title>Node2&#45;&gt;Node3</title>
<path fill="none" stroke="#63b8ff" d="M242.61,-130.02C264.36,-138.83 293.3,-150.57 316.81,-160.1"/>
<polygon fill="#63b8ff" stroke="#63b8ff" points="315.61,-163.39 326.19,-163.9 318.24,-156.9 315.61,-163.39"/>
</g>
<!-- Node5 -->
<g id="node5" class="node">
<title>Node5</title>
<g id="a_node5"><a xlink:href="namespacea60_1_1metadata.html#abcd6d192e6ed0f853c3c6cd9bcf13cad" target="_top" xlink:title=" ">
<polygon fill="white" stroke="#666666" points="553.5,-231 455.5,-231 455.5,-205 553.5,-205 553.5,-231"/>
<text text-anchor="start" x="463.5" y="-220.6" font-family="SourceSans" font-size="8.00">a60::metadata::get</text>
<text text-anchor="middle" x="504.5" y="-211.6" font-family="SourceSans" font-size="8.00">_metadata_style</text>
</a>
</g>
</g>
<!-- Node2&#45;&gt;Node5 -->
<g id="edge5" class="edge">
<title>Node2&#45;&gt;Node5</title>
<path fill="none" stroke="#63b8ff" d="M273.37,-118.71C314.53,-122.21 368.22,-131.46 410,-155 430.84,-166.74 426.39,-181.31 446,-195 448.82,-196.97 451.83,-198.8 454.94,-200.51"/>
<polygon fill="#63b8ff" stroke="#63b8ff" points="453.39,-203.64 463.9,-204.97 456.51,-197.38 453.39,-203.64"/>
</g>
<!-- Node6 -->
<g id="node6" class="node">
<title>Node6</title>
<g id="a_node6"><a xlink:href="namespacea60_1_1metadata.html#aa74f3d32a4793b6323d54e93c6c911b9" target="_top" xlink:title="Grows out from center &#39;as if&#39; a tree growing a tree ring. Spans unknown to [00&#45;01,...">
<polygon fill="white" stroke="#666666" points="409.5,-70 309.5,-70 309.5,-44 409.5,-44 409.5,-70"/>
<text text-anchor="start" x="317.5" y="-59.6" font-family="SourceSans" font-size="8.00">a60::metadata::ring</text>
<text text-anchor="middle" x="359.5" y="-50.6" font-family="SourceSans" font-size="8.00">_glyph</text>
</a>
</g>
</g>
<!-- Node2&#45;&gt;Node6 -->
<g id="edge6" class="edge">
<title>Node2&#45;&gt;Node6</title>
<path fill="none" stroke="#63b8ff" d="M242.61,-103.98C264.36,-95.17 293.3,-83.43 316.81,-73.9"/>
<polygon fill="#63b8ff" stroke="#63b8ff" points="318.24,-77.1 326.19,-70.1 315.61,-70.61 318.24,-77.1"/>
</g>
<!-- Node7 -->
<g id="node7" class="node">
<title>Node7</title>
<g id="a_node7"><a xlink:href="namespacea60_1_1metadata.html#ae3aa31b1fc054034f40b30f22bf0d4b8" target="_top" xlink:title="Find orbit of ring, given radius, rspace, and number ring. Assume: ringsn starts with 1 for values an...">
<polygon fill="white" stroke="#666666" points="554.5,-90 454.5,-90 454.5,-64 554.5,-64 554.5,-90"/>
<text text-anchor="start" x="462.5" y="-79.6" font-family="SourceSans" font-size="8.00">a60::metadata::ring</text>
<text text-anchor="middle" x="504.5" y="-70.6" font-family="SourceSans" font-size="8.00">_radius</text>
</a>
</g>
</g>
<!-- Node2&#45;&gt;Node7 -->
<g id="edge8" class="edge">
<title>Node2&#45;&gt;Node7</title>
<path fill="none" stroke="#63b8ff" d="M273.36,-108.42C324.01,-101.5 394.73,-91.85 444.37,-85.07"/>
<polygon fill="#63b8ff" stroke="#63b8ff" points="444.88,-88.54 454.31,-83.72 443.93,-81.6 444.88,-88.54"/>
</g>
<!-- Node8 -->
<g id="node8" class="node">
<title>Node8</title>
<g id="a_node8"><a xlink:href="namespacea60_1_1metadata.html#a5156bb42291c8eb54dc6ddef8688be1e" target="_top" xlink:title="Split playing value into actor &#45;&gt; LHS of playing &quot;person&quot; role &#45;&gt; RHS of playing &quot;persona&quot; NB: Each s...">
<polygon fill="white" stroke="#666666" points="410,-26 309,-26 309,0 410,0 410,-26"/>
<text text-anchor="start" x="317" y="-15.6" font-family="SourceSans" font-size="8.00">a60::metadata::split</text>
<text text-anchor="middle" x="359.5" y="-6.6" font-family="SourceSans" font-size="8.00">_playing_value</text>
</a>
</g>
</g>
<!-- Node2&#45;&gt;Node8 -->
<g id="edge9" class="edge">
<title>Node2&#45;&gt;Node8</title>
<path fill="none" stroke="#63b8ff" d="M223.91,-103.74C242.04,-86.33 275.93,-55.56 309,-35 311.43,-33.49 313.99,-32.02 316.6,-30.62"/>
<polygon fill="#63b8ff" stroke="#63b8ff" points="318.26,-33.7 325.62,-26.08 315.12,-27.45 318.26,-33.7"/>
</g>
<!-- Node4 -->
<g id="node4" class="node">
<title>Node4</title>
<g id="a_node4"><a xlink:href="namespacea60_1_1constants.html#ac27c77e4606552ae5f74a1c21dd9258e" target="_top" xlink:title=" ">
<polygon fill="white" stroke="#666666" points="563,-185.5 446,-185.5 446,-168.5 563,-168.5 563,-185.5"/>
<text text-anchor="middle" x="504.5" y="-175.1" font-family="SourceSans" font-size="8.00">a60::constants::newline</text>
</a>
</g>
</g>
<!-- Node3&#45;&gt;Node4 -->
<g id="edge3" class="edge">
<title>Node3&#45;&gt;Node4</title>
<path fill="none" stroke="#63b8ff" d="M410.11,-177C418.35,-177 427.01,-177 435.6,-177"/>
<polygon fill="#63b8ff" stroke="#63b8ff" points="435.62,-180.5 445.62,-177 435.62,-173.5 435.62,-180.5"/>
</g>
<!-- Node6&#45;&gt;Node7 -->
<g id="edge7" class="edge">
<title>Node6&#45;&gt;Node7</title>
<path fill="none" stroke="#63b8ff" d="M409.71,-63.88C420.84,-65.44 432.76,-67.11 444.24,-68.71"/>
<polygon fill="#63b8ff" stroke="#63b8ff" points="443.81,-72.19 454.2,-70.1 444.78,-65.25 443.81,-72.19"/>
</g>
<!-- Node9 -->
<g id="node9" class="node">
<title>Node9</title>
<g id="a_node9"><a xlink:href="namespacea60_1_1metadata.html#acd47cfb00b07af853234227fdaa04cf9" target="_top" xlink:title="Convert a comma&#45;space&#45;separated list of strings to a vector of strings.">
<polygon fill="white" stroke="#666666" points="555.5,-26 453.5,-26 453.5,0 555.5,0 555.5,-26"/>
<text text-anchor="start" x="461.5" y="-15.6" font-family="SourceSans" font-size="8.00">a60::metadata::cssv</text>
<text text-anchor="middle" x="504.5" y="-6.6" font-family="SourceSans" font-size="8.00">_string_to_strings</text>
</a>
</g>
</g>
<!-- Node8&#45;&gt;Node9 -->
<g id="edge10" class="edge">
<title>Node8&#45;&gt;Node9</title>
<path fill="none" stroke="#63b8ff" d="M410.11,-13C420.86,-13 432.34,-13 443.44,-13"/>
<polygon fill="#63b8ff" stroke="#63b8ff" points="443.49,-16.5 453.49,-13 443.49,-9.5 443.49,-16.5"/>
</g>
<!-- Node10 -->
<g id="node10" class="node">
<title>Node10</title>
<g id="a_node10"><a xlink:href="namespacea60_1_1constants.html#a2fd5efb0c88809132a730787d05a080a" target="_top" xlink:title=" ">
<polygon fill="white" stroke="#666666" points="714,-21.5 599,-21.5 599,-4.5 714,-4.5 714,-21.5"/>
<text text-anchor="middle" x="656.5" y="-11.1" font-family="SourceSans" font-size="8.00">a60::constants::comma</text>
</a>
</g>
</g>
<!-- Node9&#45;&gt;Node10 -->
<g id="edge11" class="edge">
<title>Node9&#45;&gt;Node10</title>
<path fill="none" stroke="#63b8ff" d="M555.87,-13C566.42,-13 577.71,-13 588.76,-13"/>
<polygon fill="#63b8ff" stroke="#63b8ff" points="588.81,-16.5 598.81,-13 588.81,-9.5 588.81,-16.5"/>
</g>
<!-- Node11&#45;&gt;Node3 -->
<g id="edge13" class="edge">
<title>Node11&#45;&gt;Node3</title>
<path fill="none" stroke="#63b8ff" d="M257.74,-204.91C271.69,-201.05 287.11,-196.78 301.6,-192.76"/>
<polygon fill="#63b8ff" stroke="#63b8ff" points="302.76,-196.07 311.46,-190.03 300.89,-189.33 302.76,-196.07"/>
</g>
<!-- Node11&#45;&gt;Node5 -->
<g id="edge14" class="edge">
<title>Node11&#45;&gt;Node5</title>
<path fill="none" stroke="#63b8ff" d="M264.58,-218C315.74,-218 392.31,-218 444.9,-218"/>
<polygon fill="#63b8ff" stroke="#63b8ff" points="445.08,-221.5 455.08,-218 445.08,-214.5 445.08,-221.5"/>
</g>
<!-- Node12 -->
<g id="node12" class="node">
<title>Node12</title>
<g id="a_node12"><a xlink:href="namespacea60_1_1metadata.html#aeba42336cc4f30ed9ee705111d3e82a9" target="_top" xlink:title="Typographic defaults for text labels.">
<polygon fill="white" stroke="#666666" points="408.5,-326 310.5,-326 310.5,-300 408.5,-300 408.5,-326"/>
<text text-anchor="start" x="318.5" y="-315.6" font-family="SourceSans" font-size="8.00">a60::metadata::get</text>
<text text-anchor="middle" x="359.5" y="-306.6" font-family="SourceSans" font-size="8.00">_metadata_typo</text>
</a>
</g>
</g>
<!-- Node11&#45;&gt;Node12 -->
<g id="edge15" class="edge">
<title>Node11&#45;&gt;Node12</title>
<path fill="none" stroke="#63b8ff" d="M225.8,-231.01C244.56,-246.56 277.74,-272.77 309,-291 311.64,-292.54 314.4,-294.04 317.22,-295.49"/>
<polygon fill="#63b8ff" stroke="#63b8ff" points="315.78,-298.68 326.3,-299.92 318.85,-292.39 315.78,-298.68"/>
</g>
<!-- Node13 -->
<g id="node13" class="node">
<title>Node13</title>
<g id="a_node13"><a xlink:href="namespacea60.html#a4e8b0cabed112734147b499bf0cc9029" target="_top" xlink:title="Conversion of resolution_mode to string.">
<polygon fill="white" stroke="#666666" points="396.5,-263.5 322.5,-263.5 322.5,-246.5 396.5,-246.5 396.5,-263.5"/>
<text text-anchor="middle" x="359.5" y="-253.1" font-family="SourceSans" font-size="8.00">a60::to_string</text>
</a>
</g>
</g>
<!-- Node11&#45;&gt;Node13 -->
<g id="edge17" class="edge">
<title>Node11&#45;&gt;Node13</title>
<path fill="none" stroke="#63b8ff" d="M262.68,-231.04C279.63,-235.28 298.27,-239.94 314.56,-244.01"/>
<polygon fill="#63b8ff" stroke="#63b8ff" points="313.81,-247.44 324.36,-246.47 315.51,-240.64 313.81,-247.44"/>
</g>
<!-- Node12&#45;&gt;Node5 -->
<g id="edge16" class="edge">
<title>Node12&#45;&gt;Node5</title>
<path fill="none" stroke="#63b8ff" d="M393.03,-299.91C398.81,-297.2 404.68,-294.19 410,-291 436.03,-275.38 463.09,-253.54 481.36,-237.82"/>
<polygon fill="#63b8ff" stroke="#63b8ff" points="483.86,-240.29 489.1,-231.08 479.26,-235.01 483.86,-240.29"/>
</g>
<!-- Node13&#45;&gt;Node13 -->
<g id="edge18" class="edge">
<title>Node13&#45;&gt;Node13</title>
<path fill="none" stroke="#63b8ff" d="M338.04,-263.69C326.19,-272.17 333.34,-281.5 359.5,-281.5 376.67,-281.5 385.65,-277.48 386.44,-272.32"/>
<polygon fill="#63b8ff" stroke="#63b8ff" points="389.27,-270.25 380.96,-263.69 383.36,-274 389.27,-270.25"/>
</g>
</g>
</svg>
