<?xml version="1.0" encoding="UTF-8" standalone="no"?>
<!DOCTYPE svg PUBLIC "-//W3C//DTD SVG 1.1//EN"
 "http://www.w3.org/Graphics/SVG/1.1/DTD/svg11.dtd">
<!-- Generated by graphviz version 5.0.0 (0)
 -->
<!-- Title: a60::metadata::render_metadata_aggregate_namekeys Pages: 1 -->
<svg width="460pt" height="168pt"
 viewBox="0.00 0.00 460.00 167.50" xmlns="http://www.w3.org/2000/svg" xmlns:xlink="http://www.w3.org/1999/xlink">
<g id="graph0" class="graph" transform="scale(1 1) rotate(0) translate(4 163.5)">
<title>a60::metadata::render_metadata_aggregate_namekeys</title>
<!-- Node1 -->
<g id="node1" class="node">
<title>Node1</title>
<g id="a_node1"><a xlink:title="Aggregate subset shortened titles, aka name&#45;keys.">
<polygon fill="#999999" stroke="#666666" points="151,-119.5 0,-119.5 0,-93.5 151,-93.5 151,-119.5"/>
<text text-anchor="start" x="8" y="-109.1" font-family="SourceSans" font-size="8.00">a60::metadata::render</text>
<text text-anchor="middle" x="75.5" y="-100.1" font-family="SourceSans" font-size="8.00">_metadata_aggregate_namekeys</text>
</a>
</g>
</g>
<!-- Node2 -->
<g id="node2" class="node">
<title>Node2</title>
<g id="a_node2"><a xlink:href="namespacea60_1_1metadata.html#aeba42336cc4f30ed9ee705111d3e82a9" target="_top" xlink:title="Typographic defaults for text labels.">
<polygon fill="white" stroke="#666666" points="292,-159.5 194,-159.5 194,-133.5 292,-133.5 292,-159.5"/>
<text text-anchor="start" x="202" y="-149.1" font-family="SourceSans" font-size="8.00">a60::metadata::get</text>
<text text-anchor="middle" x="243" y="-140.1" font-family="SourceSans" font-size="8.00">_metadata_typo</text>
</a>
</g>
</g>
<!-- Node1&#45;&gt;Node2 -->
<g id="edge1" class="edge">
<title>Node1&#45;&gt;Node2</title>
<path fill="none" stroke="#63b8ff" d="M130.69,-119.6C147.71,-123.71 166.57,-128.27 183.86,-132.45"/>
<polygon fill="#63b8ff" stroke="#63b8ff" points="183.28,-135.91 193.82,-134.86 184.93,-129.11 183.28,-135.91"/>
</g>
<!-- Node4 -->
<g id="node4" class="node">
<title>Node4</title>
<g id="a_node4"><a xlink:href="namespacea60_1_1constants.html#a4eca9d522711df25806d6dd1ff38e904" target="_top" xlink:title=" ">
<polygon fill="white" stroke="#666666" points="298,-115 188,-115 188,-98 298,-98 298,-115"/>
<text text-anchor="middle" x="243" y="-104.6" font-family="SourceSans" font-size="8.00">a60::constants::space</text>
</a>
</g>
</g>
<!-- Node1&#45;&gt;Node4 -->
<g id="edge3" class="edge">
<title>Node1&#45;&gt;Node4</title>
<path fill="none" stroke="#63b8ff" d="M151.02,-106.5C159.9,-106.5 168.91,-106.5 177.63,-106.5"/>
<polygon fill="#63b8ff" stroke="#63b8ff" points="177.71,-110 187.71,-106.5 177.71,-103 177.71,-110"/>
</g>
<!-- Node5 -->
<g id="node5" class="node">
<title>Node5</title>
<g id="a_node5"><a xlink:href="namespacea60_1_1metadata.html#acbfa9532e873071c02842c466f735e86" target="_top" xlink:title="As above, but only enough of the input vector to make maxlen string. Argument is not const: modified ...">
<polygon fill="white" stroke="#666666" points="299,-79.5 187,-79.5 187,-53.5 299,-53.5 299,-79.5"/>
<text text-anchor="start" x="195" y="-69.1" font-family="SourceSans" font-size="8.00">a60::metadata::strings</text>
<text text-anchor="middle" x="243" y="-60.1" font-family="SourceSans" font-size="8.00">_to_cssv_string_len</text>
</a>
</g>
</g>
<!-- Node1&#45;&gt;Node5 -->
<g id="edge4" class="edge">
<title>Node1&#45;&gt;Node5</title>
<path fill="none" stroke="#63b8ff" d="M130.69,-93.4C145.77,-89.76 162.29,-85.76 177.88,-82"/>
<polygon fill="#63b8ff" stroke="#63b8ff" points="179.07,-85.31 187.97,-79.56 177.43,-78.51 179.07,-85.31"/>
</g>
<!-- Node3 -->
<g id="node3" class="node">
<title>Node3</title>
<g id="a_node3"><a xlink:href="namespacea60_1_1metadata.html#abcd6d192e6ed0f853c3c6cd9bcf13cad" target="_top" xlink:title=" ">
<polygon fill="white" stroke="#666666" points="442.5,-159.5 344.5,-159.5 344.5,-133.5 442.5,-133.5 442.5,-159.5"/>
<text text-anchor="start" x="352.5" y="-149.1" font-family="SourceSans" font-size="8.00">a60::metadata::get</text>
<text text-anchor="middle" x="393.5" y="-140.1" font-family="SourceSans" font-size="8.00">_metadata_style</text>
</a>
</g>
</g>
<!-- Node2&#45;&gt;Node3 -->
<g id="edge2" class="edge">
<title>Node2&#45;&gt;Node3</title>
<path fill="none" stroke="#63b8ff" d="M292.21,-146.5C305.51,-146.5 320.08,-146.5 333.89,-146.5"/>
<polygon fill="#63b8ff" stroke="#63b8ff" points="334.27,-150 344.27,-146.5 334.27,-143 334.27,-150"/>
</g>
<!-- Node6 -->
<g id="node6" class="node">
<title>Node6</title>
<g id="a_node6"><a xlink:href="namespacea60_1_1constants.html#ac27c77e4606552ae5f74a1c21dd9258e" target="_top" xlink:title=" ">
<polygon fill="white" stroke="#666666" points="452,-115 335,-115 335,-98 452,-98 452,-115"/>
<text text-anchor="middle" x="393.5" y="-104.6" font-family="SourceSans" font-size="8.00">a60::constants::newline</text>
</a>
</g>
</g>
<!-- Node5&#45;&gt;Node6 -->
<g id="edge5" class="edge">
<title>Node5&#45;&gt;Node6</title>
<path fill="none" stroke="#63b8ff" d="M292.62,-79.6C311.47,-84.67 332.82,-90.42 350.93,-95.3"/>
<polygon fill="#63b8ff" stroke="#63b8ff" points="350.05,-98.69 360.62,-97.91 351.87,-91.93 350.05,-98.69"/>
</g>
<!-- Node7 -->
<g id="node7" class="node">
<title>Node7</title>
<g id="a_node7"><a xlink:href="namespacea60_1_1metadata.html#adb36743be767a1f1a9947f5b6feff3a8" target="_top" xlink:title="Convert a vector of strings to a flattened and comma&#45;space&#45;separated list of strings.">
<polygon fill="white" stroke="#666666" points="449.5,-79.5 337.5,-79.5 337.5,-53.5 449.5,-53.5 449.5,-79.5"/>
<text text-anchor="start" x="345.5" y="-69.1" font-family="SourceSans" font-size="8.00">a60::metadata::strings</text>
<text text-anchor="middle" x="393.5" y="-60.1" font-family="SourceSans" font-size="8.00">_to_cssv_string</text>
</a>
</g>
</g>
<!-- Node5&#45;&gt;Node7 -->
<g id="edge6" class="edge">
<title>Node5&#45;&gt;Node7</title>
<path fill="none" stroke="#63b8ff" d="M299.3,-66.5C308.28,-66.5 317.67,-66.5 326.87,-66.5"/>
<polygon fill="#63b8ff" stroke="#63b8ff" points="327.16,-70 337.16,-66.5 327.16,-63 327.16,-70"/>
</g>
<!-- Node8 -->
<g id="node8" class="node">
<title>Node8</title>
<g id="a_node8"><a xlink:href="namespacea60.html#a4e8b0cabed112734147b499bf0cc9029" target="_top" xlink:title="Conversion of resolution_mode to string.">
<polygon fill="white" stroke="#666666" points="430.5,-17 356.5,-17 356.5,0 430.5,0 430.5,-17"/>
<text text-anchor="middle" x="393.5" y="-6.6" font-family="SourceSans" font-size="8.00">a60::to_string</text>
</a>
</g>
</g>
<!-- Node5&#45;&gt;Node8 -->
<g id="edge7" class="edge">
<title>Node5&#45;&gt;Node8</title>
<path fill="none" stroke="#63b8ff" d="M277.33,-53.48C302.28,-43.74 336.2,-30.49 360.76,-20.9"/>
<polygon fill="#63b8ff" stroke="#63b8ff" points="362.29,-24.06 370.33,-17.16 359.74,-17.54 362.29,-24.06"/>
</g>
<!-- Node8&#45;&gt;Node8 -->
<g id="edge8" class="edge">
<title>Node8&#45;&gt;Node8</title>
<path fill="none" stroke="#63b8ff" d="M371.15,-17.19C358.8,-25.67 366.25,-35 393.5,-35 411.81,-35 421.18,-30.79 421.61,-25.45"/>
<polygon fill="#63b8ff" stroke="#63b8ff" points="424.44,-23.39 415.85,-17.19 418.69,-27.39 424.44,-23.39"/>
</g>
</g>
</svg>
