<?xml version="1.0" encoding="UTF-8" standalone="no"?>
<!DOCTYPE svg PUBLIC "-//W3C//DTD SVG 1.1//EN"
 "http://www.w3.org/Graphics/SVG/1.1/DTD/svg11.dtd">
<!-- Generated by graphviz version 5.0.0 (0)
 -->
<!-- Title: a60::augment_carto_geo_specific Pages: 1 -->
<svg width="408pt" height="34pt"
 viewBox="0.00 0.00 408.00 34.00" xmlns="http://www.w3.org/2000/svg" xmlns:xlink="http://www.w3.org/1999/xlink">
<g id="graph0" class="graph" transform="scale(1 1) rotate(0) translate(4 30)">
<title>a60::augment_carto_geo_specific</title>
<!-- Node1 -->
<g id="node1" class="node">
<title>Node1</title>
<g id="a_node1"><a xlink:title="Base cartography with specific key points.">
<polygon fill="#999999" stroke="#666666" points="100,-26 0,-26 0,0 100,0 100,-26"/>
<text text-anchor="start" x="8" y="-15.6" font-family="SourceSans" font-size="8.00">a60::augment_carto</text>
<text text-anchor="middle" x="50" y="-6.6" font-family="SourceSans" font-size="8.00">_geo_specific</text>
</a>
</g>
</g>
<!-- Node2 -->
<g id="node2" class="node">
<title>Node2</title>
<g id="a_node2"><a xlink:href="namespacea60.html#a1bf91ba66297e089d99c49d6a376c0ad" target="_top" xlink:title="NEW STYLE First composite with map, black on white.">
<polygon fill="white" stroke="#666666" points="242,-21.5 136,-21.5 136,-4.5 242,-4.5 242,-21.5"/>
<text text-anchor="middle" x="189" y="-11.1" font-family="SourceSans" font-size="8.00">a60::make_map_base</text>
</a>
</g>
</g>
<!-- Node1&#45;&gt;Node2 -->
<g id="edge1" class="edge">
<title>Node1&#45;&gt;Node2</title>
<path fill="none" stroke="#63b8ff" d="M100.07,-13C108.26,-13 116.85,-13 125.32,-13"/>
<polygon fill="#63b8ff" stroke="#63b8ff" points="125.56,-16.5 135.56,-13 125.56,-9.5 125.56,-16.5"/>
</g>
<!-- Node3 -->
<g id="node3" class="node">
<title>Node3</title>
<g id="a_node3"><a xlink:href="namespacea60.html#a63203aef78ad674129103340323d3b63" target="_top" xlink:title="First layer.">
<polygon fill="white" stroke="#666666" points="400,-21.5 278,-21.5 278,-4.5 400,-4.5 400,-21.5"/>
<text text-anchor="middle" x="339" y="-11.1" font-family="SourceSans" font-size="8.00">a60::place_map_in_frame</text>
</a>
</g>
</g>
<!-- Node2&#45;&gt;Node3 -->
<g id="edge2" class="edge">
<title>Node2&#45;&gt;Node3</title>
<path fill="none" stroke="#63b8ff" d="M242.18,-13C250.49,-13 259.21,-13 267.86,-13"/>
<polygon fill="#63b8ff" stroke="#63b8ff" points="267.95,-16.5 277.95,-13 267.95,-9.5 267.95,-16.5"/>
</g>
</g>
</svg>
