<?xml version="1.0" encoding="UTF-8" standalone="no"?>
<!DOCTYPE svg PUBLIC "-//W3C//DTD SVG 1.1//EN"
 "http://www.w3.org/Graphics/SVG/1.1/DTD/svg11.dtd">
<!-- Generated by graphviz version 5.0.0 (0)
 -->
<!-- Title: a60::augment_carto_internet_exchanges Pages: 1 -->
<!--zoomable 119 -->
<svg id="main" version="1.1" xmlns="http://www.w3.org/2000/svg" xmlns:xlink="http://www.w3.org/1999/xlink" xml:space="preserve" onload="init(evt)">
<style type="text/css"><![CDATA[
.edge:hover path { stroke: red; }
.edge:hover polygon { stroke: red; fill: red; }
]]></style>
<script type="text/javascript"><![CDATA[
var edges = document.getElementsByTagName('g');
if (edges && edges.length) {
  for (var i=0;i<edges.length;i++) {
    if (edges[i].id.substr(0,4)=='edge') {
      edges[i].setAttribute('class','edge');
    }
  }
}
]]></script>
        <defs>
                <circle id="rim" cx="0" cy="0" r="7"/>
                <circle id="rim2" cx="0" cy="0" r="3.5"/>
                <g id="zoomPlus">
                        <use xlink:href="#rim" fill="#404040">
                                <set attributeName="fill" to="#808080" begin="zoomplus.mouseover" end="zoomplus.mouseout"/>
                        </use>
                        <path d="M-4,0h8M0,-4v8" fill="none" stroke="white" stroke-width="1.5" pointer-events="none"/>
                </g>
                <g id="zoomMin">
                        <use xlink:href="#rim" fill="#404040">
                                <set attributeName="fill" to="#808080" begin="zoomminus.mouseover" end="zoomminus.mouseout"/>
                        </use>
                        <path d="M-4,0h8" fill="none" stroke="white" stroke-width="1.5" pointer-events="none"/>
                </g>
                <g id="dirArrow">
                        <path fill="none" stroke="white" stroke-width="1.5" d="M0,-3.0v7 M-2.5,-0.5L0,-3.0L2.5,-0.5"/>
                </g>
               <g id="resetDef">
                       <use xlink:href="#rim2" fill="#404040">
                               <set attributeName="fill" to="#808080" begin="reset.mouseover" end="reset.mouseout"/>
                       </use>
               </g>
        </defs>

<script type="text/javascript">
var viewWidth = 716;
var viewHeight = 119;
var sectionId = 'dynsection-10';
</script>
<script xlink:href="svgpan.js"/>
<svg id="graph" class="graph">
<g id="viewport">
<title>a60::augment_carto_internet_exchanges</title>
<!-- Node1 -->
<g id="node1" class="node">
<title>Node1</title>
<g id="a_node1"><a xlink:title="Augment Internet Exchanges.">
<polygon fill="#999999" stroke="#666666" points="101,-47 0,-47 0,-21 101,-21 101,-47"/>
<text text-anchor="start" x="8" y="-36.6" font-family="SourceSans" font-size="8.00">a60::augment_carto</text>
<text text-anchor="middle" x="50.5" y="-27.6" font-family="SourceSans" font-size="8.00">_internet_exchanges</text>
</a>
</g>
</g>
<!-- Node2 -->
<g id="node2" class="node">
<title>Node2</title>
<g id="a_node2"><a xlink:href="namespacea60.html#a7151c0e66650e0a838f96f1bc5cf9d64" target="_top" xlink:title="Augment Internet Exchanges object version.">
<polygon fill="white" stroke="#666666" points="240.5,-67 139.5,-67 139.5,-41 240.5,-41 240.5,-67"/>
<text text-anchor="start" x="147.5" y="-56.6" font-family="SourceSans" font-size="8.00">a60::augment_carto</text>
<text text-anchor="middle" x="190" y="-47.6" font-family="SourceSans" font-size="8.00">_internet_exchanges</text>
</a>
</g>
</g>
<!-- Node1&#45;&gt;Node2 -->
<g id="edge1" class="edge">
<title>Node1&#45;&gt;Node2</title>
<path fill="none" stroke="#63b8ff" d="M101.14,-41.22C110.29,-42.55 119.93,-43.95 129.35,-45.32"/>
<polygon fill="#63b8ff" stroke="#63b8ff" points="129.03,-48.81 139.43,-46.79 130.04,-41.89 129.03,-48.81"/>
</g>
<!-- Node10 -->
<g id="node10" class="node">
<title>Node10</title>
<g id="a_node10"><a xlink:href="namespacea60.html#a1bf91ba66297e089d99c49d6a376c0ad" target="_top" xlink:title="NEW STYLE First composite with map, black on white.">
<polygon fill="white" stroke="#666666" points="243,-22.5 137,-22.5 137,-5.5 243,-5.5 243,-22.5"/>
<text text-anchor="middle" x="190" y="-12.1" font-family="SourceSans" font-size="8.00">a60::make_map_base</text>
</a>
</g>
</g>
<!-- Node1&#45;&gt;Node10 -->
<g id="edge10" class="edge">
<title>Node1&#45;&gt;Node10</title>
<path fill="none" stroke="#63b8ff" d="M101.14,-26.78C109.43,-25.57 118.13,-24.31 126.69,-23.06"/>
<polygon fill="#63b8ff" stroke="#63b8ff" points="127.26,-26.52 136.65,-21.61 126.25,-19.59 127.26,-26.52"/>
</g>
<!-- Node3 -->
<g id="node3" class="node">
<title>Node3</title>
<g id="a_node3"><a xlink:href="namespacea60_1_1io.html#ac95e5271a27a23bc2336d84b3f821fa2" target="_top" xlink:title="Constant filesystem and run&#45;time resources.">
<polygon fill="white" stroke="#666666" points="392,-111 288,-111 288,-85 392,-85 392,-111"/>
<text text-anchor="start" x="296" y="-100.6" font-family="SourceSans" font-size="8.00">a60::io::get_run_time</text>
<text text-anchor="middle" x="340" y="-91.6" font-family="SourceSans" font-size="8.00">_resources</text>
</a>
</g>
</g>
<!-- Node2&#45;&gt;Node3 -->
<g id="edge2" class="edge">
<title>Node2&#45;&gt;Node3</title>
<path fill="none" stroke="#63b8ff" d="M235,-67.08C250.74,-71.76 268.65,-77.09 285.13,-81.98"/>
<polygon fill="#63b8ff" stroke="#63b8ff" points="284.58,-85.47 295.17,-84.97 286.58,-78.76 284.58,-85.47"/>
</g>
<!-- Node4 -->
<g id="node4" class="node">
<title>Node4</title>
<g id="a_node4"><a xlink:href="namespacea60.html#a5c255db0f946c551b27e986732315040" target="_top" xlink:title="Create x or cross marks at internet exchanges (ix)">
<polygon fill="white" stroke="#666666" points="399.5,-67 280.5,-67 280.5,-41 399.5,-41 399.5,-67"/>
<text text-anchor="start" x="288.5" y="-56.6" font-family="SourceSans" font-size="8.00">a60::internet_exchanges</text>
<text text-anchor="middle" x="340" y="-47.6" font-family="SourceSans" font-size="8.00">_geojson</text>
</a>
</g>
</g>
<!-- Node2&#45;&gt;Node4 -->
<g id="edge3" class="edge">
<title>Node2&#45;&gt;Node4</title>
<path fill="none" stroke="#63b8ff" d="M240.69,-54C250.17,-54 260.24,-54 270.18,-54"/>
<polygon fill="#63b8ff" stroke="#63b8ff" points="270.47,-57.5 280.47,-54 270.47,-50.5 270.47,-57.5"/>
</g>
<!-- Node5 -->
<g id="node5" class="node">
<title>Node5</title>
<g id="a_node5"><a xlink:href="namespacea60.html#af45982273a7a2e61b6aaa436081238c0" target="_top" xlink:title="Load JSON file to in&#45;memory DOM.">
<polygon fill="white" stroke="#666666" points="548,-108 444,-108 444,-82 548,-82 548,-108"/>
<text text-anchor="start" x="452" y="-97.6" font-family="SourceSans" font-size="8.00">a60::deserialize_json</text>
<text text-anchor="middle" x="496" y="-88.6" font-family="SourceSans" font-size="8.00">_to_dom_object</text>
</a>
</g>
</g>
<!-- Node4&#45;&gt;Node5 -->
<g id="edge4" class="edge">
<title>Node4&#45;&gt;Node5</title>
<path fill="none" stroke="#63b8ff" d="M390.15,-67.09C404.81,-70.99 421.02,-75.3 436.23,-79.35"/>
<polygon fill="#63b8ff" stroke="#63b8ff" points="435.49,-82.78 446.05,-81.97 437.29,-76.01 435.49,-82.78"/>
</g>
<!-- Node7 -->
<g id="node7" class="node">
<title>Node7</title>
<g id="a_node7"><a xlink:href="namespacea60_1_1constants.html#ac27c77e4606552ae5f74a1c21dd9258e" target="_top" xlink:title=" ">
<polygon fill="white" stroke="#666666" points="708,-62.5 591,-62.5 591,-45.5 708,-45.5 708,-62.5"/>
<text text-anchor="middle" x="649.5" y="-52.1" font-family="SourceSans" font-size="8.00">a60::constants::newline</text>
</a>
</g>
</g>
<!-- Node4&#45;&gt;Node7 -->
<g id="edge6" class="edge">
<title>Node4&#45;&gt;Node7</title>
<path fill="none" stroke="#63b8ff" d="M399.56,-54C451.21,-54 526.49,-54 580.72,-54"/>
<polygon fill="#63b8ff" stroke="#63b8ff" points="580.94,-57.5 590.94,-54 580.94,-50.5 580.94,-57.5"/>
</g>
<!-- Node8 -->
<g id="node8" class="node">
<title>Node8</title>
<g id="a_node8"><a xlink:href="namespacea60.html#a3fdf876ab1d06c5cfd12a9018c231dd8" target="_top" xlink:title=" ">
<polygon fill="white" stroke="#666666" points="555,-26 437,-26 437,0 555,0 555,-26"/>
<text text-anchor="start" x="445" y="-15.6" font-family="SourceSans" font-size="8.00">a60::point_from_geojson</text>
<text text-anchor="middle" x="496" y="-6.6" font-family="SourceSans" font-size="8.00">_coordinate</text>
</a>
</g>
</g>
<!-- Node4&#45;&gt;Node8 -->
<g id="edge7" class="edge">
<title>Node4&#45;&gt;Node8</title>
<path fill="none" stroke="#63b8ff" d="M390.15,-40.91C404.81,-37.01 421.02,-32.7 436.23,-28.65"/>
<polygon fill="#63b8ff" stroke="#63b8ff" points="437.29,-31.99 446.05,-26.03 435.49,-25.22 437.29,-31.99"/>
</g>
<!-- Node6 -->
<g id="node6" class="node">
<title>Node6</title>
<g id="a_node6"><a xlink:href="namespacea60.html#a538d43bb9bfa488a54cea929736dbe2d" target="_top" xlink:title="Deserialize input file.">
<polygon fill="white" stroke="#666666" points="701.5,-108 597.5,-108 597.5,-82 701.5,-82 701.5,-108"/>
<text text-anchor="start" x="605.5" y="-97.6" font-family="SourceSans" font-size="8.00">a60::deserialize_json</text>
<text text-anchor="middle" x="649.5" y="-88.6" font-family="SourceSans" font-size="8.00">_to_dom</text>
</a>
</g>
</g>
<!-- Node5&#45;&gt;Node6 -->
<g id="edge5" class="edge">
<title>Node5&#45;&gt;Node6</title>
<path fill="none" stroke="#63b8ff" d="M548.29,-95C560.75,-95 574.21,-95 587.09,-95"/>
<polygon fill="#63b8ff" stroke="#63b8ff" points="587.26,-98.5 597.26,-95 587.26,-91.5 587.26,-98.5"/>
</g>
<!-- Node8&#45;&gt;Node7 -->
<g id="edge8" class="edge">
<title>Node8&#45;&gt;Node7</title>
<path fill="none" stroke="#63b8ff" d="M545.35,-26.09C565.17,-31.45 587.88,-37.6 606.94,-42.75"/>
<polygon fill="#63b8ff" stroke="#63b8ff" points="606.26,-46.19 616.82,-45.43 608.08,-39.44 606.26,-46.19"/>
</g>
<!-- Node9 -->
<g id="node9" class="node">
<title>Node9</title>
<g id="a_node9"><a xlink:href="structa60_1_1carto_1_1cartography.html#a57e14cabb4993189316e369a27752a73" target="_top" xlink:title=" ">
<polygon fill="white" stroke="#666666" points="707,-26 592,-26 592,0 707,0 707,-26"/>
<text text-anchor="start" x="600" y="-15.6" font-family="SourceSans" font-size="8.00">a60::carto::cartography</text>
<text text-anchor="middle" x="649.5" y="-6.6" font-family="SourceSans" font-size="8.00">::to_point_2d</text>
</a>
</g>
</g>
<!-- Node8&#45;&gt;Node9 -->
<g id="edge9" class="edge">
<title>Node8&#45;&gt;Node9</title>
<path fill="none" stroke="#63b8ff" d="M555.14,-13C563.78,-13 572.74,-13 581.54,-13"/>
<polygon fill="#63b8ff" stroke="#63b8ff" points="581.76,-16.5 591.76,-13 581.76,-9.5 581.76,-16.5"/>
</g>
<!-- Node11 -->
<g id="node11" class="node">
<title>Node11</title>
<g id="a_node11"><a xlink:href="namespacea60.html#a63203aef78ad674129103340323d3b63" target="_top" xlink:title="First layer.">
<polygon fill="white" stroke="#666666" points="401,-22.5 279,-22.5 279,-5.5 401,-5.5 401,-22.5"/>
<text text-anchor="middle" x="340" y="-12.1" font-family="SourceSans" font-size="8.00">a60::place_map_in_frame</text>
</a>
</g>
</g>
<!-- Node10&#45;&gt;Node11 -->
<g id="edge11" class="edge">
<title>Node10&#45;&gt;Node11</title>
<path fill="none" stroke="#63b8ff" d="M243.18,-14C251.49,-14 260.21,-14 268.86,-14"/>
<polygon fill="#63b8ff" stroke="#63b8ff" points="268.95,-17.5 278.95,-14 268.95,-10.5 268.95,-17.5"/>
</g>
</g>
</svg>
        <g id="navigator" transform="translate(0 0)" fill="#404254">
                <rect fill="#f2f5e9" fill-opacity="0.5" stroke="#606060" stroke-width=".5" x="0" y="0" width="60" height="60"/>
                <use id="zoomplus" xlink:href="#zoomPlus" x="17" y="9" onmousedown="handleZoom(evt,'in')"/>
                <use id="zoomminus" xlink:href="#zoomMin" x="42" y="9" onmousedown="handleZoom(evt,'out')"/>
                <use id="reset" xlink:href="#resetDef" x="30" y="36" onmousedown="handleReset()"/>
                <g id="arrowUp" xlink:href="#dirArrow" transform="translate(30 24)" onmousedown="handlePan(0,-1)">
                  <use xlink:href="#rim" fill="#404040">
                        <set attributeName="fill" to="#808080" begin="arrowUp.mouseover" end="arrowUp.mouseout"/>
                  </use>
                  <path fill="none" stroke="white" stroke-width="1.5" d="M0,-3.0v7 M-2.5,-0.5L0,-3.0L2.5,-0.5"/>
                </g>
                <g id="arrowRight" xlink:href="#dirArrow" transform="rotate(90) translate(36 -43)" onmousedown="handlePan(1,0)">
                  <use xlink:href="#rim" fill="#404040">
                        <set attributeName="fill" to="#808080" begin="arrowRight.mouseover" end="arrowRight.mouseout"/>
                  </use>
                  <path fill="none" stroke="white" stroke-width="1.5" d="M0,-3.0v7 M-2.5,-0.5L0,-3.0L2.5,-0.5"/>
                </g>
                <g id="arrowDown" xlink:href="#dirArrow" transform="rotate(180) translate(-30 -48)" onmousedown="handlePan(0,1)">
                  <use xlink:href="#rim" fill="#404040">
                        <set attributeName="fill" to="#808080" begin="arrowDown.mouseover" end="arrowDown.mouseout"/>
                  </use>
                  <path fill="none" stroke="white" stroke-width="1.5" d="M0,-3.0v7 M-2.5,-0.5L0,-3.0L2.5,-0.5"/>
                </g>
                <g id="arrowLeft" xlink:href="#dirArrow" transform="rotate(270) translate(-36 17)" onmousedown="handlePan(-1,0)">
                  <use xlink:href="#rim" fill="#404040">
                        <set attributeName="fill" to="#808080" begin="arrowLeft.mouseover" end="arrowLeft.mouseout"/>
                  </use>
                  <path fill="none" stroke="white" stroke-width="1.5" d="M0,-3.0v7 M-2.5,-0.5L0,-3.0L2.5,-0.5"/>
                </g>
        </g>
        <svg viewBox="0 0 15 15" width="100%" height="30px" preserveAspectRatio="xMaxYMin meet">
         <g id="arrow_out" transform="scale(0.3 0.3)">
          <a xlink:href="namespacea60_a1d31531ee1fb7a690e989f07bbe326cf_cgraph_org.svg" target="_base">
           <rect id="button" ry="5" rx="5" y="6" x="6" height="38" width="38"
                fill="#f2f5e9" fill-opacity="0.5" stroke="#606060" stroke-width="1.0"/>
           <path id="arrow"
             d="M 11.500037,31.436501 C 11.940474,20.09759 22.043105,11.32322 32.158766,21.979434 L 37.068811,17.246167 C 37.068811,17.246167 37.088388,32 37.088388,32 L 22.160133,31.978069 C 22.160133,31.978069 26.997745,27.140456 26.997745,27.140456 C 18.528582,18.264221 13.291696,25.230495 11.500037,31.436501 z"
             style="fill:#404040;"/>
          </a>
         </g>
        </svg>
</svg>
