<?xml version="1.0" encoding="UTF-8" standalone="no"?>
<!DOCTYPE svg PUBLIC "-//W3C//DTD SVG 1.1//EN"
 "http://www.w3.org/Graphics/SVG/1.1/DTD/svg11.dtd">
<!-- Generated by graphviz version 5.0.0 (0)
 -->
<!-- Title: a60::augment_weighed_topn Pages: 1 -->
<!--zoomable 472 -->
<svg id="main" version="1.1" xmlns="http://www.w3.org/2000/svg" xmlns:xlink="http://www.w3.org/1999/xlink" xml:space="preserve" onload="init(evt)">
<style type="text/css"><![CDATA[
.edge:hover path { stroke: red; }
.edge:hover polygon { stroke: red; fill: red; }
]]></style>
<script type="text/javascript"><![CDATA[
var edges = document.getElementsByTagName('g');
if (edges && edges.length) {
  for (var i=0;i<edges.length;i++) {
    if (edges[i].id.substr(0,4)=='edge') {
      edges[i].setAttribute('class','edge');
    }
  }
}
]]></script>
        <defs>
                <circle id="rim" cx="0" cy="0" r="7"/>
                <circle id="rim2" cx="0" cy="0" r="3.5"/>
                <g id="zoomPlus">
                        <use xlink:href="#rim" fill="#404040">
                                <set attributeName="fill" to="#808080" begin="zoomplus.mouseover" end="zoomplus.mouseout"/>
                        </use>
                        <path d="M-4,0h8M0,-4v8" fill="none" stroke="white" stroke-width="1.5" pointer-events="none"/>
                </g>
                <g id="zoomMin">
                        <use xlink:href="#rim" fill="#404040">
                                <set attributeName="fill" to="#808080" begin="zoomminus.mouseover" end="zoomminus.mouseout"/>
                        </use>
                        <path d="M-4,0h8" fill="none" stroke="white" stroke-width="1.5" pointer-events="none"/>
                </g>
                <g id="dirArrow">
                        <path fill="none" stroke="white" stroke-width="1.5" d="M0,-3.0v7 M-2.5,-0.5L0,-3.0L2.5,-0.5"/>
                </g>
               <g id="resetDef">
                       <use xlink:href="#rim2" fill="#404040">
                               <set attributeName="fill" to="#808080" begin="reset.mouseover" end="reset.mouseout"/>
                       </use>
               </g>
        </defs>

<script type="text/javascript">
var viewWidth = 971;
var viewHeight = 472;
var sectionId = 'dynsection-86';
</script>
<script xlink:href="svgpan.js"/>
<svg id="graph" class="graph">
<g id="viewport">
<title>a60::augment_weighed_topn</title>
<!-- Node1 -->
<g id="node1" class="node">
<title>Node1</title>
<g id="a_node1"><a xlink:title=" ">
<polygon fill="#999999" stroke="#666666" points="137,-195 0,-195 0,-178 137,-178 137,-195"/>
<text text-anchor="middle" x="68.5" y="-184.6" font-family="SourceSans" font-size="8.00">a60::augment_weighed_topn</text>
</a>
</g>
</g>
<!-- Node2 -->
<g id="node2" class="node">
<title>Node2</title>
<g id="a_node2"><a xlink:href="namespacea60.html#afd267ab94266951ec08784e178349e3c" target="_top" xlink:title="Common parts of weighed collections.">
<polygon fill="white" stroke="#666666" points="285.5,-360 186.5,-360 186.5,-343 285.5,-343 285.5,-360"/>
<text text-anchor="middle" x="236" y="-349.6" font-family="SourceSans" font-size="8.00">a60::augment_base</text>
</a>
</g>
</g>
<!-- Node1&#45;&gt;Node2 -->
<g id="edge1" class="edge">
<title>Node1&#45;&gt;Node2</title>
<path fill="none" stroke="#63b8ff" d="M78.4,-195.37C105.13,-222.02 184.96,-301.61 219.16,-335.71"/>
<polygon fill="#63b8ff" stroke="#63b8ff" points="216.9,-338.4 226.46,-342.98 221.85,-333.44 216.9,-338.4"/>
</g>
<!-- Node10 -->
<g id="node10" class="node">
<title>Node10</title>
<g id="a_node10"><a xlink:href="namespacea60.html#a4e8b0cabed112734147b499bf0cc9029" target="_top" xlink:title="Conversion of resolution_mode to string.">
<polygon fill="white" stroke="#666666" points="617.5,-255 543.5,-255 543.5,-238 617.5,-238 617.5,-255"/>
<text text-anchor="middle" x="580.5" y="-244.6" font-family="SourceSans" font-size="8.00">a60::to_string</text>
</a>
</g>
</g>
<!-- Node1&#45;&gt;Node10 -->
<g id="edge37" class="edge">
<title>Node1&#45;&gt;Node10</title>
<path fill="none" stroke="#63b8ff" d="M106.76,-195.01C126.4,-199.34 150.94,-204.53 173,-208.5 244.63,-221.41 262.59,-225.08 335,-232.5 403.91,-239.56 484.13,-243.31 533.36,-245.09"/>
<polygon fill="#63b8ff" stroke="#63b8ff" points="533.26,-248.59 543.38,-245.45 533.51,-241.6 533.26,-248.59"/>
</g>
<!-- Node14 -->
<g id="node14" class="node">
<title>Node14</title>
<g id="a_node14"><a xlink:href="namespacea60.html#a317ff5e1ce4d720bbf278c2ab6b4cfff" target="_top" xlink:title=" ">
<polygon fill="white" stroke="#666666" points="295.5,-199.5 176.5,-199.5 176.5,-173.5 295.5,-173.5 295.5,-199.5"/>
<text text-anchor="start" x="184.5" y="-189.1" font-family="SourceSans" font-size="8.00">a60::augment_collection</text>
<text text-anchor="middle" x="236" y="-180.1" font-family="SourceSans" font-size="8.00">_titles_6</text>
</a>
</g>
</g>
<!-- Node1&#45;&gt;Node14 -->
<g id="edge19" class="edge">
<title>Node1&#45;&gt;Node14</title>
<path fill="none" stroke="#63b8ff" d="M137.29,-186.5C146.8,-186.5 156.58,-186.5 166.1,-186.5"/>
<polygon fill="#63b8ff" stroke="#63b8ff" points="166.32,-190 176.32,-186.5 166.32,-183 166.32,-190"/>
</g>
<!-- Node15 -->
<g id="node15" class="node">
<title>Node15</title>
<g id="a_node15"><a xlink:href="namespacea60_1_1carto.html#af59ef7858ef576e7f17b781f38436f28" target="_top" xlink:title=" ">
<polygon fill="white" stroke="#666666" points="470,-152 348,-152 348,-135 470,-135 470,-152"/>
<text text-anchor="middle" x="409" y="-141.6" font-family="SourceSans" font-size="8.00">a60::carto::frame_margin</text>
</a>
</g>
</g>
<!-- Node1&#45;&gt;Node15 -->
<g id="edge23" class="edge">
<title>Node1&#45;&gt;Node15</title>
<path fill="none" stroke="#63b8ff" d="M104.76,-177.91C124.68,-173.33 150.11,-167.94 173,-164.5 228.1,-156.21 290.99,-150.8 337.83,-147.55"/>
<polygon fill="#63b8ff" stroke="#63b8ff" points="338.14,-151.04 347.88,-146.87 337.66,-144.06 338.14,-151.04"/>
</g>
<!-- Node17 -->
<g id="node17" class="node">
<title>Node17</title>
<g id="a_node17"><a xlink:href="namespacea60.html#a1bd69f10e52bc1f8569771c685e087c6" target="_top" xlink:title=" ">
<polygon fill="white" stroke="#666666" points="299,-117 173,-117 173,-100 299,-100 299,-117"/>
<text text-anchor="middle" x="236" y="-106.6" font-family="SourceSans" font-size="8.00">a60::swpeers_to_text_data</text>
</a>
</g>
</g>
<!-- Node1&#45;&gt;Node17 -->
<g id="edge24" class="edge">
<title>Node1&#45;&gt;Node17</title>
<path fill="none" stroke="#63b8ff" d="M84.27,-177.84C104.08,-166.43 140.51,-146.08 173,-131.5 181.69,-127.6 191.26,-123.81 200.23,-120.47"/>
<polygon fill="#63b8ff" stroke="#63b8ff" points="201.46,-123.75 209.66,-117.04 199.06,-117.17 201.46,-123.75"/>
</g>
<!-- Node3 -->
<g id="node3" class="node">
<title>Node3</title>
<g id="a_node3"><a xlink:href="namespacea60.html#a578d5079a62c97b1fb3a1693a82d7430" target="_top" xlink:title="Base name for output for non&#45;map, data/info.">
<polygon fill="white" stroke="#666666" points="482,-452 336,-452 336,-435 482,-435 482,-452"/>
<text text-anchor="middle" x="409" y="-441.6" font-family="SourceSans" font-size="8.00">a60::augment_base_info_name</text>
</a>
</g>
</g>
<!-- Node2&#45;&gt;Node3 -->
<g id="edge2" class="edge">
<title>Node2&#45;&gt;Node3</title>
<path fill="none" stroke="#63b8ff" d="M246.92,-360.08C263.91,-374.38 300.12,-403.25 335,-420.5 343.93,-424.92 353.89,-428.72 363.51,-431.89"/>
<polygon fill="#63b8ff" stroke="#63b8ff" points="362.76,-435.32 373.35,-434.96 364.85,-428.64 362.76,-435.32"/>
</g>
<!-- Node4 -->
<g id="node4" class="node">
<title>Node4</title>
<g id="a_node4"><a xlink:href="structa60_1_1collection.html#a80993af9aec8238db8e44da1e9a3c994" target="_top" xlink:title=" ">
<polygon fill="white" stroke="#666666" points="632,-430.5 529,-430.5 529,-404.5 632,-404.5 632,-430.5"/>
<text text-anchor="start" x="537" y="-420.1" font-family="SourceSans" font-size="8.00">a60::collection::slice</text>
<text text-anchor="middle" x="580.5" y="-411.1" font-family="SourceSans" font-size="8.00">_name_mangled</text>
</a>
</g>
</g>
<!-- Node2&#45;&gt;Node4 -->
<g id="edge18" class="edge">
<title>Node2&#45;&gt;Node4</title>
<path fill="none" stroke="#63b8ff" d="M256.12,-360.02C275.58,-368.33 306.81,-380.69 335,-387.5 396.64,-402.39 468.91,-410.1 518.81,-413.95"/>
<polygon fill="#63b8ff" stroke="#63b8ff" points="518.56,-417.44 528.79,-414.69 519.08,-410.46 518.56,-417.44"/>
</g>
<!-- Node9 -->
<g id="node9" class="node">
<title>Node9</title>
<g id="a_node9"><a xlink:href="namespacea60.html#af7680b43cbe9dfe398fb13de46e09895" target="_top" xlink:title="Base name for output with maps.">
<polygon fill="white" stroke="#666666" points="483,-378 335,-378 335,-361 483,-361 483,-378"/>
<text text-anchor="middle" x="409" y="-367.6" font-family="SourceSans" font-size="8.00">a60::augment_base_map_name</text>
</a>
</g>
</g>
<!-- Node2&#45;&gt;Node9 -->
<g id="edge8" class="edge">
<title>Node2&#45;&gt;Node9</title>
<path fill="none" stroke="#63b8ff" d="M285.54,-356.61C297.74,-357.89 311.18,-359.31 324.55,-360.72"/>
<polygon fill="#63b8ff" stroke="#63b8ff" points="324.43,-364.22 334.74,-361.79 325.16,-357.26 324.43,-364.22"/>
</g>
<!-- Node11 -->
<g id="node11" class="node">
<title>Node11</title>
<g id="a_node11"><a xlink:href="namespacea60.html#a1bf91ba66297e089d99c49d6a376c0ad" target="_top" xlink:title="NEW STYLE First composite with map, black on white.">
<polygon fill="white" stroke="#666666" points="462,-343 356,-343 356,-326 462,-326 462,-343"/>
<text text-anchor="middle" x="409" y="-332.6" font-family="SourceSans" font-size="8.00">a60::make_map_base</text>
</a>
</g>
</g>
<!-- Node2&#45;&gt;Node11 -->
<g id="edge14" class="edge">
<title>Node2&#45;&gt;Node11</title>
<path fill="none" stroke="#63b8ff" d="M285.54,-346.67C304.21,-344.82 325.79,-342.67 345.58,-340.71"/>
<polygon fill="#63b8ff" stroke="#63b8ff" points="346.14,-344.17 355.74,-339.7 345.45,-337.2 346.14,-344.17"/>
</g>
<!-- Node13 -->
<g id="node13" class="node">
<title>Node13</title>
<g id="a_node13"><a xlink:href="namespacea60.html#af951ad59a8649d55d5075079447bf0e7" target="_top" xlink:title="First composite with map, white on black.">
<polygon fill="white" stroke="#666666" points="479,-308 339,-308 339,-291 479,-291 479,-308"/>
<text text-anchor="middle" x="409" y="-297.6" font-family="SourceSans" font-size="8.00">a60::make_map_inverse_base</text>
</a>
</g>
</g>
<!-- Node2&#45;&gt;Node13 -->
<g id="edge16" class="edge">
<title>Node2&#45;&gt;Node13</title>
<path fill="none" stroke="#63b8ff" d="M259.78,-342.93C279.52,-335.66 308.93,-325.22 335,-317.5 343.19,-315.08 351.95,-312.72 360.47,-310.55"/>
<polygon fill="#63b8ff" stroke="#63b8ff" points="361.45,-313.91 370.31,-308.09 359.76,-307.12 361.45,-313.91"/>
</g>
<!-- Node3&#45;&gt;Node4 -->
<g id="edge3" class="edge">
<title>Node3&#45;&gt;Node4</title>
<path fill="none" stroke="#63b8ff" d="M465.5,-434.99C482.53,-432.37 501.36,-429.49 518.72,-426.82"/>
<polygon fill="#63b8ff" stroke="#63b8ff" points="519.39,-430.26 528.75,-425.28 518.33,-423.34 519.39,-430.26"/>
</g>
<!-- Node5 -->
<g id="node5" class="node">
<title>Node5</title>
<g id="a_node5"><a xlink:href="structa60_1_1collection.html#a25b35cf4ac39da89d868fe2cf41b5acd" target="_top" xlink:title=" ">
<polygon fill="white" stroke="#666666" points="808,-464 678,-464 678,-447 808,-447 808,-464"/>
<text text-anchor="middle" x="743" y="-453.6" font-family="SourceSans" font-size="8.00">a60::collection::slice_name</text>
</a>
</g>
</g>
<!-- Node4&#45;&gt;Node5 -->
<g id="edge4" class="edge">
<title>Node4&#45;&gt;Node5</title>
<path fill="none" stroke="#63b8ff" d="M632.28,-429.52C652.71,-434.36 676.1,-439.9 696.01,-444.61"/>
<polygon fill="#63b8ff" stroke="#63b8ff" points="695.24,-448.03 705.78,-446.92 696.86,-441.21 695.24,-448.03"/>
</g>
<!-- Node6 -->
<g id="node6" class="node">
<title>Node6</title>
<g id="a_node6"><a xlink:href="namespacea60.html#ac7eddb2e330d8983ddc852edde5335c5" target="_top" xlink:title=" ">
<polygon fill="white" stroke="#666666" points="963,-345 844,-345 844,-328 963,-328 963,-345"/>
<text text-anchor="middle" x="903.5" y="-334.6" font-family="SourceSans" font-size="8.00">a60::to_lowercase_string</text>
</a>
</g>
</g>
<!-- Node4&#45;&gt;Node6 -->
<g id="edge5" class="edge">
<title>Node4&#45;&gt;Node6</title>
<path fill="none" stroke="#63b8ff" d="M632.39,-423.68C680.19,-427.2 752.47,-426.48 808,-399.5 829.22,-389.19 824.63,-373.96 844,-360.5 850.53,-355.96 858.05,-352.07 865.47,-348.83"/>
<polygon fill="#63b8ff" stroke="#63b8ff" points="866.79,-352.06 874.74,-345.06 864.16,-345.58 866.79,-352.06"/>
</g>
<!-- Node7 -->
<g id="node7" class="node">
<title>Node7</title>
<g id="a_node7"><a xlink:href="namespacea60.html#a11d9ffc210e8dca8410e7a5ad62deabc" target="_top" xlink:title=" ">
<polygon fill="white" stroke="#666666" points="799.5,-390.5 686.5,-390.5 686.5,-364.5 799.5,-364.5 799.5,-390.5"/>
<text text-anchor="start" x="694.5" y="-380.1" font-family="SourceSans" font-size="8.00">a60::to_replace_spaces</text>
<text text-anchor="middle" x="743" y="-371.1" font-family="SourceSans" font-size="8.00">_string</text>
</a>
</g>
</g>
<!-- Node4&#45;&gt;Node7 -->
<g id="edge6" class="edge">
<title>Node4&#45;&gt;Node7</title>
<path fill="none" stroke="#63b8ff" d="M632.28,-404.84C647.28,-401.11 663.86,-396.97 679.5,-393.08"/>
<polygon fill="#63b8ff" stroke="#63b8ff" points="680.76,-396.37 689.61,-390.56 679.06,-389.58 680.76,-396.37"/>
</g>
<!-- Node8 -->
<g id="node8" class="node">
<title>Node8</title>
<g id="a_node8"><a xlink:href="namespacea60.html#a751f954fe64233f1dc6517220e4b5692" target="_top" xlink:title=" ">
<polygon fill="white" stroke="#666666" points="957,-386 850,-386 850,-369 957,-369 957,-386"/>
<text text-anchor="middle" x="903.5" y="-375.6" font-family="SourceSans" font-size="8.00">a60::to_replace_string</text>
</a>
</g>
</g>
<!-- Node7&#45;&gt;Node8 -->
<g id="edge7" class="edge">
<title>Node7&#45;&gt;Node8</title>
<path fill="none" stroke="#63b8ff" d="M799.88,-377.5C812.68,-377.5 826.37,-377.5 839.45,-377.5"/>
<polygon fill="#63b8ff" stroke="#63b8ff" points="839.78,-381 849.78,-377.5 839.78,-374 839.78,-381"/>
</g>
<!-- Node9&#45;&gt;Node4 -->
<g id="edge9" class="edge">
<title>Node9&#45;&gt;Node4</title>
<path fill="none" stroke="#63b8ff" d="M440.3,-378.08C463.37,-384.61 495.77,-393.79 523.51,-401.64"/>
<polygon fill="#63b8ff" stroke="#63b8ff" points="522.92,-405.11 533.49,-404.47 524.82,-398.38 522.92,-405.11"/>
</g>
<!-- Node9&#45;&gt;Node6 -->
<g id="edge10" class="edge">
<title>Node9&#45;&gt;Node6</title>
<path fill="none" stroke="#63b8ff" d="M483.2,-364.6C577.86,-358.25 741.5,-347.29 833.87,-341.1"/>
<polygon fill="#63b8ff" stroke="#63b8ff" points="834.21,-344.58 843.95,-340.42 833.74,-337.6 834.21,-344.58"/>
</g>
<!-- Node9&#45;&gt;Node7 -->
<g id="edge11" class="edge">
<title>Node9&#45;&gt;Node7</title>
<path fill="none" stroke="#63b8ff" d="M483.27,-371.27C540.98,-372.66 620.69,-374.58 676.34,-375.92"/>
<polygon fill="#63b8ff" stroke="#63b8ff" points="676.36,-379.42 686.44,-376.16 676.52,-372.42 676.36,-379.42"/>
</g>
<!-- Node9&#45;&gt;Node10 -->
<g id="edge12" class="edge">
<title>Node9&#45;&gt;Node10</title>
<path fill="none" stroke="#63b8ff" d="M468.37,-360.95C473.61,-358.73 478.6,-355.95 483,-352.5 510.84,-330.66 494.68,-307.2 519,-281.5 527.45,-272.57 538.69,-265.23 549.18,-259.61"/>
<polygon fill="#63b8ff" stroke="#63b8ff" points="550.76,-262.74 558.13,-255.13 547.62,-256.48 550.76,-262.74"/>
</g>
<!-- Node10&#45;&gt;Node10 -->
<g id="edge13" class="edge">
<title>Node10&#45;&gt;Node10</title>
<path fill="none" stroke="#63b8ff" d="M556.36,-255.19C543.03,-263.67 551.07,-273 580.5,-273 600.73,-273 610.86,-268.59 610.87,-263.08"/>
<polygon fill="#63b8ff" stroke="#63b8ff" points="613.58,-260.86 604.64,-255.19 608.09,-265.2 613.58,-260.86"/>
</g>
<!-- Node12 -->
<g id="node12" class="node">
<title>Node12</title>
<g id="a_node12"><a xlink:href="namespacea60.html#a63203aef78ad674129103340323d3b63" target="_top" xlink:title="First layer.">
<polygon fill="white" stroke="#666666" points="641.5,-308 519.5,-308 519.5,-291 641.5,-291 641.5,-308"/>
<text text-anchor="middle" x="580.5" y="-297.6" font-family="SourceSans" font-size="8.00">a60::place_map_in_frame</text>
</a>
</g>
</g>
<!-- Node11&#45;&gt;Node12 -->
<g id="edge15" class="edge">
<title>Node11&#45;&gt;Node12</title>
<path fill="none" stroke="#63b8ff" d="M451.46,-325.94C474.64,-321.15 503.71,-315.15 528.29,-310.07"/>
<polygon fill="#63b8ff" stroke="#63b8ff" points="529.08,-313.48 538.17,-308.03 527.67,-306.63 529.08,-313.48"/>
</g>
<!-- Node13&#45;&gt;Node12 -->
<g id="edge17" class="edge">
<title>Node13&#45;&gt;Node12</title>
<path fill="none" stroke="#63b8ff" d="M479.43,-299.5C489.27,-299.5 499.39,-299.5 509.25,-299.5"/>
<polygon fill="#63b8ff" stroke="#63b8ff" points="509.4,-303 519.4,-299.5 509.4,-296 509.4,-303"/>
</g>
<!-- Node14&#45;&gt;Node10 -->
<g id="edge22" class="edge">
<title>Node14&#45;&gt;Node10</title>
<path fill="none" stroke="#63b8ff" d="M295.51,-198.1C308.5,-200.6 322.21,-203.19 335,-205.5 404,-217.97 484.2,-231.17 533.4,-239.13"/>
<polygon fill="#63b8ff" stroke="#63b8ff" points="532.98,-242.6 543.41,-240.74 534.09,-235.69 532.98,-242.6"/>
</g>
<!-- Node14&#45;&gt;Node15 -->
<g id="edge20" class="edge">
<title>Node14&#45;&gt;Node15</title>
<path fill="none" stroke="#63b8ff" d="M287.84,-173.45C303.01,-169.58 319.67,-165.34 335,-161.5 344.11,-159.21 353.87,-156.79 363.19,-154.49"/>
<polygon fill="#63b8ff" stroke="#63b8ff" points="364.21,-157.84 373.08,-152.05 362.53,-151.05 364.21,-157.84"/>
</g>
<!-- Node16 -->
<g id="node16" class="node">
<title>Node16</title>
<g id="a_node16"><a xlink:href="structa60_1_1collection.html#a4b5f4e6148e18b08ccc033e200327cdf" target="_top" xlink:title="Display/output name for torrent collection, including partition, episode/multiepisode,...">
<polygon fill="white" stroke="#666666" points="464,-196.5 354,-196.5 354,-170.5 464,-170.5 464,-196.5"/>
<text text-anchor="start" x="362" y="-186.1" font-family="SourceSans" font-size="8.00">a60::collection::media</text>
<text text-anchor="middle" x="409" y="-177.1" font-family="SourceSans" font-size="8.00">_object_name</text>
</a>
</g>
</g>
<!-- Node14&#45;&gt;Node16 -->
<g id="edge21" class="edge">
<title>Node14&#45;&gt;Node16</title>
<path fill="none" stroke="#63b8ff" d="M295.85,-185.47C311.3,-185.2 328.05,-184.9 343.77,-184.63"/>
<polygon fill="#63b8ff" stroke="#63b8ff" points="343.99,-188.12 353.93,-184.45 343.87,-181.12 343.99,-188.12"/>
</g>
<!-- Node18 -->
<g id="node18" class="node">
<title>Node18</title>
<g id="a_node18"><a xlink:href="namespacea60.html#a287cf51553486f749678a37cc38eb317" target="_top" xlink:title="Get geo info.">
<polygon fill="white" stroke="#666666" points="472,-117 346,-117 346,-100 472,-100 472,-117"/>
<text text-anchor="middle" x="409" y="-106.6" font-family="SourceSans" font-size="8.00">a60::demangle_geo_name</text>
</a>
</g>
</g>
<!-- Node17&#45;&gt;Node18 -->
<g id="edge25" class="edge">
<title>Node17&#45;&gt;Node18</title>
<path fill="none" stroke="#63b8ff" d="M299.22,-108.5C311.08,-108.5 323.59,-108.5 335.73,-108.5"/>
<polygon fill="#63b8ff" stroke="#63b8ff" points="335.83,-112 345.83,-108.5 335.83,-105 335.83,-112"/>
</g>
<!-- Node19 -->
<g id="node19" class="node">
<title>Node19</title>
<g id="a_node19"><a xlink:href="namespacea60_1_1geo.html#a00bb7f340977ec5d930c92291b382901" target="_top" xlink:title=" ">
<polygon fill="white" stroke="#666666" points="632.5,-181.5 528.5,-181.5 528.5,-155.5 632.5,-155.5 632.5,-181.5"/>
<text text-anchor="start" x="536.5" y="-171.1" font-family="SourceSans" font-size="8.00">a60::geo::alpha_3_to</text>
<text text-anchor="middle" x="580.5" y="-162.1" font-family="SourceSans" font-size="8.00">_country</text>
</a>
</g>
</g>
<!-- Node18&#45;&gt;Node19 -->
<g id="edge26" class="edge">
<title>Node18&#45;&gt;Node19</title>
<path fill="none" stroke="#63b8ff" d="M455.76,-117.1C464.93,-119.39 474.38,-122.18 483,-125.5 500.08,-132.08 502.4,-137.78 519,-145.5 523.59,-147.64 528.45,-149.73 533.33,-151.74"/>
<polygon fill="#63b8ff" stroke="#63b8ff" points="532.09,-155.01 542.68,-155.47 534.69,-148.51 532.09,-155.01"/>
</g>
<!-- Node20 -->
<g id="node20" class="node">
<title>Node20</title>
<g id="a_node20"><a xlink:href="namespacea60.html#a67a216731ae229be675dbcbfa228d865" target="_top" xlink:title=" ">
<polygon fill="white" stroke="#666666" points="631,-137 530,-137 530,-120 631,-120 631,-137"/>
<text text-anchor="middle" x="580.5" y="-126.6" font-family="SourceSans" font-size="8.00">a60::convert_to_utf8</text>
</a>
</g>
</g>
<!-- Node18&#45;&gt;Node20 -->
<g id="edge27" class="edge">
<title>Node18&#45;&gt;Node20</title>
<path fill="none" stroke="#63b8ff" d="M472.15,-115.83C487.73,-117.67 504.41,-119.64 519.86,-121.46"/>
<polygon fill="#63b8ff" stroke="#63b8ff" points="519.48,-124.94 529.82,-122.64 520.3,-117.99 519.48,-124.94"/>
</g>
<!-- Node22 -->
<g id="node22" class="node">
<title>Node22</title>
<g id="a_node22"><a xlink:href="namespacea60_1_1geo.html#a4abe1cc8c4c5d836fa8f23910b36a360" target="_top" xlink:title=" ">
<polygon fill="white" stroke="#666666" points="642,-101.5 519,-101.5 519,-75.5 642,-75.5 642,-101.5"/>
<text text-anchor="start" x="527" y="-91.1" font-family="SourceSans" font-size="8.00">a60::geo::map_alpha</text>
<text text-anchor="middle" x="580.5" y="-82.1" font-family="SourceSans" font-size="8.00">_3_code_to_country_name</text>
</a>
</g>
</g>
<!-- Node18&#45;&gt;Node22 -->
<g id="edge29" class="edge">
<title>Node18&#45;&gt;Node22</title>
<path fill="none" stroke="#63b8ff" d="M472.15,-101.17C484.04,-99.76 496.56,-98.29 508.69,-96.85"/>
<polygon fill="#63b8ff" stroke="#63b8ff" points="509.25,-100.31 518.77,-95.67 508.43,-93.36 509.25,-100.31"/>
</g>
<!-- Node21 -->
<g id="node21" class="node">
<title>Node21</title>
<g id="a_node21"><a xlink:href="namespacea60.html#a1c4e23f164dec11b9fee53e2292af224" target="_top" xlink:title="Convert MaxMind GeoIP information from ISO&#45;8859&#45;1 encoding to UTF&#45;8.">
<polygon fill="white" stroke="#666666" points="806,-137 680,-137 680,-120 806,-120 806,-137"/>
<text text-anchor="middle" x="743" y="-126.6" font-family="SourceSans" font-size="8.00">a60::convert_8859_to_utf8</text>
</a>
</g>
</g>
<!-- Node20&#45;&gt;Node21 -->
<g id="edge28" class="edge">
<title>Node20&#45;&gt;Node21</title>
<path fill="none" stroke="#63b8ff" d="M631.4,-128.5C643.53,-128.5 656.74,-128.5 669.67,-128.5"/>
<polygon fill="#63b8ff" stroke="#63b8ff" points="669.96,-132 679.96,-128.5 669.96,-125 669.96,-132"/>
</g>
<!-- Node23 -->
<g id="node23" class="node">
<title>Node23</title>
<g id="a_node23"><a xlink:href="namespacea60_1_1geo.html#a3592e801fc5730fc27bab32d194a7a5b" target="_top" xlink:title="Forward declaration for function in a60&#45;json.h.">
<polygon fill="white" stroke="#666666" points="803.5,-101.5 682.5,-101.5 682.5,-75.5 803.5,-75.5 803.5,-101.5"/>
<text text-anchor="start" x="690.5" y="-91.1" font-family="SourceSans" font-size="8.00">a60::geo::deserialize</text>
<text text-anchor="middle" x="743" y="-82.1" font-family="SourceSans" font-size="8.00">_json_to_iso_3166_3_map</text>
</a>
</g>
</g>
<!-- Node22&#45;&gt;Node23 -->
<g id="edge30" class="edge">
<title>Node22&#45;&gt;Node23</title>
<path fill="none" stroke="#63b8ff" d="M642.18,-88.5C651.93,-88.5 662.09,-88.5 672.04,-88.5"/>
<polygon fill="#63b8ff" stroke="#63b8ff" points="672.3,-92 682.3,-88.5 672.3,-85 672.3,-92"/>
</g>
<!-- Node23&#45;&gt;Node6 -->
<g id="edge36" class="edge">
<title>Node23&#45;&gt;Node6</title>
<path fill="none" stroke="#63b8ff" d="M795.22,-101.5C799.86,-104 804.23,-106.97 808,-110.5 810.05,-112.42 872.9,-264.65 894.95,-318.16"/>
<polygon fill="#63b8ff" stroke="#63b8ff" points="891.84,-319.82 898.89,-327.73 898.32,-317.15 891.84,-319.82"/>
</g>
<!-- Node24 -->
<g id="node24" class="node">
<title>Node24</title>
<g id="a_node24"><a xlink:href="namespacea60.html#a538d43bb9bfa488a54cea929736dbe2d" target="_top" xlink:title="Deserialize input file.">
<polygon fill="white" stroke="#666666" points="955.5,-141.5 851.5,-141.5 851.5,-115.5 955.5,-115.5 955.5,-141.5"/>
<text text-anchor="start" x="859.5" y="-131.1" font-family="SourceSans" font-size="8.00">a60::deserialize_json</text>
<text text-anchor="middle" x="903.5" y="-122.1" font-family="SourceSans" font-size="8.00">_to_dom</text>
</a>
</g>
</g>
<!-- Node23&#45;&gt;Node24 -->
<g id="edge31" class="edge">
<title>Node23&#45;&gt;Node24</title>
<path fill="none" stroke="#63b8ff" d="M795.9,-101.6C810.49,-105.28 826.49,-109.32 841.55,-113.12"/>
<polygon fill="#63b8ff" stroke="#63b8ff" points="840.74,-116.52 851.3,-115.58 842.46,-109.74 840.74,-116.52"/>
</g>
<!-- Node25 -->
<g id="node25" class="node">
<title>Node25</title>
<g id="a_node25"><a xlink:href="namespacea60_1_1io.html#a16f17ea9e02c1975ca17b77e46cf7629" target="_top" xlink:title="Make sure a path ends in &#39;/&#39;;.">
<polygon fill="white" stroke="#666666" points="948.5,-97 858.5,-97 858.5,-80 948.5,-80 948.5,-97"/>
<text text-anchor="middle" x="903.5" y="-86.6" font-family="SourceSans" font-size="8.00">a60::io::end_path</text>
</a>
</g>
</g>
<!-- Node23&#45;&gt;Node25 -->
<g id="edge32" class="edge">
<title>Node23&#45;&gt;Node25</title>
<path fill="none" stroke="#63b8ff" d="M803.92,-88.5C818.45,-88.5 833.91,-88.5 848.17,-88.5"/>
<polygon fill="#63b8ff" stroke="#63b8ff" points="848.31,-92 858.31,-88.5 848.31,-85 848.31,-92"/>
</g>
<!-- Node26 -->
<g id="node26" class="node">
<title>Node26</title>
<g id="a_node26"><a xlink:href="namespacea60_1_1io.html#ac95e5271a27a23bc2336d84b3f821fa2" target="_top" xlink:title="Constant filesystem and run&#45;time resources.">
<polygon fill="white" stroke="#666666" points="955.5,-61.5 851.5,-61.5 851.5,-35.5 955.5,-35.5 955.5,-61.5"/>
<text text-anchor="start" x="859.5" y="-51.1" font-family="SourceSans" font-size="8.00">a60::io::get_run_time</text>
<text text-anchor="middle" x="903.5" y="-42.1" font-family="SourceSans" font-size="8.00">_resources</text>
</a>
</g>
</g>
<!-- Node23&#45;&gt;Node26 -->
<g id="edge33" class="edge">
<title>Node23&#45;&gt;Node26</title>
<path fill="none" stroke="#63b8ff" d="M795.9,-75.4C810.49,-71.72 826.49,-67.68 841.55,-63.88"/>
<polygon fill="#63b8ff" stroke="#63b8ff" points="842.46,-67.26 851.3,-61.42 840.74,-60.48 842.46,-67.26"/>
</g>
<!-- Node27 -->
<g id="node27" class="node">
<title>Node27</title>
<g id="a_node27"><a xlink:href="namespacea60.html#a0fc88c5c87f54b303a1856bc2aa76a45" target="_top" xlink:title=" ">
<polygon fill="white" stroke="#666666" points="960.5,-17 846.5,-17 846.5,0 960.5,0 960.5,-17"/>
<text text-anchor="middle" x="903.5" y="-6.6" font-family="SourceSans" font-size="8.00">a60::insert_to_iso_3166</text>
</a>
</g>
</g>
<!-- Node23&#45;&gt;Node27 -->
<g id="edge34" class="edge">
<title>Node23&#45;&gt;Node27</title>
<path fill="none" stroke="#63b8ff" d="M762,-75.35C781.44,-61.65 813.69,-40.28 844,-26.5 849.02,-24.22 854.4,-22.12 859.8,-20.23"/>
<polygon fill="#63b8ff" stroke="#63b8ff" points="861.06,-23.5 869.46,-17.05 858.87,-16.85 861.06,-23.5"/>
</g>
<!-- Node28 -->
<g id="node28" class="node">
<title>Node28</title>
<g id="a_node28"><a xlink:href="namespacea60_1_1io.html#aa5fbb8ab63397dd45c4a54c0758935ef" target="_top" xlink:title="Sanity check input existence.">
<polygon fill="white" stroke="#666666" points="955.5,-185.5 851.5,-185.5 851.5,-159.5 955.5,-159.5 955.5,-185.5"/>
<text text-anchor="start" x="859.5" y="-175.1" font-family="SourceSans" font-size="8.00">a60::io::sanity_check</text>
<text text-anchor="middle" x="903.5" y="-166.1" font-family="SourceSans" font-size="8.00">_input</text>
</a>
</g>
</g>
<!-- Node23&#45;&gt;Node28 -->
<g id="edge35" class="edge">
<title>Node23&#45;&gt;Node28</title>
<path fill="none" stroke="#63b8ff" d="M791.11,-101.58C797.02,-104.11 802.81,-107.06 808,-110.5 827.95,-123.7 824.24,-137.02 844,-150.5 846.35,-152.11 848.84,-153.61 851.4,-155.03"/>
<polygon fill="#63b8ff" stroke="#63b8ff" points="849.85,-158.16 860.36,-159.47 852.96,-151.89 849.85,-158.16"/>
</g>
</g>
</svg>
        <g id="navigator" transform="translate(0 0)" fill="#404254">
                <rect fill="#f2f5e9" fill-opacity="0.5" stroke="#606060" stroke-width=".5" x="0" y="0" width="60" height="60"/>
                <use id="zoomplus" xlink:href="#zoomPlus" x="17" y="9" onmousedown="handleZoom(evt,'in')"/>
                <use id="zoomminus" xlink:href="#zoomMin" x="42" y="9" onmousedown="handleZoom(evt,'out')"/>
                <use id="reset" xlink:href="#resetDef" x="30" y="36" onmousedown="handleReset()"/>
                <g id="arrowUp" xlink:href="#dirArrow" transform="translate(30 24)" onmousedown="handlePan(0,-1)">
                  <use xlink:href="#rim" fill="#404040">
                        <set attributeName="fill" to="#808080" begin="arrowUp.mouseover" end="arrowUp.mouseout"/>
                  </use>
                  <path fill="none" stroke="white" stroke-width="1.5" d="M0,-3.0v7 M-2.5,-0.5L0,-3.0L2.5,-0.5"/>
                </g>
                <g id="arrowRight" xlink:href="#dirArrow" transform="rotate(90) translate(36 -43)" onmousedown="handlePan(1,0)">
                  <use xlink:href="#rim" fill="#404040">
                        <set attributeName="fill" to="#808080" begin="arrowRight.mouseover" end="arrowRight.mouseout"/>
                  </use>
                  <path fill="none" stroke="white" stroke-width="1.5" d="M0,-3.0v7 M-2.5,-0.5L0,-3.0L2.5,-0.5"/>
                </g>
                <g id="arrowDown" xlink:href="#dirArrow" transform="rotate(180) translate(-30 -48)" onmousedown="handlePan(0,1)">
                  <use xlink:href="#rim" fill="#404040">
                        <set attributeName="fill" to="#808080" begin="arrowDown.mouseover" end="arrowDown.mouseout"/>
                  </use>
                  <path fill="none" stroke="white" stroke-width="1.5" d="M0,-3.0v7 M-2.5,-0.5L0,-3.0L2.5,-0.5"/>
                </g>
                <g id="arrowLeft" xlink:href="#dirArrow" transform="rotate(270) translate(-36 17)" onmousedown="handlePan(-1,0)">
                  <use xlink:href="#rim" fill="#404040">
                        <set attributeName="fill" to="#808080" begin="arrowLeft.mouseover" end="arrowLeft.mouseout"/>
                  </use>
                  <path fill="none" stroke="white" stroke-width="1.5" d="M0,-3.0v7 M-2.5,-0.5L0,-3.0L2.5,-0.5"/>
                </g>
        </g>
        <svg viewBox="0 0 15 15" width="100%" height="30px" preserveAspectRatio="xMaxYMin meet">
         <g id="arrow_out" transform="scale(0.3 0.3)">
          <a xlink:href="namespacea60_aa1a3399d0883fe2ffcd13ae6b7a3fa00_cgraph_org.svg" target="_base">
           <rect id="button" ry="5" rx="5" y="6" x="6" height="38" width="38"
                fill="#f2f5e9" fill-opacity="0.5" stroke="#606060" stroke-width="1.0"/>
           <path id="arrow"
             d="M 11.500037,31.436501 C 11.940474,20.09759 22.043105,11.32322 32.158766,21.979434 L 37.068811,17.246167 C 37.068811,17.246167 37.088388,32 37.088388,32 L 22.160133,31.978069 C 22.160133,31.978069 26.997745,27.140456 26.997745,27.140456 C 18.528582,18.264221 13.291696,25.230495 11.500037,31.436501 z"
             style="fill:#404040;"/>
          </a>
         </g>
        </svg>
</svg>
