<?xml version="1.0" encoding="UTF-8" standalone="no"?>
<!DOCTYPE svg PUBLIC "-//W3C//DTD SVG 1.1//EN"
 "http://www.w3.org/Graphics/SVG/1.1/DTD/svg11.dtd">
<!-- Generated by graphviz version 5.0.0 (0)
 -->
<!-- Title: a60::augment_collection_filenames Pages: 1 -->
<svg width="606pt" height="417pt"
 viewBox="0.00 0.00 606.00 417.00" xmlns="http://www.w3.org/2000/svg" xmlns:xlink="http://www.w3.org/1999/xlink">
<g id="graph0" class="graph" transform="scale(1 1) rotate(0) translate(4 413)">
<title>a60::augment_collection_filenames</title>
<!-- Node1 -->
<g id="node1" class="node">
<title>Node1</title>
<g id="a_node1"><a xlink:title=" ">
<polygon fill="#999999" stroke="#666666" points="119,-219 0,-219 0,-193 119,-193 119,-219"/>
<text text-anchor="start" x="8" y="-208.6" font-family="SourceSans" font-size="8.00">a60::augment_collection</text>
<text text-anchor="middle" x="59.5" y="-199.6" font-family="SourceSans" font-size="8.00">_filenames</text>
</a>
</g>
</g>
<!-- Node2 -->
<g id="node2" class="node">
<title>Node2</title>
<g id="a_node2"><a xlink:href="namespacea60.html#a0bd28b5c2a740bc6d97107dc26929513" target="_top" xlink:title=" ">
<polygon fill="white" stroke="#666666" points="274,-320.5 155,-320.5 155,-303.5 274,-303.5 274,-320.5"/>
<text text-anchor="middle" x="214.5" y="-310.1" font-family="SourceSans" font-size="8.00">a60::augment_filenames</text>
</a>
</g>
</g>
<!-- Node1&#45;&gt;Node2 -->
<g id="edge1" class="edge">
<title>Node1&#45;&gt;Node2</title>
<path fill="none" stroke="#63b8ff" d="M71.03,-219C87.18,-238.11 119.87,-273.69 155,-294 158.73,-296.15 162.74,-298.08 166.85,-299.79"/>
<polygon fill="#63b8ff" stroke="#63b8ff" points="165.95,-303.19 176.54,-303.4 168.4,-296.63 165.95,-303.19"/>
</g>
<!-- Node10 -->
<g id="node10" class="node">
<title>Node10</title>
<g id="a_node10"><a xlink:href="namespacea60.html#a393a082abbeaa731f81034b7a1713e27" target="_top" xlink:title=" ">
<polygon fill="white" stroke="#666666" points="269.5,-285 159.5,-285 159.5,-259 269.5,-259 269.5,-285"/>
<text text-anchor="start" x="167.5" y="-274.6" font-family="SourceSans" font-size="8.00">a60::compute_number</text>
<text text-anchor="middle" x="214.5" y="-265.6" font-family="SourceSans" font-size="8.00">_of_pages</text>
</a>
</g>
</g>
<!-- Node1&#45;&gt;Node10 -->
<g id="edge10" class="edge">
<title>Node1&#45;&gt;Node10</title>
<path fill="none" stroke="#63b8ff" d="M87.14,-219.07C105.94,-228.12 131.81,-240.26 155,-250 159.16,-251.75 163.52,-253.51 167.9,-255.24"/>
<polygon fill="#63b8ff" stroke="#63b8ff" points="166.85,-258.58 177.44,-258.93 169.38,-252.06 166.85,-258.58"/>
</g>
<!-- Node11 -->
<g id="node11" class="node">
<title>Node11</title>
<g id="a_node11"><a xlink:href="structa60_1_1collection.html#a481d8e6e9ea5f9cb136846d75b0f50c4" target="_top" xlink:title=" ">
<polygon fill="white" stroke="#666666" points="271.5,-241 157.5,-241 157.5,-215 271.5,-215 271.5,-241"/>
<text text-anchor="start" x="165.5" y="-230.6" font-family="SourceSans" font-size="8.00">a60::collection::remove</text>
<text text-anchor="middle" x="214.5" y="-221.6" font-family="SourceSans" font-size="8.00">_matching_strings</text>
</a>
</g>
</g>
<!-- Node1&#45;&gt;Node11 -->
<g id="edge11" class="edge">
<title>Node1&#45;&gt;Node11</title>
<path fill="none" stroke="#63b8ff" d="M119.22,-214.44C128.44,-215.77 138.02,-217.15 147.4,-218.5"/>
<polygon fill="#63b8ff" stroke="#63b8ff" points="147.06,-221.98 157.46,-219.94 148.06,-215.05 147.06,-221.98"/>
</g>
<!-- Node13 -->
<g id="node13" class="node">
<title>Node13</title>
<g id="a_node13"><a xlink:href="namespacea60.html#aa24dca2ac0e39fcdf7a546f44a11a779" target="_top" xlink:title=" ">
<polygon fill="white" stroke="#666666" points="264.5,-197 164.5,-197 164.5,-171 264.5,-171 264.5,-197"/>
<text text-anchor="start" x="172.5" y="-186.6" font-family="SourceSans" font-size="8.00">a60::separate_short</text>
<text text-anchor="middle" x="214.5" y="-177.6" font-family="SourceSans" font-size="8.00">_from_long_names</text>
</a>
</g>
</g>
<!-- Node1&#45;&gt;Node13 -->
<g id="edge13" class="edge">
<title>Node1&#45;&gt;Node13</title>
<path fill="none" stroke="#63b8ff" d="M119.22,-197.56C130.69,-195.91 142.72,-194.18 154.21,-192.52"/>
<polygon fill="#63b8ff" stroke="#63b8ff" points="154.74,-195.98 164.14,-191.1 153.75,-189.06 154.74,-195.98"/>
</g>
<!-- Node14 -->
<g id="node14" class="node">
<title>Node14</title>
<g id="a_node14"><a xlink:href="structa60_1_1collection.html#a80993af9aec8238db8e44da1e9a3c994" target="_top" xlink:title=" ">
<polygon fill="white" stroke="#666666" points="266,-153 163,-153 163,-127 266,-127 266,-153"/>
<text text-anchor="start" x="171" y="-142.6" font-family="SourceSans" font-size="8.00">a60::collection::slice</text>
<text text-anchor="middle" x="214.5" y="-133.6" font-family="SourceSans" font-size="8.00">_name_mangled</text>
</a>
</g>
</g>
<!-- Node1&#45;&gt;Node14 -->
<g id="edge14" class="edge">
<title>Node1&#45;&gt;Node14</title>
<path fill="none" stroke="#63b8ff" d="M87.14,-192.93C105.94,-183.88 131.81,-171.74 155,-162 159.16,-160.25 163.52,-158.49 167.9,-156.76"/>
<polygon fill="#63b8ff" stroke="#63b8ff" points="169.38,-159.94 177.44,-153.07 166.85,-153.42 169.38,-159.94"/>
</g>
<!-- Node18 -->
<g id="node18" class="node">
<title>Node18</title>
<g id="a_node18"><a xlink:href="structa60_1_1collection.html#af07a1a0bb47ed39512ccfa0caf5d3074" target="_top" xlink:title=" ">
<polygon fill="white" stroke="#666666" points="270,-109 159,-109 159,-83 270,-83 270,-109"/>
<text text-anchor="start" x="167" y="-98.6" font-family="SourceSans" font-size="8.00">a60::collection::torrent</text>
<text text-anchor="middle" x="214.5" y="-89.6" font-family="SourceSans" font-size="8.00">_files</text>
</a>
</g>
</g>
<!-- Node1&#45;&gt;Node18 -->
<g id="edge19" class="edge">
<title>Node1&#45;&gt;Node18</title>
<path fill="none" stroke="#63b8ff" d="M71.47,-192.96C87.91,-174.13 120.7,-139.26 155,-118 157.64,-116.37 160.41,-114.82 163.26,-113.37"/>
<polygon fill="#63b8ff" stroke="#63b8ff" points="164.97,-116.44 172.56,-109.04 162.01,-110.09 164.97,-116.44"/>
</g>
<!-- Node3 -->
<g id="node3" class="node">
<title>Node3</title>
<g id="a_node3"><a xlink:href="namespacea60.html#a509aad812b39c14aec23d7c28a1bbab1" target="_top" xlink:title=" ">
<polygon fill="white" stroke="#666666" points="434.5,-365 315.5,-365 315.5,-339 434.5,-339 434.5,-365"/>
<text text-anchor="start" x="323.5" y="-354.6" font-family="SourceSans" font-size="8.00">a60::augment_collection</text>
<text text-anchor="middle" x="375" y="-345.6" font-family="SourceSans" font-size="8.00">_titles_4</text>
</a>
</g>
</g>
<!-- Node2&#45;&gt;Node3 -->
<g id="edge2" class="edge">
<title>Node2&#45;&gt;Node3</title>
<path fill="none" stroke="#63b8ff" d="M249.5,-320.58C267.8,-325.2 290.93,-331.04 312.28,-336.42"/>
<polygon fill="#63b8ff" stroke="#63b8ff" points="311.71,-339.89 322.26,-338.94 313.43,-333.1 311.71,-339.89"/>
</g>
<!-- Node6 -->
<g id="node6" class="node">
<title>Node6</title>
<g id="a_node6"><a xlink:href="namespacea60.html#a61b26883af598131fd53cf60addf2a48" target="_top" xlink:title=" ">
<polygon fill="white" stroke="#666666" points="434.5,-409 315.5,-409 315.5,-383 434.5,-383 434.5,-409"/>
<text text-anchor="start" x="323.5" y="-398.6" font-family="SourceSans" font-size="8.00">a60::augment_filenames</text>
<text text-anchor="middle" x="375" y="-389.6" font-family="SourceSans" font-size="8.00">_per_page</text>
</a>
</g>
</g>
<!-- Node2&#45;&gt;Node6 -->
<g id="edge5" class="edge">
<title>Node2&#45;&gt;Node6</title>
<path fill="none" stroke="#63b8ff" d="M226.59,-320.61C243.7,-333.57 277.93,-358.28 310,-374 313.74,-375.83 317.67,-377.58 321.66,-379.23"/>
<polygon fill="#63b8ff" stroke="#63b8ff" points="320.46,-382.52 331.05,-382.9 323.01,-376 320.46,-382.52"/>
</g>
<!-- Node7 -->
<g id="node7" class="node">
<title>Node7</title>
<g id="a_node7"><a xlink:href="namespacea60.html#ab8e4135bf0b91ea44a27a6fcb7a648e4" target="_top" xlink:title=" ">
<polygon fill="white" stroke="#666666" points="420,-321 330,-321 330,-295 420,-295 420,-321"/>
<text text-anchor="start" x="338" y="-310.6" font-family="SourceSans" font-size="8.00">a60::get_intertitle</text>
<text text-anchor="middle" x="375" y="-301.6" font-family="SourceSans" font-size="8.00">_render_state</text>
</a>
</g>
</g>
<!-- Node2&#45;&gt;Node7 -->
<g id="edge7" class="edge">
<title>Node2&#45;&gt;Node7</title>
<path fill="none" stroke="#63b8ff" d="M274.07,-310.52C288.83,-310.15 304.62,-309.75 319.19,-309.38"/>
<polygon fill="#63b8ff" stroke="#63b8ff" points="319.64,-312.87 329.55,-309.12 319.46,-305.88 319.64,-312.87"/>
</g>
<!-- Node8 -->
<g id="node8" class="node">
<title>Node8</title>
<g id="a_node8"><a xlink:href="namespacea60.html#a1bf91ba66297e089d99c49d6a376c0ad" target="_top" xlink:title="NEW STYLE First composite with map, black on white.">
<polygon fill="white" stroke="#666666" points="428,-276.5 322,-276.5 322,-259.5 428,-259.5 428,-276.5"/>
<text text-anchor="middle" x="375" y="-266.1" font-family="SourceSans" font-size="8.00">a60::make_map_base</text>
</a>
</g>
</g>
<!-- Node2&#45;&gt;Node8 -->
<g id="edge8" class="edge">
<title>Node2&#45;&gt;Node8</title>
<path fill="none" stroke="#63b8ff" d="M246.44,-303.41C271.2,-296.54 306.14,-286.84 333.2,-279.33"/>
<polygon fill="#63b8ff" stroke="#63b8ff" points="334.44,-282.61 343.14,-276.57 332.57,-275.87 334.44,-282.61"/>
</g>
<!-- Node4 -->
<g id="node4" class="node">
<title>Node4</title>
<g id="a_node4"><a xlink:href="namespacea60_1_1carto.html#af59ef7858ef576e7f17b781f38436f28" target="_top" xlink:title=" ">
<polygon fill="white" stroke="#666666" points="598,-402.5 476,-402.5 476,-385.5 598,-385.5 598,-402.5"/>
<text text-anchor="middle" x="537" y="-392.1" font-family="SourceSans" font-size="8.00">a60::carto::frame_margin</text>
</a>
</g>
</g>
<!-- Node3&#45;&gt;Node4 -->
<g id="edge3" class="edge">
<title>Node3&#45;&gt;Node4</title>
<path fill="none" stroke="#63b8ff" d="M425.75,-365.06C447.51,-370.77 472.77,-377.4 493.61,-382.87"/>
<polygon fill="#63b8ff" stroke="#63b8ff" points="492.9,-386.3 503.46,-385.46 494.68,-379.53 492.9,-386.3"/>
</g>
<!-- Node5 -->
<g id="node5" class="node">
<title>Node5</title>
<g id="a_node5"><a xlink:href="structa60_1_1collection.html#a4b5f4e6148e18b08ccc033e200327cdf" target="_top" xlink:title="Display/output name for torrent collection, including partition, episode/multiepisode,...">
<polygon fill="white" stroke="#666666" points="592,-365 482,-365 482,-339 592,-339 592,-365"/>
<text text-anchor="start" x="490" y="-354.6" font-family="SourceSans" font-size="8.00">a60::collection::media</text>
<text text-anchor="middle" x="537" y="-345.6" font-family="SourceSans" font-size="8.00">_object_name</text>
</a>
</g>
</g>
<!-- Node3&#45;&gt;Node5 -->
<g id="edge4" class="edge">
<title>Node3&#45;&gt;Node5</title>
<path fill="none" stroke="#63b8ff" d="M434.67,-352C446.72,-352 459.48,-352 471.72,-352"/>
<polygon fill="#63b8ff" stroke="#63b8ff" points="471.85,-355.5 481.85,-352 471.85,-348.5 471.85,-355.5"/>
</g>
<!-- Node6&#45;&gt;Node4 -->
<g id="edge6" class="edge">
<title>Node6&#45;&gt;Node4</title>
<path fill="none" stroke="#63b8ff" d="M434.67,-395.27C444.77,-395.14 455.36,-395.01 465.73,-394.88"/>
<polygon fill="#63b8ff" stroke="#63b8ff" points="466.04,-398.37 476,-394.75 465.95,-391.38 466.04,-398.37"/>
</g>
<!-- Node9 -->
<g id="node9" class="node">
<title>Node9</title>
<g id="a_node9"><a xlink:href="namespacea60.html#a63203aef78ad674129103340323d3b63" target="_top" xlink:title="First layer.">
<polygon fill="white" stroke="#666666" points="598,-276.5 476,-276.5 476,-259.5 598,-259.5 598,-276.5"/>
<text text-anchor="middle" x="537" y="-266.1" font-family="SourceSans" font-size="8.00">a60::place_map_in_frame</text>
</a>
</g>
</g>
<!-- Node8&#45;&gt;Node9 -->
<g id="edge9" class="edge">
<title>Node8&#45;&gt;Node9</title>
<path fill="none" stroke="#63b8ff" d="M428.39,-268C440.4,-268 453.36,-268 465.97,-268"/>
<polygon fill="#63b8ff" stroke="#63b8ff" points="466,-271.5 476,-268 466,-264.5 466,-271.5"/>
</g>
<!-- Node12 -->
<g id="node12" class="node">
<title>Node12</title>
<g id="a_node12"><a xlink:href="namespacea60.html#ac7eddb2e330d8983ddc852edde5335c5" target="_top" xlink:title=" ">
<polygon fill="white" stroke="#666666" points="434.5,-230.5 315.5,-230.5 315.5,-213.5 434.5,-213.5 434.5,-230.5"/>
<text text-anchor="middle" x="375" y="-220.1" font-family="SourceSans" font-size="8.00">a60::to_lowercase_string</text>
</a>
</g>
</g>
<!-- Node11&#45;&gt;Node12 -->
<g id="edge12" class="edge">
<title>Node11&#45;&gt;Node12</title>
<path fill="none" stroke="#63b8ff" d="M271.83,-225.87C282.66,-225.46 294.12,-225.02 305.29,-224.6"/>
<polygon fill="#63b8ff" stroke="#63b8ff" points="305.58,-228.09 315.44,-224.22 305.32,-221.1 305.58,-228.09"/>
</g>
<!-- Node14&#45;&gt;Node12 -->
<g id="edge16" class="edge">
<title>Node14&#45;&gt;Node12</title>
<path fill="none" stroke="#63b8ff" d="M256.82,-153.07C262.78,-155.65 268.69,-158.63 274,-162 292.84,-173.96 291.24,-184.92 310,-197 317.88,-202.07 326.96,-206.39 335.75,-209.93"/>
<polygon fill="#63b8ff" stroke="#63b8ff" points="334.51,-213.21 345.1,-213.47 336.99,-206.66 334.51,-213.21"/>
</g>
<!-- Node15 -->
<g id="node15" class="node">
<title>Node15</title>
<g id="a_node15"><a xlink:href="structa60_1_1collection.html#a25b35cf4ac39da89d868fe2cf41b5acd" target="_top" xlink:title=" ">
<polygon fill="white" stroke="#666666" points="440,-187.5 310,-187.5 310,-170.5 440,-170.5 440,-187.5"/>
<text text-anchor="middle" x="375" y="-177.1" font-family="SourceSans" font-size="8.00">a60::collection::slice_name</text>
</a>
</g>
</g>
<!-- Node14&#45;&gt;Node15 -->
<g id="edge15" class="edge">
<title>Node14&#45;&gt;Node15</title>
<path fill="none" stroke="#63b8ff" d="M266.09,-152.45C286.45,-157.46 309.74,-163.19 329.46,-168.04"/>
<polygon fill="#63b8ff" stroke="#63b8ff" points="328.86,-171.5 339.41,-170.49 330.53,-164.7 328.86,-171.5"/>
</g>
<!-- Node16 -->
<g id="node16" class="node">
<title>Node16</title>
<g id="a_node16"><a xlink:href="namespacea60.html#a11d9ffc210e8dca8410e7a5ad62deabc" target="_top" xlink:title=" ">
<polygon fill="white" stroke="#666666" points="431.5,-152 318.5,-152 318.5,-126 431.5,-126 431.5,-152"/>
<text text-anchor="start" x="326.5" y="-141.6" font-family="SourceSans" font-size="8.00">a60::to_replace_spaces</text>
<text text-anchor="middle" x="375" y="-132.6" font-family="SourceSans" font-size="8.00">_string</text>
</a>
</g>
</g>
<!-- Node14&#45;&gt;Node16 -->
<g id="edge17" class="edge">
<title>Node14&#45;&gt;Node16</title>
<path fill="none" stroke="#63b8ff" d="M266.09,-139.68C279.5,-139.6 294.18,-139.5 308.27,-139.41"/>
<polygon fill="#63b8ff" stroke="#63b8ff" points="308.43,-142.91 318.4,-139.35 308.38,-135.91 308.43,-142.91"/>
</g>
<!-- Node17 -->
<g id="node17" class="node">
<title>Node17</title>
<g id="a_node17"><a xlink:href="namespacea60.html#a751f954fe64233f1dc6517220e4b5692" target="_top" xlink:title=" ">
<polygon fill="white" stroke="#666666" points="590.5,-147.5 483.5,-147.5 483.5,-130.5 590.5,-130.5 590.5,-147.5"/>
<text text-anchor="middle" x="537" y="-137.1" font-family="SourceSans" font-size="8.00">a60::to_replace_string</text>
</a>
</g>
</g>
<!-- Node16&#45;&gt;Node17 -->
<g id="edge18" class="edge">
<title>Node16&#45;&gt;Node17</title>
<path fill="none" stroke="#63b8ff" d="M431.51,-139C444.89,-139 459.28,-139 472.97,-139"/>
<polygon fill="#63b8ff" stroke="#63b8ff" points="473.28,-142.5 483.28,-139 473.28,-135.5 473.28,-142.5"/>
</g>
<!-- Node19 -->
<g id="node19" class="node">
<title>Node19</title>
<g id="a_node19"><a xlink:href="namespacea60_1_1io.html#aea30b8fc474f5a7b922516dc1e199037" target="_top" xlink:title="Takes a string representing a directory, returns a sorted list of contents as a std::vector&lt;string&gt;.">
<polygon fill="white" stroke="#666666" points="430,-105.5 320,-105.5 320,-88.5 430,-88.5 430,-105.5"/>
<text text-anchor="middle" x="375" y="-95.1" font-family="SourceSans" font-size="8.00">a60::io::populate_files</text>
</a>
</g>
</g>
<!-- Node18&#45;&gt;Node19 -->
<g id="edge20" class="edge">
<title>Node18&#45;&gt;Node19</title>
<path fill="none" stroke="#63b8ff" d="M270.05,-96.34C282.77,-96.42 296.43,-96.51 309.53,-96.59"/>
<polygon fill="#63b8ff" stroke="#63b8ff" points="309.87,-100.1 319.89,-96.66 309.91,-93.1 309.87,-100.1"/>
</g>
<!-- Node20 -->
<g id="node20" class="node">
<title>Node20</title>
<g id="a_node20"><a xlink:href="structa60_1_1collection.html#a997d47a7fc3ffcabaeba3fd74cce0d82" target="_top" xlink:title=" ">
<polygon fill="white" stroke="#666666" points="430.5,-70 319.5,-70 319.5,-44 430.5,-44 430.5,-70"/>
<text text-anchor="start" x="327.5" y="-59.6" font-family="SourceSans" font-size="8.00">a60::collection::torrent</text>
<text text-anchor="middle" x="375" y="-50.6" font-family="SourceSans" font-size="8.00">_directory</text>
</a>
</g>
</g>
<!-- Node18&#45;&gt;Node20 -->
<g id="edge21" class="edge">
<title>Node18&#45;&gt;Node20</title>
<path fill="none" stroke="#63b8ff" d="M268.72,-82.91C282.25,-79.58 296.92,-75.97 310.9,-72.53"/>
<polygon fill="#63b8ff" stroke="#63b8ff" points="312.05,-75.85 320.92,-70.06 310.37,-69.05 312.05,-75.85"/>
</g>
<!-- Node21 -->
<g id="node21" class="node">
<title>Node21</title>
<g id="a_node21"><a xlink:href="namespacea60_1_1io.html#a16f17ea9e02c1975ca17b77e46cf7629" target="_top" xlink:title="Make sure a path ends in &#39;/&#39;;.">
<polygon fill="white" stroke="#666666" points="582,-105.5 492,-105.5 492,-88.5 582,-88.5 582,-105.5"/>
<text text-anchor="middle" x="537" y="-95.1" font-family="SourceSans" font-size="8.00">a60::io::end_path</text>
</a>
</g>
</g>
<!-- Node20&#45;&gt;Node21 -->
<g id="edge22" class="edge">
<title>Node20&#45;&gt;Node21</title>
<path fill="none" stroke="#63b8ff" d="M428.39,-70.1C448.88,-75.22 472.12,-81.03 491.75,-85.94"/>
<polygon fill="#63b8ff" stroke="#63b8ff" points="491.1,-89.38 501.65,-88.41 492.8,-82.59 491.1,-89.38"/>
</g>
<!-- Node22 -->
<g id="node22" class="node">
<title>Node22</title>
<g id="a_node22"><a xlink:href="namespacea60_1_1io.html#ac95e5271a27a23bc2336d84b3f821fa2" target="_top" xlink:title="Constant filesystem and run&#45;time resources.">
<polygon fill="white" stroke="#666666" points="589,-70 485,-70 485,-44 589,-44 589,-70"/>
<text text-anchor="start" x="493" y="-59.6" font-family="SourceSans" font-size="8.00">a60::io::get_run_time</text>
<text text-anchor="middle" x="537" y="-50.6" font-family="SourceSans" font-size="8.00">_resources</text>
</a>
</g>
</g>
<!-- Node20&#45;&gt;Node22 -->
<g id="edge23" class="edge">
<title>Node20&#45;&gt;Node22</title>
<path fill="none" stroke="#63b8ff" d="M430.62,-57C444.75,-57 460.06,-57 474.52,-57"/>
<polygon fill="#63b8ff" stroke="#63b8ff" points="474.86,-60.5 484.86,-57 474.86,-53.5 474.86,-60.5"/>
</g>
<!-- Node23 -->
<g id="node23" class="node">
<title>Node23</title>
<g id="a_node23"><a xlink:href="namespacea60_1_1io.html#aa5fbb8ab63397dd45c4a54c0758935ef" target="_top" xlink:title="Sanity check input existence.">
<polygon fill="white" stroke="#666666" points="589,-26 485,-26 485,0 589,0 589,-26"/>
<text text-anchor="start" x="493" y="-15.6" font-family="SourceSans" font-size="8.00">a60::io::sanity_check</text>
<text text-anchor="middle" x="537" y="-6.6" font-family="SourceSans" font-size="8.00">_input</text>
</a>
</g>
</g>
<!-- Node20&#45;&gt;Node23 -->
<g id="edge24" class="edge">
<title>Node20&#45;&gt;Node23</title>
<path fill="none" stroke="#63b8ff" d="M423.57,-43.92C440.9,-39.15 460.68,-33.71 478.77,-28.74"/>
<polygon fill="#63b8ff" stroke="#63b8ff" points="479.9,-32.06 488.61,-26.03 478.04,-25.31 479.9,-32.06"/>
</g>
</g>
</svg>
