<?xml version="1.0" encoding="UTF-8" standalone="no"?>
<!DOCTYPE svg PUBLIC "-//W3C//DTD SVG 1.1//EN"
 "http://www.w3.org/Graphics/SVG/1.1/DTD/svg11.dtd">
<!-- Generated by graphviz version 5.0.0 (0)
 -->
<!-- Title: a60::find_duplicate_btih_in_torrent_collection Pages: 1 -->
<svg width="434pt" height="184pt"
 viewBox="0.00 0.00 434.00 183.50" xmlns="http://www.w3.org/2000/svg" xmlns:xlink="http://www.w3.org/1999/xlink">
<g id="graph0" class="graph" transform="scale(1 1) rotate(0) translate(4 179.5)">
<title>a60::find_duplicate_btih_in_torrent_collection</title>
<!-- Node1 -->
<g id="node1" class="node">
<title>Node1</title>
<g id="a_node1"><a xlink:title="Find duplicates in collection.">
<polygon fill="#999999" stroke="#666666" points="122,-108 0,-108 0,-82 122,-82 122,-108"/>
<text text-anchor="start" x="8" y="-97.6" font-family="SourceSans" font-size="8.00">a60::find_duplicate</text>
<text text-anchor="middle" x="61" y="-88.6" font-family="SourceSans" font-size="8.00">_btih_in_torrent_collection</text>
</a>
</g>
</g>
<!-- Node2 -->
<g id="node2" class="node">
<title>Node2</title>
<g id="a_node2"><a xlink:href="namespacea60.html#a2566618c7673dda7811244413176c440" target="_top" xlink:title=" ">
<polygon fill="white" stroke="#666666" points="280,-145 158,-145 158,-119 280,-119 280,-145"/>
<text text-anchor="start" x="166" y="-134.6" font-family="SourceSans" font-size="8.00">a60::find_duplicate</text>
<text text-anchor="middle" x="219" y="-125.6" font-family="SourceSans" font-size="8.00">_btih_in_torrent_collection</text>
</a>
</g>
</g>
<!-- Node1&#45;&gt;Node2 -->
<g id="edge1" class="edge">
<title>Node1&#45;&gt;Node2</title>
<path fill="none" stroke="#63b8ff" d="M117,-108.04C128.65,-110.81 141.05,-113.75 153.03,-116.59"/>
<polygon fill="#63b8ff" stroke="#63b8ff" points="152.43,-120.05 162.97,-118.95 154.05,-113.23 152.43,-120.05"/>
</g>
<!-- Node5 -->
<g id="node5" class="node">
<title>Node5</title>
<g id="a_node5"><a xlink:href="structa60_1_1collection.html#a997d47a7fc3ffcabaeba3fd74cce0d82" target="_top" xlink:title=" ">
<polygon fill="white" stroke="#666666" points="274.5,-86 163.5,-86 163.5,-60 274.5,-60 274.5,-86"/>
<text text-anchor="start" x="171.5" y="-75.6" font-family="SourceSans" font-size="8.00">a60::collection::torrent</text>
<text text-anchor="middle" x="219" y="-66.6" font-family="SourceSans" font-size="8.00">_directory</text>
</a>
</g>
</g>
<!-- Node1&#45;&gt;Node5 -->
<g id="edge4" class="edge">
<title>Node1&#45;&gt;Node5</title>
<path fill="none" stroke="#63b8ff" d="M122.31,-86.49C132.47,-85.06 143.06,-83.57 153.32,-82.12"/>
<polygon fill="#63b8ff" stroke="#63b8ff" points="154.04,-85.55 163.45,-80.69 153.06,-78.62 154.04,-85.55"/>
</g>
<!-- Node3 -->
<g id="node3" class="node">
<title>Node3</title>
<g id="a_node3"><a xlink:href="namespacea60_1_1io.html#aea30b8fc474f5a7b922516dc1e199037" target="_top" xlink:title="Takes a string representing a directory, returns a sorted list of contents as a std::vector&lt;string&gt;.">
<polygon fill="white" stroke="#666666" points="426,-175.5 316,-175.5 316,-158.5 426,-158.5 426,-175.5"/>
<text text-anchor="middle" x="371" y="-165.1" font-family="SourceSans" font-size="8.00">a60::io::populate_files</text>
</a>
</g>
</g>
<!-- Node2&#45;&gt;Node3 -->
<g id="edge2" class="edge">
<title>Node2&#45;&gt;Node3</title>
<path fill="none" stroke="#63b8ff" d="M275.85,-145.03C291.42,-148.66 308.17,-152.57 323.15,-156.07"/>
<polygon fill="#63b8ff" stroke="#63b8ff" points="322.68,-159.55 333.22,-158.42 324.27,-152.74 322.68,-159.55"/>
</g>
<!-- Node4 -->
<g id="node4" class="node">
<title>Node4</title>
<g id="a_node4"><a xlink:href="namespacea60_1_1io.html#af9ba5ecc6e668e47fb2f020216f7b611" target="_top" xlink:title="Strip off path component from full&#45;qualified filename.">
<polygon fill="white" stroke="#666666" points="420,-140.5 322,-140.5 322,-123.5 420,-123.5 420,-140.5"/>
<text text-anchor="middle" x="371" y="-130.1" font-family="SourceSans" font-size="8.00">a60::io::prune_path</text>
</a>
</g>
</g>
<!-- Node2&#45;&gt;Node4 -->
<g id="edge3" class="edge">
<title>Node2&#45;&gt;Node4</title>
<path fill="none" stroke="#63b8ff" d="M280.15,-132C290.54,-132 301.33,-132 311.67,-132"/>
<polygon fill="#63b8ff" stroke="#63b8ff" points="311.83,-135.5 321.83,-132 311.83,-128.5 311.83,-135.5"/>
</g>
<!-- Node6 -->
<g id="node6" class="node">
<title>Node6</title>
<g id="a_node6"><a xlink:href="namespacea60_1_1io.html#a16f17ea9e02c1975ca17b77e46cf7629" target="_top" xlink:title="Make sure a path ends in &#39;/&#39;;.">
<polygon fill="white" stroke="#666666" points="416,-105.5 326,-105.5 326,-88.5 416,-88.5 416,-105.5"/>
<text text-anchor="middle" x="371" y="-95.1" font-family="SourceSans" font-size="8.00">a60::io::end_path</text>
</a>
</g>
</g>
<!-- Node5&#45;&gt;Node6 -->
<g id="edge5" class="edge">
<title>Node5&#45;&gt;Node6</title>
<path fill="none" stroke="#63b8ff" d="M274.58,-81.73C287.93,-83.87 302.21,-86.15 315.56,-88.29"/>
<polygon fill="#63b8ff" stroke="#63b8ff" points="315.12,-91.76 325.55,-89.89 316.23,-84.85 315.12,-91.76"/>
</g>
<!-- Node7 -->
<g id="node7" class="node">
<title>Node7</title>
<g id="a_node7"><a xlink:href="namespacea60_1_1io.html#ac95e5271a27a23bc2336d84b3f821fa2" target="_top" xlink:title="Constant filesystem and run&#45;time resources.">
<polygon fill="white" stroke="#666666" points="423,-70 319,-70 319,-44 423,-44 423,-70"/>
<text text-anchor="start" x="327" y="-59.6" font-family="SourceSans" font-size="8.00">a60::io::get_run_time</text>
<text text-anchor="middle" x="371" y="-50.6" font-family="SourceSans" font-size="8.00">_resources</text>
</a>
</g>
</g>
<!-- Node5&#45;&gt;Node7 -->
<g id="edge6" class="edge">
<title>Node5&#45;&gt;Node7</title>
<path fill="none" stroke="#63b8ff" d="M274.58,-67.18C285.61,-66 297.28,-64.76 308.53,-63.56"/>
<polygon fill="#63b8ff" stroke="#63b8ff" points="309.14,-67.01 318.71,-62.47 308.39,-60.05 309.14,-67.01"/>
</g>
<!-- Node8 -->
<g id="node8" class="node">
<title>Node8</title>
<g id="a_node8"><a xlink:href="namespacea60_1_1io.html#aa5fbb8ab63397dd45c4a54c0758935ef" target="_top" xlink:title="Sanity check input existence.">
<polygon fill="white" stroke="#666666" points="423,-26 319,-26 319,0 423,0 423,-26"/>
<text text-anchor="start" x="327" y="-15.6" font-family="SourceSans" font-size="8.00">a60::io::sanity_check</text>
<text text-anchor="middle" x="371" y="-6.6" font-family="SourceSans" font-size="8.00">_input</text>
</a>
</g>
</g>
<!-- Node5&#45;&gt;Node8 -->
<g id="edge7" class="edge">
<title>Node5&#45;&gt;Node8</title>
<path fill="none" stroke="#63b8ff" d="M252.55,-59.98C274.59,-51.17 303.91,-39.43 327.75,-29.9"/>
<polygon fill="#63b8ff" stroke="#63b8ff" points="329.27,-33.06 337.26,-26.1 326.67,-26.56 329.27,-33.06"/>
</g>
</g>
</svg>
