<?xml version="1.0" encoding="UTF-8" standalone="no"?>
<!DOCTYPE svg PUBLIC "-//W3C//DTD SVG 1.1//EN"
 "http://www.w3.org/Graphics/SVG/1.1/DTD/svg11.dtd">
<!-- Generated by graphviz version 5.0.0 (0)
 -->
<!-- Title: a60::augment_meta_peers Pages: 1 -->
<svg width="286pt" height="78pt"
 viewBox="0.00 0.00 286.00 78.00" xmlns="http://www.w3.org/2000/svg" xmlns:xlink="http://www.w3.org/1999/xlink">
<g id="graph0" class="graph" transform="scale(1 1) rotate(0) translate(4 74)">
<title>a60::augment_meta_peers</title>
<!-- Node1 -->
<g id="node1" class="node">
<title>Node1</title>
<g id="a_node1"><a xlink:title=" ">
<polygon fill="#999999" stroke="#666666" points="127,-43.5 0,-43.5 0,-26.5 127,-26.5 127,-43.5"/>
<text text-anchor="middle" x="63.5" y="-33.1" font-family="SourceSans" font-size="8.00">a60::augment_meta_peers</text>
</a>
</g>
</g>
<!-- Node2 -->
<g id="node2" class="node">
<title>Node2</title>
<g id="a_node2"><a xlink:href="namespacea60.html#a63bf2b0abf68edc3f3e74a0811fe771b" target="_top" xlink:title="Error checking support. Null Island Check (aka latitude and longitude set to zero).">
<polygon fill="white" stroke="#666666" points="274,-70 167,-70 167,-44 274,-44 274,-70"/>
<text text-anchor="start" x="175" y="-59.6" font-family="SourceSans" font-size="8.00">a60::is_meta_peer_on</text>
<text text-anchor="middle" x="220.5" y="-50.6" font-family="SourceSans" font-size="8.00">_null_island</text>
</a>
</g>
</g>
<!-- Node1&#45;&gt;Node2 -->
<g id="edge1" class="edge">
<title>Node1&#45;&gt;Node2</title>
<path fill="none" stroke="#63b8ff" d="M124.43,-43.51C135.01,-45.01 146.06,-46.58 156.73,-48.09"/>
<polygon fill="#63b8ff" stroke="#63b8ff" points="156.41,-51.58 166.8,-49.52 157.4,-44.65 156.41,-51.58"/>
</g>
<!-- Node3 -->
<g id="node3" class="node">
<title>Node3</title>
<g id="a_node3"><a xlink:href="structa60_1_1carto_1_1cartography.html#a57e14cabb4993189316e369a27752a73" target="_top" xlink:title=" ">
<polygon fill="white" stroke="#666666" points="278,-26 163,-26 163,0 278,0 278,-26"/>
<text text-anchor="start" x="171" y="-15.6" font-family="SourceSans" font-size="8.00">a60::carto::cartography</text>
<text text-anchor="middle" x="220.5" y="-6.6" font-family="SourceSans" font-size="8.00">::to_point_2d</text>
</a>
</g>
</g>
<!-- Node1&#45;&gt;Node3 -->
<g id="edge2" class="edge">
<title>Node1&#45;&gt;Node3</title>
<path fill="none" stroke="#63b8ff" d="M124.43,-26.49C133.69,-25.18 143.3,-23.82 152.7,-22.48"/>
<polygon fill="#63b8ff" stroke="#63b8ff" points="153.38,-25.92 162.78,-21.05 152.39,-18.99 153.38,-25.92"/>
</g>
</g>
</svg>
