<?xml version="1.0" encoding="UTF-8" standalone="no"?>
<!DOCTYPE svg PUBLIC "-//W3C//DTD SVG 1.1//EN"
 "http://www.w3.org/Graphics/SVG/1.1/DTD/svg11.dtd">
<!-- Generated by graphviz version 5.0.0 (0)
 -->
<!-- Title: a60::augment_sum_glyphs_2 Pages: 1 -->
<svg width="412pt" height="78pt"
 viewBox="0.00 0.00 412.00 78.00" xmlns="http://www.w3.org/2000/svg" xmlns:xlink="http://www.w3.org/1999/xlink">
<g id="graph0" class="graph" transform="scale(1 1) rotate(0) translate(4 74)">
<title>a60::augment_sum_glyphs_2</title>
<!-- Node1 -->
<g id="node1" class="node">
<title>Node1</title>
<g id="a_node1"><a xlink:title="Swarm_mode dominates.">
<polygon fill="#999999" stroke="#666666" points="136,-34 0,-34 0,-17 136,-17 136,-34"/>
<text text-anchor="middle" x="68" y="-23.6" font-family="SourceSans" font-size="8.00">a60::augment_sum_glyphs_2</text>
</a>
</g>
</g>
<!-- Node2 -->
<g id="node2" class="node">
<title>Node2</title>
<g id="a_node2"><a xlink:href="namespacea60.html#ac2702e5ee0d3e84919043e65e486f8cc" target="_top" xlink:title="Swarm_mode dominates.">
<polygon fill="white" stroke="#666666" points="294,-52 172,-52 172,-35 294,-35 294,-52"/>
<text text-anchor="middle" x="233" y="-41.6" font-family="SourceSans" font-size="8.00">a60::augment_sum_glyph</text>
</a>
</g>
</g>
<!-- Node1&#45;&gt;Node2 -->
<g id="edge1" class="edge">
<title>Node1&#45;&gt;Node2</title>
<path fill="none" stroke="#63b8ff" d="M136.24,-32.93C144.66,-33.85 153.28,-34.81 161.74,-35.74"/>
<polygon fill="#63b8ff" stroke="#63b8ff" points="161.63,-39.25 171.96,-36.87 162.4,-32.29 161.63,-39.25"/>
</g>
<!-- Node4 -->
<g id="node4" class="node">
<title>Node4</title>
<g id="a_node4"><a xlink:href="namespacea60.html#a75f5d9553ad7cfab9f6af56253bc746d" target="_top" xlink:title="Sum over vector glyphs, return as new summary glyph.">
<polygon fill="white" stroke="#666666" points="276,-17 190,-17 190,0 276,0 276,-17"/>
<text text-anchor="middle" x="233" y="-6.6" font-family="SourceSans" font-size="8.00">a60::sum_glyphs</text>
</a>
</g>
</g>
<!-- Node1&#45;&gt;Node4 -->
<g id="edge4" class="edge">
<title>Node1&#45;&gt;Node4</title>
<path fill="none" stroke="#63b8ff" d="M136.24,-18.49C150.64,-16.99 165.64,-15.42 179.39,-13.99"/>
<polygon fill="#63b8ff" stroke="#63b8ff" points="180.05,-17.44 189.63,-12.92 179.32,-10.48 180.05,-17.44"/>
</g>
<!-- Node3 -->
<g id="node3" class="node">
<title>Node3</title>
<g id="a_node3"><a xlink:href="namespacea60.html#a4e8b0cabed112734147b499bf0cc9029" target="_top" xlink:title="Conversion of resolution_mode to string.">
<polygon fill="white" stroke="#666666" points="404,-52 330,-52 330,-35 404,-35 404,-52"/>
<text text-anchor="middle" x="367" y="-41.6" font-family="SourceSans" font-size="8.00">a60::to_string</text>
</a>
</g>
</g>
<!-- Node2&#45;&gt;Node3 -->
<g id="edge2" class="edge">
<title>Node2&#45;&gt;Node3</title>
<path fill="none" stroke="#63b8ff" d="M294.21,-43.5C302.72,-43.5 311.36,-43.5 319.55,-43.5"/>
<polygon fill="#63b8ff" stroke="#63b8ff" points="319.66,-47 329.66,-43.5 319.66,-40 319.66,-47"/>
</g>
<!-- Node3&#45;&gt;Node3 -->
<g id="edge3" class="edge">
<title>Node3&#45;&gt;Node3</title>
<path fill="none" stroke="#63b8ff" d="M347.03,-52.19C336,-60.67 342.66,-70 367,-70 382.97,-70 391.33,-65.98 392.07,-60.82"/>
<polygon fill="#63b8ff" stroke="#63b8ff" points="395.07,-59.01 386.97,-52.19 389.04,-62.58 395.07,-59.01"/>
</g>
</g>
</svg>
