<?xml version="1.0" encoding="UTF-8" standalone="no"?>
<!DOCTYPE svg PUBLIC "-//W3C//DTD SVG 1.1//EN"
 "http://www.w3.org/Graphics/SVG/1.1/DTD/svg11.dtd">
<!-- Generated by graphviz version 5.0.0 (0)
 -->
<!-- Title: a60::augment_ccollection_vector_cloud Pages: 1 -->
<svg width="446pt" height="122pt"
 viewBox="0.00 0.00 446.00 121.50" xmlns="http://www.w3.org/2000/svg" xmlns:xlink="http://www.w3.org/1999/xlink">
<g id="graph0" class="graph" transform="scale(1 1) rotate(0) translate(4 117.5)">
<title>a60::augment_ccollection_vector_cloud</title>
<!-- Node1 -->
<g id="node1" class="node">
<title>Node1</title>
<g id="a_node1"><a xlink:title=" ">
<polygon fill="#999999" stroke="#666666" points="123,-74.5 0,-74.5 0,-48.5 123,-48.5 123,-74.5"/>
<text text-anchor="start" x="8" y="-64.1" font-family="SourceSans" font-size="8.00">a60::augment_ccollection</text>
<text text-anchor="middle" x="61.5" y="-55.1" font-family="SourceSans" font-size="8.00">_vector_cloud</text>
</a>
</g>
</g>
<!-- Node2 -->
<g id="node2" class="node">
<title>Node2</title>
<g id="a_node2"><a xlink:href="namespacea60.html#a1594609e9578c9bedb5751e6b0674c28" target="_top" xlink:title=" ">
<polygon fill="white" stroke="#666666" points="284,-70 162,-70 162,-53 284,-53 284,-70"/>
<text text-anchor="middle" x="223" y="-59.6" font-family="SourceSans" font-size="8.00">a60::augment_geo_peers</text>
</a>
</g>
</g>
<!-- Node1&#45;&gt;Node2 -->
<g id="edge1" class="edge">
<title>Node1&#45;&gt;Node2</title>
<path fill="none" stroke="#63b8ff" d="M123.26,-61.5C132.56,-61.5 142.24,-61.5 151.74,-61.5"/>
<polygon fill="#63b8ff" stroke="#63b8ff" points="151.94,-65 161.94,-61.5 151.94,-58 151.94,-65"/>
</g>
<!-- Node5 -->
<g id="node5" class="node">
<title>Node5</title>
<g id="a_node5"><a xlink:href="namespacea60.html#a1e6677c479d89336c9f30a6eae2ff1d8" target="_top" xlink:title=" ">
<polygon fill="white" stroke="#666666" points="287,-105 159,-105 159,-88 287,-88 287,-105"/>
<text text-anchor="middle" x="223" y="-94.6" font-family="SourceSans" font-size="8.00">a60::augment_wgeo_peers</text>
</a>
</g>
</g>
<!-- Node1&#45;&gt;Node5 -->
<g id="edge4" class="edge">
<title>Node1&#45;&gt;Node5</title>
<path fill="none" stroke="#63b8ff" d="M121.89,-74.53C138.76,-78.23 156.93,-82.22 173.11,-85.77"/>
<polygon fill="#63b8ff" stroke="#63b8ff" points="172.37,-89.19 182.89,-87.92 173.87,-82.35 172.37,-89.19"/>
</g>
<!-- Node6 -->
<g id="node6" class="node">
<title>Node6</title>
<g id="a_node6"><a xlink:href="namespacea60.html#a4e8b0cabed112734147b499bf0cc9029" target="_top" xlink:title="Conversion of resolution_mode to string.">
<polygon fill="white" stroke="#666666" points="260,-17 186,-17 186,0 260,0 260,-17"/>
<text text-anchor="middle" x="223" y="-6.6" font-family="SourceSans" font-size="8.00">a60::to_string</text>
</a>
</g>
</g>
<!-- Node1&#45;&gt;Node6 -->
<g id="edge7" class="edge">
<title>Node1&#45;&gt;Node6</title>
<path fill="none" stroke="#63b8ff" d="M101.93,-48.4C127.83,-39.79 161.42,-28.63 186.49,-20.3"/>
<polygon fill="#63b8ff" stroke="#63b8ff" points="187.6,-23.62 195.98,-17.15 185.39,-16.98 187.6,-23.62"/>
</g>
<!-- Node3 -->
<g id="node3" class="node">
<title>Node3</title>
<g id="a_node3"><a xlink:href="namespacea60_1_1geo.html#ac883e224021a4d5d0ac4c2d307f4808a" target="_top" xlink:title="Error checking for common anomalies.">
<polygon fill="white" stroke="#666666" points="430.5,-113.5 330.5,-113.5 330.5,-87.5 430.5,-87.5 430.5,-113.5"/>
<text text-anchor="start" x="338.5" y="-103.1" font-family="SourceSans" font-size="8.00">a60::geo::is_on_null</text>
<text text-anchor="middle" x="380.5" y="-94.1" font-family="SourceSans" font-size="8.00">_island</text>
</a>
</g>
</g>
<!-- Node2&#45;&gt;Node3 -->
<g id="edge2" class="edge">
<title>Node2&#45;&gt;Node3</title>
<path fill="none" stroke="#63b8ff" d="M258.13,-70.06C276.42,-74.65 299.47,-80.43 320.56,-85.72"/>
<polygon fill="#63b8ff" stroke="#63b8ff" points="319.86,-89.15 330.41,-88.19 321.56,-82.36 319.86,-89.15"/>
</g>
<!-- Node4 -->
<g id="node4" class="node">
<title>Node4</title>
<g id="a_node4"><a xlink:href="structa60_1_1carto_1_1cartography.html#a57e14cabb4993189316e369a27752a73" target="_top" xlink:title=" ">
<polygon fill="white" stroke="#666666" points="438,-69.5 323,-69.5 323,-43.5 438,-43.5 438,-69.5"/>
<text text-anchor="start" x="331" y="-59.1" font-family="SourceSans" font-size="8.00">a60::carto::cartography</text>
<text text-anchor="middle" x="380.5" y="-50.1" font-family="SourceSans" font-size="8.00">::to_point_2d</text>
</a>
</g>
</g>
<!-- Node2&#45;&gt;Node4 -->
<g id="edge3" class="edge">
<title>Node2&#45;&gt;Node4</title>
<path fill="none" stroke="#63b8ff" d="M284.12,-59.57C293.47,-59.27 303.18,-58.95 312.67,-58.65"/>
<polygon fill="#63b8ff" stroke="#63b8ff" points="312.97,-62.14 322.85,-58.32 312.75,-55.14 312.97,-62.14"/>
</g>
<!-- Node5&#45;&gt;Node3 -->
<g id="edge5" class="edge">
<title>Node5&#45;&gt;Node3</title>
<path fill="none" stroke="#63b8ff" d="M287.25,-98.13C298.08,-98.41 309.3,-98.69 320.03,-98.97"/>
<polygon fill="#63b8ff" stroke="#63b8ff" points="320.05,-102.47 330.14,-99.23 320.23,-95.47 320.05,-102.47"/>
</g>
<!-- Node5&#45;&gt;Node4 -->
<g id="edge6" class="edge">
<title>Node5&#45;&gt;Node4</title>
<path fill="none" stroke="#63b8ff" d="M257.36,-87.92C275.31,-83.3 298.01,-77.46 318.95,-72.08"/>
<polygon fill="#63b8ff" stroke="#63b8ff" points="319.93,-75.44 328.74,-69.56 318.19,-68.66 319.93,-75.44"/>
</g>
<!-- Node6&#45;&gt;Node6 -->
<g id="edge8" class="edge">
<title>Node6&#45;&gt;Node6</title>
<path fill="none" stroke="#63b8ff" d="M199.76,-17.19C186.92,-25.67 194.66,-35 223,-35 242.04,-35 251.78,-30.79 252.23,-25.45"/>
<polygon fill="#63b8ff" stroke="#63b8ff" points="254.95,-23.23 246.24,-17.19 249.28,-27.34 254.95,-23.23"/>
</g>
</g>
</svg>
