<?xml version="1.0" encoding="UTF-8" standalone="no"?>
<!DOCTYPE svg PUBLIC "-//W3C//DTD SVG 1.1//EN"
 "http://www.w3.org/Graphics/SVG/1.1/DTD/svg11.dtd">
<!-- Generated by graphviz version 5.0.0 (0)
 -->
<!-- Title: a60::carto::get_slices_trio_v_s Pages: 1 -->
<svg width="260pt" height="70pt"
 viewBox="0.00 0.00 260.00 69.50" xmlns="http://www.w3.org/2000/svg" xmlns:xlink="http://www.w3.org/1999/xlink">
<g id="graph0" class="graph" transform="scale(1 1) rotate(0) translate(4 65.5)">
<title>a60::carto::get_slices_trio_v_s</title>
<!-- Node1 -->
<g id="node1" class="node">
<title>Node1</title>
<g id="a_node1"><a xlink:title=" ">
<polygon fill="#999999" stroke="#666666" points="106,-41.5 0,-41.5 0,-15.5 106,-15.5 106,-41.5"/>
<text text-anchor="start" x="8" y="-31.1" font-family="SourceSans" font-size="8.00">a60::carto::get_slices</text>
<text text-anchor="middle" x="53" y="-22.1" font-family="SourceSans" font-size="8.00">_trio_v_s</text>
</a>
</g>
</g>
<!-- Node2 -->
<g id="node2" class="node">
<title>Node2</title>
<g id="a_node2"><a xlink:href="structa60_1_1carto_1_1frame.html#a991c85ae945ad0513554cae7a42b8002" target="_top" xlink:title=" ">
<polygon fill="white" stroke="#666666" points="244.5,-61.5 149.5,-61.5 149.5,-35.5 244.5,-35.5 244.5,-61.5"/>
<text text-anchor="start" x="157.5" y="-51.1" font-family="SourceSans" font-size="8.00">a60::carto::frame::</text>
<text text-anchor="middle" x="197" y="-42.1" font-family="SourceSans" font-size="8.00">bottom_tile_frame</text>
</a>
</g>
</g>
<!-- Node1&#45;&gt;Node2 -->
<g id="edge1" class="edge">
<title>Node1&#45;&gt;Node2</title>
<path fill="none" stroke="#63b8ff" d="M106.07,-35.83C116.75,-37.34 128.04,-38.93 138.88,-40.46"/>
<polygon fill="#63b8ff" stroke="#63b8ff" points="138.72,-43.97 149.11,-41.9 139.69,-37.03 138.72,-43.97"/>
</g>
<!-- Node3 -->
<g id="node3" class="node">
<title>Node3</title>
<g id="a_node3"><a xlink:href="namespacea60_1_1constants.html#a4eca9d522711df25806d6dd1ff38e904" target="_top" xlink:title=" ">
<polygon fill="white" stroke="#666666" points="252,-17 142,-17 142,0 252,0 252,-17"/>
<text text-anchor="middle" x="197" y="-6.6" font-family="SourceSans" font-size="8.00">a60::constants::space</text>
</a>
</g>
</g>
<!-- Node1&#45;&gt;Node3 -->
<g id="edge2" class="edge">
<title>Node1&#45;&gt;Node3</title>
<path fill="none" stroke="#63b8ff" d="M106.07,-21.17C114.38,-20 123.05,-18.77 131.6,-17.57"/>
<polygon fill="#63b8ff" stroke="#63b8ff" points="132.14,-21.03 141.55,-16.17 131.16,-14.1 132.14,-21.03"/>
</g>
</g>
</svg>
