<?xml version="1.0" encoding="UTF-8" standalone="no"?>
<!DOCTYPE svg PUBLIC "-//W3C//DTD SVG 1.1//EN"
 "http://www.w3.org/Graphics/SVG/1.1/DTD/svg11.dtd">
<!-- Generated by graphviz version 5.0.0 (0)
 -->
<!-- Title: a60::weigh_unique_collection Pages: 1 -->
<svg width="288pt" height="78pt"
 viewBox="0.00 0.00 288.00 78.00" xmlns="http://www.w3.org/2000/svg" xmlns:xlink="http://www.w3.org/1999/xlink">
<g id="graph0" class="graph" transform="scale(1 1) rotate(0) translate(4 74)">
<title>a60::weigh_unique_collection</title>
<!-- Node1 -->
<g id="node1" class="node">
<title>Node1</title>
<g id="a_node1"><a xlink:title=" ">
<polygon fill="#999999" stroke="#666666" points="139,-43.5 0,-43.5 0,-26.5 139,-26.5 139,-43.5"/>
<text text-anchor="middle" x="69.5" y="-33.1" font-family="SourceSans" font-size="8.00">a60::weigh_unique_collection</text>
</a>
</g>
</g>
<!-- Node2 -->
<g id="node2" class="node">
<title>Node2</title>
<g id="a_node2"><a xlink:href="structa60_1_1swarm__gcache.html#a52c65b0040757a229beb63361678c73b" target="_top" xlink:title="Count of total added before weighing, should match weights &#45; anomalies.">
<polygon fill="white" stroke="#666666" points="280,-70 175,-70 175,-44 280,-44 280,-70"/>
<text text-anchor="start" x="183" y="-59.6" font-family="SourceSans" font-size="8.00">a60::swarm_gcache::</text>
<text text-anchor="middle" x="227.5" y="-50.6" font-family="SourceSans" font-size="8.00">summarize_totals</text>
</a>
</g>
</g>
<!-- Node1&#45;&gt;Node2 -->
<g id="edge1" class="edge">
<title>Node1&#45;&gt;Node2</title>
<path fill="none" stroke="#63b8ff" d="M130.81,-43.51C141.97,-45.08 153.64,-46.73 164.84,-48.3"/>
<polygon fill="#63b8ff" stroke="#63b8ff" points="164.57,-51.8 174.97,-49.73 165.55,-44.87 164.57,-51.8"/>
</g>
<!-- Node3 -->
<g id="node3" class="node">
<title>Node3</title>
<g id="a_node3"><a xlink:href="structa60_1_1swarm__gcache.html#af7d9f24d11c6fd83baf2f2593034a6c4" target="_top" xlink:title="Insert ranked peers into ordered set. Top n will be the first n results. Input depends on peer or see...">
<polygon fill="white" stroke="#666666" points="280,-26 175,-26 175,0 280,0 280,-26"/>
<text text-anchor="start" x="183" y="-15.6" font-family="SourceSans" font-size="8.00">a60::swarm_gcache::</text>
<text text-anchor="middle" x="227.5" y="-6.6" font-family="SourceSans" font-size="8.00">weigh</text>
</a>
</g>
</g>
<!-- Node1&#45;&gt;Node3 -->
<g id="edge2" class="edge">
<title>Node1&#45;&gt;Node3</title>
<path fill="none" stroke="#63b8ff" d="M130.81,-26.49C141.97,-24.92 153.64,-23.27 164.84,-21.7"/>
<polygon fill="#63b8ff" stroke="#63b8ff" points="165.55,-25.13 174.97,-20.27 164.57,-18.2 165.55,-25.13"/>
</g>
</g>
</svg>
