<?xml version="1.0" encoding="UTF-8" standalone="no"?>
<!DOCTYPE svg PUBLIC "-//W3C//DTD SVG 1.1//EN"
 "http://www.w3.org/Graphics/SVG/1.1/DTD/svg11.dtd">
<!-- Generated by graphviz version 5.0.0 (0)
 -->
<!-- Title: a60::metadata::diptych_xdipoles Pages: 1 -->
<svg width="412pt" height="78pt"
 viewBox="0.00 0.00 412.00 78.00" xmlns="http://www.w3.org/2000/svg" xmlns:xlink="http://www.w3.org/1999/xlink">
<g id="graph0" class="graph" transform="scale(1 1) rotate(0) translate(4 74)">
<title>a60::metadata::diptych_xdipoles</title>
<!-- Node1 -->
<g id="node1" class="node">
<title>Node1</title>
<g id="a_node1"><a xlink:title="Find the center points of horizontal (left and right) diptych circles.">
<polygon fill="#999999" stroke="#666666" points="114,-48 0,-48 0,-22 114,-22 114,-48"/>
<text text-anchor="start" x="8" y="-37.6" font-family="SourceSans" font-size="8.00">a60::metadata::diptych</text>
<text text-anchor="middle" x="57" y="-28.6" font-family="SourceSans" font-size="8.00">_xdipoles</text>
</a>
</g>
</g>
<!-- Node2 -->
<g id="node2" class="node">
<title>Node2</title>
<g id="a_node2"><a xlink:href="namespacea60_1_1constants.html#a613cac7d85819a545849f5eefd733896" target="_top" xlink:title=" ">
<polygon fill="white" stroke="#666666" points="251,-70 150,-70 150,-44 251,-44 251,-70"/>
<text text-anchor="start" x="158" y="-59.6" font-family="SourceSans" font-size="8.00">a60::constants::age</text>
<text text-anchor="middle" x="200.5" y="-50.6" font-family="SourceSans" font-size="8.00">_value_to_multiple</text>
</a>
</g>
</g>
<!-- Node1&#45;&gt;Node2 -->
<g id="edge1" class="edge">
<title>Node1&#45;&gt;Node2</title>
<path fill="none" stroke="#63b8ff" d="M114.33,-43.76C122.66,-45.05 131.27,-46.39 139.66,-47.7"/>
<polygon fill="#63b8ff" stroke="#63b8ff" points="139.35,-51.19 149.77,-49.27 140.42,-44.27 139.35,-51.19"/>
</g>
<!-- Node4 -->
<g id="node4" class="node">
<title>Node4</title>
<g id="a_node4"><a xlink:href="namespacea60_1_1metadata.html#ae3aa31b1fc054034f40b30f22bf0d4b8" target="_top" xlink:title="Find orbit of ring, given radius, rspace, and number ring. Assume: ringsn starts with 1 for values an...">
<polygon fill="white" stroke="#666666" points="250.5,-26 150.5,-26 150.5,0 250.5,0 250.5,-26"/>
<text text-anchor="start" x="158.5" y="-15.6" font-family="SourceSans" font-size="8.00">a60::metadata::ring</text>
<text text-anchor="middle" x="200.5" y="-6.6" font-family="SourceSans" font-size="8.00">_radius</text>
</a>
</g>
</g>
<!-- Node1&#45;&gt;Node4 -->
<g id="edge3" class="edge">
<title>Node1&#45;&gt;Node4</title>
<path fill="none" stroke="#63b8ff" d="M114.33,-26.24C122.86,-24.92 131.68,-23.54 140.27,-22.21"/>
<polygon fill="#63b8ff" stroke="#63b8ff" points="140.88,-25.66 150.22,-20.66 139.8,-18.74 140.88,-25.66"/>
</g>
<!-- Node3 -->
<g id="node3" class="node">
<title>Node3</title>
<g id="a_node3"><a xlink:href="namespacea60_1_1constants.html#ac27c77e4606552ae5f74a1c21dd9258e" target="_top" xlink:title=" ">
<polygon fill="white" stroke="#666666" points="404,-65.5 287,-65.5 287,-48.5 404,-48.5 404,-65.5"/>
<text text-anchor="middle" x="345.5" y="-55.1" font-family="SourceSans" font-size="8.00">a60::constants::newline</text>
</a>
</g>
</g>
<!-- Node2&#45;&gt;Node3 -->
<g id="edge2" class="edge">
<title>Node2&#45;&gt;Node3</title>
<path fill="none" stroke="#63b8ff" d="M251.11,-57C259.35,-57 268.01,-57 276.6,-57"/>
<polygon fill="#63b8ff" stroke="#63b8ff" points="276.62,-60.5 286.62,-57 276.62,-53.5 276.62,-60.5"/>
</g>
</g>
</svg>
