<?xml version="1.0" encoding="UTF-8" standalone="no"?>
<!DOCTYPE svg PUBLIC "-//W3C//DTD SVG 1.1//EN"
 "http://www.w3.org/Graphics/SVG/1.1/DTD/svg11.dtd">
<!-- Generated by graphviz version 5.0.0 (0)
 -->
<!-- Title: a60::augment_collection_titles_4 Pages: 1 -->
<svg width="285pt" height="70pt"
 viewBox="0.00 0.00 285.00 69.50" xmlns="http://www.w3.org/2000/svg" xmlns:xlink="http://www.w3.org/1999/xlink">
<g id="graph0" class="graph" transform="scale(1 1) rotate(0) translate(4 65.5)">
<title>a60::augment_collection_titles_4</title>
<!-- Node1 -->
<g id="node1" class="node">
<title>Node1</title>
<g id="a_node1"><a xlink:title=" ">
<polygon fill="#999999" stroke="#666666" points="119,-46 0,-46 0,-20 119,-20 119,-46"/>
<text text-anchor="start" x="8" y="-35.6" font-family="SourceSans" font-size="8.00">a60::augment_collection</text>
<text text-anchor="middle" x="59.5" y="-26.6" font-family="SourceSans" font-size="8.00">_titles_4</text>
</a>
</g>
</g>
<!-- Node2 -->
<g id="node2" class="node">
<title>Node2</title>
<g id="a_node2"><a xlink:href="namespacea60_1_1carto.html#af59ef7858ef576e7f17b781f38436f28" target="_top" xlink:title=" ">
<polygon fill="white" stroke="#666666" points="277,-61.5 155,-61.5 155,-44.5 277,-44.5 277,-61.5"/>
<text text-anchor="middle" x="216" y="-51.1" font-family="SourceSans" font-size="8.00">a60::carto::frame_margin</text>
</a>
</g>
</g>
<!-- Node1&#45;&gt;Node2 -->
<g id="edge1" class="edge">
<title>Node1&#45;&gt;Node2</title>
<path fill="none" stroke="#63b8ff" d="M119.35,-40.62C127.69,-41.7 136.33,-42.82 144.85,-43.92"/>
<polygon fill="#63b8ff" stroke="#63b8ff" points="144.41,-47.39 154.78,-45.2 145.31,-40.45 144.41,-47.39"/>
</g>
<!-- Node3 -->
<g id="node3" class="node">
<title>Node3</title>
<g id="a_node3"><a xlink:href="structa60_1_1collection.html#a4b5f4e6148e18b08ccc033e200327cdf" target="_top" xlink:title="Display/output name for torrent collection, including partition, episode/multiepisode,...">
<polygon fill="white" stroke="#666666" points="271,-26 161,-26 161,0 271,0 271,-26"/>
<text text-anchor="start" x="169" y="-15.6" font-family="SourceSans" font-size="8.00">a60::collection::media</text>
<text text-anchor="middle" x="216" y="-6.6" font-family="SourceSans" font-size="8.00">_object_name</text>
</a>
</g>
</g>
<!-- Node1&#45;&gt;Node3 -->
<g id="edge2" class="edge">
<title>Node1&#45;&gt;Node3</title>
<path fill="none" stroke="#63b8ff" d="M119.35,-25.38C129.58,-24.06 140.27,-22.67 150.65,-21.33"/>
<polygon fill="#63b8ff" stroke="#63b8ff" points="151.41,-24.76 160.88,-20.01 150.52,-17.82 151.41,-24.76"/>
</g>
</g>
</svg>
