<?xml version="1.0" encoding="UTF-8" standalone="no"?>
<!DOCTYPE svg PUBLIC "-//W3C//DTD SVG 1.1//EN"
 "http://www.w3.org/Graphics/SVG/1.1/DTD/svg11.dtd">
<!-- Generated by graphviz version 5.0.0 (0)
 -->
<!-- Title: a60::make_glyphs_basic Pages: 1 -->
<!--zoomable 307 -->
<svg id="main" version="1.1" xmlns="http://www.w3.org/2000/svg" xmlns:xlink="http://www.w3.org/1999/xlink" xml:space="preserve" onload="init(evt)">
<style type="text/css"><![CDATA[
.edge:hover path { stroke: red; }
.edge:hover polygon { stroke: red; fill: red; }
]]></style>
<script type="text/javascript"><![CDATA[
var edges = document.getElementsByTagName('g');
if (edges && edges.length) {
  for (var i=0;i<edges.length;i++) {
    if (edges[i].id.substr(0,4)=='edge') {
      edges[i].setAttribute('class','edge');
    }
  }
}
]]></script>
        <defs>
                <circle id="rim" cx="0" cy="0" r="7"/>
                <circle id="rim2" cx="0" cy="0" r="3.5"/>
                <g id="zoomPlus">
                        <use xlink:href="#rim" fill="#404040">
                                <set attributeName="fill" to="#808080" begin="zoomplus.mouseover" end="zoomplus.mouseout"/>
                        </use>
                        <path d="M-4,0h8M0,-4v8" fill="none" stroke="white" stroke-width="1.5" pointer-events="none"/>
                </g>
                <g id="zoomMin">
                        <use xlink:href="#rim" fill="#404040">
                                <set attributeName="fill" to="#808080" begin="zoomminus.mouseover" end="zoomminus.mouseout"/>
                        </use>
                        <path d="M-4,0h8" fill="none" stroke="white" stroke-width="1.5" pointer-events="none"/>
                </g>
                <g id="dirArrow">
                        <path fill="none" stroke="white" stroke-width="1.5" d="M0,-3.0v7 M-2.5,-0.5L0,-3.0L2.5,-0.5"/>
                </g>
               <g id="resetDef">
                       <use xlink:href="#rim2" fill="#404040">
                               <set attributeName="fill" to="#808080" begin="reset.mouseover" end="reset.mouseout"/>
                       </use>
               </g>
        </defs>

<script type="text/javascript">
var viewWidth = 561;
var viewHeight = 307;
var sectionId = 'dynsection-135';
</script>
<script xlink:href="svgpan.js"/>
<svg id="graph" class="graph">
<g id="viewport">
<title>a60::make_glyphs_basic</title>
<!-- Node1 -->
<g id="node1" class="node">
<title>Node1</title>
<g id="a_node1"><a xlink:title="Shell for titles page.">
<polygon fill="#999999" stroke="#666666" points="116,-182 0,-182 0,-165 116,-165 116,-182"/>
<text text-anchor="middle" x="58" y="-171.6" font-family="SourceSans" font-size="8.00">a60::make_glyphs_basic</text>
</a>
</g>
</g>
<!-- Node2 -->
<g id="node2" class="node">
<title>Node2</title>
<g id="a_node2"><a xlink:href="namespacea60.html#a732ca2d85679838beb92881e9f39a999" target="_top" xlink:title="Engage bittorrent, create session.">
<polygon fill="white" stroke="#666666" points="268,-299 156,-299 156,-282 268,-282 268,-299"/>
<text text-anchor="middle" x="212" y="-288.6" font-family="SourceSans" font-size="8.00">a60::configure_session</text>
</a>
</g>
</g>
<!-- Node1&#45;&gt;Node2 -->
<g id="edge1" class="edge">
<title>Node1&#45;&gt;Node2</title>
<path fill="none" stroke="#63b8ff" d="M65.52,-182.22C79.5,-200.39 114.2,-242.67 152,-267.5 158.25,-271.61 165.35,-275.16 172.41,-278.16"/>
<polygon fill="#63b8ff" stroke="#63b8ff" points="171.32,-281.49 181.91,-281.9 173.89,-274.98 171.32,-281.49"/>
</g>
<!-- Node3 -->
<g id="node3" class="node">
<title>Node3</title>
<g id="a_node3"><a xlink:href="namespacea60_1_1io.html#a16f17ea9e02c1975ca17b77e46cf7629" target="_top" xlink:title="Make sure a path ends in &#39;/&#39;;.">
<polygon fill="white" stroke="#666666" points="553,-203 463,-203 463,-186 553,-186 553,-203"/>
<text text-anchor="middle" x="508" y="-192.6" font-family="SourceSans" font-size="8.00">a60::io::end_path</text>
</a>
</g>
</g>
<!-- Node1&#45;&gt;Node3 -->
<g id="edge2" class="edge">
<title>Node1&#45;&gt;Node3</title>
<path fill="none" stroke="#63b8ff" d="M72.85,-182.03C90.47,-192.33 122.21,-209.09 152,-215.5 260.79,-238.93 392.37,-218.95 460.72,-205.08"/>
<polygon fill="#63b8ff" stroke="#63b8ff" points="461.66,-208.46 470.73,-203 460.23,-201.61 461.66,-208.46"/>
</g>
<!-- Node4 -->
<g id="node4" class="node">
<title>Node4</title>
<g id="a_node4"><a xlink:href="namespacea60_1_1io.html#a89f2bd581ec510ccc0a8cfedccff7bd0" target="_top" xlink:title="Top level of directory for output files.">
<polygon fill="white" stroke="#666666" points="260,-206.5 164,-206.5 164,-180.5 260,-180.5 260,-206.5"/>
<text text-anchor="start" x="172" y="-196.1" font-family="SourceSans" font-size="8.00">a60::io::get_output</text>
<text text-anchor="middle" x="212" y="-187.1" font-family="SourceSans" font-size="8.00">_directory</text>
</a>
</g>
</g>
<!-- Node1&#45;&gt;Node4 -->
<g id="edge3" class="edge">
<title>Node1&#45;&gt;Node4</title>
<path fill="none" stroke="#63b8ff" d="M116.03,-181C128.27,-182.61 141.22,-184.32 153.47,-185.93"/>
<polygon fill="#63b8ff" stroke="#63b8ff" points="153.21,-189.43 163.58,-187.26 154.12,-182.49 153.21,-189.43"/>
</g>
<!-- Node6 -->
<g id="node6" class="node">
<title>Node6</title>
<g id="a_node6"><a xlink:href="namespacea60.html#a1ae4660be19d8586055437f379fa4985" target="_top" xlink:title="Configure torrent session.">
<polygon fill="white" stroke="#666666" points="272,-162 152,-162 152,-145 272,-145 272,-162"/>
<text text-anchor="middle" x="212" y="-151.6" font-family="SourceSans" font-size="8.00">a60::make_settings_pack</text>
</a>
</g>
</g>
<!-- Node1&#45;&gt;Node6 -->
<g id="edge7" class="edge">
<title>Node1&#45;&gt;Node6</title>
<path fill="none" stroke="#63b8ff" d="M116.03,-166C124.45,-164.89 133.2,-163.74 141.82,-162.6"/>
<polygon fill="#63b8ff" stroke="#63b8ff" points="142.42,-166.05 151.87,-161.28 141.5,-159.11 142.42,-166.05"/>
</g>
<!-- Node7 -->
<g id="node7" class="node">
<title>Node7</title>
<g id="a_node7"><a xlink:href="structa60_1_1collection.html#a997d47a7fc3ffcabaeba3fd74cce0d82" target="_top" xlink:title=" ">
<polygon fill="white" stroke="#666666" points="267.5,-125.5 156.5,-125.5 156.5,-99.5 267.5,-99.5 267.5,-125.5"/>
<text text-anchor="start" x="164.5" y="-115.1" font-family="SourceSans" font-size="8.00">a60::collection::torrent</text>
<text text-anchor="middle" x="212" y="-106.1" font-family="SourceSans" font-size="8.00">_directory</text>
</a>
</g>
</g>
<!-- Node1&#45;&gt;Node7 -->
<g id="edge8" class="edge">
<title>Node1&#45;&gt;Node7</title>
<path fill="none" stroke="#63b8ff" d="M80.46,-164.89C103.39,-155.68 140.35,-140.85 169.09,-129.32"/>
<polygon fill="#63b8ff" stroke="#63b8ff" points="170.51,-132.52 178.49,-125.55 167.91,-126.02 170.51,-132.52"/>
</g>
<!-- Node10 -->
<g id="node10" class="node">
<title>Node10</title>
<g id="a_node10"><a xlink:href="structa60_1_1collection.html#a7f3662085b6407ab2a8916075c984151" target="_top" xlink:title=" ">
<polygon fill="white" stroke="#666666" points="262,-60.5 162,-60.5 162,-34.5 262,-34.5 262,-60.5"/>
<text text-anchor="start" x="170" y="-50.1" font-family="SourceSans" font-size="8.00">a60::collection::trim</text>
<text text-anchor="middle" x="212" y="-41.1" font-family="SourceSans" font-size="8.00">_string</text>
</a>
</g>
</g>
<!-- Node1&#45;&gt;Node10 -->
<g id="edge12" class="edge">
<title>Node1&#45;&gt;Node10</title>
<path fill="none" stroke="#63b8ff" d="M67.98,-164.94C84.28,-149.54 120.01,-116.33 152,-90.5 162.17,-82.29 173.72,-73.72 183.89,-66.4"/>
<polygon fill="#63b8ff" stroke="#63b8ff" points="185.93,-69.25 192.04,-60.59 181.87,-63.55 185.93,-69.25"/>
</g>
<!-- Node4&#45;&gt;Node3 -->
<g id="edge4" class="edge">
<title>Node4&#45;&gt;Node3</title>
<path fill="none" stroke="#63b8ff" d="M260.35,-195.29C275.56,-195.79 292.49,-196.26 308,-196.5 360.88,-197.33 374.12,-197.16 427,-196.5 435.39,-196.4 444.27,-196.23 452.94,-196.04"/>
<polygon fill="#63b8ff" stroke="#63b8ff" points="453.08,-199.53 462.99,-195.8 452.91,-192.54 453.08,-199.53"/>
</g>
<!-- Node5 -->
<g id="node5" class="node">
<title>Node5</title>
<g id="a_node5"><a xlink:href="namespacea60_1_1io.html#a6ad052ef18cfb1a1ac708f7c69c9050d" target="_top" xlink:title="Assumes argument is full path, no error checking...">
<polygon fill="white" stroke="#666666" points="415.5,-187.5 319.5,-187.5 319.5,-161.5 415.5,-161.5 415.5,-187.5"/>
<text text-anchor="start" x="327.5" y="-177.1" font-family="SourceSans" font-size="8.00">a60::io::get_output</text>
<text text-anchor="middle" x="367.5" y="-168.1" font-family="SourceSans" font-size="8.00">_prefix</text>
</a>
</g>
</g>
<!-- Node4&#45;&gt;Node5 -->
<g id="edge5" class="edge">
<title>Node4&#45;&gt;Node5</title>
<path fill="none" stroke="#63b8ff" d="M260.31,-187.64C275.7,-185.74 292.95,-183.6 309.01,-181.62"/>
<polygon fill="#63b8ff" stroke="#63b8ff" points="309.85,-185.04 319.35,-180.34 308.99,-178.09 309.85,-185.04"/>
</g>
<!-- Node5&#45;&gt;Node3 -->
<g id="edge6" class="edge">
<title>Node5&#45;&gt;Node3</title>
<path fill="none" stroke="#63b8ff" d="M415.78,-181.33C427.65,-183.04 440.49,-184.9 452.68,-186.66"/>
<polygon fill="#63b8ff" stroke="#63b8ff" points="452.34,-190.14 462.74,-188.11 453.34,-183.21 452.34,-190.14"/>
</g>
<!-- Node7&#45;&gt;Node3 -->
<g id="edge9" class="edge">
<title>Node7&#45;&gt;Node3</title>
<path fill="none" stroke="#63b8ff" d="M267.8,-118.17C311.74,-123.8 374.51,-134.28 427,-152.5 447.49,-159.61 469.19,-171.3 484.81,-180.54"/>
<polygon fill="#63b8ff" stroke="#63b8ff" points="483.32,-183.73 493.69,-185.92 486.95,-177.74 483.32,-183.73"/>
</g>
<!-- Node8 -->
<g id="node8" class="node">
<title>Node8</title>
<g id="a_node8"><a xlink:href="namespacea60_1_1io.html#ac95e5271a27a23bc2336d84b3f821fa2" target="_top" xlink:title="Constant filesystem and run&#45;time resources.">
<polygon fill="white" stroke="#666666" points="419.5,-105.5 315.5,-105.5 315.5,-79.5 419.5,-79.5 419.5,-105.5"/>
<text text-anchor="start" x="323.5" y="-95.1" font-family="SourceSans" font-size="8.00">a60::io::get_run_time</text>
<text text-anchor="middle" x="367.5" y="-86.1" font-family="SourceSans" font-size="8.00">_resources</text>
</a>
</g>
</g>
<!-- Node7&#45;&gt;Node8 -->
<g id="edge10" class="edge">
<title>Node7&#45;&gt;Node8</title>
<path fill="none" stroke="#63b8ff" d="M267.55,-105.39C279.74,-103.8 292.74,-102.11 305.18,-100.49"/>
<polygon fill="#63b8ff" stroke="#63b8ff" points="306,-103.91 315.46,-99.15 305.09,-96.97 306,-103.91"/>
</g>
<!-- Node9 -->
<g id="node9" class="node">
<title>Node9</title>
<g id="a_node9"><a xlink:href="namespacea60_1_1io.html#aa5fbb8ab63397dd45c4a54c0758935ef" target="_top" xlink:title="Sanity check input existence.">
<polygon fill="white" stroke="#666666" points="419.5,-61.5 315.5,-61.5 315.5,-35.5 419.5,-35.5 419.5,-61.5"/>
<text text-anchor="start" x="323.5" y="-51.1" font-family="SourceSans" font-size="8.00">a60::io::sanity_check</text>
<text text-anchor="middle" x="367.5" y="-42.1" font-family="SourceSans" font-size="8.00">_input</text>
</a>
</g>
</g>
<!-- Node7&#45;&gt;Node9 -->
<g id="edge11" class="edge">
<title>Node7&#45;&gt;Node9</title>
<path fill="none" stroke="#63b8ff" d="M241.5,-99.39C260.28,-90.89 285.46,-79.71 308,-70.5 312.24,-68.77 316.67,-67.01 321.12,-65.28"/>
<polygon fill="#63b8ff" stroke="#63b8ff" points="322.72,-68.41 330.8,-61.56 320.21,-61.88 322.72,-68.41"/>
</g>
<!-- Node11 -->
<g id="node11" class="node">
<title>Node11</title>
<g id="a_node11"><a xlink:href="namespacea60.html#ac7eddb2e330d8983ddc852edde5335c5" target="_top" xlink:title=" ">
<polygon fill="white" stroke="#666666" points="427,-17 308,-17 308,0 427,0 427,-17"/>
<text text-anchor="middle" x="367.5" y="-6.6" font-family="SourceSans" font-size="8.00">a60::to_lowercase_string</text>
</a>
</g>
</g>
<!-- Node10&#45;&gt;Node11 -->
<g id="edge13" class="edge">
<title>Node10&#45;&gt;Node11</title>
<path fill="none" stroke="#63b8ff" d="M262.41,-34.95C281.88,-30 304.04,-24.37 322.9,-19.58"/>
<polygon fill="#63b8ff" stroke="#63b8ff" points="323.88,-22.94 332.71,-17.09 322.16,-16.16 323.88,-22.94"/>
</g>
</g>
</svg>
        <g id="navigator" transform="translate(0 0)" fill="#404254">
                <rect fill="#f2f5e9" fill-opacity="0.5" stroke="#606060" stroke-width=".5" x="0" y="0" width="60" height="60"/>
                <use id="zoomplus" xlink:href="#zoomPlus" x="17" y="9" onmousedown="handleZoom(evt,'in')"/>
                <use id="zoomminus" xlink:href="#zoomMin" x="42" y="9" onmousedown="handleZoom(evt,'out')"/>
                <use id="reset" xlink:href="#resetDef" x="30" y="36" onmousedown="handleReset()"/>
                <g id="arrowUp" xlink:href="#dirArrow" transform="translate(30 24)" onmousedown="handlePan(0,-1)">
                  <use xlink:href="#rim" fill="#404040">
                        <set attributeName="fill" to="#808080" begin="arrowUp.mouseover" end="arrowUp.mouseout"/>
                  </use>
                  <path fill="none" stroke="white" stroke-width="1.5" d="M0,-3.0v7 M-2.5,-0.5L0,-3.0L2.5,-0.5"/>
                </g>
                <g id="arrowRight" xlink:href="#dirArrow" transform="rotate(90) translate(36 -43)" onmousedown="handlePan(1,0)">
                  <use xlink:href="#rim" fill="#404040">
                        <set attributeName="fill" to="#808080" begin="arrowRight.mouseover" end="arrowRight.mouseout"/>
                  </use>
                  <path fill="none" stroke="white" stroke-width="1.5" d="M0,-3.0v7 M-2.5,-0.5L0,-3.0L2.5,-0.5"/>
                </g>
                <g id="arrowDown" xlink:href="#dirArrow" transform="rotate(180) translate(-30 -48)" onmousedown="handlePan(0,1)">
                  <use xlink:href="#rim" fill="#404040">
                        <set attributeName="fill" to="#808080" begin="arrowDown.mouseover" end="arrowDown.mouseout"/>
                  </use>
                  <path fill="none" stroke="white" stroke-width="1.5" d="M0,-3.0v7 M-2.5,-0.5L0,-3.0L2.5,-0.5"/>
                </g>
                <g id="arrowLeft" xlink:href="#dirArrow" transform="rotate(270) translate(-36 17)" onmousedown="handlePan(-1,0)">
                  <use xlink:href="#rim" fill="#404040">
                        <set attributeName="fill" to="#808080" begin="arrowLeft.mouseover" end="arrowLeft.mouseout"/>
                  </use>
                  <path fill="none" stroke="white" stroke-width="1.5" d="M0,-3.0v7 M-2.5,-0.5L0,-3.0L2.5,-0.5"/>
                </g>
        </g>
        <svg viewBox="0 0 15 15" width="100%" height="30px" preserveAspectRatio="xMaxYMin meet">
         <g id="arrow_out" transform="scale(0.3 0.3)">
          <a xlink:href="namespacea60_ae9dd8f5f0bd8cfc07cfc19f957cf2c95_cgraph_org.svg" target="_base">
           <rect id="button" ry="5" rx="5" y="6" x="6" height="38" width="38"
                fill="#f2f5e9" fill-opacity="0.5" stroke="#606060" stroke-width="1.0"/>
           <path id="arrow"
             d="M 11.500037,31.436501 C 11.940474,20.09759 22.043105,11.32322 32.158766,21.979434 L 37.068811,17.246167 C 37.068811,17.246167 37.088388,32 37.088388,32 L 22.160133,31.978069 C 22.160133,31.978069 26.997745,27.140456 26.997745,27.140456 C 18.528582,18.264221 13.291696,25.230495 11.500037,31.436501 z"
             style="fill:#404040;"/>
          </a>
         </g>
        </svg>
</svg>
