<?xml version="1.0" encoding="UTF-8" standalone="no"?>
<!DOCTYPE svg PUBLIC "-//W3C//DTD SVG 1.1//EN"
 "http://www.w3.org/Graphics/SVG/1.1/DTD/svg11.dtd">
<!-- Generated by graphviz version 5.0.0 (0)
 -->
<!-- Title: a60::collection_size_and_partition Pages: 1 -->
<svg width="398pt" height="48pt"
 viewBox="0.00 0.00 398.00 47.50" xmlns="http://www.w3.org/2000/svg" xmlns:xlink="http://www.w3.org/1999/xlink">
<g id="graph0" class="graph" transform="scale(1 1) rotate(0) translate(4 43.5)">
<title>a60::collection_size_and_partition</title>
<!-- Node1 -->
<g id="node1" class="node">
<title>Node1</title>
<g id="a_node1"><a xlink:title=" ">
<polygon fill="#999999" stroke="#666666" points="98,-26 0,-26 0,0 98,0 98,-26"/>
<text text-anchor="start" x="8" y="-15.6" font-family="SourceSans" font-size="8.00">a60::collection_size</text>
<text text-anchor="middle" x="49" y="-6.6" font-family="SourceSans" font-size="8.00">_and_partition</text>
</a>
</g>
</g>
<!-- Node2 -->
<g id="node2" class="node">
<title>Node2</title>
<g id="a_node2"><a xlink:href="structa60_1_1collection.html#af73cc1411b568c10442a9999f52531b4" target="_top" xlink:title=" ">
<polygon fill="white" stroke="#666666" points="280,-21.5 134,-21.5 134,-4.5 280,-4.5 280,-21.5"/>
<text text-anchor="middle" x="207" y="-11.1" font-family="SourceSans" font-size="8.00">a60::collection::partition_name</text>
</a>
</g>
</g>
<!-- Node1&#45;&gt;Node2 -->
<g id="edge1" class="edge">
<title>Node1&#45;&gt;Node2</title>
<path fill="none" stroke="#63b8ff" d="M98.08,-13C106.34,-13 115.13,-13 123.98,-13"/>
<polygon fill="#63b8ff" stroke="#63b8ff" points="123.99,-16.5 133.99,-13 123.99,-9.5 123.99,-16.5"/>
</g>
<!-- Node3 -->
<g id="node3" class="node">
<title>Node3</title>
<g id="a_node3"><a xlink:href="namespacea60.html#a4e8b0cabed112734147b499bf0cc9029" target="_top" xlink:title="Conversion of resolution_mode to string.">
<polygon fill="white" stroke="#666666" points="390,-21.5 316,-21.5 316,-4.5 390,-4.5 390,-21.5"/>
<text text-anchor="middle" x="353" y="-11.1" font-family="SourceSans" font-size="8.00">a60::to_string</text>
</a>
</g>
</g>
<!-- Node2&#45;&gt;Node3 -->
<g id="edge2" class="edge">
<title>Node2&#45;&gt;Node3</title>
<path fill="none" stroke="#63b8ff" d="M280.42,-13C289.09,-13 297.75,-13 305.9,-13"/>
<polygon fill="#63b8ff" stroke="#63b8ff" points="305.91,-16.5 315.91,-13 305.91,-9.5 305.91,-16.5"/>
</g>
<!-- Node3&#45;&gt;Node3 -->
<g id="edge3" class="edge">
<title>Node3&#45;&gt;Node3</title>
<path fill="none" stroke="#63b8ff" d="M331.25,-21.69C319.23,-30.17 326.48,-39.5 353,-39.5 370.4,-39.5 379.51,-35.48 380.32,-30.32"/>
<polygon fill="#63b8ff" stroke="#63b8ff" points="383.11,-28.2 374.75,-21.69 377.23,-31.99 383.11,-28.2"/>
</g>
</g>
</svg>
