<?xml version="1.0" encoding="UTF-8" standalone="no"?>
<!DOCTYPE svg PUBLIC "-//W3C//DTD SVG 1.1//EN"
 "http://www.w3.org/Graphics/SVG/1.1/DTD/svg11.dtd">
<!-- Generated by graphviz version 5.0.0 (0)
 -->
<!-- Title: a60::initialize_color_and_visibility Pages: 1 -->
<svg width="377pt" height="78pt"
 viewBox="0.00 0.00 377.00 78.00" xmlns="http://www.w3.org/2000/svg" xmlns:xlink="http://www.w3.org/1999/xlink">
<g id="graph0" class="graph" transform="scale(1 1) rotate(0) translate(4 74)">
<title>a60::initialize_color_and_visibility</title>
<!-- Node1 -->
<g id="node1" class="node">
<title>Node1</title>
<g id="a_node1"><a xlink:title="Get baseline idea about how to color, and what is visible.">
<polygon fill="#999999" stroke="#666666" points="97,-48 0,-48 0,-22 97,-22 97,-48"/>
<text text-anchor="start" x="8" y="-37.6" font-family="SourceSans" font-size="8.00">a60::initialize_color</text>
<text text-anchor="middle" x="48.5" y="-28.6" font-family="SourceSans" font-size="8.00">_and_visibility</text>
</a>
</g>
</g>
<!-- Node2 -->
<g id="node2" class="node">
<title>Node2</title>
<g id="a_node2"><a xlink:href="namespacea60.html#a92627826f46796df51ec4b5c24a796b3" target="_top" xlink:title=" ">
<polygon fill="white" stroke="#666666" points="234,-43.5 133,-43.5 133,-26.5 234,-26.5 234,-43.5"/>
<text text-anchor="middle" x="183.5" y="-33.1" font-family="SourceSans" font-size="8.00">a60::initialize_colors</text>
</a>
</g>
</g>
<!-- Node1&#45;&gt;Node2 -->
<g id="edge1" class="edge">
<title>Node1&#45;&gt;Node2</title>
<path fill="none" stroke="#63b8ff" d="M97.14,-35C105.5,-35 114.29,-35 122.92,-35"/>
<polygon fill="#63b8ff" stroke="#63b8ff" points="122.95,-38.5 132.95,-35 122.95,-31.5 122.95,-38.5"/>
</g>
<!-- Node3 -->
<g id="node3" class="node">
<title>Node3</title>
<g id="a_node3"><a xlink:href="namespacea60.html#a23ddf1b7c4d38db4ef94f549f2602d90" target="_top" xlink:title=" ">
<polygon fill="white" stroke="#666666" points="369,-70 270,-70 270,-44 369,-44 369,-70"/>
<text text-anchor="start" x="278" y="-59.6" font-family="SourceSans" font-size="8.00">a60::color_by_mode</text>
<text text-anchor="middle" x="319.5" y="-50.6" font-family="SourceSans" font-size="8.00">_and_colorband</text>
</a>
</g>
</g>
<!-- Node2&#45;&gt;Node3 -->
<g id="edge2" class="edge">
<title>Node2&#45;&gt;Node3</title>
<path fill="none" stroke="#63b8ff" d="M234.02,-43.13C242.38,-44.5 251.13,-45.94 259.69,-47.35"/>
<polygon fill="#63b8ff" stroke="#63b8ff" points="259.2,-50.81 269.63,-48.98 260.33,-43.9 259.2,-50.81"/>
</g>
<!-- Node4 -->
<g id="node4" class="node">
<title>Node4</title>
<g id="a_node4"><a xlink:href="namespacea60.html#a3d0fc46ba5187db176d42c603953ae4c" target="_top" xlink:title=" ">
<polygon fill="white" stroke="#666666" points="369,-26 270,-26 270,0 369,0 369,-26"/>
<text text-anchor="start" x="278" y="-15.6" font-family="SourceSans" font-size="8.00">a60::color_by_mode</text>
<text text-anchor="middle" x="319.5" y="-6.6" font-family="SourceSans" font-size="8.00">_finite</text>
</a>
</g>
</g>
<!-- Node2&#45;&gt;Node4 -->
<g id="edge3" class="edge">
<title>Node2&#45;&gt;Node4</title>
<path fill="none" stroke="#63b8ff" d="M234.02,-26.87C242.38,-25.5 251.13,-24.06 259.69,-22.65"/>
<polygon fill="#63b8ff" stroke="#63b8ff" points="260.33,-26.1 269.63,-21.02 259.2,-19.19 260.33,-26.1"/>
</g>
</g>
</svg>
