<?xml version="1.0" encoding="UTF-8" standalone="no"?>
<!DOCTYPE svg PUBLIC "-//W3C//DTD SVG 1.1//EN"
 "http://www.w3.org/Graphics/SVG/1.1/DTD/svg11.dtd">
<!-- Generated by graphviz version 5.0.0 (0)
 -->
<!-- Title: a60::serialize_unique_collection Pages: 1 -->
<!--zoomable 251 -->
<svg id="main" version="1.1" xmlns="http://www.w3.org/2000/svg" xmlns:xlink="http://www.w3.org/1999/xlink" xml:space="preserve" onload="init(evt)">
<style type="text/css"><![CDATA[
.edge:hover path { stroke: red; }
.edge:hover polygon { stroke: red; fill: red; }
]]></style>
<script type="text/javascript"><![CDATA[
var edges = document.getElementsByTagName('g');
if (edges && edges.length) {
  for (var i=0;i<edges.length;i++) {
    if (edges[i].id.substr(0,4)=='edge') {
      edges[i].setAttribute('class','edge');
    }
  }
}
]]></script>
        <defs>
                <circle id="rim" cx="0" cy="0" r="7"/>
                <circle id="rim2" cx="0" cy="0" r="3.5"/>
                <g id="zoomPlus">
                        <use xlink:href="#rim" fill="#404040">
                                <set attributeName="fill" to="#808080" begin="zoomplus.mouseover" end="zoomplus.mouseout"/>
                        </use>
                        <path d="M-4,0h8M0,-4v8" fill="none" stroke="white" stroke-width="1.5" pointer-events="none"/>
                </g>
                <g id="zoomMin">
                        <use xlink:href="#rim" fill="#404040">
                                <set attributeName="fill" to="#808080" begin="zoomminus.mouseover" end="zoomminus.mouseout"/>
                        </use>
                        <path d="M-4,0h8" fill="none" stroke="white" stroke-width="1.5" pointer-events="none"/>
                </g>
                <g id="dirArrow">
                        <path fill="none" stroke="white" stroke-width="1.5" d="M0,-3.0v7 M-2.5,-0.5L0,-3.0L2.5,-0.5"/>
                </g>
               <g id="resetDef">
                       <use xlink:href="#rim2" fill="#404040">
                               <set attributeName="fill" to="#808080" begin="reset.mouseover" end="reset.mouseout"/>
                       </use>
               </g>
        </defs>

<script type="text/javascript">
var viewWidth = 749;
var viewHeight = 251;
var sectionId = 'dynsection-178';
</script>
<script xlink:href="svgpan.js"/>
<svg id="graph" class="graph">
<g id="viewport">
<title>a60::serialize_unique_collection</title>
<!-- Node1 -->
<g id="node1" class="node">
<title>Node1</title>
<g id="a_node1"><a xlink:title="Switch for how recached information will be serialized.">
<polygon fill="#999999" stroke="#666666" points="105,-114 0,-114 0,-88 105,-88 105,-114"/>
<text text-anchor="start" x="8" y="-103.6" font-family="SourceSans" font-size="8.00">a60::serialize_unique</text>
<text text-anchor="middle" x="52.5" y="-94.6" font-family="SourceSans" font-size="8.00">_collection</text>
</a>
</g>
</g>
<!-- Node2 -->
<g id="node2" class="node">
<title>Node2</title>
<g id="a_node2"><a xlink:href="namespacea60.html#ac7ec35d2a0f81f1570817264e4ef49f2" target="_top" xlink:title="Serialization minimal summary info per duration.">
<polygon fill="white" stroke="#666666" points="273,-153.5 148,-153.5 148,-136.5 273,-136.5 273,-153.5"/>
<text text-anchor="middle" x="210.5" y="-143.1" font-family="SourceSans" font-size="8.00">a60::serialize_swarm_json</text>
</a>
</g>
</g>
<!-- Node1&#45;&gt;Node2 -->
<g id="edge1" class="edge">
<title>Node1&#45;&gt;Node2</title>
<path fill="none" stroke="#63b8ff" d="M99.88,-114.08C122.06,-120.34 148.34,-127.75 169.6,-133.75"/>
<polygon fill="#63b8ff" stroke="#63b8ff" points="168.72,-137.13 179.3,-136.48 170.62,-130.4 168.72,-137.13"/>
</g>
<!-- Node12 -->
<g id="node12" class="node">
<title>Node12</title>
<g id="a_node12"><a xlink:href="namespacea60.html#a1f3d90a57e2a63d06c3c5e8efdfda9d4" target="_top" xlink:title=" ">
<polygon fill="white" stroke="#666666" points="280,-65.5 141,-65.5 141,-48.5 280,-48.5 280,-65.5"/>
<text text-anchor="middle" x="210.5" y="-55.1" font-family="SourceSans" font-size="8.00">a60::weigh_unique_collection</text>
</a>
</g>
</g>
<!-- Node1&#45;&gt;Node12 -->
<g id="edge11" class="edge">
<title>Node1&#45;&gt;Node12</title>
<path fill="none" stroke="#63b8ff" d="M99.88,-87.92C122.06,-81.66 148.34,-74.25 169.6,-68.25"/>
<polygon fill="#63b8ff" stroke="#63b8ff" points="170.62,-71.6 179.3,-65.52 168.72,-64.87 170.62,-71.6"/>
</g>
<!-- Node3 -->
<g id="node3" class="node">
<title>Node3</title>
<g id="a_node3"><a xlink:href="structa60_1_1collection.html#ab234addb5725bb5900b44f55ec1aae10" target="_top" xlink:title=" ">
<polygon fill="white" stroke="#666666" points="431.5,-238 316.5,-238 316.5,-212 431.5,-212 431.5,-238"/>
<text text-anchor="start" x="324.5" y="-227.6" font-family="SourceSans" font-size="8.00">a60::collection::mangle</text>
<text text-anchor="middle" x="374" y="-218.6" font-family="SourceSans" font-size="8.00">_with_id</text>
</a>
</g>
</g>
<!-- Node2&#45;&gt;Node3 -->
<g id="edge2" class="edge">
<title>Node2&#45;&gt;Node3</title>
<path fill="none" stroke="#63b8ff" d="M225.37,-153.51C245.09,-165.42 282.55,-187.35 316,-203 319.63,-204.7 323.42,-206.37 327.26,-207.99"/>
<polygon fill="#63b8ff" stroke="#63b8ff" points="326.22,-211.35 336.8,-211.9 328.87,-204.87 326.22,-211.35"/>
</g>
<!-- Node5 -->
<g id="node5" class="node">
<title>Node5</title>
<g id="a_node5"><a xlink:href="namespacea60.html#aba8b47de875bd5bebeed9c57e3b52c06" target="_top" xlink:title="Serialize buffer to output file.">
<polygon fill="white" stroke="#666666" points="424.5,-193.5 323.5,-193.5 323.5,-176.5 424.5,-176.5 424.5,-193.5"/>
<text text-anchor="middle" x="374" y="-183.1" font-family="SourceSans" font-size="8.00">a60::serialize_buffer</text>
</a>
</g>
</g>
<!-- Node2&#45;&gt;Node5 -->
<g id="edge4" class="edge">
<title>Node2&#45;&gt;Node5</title>
<path fill="none" stroke="#63b8ff" d="M246.15,-153.58C270.2,-159.54 302.47,-167.53 328.44,-173.96"/>
<polygon fill="#63b8ff" stroke="#63b8ff" points="327.86,-177.43 338.41,-176.43 329.55,-170.63 327.86,-177.43"/>
</g>
<!-- Node6 -->
<g id="node6" class="node">
<title>Node6</title>
<g id="a_node6"><a xlink:href="namespacea60.html#a5491ff3ca7dc34407696caaa90828819" target="_top" xlink:title="First collection serialization, common for all writing.">
<polygon fill="white" stroke="#666666" points="432,-158 316,-158 316,-132 432,-132 432,-158"/>
<text text-anchor="start" x="324" y="-147.6" font-family="SourceSans" font-size="8.00">a60::serialize_collection</text>
<text text-anchor="middle" x="374" y="-138.6" font-family="SourceSans" font-size="8.00">_base_json</text>
</a>
</g>
</g>
<!-- Node2&#45;&gt;Node6 -->
<g id="edge5" class="edge">
<title>Node2&#45;&gt;Node6</title>
<path fill="none" stroke="#63b8ff" d="M273.02,-145C283.69,-145 294.84,-145 305.66,-145"/>
<polygon fill="#63b8ff" stroke="#63b8ff" points="305.9,-148.5 315.9,-145 305.9,-141.5 305.9,-148.5"/>
</g>
<!-- Node7 -->
<g id="node7" class="node">
<title>Node7</title>
<g id="a_node7"><a xlink:href="structa60_1_1collection.html#a80993af9aec8238db8e44da1e9a3c994" target="_top" xlink:title=" ">
<polygon fill="white" stroke="#666666" points="425.5,-114 322.5,-114 322.5,-88 425.5,-88 425.5,-114"/>
<text text-anchor="start" x="330.5" y="-103.6" font-family="SourceSans" font-size="8.00">a60::collection::slice</text>
<text text-anchor="middle" x="374" y="-94.6" font-family="SourceSans" font-size="8.00">_name_mangled</text>
</a>
</g>
</g>
<!-- Node2&#45;&gt;Node7 -->
<g id="edge6" class="edge">
<title>Node2&#45;&gt;Node7</title>
<path fill="none" stroke="#63b8ff" d="M243.02,-136.41C263.51,-130.83 290.85,-123.38 315.16,-116.76"/>
<polygon fill="#63b8ff" stroke="#63b8ff" points="316.28,-120.08 325.01,-114.07 314.44,-113.33 316.28,-120.08"/>
</g>
<!-- Node4 -->
<g id="node4" class="node">
<title>Node4</title>
<g id="a_node4"><a xlink:href="structa60_1_1collection.html#a899f781ad983b2ec1f0da35a5d3f8b54" target="_top" xlink:title=" ">
<polygon fill="white" stroke="#666666" points="590.5,-242.5 475.5,-242.5 475.5,-207.5 590.5,-207.5 590.5,-242.5"/>
<text text-anchor="start" x="483.5" y="-232.1" font-family="SourceSans" font-size="8.00">a60::collection::mangle</text>
<text text-anchor="start" x="483.5" y="-223.1" font-family="SourceSans" font-size="8.00">_duration_significant</text>
<text text-anchor="middle" x="533" y="-214.1" font-family="SourceSans" font-size="8.00">_digits</text>
</a>
</g>
</g>
<!-- Node3&#45;&gt;Node4 -->
<g id="edge3" class="edge">
<title>Node3&#45;&gt;Node4</title>
<path fill="none" stroke="#63b8ff" d="M431.68,-225C442.57,-225 454.08,-225 465.26,-225"/>
<polygon fill="#63b8ff" stroke="#63b8ff" points="465.4,-228.5 475.4,-225 465.4,-221.5 465.4,-228.5"/>
</g>
<!-- Node8 -->
<g id="node8" class="node">
<title>Node8</title>
<g id="a_node8"><a xlink:href="structa60_1_1collection.html#a25b35cf4ac39da89d868fe2cf41b5acd" target="_top" xlink:title=" ">
<polygon fill="white" stroke="#666666" points="598,-144.5 468,-144.5 468,-127.5 598,-127.5 598,-144.5"/>
<text text-anchor="middle" x="533" y="-134.1" font-family="SourceSans" font-size="8.00">a60::collection::slice_name</text>
</a>
</g>
</g>
<!-- Node7&#45;&gt;Node8 -->
<g id="edge7" class="edge">
<title>Node7&#45;&gt;Node8</title>
<path fill="none" stroke="#63b8ff" d="M425.54,-112.27C444.22,-116.43 465.33,-121.14 483.8,-125.26"/>
<polygon fill="#63b8ff" stroke="#63b8ff" points="483.24,-128.71 493.76,-127.47 484.76,-121.88 483.24,-128.71"/>
</g>
<!-- Node9 -->
<g id="node9" class="node">
<title>Node9</title>
<g id="a_node9"><a xlink:href="namespacea60.html#ac7eddb2e330d8983ddc852edde5335c5" target="_top" xlink:title=" ">
<polygon fill="white" stroke="#666666" points="592.5,-109.5 473.5,-109.5 473.5,-92.5 592.5,-92.5 592.5,-109.5"/>
<text text-anchor="middle" x="533" y="-99.1" font-family="SourceSans" font-size="8.00">a60::to_lowercase_string</text>
</a>
</g>
</g>
<!-- Node7&#45;&gt;Node9 -->
<g id="edge8" class="edge">
<title>Node7&#45;&gt;Node9</title>
<path fill="none" stroke="#63b8ff" d="M425.54,-101C437.56,-101 450.6,-101 463.28,-101"/>
<polygon fill="#63b8ff" stroke="#63b8ff" points="463.35,-104.5 473.35,-101 463.35,-97.5 463.35,-104.5"/>
</g>
<!-- Node10 -->
<g id="node10" class="node">
<title>Node10</title>
<g id="a_node10"><a xlink:href="namespacea60.html#a11d9ffc210e8dca8410e7a5ad62deabc" target="_top" xlink:title=" ">
<polygon fill="white" stroke="#666666" points="589.5,-74 476.5,-74 476.5,-48 589.5,-48 589.5,-74"/>
<text text-anchor="start" x="484.5" y="-63.6" font-family="SourceSans" font-size="8.00">a60::to_replace_spaces</text>
<text text-anchor="middle" x="533" y="-54.6" font-family="SourceSans" font-size="8.00">_string</text>
</a>
</g>
</g>
<!-- Node7&#45;&gt;Node10 -->
<g id="edge9" class="edge">
<title>Node7&#45;&gt;Node10</title>
<path fill="none" stroke="#63b8ff" d="M425.54,-88.12C440.03,-84.43 455.97,-80.37 471.02,-76.54"/>
<polygon fill="#63b8ff" stroke="#63b8ff" points="471.92,-79.92 480.75,-74.06 470.19,-73.14 471.92,-79.92"/>
</g>
<!-- Node11 -->
<g id="node11" class="node">
<title>Node11</title>
<g id="a_node11"><a xlink:href="namespacea60.html#a751f954fe64233f1dc6517220e4b5692" target="_top" xlink:title=" ">
<polygon fill="white" stroke="#666666" points="741,-69.5 634,-69.5 634,-52.5 741,-52.5 741,-69.5"/>
<text text-anchor="middle" x="687.5" y="-59.1" font-family="SourceSans" font-size="8.00">a60::to_replace_string</text>
</a>
</g>
</g>
<!-- Node10&#45;&gt;Node11 -->
<g id="edge10" class="edge">
<title>Node10&#45;&gt;Node11</title>
<path fill="none" stroke="#63b8ff" d="M589.92,-61C600.92,-61 612.53,-61 623.73,-61"/>
<polygon fill="#63b8ff" stroke="#63b8ff" points="623.88,-64.5 633.88,-61 623.88,-57.5 623.88,-64.5"/>
</g>
<!-- Node13 -->
<g id="node13" class="node">
<title>Node13</title>
<g id="a_node13"><a xlink:href="structa60_1_1swarm__gcache.html#a52c65b0040757a229beb63361678c73b" target="_top" xlink:title="Count of total added before weighing, should match weights &#45; anomalies.">
<polygon fill="white" stroke="#666666" points="426.5,-70 321.5,-70 321.5,-44 426.5,-44 426.5,-70"/>
<text text-anchor="start" x="329.5" y="-59.6" font-family="SourceSans" font-size="8.00">a60::swarm_gcache::</text>
<text text-anchor="middle" x="374" y="-50.6" font-family="SourceSans" font-size="8.00">summarize_totals</text>
</a>
</g>
</g>
<!-- Node12&#45;&gt;Node13 -->
<g id="edge12" class="edge">
<title>Node12&#45;&gt;Node13</title>
<path fill="none" stroke="#63b8ff" d="M280.46,-57C290.64,-57 301.08,-57 311.1,-57"/>
<polygon fill="#63b8ff" stroke="#63b8ff" points="311.37,-60.5 321.37,-57 311.37,-53.5 311.37,-60.5"/>
</g>
<!-- Node14 -->
<g id="node14" class="node">
<title>Node14</title>
<g id="a_node14"><a xlink:href="structa60_1_1swarm__gcache.html#af7d9f24d11c6fd83baf2f2593034a6c4" target="_top" xlink:title="Insert ranked peers into ordered set. Top n will be the first n results. Input depends on peer or see...">
<polygon fill="white" stroke="#666666" points="426.5,-26 321.5,-26 321.5,0 426.5,0 426.5,-26"/>
<text text-anchor="start" x="329.5" y="-15.6" font-family="SourceSans" font-size="8.00">a60::swarm_gcache::</text>
<text text-anchor="middle" x="374" y="-6.6" font-family="SourceSans" font-size="8.00">weigh</text>
</a>
</g>
</g>
<!-- Node12&#45;&gt;Node14 -->
<g id="edge13" class="edge">
<title>Node12&#45;&gt;Node14</title>
<path fill="none" stroke="#63b8ff" d="M243.02,-48.41C263.51,-42.83 290.85,-35.38 315.16,-28.76"/>
<polygon fill="#63b8ff" stroke="#63b8ff" points="316.28,-32.08 325.01,-26.07 314.44,-25.33 316.28,-32.08"/>
</g>
</g>
</svg>
        <g id="navigator" transform="translate(0 0)" fill="#404254">
                <rect fill="#f2f5e9" fill-opacity="0.5" stroke="#606060" stroke-width=".5" x="0" y="0" width="60" height="60"/>
                <use id="zoomplus" xlink:href="#zoomPlus" x="17" y="9" onmousedown="handleZoom(evt,'in')"/>
                <use id="zoomminus" xlink:href="#zoomMin" x="42" y="9" onmousedown="handleZoom(evt,'out')"/>
                <use id="reset" xlink:href="#resetDef" x="30" y="36" onmousedown="handleReset()"/>
                <g id="arrowUp" xlink:href="#dirArrow" transform="translate(30 24)" onmousedown="handlePan(0,-1)">
                  <use xlink:href="#rim" fill="#404040">
                        <set attributeName="fill" to="#808080" begin="arrowUp.mouseover" end="arrowUp.mouseout"/>
                  </use>
                  <path fill="none" stroke="white" stroke-width="1.5" d="M0,-3.0v7 M-2.5,-0.5L0,-3.0L2.5,-0.5"/>
                </g>
                <g id="arrowRight" xlink:href="#dirArrow" transform="rotate(90) translate(36 -43)" onmousedown="handlePan(1,0)">
                  <use xlink:href="#rim" fill="#404040">
                        <set attributeName="fill" to="#808080" begin="arrowRight.mouseover" end="arrowRight.mouseout"/>
                  </use>
                  <path fill="none" stroke="white" stroke-width="1.5" d="M0,-3.0v7 M-2.5,-0.5L0,-3.0L2.5,-0.5"/>
                </g>
                <g id="arrowDown" xlink:href="#dirArrow" transform="rotate(180) translate(-30 -48)" onmousedown="handlePan(0,1)">
                  <use xlink:href="#rim" fill="#404040">
                        <set attributeName="fill" to="#808080" begin="arrowDown.mouseover" end="arrowDown.mouseout"/>
                  </use>
                  <path fill="none" stroke="white" stroke-width="1.5" d="M0,-3.0v7 M-2.5,-0.5L0,-3.0L2.5,-0.5"/>
                </g>
                <g id="arrowLeft" xlink:href="#dirArrow" transform="rotate(270) translate(-36 17)" onmousedown="handlePan(-1,0)">
                  <use xlink:href="#rim" fill="#404040">
                        <set attributeName="fill" to="#808080" begin="arrowLeft.mouseover" end="arrowLeft.mouseout"/>
                  </use>
                  <path fill="none" stroke="white" stroke-width="1.5" d="M0,-3.0v7 M-2.5,-0.5L0,-3.0L2.5,-0.5"/>
                </g>
        </g>
        <svg viewBox="0 0 15 15" width="100%" height="30px" preserveAspectRatio="xMaxYMin meet">
         <g id="arrow_out" transform="scale(0.3 0.3)">
          <a xlink:href="namespacea60_a1e811a5a730c52877d4fd411f0e78aba_cgraph_org.svg" target="_base">
           <rect id="button" ry="5" rx="5" y="6" x="6" height="38" width="38"
                fill="#f2f5e9" fill-opacity="0.5" stroke="#606060" stroke-width="1.0"/>
           <path id="arrow"
             d="M 11.500037,31.436501 C 11.940474,20.09759 22.043105,11.32322 32.158766,21.979434 L 37.068811,17.246167 C 37.068811,17.246167 37.088388,32 37.088388,32 L 22.160133,31.978069 C 22.160133,31.978069 26.997745,27.140456 26.997745,27.140456 C 18.528582,18.264221 13.291696,25.230495 11.500037,31.436501 z"
             style="fill:#404040;"/>
          </a>
         </g>
        </svg>
</svg>
