<?xml version="1.0" encoding="UTF-8" standalone="no"?>
<!DOCTYPE svg PUBLIC "-//W3C//DTD SVG 1.1//EN"
 "http://www.w3.org/Graphics/SVG/1.1/DTD/svg11.dtd">
<!-- Generated by graphviz version 5.0.0 (0)
 -->
<!-- Title: a60::fiber_paths_geojson Pages: 1 -->
<svg width="436pt" height="342pt"
 viewBox="0.00 0.00 436.00 341.50" xmlns="http://www.w3.org/2000/svg" xmlns:xlink="http://www.w3.org/1999/xlink">
<g id="graph0" class="graph" transform="scale(1 1) rotate(0) translate(4 337.5)">
<title>a60::fiber_paths_geojson</title>
<!-- Node1 -->
<g id="node1" class="node">
<title>Node1</title>
<g id="a_node1"><a xlink:title="Create paths that map out telecom cables from a single geo json file.">
<polygon fill="#999999" stroke="#666666" points="121,-130 0,-130 0,-113 121,-113 121,-130"/>
<text text-anchor="middle" x="60.5" y="-119.6" font-family="SourceSans" font-size="8.00">a60::fiber_paths_geojson</text>
</a>
</g>
</g>
<!-- Node2 -->
<g id="node2" class="node">
<title>Node2</title>
<g id="a_node2"><a xlink:href="namespacea60.html#af45982273a7a2e61b6aaa436081238c0" target="_top" xlink:title="Load JSON file to in&#45;memory DOM.">
<polygon fill="white" stroke="#666666" points="268,-286.5 164,-286.5 164,-260.5 268,-260.5 268,-286.5"/>
<text text-anchor="start" x="172" y="-276.1" font-family="SourceSans" font-size="8.00">a60::deserialize_json</text>
<text text-anchor="middle" x="216" y="-267.1" font-family="SourceSans" font-size="8.00">_to_dom_object</text>
</a>
</g>
</g>
<!-- Node1&#45;&gt;Node2 -->
<g id="edge1" class="edge">
<title>Node1&#45;&gt;Node2</title>
<path fill="none" stroke="#63b8ff" d="M70.19,-130.11C93.91,-153.6 160.25,-219.29 194.29,-252.99"/>
<polygon fill="#63b8ff" stroke="#63b8ff" points="192.24,-255.89 201.81,-260.44 197.17,-250.91 192.24,-255.89"/>
</g>
<!-- Node4 -->
<g id="node4" class="node">
<title>Node4</title>
<g id="a_node4"><a xlink:href="namespacea60_1_1carto.html#a970aeb8370891780c15e73fba0dc48bc" target="_top" xlink:title=" ">
<polygon fill="white" stroke="#666666" points="268,-196.5 164,-196.5 164,-170.5 268,-170.5 268,-196.5"/>
<text text-anchor="start" x="172" y="-186.1" font-family="SourceSans" font-size="8.00">a60::carto::fold_path</text>
<text text-anchor="middle" x="216" y="-177.1" font-family="SourceSans" font-size="8.00">_edges</text>
</a>
</g>
</g>
<!-- Node1&#45;&gt;Node4 -->
<g id="edge3" class="edge">
<title>Node1&#45;&gt;Node4</title>
<path fill="none" stroke="#63b8ff" d="M82.84,-130.12C106.08,-139.51 143.84,-154.76 173.05,-166.56"/>
<polygon fill="#63b8ff" stroke="#63b8ff" points="172.02,-169.91 182.6,-170.41 174.64,-163.42 172.02,-169.91"/>
</g>
<!-- Node6 -->
<g id="node6" class="node">
<title>Node6</title>
<g id="a_node6"><a xlink:href="namespacea60_1_1constants.html#ac27c77e4606552ae5f74a1c21dd9258e" target="_top" xlink:title=" ">
<polygon fill="white" stroke="#666666" points="428,-112 311,-112 311,-95 428,-95 428,-112"/>
<text text-anchor="middle" x="369.5" y="-101.6" font-family="SourceSans" font-size="8.00">a60::constants::newline</text>
</a>
</g>
</g>
<!-- Node1&#45;&gt;Node6 -->
<g id="edge10" class="edge">
<title>Node1&#45;&gt;Node6</title>
<path fill="none" stroke="#63b8ff" d="M121.04,-125.7C163.96,-127.84 223.21,-128.98 275,-123.5 292.06,-121.7 310.59,-118.09 326.62,-114.43"/>
<polygon fill="#63b8ff" stroke="#63b8ff" points="327.82,-117.74 336.75,-112.03 326.21,-110.93 327.82,-117.74"/>
</g>
<!-- Node10 -->
<g id="node10" class="node">
<title>Node10</title>
<g id="a_node10"><a xlink:href="namespacea60.html#a3fdf876ab1d06c5cfd12a9018c231dd8" target="_top" xlink:title=" ">
<polygon fill="white" stroke="#666666" points="275,-114.5 157,-114.5 157,-88.5 275,-88.5 275,-114.5"/>
<text text-anchor="start" x="165" y="-104.1" font-family="SourceSans" font-size="8.00">a60::point_from_geojson</text>
<text text-anchor="middle" x="216" y="-95.1" font-family="SourceSans" font-size="8.00">_coordinate</text>
</a>
</g>
</g>
<!-- Node1&#45;&gt;Node10 -->
<g id="edge11" class="edge">
<title>Node1&#45;&gt;Node10</title>
<path fill="none" stroke="#63b8ff" d="M121.29,-113.71C129.7,-112.61 138.39,-111.48 146.94,-110.37"/>
<polygon fill="#63b8ff" stroke="#63b8ff" points="147.42,-113.83 156.89,-109.07 146.52,-106.89 147.42,-113.83"/>
</g>
<!-- Node12 -->
<g id="node12" class="node">
<title>Node12</title>
<g id="a_node12"><a xlink:href="namespacea60_1_1constants.html#a4eca9d522711df25806d6dd1ff38e904" target="_top" xlink:title=" ">
<polygon fill="white" stroke="#666666" points="271,-70 161,-70 161,-53 271,-53 271,-70"/>
<text text-anchor="middle" x="216" y="-59.6" font-family="SourceSans" font-size="8.00">a60::constants::space</text>
</a>
</g>
</g>
<!-- Node1&#45;&gt;Node12 -->
<g id="edge14" class="edge">
<title>Node1&#45;&gt;Node12</title>
<path fill="none" stroke="#63b8ff" d="M79.2,-112.99C98.19,-104.04 129.34,-89.83 157,-79.5 162.96,-77.27 169.34,-75.09 175.6,-73.07"/>
<polygon fill="#63b8ff" stroke="#63b8ff" points="176.79,-76.36 185.27,-70.02 174.69,-69.68 176.79,-76.36"/>
</g>
<!-- Node13 -->
<g id="node13" class="node">
<title>Node13</title>
<g id="a_node13"><a xlink:href="namespacea60_1_1constants.html#a01d9786063fb572d9389b0cd207bbe53" target="_top" xlink:title=" ">
<polygon fill="white" stroke="#666666" points="265,-17 167,-17 167,0 265,0 265,-17"/>
<text text-anchor="middle" x="216" y="-6.6" font-family="SourceSans" font-size="8.00">a60::constants::tab</text>
</a>
</g>
</g>
<!-- Node1&#45;&gt;Node13 -->
<g id="edge15" class="edge">
<title>Node1&#45;&gt;Node13</title>
<path fill="none" stroke="#63b8ff" d="M71.17,-112.82C88.02,-97.88 124.1,-66.68 157,-43.5 167.71,-35.95 180.08,-28.35 190.63,-22.17"/>
<polygon fill="#63b8ff" stroke="#63b8ff" points="192.44,-25.16 199.36,-17.13 188.95,-19.1 192.44,-25.16"/>
</g>
<!-- Node3 -->
<g id="node3" class="node">
<title>Node3</title>
<g id="a_node3"><a xlink:href="namespacea60.html#a538d43bb9bfa488a54cea929736dbe2d" target="_top" xlink:title="Deserialize input file.">
<polygon fill="white" stroke="#666666" points="421.5,-333.5 317.5,-333.5 317.5,-307.5 421.5,-307.5 421.5,-333.5"/>
<text text-anchor="start" x="325.5" y="-323.1" font-family="SourceSans" font-size="8.00">a60::deserialize_json</text>
<text text-anchor="middle" x="369.5" y="-314.1" font-family="SourceSans" font-size="8.00">_to_dom</text>
</a>
</g>
</g>
<!-- Node2&#45;&gt;Node3 -->
<g id="edge2" class="edge">
<title>Node2&#45;&gt;Node3</title>
<path fill="none" stroke="#63b8ff" d="M259.2,-286.59C277.1,-292.14 298.12,-298.67 316.92,-304.5"/>
<polygon fill="#63b8ff" stroke="#63b8ff" points="315.94,-307.86 326.53,-307.48 318.01,-301.17 315.94,-307.86"/>
</g>
<!-- Node5 -->
<g id="node5" class="node">
<title>Node5</title>
<g id="a_node5"><a xlink:href="namespacea60.html#a3c32f6c147e634c4b4c383aa09007d74" target="_top" xlink:title=" ">
<polygon fill="white" stroke="#666666" points="424.5,-192 314.5,-192 314.5,-175 424.5,-175 424.5,-192"/>
<text text-anchor="middle" x="369.5" y="-181.6" font-family="SourceSans" font-size="8.00">a60::distance_point_2t</text>
</a>
</g>
</g>
<!-- Node4&#45;&gt;Node5 -->
<g id="edge4" class="edge">
<title>Node4&#45;&gt;Node5</title>
<path fill="none" stroke="#63b8ff" d="M268.29,-183.5C279.89,-183.5 292.35,-183.5 304.41,-183.5"/>
<polygon fill="#63b8ff" stroke="#63b8ff" points="304.41,-187 314.41,-183.5 304.41,-180 304.41,-187"/>
</g>
<!-- Node4&#45;&gt;Node6 -->
<g id="edge5" class="edge">
<title>Node4&#45;&gt;Node6</title>
<path fill="none" stroke="#63b8ff" d="M249.96,-170.48C258.43,-166.52 267.32,-161.79 275,-156.5 293.37,-143.84 291.83,-132.92 311,-121.5 314.64,-119.33 318.57,-117.4 322.6,-115.68"/>
<polygon fill="#63b8ff" stroke="#63b8ff" points="324.02,-118.89 332.11,-112.05 321.52,-112.35 324.02,-118.89"/>
</g>
<!-- Node7 -->
<g id="node7" class="node">
<title>Node7</title>
<g id="a_node7"><a xlink:href="structa60_1_1carto_1_1cartography.html#a228cede7b1b2847024501cfdac0640ca" target="_top" xlink:title=" ">
<polygon fill="white" stroke="#666666" points="427,-156.5 312,-156.5 312,-130.5 427,-130.5 427,-156.5"/>
<text text-anchor="start" x="320" y="-146.1" font-family="SourceSans" font-size="8.00">a60::carto::cartography</text>
<text text-anchor="middle" x="369.5" y="-137.1" font-family="SourceSans" font-size="8.00">::point_to_x_quadrant</text>
</a>
</g>
</g>
<!-- Node4&#45;&gt;Node7 -->
<g id="edge6" class="edge">
<title>Node4&#45;&gt;Node7</title>
<path fill="none" stroke="#63b8ff" d="M266.61,-170.4C280.15,-166.83 294.96,-162.92 308.99,-159.21"/>
<polygon fill="#63b8ff" stroke="#63b8ff" points="310.27,-162.5 319.04,-156.56 308.48,-155.73 310.27,-162.5"/>
</g>
<!-- Node8 -->
<g id="node8" class="node">
<title>Node8</title>
<g id="a_node8"><a xlink:href="structa60_1_1carto_1_1cartography.html#a1f7b7d81b342346b52e5c6c9b9e3455a" target="_top" xlink:title="Top (h1) and bottom (h2) vertical.">
<polygon fill="white" stroke="#666666" points="427,-289.5 312,-289.5 312,-263.5 427,-263.5 427,-289.5"/>
<text text-anchor="start" x="320" y="-279.1" font-family="SourceSans" font-size="8.00">a60::carto::cartography</text>
<text text-anchor="middle" x="369.5" y="-270.1" font-family="SourceSans" font-size="8.00">::point_to_y_half</text>
</a>
</g>
</g>
<!-- Node4&#45;&gt;Node8 -->
<g id="edge7" class="edge">
<title>Node4&#45;&gt;Node8</title>
<path fill="none" stroke="#63b8ff" d="M231.72,-196.72C249.49,-212.17 280.77,-237.74 311,-254.5 314.04,-256.18 317.23,-257.79 320.49,-259.32"/>
<polygon fill="#63b8ff" stroke="#63b8ff" points="319.21,-262.59 329.78,-263.41 322.03,-256.18 319.21,-262.59"/>
</g>
<!-- Node9 -->
<g id="node9" class="node">
<title>Node9</title>
<g id="a_node9"><a xlink:href="namespacea60.html#a4e8b0cabed112734147b499bf0cc9029" target="_top" xlink:title="Conversion of resolution_mode to string.">
<polygon fill="white" stroke="#666666" points="406.5,-227 332.5,-227 332.5,-210 406.5,-210 406.5,-227"/>
<text text-anchor="middle" x="369.5" y="-216.6" font-family="SourceSans" font-size="8.00">a60::to_string</text>
</a>
</g>
</g>
<!-- Node4&#45;&gt;Node9 -->
<g id="edge8" class="edge">
<title>Node4&#45;&gt;Node9</title>
<path fill="none" stroke="#63b8ff" d="M268.29,-195.35C285.8,-199.39 305.26,-203.89 322.34,-207.84"/>
<polygon fill="#63b8ff" stroke="#63b8ff" points="321.56,-211.25 332.09,-210.09 323.14,-204.43 321.56,-211.25"/>
</g>
<!-- Node9&#45;&gt;Node9 -->
<g id="edge9" class="edge">
<title>Node9&#45;&gt;Node9</title>
<path fill="none" stroke="#63b8ff" d="M346.85,-227.19C334.34,-235.67 341.89,-245 369.5,-245 388.05,-245 397.54,-240.79 397.98,-235.45"/>
<polygon fill="#63b8ff" stroke="#63b8ff" points="400.77,-233.34 392.15,-227.19 395.06,-237.37 400.77,-233.34"/>
</g>
<!-- Node10&#45;&gt;Node6 -->
<g id="edge12" class="edge">
<title>Node10&#45;&gt;Node6</title>
<path fill="none" stroke="#63b8ff" d="M275.14,-102.27C283.45,-102.38 292.05,-102.49 300.52,-102.6"/>
<polygon fill="#63b8ff" stroke="#63b8ff" points="300.72,-106.11 310.77,-102.74 300.81,-99.11 300.72,-106.11"/>
</g>
<!-- Node11 -->
<g id="node11" class="node">
<title>Node11</title>
<g id="a_node11"><a xlink:href="structa60_1_1carto_1_1cartography.html#a57e14cabb4993189316e369a27752a73" target="_top" xlink:title=" ">
<polygon fill="white" stroke="#666666" points="427,-76.5 312,-76.5 312,-50.5 427,-50.5 427,-76.5"/>
<text text-anchor="start" x="320" y="-66.1" font-family="SourceSans" font-size="8.00">a60::carto::cartography</text>
<text text-anchor="middle" x="369.5" y="-57.1" font-family="SourceSans" font-size="8.00">::to_point_2d</text>
</a>
</g>
</g>
<!-- Node10&#45;&gt;Node11 -->
<g id="edge13" class="edge">
<title>Node10&#45;&gt;Node11</title>
<path fill="none" stroke="#63b8ff" d="M269.14,-88.42C281.23,-85.39 294.21,-82.13 306.67,-79.01"/>
<polygon fill="#63b8ff" stroke="#63b8ff" points="307.67,-82.36 316.52,-76.54 305.97,-75.58 307.67,-82.36"/>
</g>
<!-- Node13&#45;&gt;Node13 -->
<g id="edge16" class="edge">
<title>Node13&#45;&gt;Node13</title>
<path fill="none" stroke="#63b8ff" d="M193.35,-17.19C180.84,-25.67 188.39,-35 216,-35 234.55,-35 244.04,-30.79 244.48,-25.45"/>
<polygon fill="#63b8ff" stroke="#63b8ff" points="247.27,-23.34 238.65,-17.19 241.56,-27.37 247.27,-23.34"/>
</g>
</g>
</svg>
