<?xml version="1.0" encoding="UTF-8" standalone="no"?>
<!DOCTYPE svg PUBLIC "-//W3C//DTD SVG 1.1//EN"
 "http://www.w3.org/Graphics/SVG/1.1/DTD/svg11.dtd">
<!-- Generated by graphviz version 5.0.0 (0)
 -->
<!-- Title: a60::carto::get_slices Pages: 1 -->
<svg width="419pt" height="130pt"
 viewBox="0.00 0.00 419.00 129.50" xmlns="http://www.w3.org/2000/svg" xmlns:xlink="http://www.w3.org/1999/xlink">
<g id="graph0" class="graph" transform="scale(1 1) rotate(0) translate(4 125.5)">
<title>a60::carto::get_slices</title>
<!-- Node1 -->
<g id="node1" class="node">
<title>Node1</title>
<g id="a_node1"><a xlink:title="ER slices.">
<polygon fill="#999999" stroke="#666666" points="106,-77 0,-77 0,-60 106,-60 106,-77"/>
<text text-anchor="middle" x="53" y="-66.6" font-family="SourceSans" font-size="8.00">a60::carto::get_slices</text>
</a>
</g>
</g>
<!-- Node2 -->
<g id="node2" class="node">
<title>Node2</title>
<g id="a_node2"><a xlink:href="namespacea60_1_1carto.html#a83691e5b941ef8caec88c183a259a897" target="_top" xlink:title="Per&#45;country slices.">
<polygon fill="white" stroke="#666666" points="256.5,-121.5 150.5,-121.5 150.5,-95.5 256.5,-95.5 256.5,-121.5"/>
<text text-anchor="start" x="158.5" y="-111.1" font-family="SourceSans" font-size="8.00">a60::carto::get_slices</text>
<text text-anchor="middle" x="203.5" y="-102.1" font-family="SourceSans" font-size="8.00">_by_country</text>
</a>
</g>
</g>
<!-- Node1&#45;&gt;Node2 -->
<g id="edge1" class="edge">
<title>Node1&#45;&gt;Node2</title>
<path fill="none" stroke="#63b8ff" d="M85.86,-77.08C102.84,-81.66 124.28,-87.43 144.13,-92.78"/>
<polygon fill="#63b8ff" stroke="#63b8ff" points="143.46,-96.22 154.03,-95.44 145.28,-89.46 143.46,-96.22"/>
</g>
<!-- Node3 -->
<g id="node3" class="node">
<title>Node3</title>
<g id="a_node3"><a xlink:href="namespacea60_1_1carto.html#a46b3c5235aa7e9f9ab3e5cd9cf0044cb" target="_top" xlink:title="Also fpod_iso, fpod_usa sizes.">
<polygon fill="white" stroke="#666666" points="265,-77 142,-77 142,-60 265,-60 265,-77"/>
<text text-anchor="middle" x="203.5" y="-66.6" font-family="SourceSans" font-size="8.00">a60::carto::get_slices_trio</text>
</a>
</g>
</g>
<!-- Node1&#45;&gt;Node3 -->
<g id="edge2" class="edge">
<title>Node1&#45;&gt;Node3</title>
<path fill="none" stroke="#63b8ff" d="M106.36,-68.5C114.64,-68.5 123.32,-68.5 131.94,-68.5"/>
<polygon fill="#63b8ff" stroke="#63b8ff" points="131.99,-72 141.99,-68.5 131.99,-65 131.99,-72"/>
</g>
<!-- Node4 -->
<g id="node4" class="node">
<title>Node4</title>
<g id="a_node4"><a xlink:href="namespacea60_1_1carto.html#ace1359c9924df560856a763e4dbf641e" target="_top" xlink:title=" ">
<polygon fill="white" stroke="#666666" points="256.5,-41.5 150.5,-41.5 150.5,-15.5 256.5,-15.5 256.5,-41.5"/>
<text text-anchor="start" x="158.5" y="-31.1" font-family="SourceSans" font-size="8.00">a60::carto::get_slices</text>
<text text-anchor="middle" x="203.5" y="-22.1" font-family="SourceSans" font-size="8.00">_trio_v_s</text>
</a>
</g>
</g>
<!-- Node1&#45;&gt;Node4 -->
<g id="edge3" class="edge">
<title>Node1&#45;&gt;Node4</title>
<path fill="none" stroke="#63b8ff" d="M85.86,-59.92C102.84,-55.34 124.28,-49.57 144.13,-44.22"/>
<polygon fill="#63b8ff" stroke="#63b8ff" points="145.28,-47.54 154.03,-41.56 143.46,-40.78 145.28,-47.54"/>
</g>
<!-- Node5 -->
<g id="node5" class="node">
<title>Node5</title>
<g id="a_node5"><a xlink:href="structa60_1_1carto_1_1frame.html#a991c85ae945ad0513554cae7a42b8002" target="_top" xlink:title=" ">
<polygon fill="white" stroke="#666666" points="403.5,-61.5 308.5,-61.5 308.5,-35.5 403.5,-35.5 403.5,-61.5"/>
<text text-anchor="start" x="316.5" y="-51.1" font-family="SourceSans" font-size="8.00">a60::carto::frame::</text>
<text text-anchor="middle" x="356" y="-42.1" font-family="SourceSans" font-size="8.00">bottom_tile_frame</text>
</a>
</g>
</g>
<!-- Node4&#45;&gt;Node5 -->
<g id="edge4" class="edge">
<title>Node4&#45;&gt;Node5</title>
<path fill="none" stroke="#63b8ff" d="M256.72,-35.44C270.11,-37.22 284.58,-39.14 298.2,-40.95"/>
<polygon fill="#63b8ff" stroke="#63b8ff" points="298.04,-44.46 308.41,-42.31 298.96,-37.52 298.04,-44.46"/>
</g>
<!-- Node6 -->
<g id="node6" class="node">
<title>Node6</title>
<g id="a_node6"><a xlink:href="namespacea60_1_1constants.html#a4eca9d522711df25806d6dd1ff38e904" target="_top" xlink:title=" ">
<polygon fill="white" stroke="#666666" points="411,-17 301,-17 301,0 411,0 411,-17"/>
<text text-anchor="middle" x="356" y="-6.6" font-family="SourceSans" font-size="8.00">a60::constants::space</text>
</a>
</g>
</g>
<!-- Node4&#45;&gt;Node6 -->
<g id="edge5" class="edge">
<title>Node4&#45;&gt;Node6</title>
<path fill="none" stroke="#63b8ff" d="M256.72,-21.56C267.64,-20.11 279.27,-18.56 290.58,-17.06"/>
<polygon fill="#63b8ff" stroke="#63b8ff" points="291.38,-20.49 300.83,-15.7 290.46,-13.55 291.38,-20.49"/>
</g>
</g>
</svg>
