<?xml version="1.0" encoding="UTF-8" standalone="no"?>
<!DOCTYPE svg PUBLIC "-//W3C//DTD SVG 1.1//EN"
 "http://www.w3.org/Graphics/SVG/1.1/DTD/svg11.dtd">
<!-- Generated by graphviz version 5.0.0 (0)
 -->
<!-- Title: a60::edit_cache_files_for_episode Pages: 1 -->
<svg width="567pt" height="312pt"
 viewBox="0.00 0.00 567.00 312.00" xmlns="http://www.w3.org/2000/svg" xmlns:xlink="http://www.w3.org/1999/xlink">
<g id="graph0" class="graph" transform="scale(1 1) rotate(0) translate(4 308)">
<title>a60::edit_cache_files_for_episode</title>
<!-- Node1 -->
<g id="node1" class="node">
<title>Node1</title>
<g id="a_node1"><a xlink:title=" ">
<polygon fill="#999999" stroke="#666666" points="104,-194 0,-194 0,-168 104,-168 104,-194"/>
<text text-anchor="start" x="8" y="-183.6" font-family="SourceSans" font-size="8.00">a60::edit_cache_files</text>
<text text-anchor="middle" x="52" y="-174.6" font-family="SourceSans" font-size="8.00">_for_episode</text>
</a>
</g>
</g>
<!-- Node2 -->
<g id="node2" class="node">
<title>Node2</title>
<g id="a_node2"><a xlink:href="namespacea60.html#af45982273a7a2e61b6aaa436081238c0" target="_top" xlink:title="Load JSON file to in&#45;memory DOM.">
<polygon fill="white" stroke="#666666" points="247,-304 143,-304 143,-278 247,-278 247,-304"/>
<text text-anchor="start" x="151" y="-293.6" font-family="SourceSans" font-size="8.00">a60::deserialize_json</text>
<text text-anchor="middle" x="195" y="-284.6" font-family="SourceSans" font-size="8.00">_to_dom_object</text>
</a>
</g>
</g>
<!-- Node1&#45;&gt;Node2 -->
<g id="edge1" class="edge">
<title>Node1&#45;&gt;Node2</title>
<path fill="none" stroke="#63b8ff" d="M63.2,-194.3C78.23,-213.12 108.02,-247.64 140,-269 142.37,-270.58 144.87,-272.08 147.44,-273.5"/>
<polygon fill="#63b8ff" stroke="#63b8ff" points="145.88,-276.63 156.39,-277.99 149.02,-270.38 145.88,-276.63"/>
</g>
<!-- Node4 -->
<g id="node4" class="node">
<title>Node4</title>
<g id="a_node4"><a xlink:href="namespacea60_1_1io.html#a16f17ea9e02c1975ca17b77e46cf7629" target="_top" xlink:title="Make sure a path ends in &#39;/&#39;;.">
<polygon fill="white" stroke="#666666" points="240,-259.5 150,-259.5 150,-242.5 240,-242.5 240,-259.5"/>
<text text-anchor="middle" x="195" y="-249.1" font-family="SourceSans" font-size="8.00">a60::io::end_path</text>
</a>
</g>
</g>
<!-- Node1&#45;&gt;Node4 -->
<g id="edge3" class="edge">
<title>Node1&#45;&gt;Node4</title>
<path fill="none" stroke="#63b8ff" d="M71.62,-194.18C88.75,-205.85 115.2,-222.74 140,-234 144.09,-235.86 148.44,-237.59 152.82,-239.19"/>
<polygon fill="#63b8ff" stroke="#63b8ff" points="151.8,-242.54 162.39,-242.46 154.06,-235.91 151.8,-242.54"/>
</g>
<!-- Node5 -->
<g id="node5" class="node">
<title>Node5</title>
<g id="a_node5"><a xlink:href="namespacea60_1_1io.html#aea30b8fc474f5a7b922516dc1e199037" target="_top" xlink:title="Takes a string representing a directory, returns a sorted list of contents as a std::vector&lt;string&gt;.">
<polygon fill="white" stroke="#666666" points="250,-224.5 140,-224.5 140,-207.5 250,-207.5 250,-224.5"/>
<text text-anchor="middle" x="195" y="-214.1" font-family="SourceSans" font-size="8.00">a60::io::populate_files</text>
</a>
</g>
</g>
<!-- Node1&#45;&gt;Node5 -->
<g id="edge4" class="edge">
<title>Node1&#45;&gt;Node5</title>
<path fill="none" stroke="#63b8ff" d="M104.3,-193.73C119.27,-197.45 135.49,-201.48 149.97,-205.07"/>
<polygon fill="#63b8ff" stroke="#63b8ff" points="149.13,-208.47 159.68,-207.48 150.82,-201.67 149.13,-208.47"/>
</g>
<!-- Node6 -->
<g id="node6" class="node">
<title>Node6</title>
<g id="a_node6"><a xlink:href="namespacea60_1_1io.html#af9ba5ecc6e668e47fb2f020216f7b611" target="_top" xlink:title="Strip off path component from full&#45;qualified filename.">
<polygon fill="white" stroke="#666666" points="244,-189.5 146,-189.5 146,-172.5 244,-172.5 244,-189.5"/>
<text text-anchor="middle" x="195" y="-179.1" font-family="SourceSans" font-size="8.00">a60::io::prune_path</text>
</a>
</g>
</g>
<!-- Node1&#45;&gt;Node6 -->
<g id="edge5" class="edge">
<title>Node1&#45;&gt;Node6</title>
<path fill="none" stroke="#63b8ff" d="M104.3,-181C114.46,-181 125.19,-181 135.57,-181"/>
<polygon fill="#63b8ff" stroke="#63b8ff" points="135.79,-184.5 145.79,-181 135.79,-177.5 135.79,-184.5"/>
</g>
<!-- Node7 -->
<g id="node7" class="node">
<title>Node7</title>
<g id="a_node7"><a xlink:href="namespacea60_1_1io.html#ad8339b50abcf6975587ba229c04066e7" target="_top" xlink:title="Check directory exists, else make it.">
<polygon fill="white" stroke="#666666" points="247,-154 143,-154 143,-128 247,-128 247,-154"/>
<text text-anchor="start" x="151" y="-143.6" font-family="SourceSans" font-size="8.00">a60::io::sanity_check</text>
<text text-anchor="middle" x="195" y="-134.6" font-family="SourceSans" font-size="8.00">_output_directory</text>
</a>
</g>
</g>
<!-- Node1&#45;&gt;Node7 -->
<g id="edge6" class="edge">
<title>Node1&#45;&gt;Node7</title>
<path fill="none" stroke="#63b8ff" d="M99.17,-167.9C111.58,-164.38 125.15,-160.53 138.04,-156.88"/>
<polygon fill="#63b8ff" stroke="#63b8ff" points="139.06,-160.22 147.73,-154.13 137.15,-153.49 139.06,-160.22"/>
</g>
<!-- Node8 -->
<g id="node8" class="node">
<title>Node8</title>
<g id="a_node8"><a xlink:href="namespacea60.html#a34d53970ee23a7c014960a2bf1a10e2b" target="_top" xlink:title="Search DOM for string literals.">
<polygon fill="white" stroke="#666666" points="246.5,-110 143.5,-110 143.5,-84 246.5,-84 246.5,-110"/>
<text text-anchor="start" x="151.5" y="-99.6" font-family="SourceSans" font-size="8.00">a60::search_dom_for</text>
<text text-anchor="middle" x="195" y="-90.6" font-family="SourceSans" font-size="8.00">_string_field</text>
</a>
</g>
</g>
<!-- Node1&#45;&gt;Node8 -->
<g id="edge7" class="edge">
<title>Node1&#45;&gt;Node8</title>
<path fill="none" stroke="#63b8ff" d="M68.93,-167.92C85.83,-154.47 113.68,-133.48 140,-119 143.02,-117.34 146.19,-115.73 149.42,-114.19"/>
<polygon fill="#63b8ff" stroke="#63b8ff" points="150.92,-117.35 158.59,-110.04 148.04,-110.97 150.92,-117.35"/>
</g>
<!-- Node9 -->
<g id="node9" class="node">
<title>Node9</title>
<g id="a_node9"><a xlink:href="structa60_1_1collection.html#a80993af9aec8238db8e44da1e9a3c994" target="_top" xlink:title=" ">
<polygon fill="white" stroke="#666666" points="246.5,-66 143.5,-66 143.5,-40 246.5,-40 246.5,-66"/>
<text text-anchor="start" x="151.5" y="-55.6" font-family="SourceSans" font-size="8.00">a60::collection::slice</text>
<text text-anchor="middle" x="195" y="-46.6" font-family="SourceSans" font-size="8.00">_name_mangled</text>
</a>
</g>
</g>
<!-- Node1&#45;&gt;Node9 -->
<g id="edge8" class="edge">
<title>Node1&#45;&gt;Node9</title>
<path fill="none" stroke="#63b8ff" d="M60.74,-167.81C74.26,-145.8 104.16,-101.42 140,-75 142.03,-73.5 144.18,-72.09 146.4,-70.75"/>
<polygon fill="#63b8ff" stroke="#63b8ff" points="148.1,-73.82 155.26,-66.01 144.79,-67.65 148.1,-73.82"/>
</g>
<!-- Node3 -->
<g id="node3" class="node">
<title>Node3</title>
<g id="a_node3"><a xlink:href="namespacea60.html#a538d43bb9bfa488a54cea929736dbe2d" target="_top" xlink:title="Deserialize input file.">
<polygon fill="white" stroke="#666666" points="403,-304 299,-304 299,-278 403,-278 403,-304"/>
<text text-anchor="start" x="307" y="-293.6" font-family="SourceSans" font-size="8.00">a60::deserialize_json</text>
<text text-anchor="middle" x="351" y="-284.6" font-family="SourceSans" font-size="8.00">_to_dom</text>
</a>
</g>
</g>
<!-- Node2&#45;&gt;Node3 -->
<g id="edge2" class="edge">
<title>Node2&#45;&gt;Node3</title>
<path fill="none" stroke="#63b8ff" d="M247.28,-291C260.53,-291 274.92,-291 288.63,-291"/>
<polygon fill="#63b8ff" stroke="#63b8ff" points="288.94,-294.5 298.94,-291 288.94,-287.5 288.94,-294.5"/>
</g>
<!-- Node10 -->
<g id="node10" class="node">
<title>Node10</title>
<g id="a_node10"><a xlink:href="structa60_1_1collection.html#a25b35cf4ac39da89d868fe2cf41b5acd" target="_top" xlink:title=" ">
<polygon fill="white" stroke="#666666" points="416,-96.5 286,-96.5 286,-79.5 416,-79.5 416,-96.5"/>
<text text-anchor="middle" x="351" y="-86.1" font-family="SourceSans" font-size="8.00">a60::collection::slice_name</text>
</a>
</g>
</g>
<!-- Node9&#45;&gt;Node10 -->
<g id="edge9" class="edge">
<title>Node9&#45;&gt;Node10</title>
<path fill="none" stroke="#63b8ff" d="M246.85,-64.56C264.72,-68.62 284.72,-73.16 302.32,-77.16"/>
<polygon fill="#63b8ff" stroke="#63b8ff" points="301.85,-80.65 312.37,-79.45 303.4,-73.82 301.85,-80.65"/>
</g>
<!-- Node11 -->
<g id="node11" class="node">
<title>Node11</title>
<g id="a_node11"><a xlink:href="namespacea60.html#ac7eddb2e330d8983ddc852edde5335c5" target="_top" xlink:title=" ">
<polygon fill="white" stroke="#666666" points="410.5,-61.5 291.5,-61.5 291.5,-44.5 410.5,-44.5 410.5,-61.5"/>
<text text-anchor="middle" x="351" y="-51.1" font-family="SourceSans" font-size="8.00">a60::to_lowercase_string</text>
</a>
</g>
</g>
<!-- Node9&#45;&gt;Node11 -->
<g id="edge10" class="edge">
<title>Node9&#45;&gt;Node11</title>
<path fill="none" stroke="#63b8ff" d="M246.85,-53C257.9,-53 269.76,-53 281.36,-53"/>
<polygon fill="#63b8ff" stroke="#63b8ff" points="281.46,-56.5 291.46,-53 281.46,-49.5 281.46,-56.5"/>
</g>
<!-- Node12 -->
<g id="node12" class="node">
<title>Node12</title>
<g id="a_node12"><a xlink:href="namespacea60.html#a11d9ffc210e8dca8410e7a5ad62deabc" target="_top" xlink:title=" ">
<polygon fill="white" stroke="#666666" points="407.5,-26 294.5,-26 294.5,0 407.5,0 407.5,-26"/>
<text text-anchor="start" x="302.5" y="-15.6" font-family="SourceSans" font-size="8.00">a60::to_replace_spaces</text>
<text text-anchor="middle" x="351" y="-6.6" font-family="SourceSans" font-size="8.00">_string</text>
</a>
</g>
</g>
<!-- Node9&#45;&gt;Node12 -->
<g id="edge11" class="edge">
<title>Node9&#45;&gt;Node12</title>
<path fill="none" stroke="#63b8ff" d="M246.43,-39.9C260.32,-36.29 275.54,-32.34 289.92,-28.6"/>
<polygon fill="#63b8ff" stroke="#63b8ff" points="290.93,-31.96 299.72,-26.06 289.17,-25.19 290.93,-31.96"/>
</g>
<!-- Node13 -->
<g id="node13" class="node">
<title>Node13</title>
<g id="a_node13"><a xlink:href="namespacea60.html#a751f954fe64233f1dc6517220e4b5692" target="_top" xlink:title=" ">
<polygon fill="white" stroke="#666666" points="559,-21.5 452,-21.5 452,-4.5 559,-4.5 559,-21.5"/>
<text text-anchor="middle" x="505.5" y="-11.1" font-family="SourceSans" font-size="8.00">a60::to_replace_string</text>
</a>
</g>
</g>
<!-- Node12&#45;&gt;Node13 -->
<g id="edge12" class="edge">
<title>Node12&#45;&gt;Node13</title>
<path fill="none" stroke="#63b8ff" d="M407.92,-13C418.92,-13 430.53,-13 441.73,-13"/>
<polygon fill="#63b8ff" stroke="#63b8ff" points="441.88,-16.5 451.88,-13 441.88,-9.5 441.88,-16.5"/>
</g>
</g>
</svg>
