<?xml version="1.0" encoding="UTF-8" standalone="no"?>
<!DOCTYPE svg PUBLIC "-//W3C//DTD SVG 1.1//EN"
 "http://www.w3.org/Graphics/SVG/1.1/DTD/svg11.dtd">
<!-- Generated by graphviz version 5.0.0 (0)
 -->
<!-- Title: a60::augment_torrent_collection_glyphs Pages: 1 -->
<svg width="556pt" height="70pt"
 viewBox="0.00 0.00 556.00 69.50" xmlns="http://www.w3.org/2000/svg" xmlns:xlink="http://www.w3.org/1999/xlink">
<g id="graph0" class="graph" transform="scale(1 1) rotate(0) translate(4 65.5)">
<title>a60::augment_torrent_collection_glyphs</title>
<!-- Node1 -->
<g id="node1" class="node">
<title>Node1</title>
<g id="a_node1"><a xlink:title=" ">
<polygon fill="#999999" stroke="#666666" points="106,-41.5 0,-41.5 0,-15.5 106,-15.5 106,-41.5"/>
<text text-anchor="start" x="8" y="-31.1" font-family="SourceSans" font-size="8.00">a60::augment_torrent</text>
<text text-anchor="middle" x="53" y="-22.1" font-family="SourceSans" font-size="8.00">_collection_glyphs</text>
</a>
</g>
</g>
<!-- Node2 -->
<g id="node2" class="node">
<title>Node2</title>
<g id="a_node2"><a xlink:href="namespacea60.html#a3cfdea4dd7a458ed4e7905deee906a99" target="_top" xlink:title="v3 by day/week/hour">
<polygon fill="white" stroke="#666666" points="248,-41.5 142,-41.5 142,-15.5 248,-15.5 248,-41.5"/>
<text text-anchor="start" x="150" y="-31.1" font-family="SourceSans" font-size="8.00">a60::augment_torrent</text>
<text text-anchor="middle" x="195" y="-22.1" font-family="SourceSans" font-size="8.00">_collection_glyphs_v3</text>
</a>
</g>
</g>
<!-- Node1&#45;&gt;Node2 -->
<g id="edge1" class="edge">
<title>Node1&#45;&gt;Node2</title>
<path fill="none" stroke="#63b8ff" d="M106.13,-28.5C114.42,-28.5 123.07,-28.5 131.57,-28.5"/>
<polygon fill="#63b8ff" stroke="#63b8ff" points="131.83,-32 141.83,-28.5 131.83,-25 131.83,-32"/>
</g>
<!-- Node3 -->
<g id="node3" class="node">
<title>Node3</title>
<g id="a_node3"><a xlink:href="namespacea60.html#a9a4d29d7f3a95a87dd84b13ef03eba4d" target="_top" xlink:title="Marian Bantje conversation picks up steam here. Compact stacked layout with torrent name vertical,...">
<polygon fill="white" stroke="#666666" points="398,-61.5 292,-61.5 292,-35.5 398,-35.5 398,-61.5"/>
<text text-anchor="start" x="300" y="-51.1" font-family="SourceSans" font-size="8.00">a60::augment_torrent</text>
<text text-anchor="middle" x="345" y="-42.1" font-family="SourceSans" font-size="8.00">_glyph_v3</text>
</a>
</g>
</g>
<!-- Node2&#45;&gt;Node3 -->
<g id="edge2" class="edge">
<title>Node2&#45;&gt;Node3</title>
<path fill="none" stroke="#63b8ff" d="M248.18,-35.55C259.01,-37.02 270.53,-38.57 281.68,-40.08"/>
<polygon fill="#63b8ff" stroke="#63b8ff" points="281.41,-43.57 291.79,-41.45 282.35,-36.64 281.41,-43.57"/>
</g>
<!-- Node5 -->
<g id="node5" class="node">
<title>Node5</title>
<g id="a_node5"><a xlink:href="namespacea60_1_1carto.html#af59ef7858ef576e7f17b781f38436f28" target="_top" xlink:title=" ">
<polygon fill="white" stroke="#666666" points="406,-17 284,-17 284,0 406,0 406,-17"/>
<text text-anchor="middle" x="345" y="-6.6" font-family="SourceSans" font-size="8.00">a60::carto::frame_margin</text>
</a>
</g>
</g>
<!-- Node2&#45;&gt;Node5 -->
<g id="edge4" class="edge">
<title>Node2&#45;&gt;Node5</title>
<path fill="none" stroke="#63b8ff" d="M248.18,-21.45C256.49,-20.33 265.21,-19.15 273.86,-17.98"/>
<polygon fill="#63b8ff" stroke="#63b8ff" points="274.51,-21.42 283.95,-16.61 273.57,-14.49 274.51,-21.42"/>
</g>
<!-- Node4 -->
<g id="node4" class="node">
<title>Node4</title>
<g id="a_node4"><a xlink:href="namespacea60.html#aa101f579d83d22aa64d69dcbd54789c3" target="_top" xlink:title=" ">
<polygon fill="white" stroke="#666666" points="548,-61.5 442,-61.5 442,-35.5 548,-35.5 548,-61.5"/>
<text text-anchor="start" x="450" y="-51.1" font-family="SourceSans" font-size="8.00">a60::augment_torrent</text>
<text text-anchor="middle" x="495" y="-42.1" font-family="SourceSans" font-size="8.00">_glyph_numbers</text>
</a>
</g>
</g>
<!-- Node3&#45;&gt;Node4 -->
<g id="edge3" class="edge">
<title>Node3&#45;&gt;Node4</title>
<path fill="none" stroke="#63b8ff" d="M398.18,-48.5C409.01,-48.5 420.53,-48.5 431.68,-48.5"/>
<polygon fill="#63b8ff" stroke="#63b8ff" points="431.79,-52 441.79,-48.5 431.79,-45 431.79,-52"/>
</g>
</g>
</svg>
