<?xml version="1.0" encoding="UTF-8" standalone="no"?>
<!DOCTYPE svg PUBLIC "-//W3C//DTD SVG 1.1//EN"
 "http://www.w3.org/Graphics/SVG/1.1/DTD/svg11.dtd">
<!-- Generated by graphviz version 5.0.0 (0)
 -->
<!-- Title: a60::metadata::values_from_fields_matching Pages: 1 -->
<svg width="276pt" height="132pt"
 viewBox="0.00 0.00 276.00 132.00" xmlns="http://www.w3.org/2000/svg" xmlns:xlink="http://www.w3.org/1999/xlink">
<g id="graph0" class="graph" transform="scale(1 1) rotate(0) translate(4 128)">
<title>a60::metadata::values_from_fields_matching</title>
<!-- Node1 -->
<g id="node1" class="node">
<title>Node1</title>
<g id="a_node1"><a xlink:title="Find the values/values playing for fields containing agg.">
<polygon fill="#999999" stroke="#666666" points="111,-66 0,-66 0,-40 111,-40 111,-66"/>
<text text-anchor="start" x="8" y="-55.6" font-family="SourceSans" font-size="8.00">a60::metadata::values</text>
<text text-anchor="middle" x="55.5" y="-46.6" font-family="SourceSans" font-size="8.00">_from_fields_matching</text>
</a>
</g>
</g>
<!-- Node2 -->
<g id="node2" class="node">
<title>Node2</title>
<g id="a_node2"><a xlink:href="namespacea60_1_1metadata.html#adc2e2f567c754963b5e5b5ca3960798e" target="_top" xlink:title="Input string vector @values is the vector of string field values from one field, say character&#45;lead&#45;1...">
<polygon fill="white" stroke="#666666" points="268,-124 147,-124 147,-98 268,-98 268,-124"/>
<text text-anchor="start" x="155" y="-113.6" font-family="SourceSans" font-size="8.00">a60::metadata::separate</text>
<text text-anchor="middle" x="207.5" y="-104.6" font-family="SourceSans" font-size="8.00">_playing_values</text>
</a>
</g>
</g>
<!-- Node1&#45;&gt;Node2 -->
<g id="edge1" class="edge">
<title>Node1&#45;&gt;Node2</title>
<path fill="none" stroke="#63b8ff" d="M88.68,-66.02C105.93,-72.95 127.58,-81.55 147,-89 151.58,-90.76 156.37,-92.57 161.15,-94.36"/>
<polygon fill="#63b8ff" stroke="#63b8ff" points="160.3,-97.78 170.89,-98 162.75,-91.22 160.3,-97.78"/>
</g>
<!-- Node3 -->
<g id="node3" class="node">
<title>Node3</title>
<g id="a_node3"><a xlink:href="namespacea60.html#a4e8b0cabed112734147b499bf0cc9029" target="_top" xlink:title="Conversion of resolution_mode to string.">
<polygon fill="white" stroke="#666666" points="244.5,-61.5 170.5,-61.5 170.5,-44.5 244.5,-44.5 244.5,-61.5"/>
<text text-anchor="middle" x="207.5" y="-51.1" font-family="SourceSans" font-size="8.00">a60::to_string</text>
</a>
</g>
</g>
<!-- Node1&#45;&gt;Node3 -->
<g id="edge2" class="edge">
<title>Node1&#45;&gt;Node3</title>
<path fill="none" stroke="#63b8ff" d="M111.08,-53C127.14,-53 144.56,-53 160.06,-53"/>
<polygon fill="#63b8ff" stroke="#63b8ff" points="160.44,-56.5 170.44,-53 160.44,-49.5 160.44,-56.5"/>
</g>
<!-- Node4 -->
<g id="node4" class="node">
<title>Node4</title>
<g id="a_node4"><a xlink:href="namespacea60_1_1metadata.html#a80da6438996a07a5fa1df5728c004b2a" target="_top" xlink:title="Find name &#39;field&#39; in JSON file and return vector of values.">
<polygon fill="white" stroke="#666666" points="263,-26 152,-26 152,0 263,0 263,-26"/>
<text text-anchor="start" x="160" y="-15.6" font-family="SourceSans" font-size="8.00">a60::metadata::values</text>
<text text-anchor="middle" x="207.5" y="-6.6" font-family="SourceSans" font-size="8.00">_from_field</text>
</a>
</g>
</g>
<!-- Node1&#45;&gt;Node4 -->
<g id="edge4" class="edge">
<title>Node1&#45;&gt;Node4</title>
<path fill="none" stroke="#63b8ff" d="M105.62,-39.9C119.02,-36.33 133.69,-32.42 147.58,-28.71"/>
<polygon fill="#63b8ff" stroke="#63b8ff" points="148.77,-32.02 157.53,-26.06 146.97,-25.25 148.77,-32.02"/>
</g>
<!-- Node3&#45;&gt;Node3 -->
<g id="edge3" class="edge">
<title>Node3&#45;&gt;Node3</title>
<path fill="none" stroke="#63b8ff" d="M184.85,-61.69C172.34,-70.17 179.89,-79.5 207.5,-79.5 226.05,-79.5 235.54,-75.29 235.98,-69.95"/>
<polygon fill="#63b8ff" stroke="#63b8ff" points="238.77,-67.84 230.15,-61.69 233.06,-71.87 238.77,-67.84"/>
</g>
</g>
</svg>
