<?xml version="1.0" encoding="UTF-8" standalone="no"?>
<!DOCTYPE svg PUBLIC "-//W3C//DTD SVG 1.1//EN"
 "http://www.w3.org/Graphics/SVG/1.1/DTD/svg11.dtd">
<!-- Generated by graphviz version 5.0.0 (0)
 -->
<!-- Title: a60::augment_corner_logo Pages: 1 -->
<svg width="293pt" height="140pt"
 viewBox="0.00 0.00 293.00 139.50" xmlns="http://www.w3.org/2000/svg" xmlns:xlink="http://www.w3.org/1999/xlink">
<g id="graph0" class="graph" transform="scale(1 1) rotate(0) translate(4 135.5)">
<title>a60::augment_corner_logo</title>
<!-- Node1 -->
<g id="node1" class="node">
<title>Node1</title>
<g id="a_node1"><a xlink:title=" ">
<polygon fill="#999999" stroke="#666666" points="127,-78.5 0,-78.5 0,-61.5 127,-61.5 127,-78.5"/>
<text text-anchor="middle" x="63.5" y="-68.1" font-family="SourceSans" font-size="8.00">a60::augment_corner_logo</text>
</a>
</g>
</g>
<!-- Node2 -->
<g id="node2" class="node">
<title>Node2</title>
<g id="a_node2"><a xlink:href="namespacea60.html#a9a4a56d4df51571fc4799d7320c74c73" target="_top" xlink:title=" ">
<polygon fill="white" stroke="#666666" points="277.5,-131.5 170.5,-131.5 170.5,-114.5 277.5,-114.5 277.5,-131.5"/>
<text text-anchor="middle" x="224" y="-121.1" font-family="SourceSans" font-size="8.00">a60::corner_logo_size</text>
</a>
</g>
</g>
<!-- Node1&#45;&gt;Node2 -->
<g id="edge1" class="edge">
<title>Node1&#45;&gt;Node2</title>
<path fill="none" stroke="#63b8ff" d="M86.63,-78.62C106.49,-86.23 136.5,-97.42 163,-106 168.95,-107.93 175.27,-109.85 181.48,-111.67"/>
<polygon fill="#63b8ff" stroke="#63b8ff" points="180.53,-115.04 191.11,-114.44 182.46,-108.31 180.53,-115.04"/>
</g>
<!-- Node3 -->
<g id="node3" class="node">
<title>Node3</title>
<g id="a_node3"><a xlink:href="namespacea60_1_1io.html#a16f17ea9e02c1975ca17b77e46cf7629" target="_top" xlink:title="Make sure a path ends in &#39;/&#39;;.">
<polygon fill="white" stroke="#666666" points="269,-96.5 179,-96.5 179,-79.5 269,-79.5 269,-96.5"/>
<text text-anchor="middle" x="224" y="-86.1" font-family="SourceSans" font-size="8.00">a60::io::end_path</text>
</a>
</g>
</g>
<!-- Node1&#45;&gt;Node3 -->
<g id="edge2" class="edge">
<title>Node1&#45;&gt;Node3</title>
<path fill="none" stroke="#63b8ff" d="M127.14,-77.11C140.93,-78.68 155.43,-80.33 168.85,-81.85"/>
<polygon fill="#63b8ff" stroke="#63b8ff" points="168.54,-85.34 178.88,-82.99 169.33,-78.38 168.54,-85.34"/>
</g>
<!-- Node4 -->
<g id="node4" class="node">
<title>Node4</title>
<g id="a_node4"><a xlink:href="namespacea60_1_1carto.html#af59ef7858ef576e7f17b781f38436f28" target="_top" xlink:title=" ">
<polygon fill="white" stroke="#666666" points="285,-61.5 163,-61.5 163,-44.5 285,-44.5 285,-61.5"/>
<text text-anchor="middle" x="224" y="-51.1" font-family="SourceSans" font-size="8.00">a60::carto::frame_margin</text>
</a>
</g>
</g>
<!-- Node1&#45;&gt;Node4 -->
<g id="edge3" class="edge">
<title>Node1&#45;&gt;Node4</title>
<path fill="none" stroke="#63b8ff" d="M127.14,-63.28C135.6,-62.37 144.32,-61.44 152.9,-60.52"/>
<polygon fill="#63b8ff" stroke="#63b8ff" points="153.31,-63.99 162.88,-59.45 152.56,-57.03 153.31,-63.99"/>
</g>
<!-- Node5 -->
<g id="node5" class="node">
<title>Node5</title>
<g id="a_node5"><a xlink:href="namespacea60_1_1io.html#ac95e5271a27a23bc2336d84b3f821fa2" target="_top" xlink:title="Constant filesystem and run&#45;time resources.">
<polygon fill="white" stroke="#666666" points="276,-26 172,-26 172,0 276,0 276,-26"/>
<text text-anchor="start" x="180" y="-15.6" font-family="SourceSans" font-size="8.00">a60::io::get_run_time</text>
<text text-anchor="middle" x="224" y="-6.6" font-family="SourceSans" font-size="8.00">_resources</text>
</a>
</g>
</g>
<!-- Node1&#45;&gt;Node5 -->
<g id="edge4" class="edge">
<title>Node1&#45;&gt;Node5</title>
<path fill="none" stroke="#63b8ff" d="M88.23,-61.47C111.66,-53.04 148.11,-39.93 177.19,-29.47"/>
<polygon fill="#63b8ff" stroke="#63b8ff" points="178.52,-32.72 186.74,-26.04 176.15,-26.13 178.52,-32.72"/>
</g>
</g>
</svg>
