<?xml version="1.0" encoding="UTF-8" standalone="no"?>
<!DOCTYPE svg PUBLIC "-//W3C//DTD SVG 1.1//EN"
 "http://www.w3.org/Graphics/SVG/1.1/DTD/svg11.dtd">
<!-- Generated by graphviz version 5.0.0 (0)
 -->
<!-- Title: a60::make_exit_node_meta_peers Pages: 1 -->
<svg width="400pt" height="194pt"
 viewBox="0.00 0.00 400.00 193.50" xmlns="http://www.w3.org/2000/svg" xmlns:xlink="http://www.w3.org/1999/xlink">
<g id="graph0" class="graph" transform="scale(1 1) rotate(0) translate(4 189.5)">
<title>a60::make_exit_node_meta_peers</title>
<!-- Node1 -->
<g id="node1" class="node">
<title>Node1</title>
<g id="a_node1"><a xlink:title="Survey current tor exit nodes and convert into meta_peers. Assume input list is sorted low to high,...">
<polygon fill="#999999" stroke="#666666" points="103,-106 0,-106 0,-80 103,-80 103,-106"/>
<text text-anchor="start" x="8" y="-95.6" font-family="SourceSans" font-size="8.00">a60::make_exit_node</text>
<text text-anchor="middle" x="51.5" y="-86.6" font-family="SourceSans" font-size="8.00">_meta_peers</text>
</a>
</g>
</g>
<!-- Node2 -->
<g id="node2" class="node">
<title>Node2</title>
<g id="a_node2"><a xlink:href="namespacea60_1_1io.html#a16f17ea9e02c1975ca17b77e46cf7629" target="_top" xlink:title="Make sure a path ends in &#39;/&#39;;.">
<polygon fill="white" stroke="#666666" points="240.5,-185.5 150.5,-185.5 150.5,-168.5 240.5,-168.5 240.5,-185.5"/>
<text text-anchor="middle" x="195.5" y="-175.1" font-family="SourceSans" font-size="8.00">a60::io::end_path</text>
</a>
</g>
</g>
<!-- Node1&#45;&gt;Node2 -->
<g id="edge1" class="edge">
<title>Node1&#45;&gt;Node2</title>
<path fill="none" stroke="#63b8ff" d="M66.46,-106.08C82.76,-120.73 111.06,-144.36 139,-159 143.21,-161.21 147.74,-163.21 152.33,-165.01"/>
<polygon fill="#63b8ff" stroke="#63b8ff" points="151.16,-168.31 161.76,-168.41 153.54,-161.72 151.16,-168.31"/>
</g>
<!-- Node3 -->
<g id="node3" class="node">
<title>Node3</title>
<g id="a_node3"><a xlink:href="namespacea60_1_1io.html#ac95e5271a27a23bc2336d84b3f821fa2" target="_top" xlink:title="Constant filesystem and run&#45;time resources.">
<polygon fill="white" stroke="#666666" points="247.5,-150 143.5,-150 143.5,-124 247.5,-124 247.5,-150"/>
<text text-anchor="start" x="151.5" y="-139.6" font-family="SourceSans" font-size="8.00">a60::io::get_run_time</text>
<text text-anchor="middle" x="195.5" y="-130.6" font-family="SourceSans" font-size="8.00">_resources</text>
</a>
</g>
</g>
<!-- Node1&#45;&gt;Node3 -->
<g id="edge2" class="edge">
<title>Node1&#45;&gt;Node3</title>
<path fill="none" stroke="#63b8ff" d="M94.72,-106.08C109.75,-110.74 126.85,-116.04 142.6,-120.92"/>
<polygon fill="#63b8ff" stroke="#63b8ff" points="141.61,-124.28 152.2,-123.89 143.68,-117.59 141.61,-124.28"/>
</g>
<!-- Node4 -->
<g id="node4" class="node">
<title>Node4</title>
<g id="a_node4"><a xlink:href="namespacea60.html#a439bb950e8e56f95462cb70ab0bab2f0" target="_top" xlink:title="Pruned line of text that starts with an IP4 address.">
<polygon fill="white" stroke="#666666" points="252,-106 139,-106 139,-80 252,-80 252,-106"/>
<text text-anchor="start" x="147" y="-95.6" font-family="SourceSans" font-size="8.00">a60::line_to_ip_address</text>
<text text-anchor="middle" x="195.5" y="-86.6" font-family="SourceSans" font-size="8.00">_as_string</text>
</a>
</g>
</g>
<!-- Node1&#45;&gt;Node4 -->
<g id="edge3" class="edge">
<title>Node1&#45;&gt;Node4</title>
<path fill="none" stroke="#63b8ff" d="M103.36,-93C111.51,-93 120.04,-93 128.48,-93"/>
<polygon fill="#63b8ff" stroke="#63b8ff" points="128.7,-96.5 138.7,-93 128.7,-89.5 128.7,-96.5"/>
</g>
<!-- Node5 -->
<g id="node5" class="node">
<title>Node5</title>
<g id="a_node5"><a xlink:href="namespacea60.html#ad300edc3a7396b9f52a64f37e9443891" target="_top" xlink:title="No GeoIP.">
<polygon fill="white" stroke="#666666" points="249,-61.5 142,-61.5 142,-44.5 249,-44.5 249,-61.5"/>
<text text-anchor="middle" x="195.5" y="-51.1" font-family="SourceSans" font-size="8.00">a60::make_meta_peer</text>
</a>
</g>
</g>
<!-- Node1&#45;&gt;Node5 -->
<g id="edge4" class="edge">
<title>Node1&#45;&gt;Node5</title>
<path fill="none" stroke="#63b8ff" d="M99,-79.9C116.85,-74.87 137.05,-69.18 154.27,-64.33"/>
<polygon fill="#63b8ff" stroke="#63b8ff" points="155.34,-67.67 164.02,-61.59 153.44,-60.93 155.34,-67.67"/>
</g>
<!-- Node6 -->
<g id="node6" class="node">
<title>Node6</title>
<g id="a_node6"><a xlink:href="structa60_1_1geo_1_1map__base.html#a9215731f10e2fa8488b0e081c2a5cef4" target="_top" xlink:title=" ">
<polygon fill="white" stroke="#666666" points="246.5,-26 144.5,-26 144.5,0 246.5,0 246.5,-26"/>
<text text-anchor="start" x="152.5" y="-15.6" font-family="SourceSans" font-size="8.00">a60::geo::map_base</text>
<text text-anchor="middle" x="195.5" y="-6.6" font-family="SourceSans" font-size="8.00">::open</text>
</a>
</g>
</g>
<!-- Node1&#45;&gt;Node6 -->
<g id="edge5" class="edge">
<title>Node1&#45;&gt;Node6</title>
<path fill="none" stroke="#63b8ff" d="M70.11,-79.96C87.17,-67.67 114.06,-49.23 139,-36 142.73,-34.02 146.67,-32.09 150.66,-30.25"/>
<polygon fill="#63b8ff" stroke="#63b8ff" points="152.26,-33.37 159.98,-26.11 149.42,-26.97 152.26,-33.37"/>
</g>
<!-- Node7 -->
<g id="node7" class="node">
<title>Node7</title>
<g id="a_node7"><a xlink:href="namespacea60_1_1io.html#aa5fbb8ab63397dd45c4a54c0758935ef" target="_top" xlink:title="Sanity check input existence.">
<polygon fill="white" stroke="#666666" points="392,-26 288,-26 288,0 392,0 392,-26"/>
<text text-anchor="start" x="296" y="-15.6" font-family="SourceSans" font-size="8.00">a60::io::sanity_check</text>
<text text-anchor="middle" x="340" y="-6.6" font-family="SourceSans" font-size="8.00">_input</text>
</a>
</g>
</g>
<!-- Node6&#45;&gt;Node7 -->
<g id="edge6" class="edge">
<title>Node6&#45;&gt;Node7</title>
<path fill="none" stroke="#63b8ff" d="M246.74,-13C256.72,-13 267.3,-13 277.6,-13"/>
<polygon fill="#63b8ff" stroke="#63b8ff" points="277.77,-16.5 287.77,-13 277.77,-9.5 277.77,-16.5"/>
</g>
</g>
</svg>
