<?xml version="1.0" encoding="UTF-8" standalone="no"?>
<!DOCTYPE svg PUBLIC "-//W3C//DTD SVG 1.1//EN"
 "http://www.w3.org/Graphics/SVG/1.1/DTD/svg11.dtd">
<!-- Generated by graphviz version 5.0.0 (0)
 -->
<!-- Title: a60::geo::alpha_2_to_alpha_3 Pages: 1 -->
<svg width="419pt" height="194pt"
 viewBox="0.00 0.00 419.00 194.00" xmlns="http://www.w3.org/2000/svg" xmlns:xlink="http://www.w3.org/1999/xlink">
<g id="graph0" class="graph" transform="scale(1 1) rotate(0) translate(4 190)">
<title>a60::geo::alpha_2_to_alpha_3</title>
<!-- Node1 -->
<g id="node1" class="node">
<title>Node1</title>
<g id="a_node1"><a xlink:title="Convert ISO 2 to ISO 3.">
<polygon fill="#999999" stroke="#666666" points="104,-106 0,-106 0,-80 104,-80 104,-106"/>
<text text-anchor="start" x="8" y="-95.6" font-family="SourceSans" font-size="8.00">a60::geo::alpha_2_to</text>
<text text-anchor="middle" x="52" y="-86.6" font-family="SourceSans" font-size="8.00">_alpha_3</text>
</a>
</g>
</g>
<!-- Node2 -->
<g id="node2" class="node">
<title>Node2</title>
<g id="a_node2"><a xlink:href="namespacea60_1_1geo.html#aa72939682c5a6daa05ddeb6103fde043" target="_top" xlink:title="ISO&#45;2 to ISO&#45;3.">
<polygon fill="white" stroke="#666666" points="261,-106 140,-106 140,-80 261,-80 261,-106"/>
<text text-anchor="start" x="148" y="-95.6" font-family="SourceSans" font-size="8.00">a60::geo::deserialize</text>
<text text-anchor="middle" x="200.5" y="-86.6" font-family="SourceSans" font-size="8.00">_json_to_iso_3166_2_map</text>
</a>
</g>
</g>
<!-- Node1&#45;&gt;Node2 -->
<g id="edge1" class="edge">
<title>Node1&#45;&gt;Node2</title>
<path fill="none" stroke="#63b8ff" d="M104.24,-93C112.48,-93 121.14,-93 129.73,-93"/>
<polygon fill="#63b8ff" stroke="#63b8ff" points="129.75,-96.5 139.75,-93 129.75,-89.5 129.75,-96.5"/>
</g>
<!-- Node3 -->
<g id="node3" class="node">
<title>Node3</title>
<g id="a_node3"><a xlink:href="namespacea60.html#a538d43bb9bfa488a54cea929736dbe2d" target="_top" xlink:title="Deserialize input file.">
<polygon fill="white" stroke="#666666" points="406,-186 302,-186 302,-160 406,-160 406,-186"/>
<text text-anchor="start" x="310" y="-175.6" font-family="SourceSans" font-size="8.00">a60::deserialize_json</text>
<text text-anchor="middle" x="354" y="-166.6" font-family="SourceSans" font-size="8.00">_to_dom</text>
</a>
</g>
</g>
<!-- Node2&#45;&gt;Node3 -->
<g id="edge2" class="edge">
<title>Node2&#45;&gt;Node3</title>
<path fill="none" stroke="#63b8ff" d="M220.7,-106.01C239.6,-118.49 269.54,-137.39 297,-151 300.48,-152.72 304.13,-154.41 307.83,-156.04"/>
<polygon fill="#63b8ff" stroke="#63b8ff" points="306.48,-159.27 317.05,-159.93 309.2,-152.82 306.48,-159.27"/>
</g>
<!-- Node4 -->
<g id="node4" class="node">
<title>Node4</title>
<g id="a_node4"><a xlink:href="namespacea60_1_1io.html#a16f17ea9e02c1975ca17b77e46cf7629" target="_top" xlink:title="Make sure a path ends in &#39;/&#39;;.">
<polygon fill="white" stroke="#666666" points="399,-141.5 309,-141.5 309,-124.5 399,-124.5 399,-141.5"/>
<text text-anchor="middle" x="354" y="-131.1" font-family="SourceSans" font-size="8.00">a60::io::end_path</text>
</a>
</g>
</g>
<!-- Node2&#45;&gt;Node4 -->
<g id="edge3" class="edge">
<title>Node2&#45;&gt;Node4</title>
<path fill="none" stroke="#63b8ff" d="M251.11,-106.1C270.33,-111.17 292.11,-116.92 310.59,-121.8"/>
<polygon fill="#63b8ff" stroke="#63b8ff" points="309.91,-125.24 320.48,-124.41 311.7,-118.48 309.91,-125.24"/>
</g>
<!-- Node5 -->
<g id="node5" class="node">
<title>Node5</title>
<g id="a_node5"><a xlink:href="namespacea60_1_1io.html#ac95e5271a27a23bc2336d84b3f821fa2" target="_top" xlink:title="Constant filesystem and run&#45;time resources.">
<polygon fill="white" stroke="#666666" points="406,-106 302,-106 302,-80 406,-80 406,-106"/>
<text text-anchor="start" x="310" y="-95.6" font-family="SourceSans" font-size="8.00">a60::io::get_run_time</text>
<text text-anchor="middle" x="354" y="-86.6" font-family="SourceSans" font-size="8.00">_resources</text>
</a>
</g>
</g>
<!-- Node2&#45;&gt;Node5 -->
<g id="edge4" class="edge">
<title>Node2&#45;&gt;Node5</title>
<path fill="none" stroke="#63b8ff" d="M261.38,-93C271.32,-93 281.65,-93 291.63,-93"/>
<polygon fill="#63b8ff" stroke="#63b8ff" points="291.87,-96.5 301.87,-93 291.87,-89.5 291.87,-96.5"/>
</g>
<!-- Node6 -->
<g id="node6" class="node">
<title>Node6</title>
<g id="a_node6"><a xlink:href="namespacea60.html#a0fc88c5c87f54b303a1856bc2aa76a45" target="_top" xlink:title=" ">
<polygon fill="white" stroke="#666666" points="411,-61.5 297,-61.5 297,-44.5 411,-44.5 411,-61.5"/>
<text text-anchor="middle" x="354" y="-51.1" font-family="SourceSans" font-size="8.00">a60::insert_to_iso_3166</text>
</a>
</g>
</g>
<!-- Node2&#45;&gt;Node6 -->
<g id="edge5" class="edge">
<title>Node2&#45;&gt;Node6</title>
<path fill="none" stroke="#63b8ff" d="M251.11,-79.9C270.33,-74.83 292.11,-69.08 310.59,-64.2"/>
<polygon fill="#63b8ff" stroke="#63b8ff" points="311.7,-67.52 320.48,-61.59 309.91,-60.76 311.7,-67.52"/>
</g>
<!-- Node7 -->
<g id="node7" class="node">
<title>Node7</title>
<g id="a_node7"><a xlink:href="namespacea60_1_1io.html#aa5fbb8ab63397dd45c4a54c0758935ef" target="_top" xlink:title="Sanity check input existence.">
<polygon fill="white" stroke="#666666" points="406,-26 302,-26 302,0 406,0 406,-26"/>
<text text-anchor="start" x="310" y="-15.6" font-family="SourceSans" font-size="8.00">a60::io::sanity_check</text>
<text text-anchor="middle" x="354" y="-6.6" font-family="SourceSans" font-size="8.00">_input</text>
</a>
</g>
</g>
<!-- Node2&#45;&gt;Node7 -->
<g id="edge6" class="edge">
<title>Node2&#45;&gt;Node7</title>
<path fill="none" stroke="#63b8ff" d="M221.5,-79.87C240.49,-67.7 270.06,-49.48 297,-36 301.02,-33.99 305.26,-32.01 309.54,-30.1"/>
<polygon fill="#63b8ff" stroke="#63b8ff" points="311.08,-33.25 318.88,-26.07 308.31,-26.82 311.08,-33.25"/>
</g>
</g>
</svg>
