<?xml version="1.0" encoding="UTF-8" standalone="no"?>
<!DOCTYPE svg PUBLIC "-//W3C//DTD SVG 1.1//EN"
 "http://www.w3.org/Graphics/SVG/1.1/DTD/svg11.dtd">
<!-- Generated by graphviz version 5.0.0 (0)
 -->
<!-- Title: a60::carto::fold_path_edges Pages: 1 -->
<svg width="265pt" height="202pt"
 viewBox="0.00 0.00 265.00 202.00" xmlns="http://www.w3.org/2000/svg" xmlns:xlink="http://www.w3.org/1999/xlink">
<g id="graph0" class="graph" transform="scale(1 1) rotate(0) translate(4 198)">
<title>a60::carto::fold_path_edges</title>
<!-- Node1 -->
<g id="node1" class="node">
<title>Node1</title>
<g id="a_node1"><a xlink:title=" ">
<polygon fill="#999999" stroke="#666666" points="104,-123.5 0,-123.5 0,-97.5 104,-97.5 104,-123.5"/>
<text text-anchor="start" x="8" y="-113.1" font-family="SourceSans" font-size="8.00">a60::carto::fold_path</text>
<text text-anchor="middle" x="52" y="-104.1" font-family="SourceSans" font-size="8.00">_edges</text>
</a>
</g>
</g>
<!-- Node2 -->
<g id="node2" class="node">
<title>Node2</title>
<g id="a_node2"><a xlink:href="namespacea60.html#a3c32f6c147e634c4b4c383aa09007d74" target="_top" xlink:title=" ">
<polygon fill="white" stroke="#666666" points="253.5,-194 143.5,-194 143.5,-177 253.5,-177 253.5,-194"/>
<text text-anchor="middle" x="198.5" y="-183.6" font-family="SourceSans" font-size="8.00">a60::distance_point_2t</text>
</a>
</g>
</g>
<!-- Node1&#45;&gt;Node2 -->
<g id="edge1" class="edge">
<title>Node1&#45;&gt;Node2</title>
<path fill="none" stroke="#63b8ff" d="M69.43,-123.66C86.29,-136.61 113.69,-156.19 140,-168.5 144.09,-170.41 148.44,-172.17 152.85,-173.76"/>
<polygon fill="#63b8ff" stroke="#63b8ff" points="151.92,-177.14 162.52,-176.99 154.14,-170.5 151.92,-177.14"/>
</g>
<!-- Node3 -->
<g id="node3" class="node">
<title>Node3</title>
<g id="a_node3"><a xlink:href="namespacea60_1_1constants.html#ac27c77e4606552ae5f74a1c21dd9258e" target="_top" xlink:title=" ">
<polygon fill="white" stroke="#666666" points="257,-159 140,-159 140,-142 257,-142 257,-159"/>
<text text-anchor="middle" x="198.5" y="-148.6" font-family="SourceSans" font-size="8.00">a60::constants::newline</text>
</a>
</g>
</g>
<!-- Node1&#45;&gt;Node3 -->
<g id="edge2" class="edge">
<title>Node1&#45;&gt;Node3</title>
<path fill="none" stroke="#63b8ff" d="M100.31,-123.6C118.48,-128.63 139.04,-134.32 156.56,-139.17"/>
<polygon fill="#63b8ff" stroke="#63b8ff" points="155.91,-142.62 166.48,-141.91 157.78,-135.87 155.91,-142.62"/>
</g>
<!-- Node4 -->
<g id="node4" class="node">
<title>Node4</title>
<g id="a_node4"><a xlink:href="structa60_1_1carto_1_1cartography.html#a228cede7b1b2847024501cfdac0640ca" target="_top" xlink:title=" ">
<polygon fill="white" stroke="#666666" points="256,-123.5 141,-123.5 141,-97.5 256,-97.5 256,-123.5"/>
<text text-anchor="start" x="149" y="-113.1" font-family="SourceSans" font-size="8.00">a60::carto::cartography</text>
<text text-anchor="middle" x="198.5" y="-104.1" font-family="SourceSans" font-size="8.00">::point_to_x_quadrant</text>
</a>
</g>
</g>
<!-- Node1&#45;&gt;Node4 -->
<g id="edge3" class="edge">
<title>Node1&#45;&gt;Node4</title>
<path fill="none" stroke="#63b8ff" d="M104.35,-110.5C112.86,-110.5 121.8,-110.5 130.63,-110.5"/>
<polygon fill="#63b8ff" stroke="#63b8ff" points="130.91,-114 140.91,-110.5 130.91,-107 130.91,-114"/>
</g>
<!-- Node5 -->
<g id="node5" class="node">
<title>Node5</title>
<g id="a_node5"><a xlink:href="structa60_1_1carto_1_1cartography.html#a1f7b7d81b342346b52e5c6c9b9e3455a" target="_top" xlink:title="Top (h1) and bottom (h2) vertical.">
<polygon fill="white" stroke="#666666" points="256,-79.5 141,-79.5 141,-53.5 256,-53.5 256,-79.5"/>
<text text-anchor="start" x="149" y="-69.1" font-family="SourceSans" font-size="8.00">a60::carto::cartography</text>
<text text-anchor="middle" x="198.5" y="-60.1" font-family="SourceSans" font-size="8.00">::point_to_y_half</text>
</a>
</g>
</g>
<!-- Node1&#45;&gt;Node5 -->
<g id="edge4" class="edge">
<title>Node1&#45;&gt;Node5</title>
<path fill="none" stroke="#63b8ff" d="M95.96,-97.42C111.33,-92.74 128.82,-87.41 144.9,-82.52"/>
<polygon fill="#63b8ff" stroke="#63b8ff" points="146.16,-85.79 154.7,-79.53 144.12,-79.1 146.16,-85.79"/>
</g>
<!-- Node6 -->
<g id="node6" class="node">
<title>Node6</title>
<g id="a_node6"><a xlink:href="namespacea60.html#a4e8b0cabed112734147b499bf0cc9029" target="_top" xlink:title="Conversion of resolution_mode to string.">
<polygon fill="white" stroke="#666666" points="235.5,-17 161.5,-17 161.5,0 235.5,0 235.5,-17"/>
<text text-anchor="middle" x="198.5" y="-6.6" font-family="SourceSans" font-size="8.00">a60::to_string</text>
</a>
</g>
</g>
<!-- Node1&#45;&gt;Node6 -->
<g id="edge5" class="edge">
<title>Node1&#45;&gt;Node6</title>
<path fill="none" stroke="#63b8ff" d="M69.35,-97.4C86.6,-83.74 114.72,-61.95 140,-44.5 151.1,-36.84 163.76,-28.83 174.38,-22.32"/>
<polygon fill="#63b8ff" stroke="#63b8ff" points="176.36,-25.21 183.09,-17.03 172.73,-19.23 176.36,-25.21"/>
</g>
<!-- Node6&#45;&gt;Node6 -->
<g id="edge6" class="edge">
<title>Node6&#45;&gt;Node6</title>
<path fill="none" stroke="#63b8ff" d="M176.75,-17.19C164.73,-25.67 171.98,-35 198.5,-35 215.9,-35 225.01,-30.98 225.82,-25.82"/>
<polygon fill="#63b8ff" stroke="#63b8ff" points="228.61,-23.7 220.25,-17.19 222.73,-27.49 228.61,-23.7"/>
</g>
</g>
</svg>
