<?xml version="1.0" encoding="UTF-8" standalone="no"?>
<!DOCTYPE svg PUBLIC "-//W3C//DTD SVG 1.1//EN"
 "http://www.w3.org/Graphics/SVG/1.1/DTD/svg11.dtd">
<!-- Generated by graphviz version 5.0.0 (0)
 -->
<!-- Title: a60::reserialize_sample_json Pages: 1 -->
<svg width="447pt" height="122pt"
 viewBox="0.00 0.00 447.00 122.00" xmlns="http://www.w3.org/2000/svg" xmlns:xlink="http://www.w3.org/1999/xlink">
<g id="graph0" class="graph" transform="scale(1 1) rotate(0) translate(4 118)">
<title>a60::reserialize_sample_json</title>
<!-- Node1 -->
<g id="node1" class="node">
<title>Node1</title>
<g id="a_node1"><a xlink:title="Write out meta_peers for a specific ID at SUFFIX.">
<polygon fill="#999999" stroke="#666666" points="135,-65.5 0,-65.5 0,-48.5 135,-48.5 135,-65.5"/>
<text text-anchor="middle" x="67.5" y="-55.1" font-family="SourceSans" font-size="8.00">a60::reserialize_sample_json</text>
</a>
</g>
</g>
<!-- Node2 -->
<g id="node2" class="node">
<title>Node2</title>
<g id="a_node2"><a xlink:href="namespacea60.html#aba8b47de875bd5bebeed9c57e3b52c06" target="_top" xlink:title="Serialize buffer to output file.">
<polygon fill="white" stroke="#666666" points="279.5,-105.5 178.5,-105.5 178.5,-88.5 279.5,-88.5 279.5,-105.5"/>
<text text-anchor="middle" x="229" y="-95.1" font-family="SourceSans" font-size="8.00">a60::serialize_buffer</text>
</a>
</g>
</g>
<!-- Node1&#45;&gt;Node2 -->
<g id="edge1" class="edge">
<title>Node1&#45;&gt;Node2</title>
<path fill="none" stroke="#63b8ff" d="M102.72,-65.58C126.47,-71.54 158.34,-79.53 183.99,-85.96"/>
<polygon fill="#63b8ff" stroke="#63b8ff" points="183.29,-89.4 193.84,-88.43 184.99,-82.61 183.29,-89.4"/>
</g>
<!-- Node3 -->
<g id="node3" class="node">
<title>Node3</title>
<g id="a_node3"><a xlink:href="namespacea60.html#a94d004bc4c17246fd2bb76cabb121d9a" target="_top" xlink:title="Per collection metadata for given duration.">
<polygon fill="white" stroke="#666666" points="287,-70 171,-70 171,-44 287,-44 287,-70"/>
<text text-anchor="start" x="179" y="-59.6" font-family="SourceSans" font-size="8.00">a60::serialize_collection</text>
<text text-anchor="middle" x="229" y="-50.6" font-family="SourceSans" font-size="8.00">_metadata_json</text>
</a>
</g>
</g>
<!-- Node1&#45;&gt;Node3 -->
<g id="edge2" class="edge">
<title>Node1&#45;&gt;Node3</title>
<path fill="none" stroke="#63b8ff" d="M135.22,-57C143.59,-57 152.17,-57 160.55,-57"/>
<polygon fill="#63b8ff" stroke="#63b8ff" points="160.66,-60.5 170.66,-57 160.66,-53.5 160.66,-60.5"/>
</g>
<!-- Node6 -->
<g id="node6" class="node">
<title>Node6</title>
<g id="a_node6"><a xlink:href="namespacea60.html#a87cd73602b7d6cf64ef441200cfda504" target="_top" xlink:title="Serialize vector of meta_peer.">
<polygon fill="white" stroke="#666666" points="278,-26 180,-26 180,0 278,0 278,-26"/>
<text text-anchor="start" x="188" y="-15.6" font-family="SourceSans" font-size="8.00">a60::serialize_meta</text>
<text text-anchor="middle" x="229" y="-6.6" font-family="SourceSans" font-size="8.00">_peers_json</text>
</a>
</g>
</g>
<!-- Node1&#45;&gt;Node6 -->
<g id="edge5" class="edge">
<title>Node1&#45;&gt;Node6</title>
<path fill="none" stroke="#63b8ff" d="M99.63,-48.41C119.87,-42.83 146.87,-35.38 170.88,-28.76"/>
<polygon fill="#63b8ff" stroke="#63b8ff" points="171.9,-32.11 180.61,-26.07 170.03,-25.36 171.9,-32.11"/>
</g>
<!-- Node4 -->
<g id="node4" class="node">
<title>Node4</title>
<g id="a_node4"><a xlink:href="structa60_1_1collection.html#a8ac066ef3bb824d0ecff3b1238e358e4" target="_top" xlink:title=" ">
<polygon fill="white" stroke="#666666" points="430,-114 332,-114 332,-88 430,-88 430,-114"/>
<text text-anchor="start" x="340" y="-103.6" font-family="SourceSans" font-size="8.00">a60::collection::get</text>
<text text-anchor="middle" x="381" y="-94.6" font-family="SourceSans" font-size="8.00">_name_from_tid</text>
</a>
</g>
</g>
<!-- Node3&#45;&gt;Node4 -->
<g id="edge3" class="edge">
<title>Node3&#45;&gt;Node4</title>
<path fill="none" stroke="#63b8ff" d="M274.6,-70.08C290.7,-74.8 309.05,-80.19 325.87,-85.12"/>
<polygon fill="#63b8ff" stroke="#63b8ff" points="324.99,-88.51 335.57,-87.97 326.96,-81.79 324.99,-88.51"/>
</g>
<!-- Node5 -->
<g id="node5" class="node">
<title>Node5</title>
<g id="a_node5"><a xlink:href="namespacea60.html#a5491ff3ca7dc34407696caaa90828819" target="_top" xlink:title="First collection serialization, common for all writing.">
<polygon fill="white" stroke="#666666" points="439,-70 323,-70 323,-44 439,-44 439,-70"/>
<text text-anchor="start" x="331" y="-59.6" font-family="SourceSans" font-size="8.00">a60::serialize_collection</text>
<text text-anchor="middle" x="381" y="-50.6" font-family="SourceSans" font-size="8.00">_base_json</text>
</a>
</g>
</g>
<!-- Node3&#45;&gt;Node5 -->
<g id="edge4" class="edge">
<title>Node3&#45;&gt;Node5</title>
<path fill="none" stroke="#63b8ff" d="M287.14,-57C295.38,-57 303.92,-57 312.34,-57"/>
<polygon fill="#63b8ff" stroke="#63b8ff" points="312.53,-60.5 322.53,-57 312.53,-53.5 312.53,-60.5"/>
</g>
<!-- Node7 -->
<g id="node7" class="node">
<title>Node7</title>
<g id="a_node7"><a xlink:href="namespacea60.html#a2228baa081fe66cea91ed8032bda4732" target="_top" xlink:title="Serialize meta_peer.">
<polygon fill="white" stroke="#666666" points="430,-26 332,-26 332,0 430,0 430,-26"/>
<text text-anchor="start" x="340" y="-15.6" font-family="SourceSans" font-size="8.00">a60::serialize_meta</text>
<text text-anchor="middle" x="381" y="-6.6" font-family="SourceSans" font-size="8.00">_peer_json</text>
</a>
</g>
</g>
<!-- Node6&#45;&gt;Node7 -->
<g id="edge6" class="edge">
<title>Node6&#45;&gt;Node7</title>
<path fill="none" stroke="#63b8ff" d="M278.29,-13C292.07,-13 307.24,-13 321.56,-13"/>
<polygon fill="#63b8ff" stroke="#63b8ff" points="321.8,-16.5 331.8,-13 321.8,-9.5 321.8,-16.5"/>
</g>
</g>
</svg>
