<?xml version="1.0" encoding="UTF-8" standalone="no"?>
<!DOCTYPE svg PUBLIC "-//W3C//DTD SVG 1.1//EN"
 "http://www.w3.org/Graphics/SVG/1.1/DTD/svg11.dtd">
<!-- Generated by graphviz version 5.0.0 (0)
 -->
<!-- Title: a60::internet_exchanges_geojson Pages: 1 -->
<svg width="434pt" height="116pt"
 viewBox="0.00 0.00 434.00 116.00" xmlns="http://www.w3.org/2000/svg" xmlns:xlink="http://www.w3.org/1999/xlink">
<g id="graph0" class="graph" transform="scale(1 1) rotate(0) translate(4 112)">
<title>a60::internet_exchanges_geojson</title>
<!-- Node1 -->
<g id="node1" class="node">
<title>Node1</title>
<g id="a_node1"><a xlink:title="Create x or cross marks at internet exchanges (ix)">
<polygon fill="#999999" stroke="#666666" points="119,-67 0,-67 0,-41 119,-41 119,-67"/>
<text text-anchor="start" x="8" y="-56.6" font-family="SourceSans" font-size="8.00">a60::internet_exchanges</text>
<text text-anchor="middle" x="59.5" y="-47.6" font-family="SourceSans" font-size="8.00">_geojson</text>
</a>
</g>
</g>
<!-- Node2 -->
<g id="node2" class="node">
<title>Node2</title>
<g id="a_node2"><a xlink:href="namespacea60.html#af45982273a7a2e61b6aaa436081238c0" target="_top" xlink:title="Load JSON file to in&#45;memory DOM.">
<polygon fill="white" stroke="#666666" points="266,-108 162,-108 162,-82 266,-82 266,-108"/>
<text text-anchor="start" x="170" y="-97.6" font-family="SourceSans" font-size="8.00">a60::deserialize_json</text>
<text text-anchor="middle" x="214" y="-88.6" font-family="SourceSans" font-size="8.00">_to_dom_object</text>
</a>
</g>
</g>
<!-- Node1&#45;&gt;Node2 -->
<g id="edge1" class="edge">
<title>Node1&#45;&gt;Node2</title>
<path fill="none" stroke="#63b8ff" d="M109.17,-67.09C123.69,-70.99 139.74,-75.3 154.8,-79.35"/>
<polygon fill="#63b8ff" stroke="#63b8ff" points="153.96,-82.75 164.53,-81.97 155.78,-75.99 153.96,-82.75"/>
</g>
<!-- Node4 -->
<g id="node4" class="node">
<title>Node4</title>
<g id="a_node4"><a xlink:href="namespacea60_1_1constants.html#ac27c77e4606552ae5f74a1c21dd9258e" target="_top" xlink:title=" ">
<polygon fill="white" stroke="#666666" points="426,-62.5 309,-62.5 309,-45.5 426,-45.5 426,-62.5"/>
<text text-anchor="middle" x="367.5" y="-52.1" font-family="SourceSans" font-size="8.00">a60::constants::newline</text>
</a>
</g>
</g>
<!-- Node1&#45;&gt;Node4 -->
<g id="edge3" class="edge">
<title>Node1&#45;&gt;Node4</title>
<path fill="none" stroke="#63b8ff" d="M119.14,-54C170.41,-54 244.88,-54 298.7,-54"/>
<polygon fill="#63b8ff" stroke="#63b8ff" points="298.84,-57.5 308.84,-54 298.84,-50.5 298.84,-57.5"/>
</g>
<!-- Node5 -->
<g id="node5" class="node">
<title>Node5</title>
<g id="a_node5"><a xlink:href="namespacea60.html#a3fdf876ab1d06c5cfd12a9018c231dd8" target="_top" xlink:title=" ">
<polygon fill="white" stroke="#666666" points="273,-26 155,-26 155,0 273,0 273,-26"/>
<text text-anchor="start" x="163" y="-15.6" font-family="SourceSans" font-size="8.00">a60::point_from_geojson</text>
<text text-anchor="middle" x="214" y="-6.6" font-family="SourceSans" font-size="8.00">_coordinate</text>
</a>
</g>
</g>
<!-- Node1&#45;&gt;Node5 -->
<g id="edge4" class="edge">
<title>Node1&#45;&gt;Node5</title>
<path fill="none" stroke="#63b8ff" d="M109.17,-40.91C123.69,-37.01 139.74,-32.7 154.8,-28.65"/>
<polygon fill="#63b8ff" stroke="#63b8ff" points="155.78,-32.01 164.53,-26.03 153.96,-25.25 155.78,-32.01"/>
</g>
<!-- Node3 -->
<g id="node3" class="node">
<title>Node3</title>
<g id="a_node3"><a xlink:href="namespacea60.html#a538d43bb9bfa488a54cea929736dbe2d" target="_top" xlink:title="Deserialize input file.">
<polygon fill="white" stroke="#666666" points="419.5,-108 315.5,-108 315.5,-82 419.5,-82 419.5,-108"/>
<text text-anchor="start" x="323.5" y="-97.6" font-family="SourceSans" font-size="8.00">a60::deserialize_json</text>
<text text-anchor="middle" x="367.5" y="-88.6" font-family="SourceSans" font-size="8.00">_to_dom</text>
</a>
</g>
</g>
<!-- Node2&#45;&gt;Node3 -->
<g id="edge2" class="edge">
<title>Node2&#45;&gt;Node3</title>
<path fill="none" stroke="#63b8ff" d="M266.29,-95C278.75,-95 292.21,-95 305.09,-95"/>
<polygon fill="#63b8ff" stroke="#63b8ff" points="305.26,-98.5 315.26,-95 305.26,-91.5 305.26,-98.5"/>
</g>
<!-- Node5&#45;&gt;Node4 -->
<g id="edge5" class="edge">
<title>Node5&#45;&gt;Node4</title>
<path fill="none" stroke="#63b8ff" d="M263.35,-26.09C283.17,-31.45 305.88,-37.6 324.94,-42.75"/>
<polygon fill="#63b8ff" stroke="#63b8ff" points="324.26,-46.19 334.82,-45.43 326.08,-39.44 324.26,-46.19"/>
</g>
<!-- Node6 -->
<g id="node6" class="node">
<title>Node6</title>
<g id="a_node6"><a xlink:href="structa60_1_1carto_1_1cartography.html#a57e14cabb4993189316e369a27752a73" target="_top" xlink:title=" ">
<polygon fill="white" stroke="#666666" points="425,-26 310,-26 310,0 425,0 425,-26"/>
<text text-anchor="start" x="318" y="-15.6" font-family="SourceSans" font-size="8.00">a60::carto::cartography</text>
<text text-anchor="middle" x="367.5" y="-6.6" font-family="SourceSans" font-size="8.00">::to_point_2d</text>
</a>
</g>
</g>
<!-- Node5&#45;&gt;Node6 -->
<g id="edge6" class="edge">
<title>Node5&#45;&gt;Node6</title>
<path fill="none" stroke="#63b8ff" d="M273.14,-13C281.78,-13 290.74,-13 299.54,-13"/>
<polygon fill="#63b8ff" stroke="#63b8ff" points="299.76,-16.5 309.76,-13 299.76,-9.5 299.76,-16.5"/>
</g>
</g>
</svg>
