<?xml version="1.0" encoding="UTF-8" standalone="no"?>
<!DOCTYPE svg PUBLIC "-//W3C//DTD SVG 1.1//EN"
 "http://www.w3.org/Graphics/SVG/1.1/DTD/svg11.dtd">
<!-- Generated by graphviz version 5.0.0 (0)
 -->
<!-- Title: a60::make_glyphs Pages: 1 -->
<svg width="688pt" height="307pt"
 viewBox="0.00 0.00 688.00 307.00" xmlns="http://www.w3.org/2000/svg" xmlns:xlink="http://www.w3.org/1999/xlink">
<g id="graph0" class="graph" transform="scale(1 1) rotate(0) translate(4 303)">
<title>a60::make_glyphs</title>
<!-- Node1 -->
<g id="node1" class="node">
<title>Node1</title>
<g id="a_node1"><a xlink:title="Expensive. Should this be part of a weighed collection?">
<polygon fill="#999999" stroke="#666666" points="91,-182 0,-182 0,-165 91,-165 91,-182"/>
<text text-anchor="middle" x="45.5" y="-171.6" font-family="SourceSans" font-size="8.00">a60::make_glyphs</text>
</a>
</g>
</g>
<!-- Node2 -->
<g id="node2" class="node">
<title>Node2</title>
<g id="a_node2"><a xlink:href="namespacea60.html#ae9dd8f5f0bd8cfc07cfc19f957cf2c95" target="_top" xlink:title="Shell for titles page.">
<polygon fill="white" stroke="#666666" points="243,-182 127,-182 127,-165 243,-165 243,-182"/>
<text text-anchor="middle" x="185" y="-171.6" font-family="SourceSans" font-size="8.00">a60::make_glyphs_basic</text>
</a>
</g>
</g>
<!-- Node1&#45;&gt;Node2 -->
<g id="edge1" class="edge">
<title>Node1&#45;&gt;Node2</title>
<path fill="none" stroke="#63b8ff" d="M91.14,-173.5C99.26,-173.5 107.89,-173.5 116.49,-173.5"/>
<polygon fill="#63b8ff" stroke="#63b8ff" points="116.55,-177 126.55,-173.5 116.55,-170 116.55,-177"/>
</g>
<!-- Node3 -->
<g id="node3" class="node">
<title>Node3</title>
<g id="a_node3"><a xlink:href="namespacea60.html#a732ca2d85679838beb92881e9f39a999" target="_top" xlink:title="Engage bittorrent, create session.">
<polygon fill="white" stroke="#666666" points="395,-299 283,-299 283,-282 395,-282 395,-299"/>
<text text-anchor="middle" x="339" y="-288.6" font-family="SourceSans" font-size="8.00">a60::configure_session</text>
</a>
</g>
</g>
<!-- Node2&#45;&gt;Node3 -->
<g id="edge2" class="edge">
<title>Node2&#45;&gt;Node3</title>
<path fill="none" stroke="#63b8ff" d="M192.52,-182.22C206.5,-200.39 241.2,-242.67 279,-267.5 285.25,-271.61 292.35,-275.16 299.41,-278.16"/>
<polygon fill="#63b8ff" stroke="#63b8ff" points="298.32,-281.49 308.91,-281.9 300.89,-274.98 298.32,-281.49"/>
</g>
<!-- Node4 -->
<g id="node4" class="node">
<title>Node4</title>
<g id="a_node4"><a xlink:href="namespacea60_1_1io.html#a16f17ea9e02c1975ca17b77e46cf7629" target="_top" xlink:title="Make sure a path ends in &#39;/&#39;;.">
<polygon fill="white" stroke="#666666" points="680,-203 590,-203 590,-186 680,-186 680,-203"/>
<text text-anchor="middle" x="635" y="-192.6" font-family="SourceSans" font-size="8.00">a60::io::end_path</text>
</a>
</g>
</g>
<!-- Node2&#45;&gt;Node4 -->
<g id="edge3" class="edge">
<title>Node2&#45;&gt;Node4</title>
<path fill="none" stroke="#63b8ff" d="M199.85,-182.03C217.47,-192.33 249.21,-209.09 279,-215.5 387.79,-238.93 519.37,-218.95 587.72,-205.08"/>
<polygon fill="#63b8ff" stroke="#63b8ff" points="588.66,-208.46 597.73,-203 587.23,-201.61 588.66,-208.46"/>
</g>
<!-- Node5 -->
<g id="node5" class="node">
<title>Node5</title>
<g id="a_node5"><a xlink:href="namespacea60_1_1io.html#a89f2bd581ec510ccc0a8cfedccff7bd0" target="_top" xlink:title="Top level of directory for output files.">
<polygon fill="white" stroke="#666666" points="387,-206.5 291,-206.5 291,-180.5 387,-180.5 387,-206.5"/>
<text text-anchor="start" x="299" y="-196.1" font-family="SourceSans" font-size="8.00">a60::io::get_output</text>
<text text-anchor="middle" x="339" y="-187.1" font-family="SourceSans" font-size="8.00">_directory</text>
</a>
</g>
</g>
<!-- Node2&#45;&gt;Node5 -->
<g id="edge4" class="edge">
<title>Node2&#45;&gt;Node5</title>
<path fill="none" stroke="#63b8ff" d="M243.03,-181C255.27,-182.61 268.22,-184.32 280.47,-185.93"/>
<polygon fill="#63b8ff" stroke="#63b8ff" points="280.21,-189.43 290.58,-187.26 281.12,-182.49 280.21,-189.43"/>
</g>
<!-- Node7 -->
<g id="node7" class="node">
<title>Node7</title>
<g id="a_node7"><a xlink:href="namespacea60.html#a1ae4660be19d8586055437f379fa4985" target="_top" xlink:title="Configure torrent session.">
<polygon fill="white" stroke="#666666" points="399,-162 279,-162 279,-145 399,-145 399,-162"/>
<text text-anchor="middle" x="339" y="-151.6" font-family="SourceSans" font-size="8.00">a60::make_settings_pack</text>
</a>
</g>
</g>
<!-- Node2&#45;&gt;Node7 -->
<g id="edge8" class="edge">
<title>Node2&#45;&gt;Node7</title>
<path fill="none" stroke="#63b8ff" d="M243.03,-166C251.45,-164.89 260.2,-163.74 268.82,-162.6"/>
<polygon fill="#63b8ff" stroke="#63b8ff" points="269.42,-166.05 278.87,-161.28 268.5,-159.11 269.42,-166.05"/>
</g>
<!-- Node8 -->
<g id="node8" class="node">
<title>Node8</title>
<g id="a_node8"><a xlink:href="structa60_1_1collection.html#a997d47a7fc3ffcabaeba3fd74cce0d82" target="_top" xlink:title=" ">
<polygon fill="white" stroke="#666666" points="394.5,-125.5 283.5,-125.5 283.5,-99.5 394.5,-99.5 394.5,-125.5"/>
<text text-anchor="start" x="291.5" y="-115.1" font-family="SourceSans" font-size="8.00">a60::collection::torrent</text>
<text text-anchor="middle" x="339" y="-106.1" font-family="SourceSans" font-size="8.00">_directory</text>
</a>
</g>
</g>
<!-- Node2&#45;&gt;Node8 -->
<g id="edge9" class="edge">
<title>Node2&#45;&gt;Node8</title>
<path fill="none" stroke="#63b8ff" d="M207.46,-164.89C230.39,-155.68 267.35,-140.85 296.09,-129.32"/>
<polygon fill="#63b8ff" stroke="#63b8ff" points="297.51,-132.52 305.49,-125.55 294.91,-126.02 297.51,-132.52"/>
</g>
<!-- Node11 -->
<g id="node11" class="node">
<title>Node11</title>
<g id="a_node11"><a xlink:href="structa60_1_1collection.html#a7f3662085b6407ab2a8916075c984151" target="_top" xlink:title=" ">
<polygon fill="white" stroke="#666666" points="389,-60.5 289,-60.5 289,-34.5 389,-34.5 389,-60.5"/>
<text text-anchor="start" x="297" y="-50.1" font-family="SourceSans" font-size="8.00">a60::collection::trim</text>
<text text-anchor="middle" x="339" y="-41.1" font-family="SourceSans" font-size="8.00">_string</text>
</a>
</g>
</g>
<!-- Node2&#45;&gt;Node11 -->
<g id="edge13" class="edge">
<title>Node2&#45;&gt;Node11</title>
<path fill="none" stroke="#63b8ff" d="M194.98,-164.94C211.28,-149.54 247.01,-116.33 279,-90.5 289.17,-82.29 300.72,-73.72 310.89,-66.4"/>
<polygon fill="#63b8ff" stroke="#63b8ff" points="312.93,-69.25 319.04,-60.59 308.87,-63.55 312.93,-69.25"/>
</g>
<!-- Node5&#45;&gt;Node4 -->
<g id="edge5" class="edge">
<title>Node5&#45;&gt;Node4</title>
<path fill="none" stroke="#63b8ff" d="M387.35,-195.29C402.56,-195.79 419.49,-196.26 435,-196.5 487.88,-197.33 501.12,-197.16 554,-196.5 562.39,-196.4 571.27,-196.23 579.94,-196.04"/>
<polygon fill="#63b8ff" stroke="#63b8ff" points="580.08,-199.53 589.99,-195.8 579.91,-192.54 580.08,-199.53"/>
</g>
<!-- Node6 -->
<g id="node6" class="node">
<title>Node6</title>
<g id="a_node6"><a xlink:href="namespacea60_1_1io.html#a6ad052ef18cfb1a1ac708f7c69c9050d" target="_top" xlink:title="Assumes argument is full path, no error checking...">
<polygon fill="white" stroke="#666666" points="542.5,-187.5 446.5,-187.5 446.5,-161.5 542.5,-161.5 542.5,-187.5"/>
<text text-anchor="start" x="454.5" y="-177.1" font-family="SourceSans" font-size="8.00">a60::io::get_output</text>
<text text-anchor="middle" x="494.5" y="-168.1" font-family="SourceSans" font-size="8.00">_prefix</text>
</a>
</g>
</g>
<!-- Node5&#45;&gt;Node6 -->
<g id="edge6" class="edge">
<title>Node5&#45;&gt;Node6</title>
<path fill="none" stroke="#63b8ff" d="M387.31,-187.64C402.7,-185.74 419.95,-183.6 436.01,-181.62"/>
<polygon fill="#63b8ff" stroke="#63b8ff" points="436.85,-185.04 446.35,-180.34 435.99,-178.09 436.85,-185.04"/>
</g>
<!-- Node6&#45;&gt;Node4 -->
<g id="edge7" class="edge">
<title>Node6&#45;&gt;Node4</title>
<path fill="none" stroke="#63b8ff" d="M542.78,-181.33C554.65,-183.04 567.49,-184.9 579.68,-186.66"/>
<polygon fill="#63b8ff" stroke="#63b8ff" points="579.34,-190.14 589.74,-188.11 580.34,-183.21 579.34,-190.14"/>
</g>
<!-- Node8&#45;&gt;Node4 -->
<g id="edge10" class="edge">
<title>Node8&#45;&gt;Node4</title>
<path fill="none" stroke="#63b8ff" d="M394.8,-118.17C438.74,-123.8 501.51,-134.28 554,-152.5 574.49,-159.61 596.19,-171.3 611.81,-180.54"/>
<polygon fill="#63b8ff" stroke="#63b8ff" points="610.32,-183.73 620.69,-185.92 613.95,-177.74 610.32,-183.73"/>
</g>
<!-- Node9 -->
<g id="node9" class="node">
<title>Node9</title>
<g id="a_node9"><a xlink:href="namespacea60_1_1io.html#ac95e5271a27a23bc2336d84b3f821fa2" target="_top" xlink:title="Constant filesystem and run&#45;time resources.">
<polygon fill="white" stroke="#666666" points="546.5,-105.5 442.5,-105.5 442.5,-79.5 546.5,-79.5 546.5,-105.5"/>
<text text-anchor="start" x="450.5" y="-95.1" font-family="SourceSans" font-size="8.00">a60::io::get_run_time</text>
<text text-anchor="middle" x="494.5" y="-86.1" font-family="SourceSans" font-size="8.00">_resources</text>
</a>
</g>
</g>
<!-- Node8&#45;&gt;Node9 -->
<g id="edge11" class="edge">
<title>Node8&#45;&gt;Node9</title>
<path fill="none" stroke="#63b8ff" d="M394.55,-105.39C406.74,-103.8 419.74,-102.11 432.18,-100.49"/>
<polygon fill="#63b8ff" stroke="#63b8ff" points="433,-103.91 442.46,-99.15 432.09,-96.97 433,-103.91"/>
</g>
<!-- Node10 -->
<g id="node10" class="node">
<title>Node10</title>
<g id="a_node10"><a xlink:href="namespacea60_1_1io.html#aa5fbb8ab63397dd45c4a54c0758935ef" target="_top" xlink:title="Sanity check input existence.">
<polygon fill="white" stroke="#666666" points="546.5,-61.5 442.5,-61.5 442.5,-35.5 546.5,-35.5 546.5,-61.5"/>
<text text-anchor="start" x="450.5" y="-51.1" font-family="SourceSans" font-size="8.00">a60::io::sanity_check</text>
<text text-anchor="middle" x="494.5" y="-42.1" font-family="SourceSans" font-size="8.00">_input</text>
</a>
</g>
</g>
<!-- Node8&#45;&gt;Node10 -->
<g id="edge12" class="edge">
<title>Node8&#45;&gt;Node10</title>
<path fill="none" stroke="#63b8ff" d="M368.5,-99.39C387.28,-90.89 412.46,-79.71 435,-70.5 439.24,-68.77 443.67,-67.01 448.12,-65.28"/>
<polygon fill="#63b8ff" stroke="#63b8ff" points="449.72,-68.41 457.8,-61.56 447.21,-61.88 449.72,-68.41"/>
</g>
<!-- Node12 -->
<g id="node12" class="node">
<title>Node12</title>
<g id="a_node12"><a xlink:href="namespacea60.html#ac7eddb2e330d8983ddc852edde5335c5" target="_top" xlink:title=" ">
<polygon fill="white" stroke="#666666" points="554,-17 435,-17 435,0 554,0 554,-17"/>
<text text-anchor="middle" x="494.5" y="-6.6" font-family="SourceSans" font-size="8.00">a60::to_lowercase_string</text>
</a>
</g>
</g>
<!-- Node11&#45;&gt;Node12 -->
<g id="edge14" class="edge">
<title>Node11&#45;&gt;Node12</title>
<path fill="none" stroke="#63b8ff" d="M389.41,-34.95C408.88,-30 431.04,-24.37 449.9,-19.58"/>
<polygon fill="#63b8ff" stroke="#63b8ff" points="450.88,-22.94 459.71,-17.09 449.16,-16.16 450.88,-22.94"/>
</g>
</g>
</svg>
