<?xml version="1.0" encoding="UTF-8" standalone="no"?>
<!DOCTYPE svg PUBLIC "-//W3C//DTD SVG 1.1//EN"
 "http://www.w3.org/Graphics/SVG/1.1/DTD/svg11.dtd">
<!-- Generated by graphviz version 5.0.0 (0)
 -->
<!-- Title: a60::metadata::augment_metadata_base_text Pages: 1 -->
<svg width="444pt" height="465pt"
 viewBox="0.00 0.00 444.00 464.50" xmlns="http://www.w3.org/2000/svg" xmlns:xlink="http://www.w3.org/1999/xlink">
<g id="graph0" class="graph" transform="scale(1 1) rotate(0) translate(4 460.5)">
<title>a60::metadata::augment_metadata_base_text</title>
<!-- Node1 -->
<g id="node1" class="node">
<title>Node1</title>
<g id="a_node1"><a xlink:title="Base info for per&#45;media object metadata visualizations.">
<polygon fill="#999999" stroke="#666666" points="121,-170 0,-170 0,-144 121,-144 121,-170"/>
<text text-anchor="start" x="8" y="-159.6" font-family="SourceSans" font-size="8.00">a60::metadata::augment</text>
<text text-anchor="middle" x="60.5" y="-150.6" font-family="SourceSans" font-size="8.00">_metadata_base_text</text>
</a>
</g>
</g>
<!-- Node2 -->
<g id="node2" class="node">
<title>Node2</title>
<g id="a_node2"><a xlink:href="namespacea60_1_1metadata.html#a826951d79c6be34a2ce4a06abee65fcf" target="_top" xlink:title="Base plate color, identity graphics, svg file.">
<polygon fill="white" stroke="#666666" points="279.5,-399 158.5,-399 158.5,-373 279.5,-373 279.5,-399"/>
<text text-anchor="start" x="166.5" y="-388.6" font-family="SourceSans" font-size="8.00">a60::metadata::augment</text>
<text text-anchor="middle" x="219" y="-379.6" font-family="SourceSans" font-size="8.00">_metadata_background</text>
</a>
</g>
</g>
<!-- Node1&#45;&gt;Node2 -->
<g id="edge1" class="edge">
<title>Node1&#45;&gt;Node2</title>
<path fill="none" stroke="#63b8ff" d="M66.43,-170.19C78.5,-201.35 111.87,-281 157,-336 166.41,-347.47 178.79,-358.19 189.93,-366.74"/>
<polygon fill="#63b8ff" stroke="#63b8ff" points="188.03,-369.68 198.14,-372.83 192.2,-364.06 188.03,-369.68"/>
</g>
<!-- Node6 -->
<g id="node6" class="node">
<title>Node6</title>
<g id="a_node6"><a xlink:href="namespacea60_1_1metadata.html#adefdcf326e3314b557066902a1e2dcf9" target="_top" xlink:title=" ">
<polygon fill="white" stroke="#666666" points="281,-232 157,-232 157,-206 281,-206 281,-232"/>
<text text-anchor="start" x="165" y="-221.6" font-family="SourceSans" font-size="8.00">a60::metadata::canonical</text>
<text text-anchor="middle" x="219" y="-212.6" font-family="SourceSans" font-size="8.00">_media_name</text>
</a>
</g>
</g>
<!-- Node1&#45;&gt;Node6 -->
<g id="edge5" class="edge">
<title>Node1&#45;&gt;Node6</title>
<path fill="none" stroke="#63b8ff" d="M94.69,-170.15C118.32,-179.51 150.26,-192.17 175.72,-202.25"/>
<polygon fill="#63b8ff" stroke="#63b8ff" points="174.54,-205.55 185.13,-205.98 177.12,-199.04 174.54,-205.55"/>
</g>
<!-- Node10 -->
<g id="node10" class="node">
<title>Node10</title>
<g id="a_node10"><a xlink:href="namespacea60.html#a34d53970ee23a7c014960a2bf1a10e2b" target="_top" xlink:title="Search DOM for string literals.">
<polygon fill="white" stroke="#666666" points="428,-122 325,-122 325,-96 428,-96 428,-122"/>
<text text-anchor="start" x="333" y="-111.6" font-family="SourceSans" font-size="8.00">a60::search_dom_for</text>
<text text-anchor="middle" x="376.5" y="-102.6" font-family="SourceSans" font-size="8.00">_string_field</text>
</a>
</g>
</g>
<!-- Node1&#45;&gt;Node10 -->
<g id="edge17" class="edge">
<title>Node1&#45;&gt;Node10</title>
<path fill="none" stroke="#63b8ff" d="M121.36,-167.84C166.43,-173.57 229.12,-176.29 281,-159 299.97,-152.68 299.54,-141.75 317,-132 320.7,-129.94 324.62,-127.97 328.61,-126.12"/>
<polygon fill="#63b8ff" stroke="#63b8ff" points="330.23,-129.23 337.98,-122.01 327.42,-122.82 330.23,-129.23"/>
</g>
<!-- Node14 -->
<g id="node14" class="node">
<title>Node14</title>
<g id="a_node14"><a xlink:href="namespacea60.html#af45982273a7a2e61b6aaa436081238c0" target="_top" xlink:title="Load JSON file to in&#45;memory DOM.">
<polygon fill="white" stroke="#666666" points="271,-150 167,-150 167,-124 271,-124 271,-150"/>
<text text-anchor="start" x="175" y="-139.6" font-family="SourceSans" font-size="8.00">a60::deserialize_json</text>
<text text-anchor="middle" x="219" y="-130.6" font-family="SourceSans" font-size="8.00">_to_dom_object</text>
</a>
</g>
</g>
<!-- Node1&#45;&gt;Node14 -->
<g id="edge13" class="edge">
<title>Node1&#45;&gt;Node14</title>
<path fill="none" stroke="#63b8ff" d="M121.11,-149.38C132.8,-147.89 145.09,-146.32 156.83,-144.82"/>
<polygon fill="#63b8ff" stroke="#63b8ff" points="157.5,-148.26 166.98,-143.52 156.62,-141.32 157.5,-148.26"/>
</g>
<!-- Node16 -->
<g id="node16" class="node">
<title>Node16</title>
<g id="a_node16"><a xlink:href="namespacea60_1_1metadata.html#aeba42336cc4f30ed9ee705111d3e82a9" target="_top" xlink:title="Typographic defaults for text labels.">
<polygon fill="white" stroke="#666666" points="268,-327 170,-327 170,-301 268,-301 268,-327"/>
<text text-anchor="start" x="178" y="-316.6" font-family="SourceSans" font-size="8.00">a60::metadata::get</text>
<text text-anchor="middle" x="219" y="-307.6" font-family="SourceSans" font-size="8.00">_metadata_typo</text>
</a>
</g>
</g>
<!-- Node1&#45;&gt;Node16 -->
<g id="edge15" class="edge">
<title>Node1&#45;&gt;Node16</title>
<path fill="none" stroke="#63b8ff" d="M74.57,-170.12C101.78,-197.41 164.66,-260.49 197.38,-293.31"/>
<polygon fill="#63b8ff" stroke="#63b8ff" points="195.09,-295.98 204.63,-300.59 200.05,-291.04 195.09,-295.98"/>
</g>
<!-- Node17 -->
<g id="node17" class="node">
<title>Node17</title>
<g id="a_node17"><a xlink:href="namespacea60_1_1constants.html#a4eca9d522711df25806d6dd1ff38e904" target="_top" xlink:title=" ">
<polygon fill="white" stroke="#666666" points="274,-105.5 164,-105.5 164,-88.5 274,-88.5 274,-105.5"/>
<text text-anchor="middle" x="219" y="-95.1" font-family="SourceSans" font-size="8.00">a60::constants::space</text>
</a>
</g>
</g>
<!-- Node1&#45;&gt;Node17 -->
<g id="edge18" class="edge">
<title>Node1&#45;&gt;Node17</title>
<path fill="none" stroke="#63b8ff" d="M88.7,-143.93C107.61,-135.12 133.53,-123.59 157,-115 163.12,-112.76 169.67,-110.6 176.12,-108.59"/>
<polygon fill="#63b8ff" stroke="#63b8ff" points="177.53,-111.82 186.09,-105.58 175.5,-105.12 177.53,-111.82"/>
</g>
<!-- Node18 -->
<g id="node18" class="node">
<title>Node18</title>
<g id="a_node18"><a xlink:href="namespacea60_1_1metadata.html#adb36743be767a1f1a9947f5b6feff3a8" target="_top" xlink:title="Convert a vector of strings to a flattened and comma&#45;space&#45;separated list of strings.">
<polygon fill="white" stroke="#666666" points="275,-70 163,-70 163,-44 275,-44 275,-70"/>
<text text-anchor="start" x="171" y="-59.6" font-family="SourceSans" font-size="8.00">a60::metadata::strings</text>
<text text-anchor="middle" x="219" y="-50.6" font-family="SourceSans" font-size="8.00">_to_cssv_string</text>
</a>
</g>
</g>
<!-- Node1&#45;&gt;Node18 -->
<g id="edge19" class="edge">
<title>Node1&#45;&gt;Node18</title>
<path fill="none" stroke="#63b8ff" d="M74.64,-143.77C92.12,-126.8 124.59,-97.36 157,-79 160.03,-77.28 163.22,-75.66 166.48,-74.13"/>
<polygon fill="#63b8ff" stroke="#63b8ff" points="168.03,-77.27 175.82,-70.09 165.25,-70.85 168.03,-77.27"/>
</g>
<!-- Node19 -->
<g id="node19" class="node">
<title>Node19</title>
<g id="a_node19"><a xlink:href="namespacea60_1_1metadata.html#a80da6438996a07a5fa1df5728c004b2a" target="_top" xlink:title="Find name &#39;field&#39; in JSON file and return vector of values.">
<polygon fill="white" stroke="#666666" points="274.5,-26 163.5,-26 163.5,0 274.5,0 274.5,-26"/>
<text text-anchor="start" x="171.5" y="-15.6" font-family="SourceSans" font-size="8.00">a60::metadata::values</text>
<text text-anchor="middle" x="219" y="-6.6" font-family="SourceSans" font-size="8.00">_from_field</text>
</a>
</g>
</g>
<!-- Node1&#45;&gt;Node19 -->
<g id="edge20" class="edge">
<title>Node1&#45;&gt;Node19</title>
<path fill="none" stroke="#63b8ff" d="M68.58,-143.61C82.36,-118.76 115.16,-65.28 157,-35 159.07,-33.5 161.26,-32.09 163.53,-30.77"/>
<polygon fill="#63b8ff" stroke="#63b8ff" points="165.28,-33.8 172.56,-26.11 162.07,-27.58 165.28,-33.8"/>
</g>
<!-- Node3 -->
<g id="node3" class="node">
<title>Node3</title>
<g id="a_node3"><a xlink:href="namespacea60_1_1io.html#a16f17ea9e02c1975ca17b77e46cf7629" target="_top" xlink:title="Make sure a path ends in &#39;/&#39;;.">
<polygon fill="white" stroke="#666666" points="421.5,-456.5 331.5,-456.5 331.5,-439.5 421.5,-439.5 421.5,-456.5"/>
<text text-anchor="middle" x="376.5" y="-446.1" font-family="SourceSans" font-size="8.00">a60::io::end_path</text>
</a>
</g>
</g>
<!-- Node2&#45;&gt;Node3 -->
<g id="edge2" class="edge">
<title>Node2&#45;&gt;Node3</title>
<path fill="none" stroke="#63b8ff" d="M246.38,-399.07C265.67,-408.35 292.62,-420.76 317,-430 322.93,-432.25 329.28,-434.43 335.53,-436.45"/>
<polygon fill="#63b8ff" stroke="#63b8ff" points="334.6,-439.82 345.19,-439.48 336.7,-433.14 334.6,-439.82"/>
</g>
<!-- Node4 -->
<g id="node4" class="node">
<title>Node4</title>
<g id="a_node4"><a xlink:href="namespacea60_1_1metadata.html#abcd6d192e6ed0f853c3c6cd9bcf13cad" target="_top" xlink:title=" ">
<polygon fill="white" stroke="#666666" points="425.5,-377 327.5,-377 327.5,-351 425.5,-351 425.5,-377"/>
<text text-anchor="start" x="335.5" y="-366.6" font-family="SourceSans" font-size="8.00">a60::metadata::get</text>
<text text-anchor="middle" x="376.5" y="-357.6" font-family="SourceSans" font-size="8.00">_metadata_style</text>
</a>
</g>
</g>
<!-- Node2&#45;&gt;Node4 -->
<g id="edge3" class="edge">
<title>Node2&#45;&gt;Node4</title>
<path fill="none" stroke="#63b8ff" d="M279.68,-377.56C291.99,-375.82 304.94,-373.98 317.2,-372.25"/>
<polygon fill="#63b8ff" stroke="#63b8ff" points="317.9,-375.68 327.31,-370.82 316.92,-368.75 317.9,-375.68"/>
</g>
<!-- Node5 -->
<g id="node5" class="node">
<title>Node5</title>
<g id="a_node5"><a xlink:href="namespacea60_1_1io.html#ac95e5271a27a23bc2336d84b3f821fa2" target="_top" xlink:title="Constant filesystem and run&#45;time resources.">
<polygon fill="white" stroke="#666666" points="428.5,-421 324.5,-421 324.5,-395 428.5,-395 428.5,-421"/>
<text text-anchor="start" x="332.5" y="-410.6" font-family="SourceSans" font-size="8.00">a60::io::get_run_time</text>
<text text-anchor="middle" x="376.5" y="-401.6" font-family="SourceSans" font-size="8.00">_resources</text>
</a>
</g>
</g>
<!-- Node2&#45;&gt;Node5 -->
<g id="edge4" class="edge">
<title>Node2&#45;&gt;Node5</title>
<path fill="none" stroke="#63b8ff" d="M279.68,-394.44C290.95,-396.04 302.77,-397.71 314.1,-399.31"/>
<polygon fill="#63b8ff" stroke="#63b8ff" points="313.95,-402.83 324.34,-400.76 314.93,-395.9 313.95,-402.83"/>
</g>
<!-- Node7 -->
<g id="node7" class="node">
<title>Node7</title>
<g id="a_node7"><a xlink:href="namespacea60_1_1constants.html#a8a38c40674ec5fbf57af8127a67d1609" target="_top" xlink:title=" ">
<polygon fill="white" stroke="#666666" points="430,-332.5 323,-332.5 323,-315.5 430,-315.5 430,-332.5"/>
<text text-anchor="middle" x="376.5" y="-322.1" font-family="SourceSans" font-size="8.00">a60::constants::colon</text>
</a>
</g>
</g>
<!-- Node6&#45;&gt;Node7 -->
<g id="edge6" class="edge">
<title>Node6&#45;&gt;Node7</title>
<path fill="none" stroke="#63b8ff" d="M230.85,-232.06C247.46,-251.24 281.08,-286.92 317,-307 320.24,-308.81 323.68,-310.44 327.22,-311.91"/>
<polygon fill="#63b8ff" stroke="#63b8ff" points="326.14,-315.24 336.73,-315.44 328.57,-308.68 326.14,-315.24"/>
</g>
<!-- Node8 -->
<g id="node8" class="node">
<title>Node8</title>
<g id="a_node8"><a xlink:href="namespacea60_1_1constants.html#a6338b74a1c5c6dc024b03069e07e34ac" target="_top" xlink:title=" ">
<polygon fill="white" stroke="#666666" points="434.5,-297.5 318.5,-297.5 318.5,-280.5 434.5,-280.5 434.5,-297.5"/>
<text text-anchor="middle" x="376.5" y="-287.1" font-family="SourceSans" font-size="8.00">a60::constants::hyphen</text>
</a>
</g>
</g>
<!-- Node6&#45;&gt;Node8 -->
<g id="edge7" class="edge">
<title>Node6&#45;&gt;Node8</title>
<path fill="none" stroke="#63b8ff" d="M240.92,-232.17C260.13,-243.84 289.68,-260.73 317,-272 321.71,-273.94 326.71,-275.76 331.74,-277.42"/>
<polygon fill="#63b8ff" stroke="#63b8ff" points="330.76,-280.78 341.35,-280.43 332.85,-274.1 330.76,-280.78"/>
</g>
<!-- Node9 -->
<g id="node9" class="node">
<title>Node9</title>
<g id="a_node9"><a xlink:href="namespacea60_1_1constants.html#a370b70e28b3935e8736cb9e79697ceda" target="_top" xlink:title=" ">
<polygon fill="white" stroke="#666666" points="432,-262.5 321,-262.5 321,-245.5 432,-245.5 432,-262.5"/>
<text text-anchor="middle" x="376.5" y="-252.1" font-family="SourceSans" font-size="8.00">a60::constants::period</text>
</a>
</g>
</g>
<!-- Node6&#45;&gt;Node9 -->
<g id="edge8" class="edge">
<title>Node6&#45;&gt;Node9</title>
<path fill="none" stroke="#63b8ff" d="M277.9,-232.03C294.19,-235.7 311.73,-239.65 327.38,-243.17"/>
<polygon fill="#63b8ff" stroke="#63b8ff" points="326.84,-246.64 337.37,-245.42 328.38,-239.81 326.84,-246.64"/>
</g>
<!-- Node6&#45;&gt;Node10 -->
<g id="edge9" class="edge">
<title>Node6&#45;&gt;Node10</title>
<path fill="none" stroke="#63b8ff" d="M259.23,-205.91C266.98,-202.2 274.66,-197.6 281,-192 304.31,-171.41 293.26,-152.09 317,-132 319,-130.3 321.15,-128.72 323.39,-127.25"/>
<polygon fill="#63b8ff" stroke="#63b8ff" points="325.46,-130.1 332.41,-122.1 321.99,-124.02 325.46,-130.1"/>
</g>
<!-- Node11 -->
<g id="node11" class="node">
<title>Node11</title>
<g id="a_node11"><a xlink:href="namespacea60.html#a0022cb8323c9a304730c5d70e4da4e4b" target="_top" xlink:title=" ">
<polygon fill="white" stroke="#666666" points="427,-227.5 326,-227.5 326,-210.5 427,-210.5 427,-227.5"/>
<text text-anchor="middle" x="376.5" y="-217.1" font-family="SourceSans" font-size="8.00">a60::to_erase_string</text>
</a>
</g>
</g>
<!-- Node6&#45;&gt;Node11 -->
<g id="edge10" class="edge">
<title>Node6&#45;&gt;Node11</title>
<path fill="none" stroke="#63b8ff" d="M281.01,-219C292.35,-219 304.18,-219 315.48,-219"/>
<polygon fill="#63b8ff" stroke="#63b8ff" points="315.69,-222.5 325.69,-219 315.69,-215.5 315.69,-222.5"/>
</g>
<!-- Node12 -->
<g id="node12" class="node">
<title>Node12</title>
<g id="a_node12"><a xlink:href="namespacea60.html#ac7eddb2e330d8983ddc852edde5335c5" target="_top" xlink:title=" ">
<polygon fill="white" stroke="#666666" points="436,-192.5 317,-192.5 317,-175.5 436,-175.5 436,-192.5"/>
<text text-anchor="middle" x="376.5" y="-182.1" font-family="SourceSans" font-size="8.00">a60::to_lowercase_string</text>
</a>
</g>
</g>
<!-- Node6&#45;&gt;Node12 -->
<g id="edge11" class="edge">
<title>Node6&#45;&gt;Node12</title>
<path fill="none" stroke="#63b8ff" d="M277.9,-205.97C294.19,-202.3 311.73,-198.35 327.38,-194.83"/>
<polygon fill="#63b8ff" stroke="#63b8ff" points="328.38,-198.19 337.37,-192.58 326.84,-191.36 328.38,-198.19"/>
</g>
<!-- Node13 -->
<g id="node13" class="node">
<title>Node13</title>
<g id="a_node13"><a xlink:href="namespacea60.html#a751f954fe64233f1dc6517220e4b5692" target="_top" xlink:title=" ">
<polygon fill="white" stroke="#666666" points="430,-157.5 323,-157.5 323,-140.5 430,-140.5 430,-157.5"/>
<text text-anchor="middle" x="376.5" y="-147.1" font-family="SourceSans" font-size="8.00">a60::to_replace_string</text>
</a>
</g>
</g>
<!-- Node6&#45;&gt;Node13 -->
<g id="edge12" class="edge">
<title>Node6&#45;&gt;Node13</title>
<path fill="none" stroke="#63b8ff" d="M252.54,-205.97C261.9,-201.85 272.01,-197.05 281,-192 297.98,-182.46 299.48,-175.52 317,-167 321.66,-164.73 326.66,-162.68 331.72,-160.83"/>
<polygon fill="#63b8ff" stroke="#63b8ff" points="333.06,-164.08 341.41,-157.55 330.81,-157.45 333.06,-164.08"/>
</g>
<!-- Node15 -->
<g id="node15" class="node">
<title>Node15</title>
<g id="a_node15"><a xlink:href="namespacea60.html#a538d43bb9bfa488a54cea929736dbe2d" target="_top" xlink:title="Deserialize input file.">
<polygon fill="white" stroke="#666666" points="428.5,-78 324.5,-78 324.5,-52 428.5,-52 428.5,-78"/>
<text text-anchor="start" x="332.5" y="-67.6" font-family="SourceSans" font-size="8.00">a60::deserialize_json</text>
<text text-anchor="middle" x="376.5" y="-58.6" font-family="SourceSans" font-size="8.00">_to_dom</text>
</a>
</g>
</g>
<!-- Node14&#45;&gt;Node15 -->
<g id="edge14" class="edge">
<title>Node14&#45;&gt;Node15</title>
<path fill="none" stroke="#63b8ff" d="M261.79,-123.92C268.37,-121.3 274.99,-118.31 281,-115 298.75,-105.22 299.31,-96.9 317,-87 320.03,-85.31 323.21,-83.69 326.46,-82.16"/>
<polygon fill="#63b8ff" stroke="#63b8ff" points="327.99,-85.31 335.75,-78.09 325.18,-78.9 327.99,-85.31"/>
</g>
<!-- Node16&#45;&gt;Node4 -->
<g id="edge16" class="edge">
<title>Node16&#45;&gt;Node4</title>
<path fill="none" stroke="#63b8ff" d="M260.45,-327.01C280.26,-333.38 304.3,-341.11 325.28,-347.85"/>
<polygon fill="#63b8ff" stroke="#63b8ff" points="324.39,-351.24 334.98,-350.97 326.53,-344.58 324.39,-351.24"/>
</g>
</g>
</svg>
