<?xml version="1.0" encoding="UTF-8" standalone="no"?>
<!DOCTYPE svg PUBLIC "-//W3C//DTD SVG 1.1//EN"
 "http://www.w3.org/Graphics/SVG/1.1/DTD/svg11.dtd">
<!-- Generated by graphviz version 5.0.0 (0)
 -->
<!-- Title: a60::make_magnet_handle Pages: 1 -->
<svg width="526pt" height="54pt"
 viewBox="0.00 0.00 526.00 54.00" xmlns="http://www.w3.org/2000/svg" xmlns:xlink="http://www.w3.org/1999/xlink">
<g id="graph0" class="graph" transform="scale(1 1) rotate(0) translate(4 50)">
<title>a60::make_magnet_handle</title>
<!-- Node1 -->
<g id="node1" class="node">
<title>Node1</title>
<g id="a_node1"><a xlink:title="Given session and magnet file, make session.">
<polygon fill="#999999" stroke="#666666" points="128,-41.5 0,-41.5 0,-24.5 128,-24.5 128,-41.5"/>
<text text-anchor="middle" x="64" y="-31.1" font-family="SourceSans" font-size="8.00">a60::make_magnet_handle</text>
</a>
</g>
</g>
<!-- Node2 -->
<g id="node2" class="node">
<title>Node2</title>
<g id="a_node2"><a xlink:href="namespacea60_1_1io.html#a89f2bd581ec510ccc0a8cfedccff7bd0" target="_top" xlink:title="Top level of directory for output files.">
<polygon fill="white" stroke="#666666" points="260,-46 164,-46 164,-20 260,-20 260,-46"/>
<text text-anchor="start" x="172" y="-35.6" font-family="SourceSans" font-size="8.00">a60::io::get_output</text>
<text text-anchor="middle" x="212" y="-26.6" font-family="SourceSans" font-size="8.00">_directory</text>
</a>
</g>
</g>
<!-- Node1&#45;&gt;Node2 -->
<g id="edge1" class="edge">
<title>Node1&#45;&gt;Node2</title>
<path fill="none" stroke="#63b8ff" d="M128.19,-33C136.53,-33 145.05,-33 153.3,-33"/>
<polygon fill="#63b8ff" stroke="#63b8ff" points="153.56,-36.5 163.56,-33 153.56,-29.5 153.56,-36.5"/>
</g>
<!-- Node3 -->
<g id="node3" class="node">
<title>Node3</title>
<g id="a_node3"><a xlink:href="namespacea60_1_1io.html#a16f17ea9e02c1975ca17b77e46cf7629" target="_top" xlink:title="Make sure a path ends in &#39;/&#39;;.">
<polygon fill="white" stroke="#666666" points="518,-41.5 428,-41.5 428,-24.5 518,-24.5 518,-41.5"/>
<text text-anchor="middle" x="473" y="-31.1" font-family="SourceSans" font-size="8.00">a60::io::end_path</text>
</a>
</g>
</g>
<!-- Node2&#45;&gt;Node3 -->
<g id="edge2" class="edge">
<title>Node2&#45;&gt;Node3</title>
<path fill="none" stroke="#63b8ff" d="M260.4,-34.34C272.04,-34.61 284.47,-34.86 296,-35 338.66,-35.51 349.34,-35.53 392,-35 400.39,-34.9 409.27,-34.73 417.94,-34.54"/>
<polygon fill="#63b8ff" stroke="#63b8ff" points="418.08,-38.03 427.99,-34.3 417.91,-31.04 418.08,-38.03"/>
</g>
<!-- Node4 -->
<g id="node4" class="node">
<title>Node4</title>
<g id="a_node4"><a xlink:href="namespacea60_1_1io.html#a6ad052ef18cfb1a1ac708f7c69c9050d" target="_top" xlink:title="Assumes argument is full path, no error checking...">
<polygon fill="white" stroke="#666666" points="392,-26 296,-26 296,0 392,0 392,-26"/>
<text text-anchor="start" x="304" y="-15.6" font-family="SourceSans" font-size="8.00">a60::io::get_output</text>
<text text-anchor="middle" x="344" y="-6.6" font-family="SourceSans" font-size="8.00">_prefix</text>
</a>
</g>
</g>
<!-- Node2&#45;&gt;Node4 -->
<g id="edge3" class="edge">
<title>Node2&#45;&gt;Node4</title>
<path fill="none" stroke="#63b8ff" d="M260.3,-25.72C268.65,-24.44 277.42,-23.09 286,-21.77"/>
<polygon fill="#63b8ff" stroke="#63b8ff" points="286.6,-25.22 295.95,-20.24 285.54,-18.3 286.6,-25.22"/>
</g>
<!-- Node4&#45;&gt;Node3 -->
<g id="edge4" class="edge">
<title>Node4&#45;&gt;Node3</title>
<path fill="none" stroke="#63b8ff" d="M392.29,-20.45C400.51,-21.74 409.12,-23.1 417.52,-24.42"/>
<polygon fill="#63b8ff" stroke="#63b8ff" points="417.19,-27.91 427.62,-26.01 418.28,-21 417.19,-27.91"/>
</g>
</g>
</svg>
