<?xml version="1.0" encoding="UTF-8" standalone="no"?>
<!DOCTYPE svg PUBLIC "-//W3C//DTD SVG 1.1//EN"
 "http://www.w3.org/Graphics/SVG/1.1/DTD/svg11.dtd">
<!-- Generated by graphviz version 5.0.0 (0)
 -->
<!-- Title: a60::survey_lost_peers Pages: 1 -->
<svg width="429pt" height="78pt"
 viewBox="0.00 0.00 429.00 78.00" xmlns="http://www.w3.org/2000/svg" xmlns:xlink="http://www.w3.org/1999/xlink">
<g id="graph0" class="graph" transform="scale(1 1) rotate(0) translate(4 74)">
<title>a60::survey_lost_peers</title>
<!-- Node1 -->
<g id="node1" class="node">
<title>Node1</title>
<g id="a_node1"><a xlink:title="See what peers have no country info or latitude/longitude.">
<polygon fill="#999999" stroke="#666666" points="111,-43.5 0,-43.5 0,-26.5 111,-26.5 111,-43.5"/>
<text text-anchor="middle" x="55.5" y="-33.1" font-family="SourceSans" font-size="8.00">a60::survey_lost_peers</text>
</a>
</g>
</g>
<!-- Node2 -->
<g id="node2" class="node">
<title>Node2</title>
<g id="a_node2"><a xlink:href="namespacea60.html#ac39b0d667e2ffa7a1bf2df7cc4e5ac38" target="_top" xlink:title="IFF either of the above is true.">
<polygon fill="white" stroke="#666666" points="258,-43.5 147,-43.5 147,-26.5 258,-26.5 258,-43.5"/>
<text text-anchor="middle" x="202.5" y="-33.1" font-family="SourceSans" font-size="8.00">a60::is_meta_peer_lost</text>
</a>
</g>
</g>
<!-- Node1&#45;&gt;Node2 -->
<g id="edge1" class="edge">
<title>Node1&#45;&gt;Node2</title>
<path fill="none" stroke="#63b8ff" d="M111.32,-35C119.53,-35 128.06,-35 136.46,-35"/>
<polygon fill="#63b8ff" stroke="#63b8ff" points="136.6,-38.5 146.6,-35 136.6,-31.5 136.6,-38.5"/>
</g>
<!-- Node3 -->
<g id="node3" class="node">
<title>Node3</title>
<g id="a_node3"><a xlink:href="namespacea60.html#a63bf2b0abf68edc3f3e74a0811fe771b" target="_top" xlink:title="Error checking support. Null Island Check (aka latitude and longitude set to zero).">
<polygon fill="white" stroke="#666666" points="411,-70 304,-70 304,-44 411,-44 411,-70"/>
<text text-anchor="start" x="312" y="-59.6" font-family="SourceSans" font-size="8.00">a60::is_meta_peer_on</text>
<text text-anchor="middle" x="357.5" y="-50.6" font-family="SourceSans" font-size="8.00">_null_island</text>
</a>
</g>
</g>
<!-- Node2&#45;&gt;Node3 -->
<g id="edge2" class="edge">
<title>Node2&#45;&gt;Node3</title>
<path fill="none" stroke="#63b8ff" d="M258.3,-42.88C269.78,-44.53 281.96,-46.28 293.7,-47.97"/>
<polygon fill="#63b8ff" stroke="#63b8ff" points="293.47,-51.47 303.87,-49.43 294.47,-44.54 293.47,-51.47"/>
</g>
<!-- Node4 -->
<g id="node4" class="node">
<title>Node4</title>
<g id="a_node4"><a xlink:href="namespacea60.html#a0ff511c579a9f94ffff788b1cd4ae864" target="_top" xlink:title="Null Country Check.">
<polygon fill="white" stroke="#666666" points="421,-26 294,-26 294,0 421,0 421,-26"/>
<text text-anchor="start" x="302" y="-15.6" font-family="SourceSans" font-size="8.00">a60::is_meta_peer_without</text>
<text text-anchor="middle" x="357.5" y="-6.6" font-family="SourceSans" font-size="8.00">_country</text>
</a>
</g>
</g>
<!-- Node2&#45;&gt;Node4 -->
<g id="edge3" class="edge">
<title>Node2&#45;&gt;Node4</title>
<path fill="none" stroke="#63b8ff" d="M258.3,-27.12C266.56,-25.93 275.19,-24.69 283.75,-23.46"/>
<polygon fill="#63b8ff" stroke="#63b8ff" points="284.35,-26.91 293.75,-22.02 283.35,-19.98 284.35,-26.91"/>
</g>
</g>
</svg>
