<?xml version="1.0" encoding="UTF-8" standalone="no"?>
<!DOCTYPE svg PUBLIC "-//W3C//DTD SVG 1.1//EN"
 "http://www.w3.org/Graphics/SVG/1.1/DTD/svg11.dtd">
<!-- Generated by graphviz version 5.0.0 (0)
 -->
<!-- Title: a60::augment_weighed_title Pages: 1 -->
<svg width="907pt" height="542pt"
 viewBox="0.00 0.00 907.00 541.50" xmlns="http://www.w3.org/2000/svg" xmlns:xlink="http://www.w3.org/1999/xlink">
<g id="graph0" class="graph" transform="scale(1 1) rotate(0) translate(4 537.5)">
<title>a60::augment_weighed_title</title>
<!-- Node1 -->
<g id="node1" class="node">
<title>Node1</title>
<g id="a_node1"><a xlink:title="Make weighed title.">
<polygon fill="#999999" stroke="#666666" points="114,-321.5 0,-321.5 0,-295.5 114,-295.5 114,-321.5"/>
<text text-anchor="start" x="8" y="-311.1" font-family="SourceSans" font-size="8.00">a60::augment_weighed</text>
<text text-anchor="middle" x="57" y="-302.1" font-family="SourceSans" font-size="8.00">_title</text>
</a>
</g>
</g>
<!-- Node2 -->
<g id="node2" class="node">
<title>Node2</title>
<g id="a_node2"><a xlink:href="namespacea60.html#a6988d87e92c20662cfa1e19ad5f4da6f" target="_top" xlink:title="Whole earth, 1x, summary style (classic)">
<polygon fill="white" stroke="#666666" points="273.5,-458.5 154.5,-458.5 154.5,-432.5 273.5,-432.5 273.5,-458.5"/>
<text text-anchor="start" x="162.5" y="-448.1" font-family="SourceSans" font-size="8.00">a60::augment_collection</text>
<text text-anchor="middle" x="214" y="-439.1" font-family="SourceSans" font-size="8.00">_titles_2</text>
</a>
</g>
</g>
<!-- Node1&#45;&gt;Node2 -->
<g id="edge1" class="edge">
<title>Node1&#45;&gt;Node2</title>
<path fill="none" stroke="#63b8ff" d="M72.18,-321.78C90.11,-338.49 122.02,-367.98 150,-392.5 162.84,-403.75 177.41,-416.04 189.3,-425.95"/>
<polygon fill="#63b8ff" stroke="#63b8ff" points="187.13,-428.69 197.06,-432.39 191.6,-423.31 187.13,-428.69"/>
</g>
<!-- Node5 -->
<g id="node5" class="node">
<title>Node5</title>
<g id="a_node5"><a xlink:href="namespacea60.html#a4e8b0cabed112734147b499bf0cc9029" target="_top" xlink:title="Conversion of resolution_mode to string.">
<polygon fill="white" stroke="#666666" points="750.5,-338 676.5,-338 676.5,-321 750.5,-321 750.5,-338"/>
<text text-anchor="middle" x="713.5" y="-327.6" font-family="SourceSans" font-size="8.00">a60::to_string</text>
</a>
</g>
</g>
<!-- Node1&#45;&gt;Node5 -->
<g id="edge33" class="edge">
<title>Node1&#45;&gt;Node5</title>
<path fill="none" stroke="#63b8ff" d="M114.09,-310.3C241.21,-314.38 549.31,-324.26 666.35,-328.02"/>
<polygon fill="#63b8ff" stroke="#63b8ff" points="666.31,-331.52 676.41,-328.34 666.53,-324.52 666.31,-331.52"/>
</g>
<!-- Node10 -->
<g id="node10" class="node">
<title>Node10</title>
<g id="a_node10"><a xlink:href="namespacea60.html#a3cfdea4dd7a458ed4e7905deee906a99" target="_top" xlink:title="v3 by day/week/hour">
<polygon fill="white" stroke="#666666" points="267,-383.5 161,-383.5 161,-357.5 267,-357.5 267,-383.5"/>
<text text-anchor="start" x="169" y="-373.1" font-family="SourceSans" font-size="8.00">a60::augment_torrent</text>
<text text-anchor="middle" x="214" y="-364.1" font-family="SourceSans" font-size="8.00">_collection_glyphs_v3</text>
</a>
</g>
</g>
<!-- Node1&#45;&gt;Node10 -->
<g id="edge10" class="edge">
<title>Node1&#45;&gt;Node10</title>
<path fill="none" stroke="#63b8ff" d="M90.87,-321.65C114.27,-331.01 145.91,-343.67 171.12,-353.75"/>
<polygon fill="#63b8ff" stroke="#63b8ff" points="169.86,-357.01 180.44,-357.48 172.46,-350.51 169.86,-357.01"/>
</g>
<!-- Node13 -->
<g id="node13" class="node">
<title>Node13</title>
<g id="a_node13"><a xlink:href="namespacea60.html#a6c3e0c242287f663d7e80ee91e094e07" target="_top" xlink:title=" ">
<polygon fill="white" stroke="#666666" points="263,-301.5 165,-301.5 165,-275.5 263,-275.5 263,-301.5"/>
<text text-anchor="start" x="173" y="-291.1" font-family="SourceSans" font-size="8.00">a60::collection_size</text>
<text text-anchor="middle" x="214" y="-282.1" font-family="SourceSans" font-size="8.00">_and_partition</text>
</a>
</g>
</g>
<!-- Node1&#45;&gt;Node13 -->
<g id="edge14" class="edge">
<title>Node1&#45;&gt;Node13</title>
<path fill="none" stroke="#63b8ff" d="M114.4,-301.22C127.57,-299.52 141.63,-297.71 154.88,-296"/>
<polygon fill="#63b8ff" stroke="#63b8ff" points="155.35,-299.47 164.82,-294.72 154.46,-292.53 155.35,-299.47"/>
</g>
<!-- Node15 -->
<g id="node15" class="node">
<title>Node15</title>
<g id="a_node15"><a xlink:href="namespacea60.html#a93afe633a2da7041b3d7ac7ba8da41a4" target="_top" xlink:title="Expensive. Should this be part of a weighed collection?">
<polygon fill="white" stroke="#666666" points="259.5,-257 168.5,-257 168.5,-240 259.5,-240 259.5,-257"/>
<text text-anchor="middle" x="214" y="-246.6" font-family="SourceSans" font-size="8.00">a60::make_glyphs</text>
</a>
</g>
</g>
<!-- Node1&#45;&gt;Node15 -->
<g id="edge17" class="edge">
<title>Node1&#45;&gt;Node15</title>
<path fill="none" stroke="#63b8ff" d="M83.74,-295.49C101.95,-286.6 127.1,-274.94 150,-266.5 156.38,-264.15 163.22,-261.91 169.95,-259.87"/>
<polygon fill="#63b8ff" stroke="#63b8ff" points="171.06,-263.19 179.68,-257.01 169.09,-256.47 171.06,-263.19"/>
</g>
<!-- Node27 -->
<g id="node27" class="node">
<title>Node27</title>
<g id="a_node27"><a xlink:href="namespacea60.html#af9e02e1293a4eadf10ef7ca9f3979c74" target="_top" xlink:title="Eraser.">
<polygon fill="white" stroke="#666666" points="278,-222 150,-222 150,-205 278,-205 278,-222"/>
<text text-anchor="middle" x="214" y="-211.6" font-family="SourceSans" font-size="8.00">a60::remove_empty_glyphs</text>
</a>
</g>
</g>
<!-- Node1&#45;&gt;Node27 -->
<g id="edge32" class="edge">
<title>Node1&#45;&gt;Node27</title>
<path fill="none" stroke="#63b8ff" d="M70.13,-295.38C86.63,-278.29 117.8,-248.58 150,-231.5 154.3,-229.22 158.91,-227.2 163.63,-225.42"/>
<polygon fill="#63b8ff" stroke="#63b8ff" points="165.04,-228.64 173.36,-222.08 162.77,-222.01 165.04,-228.64"/>
</g>
<!-- Node3 -->
<g id="node3" class="node">
<title>Node3</title>
<g id="a_node3"><a xlink:href="namespacea60.html#ad8f50fdaa7f0fdee7309f430e72ce72e" target="_top" xlink:title="Swarm_mode dominates.">
<polygon fill="white" stroke="#666666" points="455,-454 319,-454 319,-437 455,-437 455,-454"/>
<text text-anchor="middle" x="387" y="-443.6" font-family="SourceSans" font-size="8.00">a60::augment_sum_glyphs_2</text>
</a>
</g>
</g>
<!-- Node2&#45;&gt;Node3 -->
<g id="edge2" class="edge">
<title>Node2&#45;&gt;Node3</title>
<path fill="none" stroke="#63b8ff" d="M273.85,-445.5C285.06,-445.5 296.94,-445.5 308.63,-445.5"/>
<polygon fill="#63b8ff" stroke="#63b8ff" points="308.82,-449 318.82,-445.5 308.82,-442 308.82,-449"/>
</g>
<!-- Node7 -->
<g id="node7" class="node">
<title>Node7</title>
<g id="a_node7"><a xlink:href="namespacea60_1_1carto.html#af59ef7858ef576e7f17b781f38436f28" target="_top" xlink:title=" ">
<polygon fill="white" stroke="#666666" points="448,-419 326,-419 326,-402 448,-402 448,-419"/>
<text text-anchor="middle" x="387" y="-408.6" font-family="SourceSans" font-size="8.00">a60::carto::frame_margin</text>
</a>
</g>
</g>
<!-- Node2&#45;&gt;Node7 -->
<g id="edge7" class="edge">
<title>Node2&#45;&gt;Node7</title>
<path fill="none" stroke="#63b8ff" d="M273.85,-433.45C293.5,-429.43 315.24,-424.98 334.31,-421.08"/>
<polygon fill="#63b8ff" stroke="#63b8ff" points="335.21,-424.47 344.31,-419.03 333.81,-417.61 335.21,-424.47"/>
</g>
<!-- Node8 -->
<g id="node8" class="node">
<title>Node8</title>
<g id="a_node8"><a xlink:href="structa60_1_1collection.html#a4b5f4e6148e18b08ccc033e200327cdf" target="_top" xlink:title="Display/output name for torrent collection, including partition, episode/multiepisode,...">
<polygon fill="white" stroke="#666666" points="442,-533.5 332,-533.5 332,-507.5 442,-507.5 442,-533.5"/>
<text text-anchor="start" x="340" y="-523.1" font-family="SourceSans" font-size="8.00">a60::collection::media</text>
<text text-anchor="middle" x="387" y="-514.1" font-family="SourceSans" font-size="8.00">_object_name</text>
</a>
</g>
</g>
<!-- Node2&#45;&gt;Node8 -->
<g id="edge8" class="edge">
<title>Node2&#45;&gt;Node8</title>
<path fill="none" stroke="#63b8ff" d="M236.42,-458.55C256.08,-470.14 286.28,-486.97 314,-498.5 318.78,-500.49 323.81,-502.39 328.88,-504.18"/>
<polygon fill="#63b8ff" stroke="#63b8ff" points="328.07,-507.6 338.67,-507.48 330.31,-500.97 328.07,-507.6"/>
</g>
<!-- Node9 -->
<g id="node9" class="node">
<title>Node9</title>
<g id="a_node9"><a xlink:href="namespacea60.html#a9d17d06e9d4dfbebc3b6541240b5a6f6" target="_top" xlink:title=" ">
<polygon fill="white" stroke="#666666" points="452,-489 322,-489 322,-472 452,-472 452,-489"/>
<text text-anchor="middle" x="387" y="-478.6" font-family="SourceSans" font-size="8.00">a60::strip_dir_to_timestamp</text>
</a>
</g>
</g>
<!-- Node2&#45;&gt;Node9 -->
<g id="edge9" class="edge">
<title>Node2&#45;&gt;Node9</title>
<path fill="none" stroke="#63b8ff" d="M273.85,-457.55C293.5,-461.57 315.24,-466.02 334.31,-469.92"/>
<polygon fill="#63b8ff" stroke="#63b8ff" points="333.81,-473.39 344.31,-471.97 335.21,-466.53 333.81,-473.39"/>
</g>
<!-- Node4 -->
<g id="node4" class="node">
<title>Node4</title>
<g id="a_node4"><a xlink:href="namespacea60.html#ac2702e5ee0d3e84919043e65e486f8cc" target="_top" xlink:title="Swarm_mode dominates.">
<polygon fill="white" stroke="#666666" points="618,-419 496,-419 496,-402 618,-402 618,-419"/>
<text text-anchor="middle" x="557" y="-408.6" font-family="SourceSans" font-size="8.00">a60::augment_sum_glyph</text>
</a>
</g>
</g>
<!-- Node3&#45;&gt;Node4 -->
<g id="edge3" class="edge">
<title>Node3&#45;&gt;Node4</title>
<path fill="none" stroke="#63b8ff" d="M429.1,-436.94C452.06,-432.15 480.88,-426.15 505.25,-421.07"/>
<polygon fill="#63b8ff" stroke="#63b8ff" points="505.96,-424.5 515.04,-419.03 504.53,-417.65 505.96,-424.5"/>
</g>
<!-- Node6 -->
<g id="node6" class="node">
<title>Node6</title>
<g id="a_node6"><a xlink:href="namespacea60.html#a75f5d9553ad7cfab9f6af56253bc746d" target="_top" xlink:title="Sum over vector glyphs, return as new summary glyph.">
<polygon fill="white" stroke="#666666" points="600,-454 514,-454 514,-437 600,-437 600,-454"/>
<text text-anchor="middle" x="557" y="-443.6" font-family="SourceSans" font-size="8.00">a60::sum_glyphs</text>
</a>
</g>
</g>
<!-- Node3&#45;&gt;Node6 -->
<g id="edge6" class="edge">
<title>Node3&#45;&gt;Node6</title>
<path fill="none" stroke="#63b8ff" d="M455.36,-445.5C471.38,-445.5 488.25,-445.5 503.49,-445.5"/>
<polygon fill="#63b8ff" stroke="#63b8ff" points="503.76,-449 513.76,-445.5 503.76,-442 503.76,-449"/>
</g>
<!-- Node4&#45;&gt;Node5 -->
<g id="edge4" class="edge">
<title>Node4&#45;&gt;Node5</title>
<path fill="none" stroke="#63b8ff" d="M592.92,-401.93C601.32,-399.35 610.13,-396.2 618,-392.5 646.06,-379.3 675.31,-358.54 693.69,-344.49"/>
<polygon fill="#63b8ff" stroke="#63b8ff" points="696.05,-347.1 701.79,-338.2 691.75,-341.57 696.05,-347.1"/>
</g>
<!-- Node5&#45;&gt;Node5 -->
<g id="edge5" class="edge">
<title>Node5&#45;&gt;Node5</title>
<path fill="none" stroke="#63b8ff" d="M692.64,-338.19C681.12,-346.67 688.07,-356 713.5,-356 730.19,-356 738.92,-351.98 739.69,-346.82"/>
<polygon fill="#63b8ff" stroke="#63b8ff" points="742.59,-344.86 734.36,-338.19 736.64,-348.53 742.59,-344.86"/>
</g>
<!-- Node10&#45;&gt;Node7 -->
<g id="edge13" class="edge">
<title>Node10&#45;&gt;Node7</title>
<path fill="none" stroke="#63b8ff" d="M267.23,-382.72C290.32,-388.12 317.23,-394.41 339.6,-399.65"/>
<polygon fill="#63b8ff" stroke="#63b8ff" points="338.99,-403.1 349.52,-401.97 340.58,-396.28 338.99,-403.1"/>
</g>
<!-- Node11 -->
<g id="node11" class="node">
<title>Node11</title>
<g id="a_node11"><a xlink:href="namespacea60.html#a9a4d29d7f3a95a87dd84b13ef03eba4d" target="_top" xlink:title="Marian Bantje conversation picks up steam here. Compact stacked layout with torrent name vertical,...">
<polygon fill="white" stroke="#666666" points="440,-383.5 334,-383.5 334,-357.5 440,-357.5 440,-383.5"/>
<text text-anchor="start" x="342" y="-373.1" font-family="SourceSans" font-size="8.00">a60::augment_torrent</text>
<text text-anchor="middle" x="387" y="-364.1" font-family="SourceSans" font-size="8.00">_glyph_v3</text>
</a>
</g>
</g>
<!-- Node10&#45;&gt;Node11 -->
<g id="edge11" class="edge">
<title>Node10&#45;&gt;Node11</title>
<path fill="none" stroke="#63b8ff" d="M267.23,-370.5C285.05,-370.5 305.15,-370.5 323.68,-370.5"/>
<polygon fill="#63b8ff" stroke="#63b8ff" points="323.79,-374 333.79,-370.5 323.79,-367 323.79,-374"/>
</g>
<!-- Node12 -->
<g id="node12" class="node">
<title>Node12</title>
<g id="a_node12"><a xlink:href="namespacea60.html#aa101f579d83d22aa64d69dcbd54789c3" target="_top" xlink:title=" ">
<polygon fill="white" stroke="#666666" points="610,-383.5 504,-383.5 504,-357.5 610,-357.5 610,-383.5"/>
<text text-anchor="start" x="512" y="-373.1" font-family="SourceSans" font-size="8.00">a60::augment_torrent</text>
<text text-anchor="middle" x="557" y="-364.1" font-family="SourceSans" font-size="8.00">_glyph_numbers</text>
</a>
</g>
</g>
<!-- Node11&#45;&gt;Node12 -->
<g id="edge12" class="edge">
<title>Node11&#45;&gt;Node12</title>
<path fill="none" stroke="#63b8ff" d="M440.24,-370.5C457.14,-370.5 476.07,-370.5 493.64,-370.5"/>
<polygon fill="#63b8ff" stroke="#63b8ff" points="493.8,-374 503.8,-370.5 493.8,-367 493.8,-374"/>
</g>
<!-- Node14 -->
<g id="node14" class="node">
<title>Node14</title>
<g id="a_node14"><a xlink:href="structa60_1_1collection.html#af73cc1411b568c10442a9999f52531b4" target="_top" xlink:title=" ">
<polygon fill="white" stroke="#666666" points="460,-298 314,-298 314,-281 460,-281 460,-298"/>
<text text-anchor="middle" x="387" y="-287.6" font-family="SourceSans" font-size="8.00">a60::collection::partition_name</text>
</a>
</g>
</g>
<!-- Node13&#45;&gt;Node14 -->
<g id="edge15" class="edge">
<title>Node13&#45;&gt;Node14</title>
<path fill="none" stroke="#63b8ff" d="M263.09,-288.78C275.73,-288.86 289.72,-288.94 303.61,-289.02"/>
<polygon fill="#63b8ff" stroke="#63b8ff" points="303.66,-292.52 313.68,-289.08 303.71,-285.52 303.66,-292.52"/>
</g>
<!-- Node14&#45;&gt;Node5 -->
<g id="edge16" class="edge">
<title>Node14&#45;&gt;Node5</title>
<path fill="none" stroke="#63b8ff" d="M460.08,-297C505.45,-301.88 565.2,-308.61 618,-315.5 633.63,-317.54 650.69,-320 665.95,-322.28"/>
<polygon fill="#63b8ff" stroke="#63b8ff" points="665.78,-325.79 676.19,-323.82 666.83,-318.87 665.78,-325.79"/>
</g>
<!-- Node16 -->
<g id="node16" class="node">
<title>Node16</title>
<g id="a_node16"><a xlink:href="namespacea60.html#ae9dd8f5f0bd8cfc07cfc19f957cf2c95" target="_top" xlink:title="Shell for titles page.">
<polygon fill="white" stroke="#666666" points="445,-161 329,-161 329,-144 445,-144 445,-161"/>
<text text-anchor="middle" x="387" y="-150.6" font-family="SourceSans" font-size="8.00">a60::make_glyphs_basic</text>
</a>
</g>
</g>
<!-- Node15&#45;&gt;Node16 -->
<g id="edge18" class="edge">
<title>Node15&#45;&gt;Node16</title>
<path fill="none" stroke="#63b8ff" d="M255.46,-239.95C263.13,-237.68 270.95,-234.88 278,-231.5 313.18,-214.61 348.7,-185.87 368.96,-168.1"/>
<polygon fill="#63b8ff" stroke="#63b8ff" points="371.53,-170.49 376.66,-161.22 366.87,-165.27 371.53,-170.49"/>
</g>
<!-- Node17 -->
<g id="node17" class="node">
<title>Node17</title>
<g id="a_node17"><a xlink:href="namespacea60.html#a732ca2d85679838beb92881e9f39a999" target="_top" xlink:title="Engage bittorrent, create session.">
<polygon fill="white" stroke="#666666" points="613,-37 501,-37 501,-20 613,-20 613,-37"/>
<text text-anchor="middle" x="557" y="-26.6" font-family="SourceSans" font-size="8.00">a60::configure_session</text>
</a>
</g>
</g>
<!-- Node16&#45;&gt;Node17 -->
<g id="edge19" class="edge">
<title>Node16&#45;&gt;Node17</title>
<path fill="none" stroke="#63b8ff" d="M394.29,-143.94C409.48,-123.89 450.31,-73.5 496,-46.5 499.69,-44.32 503.66,-42.39 507.74,-40.67"/>
<polygon fill="#63b8ff" stroke="#63b8ff" points="509.25,-43.85 517.38,-37.06 506.79,-37.29 509.25,-43.85"/>
</g>
<!-- Node18 -->
<g id="node18" class="node">
<title>Node18</title>
<g id="a_node18"><a xlink:href="namespacea60_1_1io.html#a16f17ea9e02c1975ca17b77e46cf7629" target="_top" xlink:title="Make sure a path ends in &#39;/&#39;;.">
<polygon fill="white" stroke="#666666" points="899,-203 809,-203 809,-186 899,-186 899,-203"/>
<text text-anchor="middle" x="854" y="-192.6" font-family="SourceSans" font-size="8.00">a60::io::end_path</text>
</a>
</g>
</g>
<!-- Node16&#45;&gt;Node18 -->
<g id="edge20" class="edge">
<title>Node16&#45;&gt;Node18</title>
<path fill="none" stroke="#63b8ff" d="M398.5,-161.08C416.89,-175.5 456.73,-204.03 496,-214.5 606.4,-243.93 742.58,-220.71 810.41,-205.33"/>
<polygon fill="#63b8ff" stroke="#63b8ff" points="811.36,-208.7 820.31,-203.03 809.77,-201.88 811.36,-208.7"/>
</g>
<!-- Node19 -->
<g id="node19" class="node">
<title>Node19</title>
<g id="a_node19"><a xlink:href="namespacea60_1_1io.html#a89f2bd581ec510ccc0a8cfedccff7bd0" target="_top" xlink:title="Top level of directory for output files.">
<polygon fill="white" stroke="#666666" points="605,-205.5 509,-205.5 509,-179.5 605,-179.5 605,-205.5"/>
<text text-anchor="start" x="517" y="-195.1" font-family="SourceSans" font-size="8.00">a60::io::get_output</text>
<text text-anchor="middle" x="557" y="-186.1" font-family="SourceSans" font-size="8.00">_directory</text>
</a>
</g>
</g>
<!-- Node16&#45;&gt;Node19 -->
<g id="edge21" class="edge">
<title>Node16&#45;&gt;Node19</title>
<path fill="none" stroke="#63b8ff" d="M424.04,-161.08C445.82,-166.27 474.06,-172.99 498.83,-178.89"/>
<polygon fill="#63b8ff" stroke="#63b8ff" points="498.31,-182.36 508.85,-181.27 499.93,-175.55 498.31,-182.36"/>
</g>
<!-- Node21 -->
<g id="node21" class="node">
<title>Node21</title>
<g id="a_node21"><a xlink:href="namespacea60.html#a1ae4660be19d8586055437f379fa4985" target="_top" xlink:title="Configure torrent session.">
<polygon fill="white" stroke="#666666" points="617,-161 497,-161 497,-144 617,-144 617,-161"/>
<text text-anchor="middle" x="557" y="-150.6" font-family="SourceSans" font-size="8.00">a60::make_settings_pack</text>
</a>
</g>
</g>
<!-- Node16&#45;&gt;Node21 -->
<g id="edge25" class="edge">
<title>Node16&#45;&gt;Node21</title>
<path fill="none" stroke="#63b8ff" d="M445.35,-152.5C458.6,-152.5 472.85,-152.5 486.56,-152.5"/>
<polygon fill="#63b8ff" stroke="#63b8ff" points="486.91,-156 496.91,-152.5 486.91,-149 486.91,-156"/>
</g>
<!-- Node22 -->
<g id="node22" class="node">
<title>Node22</title>
<g id="a_node22"><a xlink:href="structa60_1_1collection.html#a997d47a7fc3ffcabaeba3fd74cce0d82" target="_top" xlink:title=" ">
<polygon fill="white" stroke="#666666" points="612.5,-125.5 501.5,-125.5 501.5,-99.5 612.5,-99.5 612.5,-125.5"/>
<text text-anchor="start" x="509.5" y="-115.1" font-family="SourceSans" font-size="8.00">a60::collection::torrent</text>
<text text-anchor="middle" x="557" y="-106.1" font-family="SourceSans" font-size="8.00">_directory</text>
</a>
</g>
</g>
<!-- Node16&#45;&gt;Node22 -->
<g id="edge26" class="edge">
<title>Node16&#45;&gt;Node22</title>
<path fill="none" stroke="#63b8ff" d="M424.04,-143.92C443.69,-139.24 468.61,-133.31 491.49,-127.86"/>
<polygon fill="#63b8ff" stroke="#63b8ff" points="492.57,-131.2 501.49,-125.48 490.95,-124.39 492.57,-131.2"/>
</g>
<!-- Node25 -->
<g id="node25" class="node">
<title>Node25</title>
<g id="a_node25"><a xlink:href="structa60_1_1collection.html#a7f3662085b6407ab2a8916075c984151" target="_top" xlink:title=" ">
<polygon fill="white" stroke="#666666" points="607,-81.5 507,-81.5 507,-55.5 607,-55.5 607,-81.5"/>
<text text-anchor="start" x="515" y="-71.1" font-family="SourceSans" font-size="8.00">a60::collection::trim</text>
<text text-anchor="middle" x="557" y="-62.1" font-family="SourceSans" font-size="8.00">_string</text>
</a>
</g>
</g>
<!-- Node16&#45;&gt;Node25 -->
<g id="edge30" class="edge">
<title>Node16&#45;&gt;Node25</title>
<path fill="none" stroke="#63b8ff" d="M401.25,-143.91C421.23,-131.18 460.53,-107.04 496,-90.5 499.85,-88.71 503.88,-86.96 507.97,-85.28"/>
<polygon fill="#63b8ff" stroke="#63b8ff" points="509.5,-88.44 517.51,-81.51 506.93,-81.93 509.5,-88.44"/>
</g>
<!-- Node19&#45;&gt;Node18 -->
<g id="edge22" class="edge">
<title>Node19&#45;&gt;Node18</title>
<path fill="none" stroke="#63b8ff" d="M605.35,-194.86C620.85,-195.53 638.16,-196.17 654,-196.5 706.88,-197.6 720.12,-197.16 773,-196.5 781.39,-196.4 790.27,-196.23 798.94,-196.04"/>
<polygon fill="#63b8ff" stroke="#63b8ff" points="799.08,-199.53 808.99,-195.8 798.91,-192.54 799.08,-199.53"/>
</g>
<!-- Node20 -->
<g id="node20" class="node">
<title>Node20</title>
<g id="a_node20"><a xlink:href="namespacea60_1_1io.html#a6ad052ef18cfb1a1ac708f7c69c9050d" target="_top" xlink:title="Assumes argument is full path, no error checking...">
<polygon fill="white" stroke="#666666" points="761.5,-187.5 665.5,-187.5 665.5,-161.5 761.5,-161.5 761.5,-187.5"/>
<text text-anchor="start" x="673.5" y="-177.1" font-family="SourceSans" font-size="8.00">a60::io::get_output</text>
<text text-anchor="middle" x="713.5" y="-168.1" font-family="SourceSans" font-size="8.00">_prefix</text>
</a>
</g>
</g>
<!-- Node19&#45;&gt;Node20 -->
<g id="edge23" class="edge">
<title>Node19&#45;&gt;Node20</title>
<path fill="none" stroke="#63b8ff" d="M605.19,-187C620.99,-185.16 638.78,-183.09 655.26,-181.17"/>
<polygon fill="#63b8ff" stroke="#63b8ff" points="655.8,-184.63 665.33,-180 654.99,-177.68 655.8,-184.63"/>
</g>
<!-- Node20&#45;&gt;Node18 -->
<g id="edge24" class="edge">
<title>Node20&#45;&gt;Node18</title>
<path fill="none" stroke="#63b8ff" d="M761.78,-181.33C773.65,-183.04 786.49,-184.9 798.68,-186.66"/>
<polygon fill="#63b8ff" stroke="#63b8ff" points="798.34,-190.14 808.74,-188.11 799.34,-183.21 798.34,-190.14"/>
</g>
<!-- Node22&#45;&gt;Node18 -->
<g id="edge27" class="edge">
<title>Node22&#45;&gt;Node18</title>
<path fill="none" stroke="#63b8ff" d="M598.36,-99.43C605.06,-96.78 611.83,-93.78 618,-90.5 635.43,-81.24 635.22,-70.57 654,-64.5 704.32,-48.23 726.83,-38.7 773,-64.5 815.87,-88.46 838.6,-145.86 847.88,-175.72"/>
<polygon fill="#63b8ff" stroke="#63b8ff" points="844.63,-177.08 850.79,-185.7 851.35,-175.12 844.63,-177.08"/>
</g>
<!-- Node23 -->
<g id="node23" class="node">
<title>Node23</title>
<g id="a_node23"><a xlink:href="namespacea60_1_1io.html#ac95e5271a27a23bc2336d84b3f821fa2" target="_top" xlink:title="Constant filesystem and run&#45;time resources.">
<polygon fill="white" stroke="#666666" points="765.5,-143.5 661.5,-143.5 661.5,-117.5 765.5,-117.5 765.5,-143.5"/>
<text text-anchor="start" x="669.5" y="-133.1" font-family="SourceSans" font-size="8.00">a60::io::get_run_time</text>
<text text-anchor="middle" x="713.5" y="-124.1" font-family="SourceSans" font-size="8.00">_resources</text>
</a>
</g>
</g>
<!-- Node22&#45;&gt;Node23 -->
<g id="edge28" class="edge">
<title>Node22&#45;&gt;Node23</title>
<path fill="none" stroke="#63b8ff" d="M612.91,-118.9C625.36,-120.35 638.67,-121.9 651.36,-123.38"/>
<polygon fill="#63b8ff" stroke="#63b8ff" points="651.05,-126.86 661.39,-124.54 651.86,-119.91 651.05,-126.86"/>
</g>
<!-- Node24 -->
<g id="node24" class="node">
<title>Node24</title>
<g id="a_node24"><a xlink:href="namespacea60_1_1io.html#aa5fbb8ab63397dd45c4a54c0758935ef" target="_top" xlink:title="Sanity check input existence.">
<polygon fill="white" stroke="#666666" points="765.5,-99.5 661.5,-99.5 661.5,-73.5 765.5,-73.5 765.5,-99.5"/>
<text text-anchor="start" x="669.5" y="-89.1" font-family="SourceSans" font-size="8.00">a60::io::sanity_check</text>
<text text-anchor="middle" x="713.5" y="-80.1" font-family="SourceSans" font-size="8.00">_input</text>
</a>
</g>
</g>
<!-- Node22&#45;&gt;Node24 -->
<g id="edge29" class="edge">
<title>Node22&#45;&gt;Node24</title>
<path fill="none" stroke="#63b8ff" d="M612.91,-103.26C625.36,-101.16 638.67,-98.93 651.36,-96.79"/>
<polygon fill="#63b8ff" stroke="#63b8ff" points="652.11,-100.21 661.39,-95.1 650.94,-93.31 652.11,-100.21"/>
</g>
<!-- Node26 -->
<g id="node26" class="node">
<title>Node26</title>
<g id="a_node26"><a xlink:href="namespacea60.html#ac7eddb2e330d8983ddc852edde5335c5" target="_top" xlink:title=" ">
<polygon fill="white" stroke="#666666" points="773,-17 654,-17 654,0 773,0 773,-17"/>
<text text-anchor="middle" x="713.5" y="-6.6" font-family="SourceSans" font-size="8.00">a60::to_lowercase_string</text>
</a>
</g>
</g>
<!-- Node25&#45;&gt;Node26 -->
<g id="edge31" class="edge">
<title>Node25&#45;&gt;Node26</title>
<path fill="none" stroke="#63b8ff" d="M592.28,-55.41C600.7,-52.18 609.68,-48.72 618,-45.5 639.17,-37.3 662.97,-27.98 681.38,-20.75"/>
<polygon fill="#63b8ff" stroke="#63b8ff" points="682.72,-23.98 690.75,-17.07 680.16,-17.47 682.72,-23.98"/>
</g>
</g>
</svg>
