<?xml version="1.0" encoding="UTF-8" standalone="no"?>
<!DOCTYPE svg PUBLIC "-//W3C//DTD SVG 1.1//EN"
 "http://www.w3.org/Graphics/SVG/1.1/DTD/svg11.dtd">
<!-- Generated by graphviz version 5.0.0 (0)
 -->
<!-- Title: a60::augment_peers_location Pages: 1 -->
<!--zoomable 149 -->
<svg id="main" version="1.1" xmlns="http://www.w3.org/2000/svg" xmlns:xlink="http://www.w3.org/1999/xlink" xml:space="preserve" onload="init(evt)">
<style type="text/css"><![CDATA[
.edge:hover path { stroke: red; }
.edge:hover polygon { stroke: red; fill: red; }
]]></style>
<script type="text/javascript"><![CDATA[
var edges = document.getElementsByTagName('g');
if (edges && edges.length) {
  for (var i=0;i<edges.length;i++) {
    if (edges[i].id.substr(0,4)=='edge') {
      edges[i].setAttribute('class','edge');
    }
  }
}
]]></script>
        <defs>
                <circle id="rim" cx="0" cy="0" r="7"/>
                <circle id="rim2" cx="0" cy="0" r="3.5"/>
                <g id="zoomPlus">
                        <use xlink:href="#rim" fill="#404040">
                                <set attributeName="fill" to="#808080" begin="zoomplus.mouseover" end="zoomplus.mouseout"/>
                        </use>
                        <path d="M-4,0h8M0,-4v8" fill="none" stroke="white" stroke-width="1.5" pointer-events="none"/>
                </g>
                <g id="zoomMin">
                        <use xlink:href="#rim" fill="#404040">
                                <set attributeName="fill" to="#808080" begin="zoomminus.mouseover" end="zoomminus.mouseout"/>
                        </use>
                        <path d="M-4,0h8" fill="none" stroke="white" stroke-width="1.5" pointer-events="none"/>
                </g>
                <g id="dirArrow">
                        <path fill="none" stroke="white" stroke-width="1.5" d="M0,-3.0v7 M-2.5,-0.5L0,-3.0L2.5,-0.5"/>
                </g>
               <g id="resetDef">
                       <use xlink:href="#rim2" fill="#404040">
                               <set attributeName="fill" to="#808080" begin="reset.mouseover" end="reset.mouseout"/>
                       </use>
               </g>
        </defs>

<script type="text/javascript">
var viewWidth = 594;
var viewHeight = 149;
var sectionId = 'dynsection-47';
</script>
<script xlink:href="svgpan.js"/>
<svg id="graph" class="graph">
<g id="viewport">
<title>a60::augment_peers_location</title>
<!-- Node1 -->
<g id="node1" class="node">
<title>Node1</title>
<g id="a_node1"><a xlink:title=" ">
<polygon fill="#999999" stroke="#666666" points="102,-90 0,-90 0,-64 102,-64 102,-90"/>
<text text-anchor="start" x="8" y="-79.6" font-family="SourceSans" font-size="8.00">a60::augment_peers</text>
<text text-anchor="middle" x="51" y="-70.6" font-family="SourceSans" font-size="8.00">_location</text>
</a>
</g>
</g>
<!-- Node2 -->
<g id="node2" class="node">
<title>Node2</title>
<g id="a_node2"><a xlink:href="namespacea60.html#ac997b39099fe8c748ee393875dd23c9e" target="_top" xlink:title=" ">
<polygon fill="white" stroke="#666666" points="272,-85.5 138,-85.5 138,-68.5 272,-68.5 272,-85.5"/>
<text text-anchor="middle" x="205" y="-75.1" font-family="SourceSans" font-size="8.00">a60::augment_peer_location</text>
</a>
</g>
</g>
<!-- Node1&#45;&gt;Node2 -->
<g id="edge1" class="edge">
<title>Node1&#45;&gt;Node2</title>
<path fill="none" stroke="#63b8ff" d="M102.19,-77C110.4,-77 119.06,-77 127.72,-77"/>
<polygon fill="#63b8ff" stroke="#63b8ff" points="127.87,-80.5 137.87,-77 127.87,-73.5 127.87,-80.5"/>
</g>
<!-- Node3 -->
<g id="node3" class="node">
<title>Node3</title>
<g id="a_node3"><a xlink:href="namespacea60.html#a935512b7346e03fbd98295ec07511666" target="_top" xlink:title=" ">
<polygon fill="white" stroke="#666666" points="424,-140.5 308,-140.5 308,-123.5 424,-123.5 424,-140.5"/>
<text text-anchor="middle" x="366" y="-130.1" font-family="SourceSans" font-size="8.00">a60::augment_peer_text</text>
</a>
</g>
</g>
<!-- Node2&#45;&gt;Node3 -->
<g id="edge2" class="edge">
<title>Node2&#45;&gt;Node3</title>
<path fill="none" stroke="#63b8ff" d="M227.74,-85.58C248.29,-93.57 280.05,-105.64 308,-115 313.58,-116.87 319.51,-118.75 325.34,-120.54"/>
<polygon fill="#63b8ff" stroke="#63b8ff" points="324.42,-123.92 335,-123.46 326.44,-117.22 324.42,-123.92"/>
</g>
<!-- Node4 -->
<g id="node4" class="node">
<title>Node4</title>
<g id="a_node4"><a xlink:href="namespacea60.html#a67a216731ae229be675dbcbfa228d865" target="_top" xlink:title=" ">
<polygon fill="white" stroke="#666666" points="416.5,-105.5 315.5,-105.5 315.5,-88.5 416.5,-88.5 416.5,-105.5"/>
<text text-anchor="middle" x="366" y="-95.1" font-family="SourceSans" font-size="8.00">a60::convert_to_utf8</text>
</a>
</g>
</g>
<!-- Node2&#45;&gt;Node4 -->
<g id="edge3" class="edge">
<title>Node2&#45;&gt;Node4</title>
<path fill="none" stroke="#63b8ff" d="M272.05,-85.31C283.04,-86.69 294.39,-88.12 305.21,-89.48"/>
<polygon fill="#63b8ff" stroke="#63b8ff" points="305.04,-92.99 315.4,-90.76 305.92,-86.04 305.04,-92.99"/>
</g>
<!-- Node6 -->
<g id="node6" class="node">
<title>Node6</title>
<g id="a_node6"><a xlink:href="namespacea60.html#a63bf2b0abf68edc3f3e74a0811fe771b" target="_top" xlink:title="Error checking support. Null Island Check (aka latitude and longitude set to zero).">
<polygon fill="white" stroke="#666666" points="419.5,-70 312.5,-70 312.5,-44 419.5,-44 419.5,-70"/>
<text text-anchor="start" x="320.5" y="-59.6" font-family="SourceSans" font-size="8.00">a60::is_meta_peer_on</text>
<text text-anchor="middle" x="366" y="-50.6" font-family="SourceSans" font-size="8.00">_null_island</text>
</a>
</g>
</g>
<!-- Node2&#45;&gt;Node6 -->
<g id="edge5" class="edge">
<title>Node2&#45;&gt;Node6</title>
<path fill="none" stroke="#63b8ff" d="M272.05,-68.69C282.05,-67.43 292.35,-66.14 302.28,-64.89"/>
<polygon fill="#63b8ff" stroke="#63b8ff" points="302.99,-68.33 312.47,-63.61 302.12,-61.38 302.99,-68.33"/>
</g>
<!-- Node7 -->
<g id="node7" class="node">
<title>Node7</title>
<g id="a_node7"><a xlink:href="structa60_1_1carto_1_1cartography.html#a57e14cabb4993189316e369a27752a73" target="_top" xlink:title=" ">
<polygon fill="white" stroke="#666666" points="423.5,-26 308.5,-26 308.5,0 423.5,0 423.5,-26"/>
<text text-anchor="start" x="316.5" y="-15.6" font-family="SourceSans" font-size="8.00">a60::carto::cartography</text>
<text text-anchor="middle" x="366" y="-6.6" font-family="SourceSans" font-size="8.00">::to_point_2d</text>
</a>
</g>
</g>
<!-- Node2&#45;&gt;Node7 -->
<g id="edge6" class="edge">
<title>Node2&#45;&gt;Node7</title>
<path fill="none" stroke="#63b8ff" d="M226.27,-68.5C246.81,-59.92 279.54,-46.35 308,-35 312.39,-33.25 316.97,-31.44 321.56,-29.65"/>
<polygon fill="#63b8ff" stroke="#63b8ff" points="322.84,-32.91 330.89,-26.02 320.3,-26.38 322.84,-32.91"/>
</g>
<!-- Node5 -->
<g id="node5" class="node">
<title>Node5</title>
<g id="a_node5"><a xlink:href="namespacea60.html#a1c4e23f164dec11b9fee53e2292af224" target="_top" xlink:title="Convert MaxMind GeoIP information from ISO&#45;8859&#45;1 encoding to UTF&#45;8.">
<polygon fill="white" stroke="#666666" points="586,-105.5 460,-105.5 460,-88.5 586,-88.5 586,-105.5"/>
<text text-anchor="middle" x="523" y="-95.1" font-family="SourceSans" font-size="8.00">a60::convert_8859_to_utf8</text>
</a>
</g>
</g>
<!-- Node4&#45;&gt;Node5 -->
<g id="edge4" class="edge">
<title>Node4&#45;&gt;Node5</title>
<path fill="none" stroke="#63b8ff" d="M416.9,-97C427.4,-97 438.68,-97 449.81,-97"/>
<polygon fill="#63b8ff" stroke="#63b8ff" points="449.97,-100.5 459.97,-97 449.97,-93.5 449.97,-100.5"/>
</g>
</g>
</svg>
        <g id="navigator" transform="translate(0 0)" fill="#404254">
                <rect fill="#f2f5e9" fill-opacity="0.5" stroke="#606060" stroke-width=".5" x="0" y="0" width="60" height="60"/>
                <use id="zoomplus" xlink:href="#zoomPlus" x="17" y="9" onmousedown="handleZoom(evt,'in')"/>
                <use id="zoomminus" xlink:href="#zoomMin" x="42" y="9" onmousedown="handleZoom(evt,'out')"/>
                <use id="reset" xlink:href="#resetDef" x="30" y="36" onmousedown="handleReset()"/>
                <g id="arrowUp" xlink:href="#dirArrow" transform="translate(30 24)" onmousedown="handlePan(0,-1)">
                  <use xlink:href="#rim" fill="#404040">
                        <set attributeName="fill" to="#808080" begin="arrowUp.mouseover" end="arrowUp.mouseout"/>
                  </use>
                  <path fill="none" stroke="white" stroke-width="1.5" d="M0,-3.0v7 M-2.5,-0.5L0,-3.0L2.5,-0.5"/>
                </g>
                <g id="arrowRight" xlink:href="#dirArrow" transform="rotate(90) translate(36 -43)" onmousedown="handlePan(1,0)">
                  <use xlink:href="#rim" fill="#404040">
                        <set attributeName="fill" to="#808080" begin="arrowRight.mouseover" end="arrowRight.mouseout"/>
                  </use>
                  <path fill="none" stroke="white" stroke-width="1.5" d="M0,-3.0v7 M-2.5,-0.5L0,-3.0L2.5,-0.5"/>
                </g>
                <g id="arrowDown" xlink:href="#dirArrow" transform="rotate(180) translate(-30 -48)" onmousedown="handlePan(0,1)">
                  <use xlink:href="#rim" fill="#404040">
                        <set attributeName="fill" to="#808080" begin="arrowDown.mouseover" end="arrowDown.mouseout"/>
                  </use>
                  <path fill="none" stroke="white" stroke-width="1.5" d="M0,-3.0v7 M-2.5,-0.5L0,-3.0L2.5,-0.5"/>
                </g>
                <g id="arrowLeft" xlink:href="#dirArrow" transform="rotate(270) translate(-36 17)" onmousedown="handlePan(-1,0)">
                  <use xlink:href="#rim" fill="#404040">
                        <set attributeName="fill" to="#808080" begin="arrowLeft.mouseover" end="arrowLeft.mouseout"/>
                  </use>
                  <path fill="none" stroke="white" stroke-width="1.5" d="M0,-3.0v7 M-2.5,-0.5L0,-3.0L2.5,-0.5"/>
                </g>
        </g>
        <svg viewBox="0 0 15 15" width="100%" height="30px" preserveAspectRatio="xMaxYMin meet">
         <g id="arrow_out" transform="scale(0.3 0.3)">
          <a xlink:href="namespacea60_a15ed1aed51c737c4b3f1b2bae7bdb7bc_cgraph_org.svg" target="_base">
           <rect id="button" ry="5" rx="5" y="6" x="6" height="38" width="38"
                fill="#f2f5e9" fill-opacity="0.5" stroke="#606060" stroke-width="1.0"/>
           <path id="arrow"
             d="M 11.500037,31.436501 C 11.940474,20.09759 22.043105,11.32322 32.158766,21.979434 L 37.068811,17.246167 C 37.068811,17.246167 37.088388,32 37.088388,32 L 22.160133,31.978069 C 22.160133,31.978069 26.997745,27.140456 26.997745,27.140456 C 18.528582,18.264221 13.291696,25.230495 11.500037,31.436501 z"
             style="fill:#404040;"/>
          </a>
         </g>
        </svg>
</svg>
