<?xml version="1.0" encoding="UTF-8" standalone="no"?>
<!DOCTYPE svg PUBLIC "-//W3C//DTD SVG 1.1//EN"
 "http://www.w3.org/Graphics/SVG/1.1/DTD/svg11.dtd">
<!-- Generated by graphviz version 5.0.0 (0)
 -->
<!-- Title: a60::metadata::render_ids_value Pages: 1 -->
<!--zoomable 220 -->
<svg id="main" version="1.1" xmlns="http://www.w3.org/2000/svg" xmlns:xlink="http://www.w3.org/1999/xlink" xml:space="preserve" onload="init(evt)">
<style type="text/css"><![CDATA[
.edge:hover path { stroke: red; }
.edge:hover polygon { stroke: red; fill: red; }
]]></style>
<script type="text/javascript"><![CDATA[
var edges = document.getElementsByTagName('g');
if (edges && edges.length) {
  for (var i=0;i<edges.length;i++) {
    if (edges[i].id.substr(0,4)=='edge') {
      edges[i].setAttribute('class','edge');
    }
  }
}
]]></script>
        <defs>
                <circle id="rim" cx="0" cy="0" r="7"/>
                <circle id="rim2" cx="0" cy="0" r="3.5"/>
                <g id="zoomPlus">
                        <use xlink:href="#rim" fill="#404040">
                                <set attributeName="fill" to="#808080" begin="zoomplus.mouseover" end="zoomplus.mouseout"/>
                        </use>
                        <path d="M-4,0h8M0,-4v8" fill="none" stroke="white" stroke-width="1.5" pointer-events="none"/>
                </g>
                <g id="zoomMin">
                        <use xlink:href="#rim" fill="#404040">
                                <set attributeName="fill" to="#808080" begin="zoomminus.mouseover" end="zoomminus.mouseout"/>
                        </use>
                        <path d="M-4,0h8" fill="none" stroke="white" stroke-width="1.5" pointer-events="none"/>
                </g>
                <g id="dirArrow">
                        <path fill="none" stroke="white" stroke-width="1.5" d="M0,-3.0v7 M-2.5,-0.5L0,-3.0L2.5,-0.5"/>
                </g>
               <g id="resetDef">
                       <use xlink:href="#rim2" fill="#404040">
                               <set attributeName="fill" to="#808080" begin="reset.mouseover" end="reset.mouseout"/>
                       </use>
               </g>
        </defs>

<script type="text/javascript">
var viewWidth = 554;
var viewHeight = 220;
var sectionId = 'dynsection-61';
</script>
<script xlink:href="svgpan.js"/>
<svg id="graph" class="graph">
<g id="viewport">
<title>a60::metadata::render_ids_value</title>
<!-- Node1 -->
<g id="node1" class="node">
<title>Node1</title>
<g id="a_node1"><a xlink:title="Entry point for output, per identity dimension, for all values regardless of neighbors or overlaps.">
<polygon fill="#999999" stroke="#666666" points="110,-199.5 0,-199.5 0,-173.5 110,-173.5 110,-199.5"/>
<text text-anchor="start" x="8" y="-189.1" font-family="SourceSans" font-size="8.00">a60::metadata::render</text>
<text text-anchor="middle" x="55" y="-180.1" font-family="SourceSans" font-size="8.00">_ids_value</text>
</a>
</g>
</g>
<!-- Node2 -->
<g id="node2" class="node">
<title>Node2</title>
<g id="a_node2"><a xlink:href="namespacea60_1_1metadata.html#abcd6d192e6ed0f853c3c6cd9bcf13cad" target="_top" xlink:title=" ">
<polygon fill="white" stroke="#666666" points="536.5,-183.5 438.5,-183.5 438.5,-157.5 536.5,-157.5 536.5,-183.5"/>
<text text-anchor="start" x="446.5" y="-173.1" font-family="SourceSans" font-size="8.00">a60::metadata::get</text>
<text text-anchor="middle" x="487.5" y="-164.1" font-family="SourceSans" font-size="8.00">_metadata_style</text>
</a>
</g>
</g>
<!-- Node1&#45;&gt;Node2 -->
<g id="edge1" class="edge">
<title>Node1&#45;&gt;Node2</title>
<path fill="none" stroke="#63b8ff" d="M100.47,-199.61C114.87,-203.25 130.99,-206.69 146,-208.5 245,-220.42 360.36,-200.44 428.2,-185.22"/>
<polygon fill="#63b8ff" stroke="#63b8ff" points="429.29,-188.56 438.26,-182.92 427.73,-181.73 429.29,-188.56"/>
</g>
<!-- Node3 -->
<g id="node3" class="node">
<title>Node3</title>
<g id="a_node3"><a xlink:href="namespacea60_1_1metadata.html#a0f59763af905b28339abf072db876919" target="_top" xlink:title="Typographic defaults for radial diagrams.">
<polygon fill="white" stroke="#666666" points="250,-199.5 152,-199.5 152,-173.5 250,-173.5 250,-199.5"/>
<text text-anchor="start" x="160" y="-189.1" font-family="SourceSans" font-size="8.00">a60::metadata::get</text>
<text text-anchor="middle" x="201" y="-180.1" font-family="SourceSans" font-size="8.00">_radial_typo</text>
</a>
</g>
</g>
<!-- Node1&#45;&gt;Node3 -->
<g id="edge2" class="edge">
<title>Node1&#45;&gt;Node3</title>
<path fill="none" stroke="#63b8ff" d="M110.03,-186.5C120.32,-186.5 131.14,-186.5 141.57,-186.5"/>
<polygon fill="#63b8ff" stroke="#63b8ff" points="141.83,-190 151.83,-186.5 141.83,-183 141.83,-190"/>
</g>
<!-- Node4 -->
<g id="node4" class="node">
<title>Node4</title>
<g id="a_node4"><a xlink:href="namespacea60_1_1metadata.html#acac3003bbaeb00d1c2dbfab86874dd04" target="_top" xlink:title="Base Radial Visualization.">
<polygon fill="white" stroke="#666666" points="256,-123.5 146,-123.5 146,-97.5 256,-97.5 256,-123.5"/>
<text text-anchor="start" x="154" y="-113.1" font-family="SourceSans" font-size="8.00">a60::metadata::render</text>
<text text-anchor="middle" x="201" y="-104.1" font-family="SourceSans" font-size="8.00">_id_base</text>
</a>
</g>
</g>
<!-- Node1&#45;&gt;Node4 -->
<g id="edge4" class="edge">
<title>Node1&#45;&gt;Node4</title>
<path fill="none" stroke="#63b8ff" d="M80.75,-173.44C104.25,-161.04 139.75,-142.3 165.91,-128.49"/>
<polygon fill="#63b8ff" stroke="#63b8ff" points="167.88,-131.41 175.09,-123.65 164.61,-125.22 167.88,-131.41"/>
</g>
<!-- Node3&#45;&gt;Node2 -->
<g id="edge3" class="edge">
<title>Node3&#45;&gt;Node2</title>
<path fill="none" stroke="#63b8ff" d="M250.26,-183.79C299.46,-181.02 375.8,-176.73 428.31,-173.77"/>
<polygon fill="#63b8ff" stroke="#63b8ff" points="428.69,-177.26 438.48,-173.2 428.3,-170.27 428.69,-177.26"/>
</g>
<!-- Node4&#45;&gt;Node2 -->
<g id="edge7" class="edge">
<title>Node4&#45;&gt;Node2</title>
<path fill="none" stroke="#63b8ff" d="M253.78,-123.6C266.27,-126.63 279.59,-129.77 292,-132.5 337.65,-142.53 389.63,-152.62 428.36,-159.88"/>
<polygon fill="#63b8ff" stroke="#63b8ff" points="427.94,-163.36 438.41,-161.75 429.22,-156.48 427.94,-163.36"/>
</g>
<!-- Node5 -->
<g id="node5" class="node">
<title>Node5</title>
<g id="a_node5"><a xlink:href="namespacea60_1_1constants.html#a613cac7d85819a545849f5eefd733896" target="_top" xlink:title=" ">
<polygon fill="white" stroke="#666666" points="393,-79.5 292,-79.5 292,-53.5 393,-53.5 393,-79.5"/>
<text text-anchor="start" x="300" y="-69.1" font-family="SourceSans" font-size="8.00">a60::constants::age</text>
<text text-anchor="middle" x="342.5" y="-60.1" font-family="SourceSans" font-size="8.00">_value_to_multiple</text>
</a>
</g>
</g>
<!-- Node4&#45;&gt;Node5 -->
<g id="edge5" class="edge">
<title>Node4&#45;&gt;Node5</title>
<path fill="none" stroke="#63b8ff" d="M243.48,-97.42C258.1,-92.8 274.73,-87.56 290.07,-82.72"/>
<polygon fill="#63b8ff" stroke="#63b8ff" points="291.46,-85.95 299.94,-79.61 289.35,-79.28 291.46,-85.95"/>
</g>
<!-- Node7 -->
<g id="node7" class="node">
<title>Node7</title>
<g id="a_node7"><a xlink:href="namespacea60_1_1metadata.html#aeba42336cc4f30ed9ee705111d3e82a9" target="_top" xlink:title="Typographic defaults for text labels.">
<polygon fill="white" stroke="#666666" points="391.5,-123.5 293.5,-123.5 293.5,-97.5 391.5,-97.5 391.5,-123.5"/>
<text text-anchor="start" x="301.5" y="-113.1" font-family="SourceSans" font-size="8.00">a60::metadata::get</text>
<text text-anchor="middle" x="342.5" y="-104.1" font-family="SourceSans" font-size="8.00">_metadata_typo</text>
</a>
</g>
</g>
<!-- Node4&#45;&gt;Node7 -->
<g id="edge8" class="edge">
<title>Node4&#45;&gt;Node7</title>
<path fill="none" stroke="#63b8ff" d="M256.33,-110.5C265.13,-110.5 274.27,-110.5 283.16,-110.5"/>
<polygon fill="#63b8ff" stroke="#63b8ff" points="283.44,-114 293.44,-110.5 283.44,-107 283.44,-114"/>
</g>
<!-- Node8 -->
<g id="node8" class="node">
<title>Node8</title>
<g id="a_node8"><a xlink:href="namespacea60.html#a4e8b0cabed112734147b499bf0cc9029" target="_top" xlink:title="Conversion of resolution_mode to string.">
<polygon fill="white" stroke="#666666" points="379.5,-17 305.5,-17 305.5,0 379.5,0 379.5,-17"/>
<text text-anchor="middle" x="342.5" y="-6.6" font-family="SourceSans" font-size="8.00">a60::to_string</text>
</a>
</g>
</g>
<!-- Node4&#45;&gt;Node8 -->
<g id="edge10" class="edge">
<title>Node4&#45;&gt;Node8</title>
<path fill="none" stroke="#63b8ff" d="M219.91,-97.33C238.07,-83.99 266.96,-62.78 292,-44.5 301.65,-37.45 312.38,-29.64 321.38,-23.11"/>
<polygon fill="#63b8ff" stroke="#63b8ff" points="323.65,-25.78 329.69,-17.07 319.54,-20.12 323.65,-25.78"/>
</g>
<!-- Node6 -->
<g id="node6" class="node">
<title>Node6</title>
<g id="a_node6"><a xlink:href="namespacea60_1_1constants.html#ac27c77e4606552ae5f74a1c21dd9258e" target="_top" xlink:title=" ">
<polygon fill="white" stroke="#666666" points="546,-75 429,-75 429,-58 546,-58 546,-75"/>
<text text-anchor="middle" x="487.5" y="-64.6" font-family="SourceSans" font-size="8.00">a60::constants::newline</text>
</a>
</g>
</g>
<!-- Node5&#45;&gt;Node6 -->
<g id="edge6" class="edge">
<title>Node5&#45;&gt;Node6</title>
<path fill="none" stroke="#63b8ff" d="M393.11,-66.5C401.35,-66.5 410.01,-66.5 418.6,-66.5"/>
<polygon fill="#63b8ff" stroke="#63b8ff" points="418.62,-70 428.62,-66.5 418.62,-63 418.62,-70"/>
</g>
<!-- Node7&#45;&gt;Node2 -->
<g id="edge9" class="edge">
<title>Node7&#45;&gt;Node2</title>
<path fill="none" stroke="#63b8ff" d="M374.53,-123.52C395.37,-132.26 423.06,-143.88 445.69,-153.37"/>
<polygon fill="#63b8ff" stroke="#63b8ff" points="444.46,-156.66 455.04,-157.3 447.17,-150.2 444.46,-156.66"/>
</g>
<!-- Node8&#45;&gt;Node8 -->
<g id="edge11" class="edge">
<title>Node8&#45;&gt;Node8</title>
<path fill="none" stroke="#63b8ff" d="M321.64,-17.19C310.12,-25.67 317.07,-35 342.5,-35 359.19,-35 367.92,-30.98 368.69,-25.82"/>
<polygon fill="#63b8ff" stroke="#63b8ff" points="371.59,-23.86 363.36,-17.19 365.64,-27.53 371.59,-23.86"/>
</g>
</g>
</svg>
        <g id="navigator" transform="translate(0 0)" fill="#404254">
                <rect fill="#f2f5e9" fill-opacity="0.5" stroke="#606060" stroke-width=".5" x="0" y="0" width="60" height="60"/>
                <use id="zoomplus" xlink:href="#zoomPlus" x="17" y="9" onmousedown="handleZoom(evt,'in')"/>
                <use id="zoomminus" xlink:href="#zoomMin" x="42" y="9" onmousedown="handleZoom(evt,'out')"/>
                <use id="reset" xlink:href="#resetDef" x="30" y="36" onmousedown="handleReset()"/>
                <g id="arrowUp" xlink:href="#dirArrow" transform="translate(30 24)" onmousedown="handlePan(0,-1)">
                  <use xlink:href="#rim" fill="#404040">
                        <set attributeName="fill" to="#808080" begin="arrowUp.mouseover" end="arrowUp.mouseout"/>
                  </use>
                  <path fill="none" stroke="white" stroke-width="1.5" d="M0,-3.0v7 M-2.5,-0.5L0,-3.0L2.5,-0.5"/>
                </g>
                <g id="arrowRight" xlink:href="#dirArrow" transform="rotate(90) translate(36 -43)" onmousedown="handlePan(1,0)">
                  <use xlink:href="#rim" fill="#404040">
                        <set attributeName="fill" to="#808080" begin="arrowRight.mouseover" end="arrowRight.mouseout"/>
                  </use>
                  <path fill="none" stroke="white" stroke-width="1.5" d="M0,-3.0v7 M-2.5,-0.5L0,-3.0L2.5,-0.5"/>
                </g>
                <g id="arrowDown" xlink:href="#dirArrow" transform="rotate(180) translate(-30 -48)" onmousedown="handlePan(0,1)">
                  <use xlink:href="#rim" fill="#404040">
                        <set attributeName="fill" to="#808080" begin="arrowDown.mouseover" end="arrowDown.mouseout"/>
                  </use>
                  <path fill="none" stroke="white" stroke-width="1.5" d="M0,-3.0v7 M-2.5,-0.5L0,-3.0L2.5,-0.5"/>
                </g>
                <g id="arrowLeft" xlink:href="#dirArrow" transform="rotate(270) translate(-36 17)" onmousedown="handlePan(-1,0)">
                  <use xlink:href="#rim" fill="#404040">
                        <set attributeName="fill" to="#808080" begin="arrowLeft.mouseover" end="arrowLeft.mouseout"/>
                  </use>
                  <path fill="none" stroke="white" stroke-width="1.5" d="M0,-3.0v7 M-2.5,-0.5L0,-3.0L2.5,-0.5"/>
                </g>
        </g>
        <svg viewBox="0 0 15 15" width="100%" height="30px" preserveAspectRatio="xMaxYMin meet">
         <g id="arrow_out" transform="scale(0.3 0.3)">
          <a xlink:href="namespacea60_1_1metadata_a489bbc8cfa70d5ff52e48a0fc49cff8a_cgraph_org.svg" target="_base">
           <rect id="button" ry="5" rx="5" y="6" x="6" height="38" width="38"
                fill="#f2f5e9" fill-opacity="0.5" stroke="#606060" stroke-width="1.0"/>
           <path id="arrow"
             d="M 11.500037,31.436501 C 11.940474,20.09759 22.043105,11.32322 32.158766,21.979434 L 37.068811,17.246167 C 37.068811,17.246167 37.088388,32 37.088388,32 L 22.160133,31.978069 C 22.160133,31.978069 26.997745,27.140456 26.997745,27.140456 C 18.528582,18.264221 13.291696,25.230495 11.500037,31.436501 z"
             style="fill:#404040;"/>
          </a>
         </g>
        </svg>
</svg>
