<?xml version="1.0" encoding="UTF-8" standalone="no"?>
<!DOCTYPE svg PUBLIC "-//W3C//DTD SVG 1.1//EN"
 "http://www.w3.org/Graphics/SVG/1.1/DTD/svg11.dtd">
<!-- Generated by graphviz version 5.0.0 (0)
 -->
<!-- Title: a60::demographia::demography::parse_line Pages: 1 -->
<svg width="350pt" height="52pt"
 viewBox="0.00 0.00 350.00 52.00" xmlns="http://www.w3.org/2000/svg" xmlns:xlink="http://www.w3.org/1999/xlink">
<g id="graph0" class="graph" transform="scale(1 1) rotate(0) translate(4 48)">
<title>a60::demographia::demography::parse_line</title>
<!-- Node1 -->
<g id="node1" class="node">
<title>Node1</title>
<g id="a_node1"><a xlink:title=" ">
<polygon fill="#999999" stroke="#666666" points="151,-26 0,-26 0,0 151,0 151,-26"/>
<text text-anchor="start" x="8" y="-15.6" font-family="SourceSans" font-size="8.00">a60::demographia::demography</text>
<text text-anchor="middle" x="75.5" y="-6.6" font-family="SourceSans" font-size="8.00">::parse_line</text>
</a>
</g>
</g>
<!-- Node2 -->
<g id="node2" class="node">
<title>Node2</title>
<g id="a_node2"><a xlink:href="structa60_1_1demographia_1_1demography.html#aa17b0e6aac5774a78af1f758144cc7e4" target="_top" xlink:title=" ">
<polygon fill="white" stroke="#666666" points="342,-26 187,-26 187,0 342,0 342,-26"/>
<text text-anchor="start" x="195" y="-15.6" font-family="SourceSans" font-size="8.00">a60::demographia::demography</text>
<text text-anchor="middle" x="264.5" y="-6.6" font-family="SourceSans" font-size="8.00">::parse_text_with_potential_space</text>
</a>
</g>
</g>
<!-- Node1&#45;&gt;Node2 -->
<g id="edge1" class="edge">
<title>Node1&#45;&gt;Node2</title>
<path fill="none" stroke="#63b8ff" d="M151.21,-13C159.53,-13 168.06,-13 176.51,-13"/>
<polygon fill="#63b8ff" stroke="#63b8ff" points="176.76,-16.5 186.76,-13 176.76,-9.5 176.76,-16.5"/>
</g>
<!-- Node2&#45;&gt;Node2 -->
<g id="edge2" class="edge">
<title>Node2&#45;&gt;Node2</title>
<path fill="none" stroke="#63b8ff" d="M232.69,-26.06C223.05,-35.1 233.66,-44 264.5,-44 283.3,-44 294.57,-40.69 298.34,-36.07"/>
<polygon fill="#63b8ff" stroke="#63b8ff" points="301.73,-35.16 296.31,-26.06 294.87,-36.56 301.73,-35.16"/>
</g>
</g>
</svg>
