<?xml version="1.0" encoding="UTF-8" standalone="no"?>
<!DOCTYPE svg PUBLIC "-//W3C//DTD SVG 1.1//EN"
 "http://www.w3.org/Graphics/SVG/1.1/DTD/svg11.dtd">
<!-- Generated by graphviz version 5.0.0 (0)
 -->
<!-- Title: a60::collection::find_data_dates Pages: 1 -->
<!--zoomable 208 -->
<svg id="main" version="1.1" xmlns="http://www.w3.org/2000/svg" xmlns:xlink="http://www.w3.org/1999/xlink" xml:space="preserve" onload="init(evt)">
<style type="text/css"><![CDATA[
.edge:hover path { stroke: red; }
.edge:hover polygon { stroke: red; fill: red; }
]]></style>
<script type="text/javascript"><![CDATA[
var edges = document.getElementsByTagName('g');
if (edges && edges.length) {
  for (var i=0;i<edges.length;i++) {
    if (edges[i].id.substr(0,4)=='edge') {
      edges[i].setAttribute('class','edge');
    }
  }
}
]]></script>
        <defs>
                <circle id="rim" cx="0" cy="0" r="7"/>
                <circle id="rim2" cx="0" cy="0" r="3.5"/>
                <g id="zoomPlus">
                        <use xlink:href="#rim" fill="#404040">
                                <set attributeName="fill" to="#808080" begin="zoomplus.mouseover" end="zoomplus.mouseout"/>
                        </use>
                        <path d="M-4,0h8M0,-4v8" fill="none" stroke="white" stroke-width="1.5" pointer-events="none"/>
                </g>
                <g id="zoomMin">
                        <use xlink:href="#rim" fill="#404040">
                                <set attributeName="fill" to="#808080" begin="zoomminus.mouseover" end="zoomminus.mouseout"/>
                        </use>
                        <path d="M-4,0h8" fill="none" stroke="white" stroke-width="1.5" pointer-events="none"/>
                </g>
                <g id="dirArrow">
                        <path fill="none" stroke="white" stroke-width="1.5" d="M0,-3.0v7 M-2.5,-0.5L0,-3.0L2.5,-0.5"/>
                </g>
               <g id="resetDef">
                       <use xlink:href="#rim2" fill="#404040">
                               <set attributeName="fill" to="#808080" begin="reset.mouseover" end="reset.mouseout"/>
                       </use>
               </g>
        </defs>

<script type="text/javascript">
var viewWidth = 696;
var viewHeight = 208;
var sectionId = 'dynsection-3';
</script>
<script xlink:href="svgpan.js"/>
<svg id="graph" class="graph">
<g id="viewport">
<title>a60::collection::find_data_dates</title>
<!-- Node1 -->
<g id="node1" class="node">
<title>Node1</title>
<g id="a_node1"><a xlink:title=" ">
<polygon fill="#999999" stroke="#666666" points="100,-160 0,-160 0,-134 100,-134 100,-160"/>
<text text-anchor="start" x="8" y="-149.6" font-family="SourceSans" font-size="8.00">a60::collection::find</text>
<text text-anchor="middle" x="50" y="-140.6" font-family="SourceSans" font-size="8.00">_data_dates</text>
</a>
</g>
</g>
<!-- Node2 -->
<g id="node2" class="node">
<title>Node2</title>
<g id="a_node2"><a xlink:href="structa60_1_1collection.html#a61604643dbeea09b4fb20d6db5658b91" target="_top" xlink:title=" ">
<polygon fill="white" stroke="#666666" points="236,-160 136,-160 136,-134 236,-134 236,-160"/>
<text text-anchor="start" x="144" y="-149.6" font-family="SourceSans" font-size="8.00">a60::collection::find</text>
<text text-anchor="middle" x="186" y="-140.6" font-family="SourceSans" font-size="8.00">_data_dates_times</text>
</a>
</g>
</g>
<!-- Node1&#45;&gt;Node2 -->
<g id="edge1" class="edge">
<title>Node1&#45;&gt;Node2</title>
<path fill="none" stroke="#63b8ff" d="M100.14,-147C108.42,-147 117.1,-147 125.61,-147"/>
<polygon fill="#63b8ff" stroke="#63b8ff" points="125.87,-150.5 135.87,-147 125.87,-143.5 125.87,-150.5"/>
</g>
<!-- Node3 -->
<g id="node3" class="node">
<title>Node3</title>
<g id="a_node3"><a xlink:href="structa60_1_1collection.html#a772cab0c0123491c08a92fce4cf0eacb" target="_top" xlink:title=" ">
<polygon fill="white" stroke="#666666" points="548,-200 424,-200 424,-174 548,-174 548,-200"/>
<text text-anchor="start" x="432" y="-189.6" font-family="SourceSans" font-size="8.00">a60::collection::collection</text>
<text text-anchor="middle" x="486" y="-180.6" font-family="SourceSans" font-size="8.00">_archive_directory</text>
</a>
</g>
</g>
<!-- Node2&#45;&gt;Node3 -->
<g id="edge2" class="edge">
<title>Node2&#45;&gt;Node3</title>
<path fill="none" stroke="#63b8ff" d="M236.21,-153.61C284.61,-160.1 359.01,-170.09 413.85,-177.45"/>
<polygon fill="#63b8ff" stroke="#63b8ff" points="413.47,-180.93 423.85,-178.79 414.4,-173.99 413.47,-180.93"/>
</g>
<!-- Node6 -->
<g id="node6" class="node">
<title>Node6</title>
<g id="a_node6"><a xlink:href="structa60_1_1collection.html#abc4d01b1b17d4622939cb6c5c0f9b38b" target="_top" xlink:title=" ">
<polygon fill="white" stroke="#666666" points="388,-140 272,-140 272,-114 388,-114 388,-140"/>
<text text-anchor="start" x="280" y="-129.6" font-family="SourceSans" font-size="8.00">a60::collection::prune</text>
<text text-anchor="middle" x="330" y="-120.6" font-family="SourceSans" font-size="8.00">_archive_sub_directories</text>
</a>
</g>
</g>
<!-- Node2&#45;&gt;Node6 -->
<g id="edge5" class="edge">
<title>Node2&#45;&gt;Node6</title>
<path fill="none" stroke="#63b8ff" d="M236.27,-140.06C244.44,-138.91 253.04,-137.7 261.57,-136.5"/>
<polygon fill="#63b8ff" stroke="#63b8ff" points="262.12,-139.96 271.53,-135.09 261.14,-133.02 262.12,-139.96"/>
</g>
<!-- Node4 -->
<g id="node4" class="node">
<title>Node4</title>
<g id="a_node4"><a xlink:href="namespacea60_1_1io.html#a16f17ea9e02c1975ca17b77e46cf7629" target="_top" xlink:title="Make sure a path ends in &#39;/&#39;;.">
<polygon fill="white" stroke="#666666" points="681,-135.5 591,-135.5 591,-118.5 681,-118.5 681,-135.5"/>
<text text-anchor="middle" x="636" y="-125.1" font-family="SourceSans" font-size="8.00">a60::io::end_path</text>
</a>
</g>
</g>
<!-- Node3&#45;&gt;Node4 -->
<g id="edge3" class="edge">
<title>Node3&#45;&gt;Node4</title>
<path fill="none" stroke="#63b8ff" d="M519.11,-173.98C544.48,-163.7 579.64,-149.44 604.56,-139.34"/>
<polygon fill="#63b8ff" stroke="#63b8ff" points="605.95,-142.55 613.9,-135.55 603.32,-136.07 605.95,-142.55"/>
</g>
<!-- Node5 -->
<g id="node5" class="node">
<title>Node5</title>
<g id="a_node5"><a xlink:href="namespacea60_1_1io.html#ac95e5271a27a23bc2336d84b3f821fa2" target="_top" xlink:title="Constant filesystem and run&#45;time resources.">
<polygon fill="white" stroke="#666666" points="688,-190 584,-190 584,-164 688,-164 688,-190"/>
<text text-anchor="start" x="592" y="-179.6" font-family="SourceSans" font-size="8.00">a60::io::get_run_time</text>
<text text-anchor="middle" x="636" y="-170.6" font-family="SourceSans" font-size="8.00">_resources</text>
</a>
</g>
</g>
<!-- Node3&#45;&gt;Node5 -->
<g id="edge4" class="edge">
<title>Node3&#45;&gt;Node5</title>
<path fill="none" stroke="#63b8ff" d="M548.05,-182.87C556.54,-182.3 565.27,-181.71 573.76,-181.14"/>
<polygon fill="#63b8ff" stroke="#63b8ff" points="574.24,-184.61 583.98,-180.45 573.77,-177.63 574.24,-184.61"/>
</g>
<!-- Node6&#45;&gt;Node3 -->
<g id="edge6" class="edge">
<title>Node6&#45;&gt;Node3</title>
<path fill="none" stroke="#63b8ff" d="M364.42,-140.02C387.14,-148.87 417.42,-160.67 441.95,-170.23"/>
<polygon fill="#63b8ff" stroke="#63b8ff" points="440.8,-173.53 451.38,-173.9 443.34,-167.01 440.8,-173.53"/>
</g>
<!-- Node6&#45;&gt;Node4 -->
<g id="edge7" class="edge">
<title>Node6&#45;&gt;Node4</title>
<path fill="none" stroke="#63b8ff" d="M388.18,-127C443.44,-127 526.54,-127 580.78,-127"/>
<polygon fill="#63b8ff" stroke="#63b8ff" points="580.89,-130.5 590.89,-127 580.89,-123.5 580.89,-130.5"/>
</g>
<!-- Node6&#45;&gt;Node5 -->
<g id="edge8" class="edge">
<title>Node6&#45;&gt;Node5</title>
<path fill="none" stroke="#63b8ff" d="M388.18,-136.4C441.02,-145.09 519.31,-157.97 573.48,-166.88"/>
<polygon fill="#63b8ff" stroke="#63b8ff" points="573.21,-170.38 583.64,-168.55 574.34,-163.48 573.21,-170.38"/>
</g>
<!-- Node7 -->
<g id="node7" class="node">
<title>Node7</title>
<g id="a_node7"><a xlink:href="namespacea60_1_1constants.html#ac27c77e4606552ae5f74a1c21dd9258e" target="_top" xlink:title=" ">
<polygon fill="white" stroke="#666666" points="544.5,-79.5 427.5,-79.5 427.5,-62.5 544.5,-62.5 544.5,-79.5"/>
<text text-anchor="middle" x="486" y="-69.1" font-family="SourceSans" font-size="8.00">a60::constants::newline</text>
</a>
</g>
</g>
<!-- Node6&#45;&gt;Node7 -->
<g id="edge9" class="edge">
<title>Node6&#45;&gt;Node7</title>
<path fill="none" stroke="#63b8ff" d="M367.11,-113.87C392.85,-104.51 427.18,-92.02 452.16,-82.94"/>
<polygon fill="#63b8ff" stroke="#63b8ff" points="453.36,-86.23 461.56,-79.52 450.97,-79.65 453.36,-86.23"/>
</g>
<!-- Node8 -->
<g id="node8" class="node">
<title>Node8</title>
<g id="a_node8"><a xlink:href="namespacea60_1_1io.html#afbc9bd4e46187119419128390e16a033" target="_top" xlink:title="Takes a string representing a directory, returns a list of contents as a std::vector&lt;string&gt;.">
<polygon fill="white" stroke="#666666" points="539.5,-26 432.5,-26 432.5,0 539.5,0 539.5,-26"/>
<text text-anchor="start" x="440.5" y="-15.6" font-family="SourceSans" font-size="8.00">a60::io::populate_sub</text>
<text text-anchor="middle" x="486" y="-6.6" font-family="SourceSans" font-size="8.00">_directories</text>
</a>
</g>
</g>
<!-- Node6&#45;&gt;Node8 -->
<g id="edge10" class="edge">
<title>Node6&#45;&gt;Node8</title>
<path fill="none" stroke="#63b8ff" d="M346.85,-113.97C365.15,-99.08 396.27,-74.16 424,-54 434.3,-46.51 445.83,-38.63 456.08,-31.81"/>
<polygon fill="#63b8ff" stroke="#63b8ff" points="458.28,-34.55 464.69,-26.11 454.42,-28.71 458.28,-34.55"/>
</g>
<!-- Node8&#45;&gt;Node8 -->
<g id="edge11" class="edge">
<title>Node8&#45;&gt;Node8</title>
<path fill="none" stroke="#63b8ff" d="M460.62,-26.06C452.93,-35.1 461.39,-44 486,-44 501,-44 510,-40.69 513,-36.07"/>
<polygon fill="#63b8ff" stroke="#63b8ff" points="516.43,-35.37 511.38,-26.06 509.52,-36.49 516.43,-35.37"/>
</g>
</g>
</svg>
        <g id="navigator" transform="translate(0 0)" fill="#404254">
                <rect fill="#f2f5e9" fill-opacity="0.5" stroke="#606060" stroke-width=".5" x="0" y="0" width="60" height="60"/>
                <use id="zoomplus" xlink:href="#zoomPlus" x="17" y="9" onmousedown="handleZoom(evt,'in')"/>
                <use id="zoomminus" xlink:href="#zoomMin" x="42" y="9" onmousedown="handleZoom(evt,'out')"/>
                <use id="reset" xlink:href="#resetDef" x="30" y="36" onmousedown="handleReset()"/>
                <g id="arrowUp" xlink:href="#dirArrow" transform="translate(30 24)" onmousedown="handlePan(0,-1)">
                  <use xlink:href="#rim" fill="#404040">
                        <set attributeName="fill" to="#808080" begin="arrowUp.mouseover" end="arrowUp.mouseout"/>
                  </use>
                  <path fill="none" stroke="white" stroke-width="1.5" d="M0,-3.0v7 M-2.5,-0.5L0,-3.0L2.5,-0.5"/>
                </g>
                <g id="arrowRight" xlink:href="#dirArrow" transform="rotate(90) translate(36 -43)" onmousedown="handlePan(1,0)">
                  <use xlink:href="#rim" fill="#404040">
                        <set attributeName="fill" to="#808080" begin="arrowRight.mouseover" end="arrowRight.mouseout"/>
                  </use>
                  <path fill="none" stroke="white" stroke-width="1.5" d="M0,-3.0v7 M-2.5,-0.5L0,-3.0L2.5,-0.5"/>
                </g>
                <g id="arrowDown" xlink:href="#dirArrow" transform="rotate(180) translate(-30 -48)" onmousedown="handlePan(0,1)">
                  <use xlink:href="#rim" fill="#404040">
                        <set attributeName="fill" to="#808080" begin="arrowDown.mouseover" end="arrowDown.mouseout"/>
                  </use>
                  <path fill="none" stroke="white" stroke-width="1.5" d="M0,-3.0v7 M-2.5,-0.5L0,-3.0L2.5,-0.5"/>
                </g>
                <g id="arrowLeft" xlink:href="#dirArrow" transform="rotate(270) translate(-36 17)" onmousedown="handlePan(-1,0)">
                  <use xlink:href="#rim" fill="#404040">
                        <set attributeName="fill" to="#808080" begin="arrowLeft.mouseover" end="arrowLeft.mouseout"/>
                  </use>
                  <path fill="none" stroke="white" stroke-width="1.5" d="M0,-3.0v7 M-2.5,-0.5L0,-3.0L2.5,-0.5"/>
                </g>
        </g>
        <svg viewBox="0 0 15 15" width="100%" height="30px" preserveAspectRatio="xMaxYMin meet">
         <g id="arrow_out" transform="scale(0.3 0.3)">
          <a xlink:href="structa60_1_1collection_af04bc78a8049450c52a9460f5ae6b4cc_cgraph_org.svg" target="_base">
           <rect id="button" ry="5" rx="5" y="6" x="6" height="38" width="38"
                fill="#f2f5e9" fill-opacity="0.5" stroke="#606060" stroke-width="1.0"/>
           <path id="arrow"
             d="M 11.500037,31.436501 C 11.940474,20.09759 22.043105,11.32322 32.158766,21.979434 L 37.068811,17.246167 C 37.068811,17.246167 37.088388,32 37.088388,32 L 22.160133,31.978069 C 22.160133,31.978069 26.997745,27.140456 26.997745,27.140456 C 18.528582,18.264221 13.291696,25.230495 11.500037,31.436501 z"
             style="fill:#404040;"/>
          </a>
         </g>
        </svg>
</svg>
