<?xml version="1.0" encoding="UTF-8" standalone="no"?>
<!DOCTYPE svg PUBLIC "-//W3C//DTD SVG 1.1//EN"
 "http://www.w3.org/Graphics/SVG/1.1/DTD/svg11.dtd">
<!-- Generated by graphviz version 5.0.0 (0)
 -->
<!-- Title: a60::swarm::add_meta_peers Pages: 1 -->
<!--zoomable 311 -->
<svg id="main" version="1.1" xmlns="http://www.w3.org/2000/svg" xmlns:xlink="http://www.w3.org/1999/xlink" xml:space="preserve" onload="init(evt)">
<style type="text/css"><![CDATA[
.edge:hover path { stroke: red; }
.edge:hover polygon { stroke: red; fill: red; }
]]></style>
<script type="text/javascript"><![CDATA[
var edges = document.getElementsByTagName('g');
if (edges && edges.length) {
  for (var i=0;i<edges.length;i++) {
    if (edges[i].id.substr(0,4)=='edge') {
      edges[i].setAttribute('class','edge');
    }
  }
}
]]></script>
        <defs>
                <circle id="rim" cx="0" cy="0" r="7"/>
                <circle id="rim2" cx="0" cy="0" r="3.5"/>
                <g id="zoomPlus">
                        <use xlink:href="#rim" fill="#404040">
                                <set attributeName="fill" to="#808080" begin="zoomplus.mouseover" end="zoomplus.mouseout"/>
                        </use>
                        <path d="M-4,0h8M0,-4v8" fill="none" stroke="white" stroke-width="1.5" pointer-events="none"/>
                </g>
                <g id="zoomMin">
                        <use xlink:href="#rim" fill="#404040">
                                <set attributeName="fill" to="#808080" begin="zoomminus.mouseover" end="zoomminus.mouseout"/>
                        </use>
                        <path d="M-4,0h8" fill="none" stroke="white" stroke-width="1.5" pointer-events="none"/>
                </g>
                <g id="dirArrow">
                        <path fill="none" stroke="white" stroke-width="1.5" d="M0,-3.0v7 M-2.5,-0.5L0,-3.0L2.5,-0.5"/>
                </g>
               <g id="resetDef">
                       <use xlink:href="#rim2" fill="#404040">
                               <set attributeName="fill" to="#808080" begin="reset.mouseover" end="reset.mouseout"/>
                       </use>
               </g>
        </defs>

<script type="text/javascript">
var viewWidth = 744;
var viewHeight = 311;
var sectionId = 'dynsection-1';
</script>
<script xlink:href="svgpan.js"/>
<svg id="graph" class="graph">
<g id="viewport">
<title>a60::swarm::add_meta_peers</title>
<!-- Node1 -->
<g id="node1" class="node">
<title>Node1</title>
<g id="a_node1"><a xlink:title=" ">
<polygon fill="#999999" stroke="#666666" points="112,-147 0,-147 0,-121 112,-121 112,-147"/>
<text text-anchor="start" x="8" y="-136.6" font-family="SourceSans" font-size="8.00">a60::swarm::add_meta</text>
<text text-anchor="middle" x="56" y="-127.6" font-family="SourceSans" font-size="8.00">_peers</text>
</a>
</g>
</g>
<!-- Node2 -->
<g id="node2" class="node">
<title>Node2</title>
<g id="a_node2"><a xlink:href="namespacea60.html#af45982273a7a2e61b6aaa436081238c0" target="_top" xlink:title="Load JSON file to in&#45;memory DOM.">
<polygon fill="white" stroke="#666666" points="258,-279 154,-279 154,-253 258,-253 258,-279"/>
<text text-anchor="start" x="162" y="-268.6" font-family="SourceSans" font-size="8.00">a60::deserialize_json</text>
<text text-anchor="middle" x="206" y="-259.6" font-family="SourceSans" font-size="8.00">_to_dom_object</text>
</a>
</g>
</g>
<!-- Node1&#45;&gt;Node2 -->
<g id="edge1" class="edge">
<title>Node1&#45;&gt;Node2</title>
<path fill="none" stroke="#63b8ff" d="M70.26,-147.16C87.71,-164.33 119.52,-195.11 148,-220 158.17,-228.89 169.72,-238.32 179.75,-246.32"/>
<polygon fill="#63b8ff" stroke="#63b8ff" points="177.74,-249.19 187.75,-252.65 182.08,-243.7 177.74,-249.19"/>
</g>
<!-- Node4 -->
<g id="node4" class="node">
<title>Node4</title>
<g id="a_node4"><a xlink:href="structa60_1_1swarm.html#adc3c80bd5b6112449b23500733916c10" target="_top" xlink:title="Anomaly detection and reporting. Argument peers is either vmetapeers or ummetapeers.">
<polygon fill="white" stroke="#666666" points="261,-211 151,-211 151,-185 261,-185 261,-211"/>
<text text-anchor="start" x="159" y="-200.6" font-family="SourceSans" font-size="8.00">a60::swarm::detail</text>
<text text-anchor="middle" x="206" y="-191.6" font-family="SourceSans" font-size="8.00">_meta_peer_anomalies</text>
</a>
</g>
</g>
<!-- Node1&#45;&gt;Node4 -->
<g id="edge3" class="edge">
<title>Node1&#45;&gt;Node4</title>
<path fill="none" stroke="#63b8ff" d="M87.31,-147.11C109.85,-156.86 140.83,-170.25 165.35,-180.85"/>
<polygon fill="#63b8ff" stroke="#63b8ff" points="164.17,-184.16 174.73,-184.91 166.94,-177.73 164.17,-184.16"/>
</g>
<!-- Node10 -->
<g id="node10" class="node">
<title>Node10</title>
<g id="a_node10"><a xlink:href="namespacea60_1_1constants.html#a6338b74a1c5c6dc024b03069e07e34ac" target="_top" xlink:title=" ">
<polygon fill="white" stroke="#666666" points="264,-162.5 148,-162.5 148,-145.5 264,-145.5 264,-162.5"/>
<text text-anchor="middle" x="206" y="-152.1" font-family="SourceSans" font-size="8.00">a60::constants::hyphen</text>
</a>
</g>
</g>
<!-- Node1&#45;&gt;Node10 -->
<g id="edge10" class="edge">
<title>Node1&#45;&gt;Node10</title>
<path fill="none" stroke="#63b8ff" d="M112.11,-141.45C120.5,-142.58 129.23,-143.76 137.84,-144.92"/>
<polygon fill="#63b8ff" stroke="#63b8ff" points="137.49,-148.41 147.87,-146.28 138.42,-141.47 137.49,-148.41"/>
</g>
<!-- Node11 -->
<g id="node11" class="node">
<title>Node11</title>
<g id="a_node11"><a xlink:href="structa60_1_1collection.html#a3780f3266ff2355e74b737a201c89116" target="_top" xlink:title=" ">
<polygon fill="white" stroke="#666666" points="263.5,-127 148.5,-127 148.5,-101 263.5,-101 263.5,-127"/>
<text text-anchor="start" x="156.5" y="-116.6" font-family="SourceSans" font-size="8.00">a60::collection::mangle</text>
<text text-anchor="middle" x="206" y="-107.6" font-family="SourceSans" font-size="8.00">_tid_match_id</text>
</a>
</g>
</g>
<!-- Node1&#45;&gt;Node11 -->
<g id="edge11" class="edge">
<title>Node1&#45;&gt;Node11</title>
<path fill="none" stroke="#63b8ff" d="M112.11,-126.55C120.62,-125.4 129.48,-124.21 138.21,-123.03"/>
<polygon fill="#63b8ff" stroke="#63b8ff" points="138.92,-126.46 148.36,-121.65 137.98,-119.52 138.92,-126.46"/>
</g>
<!-- Node14 -->
<g id="node14" class="node">
<title>Node14</title>
<g id="a_node14"><a xlink:href="structa60_1_1collection.html#a80993af9aec8238db8e44da1e9a3c994" target="_top" xlink:title=" ">
<polygon fill="white" stroke="#666666" points="415,-83 312,-83 312,-57 415,-57 415,-83"/>
<text text-anchor="start" x="320" y="-72.6" font-family="SourceSans" font-size="8.00">a60::collection::slice</text>
<text text-anchor="middle" x="363.5" y="-63.6" font-family="SourceSans" font-size="8.00">_name_mangled</text>
</a>
</g>
</g>
<!-- Node1&#45;&gt;Node14 -->
<g id="edge20" class="edge">
<title>Node1&#45;&gt;Node14</title>
<path fill="none" stroke="#63b8ff" d="M79.76,-120.92C97.7,-111.25 123.67,-98.66 148,-92 198.64,-78.13 258.18,-72.86 301.66,-70.92"/>
<polygon fill="#63b8ff" stroke="#63b8ff" points="301.94,-74.41 311.8,-70.52 301.67,-67.42 301.94,-74.41"/>
</g>
<!-- Node19 -->
<g id="node19" class="node">
<title>Node19</title>
<g id="a_node19"><a xlink:href="namespacea60.html#a6ce8704ec3c4d5e258d062283dd40efb" target="_top" xlink:title="Search DOM for meta_peer(s).">
<polygon fill="white" stroke="#666666" points="257.5,-45 154.5,-45 154.5,-19 257.5,-19 257.5,-45"/>
<text text-anchor="start" x="162.5" y="-34.6" font-family="SourceSans" font-size="8.00">a60::search_dom_for</text>
<text text-anchor="middle" x="206" y="-25.6" font-family="SourceSans" font-size="8.00">_meta_peers</text>
</a>
</g>
</g>
<!-- Node1&#45;&gt;Node19 -->
<g id="edge19" class="edge">
<title>Node1&#45;&gt;Node19</title>
<path fill="none" stroke="#63b8ff" d="M70.66,-120.89C87.77,-104.93 118.45,-77.77 148,-59 153.28,-55.65 159.04,-52.45 164.8,-49.5"/>
<polygon fill="#63b8ff" stroke="#63b8ff" points="166.35,-52.64 173.79,-45.09 163.27,-46.35 166.35,-52.64"/>
</g>
<!-- Node3 -->
<g id="node3" class="node">
<title>Node3</title>
<g id="a_node3"><a xlink:href="namespacea60.html#a538d43bb9bfa488a54cea929736dbe2d" target="_top" xlink:title="Deserialize input file.">
<polygon fill="white" stroke="#666666" points="415.5,-303 311.5,-303 311.5,-277 415.5,-277 415.5,-303"/>
<text text-anchor="start" x="319.5" y="-292.6" font-family="SourceSans" font-size="8.00">a60::deserialize_json</text>
<text text-anchor="middle" x="363.5" y="-283.6" font-family="SourceSans" font-size="8.00">_to_dom</text>
</a>
</g>
</g>
<!-- Node2&#45;&gt;Node3 -->
<g id="edge2" class="edge">
<title>Node2&#45;&gt;Node3</title>
<path fill="none" stroke="#63b8ff" d="M258.35,-273.93C272.09,-276.05 287.07,-278.36 301.29,-280.55"/>
<polygon fill="#63b8ff" stroke="#63b8ff" points="301.05,-284.06 311.47,-282.12 302.12,-277.14 301.05,-284.06"/>
</g>
<!-- Node5 -->
<g id="node5" class="node">
<title>Node5</title>
<g id="a_node5"><a xlink:href="namespacea60_1_1io.html#a89f2bd581ec510ccc0a8cfedccff7bd0" target="_top" xlink:title="Top level of directory for output files.">
<polygon fill="white" stroke="#666666" points="411.5,-259 315.5,-259 315.5,-233 411.5,-233 411.5,-259"/>
<text text-anchor="start" x="323.5" y="-248.6" font-family="SourceSans" font-size="8.00">a60::io::get_output</text>
<text text-anchor="middle" x="363.5" y="-239.6" font-family="SourceSans" font-size="8.00">_directory</text>
</a>
</g>
</g>
<!-- Node4&#45;&gt;Node5 -->
<g id="edge4" class="edge">
<title>Node4&#45;&gt;Node5</title>
<path fill="none" stroke="#63b8ff" d="M249.49,-211.12C268.34,-216.93 290.69,-223.83 310.52,-229.96"/>
<polygon fill="#63b8ff" stroke="#63b8ff" points="309.74,-233.38 320.33,-232.98 311.81,-226.69 309.74,-233.38"/>
</g>
<!-- Node8 -->
<g id="node8" class="node">
<title>Node8</title>
<g id="a_node8"><a xlink:href="namespacea60.html#a63bf2b0abf68edc3f3e74a0811fe771b" target="_top" xlink:title="Error checking support. Null Island Check (aka latitude and longitude set to zero).">
<polygon fill="white" stroke="#666666" points="417,-215 310,-215 310,-189 417,-189 417,-215"/>
<text text-anchor="start" x="318" y="-204.6" font-family="SourceSans" font-size="8.00">a60::is_meta_peer_on</text>
<text text-anchor="middle" x="363.5" y="-195.6" font-family="SourceSans" font-size="8.00">_null_island</text>
</a>
</g>
</g>
<!-- Node4&#45;&gt;Node8 -->
<g id="edge8" class="edge">
<title>Node4&#45;&gt;Node8</title>
<path fill="none" stroke="#63b8ff" d="M261.39,-199.4C273.83,-199.72 287.14,-200.06 299.9,-200.39"/>
<polygon fill="#63b8ff" stroke="#63b8ff" points="299.89,-203.89 309.98,-200.65 300.07,-196.89 299.89,-203.89"/>
</g>
<!-- Node9 -->
<g id="node9" class="node">
<title>Node9</title>
<g id="a_node9"><a xlink:href="namespacea60.html#a0ff511c579a9f94ffff788b1cd4ae864" target="_top" xlink:title="Null Country Check.">
<polygon fill="white" stroke="#666666" points="427,-171 300,-171 300,-145 427,-145 427,-171"/>
<text text-anchor="start" x="308" y="-160.6" font-family="SourceSans" font-size="8.00">a60::is_meta_peer_without</text>
<text text-anchor="middle" x="363.5" y="-151.6" font-family="SourceSans" font-size="8.00">_country</text>
</a>
</g>
</g>
<!-- Node4&#45;&gt;Node9 -->
<g id="edge9" class="edge">
<title>Node4&#45;&gt;Node9</title>
<path fill="none" stroke="#63b8ff" d="M257.92,-184.9C271.95,-181.29 287.31,-177.34 301.84,-173.6"/>
<polygon fill="#63b8ff" stroke="#63b8ff" points="302.92,-176.94 311.73,-171.06 301.18,-170.16 302.92,-176.94"/>
</g>
<!-- Node6 -->
<g id="node6" class="node">
<title>Node6</title>
<g id="a_node6"><a xlink:href="namespacea60_1_1io.html#a16f17ea9e02c1975ca17b77e46cf7629" target="_top" xlink:title="Make sure a path ends in &#39;/&#39;;.">
<polygon fill="white" stroke="#666666" points="727.5,-253.5 637.5,-253.5 637.5,-236.5 727.5,-236.5 727.5,-253.5"/>
<text text-anchor="middle" x="682.5" y="-243.1" font-family="SourceSans" font-size="8.00">a60::io::end_path</text>
</a>
</g>
</g>
<!-- Node5&#45;&gt;Node6 -->
<g id="edge5" class="edge">
<title>Node5&#45;&gt;Node6</title>
<path fill="none" stroke="#63b8ff" d="M411.77,-246.64C457.97,-247.16 530.32,-247.71 593,-247 604.06,-246.88 615.9,-246.66 627.2,-246.42"/>
<polygon fill="#63b8ff" stroke="#63b8ff" points="627.47,-249.92 637.39,-246.19 627.31,-242.92 627.47,-249.92"/>
</g>
<!-- Node7 -->
<g id="node7" class="node">
<title>Node7</title>
<g id="a_node7"><a xlink:href="namespacea60_1_1io.html#a6ad052ef18cfb1a1ac708f7c69c9050d" target="_top" xlink:title="Assumes argument is full path, no error checking...">
<polygon fill="white" stroke="#666666" points="576,-238 480,-238 480,-212 576,-212 576,-238"/>
<text text-anchor="start" x="488" y="-227.6" font-family="SourceSans" font-size="8.00">a60::io::get_output</text>
<text text-anchor="middle" x="528" y="-218.6" font-family="SourceSans" font-size="8.00">_prefix</text>
</a>
</g>
</g>
<!-- Node5&#45;&gt;Node7 -->
<g id="edge6" class="edge">
<title>Node5&#45;&gt;Node7</title>
<path fill="none" stroke="#63b8ff" d="M411.5,-239.93C429.7,-237.57 450.7,-234.86 469.76,-232.4"/>
<polygon fill="#63b8ff" stroke="#63b8ff" points="470.35,-235.85 479.82,-231.1 469.46,-228.91 470.35,-235.85"/>
</g>
<!-- Node7&#45;&gt;Node6 -->
<g id="edge7" class="edge">
<title>Node7&#45;&gt;Node6</title>
<path fill="none" stroke="#63b8ff" d="M576.42,-231.22C592.56,-233.34 610.73,-235.72 627.37,-237.9"/>
<polygon fill="#63b8ff" stroke="#63b8ff" points="627.12,-241.4 637.49,-239.23 628.03,-234.46 627.12,-241.4"/>
</g>
<!-- Node12 -->
<g id="node12" class="node">
<title>Node12</title>
<g id="a_node12"><a xlink:href="structa60_1_1collection.html#ab234addb5725bb5900b44f55ec1aae10" target="_top" xlink:title=" ">
<polygon fill="white" stroke="#666666" points="421,-127 306,-127 306,-101 421,-101 421,-127"/>
<text text-anchor="start" x="314" y="-116.6" font-family="SourceSans" font-size="8.00">a60::collection::mangle</text>
<text text-anchor="middle" x="363.5" y="-107.6" font-family="SourceSans" font-size="8.00">_with_id</text>
</a>
</g>
</g>
<!-- Node11&#45;&gt;Node12 -->
<g id="edge12" class="edge">
<title>Node11&#45;&gt;Node12</title>
<path fill="none" stroke="#63b8ff" d="M263.58,-114C274.04,-114 285.06,-114 295.79,-114"/>
<polygon fill="#63b8ff" stroke="#63b8ff" points="295.96,-117.5 305.96,-114 295.96,-110.5 295.96,-117.5"/>
</g>
<!-- Node11&#45;&gt;Node14 -->
<g id="edge14" class="edge">
<title>Node11&#45;&gt;Node14</title>
<path fill="none" stroke="#63b8ff" d="M253.23,-100.92C269.92,-96.2 288.94,-90.81 306.39,-85.88"/>
<polygon fill="#63b8ff" stroke="#63b8ff" points="307.77,-89.12 316.44,-83.03 305.87,-82.39 307.77,-89.12"/>
</g>
<!-- Node13 -->
<g id="node13" class="node">
<title>Node13</title>
<g id="a_node13"><a xlink:href="structa60_1_1collection.html#a899f781ad983b2ec1f0da35a5d3f8b54" target="_top" xlink:title=" ">
<polygon fill="white" stroke="#666666" points="585.5,-149.5 470.5,-149.5 470.5,-114.5 585.5,-114.5 585.5,-149.5"/>
<text text-anchor="start" x="478.5" y="-139.1" font-family="SourceSans" font-size="8.00">a60::collection::mangle</text>
<text text-anchor="start" x="478.5" y="-130.1" font-family="SourceSans" font-size="8.00">_duration_significant</text>
<text text-anchor="middle" x="528" y="-121.1" font-family="SourceSans" font-size="8.00">_digits</text>
</a>
</g>
</g>
<!-- Node12&#45;&gt;Node13 -->
<g id="edge13" class="edge">
<title>Node12&#45;&gt;Node13</title>
<path fill="none" stroke="#63b8ff" d="M421.33,-120.3C433.9,-121.69 447.33,-123.17 460.25,-124.61"/>
<polygon fill="#63b8ff" stroke="#63b8ff" points="460.15,-128.12 470.47,-125.74 460.92,-121.16 460.15,-128.12"/>
</g>
<!-- Node15 -->
<g id="node15" class="node">
<title>Node15</title>
<g id="a_node15"><a xlink:href="structa60_1_1collection.html#a25b35cf4ac39da89d868fe2cf41b5acd" target="_top" xlink:title=" ">
<polygon fill="white" stroke="#666666" points="593,-96.5 463,-96.5 463,-79.5 593,-79.5 593,-96.5"/>
<text text-anchor="middle" x="528" y="-86.1" font-family="SourceSans" font-size="8.00">a60::collection::slice_name</text>
</a>
</g>
</g>
<!-- Node14&#45;&gt;Node15 -->
<g id="edge15" class="edge">
<title>Node14&#45;&gt;Node15</title>
<path fill="none" stroke="#63b8ff" d="M415.03,-75.6C426.93,-76.92 439.88,-78.35 452.59,-79.76"/>
<polygon fill="#63b8ff" stroke="#63b8ff" points="452.4,-83.26 462.72,-80.88 453.17,-76.3 452.4,-83.26"/>
</g>
<!-- Node16 -->
<g id="node16" class="node">
<title>Node16</title>
<g id="a_node16"><a xlink:href="namespacea60.html#ac7eddb2e330d8983ddc852edde5335c5" target="_top" xlink:title=" ">
<polygon fill="white" stroke="#666666" points="587.5,-61.5 468.5,-61.5 468.5,-44.5 587.5,-44.5 587.5,-61.5"/>
<text text-anchor="middle" x="528" y="-51.1" font-family="SourceSans" font-size="8.00">a60::to_lowercase_string</text>
</a>
</g>
</g>
<!-- Node14&#45;&gt;Node16 -->
<g id="edge16" class="edge">
<title>Node14&#45;&gt;Node16</title>
<path fill="none" stroke="#63b8ff" d="M415.03,-64.71C428.6,-63.29 443.51,-61.73 457.9,-60.23"/>
<polygon fill="#63b8ff" stroke="#63b8ff" points="458.68,-63.67 468.26,-59.15 457.95,-56.71 458.68,-63.67"/>
</g>
<!-- Node17 -->
<g id="node17" class="node">
<title>Node17</title>
<g id="a_node17"><a xlink:href="namespacea60.html#a11d9ffc210e8dca8410e7a5ad62deabc" target="_top" xlink:title=" ">
<polygon fill="white" stroke="#666666" points="584.5,-26 471.5,-26 471.5,0 584.5,0 584.5,-26"/>
<text text-anchor="start" x="479.5" y="-15.6" font-family="SourceSans" font-size="8.00">a60::to_replace_spaces</text>
<text text-anchor="middle" x="528" y="-6.6" font-family="SourceSans" font-size="8.00">_string</text>
</a>
</g>
</g>
<!-- Node14&#45;&gt;Node17 -->
<g id="edge17" class="edge">
<title>Node14&#45;&gt;Node17</title>
<path fill="none" stroke="#63b8ff" d="M400.95,-56.95C419.51,-50.33 442.44,-42.19 463,-35 468.2,-33.18 473.64,-31.29 479.06,-29.42"/>
<polygon fill="#63b8ff" stroke="#63b8ff" points="480.42,-32.65 488.74,-26.08 478.14,-26.03 480.42,-32.65"/>
</g>
<!-- Node18 -->
<g id="node18" class="node">
<title>Node18</title>
<g id="a_node18"><a xlink:href="namespacea60.html#a751f954fe64233f1dc6517220e4b5692" target="_top" xlink:title=" ">
<polygon fill="white" stroke="#666666" points="736,-21.5 629,-21.5 629,-4.5 736,-4.5 736,-21.5"/>
<text text-anchor="middle" x="682.5" y="-11.1" font-family="SourceSans" font-size="8.00">a60::to_replace_string</text>
</a>
</g>
</g>
<!-- Node17&#45;&gt;Node18 -->
<g id="edge18" class="edge">
<title>Node17&#45;&gt;Node18</title>
<path fill="none" stroke="#63b8ff" d="M584.92,-13C595.92,-13 607.53,-13 618.73,-13"/>
<polygon fill="#63b8ff" stroke="#63b8ff" points="618.88,-16.5 628.88,-13 618.88,-9.5 618.88,-16.5"/>
</g>
</g>
</svg>
        <g id="navigator" transform="translate(0 0)" fill="#404254">
                <rect fill="#f2f5e9" fill-opacity="0.5" stroke="#606060" stroke-width=".5" x="0" y="0" width="60" height="60"/>
                <use id="zoomplus" xlink:href="#zoomPlus" x="17" y="9" onmousedown="handleZoom(evt,'in')"/>
                <use id="zoomminus" xlink:href="#zoomMin" x="42" y="9" onmousedown="handleZoom(evt,'out')"/>
                <use id="reset" xlink:href="#resetDef" x="30" y="36" onmousedown="handleReset()"/>
                <g id="arrowUp" xlink:href="#dirArrow" transform="translate(30 24)" onmousedown="handlePan(0,-1)">
                  <use xlink:href="#rim" fill="#404040">
                        <set attributeName="fill" to="#808080" begin="arrowUp.mouseover" end="arrowUp.mouseout"/>
                  </use>
                  <path fill="none" stroke="white" stroke-width="1.5" d="M0,-3.0v7 M-2.5,-0.5L0,-3.0L2.5,-0.5"/>
                </g>
                <g id="arrowRight" xlink:href="#dirArrow" transform="rotate(90) translate(36 -43)" onmousedown="handlePan(1,0)">
                  <use xlink:href="#rim" fill="#404040">
                        <set attributeName="fill" to="#808080" begin="arrowRight.mouseover" end="arrowRight.mouseout"/>
                  </use>
                  <path fill="none" stroke="white" stroke-width="1.5" d="M0,-3.0v7 M-2.5,-0.5L0,-3.0L2.5,-0.5"/>
                </g>
                <g id="arrowDown" xlink:href="#dirArrow" transform="rotate(180) translate(-30 -48)" onmousedown="handlePan(0,1)">
                  <use xlink:href="#rim" fill="#404040">
                        <set attributeName="fill" to="#808080" begin="arrowDown.mouseover" end="arrowDown.mouseout"/>
                  </use>
                  <path fill="none" stroke="white" stroke-width="1.5" d="M0,-3.0v7 M-2.5,-0.5L0,-3.0L2.5,-0.5"/>
                </g>
                <g id="arrowLeft" xlink:href="#dirArrow" transform="rotate(270) translate(-36 17)" onmousedown="handlePan(-1,0)">
                  <use xlink:href="#rim" fill="#404040">
                        <set attributeName="fill" to="#808080" begin="arrowLeft.mouseover" end="arrowLeft.mouseout"/>
                  </use>
                  <path fill="none" stroke="white" stroke-width="1.5" d="M0,-3.0v7 M-2.5,-0.5L0,-3.0L2.5,-0.5"/>
                </g>
        </g>
        <svg viewBox="0 0 15 15" width="100%" height="30px" preserveAspectRatio="xMaxYMin meet">
         <g id="arrow_out" transform="scale(0.3 0.3)">
          <a xlink:href="structa60_1_1swarm_a162d876f71a0afc7e017a339d4f3f400_cgraph_org.svg" target="_base">
           <rect id="button" ry="5" rx="5" y="6" x="6" height="38" width="38"
                fill="#f2f5e9" fill-opacity="0.5" stroke="#606060" stroke-width="1.0"/>
           <path id="arrow"
             d="M 11.500037,31.436501 C 11.940474,20.09759 22.043105,11.32322 32.158766,21.979434 L 37.068811,17.246167 C 37.068811,17.246167 37.088388,32 37.088388,32 L 22.160133,31.978069 C 22.160133,31.978069 26.997745,27.140456 26.997745,27.140456 C 18.528582,18.264221 13.291696,25.230495 11.500037,31.436501 z"
             style="fill:#404040;"/>
          </a>
         </g>
        </svg>
</svg>
