<?xml version="1.0" encoding="UTF-8" standalone="no"?>
<!DOCTYPE svg PUBLIC "-//W3C//DTD SVG 1.1//EN"
 "http://www.w3.org/Graphics/SVG/1.1/DTD/svg11.dtd">
<!-- Generated by graphviz version 5.0.0 (0)
 -->
<!-- Title: a60::collection::prune_archive_sub_directories Pages: 1 -->
<svg width="424pt" height="191pt"
 viewBox="0.00 0.00 424.00 190.92" xmlns="http://www.w3.org/2000/svg" xmlns:xlink="http://www.w3.org/1999/xlink">
<g id="graph0" class="graph" transform="scale(1 1) rotate(0) translate(4 186.92)">
<title>a60::collection::prune_archive_sub_directories</title>
<!-- Node1 -->
<g id="node1" class="node">
<title>Node1</title>
<g id="a_node1"><a xlink:title=" ">
<polygon fill="#999999" stroke="#666666" points="116,-121 0,-121 0,-95 116,-95 116,-121"/>
<text text-anchor="start" x="8" y="-110.6" font-family="SourceSans" font-size="8.00">a60::collection::prune</text>
<text text-anchor="middle" x="58" y="-101.6" font-family="SourceSans" font-size="8.00">_archive_sub_directories</text>
</a>
</g>
</g>
<!-- Node2 -->
<g id="node2" class="node">
<title>Node2</title>
<g id="a_node2"><a xlink:href="structa60_1_1collection.html#a772cab0c0123491c08a92fce4cf0eacb" target="_top" xlink:title=" ">
<polygon fill="white" stroke="#666666" points="276,-162 152,-162 152,-136 276,-136 276,-162"/>
<text text-anchor="start" x="160" y="-151.6" font-family="SourceSans" font-size="8.00">a60::collection::collection</text>
<text text-anchor="middle" x="214" y="-142.6" font-family="SourceSans" font-size="8.00">_archive_directory</text>
</a>
</g>
</g>
<!-- Node1&#45;&gt;Node2 -->
<g id="edge1" class="edge">
<title>Node1&#45;&gt;Node2</title>
<path fill="none" stroke="#63b8ff" d="M108.15,-121.09C122.81,-124.99 139.02,-129.3 154.23,-133.35"/>
<polygon fill="#63b8ff" stroke="#63b8ff" points="153.49,-136.78 164.05,-135.97 155.29,-130.01 153.49,-136.78"/>
</g>
<!-- Node3 -->
<g id="node3" class="node">
<title>Node3</title>
<g id="a_node3"><a xlink:href="namespacea60_1_1io.html#a16f17ea9e02c1975ca17b77e46cf7629" target="_top" xlink:title="Make sure a path ends in &#39;/&#39;;.">
<polygon fill="white" stroke="#666666" points="409,-177.5 319,-177.5 319,-160.5 409,-160.5 409,-177.5"/>
<text text-anchor="middle" x="364" y="-167.1" font-family="SourceSans" font-size="8.00">a60::io::end_path</text>
</a>
</g>
</g>
<!-- Node1&#45;&gt;Node3 -->
<g id="edge4" class="edge">
<title>Node1&#45;&gt;Node3</title>
<path fill="none" stroke="#63b8ff" d="M72.7,-121.26C89.69,-136.68 120.31,-161.28 152,-171 203.39,-186.77 265.19,-183.8 308.58,-178.4"/>
<polygon fill="#63b8ff" stroke="#63b8ff" points="309.2,-181.85 318.65,-177.06 308.28,-174.91 309.2,-181.85"/>
</g>
<!-- Node4 -->
<g id="node4" class="node">
<title>Node4</title>
<g id="a_node4"><a xlink:href="namespacea60_1_1io.html#ac95e5271a27a23bc2336d84b3f821fa2" target="_top" xlink:title="Constant filesystem and run&#45;time resources.">
<polygon fill="white" stroke="#666666" points="416,-142 312,-142 312,-116 416,-116 416,-142"/>
<text text-anchor="start" x="320" y="-131.6" font-family="SourceSans" font-size="8.00">a60::io::get_run_time</text>
<text text-anchor="middle" x="364" y="-122.6" font-family="SourceSans" font-size="8.00">_resources</text>
</a>
</g>
</g>
<!-- Node1&#45;&gt;Node4 -->
<g id="edge5" class="edge">
<title>Node1&#45;&gt;Node4</title>
<path fill="none" stroke="#63b8ff" d="M116.18,-111.95C169.02,-115.6 247.31,-121.01 301.48,-124.75"/>
<polygon fill="#63b8ff" stroke="#63b8ff" points="301.43,-128.25 311.64,-125.45 301.91,-121.27 301.43,-128.25"/>
</g>
<!-- Node5 -->
<g id="node5" class="node">
<title>Node5</title>
<g id="a_node5"><a xlink:href="namespacea60_1_1constants.html#ac27c77e4606552ae5f74a1c21dd9258e" target="_top" xlink:title=" ">
<polygon fill="white" stroke="#666666" points="272.5,-79.5 155.5,-79.5 155.5,-62.5 272.5,-62.5 272.5,-79.5"/>
<text text-anchor="middle" x="214" y="-69.1" font-family="SourceSans" font-size="8.00">a60::constants::newline</text>
</a>
</g>
</g>
<!-- Node1&#45;&gt;Node5 -->
<g id="edge6" class="edge">
<title>Node1&#45;&gt;Node5</title>
<path fill="none" stroke="#63b8ff" d="M113.29,-94.96C131.1,-90.68 150.69,-85.97 167.75,-81.87"/>
<polygon fill="#63b8ff" stroke="#63b8ff" points="168.57,-85.27 177.48,-79.53 166.94,-78.47 168.57,-85.27"/>
</g>
<!-- Node6 -->
<g id="node6" class="node">
<title>Node6</title>
<g id="a_node6"><a xlink:href="namespacea60_1_1io.html#afbc9bd4e46187119419128390e16a033" target="_top" xlink:title="Takes a string representing a directory, returns a list of contents as a std::vector&lt;string&gt;.">
<polygon fill="white" stroke="#666666" points="267.5,-26 160.5,-26 160.5,0 267.5,0 267.5,-26"/>
<text text-anchor="start" x="168.5" y="-15.6" font-family="SourceSans" font-size="8.00">a60::io::populate_sub</text>
<text text-anchor="middle" x="214" y="-6.6" font-family="SourceSans" font-size="8.00">_directories</text>
</a>
</g>
</g>
<!-- Node1&#45;&gt;Node6 -->
<g id="edge7" class="edge">
<title>Node1&#45;&gt;Node6</title>
<path fill="none" stroke="#63b8ff" d="M80.09,-94.99C106.67,-78.6 152.52,-50.31 182.81,-31.62"/>
<polygon fill="#63b8ff" stroke="#63b8ff" points="185,-34.39 191.67,-26.16 181.32,-28.43 185,-34.39"/>
</g>
<!-- Node2&#45;&gt;Node3 -->
<g id="edge2" class="edge">
<title>Node2&#45;&gt;Node3</title>
<path fill="none" stroke="#63b8ff" d="M276.05,-157.25C286.91,-158.72 298.16,-160.24 308.81,-161.68"/>
<polygon fill="#63b8ff" stroke="#63b8ff" points="308.44,-165.16 318.81,-163.03 309.37,-158.22 308.44,-165.16"/>
</g>
<!-- Node2&#45;&gt;Node4 -->
<g id="edge3" class="edge">
<title>Node2&#45;&gt;Node4</title>
<path fill="none" stroke="#63b8ff" d="M276.05,-140.75C284.64,-139.59 293.46,-138.4 302.04,-137.24"/>
<polygon fill="#63b8ff" stroke="#63b8ff" points="302.54,-140.7 311.98,-135.89 301.6,-133.77 302.54,-140.7"/>
</g>
<!-- Node6&#45;&gt;Node6 -->
<g id="edge8" class="edge">
<title>Node6&#45;&gt;Node6</title>
<path fill="none" stroke="#63b8ff" d="M188.62,-26.06C180.93,-35.1 189.39,-44 214,-44 229,-44 238,-40.69 241,-36.07"/>
<polygon fill="#63b8ff" stroke="#63b8ff" points="244.43,-35.37 239.38,-26.06 237.52,-36.49 244.43,-35.37"/>
</g>
</g>
</svg>
