<?xml version="1.0" encoding="UTF-8" standalone="no"?>
<!DOCTYPE svg PUBLIC "-//W3C//DTD SVG 1.1//EN"
 "http://www.w3.org/Graphics/SVG/1.1/DTD/svg11.dtd">
<!-- Generated by graphviz version 5.0.0 (0)
 -->
<!-- Title: a60::collection::initialize_ids_and_members Pages: 1 -->
<svg width="569pt" height="199pt"
 viewBox="0.00 0.00 569.00 199.00" xmlns="http://www.w3.org/2000/svg" xmlns:xlink="http://www.w3.org/1999/xlink">
<g id="graph0" class="graph" transform="scale(1 1) rotate(0) translate(4 195)">
<title>a60::collection::initialize_ids_and_members</title>
<!-- Node1 -->
<g id="node1" class="node">
<title>Node1</title>
<g id="a_node1"><a xlink:title=" ">
<polygon fill="#999999" stroke="#666666" points="119,-97 0,-97 0,-71 119,-71 119,-97"/>
<text text-anchor="start" x="8" y="-86.6" font-family="SourceSans" font-size="8.00">a60::collection::initialize</text>
<text text-anchor="middle" x="59.5" y="-77.6" font-family="SourceSans" font-size="8.00">_ids_and_members</text>
</a>
</g>
</g>
<!-- Node2 -->
<g id="node2" class="node">
<title>Node2</title>
<g id="a_node2"><a xlink:href="structa60_1_1collection.html#ac45159cc6d231e06985aaf1d49756bb0" target="_top" xlink:title=" ">
<polygon fill="white" stroke="#666666" points="414.5,-191 316.5,-191 316.5,-165 414.5,-165 414.5,-191"/>
<text text-anchor="start" x="324.5" y="-180.6" font-family="SourceSans" font-size="8.00">a60::collection::get</text>
<text text-anchor="middle" x="365.5" y="-171.6" font-family="SourceSans" font-size="8.00">_encoding</text>
</a>
</g>
</g>
<!-- Node1&#45;&gt;Node2 -->
<g id="edge1" class="edge">
<title>Node1&#45;&gt;Node2</title>
<path fill="none" stroke="#63b8ff" d="M86.48,-97.03C105.19,-106.04 131.23,-117.84 155,-126 205.2,-143.24 263.99,-157.32 306.49,-166.46"/>
<polygon fill="#63b8ff" stroke="#63b8ff" points="305.88,-169.91 316.38,-168.56 307.33,-163.06 305.88,-169.91"/>
</g>
<!-- Node4 -->
<g id="node4" class="node">
<title>Node4</title>
<g id="a_node4"><a xlink:href="structa60_1_1collection.html#abcc1ce9c3a19ea5cd1d703e407e981da" target="_top" xlink:title=" ">
<polygon fill="white" stroke="#666666" points="263.5,-117 165.5,-117 165.5,-91 263.5,-91 263.5,-117"/>
<text text-anchor="start" x="173.5" y="-106.6" font-family="SourceSans" font-size="8.00">a60::collection::get</text>
<text text-anchor="middle" x="214.5" y="-97.6" font-family="SourceSans" font-size="8.00">_resolution</text>
</a>
</g>
</g>
<!-- Node1&#45;&gt;Node4 -->
<g id="edge4" class="edge">
<title>Node1&#45;&gt;Node4</title>
<path fill="none" stroke="#63b8ff" d="M119.22,-91.68C130.95,-93.21 143.27,-94.82 155,-96.35"/>
<polygon fill="#63b8ff" stroke="#63b8ff" points="154.75,-99.85 165.12,-97.68 155.65,-92.91 154.75,-99.85"/>
</g>
<!-- Node10 -->
<g id="node10" class="node">
<title>Node10</title>
<g id="a_node10"><a xlink:href="structa60_1_1collection.html#af2cb797a79121308fd11f5d4ccd02866" target="_top" xlink:title=" ">
<polygon fill="white" stroke="#666666" points="270,-72.5 159,-72.5 159,-55.5 270,-55.5 270,-72.5"/>
<text text-anchor="middle" x="214.5" y="-62.1" font-family="SourceSans" font-size="8.00">a60::collection::set_tid</text>
</a>
</g>
</g>
<!-- Node1&#45;&gt;Node10 -->
<g id="edge12" class="edge">
<title>Node1&#45;&gt;Node10</title>
<path fill="none" stroke="#63b8ff" d="M119.22,-76.32C128.85,-75.07 138.88,-73.75 148.65,-72.48"/>
<polygon fill="#63b8ff" stroke="#63b8ff" points="149.25,-75.93 158.71,-71.16 148.34,-68.99 149.25,-75.93"/>
</g>
<!-- Node11 -->
<g id="node11" class="node">
<title>Node11</title>
<g id="a_node11"><a xlink:href="namespacea60.html#ac7eddb2e330d8983ddc852edde5335c5" target="_top" xlink:title=" ">
<polygon fill="white" stroke="#666666" points="274,-37.5 155,-37.5 155,-20.5 274,-20.5 274,-37.5"/>
<text text-anchor="middle" x="214.5" y="-27.1" font-family="SourceSans" font-size="8.00">a60::to_lowercase_string</text>
</a>
</g>
</g>
<!-- Node1&#45;&gt;Node11 -->
<g id="edge13" class="edge">
<title>Node1&#45;&gt;Node11</title>
<path fill="none" stroke="#63b8ff" d="M90.85,-70.9C109.24,-63.19 133.27,-53.5 155,-46 160.57,-44.08 166.49,-42.18 172.34,-40.4"/>
<polygon fill="#63b8ff" stroke="#63b8ff" points="173.46,-43.72 182.05,-37.52 171.47,-37.01 173.46,-43.72"/>
</g>
<!-- Node3 -->
<g id="node3" class="node">
<title>Node3</title>
<g id="a_node3"><a xlink:href="namespacea60.html#a4e8b0cabed112734147b499bf0cc9029" target="_top" xlink:title="Conversion of resolution_mode to string.">
<polygon fill="white" stroke="#666666" points="546,-164.5 472,-164.5 472,-147.5 546,-147.5 546,-164.5"/>
<text text-anchor="middle" x="509" y="-154.1" font-family="SourceSans" font-size="8.00">a60::to_string</text>
</a>
</g>
</g>
<!-- Node2&#45;&gt;Node3 -->
<g id="edge2" class="edge">
<title>Node2&#45;&gt;Node3</title>
<path fill="none" stroke="#63b8ff" d="M414.8,-170.49C430.02,-168.12 446.79,-165.52 461.86,-163.17"/>
<polygon fill="#63b8ff" stroke="#63b8ff" points="462.63,-166.6 471.98,-161.6 461.56,-159.68 462.63,-166.6"/>
</g>
<!-- Node3&#45;&gt;Node3 -->
<g id="edge3" class="edge">
<title>Node3&#45;&gt;Node3</title>
<path fill="none" stroke="#63b8ff" d="M487.84,-164.69C476.15,-173.17 483.21,-182.5 509,-182.5 525.93,-182.5 534.78,-178.48 535.57,-173.32"/>
<polygon fill="#63b8ff" stroke="#63b8ff" points="538.43,-171.3 530.16,-164.69 532.5,-175.02 538.43,-171.3"/>
</g>
<!-- Node5 -->
<g id="node5" class="node">
<title>Node5</title>
<g id="a_node5"><a xlink:href="structa60_1_1collection.html#afad5eae328d051e2bcbe057d45bef491" target="_top" xlink:title=" ">
<polygon fill="white" stroke="#666666" points="417,-147 314,-147 314,-121 417,-121 417,-147"/>
<text text-anchor="start" x="322" y="-136.6" font-family="SourceSans" font-size="8.00">a60::collection::infer</text>
<text text-anchor="middle" x="365.5" y="-127.6" font-family="SourceSans" font-size="8.00">_resolution</text>
</a>
</g>
</g>
<!-- Node4&#45;&gt;Node5 -->
<g id="edge5" class="edge">
<title>Node4&#45;&gt;Node5</title>
<path fill="none" stroke="#63b8ff" d="M263.88,-113.74C276.61,-116.3 290.5,-119.1 303.79,-121.78"/>
<polygon fill="#63b8ff" stroke="#63b8ff" points="303.31,-125.25 313.81,-123.79 304.69,-118.39 303.31,-125.25"/>
</g>
<!-- Node6 -->
<g id="node6" class="node">
<title>Node6</title>
<g id="a_node6"><a xlink:href="namespacea60_1_1io.html#aa5fbb8ab63397dd45c4a54c0758935ef" target="_top" xlink:title="Sanity check input existence.">
<polygon fill="white" stroke="#666666" points="561,-106 457,-106 457,-80 561,-80 561,-106"/>
<text text-anchor="start" x="465" y="-95.6" font-family="SourceSans" font-size="8.00">a60::io::sanity_check</text>
<text text-anchor="middle" x="509" y="-86.6" font-family="SourceSans" font-size="8.00">_input</text>
</a>
</g>
</g>
<!-- Node4&#45;&gt;Node6 -->
<g id="edge7" class="edge">
<title>Node4&#45;&gt;Node6</title>
<path fill="none" stroke="#63b8ff" d="M263.8,-102.18C313.8,-100.3 392.07,-97.36 446.47,-95.31"/>
<polygon fill="#63b8ff" stroke="#63b8ff" points="446.81,-98.8 456.67,-94.93 446.55,-91.81 446.81,-98.8"/>
</g>
<!-- Node7 -->
<g id="node7" class="node">
<title>Node7</title>
<g id="a_node7"><a xlink:href="structa60_1_1collection.html#a997d47a7fc3ffcabaeba3fd74cce0d82" target="_top" xlink:title=" ">
<polygon fill="white" stroke="#666666" points="421,-65 310,-65 310,-39 421,-39 421,-65"/>
<text text-anchor="start" x="318" y="-54.6" font-family="SourceSans" font-size="8.00">a60::collection::torrent</text>
<text text-anchor="middle" x="365.5" y="-45.6" font-family="SourceSans" font-size="8.00">_directory</text>
</a>
</g>
</g>
<!-- Node4&#45;&gt;Node7 -->
<g id="edge8" class="edge">
<title>Node4&#45;&gt;Node7</title>
<path fill="none" stroke="#63b8ff" d="M253.1,-90.88C272.67,-84.05 296.79,-75.63 317.58,-68.38"/>
<polygon fill="#63b8ff" stroke="#63b8ff" points="318.88,-71.63 327.17,-65.03 316.58,-65.02 318.88,-71.63"/>
</g>
<!-- Node5&#45;&gt;Node3 -->
<g id="edge6" class="edge">
<title>Node5&#45;&gt;Node3</title>
<path fill="none" stroke="#63b8ff" d="M417.19,-141.88C431.73,-144.14 447.52,-146.6 461.78,-148.81"/>
<polygon fill="#63b8ff" stroke="#63b8ff" points="461.44,-152.3 471.86,-150.38 462.52,-145.39 461.44,-152.3"/>
</g>
<!-- Node7&#45;&gt;Node6 -->
<g id="edge11" class="edge">
<title>Node7&#45;&gt;Node6</title>
<path fill="none" stroke="#63b8ff" d="M411.66,-65.09C424.81,-68.89 439.32,-73.1 453,-77.06"/>
<polygon fill="#63b8ff" stroke="#63b8ff" points="452.2,-80.48 462.78,-79.9 454.15,-73.75 452.2,-80.48"/>
</g>
<!-- Node8 -->
<g id="node8" class="node">
<title>Node8</title>
<g id="a_node8"><a xlink:href="namespacea60_1_1io.html#a16f17ea9e02c1975ca17b77e46cf7629" target="_top" xlink:title="Make sure a path ends in &#39;/&#39;;.">
<polygon fill="white" stroke="#666666" points="554,-61.5 464,-61.5 464,-44.5 554,-44.5 554,-61.5"/>
<text text-anchor="middle" x="509" y="-51.1" font-family="SourceSans" font-size="8.00">a60::io::end_path</text>
</a>
</g>
</g>
<!-- Node7&#45;&gt;Node8 -->
<g id="edge9" class="edge">
<title>Node7&#45;&gt;Node8</title>
<path fill="none" stroke="#63b8ff" d="M421.21,-52.39C431.93,-52.46 443.18,-52.54 453.89,-52.62"/>
<polygon fill="#63b8ff" stroke="#63b8ff" points="453.93,-56.12 463.95,-52.69 453.98,-49.12 453.93,-56.12"/>
</g>
<!-- Node9 -->
<g id="node9" class="node">
<title>Node9</title>
<g id="a_node9"><a xlink:href="namespacea60_1_1io.html#ac95e5271a27a23bc2336d84b3f821fa2" target="_top" xlink:title="Constant filesystem and run&#45;time resources.">
<polygon fill="white" stroke="#666666" points="561,-26 457,-26 457,0 561,0 561,-26"/>
<text text-anchor="start" x="465" y="-15.6" font-family="SourceSans" font-size="8.00">a60::io::get_run_time</text>
<text text-anchor="middle" x="509" y="-6.6" font-family="SourceSans" font-size="8.00">_resources</text>
</a>
</g>
</g>
<!-- Node7&#45;&gt;Node9 -->
<g id="edge10" class="edge">
<title>Node7&#45;&gt;Node9</title>
<path fill="none" stroke="#63b8ff" d="M414.01,-38.91C425.68,-35.69 438.29,-32.21 450.38,-28.88"/>
<polygon fill="#63b8ff" stroke="#63b8ff" points="451.66,-32.16 460.37,-26.13 449.8,-25.41 451.66,-32.16"/>
</g>
</g>
</svg>
