<?xml version="1.0" encoding="UTF-8" standalone="no"?>
<!DOCTYPE svg PUBLIC "-//W3C//DTD SVG 1.1//EN"
 "http://www.w3.org/Graphics/SVG/1.1/DTD/svg11.dtd">
<!-- Generated by graphviz version 5.0.0 (0)
 -->
<!-- Title: a60::swarm_gcache::insert_meta_peers_by_meta_mask Pages: 1 -->
<svg width="265pt" height="78pt"
 viewBox="0.00 0.00 265.00 78.00" xmlns="http://www.w3.org/2000/svg" xmlns:xlink="http://www.w3.org/1999/xlink">
<g id="graph0" class="graph" transform="scale(1 1) rotate(0) translate(4 74)">
<title>a60::swarm_gcache::insert_meta_peers_by_meta_mask</title>
<!-- Node1 -->
<g id="node1" class="node">
<title>Node1</title>
<g id="a_node1"><a xlink:title=" ">
<polygon fill="#999999" stroke="#666666" points="105,-52.5 0,-52.5 0,-17.5 105,-17.5 105,-52.5"/>
<text text-anchor="start" x="8" y="-42.1" font-family="SourceSans" font-size="8.00">a60::swarm_gcache::</text>
<text text-anchor="start" x="8" y="-33.1" font-family="SourceSans" font-size="8.00">insert_meta_peers_by</text>
<text text-anchor="middle" x="52.5" y="-24.1" font-family="SourceSans" font-size="8.00">_meta_mask</text>
</a>
</g>
</g>
<!-- Node2 -->
<g id="node2" class="node">
<title>Node2</title>
<g id="a_node2"><a xlink:href="structa60_1_1swarm__gcache.html#a863e7627b8875d8ed7eafc5bd3c7a480" target="_top" xlink:title=" ">
<polygon fill="white" stroke="#666666" points="256,-70 142,-70 142,-44 256,-44 256,-70"/>
<text text-anchor="start" x="150" y="-59.6" font-family="SourceSans" font-size="8.00">a60::swarm_gcache::</text>
<text text-anchor="middle" x="199" y="-50.6" font-family="SourceSans" font-size="8.00">meta_peer_to_geo_peer</text>
</a>
</g>
</g>
<!-- Node1&#45;&gt;Node2 -->
<g id="edge1" class="edge">
<title>Node1&#45;&gt;Node2</title>
<path fill="none" stroke="#63b8ff" d="M105.26,-42.88C113.85,-44.19 122.86,-45.56 131.75,-46.91"/>
<polygon fill="#63b8ff" stroke="#63b8ff" points="131.29,-50.38 141.71,-48.43 132.35,-43.46 131.29,-50.38"/>
</g>
<!-- Node3 -->
<g id="node3" class="node">
<title>Node3</title>
<g id="a_node3"><a xlink:href="structa60_1_1swarm__gcache.html#a5392ca156f233ca3c89778c38ed19a67" target="_top" xlink:title="Make unique string suitable for key via masks on geo data.">
<polygon fill="white" stroke="#666666" points="257,-26 141,-26 141,0 257,0 257,-26"/>
<text text-anchor="start" x="149" y="-15.6" font-family="SourceSans" font-size="8.00">a60::swarm_gcache::</text>
<text text-anchor="middle" x="199" y="-6.6" font-family="SourceSans" font-size="8.00">meta_peer_to_string_key</text>
</a>
</g>
</g>
<!-- Node1&#45;&gt;Node3 -->
<g id="edge2" class="edge">
<title>Node1&#45;&gt;Node3</title>
<path fill="none" stroke="#63b8ff" d="M105.26,-27.12C113.52,-25.86 122.18,-24.54 130.74,-23.24"/>
<polygon fill="#63b8ff" stroke="#63b8ff" points="131.36,-26.69 140.72,-21.72 130.31,-19.77 131.36,-26.69"/>
</g>
</g>
</svg>
