<?xml version="1.0" encoding="UTF-8" standalone="no"?>
<!DOCTYPE svg PUBLIC "-//W3C//DTD SVG 1.1//EN"
 "http://www.w3.org/Graphics/SVG/1.1/DTD/svg11.dtd">
<!-- Generated by graphviz version 5.0.0 (0)
 -->
<!-- Title: a60::carto::ckproj::meridians_to_point_2d Pages: 1 -->
<svg width="404pt" height="172pt"
 viewBox="0.00 0.00 404.00 171.50" xmlns="http://www.w3.org/2000/svg" xmlns:xlink="http://www.w3.org/1999/xlink">
<g id="graph0" class="graph" transform="scale(1 1) rotate(0) translate(4 167.5)">
<title>a60::carto::ckproj::meridians_to_point_2d</title>
<!-- Node1 -->
<g id="node1" class="node">
<title>Node1</title>
<g id="a_node1"><a xlink:title="Draws geographic data to a point on the projection.">
<polygon fill="#999999" stroke="#666666" points="114,-82.5 0,-82.5 0,-56.5 114,-56.5 114,-82.5"/>
<text text-anchor="start" x="8" y="-72.1" font-family="SourceSans" font-size="8.00">a60::carto::ckproj</text>
<text text-anchor="middle" x="57" y="-63.1" font-family="SourceSans" font-size="8.00">::meridians_to_point_2d</text>
</a>
</g>
</g>
<!-- Node2 -->
<g id="node2" class="node">
<title>Node2</title>
<g id="a_node2"><a xlink:href="structa60_1_1carto_1_1ckproj.html#a861ad69ad7734e845e5af6382f89e407" target="_top" xlink:title=" ">
<polygon fill="white" stroke="#666666" points="244.5,-107.5 155.5,-107.5 155.5,-81.5 244.5,-81.5 244.5,-107.5"/>
<text text-anchor="start" x="163.5" y="-97.1" font-family="SourceSans" font-size="8.00">a60::carto::ckproj</text>
<text text-anchor="middle" x="200" y="-88.1" font-family="SourceSans" font-size="8.00">::get_cache_per</text>
</a>
</g>
</g>
<!-- Node1&#45;&gt;Node2 -->
<g id="edge1" class="edge">
<title>Node1&#45;&gt;Node2</title>
<path fill="none" stroke="#63b8ff" d="M114.13,-79.45C124.38,-81.27 135.06,-83.16 145.24,-84.97"/>
<polygon fill="#63b8ff" stroke="#63b8ff" points="144.77,-88.44 155.22,-86.74 145.99,-81.55 144.77,-88.44"/>
</g>
<!-- Node5 -->
<g id="node5" class="node">
<title>Node5</title>
<g id="a_node5"><a xlink:href="structa60_1_1carto_1_1ckproj.html#abd418b74e47cb4204f70ba08bd19f813" target="_top" xlink:title="Use nodejs to run D3 projection via d3&#45;geo&#45;polygon.">
<polygon fill="white" stroke="#666666" points="250,-63 150,-63 150,-28 250,-28 250,-63"/>
<text text-anchor="start" x="158" y="-52.6" font-family="SourceSans" font-size="8.00">a60::carto::ckproj</text>
<text text-anchor="start" x="158" y="-43.6" font-family="SourceSans" font-size="8.00">::meridians_to_point</text>
<text text-anchor="middle" x="200" y="-34.6" font-family="SourceSans" font-size="8.00">_2d_via_js</text>
</a>
</g>
</g>
<!-- Node1&#45;&gt;Node5 -->
<g id="edge5" class="edge">
<title>Node1&#45;&gt;Node5</title>
<path fill="none" stroke="#63b8ff" d="M114.13,-59.95C122.63,-58.5 131.42,-57 139.98,-55.55"/>
<polygon fill="#63b8ff" stroke="#63b8ff" points="140.62,-58.99 149.89,-53.86 139.45,-52.09 140.62,-58.99"/>
</g>
<!-- Node3 -->
<g id="node3" class="node">
<title>Node3</title>
<g id="a_node3"><a xlink:href="structa60_1_1carto_1_1ckproj_1_1ckcache.html#a58cf155f993b3d4cc6b9e266fb3dac8d" target="_top" xlink:title=" ">
<polygon fill="white" stroke="#666666" points="393,-163.5 289,-163.5 289,-137.5 393,-137.5 393,-163.5"/>
<text text-anchor="start" x="297" y="-153.1" font-family="SourceSans" font-size="8.00">a60::carto::ckproj</text>
<text text-anchor="middle" x="341" y="-144.1" font-family="SourceSans" font-size="8.00">::ckcache::get_cache</text>
</a>
</g>
</g>
<!-- Node2&#45;&gt;Node3 -->
<g id="edge2" class="edge">
<title>Node2&#45;&gt;Node3</title>
<path fill="none" stroke="#63b8ff" d="M233.59,-107.63C252.85,-115.39 277.43,-125.29 298.12,-133.63"/>
<polygon fill="#63b8ff" stroke="#63b8ff" points="297.03,-136.96 307.61,-137.45 299.65,-130.47 297.03,-136.96"/>
</g>
<!-- Node4 -->
<g id="node4" class="node">
<title>Node4</title>
<g id="a_node4"><a xlink:href="namespacea60.html#a4e8b0cabed112734147b499bf0cc9029" target="_top" xlink:title="Conversion of resolution_mode to string.">
<polygon fill="white" stroke="#666666" points="378,-101 304,-101 304,-84 378,-84 378,-101"/>
<text text-anchor="middle" x="341" y="-90.6" font-family="SourceSans" font-size="8.00">a60::to_string</text>
</a>
</g>
</g>
<!-- Node2&#45;&gt;Node4 -->
<g id="edge3" class="edge">
<title>Node2&#45;&gt;Node4</title>
<path fill="none" stroke="#63b8ff" d="M244.6,-93.87C260.14,-93.65 277.7,-93.4 293.48,-93.17"/>
<polygon fill="#63b8ff" stroke="#63b8ff" points="293.61,-96.67 303.56,-93.02 293.51,-89.67 293.61,-96.67"/>
</g>
<!-- Node4&#45;&gt;Node4 -->
<g id="edge4" class="edge">
<title>Node4&#45;&gt;Node4</title>
<path fill="none" stroke="#63b8ff" d="M320.14,-101.19C308.62,-109.67 315.57,-119 341,-119 357.69,-119 366.42,-114.98 367.19,-109.82"/>
<polygon fill="#63b8ff" stroke="#63b8ff" points="370.09,-107.86 361.86,-101.19 364.14,-111.53 370.09,-107.86"/>
</g>
<!-- Node6 -->
<g id="node6" class="node">
<title>Node6</title>
<g id="a_node6"><a xlink:href="namespacea60_1_1io.html#ac95e5271a27a23bc2336d84b3f821fa2" target="_top" xlink:title="Constant filesystem and run&#45;time resources.">
<polygon fill="white" stroke="#666666" points="393,-61.5 289,-61.5 289,-35.5 393,-35.5 393,-61.5"/>
<text text-anchor="start" x="297" y="-51.1" font-family="SourceSans" font-size="8.00">a60::io::get_run_time</text>
<text text-anchor="middle" x="341" y="-42.1" font-family="SourceSans" font-size="8.00">_resources</text>
</a>
</g>
</g>
<!-- Node5&#45;&gt;Node6 -->
<g id="edge6" class="edge">
<title>Node5&#45;&gt;Node6</title>
<path fill="none" stroke="#63b8ff" d="M250.01,-46.56C259.19,-46.76 268.9,-46.97 278.41,-47.17"/>
<polygon fill="#63b8ff" stroke="#63b8ff" points="278.54,-50.67 288.61,-47.39 278.69,-43.68 278.54,-50.67"/>
</g>
<!-- Node7 -->
<g id="node7" class="node">
<title>Node7</title>
<g id="a_node7"><a xlink:href="namespacea60_1_1constants.html#a4eca9d522711df25806d6dd1ff38e904" target="_top" xlink:title=" ">
<polygon fill="white" stroke="#666666" points="396,-17 286,-17 286,0 396,0 396,-17"/>
<text text-anchor="middle" x="341" y="-6.6" font-family="SourceSans" font-size="8.00">a60::constants::space</text>
</a>
</g>
</g>
<!-- Node5&#45;&gt;Node7 -->
<g id="edge7" class="edge">
<title>Node5&#45;&gt;Node7</title>
<path fill="none" stroke="#63b8ff" d="M250.01,-32.46C265.63,-28.3 282.77,-23.73 297.86,-19.72"/>
<polygon fill="#63b8ff" stroke="#63b8ff" points="299.17,-22.99 307.94,-17.03 297.37,-16.22 299.17,-22.99"/>
</g>
</g>
</svg>
