<?xml version="1.0" encoding="UTF-8" standalone="no"?>
<!DOCTYPE svg PUBLIC "-//W3C//DTD SVG 1.1//EN"
 "http://www.w3.org/Graphics/SVG/1.1/DTD/svg11.dtd">
<!-- Generated by graphviz version 5.0.0 (0)
 -->
<!-- Title: a60::collection::infer_resolution Pages: 1 -->
<svg width="221pt" height="48pt"
 viewBox="0.00 0.00 221.00 47.50" xmlns="http://www.w3.org/2000/svg" xmlns:xlink="http://www.w3.org/1999/xlink">
<g id="graph0" class="graph" transform="scale(1 1) rotate(0) translate(4 43.5)">
<title>a60::collection::infer_resolution</title>
<!-- Node1 -->
<g id="node1" class="node">
<title>Node1</title>
<g id="a_node1"><a xlink:title=" ">
<polygon fill="#999999" stroke="#666666" points="103,-26 0,-26 0,0 103,0 103,-26"/>
<text text-anchor="start" x="8" y="-15.6" font-family="SourceSans" font-size="8.00">a60::collection::infer</text>
<text text-anchor="middle" x="51.5" y="-6.6" font-family="SourceSans" font-size="8.00">_resolution</text>
</a>
</g>
</g>
<!-- Node2 -->
<g id="node2" class="node">
<title>Node2</title>
<g id="a_node2"><a xlink:href="namespacea60.html#a4e8b0cabed112734147b499bf0cc9029" target="_top" xlink:title="Conversion of resolution_mode to string.">
<polygon fill="white" stroke="#666666" points="213,-21.5 139,-21.5 139,-4.5 213,-4.5 213,-21.5"/>
<text text-anchor="middle" x="176" y="-11.1" font-family="SourceSans" font-size="8.00">a60::to_string</text>
</a>
</g>
</g>
<!-- Node1&#45;&gt;Node2 -->
<g id="edge1" class="edge">
<title>Node1&#45;&gt;Node2</title>
<path fill="none" stroke="#63b8ff" d="M103.03,-13C111.56,-13 120.37,-13 128.78,-13"/>
<polygon fill="#63b8ff" stroke="#63b8ff" points="128.8,-16.5 138.8,-13 128.8,-9.5 128.8,-16.5"/>
</g>
<!-- Node2&#45;&gt;Node2 -->
<g id="edge2" class="edge">
<title>Node2&#45;&gt;Node2</title>
<path fill="none" stroke="#63b8ff" d="M157.52,-21.69C147.32,-30.17 153.48,-39.5 176,-39.5 190.43,-39.5 198.14,-35.67 199.14,-30.69"/>
<polygon fill="#63b8ff" stroke="#63b8ff" points="202.18,-28.96 194.48,-21.69 195.97,-32.18 202.18,-28.96"/>
</g>
</g>
</svg>
