<?xml version="1.0" encoding="UTF-8" standalone="no"?>
<!DOCTYPE svg PUBLIC "-//W3C//DTD SVG 1.1//EN"
 "http://www.w3.org/Graphics/SVG/1.1/DTD/svg11.dtd">
<!-- Generated by graphviz version 5.0.0 (0)
 -->
<!-- Title: a60::carto::erproj::image_filename Pages: 1 -->
<svg width="237pt" height="70pt"
 viewBox="0.00 0.00 237.00 69.50" xmlns="http://www.w3.org/2000/svg" xmlns:xlink="http://www.w3.org/1999/xlink">
<g id="graph0" class="graph" transform="scale(1 1) rotate(0) translate(4 65.5)">
<title>a60::carto::erproj::image_filename</title>
<!-- Node1 -->
<g id="node1" class="node">
<title>Node1</title>
<g id="a_node1"><a xlink:title="Get the filename from the path to the image used in the base map.">
<polygon fill="#999999" stroke="#666666" points="89,-46 0,-46 0,-20 89,-20 89,-46"/>
<text text-anchor="start" x="8" y="-35.6" font-family="SourceSans" font-size="8.00">a60::carto::erproj</text>
<text text-anchor="middle" x="44.5" y="-26.6" font-family="SourceSans" font-size="8.00">::image_filename</text>
</a>
</g>
</g>
<!-- Node2 -->
<g id="node2" class="node">
<title>Node2</title>
<g id="a_node2"><a xlink:href="namespacea60_1_1io.html#a16f17ea9e02c1975ca17b77e46cf7629" target="_top" xlink:title="Make sure a path ends in &#39;/&#39;;.">
<polygon fill="white" stroke="#666666" points="222,-61.5 132,-61.5 132,-44.5 222,-44.5 222,-61.5"/>
<text text-anchor="middle" x="177" y="-51.1" font-family="SourceSans" font-size="8.00">a60::io::end_path</text>
</a>
</g>
</g>
<!-- Node1&#45;&gt;Node2 -->
<g id="edge1" class="edge">
<title>Node1&#45;&gt;Node2</title>
<path fill="none" stroke="#63b8ff" d="M89.32,-39.72C99.64,-41.3 110.77,-43 121.5,-44.65"/>
<polygon fill="#63b8ff" stroke="#63b8ff" points="121.22,-48.14 131.63,-46.2 122.28,-41.23 121.22,-48.14"/>
</g>
<!-- Node3 -->
<g id="node3" class="node">
<title>Node3</title>
<g id="a_node3"><a xlink:href="namespacea60_1_1io.html#ac95e5271a27a23bc2336d84b3f821fa2" target="_top" xlink:title="Constant filesystem and run&#45;time resources.">
<polygon fill="white" stroke="#666666" points="229,-26 125,-26 125,0 229,0 229,-26"/>
<text text-anchor="start" x="133" y="-15.6" font-family="SourceSans" font-size="8.00">a60::io::get_run_time</text>
<text text-anchor="middle" x="177" y="-6.6" font-family="SourceSans" font-size="8.00">_resources</text>
</a>
</g>
</g>
<!-- Node1&#45;&gt;Node3 -->
<g id="edge2" class="edge">
<title>Node1&#45;&gt;Node3</title>
<path fill="none" stroke="#63b8ff" d="M89.32,-26.28C97.51,-25.03 106.22,-23.69 114.83,-22.38"/>
<polygon fill="#63b8ff" stroke="#63b8ff" points="115.5,-25.81 124.85,-20.84 114.44,-18.89 115.5,-25.81"/>
</g>
</g>
</svg>
