<?xml version="1.0" encoding="UTF-8" standalone="no"?>
<!DOCTYPE svg PUBLIC "-//W3C//DTD SVG 1.1//EN"
 "http://www.w3.org/Graphics/SVG/1.1/DTD/svg11.dtd">
<!-- Generated by graphviz version 5.0.0 (0)
 -->
<!-- Title: a60::swarm_gcache::add_geo_peers_from_files Pages: 1 -->
<svg width="894pt" height="426pt"
 viewBox="0.00 0.00 894.00 426.00" xmlns="http://www.w3.org/2000/svg" xmlns:xlink="http://www.w3.org/1999/xlink">
<g id="graph0" class="graph" transform="scale(1 1) rotate(0) translate(4 422)">
<title>a60::swarm_gcache::add_geo_peers_from_files</title>
<!-- Node1 -->
<g id="node1" class="node">
<title>Node1</title>
<g id="a_node1"><a xlink:title="Single datestamp. Add all peers/seeds from files to weighed geos/ranks.">
<polygon fill="#999999" stroke="#666666" points="122,-90 0,-90 0,-64 122,-64 122,-90"/>
<text text-anchor="start" x="8" y="-79.6" font-family="SourceSans" font-size="8.00">a60::swarm_gcache::</text>
<text text-anchor="middle" x="61" y="-70.6" font-family="SourceSans" font-size="8.00">add_geo_peers_from_files</text>
</a>
</g>
</g>
<!-- Node2 -->
<g id="node2" class="node">
<title>Node2</title>
<g id="a_node2"><a xlink:href="structa60_1_1swarm__gcache.html#a46e0655dfbf754e20bb9e832c9cc36b7" target="_top" xlink:title="Adds peers, if @detail_lost_p is true, output details on anomalies.">
<polygon fill="white" stroke="#666666" points="268.5,-250 163.5,-250 163.5,-224 268.5,-224 268.5,-250"/>
<text text-anchor="start" x="171.5" y="-239.6" font-family="SourceSans" font-size="8.00">a60::swarm_gcache::</text>
<text text-anchor="middle" x="216" y="-230.6" font-family="SourceSans" font-size="8.00">add_geo_peers</text>
</a>
</g>
</g>
<!-- Node1&#45;&gt;Node2 -->
<g id="edge1" class="edge">
<title>Node1&#45;&gt;Node2</title>
<path fill="none" stroke="#63b8ff" d="M74.52,-90.09C101.08,-117.87 163.25,-182.89 195.23,-216.33"/>
<polygon fill="#63b8ff" stroke="#63b8ff" points="192.87,-218.92 202.31,-223.73 197.92,-214.08 192.87,-218.92"/>
</g>
<!-- Node21 -->
<g id="node21" class="node">
<title>Node21</title>
<g id="a_node21"><a xlink:href="structa60_1_1swarm__gcache.html#ac844e1bb124d31692ecefb61c592cdf3" target="_top" xlink:title="Dig out datestamp from file metadata.">
<polygon fill="white" stroke="#666666" points="274,-90 158,-90 158,-64 274,-64 274,-90"/>
<text text-anchor="start" x="166" y="-79.6" font-family="SourceSans" font-size="8.00">a60::swarm_gcache::</text>
<text text-anchor="middle" x="216" y="-70.6" font-family="SourceSans" font-size="8.00">get_datestamp_from_file</text>
</a>
</g>
</g>
<!-- Node1&#45;&gt;Node21 -->
<g id="edge21" class="edge">
<title>Node1&#45;&gt;Node21</title>
<path fill="none" stroke="#63b8ff" d="M122.03,-77C130.36,-77 138.97,-77 147.43,-77"/>
<polygon fill="#63b8ff" stroke="#63b8ff" points="147.64,-80.5 157.64,-77 147.64,-73.5 147.64,-80.5"/>
</g>
<!-- Node24 -->
<g id="node24" class="node">
<title>Node24</title>
<g id="a_node24"><a xlink:href="namespacea60_1_1constants.html#a4eca9d522711df25806d6dd1ff38e904" target="_top" xlink:title=" ">
<polygon fill="white" stroke="#666666" points="271,-45.5 161,-45.5 161,-28.5 271,-28.5 271,-45.5"/>
<text text-anchor="middle" x="216" y="-35.1" font-family="SourceSans" font-size="8.00">a60::constants::space</text>
</a>
</g>
</g>
<!-- Node1&#45;&gt;Node24 -->
<g id="edge25" class="edge">
<title>Node1&#45;&gt;Node24</title>
<path fill="none" stroke="#63b8ff" d="M112.1,-63.9C131.6,-58.8 153.71,-53.02 172.43,-48.13"/>
<polygon fill="#63b8ff" stroke="#63b8ff" points="173.36,-51.5 182.15,-45.59 171.59,-44.73 173.36,-51.5"/>
</g>
<!-- Node3 -->
<g id="node3" class="node">
<title>Node3</title>
<g id="a_node3"><a xlink:href="namespacea60.html#af45982273a7a2e61b6aaa436081238c0" target="_top" xlink:title="Load JSON file to in&#45;memory DOM.">
<polygon fill="white" stroke="#666666" points="419.5,-152 315.5,-152 315.5,-126 419.5,-126 419.5,-152"/>
<text text-anchor="start" x="323.5" y="-141.6" font-family="SourceSans" font-size="8.00">a60::deserialize_json</text>
<text text-anchor="middle" x="367.5" y="-132.6" font-family="SourceSans" font-size="8.00">_to_dom_object</text>
</a>
</g>
</g>
<!-- Node2&#45;&gt;Node3 -->
<g id="edge2" class="edge">
<title>Node2&#45;&gt;Node3</title>
<path fill="none" stroke="#63b8ff" d="M230.16,-223.95C247.33,-207.5 278.84,-179.18 310,-161 312.82,-159.36 315.78,-157.79 318.82,-156.3"/>
<polygon fill="#63b8ff" stroke="#63b8ff" points="320.4,-159.42 328.05,-152.09 317.5,-153.05 320.4,-159.42"/>
</g>
<!-- Node5 -->
<g id="node5" class="node">
<title>Node5</title>
<g id="a_node5"><a xlink:href="structa60_1_1swarm__gcache.html#ae4920365566dd82a83ef69d8f85b4f5c" target="_top" xlink:title=" ">
<polygon fill="white" stroke="#666666" points="420,-205.5 315,-205.5 315,-170.5 420,-170.5 420,-205.5"/>
<text text-anchor="start" x="323" y="-195.1" font-family="SourceSans" font-size="8.00">a60::swarm_gcache::</text>
<text text-anchor="start" x="323" y="-186.1" font-family="SourceSans" font-size="8.00">insert_meta_peers_by</text>
<text text-anchor="middle" x="367.5" y="-177.1" font-family="SourceSans" font-size="8.00">_meta_mask</text>
</a>
</g>
</g>
<!-- Node2&#45;&gt;Node5 -->
<g id="edge4" class="edge">
<title>Node2&#45;&gt;Node5</title>
<path fill="none" stroke="#63b8ff" d="M256.67,-224C271.57,-219.12 288.87,-213.44 305.27,-208.07"/>
<polygon fill="#63b8ff" stroke="#63b8ff" points="306.38,-211.39 314.8,-204.95 304.2,-204.73 306.38,-211.39"/>
</g>
<!-- Node8 -->
<g id="node8" class="node">
<title>Node8</title>
<g id="a_node8"><a xlink:href="structa60_1_1collection.html#a3780f3266ff2355e74b737a201c89116" target="_top" xlink:title=" ">
<polygon fill="white" stroke="#666666" points="425,-250 310,-250 310,-224 425,-224 425,-250"/>
<text text-anchor="start" x="318" y="-239.6" font-family="SourceSans" font-size="8.00">a60::collection::mangle</text>
<text text-anchor="middle" x="367.5" y="-230.6" font-family="SourceSans" font-size="8.00">_tid_match_id</text>
</a>
</g>
</g>
<!-- Node2&#45;&gt;Node8 -->
<g id="edge7" class="edge">
<title>Node2&#45;&gt;Node8</title>
<path fill="none" stroke="#63b8ff" d="M268.87,-237C278.8,-237 289.33,-237 299.65,-237"/>
<polygon fill="#63b8ff" stroke="#63b8ff" points="299.87,-240.5 309.87,-237 299.87,-233.5 299.87,-240.5"/>
</g>
<!-- Node11 -->
<g id="node11" class="node">
<title>Node11</title>
<g id="a_node11"><a xlink:href="structa60_1_1collection.html#a80993af9aec8238db8e44da1e9a3c994" target="_top" xlink:title=" ">
<polygon fill="white" stroke="#666666" points="570.5,-290 467.5,-290 467.5,-264 570.5,-264 570.5,-290"/>
<text text-anchor="start" x="475.5" y="-279.6" font-family="SourceSans" font-size="8.00">a60::collection::slice</text>
<text text-anchor="middle" x="519" y="-270.6" font-family="SourceSans" font-size="8.00">_name_mangled</text>
</a>
</g>
</g>
<!-- Node2&#45;&gt;Node11 -->
<g id="edge16" class="edge">
<title>Node2&#45;&gt;Node11</title>
<path fill="none" stroke="#63b8ff" d="M266.44,-250.11C280.44,-253.44 295.75,-256.71 310,-259 359.26,-266.91 415.68,-271.52 457.32,-274.09"/>
<polygon fill="#63b8ff" stroke="#63b8ff" points="457.12,-277.58 467.31,-274.69 457.54,-270.6 457.12,-277.58"/>
</g>
<!-- Node16 -->
<g id="node16" class="node">
<title>Node16</title>
<g id="a_node16"><a xlink:href="namespacea60.html#a6ce8704ec3c4d5e258d062283dd40efb" target="_top" xlink:title="Search DOM for meta_peer(s).">
<polygon fill="white" stroke="#666666" points="419,-332 316,-332 316,-306 419,-306 419,-332"/>
<text text-anchor="start" x="324" y="-321.6" font-family="SourceSans" font-size="8.00">a60::search_dom_for</text>
<text text-anchor="middle" x="367.5" y="-312.6" font-family="SourceSans" font-size="8.00">_meta_peers</text>
</a>
</g>
</g>
<!-- Node2&#45;&gt;Node16 -->
<g id="edge15" class="edge">
<title>Node2&#45;&gt;Node16</title>
<path fill="none" stroke="#63b8ff" d="M238.12,-250.21C256.77,-261.71 284.84,-278.58 310,-292 315.99,-295.2 322.43,-298.44 328.73,-301.52"/>
<polygon fill="#63b8ff" stroke="#63b8ff" points="327.27,-304.7 337.8,-305.89 330.31,-298.4 327.27,-304.7"/>
</g>
<!-- Node17 -->
<g id="node17" class="node">
<title>Node17</title>
<g id="a_node17"><a xlink:href="namespacea60.html#a718120588394d0516778b6ad06793bf8" target="_top" xlink:title="See what peers have no country info or latitude/longitude.">
<polygon fill="white" stroke="#666666" points="423,-368.5 312,-368.5 312,-351.5 423,-351.5 423,-368.5"/>
<text text-anchor="middle" x="367.5" y="-358.1" font-family="SourceSans" font-size="8.00">a60::survey_lost_peers</text>
</a>
</g>
</g>
<!-- Node2&#45;&gt;Node17 -->
<g id="edge17" class="edge">
<title>Node2&#45;&gt;Node17</title>
<path fill="none" stroke="#63b8ff" d="M225.38,-250.16C239.99,-272.07 272.18,-316.07 310,-341 313.8,-343.5 317.95,-345.71 322.24,-347.64"/>
<polygon fill="#63b8ff" stroke="#63b8ff" points="321.14,-350.97 331.72,-351.45 323.75,-344.47 321.14,-350.97"/>
</g>
<!-- Node4 -->
<g id="node4" class="node">
<title>Node4</title>
<g id="a_node4"><a xlink:href="namespacea60.html#a538d43bb9bfa488a54cea929736dbe2d" target="_top" xlink:title="Deserialize input file.">
<polygon fill="white" stroke="#666666" points="571,-112 467,-112 467,-86 571,-86 571,-112"/>
<text text-anchor="start" x="475" y="-101.6" font-family="SourceSans" font-size="8.00">a60::deserialize_json</text>
<text text-anchor="middle" x="519" y="-92.6" font-family="SourceSans" font-size="8.00">_to_dom</text>
</a>
</g>
</g>
<!-- Node3&#45;&gt;Node4 -->
<g id="edge3" class="edge">
<title>Node3&#45;&gt;Node4</title>
<path fill="none" stroke="#63b8ff" d="M417.45,-125.9C430.81,-122.33 445.43,-118.42 459.28,-114.71"/>
<polygon fill="#63b8ff" stroke="#63b8ff" points="460.44,-118.02 469.19,-112.06 458.63,-111.26 460.44,-118.02"/>
</g>
<!-- Node6 -->
<g id="node6" class="node">
<title>Node6</title>
<g id="a_node6"><a xlink:href="structa60_1_1swarm__gcache.html#a863e7627b8875d8ed7eafc5bd3c7a480" target="_top" xlink:title=" ">
<polygon fill="white" stroke="#666666" points="576,-201 462,-201 462,-175 576,-175 576,-201"/>
<text text-anchor="start" x="470" y="-190.6" font-family="SourceSans" font-size="8.00">a60::swarm_gcache::</text>
<text text-anchor="middle" x="519" y="-181.6" font-family="SourceSans" font-size="8.00">meta_peer_to_geo_peer</text>
</a>
</g>
</g>
<!-- Node5&#45;&gt;Node6 -->
<g id="edge5" class="edge">
<title>Node5&#45;&gt;Node6</title>
<path fill="none" stroke="#63b8ff" d="M420.37,-188C430.53,-188 441.32,-188 451.87,-188"/>
<polygon fill="#63b8ff" stroke="#63b8ff" points="451.89,-191.5 461.89,-188 451.89,-184.5 451.89,-191.5"/>
</g>
<!-- Node7 -->
<g id="node7" class="node">
<title>Node7</title>
<g id="a_node7"><a xlink:href="structa60_1_1swarm__gcache.html#a5392ca156f233ca3c89778c38ed19a67" target="_top" xlink:title="Make unique string suitable for key via masks on geo data.">
<polygon fill="white" stroke="#666666" points="577,-157 461,-157 461,-131 577,-131 577,-157"/>
<text text-anchor="start" x="469" y="-146.6" font-family="SourceSans" font-size="8.00">a60::swarm_gcache::</text>
<text text-anchor="middle" x="519" y="-137.6" font-family="SourceSans" font-size="8.00">meta_peer_to_string_key</text>
</a>
</g>
</g>
<!-- Node5&#45;&gt;Node7 -->
<g id="edge6" class="edge">
<title>Node5&#45;&gt;Node7</title>
<path fill="none" stroke="#63b8ff" d="M420.37,-172.73C434.48,-168.58 449.8,-164.07 464.03,-159.88"/>
<polygon fill="#63b8ff" stroke="#63b8ff" points="465.08,-163.22 473.68,-157.04 463.1,-156.51 465.08,-163.22"/>
</g>
<!-- Node9 -->
<g id="node9" class="node">
<title>Node9</title>
<g id="a_node9"><a xlink:href="structa60_1_1collection.html#ab234addb5725bb5900b44f55ec1aae10" target="_top" xlink:title=" ">
<polygon fill="white" stroke="#666666" points="576.5,-246 461.5,-246 461.5,-220 576.5,-220 576.5,-246"/>
<text text-anchor="start" x="469.5" y="-235.6" font-family="SourceSans" font-size="8.00">a60::collection::mangle</text>
<text text-anchor="middle" x="519" y="-226.6" font-family="SourceSans" font-size="8.00">_with_id</text>
</a>
</g>
</g>
<!-- Node8&#45;&gt;Node9 -->
<g id="edge8" class="edge">
<title>Node8&#45;&gt;Node9</title>
<path fill="none" stroke="#63b8ff" d="M425.02,-235.49C433.58,-235.26 442.48,-235.02 451.23,-234.79"/>
<polygon fill="#63b8ff" stroke="#63b8ff" points="451.5,-238.28 461.4,-234.51 451.31,-231.28 451.5,-238.28"/>
</g>
<!-- Node8&#45;&gt;Node11 -->
<g id="edge10" class="edge">
<title>Node8&#45;&gt;Node11</title>
<path fill="none" stroke="#63b8ff" d="M417.45,-250.1C430.81,-253.67 445.43,-257.58 459.28,-261.29"/>
<polygon fill="#63b8ff" stroke="#63b8ff" points="458.63,-264.74 469.19,-263.94 460.44,-257.98 458.63,-264.74"/>
</g>
<!-- Node10 -->
<g id="node10" class="node">
<title>Node10</title>
<g id="a_node10"><a xlink:href="structa60_1_1collection.html#a899f781ad983b2ec1f0da35a5d3f8b54" target="_top" xlink:title=" ">
<polygon fill="white" stroke="#666666" points="735.5,-215.5 620.5,-215.5 620.5,-180.5 735.5,-180.5 735.5,-215.5"/>
<text text-anchor="start" x="628.5" y="-205.1" font-family="SourceSans" font-size="8.00">a60::collection::mangle</text>
<text text-anchor="start" x="628.5" y="-196.1" font-family="SourceSans" font-size="8.00">_duration_significant</text>
<text text-anchor="middle" x="678" y="-187.1" font-family="SourceSans" font-size="8.00">_digits</text>
</a>
</g>
</g>
<!-- Node9&#45;&gt;Node10 -->
<g id="edge9" class="edge">
<title>Node9&#45;&gt;Node10</title>
<path fill="none" stroke="#63b8ff" d="M576.68,-220.36C587.69,-217.91 599.31,-215.32 610.6,-212.8"/>
<polygon fill="#63b8ff" stroke="#63b8ff" points="611.4,-216.21 620.4,-210.62 609.88,-209.38 611.4,-216.21"/>
</g>
<!-- Node12 -->
<g id="node12" class="node">
<title>Node12</title>
<g id="a_node12"><a xlink:href="structa60_1_1collection.html#a25b35cf4ac39da89d868fe2cf41b5acd" target="_top" xlink:title=" ">
<polygon fill="white" stroke="#666666" points="743,-285.5 613,-285.5 613,-268.5 743,-268.5 743,-285.5"/>
<text text-anchor="middle" x="678" y="-275.1" font-family="SourceSans" font-size="8.00">a60::collection::slice_name</text>
</a>
</g>
</g>
<!-- Node11&#45;&gt;Node12 -->
<g id="edge11" class="edge">
<title>Node11&#45;&gt;Node12</title>
<path fill="none" stroke="#63b8ff" d="M570.54,-277C580.73,-277 591.64,-277 602.45,-277"/>
<polygon fill="#63b8ff" stroke="#63b8ff" points="602.76,-280.5 612.76,-277 602.76,-273.5 602.76,-280.5"/>
</g>
<!-- Node13 -->
<g id="node13" class="node">
<title>Node13</title>
<g id="a_node13"><a xlink:href="namespacea60.html#ac7eddb2e330d8983ddc852edde5335c5" target="_top" xlink:title=" ">
<polygon fill="white" stroke="#666666" points="737.5,-250.5 618.5,-250.5 618.5,-233.5 737.5,-233.5 737.5,-250.5"/>
<text text-anchor="middle" x="678" y="-240.1" font-family="SourceSans" font-size="8.00">a60::to_lowercase_string</text>
</a>
</g>
</g>
<!-- Node11&#45;&gt;Node13 -->
<g id="edge12" class="edge">
<title>Node11&#45;&gt;Node13</title>
<path fill="none" stroke="#63b8ff" d="M570.54,-265.73C589.22,-261.57 610.33,-256.86 628.8,-252.74"/>
<polygon fill="#63b8ff" stroke="#63b8ff" points="629.76,-256.12 638.76,-250.53 628.24,-249.29 629.76,-256.12"/>
</g>
<!-- Node14 -->
<g id="node14" class="node">
<title>Node14</title>
<g id="a_node14"><a xlink:href="namespacea60.html#a11d9ffc210e8dca8410e7a5ad62deabc" target="_top" xlink:title=" ">
<polygon fill="white" stroke="#666666" points="734.5,-330 621.5,-330 621.5,-304 734.5,-304 734.5,-330"/>
<text text-anchor="start" x="629.5" y="-319.6" font-family="SourceSans" font-size="8.00">a60::to_replace_spaces</text>
<text text-anchor="middle" x="678" y="-310.6" font-family="SourceSans" font-size="8.00">_string</text>
</a>
</g>
</g>
<!-- Node11&#45;&gt;Node14 -->
<g id="edge13" class="edge">
<title>Node11&#45;&gt;Node14</title>
<path fill="none" stroke="#63b8ff" d="M570.54,-289.88C585.03,-293.57 600.97,-297.63 616.02,-301.46"/>
<polygon fill="#63b8ff" stroke="#63b8ff" points="615.19,-304.86 625.75,-303.94 616.92,-298.08 615.19,-304.86"/>
</g>
<!-- Node15 -->
<g id="node15" class="node">
<title>Node15</title>
<g id="a_node15"><a xlink:href="namespacea60.html#a751f954fe64233f1dc6517220e4b5692" target="_top" xlink:title=" ">
<polygon fill="white" stroke="#666666" points="886,-325.5 779,-325.5 779,-308.5 886,-308.5 886,-325.5"/>
<text text-anchor="middle" x="832.5" y="-315.1" font-family="SourceSans" font-size="8.00">a60::to_replace_string</text>
</a>
</g>
</g>
<!-- Node14&#45;&gt;Node15 -->
<g id="edge14" class="edge">
<title>Node14&#45;&gt;Node15</title>
<path fill="none" stroke="#63b8ff" d="M734.92,-317C745.92,-317 757.53,-317 768.73,-317"/>
<polygon fill="#63b8ff" stroke="#63b8ff" points="768.88,-320.5 778.88,-317 768.88,-313.5 768.88,-320.5"/>
</g>
<!-- Node18 -->
<g id="node18" class="node">
<title>Node18</title>
<g id="a_node18"><a xlink:href="namespacea60.html#ac39b0d667e2ffa7a1bf2df7cc4e5ac38" target="_top" xlink:title="IFF either of the above is true.">
<polygon fill="white" stroke="#666666" points="574.5,-369.5 463.5,-369.5 463.5,-352.5 574.5,-352.5 574.5,-369.5"/>
<text text-anchor="middle" x="519" y="-359.1" font-family="SourceSans" font-size="8.00">a60::is_meta_peer_lost</text>
</a>
</g>
</g>
<!-- Node17&#45;&gt;Node18 -->
<g id="edge18" class="edge">
<title>Node17&#45;&gt;Node18</title>
<path fill="none" stroke="#63b8ff" d="M423.32,-360.37C432.97,-360.43 443.09,-360.5 452.99,-360.57"/>
<polygon fill="#63b8ff" stroke="#63b8ff" points="453.16,-364.07 463.19,-360.63 453.21,-357.07 453.16,-364.07"/>
</g>
<!-- Node19 -->
<g id="node19" class="node">
<title>Node19</title>
<g id="a_node19"><a xlink:href="namespacea60.html#a63bf2b0abf68edc3f3e74a0811fe771b" target="_top" xlink:title="Error checking support. Null Island Check (aka latitude and longitude set to zero).">
<polygon fill="white" stroke="#666666" points="731.5,-418 624.5,-418 624.5,-392 731.5,-392 731.5,-418"/>
<text text-anchor="start" x="632.5" y="-407.6" font-family="SourceSans" font-size="8.00">a60::is_meta_peer_on</text>
<text text-anchor="middle" x="678" y="-398.6" font-family="SourceSans" font-size="8.00">_null_island</text>
</a>
</g>
</g>
<!-- Node18&#45;&gt;Node19 -->
<g id="edge19" class="edge">
<title>Node18&#45;&gt;Node19</title>
<path fill="none" stroke="#63b8ff" d="M550.64,-369.59C570.48,-375.15 596.9,-382.55 620.46,-389.15"/>
<polygon fill="#63b8ff" stroke="#63b8ff" points="619.77,-392.6 630.35,-391.93 621.66,-385.86 619.77,-392.6"/>
</g>
<!-- Node20 -->
<g id="node20" class="node">
<title>Node20</title>
<g id="a_node20"><a xlink:href="namespacea60.html#a0ff511c579a9f94ffff788b1cd4ae864" target="_top" xlink:title="Null Country Check.">
<polygon fill="white" stroke="#666666" points="741.5,-374 614.5,-374 614.5,-348 741.5,-348 741.5,-374"/>
<text text-anchor="start" x="622.5" y="-363.6" font-family="SourceSans" font-size="8.00">a60::is_meta_peer_without</text>
<text text-anchor="middle" x="678" y="-354.6" font-family="SourceSans" font-size="8.00">_country</text>
</a>
</g>
</g>
<!-- Node18&#45;&gt;Node20 -->
<g id="edge20" class="edge">
<title>Node18&#45;&gt;Node20</title>
<path fill="none" stroke="#63b8ff" d="M574.91,-361C584.36,-361 594.31,-361 604.15,-361"/>
<polygon fill="#63b8ff" stroke="#63b8ff" points="604.33,-364.5 614.33,-361 604.33,-357.5 604.33,-364.5"/>
</g>
<!-- Node21&#45;&gt;Node4 -->
<g id="edge22" class="edge">
<title>Node21&#45;&gt;Node4</title>
<path fill="none" stroke="#63b8ff" d="M274.32,-81.19C326.56,-85.01 403.5,-90.63 456.89,-94.53"/>
<polygon fill="#63b8ff" stroke="#63b8ff" points="456.68,-98.03 466.9,-95.27 457.19,-91.05 456.68,-98.03"/>
</g>
<!-- Node22 -->
<g id="node22" class="node">
<title>Node22</title>
<g id="a_node22"><a xlink:href="namespacea60_1_1io.html#aa5fbb8ab63397dd45c4a54c0758935ef" target="_top" xlink:title="Sanity check input existence.">
<polygon fill="white" stroke="#666666" points="419.5,-70 315.5,-70 315.5,-44 419.5,-44 419.5,-70"/>
<text text-anchor="start" x="323.5" y="-59.6" font-family="SourceSans" font-size="8.00">a60::io::sanity_check</text>
<text text-anchor="middle" x="367.5" y="-50.6" font-family="SourceSans" font-size="8.00">_input</text>
</a>
</g>
</g>
<!-- Node21&#45;&gt;Node22 -->
<g id="edge23" class="edge">
<title>Node21&#45;&gt;Node22</title>
<path fill="none" stroke="#63b8ff" d="M274.37,-69.32C284.5,-67.97 295.08,-66.55 305.31,-65.19"/>
<polygon fill="#63b8ff" stroke="#63b8ff" points="305.94,-68.63 315.39,-63.84 305.01,-61.69 305.94,-68.63"/>
</g>
<!-- Node23 -->
<g id="node23" class="node">
<title>Node23</title>
<g id="a_node23"><a xlink:href="namespacea60.html#a34d53970ee23a7c014960a2bf1a10e2b" target="_top" xlink:title="Search DOM for string literals.">
<polygon fill="white" stroke="#666666" points="419,-26 316,-26 316,0 419,0 419,-26"/>
<text text-anchor="start" x="324" y="-15.6" font-family="SourceSans" font-size="8.00">a60::search_dom_for</text>
<text text-anchor="middle" x="367.5" y="-6.6" font-family="SourceSans" font-size="8.00">_string_field</text>
</a>
</g>
</g>
<!-- Node21&#45;&gt;Node23 -->
<g id="edge24" class="edge">
<title>Node21&#45;&gt;Node23</title>
<path fill="none" stroke="#63b8ff" d="M251,-63.94C258.63,-60.83 266.64,-57.41 274,-54 290.41,-46.38 293.54,-42.52 310,-35 313.77,-33.28 317.72,-31.57 321.7,-29.9"/>
<polygon fill="#63b8ff" stroke="#63b8ff" points="323.04,-33.13 330.98,-26.12 320.4,-26.65 323.04,-33.13"/>
</g>
</g>
</svg>
