<?xml version="1.0" encoding="UTF-8" standalone="no"?>
<!DOCTYPE svg PUBLIC "-//W3C//DTD SVG 1.1//EN"
 "http://www.w3.org/Graphics/SVG/1.1/DTD/svg11.dtd">
<!-- Generated by graphviz version 5.0.0 (0)
 -->
<!-- Title: a60::swarm_gcache::add_geo_peers_from_glob_files Pages: 1 -->
<svg width="915pt" height="426pt"
 viewBox="0.00 0.00 915.00 426.00" xmlns="http://www.w3.org/2000/svg" xmlns:xlink="http://www.w3.org/1999/xlink">
<g id="graph0" class="graph" transform="scale(1 1) rotate(0) translate(4 422)">
<title>a60::swarm_gcache::add_geo_peers_from_glob_files</title>
<!-- Node1 -->
<g id="node1" class="node">
<title>Node1</title>
<g id="a_node1"><a xlink:title="Multi datestamp. Add only unique peers/seeds from files to weighed geos/ranks. When accumulating week...">
<polygon fill="#999999" stroke="#666666" points="143,-90 0,-90 0,-64 143,-64 143,-90"/>
<text text-anchor="start" x="8" y="-79.6" font-family="SourceSans" font-size="8.00">a60::swarm_gcache::</text>
<text text-anchor="middle" x="71.5" y="-70.6" font-family="SourceSans" font-size="8.00">add_geo_peers_from_glob_files</text>
</a>
</g>
</g>
<!-- Node2 -->
<g id="node2" class="node">
<title>Node2</title>
<g id="a_node2"><a xlink:href="structa60_1_1swarm__gcache.html#a46e0655dfbf754e20bb9e832c9cc36b7" target="_top" xlink:title="Adds peers, if @detail_lost_p is true, output details on anomalies.">
<polygon fill="white" stroke="#666666" points="289.5,-250 184.5,-250 184.5,-224 289.5,-224 289.5,-250"/>
<text text-anchor="start" x="192.5" y="-239.6" font-family="SourceSans" font-size="8.00">a60::swarm_gcache::</text>
<text text-anchor="middle" x="237" y="-230.6" font-family="SourceSans" font-size="8.00">add_geo_peers</text>
</a>
</g>
</g>
<!-- Node1&#45;&gt;Node2 -->
<g id="edge1" class="edge">
<title>Node1&#45;&gt;Node2</title>
<path fill="none" stroke="#63b8ff" d="M85.88,-90.09C114.26,-117.87 180.7,-182.89 214.87,-216.33"/>
<polygon fill="#63b8ff" stroke="#63b8ff" points="212.84,-219.23 222.44,-223.73 217.74,-214.23 212.84,-219.23"/>
</g>
<!-- Node21 -->
<g id="node21" class="node">
<title>Node21</title>
<g id="a_node21"><a xlink:href="structa60_1_1swarm__gcache.html#ac844e1bb124d31692ecefb61c592cdf3" target="_top" xlink:title="Dig out datestamp from file metadata.">
<polygon fill="white" stroke="#666666" points="295,-90 179,-90 179,-64 295,-64 295,-90"/>
<text text-anchor="start" x="187" y="-79.6" font-family="SourceSans" font-size="8.00">a60::swarm_gcache::</text>
<text text-anchor="middle" x="237" y="-70.6" font-family="SourceSans" font-size="8.00">get_datestamp_from_file</text>
</a>
</g>
</g>
<!-- Node1&#45;&gt;Node21 -->
<g id="edge21" class="edge">
<title>Node1&#45;&gt;Node21</title>
<path fill="none" stroke="#63b8ff" d="M143.26,-77C151.73,-77 160.36,-77 168.77,-77"/>
<polygon fill="#63b8ff" stroke="#63b8ff" points="168.91,-80.5 178.91,-77 168.91,-73.5 168.91,-80.5"/>
</g>
<!-- Node24 -->
<g id="node24" class="node">
<title>Node24</title>
<g id="a_node24"><a xlink:href="namespacea60_1_1constants.html#a4eca9d522711df25806d6dd1ff38e904" target="_top" xlink:title=" ">
<polygon fill="white" stroke="#666666" points="292,-45.5 182,-45.5 182,-28.5 292,-28.5 292,-45.5"/>
<text text-anchor="middle" x="237" y="-35.1" font-family="SourceSans" font-size="8.00">a60::constants::space</text>
</a>
</g>
</g>
<!-- Node1&#45;&gt;Node24 -->
<g id="edge25" class="edge">
<title>Node1&#45;&gt;Node24</title>
<path fill="none" stroke="#63b8ff" d="M126.04,-63.9C147.07,-58.76 170.94,-52.92 191.06,-47.99"/>
<polygon fill="#63b8ff" stroke="#63b8ff" points="192.02,-51.36 200.9,-45.59 190.35,-44.56 192.02,-51.36"/>
</g>
<!-- Node3 -->
<g id="node3" class="node">
<title>Node3</title>
<g id="a_node3"><a xlink:href="namespacea60.html#af45982273a7a2e61b6aaa436081238c0" target="_top" xlink:title="Load JSON file to in&#45;memory DOM.">
<polygon fill="white" stroke="#666666" points="440.5,-152 336.5,-152 336.5,-126 440.5,-126 440.5,-152"/>
<text text-anchor="start" x="344.5" y="-141.6" font-family="SourceSans" font-size="8.00">a60::deserialize_json</text>
<text text-anchor="middle" x="388.5" y="-132.6" font-family="SourceSans" font-size="8.00">_to_dom_object</text>
</a>
</g>
</g>
<!-- Node2&#45;&gt;Node3 -->
<g id="edge2" class="edge">
<title>Node2&#45;&gt;Node3</title>
<path fill="none" stroke="#63b8ff" d="M251.16,-223.95C268.33,-207.5 299.84,-179.18 331,-161 333.82,-159.36 336.78,-157.79 339.82,-156.3"/>
<polygon fill="#63b8ff" stroke="#63b8ff" points="341.4,-159.42 349.05,-152.09 338.5,-153.05 341.4,-159.42"/>
</g>
<!-- Node5 -->
<g id="node5" class="node">
<title>Node5</title>
<g id="a_node5"><a xlink:href="structa60_1_1swarm__gcache.html#ae4920365566dd82a83ef69d8f85b4f5c" target="_top" xlink:title=" ">
<polygon fill="white" stroke="#666666" points="441,-205.5 336,-205.5 336,-170.5 441,-170.5 441,-205.5"/>
<text text-anchor="start" x="344" y="-195.1" font-family="SourceSans" font-size="8.00">a60::swarm_gcache::</text>
<text text-anchor="start" x="344" y="-186.1" font-family="SourceSans" font-size="8.00">insert_meta_peers_by</text>
<text text-anchor="middle" x="388.5" y="-177.1" font-family="SourceSans" font-size="8.00">_meta_mask</text>
</a>
</g>
</g>
<!-- Node2&#45;&gt;Node5 -->
<g id="edge4" class="edge">
<title>Node2&#45;&gt;Node5</title>
<path fill="none" stroke="#63b8ff" d="M277.67,-224C292.57,-219.12 309.87,-213.44 326.27,-208.07"/>
<polygon fill="#63b8ff" stroke="#63b8ff" points="327.38,-211.39 335.8,-204.95 325.2,-204.73 327.38,-211.39"/>
</g>
<!-- Node8 -->
<g id="node8" class="node">
<title>Node8</title>
<g id="a_node8"><a xlink:href="structa60_1_1collection.html#a3780f3266ff2355e74b737a201c89116" target="_top" xlink:title=" ">
<polygon fill="white" stroke="#666666" points="446,-250 331,-250 331,-224 446,-224 446,-250"/>
<text text-anchor="start" x="339" y="-239.6" font-family="SourceSans" font-size="8.00">a60::collection::mangle</text>
<text text-anchor="middle" x="388.5" y="-230.6" font-family="SourceSans" font-size="8.00">_tid_match_id</text>
</a>
</g>
</g>
<!-- Node2&#45;&gt;Node8 -->
<g id="edge7" class="edge">
<title>Node2&#45;&gt;Node8</title>
<path fill="none" stroke="#63b8ff" d="M289.87,-237C299.8,-237 310.33,-237 320.65,-237"/>
<polygon fill="#63b8ff" stroke="#63b8ff" points="320.87,-240.5 330.87,-237 320.87,-233.5 320.87,-240.5"/>
</g>
<!-- Node11 -->
<g id="node11" class="node">
<title>Node11</title>
<g id="a_node11"><a xlink:href="structa60_1_1collection.html#a80993af9aec8238db8e44da1e9a3c994" target="_top" xlink:title=" ">
<polygon fill="white" stroke="#666666" points="591.5,-290 488.5,-290 488.5,-264 591.5,-264 591.5,-290"/>
<text text-anchor="start" x="496.5" y="-279.6" font-family="SourceSans" font-size="8.00">a60::collection::slice</text>
<text text-anchor="middle" x="540" y="-270.6" font-family="SourceSans" font-size="8.00">_name_mangled</text>
</a>
</g>
</g>
<!-- Node2&#45;&gt;Node11 -->
<g id="edge16" class="edge">
<title>Node2&#45;&gt;Node11</title>
<path fill="none" stroke="#63b8ff" d="M287.44,-250.11C301.44,-253.44 316.75,-256.71 331,-259 380.26,-266.91 436.68,-271.52 478.32,-274.09"/>
<polygon fill="#63b8ff" stroke="#63b8ff" points="478.12,-277.58 488.31,-274.69 478.54,-270.6 478.12,-277.58"/>
</g>
<!-- Node16 -->
<g id="node16" class="node">
<title>Node16</title>
<g id="a_node16"><a xlink:href="namespacea60.html#a6ce8704ec3c4d5e258d062283dd40efb" target="_top" xlink:title="Search DOM for meta_peer(s).">
<polygon fill="white" stroke="#666666" points="440,-332 337,-332 337,-306 440,-306 440,-332"/>
<text text-anchor="start" x="345" y="-321.6" font-family="SourceSans" font-size="8.00">a60::search_dom_for</text>
<text text-anchor="middle" x="388.5" y="-312.6" font-family="SourceSans" font-size="8.00">_meta_peers</text>
</a>
</g>
</g>
<!-- Node2&#45;&gt;Node16 -->
<g id="edge15" class="edge">
<title>Node2&#45;&gt;Node16</title>
<path fill="none" stroke="#63b8ff" d="M259.12,-250.21C277.77,-261.71 305.84,-278.58 331,-292 336.99,-295.2 343.43,-298.44 349.73,-301.52"/>
<polygon fill="#63b8ff" stroke="#63b8ff" points="348.27,-304.7 358.8,-305.89 351.31,-298.4 348.27,-304.7"/>
</g>
<!-- Node17 -->
<g id="node17" class="node">
<title>Node17</title>
<g id="a_node17"><a xlink:href="namespacea60.html#a718120588394d0516778b6ad06793bf8" target="_top" xlink:title="See what peers have no country info or latitude/longitude.">
<polygon fill="white" stroke="#666666" points="444,-368.5 333,-368.5 333,-351.5 444,-351.5 444,-368.5"/>
<text text-anchor="middle" x="388.5" y="-358.1" font-family="SourceSans" font-size="8.00">a60::survey_lost_peers</text>
</a>
</g>
</g>
<!-- Node2&#45;&gt;Node17 -->
<g id="edge17" class="edge">
<title>Node2&#45;&gt;Node17</title>
<path fill="none" stroke="#63b8ff" d="M246.38,-250.16C260.99,-272.07 293.18,-316.07 331,-341 334.8,-343.5 338.95,-345.71 343.24,-347.64"/>
<polygon fill="#63b8ff" stroke="#63b8ff" points="342.14,-350.97 352.72,-351.45 344.75,-344.47 342.14,-350.97"/>
</g>
<!-- Node4 -->
<g id="node4" class="node">
<title>Node4</title>
<g id="a_node4"><a xlink:href="namespacea60.html#a538d43bb9bfa488a54cea929736dbe2d" target="_top" xlink:title="Deserialize input file.">
<polygon fill="white" stroke="#666666" points="592,-112 488,-112 488,-86 592,-86 592,-112"/>
<text text-anchor="start" x="496" y="-101.6" font-family="SourceSans" font-size="8.00">a60::deserialize_json</text>
<text text-anchor="middle" x="540" y="-92.6" font-family="SourceSans" font-size="8.00">_to_dom</text>
</a>
</g>
</g>
<!-- Node3&#45;&gt;Node4 -->
<g id="edge3" class="edge">
<title>Node3&#45;&gt;Node4</title>
<path fill="none" stroke="#63b8ff" d="M438.45,-125.9C451.81,-122.33 466.43,-118.42 480.28,-114.71"/>
<polygon fill="#63b8ff" stroke="#63b8ff" points="481.44,-118.02 490.19,-112.06 479.63,-111.26 481.44,-118.02"/>
</g>
<!-- Node6 -->
<g id="node6" class="node">
<title>Node6</title>
<g id="a_node6"><a xlink:href="structa60_1_1swarm__gcache.html#a863e7627b8875d8ed7eafc5bd3c7a480" target="_top" xlink:title=" ">
<polygon fill="white" stroke="#666666" points="597,-201 483,-201 483,-175 597,-175 597,-201"/>
<text text-anchor="start" x="491" y="-190.6" font-family="SourceSans" font-size="8.00">a60::swarm_gcache::</text>
<text text-anchor="middle" x="540" y="-181.6" font-family="SourceSans" font-size="8.00">meta_peer_to_geo_peer</text>
</a>
</g>
</g>
<!-- Node5&#45;&gt;Node6 -->
<g id="edge5" class="edge">
<title>Node5&#45;&gt;Node6</title>
<path fill="none" stroke="#63b8ff" d="M441.37,-188C451.53,-188 462.32,-188 472.87,-188"/>
<polygon fill="#63b8ff" stroke="#63b8ff" points="472.89,-191.5 482.89,-188 472.89,-184.5 472.89,-191.5"/>
</g>
<!-- Node7 -->
<g id="node7" class="node">
<title>Node7</title>
<g id="a_node7"><a xlink:href="structa60_1_1swarm__gcache.html#a5392ca156f233ca3c89778c38ed19a67" target="_top" xlink:title="Make unique string suitable for key via masks on geo data.">
<polygon fill="white" stroke="#666666" points="598,-157 482,-157 482,-131 598,-131 598,-157"/>
<text text-anchor="start" x="490" y="-146.6" font-family="SourceSans" font-size="8.00">a60::swarm_gcache::</text>
<text text-anchor="middle" x="540" y="-137.6" font-family="SourceSans" font-size="8.00">meta_peer_to_string_key</text>
</a>
</g>
</g>
<!-- Node5&#45;&gt;Node7 -->
<g id="edge6" class="edge">
<title>Node5&#45;&gt;Node7</title>
<path fill="none" stroke="#63b8ff" d="M441.37,-172.73C455.48,-168.58 470.8,-164.07 485.03,-159.88"/>
<polygon fill="#63b8ff" stroke="#63b8ff" points="486.08,-163.22 494.68,-157.04 484.1,-156.51 486.08,-163.22"/>
</g>
<!-- Node9 -->
<g id="node9" class="node">
<title>Node9</title>
<g id="a_node9"><a xlink:href="structa60_1_1collection.html#ab234addb5725bb5900b44f55ec1aae10" target="_top" xlink:title=" ">
<polygon fill="white" stroke="#666666" points="597.5,-246 482.5,-246 482.5,-220 597.5,-220 597.5,-246"/>
<text text-anchor="start" x="490.5" y="-235.6" font-family="SourceSans" font-size="8.00">a60::collection::mangle</text>
<text text-anchor="middle" x="540" y="-226.6" font-family="SourceSans" font-size="8.00">_with_id</text>
</a>
</g>
</g>
<!-- Node8&#45;&gt;Node9 -->
<g id="edge8" class="edge">
<title>Node8&#45;&gt;Node9</title>
<path fill="none" stroke="#63b8ff" d="M446.02,-235.49C454.58,-235.26 463.48,-235.02 472.23,-234.79"/>
<polygon fill="#63b8ff" stroke="#63b8ff" points="472.5,-238.28 482.4,-234.51 472.31,-231.28 472.5,-238.28"/>
</g>
<!-- Node8&#45;&gt;Node11 -->
<g id="edge10" class="edge">
<title>Node8&#45;&gt;Node11</title>
<path fill="none" stroke="#63b8ff" d="M438.45,-250.1C451.81,-253.67 466.43,-257.58 480.28,-261.29"/>
<polygon fill="#63b8ff" stroke="#63b8ff" points="479.63,-264.74 490.19,-263.94 481.44,-257.98 479.63,-264.74"/>
</g>
<!-- Node10 -->
<g id="node10" class="node">
<title>Node10</title>
<g id="a_node10"><a xlink:href="structa60_1_1collection.html#a899f781ad983b2ec1f0da35a5d3f8b54" target="_top" xlink:title=" ">
<polygon fill="white" stroke="#666666" points="756.5,-215.5 641.5,-215.5 641.5,-180.5 756.5,-180.5 756.5,-215.5"/>
<text text-anchor="start" x="649.5" y="-205.1" font-family="SourceSans" font-size="8.00">a60::collection::mangle</text>
<text text-anchor="start" x="649.5" y="-196.1" font-family="SourceSans" font-size="8.00">_duration_significant</text>
<text text-anchor="middle" x="699" y="-187.1" font-family="SourceSans" font-size="8.00">_digits</text>
</a>
</g>
</g>
<!-- Node9&#45;&gt;Node10 -->
<g id="edge9" class="edge">
<title>Node9&#45;&gt;Node10</title>
<path fill="none" stroke="#63b8ff" d="M597.68,-220.36C608.69,-217.91 620.31,-215.32 631.6,-212.8"/>
<polygon fill="#63b8ff" stroke="#63b8ff" points="632.4,-216.21 641.4,-210.62 630.88,-209.38 632.4,-216.21"/>
</g>
<!-- Node12 -->
<g id="node12" class="node">
<title>Node12</title>
<g id="a_node12"><a xlink:href="structa60_1_1collection.html#a25b35cf4ac39da89d868fe2cf41b5acd" target="_top" xlink:title=" ">
<polygon fill="white" stroke="#666666" points="764,-285.5 634,-285.5 634,-268.5 764,-268.5 764,-285.5"/>
<text text-anchor="middle" x="699" y="-275.1" font-family="SourceSans" font-size="8.00">a60::collection::slice_name</text>
</a>
</g>
</g>
<!-- Node11&#45;&gt;Node12 -->
<g id="edge11" class="edge">
<title>Node11&#45;&gt;Node12</title>
<path fill="none" stroke="#63b8ff" d="M591.54,-277C601.73,-277 612.64,-277 623.45,-277"/>
<polygon fill="#63b8ff" stroke="#63b8ff" points="623.76,-280.5 633.76,-277 623.76,-273.5 623.76,-280.5"/>
</g>
<!-- Node13 -->
<g id="node13" class="node">
<title>Node13</title>
<g id="a_node13"><a xlink:href="namespacea60.html#ac7eddb2e330d8983ddc852edde5335c5" target="_top" xlink:title=" ">
<polygon fill="white" stroke="#666666" points="758.5,-250.5 639.5,-250.5 639.5,-233.5 758.5,-233.5 758.5,-250.5"/>
<text text-anchor="middle" x="699" y="-240.1" font-family="SourceSans" font-size="8.00">a60::to_lowercase_string</text>
</a>
</g>
</g>
<!-- Node11&#45;&gt;Node13 -->
<g id="edge12" class="edge">
<title>Node11&#45;&gt;Node13</title>
<path fill="none" stroke="#63b8ff" d="M591.54,-265.73C610.22,-261.57 631.33,-256.86 649.8,-252.74"/>
<polygon fill="#63b8ff" stroke="#63b8ff" points="650.76,-256.12 659.76,-250.53 649.24,-249.29 650.76,-256.12"/>
</g>
<!-- Node14 -->
<g id="node14" class="node">
<title>Node14</title>
<g id="a_node14"><a xlink:href="namespacea60.html#a11d9ffc210e8dca8410e7a5ad62deabc" target="_top" xlink:title=" ">
<polygon fill="white" stroke="#666666" points="755.5,-330 642.5,-330 642.5,-304 755.5,-304 755.5,-330"/>
<text text-anchor="start" x="650.5" y="-319.6" font-family="SourceSans" font-size="8.00">a60::to_replace_spaces</text>
<text text-anchor="middle" x="699" y="-310.6" font-family="SourceSans" font-size="8.00">_string</text>
</a>
</g>
</g>
<!-- Node11&#45;&gt;Node14 -->
<g id="edge13" class="edge">
<title>Node11&#45;&gt;Node14</title>
<path fill="none" stroke="#63b8ff" d="M591.54,-289.88C606.03,-293.57 621.97,-297.63 637.02,-301.46"/>
<polygon fill="#63b8ff" stroke="#63b8ff" points="636.19,-304.86 646.75,-303.94 637.92,-298.08 636.19,-304.86"/>
</g>
<!-- Node15 -->
<g id="node15" class="node">
<title>Node15</title>
<g id="a_node15"><a xlink:href="namespacea60.html#a751f954fe64233f1dc6517220e4b5692" target="_top" xlink:title=" ">
<polygon fill="white" stroke="#666666" points="907,-325.5 800,-325.5 800,-308.5 907,-308.5 907,-325.5"/>
<text text-anchor="middle" x="853.5" y="-315.1" font-family="SourceSans" font-size="8.00">a60::to_replace_string</text>
</a>
</g>
</g>
<!-- Node14&#45;&gt;Node15 -->
<g id="edge14" class="edge">
<title>Node14&#45;&gt;Node15</title>
<path fill="none" stroke="#63b8ff" d="M755.92,-317C766.92,-317 778.53,-317 789.73,-317"/>
<polygon fill="#63b8ff" stroke="#63b8ff" points="789.88,-320.5 799.88,-317 789.88,-313.5 789.88,-320.5"/>
</g>
<!-- Node18 -->
<g id="node18" class="node">
<title>Node18</title>
<g id="a_node18"><a xlink:href="namespacea60.html#ac39b0d667e2ffa7a1bf2df7cc4e5ac38" target="_top" xlink:title="IFF either of the above is true.">
<polygon fill="white" stroke="#666666" points="595.5,-369.5 484.5,-369.5 484.5,-352.5 595.5,-352.5 595.5,-369.5"/>
<text text-anchor="middle" x="540" y="-359.1" font-family="SourceSans" font-size="8.00">a60::is_meta_peer_lost</text>
</a>
</g>
</g>
<!-- Node17&#45;&gt;Node18 -->
<g id="edge18" class="edge">
<title>Node17&#45;&gt;Node18</title>
<path fill="none" stroke="#63b8ff" d="M444.32,-360.37C453.97,-360.43 464.09,-360.5 473.99,-360.57"/>
<polygon fill="#63b8ff" stroke="#63b8ff" points="474.16,-364.07 484.19,-360.63 474.21,-357.07 474.16,-364.07"/>
</g>
<!-- Node19 -->
<g id="node19" class="node">
<title>Node19</title>
<g id="a_node19"><a xlink:href="namespacea60.html#a63bf2b0abf68edc3f3e74a0811fe771b" target="_top" xlink:title="Error checking support. Null Island Check (aka latitude and longitude set to zero).">
<polygon fill="white" stroke="#666666" points="752.5,-418 645.5,-418 645.5,-392 752.5,-392 752.5,-418"/>
<text text-anchor="start" x="653.5" y="-407.6" font-family="SourceSans" font-size="8.00">a60::is_meta_peer_on</text>
<text text-anchor="middle" x="699" y="-398.6" font-family="SourceSans" font-size="8.00">_null_island</text>
</a>
</g>
</g>
<!-- Node18&#45;&gt;Node19 -->
<g id="edge19" class="edge">
<title>Node18&#45;&gt;Node19</title>
<path fill="none" stroke="#63b8ff" d="M571.64,-369.59C591.48,-375.15 617.9,-382.55 641.46,-389.15"/>
<polygon fill="#63b8ff" stroke="#63b8ff" points="640.77,-392.6 651.35,-391.93 642.66,-385.86 640.77,-392.6"/>
</g>
<!-- Node20 -->
<g id="node20" class="node">
<title>Node20</title>
<g id="a_node20"><a xlink:href="namespacea60.html#a0ff511c579a9f94ffff788b1cd4ae864" target="_top" xlink:title="Null Country Check.">
<polygon fill="white" stroke="#666666" points="762.5,-374 635.5,-374 635.5,-348 762.5,-348 762.5,-374"/>
<text text-anchor="start" x="643.5" y="-363.6" font-family="SourceSans" font-size="8.00">a60::is_meta_peer_without</text>
<text text-anchor="middle" x="699" y="-354.6" font-family="SourceSans" font-size="8.00">_country</text>
</a>
</g>
</g>
<!-- Node18&#45;&gt;Node20 -->
<g id="edge20" class="edge">
<title>Node18&#45;&gt;Node20</title>
<path fill="none" stroke="#63b8ff" d="M595.91,-361C605.36,-361 615.31,-361 625.15,-361"/>
<polygon fill="#63b8ff" stroke="#63b8ff" points="625.33,-364.5 635.33,-361 625.33,-357.5 625.33,-364.5"/>
</g>
<!-- Node21&#45;&gt;Node4 -->
<g id="edge22" class="edge">
<title>Node21&#45;&gt;Node4</title>
<path fill="none" stroke="#63b8ff" d="M295.32,-81.19C347.56,-85.01 424.5,-90.63 477.89,-94.53"/>
<polygon fill="#63b8ff" stroke="#63b8ff" points="477.68,-98.03 487.9,-95.27 478.19,-91.05 477.68,-98.03"/>
</g>
<!-- Node22 -->
<g id="node22" class="node">
<title>Node22</title>
<g id="a_node22"><a xlink:href="namespacea60_1_1io.html#aa5fbb8ab63397dd45c4a54c0758935ef" target="_top" xlink:title="Sanity check input existence.">
<polygon fill="white" stroke="#666666" points="440.5,-70 336.5,-70 336.5,-44 440.5,-44 440.5,-70"/>
<text text-anchor="start" x="344.5" y="-59.6" font-family="SourceSans" font-size="8.00">a60::io::sanity_check</text>
<text text-anchor="middle" x="388.5" y="-50.6" font-family="SourceSans" font-size="8.00">_input</text>
</a>
</g>
</g>
<!-- Node21&#45;&gt;Node22 -->
<g id="edge23" class="edge">
<title>Node21&#45;&gt;Node22</title>
<path fill="none" stroke="#63b8ff" d="M295.37,-69.32C305.5,-67.97 316.08,-66.55 326.31,-65.19"/>
<polygon fill="#63b8ff" stroke="#63b8ff" points="326.94,-68.63 336.39,-63.84 326.01,-61.69 326.94,-68.63"/>
</g>
<!-- Node23 -->
<g id="node23" class="node">
<title>Node23</title>
<g id="a_node23"><a xlink:href="namespacea60.html#a34d53970ee23a7c014960a2bf1a10e2b" target="_top" xlink:title="Search DOM for string literals.">
<polygon fill="white" stroke="#666666" points="440,-26 337,-26 337,0 440,0 440,-26"/>
<text text-anchor="start" x="345" y="-15.6" font-family="SourceSans" font-size="8.00">a60::search_dom_for</text>
<text text-anchor="middle" x="388.5" y="-6.6" font-family="SourceSans" font-size="8.00">_string_field</text>
</a>
</g>
</g>
<!-- Node21&#45;&gt;Node23 -->
<g id="edge24" class="edge">
<title>Node21&#45;&gt;Node23</title>
<path fill="none" stroke="#63b8ff" d="M272,-63.94C279.63,-60.83 287.64,-57.41 295,-54 311.41,-46.38 314.54,-42.52 331,-35 334.77,-33.28 338.72,-31.57 342.7,-29.9"/>
<polygon fill="#63b8ff" stroke="#63b8ff" points="344.04,-33.13 351.98,-26.12 341.4,-26.65 344.04,-33.13"/>
</g>
</g>
</svg>
