<?xml version="1.0" encoding="UTF-8" standalone="no"?>
<!DOCTYPE svg PUBLIC "-//W3C//DTD SVG 1.1//EN"
 "http://www.w3.org/Graphics/SVG/1.1/DTD/svg11.dtd">
<!-- Generated by graphviz version 5.0.0 (0)
 -->
<!-- Title: a60::collection::torrent_files Pages: 1 -->
<svg width="406pt" height="114pt"
 viewBox="0.00 0.00 406.00 113.50" xmlns="http://www.w3.org/2000/svg" xmlns:xlink="http://www.w3.org/1999/xlink">
<g id="graph0" class="graph" transform="scale(1 1) rotate(0) translate(4 109.5)">
<title>a60::collection::torrent_files</title>
<!-- Node1 -->
<g id="node1" class="node">
<title>Node1</title>
<g id="a_node1"><a xlink:title=" ">
<polygon fill="#999999" stroke="#666666" points="111,-90 0,-90 0,-64 111,-64 111,-90"/>
<text text-anchor="start" x="8" y="-79.6" font-family="SourceSans" font-size="8.00">a60::collection::torrent</text>
<text text-anchor="middle" x="55.5" y="-70.6" font-family="SourceSans" font-size="8.00">_files</text>
</a>
</g>
</g>
<!-- Node2 -->
<g id="node2" class="node">
<title>Node2</title>
<g id="a_node2"><a xlink:href="namespacea60_1_1io.html#aea30b8fc474f5a7b922516dc1e199037" target="_top" xlink:title="Takes a string representing a directory, returns a sorted list of contents as a std::vector&lt;string&gt;.">
<polygon fill="white" stroke="#666666" points="257.5,-105.5 147.5,-105.5 147.5,-88.5 257.5,-88.5 257.5,-105.5"/>
<text text-anchor="middle" x="202.5" y="-95.1" font-family="SourceSans" font-size="8.00">a60::io::populate_files</text>
</a>
</g>
</g>
<!-- Node1&#45;&gt;Node2 -->
<g id="edge1" class="edge">
<title>Node1&#45;&gt;Node2</title>
<path fill="none" stroke="#63b8ff" d="M111.32,-84.56C119.73,-85.72 128.49,-86.93 137.09,-88.12"/>
<polygon fill="#63b8ff" stroke="#63b8ff" points="136.7,-91.6 147.09,-89.49 137.66,-84.66 136.7,-91.6"/>
</g>
<!-- Node3 -->
<g id="node3" class="node">
<title>Node3</title>
<g id="a_node3"><a xlink:href="structa60_1_1collection.html#a997d47a7fc3ffcabaeba3fd74cce0d82" target="_top" xlink:title=" ">
<polygon fill="white" stroke="#666666" points="258,-70 147,-70 147,-44 258,-44 258,-70"/>
<text text-anchor="start" x="155" y="-59.6" font-family="SourceSans" font-size="8.00">a60::collection::torrent</text>
<text text-anchor="middle" x="202.5" y="-50.6" font-family="SourceSans" font-size="8.00">_directory</text>
</a>
</g>
</g>
<!-- Node1&#45;&gt;Node3 -->
<g id="edge2" class="edge">
<title>Node1&#45;&gt;Node3</title>
<path fill="none" stroke="#63b8ff" d="M111.32,-69.44C119.53,-68.31 128.06,-67.13 136.46,-65.97"/>
<polygon fill="#63b8ff" stroke="#63b8ff" points="137.18,-69.41 146.6,-64.57 136.22,-62.47 137.18,-69.41"/>
</g>
<!-- Node4 -->
<g id="node4" class="node">
<title>Node4</title>
<g id="a_node4"><a xlink:href="namespacea60_1_1io.html#a16f17ea9e02c1975ca17b77e46cf7629" target="_top" xlink:title="Make sure a path ends in &#39;/&#39;;.">
<polygon fill="white" stroke="#666666" points="391,-105.5 301,-105.5 301,-88.5 391,-88.5 391,-105.5"/>
<text text-anchor="middle" x="346" y="-95.1" font-family="SourceSans" font-size="8.00">a60::io::end_path</text>
</a>
</g>
</g>
<!-- Node3&#45;&gt;Node4 -->
<g id="edge3" class="edge">
<title>Node3&#45;&gt;Node4</title>
<path fill="none" stroke="#63b8ff" d="M249.83,-70.1C267.62,-75.13 287.75,-80.82 304.91,-85.67"/>
<polygon fill="#63b8ff" stroke="#63b8ff" points="304.05,-89.06 314.62,-88.41 305.95,-82.32 304.05,-89.06"/>
</g>
<!-- Node5 -->
<g id="node5" class="node">
<title>Node5</title>
<g id="a_node5"><a xlink:href="namespacea60_1_1io.html#ac95e5271a27a23bc2336d84b3f821fa2" target="_top" xlink:title="Constant filesystem and run&#45;time resources.">
<polygon fill="white" stroke="#666666" points="398,-70 294,-70 294,-44 398,-44 398,-70"/>
<text text-anchor="start" x="302" y="-59.6" font-family="SourceSans" font-size="8.00">a60::io::get_run_time</text>
<text text-anchor="middle" x="346" y="-50.6" font-family="SourceSans" font-size="8.00">_resources</text>
</a>
</g>
</g>
<!-- Node3&#45;&gt;Node5 -->
<g id="edge4" class="edge">
<title>Node3&#45;&gt;Node5</title>
<path fill="none" stroke="#63b8ff" d="M258.21,-57C266.5,-57 275.1,-57 283.53,-57"/>
<polygon fill="#63b8ff" stroke="#63b8ff" points="283.69,-60.5 293.69,-57 283.69,-53.5 283.69,-60.5"/>
</g>
<!-- Node6 -->
<g id="node6" class="node">
<title>Node6</title>
<g id="a_node6"><a xlink:href="namespacea60_1_1io.html#aa5fbb8ab63397dd45c4a54c0758935ef" target="_top" xlink:title="Sanity check input existence.">
<polygon fill="white" stroke="#666666" points="398,-26 294,-26 294,0 398,0 398,-26"/>
<text text-anchor="start" x="302" y="-15.6" font-family="SourceSans" font-size="8.00">a60::io::sanity_check</text>
<text text-anchor="middle" x="346" y="-6.6" font-family="SourceSans" font-size="8.00">_input</text>
</a>
</g>
</g>
<!-- Node3&#45;&gt;Node6 -->
<g id="edge5" class="edge">
<title>Node3&#45;&gt;Node6</title>
<path fill="none" stroke="#63b8ff" d="M245.57,-43.92C260.55,-39.26 277.59,-33.96 293.28,-29.08"/>
<polygon fill="#63b8ff" stroke="#63b8ff" points="294.34,-32.42 302.85,-26.11 292.26,-25.74 294.34,-32.42"/>
</g>
</g>
</svg>
