<?xml version="1.0" encoding="UTF-8" standalone="no"?>
<!DOCTYPE svg PUBLIC "-//W3C//DTD SVG 1.1//EN"
 "http://www.w3.org/Graphics/SVG/1.1/DTD/svg11.dtd">
<!-- Generated by graphviz version 5.0.0 (0)
 -->
<!-- Title: a60::swarm::get_exit_nodes Pages: 1 -->
<svg width="677pt" height="194pt"
 viewBox="0.00 0.00 677.00 193.50" xmlns="http://www.w3.org/2000/svg" xmlns:xlink="http://www.w3.org/1999/xlink">
<g id="graph0" class="graph" transform="scale(1 1) rotate(0) translate(4 189.5)">
<title>a60::swarm::get_exit_nodes</title>
<!-- Node1 -->
<g id="node1" class="node">
<title>Node1</title>
<g id="a_node1"><a xlink:title=" ">
<polygon fill="#999999" stroke="#666666" points="103,-106 0,-106 0,-80 103,-80 103,-106"/>
<text text-anchor="start" x="8" y="-95.6" font-family="SourceSans" font-size="8.00">a60::swarm::get_exit</text>
<text text-anchor="middle" x="51.5" y="-86.6" font-family="SourceSans" font-size="8.00">_nodes</text>
</a>
</g>
</g>
<!-- Node2 -->
<g id="node2" class="node">
<title>Node2</title>
<g id="a_node2"><a xlink:href="namespacea60.html#a241f1edd5dab1f67b02a080b2833238c" target="_top" xlink:title="Create list of current Tor Exit Nodes.">
<polygon fill="white" stroke="#666666" points="241,-106 139,-106 139,-80 241,-80 241,-106"/>
<text text-anchor="start" x="147" y="-95.6" font-family="SourceSans" font-size="8.00">a60::exit_node_meta</text>
<text text-anchor="middle" x="190" y="-86.6" font-family="SourceSans" font-size="8.00">_peers</text>
</a>
</g>
</g>
<!-- Node1&#45;&gt;Node2 -->
<g id="edge1" class="edge">
<title>Node1&#45;&gt;Node2</title>
<path fill="none" stroke="#63b8ff" d="M103.33,-93C111.52,-93 120.07,-93 128.46,-93"/>
<polygon fill="#63b8ff" stroke="#63b8ff" points="128.58,-96.5 138.58,-93 128.58,-89.5 128.58,-96.5"/>
</g>
<!-- Node3 -->
<g id="node3" class="node">
<title>Node3</title>
<g id="a_node3"><a xlink:href="namespacea60.html#a55d7f8d5aa523f5270d478a635ee03b4" target="_top" xlink:title="Survey current tor exit nodes and convert into meta_peers. Assume input list is sorted low to high,...">
<polygon fill="white" stroke="#666666" points="380,-106 277,-106 277,-80 380,-80 380,-106"/>
<text text-anchor="start" x="285" y="-95.6" font-family="SourceSans" font-size="8.00">a60::make_exit_node</text>
<text text-anchor="middle" x="328.5" y="-86.6" font-family="SourceSans" font-size="8.00">_meta_peers</text>
</a>
</g>
</g>
<!-- Node2&#45;&gt;Node3 -->
<g id="edge2" class="edge">
<title>Node2&#45;&gt;Node3</title>
<path fill="none" stroke="#63b8ff" d="M241.05,-93C249.47,-93 258.3,-93 266.95,-93"/>
<polygon fill="#63b8ff" stroke="#63b8ff" points="267,-96.5 277,-93 267,-89.5 267,-96.5"/>
</g>
<!-- Node4 -->
<g id="node4" class="node">
<title>Node4</title>
<g id="a_node4"><a xlink:href="namespacea60_1_1io.html#a16f17ea9e02c1975ca17b77e46cf7629" target="_top" xlink:title="Make sure a path ends in &#39;/&#39;;.">
<polygon fill="white" stroke="#666666" points="517.5,-185.5 427.5,-185.5 427.5,-168.5 517.5,-168.5 517.5,-185.5"/>
<text text-anchor="middle" x="472.5" y="-175.1" font-family="SourceSans" font-size="8.00">a60::io::end_path</text>
</a>
</g>
</g>
<!-- Node3&#45;&gt;Node4 -->
<g id="edge3" class="edge">
<title>Node3&#45;&gt;Node4</title>
<path fill="none" stroke="#63b8ff" d="M343.46,-106.08C359.76,-120.73 388.06,-144.36 416,-159 420.21,-161.21 424.74,-163.21 429.33,-165.01"/>
<polygon fill="#63b8ff" stroke="#63b8ff" points="428.16,-168.31 438.76,-168.41 430.54,-161.72 428.16,-168.31"/>
</g>
<!-- Node5 -->
<g id="node5" class="node">
<title>Node5</title>
<g id="a_node5"><a xlink:href="namespacea60_1_1io.html#ac95e5271a27a23bc2336d84b3f821fa2" target="_top" xlink:title="Constant filesystem and run&#45;time resources.">
<polygon fill="white" stroke="#666666" points="524.5,-150 420.5,-150 420.5,-124 524.5,-124 524.5,-150"/>
<text text-anchor="start" x="428.5" y="-139.6" font-family="SourceSans" font-size="8.00">a60::io::get_run_time</text>
<text text-anchor="middle" x="472.5" y="-130.6" font-family="SourceSans" font-size="8.00">_resources</text>
</a>
</g>
</g>
<!-- Node3&#45;&gt;Node5 -->
<g id="edge4" class="edge">
<title>Node3&#45;&gt;Node5</title>
<path fill="none" stroke="#63b8ff" d="M371.72,-106.08C386.75,-110.74 403.85,-116.04 419.6,-120.92"/>
<polygon fill="#63b8ff" stroke="#63b8ff" points="418.61,-124.28 429.2,-123.89 420.68,-117.59 418.61,-124.28"/>
</g>
<!-- Node6 -->
<g id="node6" class="node">
<title>Node6</title>
<g id="a_node6"><a xlink:href="namespacea60.html#a439bb950e8e56f95462cb70ab0bab2f0" target="_top" xlink:title="Pruned line of text that starts with an IP4 address.">
<polygon fill="white" stroke="#666666" points="529,-106 416,-106 416,-80 529,-80 529,-106"/>
<text text-anchor="start" x="424" y="-95.6" font-family="SourceSans" font-size="8.00">a60::line_to_ip_address</text>
<text text-anchor="middle" x="472.5" y="-86.6" font-family="SourceSans" font-size="8.00">_as_string</text>
</a>
</g>
</g>
<!-- Node3&#45;&gt;Node6 -->
<g id="edge5" class="edge">
<title>Node3&#45;&gt;Node6</title>
<path fill="none" stroke="#63b8ff" d="M380.36,-93C388.51,-93 397.04,-93 405.48,-93"/>
<polygon fill="#63b8ff" stroke="#63b8ff" points="405.7,-96.5 415.7,-93 405.7,-89.5 405.7,-96.5"/>
</g>
<!-- Node7 -->
<g id="node7" class="node">
<title>Node7</title>
<g id="a_node7"><a xlink:href="namespacea60.html#ad300edc3a7396b9f52a64f37e9443891" target="_top" xlink:title="No GeoIP.">
<polygon fill="white" stroke="#666666" points="526,-61.5 419,-61.5 419,-44.5 526,-44.5 526,-61.5"/>
<text text-anchor="middle" x="472.5" y="-51.1" font-family="SourceSans" font-size="8.00">a60::make_meta_peer</text>
</a>
</g>
</g>
<!-- Node3&#45;&gt;Node7 -->
<g id="edge6" class="edge">
<title>Node3&#45;&gt;Node7</title>
<path fill="none" stroke="#63b8ff" d="M376,-79.9C393.85,-74.87 414.05,-69.18 431.27,-64.33"/>
<polygon fill="#63b8ff" stroke="#63b8ff" points="432.34,-67.67 441.02,-61.59 430.44,-60.93 432.34,-67.67"/>
</g>
<!-- Node8 -->
<g id="node8" class="node">
<title>Node8</title>
<g id="a_node8"><a xlink:href="structa60_1_1geo_1_1map__base.html#a9215731f10e2fa8488b0e081c2a5cef4" target="_top" xlink:title=" ">
<polygon fill="white" stroke="#666666" points="523.5,-26 421.5,-26 421.5,0 523.5,0 523.5,-26"/>
<text text-anchor="start" x="429.5" y="-15.6" font-family="SourceSans" font-size="8.00">a60::geo::map_base</text>
<text text-anchor="middle" x="472.5" y="-6.6" font-family="SourceSans" font-size="8.00">::open</text>
</a>
</g>
</g>
<!-- Node3&#45;&gt;Node8 -->
<g id="edge7" class="edge">
<title>Node3&#45;&gt;Node8</title>
<path fill="none" stroke="#63b8ff" d="M347.11,-79.96C364.17,-67.67 391.06,-49.23 416,-36 419.73,-34.02 423.67,-32.09 427.66,-30.25"/>
<polygon fill="#63b8ff" stroke="#63b8ff" points="429.26,-33.37 436.98,-26.11 426.42,-26.97 429.26,-33.37"/>
</g>
<!-- Node9 -->
<g id="node9" class="node">
<title>Node9</title>
<g id="a_node9"><a xlink:href="namespacea60_1_1io.html#aa5fbb8ab63397dd45c4a54c0758935ef" target="_top" xlink:title="Sanity check input existence.">
<polygon fill="white" stroke="#666666" points="669,-26 565,-26 565,0 669,0 669,-26"/>
<text text-anchor="start" x="573" y="-15.6" font-family="SourceSans" font-size="8.00">a60::io::sanity_check</text>
<text text-anchor="middle" x="617" y="-6.6" font-family="SourceSans" font-size="8.00">_input</text>
</a>
</g>
</g>
<!-- Node8&#45;&gt;Node9 -->
<g id="edge8" class="edge">
<title>Node8&#45;&gt;Node9</title>
<path fill="none" stroke="#63b8ff" d="M523.74,-13C533.72,-13 544.3,-13 554.6,-13"/>
<polygon fill="#63b8ff" stroke="#63b8ff" points="554.77,-16.5 564.77,-13 554.77,-9.5 554.77,-16.5"/>
</g>
</g>
</svg>
