<?xml version="1.0" encoding="UTF-8" standalone="no"?>
<!DOCTYPE svg PUBLIC "-//W3C//DTD SVG 1.1//EN"
 "http://www.w3.org/Graphics/SVG/1.1/DTD/svg11.dtd">
<!-- Generated by graphviz version 5.0.0 (0)
 -->
<!-- Title: /home/bkoz/src/alpha60&#45;docs/src/a60&#45;geo.h Pages: 1 -->
<svg width="1156pt" height="193pt"
 viewBox="0.00 0.00 1155.50 193.00" xmlns="http://www.w3.org/2000/svg" xmlns:xlink="http://www.w3.org/1999/xlink">
<g id="graph0" class="graph" transform="scale(1 1) rotate(0) translate(4 189)">
<title>/home/bkoz/src/alpha60&#45;docs/src/a60&#45;geo.h</title>
<!-- Node1 -->
<g id="node1" class="node">
<title>Node1</title>
<g id="a_node1"><a xlink:title=" ">
<polygon fill="#999999" stroke="#666666" points="522,-185 406,-185 406,-159 522,-159 522,-185"/>
<text text-anchor="start" x="414" y="-174.6" font-family="SourceSans" font-size="8.00">/home/bkoz/src/alpha60</text>
<text text-anchor="middle" x="464" y="-165.6" font-family="SourceSans" font-size="8.00">&#45;docs/src/a60&#45;geo.h</text>
</a>
</g>
</g>
<!-- Node2 -->
<g id="node2" class="node">
<title>Node2</title>
<g id="a_node2"><a xlink:title=" ">
<polygon fill="#e0e0e0" stroke="#999999" points="42,-17 0,-17 0,0 42,0 42,-17"/>
<text text-anchor="middle" x="21" y="-6.6" font-family="SourceSans" font-size="8.00">cmath</text>
</a>
</g>
</g>
<!-- Node1&#45;&gt;Node2 -->
<g id="edge1" class="edge">
<title>Node1&#45;&gt;Node2</title>
<path fill="none" stroke="#63b8ff" d="M411.31,-158.99C375.33,-150.27 326.79,-137.5 285,-123 194.76,-91.69 91.84,-43.73 45.68,-21.54"/>
<polygon fill="#63b8ff" stroke="#63b8ff" points="46.99,-18.28 36.46,-17.08 43.94,-24.58 46.99,-18.28"/>
</g>
<!-- Node3 -->
<g id="node3" class="node">
<title>Node3</title>
<g id="a_node3"><a xlink:title=" ">
<polygon fill="#e0e0e0" stroke="#999999" points="89.5,-17 60.5,-17 60.5,0 89.5,0 89.5,-17"/>
<text text-anchor="middle" x="75" y="-6.6" font-family="SourceSans" font-size="8.00">set</text>
</a>
</g>
</g>
<!-- Node1&#45;&gt;Node3 -->
<g id="edge2" class="edge">
<title>Node1&#45;&gt;Node3</title>
<path fill="none" stroke="#63b8ff" d="M427.33,-158.97C399.78,-149.72 361.24,-136.3 328,-123 242.4,-88.76 143.28,-42.23 98.78,-20.96"/>
<polygon fill="#63b8ff" stroke="#63b8ff" points="100.18,-17.75 89.65,-16.58 97.15,-24.06 100.18,-17.75"/>
</g>
<!-- Node4 -->
<g id="node4" class="node">
<title>Node4</title>
<g id="a_node4"><a xlink:title=" ">
<polygon fill="#e0e0e0" stroke="#999999" points="565,-123 507,-123 507,-106 565,-106 565,-123"/>
<text text-anchor="middle" x="536" y="-112.6" font-family="SourceSans" font-size="8.00">functional</text>
</a>
</g>
</g>
<!-- Node1&#45;&gt;Node4 -->
<g id="edge3" class="edge">
<title>Node1&#45;&gt;Node4</title>
<path fill="none" stroke="#63b8ff" d="M479.62,-158.96C490.83,-150.32 505.96,-138.65 517.73,-129.58"/>
<polygon fill="#63b8ff" stroke="#63b8ff" points="520.17,-132.13 525.95,-123.25 515.89,-126.58 520.17,-132.13"/>
</g>
<!-- Node5 -->
<g id="node5" class="node">
<title>Node5</title>
<g id="a_node5"><a xlink:title=" ">
<polygon fill="#e0e0e0" stroke="#999999" points="160,-17 108,-17 108,0 160,0 160,-17"/>
<text text-anchor="middle" x="134" y="-6.6" font-family="SourceSans" font-size="8.00">iostream</text>
</a>
</g>
</g>
<!-- Node1&#45;&gt;Node5 -->
<g id="edge4" class="edge">
<title>Node1&#45;&gt;Node5</title>
<path fill="none" stroke="#63b8ff" d="M439.37,-158.93C395.76,-137.57 302.09,-91.69 223,-53 201.23,-42.35 176.46,-30.25 158.59,-21.51"/>
<polygon fill="#63b8ff" stroke="#63b8ff" points="159.96,-18.29 149.44,-17.04 156.89,-24.58 159.96,-18.29"/>
</g>
<!-- Node6 -->
<g id="node6" class="node">
<title>Node6</title>
<g id="a_node6"><a xlink:href="a60-io_8h.html" target="_top" xlink:title=" ">
<polygon fill="white" stroke="#666666" points="489,-123 439,-123 439,-106 489,-106 489,-123"/>
<text text-anchor="middle" x="464" y="-112.6" font-family="SourceSans" font-size="8.00">a60&#45;io.h</text>
</a>
</g>
</g>
<!-- Node1&#45;&gt;Node6 -->
<g id="edge5" class="edge">
<title>Node1&#45;&gt;Node6</title>
<path fill="none" stroke="#63b8ff" d="M464,-158.96C464,-151.51 464,-141.8 464,-133.45"/>
<polygon fill="#63b8ff" stroke="#63b8ff" points="467.5,-133.25 464,-123.25 460.5,-133.25 467.5,-133.25"/>
</g>
<!-- Node25 -->
<g id="node25" class="node">
<title>Node25</title>
<g id="a_node25"><a xlink:title=" ">
<polygon fill="#e0e0e0" stroke="#999999" points="630.5,-123 583.5,-123 583.5,-106 630.5,-106 630.5,-123"/>
<text text-anchor="middle" x="607" y="-112.6" font-family="SourceSans" font-size="8.00">GeoIP.h</text>
</a>
</g>
</g>
<!-- Node1&#45;&gt;Node25 -->
<g id="edge27" class="edge">
<title>Node1&#45;&gt;Node25</title>
<path fill="none" stroke="#63b8ff" d="M495.03,-158.96C519.72,-149.37 554.01,-136.07 578.12,-126.71"/>
<polygon fill="#63b8ff" stroke="#63b8ff" points="579.4,-129.97 587.46,-123.09 576.87,-123.44 579.4,-129.97"/>
</g>
<!-- Node26 -->
<g id="node26" class="node">
<title>Node26</title>
<g id="a_node26"><a xlink:title=" ">
<polygon fill="#e0e0e0" stroke="#999999" points="711,-123 649,-123 649,-106 711,-106 711,-123"/>
<text text-anchor="middle" x="680" y="-112.6" font-family="SourceSans" font-size="8.00">GeoIPCity.h</text>
</a>
</g>
</g>
<!-- Node1&#45;&gt;Node26 -->
<g id="edge28" class="edge">
<title>Node1&#45;&gt;Node26</title>
<path fill="none" stroke="#63b8ff" d="M510.87,-158.96C549.77,-148.96 604.45,-134.91 640.99,-125.52"/>
<polygon fill="#63b8ff" stroke="#63b8ff" points="641.98,-128.88 650.79,-123 640.24,-122.1 641.98,-128.88"/>
</g>
<!-- Node7 -->
<g id="node7" class="node">
<title>Node7</title>
<g id="a_node7"><a xlink:title=" ">
<polygon fill="#e0e0e0" stroke="#999999" points="578.5,-70 531.5,-70 531.5,-53 578.5,-53 578.5,-70"/>
<text text-anchor="middle" x="555" y="-59.6" font-family="SourceSans" font-size="8.00">fstream</text>
</a>
</g>
</g>
<!-- Node6&#45;&gt;Node7 -->
<g id="edge6" class="edge">
<title>Node6&#45;&gt;Node7</title>
<path fill="none" stroke="#63b8ff" d="M477.43,-105.97C491.94,-97.84 515.32,-84.74 532.63,-75.04"/>
<polygon fill="#63b8ff" stroke="#63b8ff" points="534.51,-78 541.52,-70.06 531.08,-71.89 534.51,-78"/>
</g>
<!-- Node8 -->
<g id="node8" class="node">
<title>Node8</title>
<g id="a_node8"><a xlink:title=" ">
<polygon fill="#e0e0e0" stroke="#999999" points="711.5,-70 596.5,-70 596.5,-53 711.5,-53 711.5,-70"/>
<text text-anchor="middle" x="654" y="-59.6" font-family="SourceSans" font-size="8.00">experimental/filesystem</text>
</a>
</g>
</g>
<!-- Node6&#45;&gt;Node8 -->
<g id="edge7" class="edge">
<title>Node6&#45;&gt;Node8</title>
<path fill="none" stroke="#63b8ff" d="M489.23,-106.73C521.62,-98.03 578.11,-82.87 615.79,-72.76"/>
<polygon fill="#63b8ff" stroke="#63b8ff" points="617.13,-76.02 625.88,-70.05 615.31,-69.26 617.13,-76.02"/>
</g>
<!-- Node9 -->
<g id="node9" class="node">
<title>Node9</title>
<g id="a_node9"><a xlink:title=" ">
<polygon fill="#e0e0e0" stroke="#999999" points="786,-70 730,-70 730,-53 786,-53 786,-70"/>
<text text-anchor="middle" x="758" y="-59.6" font-family="SourceSans" font-size="8.00">stdexcept</text>
</a>
</g>
</g>
<!-- Node6&#45;&gt;Node9 -->
<g id="edge8" class="edge">
<title>Node6&#45;&gt;Node9</title>
<path fill="none" stroke="#63b8ff" d="M489.22,-107.77C492.17,-107.15 495.15,-106.54 498,-106 593.53,-87.77 620.56,-87.95 719.9,-70.13"/>
<polygon fill="#63b8ff" stroke="#63b8ff" points="720.52,-73.57 729.74,-68.35 719.28,-66.69 720.52,-73.57"/>
</g>
<!-- Node10 -->
<g id="node10" class="node">
<title>Node10</title>
<g id="a_node10"><a xlink:title=" ">
<polygon fill="#e0e0e0" stroke="#999999" points="455,-70 417,-70 417,-53 455,-53 455,-70"/>
<text text-anchor="middle" x="436" y="-59.6" font-family="SourceSans" font-size="8.00">regex</text>
</a>
</g>
</g>
<!-- Node6&#45;&gt;Node10 -->
<g id="edge9" class="edge">
<title>Node6&#45;&gt;Node10</title>
<path fill="none" stroke="#63b8ff" d="M459.87,-105.97C455.98,-98.89 450.03,-88.05 445.04,-78.96"/>
<polygon fill="#63b8ff" stroke="#63b8ff" points="448.03,-77.14 440.15,-70.06 441.89,-80.51 448.03,-77.14"/>
</g>
<!-- Node11 -->
<g id="node11" class="node">
<title>Node11</title>
<g id="a_node11"><a xlink:href="a60_8h.html" target="_top" xlink:title=" ">
<polygon fill="white" stroke="#666666" points="513,-70 473,-70 473,-53 513,-53 513,-70"/>
<text text-anchor="middle" x="493" y="-59.6" font-family="SourceSans" font-size="8.00">a60.h</text>
</a>
</g>
</g>
<!-- Node6&#45;&gt;Node11 -->
<g id="edge10" class="edge">
<title>Node6&#45;&gt;Node11</title>
<path fill="none" stroke="#63b8ff" d="M468.28,-105.97C472.31,-98.89 478.47,-88.05 483.64,-78.96"/>
<polygon fill="#63b8ff" stroke="#63b8ff" points="486.8,-80.48 488.7,-70.06 480.72,-77.02 486.8,-80.48"/>
</g>
<!-- Node11&#45;&gt;Node2 -->
<g id="edge11" class="edge">
<title>Node11&#45;&gt;Node2</title>
<path fill="none" stroke="#63b8ff" d="M472.81,-54.82C469.87,-54.13 466.87,-53.49 464,-53 285.6,-22.37 234.51,-46.56 52.13,-16.89"/>
<polygon fill="#63b8ff" stroke="#63b8ff" points="52.66,-13.43 42.22,-15.25 51.51,-20.33 52.66,-13.43"/>
</g>
<!-- Node11&#45;&gt;Node3 -->
<g id="edge15" class="edge">
<title>Node11&#45;&gt;Node3</title>
<path fill="none" stroke="#63b8ff" d="M472.81,-54.85C469.87,-54.15 466.87,-53.51 464,-53 306.79,-25.09 260.63,-48.48 99.85,-16.66"/>
<polygon fill="#63b8ff" stroke="#63b8ff" points="100.09,-13.13 89.6,-14.58 98.71,-20 100.09,-13.13"/>
</g>
<!-- Node11&#45;&gt;Node5 -->
<g id="edge26" class="edge">
<title>Node11&#45;&gt;Node5</title>
<path fill="none" stroke="#63b8ff" d="M472.8,-54.91C469.86,-54.21 466.86,-53.54 464,-53 337.39,-29.01 301.03,-38.37 170.32,-17.06"/>
<polygon fill="#63b8ff" stroke="#63b8ff" points="170.76,-13.59 160.32,-15.41 169.62,-20.5 170.76,-13.59"/>
</g>
<!-- Node12 -->
<g id="node12" class="node">
<title>Node12</title>
<g id="a_node12"><a xlink:title=" ">
<polygon fill="#e0e0e0" stroke="#999999" points="574,-17 536,-17 536,0 574,0 574,-17"/>
<text text-anchor="middle" x="555" y="-6.6" font-family="SourceSans" font-size="8.00">tuple</text>
</a>
</g>
</g>
<!-- Node11&#45;&gt;Node12 -->
<g id="edge12" class="edge">
<title>Node11&#45;&gt;Node12</title>
<path fill="none" stroke="#63b8ff" d="M502.15,-52.97C511.49,-45.29 526.22,-33.18 537.75,-23.69"/>
<polygon fill="#63b8ff" stroke="#63b8ff" points="540.31,-26.11 545.81,-17.06 535.87,-20.71 540.31,-26.11"/>
</g>
<!-- Node13 -->
<g id="node13" class="node">
<title>Node13</title>
<g id="a_node13"><a xlink:title=" ">
<polygon fill="#e0e0e0" stroke="#999999" points="632,-17 592,-17 592,0 632,0 632,-17"/>
<text text-anchor="middle" x="612" y="-6.6" font-family="SourceSans" font-size="8.00">string</text>
</a>
</g>
</g>
<!-- Node11&#45;&gt;Node13 -->
<g id="edge13" class="edge">
<title>Node11&#45;&gt;Node13</title>
<path fill="none" stroke="#63b8ff" d="M510.56,-52.97C530.16,-44.58 562.11,-30.88 584.91,-21.11"/>
<polygon fill="#63b8ff" stroke="#63b8ff" points="586.56,-24.21 594.37,-17.06 583.8,-17.78 586.56,-24.21"/>
</g>
<!-- Node14 -->
<g id="node14" class="node">
<title>Node14</title>
<g id="a_node14"><a xlink:title=" ">
<polygon fill="#e0e0e0" stroke="#999999" points="692,-17 650,-17 650,0 692,0 692,-17"/>
<text text-anchor="middle" x="671" y="-6.6" font-family="SourceSans" font-size="8.00">vector</text>
</a>
</g>
</g>
<!-- Node11&#45;&gt;Node14 -->
<g id="edge14" class="edge">
<title>Node11&#45;&gt;Node14</title>
<path fill="none" stroke="#63b8ff" d="M513.07,-54.75C544.07,-45.87 603.82,-28.75 640.28,-18.3"/>
<polygon fill="#63b8ff" stroke="#63b8ff" points="641.25,-21.66 649.9,-15.55 639.32,-14.94 641.25,-21.66"/>
</g>
<!-- Node15 -->
<g id="node15" class="node">
<title>Node15</title>
<g id="a_node15"><a xlink:title=" ">
<polygon fill="#e0e0e0" stroke="#999999" points="790,-17 710,-17 710,0 790,0 790,-17"/>
<text text-anchor="middle" x="750" y="-6.6" font-family="SourceSans" font-size="8.00">unordered_map</text>
</a>
</g>
</g>
<!-- Node11&#45;&gt;Node15 -->
<g id="edge16" class="edge">
<title>Node11&#45;&gt;Node15</title>
<path fill="none" stroke="#63b8ff" d="M513.3,-55.26C516.54,-54.47 519.85,-53.69 523,-53 583.47,-39.66 653.53,-26.59 699.64,-18.32"/>
<polygon fill="#63b8ff" stroke="#63b8ff" points="700.45,-21.73 709.68,-16.53 699.22,-14.84 700.45,-21.73"/>
</g>
<!-- Node16 -->
<g id="node16" class="node">
<title>Node16</title>
<g id="a_node16"><a xlink:title=" ">
<polygon fill="#e0e0e0" stroke="#999999" points="883.5,-17 808.5,-17 808.5,0 883.5,0 883.5,-17"/>
<text text-anchor="middle" x="846" y="-6.6" font-family="SourceSans" font-size="8.00">unordered_set</text>
</a>
</g>
</g>
<!-- Node11&#45;&gt;Node16 -->
<g id="edge17" class="edge">
<title>Node11&#45;&gt;Node16</title>
<path fill="none" stroke="#63b8ff" d="M513.26,-55.1C516.51,-54.33 519.84,-53.6 523,-53 641.34,-30.57 674.82,-34.52 798.09,-17.08"/>
<polygon fill="#63b8ff" stroke="#63b8ff" points="798.9,-20.5 808.3,-15.61 797.91,-13.57 798.9,-20.5"/>
</g>
<!-- Node17 -->
<g id="node17" class="node">
<title>Node17</title>
<g id="a_node17"><a xlink:title=" ">
<polygon fill="#e0e0e0" stroke="#999999" points="946,-17 902,-17 902,0 946,0 946,-17"/>
<text text-anchor="middle" x="924" y="-6.6" font-family="SourceSans" font-size="8.00">chrono</text>
</a>
</g>
</g>
<!-- Node11&#45;&gt;Node17 -->
<g id="edge18" class="edge">
<title>Node11&#45;&gt;Node17</title>
<path fill="none" stroke="#63b8ff" d="M513.25,-55.01C516.49,-54.25 519.83,-53.55 523,-53 682.63,-25.44 728.31,-43.75 891.81,-16.94"/>
<polygon fill="#63b8ff" stroke="#63b8ff" points="892.44,-20.38 901.73,-15.28 891.29,-13.48 892.44,-20.38"/>
</g>
<!-- Node18 -->
<g id="node18" class="node">
<title>Node18</title>
<g id="a_node18"><a xlink:title=" ">
<polygon fill="#e0e0e0" stroke="#999999" points="1014,-17 964,-17 964,0 1014,0 1014,-17"/>
<text text-anchor="middle" x="989" y="-6.6" font-family="SourceSans" font-size="8.00">numeric</text>
</a>
</g>
</g>
<!-- Node11&#45;&gt;Node18 -->
<g id="edge19" class="edge">
<title>Node11&#45;&gt;Node18</title>
<path fill="none" stroke="#63b8ff" d="M513.24,-54.97C516.49,-54.22 519.82,-53.53 523,-53 709.83,-22.07 762.7,-45 953.73,-16.96"/>
<polygon fill="#63b8ff" stroke="#63b8ff" points="954.45,-20.39 963.82,-15.45 953.41,-13.47 954.45,-20.39"/>
</g>
<!-- Node19 -->
<g id="node19" class="node">
<title>Node19</title>
<g id="a_node19"><a xlink:title=" ">
<polygon fill="#e0e0e0" stroke="#999999" points="1088,-17 1032,-17 1032,0 1088,0 1088,-17"/>
<text text-anchor="middle" x="1060" y="-6.6" font-family="SourceSans" font-size="8.00">algorithm</text>
</a>
</g>
</g>
<!-- Node11&#45;&gt;Node19 -->
<g id="edge20" class="edge">
<title>Node11&#45;&gt;Node19</title>
<path fill="none" stroke="#63b8ff" d="M513.23,-54.94C516.48,-54.19 519.82,-53.51 523,-53 739.78,-18.37 800.49,-46.35 1021.8,-16.96"/>
<polygon fill="#63b8ff" stroke="#63b8ff" points="1022.34,-20.42 1031.78,-15.61 1021.4,-13.48 1022.34,-20.42"/>
</g>
<!-- Node20 -->
<g id="node20" class="node">
<title>Node20</title>
<g id="a_node20"><a xlink:title=" ">
<polygon fill="#e0e0e0" stroke="#999999" points="1147.5,-17 1106.5,-17 1106.5,0 1147.5,0 1147.5,-17"/>
<text text-anchor="middle" x="1127" y="-6.6" font-family="SourceSans" font-size="8.00">locale</text>
</a>
</g>
</g>
<!-- Node11&#45;&gt;Node20 -->
<g id="edge21" class="edge">
<title>Node11&#45;&gt;Node20</title>
<path fill="none" stroke="#63b8ff" d="M513.23,-54.91C516.48,-54.17 519.82,-53.49 523,-53 772.39,-14.34 842.63,-55.1 1096.56,-16.68"/>
<polygon fill="#63b8ff" stroke="#63b8ff" points="1097.09,-20.14 1106.44,-15.16 1096.03,-13.23 1097.09,-20.14"/>
</g>
<!-- Node21 -->
<g id="node21" class="node">
<title>Node21</title>
<g id="a_node21"><a xlink:title=" ">
<polygon fill="#e0e0e0" stroke="#999999" points="227.5,-17 178.5,-17 178.5,0 227.5,0 227.5,-17"/>
<text text-anchor="middle" x="203" y="-6.6" font-family="SourceSans" font-size="8.00">codecvt</text>
</a>
</g>
</g>
<!-- Node11&#45;&gt;Node21 -->
<g id="edge22" class="edge">
<title>Node11&#45;&gt;Node21</title>
<path fill="none" stroke="#63b8ff" d="M472.78,-55C469.84,-54.28 466.85,-53.59 464,-53 366.69,-32.78 338.49,-36.14 237.8,-17.23"/>
<polygon fill="#63b8ff" stroke="#63b8ff" points="238.31,-13.76 227.83,-15.33 237,-20.64 238.31,-13.76"/>
</g>
<!-- Node22 -->
<g id="node22" class="node">
<title>Node22</title>
<g id="a_node22"><a xlink:title=" ">
<polygon fill="#e0e0e0" stroke="#999999" points="382.5,-17 245.5,-17 245.5,0 382.5,0 382.5,-17"/>
<text text-anchor="middle" x="314" y="-6.6" font-family="SourceSans" font-size="8.00">ext/codecvt_specializations.h</text>
</a>
</g>
</g>
<!-- Node11&#45;&gt;Node22 -->
<g id="edge23" class="edge">
<title>Node11&#45;&gt;Node22</title>
<path fill="none" stroke="#63b8ff" d="M472.81,-54.75C443.15,-46.3 387.29,-30.38 350.36,-19.86"/>
<polygon fill="#63b8ff" stroke="#63b8ff" points="351.06,-16.42 340.49,-17.05 349.14,-23.15 351.06,-16.42"/>
</g>
<!-- Node23 -->
<g id="node23" class="node">
<title>Node23</title>
<g id="a_node23"><a xlink:title=" ">
<polygon fill="#e0e0e0" stroke="#999999" points="449.5,-17 400.5,-17 400.5,0 449.5,0 449.5,-17"/>
<text text-anchor="middle" x="425" y="-6.6" font-family="SourceSans" font-size="8.00">sstream</text>
</a>
</g>
</g>
<!-- Node11&#45;&gt;Node23 -->
<g id="edge24" class="edge">
<title>Node11&#45;&gt;Node23</title>
<path fill="none" stroke="#63b8ff" d="M482.97,-52.97C472.52,-45.14 455.93,-32.7 443.17,-23.13"/>
<polygon fill="#63b8ff" stroke="#63b8ff" points="445.17,-20.26 435.07,-17.06 440.97,-25.86 445.17,-20.26"/>
</g>
<!-- Node24 -->
<g id="node24" class="node">
<title>Node24</title>
<g id="a_node24"><a xlink:title=" ">
<polygon fill="#e0e0e0" stroke="#999999" points="518,-17 468,-17 468,0 518,0 518,-17"/>
<text text-anchor="middle" x="493" y="-6.6" font-family="SourceSans" font-size="8.00">iomanip</text>
</a>
</g>
</g>
<!-- Node11&#45;&gt;Node24 -->
<g id="edge25" class="edge">
<title>Node11&#45;&gt;Node24</title>
<path fill="none" stroke="#63b8ff" d="M493,-52.97C493,-46.19 493,-35.97 493,-27.13"/>
<polygon fill="#63b8ff" stroke="#63b8ff" points="496.5,-27.06 493,-17.06 489.5,-27.06 496.5,-27.06"/>
</g>
</g>
</svg>
