<?xml version="1.0" encoding="UTF-8" standalone="no"?>
<!DOCTYPE svg PUBLIC "-//W3C//DTD SVG 1.1//EN"
 "http://www.w3.org/Graphics/SVG/1.1/DTD/svg11.dtd">
<!-- Generated by graphviz version 5.0.0 (0)
 -->
<!-- Title: a60::media_objects::yoi Pages: 1 -->
<svg width="124pt" height="131pt"
 viewBox="0.00 0.00 124.00 131.00" xmlns="http://www.w3.org/2000/svg" xmlns:xlink="http://www.w3.org/1999/xlink">
<g id="graph0" class="graph" transform="scale(1 1) rotate(0) translate(4 127)">
<title>a60::media_objects::yoi</title>
<!-- Node1 -->
<g id="node1" class="node">
<title>Node1</title>
<g id="a_node1"><a xlink:title=" ">
<polygon fill="#999999" stroke="#666666" points="116,-17 0,-17 0,0 116,0 116,-17"/>
<text text-anchor="middle" x="58" y="-6.6" font-family="SourceSans" font-size="8.00">a60::media_objects::yoi</text>
</a>
</g>
</g>
<!-- Node2 -->
<g id="node2" class="node">
<title>Node2</title>
<g id="a_node2"><a xlink:href="structa60_1_1collection.html" target="_top" xlink:title="All variants of torrents for the same media property.">
<polygon fill="white" stroke="#666666" points="97,-70 19,-70 19,-53 97,-53 97,-70"/>
<text text-anchor="middle" x="58" y="-59.6" font-family="SourceSans" font-size="8.00">a60::collection</text>
</a>
</g>
</g>
<!-- Node2&#45;&gt;Node1 -->
<g id="edge1" class="edge">
<title>Node2&#45;&gt;Node1</title>
<path fill="none" stroke="#63b8ff" d="M45.14,-43.2C43.7,-34.31 44.68,-23.92 48.07,-17.06"/>
<polygon fill="#63b8ff" stroke="#63b8ff" points="41.85,-44.41 48.09,-52.97 48.55,-42.39 41.85,-44.41"/>
</g>
<!-- Node2&#45;&gt;Node1 -->
<g id="edge3" class="edge">
<title>Node2&#45;&gt;Node1</title>
<path fill="none" stroke="#63b8ff" d="M58,-42.91C58,-34.08 58,-23.85 58,-17.06"/>
<polygon fill="#63b8ff" stroke="#63b8ff" points="54.5,-42.97 58,-52.97 61.5,-42.97 54.5,-42.97"/>
</g>
<!-- Node2&#45;&gt;Node1 -->
<g id="edge4" class="edge">
<title>Node2&#45;&gt;Node1</title>
<path fill="none" stroke="#63b8ff" d="M70.86,-43.2C72.3,-34.31 71.32,-23.92 67.93,-17.06"/>
<polygon fill="#63b8ff" stroke="#63b8ff" points="67.45,-42.39 67.91,-52.97 74.15,-44.41 67.45,-42.39"/>
</g>
<!-- Node3 -->
<g id="node3" class="node">
<title>Node3</title>
<g id="a_node3"><a xlink:href="structa60_1_1collection__base.html" target="_top" xlink:title=" ">
<polygon fill="white" stroke="#666666" points="109,-123 7,-123 7,-106 109,-106 109,-123"/>
<text text-anchor="middle" x="58" y="-112.6" font-family="SourceSans" font-size="8.00">a60::collection_base</text>
</a>
</g>
</g>
<!-- Node3&#45;&gt;Node2 -->
<g id="edge2" class="edge">
<title>Node3&#45;&gt;Node2</title>
<path fill="none" stroke="#63b8ff" d="M58,-95.91C58,-87.08 58,-76.85 58,-70.06"/>
<polygon fill="#63b8ff" stroke="#63b8ff" points="54.5,-95.97 58,-105.97 61.5,-95.97 54.5,-95.97"/>
</g>
</g>
</svg>
