<?xml version="1.0" encoding="UTF-8" standalone="no"?>
<!DOCTYPE svg PUBLIC "-//W3C//DTD SVG 1.1//EN"
 "http://www.w3.org/Graphics/SVG/1.1/DTD/svg11.dtd">
<!-- Generated by graphviz version 5.0.0 (0)
 -->
<!-- Title: /home/bkoz/src/alpha60&#45;docs/src/a60&#45;svg&#45;collection.h Pages: 1 -->
<svg width="2966pt" height="441pt"
 viewBox="0.00 0.00 2965.50 441.00" xmlns="http://www.w3.org/2000/svg" xmlns:xlink="http://www.w3.org/1999/xlink">
<g id="graph0" class="graph" transform="scale(1 1) rotate(0) translate(4 437)">
<title>/home/bkoz/src/alpha60&#45;docs/src/a60&#45;svg&#45;collection.h</title>
<!-- Node1 -->
<g id="node1" class="node">
<title>Node1</title>
<g id="a_node1"><a xlink:title=" ">
<polygon fill="#999999" stroke="#666666" points="1837.5,-433 1710.5,-433 1710.5,-407 1837.5,-407 1837.5,-433"/>
<text text-anchor="start" x="1718.5" y="-422.6" font-family="SourceSans" font-size="8.00">/home/bkoz/src/alpha60</text>
<text text-anchor="middle" x="1774" y="-413.6" font-family="SourceSans" font-size="8.00">&#45;docs/src/a60&#45;svg&#45;collection.h</text>
</a>
</g>
</g>
<!-- Node2 -->
<g id="node2" class="node">
<title>Node2</title>
<g id="a_node2"><a xlink:title=" ">
<polygon fill="#e0e0e0" stroke="#999999" points="332,-17 278,-17 278,0 332,0 332,-17"/>
<text text-anchor="middle" x="305" y="-6.6" font-family="SourceSans" font-size="8.00">algorithm</text>
</a>
</g>
</g>
<!-- Node1&#45;&gt;Node2 -->
<g id="edge1" class="edge">
<title>Node1&#45;&gt;Node2</title>
<path fill="none" stroke="#63b8ff" d="M1710.34,-418.02C1393.31,-412.74 0,-384.55 0,-297 0,-297 0,-297 0,-118 0,-61.79 186.19,-27.18 267.62,-14.73"/>
<polygon fill="#63b8ff" stroke="#63b8ff" points="268.56,-18.13 277.93,-13.19 267.53,-11.21 268.56,-18.13"/>
</g>
<!-- Node3 -->
<g id="node3" class="node">
<title>Node3</title>
<g id="a_node3"><a xlink:title=" ">
<polygon fill="#e0e0e0" stroke="#999999" points="1679.5,-366.5 1626.5,-366.5 1626.5,-349.5 1679.5,-349.5 1679.5,-366.5"/>
<text text-anchor="middle" x="1653" y="-356.1" font-family="SourceSans" font-size="8.00">a60&#45;svg.h</text>
</a>
</g>
</g>
<!-- Node1&#45;&gt;Node3 -->
<g id="edge2" class="edge">
<title>Node1&#45;&gt;Node3</title>
<path fill="none" stroke="#63b8ff" d="M1749.51,-406.86C1728.53,-396.45 1698.46,-381.54 1677.48,-371.14"/>
<polygon fill="#63b8ff" stroke="#63b8ff" points="1678.78,-367.88 1668.26,-366.57 1675.67,-374.15 1678.78,-367.88"/>
</g>
<!-- Node4 -->
<g id="node4" class="node">
<title>Node4</title>
<g id="a_node4"><a xlink:href="a60-svg-collection-color_8h.html" target="_top" xlink:title=" ">
<polygon fill="white" stroke="#666666" points="1780.5,-371 1697.5,-371 1697.5,-345 1780.5,-345 1780.5,-371"/>
<text text-anchor="start" x="1705.5" y="-360.6" font-family="SourceSans" font-size="8.00">a60&#45;svg&#45;collection</text>
<text text-anchor="middle" x="1739" y="-351.6" font-family="SourceSans" font-size="8.00">&#45;color.h</text>
</a>
</g>
</g>
<!-- Node1&#45;&gt;Node4 -->
<g id="edge3" class="edge">
<title>Node1&#45;&gt;Node4</title>
<path fill="none" stroke="#63b8ff" d="M1766.92,-406.86C1762.41,-399.13 1756.45,-388.92 1751.2,-379.92"/>
<polygon fill="#63b8ff" stroke="#63b8ff" points="1754.13,-378 1746.07,-371.12 1748.09,-381.53 1754.13,-378"/>
</g>
<!-- Node5 -->
<g id="node5" class="node">
<title>Node5</title>
<g id="a_node5"><a xlink:href="a60-svg-collection-glyphs_8h.html" target="_top" xlink:title=" ">
<polygon fill="white" stroke="#666666" points="1920.5,-371 1837.5,-371 1837.5,-345 1920.5,-345 1920.5,-371"/>
<text text-anchor="start" x="1845.5" y="-360.6" font-family="SourceSans" font-size="8.00">a60&#45;svg&#45;collection</text>
<text text-anchor="middle" x="1879" y="-351.6" font-family="SourceSans" font-size="8.00">&#45;glyphs.h</text>
</a>
</g>
</g>
<!-- Node1&#45;&gt;Node5 -->
<g id="edge4" class="edge">
<title>Node1&#45;&gt;Node5</title>
<path fill="none" stroke="#63b8ff" d="M1795.25,-406.86C1810.62,-398.07 1831.61,-386.08 1848.73,-376.3"/>
<polygon fill="#63b8ff" stroke="#63b8ff" points="1850.84,-379.12 1857.78,-371.12 1847.36,-373.05 1850.84,-379.12"/>
</g>
<!-- Node57 -->
<g id="node57" class="node">
<title>Node57</title>
<g id="a_node57"><a xlink:href="a60-svg-titles-and-legends_8h.html" target="_top" xlink:title=" ">
<polygon fill="white" stroke="#666666" points="1990.5,-309 1907.5,-309 1907.5,-283 1990.5,-283 1990.5,-309"/>
<text text-anchor="start" x="1915.5" y="-298.6" font-family="SourceSans" font-size="8.00">a60&#45;svg&#45;titles&#45;and</text>
<text text-anchor="middle" x="1949" y="-289.6" font-family="SourceSans" font-size="8.00">&#45;legends.h</text>
</a>
</g>
</g>
<!-- Node1&#45;&gt;Node57 -->
<g id="edge68" class="edge">
<title>Node1&#45;&gt;Node57</title>
<path fill="none" stroke="#63b8ff" d="M1837.87,-413.87C1869.59,-408.09 1906.14,-396.01 1930,-371 1943.09,-357.28 1947.49,-335.79 1948.81,-319.5"/>
<polygon fill="#63b8ff" stroke="#63b8ff" points="1952.33,-319.37 1949.31,-309.21 1945.33,-319.03 1952.33,-319.37"/>
</g>
<!-- Node58 -->
<g id="node58" class="node">
<title>Node58</title>
<g id="a_node58"><a xlink:href="a60-demographia_8h.html" target="_top" xlink:title=" ">
<polygon fill="white" stroke="#666666" points="1860,-304.5 1768,-304.5 1768,-287.5 1860,-287.5 1860,-304.5"/>
<text text-anchor="middle" x="1814" y="-294.1" font-family="SourceSans" font-size="8.00">a60&#45;demographia.h</text>
</a>
</g>
</g>
<!-- Node1&#45;&gt;Node58 -->
<g id="edge70" class="edge">
<title>Node1&#45;&gt;Node58</title>
<path fill="none" stroke="#63b8ff" d="M1777.98,-406.86C1785.11,-385.12 1800.06,-339.5 1808.29,-314.43"/>
<polygon fill="#63b8ff" stroke="#63b8ff" points="1811.66,-315.38 1811.45,-304.79 1805,-313.2 1811.66,-315.38"/>
</g>
<!-- Node6 -->
<g id="node6" class="node">
<title>Node6</title>
<g id="a_node6"><a xlink:href="a60-carto_8h.html" target="_top" xlink:title=" ">
<polygon fill="white" stroke="#666666" points="2313.5,-189.5 2254.5,-189.5 2254.5,-172.5 2313.5,-172.5 2313.5,-189.5"/>
<text text-anchor="middle" x="2284" y="-179.1" font-family="SourceSans" font-size="8.00">a60&#45;carto.h</text>
</a>
</g>
</g>
<!-- Node5&#45;&gt;Node6 -->
<g id="edge5" class="edge">
<title>Node5&#45;&gt;Node6</title>
<path fill="none" stroke="#63b8ff" d="M1910.49,-344.93C1935,-335.44 1969.81,-321.73 2000,-309 2096.14,-268.45 2208.92,-216.78 2258.46,-193.86"/>
<polygon fill="#63b8ff" stroke="#63b8ff" points="2260.18,-196.93 2267.78,-189.55 2257.23,-190.57 2260.18,-196.93"/>
</g>
<!-- Node36 -->
<g id="node36" class="node">
<title>Node36</title>
<g id="a_node36"><a xlink:href="a60-torrent_8h.html" target="_top" xlink:title=" ">
<polygon fill="white" stroke="#666666" points="996,-304.5 930,-304.5 930,-287.5 996,-287.5 996,-304.5"/>
<text text-anchor="middle" x="963" y="-294.1" font-family="SourceSans" font-size="8.00">a60&#45;torrent.h</text>
</a>
</g>
</g>
<!-- Node5&#45;&gt;Node36 -->
<g id="edge39" class="edge">
<title>Node5&#45;&gt;Node36</title>
<path fill="none" stroke="#63b8ff" d="M1837.4,-350.8C1822.2,-348.7 1804.85,-346.51 1789,-345 1490.27,-316.45 1129.03,-302.53 1006.24,-298.38"/>
<polygon fill="#63b8ff" stroke="#63b8ff" points="1006.23,-294.87 996.12,-298.04 1005.99,-301.87 1006.23,-294.87"/>
</g>
<!-- Node7 -->
<g id="node7" class="node">
<title>Node7</title>
<g id="a_node7"><a xlink:title=" ">
<polygon fill="#e0e0e0" stroke="#999999" points="2154.5,-17 2113.5,-17 2113.5,0 2154.5,0 2154.5,-17"/>
<text text-anchor="middle" x="2134" y="-6.6" font-family="SourceSans" font-size="8.00">cmath</text>
</a>
</g>
</g>
<!-- Node6&#45;&gt;Node7 -->
<g id="edge6" class="edge">
<title>Node6&#45;&gt;Node7</title>
<path fill="none" stroke="#63b8ff" d="M2273.09,-172.19C2260.92,-163.22 2240.98,-147.7 2226,-132 2192.61,-97 2160.23,-49.91 2144.28,-25.57"/>
<polygon fill="#63b8ff" stroke="#63b8ff" points="2147.21,-23.65 2138.83,-17.16 2141.33,-27.45 2147.21,-23.65"/>
</g>
<!-- Node8 -->
<g id="node8" class="node">
<title>Node8</title>
<g id="a_node8"><a xlink:title=" ">
<polygon fill="#e0e0e0" stroke="#999999" points="2201.5,-17 2172.5,-17 2172.5,0 2201.5,0 2201.5,-17"/>
<text text-anchor="middle" x="2187" y="-6.6" font-family="SourceSans" font-size="8.00">set</text>
</a>
</g>
</g>
<!-- Node6&#45;&gt;Node8 -->
<g id="edge7" class="edge">
<title>Node6&#45;&gt;Node8</title>
<path fill="none" stroke="#63b8ff" d="M2276.75,-172.29C2268.41,-163.16 2254.62,-147.26 2245,-132 2222.59,-96.44 2203.21,-50.86 2193.55,-26.56"/>
<polygon fill="#63b8ff" stroke="#63b8ff" points="2196.72,-25.04 2189.82,-17 2190.2,-27.59 2196.72,-25.04"/>
</g>
<!-- Node9 -->
<g id="node9" class="node">
<title>Node9</title>
<g id="a_node9"><a xlink:title=" ">
<polygon fill="#e0e0e0" stroke="#999999" points="2131,-127.5 2075,-127.5 2075,-110.5 2131,-110.5 2131,-127.5"/>
<text text-anchor="middle" x="2103" y="-117.1" font-family="SourceSans" font-size="8.00">functional</text>
</a>
</g>
</g>
<!-- Node6&#45;&gt;Node9 -->
<g id="edge8" class="edge">
<title>Node6&#45;&gt;Node9</title>
<path fill="none" stroke="#63b8ff" d="M2261.08,-172.4C2229.25,-161.85 2171.53,-142.72 2135.33,-130.72"/>
<polygon fill="#63b8ff" stroke="#63b8ff" points="2136.33,-127.36 2125.74,-127.54 2134.13,-134.01 2136.33,-127.36"/>
</g>
<!-- Node10 -->
<g id="node10" class="node">
<title>Node10</title>
<g id="a_node10"><a xlink:title=" ">
<polygon fill="#e0e0e0" stroke="#999999" points="2270,-17 2220,-17 2220,0 2270,0 2270,-17"/>
<text text-anchor="middle" x="2245" y="-6.6" font-family="SourceSans" font-size="8.00">iostream</text>
</a>
</g>
</g>
<!-- Node6&#45;&gt;Node10 -->
<g id="edge9" class="edge">
<title>Node6&#45;&gt;Node10</title>
<path fill="none" stroke="#63b8ff" d="M2277.84,-172.41C2270.92,-163.38 2259.98,-147.58 2255,-132 2244.27,-98.46 2251.95,-88.09 2249,-53 2248.29,-44.57 2247.44,-35.23 2246.71,-27.37"/>
<polygon fill="#63b8ff" stroke="#63b8ff" points="2250.17,-26.82 2245.75,-17.2 2243.2,-27.48 2250.17,-26.82"/>
</g>
<!-- Node11 -->
<g id="node11" class="node">
<title>Node11</title>
<g id="a_node11"><a xlink:title=" ">
<polygon fill="#e0e0e0" stroke="#999999" points="2304.5,-127.5 2263.5,-127.5 2263.5,-110.5 2304.5,-110.5 2304.5,-127.5"/>
<text text-anchor="middle" x="2284" y="-117.1" font-family="SourceSans" font-size="8.00">mutex</text>
</a>
</g>
</g>
<!-- Node6&#45;&gt;Node11 -->
<g id="edge10" class="edge">
<title>Node6&#45;&gt;Node11</title>
<path fill="none" stroke="#63b8ff" d="M2284,-172.16C2284,-163.48 2284,-149.23 2284,-137.82"/>
<polygon fill="#63b8ff" stroke="#63b8ff" points="2287.5,-137.66 2284,-127.66 2280.5,-137.66 2287.5,-137.66"/>
</g>
<!-- Node12 -->
<g id="node12" class="node">
<title>Node12</title>
<g id="a_node12"><a xlink:title=" ">
<polygon fill="#e0e0e0" stroke="#999999" points="2409,-127.5 2323,-127.5 2323,-110.5 2409,-110.5 2409,-127.5"/>
<text text-anchor="middle" x="2366" y="-117.1" font-family="SourceSans" font-size="8.00">condition_variable</text>
</a>
</g>
</g>
<!-- Node6&#45;&gt;Node12 -->
<g id="edge11" class="edge">
<title>Node6&#45;&gt;Node12</title>
<path fill="none" stroke="#63b8ff" d="M2294.39,-172.4C2307.69,-162.66 2331,-145.61 2347.4,-133.61"/>
<polygon fill="#63b8ff" stroke="#63b8ff" points="2349.7,-136.27 2355.7,-127.54 2345.56,-130.62 2349.7,-136.27"/>
</g>
<!-- Node13 -->
<g id="node13" class="node">
<title>Node13</title>
<g id="a_node13"><a xlink:title=" ">
<polygon fill="#e0e0e0" stroke="#999999" points="2498.5,-127.5 2427.5,-127.5 2427.5,-110.5 2498.5,-110.5 2498.5,-127.5"/>
<text text-anchor="middle" x="2463" y="-117.1" font-family="SourceSans" font-size="8.00">shared_mutex</text>
</a>
</g>
</g>
<!-- Node6&#45;&gt;Node13 -->
<g id="edge12" class="edge">
<title>Node6&#45;&gt;Node13</title>
<path fill="none" stroke="#63b8ff" d="M2306.67,-172.4C2338.14,-161.85 2395.23,-142.72 2431.02,-130.72"/>
<polygon fill="#63b8ff" stroke="#63b8ff" points="2432.14,-134.03 2440.51,-127.54 2429.92,-127.4 2432.14,-134.03"/>
</g>
<!-- Node14 -->
<g id="node14" class="node">
<title>Node14</title>
<g id="a_node14"><a xlink:href="a60-io_8h.html" target="_top" xlink:title=" ">
<polygon fill="white" stroke="#666666" points="1972.5,-127.5 1925.5,-127.5 1925.5,-110.5 1972.5,-110.5 1972.5,-127.5"/>
<text text-anchor="middle" x="1949" y="-117.1" font-family="SourceSans" font-size="8.00">a60&#45;io.h</text>
</a>
</g>
</g>
<!-- Node6&#45;&gt;Node14 -->
<g id="edge13" class="edge">
<title>Node6&#45;&gt;Node14</title>
<path fill="none" stroke="#63b8ff" d="M2254.27,-174.68C2192.08,-163.54 2048.59,-137.84 1982.92,-126.07"/>
<polygon fill="#63b8ff" stroke="#63b8ff" points="1983.16,-122.56 1972.7,-124.25 1981.93,-129.45 1983.16,-122.56"/>
</g>
<!-- Node32 -->
<g id="node32" class="node">
<title>Node32</title>
<g id="a_node32"><a xlink:href="a60-carto-projection_8h.html" target="_top" xlink:title=" ">
<polygon fill="white" stroke="#666666" points="2615.5,-127.5 2516.5,-127.5 2516.5,-110.5 2615.5,-110.5 2615.5,-127.5"/>
<text text-anchor="middle" x="2566" y="-117.1" font-family="SourceSans" font-size="8.00">a60&#45;carto&#45;projection.h</text>
</a>
</g>
</g>
<!-- Node6&#45;&gt;Node32 -->
<g id="edge35" class="edge">
<title>Node6&#45;&gt;Node32</title>
<path fill="none" stroke="#63b8ff" d="M2313.65,-173.69C2363,-163.19 2462.35,-142.05 2520.58,-129.66"/>
<polygon fill="#63b8ff" stroke="#63b8ff" points="2521.56,-133.03 2530.61,-127.53 2520.1,-126.19 2521.56,-133.03"/>
</g>
<!-- Node33 -->
<g id="node33" class="node">
<title>Node33</title>
<g id="a_node33"><a xlink:href="a60-carto-projection-un_8h.html" target="_top" xlink:title=" ">
<polygon fill="white" stroke="#666666" points="2746,-127.5 2634,-127.5 2634,-110.5 2746,-110.5 2746,-127.5"/>
<text text-anchor="middle" x="2690" y="-117.1" font-family="SourceSans" font-size="8.00">a60&#45;carto&#45;projection&#45;un.h</text>
</a>
</g>
</g>
<!-- Node6&#45;&gt;Node33 -->
<g id="edge36" class="edge">
<title>Node6&#45;&gt;Node33</title>
<path fill="none" stroke="#63b8ff" d="M2313.71,-176.25C2373.01,-168.68 2510.23,-150.66 2625,-132 2630.11,-131.17 2635.43,-130.26 2640.74,-129.32"/>
<polygon fill="#63b8ff" stroke="#63b8ff" points="2641.64,-132.72 2650.86,-127.5 2640.4,-125.83 2641.64,-132.72"/>
</g>
<!-- Node34 -->
<g id="node34" class="node">
<title>Node34</title>
<g id="a_node34"><a xlink:href="a60-carto-projection-cahill-keyes_8h.html" target="_top" xlink:title=" ">
<polygon fill="white" stroke="#666666" points="2856,-132 2764,-132 2764,-106 2856,-106 2856,-132"/>
<text text-anchor="start" x="2772" y="-121.6" font-family="SourceSans" font-size="8.00">a60&#45;carto&#45;projection</text>
<text text-anchor="middle" x="2810" y="-112.6" font-family="SourceSans" font-size="8.00">&#45;cahill&#45;keyes.h</text>
</a>
</g>
</g>
<!-- Node6&#45;&gt;Node34 -->
<g id="edge37" class="edge">
<title>Node6&#45;&gt;Node34</title>
<path fill="none" stroke="#63b8ff" d="M2313.64,-178.15C2386.73,-173.34 2581.6,-159.01 2753.85,-132.05"/>
<polygon fill="#63b8ff" stroke="#63b8ff" points="2754.53,-135.49 2763.86,-130.46 2753.43,-128.57 2754.53,-135.49"/>
</g>
<!-- Node35 -->
<g id="node35" class="node">
<title>Node35</title>
<g id="a_node35"><a xlink:href="a60-carto-frame_8h.html" target="_top" xlink:title=" ">
<polygon fill="white" stroke="#666666" points="2957.5,-127.5 2874.5,-127.5 2874.5,-110.5 2957.5,-110.5 2957.5,-127.5"/>
<text text-anchor="middle" x="2916" y="-117.1" font-family="SourceSans" font-size="8.00">a60&#45;carto&#45;frame.h</text>
</a>
</g>
</g>
<!-- Node6&#45;&gt;Node35 -->
<g id="edge38" class="edge">
<title>Node6&#45;&gt;Node35</title>
<path fill="none" stroke="#63b8ff" d="M2313.51,-179.11C2399.2,-176.2 2655.31,-165.14 2865,-132 2868.98,-131.37 2873.11,-130.6 2877.22,-129.76"/>
<polygon fill="#63b8ff" stroke="#63b8ff" points="2878.27,-133.11 2887.29,-127.54 2876.77,-126.27 2878.27,-133.11"/>
</g>
<!-- Node15 -->
<g id="node15" class="node">
<title>Node15</title>
<g id="a_node15"><a xlink:title=" ">
<polygon fill="#e0e0e0" stroke="#999999" points="1699,-70 1653,-70 1653,-53 1699,-53 1699,-70"/>
<text text-anchor="middle" x="1676" y="-59.6" font-family="SourceSans" font-size="8.00">fstream</text>
</a>
</g>
</g>
<!-- Node14&#45;&gt;Node15 -->
<g id="edge14" class="edge">
<title>Node14&#45;&gt;Node15</title>
<path fill="none" stroke="#63b8ff" d="M1925.25,-113.17C1876.5,-103.26 1765.05,-80.6 1709.19,-69.25"/>
<polygon fill="#63b8ff" stroke="#63b8ff" points="1709.61,-65.76 1699.11,-67.2 1708.22,-72.62 1709.61,-65.76"/>
</g>
<!-- Node16 -->
<g id="node16" class="node">
<title>Node16</title>
<g id="a_node16"><a xlink:title=" ">
<polygon fill="#e0e0e0" stroke="#999999" points="2003,-70 1895,-70 1895,-53 2003,-53 2003,-70"/>
<text text-anchor="middle" x="1949" y="-59.6" font-family="SourceSans" font-size="8.00">experimental/filesystem</text>
</a>
</g>
</g>
<!-- Node14&#45;&gt;Node16 -->
<g id="edge15" class="edge">
<title>Node14&#45;&gt;Node16</title>
<path fill="none" stroke="#63b8ff" d="M1949,-110.28C1949,-102.58 1949,-90.46 1949,-80.36"/>
<polygon fill="#63b8ff" stroke="#63b8ff" points="1952.5,-80.15 1949,-70.15 1945.5,-80.15 1952.5,-80.15"/>
</g>
<!-- Node17 -->
<g id="node17" class="node">
<title>Node17</title>
<g id="a_node17"><a xlink:title=" ">
<polygon fill="#e0e0e0" stroke="#999999" points="2074.5,-70 2021.5,-70 2021.5,-53 2074.5,-53 2074.5,-70"/>
<text text-anchor="middle" x="2048" y="-59.6" font-family="SourceSans" font-size="8.00">stdexcept</text>
</a>
</g>
</g>
<!-- Node14&#45;&gt;Node17 -->
<g id="edge16" class="edge">
<title>Node14&#45;&gt;Node17</title>
<path fill="none" stroke="#63b8ff" d="M1962.77,-110.28C1979.02,-101.17 2006.28,-85.89 2025.59,-75.06"/>
<polygon fill="#63b8ff" stroke="#63b8ff" points="2027.34,-78.09 2034.35,-70.15 2023.92,-71.99 2027.34,-78.09"/>
</g>
<!-- Node18 -->
<g id="node18" class="node">
<title>Node18</title>
<g id="a_node18"><a xlink:title=" ">
<polygon fill="#e0e0e0" stroke="#999999" points="2131,-70 2093,-70 2093,-53 2131,-53 2131,-70"/>
<text text-anchor="middle" x="2112" y="-59.6" font-family="SourceSans" font-size="8.00">regex</text>
</a>
</g>
</g>
<!-- Node14&#45;&gt;Node18 -->
<g id="edge17" class="edge">
<title>Node14&#45;&gt;Node18</title>
<path fill="none" stroke="#63b8ff" d="M1971.32,-110.4C2000.43,-100.49 2051.4,-83.13 2083.33,-72.26"/>
<polygon fill="#63b8ff" stroke="#63b8ff" points="2084.65,-75.51 2092.98,-68.97 2082.39,-68.88 2084.65,-75.51"/>
</g>
<!-- Node19 -->
<g id="node19" class="node">
<title>Node19</title>
<g id="a_node19"><a xlink:href="a60_8h.html" target="_top" xlink:title=" ">
<polygon fill="white" stroke="#666666" points="1761,-70 1723,-70 1723,-53 1761,-53 1761,-70"/>
<text text-anchor="middle" x="1742" y="-59.6" font-family="SourceSans" font-size="8.00">a60.h</text>
</a>
</g>
</g>
<!-- Node14&#45;&gt;Node19 -->
<g id="edge18" class="edge">
<title>Node14&#45;&gt;Node19</title>
<path fill="none" stroke="#63b8ff" d="M1925.25,-111.63C1887.07,-101.4 1812.15,-81.31 1770.92,-70.25"/>
<polygon fill="#63b8ff" stroke="#63b8ff" points="1771.77,-66.86 1761.2,-67.65 1769.95,-73.62 1771.77,-66.86"/>
</g>
<!-- Node19&#45;&gt;Node2 -->
<g id="edge28" class="edge">
<title>Node19&#45;&gt;Node2</title>
<path fill="none" stroke="#63b8ff" d="M1722.69,-55.59C1717.92,-54.56 1712.8,-53.6 1708,-53 1432.54,-18.65 536.25,-10.99 342.25,-9.72"/>
<polygon fill="#63b8ff" stroke="#63b8ff" points="342.03,-6.22 332.01,-9.65 341.99,-13.22 342.03,-6.22"/>
</g>
<!-- Node19&#45;&gt;Node7 -->
<g id="edge19" class="edge">
<title>Node19&#45;&gt;Node7</title>
<path fill="none" stroke="#63b8ff" d="M1761.33,-58.53C1823.83,-52.11 2020.7,-31.45 2103.5,-16.99"/>
<polygon fill="#63b8ff" stroke="#63b8ff" points="2104.27,-20.41 2113.48,-15.17 2103.02,-13.52 2104.27,-20.41"/>
</g>
<!-- Node19&#45;&gt;Node8 -->
<g id="edge23" class="edge">
<title>Node19&#45;&gt;Node8</title>
<path fill="none" stroke="#63b8ff" d="M1761.45,-59.05C1830.91,-53.78 2067.33,-35.11 2162,-16.93"/>
<polygon fill="#63b8ff" stroke="#63b8ff" points="2162.93,-20.31 2172.03,-14.89 2161.53,-13.45 2162.93,-20.31"/>
</g>
<!-- Node19&#45;&gt;Node10 -->
<g id="edge34" class="edge">
<title>Node19&#45;&gt;Node10</title>
<path fill="none" stroke="#63b8ff" d="M1761.32,-59.57C1824.38,-56.37 2030.08,-44.48 2209.92,-16.96"/>
<polygon fill="#63b8ff" stroke="#63b8ff" points="2210.47,-20.41 2219.82,-15.42 2209.4,-13.5 2210.47,-20.41"/>
</g>
<!-- Node20 -->
<g id="node20" class="node">
<title>Node20</title>
<g id="a_node20"><a xlink:title=" ">
<polygon fill="#e0e0e0" stroke="#999999" points="1399.5,-17 1362.5,-17 1362.5,0 1399.5,0 1399.5,-17"/>
<text text-anchor="middle" x="1381" y="-6.6" font-family="SourceSans" font-size="8.00">tuple</text>
</a>
</g>
</g>
<!-- Node19&#45;&gt;Node20 -->
<g id="edge20" class="edge">
<title>Node19&#45;&gt;Node20</title>
<path fill="none" stroke="#63b8ff" d="M1722.65,-55.89C1717.88,-54.85 1712.77,-53.81 1708,-53 1578.84,-31.06 1541.55,-42.45 1409.59,-17.02"/>
<polygon fill="#63b8ff" stroke="#63b8ff" points="1409.99,-13.53 1399.5,-15.04 1408.64,-20.4 1409.99,-13.53"/>
</g>
<!-- Node21 -->
<g id="node21" class="node">
<title>Node21</title>
<g id="a_node21"><a xlink:title=" ">
<polygon fill="#e0e0e0" stroke="#999999" points="1456.5,-17 1417.5,-17 1417.5,0 1456.5,0 1456.5,-17"/>
<text text-anchor="middle" x="1437" y="-6.6" font-family="SourceSans" font-size="8.00">string</text>
</a>
</g>
</g>
<!-- Node19&#45;&gt;Node21 -->
<g id="edge21" class="edge">
<title>Node19&#45;&gt;Node21</title>
<path fill="none" stroke="#63b8ff" d="M1722.99,-56.06C1718.11,-54.99 1712.87,-53.9 1708,-53 1603.77,-33.81 1573.66,-38.84 1466.44,-17.08"/>
<polygon fill="#63b8ff" stroke="#63b8ff" points="1467.01,-13.62 1456.51,-15.03 1465.6,-20.48 1467.01,-13.62"/>
</g>
<!-- Node22 -->
<g id="node22" class="node">
<title>Node22</title>
<g id="a_node22"><a xlink:title=" ">
<polygon fill="#e0e0e0" stroke="#999999" points="1513.5,-17 1474.5,-17 1474.5,0 1513.5,0 1513.5,-17"/>
<text text-anchor="middle" x="1494" y="-6.6" font-family="SourceSans" font-size="8.00">vector</text>
</a>
</g>
</g>
<!-- Node19&#45;&gt;Node22 -->
<g id="edge22" class="edge">
<title>Node19&#45;&gt;Node22</title>
<path fill="none" stroke="#63b8ff" d="M1722.96,-56.21C1718.09,-55.14 1712.85,-54.01 1708,-53 1629.03,-36.61 1606.36,-35.55 1523.47,-16.97"/>
<polygon fill="#63b8ff" stroke="#63b8ff" points="1524.14,-13.54 1513.62,-14.75 1522.6,-20.36 1524.14,-13.54"/>
</g>
<!-- Node23 -->
<g id="node23" class="node">
<title>Node23</title>
<g id="a_node23"><a xlink:title=" ">
<polygon fill="#e0e0e0" stroke="#999999" points="1610,-17 1532,-17 1532,0 1610,0 1610,-17"/>
<text text-anchor="middle" x="1571" y="-6.6" font-family="SourceSans" font-size="8.00">unordered_map</text>
</a>
</g>
</g>
<!-- Node19&#45;&gt;Node23 -->
<g id="edge24" class="edge">
<title>Node19&#45;&gt;Node23</title>
<path fill="none" stroke="#63b8ff" d="M1722.72,-54.75C1694.49,-46.33 1641.47,-30.52 1606.19,-20"/>
<polygon fill="#63b8ff" stroke="#63b8ff" points="1606.88,-16.55 1596.3,-17.05 1604.88,-23.26 1606.88,-16.55"/>
</g>
<!-- Node24 -->
<g id="node24" class="node">
<title>Node24</title>
<g id="a_node24"><a xlink:title=" ">
<polygon fill="#e0e0e0" stroke="#999999" points="1700,-17 1628,-17 1628,0 1700,0 1700,-17"/>
<text text-anchor="middle" x="1664" y="-6.6" font-family="SourceSans" font-size="8.00">unordered_set</text>
</a>
</g>
</g>
<!-- Node19&#45;&gt;Node24 -->
<g id="edge25" class="edge">
<title>Node19&#45;&gt;Node24</title>
<path fill="none" stroke="#63b8ff" d="M1730.49,-52.97C1718.28,-44.99 1698.75,-32.22 1684.01,-22.58"/>
<polygon fill="#63b8ff" stroke="#63b8ff" points="1685.84,-19.6 1675.56,-17.06 1682.01,-25.46 1685.84,-19.6"/>
</g>
<!-- Node25 -->
<g id="node25" class="node">
<title>Node25</title>
<g id="a_node25"><a xlink:title=" ">
<polygon fill="#e0e0e0" stroke="#999999" points="982.5,-17 939.5,-17 939.5,0 982.5,0 982.5,-17"/>
<text text-anchor="middle" x="961" y="-6.6" font-family="SourceSans" font-size="8.00">chrono</text>
</a>
</g>
</g>
<!-- Node19&#45;&gt;Node25 -->
<g id="edge26" class="edge">
<title>Node19&#45;&gt;Node25</title>
<path fill="none" stroke="#63b8ff" d="M1722.68,-55.68C1717.91,-54.64 1712.79,-53.66 1708,-53 1432.72,-14.87 1095.87,-10.09 992.59,-9.55"/>
<polygon fill="#63b8ff" stroke="#63b8ff" points="992.53,-6.05 982.51,-9.51 992.5,-13.05 992.53,-6.05"/>
</g>
<!-- Node26 -->
<g id="node26" class="node">
<title>Node26</title>
<g id="a_node26"><a xlink:title=" ">
<polygon fill="#e0e0e0" stroke="#999999" points="1766,-17 1718,-17 1718,0 1766,0 1766,-17"/>
<text text-anchor="middle" x="1742" y="-6.6" font-family="SourceSans" font-size="8.00">numeric</text>
</a>
</g>
</g>
<!-- Node19&#45;&gt;Node26 -->
<g id="edge27" class="edge">
<title>Node19&#45;&gt;Node26</title>
<path fill="none" stroke="#63b8ff" d="M1742,-52.97C1742,-46.19 1742,-35.97 1742,-27.13"/>
<polygon fill="#63b8ff" stroke="#63b8ff" points="1745.5,-27.06 1742,-17.06 1738.5,-27.06 1745.5,-27.06"/>
</g>
<!-- Node27 -->
<g id="node27" class="node">
<title>Node27</title>
<g id="a_node27"><a xlink:title=" ">
<polygon fill="#e0e0e0" stroke="#999999" points="1822,-17 1784,-17 1784,0 1822,0 1822,-17"/>
<text text-anchor="middle" x="1803" y="-6.6" font-family="SourceSans" font-size="8.00">locale</text>
</a>
</g>
</g>
<!-- Node19&#45;&gt;Node27 -->
<g id="edge29" class="edge">
<title>Node19&#45;&gt;Node27</title>
<path fill="none" stroke="#63b8ff" d="M1751,-52.97C1760.19,-45.29 1774.68,-33.18 1786.03,-23.69"/>
<polygon fill="#63b8ff" stroke="#63b8ff" points="1788.54,-26.16 1793.96,-17.06 1784.05,-20.79 1788.54,-26.16"/>
</g>
<!-- Node28 -->
<g id="node28" class="node">
<title>Node28</title>
<g id="a_node28"><a xlink:title=" ">
<polygon fill="#e0e0e0" stroke="#999999" points="1885.5,-17 1840.5,-17 1840.5,0 1885.5,0 1885.5,-17"/>
<text text-anchor="middle" x="1863" y="-6.6" font-family="SourceSans" font-size="8.00">codecvt</text>
</a>
</g>
</g>
<!-- Node19&#45;&gt;Node28 -->
<g id="edge30" class="edge">
<title>Node19&#45;&gt;Node28</title>
<path fill="none" stroke="#63b8ff" d="M1759.85,-52.97C1779.87,-44.54 1812.56,-30.76 1835.77,-20.98"/>
<polygon fill="#63b8ff" stroke="#63b8ff" points="1837.22,-24.17 1845.07,-17.06 1834.5,-17.71 1837.22,-24.17"/>
</g>
<!-- Node29 -->
<g id="node29" class="node">
<title>Node29</title>
<g id="a_node29"><a xlink:title=" ">
<polygon fill="#e0e0e0" stroke="#999999" points="2030.5,-17 1903.5,-17 1903.5,0 2030.5,0 2030.5,-17"/>
<text text-anchor="middle" x="1967" y="-6.6" font-family="SourceSans" font-size="8.00">ext/codecvt_specializations.h</text>
</a>
</g>
</g>
<!-- Node19&#45;&gt;Node29 -->
<g id="edge31" class="edge">
<title>Node19&#45;&gt;Node29</title>
<path fill="none" stroke="#63b8ff" d="M1761.18,-56.15C1797,-48.03 1874.84,-30.39 1923.87,-19.28"/>
<polygon fill="#63b8ff" stroke="#63b8ff" points="1924.89,-22.63 1933.86,-17.01 1923.34,-15.81 1924.89,-22.63"/>
</g>
<!-- Node30 -->
<g id="node30" class="node">
<title>Node30</title>
<g id="a_node30"><a xlink:title=" ">
<polygon fill="#e0e0e0" stroke="#999999" points="2095.5,-17 2048.5,-17 2048.5,0 2095.5,0 2095.5,-17"/>
<text text-anchor="middle" x="2072" y="-6.6" font-family="SourceSans" font-size="8.00">sstream</text>
</a>
</g>
</g>
<!-- Node19&#45;&gt;Node30 -->
<g id="edge32" class="edge">
<title>Node19&#45;&gt;Node30</title>
<path fill="none" stroke="#63b8ff" d="M1761.27,-58.27C1807.43,-52.79 1928.11,-37.76 2038.33,-17.18"/>
<polygon fill="#63b8ff" stroke="#63b8ff" points="2039.11,-20.59 2048.28,-15.3 2037.81,-13.71 2039.11,-20.59"/>
</g>
<!-- Node31 -->
<g id="node31" class="node">
<title>Node31</title>
<g id="a_node31"><a xlink:title=" ">
<polygon fill="#e0e0e0" stroke="#999999" points="1344,-17 1296,-17 1296,0 1344,0 1344,-17"/>
<text text-anchor="middle" x="1320" y="-6.6" font-family="SourceSans" font-size="8.00">iomanip</text>
</a>
</g>
</g>
<!-- Node19&#45;&gt;Node31 -->
<g id="edge33" class="edge">
<title>Node19&#45;&gt;Node31</title>
<path fill="none" stroke="#63b8ff" d="M1722.66,-55.83C1717.89,-54.79 1712.77,-53.77 1708,-53 1554.63,-28.39 1511.27,-42.03 1354.11,-16.96"/>
<polygon fill="#63b8ff" stroke="#63b8ff" points="1354.52,-13.48 1344.08,-15.33 1353.39,-20.39 1354.52,-13.48"/>
</g>
<!-- Node36&#45;&gt;Node15 -->
<g id="edge42" class="edge">
<title>Node36&#45;&gt;Node15</title>
<path fill="none" stroke="#63b8ff" d="M996.01,-294.78C1122.8,-293.63 1574,-286.78 1623,-247 1629.68,-241.58 1660.07,-124.85 1671.57,-79.92"/>
<polygon fill="#63b8ff" stroke="#63b8ff" points="1674.98,-80.71 1674.06,-70.15 1668.2,-78.98 1674.98,-80.71"/>
</g>
<!-- Node36&#45;&gt;Node25 -->
<g id="edge45" class="edge">
<title>Node36&#45;&gt;Node25</title>
<path fill="none" stroke="#63b8ff" d="M929.81,-294.51C764.5,-291.63 38,-273.76 38,-182 38,-182 38,-182 38,-118 38,-26.32 765.5,-11.91 928.75,-9.83"/>
<polygon fill="#63b8ff" stroke="#63b8ff" points="929.14,-13.32 939.09,-9.7 929.05,-6.33 929.14,-13.32"/>
</g>
<!-- Node36&#45;&gt;Node31 -->
<g id="edge43" class="edge">
<title>Node36&#45;&gt;Node31</title>
<path fill="none" stroke="#63b8ff" d="M996.37,-292.74C1128.65,-283.33 1609,-244.83 1609,-182 1609,-182 1609,-182 1609,-118 1609,-91.06 1430.76,-39.52 1354.24,-18.63"/>
<polygon fill="#63b8ff" stroke="#63b8ff" points="1354.71,-15.13 1344.14,-15.89 1352.88,-21.89 1354.71,-15.13"/>
</g>
<!-- Node37 -->
<g id="node37" class="node">
<title>Node37</title>
<g id="a_node37"><a xlink:title=" ">
<polygon fill="#e0e0e0" stroke="#999999" points="833.5,-247 782.5,-247 782.5,-230 833.5,-230 833.5,-247"/>
<text text-anchor="middle" x="808" y="-236.6" font-family="SourceSans" font-size="8.00">cinttypes</text>
</a>
</g>
</g>
<!-- Node36&#45;&gt;Node37 -->
<g id="edge40" class="edge">
<title>Node36&#45;&gt;Node37</title>
<path fill="none" stroke="#63b8ff" d="M941.77,-287.4C915.11,-277.85 869.15,-261.4 838.67,-250.48"/>
<polygon fill="#63b8ff" stroke="#63b8ff" points="839.57,-247.08 828.97,-247.01 837.21,-253.68 839.57,-247.08"/>
</g>
<!-- Node38 -->
<g id="node38" class="node">
<title>Node38</title>
<g id="a_node38"><a xlink:title=" ">
<polygon fill="#e0e0e0" stroke="#999999" points="890,-247 852,-247 852,-230 890,-230 890,-247"/>
<text text-anchor="middle" x="871" y="-236.6" font-family="SourceSans" font-size="8.00">ctime</text>
</a>
</g>
</g>
<!-- Node36&#45;&gt;Node38 -->
<g id="edge41" class="edge">
<title>Node36&#45;&gt;Node38</title>
<path fill="none" stroke="#63b8ff" d="M950.21,-287.28C935.24,-278.25 910.23,-263.16 892.31,-252.36"/>
<polygon fill="#63b8ff" stroke="#63b8ff" points="894.05,-249.32 883.68,-247.15 890.44,-255.31 894.05,-249.32"/>
</g>
<!-- Node39 -->
<g id="node39" class="node">
<title>Node39</title>
<g id="a_node39"><a xlink:title=" ">
<polygon fill="#e0e0e0" stroke="#999999" points="950,-247 908,-247 908,-230 950,-230 950,-247"/>
<text text-anchor="middle" x="929" y="-236.6" font-family="SourceSans" font-size="8.00">thread</text>
</a>
</g>
</g>
<!-- Node36&#45;&gt;Node39 -->
<g id="edge44" class="edge">
<title>Node36&#45;&gt;Node39</title>
<path fill="none" stroke="#63b8ff" d="M958.27,-287.28C953.3,-279.16 945.33,-266.15 938.95,-255.75"/>
<polygon fill="#63b8ff" stroke="#63b8ff" points="941.9,-253.85 933.69,-247.15 935.93,-257.51 941.9,-253.85"/>
</g>
<!-- Node40 -->
<g id="node40" class="node">
<title>Node40</title>
<g id="a_node40"><a xlink:href="a60-peer_8h.html" target="_top" xlink:title=" ">
<polygon fill="white" stroke="#666666" points="1024,-247 968,-247 968,-230 1024,-230 1024,-247"/>
<text text-anchor="middle" x="996" y="-236.6" font-family="SourceSans" font-size="8.00">a60&#45;peer.h</text>
</a>
</g>
</g>
<!-- Node36&#45;&gt;Node40 -->
<g id="edge46" class="edge">
<title>Node36&#45;&gt;Node40</title>
<path fill="none" stroke="#63b8ff" d="M967.59,-287.28C972.42,-279.16 980.15,-266.15 986.34,-255.75"/>
<polygon fill="#63b8ff" stroke="#63b8ff" points="989.35,-257.54 991.45,-247.15 983.33,-253.96 989.35,-257.54"/>
</g>
<!-- Node41 -->
<g id="node41" class="node">
<title>Node41</title>
<g id="a_node41"><a xlink:href="a60-geo_8h.html" target="_top" xlink:title=" ">
<polygon fill="white" stroke="#666666" points="1856,-189.5 1802,-189.5 1802,-172.5 1856,-172.5 1856,-189.5"/>
<text text-anchor="middle" x="1829" y="-179.1" font-family="SourceSans" font-size="8.00">a60&#45;geo.h</text>
</a>
</g>
</g>
<!-- Node40&#45;&gt;Node41 -->
<g id="edge47" class="edge">
<title>Node40&#45;&gt;Node41</title>
<path fill="none" stroke="#63b8ff" d="M1024.19,-235.62C1148.7,-227.33 1649.35,-193.97 1791.31,-184.51"/>
<polygon fill="#63b8ff" stroke="#63b8ff" points="1791.92,-187.98 1801.66,-183.82 1791.45,-180.99 1791.92,-187.98"/>
</g>
<!-- Node44 -->
<g id="node44" class="node">
<title>Node44</title>
<g id="a_node44"><a xlink:href="a60-network-functions_8h.html" target="_top" xlink:title=" ">
<polygon fill="white" stroke="#666666" points="1344.5,-189.5 1235.5,-189.5 1235.5,-172.5 1344.5,-172.5 1344.5,-189.5"/>
<text text-anchor="middle" x="1290" y="-179.1" font-family="SourceSans" font-size="8.00">a60&#45;network&#45;functions.h</text>
</a>
</g>
</g>
<!-- Node40&#45;&gt;Node44 -->
<g id="edge55" class="edge">
<title>Node40&#45;&gt;Node44</title>
<path fill="none" stroke="#63b8ff" d="M1024.19,-232.18C1073.88,-222.8 1177.68,-203.2 1239.84,-191.47"/>
<polygon fill="#63b8ff" stroke="#63b8ff" points="1240.64,-194.88 1249.82,-189.58 1239.35,-188 1240.64,-194.88"/>
</g>
<!-- Node45 -->
<g id="node45" class="node">
<title>Node45</title>
<g id="a_node45"><a xlink:title=" ">
<polygon fill="#e0e0e0" stroke="#999999" points="1455.5,-189.5 1362.5,-189.5 1362.5,-172.5 1455.5,-172.5 1455.5,-189.5"/>
<text text-anchor="middle" x="1409" y="-179.1" font-family="SourceSans" font-size="8.00">libtorrent/entry.hpp</text>
</a>
</g>
</g>
<!-- Node40&#45;&gt;Node45 -->
<g id="edge56" class="edge">
<title>Node40&#45;&gt;Node45</title>
<path fill="none" stroke="#63b8ff" d="M1024.35,-234.92C1084.94,-229.21 1231.38,-214.4 1353,-194 1357.25,-193.29 1361.66,-192.47 1366.06,-191.61"/>
<polygon fill="#63b8ff" stroke="#63b8ff" points="1367.13,-194.97 1376.23,-189.54 1365.73,-188.11 1367.13,-194.97"/>
</g>
<!-- Node46 -->
<g id="node46" class="node">
<title>Node46</title>
<g id="a_node46"><a xlink:title=" ">
<polygon fill="#e0e0e0" stroke="#999999" points="1580.5,-189.5 1473.5,-189.5 1473.5,-172.5 1580.5,-172.5 1580.5,-189.5"/>
<text text-anchor="middle" x="1527" y="-179.1" font-family="SourceSans" font-size="8.00">libtorrent/bencode.hpp</text>
</a>
</g>
</g>
<!-- Node40&#45;&gt;Node46 -->
<g id="edge57" class="edge">
<title>Node40&#45;&gt;Node46</title>
<path fill="none" stroke="#63b8ff" d="M1024.07,-235.83C1096.92,-231.29 1297.96,-217.47 1464,-194 1469.44,-193.23 1475.13,-192.31 1480.76,-191.33"/>
<polygon fill="#63b8ff" stroke="#63b8ff" points="1481.57,-194.74 1490.79,-189.51 1480.32,-187.85 1481.57,-194.74"/>
</g>
<!-- Node47 -->
<g id="node47" class="node">
<title>Node47</title>
<g id="a_node47"><a xlink:title=" ">
<polygon fill="#e0e0e0" stroke="#999999" points="166,-189.5 66,-189.5 66,-172.5 166,-172.5 166,-189.5"/>
<text text-anchor="middle" x="116" y="-179.1" font-family="SourceSans" font-size="8.00">libtorrent/torrent.hpp</text>
</a>
</g>
</g>
<!-- Node40&#45;&gt;Node47 -->
<g id="edge58" class="edge">
<title>Node40&#45;&gt;Node47</title>
<path fill="none" stroke="#63b8ff" d="M967.79,-231.32C964.83,-230.81 961.86,-230.35 959,-230 612.82,-187.23 521.16,-236.89 175,-194 169.55,-193.33 163.86,-192.42 158.25,-191.41"/>
<polygon fill="#63b8ff" stroke="#63b8ff" points="158.79,-187.95 148.31,-189.51 157.47,-194.83 158.79,-187.95"/>
</g>
<!-- Node48 -->
<g id="node48" class="node">
<title>Node48</title>
<g id="a_node48"><a xlink:title=" ">
<polygon fill="#e0e0e0" stroke="#999999" points="266,-194 184,-194 184,-168 266,-168 266,-194"/>
<text text-anchor="start" x="192" y="-183.6" font-family="SourceSans" font-size="8.00">libtorrent/torrent</text>
<text text-anchor="middle" x="225" y="-174.6" font-family="SourceSans" font-size="8.00">_info.hpp</text>
</a>
</g>
</g>
<!-- Node40&#45;&gt;Node48 -->
<g id="edge59" class="edge">
<title>Node40&#45;&gt;Node48</title>
<path fill="none" stroke="#63b8ff" d="M967.79,-231.34C964.83,-230.82 961.86,-230.36 959,-230 660.25,-192.07 578.03,-236.72 276,-193.92"/>
<polygon fill="#63b8ff" stroke="#63b8ff" points="276.48,-190.45 266.08,-192.49 275.49,-197.38 276.48,-190.45"/>
</g>
<!-- Node49 -->
<g id="node49" class="node">
<title>Node49</title>
<g id="a_node49"><a xlink:title=" ">
<polygon fill="#e0e0e0" stroke="#999999" points="366,-194 284,-194 284,-168 366,-168 366,-194"/>
<text text-anchor="start" x="292" y="-183.6" font-family="SourceSans" font-size="8.00">libtorrent/torrent</text>
<text text-anchor="middle" x="325" y="-174.6" font-family="SourceSans" font-size="8.00">_status.hpp</text>
</a>
</g>
</g>
<!-- Node40&#45;&gt;Node49 -->
<g id="edge60" class="edge">
<title>Node40&#45;&gt;Node49</title>
<path fill="none" stroke="#63b8ff" d="M967.79,-231.36C964.83,-230.84 961.86,-230.38 959,-230 704.45,-196.52 633.97,-231.58 376.13,-193.95"/>
<polygon fill="#63b8ff" stroke="#63b8ff" points="376.49,-190.46 366.09,-192.46 375.47,-197.39 376.49,-190.46"/>
</g>
<!-- Node50 -->
<g id="node50" class="node">
<title>Node50</title>
<g id="a_node50"><a xlink:title=" ">
<polygon fill="#e0e0e0" stroke="#999999" points="494,-189.5 384,-189.5 384,-172.5 494,-172.5 494,-189.5"/>
<text text-anchor="middle" x="439" y="-179.1" font-family="SourceSans" font-size="8.00">libtorrent/peer_info.hpp</text>
</a>
</g>
</g>
<!-- Node40&#45;&gt;Node50 -->
<g id="edge61" class="edge">
<title>Node40&#45;&gt;Node50</title>
<path fill="none" stroke="#63b8ff" d="M967.78,-231.41C964.82,-230.89 961.86,-230.4 959,-230 757.67,-201.75 704.53,-220.77 503,-194 497.26,-193.24 491.25,-192.3 485.31,-191.29"/>
<polygon fill="#63b8ff" stroke="#63b8ff" points="485.9,-187.84 475.44,-189.53 484.68,-194.73 485.9,-187.84"/>
</g>
<!-- Node51 -->
<g id="node51" class="node">
<title>Node51</title>
<g id="a_node51"><a xlink:title=" ">
<polygon fill="#e0e0e0" stroke="#999999" points="606,-194 512,-194 512,-168 606,-168 606,-194"/>
<text text-anchor="start" x="520" y="-183.6" font-family="SourceSans" font-size="8.00">libtorrent/announce</text>
<text text-anchor="middle" x="559" y="-174.6" font-family="SourceSans" font-size="8.00">_entry.hpp</text>
</a>
</g>
</g>
<!-- Node40&#45;&gt;Node51 -->
<g id="edge62" class="edge">
<title>Node40&#45;&gt;Node51</title>
<path fill="none" stroke="#63b8ff" d="M967.77,-231.49C964.81,-230.95 961.85,-230.44 959,-230 810.32,-207.2 768.6,-217.66 616.47,-194.11"/>
<polygon fill="#63b8ff" stroke="#63b8ff" points="616.71,-190.6 606.29,-192.5 615.62,-197.52 616.71,-190.6"/>
</g>
<!-- Node52 -->
<g id="node52" class="node">
<title>Node52</title>
<g id="a_node52"><a xlink:title=" ">
<polygon fill="#e0e0e0" stroke="#999999" points="731.5,-189.5 624.5,-189.5 624.5,-172.5 731.5,-172.5 731.5,-189.5"/>
<text text-anchor="middle" x="678" y="-179.1" font-family="SourceSans" font-size="8.00">libtorrent/bdecode.hpp</text>
</a>
</g>
</g>
<!-- Node40&#45;&gt;Node52 -->
<g id="edge63" class="edge">
<title>Node40&#45;&gt;Node52</title>
<path fill="none" stroke="#63b8ff" d="M967.74,-231.66C964.79,-231.09 961.84,-230.52 959,-230 862.42,-212.24 837.69,-211.19 741,-194 736.31,-193.17 731.44,-192.28 726.56,-191.37"/>
<polygon fill="#63b8ff" stroke="#63b8ff" points="727.09,-187.91 716.62,-189.51 725.81,-194.79 727.09,-187.91"/>
</g>
<!-- Node53 -->
<g id="node53" class="node">
<title>Node53</title>
<g id="a_node53"><a xlink:title=" ">
<polygon fill="#e0e0e0" stroke="#999999" points="868,-189.5 750,-189.5 750,-172.5 868,-172.5 868,-189.5"/>
<text text-anchor="middle" x="809" y="-179.1" font-family="SourceSans" font-size="8.00">libtorrent/magnet_uri.hpp</text>
</a>
</g>
</g>
<!-- Node40&#45;&gt;Node53 -->
<g id="edge64" class="edge">
<title>Node40&#45;&gt;Node53</title>
<path fill="none" stroke="#63b8ff" d="M970.39,-229.9C937.66,-220.18 880.84,-203.32 844.1,-192.42"/>
<polygon fill="#63b8ff" stroke="#63b8ff" points="844.88,-189 834.3,-189.51 842.89,-195.71 844.88,-189"/>
</g>
<!-- Node54 -->
<g id="node54" class="node">
<title>Node54</title>
<g id="a_node54"><a xlink:title=" ">
<polygon fill="#e0e0e0" stroke="#999999" points="987.5,-189.5 886.5,-189.5 886.5,-172.5 987.5,-172.5 987.5,-189.5"/>
<text text-anchor="middle" x="937" y="-179.1" font-family="SourceSans" font-size="8.00">libtorrent/session.hpp</text>
</a>
</g>
</g>
<!-- Node40&#45;&gt;Node54 -->
<g id="edge65" class="edge">
<title>Node40&#45;&gt;Node54</title>
<path fill="none" stroke="#63b8ff" d="M987.8,-229.78C978.73,-221.25 963.9,-207.31 952.61,-196.68"/>
<polygon fill="#63b8ff" stroke="#63b8ff" points="954.82,-193.95 945.13,-189.65 950.02,-199.05 954.82,-193.95"/>
</g>
<!-- Node55 -->
<g id="node55" class="node">
<title>Node55</title>
<g id="a_node55"><a xlink:title=" ">
<polygon fill="#e0e0e0" stroke="#999999" points="1102.5,-194 1005.5,-194 1005.5,-168 1102.5,-168 1102.5,-194"/>
<text text-anchor="start" x="1013.5" y="-183.6" font-family="SourceSans" font-size="8.00">libtorrent/extensions</text>
<text text-anchor="middle" x="1054" y="-174.6" font-family="SourceSans" font-size="8.00">/ut_metadata.hpp</text>
</a>
</g>
</g>
<!-- Node40&#45;&gt;Node55 -->
<g id="edge66" class="edge">
<title>Node40&#45;&gt;Node55</title>
<path fill="none" stroke="#63b8ff" d="M1004.06,-229.78C1011.7,-222.47 1023.49,-211.19 1033.7,-201.42"/>
<polygon fill="#63b8ff" stroke="#63b8ff" points="1036.3,-203.79 1041.1,-194.34 1031.46,-198.73 1036.3,-203.79"/>
</g>
<!-- Node56 -->
<g id="node56" class="node">
<title>Node56</title>
<g id="a_node56"><a xlink:title=" ">
<polygon fill="#e0e0e0" stroke="#999999" points="1217.5,-194 1120.5,-194 1120.5,-168 1217.5,-168 1217.5,-194"/>
<text text-anchor="start" x="1128.5" y="-183.6" font-family="SourceSans" font-size="8.00">libtorrent/extensions</text>
<text text-anchor="middle" x="1169" y="-174.6" font-family="SourceSans" font-size="8.00">/ut_pex.hpp</text>
</a>
</g>
</g>
<!-- Node40&#45;&gt;Node56 -->
<g id="edge67" class="edge">
<title>Node40&#45;&gt;Node56</title>
<path fill="none" stroke="#63b8ff" d="M1019.69,-229.9C1045.77,-221.53 1088.38,-207.86 1121.42,-197.26"/>
<polygon fill="#63b8ff" stroke="#63b8ff" points="1122.89,-200.47 1131.34,-194.08 1120.75,-193.8 1122.89,-200.47"/>
</g>
<!-- Node41&#45;&gt;Node7 -->
<g id="edge48" class="edge">
<title>Node41&#45;&gt;Node7</title>
<path fill="none" stroke="#63b8ff" d="M1827.75,-172.33C1824.61,-150.16 1818.94,-85.56 1853,-53 1891.89,-15.82 2034.61,-26.84 2103.47,-16.83"/>
<polygon fill="#63b8ff" stroke="#63b8ff" points="2104.21,-20.25 2113.47,-15.11 2103.02,-13.35 2104.21,-20.25"/>
</g>
<!-- Node41&#45;&gt;Node8 -->
<g id="edge49" class="edge">
<title>Node41&#45;&gt;Node8</title>
<path fill="none" stroke="#63b8ff" d="M1831.31,-172.46C1839.12,-147.54 1865.14,-68.49 1886,-53 1933.76,-17.52 2088.45,-29.49 2162.17,-16.79"/>
<polygon fill="#63b8ff" stroke="#63b8ff" points="2162.9,-20.22 2172.02,-14.83 2161.53,-13.35 2162.9,-20.22"/>
</g>
<!-- Node41&#45;&gt;Node9 -->
<g id="edge50" class="edge">
<title>Node41&#45;&gt;Node9</title>
<path fill="none" stroke="#63b8ff" d="M1856.29,-175.03C1899.81,-166.96 1987.51,-150.07 2061,-132 2063.3,-131.43 2065.66,-130.83 2068.04,-130.2"/>
<polygon fill="#63b8ff" stroke="#63b8ff" points="2069.04,-133.55 2077.76,-127.54 2067.19,-126.8 2069.04,-133.55"/>
</g>
<!-- Node41&#45;&gt;Node10 -->
<g id="edge51" class="edge">
<title>Node41&#45;&gt;Node10</title>
<path fill="none" stroke="#63b8ff" d="M1856.42,-172.49C1911.59,-156.89 2039.36,-118.41 2140,-70 2170.25,-55.45 2203.58,-35.53 2224.4,-22.59"/>
<polygon fill="#63b8ff" stroke="#63b8ff" points="2226.42,-25.46 2233.03,-17.18 2222.7,-19.53 2226.42,-25.46"/>
</g>
<!-- Node41&#45;&gt;Node14 -->
<g id="edge52" class="edge">
<title>Node41&#45;&gt;Node14</title>
<path fill="none" stroke="#63b8ff" d="M1844.2,-172.4C1864.49,-162.26 1900.65,-144.18 1924.73,-132.13"/>
<polygon fill="#63b8ff" stroke="#63b8ff" points="1926.55,-135.14 1933.93,-127.54 1923.42,-128.88 1926.55,-135.14"/>
</g>
<!-- Node42 -->
<g id="node42" class="node">
<title>Node42</title>
<g id="a_node42"><a xlink:title=" ">
<polygon fill="#e0e0e0" stroke="#999999" points="1801,-127.5 1755,-127.5 1755,-110.5 1801,-110.5 1801,-127.5"/>
<text text-anchor="middle" x="1778" y="-117.1" font-family="SourceSans" font-size="8.00">GeoIP.h</text>
</a>
</g>
</g>
<!-- Node41&#45;&gt;Node42 -->
<g id="edge53" class="edge">
<title>Node41&#45;&gt;Node42</title>
<path fill="none" stroke="#63b8ff" d="M1822.33,-172.16C1814.42,-162.85 1801.06,-147.12 1791.06,-135.37"/>
<polygon fill="#63b8ff" stroke="#63b8ff" points="1793.65,-133.01 1784.51,-127.66 1788.32,-137.54 1793.65,-133.01"/>
</g>
<!-- Node43 -->
<g id="node43" class="node">
<title>Node43</title>
<g id="a_node43"><a xlink:title=" ">
<polygon fill="#e0e0e0" stroke="#999999" points="1736.5,-127.5 1675.5,-127.5 1675.5,-110.5 1736.5,-110.5 1736.5,-127.5"/>
<text text-anchor="middle" x="1706" y="-117.1" font-family="SourceSans" font-size="8.00">GeoIPCity.h</text>
</a>
</g>
</g>
<!-- Node41&#45;&gt;Node43 -->
<g id="edge54" class="edge">
<title>Node41&#45;&gt;Node43</title>
<path fill="none" stroke="#63b8ff" d="M1813.42,-172.4C1792.53,-162.21 1755.23,-144.01 1730.55,-131.97"/>
<polygon fill="#63b8ff" stroke="#63b8ff" points="1731.97,-128.78 1721.45,-127.54 1728.9,-135.07 1731.97,-128.78"/>
</g>
<!-- Node57&#45;&gt;Node14 -->
<g id="edge69" class="edge">
<title>Node57&#45;&gt;Node14</title>
<path fill="none" stroke="#63b8ff" d="M1949,-282.97C1949,-252.86 1949,-174.09 1949,-138.24"/>
<polygon fill="#63b8ff" stroke="#63b8ff" points="1952.5,-137.86 1949,-127.86 1945.5,-137.86 1952.5,-137.86"/>
</g>
<!-- Node58&#45;&gt;Node41 -->
<g id="edge71" class="edge">
<title>Node58&#45;&gt;Node41</title>
<path fill="none" stroke="#63b8ff" d="M1815.03,-287.23C1817.41,-269.33 1823.32,-224.77 1826.64,-199.75"/>
<polygon fill="#63b8ff" stroke="#63b8ff" points="1830.15,-199.9 1828,-189.52 1823.22,-198.98 1830.15,-199.9"/>
</g>
</g>
</svg>
