<?xml version="1.0" encoding="UTF-8" standalone="no"?>
<!DOCTYPE svg PUBLIC "-//W3C//DTD SVG 1.1//EN"
 "http://www.w3.org/Graphics/SVG/1.1/DTD/svg11.dtd">
<!-- Generated by graphviz version 5.0.0 (0)
 -->
<!-- Title: /home/bkoz/src/alpha60&#45;docs/src/a60&#45;carto.h Pages: 1 -->
<svg width="1327pt" height="202pt"
 viewBox="0.00 0.00 1326.50 202.00" xmlns="http://www.w3.org/2000/svg" xmlns:xlink="http://www.w3.org/1999/xlink">
<g id="graph0" class="graph" transform="scale(1 1) rotate(0) translate(4 198)">
<title>/home/bkoz/src/alpha60&#45;docs/src/a60&#45;carto.h</title>
<!-- Node1 -->
<g id="node1" class="node">
<title>Node1</title>
<g id="a_node1"><a xlink:title=" ">
<polygon fill="#999999" stroke="#666666" points="704,-194 588,-194 588,-168 704,-168 704,-194"/>
<text text-anchor="start" x="596" y="-183.6" font-family="SourceSans" font-size="8.00">/home/bkoz/src/alpha60</text>
<text text-anchor="middle" x="646" y="-174.6" font-family="SourceSans" font-size="8.00">&#45;docs/src/a60&#45;carto.h</text>
</a>
</g>
</g>
<!-- Node2 -->
<g id="node2" class="node">
<title>Node2</title>
<g id="a_node2"><a xlink:title=" ">
<polygon fill="#e0e0e0" stroke="#999999" points="42,-17 0,-17 0,0 42,0 42,-17"/>
<text text-anchor="middle" x="21" y="-6.6" font-family="SourceSans" font-size="8.00">cmath</text>
</a>
</g>
</g>
<!-- Node1&#45;&gt;Node2 -->
<g id="edge1" class="edge">
<title>Node1&#45;&gt;Node2</title>
<path fill="none" stroke="#63b8ff" d="M587.82,-177.11C517.33,-172.46 395.54,-160.71 295,-132 196.97,-104.01 88.75,-47.25 43.16,-22.05"/>
<polygon fill="#63b8ff" stroke="#63b8ff" points="44.61,-18.85 34.17,-17.03 41.2,-24.96 44.61,-18.85"/>
</g>
<!-- Node3 -->
<g id="node3" class="node">
<title>Node3</title>
<g id="a_node3"><a xlink:title=" ">
<polygon fill="#e0e0e0" stroke="#999999" points="89.5,-17 60.5,-17 60.5,0 89.5,0 89.5,-17"/>
<text text-anchor="middle" x="75" y="-6.6" font-family="SourceSans" font-size="8.00">set</text>
</a>
</g>
</g>
<!-- Node1&#45;&gt;Node3 -->
<g id="edge2" class="edge">
<title>Node1&#45;&gt;Node3</title>
<path fill="none" stroke="#63b8ff" d="M587.9,-174.45C529.26,-167.88 436.54,-154.84 359,-132 332.29,-124.13 162.45,-48.61 98.93,-20.22"/>
<polygon fill="#63b8ff" stroke="#63b8ff" points="100.24,-16.97 89.69,-16.08 97.38,-23.36 100.24,-16.97"/>
</g>
<!-- Node4 -->
<g id="node4" class="node">
<title>Node4</title>
<g id="a_node4"><a xlink:title=" ">
<polygon fill="#e0e0e0" stroke="#999999" points="565,-127.5 507,-127.5 507,-110.5 565,-110.5 565,-127.5"/>
<text text-anchor="middle" x="536" y="-117.1" font-family="SourceSans" font-size="8.00">functional</text>
</a>
</g>
</g>
<!-- Node1&#45;&gt;Node4 -->
<g id="edge3" class="edge">
<title>Node1&#45;&gt;Node4</title>
<path fill="none" stroke="#63b8ff" d="M623.74,-167.86C604.84,-157.55 577.82,-142.81 558.77,-132.42"/>
<polygon fill="#63b8ff" stroke="#63b8ff" points="560.33,-129.28 549.88,-127.57 556.98,-135.43 560.33,-129.28"/>
</g>
<!-- Node5 -->
<g id="node5" class="node">
<title>Node5</title>
<g id="a_node5"><a xlink:title=" ">
<polygon fill="#e0e0e0" stroke="#999999" points="160,-17 108,-17 108,0 160,0 160,-17"/>
<text text-anchor="middle" x="134" y="-6.6" font-family="SourceSans" font-size="8.00">iostream</text>
</a>
</g>
</g>
<!-- Node1&#45;&gt;Node5 -->
<g id="edge4" class="edge">
<title>Node1&#45;&gt;Node5</title>
<path fill="none" stroke="#63b8ff" d="M587.98,-169.94C544.08,-161.66 482.57,-148.58 430,-132 376.37,-115.08 222.74,-48.44 160.58,-21.2"/>
<polygon fill="#63b8ff" stroke="#63b8ff" points="161.65,-17.84 151.08,-17.03 158.83,-24.25 161.65,-17.84"/>
</g>
<!-- Node6 -->
<g id="node6" class="node">
<title>Node6</title>
<g id="a_node6"><a xlink:title=" ">
<polygon fill="#e0e0e0" stroke="#999999" points="624.5,-127.5 583.5,-127.5 583.5,-110.5 624.5,-110.5 624.5,-127.5"/>
<text text-anchor="middle" x="604" y="-117.1" font-family="SourceSans" font-size="8.00">mutex</text>
</a>
</g>
</g>
<!-- Node1&#45;&gt;Node6 -->
<g id="edge5" class="edge">
<title>Node1&#45;&gt;Node6</title>
<path fill="none" stroke="#63b8ff" d="M637.5,-167.86C631.04,-158.63 622.1,-145.86 615.08,-135.83"/>
<polygon fill="#63b8ff" stroke="#63b8ff" points="617.9,-133.75 609.3,-127.57 612.17,-137.77 617.9,-133.75"/>
</g>
<!-- Node7 -->
<g id="node7" class="node">
<title>Node7</title>
<g id="a_node7"><a xlink:title=" ">
<polygon fill="#e0e0e0" stroke="#999999" points="735,-127.5 643,-127.5 643,-110.5 735,-110.5 735,-127.5"/>
<text text-anchor="middle" x="689" y="-117.1" font-family="SourceSans" font-size="8.00">condition_variable</text>
</a>
</g>
</g>
<!-- Node1&#45;&gt;Node7 -->
<g id="edge6" class="edge">
<title>Node1&#45;&gt;Node7</title>
<path fill="none" stroke="#63b8ff" d="M654.7,-167.86C661.32,-158.63 670.47,-145.86 677.66,-135.83"/>
<polygon fill="#63b8ff" stroke="#63b8ff" points="680.6,-137.74 683.58,-127.57 674.91,-133.66 680.6,-137.74"/>
</g>
<!-- Node8 -->
<g id="node8" class="node">
<title>Node8</title>
<g id="a_node8"><a xlink:title=" ">
<polygon fill="#e0e0e0" stroke="#999999" points="826.5,-127.5 753.5,-127.5 753.5,-110.5 826.5,-110.5 826.5,-127.5"/>
<text text-anchor="middle" x="790" y="-117.1" font-family="SourceSans" font-size="8.00">shared_mutex</text>
</a>
</g>
</g>
<!-- Node1&#45;&gt;Node8 -->
<g id="edge7" class="edge">
<title>Node1&#45;&gt;Node8</title>
<path fill="none" stroke="#63b8ff" d="M675.14,-167.86C700.68,-157.22 737.53,-141.86 762.55,-131.44"/>
<polygon fill="#63b8ff" stroke="#63b8ff" points="763.95,-134.65 771.84,-127.57 761.26,-128.18 763.95,-134.65"/>
</g>
<!-- Node9 -->
<g id="node9" class="node">
<title>Node9</title>
<g id="a_node9"><a xlink:href="a60-io_8h.html" target="_top" xlink:title=" ">
<polygon fill="white" stroke="#666666" points="489,-127.5 439,-127.5 439,-110.5 489,-110.5 489,-127.5"/>
<text text-anchor="middle" x="464" y="-117.1" font-family="SourceSans" font-size="8.00">a60&#45;io.h</text>
</a>
</g>
</g>
<!-- Node1&#45;&gt;Node9 -->
<g id="edge8" class="edge">
<title>Node1&#45;&gt;Node9</title>
<path fill="none" stroke="#63b8ff" d="M607.89,-167.94C577.95,-158.39 535.23,-144.6 498,-132 496.96,-131.65 495.91,-131.29 494.84,-130.92"/>
<polygon fill="#63b8ff" stroke="#63b8ff" points="495.79,-127.55 485.19,-127.57 493.49,-134.16 495.79,-127.55"/>
</g>
<!-- Node28 -->
<g id="node28" class="node">
<title>Node28</title>
<g id="a_node28"><a xlink:href="a60-carto-projection_8h.html" target="_top" xlink:title=" ">
<polygon fill="white" stroke="#666666" points="951.5,-127.5 844.5,-127.5 844.5,-110.5 951.5,-110.5 951.5,-127.5"/>
<text text-anchor="middle" x="898" y="-117.1" font-family="SourceSans" font-size="8.00">a60&#45;carto&#45;projection.h</text>
</a>
</g>
</g>
<!-- Node1&#45;&gt;Node28 -->
<g id="edge30" class="edge">
<title>Node1&#45;&gt;Node28</title>
<path fill="none" stroke="#63b8ff" d="M696.69,-167.93C743.76,-156.72 812.98,-140.24 856.75,-129.82"/>
<polygon fill="#63b8ff" stroke="#63b8ff" points="857.58,-133.22 866.49,-127.5 855.96,-126.41 857.58,-133.22"/>
</g>
<!-- Node29 -->
<g id="node29" class="node">
<title>Node29</title>
<g id="a_node29"><a xlink:href="a60-carto-projection-un_8h.html" target="_top" xlink:title=" ">
<polygon fill="white" stroke="#666666" points="1090.5,-127.5 969.5,-127.5 969.5,-110.5 1090.5,-110.5 1090.5,-127.5"/>
<text text-anchor="middle" x="1030" y="-117.1" font-family="SourceSans" font-size="8.00">a60&#45;carto&#45;projection&#45;un.h</text>
</a>
</g>
</g>
<!-- Node1&#45;&gt;Node29 -->
<g id="edge31" class="edge">
<title>Node1&#45;&gt;Node29</title>
<path fill="none" stroke="#63b8ff" d="M704.11,-171.52C767.37,-162.2 871.46,-146.61 961,-132 966.4,-131.12 972.03,-130.18 977.65,-129.22"/>
<polygon fill="#63b8ff" stroke="#63b8ff" points="978.43,-132.64 987.69,-127.5 977.25,-125.74 978.43,-132.64"/>
</g>
<!-- Node30 -->
<g id="node30" class="node">
<title>Node30</title>
<g id="a_node30"><a xlink:href="a60-carto-projection-cahill-keyes_8h.html" target="_top" xlink:title=" ">
<polygon fill="white" stroke="#666666" points="1209,-132 1109,-132 1109,-106 1209,-106 1209,-132"/>
<text text-anchor="start" x="1117" y="-121.6" font-family="SourceSans" font-size="8.00">a60&#45;carto&#45;projection</text>
<text text-anchor="middle" x="1159" y="-112.6" font-family="SourceSans" font-size="8.00">&#45;cahill&#45;keyes.h</text>
</a>
</g>
</g>
<!-- Node1&#45;&gt;Node30 -->
<g id="edge32" class="edge">
<title>Node1&#45;&gt;Node30</title>
<path fill="none" stroke="#63b8ff" d="M704.28,-175.63C788.96,-168.88 951.12,-154.47 1098.7,-132.09"/>
<polygon fill="#63b8ff" stroke="#63b8ff" points="1099.49,-135.51 1108.85,-130.54 1098.43,-128.59 1099.49,-135.51"/>
</g>
<!-- Node31 -->
<g id="node31" class="node">
<title>Node31</title>
<g id="a_node31"><a xlink:href="a60-carto-frame_8h.html" target="_top" xlink:title=" ">
<polygon fill="white" stroke="#666666" points="1318.5,-127.5 1227.5,-127.5 1227.5,-110.5 1318.5,-110.5 1318.5,-127.5"/>
<text text-anchor="middle" x="1273" y="-117.1" font-family="SourceSans" font-size="8.00">a60&#45;carto&#45;frame.h</text>
</a>
</g>
</g>
<!-- Node1&#45;&gt;Node31 -->
<g id="edge33" class="edge">
<title>Node1&#45;&gt;Node31</title>
<path fill="none" stroke="#63b8ff" d="M704.35,-177.63C808.14,-172.86 1031.5,-160.05 1218,-132 1222.53,-131.32 1227.24,-130.49 1231.91,-129.58"/>
<polygon fill="#63b8ff" stroke="#63b8ff" points="1232.92,-132.95 1242.01,-127.51 1231.51,-126.09 1232.92,-132.95"/>
</g>
<!-- Node10 -->
<g id="node10" class="node">
<title>Node10</title>
<g id="a_node10"><a xlink:title=" ">
<polygon fill="#e0e0e0" stroke="#999999" points="578.5,-70 531.5,-70 531.5,-53 578.5,-53 578.5,-70"/>
<text text-anchor="middle" x="555" y="-59.6" font-family="SourceSans" font-size="8.00">fstream</text>
</a>
</g>
</g>
<!-- Node9&#45;&gt;Node10 -->
<g id="edge9" class="edge">
<title>Node9&#45;&gt;Node10</title>
<path fill="none" stroke="#63b8ff" d="M476.65,-110.28C491.32,-101.34 515.75,-86.44 533.43,-75.66"/>
<polygon fill="#63b8ff" stroke="#63b8ff" points="535.74,-78.35 542.45,-70.15 532.09,-72.37 535.74,-78.35"/>
</g>
<!-- Node11 -->
<g id="node11" class="node">
<title>Node11</title>
<g id="a_node11"><a xlink:title=" ">
<polygon fill="#e0e0e0" stroke="#999999" points="711.5,-70 596.5,-70 596.5,-53 711.5,-53 711.5,-70"/>
<text text-anchor="middle" x="654" y="-59.6" font-family="SourceSans" font-size="8.00">experimental/filesystem</text>
</a>
</g>
</g>
<!-- Node9&#45;&gt;Node11 -->
<g id="edge10" class="edge">
<title>Node9&#45;&gt;Node11</title>
<path fill="none" stroke="#63b8ff" d="M484.78,-110.42C489.13,-108.9 493.7,-107.36 498,-106 537.56,-93.52 583.33,-80.98 615.02,-72.59"/>
<polygon fill="#63b8ff" stroke="#63b8ff" points="616.01,-75.95 624.79,-70.02 614.23,-69.18 616.01,-75.95"/>
</g>
<!-- Node12 -->
<g id="node12" class="node">
<title>Node12</title>
<g id="a_node12"><a xlink:title=" ">
<polygon fill="#e0e0e0" stroke="#999999" points="786,-70 730,-70 730,-53 786,-53 786,-70"/>
<text text-anchor="middle" x="758" y="-59.6" font-family="SourceSans" font-size="8.00">stdexcept</text>
</a>
</g>
</g>
<!-- Node9&#45;&gt;Node12 -->
<g id="edge11" class="edge">
<title>Node9&#45;&gt;Node12</title>
<path fill="none" stroke="#63b8ff" d="M483.59,-110.41C488.26,-108.79 493.27,-107.21 498,-106 592.24,-81.97 620.48,-87.58 719.89,-70.11"/>
<polygon fill="#63b8ff" stroke="#63b8ff" points="720.51,-73.56 729.74,-68.35 719.28,-66.67 720.51,-73.56"/>
</g>
<!-- Node13 -->
<g id="node13" class="node">
<title>Node13</title>
<g id="a_node13"><a xlink:title=" ">
<polygon fill="#e0e0e0" stroke="#999999" points="455,-70 417,-70 417,-53 455,-53 455,-70"/>
<text text-anchor="middle" x="436" y="-59.6" font-family="SourceSans" font-size="8.00">regex</text>
</a>
</g>
</g>
<!-- Node9&#45;&gt;Node13 -->
<g id="edge12" class="edge">
<title>Node9&#45;&gt;Node13</title>
<path fill="none" stroke="#63b8ff" d="M460.11,-110.28C456.09,-102.33 449.71,-89.68 444.52,-79.39"/>
<polygon fill="#63b8ff" stroke="#63b8ff" points="447.49,-77.5 439.86,-70.15 441.24,-80.66 447.49,-77.5"/>
</g>
<!-- Node14 -->
<g id="node14" class="node">
<title>Node14</title>
<g id="a_node14"><a xlink:href="a60_8h.html" target="_top" xlink:title=" ">
<polygon fill="white" stroke="#666666" points="513,-70 473,-70 473,-53 513,-53 513,-70"/>
<text text-anchor="middle" x="493" y="-59.6" font-family="SourceSans" font-size="8.00">a60.h</text>
</a>
</g>
</g>
<!-- Node9&#45;&gt;Node14 -->
<g id="edge13" class="edge">
<title>Node9&#45;&gt;Node14</title>
<path fill="none" stroke="#63b8ff" d="M468.03,-110.28C472.23,-102.25 478.94,-89.41 484.34,-79.07"/>
<polygon fill="#63b8ff" stroke="#63b8ff" points="487.47,-80.64 489,-70.15 481.27,-77.39 487.47,-80.64"/>
</g>
<!-- Node14&#45;&gt;Node2 -->
<g id="edge14" class="edge">
<title>Node14&#45;&gt;Node2</title>
<path fill="none" stroke="#63b8ff" d="M472.81,-54.82C469.87,-54.13 466.87,-53.49 464,-53 285.6,-22.37 234.51,-46.56 52.13,-16.89"/>
<polygon fill="#63b8ff" stroke="#63b8ff" points="52.66,-13.43 42.22,-15.25 51.51,-20.33 52.66,-13.43"/>
</g>
<!-- Node14&#45;&gt;Node3 -->
<g id="edge18" class="edge">
<title>Node14&#45;&gt;Node3</title>
<path fill="none" stroke="#63b8ff" d="M472.81,-54.85C469.87,-54.15 466.87,-53.51 464,-53 306.79,-25.09 260.63,-48.48 99.85,-16.66"/>
<polygon fill="#63b8ff" stroke="#63b8ff" points="100.09,-13.13 89.6,-14.58 98.71,-20 100.09,-13.13"/>
</g>
<!-- Node14&#45;&gt;Node5 -->
<g id="edge29" class="edge">
<title>Node14&#45;&gt;Node5</title>
<path fill="none" stroke="#63b8ff" d="M472.8,-54.91C469.86,-54.21 466.86,-53.54 464,-53 337.39,-29.01 301.03,-38.37 170.32,-17.06"/>
<polygon fill="#63b8ff" stroke="#63b8ff" points="170.76,-13.59 160.32,-15.41 169.62,-20.5 170.76,-13.59"/>
</g>
<!-- Node15 -->
<g id="node15" class="node">
<title>Node15</title>
<g id="a_node15"><a xlink:title=" ">
<polygon fill="#e0e0e0" stroke="#999999" points="574,-17 536,-17 536,0 574,0 574,-17"/>
<text text-anchor="middle" x="555" y="-6.6" font-family="SourceSans" font-size="8.00">tuple</text>
</a>
</g>
</g>
<!-- Node14&#45;&gt;Node15 -->
<g id="edge15" class="edge">
<title>Node14&#45;&gt;Node15</title>
<path fill="none" stroke="#63b8ff" d="M502.15,-52.97C511.49,-45.29 526.22,-33.18 537.75,-23.69"/>
<polygon fill="#63b8ff" stroke="#63b8ff" points="540.31,-26.11 545.81,-17.06 535.87,-20.71 540.31,-26.11"/>
</g>
<!-- Node16 -->
<g id="node16" class="node">
<title>Node16</title>
<g id="a_node16"><a xlink:title=" ">
<polygon fill="#e0e0e0" stroke="#999999" points="632,-17 592,-17 592,0 632,0 632,-17"/>
<text text-anchor="middle" x="612" y="-6.6" font-family="SourceSans" font-size="8.00">string</text>
</a>
</g>
</g>
<!-- Node14&#45;&gt;Node16 -->
<g id="edge16" class="edge">
<title>Node14&#45;&gt;Node16</title>
<path fill="none" stroke="#63b8ff" d="M510.56,-52.97C530.16,-44.58 562.11,-30.88 584.91,-21.11"/>
<polygon fill="#63b8ff" stroke="#63b8ff" points="586.56,-24.21 594.37,-17.06 583.8,-17.78 586.56,-24.21"/>
</g>
<!-- Node17 -->
<g id="node17" class="node">
<title>Node17</title>
<g id="a_node17"><a xlink:title=" ">
<polygon fill="#e0e0e0" stroke="#999999" points="692,-17 650,-17 650,0 692,0 692,-17"/>
<text text-anchor="middle" x="671" y="-6.6" font-family="SourceSans" font-size="8.00">vector</text>
</a>
</g>
</g>
<!-- Node14&#45;&gt;Node17 -->
<g id="edge17" class="edge">
<title>Node14&#45;&gt;Node17</title>
<path fill="none" stroke="#63b8ff" d="M513.07,-54.75C544.07,-45.87 603.82,-28.75 640.28,-18.3"/>
<polygon fill="#63b8ff" stroke="#63b8ff" points="641.25,-21.66 649.9,-15.55 639.32,-14.94 641.25,-21.66"/>
</g>
<!-- Node18 -->
<g id="node18" class="node">
<title>Node18</title>
<g id="a_node18"><a xlink:title=" ">
<polygon fill="#e0e0e0" stroke="#999999" points="790,-17 710,-17 710,0 790,0 790,-17"/>
<text text-anchor="middle" x="750" y="-6.6" font-family="SourceSans" font-size="8.00">unordered_map</text>
</a>
</g>
</g>
<!-- Node14&#45;&gt;Node18 -->
<g id="edge19" class="edge">
<title>Node14&#45;&gt;Node18</title>
<path fill="none" stroke="#63b8ff" d="M513.3,-55.26C516.54,-54.47 519.85,-53.69 523,-53 583.47,-39.66 653.53,-26.59 699.64,-18.32"/>
<polygon fill="#63b8ff" stroke="#63b8ff" points="700.45,-21.73 709.68,-16.53 699.22,-14.84 700.45,-21.73"/>
</g>
<!-- Node19 -->
<g id="node19" class="node">
<title>Node19</title>
<g id="a_node19"><a xlink:title=" ">
<polygon fill="#e0e0e0" stroke="#999999" points="883.5,-17 808.5,-17 808.5,0 883.5,0 883.5,-17"/>
<text text-anchor="middle" x="846" y="-6.6" font-family="SourceSans" font-size="8.00">unordered_set</text>
</a>
</g>
</g>
<!-- Node14&#45;&gt;Node19 -->
<g id="edge20" class="edge">
<title>Node14&#45;&gt;Node19</title>
<path fill="none" stroke="#63b8ff" d="M513.26,-55.1C516.51,-54.33 519.84,-53.6 523,-53 641.34,-30.57 674.82,-34.52 798.09,-17.08"/>
<polygon fill="#63b8ff" stroke="#63b8ff" points="798.9,-20.5 808.3,-15.61 797.91,-13.57 798.9,-20.5"/>
</g>
<!-- Node20 -->
<g id="node20" class="node">
<title>Node20</title>
<g id="a_node20"><a xlink:title=" ">
<polygon fill="#e0e0e0" stroke="#999999" points="946,-17 902,-17 902,0 946,0 946,-17"/>
<text text-anchor="middle" x="924" y="-6.6" font-family="SourceSans" font-size="8.00">chrono</text>
</a>
</g>
</g>
<!-- Node14&#45;&gt;Node20 -->
<g id="edge21" class="edge">
<title>Node14&#45;&gt;Node20</title>
<path fill="none" stroke="#63b8ff" d="M513.25,-55.01C516.49,-54.25 519.83,-53.55 523,-53 682.63,-25.44 728.31,-43.75 891.81,-16.94"/>
<polygon fill="#63b8ff" stroke="#63b8ff" points="892.44,-20.38 901.73,-15.28 891.29,-13.48 892.44,-20.38"/>
</g>
<!-- Node21 -->
<g id="node21" class="node">
<title>Node21</title>
<g id="a_node21"><a xlink:title=" ">
<polygon fill="#e0e0e0" stroke="#999999" points="1014,-17 964,-17 964,0 1014,0 1014,-17"/>
<text text-anchor="middle" x="989" y="-6.6" font-family="SourceSans" font-size="8.00">numeric</text>
</a>
</g>
</g>
<!-- Node14&#45;&gt;Node21 -->
<g id="edge22" class="edge">
<title>Node14&#45;&gt;Node21</title>
<path fill="none" stroke="#63b8ff" d="M513.24,-54.97C516.49,-54.22 519.82,-53.53 523,-53 709.83,-22.07 762.7,-45 953.73,-16.96"/>
<polygon fill="#63b8ff" stroke="#63b8ff" points="954.45,-20.39 963.82,-15.45 953.41,-13.47 954.45,-20.39"/>
</g>
<!-- Node22 -->
<g id="node22" class="node">
<title>Node22</title>
<g id="a_node22"><a xlink:title=" ">
<polygon fill="#e0e0e0" stroke="#999999" points="1088,-17 1032,-17 1032,0 1088,0 1088,-17"/>
<text text-anchor="middle" x="1060" y="-6.6" font-family="SourceSans" font-size="8.00">algorithm</text>
</a>
</g>
</g>
<!-- Node14&#45;&gt;Node22 -->
<g id="edge23" class="edge">
<title>Node14&#45;&gt;Node22</title>
<path fill="none" stroke="#63b8ff" d="M513.23,-54.94C516.48,-54.19 519.82,-53.51 523,-53 739.78,-18.37 800.49,-46.35 1021.8,-16.96"/>
<polygon fill="#63b8ff" stroke="#63b8ff" points="1022.34,-20.42 1031.78,-15.61 1021.4,-13.48 1022.34,-20.42"/>
</g>
<!-- Node23 -->
<g id="node23" class="node">
<title>Node23</title>
<g id="a_node23"><a xlink:title=" ">
<polygon fill="#e0e0e0" stroke="#999999" points="1147.5,-17 1106.5,-17 1106.5,0 1147.5,0 1147.5,-17"/>
<text text-anchor="middle" x="1127" y="-6.6" font-family="SourceSans" font-size="8.00">locale</text>
</a>
</g>
</g>
<!-- Node14&#45;&gt;Node23 -->
<g id="edge24" class="edge">
<title>Node14&#45;&gt;Node23</title>
<path fill="none" stroke="#63b8ff" d="M513.23,-54.91C516.48,-54.17 519.82,-53.49 523,-53 772.39,-14.34 842.63,-55.1 1096.56,-16.68"/>
<polygon fill="#63b8ff" stroke="#63b8ff" points="1097.09,-20.14 1106.44,-15.16 1096.03,-13.23 1097.09,-20.14"/>
</g>
<!-- Node24 -->
<g id="node24" class="node">
<title>Node24</title>
<g id="a_node24"><a xlink:title=" ">
<polygon fill="#e0e0e0" stroke="#999999" points="227.5,-17 178.5,-17 178.5,0 227.5,0 227.5,-17"/>
<text text-anchor="middle" x="203" y="-6.6" font-family="SourceSans" font-size="8.00">codecvt</text>
</a>
</g>
</g>
<!-- Node14&#45;&gt;Node24 -->
<g id="edge25" class="edge">
<title>Node14&#45;&gt;Node24</title>
<path fill="none" stroke="#63b8ff" d="M472.78,-55C469.84,-54.28 466.85,-53.59 464,-53 366.69,-32.78 338.49,-36.14 237.8,-17.23"/>
<polygon fill="#63b8ff" stroke="#63b8ff" points="238.31,-13.76 227.83,-15.33 237,-20.64 238.31,-13.76"/>
</g>
<!-- Node25 -->
<g id="node25" class="node">
<title>Node25</title>
<g id="a_node25"><a xlink:title=" ">
<polygon fill="#e0e0e0" stroke="#999999" points="382.5,-17 245.5,-17 245.5,0 382.5,0 382.5,-17"/>
<text text-anchor="middle" x="314" y="-6.6" font-family="SourceSans" font-size="8.00">ext/codecvt_specializations.h</text>
</a>
</g>
</g>
<!-- Node14&#45;&gt;Node25 -->
<g id="edge26" class="edge">
<title>Node14&#45;&gt;Node25</title>
<path fill="none" stroke="#63b8ff" d="M472.81,-54.75C443.15,-46.3 387.29,-30.38 350.36,-19.86"/>
<polygon fill="#63b8ff" stroke="#63b8ff" points="351.06,-16.42 340.49,-17.05 349.14,-23.15 351.06,-16.42"/>
</g>
<!-- Node26 -->
<g id="node26" class="node">
<title>Node26</title>
<g id="a_node26"><a xlink:title=" ">
<polygon fill="#e0e0e0" stroke="#999999" points="449.5,-17 400.5,-17 400.5,0 449.5,0 449.5,-17"/>
<text text-anchor="middle" x="425" y="-6.6" font-family="SourceSans" font-size="8.00">sstream</text>
</a>
</g>
</g>
<!-- Node14&#45;&gt;Node26 -->
<g id="edge27" class="edge">
<title>Node14&#45;&gt;Node26</title>
<path fill="none" stroke="#63b8ff" d="M482.97,-52.97C472.52,-45.14 455.93,-32.7 443.17,-23.13"/>
<polygon fill="#63b8ff" stroke="#63b8ff" points="445.17,-20.26 435.07,-17.06 440.97,-25.86 445.17,-20.26"/>
</g>
<!-- Node27 -->
<g id="node27" class="node">
<title>Node27</title>
<g id="a_node27"><a xlink:title=" ">
<polygon fill="#e0e0e0" stroke="#999999" points="518,-17 468,-17 468,0 518,0 518,-17"/>
<text text-anchor="middle" x="493" y="-6.6" font-family="SourceSans" font-size="8.00">iomanip</text>
</a>
</g>
</g>
<!-- Node14&#45;&gt;Node27 -->
<g id="edge28" class="edge">
<title>Node14&#45;&gt;Node27</title>
<path fill="none" stroke="#63b8ff" d="M493,-52.97C493,-46.19 493,-35.97 493,-27.13"/>
<polygon fill="#63b8ff" stroke="#63b8ff" points="496.5,-27.06 493,-17.06 489.5,-27.06 496.5,-27.06"/>
</g>
</g>
</svg>
