<?xml version="1.0" encoding="UTF-8" standalone="no"?>
<!DOCTYPE svg PUBLIC "-//W3C//DTD SVG 1.1//EN"
 "http://www.w3.org/Graphics/SVG/1.1/DTD/svg11.dtd">
<!-- Generated by graphviz version 5.0.0 (0)
 -->
<!-- Title: /home/bkoz/src/alpha60&#45;docs/src/a60&#45;demographia.h Pages: 1 -->
<!--zoomable 246 -->
<svg id="main" version="1.1" xmlns="http://www.w3.org/2000/svg" xmlns:xlink="http://www.w3.org/1999/xlink" xml:space="preserve" onload="init(evt)">
<style type="text/css"><![CDATA[
.edge:hover path { stroke: red; }
.edge:hover polygon { stroke: red; fill: red; }
]]></style>
<script type="text/javascript"><![CDATA[
var edges = document.getElementsByTagName('g');
if (edges && edges.length) {
  for (var i=0;i<edges.length;i++) {
    if (edges[i].id.substr(0,4)=='edge') {
      edges[i].setAttribute('class','edge');
    }
  }
}
]]></script>
        <defs>
                <circle id="rim" cx="0" cy="0" r="7"/>
                <circle id="rim2" cx="0" cy="0" r="3.5"/>
                <g id="zoomPlus">
                        <use xlink:href="#rim" fill="#404040">
                                <set attributeName="fill" to="#808080" begin="zoomplus.mouseover" end="zoomplus.mouseout"/>
                        </use>
                        <path d="M-4,0h8M0,-4v8" fill="none" stroke="white" stroke-width="1.5" pointer-events="none"/>
                </g>
                <g id="zoomMin">
                        <use xlink:href="#rim" fill="#404040">
                                <set attributeName="fill" to="#808080" begin="zoomminus.mouseover" end="zoomminus.mouseout"/>
                        </use>
                        <path d="M-4,0h8" fill="none" stroke="white" stroke-width="1.5" pointer-events="none"/>
                </g>
                <g id="dirArrow">
                        <path fill="none" stroke="white" stroke-width="1.5" d="M0,-3.0v7 M-2.5,-0.5L0,-3.0L2.5,-0.5"/>
                </g>
               <g id="resetDef">
                       <use xlink:href="#rim2" fill="#404040">
                               <set attributeName="fill" to="#808080" begin="reset.mouseover" end="reset.mouseout"/>
                       </use>
               </g>
        </defs>

<script type="text/javascript">
var viewWidth = 1117;
var viewHeight = 246;
var sectionId = 'dynsection-0';
</script>
<script xlink:href="svgpan.js"/>
<svg id="graph" class="graph">
<g id="viewport">
<title>/home/bkoz/src/alpha60&#45;docs/src/a60&#45;demographia.h</title>
<!-- Node1 -->
<g id="node1" class="node">
<title>Node1</title>
<g id="a_node1"><a xlink:title=" ">
<polygon fill="#999999" stroke="#666666" points="508.5,-238 380.5,-238 380.5,-212 508.5,-212 508.5,-238"/>
<text text-anchor="start" x="388.5" y="-227.6" font-family="SourceSans" font-size="8.00">/home/bkoz/src/alpha60</text>
<text text-anchor="middle" x="444.5" y="-218.6" font-family="SourceSans" font-size="8.00">&#45;docs/src/a60&#45;demographia.h</text>
</a>
</g>
</g>
<!-- Node2 -->
<g id="node2" class="node">
<title>Node2</title>
<g id="a_node2"><a xlink:href="a60-geo_8h.html" target="_top" xlink:title=" ">
<polygon fill="white" stroke="#666666" points="471.5,-176 417.5,-176 417.5,-159 471.5,-159 471.5,-176"/>
<text text-anchor="middle" x="444.5" y="-165.6" font-family="SourceSans" font-size="8.00">a60&#45;geo.h</text>
</a>
</g>
</g>
<!-- Node1&#45;&gt;Node2 -->
<g id="edge1" class="edge">
<title>Node1&#45;&gt;Node2</title>
<path fill="none" stroke="#63b8ff" d="M444.5,-211.96C444.5,-204.51 444.5,-194.8 444.5,-186.45"/>
<polygon fill="#63b8ff" stroke="#63b8ff" points="448,-186.25 444.5,-176.25 441,-186.25 448,-186.25"/>
</g>
<!-- Node3 -->
<g id="node3" class="node">
<title>Node3</title>
<g id="a_node3"><a xlink:title=" ">
<polygon fill="#e0e0e0" stroke="#999999" points="41,-17 0,-17 0,0 41,0 41,-17"/>
<text text-anchor="middle" x="20.5" y="-6.6" font-family="SourceSans" font-size="8.00">cmath</text>
</a>
</g>
</g>
<!-- Node2&#45;&gt;Node3 -->
<g id="edge2" class="edge">
<title>Node2&#45;&gt;Node3</title>
<path fill="none" stroke="#63b8ff" d="M417.3,-160.56C384.64,-153.12 328.38,-139.34 281.5,-123 192.17,-91.85 90.48,-43.81 44.87,-21.57"/>
<polygon fill="#63b8ff" stroke="#63b8ff" points="46.29,-18.36 35.77,-17.1 43.21,-24.65 46.29,-18.36"/>
</g>
<!-- Node4 -->
<g id="node4" class="node">
<title>Node4</title>
<g id="a_node4"><a xlink:title=" ">
<polygon fill="#e0e0e0" stroke="#999999" points="88,-17 59,-17 59,0 88,0 88,-17"/>
<text text-anchor="middle" x="73.5" y="-6.6" font-family="SourceSans" font-size="8.00">set</text>
</a>
</g>
</g>
<!-- Node2&#45;&gt;Node4 -->
<g id="edge3" class="edge">
<title>Node2&#45;&gt;Node4</title>
<path fill="none" stroke="#63b8ff" d="M422.19,-158.99C397.94,-150.69 358.17,-136.69 324.5,-123 239.66,-88.5 141.28,-42.1 97.1,-20.91"/>
<polygon fill="#63b8ff" stroke="#63b8ff" points="98.57,-17.73 88.04,-16.55 95.54,-24.04 98.57,-17.73"/>
</g>
<!-- Node5 -->
<g id="node5" class="node">
<title>Node5</title>
<g id="a_node5"><a xlink:title=" ">
<polygon fill="#e0e0e0" stroke="#999999" points="542.5,-123 486.5,-123 486.5,-106 542.5,-106 542.5,-123"/>
<text text-anchor="middle" x="514.5" y="-112.6" font-family="SourceSans" font-size="8.00">functional</text>
</a>
</g>
</g>
<!-- Node2&#45;&gt;Node5 -->
<g id="edge4" class="edge">
<title>Node2&#45;&gt;Node5</title>
<path fill="none" stroke="#63b8ff" d="M454.83,-158.97C465.58,-151.14 482.66,-138.7 495.79,-129.13"/>
<polygon fill="#63b8ff" stroke="#63b8ff" points="498.11,-131.77 504.13,-123.06 493.99,-126.12 498.11,-131.77"/>
</g>
<!-- Node6 -->
<g id="node6" class="node">
<title>Node6</title>
<g id="a_node6"><a xlink:title=" ">
<polygon fill="#e0e0e0" stroke="#999999" points="156.5,-17 106.5,-17 106.5,0 156.5,0 156.5,-17"/>
<text text-anchor="middle" x="131.5" y="-6.6" font-family="SourceSans" font-size="8.00">iostream</text>
</a>
</g>
</g>
<!-- Node2&#45;&gt;Node6 -->
<g id="edge5" class="edge">
<title>Node2&#45;&gt;Node6</title>
<path fill="none" stroke="#63b8ff" d="M429.4,-158.93C379.21,-133.75 217.63,-52.7 155.84,-21.71"/>
<polygon fill="#63b8ff" stroke="#63b8ff" points="157.32,-18.54 146.81,-17.18 154.18,-24.79 157.32,-18.54"/>
</g>
<!-- Node7 -->
<g id="node7" class="node">
<title>Node7</title>
<g id="a_node7"><a xlink:href="a60-io_8h.html" target="_top" xlink:title=" ">
<polygon fill="white" stroke="#666666" points="468,-123 421,-123 421,-106 468,-106 468,-123"/>
<text text-anchor="middle" x="444.5" y="-112.6" font-family="SourceSans" font-size="8.00">a60&#45;io.h</text>
</a>
</g>
</g>
<!-- Node2&#45;&gt;Node7 -->
<g id="edge6" class="edge">
<title>Node2&#45;&gt;Node7</title>
<path fill="none" stroke="#63b8ff" d="M444.5,-158.97C444.5,-152.19 444.5,-141.97 444.5,-133.13"/>
<polygon fill="#63b8ff" stroke="#63b8ff" points="448,-133.06 444.5,-123.06 441,-133.06 448,-133.06"/>
</g>
<!-- Node26 -->
<g id="node26" class="node">
<title>Node26</title>
<g id="a_node26"><a xlink:title=" ">
<polygon fill="#e0e0e0" stroke="#999999" points="606.5,-123 560.5,-123 560.5,-106 606.5,-106 606.5,-123"/>
<text text-anchor="middle" x="583.5" y="-112.6" font-family="SourceSans" font-size="8.00">GeoIP.h</text>
</a>
</g>
</g>
<!-- Node2&#45;&gt;Node26 -->
<g id="edge28" class="edge">
<title>Node2&#45;&gt;Node26</title>
<path fill="none" stroke="#63b8ff" d="M465.01,-158.97C488.31,-150.42 526.57,-136.39 553.29,-126.59"/>
<polygon fill="#63b8ff" stroke="#63b8ff" points="554.72,-129.79 562.91,-123.06 552.31,-123.21 554.72,-129.79"/>
</g>
<!-- Node27 -->
<g id="node27" class="node">
<title>Node27</title>
<g id="a_node27"><a xlink:title=" ">
<polygon fill="#e0e0e0" stroke="#999999" points="686,-123 625,-123 625,-106 686,-106 686,-123"/>
<text text-anchor="middle" x="655.5" y="-112.6" font-family="SourceSans" font-size="8.00">GeoIPCity.h</text>
</a>
</g>
</g>
<!-- Node2&#45;&gt;Node27 -->
<g id="edge29" class="edge">
<title>Node2&#45;&gt;Node27</title>
<path fill="none" stroke="#63b8ff" d="M471.65,-159.94C507.95,-151.16 572.59,-135.54 614.75,-125.35"/>
<polygon fill="#63b8ff" stroke="#63b8ff" points="615.79,-128.7 624.69,-122.95 614.15,-121.89 615.79,-128.7"/>
</g>
<!-- Node8 -->
<g id="node8" class="node">
<title>Node8</title>
<g id="a_node8"><a xlink:title=" ">
<polygon fill="#e0e0e0" stroke="#999999" points="555.5,-70 509.5,-70 509.5,-53 555.5,-53 555.5,-70"/>
<text text-anchor="middle" x="532.5" y="-59.6" font-family="SourceSans" font-size="8.00">fstream</text>
</a>
</g>
</g>
<!-- Node7&#45;&gt;Node8 -->
<g id="edge7" class="edge">
<title>Node7&#45;&gt;Node8</title>
<path fill="none" stroke="#63b8ff" d="M457.48,-105.97C471.39,-97.91 493.71,-84.98 510.4,-75.31"/>
<polygon fill="#63b8ff" stroke="#63b8ff" points="512.56,-78.1 519.46,-70.06 509.05,-72.04 512.56,-78.1"/>
</g>
<!-- Node9 -->
<g id="node9" class="node">
<title>Node9</title>
<g id="a_node9"><a xlink:title=" ">
<polygon fill="#e0e0e0" stroke="#999999" points="681.5,-70 573.5,-70 573.5,-53 681.5,-53 681.5,-70"/>
<text text-anchor="middle" x="627.5" y="-59.6" font-family="SourceSans" font-size="8.00">experimental/filesystem</text>
</a>
</g>
</g>
<!-- Node7&#45;&gt;Node9 -->
<g id="edge8" class="edge">
<title>Node7&#45;&gt;Node9</title>
<path fill="none" stroke="#63b8ff" d="M468.05,-106.94C499.11,-98.28 554.1,-82.96 590.68,-72.76"/>
<polygon fill="#63b8ff" stroke="#63b8ff" points="591.78,-76.09 600.47,-70.03 589.9,-69.35 591.78,-76.09"/>
</g>
<!-- Node10 -->
<g id="node10" class="node">
<title>Node10</title>
<g id="a_node10"><a xlink:title=" ">
<polygon fill="#e0e0e0" stroke="#999999" points="753,-70 700,-70 700,-53 753,-53 753,-70"/>
<text text-anchor="middle" x="726.5" y="-59.6" font-family="SourceSans" font-size="8.00">stdexcept</text>
</a>
</g>
</g>
<!-- Node7&#45;&gt;Node10 -->
<g id="edge9" class="edge">
<title>Node7&#45;&gt;Node10</title>
<path fill="none" stroke="#63b8ff" d="M468.26,-107.93C471.36,-107.26 474.5,-106.59 477.5,-106 568.55,-87.97 594.45,-87.79 689.72,-70.07"/>
<polygon fill="#63b8ff" stroke="#63b8ff" points="690.6,-73.47 699.79,-68.18 689.31,-66.59 690.6,-73.47"/>
</g>
<!-- Node11 -->
<g id="node11" class="node">
<title>Node11</title>
<g id="a_node11"><a xlink:title=" ">
<polygon fill="#e0e0e0" stroke="#999999" points="435.5,-70 397.5,-70 397.5,-53 435.5,-53 435.5,-70"/>
<text text-anchor="middle" x="416.5" y="-59.6" font-family="SourceSans" font-size="8.00">regex</text>
</a>
</g>
</g>
<!-- Node7&#45;&gt;Node11 -->
<g id="edge10" class="edge">
<title>Node7&#45;&gt;Node11</title>
<path fill="none" stroke="#63b8ff" d="M440.37,-105.97C436.48,-98.89 430.53,-88.05 425.54,-78.96"/>
<polygon fill="#63b8ff" stroke="#63b8ff" points="428.53,-77.14 420.65,-70.06 422.39,-80.51 428.53,-77.14"/>
</g>
<!-- Node12 -->
<g id="node12" class="node">
<title>Node12</title>
<g id="a_node12"><a xlink:href="a60_8h.html" target="_top" xlink:title=" ">
<polygon fill="white" stroke="#666666" points="491.5,-70 453.5,-70 453.5,-53 491.5,-53 491.5,-70"/>
<text text-anchor="middle" x="472.5" y="-59.6" font-family="SourceSans" font-size="8.00">a60.h</text>
</a>
</g>
</g>
<!-- Node7&#45;&gt;Node12 -->
<g id="edge11" class="edge">
<title>Node7&#45;&gt;Node12</title>
<path fill="none" stroke="#63b8ff" d="M448.63,-105.97C452.52,-98.89 458.47,-88.05 463.46,-78.96"/>
<polygon fill="#63b8ff" stroke="#63b8ff" points="466.61,-80.51 468.35,-70.06 460.47,-77.14 466.61,-80.51"/>
</g>
<!-- Node12&#45;&gt;Node3 -->
<g id="edge12" class="edge">
<title>Node12&#45;&gt;Node3</title>
<path fill="none" stroke="#63b8ff" d="M453.32,-54.9C450.38,-54.18 447.37,-53.51 444.5,-53 274.17,-22.66 225,-46.26 51.01,-16.96"/>
<polygon fill="#63b8ff" stroke="#63b8ff" points="51.45,-13.49 41.01,-15.24 50.27,-20.39 51.45,-13.49"/>
</g>
<!-- Node12&#45;&gt;Node4 -->
<g id="edge16" class="edge">
<title>Node12&#45;&gt;Node4</title>
<path fill="none" stroke="#63b8ff" d="M453.31,-54.93C450.38,-54.2 447.37,-53.53 444.5,-53 295.3,-25.46 251.25,-47.3 98.33,-16.67"/>
<polygon fill="#63b8ff" stroke="#63b8ff" points="98.6,-13.15 88.1,-14.57 97.2,-20.01 98.6,-13.15"/>
</g>
<!-- Node12&#45;&gt;Node6 -->
<g id="edge27" class="edge">
<title>Node12&#45;&gt;Node6</title>
<path fill="none" stroke="#63b8ff" d="M453.3,-55C450.37,-54.26 447.36,-53.57 444.5,-53 324.96,-29.39 290.41,-38.02 166.57,-17.02"/>
<polygon fill="#63b8ff" stroke="#63b8ff" points="167.15,-13.57 156.7,-15.32 165.96,-20.47 167.15,-13.57"/>
</g>
<!-- Node13 -->
<g id="node13" class="node">
<title>Node13</title>
<g id="a_node13"><a xlink:title=" ">
<polygon fill="#e0e0e0" stroke="#999999" points="552,-17 515,-17 515,0 552,0 552,-17"/>
<text text-anchor="middle" x="533.5" y="-6.6" font-family="SourceSans" font-size="8.00">tuple</text>
</a>
</g>
</g>
<!-- Node12&#45;&gt;Node13 -->
<g id="edge13" class="edge">
<title>Node12&#45;&gt;Node13</title>
<path fill="none" stroke="#63b8ff" d="M481.5,-52.97C490.69,-45.29 505.18,-33.18 516.53,-23.69"/>
<polygon fill="#63b8ff" stroke="#63b8ff" points="519.04,-26.16 524.46,-17.06 514.55,-20.79 519.04,-26.16"/>
</g>
<!-- Node14 -->
<g id="node14" class="node">
<title>Node14</title>
<g id="a_node14"><a xlink:title=" ">
<polygon fill="#e0e0e0" stroke="#999999" points="609,-17 570,-17 570,0 609,0 609,-17"/>
<text text-anchor="middle" x="589.5" y="-6.6" font-family="SourceSans" font-size="8.00">string</text>
</a>
</g>
</g>
<!-- Node12&#45;&gt;Node14 -->
<g id="edge14" class="edge">
<title>Node12&#45;&gt;Node14</title>
<path fill="none" stroke="#63b8ff" d="M489.76,-52.97C509.03,-44.58 540.45,-30.88 562.87,-21.11"/>
<polygon fill="#63b8ff" stroke="#63b8ff" points="564.4,-24.26 572.17,-17.06 561.6,-17.84 564.4,-24.26"/>
</g>
<!-- Node15 -->
<g id="node15" class="node">
<title>Node15</title>
<g id="a_node15"><a xlink:title=" ">
<polygon fill="#e0e0e0" stroke="#999999" points="666,-17 627,-17 627,0 666,0 666,-17"/>
<text text-anchor="middle" x="646.5" y="-6.6" font-family="SourceSans" font-size="8.00">vector</text>
</a>
</g>
</g>
<!-- Node12&#45;&gt;Node15 -->
<g id="edge15" class="edge">
<title>Node12&#45;&gt;Node15</title>
<path fill="none" stroke="#63b8ff" d="M491.79,-54.85C522.15,-45.95 581.3,-28.61 617.02,-18.14"/>
<polygon fill="#63b8ff" stroke="#63b8ff" points="618.25,-21.43 626.86,-15.26 616.28,-14.71 618.25,-21.43"/>
</g>
<!-- Node16 -->
<g id="node16" class="node">
<title>Node16</title>
<g id="a_node16"><a xlink:title=" ">
<polygon fill="#e0e0e0" stroke="#999999" points="762.5,-17 684.5,-17 684.5,0 762.5,0 762.5,-17"/>
<text text-anchor="middle" x="723.5" y="-6.6" font-family="SourceSans" font-size="8.00">unordered_map</text>
</a>
</g>
</g>
<!-- Node12&#45;&gt;Node16 -->
<g id="edge17" class="edge">
<title>Node12&#45;&gt;Node16</title>
<path fill="none" stroke="#63b8ff" d="M491.74,-55.16C494.66,-54.4 497.66,-53.66 500.5,-53 559.99,-39.25 629.07,-26.22 674.39,-18.07"/>
<polygon fill="#63b8ff" stroke="#63b8ff" points="675.02,-21.51 684.25,-16.31 673.79,-14.62 675.02,-21.51"/>
</g>
<!-- Node17 -->
<g id="node17" class="node">
<title>Node17</title>
<g id="a_node17"><a xlink:title=" ">
<polygon fill="#e0e0e0" stroke="#999999" points="852.5,-17 780.5,-17 780.5,0 852.5,0 852.5,-17"/>
<text text-anchor="middle" x="816.5" y="-6.6" font-family="SourceSans" font-size="8.00">unordered_set</text>
</a>
</g>
</g>
<!-- Node12&#45;&gt;Node17 -->
<g id="edge18" class="edge">
<title>Node12&#45;&gt;Node17</title>
<path fill="none" stroke="#63b8ff" d="M491.7,-55.01C494.63,-54.27 497.64,-53.57 500.5,-53 616.51,-29.86 649.61,-34.71 770.18,-17.14"/>
<polygon fill="#63b8ff" stroke="#63b8ff" points="770.79,-20.59 780.17,-15.66 769.76,-13.66 770.79,-20.59"/>
</g>
<!-- Node18 -->
<g id="node18" class="node">
<title>Node18</title>
<g id="a_node18"><a xlink:title=" ">
<polygon fill="#e0e0e0" stroke="#999999" points="914,-17 871,-17 871,0 914,0 914,-17"/>
<text text-anchor="middle" x="892.5" y="-6.6" font-family="SourceSans" font-size="8.00">chrono</text>
</a>
</g>
</g>
<!-- Node12&#45;&gt;Node18 -->
<g id="edge19" class="edge">
<title>Node12&#45;&gt;Node18</title>
<path fill="none" stroke="#63b8ff" d="M491.69,-54.92C494.62,-54.2 497.63,-53.52 500.5,-53 655.87,-24.64 700.71,-43.22 860.7,-16.85"/>
<polygon fill="#63b8ff" stroke="#63b8ff" points="861.62,-20.24 870.9,-15.13 860.46,-13.34 861.62,-20.24"/>
</g>
<!-- Node19 -->
<g id="node19" class="node">
<title>Node19</title>
<g id="a_node19"><a xlink:title=" ">
<polygon fill="#e0e0e0" stroke="#999999" points="980.5,-17 932.5,-17 932.5,0 980.5,0 980.5,-17"/>
<text text-anchor="middle" x="956.5" y="-6.6" font-family="SourceSans" font-size="8.00">numeric</text>
</a>
</g>
</g>
<!-- Node12&#45;&gt;Node19 -->
<g id="edge20" class="edge">
<title>Node12&#45;&gt;Node19</title>
<path fill="none" stroke="#63b8ff" d="M491.68,-54.88C494.62,-54.16 497.62,-53.5 500.5,-53 683.18,-21.02 735.29,-45.12 922.53,-16.9"/>
<polygon fill="#63b8ff" stroke="#63b8ff" points="923.07,-20.36 932.42,-15.38 922.01,-13.44 923.07,-20.36"/>
</g>
<!-- Node20 -->
<g id="node20" class="node">
<title>Node20</title>
<g id="a_node20"><a xlink:title=" ">
<polygon fill="#e0e0e0" stroke="#999999" points="1052.5,-17 998.5,-17 998.5,0 1052.5,0 1052.5,-17"/>
<text text-anchor="middle" x="1025.5" y="-6.6" font-family="SourceSans" font-size="8.00">algorithm</text>
</a>
</g>
</g>
<!-- Node12&#45;&gt;Node20 -->
<g id="edge21" class="edge">
<title>Node12&#45;&gt;Node20</title>
<path fill="none" stroke="#63b8ff" d="M491.67,-54.85C494.61,-54.14 497.62,-53.49 500.5,-53 712.12,-17.2 771.89,-46.38 988.35,-16.94"/>
<polygon fill="#63b8ff" stroke="#63b8ff" points="989.02,-20.38 998.44,-15.54 988.05,-13.44 989.02,-20.38"/>
</g>
<!-- Node21 -->
<g id="node21" class="node">
<title>Node21</title>
<g id="a_node21"><a xlink:title=" ">
<polygon fill="#e0e0e0" stroke="#999999" points="1108.5,-17 1070.5,-17 1070.5,0 1108.5,0 1108.5,-17"/>
<text text-anchor="middle" x="1089.5" y="-6.6" font-family="SourceSans" font-size="8.00">locale</text>
</a>
</g>
</g>
<!-- Node12&#45;&gt;Node21 -->
<g id="edge22" class="edge">
<title>Node12&#45;&gt;Node21</title>
<path fill="none" stroke="#63b8ff" d="M491.67,-54.83C494.61,-54.12 497.62,-53.47 500.5,-53 743.79,-13.01 813.14,-56.35 1060.33,-16.8"/>
<polygon fill="#63b8ff" stroke="#63b8ff" points="1061.02,-20.23 1070.33,-15.17 1059.9,-13.32 1061.02,-20.23"/>
</g>
<!-- Node22 -->
<g id="node22" class="node">
<title>Node22</title>
<g id="a_node22"><a xlink:title=" ">
<polygon fill="#e0e0e0" stroke="#999999" points="220,-17 175,-17 175,0 220,0 220,-17"/>
<text text-anchor="middle" x="197.5" y="-6.6" font-family="SourceSans" font-size="8.00">codecvt</text>
</a>
</g>
</g>
<!-- Node12&#45;&gt;Node22 -->
<g id="edge23" class="edge">
<title>Node12&#45;&gt;Node22</title>
<path fill="none" stroke="#63b8ff" d="M453.28,-55.09C450.35,-54.34 447.35,-53.62 444.5,-53 352.54,-33.07 325.63,-36.21 230.22,-17.22"/>
<polygon fill="#63b8ff" stroke="#63b8ff" points="230.64,-13.73 220.14,-15.18 229.25,-20.59 230.64,-13.73"/>
</g>
<!-- Node23 -->
<g id="node23" class="node">
<title>Node23</title>
<g id="a_node23"><a xlink:title=" ">
<polygon fill="#e0e0e0" stroke="#999999" points="365,-17 238,-17 238,0 365,0 365,-17"/>
<text text-anchor="middle" x="301.5" y="-6.6" font-family="SourceSans" font-size="8.00">ext/codecvt_specializations.h</text>
</a>
</g>
</g>
<!-- Node12&#45;&gt;Node23 -->
<g id="edge24" class="edge">
<title>Node12&#45;&gt;Node23</title>
<path fill="none" stroke="#63b8ff" d="M453.22,-54.75C424.99,-46.33 371.97,-30.52 336.69,-20"/>
<polygon fill="#63b8ff" stroke="#63b8ff" points="337.38,-16.55 326.8,-17.05 335.38,-23.26 337.38,-16.55"/>
</g>
<!-- Node24 -->
<g id="node24" class="node">
<title>Node24</title>
<g id="a_node24"><a xlink:title=" ">
<polygon fill="#e0e0e0" stroke="#999999" points="430,-17 383,-17 383,0 430,0 430,-17"/>
<text text-anchor="middle" x="406.5" y="-6.6" font-family="SourceSans" font-size="8.00">sstream</text>
</a>
</g>
</g>
<!-- Node12&#45;&gt;Node24 -->
<g id="edge25" class="edge">
<title>Node12&#45;&gt;Node24</title>
<path fill="none" stroke="#63b8ff" d="M462.76,-52.97C452.72,-45.22 436.83,-32.94 424.5,-23.41"/>
<polygon fill="#63b8ff" stroke="#63b8ff" points="426.33,-20.4 416.28,-17.06 422.05,-25.94 426.33,-20.4"/>
</g>
<!-- Node25 -->
<g id="node25" class="node">
<title>Node25</title>
<g id="a_node25"><a xlink:title=" ">
<polygon fill="#e0e0e0" stroke="#999999" points="496.5,-17 448.5,-17 448.5,0 496.5,0 496.5,-17"/>
<text text-anchor="middle" x="472.5" y="-6.6" font-family="SourceSans" font-size="8.00">iomanip</text>
</a>
</g>
</g>
<!-- Node12&#45;&gt;Node25 -->
<g id="edge26" class="edge">
<title>Node12&#45;&gt;Node25</title>
<path fill="none" stroke="#63b8ff" d="M472.5,-52.97C472.5,-46.19 472.5,-35.97 472.5,-27.13"/>
<polygon fill="#63b8ff" stroke="#63b8ff" points="476,-27.06 472.5,-17.06 469,-27.06 476,-27.06"/>
</g>
</g>
</svg>
        <g id="navigator" transform="translate(0 0)" fill="#404254">
                <rect fill="#f2f5e9" fill-opacity="0.5" stroke="#606060" stroke-width=".5" x="0" y="0" width="60" height="60"/>
                <use id="zoomplus" xlink:href="#zoomPlus" x="17" y="9" onmousedown="handleZoom(evt,'in')"/>
                <use id="zoomminus" xlink:href="#zoomMin" x="42" y="9" onmousedown="handleZoom(evt,'out')"/>
                <use id="reset" xlink:href="#resetDef" x="30" y="36" onmousedown="handleReset()"/>
                <g id="arrowUp" xlink:href="#dirArrow" transform="translate(30 24)" onmousedown="handlePan(0,-1)">
                  <use xlink:href="#rim" fill="#404040">
                        <set attributeName="fill" to="#808080" begin="arrowUp.mouseover" end="arrowUp.mouseout"/>
                  </use>
                  <path fill="none" stroke="white" stroke-width="1.5" d="M0,-3.0v7 M-2.5,-0.5L0,-3.0L2.5,-0.5"/>
                </g>
                <g id="arrowRight" xlink:href="#dirArrow" transform="rotate(90) translate(36 -43)" onmousedown="handlePan(1,0)">
                  <use xlink:href="#rim" fill="#404040">
                        <set attributeName="fill" to="#808080" begin="arrowRight.mouseover" end="arrowRight.mouseout"/>
                  </use>
                  <path fill="none" stroke="white" stroke-width="1.5" d="M0,-3.0v7 M-2.5,-0.5L0,-3.0L2.5,-0.5"/>
                </g>
                <g id="arrowDown" xlink:href="#dirArrow" transform="rotate(180) translate(-30 -48)" onmousedown="handlePan(0,1)">
                  <use xlink:href="#rim" fill="#404040">
                        <set attributeName="fill" to="#808080" begin="arrowDown.mouseover" end="arrowDown.mouseout"/>
                  </use>
                  <path fill="none" stroke="white" stroke-width="1.5" d="M0,-3.0v7 M-2.5,-0.5L0,-3.0L2.5,-0.5"/>
                </g>
                <g id="arrowLeft" xlink:href="#dirArrow" transform="rotate(270) translate(-36 17)" onmousedown="handlePan(-1,0)">
                  <use xlink:href="#rim" fill="#404040">
                        <set attributeName="fill" to="#808080" begin="arrowLeft.mouseover" end="arrowLeft.mouseout"/>
                  </use>
                  <path fill="none" stroke="white" stroke-width="1.5" d="M0,-3.0v7 M-2.5,-0.5L0,-3.0L2.5,-0.5"/>
                </g>
        </g>
        <svg viewBox="0 0 15 15" width="100%" height="30px" preserveAspectRatio="xMaxYMin meet">
         <g id="arrow_out" transform="scale(0.3 0.3)">
          <a xlink:href="a60-demographia_8h__incl_org.svg" target="_base">
           <rect id="button" ry="5" rx="5" y="6" x="6" height="38" width="38"
                fill="#f2f5e9" fill-opacity="0.5" stroke="#606060" stroke-width="1.0"/>
           <path id="arrow"
             d="M 11.500037,31.436501 C 11.940474,20.09759 22.043105,11.32322 32.158766,21.979434 L 37.068811,17.246167 C 37.068811,17.246167 37.088388,32 37.088388,32 L 22.160133,31.978069 C 22.160133,31.978069 26.997745,27.140456 26.997745,27.140456 C 18.528582,18.264221 13.291696,25.230495 11.500037,31.436501 z"
             style="fill:#404040;"/>
          </a>
         </g>
        </svg>
</svg>
