<?xml version="1.0" encoding="UTF-8" standalone="no"?>
<!DOCTYPE svg PUBLIC "-//W3C//DTD SVG 1.1//EN"
 "http://www.w3.org/Graphics/SVG/1.1/DTD/svg11.dtd">
<!-- Generated by graphviz version 5.0.0 (0)
 -->
<!-- Title: /home/bkoz/src/alpha60&#45;docs/src/a60&#45;collection&#45;coalesce.h Pages: 1 -->
<svg width="1116pt" height="264pt"
 viewBox="0.00 0.00 1115.50 264.00" xmlns="http://www.w3.org/2000/svg" xmlns:xlink="http://www.w3.org/1999/xlink">
<g id="graph0" class="graph" transform="scale(1 1) rotate(0) translate(4 260)">
<title>/home/bkoz/src/alpha60&#45;docs/src/a60&#45;collection&#45;coalesce.h</title>
<!-- Node1 -->
<g id="node1" class="node">
<title>Node1</title>
<g id="a_node1"><a xlink:title=" ">
<polygon fill="#999999" stroke="#666666" points="659.5,-256 549.5,-256 549.5,-221 659.5,-221 659.5,-256"/>
<text text-anchor="start" x="557.5" y="-245.6" font-family="SourceSans" font-size="8.00">/home/bkoz/src/alpha60</text>
<text text-anchor="start" x="557.5" y="-236.6" font-family="SourceSans" font-size="8.00">&#45;docs/src/a60&#45;collection</text>
<text text-anchor="middle" x="604.5" y="-227.6" font-family="SourceSans" font-size="8.00">&#45;coalesce.h</text>
</a>
</g>
</g>
<!-- Node2 -->
<g id="node2" class="node">
<title>Node2</title>
<g id="a_node2"><a xlink:href="a60-collection-base_8h.html" target="_top" xlink:title=" ">
<polygon fill="white" stroke="#666666" points="536.5,-127.5 440.5,-127.5 440.5,-110.5 536.5,-110.5 536.5,-127.5"/>
<text text-anchor="middle" x="488.5" y="-117.1" font-family="SourceSans" font-size="8.00">a60&#45;collection&#45;base.h</text>
</a>
</g>
</g>
<!-- Node1&#45;&gt;Node2 -->
<g id="edge1" class="edge">
<title>Node1&#45;&gt;Node2</title>
<path fill="none" stroke="#63b8ff" d="M581.47,-220.94C568.53,-211.14 552.43,-198.12 539.5,-185 524.28,-169.56 509.26,-149.7 499.5,-136.02"/>
<polygon fill="#63b8ff" stroke="#63b8ff" points="502.25,-133.85 493.65,-127.66 496.52,-137.86 502.25,-133.85"/>
</g>
<!-- Node21 -->
<g id="node21" class="node">
<title>Node21</title>
<g id="a_node21"><a xlink:href="a60-collection-duration_8h.html" target="_top" xlink:title=" ">
<polygon fill="white" stroke="#666666" points="660,-185 549,-185 549,-168 660,-168 660,-185"/>
<text text-anchor="middle" x="604.5" y="-174.6" font-family="SourceSans" font-size="8.00">a60&#45;collection&#45;duration.h</text>
</a>
</g>
</g>
<!-- Node1&#45;&gt;Node21 -->
<g id="edge20" class="edge">
<title>Node1&#45;&gt;Node21</title>
<path fill="none" stroke="#63b8ff" d="M604.5,-220.79C604.5,-212.87 604.5,-203.4 604.5,-195.34"/>
<polygon fill="#63b8ff" stroke="#63b8ff" points="608,-195.2 604.5,-185.2 601,-195.2 608,-195.2"/>
</g>
<!-- Node23 -->
<g id="node23" class="node">
<title>Node23</title>
<g id="a_node23"><a xlink:href="a60-thread-pool_8h.html" target="_top" xlink:title=" ">
<polygon fill="white" stroke="#666666" points="882.5,-185 798.5,-185 798.5,-168 882.5,-168 882.5,-185"/>
<text text-anchor="middle" x="840.5" y="-174.6" font-family="SourceSans" font-size="8.00">a60&#45;thread&#45;pool.h</text>
</a>
</g>
</g>
<!-- Node1&#45;&gt;Node23 -->
<g id="edge23" class="edge">
<title>Node1&#45;&gt;Node23</title>
<path fill="none" stroke="#63b8ff" d="M659.53,-223.51C702.92,-212.48 762.37,-197.36 801.1,-187.52"/>
<polygon fill="#63b8ff" stroke="#63b8ff" points="802.13,-190.87 810.96,-185.01 800.4,-184.08 802.13,-190.87"/>
</g>
<!-- Node3 -->
<g id="node3" class="node">
<title>Node3</title>
<g id="a_node3"><a xlink:title=" ">
<polygon fill="#e0e0e0" stroke="#999999" points="478.5,-70 444.5,-70 444.5,-53 478.5,-53 478.5,-70"/>
<text text-anchor="middle" x="461.5" y="-59.6" font-family="SourceSans" font-size="8.00">map</text>
</a>
</g>
</g>
<!-- Node2&#45;&gt;Node3 -->
<g id="edge2" class="edge">
<title>Node2&#45;&gt;Node3</title>
<path fill="none" stroke="#63b8ff" d="M484.75,-110.28C480.88,-102.33 474.72,-89.68 469.72,-79.39"/>
<polygon fill="#63b8ff" stroke="#63b8ff" points="472.74,-77.61 465.22,-70.15 466.45,-80.68 472.74,-77.61"/>
</g>
<!-- Node4 -->
<g id="node4" class="node">
<title>Node4</title>
<g id="a_node4"><a xlink:href="a60_8h.html" target="_top" xlink:title=" ">
<polygon fill="white" stroke="#666666" points="534.5,-70 496.5,-70 496.5,-53 534.5,-53 534.5,-70"/>
<text text-anchor="middle" x="515.5" y="-59.6" font-family="SourceSans" font-size="8.00">a60.h</text>
</a>
</g>
</g>
<!-- Node2&#45;&gt;Node4 -->
<g id="edge3" class="edge">
<title>Node2&#45;&gt;Node4</title>
<path fill="none" stroke="#63b8ff" d="M492.25,-110.28C496.12,-102.33 502.28,-89.68 507.28,-79.39"/>
<polygon fill="#63b8ff" stroke="#63b8ff" points="510.55,-80.68 511.78,-70.15 504.26,-77.61 510.55,-80.68"/>
</g>
<!-- Node5 -->
<g id="node5" class="node">
<title>Node5</title>
<g id="a_node5"><a xlink:title=" ">
<polygon fill="#e0e0e0" stroke="#999999" points="41,-17 0,-17 0,0 41,0 41,-17"/>
<text text-anchor="middle" x="20.5" y="-6.6" font-family="SourceSans" font-size="8.00">cmath</text>
</a>
</g>
</g>
<!-- Node4&#45;&gt;Node5 -->
<g id="edge4" class="edge">
<title>Node4&#45;&gt;Node5</title>
<path fill="none" stroke="#63b8ff" d="M496.32,-54.88C493.39,-54.16 490.38,-53.5 487.5,-53 298.25,-20.15 243.89,-48.59 50.9,-16.92"/>
<polygon fill="#63b8ff" stroke="#63b8ff" points="51.44,-13.46 41,-15.26 50.29,-20.37 51.44,-13.46"/>
</g>
<!-- Node6 -->
<g id="node6" class="node">
<title>Node6</title>
<g id="a_node6"><a xlink:title=" ">
<polygon fill="#e0e0e0" stroke="#999999" points="96,-17 59,-17 59,0 96,0 96,-17"/>
<text text-anchor="middle" x="77.5" y="-6.6" font-family="SourceSans" font-size="8.00">tuple</text>
</a>
</g>
</g>
<!-- Node4&#45;&gt;Node6 -->
<g id="edge5" class="edge">
<title>Node4&#45;&gt;Node6</title>
<path fill="none" stroke="#63b8ff" d="M496.32,-54.91C493.38,-54.18 490.37,-53.52 487.5,-53 322.42,-23.35 274.46,-47.06 106.22,-16.99"/>
<polygon fill="#63b8ff" stroke="#63b8ff" points="106.75,-13.53 96.28,-15.18 105.49,-20.41 106.75,-13.53"/>
</g>
<!-- Node7 -->
<g id="node7" class="node">
<title>Node7</title>
<g id="a_node7"><a xlink:title=" ">
<polygon fill="#e0e0e0" stroke="#999999" points="153,-17 114,-17 114,0 153,0 153,-17"/>
<text text-anchor="middle" x="133.5" y="-6.6" font-family="SourceSans" font-size="8.00">string</text>
</a>
</g>
</g>
<!-- Node4&#45;&gt;Node7 -->
<g id="edge6" class="edge">
<title>Node4&#45;&gt;Node7</title>
<path fill="none" stroke="#63b8ff" d="M496.31,-54.95C493.37,-54.22 490.37,-53.54 487.5,-53 347.46,-26.67 306.59,-43.16 163.34,-17.07"/>
<polygon fill="#63b8ff" stroke="#63b8ff" points="163.77,-13.59 153.3,-15.2 162.49,-20.47 163.77,-13.59"/>
</g>
<!-- Node8 -->
<g id="node8" class="node">
<title>Node8</title>
<g id="a_node8"><a xlink:title=" ">
<polygon fill="#e0e0e0" stroke="#999999" points="210,-17 171,-17 171,0 210,0 210,-17"/>
<text text-anchor="middle" x="190.5" y="-6.6" font-family="SourceSans" font-size="8.00">vector</text>
</a>
</g>
</g>
<!-- Node4&#45;&gt;Node8 -->
<g id="edge7" class="edge">
<title>Node4&#45;&gt;Node8</title>
<path fill="none" stroke="#63b8ff" d="M496.3,-55.01C493.36,-54.27 490.36,-53.57 487.5,-53 372.34,-29.97 338.55,-40.08 219.84,-17.02"/>
<polygon fill="#63b8ff" stroke="#63b8ff" points="220.5,-13.58 210.01,-15.07 219.14,-20.45 220.5,-13.58"/>
</g>
<!-- Node9 -->
<g id="node9" class="node">
<title>Node9</title>
<g id="a_node9"><a xlink:title=" ">
<polygon fill="#e0e0e0" stroke="#999999" points="257,-17 228,-17 228,0 257,0 257,-17"/>
<text text-anchor="middle" x="242.5" y="-6.6" font-family="SourceSans" font-size="8.00">set</text>
</a>
</g>
</g>
<!-- Node4&#45;&gt;Node9 -->
<g id="edge8" class="edge">
<title>Node4&#45;&gt;Node9</title>
<path fill="none" stroke="#63b8ff" d="M496.28,-55.08C493.35,-54.33 490.35,-53.61 487.5,-53 393.34,-32.77 365.15,-39.43 267.16,-16.79"/>
<polygon fill="#63b8ff" stroke="#63b8ff" points="267.67,-13.32 257.13,-14.43 266.06,-20.13 267.67,-13.32"/>
</g>
<!-- Node10 -->
<g id="node10" class="node">
<title>Node10</title>
<g id="a_node10"><a xlink:title=" ">
<polygon fill="#e0e0e0" stroke="#999999" points="353.5,-17 275.5,-17 275.5,0 353.5,0 353.5,-17"/>
<text text-anchor="middle" x="314.5" y="-6.6" font-family="SourceSans" font-size="8.00">unordered_map</text>
</a>
</g>
</g>
<!-- Node4&#45;&gt;Node10 -->
<g id="edge9" class="edge">
<title>Node4&#45;&gt;Node10</title>
<path fill="none" stroke="#63b8ff" d="M496.23,-55.3C493.31,-54.52 490.33,-53.73 487.5,-53 442.21,-41.24 390.12,-28.21 355.03,-19.5"/>
<polygon fill="#63b8ff" stroke="#63b8ff" points="355.71,-16.07 345.16,-17.06 354.03,-22.86 355.71,-16.07"/>
</g>
<!-- Node11 -->
<g id="node11" class="node">
<title>Node11</title>
<g id="a_node11"><a xlink:title=" ">
<polygon fill="#e0e0e0" stroke="#999999" points="443.5,-17 371.5,-17 371.5,0 443.5,0 443.5,-17"/>
<text text-anchor="middle" x="407.5" y="-6.6" font-family="SourceSans" font-size="8.00">unordered_set</text>
</a>
</g>
</g>
<!-- Node4&#45;&gt;Node11 -->
<g id="edge10" class="edge">
<title>Node4&#45;&gt;Node11</title>
<path fill="none" stroke="#63b8ff" d="M499.56,-52.97C481.94,-44.65 453.3,-31.13 432.64,-21.37"/>
<polygon fill="#63b8ff" stroke="#63b8ff" points="434.04,-18.16 423.5,-17.06 431.05,-24.49 434.04,-18.16"/>
</g>
<!-- Node12 -->
<g id="node12" class="node">
<title>Node12</title>
<g id="a_node12"><a xlink:title=" ">
<polygon fill="#e0e0e0" stroke="#999999" points="505,-17 462,-17 462,0 505,0 505,-17"/>
<text text-anchor="middle" x="483.5" y="-6.6" font-family="SourceSans" font-size="8.00">chrono</text>
</a>
</g>
</g>
<!-- Node4&#45;&gt;Node12 -->
<g id="edge11" class="edge">
<title>Node4&#45;&gt;Node12</title>
<path fill="none" stroke="#63b8ff" d="M510.78,-52.97C506.29,-45.82 499.39,-34.82 493.65,-25.67"/>
<polygon fill="#63b8ff" stroke="#63b8ff" points="496.52,-23.67 488.24,-17.06 490.59,-27.39 496.52,-23.67"/>
</g>
<!-- Node13 -->
<g id="node13" class="node">
<title>Node13</title>
<g id="a_node13"><a xlink:title=" ">
<polygon fill="#e0e0e0" stroke="#999999" points="571.5,-17 523.5,-17 523.5,0 571.5,0 571.5,-17"/>
<text text-anchor="middle" x="547.5" y="-6.6" font-family="SourceSans" font-size="8.00">numeric</text>
</a>
</g>
</g>
<!-- Node4&#45;&gt;Node13 -->
<g id="edge12" class="edge">
<title>Node4&#45;&gt;Node13</title>
<path fill="none" stroke="#63b8ff" d="M520.22,-52.97C524.71,-45.82 531.61,-34.82 537.35,-25.67"/>
<polygon fill="#63b8ff" stroke="#63b8ff" points="540.41,-27.39 542.76,-17.06 534.48,-23.67 540.41,-27.39"/>
</g>
<!-- Node14 -->
<g id="node14" class="node">
<title>Node14</title>
<g id="a_node14"><a xlink:title=" ">
<polygon fill="#e0e0e0" stroke="#999999" points="643.5,-17 589.5,-17 589.5,0 643.5,0 643.5,-17"/>
<text text-anchor="middle" x="616.5" y="-6.6" font-family="SourceSans" font-size="8.00">algorithm</text>
</a>
</g>
</g>
<!-- Node4&#45;&gt;Node14 -->
<g id="edge13" class="edge">
<title>Node4&#45;&gt;Node14</title>
<path fill="none" stroke="#63b8ff" d="M530.4,-52.97C546.74,-44.73 573.19,-31.37 592.46,-21.64"/>
<polygon fill="#63b8ff" stroke="#63b8ff" points="594.19,-24.69 601.54,-17.06 591.03,-18.44 594.19,-24.69"/>
</g>
<!-- Node15 -->
<g id="node15" class="node">
<title>Node15</title>
<g id="a_node15"><a xlink:title=" ">
<polygon fill="#e0e0e0" stroke="#999999" points="699.5,-17 661.5,-17 661.5,0 699.5,0 699.5,-17"/>
<text text-anchor="middle" x="680.5" y="-6.6" font-family="SourceSans" font-size="8.00">locale</text>
</a>
</g>
</g>
<!-- Node4&#45;&gt;Node15 -->
<g id="edge14" class="edge">
<title>Node4&#45;&gt;Node15</title>
<path fill="none" stroke="#63b8ff" d="M534.75,-54.55C563.56,-45.64 618.1,-28.79 651.68,-18.41"/>
<polygon fill="#63b8ff" stroke="#63b8ff" points="652.85,-21.71 661.37,-15.41 650.78,-15.02 652.85,-21.71"/>
</g>
<!-- Node16 -->
<g id="node16" class="node">
<title>Node16</title>
<g id="a_node16"><a xlink:title=" ">
<polygon fill="#e0e0e0" stroke="#999999" points="763,-17 718,-17 718,0 763,0 763,-17"/>
<text text-anchor="middle" x="740.5" y="-6.6" font-family="SourceSans" font-size="8.00">codecvt</text>
</a>
</g>
</g>
<!-- Node4&#45;&gt;Node16 -->
<g id="edge15" class="edge">
<title>Node4&#45;&gt;Node16</title>
<path fill="none" stroke="#63b8ff" d="M534.69,-56.23C567.83,-48.85 638.2,-33.12 707.95,-17.11"/>
<polygon fill="#63b8ff" stroke="#63b8ff" points="708.82,-20.5 717.78,-14.85 707.25,-13.68 708.82,-20.5"/>
</g>
<!-- Node17 -->
<g id="node17" class="node">
<title>Node17</title>
<g id="a_node17"><a xlink:title=" ">
<polygon fill="#e0e0e0" stroke="#999999" points="908,-17 781,-17 781,0 908,0 908,-17"/>
<text text-anchor="middle" x="844.5" y="-6.6" font-family="SourceSans" font-size="8.00">ext/codecvt_specializations.h</text>
</a>
</g>
</g>
<!-- Node4&#45;&gt;Node17 -->
<g id="edge16" class="edge">
<title>Node4&#45;&gt;Node17</title>
<path fill="none" stroke="#63b8ff" d="M534.61,-57.54C582.62,-50.1 709.82,-30.38 785.5,-18.65"/>
<polygon fill="#63b8ff" stroke="#63b8ff" points="786.48,-22.04 795.82,-17.05 785.4,-15.12 786.48,-22.04"/>
</g>
<!-- Node18 -->
<g id="node18" class="node">
<title>Node18</title>
<g id="a_node18"><a xlink:title=" ">
<polygon fill="#e0e0e0" stroke="#999999" points="973,-17 926,-17 926,0 973,0 973,-17"/>
<text text-anchor="middle" x="949.5" y="-6.6" font-family="SourceSans" font-size="8.00">sstream</text>
</a>
</g>
</g>
<!-- Node4&#45;&gt;Node18 -->
<g id="edge17" class="edge">
<title>Node4&#45;&gt;Node18</title>
<path fill="none" stroke="#63b8ff" d="M534.86,-59.25C591.82,-55.39 763.88,-42.49 915.82,-17.09"/>
<polygon fill="#63b8ff" stroke="#63b8ff" points="916.53,-20.52 925.8,-15.4 915.36,-13.62 916.53,-20.52"/>
</g>
<!-- Node19 -->
<g id="node19" class="node">
<title>Node19</title>
<g id="a_node19"><a xlink:title=" ">
<polygon fill="#e0e0e0" stroke="#999999" points="1039.5,-17 991.5,-17 991.5,0 1039.5,0 1039.5,-17"/>
<text text-anchor="middle" x="1015.5" y="-6.6" font-family="SourceSans" font-size="8.00">iomanip</text>
</a>
</g>
</g>
<!-- Node4&#45;&gt;Node19 -->
<g id="edge18" class="edge">
<title>Node4&#45;&gt;Node19</title>
<path fill="none" stroke="#63b8ff" d="M534.74,-59.61C597.53,-56.52 802.23,-44.95 981.29,-16.96"/>
<polygon fill="#63b8ff" stroke="#63b8ff" points="982.09,-20.38 991.42,-15.35 981,-13.46 982.09,-20.38"/>
</g>
<!-- Node20 -->
<g id="node20" class="node">
<title>Node20</title>
<g id="a_node20"><a xlink:title=" ">
<polygon fill="#e0e0e0" stroke="#999999" points="1107.5,-17 1057.5,-17 1057.5,0 1107.5,0 1107.5,-17"/>
<text text-anchor="middle" x="1082.5" y="-6.6" font-family="SourceSans" font-size="8.00">iostream</text>
</a>
</g>
</g>
<!-- Node4&#45;&gt;Node20 -->
<g id="edge19" class="edge">
<title>Node4&#45;&gt;Node20</title>
<path fill="none" stroke="#63b8ff" d="M534.97,-59.87C603.7,-57.42 841.44,-47.3 1047.24,-16.96"/>
<polygon fill="#63b8ff" stroke="#63b8ff" points="1047.95,-20.39 1057.32,-15.45 1046.91,-13.47 1047.95,-20.39"/>
</g>
<!-- Node21&#45;&gt;Node2 -->
<g id="edge21" class="edge">
<title>Node21&#45;&gt;Node2</title>
<path fill="none" stroke="#63b8ff" d="M588.37,-167.78C568.98,-158.5 536.22,-142.83 513.53,-131.98"/>
<polygon fill="#63b8ff" stroke="#63b8ff" points="515.02,-128.81 504.49,-127.65 512,-135.12 515.02,-128.81"/>
</g>
<!-- Node22 -->
<g id="node22" class="node">
<title>Node22</title>
<g id="a_node22"><a xlink:title=" ">
<polygon fill="#e0e0e0" stroke="#999999" points="674,-132 555,-132 555,-106 674,-106 674,-132"/>
<text text-anchor="start" x="563" y="-121.6" font-family="SourceSans" font-size="8.00">boost/date_time/gregorian</text>
<text text-anchor="middle" x="614.5" y="-112.6" font-family="SourceSans" font-size="8.00">/gregorian.hpp</text>
</a>
</g>
</g>
<!-- Node21&#45;&gt;Node22 -->
<g id="edge22" class="edge">
<title>Node21&#45;&gt;Node22</title>
<path fill="none" stroke="#63b8ff" d="M605.89,-167.78C607.08,-161.19 608.85,-151.36 610.48,-142.34"/>
<polygon fill="#63b8ff" stroke="#63b8ff" points="613.95,-142.81 612.28,-132.34 607.06,-141.56 613.95,-142.81"/>
</g>
<!-- Node24 -->
<g id="node24" class="node">
<title>Node24</title>
<g id="a_node24"><a xlink:title=" ">
<polygon fill="#e0e0e0" stroke="#999999" points="748.5,-127.5 692.5,-127.5 692.5,-110.5 748.5,-110.5 748.5,-127.5"/>
<text text-anchor="middle" x="720.5" y="-117.1" font-family="SourceSans" font-size="8.00">functional</text>
</a>
</g>
</g>
<!-- Node23&#45;&gt;Node24 -->
<g id="edge24" class="edge">
<title>Node23&#45;&gt;Node24</title>
<path fill="none" stroke="#63b8ff" d="M823.81,-167.78C803.75,-158.5 769.86,-142.83 746.39,-131.98"/>
<polygon fill="#63b8ff" stroke="#63b8ff" points="747.59,-128.67 737.04,-127.65 744.65,-135.03 747.59,-128.67"/>
</g>
<!-- Node25 -->
<g id="node25" class="node">
<title>Node25</title>
<g id="a_node25"><a xlink:title=" ">
<polygon fill="#e0e0e0" stroke="#999999" points="808,-127.5 767,-127.5 767,-110.5 808,-110.5 808,-127.5"/>
<text text-anchor="middle" x="787.5" y="-117.1" font-family="SourceSans" font-size="8.00">future</text>
</a>
</g>
</g>
<!-- Node23&#45;&gt;Node25 -->
<g id="edge25" class="edge">
<title>Node23&#45;&gt;Node25</title>
<path fill="none" stroke="#63b8ff" d="M833.13,-167.78C825.06,-159.33 811.93,-145.58 801.81,-134.99"/>
<polygon fill="#63b8ff" stroke="#63b8ff" points="804.24,-132.47 794.81,-127.65 799.18,-137.3 804.24,-132.47"/>
</g>
<!-- Node26 -->
<g id="node26" class="node">
<title>Node26</title>
<g id="a_node26"><a xlink:title=" ">
<polygon fill="#e0e0e0" stroke="#999999" points="855,-127.5 826,-127.5 826,-110.5 855,-110.5 855,-127.5"/>
<text text-anchor="middle" x="840.5" y="-117.1" font-family="SourceSans" font-size="8.00">list</text>
</a>
</g>
</g>
<!-- Node23&#45;&gt;Node26 -->
<g id="edge26" class="edge">
<title>Node23&#45;&gt;Node26</title>
<path fill="none" stroke="#63b8ff" d="M840.5,-167.78C840.5,-160.08 840.5,-147.96 840.5,-137.86"/>
<polygon fill="#63b8ff" stroke="#63b8ff" points="844,-137.65 840.5,-127.65 837,-137.65 844,-137.65"/>
</g>
<!-- Node27 -->
<g id="node27" class="node">
<title>Node27</title>
<g id="a_node27"><a xlink:title=" ">
<polygon fill="#e0e0e0" stroke="#999999" points="920,-127.5 873,-127.5 873,-110.5 920,-110.5 920,-127.5"/>
<text text-anchor="middle" x="896.5" y="-117.1" font-family="SourceSans" font-size="8.00">memory</text>
</a>
</g>
</g>
<!-- Node23&#45;&gt;Node27 -->
<g id="edge27" class="edge">
<title>Node23&#45;&gt;Node27</title>
<path fill="none" stroke="#63b8ff" d="M848.29,-167.78C856.81,-159.33 870.69,-145.58 881.37,-134.99"/>
<polygon fill="#63b8ff" stroke="#63b8ff" points="884.14,-137.18 888.78,-127.65 879.21,-132.2 884.14,-137.18"/>
</g>
<!-- Node28 -->
<g id="node28" class="node">
<title>Node28</title>
<g id="a_node28"><a xlink:title=" ">
<polygon fill="#e0e0e0" stroke="#999999" points="979,-127.5 938,-127.5 938,-110.5 979,-110.5 979,-127.5"/>
<text text-anchor="middle" x="958.5" y="-117.1" font-family="SourceSans" font-size="8.00">queue</text>
</a>
</g>
</g>
<!-- Node23&#45;&gt;Node28 -->
<g id="edge28" class="edge">
<title>Node23&#45;&gt;Node28</title>
<path fill="none" stroke="#63b8ff" d="M856.91,-167.78C876.63,-158.5 909.96,-142.83 933.04,-131.98"/>
<polygon fill="#63b8ff" stroke="#63b8ff" points="934.67,-135.07 942.23,-127.65 931.69,-128.74 934.67,-135.07"/>
</g>
<!-- Node29 -->
<g id="node29" class="node">
<title>Node29</title>
<g id="a_node29"><a xlink:title=" ">
<polygon fill="#e0e0e0" stroke="#999999" points="1045.5,-127.5 997.5,-127.5 997.5,-110.5 1045.5,-110.5 1045.5,-127.5"/>
<text text-anchor="middle" x="1021.5" y="-117.1" font-family="SourceSans" font-size="8.00">optional</text>
</a>
</g>
</g>
<!-- Node23&#45;&gt;Node29 -->
<g id="edge29" class="edge">
<title>Node23&#45;&gt;Node29</title>
<path fill="none" stroke="#63b8ff" d="M867.94,-167.99C897.77,-159.7 946.77,-145.7 988.5,-132 989.54,-131.66 990.6,-131.3 991.67,-130.94"/>
<polygon fill="#63b8ff" stroke="#63b8ff" points="993.04,-134.17 1001.33,-127.56 990.73,-127.56 993.04,-134.17"/>
</g>
</g>
</svg>
