<?xml version="1.0" encoding="UTF-8" standalone="no"?>
<!DOCTYPE svg PUBLIC "-//W3C//DTD SVG 1.1//EN"
 "http://www.w3.org/Graphics/SVG/1.1/DTD/svg11.dtd">
<!-- Generated by graphviz version 5.0.0 (0)
 -->
<!-- Title: /home/bkoz/src/alpha60&#45;docs/src/a60&#45;collection&#45;cache.h Pages: 1 -->
<svg width="1155pt" height="370pt"
 viewBox="0.00 0.00 1155.00 370.00" xmlns="http://www.w3.org/2000/svg" xmlns:xlink="http://www.w3.org/1999/xlink">
<g id="graph0" class="graph" transform="scale(1 1) rotate(0) translate(4 366)">
<title>/home/bkoz/src/alpha60&#45;docs/src/a60&#45;collection&#45;cache.h</title>
<!-- Node1 -->
<g id="node1" class="node">
<title>Node1</title>
<g id="a_node1"><a xlink:title=" ">
<polygon fill="#999999" stroke="#666666" points="681,-362 565,-362 565,-327 681,-327 681,-362"/>
<text text-anchor="start" x="573" y="-351.6" font-family="SourceSans" font-size="8.00">/home/bkoz/src/alpha60</text>
<text text-anchor="start" x="573" y="-342.6" font-family="SourceSans" font-size="8.00">&#45;docs/src/a60&#45;collection</text>
<text text-anchor="middle" x="623" y="-333.6" font-family="SourceSans" font-size="8.00">&#45;cache.h</text>
</a>
</g>
</g>
<!-- Node2 -->
<g id="node2" class="node">
<title>Node2</title>
<g id="a_node2"><a xlink:href="a60-collection-persistent_8h.html" target="_top" xlink:title=" ">
<polygon fill="white" stroke="#666666" points="686.5,-291 559.5,-291 559.5,-274 686.5,-274 686.5,-291"/>
<text text-anchor="middle" x="623" y="-280.6" font-family="SourceSans" font-size="8.00">a60&#45;collection&#45;persistent.h</text>
</a>
</g>
</g>
<!-- Node1&#45;&gt;Node2 -->
<g id="edge1" class="edge">
<title>Node1&#45;&gt;Node2</title>
<path fill="none" stroke="#63b8ff" d="M623,-326.79C623,-318.87 623,-309.4 623,-301.34"/>
<polygon fill="#63b8ff" stroke="#63b8ff" points="626.5,-301.2 623,-291.2 619.5,-301.2 626.5,-301.2"/>
</g>
<!-- Node3 -->
<g id="node3" class="node">
<title>Node3</title>
<g id="a_node3"><a xlink:href="a60-collection-coalesce_8h.html" target="_top" xlink:title=" ">
<polygon fill="white" stroke="#666666" points="684,-238 562,-238 562,-221 684,-221 684,-238"/>
<text text-anchor="middle" x="623" y="-227.6" font-family="SourceSans" font-size="8.00">a60&#45;collection&#45;coalesce.h</text>
</a>
</g>
</g>
<!-- Node2&#45;&gt;Node3 -->
<g id="edge2" class="edge">
<title>Node2&#45;&gt;Node3</title>
<path fill="none" stroke="#63b8ff" d="M623,-273.97C623,-267.19 623,-256.97 623,-248.13"/>
<polygon fill="#63b8ff" stroke="#63b8ff" points="626.5,-248.06 623,-238.06 619.5,-248.06 626.5,-248.06"/>
</g>
<!-- Node4 -->
<g id="node4" class="node">
<title>Node4</title>
<g id="a_node4"><a xlink:href="a60-collection-base_8h.html" target="_top" xlink:title=" ">
<polygon fill="white" stroke="#666666" points="553,-127.5 447,-127.5 447,-110.5 553,-110.5 553,-127.5"/>
<text text-anchor="middle" x="500" y="-117.1" font-family="SourceSans" font-size="8.00">a60&#45;collection&#45;base.h</text>
</a>
</g>
</g>
<!-- Node3&#45;&gt;Node4 -->
<g id="edge3" class="edge">
<title>Node3&#45;&gt;Node4</title>
<path fill="none" stroke="#63b8ff" d="M608.08,-220.89C593.44,-213.03 570.93,-199.85 554,-185 537.33,-170.38 521.52,-150.37 511.37,-136.43"/>
<polygon fill="#63b8ff" stroke="#63b8ff" points="513.95,-134.01 505.3,-127.89 508.24,-138.07 513.95,-134.01"/>
</g>
<!-- Node23 -->
<g id="node23" class="node">
<title>Node23</title>
<g id="a_node23"><a xlink:href="a60-collection-duration_8h.html" target="_top" xlink:title=" ">
<polygon fill="white" stroke="#666666" points="683,-185 563,-185 563,-168 683,-168 683,-185"/>
<text text-anchor="middle" x="623" y="-174.6" font-family="SourceSans" font-size="8.00">a60&#45;collection&#45;duration.h</text>
</a>
</g>
</g>
<!-- Node3&#45;&gt;Node23 -->
<g id="edge22" class="edge">
<title>Node3&#45;&gt;Node23</title>
<path fill="none" stroke="#63b8ff" d="M623,-220.97C623,-214.19 623,-203.97 623,-195.13"/>
<polygon fill="#63b8ff" stroke="#63b8ff" points="626.5,-195.06 623,-185.06 619.5,-195.06 626.5,-195.06"/>
</g>
<!-- Node25 -->
<g id="node25" class="node">
<title>Node25</title>
<g id="a_node25"><a xlink:href="a60-thread-pool_8h.html" target="_top" xlink:title=" ">
<polygon fill="white" stroke="#666666" points="910,-185 820,-185 820,-168 910,-168 910,-185"/>
<text text-anchor="middle" x="865" y="-174.6" font-family="SourceSans" font-size="8.00">a60&#45;thread&#45;pool.h</text>
</a>
</g>
</g>
<!-- Node3&#45;&gt;Node25 -->
<g id="edge25" class="edge">
<title>Node3&#45;&gt;Node25</title>
<path fill="none" stroke="#63b8ff" d="M658.71,-220.97C701.33,-211.99 772.69,-196.95 819.31,-187.13"/>
<polygon fill="#63b8ff" stroke="#63b8ff" points="820.08,-190.54 829.15,-185.06 818.64,-183.69 820.08,-190.54"/>
</g>
<!-- Node5 -->
<g id="node5" class="node">
<title>Node5</title>
<g id="a_node5"><a xlink:title=" ">
<polygon fill="#e0e0e0" stroke="#999999" points="489.5,-70 454.5,-70 454.5,-53 489.5,-53 489.5,-70"/>
<text text-anchor="middle" x="472" y="-59.6" font-family="SourceSans" font-size="8.00">map</text>
</a>
</g>
</g>
<!-- Node4&#45;&gt;Node5 -->
<g id="edge4" class="edge">
<title>Node4&#45;&gt;Node5</title>
<path fill="none" stroke="#63b8ff" d="M496.11,-110.28C492.09,-102.33 485.71,-89.68 480.52,-79.39"/>
<polygon fill="#63b8ff" stroke="#63b8ff" points="483.49,-77.5 475.86,-70.15 477.24,-80.66 483.49,-77.5"/>
</g>
<!-- Node6 -->
<g id="node6" class="node">
<title>Node6</title>
<g id="a_node6"><a xlink:href="a60_8h.html" target="_top" xlink:title=" ">
<polygon fill="white" stroke="#666666" points="548,-70 508,-70 508,-53 548,-53 548,-70"/>
<text text-anchor="middle" x="528" y="-59.6" font-family="SourceSans" font-size="8.00">a60.h</text>
</a>
</g>
</g>
<!-- Node4&#45;&gt;Node6 -->
<g id="edge5" class="edge">
<title>Node4&#45;&gt;Node6</title>
<path fill="none" stroke="#63b8ff" d="M503.89,-110.28C507.91,-102.33 514.29,-89.68 519.48,-79.39"/>
<polygon fill="#63b8ff" stroke="#63b8ff" points="522.76,-80.66 524.14,-70.15 516.51,-77.5 522.76,-80.66"/>
</g>
<!-- Node7 -->
<g id="node7" class="node">
<title>Node7</title>
<g id="a_node7"><a xlink:title=" ">
<polygon fill="#e0e0e0" stroke="#999999" points="42,-17 0,-17 0,0 42,0 42,-17"/>
<text text-anchor="middle" x="21" y="-6.6" font-family="SourceSans" font-size="8.00">cmath</text>
</a>
</g>
</g>
<!-- Node6&#45;&gt;Node7 -->
<g id="edge6" class="edge">
<title>Node6&#45;&gt;Node7</title>
<path fill="none" stroke="#63b8ff" d="M507.76,-54.96C504.52,-54.21 501.18,-53.52 498,-53 304.59,-21.26 249.5,-48.35 52.32,-16.91"/>
<polygon fill="#63b8ff" stroke="#63b8ff" points="52.65,-13.41 42.22,-15.26 51.52,-20.32 52.65,-13.41"/>
</g>
<!-- Node8 -->
<g id="node8" class="node">
<title>Node8</title>
<g id="a_node8"><a xlink:title=" ">
<polygon fill="#e0e0e0" stroke="#999999" points="98,-17 60,-17 60,0 98,0 98,-17"/>
<text text-anchor="middle" x="79" y="-6.6" font-family="SourceSans" font-size="8.00">tuple</text>
</a>
</g>
</g>
<!-- Node6&#45;&gt;Node8 -->
<g id="edge7" class="edge">
<title>Node6&#45;&gt;Node8</title>
<path fill="none" stroke="#63b8ff" d="M507.76,-54.99C504.51,-54.24 501.18,-53.54 498,-53 329.15,-24.29 280.59,-46.82 108.1,-16.85"/>
<polygon fill="#63b8ff" stroke="#63b8ff" points="108.64,-13.4 98.18,-15.1 107.42,-20.29 108.64,-13.4"/>
</g>
<!-- Node9 -->
<g id="node9" class="node">
<title>Node9</title>
<g id="a_node9"><a xlink:title=" ">
<polygon fill="#e0e0e0" stroke="#999999" points="156,-17 116,-17 116,0 156,0 156,-17"/>
<text text-anchor="middle" x="136" y="-6.6" font-family="SourceSans" font-size="8.00">string</text>
</a>
</g>
</g>
<!-- Node6&#45;&gt;Node9 -->
<g id="edge8" class="edge">
<title>Node6&#45;&gt;Node9</title>
<path fill="none" stroke="#63b8ff" d="M507.75,-55.04C504.5,-54.28 501.17,-53.57 498,-53 354.59,-27.45 313.21,-43 166.05,-16.9"/>
<polygon fill="#63b8ff" stroke="#63b8ff" points="166.66,-13.46 156.2,-15.12 165.42,-20.35 166.66,-13.46"/>
</g>
<!-- Node10 -->
<g id="node10" class="node">
<title>Node10</title>
<g id="a_node10"><a xlink:title=" ">
<polygon fill="#e0e0e0" stroke="#999999" points="216,-17 174,-17 174,0 216,0 216,-17"/>
<text text-anchor="middle" x="195" y="-6.6" font-family="SourceSans" font-size="8.00">vector</text>
</a>
</g>
</g>
<!-- Node6&#45;&gt;Node10 -->
<g id="edge9" class="edge">
<title>Node6&#45;&gt;Node10</title>
<path fill="none" stroke="#63b8ff" d="M507.74,-55.1C504.49,-54.33 501.16,-53.6 498,-53 380.94,-30.72 347,-39.39 226.24,-17.01"/>
<polygon fill="#63b8ff" stroke="#63b8ff" points="226.71,-13.54 216.24,-15.13 225.42,-20.42 226.71,-13.54"/>
</g>
<!-- Node11 -->
<g id="node11" class="node">
<title>Node11</title>
<g id="a_node11"><a xlink:title=" ">
<polygon fill="#e0e0e0" stroke="#999999" points="263.5,-17 234.5,-17 234.5,0 263.5,0 263.5,-17"/>
<text text-anchor="middle" x="249" y="-6.6" font-family="SourceSans" font-size="8.00">set</text>
</a>
</g>
</g>
<!-- Node6&#45;&gt;Node11 -->
<g id="edge10" class="edge">
<title>Node6&#45;&gt;Node11</title>
<path fill="none" stroke="#63b8ff" d="M507.72,-55.18C504.48,-54.4 501.16,-53.65 498,-53 401.88,-33.33 373.36,-39.72 273.52,-16.76"/>
<polygon fill="#63b8ff" stroke="#63b8ff" points="274.17,-13.31 263.63,-14.44 272.57,-20.13 274.17,-13.31"/>
</g>
<!-- Node12 -->
<g id="node12" class="node">
<title>Node12</title>
<g id="a_node12"><a xlink:title=" ">
<polygon fill="#e0e0e0" stroke="#999999" points="362,-17 282,-17 282,0 362,0 362,-17"/>
<text text-anchor="middle" x="322" y="-6.6" font-family="SourceSans" font-size="8.00">unordered_map</text>
</a>
</g>
</g>
<!-- Node6&#45;&gt;Node12 -->
<g id="edge11" class="edge">
<title>Node6&#45;&gt;Node12</title>
<path fill="none" stroke="#63b8ff" d="M507.99,-55.49C504.66,-54.66 501.23,-53.8 498,-53 451.57,-41.46 398.23,-28.29 362.55,-19.49"/>
<polygon fill="#63b8ff" stroke="#63b8ff" points="363.08,-16.01 352.53,-17.02 361.4,-22.81 363.08,-16.01"/>
</g>
<!-- Node13 -->
<g id="node13" class="node">
<title>Node13</title>
<g id="a_node13"><a xlink:title=" ">
<polygon fill="#e0e0e0" stroke="#999999" points="455.5,-17 380.5,-17 380.5,0 455.5,0 455.5,-17"/>
<text text-anchor="middle" x="418" y="-6.6" font-family="SourceSans" font-size="8.00">unordered_set</text>
</a>
</g>
</g>
<!-- Node6&#45;&gt;Node13 -->
<g id="edge12" class="edge">
<title>Node6&#45;&gt;Node13</title>
<path fill="none" stroke="#63b8ff" d="M511.77,-52.97C493.82,-44.65 464.65,-31.13 443.61,-21.37"/>
<polygon fill="#63b8ff" stroke="#63b8ff" points="444.84,-18.09 434.3,-17.06 441.9,-24.44 444.84,-18.09"/>
</g>
<!-- Node14 -->
<g id="node14" class="node">
<title>Node14</title>
<g id="a_node14"><a xlink:title=" ">
<polygon fill="#e0e0e0" stroke="#999999" points="518,-17 474,-17 474,0 518,0 518,-17"/>
<text text-anchor="middle" x="496" y="-6.6" font-family="SourceSans" font-size="8.00">chrono</text>
</a>
</g>
</g>
<!-- Node6&#45;&gt;Node14 -->
<g id="edge13" class="edge">
<title>Node6&#45;&gt;Node14</title>
<path fill="none" stroke="#63b8ff" d="M523.28,-52.97C518.79,-45.82 511.89,-34.82 506.15,-25.67"/>
<polygon fill="#63b8ff" stroke="#63b8ff" points="509.02,-23.67 500.74,-17.06 503.09,-27.39 509.02,-23.67"/>
</g>
<!-- Node15 -->
<g id="node15" class="node">
<title>Node15</title>
<g id="a_node15"><a xlink:title=" ">
<polygon fill="#e0e0e0" stroke="#999999" points="586,-17 536,-17 536,0 586,0 586,-17"/>
<text text-anchor="middle" x="561" y="-6.6" font-family="SourceSans" font-size="8.00">numeric</text>
</a>
</g>
</g>
<!-- Node6&#45;&gt;Node15 -->
<g id="edge14" class="edge">
<title>Node6&#45;&gt;Node15</title>
<path fill="none" stroke="#63b8ff" d="M532.87,-52.97C537.5,-45.82 544.62,-34.82 550.53,-25.67"/>
<polygon fill="#63b8ff" stroke="#63b8ff" points="553.62,-27.35 556.11,-17.06 547.74,-23.55 553.62,-27.35"/>
</g>
<!-- Node16 -->
<g id="node16" class="node">
<title>Node16</title>
<g id="a_node16"><a xlink:title=" ">
<polygon fill="#e0e0e0" stroke="#999999" points="660,-17 604,-17 604,0 660,0 660,-17"/>
<text text-anchor="middle" x="632" y="-6.6" font-family="SourceSans" font-size="8.00">algorithm</text>
</a>
</g>
</g>
<!-- Node6&#45;&gt;Node16 -->
<g id="edge15" class="edge">
<title>Node6&#45;&gt;Node16</title>
<path fill="none" stroke="#63b8ff" d="M543.35,-52.97C560.24,-44.69 587.65,-31.25 607.52,-21.5"/>
<polygon fill="#63b8ff" stroke="#63b8ff" points="609.15,-24.6 616.59,-17.06 606.07,-18.32 609.15,-24.6"/>
</g>
<!-- Node17 -->
<g id="node17" class="node">
<title>Node17</title>
<g id="a_node17"><a xlink:title=" ">
<polygon fill="#e0e0e0" stroke="#999999" points="719.5,-17 678.5,-17 678.5,0 719.5,0 719.5,-17"/>
<text text-anchor="middle" x="699" y="-6.6" font-family="SourceSans" font-size="8.00">locale</text>
</a>
</g>
</g>
<!-- Node6&#45;&gt;Node17 -->
<g id="edge16" class="edge">
<title>Node6&#45;&gt;Node17</title>
<path fill="none" stroke="#63b8ff" d="M548.29,-54.45C578.16,-45.54 634.18,-28.83 668.87,-18.49"/>
<polygon fill="#63b8ff" stroke="#63b8ff" points="669.89,-21.83 678.47,-15.62 667.89,-15.13 669.89,-21.83"/>
</g>
<!-- Node18 -->
<g id="node18" class="node">
<title>Node18</title>
<g id="a_node18"><a xlink:title=" ">
<polygon fill="#e0e0e0" stroke="#999999" points="786.5,-17 737.5,-17 737.5,0 786.5,0 786.5,-17"/>
<text text-anchor="middle" x="762" y="-6.6" font-family="SourceSans" font-size="8.00">codecvt</text>
</a>
</g>
</g>
<!-- Node6&#45;&gt;Node18 -->
<g id="edge17" class="edge">
<title>Node6&#45;&gt;Node18</title>
<path fill="none" stroke="#63b8ff" d="M548.16,-56.14C582.62,-48.67 655.3,-32.91 727.33,-17.14"/>
<polygon fill="#63b8ff" stroke="#63b8ff" points="728.47,-20.47 737.49,-14.92 726.97,-13.64 728.47,-20.47"/>
</g>
<!-- Node19 -->
<g id="node19" class="node">
<title>Node19</title>
<g id="a_node19"><a xlink:title=" ">
<polygon fill="#e0e0e0" stroke="#999999" points="941.5,-17 804.5,-17 804.5,0 941.5,0 941.5,-17"/>
<text text-anchor="middle" x="873" y="-6.6" font-family="SourceSans" font-size="8.00">ext/codecvt_specializations.h</text>
</a>
</g>
</g>
<!-- Node6&#45;&gt;Node19 -->
<g id="edge18" class="edge">
<title>Node6&#45;&gt;Node19</title>
<path fill="none" stroke="#63b8ff" d="M548.04,-57.54C598.48,-50.08 732.32,-30.3 811.62,-18.57"/>
<polygon fill="#63b8ff" stroke="#63b8ff" points="812.57,-21.97 821.96,-17.05 811.55,-15.05 812.57,-21.97"/>
</g>
<!-- Node20 -->
<g id="node20" class="node">
<title>Node20</title>
<g id="a_node20"><a xlink:title=" ">
<polygon fill="#e0e0e0" stroke="#999999" points="1008.5,-17 959.5,-17 959.5,0 1008.5,0 1008.5,-17"/>
<text text-anchor="middle" x="984" y="-6.6" font-family="SourceSans" font-size="8.00">sstream</text>
</a>
</g>
</g>
<!-- Node6&#45;&gt;Node20 -->
<g id="edge19" class="edge">
<title>Node6&#45;&gt;Node20</title>
<path fill="none" stroke="#63b8ff" d="M548.37,-59.28C608.35,-55.52 789.65,-42.81 949.21,-17.11"/>
<polygon fill="#63b8ff" stroke="#63b8ff" points="949.89,-20.54 959.2,-15.48 948.76,-13.63 949.89,-20.54"/>
</g>
<!-- Node21 -->
<g id="node21" class="node">
<title>Node21</title>
<g id="a_node21"><a xlink:title=" ">
<polygon fill="#e0e0e0" stroke="#999999" points="1077,-17 1027,-17 1027,0 1077,0 1077,-17"/>
<text text-anchor="middle" x="1052" y="-6.6" font-family="SourceSans" font-size="8.00">iomanip</text>
</a>
</g>
</g>
<!-- Node6&#45;&gt;Node21 -->
<g id="edge20" class="edge">
<title>Node6&#45;&gt;Node21</title>
<path fill="none" stroke="#63b8ff" d="M548.18,-59.64C614.11,-56.64 829.2,-45.3 1016.78,-16.97"/>
<polygon fill="#63b8ff" stroke="#63b8ff" points="1017.46,-20.41 1026.82,-15.43 1016.4,-13.49 1017.46,-20.41"/>
</g>
<!-- Node22 -->
<g id="node22" class="node">
<title>Node22</title>
<g id="a_node22"><a xlink:title=" ">
<polygon fill="#e0e0e0" stroke="#999999" points="1147,-17 1095,-17 1095,0 1147,0 1147,-17"/>
<text text-anchor="middle" x="1121" y="-6.6" font-family="SourceSans" font-size="8.00">iostream</text>
</a>
</g>
</g>
<!-- Node6&#45;&gt;Node22 -->
<g id="edge21" class="edge">
<title>Node6&#45;&gt;Node22</title>
<path fill="none" stroke="#63b8ff" d="M548.13,-59.9C619.8,-57.56 869.38,-47.69 1084.79,-16.96"/>
<polygon fill="#63b8ff" stroke="#63b8ff" points="1085.3,-20.42 1094.69,-15.53 1084.3,-13.5 1085.3,-20.42"/>
</g>
<!-- Node23&#45;&gt;Node4 -->
<g id="edge23" class="edge">
<title>Node23&#45;&gt;Node4</title>
<path fill="none" stroke="#63b8ff" d="M606.16,-167.9C585.45,-158.56 550.1,-142.61 525.93,-131.7"/>
<polygon fill="#63b8ff" stroke="#63b8ff" points="527.2,-128.43 516.64,-127.51 524.32,-134.81 527.2,-128.43"/>
</g>
<!-- Node24 -->
<g id="node24" class="node">
<title>Node24</title>
<g id="a_node24"><a xlink:title=" ">
<polygon fill="#e0e0e0" stroke="#999999" points="696.5,-132 571.5,-132 571.5,-106 696.5,-106 696.5,-132"/>
<text text-anchor="start" x="579.5" y="-121.6" font-family="SourceSans" font-size="8.00">boost/date_time/gregorian</text>
<text text-anchor="middle" x="634" y="-112.6" font-family="SourceSans" font-size="8.00">/gregorian.hpp</text>
</a>
</g>
</g>
<!-- Node23&#45;&gt;Node24 -->
<g id="edge24" class="edge">
<title>Node23&#45;&gt;Node24</title>
<path fill="none" stroke="#63b8ff" d="M624.53,-167.78C625.84,-161.19 627.78,-151.36 629.57,-142.34"/>
<polygon fill="#63b8ff" stroke="#63b8ff" points="633.04,-142.83 631.55,-132.34 626.18,-141.47 633.04,-142.83"/>
</g>
<!-- Node26 -->
<g id="node26" class="node">
<title>Node26</title>
<g id="a_node26"><a xlink:title=" ">
<polygon fill="#e0e0e0" stroke="#999999" points="773,-127.5 715,-127.5 715,-110.5 773,-110.5 773,-127.5"/>
<text text-anchor="middle" x="744" y="-117.1" font-family="SourceSans" font-size="8.00">functional</text>
</a>
</g>
</g>
<!-- Node25&#45;&gt;Node26 -->
<g id="edge26" class="edge">
<title>Node25&#45;&gt;Node26</title>
<path fill="none" stroke="#63b8ff" d="M848.18,-167.78C827.86,-158.46 793.47,-142.69 769.79,-131.83"/>
<polygon fill="#63b8ff" stroke="#63b8ff" points="771.23,-128.64 760.68,-127.65 768.31,-135 771.23,-128.64"/>
</g>
<!-- Node27 -->
<g id="node27" class="node">
<title>Node27</title>
<g id="a_node27"><a xlink:title=" ">
<polygon fill="#e0e0e0" stroke="#999999" points="832.5,-127.5 791.5,-127.5 791.5,-110.5 832.5,-110.5 832.5,-127.5"/>
<text text-anchor="middle" x="812" y="-117.1" font-family="SourceSans" font-size="8.00">future</text>
</a>
</g>
</g>
<!-- Node25&#45;&gt;Node27 -->
<g id="edge27" class="edge">
<title>Node25&#45;&gt;Node27</title>
<path fill="none" stroke="#63b8ff" d="M857.63,-167.78C849.56,-159.33 836.43,-145.58 826.31,-134.99"/>
<polygon fill="#63b8ff" stroke="#63b8ff" points="828.74,-132.47 819.31,-127.65 823.68,-137.3 828.74,-132.47"/>
</g>
<!-- Node28 -->
<g id="node28" class="node">
<title>Node28</title>
<g id="a_node28"><a xlink:title=" ">
<polygon fill="#e0e0e0" stroke="#999999" points="879.5,-127.5 850.5,-127.5 850.5,-110.5 879.5,-110.5 879.5,-127.5"/>
<text text-anchor="middle" x="865" y="-117.1" font-family="SourceSans" font-size="8.00">list</text>
</a>
</g>
</g>
<!-- Node25&#45;&gt;Node28 -->
<g id="edge28" class="edge">
<title>Node25&#45;&gt;Node28</title>
<path fill="none" stroke="#63b8ff" d="M865,-167.78C865,-160.08 865,-147.96 865,-137.86"/>
<polygon fill="#63b8ff" stroke="#63b8ff" points="868.5,-137.65 865,-127.65 861.5,-137.65 868.5,-137.65"/>
</g>
<!-- Node29 -->
<g id="node29" class="node">
<title>Node29</title>
<g id="a_node29"><a xlink:title=" ">
<polygon fill="#e0e0e0" stroke="#999999" points="948,-127.5 898,-127.5 898,-110.5 948,-110.5 948,-127.5"/>
<text text-anchor="middle" x="923" y="-117.1" font-family="SourceSans" font-size="8.00">memory</text>
</a>
</g>
</g>
<!-- Node25&#45;&gt;Node29 -->
<g id="edge29" class="edge">
<title>Node25&#45;&gt;Node29</title>
<path fill="none" stroke="#63b8ff" d="M873.06,-167.78C881.98,-159.25 896.55,-145.31 907.66,-134.68"/>
<polygon fill="#63b8ff" stroke="#63b8ff" points="910.2,-137.09 915,-127.65 905.36,-132.04 910.2,-137.09"/>
</g>
<!-- Node30 -->
<g id="node30" class="node">
<title>Node30</title>
<g id="a_node30"><a xlink:title=" ">
<polygon fill="#e0e0e0" stroke="#999999" points="1009.5,-127.5 966.5,-127.5 966.5,-110.5 1009.5,-110.5 1009.5,-127.5"/>
<text text-anchor="middle" x="988" y="-117.1" font-family="SourceSans" font-size="8.00">queue</text>
</a>
</g>
</g>
<!-- Node25&#45;&gt;Node30 -->
<g id="edge30" class="edge">
<title>Node25&#45;&gt;Node30</title>
<path fill="none" stroke="#63b8ff" d="M881.84,-167.9C902.55,-158.56 937.9,-142.61 962.07,-131.7"/>
<polygon fill="#63b8ff" stroke="#63b8ff" points="963.68,-134.81 971.36,-127.51 960.8,-128.43 963.68,-134.81"/>
</g>
<!-- Node31 -->
<g id="node31" class="node">
<title>Node31</title>
<g id="a_node31"><a xlink:title=" ">
<polygon fill="#e0e0e0" stroke="#999999" points="1078,-127.5 1028,-127.5 1028,-110.5 1078,-110.5 1078,-127.5"/>
<text text-anchor="middle" x="1053" y="-117.1" font-family="SourceSans" font-size="8.00">optional</text>
</a>
</g>
</g>
<!-- Node25&#45;&gt;Node31 -->
<g id="edge31" class="edge">
<title>Node25&#45;&gt;Node31</title>
<path fill="none" stroke="#63b8ff" d="M893.83,-167.95C924.89,-159.67 975.7,-145.74 1019,-132 1020.21,-131.62 1021.44,-131.22 1022.68,-130.81"/>
<polygon fill="#63b8ff" stroke="#63b8ff" points="1023.87,-134.1 1032.21,-127.57 1021.62,-127.47 1023.87,-134.1"/>
</g>
</g>
</svg>
