<?xml version="1.0" encoding="UTF-8" standalone="no"?>
<!DOCTYPE svg PUBLIC "-//W3C//DTD SVG 1.1//EN"
 "http://www.w3.org/Graphics/SVG/1.1/DTD/svg11.dtd">
<!-- Generated by graphviz version 5.0.0 (0)
 -->
<!-- Title: /home/bkoz/src/alpha60&#45;docs/src/a60&#45;collection&#45;json.h Pages: 1 -->
<svg width="2395pt" height="379pt"
 viewBox="0.00 0.00 2395.00 379.00" xmlns="http://www.w3.org/2000/svg" xmlns:xlink="http://www.w3.org/1999/xlink">
<g id="graph0" class="graph" transform="scale(1 1) rotate(0) translate(4 375)">
<title>/home/bkoz/src/alpha60&#45;docs/src/a60&#45;collection&#45;json.h</title>
<!-- Node1 -->
<g id="node1" class="node">
<title>Node1</title>
<g id="a_node1"><a xlink:title=" ">
<polygon fill="#999999" stroke="#666666" points="233,-371 123,-371 123,-336 233,-336 233,-371"/>
<text text-anchor="start" x="131" y="-360.6" font-family="SourceSans" font-size="8.00">/home/bkoz/src/alpha60</text>
<text text-anchor="start" x="131" y="-351.6" font-family="SourceSans" font-size="8.00">&#45;docs/src/a60&#45;collection</text>
<text text-anchor="middle" x="178" y="-342.6" font-family="SourceSans" font-size="8.00">&#45;json.h</text>
</a>
</g>
</g>
<!-- Node2 -->
<g id="node2" class="node">
<title>Node2</title>
<g id="a_node2"><a xlink:href="a60-collection-base_8h.html" target="_top" xlink:title=" ">
<polygon fill="white" stroke="#666666" points="110,-242.5 14,-242.5 14,-225.5 110,-225.5 110,-242.5"/>
<text text-anchor="middle" x="62" y="-232.1" font-family="SourceSans" font-size="8.00">a60&#45;collection&#45;base.h</text>
</a>
</g>
</g>
<!-- Node1&#45;&gt;Node2 -->
<g id="edge1" class="edge">
<title>Node1&#45;&gt;Node2</title>
<path fill="none" stroke="#63b8ff" d="M155.4,-335.83C142.68,-326.01 126.83,-312.98 114,-300 98.65,-284.46 83.3,-264.62 73.3,-250.97"/>
<polygon fill="#63b8ff" stroke="#63b8ff" points="75.99,-248.7 67.3,-242.63 70.31,-252.79 75.99,-248.7"/>
</g>
<!-- Node21 -->
<g id="node21" class="node">
<title>Node21</title>
<g id="a_node21"><a xlink:href="a60-collection-duration_8h.html" target="_top" xlink:title=" ">
<polygon fill="white" stroke="#666666" points="233.5,-300 122.5,-300 122.5,-283 233.5,-283 233.5,-300"/>
<text text-anchor="middle" x="178" y="-289.6" font-family="SourceSans" font-size="8.00">a60&#45;collection&#45;duration.h</text>
</a>
</g>
</g>
<!-- Node1&#45;&gt;Node21 -->
<g id="edge20" class="edge">
<title>Node1&#45;&gt;Node21</title>
<path fill="none" stroke="#63b8ff" d="M178,-335.79C178,-327.87 178,-318.4 178,-310.34"/>
<polygon fill="#63b8ff" stroke="#63b8ff" points="181.5,-310.2 178,-300.2 174.5,-310.2 181.5,-310.2"/>
</g>
<!-- Node23 -->
<g id="node23" class="node">
<title>Node23</title>
<g id="a_node23"><a xlink:href="a60-swarm-functions_8h.html" target="_top" xlink:title=" ">
<polygon fill="white" stroke="#666666" points="930.5,-300 827.5,-300 827.5,-283 930.5,-283 930.5,-300"/>
<text text-anchor="middle" x="879" y="-289.6" font-family="SourceSans" font-size="8.00">a60&#45;swarm&#45;functions.h</text>
</a>
</g>
</g>
<!-- Node1&#45;&gt;Node23 -->
<g id="edge23" class="edge">
<title>Node1&#45;&gt;Node23</title>
<path fill="none" stroke="#63b8ff" d="M233.01,-347.79C361.66,-336.78 681.55,-309.4 816.92,-297.81"/>
<polygon fill="#63b8ff" stroke="#63b8ff" points="817.45,-301.28 827.12,-296.94 816.85,-294.31 817.45,-301.28"/>
</g>
<!-- Node3 -->
<g id="node3" class="node">
<title>Node3</title>
<g id="a_node3"><a xlink:title=" ">
<polygon fill="#e0e0e0" stroke="#999999" points="34,-180.5 0,-180.5 0,-163.5 34,-163.5 34,-180.5"/>
<text text-anchor="middle" x="17" y="-170.1" font-family="SourceSans" font-size="8.00">map</text>
</a>
</g>
</g>
<!-- Node2&#45;&gt;Node3 -->
<g id="edge2" class="edge">
<title>Node2&#45;&gt;Node3</title>
<path fill="none" stroke="#63b8ff" d="M56.12,-225.16C49.21,-215.94 37.57,-200.43 28.78,-188.71"/>
<polygon fill="#63b8ff" stroke="#63b8ff" points="31.54,-186.56 22.74,-180.66 25.94,-190.76 31.54,-186.56"/>
</g>
<!-- Node4 -->
<g id="node4" class="node">
<title>Node4</title>
<g id="a_node4"><a xlink:href="a60_8h.html" target="_top" xlink:title=" ">
<polygon fill="white" stroke="#666666" points="1158,-70 1120,-70 1120,-53 1158,-53 1158,-70"/>
<text text-anchor="middle" x="1139" y="-59.6" font-family="SourceSans" font-size="8.00">a60.h</text>
</a>
</g>
</g>
<!-- Node2&#45;&gt;Node4 -->
<g id="edge3" class="edge">
<title>Node2&#45;&gt;Node4</title>
<path fill="none" stroke="#63b8ff" d="M61.38,-225.49C60.58,-210.28 61.2,-175.85 81,-159 161.49,-90.48 946.15,-67.3 1109.36,-63.2"/>
<polygon fill="#63b8ff" stroke="#63b8ff" points="1109.7,-66.69 1119.61,-62.94 1109.53,-59.69 1109.7,-66.69"/>
</g>
<!-- Node5 -->
<g id="node5" class="node">
<title>Node5</title>
<g id="a_node5"><a xlink:title=" ">
<polygon fill="#e0e0e0" stroke="#999999" points="1639.5,-17 1598.5,-17 1598.5,0 1639.5,0 1639.5,-17"/>
<text text-anchor="middle" x="1619" y="-6.6" font-family="SourceSans" font-size="8.00">cmath</text>
</a>
</g>
</g>
<!-- Node4&#45;&gt;Node5 -->
<g id="edge4" class="edge">
<title>Node4&#45;&gt;Node5</title>
<path fill="none" stroke="#63b8ff" d="M1158.21,-56.79C1165.62,-55.45 1174.19,-54.02 1182,-53 1359.23,-29.77 1408.82,-47.24 1588.45,-16.97"/>
<polygon fill="#63b8ff" stroke="#63b8ff" points="1589.23,-20.39 1598.5,-15.25 1588.05,-13.49 1589.23,-20.39"/>
</g>
<!-- Node6 -->
<g id="node6" class="node">
<title>Node6</title>
<g id="a_node6"><a xlink:title=" ">
<polygon fill="#e0e0e0" stroke="#999999" points="1466.5,-17 1429.5,-17 1429.5,0 1466.5,0 1466.5,-17"/>
<text text-anchor="middle" x="1448" y="-6.6" font-family="SourceSans" font-size="8.00">tuple</text>
</a>
</g>
</g>
<!-- Node4&#45;&gt;Node6 -->
<g id="edge5" class="edge">
<title>Node4&#45;&gt;Node6</title>
<path fill="none" stroke="#63b8ff" d="M1158.25,-57.05C1165.67,-55.74 1174.22,-54.27 1182,-53 1284.5,-36.31 1313.59,-38.71 1419.58,-16.84"/>
<polygon fill="#63b8ff" stroke="#63b8ff" points="1420.32,-20.26 1429.39,-14.79 1418.89,-13.41 1420.32,-20.26"/>
</g>
<!-- Node7 -->
<g id="node7" class="node">
<title>Node7</title>
<g id="a_node7"><a xlink:title=" ">
<polygon fill="#e0e0e0" stroke="#999999" points="1523.5,-17 1484.5,-17 1484.5,0 1523.5,0 1523.5,-17"/>
<text text-anchor="middle" x="1504" y="-6.6" font-family="SourceSans" font-size="8.00">string</text>
</a>
</g>
</g>
<!-- Node4&#45;&gt;Node7 -->
<g id="edge6" class="edge">
<title>Node4&#45;&gt;Node7</title>
<path fill="none" stroke="#63b8ff" d="M1158.23,-56.93C1165.65,-55.61 1174.2,-54.16 1182,-53 1309.04,-34.16 1345.03,-41.7 1474.59,-17.01"/>
<polygon fill="#63b8ff" stroke="#63b8ff" points="1475.35,-20.43 1484.5,-15.1 1474.02,-13.56 1475.35,-20.43"/>
</g>
<!-- Node8 -->
<g id="node8" class="node">
<title>Node8</title>
<g id="a_node8"><a xlink:title=" ">
<polygon fill="#e0e0e0" stroke="#999999" points="1580.5,-17 1541.5,-17 1541.5,0 1580.5,0 1580.5,-17"/>
<text text-anchor="middle" x="1561" y="-6.6" font-family="SourceSans" font-size="8.00">vector</text>
</a>
</g>
</g>
<!-- Node4&#45;&gt;Node8 -->
<g id="edge7" class="edge">
<title>Node4&#45;&gt;Node8</title>
<path fill="none" stroke="#63b8ff" d="M1158.22,-56.85C1165.63,-55.52 1174.19,-54.08 1182,-53 1334.15,-31.95 1377.02,-44.82 1531.36,-17.02"/>
<polygon fill="#63b8ff" stroke="#63b8ff" points="1532,-20.46 1541.2,-15.22 1530.74,-13.58 1532,-20.46"/>
</g>
<!-- Node9 -->
<g id="node9" class="node">
<title>Node9</title>
<g id="a_node9"><a xlink:title=" ">
<polygon fill="#e0e0e0" stroke="#999999" points="1686.5,-17 1657.5,-17 1657.5,0 1686.5,0 1686.5,-17"/>
<text text-anchor="middle" x="1672" y="-6.6" font-family="SourceSans" font-size="8.00">set</text>
</a>
</g>
</g>
<!-- Node4&#45;&gt;Node9 -->
<g id="edge8" class="edge">
<title>Node4&#45;&gt;Node9</title>
<path fill="none" stroke="#63b8ff" d="M1158.21,-56.75C1165.62,-55.4 1174.18,-53.98 1182,-53 1385.32,-27.49 1443.02,-56.62 1647.21,-16.89"/>
<polygon fill="#63b8ff" stroke="#63b8ff" points="1647.91,-20.32 1657.04,-14.94 1646.55,-13.45 1647.91,-20.32"/>
</g>
<!-- Node10 -->
<g id="node10" class="node">
<title>Node10</title>
<g id="a_node10"><a xlink:title=" ">
<polygon fill="#e0e0e0" stroke="#999999" points="725,-17 647,-17 647,0 725,0 725,-17"/>
<text text-anchor="middle" x="686" y="-6.6" font-family="SourceSans" font-size="8.00">unordered_map</text>
</a>
</g>
</g>
<!-- Node4&#45;&gt;Node10 -->
<g id="edge9" class="edge">
<title>Node4&#45;&gt;Node10</title>
<path fill="none" stroke="#63b8ff" d="M1119.98,-58.78C1063.23,-53.6 889.95,-37.26 735.18,-17.09"/>
<polygon fill="#63b8ff" stroke="#63b8ff" points="735.38,-13.59 725.01,-15.76 734.47,-20.53 735.38,-13.59"/>
</g>
<!-- Node11 -->
<g id="node11" class="node">
<title>Node11</title>
<g id="a_node11"><a xlink:title=" ">
<polygon fill="#e0e0e0" stroke="#999999" points="815,-17 743,-17 743,0 815,0 815,-17"/>
<text text-anchor="middle" x="779" y="-6.6" font-family="SourceSans" font-size="8.00">unordered_set</text>
</a>
</g>
</g>
<!-- Node4&#45;&gt;Node11 -->
<g id="edge10" class="edge">
<title>Node4&#45;&gt;Node11</title>
<path fill="none" stroke="#63b8ff" d="M1119.86,-58.01C1072.14,-51.77 943.84,-34.78 825.13,-16.98"/>
<polygon fill="#63b8ff" stroke="#63b8ff" points="825.56,-13.5 815.15,-15.48 824.51,-20.43 825.56,-13.5"/>
</g>
<!-- Node12 -->
<g id="node12" class="node">
<title>Node12</title>
<g id="a_node12"><a xlink:title=" ">
<polygon fill="#e0e0e0" stroke="#999999" points="876.5,-17 833.5,-17 833.5,0 876.5,0 876.5,-17"/>
<text text-anchor="middle" x="855" y="-6.6" font-family="SourceSans" font-size="8.00">chrono</text>
</a>
</g>
</g>
<!-- Node4&#45;&gt;Node12 -->
<g id="edge11" class="edge">
<title>Node4&#45;&gt;Node12</title>
<path fill="none" stroke="#63b8ff" d="M1119.88,-57.66C1079,-51.5 979.94,-36.06 886.53,-16.97"/>
<polygon fill="#63b8ff" stroke="#63b8ff" points="887.14,-13.52 876.64,-14.93 885.73,-20.38 887.14,-13.52"/>
</g>
<!-- Node13 -->
<g id="node13" class="node">
<title>Node13</title>
<g id="a_node13"><a xlink:title=" ">
<polygon fill="#e0e0e0" stroke="#999999" points="943,-17 895,-17 895,0 943,0 943,-17"/>
<text text-anchor="middle" x="919" y="-6.6" font-family="SourceSans" font-size="8.00">numeric</text>
</a>
</g>
</g>
<!-- Node4&#45;&gt;Node13 -->
<g id="edge12" class="edge">
<title>Node4&#45;&gt;Node13</title>
<path fill="none" stroke="#63b8ff" d="M1119.86,-56.06C1082.64,-47.43 1000.04,-28.29 953.18,-17.42"/>
<polygon fill="#63b8ff" stroke="#63b8ff" points="953.73,-13.96 943.2,-15.11 952.15,-20.78 953.73,-13.96"/>
</g>
<!-- Node14 -->
<g id="node14" class="node">
<title>Node14</title>
<g id="a_node14"><a xlink:title=" ">
<polygon fill="#e0e0e0" stroke="#999999" points="1015,-17 961,-17 961,0 1015,0 1015,-17"/>
<text text-anchor="middle" x="988" y="-6.6" font-family="SourceSans" font-size="8.00">algorithm</text>
</a>
</g>
</g>
<!-- Node4&#45;&gt;Node14 -->
<g id="edge13" class="edge">
<title>Node4&#45;&gt;Node14</title>
<path fill="none" stroke="#63b8ff" d="M1119.88,-54.04C1094.78,-45.56 1050.37,-30.57 1020.08,-20.34"/>
<polygon fill="#63b8ff" stroke="#63b8ff" points="1021,-16.95 1010.4,-17.07 1018.76,-23.58 1021,-16.95"/>
</g>
<!-- Node15 -->
<g id="node15" class="node">
<title>Node15</title>
<g id="a_node15"><a xlink:title=" ">
<polygon fill="#e0e0e0" stroke="#999999" points="1071,-17 1033,-17 1033,0 1071,0 1071,-17"/>
<text text-anchor="middle" x="1052" y="-6.6" font-family="SourceSans" font-size="8.00">locale</text>
</a>
</g>
</g>
<!-- Node4&#45;&gt;Node15 -->
<g id="edge14" class="edge">
<title>Node4&#45;&gt;Node15</title>
<path fill="none" stroke="#63b8ff" d="M1126.16,-52.97C1112.41,-44.91 1090.35,-31.98 1073.85,-22.31"/>
<polygon fill="#63b8ff" stroke="#63b8ff" points="1075.29,-19.09 1064.89,-17.06 1071.75,-25.13 1075.29,-19.09"/>
</g>
<!-- Node16 -->
<g id="node16" class="node">
<title>Node16</title>
<g id="a_node16"><a xlink:title=" ">
<polygon fill="#e0e0e0" stroke="#999999" points="1134.5,-17 1089.5,-17 1089.5,0 1134.5,0 1134.5,-17"/>
<text text-anchor="middle" x="1112" y="-6.6" font-family="SourceSans" font-size="8.00">codecvt</text>
</a>
</g>
</g>
<!-- Node4&#45;&gt;Node16 -->
<g id="edge15" class="edge">
<title>Node4&#45;&gt;Node16</title>
<path fill="none" stroke="#63b8ff" d="M1135.02,-52.97C1131.27,-45.89 1125.53,-35.05 1120.72,-25.96"/>
<polygon fill="#63b8ff" stroke="#63b8ff" points="1123.77,-24.26 1116,-17.06 1117.59,-27.53 1123.77,-24.26"/>
</g>
<!-- Node17 -->
<g id="node17" class="node">
<title>Node17</title>
<g id="a_node17"><a xlink:title=" ">
<polygon fill="#e0e0e0" stroke="#999999" points="1279.5,-17 1152.5,-17 1152.5,0 1279.5,0 1279.5,-17"/>
<text text-anchor="middle" x="1216" y="-6.6" font-family="SourceSans" font-size="8.00">ext/codecvt_specializations.h</text>
</a>
</g>
</g>
<!-- Node4&#45;&gt;Node17 -->
<g id="edge16" class="edge">
<title>Node4&#45;&gt;Node17</title>
<path fill="none" stroke="#63b8ff" d="M1150.36,-52.97C1162.42,-44.99 1181.7,-32.22 1196.25,-22.58"/>
<polygon fill="#63b8ff" stroke="#63b8ff" points="1198.19,-25.5 1204.59,-17.06 1194.32,-19.66 1198.19,-25.5"/>
</g>
<!-- Node18 -->
<g id="node18" class="node">
<title>Node18</title>
<g id="a_node18"><a xlink:title=" ">
<polygon fill="#e0e0e0" stroke="#999999" points="1344.5,-17 1297.5,-17 1297.5,0 1344.5,0 1344.5,-17"/>
<text text-anchor="middle" x="1321" y="-6.6" font-family="SourceSans" font-size="8.00">sstream</text>
</a>
</g>
</g>
<!-- Node4&#45;&gt;Node18 -->
<g id="edge17" class="edge">
<title>Node4&#45;&gt;Node18</title>
<path fill="none" stroke="#63b8ff" d="M1158.13,-55.14C1188.75,-46.56 1249.16,-29.63 1287.18,-18.98"/>
<polygon fill="#63b8ff" stroke="#63b8ff" points="1288.59,-22.22 1297.27,-16.15 1286.7,-15.48 1288.59,-22.22"/>
</g>
<!-- Node19 -->
<g id="node19" class="node">
<title>Node19</title>
<g id="a_node19"><a xlink:title=" ">
<polygon fill="#e0e0e0" stroke="#999999" points="1411,-17 1363,-17 1363,0 1411,0 1411,-17"/>
<text text-anchor="middle" x="1387" y="-6.6" font-family="SourceSans" font-size="8.00">iomanip</text>
</a>
</g>
</g>
<!-- Node4&#45;&gt;Node19 -->
<g id="edge18" class="edge">
<title>Node4&#45;&gt;Node19</title>
<path fill="none" stroke="#63b8ff" d="M1158.01,-56.81C1194,-49.8 1274.78,-33.89 1352.86,-17.2"/>
<polygon fill="#63b8ff" stroke="#63b8ff" points="1353.82,-20.57 1362.86,-15.06 1352.35,-13.73 1353.82,-20.57"/>
</g>
<!-- Node20 -->
<g id="node20" class="node">
<title>Node20</title>
<g id="a_node20"><a xlink:title=" ">
<polygon fill="#e0e0e0" stroke="#999999" points="629,-17 579,-17 579,0 629,0 629,-17"/>
<text text-anchor="middle" x="604" y="-6.6" font-family="SourceSans" font-size="8.00">iostream</text>
</a>
</g>
</g>
<!-- Node4&#45;&gt;Node20 -->
<g id="edge19" class="edge">
<title>Node4&#45;&gt;Node20</title>
<path fill="none" stroke="#63b8ff" d="M1119.78,-59.74C1054.07,-56.93 832.17,-45.91 639.22,-16.96"/>
<polygon fill="#63b8ff" stroke="#63b8ff" points="639.59,-13.48 629.18,-15.44 638.54,-20.4 639.59,-13.48"/>
</g>
<!-- Node21&#45;&gt;Node2 -->
<g id="edge21" class="edge">
<title>Node21&#45;&gt;Node2</title>
<path fill="none" stroke="#63b8ff" d="M161.87,-282.78C142.48,-273.5 109.72,-257.83 87.03,-246.98"/>
<polygon fill="#63b8ff" stroke="#63b8ff" points="88.52,-243.81 77.99,-242.65 85.5,-250.12 88.52,-243.81"/>
</g>
<!-- Node22 -->
<g id="node22" class="node">
<title>Node22</title>
<g id="a_node22"><a xlink:title=" ">
<polygon fill="#e0e0e0" stroke="#999999" points="247.5,-247 128.5,-247 128.5,-221 247.5,-221 247.5,-247"/>
<text text-anchor="start" x="136.5" y="-236.6" font-family="SourceSans" font-size="8.00">boost/date_time/gregorian</text>
<text text-anchor="middle" x="188" y="-227.6" font-family="SourceSans" font-size="8.00">/gregorian.hpp</text>
</a>
</g>
</g>
<!-- Node21&#45;&gt;Node22 -->
<g id="edge22" class="edge">
<title>Node21&#45;&gt;Node22</title>
<path fill="none" stroke="#63b8ff" d="M179.39,-282.78C180.58,-276.19 182.35,-266.36 183.98,-257.34"/>
<polygon fill="#63b8ff" stroke="#63b8ff" points="187.45,-257.81 185.78,-247.34 180.56,-256.56 187.45,-257.81"/>
</g>
<!-- Node24 -->
<g id="node24" class="node">
<title>Node24</title>
<g id="a_node24"><a xlink:href="a60-peer_8h.html" target="_top" xlink:title=" ">
<polygon fill="white" stroke="#666666" points="907,-242.5 851,-242.5 851,-225.5 907,-225.5 907,-242.5"/>
<text text-anchor="middle" x="879" y="-232.1" font-family="SourceSans" font-size="8.00">a60&#45;peer.h</text>
</a>
</g>
</g>
<!-- Node23&#45;&gt;Node24 -->
<g id="edge24" class="edge">
<title>Node23&#45;&gt;Node24</title>
<path fill="none" stroke="#63b8ff" d="M879,-282.78C879,-275.08 879,-262.96 879,-252.86"/>
<polygon fill="#63b8ff" stroke="#63b8ff" points="882.5,-252.65 879,-242.65 875.5,-252.65 882.5,-252.65"/>
</g>
<!-- Node47 -->
<g id="node47" class="node">
<title>Node47</title>
<g id="a_node47"><a xlink:href="a60-json-fwd_8h.html" target="_top" xlink:title=" ">
<polygon fill="white" stroke="#666666" points="2026,-242.5 1954,-242.5 1954,-225.5 2026,-225.5 2026,-242.5"/>
<text text-anchor="middle" x="1990" y="-232.1" font-family="SourceSans" font-size="8.00">a60&#45;json&#45;fwd.h</text>
</a>
</g>
</g>
<!-- Node23&#45;&gt;Node47 -->
<g id="edge51" class="edge">
<title>Node23&#45;&gt;Node47</title>
<path fill="none" stroke="#63b8ff" d="M930.73,-287.92C1118.78,-278.52 1764.49,-246.27 1943.6,-237.32"/>
<polygon fill="#63b8ff" stroke="#63b8ff" points="1943.93,-240.81 1953.74,-236.81 1943.58,-233.81 1943.93,-240.81"/>
</g>
<!-- Node25 -->
<g id="node25" class="node">
<title>Node25</title>
<g id="a_node25"><a xlink:href="a60-geo_8h.html" target="_top" xlink:title=" ">
<polygon fill="white" stroke="#666666" points="1551,-180.5 1497,-180.5 1497,-163.5 1551,-163.5 1551,-180.5"/>
<text text-anchor="middle" x="1524" y="-170.1" font-family="SourceSans" font-size="8.00">a60&#45;geo.h</text>
</a>
</g>
</g>
<!-- Node24&#45;&gt;Node25 -->
<g id="edge25" class="edge">
<title>Node24&#45;&gt;Node25</title>
<path fill="none" stroke="#63b8ff" d="M907.26,-233.2C994.61,-233.29 1267.65,-229.71 1488,-185 1490.07,-184.58 1492.18,-184.08 1494.3,-183.52"/>
<polygon fill="#63b8ff" stroke="#63b8ff" points="1495.47,-186.82 1504.05,-180.61 1493.47,-180.11 1495.47,-186.82"/>
</g>
<!-- Node34 -->
<g id="node34" class="node">
<title>Node34</title>
<g id="a_node34"><a xlink:href="a60-network-functions_8h.html" target="_top" xlink:title=" ">
<polygon fill="white" stroke="#666666" points="1678.5,-180.5 1569.5,-180.5 1569.5,-163.5 1678.5,-163.5 1678.5,-180.5"/>
<text text-anchor="middle" x="1624" y="-170.1" font-family="SourceSans" font-size="8.00">a60&#45;network&#45;functions.h</text>
</a>
</g>
</g>
<!-- Node24&#45;&gt;Node34 -->
<g id="edge38" class="edge">
<title>Node24&#45;&gt;Node34</title>
<path fill="none" stroke="#63b8ff" d="M907.01,-232.18C1000.14,-229.21 1307.84,-217.42 1560,-185 1565.82,-184.25 1571.91,-183.31 1577.92,-182.29"/>
<polygon fill="#63b8ff" stroke="#63b8ff" points="1578.67,-185.72 1587.9,-180.52 1577.44,-178.82 1578.67,-185.72"/>
</g>
<!-- Node35 -->
<g id="node35" class="node">
<title>Node35</title>
<g id="a_node35"><a xlink:title=" ">
<polygon fill="#e0e0e0" stroke="#999999" points="183.5,-180.5 90.5,-180.5 90.5,-163.5 183.5,-163.5 183.5,-180.5"/>
<text text-anchor="middle" x="137" y="-170.1" font-family="SourceSans" font-size="8.00">libtorrent/entry.hpp</text>
</a>
</g>
</g>
<!-- Node24&#45;&gt;Node35 -->
<g id="edge39" class="edge">
<title>Node24&#45;&gt;Node35</title>
<path fill="none" stroke="#63b8ff" d="M850.75,-232.45C756.82,-230.32 446.57,-220.86 193,-185 188.21,-184.32 183.21,-183.47 178.26,-182.53"/>
<polygon fill="#63b8ff" stroke="#63b8ff" points="178.75,-179.06 168.26,-180.51 177.37,-185.92 178.75,-179.06"/>
</g>
<!-- Node36 -->
<g id="node36" class="node">
<title>Node36</title>
<g id="a_node36"><a xlink:title=" ">
<polygon fill="#e0e0e0" stroke="#999999" points="308.5,-180.5 201.5,-180.5 201.5,-163.5 308.5,-163.5 308.5,-180.5"/>
<text text-anchor="middle" x="255" y="-170.1" font-family="SourceSans" font-size="8.00">libtorrent/bencode.hpp</text>
</a>
</g>
</g>
<!-- Node24&#45;&gt;Node36 -->
<g id="edge40" class="edge">
<title>Node24&#45;&gt;Node36</title>
<path fill="none" stroke="#63b8ff" d="M850.87,-231.62C768.59,-227.36 521.36,-212.99 318,-185 312.55,-184.25 306.86,-183.34 301.23,-182.37"/>
<polygon fill="#63b8ff" stroke="#63b8ff" points="301.67,-178.89 291.21,-180.56 300.43,-185.78 301.67,-178.89"/>
</g>
<!-- Node37 -->
<g id="node37" class="node">
<title>Node37</title>
<g id="a_node37"><a xlink:title=" ">
<polygon fill="#e0e0e0" stroke="#999999" points="427,-180.5 327,-180.5 327,-163.5 427,-163.5 427,-180.5"/>
<text text-anchor="middle" x="377" y="-170.1" font-family="SourceSans" font-size="8.00">libtorrent/torrent.hpp</text>
</a>
</g>
</g>
<!-- Node24&#45;&gt;Node37 -->
<g id="edge41" class="edge">
<title>Node24&#45;&gt;Node37</title>
<path fill="none" stroke="#63b8ff" d="M850.89,-230.87C780.66,-225.33 591.94,-209.25 436,-185 431.22,-184.26 426.23,-183.39 421.28,-182.47"/>
<polygon fill="#63b8ff" stroke="#63b8ff" points="421.7,-178.98 411.22,-180.52 420.37,-185.86 421.7,-178.98"/>
</g>
<!-- Node38 -->
<g id="node38" class="node">
<title>Node38</title>
<g id="a_node38"><a xlink:title=" ">
<polygon fill="#e0e0e0" stroke="#999999" points="527,-185 445,-185 445,-159 527,-159 527,-185"/>
<text text-anchor="start" x="453" y="-174.6" font-family="SourceSans" font-size="8.00">libtorrent/torrent</text>
<text text-anchor="middle" x="486" y="-165.6" font-family="SourceSans" font-size="8.00">_info.hpp</text>
</a>
</g>
</g>
<!-- Node24&#45;&gt;Node38 -->
<g id="edge42" class="edge">
<title>Node24&#45;&gt;Node38</title>
<path fill="none" stroke="#63b8ff" d="M850.84,-229.99C793.6,-223.68 659.41,-207.86 537.05,-185.07"/>
<polygon fill="#63b8ff" stroke="#63b8ff" points="537.61,-181.62 527.13,-183.2 536.31,-188.49 537.61,-181.62"/>
</g>
<!-- Node39 -->
<g id="node39" class="node">
<title>Node39</title>
<g id="a_node39"><a xlink:title=" ">
<polygon fill="#e0e0e0" stroke="#999999" points="627,-185 545,-185 545,-159 627,-159 627,-185"/>
<text text-anchor="start" x="553" y="-174.6" font-family="SourceSans" font-size="8.00">libtorrent/torrent</text>
<text text-anchor="middle" x="586" y="-165.6" font-family="SourceSans" font-size="8.00">_status.hpp</text>
</a>
</g>
</g>
<!-- Node24&#45;&gt;Node39 -->
<g id="edge43" class="edge">
<title>Node24&#45;&gt;Node39</title>
<path fill="none" stroke="#63b8ff" d="M850.86,-227.82C807.24,-219.72 720.45,-203.27 637.06,-185.18"/>
<polygon fill="#63b8ff" stroke="#63b8ff" points="637.69,-181.73 627.17,-183.02 636.2,-188.57 637.69,-181.73"/>
</g>
<!-- Node40 -->
<g id="node40" class="node">
<title>Node40</title>
<g id="a_node40"><a xlink:title=" ">
<polygon fill="#e0e0e0" stroke="#999999" points="755,-180.5 645,-180.5 645,-163.5 755,-163.5 755,-180.5"/>
<text text-anchor="middle" x="700" y="-170.1" font-family="SourceSans" font-size="8.00">libtorrent/peer_info.hpp</text>
</a>
</g>
</g>
<!-- Node24&#45;&gt;Node40 -->
<g id="edge44" class="edge">
<title>Node24&#45;&gt;Node40</title>
<path fill="none" stroke="#63b8ff" d="M856.33,-225.4C824.86,-214.85 767.77,-195.72 731.98,-183.72"/>
<polygon fill="#63b8ff" stroke="#63b8ff" points="733.08,-180.4 722.49,-180.54 730.86,-187.03 733.08,-180.4"/>
</g>
<!-- Node41 -->
<g id="node41" class="node">
<title>Node41</title>
<g id="a_node41"><a xlink:title=" ">
<polygon fill="#e0e0e0" stroke="#999999" points="867,-185 773,-185 773,-159 867,-159 867,-185"/>
<text text-anchor="start" x="781" y="-174.6" font-family="SourceSans" font-size="8.00">libtorrent/announce</text>
<text text-anchor="middle" x="820" y="-165.6" font-family="SourceSans" font-size="8.00">_entry.hpp</text>
</a>
</g>
</g>
<!-- Node24&#45;&gt;Node41 -->
<g id="edge45" class="edge">
<title>Node24&#45;&gt;Node41</title>
<path fill="none" stroke="#63b8ff" d="M871.29,-225.16C863.17,-216.9 850.07,-203.58 839.14,-192.46"/>
<polygon fill="#63b8ff" stroke="#63b8ff" points="841.52,-189.89 832.01,-185.21 836.53,-194.8 841.52,-189.89"/>
</g>
<!-- Node42 -->
<g id="node42" class="node">
<title>Node42</title>
<g id="a_node42"><a xlink:title=" ">
<polygon fill="#e0e0e0" stroke="#999999" points="992.5,-180.5 885.5,-180.5 885.5,-163.5 992.5,-163.5 992.5,-180.5"/>
<text text-anchor="middle" x="939" y="-170.1" font-family="SourceSans" font-size="8.00">libtorrent/bdecode.hpp</text>
</a>
</g>
</g>
<!-- Node24&#45;&gt;Node42 -->
<g id="edge46" class="edge">
<title>Node24&#45;&gt;Node42</title>
<path fill="none" stroke="#63b8ff" d="M886.84,-225.16C896.24,-215.76 912.18,-199.82 923.97,-188.03"/>
<polygon fill="#63b8ff" stroke="#63b8ff" points="926.75,-190.2 931.34,-180.66 921.8,-185.25 926.75,-190.2"/>
</g>
<!-- Node43 -->
<g id="node43" class="node">
<title>Node43</title>
<g id="a_node43"><a xlink:title=" ">
<polygon fill="#e0e0e0" stroke="#999999" points="1129,-180.5 1011,-180.5 1011,-163.5 1129,-163.5 1129,-180.5"/>
<text text-anchor="middle" x="1070" y="-170.1" font-family="SourceSans" font-size="8.00">libtorrent/magnet_uri.hpp</text>
</a>
</g>
</g>
<!-- Node24&#45;&gt;Node43 -->
<g id="edge47" class="edge">
<title>Node24&#45;&gt;Node43</title>
<path fill="none" stroke="#63b8ff" d="M903.19,-225.4C936.92,-214.81 998.21,-195.55 1036.37,-183.57"/>
<polygon fill="#63b8ff" stroke="#63b8ff" points="1037.51,-186.87 1046.01,-180.54 1035.42,-180.2 1037.51,-186.87"/>
</g>
<!-- Node44 -->
<g id="node44" class="node">
<title>Node44</title>
<g id="a_node44"><a xlink:title=" ">
<polygon fill="#e0e0e0" stroke="#999999" points="1248.5,-180.5 1147.5,-180.5 1147.5,-163.5 1248.5,-163.5 1248.5,-180.5"/>
<text text-anchor="middle" x="1198" y="-170.1" font-family="SourceSans" font-size="8.00">libtorrent/session.hpp</text>
</a>
</g>
</g>
<!-- Node24&#45;&gt;Node44 -->
<g id="edge48" class="edge">
<title>Node24&#45;&gt;Node44</title>
<path fill="none" stroke="#63b8ff" d="M907,-227.94C954.54,-219.33 1054.03,-201.18 1138,-185 1142.17,-184.2 1146.49,-183.35 1150.83,-182.5"/>
<polygon fill="#63b8ff" stroke="#63b8ff" points="1151.76,-185.88 1160.89,-180.51 1150.4,-179.02 1151.76,-185.88"/>
</g>
<!-- Node45 -->
<g id="node45" class="node">
<title>Node45</title>
<g id="a_node45"><a xlink:title=" ">
<polygon fill="#e0e0e0" stroke="#999999" points="1363.5,-185 1266.5,-185 1266.5,-159 1363.5,-159 1363.5,-185"/>
<text text-anchor="start" x="1274.5" y="-174.6" font-family="SourceSans" font-size="8.00">libtorrent/extensions</text>
<text text-anchor="middle" x="1315" y="-165.6" font-family="SourceSans" font-size="8.00">/ut_metadata.hpp</text>
</a>
</g>
</g>
<!-- Node24&#45;&gt;Node45 -->
<g id="edge49" class="edge">
<title>Node24&#45;&gt;Node45</title>
<path fill="none" stroke="#63b8ff" d="M907.17,-230.23C968.7,-224 1119.89,-207.78 1256.04,-185.24"/>
<polygon fill="#63b8ff" stroke="#63b8ff" points="1256.95,-188.64 1266.23,-183.54 1255.79,-181.74 1256.95,-188.64"/>
</g>
<!-- Node46 -->
<g id="node46" class="node">
<title>Node46</title>
<g id="a_node46"><a xlink:title=" ">
<polygon fill="#e0e0e0" stroke="#999999" points="1478.5,-185 1381.5,-185 1381.5,-159 1478.5,-159 1478.5,-185"/>
<text text-anchor="start" x="1389.5" y="-174.6" font-family="SourceSans" font-size="8.00">libtorrent/extensions</text>
<text text-anchor="middle" x="1430" y="-165.6" font-family="SourceSans" font-size="8.00">/ut_pex.hpp</text>
</a>
</g>
</g>
<!-- Node24&#45;&gt;Node46 -->
<g id="edge50" class="edge">
<title>Node24&#45;&gt;Node46</title>
<path fill="none" stroke="#63b8ff" d="M907.26,-231.35C981.67,-226.78 1189.22,-212.53 1371.23,-185.16"/>
<polygon fill="#63b8ff" stroke="#63b8ff" points="1371.89,-188.6 1381.25,-183.63 1370.83,-181.68 1371.89,-188.6"/>
</g>
<!-- Node25&#45;&gt;Node5 -->
<g id="edge26" class="edge">
<title>Node25&#45;&gt;Node5</title>
<path fill="none" stroke="#63b8ff" d="M1544.94,-163.45C1562.54,-155.97 1586.87,-142.75 1600,-123 1619.49,-93.69 1621.15,-50.97 1620.29,-27.18"/>
<polygon fill="#63b8ff" stroke="#63b8ff" points="1623.79,-26.95 1619.74,-17.16 1616.8,-27.34 1623.79,-26.95"/>
</g>
<!-- Node25&#45;&gt;Node9 -->
<g id="edge27" class="edge">
<title>Node25&#45;&gt;Node9</title>
<path fill="none" stroke="#63b8ff" d="M1548.73,-163.41C1569.47,-155.97 1598.71,-142.84 1618,-123 1645.05,-95.18 1660.58,-51.24 1667.54,-27"/>
<polygon fill="#63b8ff" stroke="#63b8ff" points="1670.98,-27.68 1670.21,-17.11 1664.22,-25.85 1670.98,-27.68"/>
</g>
<!-- Node25&#45;&gt;Node20 -->
<g id="edge29" class="edge">
<title>Node25&#45;&gt;Node20</title>
<path fill="none" stroke="#63b8ff" d="M1503.23,-163.44C1498.28,-161.81 1492.99,-160.22 1488,-159 1389.64,-134.91 1362.92,-139.47 1263,-123 988.26,-77.72 916.22,-71.07 639.17,-17.15"/>
<polygon fill="#63b8ff" stroke="#63b8ff" points="639.71,-13.69 629.22,-15.21 638.37,-20.56 639.71,-13.69"/>
</g>
<!-- Node26 -->
<g id="node26" class="node">
<title>Node26</title>
<g id="a_node26"><a xlink:title=" ">
<polygon fill="#e0e0e0" stroke="#999999" points="1447,-123 1391,-123 1391,-106 1447,-106 1447,-123"/>
<text text-anchor="middle" x="1419" y="-112.6" font-family="SourceSans" font-size="8.00">functional</text>
</a>
</g>
</g>
<!-- Node25&#45;&gt;Node26 -->
<g id="edge28" class="edge">
<title>Node25&#45;&gt;Node26</title>
<path fill="none" stroke="#63b8ff" d="M1509.4,-163.28C1492.08,-154.13 1462.98,-138.75 1442.49,-127.91"/>
<polygon fill="#63b8ff" stroke="#63b8ff" points="1443.95,-124.73 1433.48,-123.15 1440.68,-130.92 1443.95,-124.73"/>
</g>
<!-- Node27 -->
<g id="node27" class="node">
<title>Node27</title>
<g id="a_node27"><a xlink:href="a60-io_8h.html" target="_top" xlink:title=" ">
<polygon fill="white" stroke="#666666" points="1318.5,-123 1271.5,-123 1271.5,-106 1318.5,-106 1318.5,-123"/>
<text text-anchor="middle" x="1295" y="-112.6" font-family="SourceSans" font-size="8.00">a60&#45;io.h</text>
</a>
</g>
</g>
<!-- Node25&#45;&gt;Node27 -->
<g id="edge30" class="edge">
<title>Node25&#45;&gt;Node27</title>
<path fill="none" stroke="#63b8ff" d="M1502.41,-163.41C1497.69,-161.86 1492.7,-160.31 1488,-159 1432.8,-143.62 1367.59,-129.81 1328.85,-122.06"/>
<polygon fill="#63b8ff" stroke="#63b8ff" points="1329.15,-118.55 1318.66,-120.04 1327.79,-125.42 1329.15,-118.55"/>
</g>
<!-- Node32 -->
<g id="node32" class="node">
<title>Node32</title>
<g id="a_node32"><a xlink:title=" ">
<polygon fill="#e0e0e0" stroke="#999999" points="1511,-123 1465,-123 1465,-106 1511,-106 1511,-123"/>
<text text-anchor="middle" x="1488" y="-112.6" font-family="SourceSans" font-size="8.00">GeoIP.h</text>
</a>
</g>
</g>
<!-- Node25&#45;&gt;Node32 -->
<g id="edge36" class="edge">
<title>Node25&#45;&gt;Node32</title>
<path fill="none" stroke="#63b8ff" d="M1518.99,-163.28C1513.73,-155.16 1505.29,-142.15 1498.54,-131.75"/>
<polygon fill="#63b8ff" stroke="#63b8ff" points="1501.34,-129.64 1492.96,-123.15 1495.47,-133.45 1501.34,-129.64"/>
</g>
<!-- Node33 -->
<g id="node33" class="node">
<title>Node33</title>
<g id="a_node33"><a xlink:title=" ">
<polygon fill="#e0e0e0" stroke="#999999" points="1590.5,-123 1529.5,-123 1529.5,-106 1590.5,-106 1590.5,-123"/>
<text text-anchor="middle" x="1560" y="-112.6" font-family="SourceSans" font-size="8.00">GeoIPCity.h</text>
</a>
</g>
</g>
<!-- Node25&#45;&gt;Node33 -->
<g id="edge37" class="edge">
<title>Node25&#45;&gt;Node33</title>
<path fill="none" stroke="#63b8ff" d="M1529.01,-163.28C1534.27,-155.16 1542.71,-142.15 1549.46,-131.75"/>
<polygon fill="#63b8ff" stroke="#63b8ff" points="1552.53,-133.45 1555.04,-123.15 1546.66,-129.64 1552.53,-133.45"/>
</g>
<!-- Node27&#45;&gt;Node4 -->
<g id="edge35" class="edge">
<title>Node27&#45;&gt;Node4</title>
<path fill="none" stroke="#63b8ff" d="M1271.98,-105.97C1244.38,-96.95 1198.11,-81.82 1168.07,-72"/>
<polygon fill="#63b8ff" stroke="#63b8ff" points="1168.77,-68.55 1158.18,-68.77 1166.59,-75.2 1168.77,-68.55"/>
</g>
<!-- Node28 -->
<g id="node28" class="node">
<title>Node28</title>
<g id="a_node28"><a xlink:title=" ">
<polygon fill="#e0e0e0" stroke="#999999" points="1364,-70 1318,-70 1318,-53 1364,-53 1364,-70"/>
<text text-anchor="middle" x="1341" y="-59.6" font-family="SourceSans" font-size="8.00">fstream</text>
</a>
</g>
</g>
<!-- Node27&#45;&gt;Node28 -->
<g id="edge31" class="edge">
<title>Node27&#45;&gt;Node28</title>
<path fill="none" stroke="#63b8ff" d="M1301.79,-105.97C1308.51,-98.52 1319.01,-86.89 1327.44,-77.53"/>
<polygon fill="#63b8ff" stroke="#63b8ff" points="1330.09,-79.83 1334.18,-70.06 1324.89,-75.14 1330.09,-79.83"/>
</g>
<!-- Node29 -->
<g id="node29" class="node">
<title>Node29</title>
<g id="a_node29"><a xlink:title=" ">
<polygon fill="#e0e0e0" stroke="#999999" points="1490,-70 1382,-70 1382,-53 1490,-53 1490,-70"/>
<text text-anchor="middle" x="1436" y="-59.6" font-family="SourceSans" font-size="8.00">experimental/filesystem</text>
</a>
</g>
</g>
<!-- Node27&#45;&gt;Node29 -->
<g id="edge32" class="edge">
<title>Node27&#45;&gt;Node29</title>
<path fill="none" stroke="#63b8ff" d="M1315.81,-105.97C1339.44,-97.42 1378.25,-83.39 1405.35,-73.59"/>
<polygon fill="#63b8ff" stroke="#63b8ff" points="1406.9,-76.75 1415.11,-70.06 1404.52,-70.17 1406.9,-76.75"/>
</g>
<!-- Node30 -->
<g id="node30" class="node">
<title>Node30</title>
<g id="a_node30"><a xlink:title=" ">
<polygon fill="#e0e0e0" stroke="#999999" points="1243.5,-70 1190.5,-70 1190.5,-53 1243.5,-53 1243.5,-70"/>
<text text-anchor="middle" x="1217" y="-59.6" font-family="SourceSans" font-size="8.00">stdexcept</text>
</a>
</g>
</g>
<!-- Node27&#45;&gt;Node30 -->
<g id="edge33" class="edge">
<title>Node27&#45;&gt;Node30</title>
<path fill="none" stroke="#63b8ff" d="M1283.49,-105.97C1271.28,-97.99 1251.75,-85.22 1237.01,-75.58"/>
<polygon fill="#63b8ff" stroke="#63b8ff" points="1238.84,-72.6 1228.56,-70.06 1235.01,-78.46 1238.84,-72.6"/>
</g>
<!-- Node31 -->
<g id="node31" class="node">
<title>Node31</title>
<g id="a_node31"><a xlink:title=" ">
<polygon fill="#e0e0e0" stroke="#999999" points="1300,-70 1262,-70 1262,-53 1300,-53 1300,-70"/>
<text text-anchor="middle" x="1281" y="-59.6" font-family="SourceSans" font-size="8.00">regex</text>
</a>
</g>
</g>
<!-- Node27&#45;&gt;Node31 -->
<g id="edge34" class="edge">
<title>Node27&#45;&gt;Node31</title>
<path fill="none" stroke="#63b8ff" d="M1292.93,-105.97C1291.05,-99.12 1288.2,-88.74 1285.76,-79.84"/>
<polygon fill="#63b8ff" stroke="#63b8ff" points="1289.1,-78.77 1283.07,-70.06 1282.35,-80.63 1289.1,-78.77"/>
</g>
<!-- Node48 -->
<g id="node48" class="node">
<title>Node48</title>
<g id="a_node48"><a xlink:title=" ">
<polygon fill="#e0e0e0" stroke="#999999" points="2278.5,-180.5 2171.5,-180.5 2171.5,-163.5 2278.5,-163.5 2278.5,-180.5"/>
<text text-anchor="middle" x="2225" y="-170.1" font-family="SourceSans" font-size="8.00">rapidjson/prettywriter.h</text>
</a>
</g>
</g>
<!-- Node47&#45;&gt;Node48 -->
<g id="edge52" class="edge">
<title>Node47&#45;&gt;Node48</title>
<path fill="none" stroke="#63b8ff" d="M2019.76,-225.4C2061.88,-214.65 2138.92,-194.98 2185.7,-183.03"/>
<polygon fill="#63b8ff" stroke="#63b8ff" points="2186.66,-186.4 2195.48,-180.54 2184.92,-179.62 2186.66,-186.4"/>
</g>
<!-- Node49 -->
<g id="node49" class="node">
<title>Node49</title>
<g id="a_node49"><a xlink:title=" ">
<polygon fill="#e0e0e0" stroke="#999999" points="2387,-180.5 2297,-180.5 2297,-163.5 2387,-163.5 2387,-180.5"/>
<text text-anchor="middle" x="2342" y="-170.1" font-family="SourceSans" font-size="8.00">rapidjson/pointer.h</text>
</a>
</g>
</g>
<!-- Node47&#45;&gt;Node49 -->
<g id="edge53" class="edge">
<title>Node47&#45;&gt;Node49</title>
<path fill="none" stroke="#63b8ff" d="M2026.36,-227.85C2082.62,-219.72 2194.07,-202.99 2288,-185 2291.71,-184.29 2295.55,-183.52 2299.4,-182.71"/>
<polygon fill="#63b8ff" stroke="#63b8ff" points="2300.47,-186.06 2309.51,-180.55 2299,-179.22 2300.47,-186.06"/>
</g>
<!-- Node50 -->
<g id="node50" class="node">
<title>Node50</title>
<g id="a_node50"><a xlink:title=" ">
<polygon fill="#e0e0e0" stroke="#999999" points="1815,-180.5 1697,-180.5 1697,-163.5 1815,-163.5 1815,-180.5"/>
<text text-anchor="middle" x="1756" y="-170.1" font-family="SourceSans" font-size="8.00">rapidjson/filereadstream.h</text>
</a>
</g>
</g>
<!-- Node47&#45;&gt;Node50 -->
<g id="edge54" class="edge">
<title>Node47&#45;&gt;Node50</title>
<path fill="none" stroke="#63b8ff" d="M1960.36,-225.4C1918.43,-214.65 1841.71,-194.98 1795.14,-183.03"/>
<polygon fill="#63b8ff" stroke="#63b8ff" points="1795.95,-179.63 1785.4,-180.54 1794.21,-186.41 1795.95,-179.63"/>
</g>
<!-- Node51 -->
<g id="node51" class="node">
<title>Node51</title>
<g id="a_node51"><a xlink:title=" ">
<polygon fill="#e0e0e0" stroke="#999999" points="1920.5,-180.5 1833.5,-180.5 1833.5,-163.5 1920.5,-163.5 1920.5,-180.5"/>
<text text-anchor="middle" x="1877" y="-170.1" font-family="SourceSans" font-size="8.00">rapidjson/reader.h</text>
</a>
</g>
</g>
<!-- Node47&#45;&gt;Node51 -->
<g id="edge55" class="edge">
<title>Node47&#45;&gt;Node51</title>
<path fill="none" stroke="#63b8ff" d="M1975.69,-225.4C1956.67,-215.3 1922.83,-197.34 1900.16,-185.29"/>
<polygon fill="#63b8ff" stroke="#63b8ff" points="1901.67,-182.14 1891.2,-180.54 1898.39,-188.32 1901.67,-182.14"/>
</g>
<!-- Node52 -->
<g id="node52" class="node">
<title>Node52</title>
<g id="a_node52"><a xlink:title=" ">
<polygon fill="#e0e0e0" stroke="#999999" points="2041,-180.5 1939,-180.5 1939,-163.5 2041,-163.5 2041,-180.5"/>
<text text-anchor="middle" x="1990" y="-170.1" font-family="SourceSans" font-size="8.00">rapidjson/document.h</text>
</a>
</g>
</g>
<!-- Node47&#45;&gt;Node52 -->
<g id="edge56" class="edge">
<title>Node47&#45;&gt;Node52</title>
<path fill="none" stroke="#63b8ff" d="M1990,-225.16C1990,-216.48 1990,-202.23 1990,-190.82"/>
<polygon fill="#63b8ff" stroke="#63b8ff" points="1993.5,-190.66 1990,-180.66 1986.5,-190.66 1993.5,-190.66"/>
</g>
<!-- Node53 -->
<g id="node53" class="node">
<title>Node53</title>
<g id="a_node53"><a xlink:title=" ">
<polygon fill="#e0e0e0" stroke="#999999" points="2153,-180.5 2059,-180.5 2059,-163.5 2153,-163.5 2153,-180.5"/>
<text text-anchor="middle" x="2106" y="-170.1" font-family="SourceSans" font-size="8.00">rapidjson/error/en.h</text>
</a>
</g>
</g>
<!-- Node47&#45;&gt;Node53 -->
<g id="edge57" class="edge">
<title>Node47&#45;&gt;Node53</title>
<path fill="none" stroke="#63b8ff" d="M2004.69,-225.4C2024.3,-215.26 2059.26,-197.18 2082.54,-185.13"/>
<polygon fill="#63b8ff" stroke="#63b8ff" points="2084.15,-188.24 2091.43,-180.54 2080.94,-182.02 2084.15,-188.24"/>
</g>
</g>
</svg>
