<?xml version="1.0" encoding="UTF-8" standalone="no"?>
<!DOCTYPE svg PUBLIC "-//W3C//DTD SVG 1.1//EN"
 "http://www.w3.org/Graphics/SVG/1.1/DTD/svg11.dtd">
<!-- Generated by graphviz version 5.0.0 (0)
 -->
<!-- Title: /home/bkoz/src/alpha60&#45;docs/src/a60&#45;json.h Pages: 1 -->
<svg width="2303pt" height="361pt"
 viewBox="0.00 0.00 2303.00 361.00" xmlns="http://www.w3.org/2000/svg" xmlns:xlink="http://www.w3.org/1999/xlink">
<g id="graph0" class="graph" transform="scale(1 1) rotate(0) translate(4 357)">
<title>/home/bkoz/src/alpha60&#45;docs/src/a60&#45;json.h</title>
<!-- Node1 -->
<g id="node1" class="node">
<title>Node1</title>
<g id="a_node1"><a xlink:title=" ">
<polygon fill="#999999" stroke="#666666" points="1439,-353 1329,-353 1329,-327 1439,-327 1439,-353"/>
<text text-anchor="start" x="1337" y="-342.6" font-family="SourceSans" font-size="8.00">/home/bkoz/src/alpha60</text>
<text text-anchor="middle" x="1384" y="-333.6" font-family="SourceSans" font-size="8.00">&#45;docs/src/a60&#45;json.h</text>
</a>
</g>
</g>
<!-- Node2 -->
<g id="node2" class="node">
<title>Node2</title>
<g id="a_node2"><a xlink:href="a60-swarm-functions_8h.html" target="_top" xlink:title=" ">
<polygon fill="white" stroke="#666666" points="1435.5,-291 1332.5,-291 1332.5,-274 1435.5,-274 1435.5,-291"/>
<text text-anchor="middle" x="1384" y="-280.6" font-family="SourceSans" font-size="8.00">a60&#45;swarm&#45;functions.h</text>
</a>
</g>
</g>
<!-- Node1&#45;&gt;Node2 -->
<g id="edge1" class="edge">
<title>Node1&#45;&gt;Node2</title>
<path fill="none" stroke="#63b8ff" d="M1384,-326.96C1384,-319.51 1384,-309.8 1384,-301.45"/>
<polygon fill="#63b8ff" stroke="#63b8ff" points="1387.5,-301.25 1384,-291.25 1380.5,-301.25 1387.5,-301.25"/>
</g>
<!-- Node3 -->
<g id="node3" class="node">
<title>Node3</title>
<g id="a_node3"><a xlink:href="a60-peer_8h.html" target="_top" xlink:title=" ">
<polygon fill="white" stroke="#666666" points="899,-238 843,-238 843,-221 899,-221 899,-238"/>
<text text-anchor="middle" x="871" y="-227.6" font-family="SourceSans" font-size="8.00">a60&#45;peer.h</text>
</a>
</g>
</g>
<!-- Node2&#45;&gt;Node3 -->
<g id="edge2" class="edge">
<title>Node2&#45;&gt;Node3</title>
<path fill="none" stroke="#63b8ff" d="M1332.46,-276.38C1229.45,-266.14 1000.21,-243.35 909.25,-234.3"/>
<polygon fill="#63b8ff" stroke="#63b8ff" points="909.42,-230.8 899.12,-233.3 908.72,-237.77 909.42,-230.8"/>
</g>
<!-- Node43 -->
<g id="node43" class="node">
<title>Node43</title>
<g id="a_node43"><a xlink:href="a60-json-fwd_8h.html" target="_top" xlink:title=" ">
<polygon fill="white" stroke="#666666" points="1934,-238 1862,-238 1862,-221 1934,-221 1934,-238"/>
<text text-anchor="middle" x="1898" y="-227.6" font-family="SourceSans" font-size="8.00">a60&#45;json&#45;fwd.h</text>
</a>
</g>
</g>
<!-- Node2&#45;&gt;Node43 -->
<g id="edge45" class="edge">
<title>Node2&#45;&gt;Node43</title>
<path fill="none" stroke="#63b8ff" d="M1435.64,-276.38C1535.98,-266.42 1755.83,-244.61 1851.73,-235.09"/>
<polygon fill="#63b8ff" stroke="#63b8ff" points="1852.1,-238.57 1861.71,-234.1 1851.41,-231.61 1852.1,-238.57"/>
</g>
<!-- Node4 -->
<g id="node4" class="node">
<title>Node4</title>
<g id="a_node4"><a xlink:href="a60-geo_8h.html" target="_top" xlink:title=" ">
<polygon fill="white" stroke="#666666" points="1224,-180.5 1170,-180.5 1170,-163.5 1224,-163.5 1224,-180.5"/>
<text text-anchor="middle" x="1197" y="-170.1" font-family="SourceSans" font-size="8.00">a60&#45;geo.h</text>
</a>
</g>
</g>
<!-- Node3&#45;&gt;Node4 -->
<g id="edge3" class="edge">
<title>Node3&#45;&gt;Node4</title>
<path fill="none" stroke="#63b8ff" d="M899.19,-225.81C951.23,-220.51 1065.67,-207.24 1160,-185 1161.92,-184.55 1163.89,-184.04 1165.86,-183.5"/>
<polygon fill="#63b8ff" stroke="#63b8ff" points="1167.06,-186.79 1175.65,-180.58 1165.06,-180.09 1167.06,-186.79"/>
</g>
<!-- Node30 -->
<g id="node30" class="node">
<title>Node30</title>
<g id="a_node30"><a xlink:href="a60-network-functions_8h.html" target="_top" xlink:title=" ">
<polygon fill="white" stroke="#666666" points="1351.5,-180.5 1242.5,-180.5 1242.5,-163.5 1351.5,-163.5 1351.5,-180.5"/>
<text text-anchor="middle" x="1297" y="-170.1" font-family="SourceSans" font-size="8.00">a60&#45;network&#45;functions.h</text>
</a>
</g>
</g>
<!-- Node3&#45;&gt;Node30 -->
<g id="edge32" class="edge">
<title>Node3&#45;&gt;Node30</title>
<path fill="none" stroke="#63b8ff" d="M899.25,-225.74C960.32,-219.65 1109.12,-204.04 1233,-185 1238.17,-184.2 1243.57,-183.3 1248.94,-182.36"/>
<polygon fill="#63b8ff" stroke="#63b8ff" points="1249.95,-185.74 1259.17,-180.52 1248.71,-178.85 1249.95,-185.74"/>
</g>
<!-- Node31 -->
<g id="node31" class="node">
<title>Node31</title>
<g id="a_node31"><a xlink:title=" ">
<polygon fill="#e0e0e0" stroke="#999999" points="1462.5,-180.5 1369.5,-180.5 1369.5,-163.5 1462.5,-163.5 1462.5,-180.5"/>
<text text-anchor="middle" x="1416" y="-170.1" font-family="SourceSans" font-size="8.00">libtorrent/entry.hpp</text>
</a>
</g>
</g>
<!-- Node3&#45;&gt;Node31 -->
<g id="edge33" class="edge">
<title>Node3&#45;&gt;Node31</title>
<path fill="none" stroke="#63b8ff" d="M899.26,-227.2C974.52,-223.47 1185.97,-211.29 1360,-185 1364.55,-184.31 1369.28,-183.48 1373.98,-182.58"/>
<polygon fill="#63b8ff" stroke="#63b8ff" points="1375.03,-185.94 1384.14,-180.53 1373.65,-179.08 1375.03,-185.94"/>
</g>
<!-- Node32 -->
<g id="node32" class="node">
<title>Node32</title>
<g id="a_node32"><a xlink:title=" ">
<polygon fill="#e0e0e0" stroke="#999999" points="1587.5,-180.5 1480.5,-180.5 1480.5,-163.5 1587.5,-163.5 1587.5,-180.5"/>
<text text-anchor="middle" x="1534" y="-170.1" font-family="SourceSans" font-size="8.00">libtorrent/bencode.hpp</text>
</a>
</g>
</g>
<!-- Node3&#45;&gt;Node32 -->
<g id="edge34" class="edge">
<title>Node3&#45;&gt;Node32</title>
<path fill="none" stroke="#63b8ff" d="M899.23,-227.62C985.32,-224.67 1251.98,-213.7 1471,-185 1476.59,-184.27 1482.43,-183.36 1488.21,-182.36"/>
<polygon fill="#63b8ff" stroke="#63b8ff" points="1489.25,-185.73 1498.47,-180.51 1488,-178.84 1489.25,-185.73"/>
</g>
<!-- Node33 -->
<g id="node33" class="node">
<title>Node33</title>
<g id="a_node33"><a xlink:title=" ">
<polygon fill="#e0e0e0" stroke="#999999" points="100,-180.5 0,-180.5 0,-163.5 100,-163.5 100,-180.5"/>
<text text-anchor="middle" x="50" y="-170.1" font-family="SourceSans" font-size="8.00">libtorrent/torrent.hpp</text>
</a>
</g>
</g>
<!-- Node3&#45;&gt;Node33 -->
<g id="edge35" class="edge">
<title>Node3&#45;&gt;Node33</title>
<path fill="none" stroke="#63b8ff" d="M842.84,-228.35C742.59,-227.5 393.83,-221.9 109,-185 103.62,-184.3 98,-183.4 92.46,-182.39"/>
<polygon fill="#63b8ff" stroke="#63b8ff" points="93.11,-178.95 82.63,-180.51 91.79,-185.83 93.11,-178.95"/>
</g>
<!-- Node34 -->
<g id="node34" class="node">
<title>Node34</title>
<g id="a_node34"><a xlink:title=" ">
<polygon fill="#e0e0e0" stroke="#999999" points="200,-185 118,-185 118,-159 200,-159 200,-185"/>
<text text-anchor="start" x="126" y="-174.6" font-family="SourceSans" font-size="8.00">libtorrent/torrent</text>
<text text-anchor="middle" x="159" y="-165.6" font-family="SourceSans" font-size="8.00">_info.hpp</text>
</a>
</g>
</g>
<!-- Node3&#45;&gt;Node34 -->
<g id="edge36" class="edge">
<title>Node3&#45;&gt;Node34</title>
<path fill="none" stroke="#63b8ff" d="M842.75,-228.35C752.07,-227.53 460.24,-222.08 210.09,-184.95"/>
<polygon fill="#63b8ff" stroke="#63b8ff" points="210.5,-181.47 200.09,-183.45 209.46,-188.4 210.5,-181.47"/>
</g>
<!-- Node35 -->
<g id="node35" class="node">
<title>Node35</title>
<g id="a_node35"><a xlink:title=" ">
<polygon fill="#e0e0e0" stroke="#999999" points="300,-185 218,-185 218,-159 300,-159 300,-185"/>
<text text-anchor="start" x="226" y="-174.6" font-family="SourceSans" font-size="8.00">libtorrent/torrent</text>
<text text-anchor="middle" x="259" y="-165.6" font-family="SourceSans" font-size="8.00">_status.hpp</text>
</a>
</g>
</g>
<!-- Node3&#45;&gt;Node35 -->
<g id="edge37" class="edge">
<title>Node3&#45;&gt;Node35</title>
<path fill="none" stroke="#63b8ff" d="M842.75,-227.89C761.42,-225.81 519.71,-217.28 310.06,-184.97"/>
<polygon fill="#63b8ff" stroke="#63b8ff" points="310.52,-181.5 300.1,-183.41 309.44,-188.41 310.52,-181.5"/>
</g>
<!-- Node36 -->
<g id="node36" class="node">
<title>Node36</title>
<g id="a_node36"><a xlink:title=" ">
<polygon fill="#e0e0e0" stroke="#999999" points="428,-180.5 318,-180.5 318,-163.5 428,-163.5 428,-180.5"/>
<text text-anchor="middle" x="373" y="-170.1" font-family="SourceSans" font-size="8.00">libtorrent/peer_info.hpp</text>
</a>
</g>
</g>
<!-- Node3&#45;&gt;Node36 -->
<g id="edge38" class="edge">
<title>Node3&#45;&gt;Node36</title>
<path fill="none" stroke="#63b8ff" d="M842.97,-226.53C773.81,-221.47 589.54,-206.9 437,-185 431.54,-184.22 425.85,-183.3 420.2,-182.32"/>
<polygon fill="#63b8ff" stroke="#63b8ff" points="420.6,-178.84 410.14,-180.52 419.36,-185.73 420.6,-178.84"/>
</g>
<!-- Node37 -->
<g id="node37" class="node">
<title>Node37</title>
<g id="a_node37"><a xlink:title=" ">
<polygon fill="#e0e0e0" stroke="#999999" points="540,-185 446,-185 446,-159 540,-159 540,-185"/>
<text text-anchor="start" x="454" y="-174.6" font-family="SourceSans" font-size="8.00">libtorrent/announce</text>
<text text-anchor="middle" x="493" y="-165.6" font-family="SourceSans" font-size="8.00">_entry.hpp</text>
</a>
</g>
</g>
<!-- Node3&#45;&gt;Node37 -->
<g id="edge39" class="edge">
<title>Node3&#45;&gt;Node37</title>
<path fill="none" stroke="#63b8ff" d="M842.89,-225.44C788.39,-219.35 664.37,-204.71 549.98,-185.08"/>
<polygon fill="#63b8ff" stroke="#63b8ff" points="550.45,-181.61 540,-183.35 549.26,-188.5 550.45,-181.61"/>
</g>
<!-- Node38 -->
<g id="node38" class="node">
<title>Node38</title>
<g id="a_node38"><a xlink:title=" ">
<polygon fill="#e0e0e0" stroke="#999999" points="665.5,-180.5 558.5,-180.5 558.5,-163.5 665.5,-163.5 665.5,-180.5"/>
<text text-anchor="middle" x="612" y="-170.1" font-family="SourceSans" font-size="8.00">libtorrent/bdecode.hpp</text>
</a>
</g>
</g>
<!-- Node3&#45;&gt;Node38 -->
<g id="edge40" class="edge">
<title>Node3&#45;&gt;Node38</title>
<path fill="none" stroke="#63b8ff" d="M842.79,-222.45C798.08,-212.87 710.54,-194.12 657.06,-182.66"/>
<polygon fill="#63b8ff" stroke="#63b8ff" points="657.68,-179.21 647.17,-180.54 656.21,-186.05 657.68,-179.21"/>
</g>
<!-- Node39 -->
<g id="node39" class="node">
<title>Node39</title>
<g id="a_node39"><a xlink:title=" ">
<polygon fill="#e0e0e0" stroke="#999999" points="802,-180.5 684,-180.5 684,-163.5 802,-163.5 802,-180.5"/>
<text text-anchor="middle" x="743" y="-170.1" font-family="SourceSans" font-size="8.00">libtorrent/magnet_uri.hpp</text>
</a>
</g>
</g>
<!-- Node3&#45;&gt;Node39 -->
<g id="edge41" class="edge">
<title>Node3&#45;&gt;Node39</title>
<path fill="none" stroke="#63b8ff" d="M853.47,-220.9C831.83,-211.52 794.81,-195.47 769.65,-184.55"/>
<polygon fill="#63b8ff" stroke="#63b8ff" points="770.88,-181.28 760.32,-180.51 768.1,-187.7 770.88,-181.28"/>
</g>
<!-- Node40 -->
<g id="node40" class="node">
<title>Node40</title>
<g id="a_node40"><a xlink:title=" ">
<polygon fill="#e0e0e0" stroke="#999999" points="921.5,-180.5 820.5,-180.5 820.5,-163.5 921.5,-163.5 921.5,-180.5"/>
<text text-anchor="middle" x="871" y="-170.1" font-family="SourceSans" font-size="8.00">libtorrent/session.hpp</text>
</a>
</g>
</g>
<!-- Node3&#45;&gt;Node40 -->
<g id="edge42" class="edge">
<title>Node3&#45;&gt;Node40</title>
<path fill="none" stroke="#63b8ff" d="M871,-220.78C871,-213.08 871,-200.96 871,-190.86"/>
<polygon fill="#63b8ff" stroke="#63b8ff" points="874.5,-190.65 871,-180.65 867.5,-190.65 874.5,-190.65"/>
</g>
<!-- Node41 -->
<g id="node41" class="node">
<title>Node41</title>
<g id="a_node41"><a xlink:title=" ">
<polygon fill="#e0e0e0" stroke="#999999" points="1036.5,-185 939.5,-185 939.5,-159 1036.5,-159 1036.5,-185"/>
<text text-anchor="start" x="947.5" y="-174.6" font-family="SourceSans" font-size="8.00">libtorrent/extensions</text>
<text text-anchor="middle" x="988" y="-165.6" font-family="SourceSans" font-size="8.00">/ut_metadata.hpp</text>
</a>
</g>
</g>
<!-- Node3&#45;&gt;Node41 -->
<g id="edge43" class="edge">
<title>Node3&#45;&gt;Node41</title>
<path fill="none" stroke="#63b8ff" d="M887.27,-220.78C904.22,-212.74 931.31,-199.89 953.13,-189.54"/>
<polygon fill="#63b8ff" stroke="#63b8ff" points="954.89,-192.58 962.42,-185.13 951.89,-186.26 954.89,-192.58"/>
</g>
<!-- Node42 -->
<g id="node42" class="node">
<title>Node42</title>
<g id="a_node42"><a xlink:title=" ">
<polygon fill="#e0e0e0" stroke="#999999" points="1151.5,-185 1054.5,-185 1054.5,-159 1151.5,-159 1151.5,-185"/>
<text text-anchor="start" x="1062.5" y="-174.6" font-family="SourceSans" font-size="8.00">libtorrent/extensions</text>
<text text-anchor="middle" x="1103" y="-165.6" font-family="SourceSans" font-size="8.00">/ut_pex.hpp</text>
</a>
</g>
</g>
<!-- Node3&#45;&gt;Node42 -->
<g id="edge44" class="edge">
<title>Node3&#45;&gt;Node42</title>
<path fill="none" stroke="#63b8ff" d="M899.45,-221.69C935.41,-213.09 998.2,-198.07 1044.57,-186.98"/>
<polygon fill="#63b8ff" stroke="#63b8ff" points="1045.58,-190.34 1054.49,-184.61 1043.95,-183.53 1045.58,-190.34"/>
</g>
<!-- Node5 -->
<g id="node5" class="node">
<title>Node5</title>
<g id="a_node5"><a xlink:title=" ">
<polygon fill="#e0e0e0" stroke="#999999" points="793.5,-17 752.5,-17 752.5,0 793.5,0 793.5,-17"/>
<text text-anchor="middle" x="773" y="-6.6" font-family="SourceSans" font-size="8.00">cmath</text>
</a>
</g>
</g>
<!-- Node4&#45;&gt;Node5 -->
<g id="edge4" class="edge">
<title>Node4&#45;&gt;Node5</title>
<path fill="none" stroke="#63b8ff" d="M1174.35,-163.49C1169.62,-161.97 1164.66,-160.4 1160,-159 1103.01,-141.81 1087.05,-143.04 1031,-123 942.78,-91.47 842.21,-43.62 797.11,-21.49"/>
<polygon fill="#63b8ff" stroke="#63b8ff" points="798.62,-18.34 788.1,-17.06 795.53,-24.62 798.62,-18.34"/>
</g>
<!-- Node6 -->
<g id="node6" class="node">
<title>Node6</title>
<g id="a_node6"><a xlink:title=" ">
<polygon fill="#e0e0e0" stroke="#999999" points="840.5,-17 811.5,-17 811.5,0 840.5,0 840.5,-17"/>
<text text-anchor="middle" x="826" y="-6.6" font-family="SourceSans" font-size="8.00">set</text>
</a>
</g>
</g>
<!-- Node4&#45;&gt;Node6 -->
<g id="edge5" class="edge">
<title>Node4&#45;&gt;Node6</title>
<path fill="none" stroke="#63b8ff" d="M1176.22,-163.4C1151.46,-154.25 1108.93,-138.19 1073,-123 990.13,-87.96 893.7,-42.16 849.87,-21.06"/>
<polygon fill="#63b8ff" stroke="#63b8ff" points="851.14,-17.79 840.62,-16.6 848.1,-24.1 851.14,-17.79"/>
</g>
<!-- Node7 -->
<g id="node7" class="node">
<title>Node7</title>
<g id="a_node7"><a xlink:title=" ">
<polygon fill="#e0e0e0" stroke="#999999" points="1295,-123 1239,-123 1239,-106 1295,-106 1295,-123"/>
<text text-anchor="middle" x="1267" y="-112.6" font-family="SourceSans" font-size="8.00">functional</text>
</a>
</g>
</g>
<!-- Node4&#45;&gt;Node7 -->
<g id="edge6" class="edge">
<title>Node4&#45;&gt;Node7</title>
<path fill="none" stroke="#63b8ff" d="M1206.73,-163.28C1217.7,-154.58 1235.77,-140.26 1249.26,-129.56"/>
<polygon fill="#63b8ff" stroke="#63b8ff" points="1251.69,-132.11 1257.35,-123.15 1247.34,-126.62 1251.69,-132.11"/>
</g>
<!-- Node8 -->
<g id="node8" class="node">
<title>Node8</title>
<g id="a_node8"><a xlink:title=" ">
<polygon fill="#e0e0e0" stroke="#999999" points="909,-17 859,-17 859,0 909,0 909,-17"/>
<text text-anchor="middle" x="884" y="-6.6" font-family="SourceSans" font-size="8.00">iostream</text>
</a>
</g>
</g>
<!-- Node4&#45;&gt;Node8 -->
<g id="edge7" class="edge">
<title>Node4&#45;&gt;Node8</title>
<path fill="none" stroke="#63b8ff" d="M1182.69,-163.49C1146.9,-144.73 1050.63,-94.35 970,-53 949.34,-42.41 925.81,-30.52 908.59,-21.85"/>
<polygon fill="#63b8ff" stroke="#63b8ff" points="909.76,-18.52 899.25,-17.15 906.61,-24.77 909.76,-18.52"/>
</g>
<!-- Node9 -->
<g id="node9" class="node">
<title>Node9</title>
<g id="a_node9"><a xlink:href="a60-io_8h.html" target="_top" xlink:title=" ">
<polygon fill="white" stroke="#666666" points="1220.5,-123 1173.5,-123 1173.5,-106 1220.5,-106 1220.5,-123"/>
<text text-anchor="middle" x="1197" y="-112.6" font-family="SourceSans" font-size="8.00">a60&#45;io.h</text>
</a>
</g>
</g>
<!-- Node4&#45;&gt;Node9 -->
<g id="edge8" class="edge">
<title>Node4&#45;&gt;Node9</title>
<path fill="none" stroke="#63b8ff" d="M1197,-163.28C1197,-155.58 1197,-143.46 1197,-133.36"/>
<polygon fill="#63b8ff" stroke="#63b8ff" points="1200.5,-133.15 1197,-123.15 1193.5,-133.15 1200.5,-133.15"/>
</g>
<!-- Node28 -->
<g id="node28" class="node">
<title>Node28</title>
<g id="a_node28"><a xlink:title=" ">
<polygon fill="#e0e0e0" stroke="#999999" points="1359,-123 1313,-123 1313,-106 1359,-106 1359,-123"/>
<text text-anchor="middle" x="1336" y="-112.6" font-family="SourceSans" font-size="8.00">GeoIP.h</text>
</a>
</g>
</g>
<!-- Node4&#45;&gt;Node28 -->
<g id="edge30" class="edge">
<title>Node4&#45;&gt;Node28</title>
<path fill="none" stroke="#63b8ff" d="M1216.04,-163.4C1239.74,-153.93 1280.45,-137.68 1307.78,-126.77"/>
<polygon fill="#63b8ff" stroke="#63b8ff" points="1309.2,-129.97 1317.19,-123.01 1306.61,-123.47 1309.2,-129.97"/>
</g>
<!-- Node29 -->
<g id="node29" class="node">
<title>Node29</title>
<g id="a_node29"><a xlink:title=" ">
<polygon fill="#e0e0e0" stroke="#999999" points="1438.5,-123 1377.5,-123 1377.5,-106 1438.5,-106 1438.5,-123"/>
<text text-anchor="middle" x="1408" y="-112.6" font-family="SourceSans" font-size="8.00">GeoIPCity.h</text>
</a>
</g>
</g>
<!-- Node4&#45;&gt;Node29 -->
<g id="edge31" class="edge">
<title>Node4&#45;&gt;Node29</title>
<path fill="none" stroke="#63b8ff" d="M1218.62,-163.49C1223.34,-161.94 1228.32,-160.36 1233,-159 1278.7,-145.73 1331.82,-132.88 1367.44,-124.63"/>
<polygon fill="#63b8ff" stroke="#63b8ff" points="1368.5,-127.98 1377.46,-122.33 1366.93,-121.16 1368.5,-127.98"/>
</g>
<!-- Node10 -->
<g id="node10" class="node">
<title>Node10</title>
<g id="a_node10"><a xlink:title=" ">
<polygon fill="#e0e0e0" stroke="#999999" points="1308,-70 1262,-70 1262,-53 1308,-53 1308,-70"/>
<text text-anchor="middle" x="1285" y="-59.6" font-family="SourceSans" font-size="8.00">fstream</text>
</a>
</g>
</g>
<!-- Node9&#45;&gt;Node10 -->
<g id="edge9" class="edge">
<title>Node9&#45;&gt;Node10</title>
<path fill="none" stroke="#63b8ff" d="M1209.98,-105.97C1223.89,-97.91 1246.21,-84.98 1262.9,-75.31"/>
<polygon fill="#63b8ff" stroke="#63b8ff" points="1265.06,-78.1 1271.96,-70.06 1261.55,-72.04 1265.06,-78.1"/>
</g>
<!-- Node11 -->
<g id="node11" class="node">
<title>Node11</title>
<g id="a_node11"><a xlink:title=" ">
<polygon fill="#e0e0e0" stroke="#999999" points="1434,-70 1326,-70 1326,-53 1434,-53 1434,-70"/>
<text text-anchor="middle" x="1380" y="-59.6" font-family="SourceSans" font-size="8.00">experimental/filesystem</text>
</a>
</g>
</g>
<!-- Node9&#45;&gt;Node11 -->
<g id="edge10" class="edge">
<title>Node9&#45;&gt;Node11</title>
<path fill="none" stroke="#63b8ff" d="M1220.55,-106.94C1251.61,-98.28 1306.6,-82.96 1343.18,-72.76"/>
<polygon fill="#63b8ff" stroke="#63b8ff" points="1344.28,-76.09 1352.97,-70.03 1342.4,-69.35 1344.28,-76.09"/>
</g>
<!-- Node12 -->
<g id="node12" class="node">
<title>Node12</title>
<g id="a_node12"><a xlink:title=" ">
<polygon fill="#e0e0e0" stroke="#999999" points="1505.5,-70 1452.5,-70 1452.5,-53 1505.5,-53 1505.5,-70"/>
<text text-anchor="middle" x="1479" y="-59.6" font-family="SourceSans" font-size="8.00">stdexcept</text>
</a>
</g>
</g>
<!-- Node9&#45;&gt;Node12 -->
<g id="edge11" class="edge">
<title>Node9&#45;&gt;Node12</title>
<path fill="none" stroke="#63b8ff" d="M1220.76,-107.93C1223.86,-107.26 1227,-106.59 1230,-106 1321.05,-87.97 1346.95,-87.79 1442.22,-70.07"/>
<polygon fill="#63b8ff" stroke="#63b8ff" points="1443.1,-73.47 1452.29,-68.18 1441.81,-66.59 1443.1,-73.47"/>
</g>
<!-- Node13 -->
<g id="node13" class="node">
<title>Node13</title>
<g id="a_node13"><a xlink:title=" ">
<polygon fill="#e0e0e0" stroke="#999999" points="1188,-70 1150,-70 1150,-53 1188,-53 1188,-70"/>
<text text-anchor="middle" x="1169" y="-59.6" font-family="SourceSans" font-size="8.00">regex</text>
</a>
</g>
</g>
<!-- Node9&#45;&gt;Node13 -->
<g id="edge12" class="edge">
<title>Node9&#45;&gt;Node13</title>
<path fill="none" stroke="#63b8ff" d="M1192.87,-105.97C1188.98,-98.89 1183.03,-88.05 1178.04,-78.96"/>
<polygon fill="#63b8ff" stroke="#63b8ff" points="1181.03,-77.14 1173.15,-70.06 1174.89,-80.51 1181.03,-77.14"/>
</g>
<!-- Node14 -->
<g id="node14" class="node">
<title>Node14</title>
<g id="a_node14"><a xlink:href="a60_8h.html" target="_top" xlink:title=" ">
<polygon fill="white" stroke="#666666" points="1244,-70 1206,-70 1206,-53 1244,-53 1244,-70"/>
<text text-anchor="middle" x="1225" y="-59.6" font-family="SourceSans" font-size="8.00">a60.h</text>
</a>
</g>
</g>
<!-- Node9&#45;&gt;Node14 -->
<g id="edge13" class="edge">
<title>Node9&#45;&gt;Node14</title>
<path fill="none" stroke="#63b8ff" d="M1201.13,-105.97C1205.02,-98.89 1210.97,-88.05 1215.96,-78.96"/>
<polygon fill="#63b8ff" stroke="#63b8ff" points="1219.11,-80.51 1220.85,-70.06 1212.97,-77.14 1219.11,-80.51"/>
</g>
<!-- Node14&#45;&gt;Node5 -->
<g id="edge14" class="edge">
<title>Node14&#45;&gt;Node5</title>
<path fill="none" stroke="#63b8ff" d="M1205.82,-54.9C1202.88,-54.18 1199.87,-53.51 1197,-53 1026.67,-22.66 977.5,-46.26 803.51,-16.96"/>
<polygon fill="#63b8ff" stroke="#63b8ff" points="803.95,-13.49 793.51,-15.24 802.77,-20.39 803.95,-13.49"/>
</g>
<!-- Node14&#45;&gt;Node6 -->
<g id="edge18" class="edge">
<title>Node14&#45;&gt;Node6</title>
<path fill="none" stroke="#63b8ff" d="M1205.81,-54.93C1202.88,-54.2 1199.87,-53.53 1197,-53 1047.8,-25.46 1003.75,-47.3 850.83,-16.67"/>
<polygon fill="#63b8ff" stroke="#63b8ff" points="851.1,-13.15 840.6,-14.57 849.7,-20.01 851.1,-13.15"/>
</g>
<!-- Node14&#45;&gt;Node8 -->
<g id="edge29" class="edge">
<title>Node14&#45;&gt;Node8</title>
<path fill="none" stroke="#63b8ff" d="M1205.8,-55C1202.87,-54.26 1199.86,-53.57 1197,-53 1077.46,-29.39 1042.91,-38.02 919.07,-17.02"/>
<polygon fill="#63b8ff" stroke="#63b8ff" points="919.65,-13.57 909.2,-15.32 918.46,-20.47 919.65,-13.57"/>
</g>
<!-- Node15 -->
<g id="node15" class="node">
<title>Node15</title>
<g id="a_node15"><a xlink:title=" ">
<polygon fill="#e0e0e0" stroke="#999999" points="1304.5,-17 1267.5,-17 1267.5,0 1304.5,0 1304.5,-17"/>
<text text-anchor="middle" x="1286" y="-6.6" font-family="SourceSans" font-size="8.00">tuple</text>
</a>
</g>
</g>
<!-- Node14&#45;&gt;Node15 -->
<g id="edge15" class="edge">
<title>Node14&#45;&gt;Node15</title>
<path fill="none" stroke="#63b8ff" d="M1234,-52.97C1243.19,-45.29 1257.68,-33.18 1269.03,-23.69"/>
<polygon fill="#63b8ff" stroke="#63b8ff" points="1271.54,-26.16 1276.96,-17.06 1267.05,-20.79 1271.54,-26.16"/>
</g>
<!-- Node16 -->
<g id="node16" class="node">
<title>Node16</title>
<g id="a_node16"><a xlink:title=" ">
<polygon fill="#e0e0e0" stroke="#999999" points="1361.5,-17 1322.5,-17 1322.5,0 1361.5,0 1361.5,-17"/>
<text text-anchor="middle" x="1342" y="-6.6" font-family="SourceSans" font-size="8.00">string</text>
</a>
</g>
</g>
<!-- Node14&#45;&gt;Node16 -->
<g id="edge16" class="edge">
<title>Node14&#45;&gt;Node16</title>
<path fill="none" stroke="#63b8ff" d="M1242.26,-52.97C1261.53,-44.58 1292.95,-30.88 1315.37,-21.11"/>
<polygon fill="#63b8ff" stroke="#63b8ff" points="1316.9,-24.26 1324.67,-17.06 1314.1,-17.84 1316.9,-24.26"/>
</g>
<!-- Node17 -->
<g id="node17" class="node">
<title>Node17</title>
<g id="a_node17"><a xlink:title=" ">
<polygon fill="#e0e0e0" stroke="#999999" points="1418.5,-17 1379.5,-17 1379.5,0 1418.5,0 1418.5,-17"/>
<text text-anchor="middle" x="1399" y="-6.6" font-family="SourceSans" font-size="8.00">vector</text>
</a>
</g>
</g>
<!-- Node14&#45;&gt;Node17 -->
<g id="edge17" class="edge">
<title>Node14&#45;&gt;Node17</title>
<path fill="none" stroke="#63b8ff" d="M1244.29,-54.85C1274.65,-45.95 1333.8,-28.61 1369.52,-18.14"/>
<polygon fill="#63b8ff" stroke="#63b8ff" points="1370.75,-21.43 1379.36,-15.26 1368.78,-14.71 1370.75,-21.43"/>
</g>
<!-- Node18 -->
<g id="node18" class="node">
<title>Node18</title>
<g id="a_node18"><a xlink:title=" ">
<polygon fill="#e0e0e0" stroke="#999999" points="1515,-17 1437,-17 1437,0 1515,0 1515,-17"/>
<text text-anchor="middle" x="1476" y="-6.6" font-family="SourceSans" font-size="8.00">unordered_map</text>
</a>
</g>
</g>
<!-- Node14&#45;&gt;Node18 -->
<g id="edge19" class="edge">
<title>Node14&#45;&gt;Node18</title>
<path fill="none" stroke="#63b8ff" d="M1244.24,-55.16C1247.16,-54.4 1250.16,-53.66 1253,-53 1312.49,-39.25 1381.57,-26.22 1426.89,-18.07"/>
<polygon fill="#63b8ff" stroke="#63b8ff" points="1427.52,-21.51 1436.75,-16.31 1426.29,-14.62 1427.52,-21.51"/>
</g>
<!-- Node19 -->
<g id="node19" class="node">
<title>Node19</title>
<g id="a_node19"><a xlink:title=" ">
<polygon fill="#e0e0e0" stroke="#999999" points="1605,-17 1533,-17 1533,0 1605,0 1605,-17"/>
<text text-anchor="middle" x="1569" y="-6.6" font-family="SourceSans" font-size="8.00">unordered_set</text>
</a>
</g>
</g>
<!-- Node14&#45;&gt;Node19 -->
<g id="edge20" class="edge">
<title>Node14&#45;&gt;Node19</title>
<path fill="none" stroke="#63b8ff" d="M1244.2,-55.01C1247.13,-54.27 1250.14,-53.57 1253,-53 1369.01,-29.86 1402.11,-34.71 1522.68,-17.14"/>
<polygon fill="#63b8ff" stroke="#63b8ff" points="1523.29,-20.59 1532.67,-15.66 1522.26,-13.66 1523.29,-20.59"/>
</g>
<!-- Node20 -->
<g id="node20" class="node">
<title>Node20</title>
<g id="a_node20"><a xlink:title=" ">
<polygon fill="#e0e0e0" stroke="#999999" points="1666.5,-17 1623.5,-17 1623.5,0 1666.5,0 1666.5,-17"/>
<text text-anchor="middle" x="1645" y="-6.6" font-family="SourceSans" font-size="8.00">chrono</text>
</a>
</g>
</g>
<!-- Node14&#45;&gt;Node20 -->
<g id="edge21" class="edge">
<title>Node14&#45;&gt;Node20</title>
<path fill="none" stroke="#63b8ff" d="M1244.19,-54.92C1247.12,-54.2 1250.13,-53.52 1253,-53 1408.37,-24.64 1453.21,-43.22 1613.2,-16.85"/>
<polygon fill="#63b8ff" stroke="#63b8ff" points="1614.12,-20.24 1623.4,-15.13 1612.96,-13.34 1614.12,-20.24"/>
</g>
<!-- Node21 -->
<g id="node21" class="node">
<title>Node21</title>
<g id="a_node21"><a xlink:title=" ">
<polygon fill="#e0e0e0" stroke="#999999" points="1733,-17 1685,-17 1685,0 1733,0 1733,-17"/>
<text text-anchor="middle" x="1709" y="-6.6" font-family="SourceSans" font-size="8.00">numeric</text>
</a>
</g>
</g>
<!-- Node14&#45;&gt;Node21 -->
<g id="edge22" class="edge">
<title>Node14&#45;&gt;Node21</title>
<path fill="none" stroke="#63b8ff" d="M1244.18,-54.88C1247.12,-54.16 1250.12,-53.5 1253,-53 1438.41,-20.52 1488.91,-45.34 1675,-17 1675.1,-16.98 1675.2,-16.97 1675.3,-16.95"/>
<polygon fill="#63b8ff" stroke="#63b8ff" points="1675.71,-20.44 1684.93,-15.22 1674.47,-13.55 1675.71,-20.44"/>
</g>
<!-- Node22 -->
<g id="node22" class="node">
<title>Node22</title>
<g id="a_node22"><a xlink:title=" ">
<polygon fill="#e0e0e0" stroke="#999999" points="1805,-17 1751,-17 1751,0 1805,0 1805,-17"/>
<text text-anchor="middle" x="1778" y="-6.6" font-family="SourceSans" font-size="8.00">algorithm</text>
</a>
</g>
</g>
<!-- Node14&#45;&gt;Node22 -->
<g id="edge23" class="edge">
<title>Node14&#45;&gt;Node22</title>
<path fill="none" stroke="#63b8ff" d="M1244.17,-54.85C1247.11,-54.14 1250.12,-53.49 1253,-53 1464.62,-17.2 1524.39,-46.38 1740.85,-16.94"/>
<polygon fill="#63b8ff" stroke="#63b8ff" points="1741.52,-20.38 1750.94,-15.54 1740.55,-13.44 1741.52,-20.38"/>
</g>
<!-- Node23 -->
<g id="node23" class="node">
<title>Node23</title>
<g id="a_node23"><a xlink:title=" ">
<polygon fill="#e0e0e0" stroke="#999999" points="1861,-17 1823,-17 1823,0 1861,0 1861,-17"/>
<text text-anchor="middle" x="1842" y="-6.6" font-family="SourceSans" font-size="8.00">locale</text>
</a>
</g>
</g>
<!-- Node14&#45;&gt;Node23 -->
<g id="edge24" class="edge">
<title>Node14&#45;&gt;Node23</title>
<path fill="none" stroke="#63b8ff" d="M1244.17,-54.83C1247.11,-54.12 1250.12,-53.47 1253,-53 1496.29,-13.01 1565.64,-56.35 1812.83,-16.8"/>
<polygon fill="#63b8ff" stroke="#63b8ff" points="1813.52,-20.23 1822.83,-15.17 1812.4,-13.32 1813.52,-20.23"/>
</g>
<!-- Node24 -->
<g id="node24" class="node">
<title>Node24</title>
<g id="a_node24"><a xlink:title=" ">
<polygon fill="#e0e0e0" stroke="#999999" points="972.5,-17 927.5,-17 927.5,0 972.5,0 972.5,-17"/>
<text text-anchor="middle" x="950" y="-6.6" font-family="SourceSans" font-size="8.00">codecvt</text>
</a>
</g>
</g>
<!-- Node14&#45;&gt;Node24 -->
<g id="edge25" class="edge">
<title>Node14&#45;&gt;Node24</title>
<path fill="none" stroke="#63b8ff" d="M1205.78,-55.09C1202.85,-54.34 1199.85,-53.62 1197,-53 1105.04,-33.07 1078.13,-36.21 982.72,-17.22"/>
<polygon fill="#63b8ff" stroke="#63b8ff" points="983.14,-13.73 972.64,-15.18 981.75,-20.59 983.14,-13.73"/>
</g>
<!-- Node25 -->
<g id="node25" class="node">
<title>Node25</title>
<g id="a_node25"><a xlink:title=" ">
<polygon fill="#e0e0e0" stroke="#999999" points="1117.5,-17 990.5,-17 990.5,0 1117.5,0 1117.5,-17"/>
<text text-anchor="middle" x="1054" y="-6.6" font-family="SourceSans" font-size="8.00">ext/codecvt_specializations.h</text>
</a>
</g>
</g>
<!-- Node14&#45;&gt;Node25 -->
<g id="edge26" class="edge">
<title>Node14&#45;&gt;Node25</title>
<path fill="none" stroke="#63b8ff" d="M1205.72,-54.75C1177.49,-46.33 1124.47,-30.52 1089.19,-20"/>
<polygon fill="#63b8ff" stroke="#63b8ff" points="1089.88,-16.55 1079.3,-17.05 1087.88,-23.26 1089.88,-16.55"/>
</g>
<!-- Node26 -->
<g id="node26" class="node">
<title>Node26</title>
<g id="a_node26"><a xlink:title=" ">
<polygon fill="#e0e0e0" stroke="#999999" points="1182.5,-17 1135.5,-17 1135.5,0 1182.5,0 1182.5,-17"/>
<text text-anchor="middle" x="1159" y="-6.6" font-family="SourceSans" font-size="8.00">sstream</text>
</a>
</g>
</g>
<!-- Node14&#45;&gt;Node26 -->
<g id="edge27" class="edge">
<title>Node14&#45;&gt;Node26</title>
<path fill="none" stroke="#63b8ff" d="M1215.26,-52.97C1205.22,-45.22 1189.33,-32.94 1177,-23.41"/>
<polygon fill="#63b8ff" stroke="#63b8ff" points="1178.83,-20.4 1168.78,-17.06 1174.55,-25.94 1178.83,-20.4"/>
</g>
<!-- Node27 -->
<g id="node27" class="node">
<title>Node27</title>
<g id="a_node27"><a xlink:title=" ">
<polygon fill="#e0e0e0" stroke="#999999" points="1249,-17 1201,-17 1201,0 1249,0 1249,-17"/>
<text text-anchor="middle" x="1225" y="-6.6" font-family="SourceSans" font-size="8.00">iomanip</text>
</a>
</g>
</g>
<!-- Node14&#45;&gt;Node27 -->
<g id="edge28" class="edge">
<title>Node14&#45;&gt;Node27</title>
<path fill="none" stroke="#63b8ff" d="M1225,-52.97C1225,-46.19 1225,-35.97 1225,-27.13"/>
<polygon fill="#63b8ff" stroke="#63b8ff" points="1228.5,-27.06 1225,-17.06 1221.5,-27.06 1228.5,-27.06"/>
</g>
<!-- Node44 -->
<g id="node44" class="node">
<title>Node44</title>
<g id="a_node44"><a xlink:title=" ">
<polygon fill="#e0e0e0" stroke="#999999" points="1712.5,-180.5 1605.5,-180.5 1605.5,-163.5 1712.5,-163.5 1712.5,-180.5"/>
<text text-anchor="middle" x="1659" y="-170.1" font-family="SourceSans" font-size="8.00">rapidjson/prettywriter.h</text>
</a>
</g>
</g>
<!-- Node43&#45;&gt;Node44 -->
<g id="edge46" class="edge">
<title>Node43&#45;&gt;Node44</title>
<path fill="none" stroke="#63b8ff" d="M1865.27,-220.9C1822.63,-211 1748.01,-193.67 1701.17,-182.79"/>
<polygon fill="#63b8ff" stroke="#63b8ff" points="1701.87,-179.36 1691.34,-180.51 1700.28,-186.18 1701.87,-179.36"/>
</g>
<!-- Node45 -->
<g id="node45" class="node">
<title>Node45</title>
<g id="a_node45"><a xlink:title=" ">
<polygon fill="#e0e0e0" stroke="#999999" points="1821,-180.5 1731,-180.5 1731,-163.5 1821,-163.5 1821,-180.5"/>
<text text-anchor="middle" x="1776" y="-170.1" font-family="SourceSans" font-size="8.00">rapidjson/pointer.h</text>
</a>
</g>
</g>
<!-- Node43&#45;&gt;Node45 -->
<g id="edge47" class="edge">
<title>Node43&#45;&gt;Node45</title>
<path fill="none" stroke="#63b8ff" d="M1881.29,-220.9C1860.76,-211.56 1825.7,-195.61 1801.72,-184.7"/>
<polygon fill="#63b8ff" stroke="#63b8ff" points="1803.06,-181.46 1792.51,-180.51 1800.16,-187.84 1803.06,-181.46"/>
</g>
<!-- Node46 -->
<g id="node46" class="node">
<title>Node46</title>
<g id="a_node46"><a xlink:title=" ">
<polygon fill="#e0e0e0" stroke="#999999" points="1957,-180.5 1839,-180.5 1839,-163.5 1957,-163.5 1957,-180.5"/>
<text text-anchor="middle" x="1898" y="-170.1" font-family="SourceSans" font-size="8.00">rapidjson/filereadstream.h</text>
</a>
</g>
</g>
<!-- Node43&#45;&gt;Node46 -->
<g id="edge48" class="edge">
<title>Node43&#45;&gt;Node46</title>
<path fill="none" stroke="#63b8ff" d="M1898,-220.78C1898,-213.08 1898,-200.96 1898,-190.86"/>
<polygon fill="#63b8ff" stroke="#63b8ff" points="1901.5,-190.65 1898,-180.65 1894.5,-190.65 1901.5,-190.65"/>
</g>
<!-- Node47 -->
<g id="node47" class="node">
<title>Node47</title>
<g id="a_node47"><a xlink:title=" ">
<polygon fill="#e0e0e0" stroke="#999999" points="2062.5,-180.5 1975.5,-180.5 1975.5,-163.5 2062.5,-163.5 2062.5,-180.5"/>
<text text-anchor="middle" x="2019" y="-170.1" font-family="SourceSans" font-size="8.00">rapidjson/reader.h</text>
</a>
</g>
</g>
<!-- Node43&#45;&gt;Node47 -->
<g id="edge49" class="edge">
<title>Node43&#45;&gt;Node47</title>
<path fill="none" stroke="#63b8ff" d="M1914.82,-220.78C1935.14,-211.46 1969.53,-195.69 1993.21,-184.83"/>
<polygon fill="#63b8ff" stroke="#63b8ff" points="1994.69,-188 2002.32,-180.65 1991.77,-181.64 1994.69,-188"/>
</g>
<!-- Node48 -->
<g id="node48" class="node">
<title>Node48</title>
<g id="a_node48"><a xlink:title=" ">
<polygon fill="#e0e0e0" stroke="#999999" points="2183,-180.5 2081,-180.5 2081,-163.5 2183,-163.5 2183,-180.5"/>
<text text-anchor="middle" x="2132" y="-170.1" font-family="SourceSans" font-size="8.00">rapidjson/document.h</text>
</a>
</g>
</g>
<!-- Node43&#45;&gt;Node48 -->
<g id="edge50" class="edge">
<title>Node43&#45;&gt;Node48</title>
<path fill="none" stroke="#63b8ff" d="M1930.05,-220.9C1971.71,-211.02 2044.54,-193.74 2090.42,-182.86"/>
<polygon fill="#63b8ff" stroke="#63b8ff" points="2091.42,-186.22 2100.34,-180.51 2089.8,-179.41 2091.42,-186.22"/>
</g>
<!-- Node49 -->
<g id="node49" class="node">
<title>Node49</title>
<g id="a_node49"><a xlink:title=" ">
<polygon fill="#e0e0e0" stroke="#999999" points="2295,-180.5 2201,-180.5 2201,-163.5 2295,-163.5 2295,-180.5"/>
<text text-anchor="middle" x="2248" y="-170.1" font-family="SourceSans" font-size="8.00">rapidjson/error/en.h</text>
</a>
</g>
</g>
<!-- Node43&#45;&gt;Node49 -->
<g id="edge51" class="edge">
<title>Node43&#45;&gt;Node49</title>
<path fill="none" stroke="#63b8ff" d="M1934.33,-223.89C1989.98,-216.65 2099.59,-201.72 2192,-185 2196.13,-184.25 2200.42,-183.43 2204.7,-182.57"/>
<polygon fill="#63b8ff" stroke="#63b8ff" points="2205.52,-185.97 2214.61,-180.52 2204.11,-179.12 2205.52,-185.97"/>
</g>
</g>
</svg>
