<?xml version="1.0" encoding="UTF-8" standalone="no"?>
<!DOCTYPE svg PUBLIC "-//W3C//DTD SVG 1.1//EN"
 "http://www.w3.org/Graphics/SVG/1.1/DTD/svg11.dtd">
<!-- Generated by graphviz version 5.0.0 (0)
 -->
<!-- Title: /home/bkoz/src/alpha60&#45;docs/src/a60&#45;telecom&#45;infrastructure.h Pages: 1 -->
<!--zoomable 441 -->
<svg id="main" version="1.1" xmlns="http://www.w3.org/2000/svg" xmlns:xlink="http://www.w3.org/1999/xlink" xml:space="preserve" onload="init(evt)">
<style type="text/css"><![CDATA[
.edge:hover path { stroke: red; }
.edge:hover polygon { stroke: red; fill: red; }
]]></style>
<script type="text/javascript"><![CDATA[
var edges = document.getElementsByTagName('g');
if (edges && edges.length) {
  for (var i=0;i<edges.length;i++) {
    if (edges[i].id.substr(0,4)=='edge') {
      edges[i].setAttribute('class','edge');
    }
  }
}
]]></script>
        <defs>
                <circle id="rim" cx="0" cy="0" r="7"/>
                <circle id="rim2" cx="0" cy="0" r="3.5"/>
                <g id="zoomPlus">
                        <use xlink:href="#rim" fill="#404040">
                                <set attributeName="fill" to="#808080" begin="zoomplus.mouseover" end="zoomplus.mouseout"/>
                        </use>
                        <path d="M-4,0h8M0,-4v8" fill="none" stroke="white" stroke-width="1.5" pointer-events="none"/>
                </g>
                <g id="zoomMin">
                        <use xlink:href="#rim" fill="#404040">
                                <set attributeName="fill" to="#808080" begin="zoomminus.mouseover" end="zoomminus.mouseout"/>
                        </use>
                        <path d="M-4,0h8" fill="none" stroke="white" stroke-width="1.5" pointer-events="none"/>
                </g>
                <g id="dirArrow">
                        <path fill="none" stroke="white" stroke-width="1.5" d="M0,-3.0v7 M-2.5,-0.5L0,-3.0L2.5,-0.5"/>
                </g>
               <g id="resetDef">
                       <use xlink:href="#rim2" fill="#404040">
                               <set attributeName="fill" to="#808080" begin="reset.mouseover" end="reset.mouseout"/>
                       </use>
               </g>
        </defs>

<script type="text/javascript">
var viewWidth = 2394;
var viewHeight = 441;
var sectionId = 'dynsection-0';
</script>
<script xlink:href="svgpan.js"/>
<svg id="graph" class="graph">
<g id="viewport">
<title>/home/bkoz/src/alpha60&#45;docs/src/a60&#45;telecom&#45;infrastructure.h</title>
<!-- Node1 -->
<g id="node1" class="node">
<title>Node1</title>
<g id="a_node1"><a xlink:title=" ">
<polygon fill="#999999" stroke="#666666" points="2197,-433 2087,-433 2087,-398 2197,-398 2197,-433"/>
<text text-anchor="start" x="2095" y="-422.6" font-family="SourceSans" font-size="8.00">/home/bkoz/src/alpha60</text>
<text text-anchor="start" x="2095" y="-413.6" font-family="SourceSans" font-size="8.00">&#45;docs/src/a60&#45;telecom</text>
<text text-anchor="middle" x="2142" y="-404.6" font-family="SourceSans" font-size="8.00">&#45;infrastructure.h</text>
</a>
</g>
</g>
<!-- Node2 -->
<g id="node2" class="node">
<title>Node2</title>
<g id="a_node2"><a xlink:href="a60-json_8h.html" target="_top" xlink:title=" ">
<polygon fill="white" stroke="#666666" points="2069,-357.5 2013,-357.5 2013,-340.5 2069,-340.5 2069,-357.5"/>
<text text-anchor="middle" x="2041" y="-347.1" font-family="SourceSans" font-size="8.00">a60&#45;json.h</text>
</a>
</g>
</g>
<!-- Node1&#45;&gt;Node2 -->
<g id="edge1" class="edge">
<title>Node1&#45;&gt;Node2</title>
<path fill="none" stroke="#63b8ff" d="M2115.99,-397.89C2098.99,-387.03 2077.1,-373.05 2061.36,-363"/>
<polygon fill="#63b8ff" stroke="#63b8ff" points="2063.2,-360.03 2052.89,-357.59 2059.44,-365.93 2063.2,-360.03"/>
</g>
<!-- Node51 -->
<g id="node51" class="node">
<title>Node51</title>
<g id="a_node51"><a xlink:href="a60-collection-json_8h.html" target="_top" xlink:title=" ">
<polygon fill="white" stroke="#666666" points="2189,-357.5 2095,-357.5 2095,-340.5 2189,-340.5 2189,-357.5"/>
<text text-anchor="middle" x="2142" y="-347.1" font-family="SourceSans" font-size="8.00">a60&#45;collection&#45;json.h</text>
</a>
</g>
</g>
<!-- Node1&#45;&gt;Node51 -->
<g id="edge53" class="edge">
<title>Node1&#45;&gt;Node51</title>
<path fill="none" stroke="#63b8ff" d="M2142,-397.89C2142,-388.65 2142,-377.16 2142,-367.75"/>
<polygon fill="#63b8ff" stroke="#63b8ff" points="2145.5,-367.59 2142,-357.59 2138.5,-367.59 2145.5,-367.59"/>
</g>
<!-- Node56 -->
<g id="node56" class="node">
<title>Node56</title>
<g id="a_node56"><a xlink:href="a60-carto-projection-cahill-keyes-functions_8h.html" target="_top" xlink:title=" ">
<polygon fill="white" stroke="#666666" points="2315,-362 2207,-362 2207,-336 2315,-336 2315,-362"/>
<text text-anchor="start" x="2215" y="-351.6" font-family="SourceSans" font-size="8.00">a60&#45;carto&#45;projection</text>
<text text-anchor="middle" x="2261" y="-342.6" font-family="SourceSans" font-size="8.00">&#45;cahill&#45;keyes&#45;functions.h</text>
</a>
</g>
</g>
<!-- Node1&#45;&gt;Node56 -->
<g id="edge61" class="edge">
<title>Node1&#45;&gt;Node56</title>
<path fill="none" stroke="#63b8ff" d="M2172.65,-397.89C2190.08,-388.44 2211.87,-376.63 2229.45,-367.1"/>
<polygon fill="#63b8ff" stroke="#63b8ff" points="2231.6,-369.92 2238.73,-362.07 2228.27,-363.76 2231.6,-369.92"/>
</g>
<!-- Node3 -->
<g id="node3" class="node">
<title>Node3</title>
<g id="a_node3"><a xlink:href="a60-swarm-functions_8h.html" target="_top" xlink:title=" ">
<polygon fill="white" stroke="#666666" points="2076.5,-300 1973.5,-300 1973.5,-283 2076.5,-283 2076.5,-300"/>
<text text-anchor="middle" x="2025" y="-289.6" font-family="SourceSans" font-size="8.00">a60&#45;swarm&#45;functions.h</text>
</a>
</g>
</g>
<!-- Node2&#45;&gt;Node3 -->
<g id="edge2" class="edge">
<title>Node2&#45;&gt;Node3</title>
<path fill="none" stroke="#63b8ff" d="M2038.78,-340.28C2036.53,-332.5 2032.99,-320.2 2030.06,-310.04"/>
<polygon fill="#63b8ff" stroke="#63b8ff" points="2033.34,-308.79 2027.21,-300.15 2026.61,-310.73 2033.34,-308.79"/>
</g>
<!-- Node4 -->
<g id="node4" class="node">
<title>Node4</title>
<g id="a_node4"><a xlink:href="a60-peer_8h.html" target="_top" xlink:title=" ">
<polygon fill="white" stroke="#666666" points="879,-242.5 823,-242.5 823,-225.5 879,-225.5 879,-242.5"/>
<text text-anchor="middle" x="851" y="-232.1" font-family="SourceSans" font-size="8.00">a60&#45;peer.h</text>
</a>
</g>
</g>
<!-- Node3&#45;&gt;Node4 -->
<g id="edge3" class="edge">
<title>Node3&#45;&gt;Node4</title>
<path fill="none" stroke="#63b8ff" d="M1973.42,-288.06C1774.89,-278.68 1062.57,-245 889.23,-236.81"/>
<polygon fill="#63b8ff" stroke="#63b8ff" points="889.21,-233.3 879.06,-236.33 888.88,-240.29 889.21,-233.3"/>
</g>
<!-- Node44 -->
<g id="node44" class="node">
<title>Node44</title>
<g id="a_node44"><a xlink:href="a60-json-fwd_8h.html" target="_top" xlink:title=" ">
<polygon fill="white" stroke="#666666" points="2045,-242.5 1973,-242.5 1973,-225.5 2045,-225.5 2045,-242.5"/>
<text text-anchor="middle" x="2009" y="-232.1" font-family="SourceSans" font-size="8.00">a60&#45;json&#45;fwd.h</text>
</a>
</g>
</g>
<!-- Node3&#45;&gt;Node44 -->
<g id="edge46" class="edge">
<title>Node3&#45;&gt;Node44</title>
<path fill="none" stroke="#63b8ff" d="M2022.78,-282.78C2020.53,-275 2016.99,-262.7 2014.06,-252.54"/>
<polygon fill="#63b8ff" stroke="#63b8ff" points="2017.34,-251.29 2011.21,-242.65 2010.61,-253.23 2017.34,-251.29"/>
</g>
<!-- Node5 -->
<g id="node5" class="node">
<title>Node5</title>
<g id="a_node5"><a xlink:href="a60-geo_8h.html" target="_top" xlink:title=" ">
<polygon fill="white" stroke="#666666" points="778,-180.5 724,-180.5 724,-163.5 778,-163.5 778,-180.5"/>
<text text-anchor="middle" x="751" y="-170.1" font-family="SourceSans" font-size="8.00">a60&#45;geo.h</text>
</a>
</g>
</g>
<!-- Node4&#45;&gt;Node5 -->
<g id="edge4" class="edge">
<title>Node4&#45;&gt;Node5</title>
<path fill="none" stroke="#63b8ff" d="M838.33,-225.4C821.73,-215.44 792.36,-197.82 772.3,-185.78"/>
<polygon fill="#63b8ff" stroke="#63b8ff" points="773.94,-182.68 763.56,-180.54 770.34,-188.68 773.94,-182.68"/>
</g>
<!-- Node31 -->
<g id="node31" class="node">
<title>Node31</title>
<g id="a_node31"><a xlink:href="a60-network-functions_8h.html" target="_top" xlink:title=" ">
<polygon fill="white" stroke="#666666" points="905.5,-180.5 796.5,-180.5 796.5,-163.5 905.5,-163.5 905.5,-180.5"/>
<text text-anchor="middle" x="851" y="-170.1" font-family="SourceSans" font-size="8.00">a60&#45;network&#45;functions.h</text>
</a>
</g>
</g>
<!-- Node4&#45;&gt;Node31 -->
<g id="edge33" class="edge">
<title>Node4&#45;&gt;Node31</title>
<path fill="none" stroke="#63b8ff" d="M851,-225.16C851,-216.48 851,-202.23 851,-190.82"/>
<polygon fill="#63b8ff" stroke="#63b8ff" points="854.5,-190.66 851,-180.66 847.5,-190.66 854.5,-190.66"/>
</g>
<!-- Node32 -->
<g id="node32" class="node">
<title>Node32</title>
<g id="a_node32"><a xlink:title=" ">
<polygon fill="#e0e0e0" stroke="#999999" points="1016.5,-180.5 923.5,-180.5 923.5,-163.5 1016.5,-163.5 1016.5,-180.5"/>
<text text-anchor="middle" x="970" y="-170.1" font-family="SourceSans" font-size="8.00">libtorrent/entry.hpp</text>
</a>
</g>
</g>
<!-- Node4&#45;&gt;Node32 -->
<g id="edge34" class="edge">
<title>Node4&#45;&gt;Node32</title>
<path fill="none" stroke="#63b8ff" d="M866.07,-225.4C886.19,-215.26 922.05,-197.18 945.93,-185.13"/>
<polygon fill="#63b8ff" stroke="#63b8ff" points="947.7,-188.16 955.05,-180.54 944.55,-181.91 947.7,-188.16"/>
</g>
<!-- Node33 -->
<g id="node33" class="node">
<title>Node33</title>
<g id="a_node33"><a xlink:title=" ">
<polygon fill="#e0e0e0" stroke="#999999" points="1141.5,-180.5 1034.5,-180.5 1034.5,-163.5 1141.5,-163.5 1141.5,-180.5"/>
<text text-anchor="middle" x="1088" y="-170.1" font-family="SourceSans" font-size="8.00">libtorrent/bencode.hpp</text>
</a>
</g>
</g>
<!-- Node4&#45;&gt;Node33 -->
<g id="edge35" class="edge">
<title>Node4&#45;&gt;Node33</title>
<path fill="none" stroke="#63b8ff" d="M879.12,-225.88C921.13,-215.25 1000.46,-195.16 1048.34,-183.04"/>
<polygon fill="#63b8ff" stroke="#63b8ff" points="1049.22,-186.43 1058.06,-180.58 1047.5,-179.64 1049.22,-186.43"/>
</g>
<!-- Node34 -->
<g id="node34" class="node">
<title>Node34</title>
<g id="a_node34"><a xlink:title=" ">
<polygon fill="#e0e0e0" stroke="#999999" points="1260,-180.5 1160,-180.5 1160,-163.5 1260,-163.5 1260,-180.5"/>
<text text-anchor="middle" x="1210" y="-170.1" font-family="SourceSans" font-size="8.00">libtorrent/torrent.hpp</text>
</a>
</g>
</g>
<!-- Node4&#45;&gt;Node34 -->
<g id="edge36" class="edge">
<title>Node4&#45;&gt;Node34</title>
<path fill="none" stroke="#63b8ff" d="M879.09,-228.86C932.14,-220.95 1050.66,-202.9 1150,-185 1154.41,-184.2 1159,-183.35 1163.59,-182.47"/>
<polygon fill="#63b8ff" stroke="#63b8ff" points="1164.41,-185.87 1173.55,-180.52 1163.07,-179 1164.41,-185.87"/>
</g>
<!-- Node35 -->
<g id="node35" class="node">
<title>Node35</title>
<g id="a_node35"><a xlink:title=" ">
<polygon fill="#e0e0e0" stroke="#999999" points="1360,-185 1278,-185 1278,-159 1360,-159 1360,-185"/>
<text text-anchor="start" x="1286" y="-174.6" font-family="SourceSans" font-size="8.00">libtorrent/torrent</text>
<text text-anchor="middle" x="1319" y="-165.6" font-family="SourceSans" font-size="8.00">_info.hpp</text>
</a>
</g>
</g>
<!-- Node4&#45;&gt;Node35 -->
<g id="edge37" class="edge">
<title>Node4&#45;&gt;Node35</title>
<path fill="none" stroke="#63b8ff" d="M879.05,-230.96C945.12,-225.91 1115.79,-211.39 1267.89,-185.04"/>
<polygon fill="#63b8ff" stroke="#63b8ff" points="1268.64,-188.46 1277.88,-183.29 1267.43,-181.57 1268.64,-188.46"/>
</g>
<!-- Node36 -->
<g id="node36" class="node">
<title>Node36</title>
<g id="a_node36"><a xlink:title=" ">
<polygon fill="#e0e0e0" stroke="#999999" points="1460,-185 1378,-185 1378,-159 1460,-159 1460,-185"/>
<text text-anchor="start" x="1386" y="-174.6" font-family="SourceSans" font-size="8.00">libtorrent/torrent</text>
<text text-anchor="middle" x="1419" y="-165.6" font-family="SourceSans" font-size="8.00">_status.hpp</text>
</a>
</g>
</g>
<!-- Node4&#45;&gt;Node36 -->
<g id="edge38" class="edge">
<title>Node4&#45;&gt;Node36</title>
<path fill="none" stroke="#63b8ff" d="M879.26,-231.8C956.2,-228.25 1175.98,-216.09 1367.91,-185"/>
<polygon fill="#63b8ff" stroke="#63b8ff" points="1368.59,-188.43 1377.89,-183.36 1367.46,-181.52 1368.59,-188.43"/>
</g>
<!-- Node37 -->
<g id="node37" class="node">
<title>Node37</title>
<g id="a_node37"><a xlink:title=" ">
<polygon fill="#e0e0e0" stroke="#999999" points="1588,-180.5 1478,-180.5 1478,-163.5 1588,-163.5 1588,-180.5"/>
<text text-anchor="middle" x="1533" y="-170.1" font-family="SourceSans" font-size="8.00">libtorrent/peer_info.hpp</text>
</a>
</g>
</g>
<!-- Node4&#45;&gt;Node37 -->
<g id="edge39" class="edge">
<title>Node4&#45;&gt;Node37</title>
<path fill="none" stroke="#63b8ff" d="M879.14,-231.9C966.78,-228.23 1242.56,-214.93 1469,-185 1474.74,-184.24 1480.75,-183.3 1486.69,-182.29"/>
<polygon fill="#63b8ff" stroke="#63b8ff" points="1487.33,-185.73 1496.56,-180.54 1486.1,-178.84 1487.33,-185.73"/>
</g>
<!-- Node38 -->
<g id="node38" class="node">
<title>Node38</title>
<g id="a_node38"><a xlink:title=" ">
<polygon fill="#e0e0e0" stroke="#999999" points="94,-185 0,-185 0,-159 94,-159 94,-185"/>
<text text-anchor="start" x="8" y="-174.6" font-family="SourceSans" font-size="8.00">libtorrent/announce</text>
<text text-anchor="middle" x="47" y="-165.6" font-family="SourceSans" font-size="8.00">_entry.hpp</text>
</a>
</g>
</g>
<!-- Node4&#45;&gt;Node38 -->
<g id="edge40" class="edge">
<title>Node4&#45;&gt;Node38</title>
<path fill="none" stroke="#63b8ff" d="M822.66,-232.68C724.47,-231.25 389.72,-223.77 104.4,-185.03"/>
<polygon fill="#63b8ff" stroke="#63b8ff" points="104.65,-181.53 94.27,-183.64 103.7,-188.47 104.65,-181.53"/>
</g>
<!-- Node39 -->
<g id="node39" class="node">
<title>Node39</title>
<g id="a_node39"><a xlink:title=" ">
<polygon fill="#e0e0e0" stroke="#999999" points="219.5,-180.5 112.5,-180.5 112.5,-163.5 219.5,-163.5 219.5,-180.5"/>
<text text-anchor="middle" x="166" y="-170.1" font-family="SourceSans" font-size="8.00">libtorrent/bdecode.hpp</text>
</a>
</g>
</g>
<!-- Node4&#45;&gt;Node39 -->
<g id="edge41" class="edge">
<title>Node4&#45;&gt;Node39</title>
<path fill="none" stroke="#63b8ff" d="M822.99,-231.95C735.11,-228.42 457.13,-215.43 229,-185 223.48,-184.26 217.72,-183.36 212.01,-182.38"/>
<polygon fill="#63b8ff" stroke="#63b8ff" points="212.33,-178.88 201.87,-180.55 211.09,-185.77 212.33,-178.88"/>
</g>
<!-- Node40 -->
<g id="node40" class="node">
<title>Node40</title>
<g id="a_node40"><a xlink:title=" ">
<polygon fill="#e0e0e0" stroke="#999999" points="356,-180.5 238,-180.5 238,-163.5 356,-163.5 356,-180.5"/>
<text text-anchor="middle" x="297" y="-170.1" font-family="SourceSans" font-size="8.00">libtorrent/magnet_uri.hpp</text>
</a>
</g>
</g>
<!-- Node4&#45;&gt;Node40 -->
<g id="edge42" class="edge">
<title>Node4&#45;&gt;Node40</title>
<path fill="none" stroke="#63b8ff" d="M822.97,-230.98C748.3,-225.45 538.45,-208.83 365,-185 359.14,-184.19 353.02,-183.25 346.94,-182.26"/>
<polygon fill="#63b8ff" stroke="#63b8ff" points="347.28,-178.77 336.83,-180.55 346.11,-185.67 347.28,-178.77"/>
</g>
<!-- Node41 -->
<g id="node41" class="node">
<title>Node41</title>
<g id="a_node41"><a xlink:title=" ">
<polygon fill="#e0e0e0" stroke="#999999" points="475.5,-180.5 374.5,-180.5 374.5,-163.5 475.5,-163.5 475.5,-180.5"/>
<text text-anchor="middle" x="425" y="-170.1" font-family="SourceSans" font-size="8.00">libtorrent/session.hpp</text>
</a>
</g>
</g>
<!-- Node4&#45;&gt;Node41 -->
<g id="edge43" class="edge">
<title>Node4&#45;&gt;Node41</title>
<path fill="none" stroke="#63b8ff" d="M822.81,-230C761.17,-223.29 609.81,-206 484,-185 479.47,-184.24 474.76,-183.39 470.06,-182.5"/>
<polygon fill="#63b8ff" stroke="#63b8ff" points="470.35,-179 459.87,-180.52 469.01,-185.87 470.35,-179"/>
</g>
<!-- Node42 -->
<g id="node42" class="node">
<title>Node42</title>
<g id="a_node42"><a xlink:title=" ">
<polygon fill="#e0e0e0" stroke="#999999" points="590.5,-185 493.5,-185 493.5,-159 590.5,-159 590.5,-185"/>
<text text-anchor="start" x="501.5" y="-174.6" font-family="SourceSans" font-size="8.00">libtorrent/extensions</text>
<text text-anchor="middle" x="542" y="-165.6" font-family="SourceSans" font-size="8.00">/ut_metadata.hpp</text>
</a>
</g>
</g>
<!-- Node4&#45;&gt;Node42 -->
<g id="edge44" class="edge">
<title>Node4&#45;&gt;Node42</title>
<path fill="none" stroke="#63b8ff" d="M823,-227.85C778.17,-219.56 687.3,-202.6 600.78,-185.34"/>
<polygon fill="#63b8ff" stroke="#63b8ff" points="601.3,-181.87 590.8,-183.34 599.92,-188.73 601.3,-181.87"/>
</g>
<!-- Node43 -->
<g id="node43" class="node">
<title>Node43</title>
<g id="a_node43"><a xlink:title=" ">
<polygon fill="#e0e0e0" stroke="#999999" points="705.5,-185 608.5,-185 608.5,-159 705.5,-159 705.5,-185"/>
<text text-anchor="start" x="616.5" y="-174.6" font-family="SourceSans" font-size="8.00">libtorrent/extensions</text>
<text text-anchor="middle" x="657" y="-165.6" font-family="SourceSans" font-size="8.00">/ut_pex.hpp</text>
</a>
</g>
</g>
<!-- Node4&#45;&gt;Node43 -->
<g id="edge45" class="edge">
<title>Node4&#45;&gt;Node43</title>
<path fill="none" stroke="#63b8ff" d="M826.43,-225.4C796.29,-216.08 744.48,-200.06 706.07,-188.18"/>
<polygon fill="#63b8ff" stroke="#63b8ff" points="706.7,-184.71 696.12,-185.1 704.64,-191.4 706.7,-184.71"/>
</g>
<!-- Node6 -->
<g id="node6" class="node">
<title>Node6</title>
<g id="a_node6"><a xlink:title=" ">
<polygon fill="#e0e0e0" stroke="#999999" points="1693.5,-17 1652.5,-17 1652.5,0 1693.5,0 1693.5,-17"/>
<text text-anchor="middle" x="1673" y="-6.6" font-family="SourceSans" font-size="8.00">cmath</text>
</a>
</g>
</g>
<!-- Node5&#45;&gt;Node6 -->
<g id="edge5" class="edge">
<title>Node5&#45;&gt;Node6</title>
<path fill="none" stroke="#63b8ff" d="M771.78,-163.46C776.72,-161.83 782.01,-160.24 787,-159 971.14,-113.34 1438.81,-58.01 1642.6,-16.89"/>
<polygon fill="#63b8ff" stroke="#63b8ff" points="1643.3,-20.32 1652.39,-14.88 1641.89,-13.46 1643.3,-20.32"/>
</g>
<!-- Node7 -->
<g id="node7" class="node">
<title>Node7</title>
<g id="a_node7"><a xlink:title=" ">
<polygon fill="#e0e0e0" stroke="#999999" points="613.5,-17 584.5,-17 584.5,0 613.5,0 613.5,-17"/>
<text text-anchor="middle" x="599" y="-6.6" font-family="SourceSans" font-size="8.00">set</text>
</a>
</g>
</g>
<!-- Node5&#45;&gt;Node7 -->
<g id="edge6" class="edge">
<title>Node5&#45;&gt;Node7</title>
<path fill="none" stroke="#63b8ff" d="M728.32,-163.48C691.32,-151.11 621.69,-127.42 618,-123 595.24,-95.71 594.93,-51.57 596.87,-27.15"/>
<polygon fill="#63b8ff" stroke="#63b8ff" points="600.35,-27.48 597.87,-17.18 593.39,-26.78 600.35,-27.48"/>
</g>
<!-- Node8 -->
<g id="node8" class="node">
<title>Node8</title>
<g id="a_node8"><a xlink:title=" ">
<polygon fill="#e0e0e0" stroke="#999999" points="683,-123 627,-123 627,-106 683,-106 683,-123"/>
<text text-anchor="middle" x="655" y="-112.6" font-family="SourceSans" font-size="8.00">functional</text>
</a>
</g>
</g>
<!-- Node5&#45;&gt;Node8 -->
<g id="edge7" class="edge">
<title>Node5&#45;&gt;Node8</title>
<path fill="none" stroke="#63b8ff" d="M737.65,-163.28C721.96,-154.21 695.69,-139.03 676.98,-128.21"/>
<polygon fill="#63b8ff" stroke="#63b8ff" points="678.64,-125.13 668.24,-123.15 675.14,-131.19 678.64,-125.13"/>
</g>
<!-- Node9 -->
<g id="node9" class="node">
<title>Node9</title>
<g id="a_node9"><a xlink:title=" ">
<polygon fill="#e0e0e0" stroke="#999999" points="682,-17 632,-17 632,0 682,0 682,-17"/>
<text text-anchor="middle" x="657" y="-6.6" font-family="SourceSans" font-size="8.00">iostream</text>
</a>
</g>
</g>
<!-- Node5&#45;&gt;Node9 -->
<g id="edge8" class="edge">
<title>Node5&#45;&gt;Node9</title>
<path fill="none" stroke="#63b8ff" d="M746.47,-163.21C731.98,-138.32 686.59,-60.35 666.61,-26.01"/>
<polygon fill="#63b8ff" stroke="#63b8ff" points="669.54,-24.09 661.49,-17.21 663.49,-27.61 669.54,-24.09"/>
</g>
<!-- Node10 -->
<g id="node10" class="node">
<title>Node10</title>
<g id="a_node10"><a xlink:href="a60-io_8h.html" target="_top" xlink:title=" ">
<polygon fill="white" stroke="#666666" points="813.5,-123 766.5,-123 766.5,-106 813.5,-106 813.5,-123"/>
<text text-anchor="middle" x="790" y="-112.6" font-family="SourceSans" font-size="8.00">a60&#45;io.h</text>
</a>
</g>
</g>
<!-- Node5&#45;&gt;Node10 -->
<g id="edge9" class="edge">
<title>Node5&#45;&gt;Node10</title>
<path fill="none" stroke="#63b8ff" d="M756.42,-163.28C762.19,-155.08 771.46,-141.88 778.8,-131.43"/>
<polygon fill="#63b8ff" stroke="#63b8ff" points="781.74,-133.35 784.62,-123.15 776.01,-129.32 781.74,-133.35"/>
</g>
<!-- Node29 -->
<g id="node29" class="node">
<title>Node29</title>
<g id="a_node29"><a xlink:title=" ">
<polygon fill="#e0e0e0" stroke="#999999" points="878,-123 832,-123 832,-106 878,-106 878,-123"/>
<text text-anchor="middle" x="855" y="-112.6" font-family="SourceSans" font-size="8.00">GeoIP.h</text>
</a>
</g>
</g>
<!-- Node5&#45;&gt;Node29 -->
<g id="edge31" class="edge">
<title>Node5&#45;&gt;Node29</title>
<path fill="none" stroke="#63b8ff" d="M765.46,-163.28C782.61,-154.13 811.44,-138.75 831.74,-127.91"/>
<polygon fill="#63b8ff" stroke="#63b8ff" points="833.49,-130.95 840.66,-123.15 830.19,-124.77 833.49,-130.95"/>
</g>
<!-- Node30 -->
<g id="node30" class="node">
<title>Node30</title>
<g id="a_node30"><a xlink:title=" ">
<polygon fill="#e0e0e0" stroke="#999999" points="957.5,-123 896.5,-123 896.5,-106 957.5,-106 957.5,-123"/>
<text text-anchor="middle" x="927" y="-112.6" font-family="SourceSans" font-size="8.00">GeoIPCity.h</text>
</a>
</g>
</g>
<!-- Node5&#45;&gt;Node30 -->
<g id="edge32" class="edge">
<title>Node5&#45;&gt;Node30</title>
<path fill="none" stroke="#63b8ff" d="M773.45,-163.44C777.93,-161.95 782.61,-160.41 787,-159 822.82,-147.47 863.96,-134.75 892.33,-126.06"/>
<polygon fill="#63b8ff" stroke="#63b8ff" points="893.63,-129.32 902.17,-123.05 891.58,-122.63 893.63,-129.32"/>
</g>
<!-- Node11 -->
<g id="node11" class="node">
<title>Node11</title>
<g id="a_node11"><a xlink:title=" ">
<polygon fill="#e0e0e0" stroke="#999999" points="841,-70 795,-70 795,-53 841,-53 841,-70"/>
<text text-anchor="middle" x="818" y="-59.6" font-family="SourceSans" font-size="8.00">fstream</text>
</a>
</g>
</g>
<!-- Node10&#45;&gt;Node11 -->
<g id="edge10" class="edge">
<title>Node10&#45;&gt;Node11</title>
<path fill="none" stroke="#63b8ff" d="M794.13,-105.97C798.02,-98.89 803.97,-88.05 808.96,-78.96"/>
<polygon fill="#63b8ff" stroke="#63b8ff" points="812.11,-80.51 813.85,-70.06 805.97,-77.14 812.11,-80.51"/>
</g>
<!-- Node12 -->
<g id="node12" class="node">
<title>Node12</title>
<g id="a_node12"><a xlink:title=" ">
<polygon fill="#e0e0e0" stroke="#999999" points="967,-70 859,-70 859,-53 967,-53 967,-70"/>
<text text-anchor="middle" x="913" y="-59.6" font-family="SourceSans" font-size="8.00">experimental/filesystem</text>
</a>
</g>
</g>
<!-- Node10&#45;&gt;Node12 -->
<g id="edge11" class="edge">
<title>Node10&#45;&gt;Node12</title>
<path fill="none" stroke="#63b8ff" d="M808.15,-105.97C828.5,-97.54 861.73,-83.76 885.32,-73.98"/>
<polygon fill="#63b8ff" stroke="#63b8ff" points="886.88,-77.12 894.78,-70.06 884.2,-70.65 886.88,-77.12"/>
</g>
<!-- Node13 -->
<g id="node13" class="node">
<title>Node13</title>
<g id="a_node13"><a xlink:title=" ">
<polygon fill="#e0e0e0" stroke="#999999" points="1038.5,-70 985.5,-70 985.5,-53 1038.5,-53 1038.5,-70"/>
<text text-anchor="middle" x="1012" y="-59.6" font-family="SourceSans" font-size="8.00">stdexcept</text>
</a>
</g>
</g>
<!-- Node10&#45;&gt;Node13 -->
<g id="edge12" class="edge">
<title>Node10&#45;&gt;Node13</title>
<path fill="none" stroke="#63b8ff" d="M813.76,-108.04C852.55,-99.13 929.73,-81.4 975.51,-70.88"/>
<polygon fill="#63b8ff" stroke="#63b8ff" points="976.36,-74.28 985.33,-68.63 974.8,-67.46 976.36,-74.28"/>
</g>
<!-- Node14 -->
<g id="node14" class="node">
<title>Node14</title>
<g id="a_node14"><a xlink:title=" ">
<polygon fill="#e0e0e0" stroke="#999999" points="777,-70 739,-70 739,-53 777,-53 777,-70"/>
<text text-anchor="middle" x="758" y="-59.6" font-family="SourceSans" font-size="8.00">regex</text>
</a>
</g>
</g>
<!-- Node10&#45;&gt;Node14 -->
<g id="edge13" class="edge">
<title>Node10&#45;&gt;Node14</title>
<path fill="none" stroke="#63b8ff" d="M785.28,-105.97C780.79,-98.82 773.89,-87.82 768.15,-78.67"/>
<polygon fill="#63b8ff" stroke="#63b8ff" points="771.02,-76.67 762.74,-70.06 765.09,-80.39 771.02,-76.67"/>
</g>
<!-- Node15 -->
<g id="node15" class="node">
<title>Node15</title>
<g id="a_node15"><a xlink:href="a60_8h.html" target="_top" xlink:title=" ">
<polygon fill="white" stroke="#666666" points="1150,-70 1112,-70 1112,-53 1150,-53 1150,-70"/>
<text text-anchor="middle" x="1131" y="-59.6" font-family="SourceSans" font-size="8.00">a60.h</text>
</a>
</g>
</g>
<!-- Node10&#45;&gt;Node15 -->
<g id="edge14" class="edge">
<title>Node10&#45;&gt;Node15</title>
<path fill="none" stroke="#63b8ff" d="M813.74,-107.86C816.85,-107.19 820,-106.55 823,-106 924.83,-87.27 1046.88,-72.2 1101.75,-65.81"/>
<polygon fill="#63b8ff" stroke="#63b8ff" points="1102.28,-69.27 1111.81,-64.65 1101.47,-62.32 1102.28,-69.27"/>
</g>
<!-- Node15&#45;&gt;Node6 -->
<g id="edge15" class="edge">
<title>Node15&#45;&gt;Node6</title>
<path fill="none" stroke="#63b8ff" d="M1150.2,-59.98C1216.89,-57.93 1444.74,-49 1642.45,-16.76"/>
<polygon fill="#63b8ff" stroke="#63b8ff" points="1643.14,-20.19 1652.43,-15.1 1642,-13.28 1643.14,-20.19"/>
</g>
<!-- Node15&#45;&gt;Node7 -->
<g id="edge19" class="edge">
<title>Node15&#45;&gt;Node7</title>
<path fill="none" stroke="#63b8ff" d="M1111.99,-58.78C1094.96,-57.24 1069.32,-54.94 1047,-53 861.81,-36.87 810.33,-52.86 623.46,-16.56"/>
<polygon fill="#63b8ff" stroke="#63b8ff" points="624.08,-13.11 613.59,-14.62 622.73,-19.98 624.08,-13.11"/>
</g>
<!-- Node15&#45;&gt;Node9 -->
<g id="edge30" class="edge">
<title>Node15&#45;&gt;Node9</title>
<path fill="none" stroke="#63b8ff" d="M1111.74,-58.73C1036.57,-51.81 763.99,-26.56 692.23,-16.87"/>
<polygon fill="#63b8ff" stroke="#63b8ff" points="692.59,-13.39 682.19,-15.4 691.58,-20.31 692.59,-13.39"/>
</g>
<!-- Node16 -->
<g id="node16" class="node">
<title>Node16</title>
<g id="a_node16"><a xlink:title=" ">
<polygon fill="#e0e0e0" stroke="#999999" points="1577.5,-17 1540.5,-17 1540.5,0 1577.5,0 1577.5,-17"/>
<text text-anchor="middle" x="1559" y="-6.6" font-family="SourceSans" font-size="8.00">tuple</text>
</a>
</g>
</g>
<!-- Node15&#45;&gt;Node16 -->
<g id="edge16" class="edge">
<title>Node15&#45;&gt;Node16</title>
<path fill="none" stroke="#63b8ff" d="M1150.3,-59.45C1207.09,-56.16 1378.54,-44.63 1530.44,-16.76"/>
<polygon fill="#63b8ff" stroke="#63b8ff" points="1531.23,-20.18 1540.42,-14.9 1529.94,-13.3 1531.23,-20.18"/>
</g>
<!-- Node17 -->
<g id="node17" class="node">
<title>Node17</title>
<g id="a_node17"><a xlink:title=" ">
<polygon fill="#e0e0e0" stroke="#999999" points="1634.5,-17 1595.5,-17 1595.5,0 1634.5,0 1634.5,-17"/>
<text text-anchor="middle" x="1615" y="-6.6" font-family="SourceSans" font-size="8.00">string</text>
</a>
</g>
</g>
<!-- Node15&#45;&gt;Node17 -->
<g id="edge17" class="edge">
<title>Node15&#45;&gt;Node17</title>
<path fill="none" stroke="#63b8ff" d="M1150.22,-59.75C1212,-57.1 1411.17,-46.82 1585.57,-16.73"/>
<polygon fill="#63b8ff" stroke="#63b8ff" points="1586.19,-20.18 1595.44,-15.01 1584.98,-13.28 1586.19,-20.18"/>
</g>
<!-- Node18 -->
<g id="node18" class="node">
<title>Node18</title>
<g id="a_node18"><a xlink:title=" ">
<polygon fill="#e0e0e0" stroke="#999999" points="739.5,-17 700.5,-17 700.5,0 739.5,0 739.5,-17"/>
<text text-anchor="middle" x="720" y="-6.6" font-family="SourceSans" font-size="8.00">vector</text>
</a>
</g>
</g>
<!-- Node15&#45;&gt;Node18 -->
<g id="edge18" class="edge">
<title>Node15&#45;&gt;Node18</title>
<path fill="none" stroke="#63b8ff" d="M1111.6,-58.65C1046.77,-52.43 837.31,-31.86 749.64,-16.77"/>
<polygon fill="#63b8ff" stroke="#63b8ff" points="750.03,-13.28 739.57,-14.96 748.79,-20.17 750.03,-13.28"/>
</g>
<!-- Node19 -->
<g id="node19" class="node">
<title>Node19</title>
<g id="a_node19"><a xlink:title=" ">
<polygon fill="#e0e0e0" stroke="#999999" points="836,-17 758,-17 758,0 836,0 836,-17"/>
<text text-anchor="middle" x="797" y="-6.6" font-family="SourceSans" font-size="8.00">unordered_map</text>
</a>
</g>
</g>
<!-- Node15&#45;&gt;Node19 -->
<g id="edge20" class="edge">
<title>Node15&#45;&gt;Node19</title>
<path fill="none" stroke="#63b8ff" d="M1111.92,-57.63C1067.36,-50.91 952.74,-33.59 846,-17.15"/>
<polygon fill="#63b8ff" stroke="#63b8ff" points="846.45,-13.68 836.03,-15.61 845.38,-20.59 846.45,-13.68"/>
</g>
<!-- Node20 -->
<g id="node20" class="node">
<title>Node20</title>
<g id="a_node20"><a xlink:title=" ">
<polygon fill="#e0e0e0" stroke="#999999" points="926,-17 854,-17 854,0 926,0 926,-17"/>
<text text-anchor="middle" x="890" y="-6.6" font-family="SourceSans" font-size="8.00">unordered_set</text>
</a>
</g>
</g>
<!-- Node15&#45;&gt;Node20 -->
<g id="edge21" class="edge">
<title>Node15&#45;&gt;Node20</title>
<path fill="none" stroke="#63b8ff" d="M1111.69,-56.41C1073.7,-48.37 988.37,-30.32 935.35,-19.1"/>
<polygon fill="#63b8ff" stroke="#63b8ff" points="936.03,-15.66 925.52,-17.02 934.58,-22.51 936.03,-15.66"/>
</g>
<!-- Node21 -->
<g id="node21" class="node">
<title>Node21</title>
<g id="a_node21"><a xlink:title=" ">
<polygon fill="#e0e0e0" stroke="#999999" points="987.5,-17 944.5,-17 944.5,0 987.5,0 987.5,-17"/>
<text text-anchor="middle" x="966" y="-6.6" font-family="SourceSans" font-size="8.00">chrono</text>
</a>
</g>
</g>
<!-- Node15&#45;&gt;Node21 -->
<g id="edge22" class="edge">
<title>Node15&#45;&gt;Node21</title>
<path fill="none" stroke="#63b8ff" d="M1111.75,-54.55C1083.71,-45.88 1031.3,-29.68 997.56,-19.26"/>
<polygon fill="#63b8ff" stroke="#63b8ff" points="998.33,-15.83 987.74,-16.22 996.26,-22.52 998.33,-15.83"/>
</g>
<!-- Node22 -->
<g id="node22" class="node">
<title>Node22</title>
<g id="a_node22"><a xlink:title=" ">
<polygon fill="#e0e0e0" stroke="#999999" points="1054,-17 1006,-17 1006,0 1054,0 1054,-17"/>
<text text-anchor="middle" x="1030" y="-6.6" font-family="SourceSans" font-size="8.00">numeric</text>
</a>
</g>
</g>
<!-- Node15&#45;&gt;Node22 -->
<g id="edge23" class="edge">
<title>Node15&#45;&gt;Node22</title>
<path fill="none" stroke="#63b8ff" d="M1116.1,-52.97C1099.76,-44.73 1073.31,-31.37 1054.04,-21.64"/>
<polygon fill="#63b8ff" stroke="#63b8ff" points="1055.47,-18.44 1044.96,-17.06 1052.31,-24.69 1055.47,-18.44"/>
</g>
<!-- Node23 -->
<g id="node23" class="node">
<title>Node23</title>
<g id="a_node23"><a xlink:title=" ">
<polygon fill="#e0e0e0" stroke="#999999" points="1126,-17 1072,-17 1072,0 1126,0 1126,-17"/>
<text text-anchor="middle" x="1099" y="-6.6" font-family="SourceSans" font-size="8.00">algorithm</text>
</a>
</g>
</g>
<!-- Node15&#45;&gt;Node23 -->
<g id="edge24" class="edge">
<title>Node15&#45;&gt;Node23</title>
<path fill="none" stroke="#63b8ff" d="M1126.28,-52.97C1121.79,-45.82 1114.89,-34.82 1109.15,-25.67"/>
<polygon fill="#63b8ff" stroke="#63b8ff" points="1112.02,-23.67 1103.74,-17.06 1106.09,-27.39 1112.02,-23.67"/>
</g>
<!-- Node24 -->
<g id="node24" class="node">
<title>Node24</title>
<g id="a_node24"><a xlink:title=" ">
<polygon fill="#e0e0e0" stroke="#999999" points="1182,-17 1144,-17 1144,0 1182,0 1182,-17"/>
<text text-anchor="middle" x="1163" y="-6.6" font-family="SourceSans" font-size="8.00">locale</text>
</a>
</g>
</g>
<!-- Node15&#45;&gt;Node24 -->
<g id="edge25" class="edge">
<title>Node15&#45;&gt;Node24</title>
<path fill="none" stroke="#63b8ff" d="M1135.72,-52.97C1140.21,-45.82 1147.11,-34.82 1152.85,-25.67"/>
<polygon fill="#63b8ff" stroke="#63b8ff" points="1155.91,-27.39 1158.26,-17.06 1149.98,-23.67 1155.91,-27.39"/>
</g>
<!-- Node25 -->
<g id="node25" class="node">
<title>Node25</title>
<g id="a_node25"><a xlink:title=" ">
<polygon fill="#e0e0e0" stroke="#999999" points="1245.5,-17 1200.5,-17 1200.5,0 1245.5,0 1245.5,-17"/>
<text text-anchor="middle" x="1223" y="-6.6" font-family="SourceSans" font-size="8.00">codecvt</text>
</a>
</g>
</g>
<!-- Node15&#45;&gt;Node25 -->
<g id="edge26" class="edge">
<title>Node15&#45;&gt;Node25</title>
<path fill="none" stroke="#63b8ff" d="M1144.57,-52.97C1159.25,-44.84 1182.89,-31.74 1200.38,-22.04"/>
<polygon fill="#63b8ff" stroke="#63b8ff" points="1202.32,-24.97 1209.37,-17.06 1198.93,-18.84 1202.32,-24.97"/>
</g>
<!-- Node26 -->
<g id="node26" class="node">
<title>Node26</title>
<g id="a_node26"><a xlink:title=" ">
<polygon fill="#e0e0e0" stroke="#999999" points="1390.5,-17 1263.5,-17 1263.5,0 1390.5,0 1390.5,-17"/>
<text text-anchor="middle" x="1327" y="-6.6" font-family="SourceSans" font-size="8.00">ext/codecvt_specializations.h</text>
</a>
</g>
</g>
<!-- Node15&#45;&gt;Node26 -->
<g id="edge27" class="edge">
<title>Node15&#45;&gt;Node26</title>
<path fill="none" stroke="#63b8ff" d="M1150.15,-55.52C1182.01,-47.23 1246.5,-30.45 1288.17,-19.6"/>
<polygon fill="#63b8ff" stroke="#63b8ff" points="1289.19,-22.96 1297.99,-17.05 1287.43,-16.18 1289.19,-22.96"/>
</g>
<!-- Node27 -->
<g id="node27" class="node">
<title>Node27</title>
<g id="a_node27"><a xlink:title=" ">
<polygon fill="#e0e0e0" stroke="#999999" points="1455.5,-17 1408.5,-17 1408.5,0 1455.5,0 1455.5,-17"/>
<text text-anchor="middle" x="1432" y="-6.6" font-family="SourceSans" font-size="8.00">sstream</text>
</a>
</g>
</g>
<!-- Node15&#45;&gt;Node27 -->
<g id="edge28" class="edge">
<title>Node15&#45;&gt;Node27</title>
<path fill="none" stroke="#63b8ff" d="M1150.25,-57.8C1192.96,-51.71 1299.09,-36.1 1398.35,-17"/>
<polygon fill="#63b8ff" stroke="#63b8ff" points="1399.09,-20.43 1408.24,-15.09 1397.76,-13.55 1399.09,-20.43"/>
</g>
<!-- Node28 -->
<g id="node28" class="node">
<title>Node28</title>
<g id="a_node28"><a xlink:title=" ">
<polygon fill="#e0e0e0" stroke="#999999" points="1522,-17 1474,-17 1474,0 1522,0 1522,-17"/>
<text text-anchor="middle" x="1498" y="-6.6" font-family="SourceSans" font-size="8.00">iomanip</text>
</a>
</g>
</g>
<!-- Node15&#45;&gt;Node28 -->
<g id="edge29" class="edge">
<title>Node15&#45;&gt;Node28</title>
<path fill="none" stroke="#63b8ff" d="M1150.23,-58.58C1201.47,-53.34 1345.41,-37.78 1464,-17 1464.1,-16.98 1464.2,-16.96 1464.3,-16.95"/>
<polygon fill="#63b8ff" stroke="#63b8ff" points="1464.75,-20.42 1473.91,-15.09 1463.42,-13.55 1464.75,-20.42"/>
</g>
<!-- Node45 -->
<g id="node45" class="node">
<title>Node45</title>
<g id="a_node45"><a xlink:title=" ">
<polygon fill="#e0e0e0" stroke="#999999" points="1945.5,-180.5 1838.5,-180.5 1838.5,-163.5 1945.5,-163.5 1945.5,-180.5"/>
<text text-anchor="middle" x="1892" y="-170.1" font-family="SourceSans" font-size="8.00">rapidjson/prettywriter.h</text>
</a>
</g>
</g>
<!-- Node44&#45;&gt;Node45 -->
<g id="edge47" class="edge">
<title>Node44&#45;&gt;Node45</title>
<path fill="none" stroke="#63b8ff" d="M1994.18,-225.4C1974.4,-215.26 1939.14,-197.18 1915.66,-185.13"/>
<polygon fill="#63b8ff" stroke="#63b8ff" points="1917.19,-181.99 1906.7,-180.54 1914,-188.21 1917.19,-181.99"/>
</g>
<!-- Node46 -->
<g id="node46" class="node">
<title>Node46</title>
<g id="a_node46"><a xlink:title=" ">
<polygon fill="#e0e0e0" stroke="#999999" points="2054,-180.5 1964,-180.5 1964,-163.5 2054,-163.5 2054,-180.5"/>
<text text-anchor="middle" x="2009" y="-170.1" font-family="SourceSans" font-size="8.00">rapidjson/pointer.h</text>
</a>
</g>
</g>
<!-- Node44&#45;&gt;Node46 -->
<g id="edge48" class="edge">
<title>Node44&#45;&gt;Node46</title>
<path fill="none" stroke="#63b8ff" d="M2009,-225.16C2009,-216.48 2009,-202.23 2009,-190.82"/>
<polygon fill="#63b8ff" stroke="#63b8ff" points="2012.5,-190.66 2009,-180.66 2005.5,-190.66 2012.5,-190.66"/>
</g>
<!-- Node47 -->
<g id="node47" class="node">
<title>Node47</title>
<g id="a_node47"><a xlink:title=" ">
<polygon fill="#e0e0e0" stroke="#999999" points="2190,-180.5 2072,-180.5 2072,-163.5 2190,-163.5 2190,-180.5"/>
<text text-anchor="middle" x="2131" y="-170.1" font-family="SourceSans" font-size="8.00">rapidjson/filereadstream.h</text>
</a>
</g>
</g>
<!-- Node44&#45;&gt;Node47 -->
<g id="edge49" class="edge">
<title>Node44&#45;&gt;Node47</title>
<path fill="none" stroke="#63b8ff" d="M2024.45,-225.4C2045.17,-215.21 2082.17,-197.01 2106.65,-184.97"/>
<polygon fill="#63b8ff" stroke="#63b8ff" points="2108.25,-188.09 2115.67,-180.54 2105.16,-181.81 2108.25,-188.09"/>
</g>
<!-- Node48 -->
<g id="node48" class="node">
<title>Node48</title>
<g id="a_node48"><a xlink:title=" ">
<polygon fill="#e0e0e0" stroke="#999999" points="2295.5,-180.5 2208.5,-180.5 2208.5,-163.5 2295.5,-163.5 2295.5,-180.5"/>
<text text-anchor="middle" x="2252" y="-170.1" font-family="SourceSans" font-size="8.00">rapidjson/reader.h</text>
</a>
</g>
</g>
<!-- Node44&#45;&gt;Node48 -->
<g id="edge50" class="edge">
<title>Node44&#45;&gt;Node48</title>
<path fill="none" stroke="#63b8ff" d="M2039.78,-225.4C2083.41,-214.63 2163.33,-194.89 2211.66,-182.96"/>
<polygon fill="#63b8ff" stroke="#63b8ff" points="2212.6,-186.33 2221.47,-180.54 2210.93,-179.54 2212.6,-186.33"/>
</g>
<!-- Node49 -->
<g id="node49" class="node">
<title>Node49</title>
<g id="a_node49"><a xlink:title=" ">
<polygon fill="#e0e0e0" stroke="#999999" points="1708,-180.5 1606,-180.5 1606,-163.5 1708,-163.5 1708,-180.5"/>
<text text-anchor="middle" x="1657" y="-170.1" font-family="SourceSans" font-size="8.00">rapidjson/document.h</text>
</a>
</g>
</g>
<!-- Node44&#45;&gt;Node49 -->
<g id="edge51" class="edge">
<title>Node44&#45;&gt;Node49</title>
<path fill="none" stroke="#63b8ff" d="M1972.97,-227.49C1917.77,-218.95 1808.99,-201.75 1717,-185 1712.65,-184.21 1708.13,-183.36 1703.61,-182.48"/>
<polygon fill="#63b8ff" stroke="#63b8ff" points="1704.26,-179.05 1693.77,-180.56 1702.91,-185.92 1704.26,-179.05"/>
</g>
<!-- Node50 -->
<g id="node50" class="node">
<title>Node50</title>
<g id="a_node50"><a xlink:title=" ">
<polygon fill="#e0e0e0" stroke="#999999" points="1820,-180.5 1726,-180.5 1726,-163.5 1820,-163.5 1820,-180.5"/>
<text text-anchor="middle" x="1773" y="-170.1" font-family="SourceSans" font-size="8.00">rapidjson/error/en.h</text>
</a>
</g>
</g>
<!-- Node44&#45;&gt;Node50 -->
<g id="edge52" class="edge">
<title>Node44&#45;&gt;Node50</title>
<path fill="none" stroke="#63b8ff" d="M1979.11,-225.4C1936.82,-214.65 1859.44,-194.98 1812.47,-183.03"/>
<polygon fill="#63b8ff" stroke="#63b8ff" points="1813.2,-179.61 1802.65,-180.54 1811.48,-186.39 1813.2,-179.61"/>
</g>
<!-- Node51&#45;&gt;Node3 -->
<g id="edge60" class="edge">
<title>Node51&#45;&gt;Node3</title>
<path fill="none" stroke="#63b8ff" d="M2125.73,-340.28C2106.17,-331 2073.13,-315.33 2050.25,-304.48"/>
<polygon fill="#63b8ff" stroke="#63b8ff" points="2051.67,-301.28 2041.13,-300.15 2048.67,-307.6 2051.67,-301.28"/>
</g>
<!-- Node52 -->
<g id="node52" class="node">
<title>Node52</title>
<g id="a_node52"><a xlink:href="a60-collection-base_8h.html" target="_top" xlink:title=" ">
<polygon fill="white" stroke="#666666" points="2364,-242.5 2268,-242.5 2268,-225.5 2364,-225.5 2364,-242.5"/>
<text text-anchor="middle" x="2316" y="-232.1" font-family="SourceSans" font-size="8.00">a60&#45;collection&#45;base.h</text>
</a>
</g>
</g>
<!-- Node51&#45;&gt;Node52 -->
<g id="edge54" class="edge">
<title>Node51&#45;&gt;Node52</title>
<path fill="none" stroke="#63b8ff" d="M2155.37,-340.49C2171.59,-331.28 2199.64,-315.05 2223,-300 2249.32,-283.03 2278.82,-262.07 2297.4,-248.62"/>
<polygon fill="#63b8ff" stroke="#63b8ff" points="2299.55,-251.38 2305.58,-242.67 2295.43,-245.72 2299.55,-251.38"/>
</g>
<!-- Node54 -->
<g id="node54" class="node">
<title>Node54</title>
<g id="a_node54"><a xlink:href="a60-collection-duration_8h.html" target="_top" xlink:title=" ">
<polygon fill="white" stroke="#666666" points="2213.5,-300 2102.5,-300 2102.5,-283 2213.5,-283 2213.5,-300"/>
<text text-anchor="middle" x="2158" y="-289.6" font-family="SourceSans" font-size="8.00">a60&#45;collection&#45;duration.h</text>
</a>
</g>
</g>
<!-- Node51&#45;&gt;Node54 -->
<g id="edge57" class="edge">
<title>Node51&#45;&gt;Node54</title>
<path fill="none" stroke="#63b8ff" d="M2144.22,-340.28C2146.47,-332.5 2150.01,-320.2 2152.94,-310.04"/>
<polygon fill="#63b8ff" stroke="#63b8ff" points="2156.39,-310.73 2155.79,-300.15 2149.66,-308.79 2156.39,-310.73"/>
</g>
<!-- Node52&#45;&gt;Node15 -->
<g id="edge56" class="edge">
<title>Node52&#45;&gt;Node15</title>
<path fill="none" stroke="#63b8ff" d="M2317.61,-225.11C2320.23,-209.84 2323.39,-176.22 2305,-159 2218.87,-78.34 1333.8,-64.68 1160.38,-62.78"/>
<polygon fill="#63b8ff" stroke="#63b8ff" points="1160.26,-59.27 1150.22,-62.67 1160.19,-66.27 1160.26,-59.27"/>
</g>
<!-- Node53 -->
<g id="node53" class="node">
<title>Node53</title>
<g id="a_node53"><a xlink:title=" ">
<polygon fill="#e0e0e0" stroke="#999999" points="2386,-180.5 2352,-180.5 2352,-163.5 2386,-163.5 2386,-180.5"/>
<text text-anchor="middle" x="2369" y="-170.1" font-family="SourceSans" font-size="8.00">map</text>
</a>
</g>
</g>
<!-- Node52&#45;&gt;Node53 -->
<g id="edge55" class="edge">
<title>Node52&#45;&gt;Node53</title>
<path fill="none" stroke="#63b8ff" d="M2322.93,-225.16C2331.15,-215.85 2345.04,-200.12 2355.43,-188.37"/>
<polygon fill="#63b8ff" stroke="#63b8ff" points="2358.24,-190.47 2362.24,-180.66 2352.99,-185.83 2358.24,-190.47"/>
</g>
<!-- Node54&#45;&gt;Node52 -->
<g id="edge58" class="edge">
<title>Node54&#45;&gt;Node52</title>
<path fill="none" stroke="#63b8ff" d="M2179.64,-282.9C2206.94,-273.31 2254.07,-256.75 2285.15,-245.84"/>
<polygon fill="#63b8ff" stroke="#63b8ff" points="2286.35,-249.13 2294.62,-242.51 2284.03,-242.52 2286.35,-249.13"/>
</g>
<!-- Node55 -->
<g id="node55" class="node">
<title>Node55</title>
<g id="a_node55"><a xlink:title=" ">
<polygon fill="#e0e0e0" stroke="#999999" points="2217.5,-247 2098.5,-247 2098.5,-221 2217.5,-221 2217.5,-247"/>
<text text-anchor="start" x="2106.5" y="-236.6" font-family="SourceSans" font-size="8.00">boost/date_time/gregorian</text>
<text text-anchor="middle" x="2158" y="-227.6" font-family="SourceSans" font-size="8.00">/gregorian.hpp</text>
</a>
</g>
</g>
<!-- Node54&#45;&gt;Node55 -->
<g id="edge59" class="edge">
<title>Node54&#45;&gt;Node55</title>
<path fill="none" stroke="#63b8ff" d="M2158,-282.78C2158,-276.26 2158,-266.58 2158,-257.63"/>
<polygon fill="#63b8ff" stroke="#63b8ff" points="2161.5,-257.34 2158,-247.34 2154.5,-257.34 2161.5,-257.34"/>
</g>
</g>
</svg>
        <g id="navigator" transform="translate(0 0)" fill="#404254">
                <rect fill="#f2f5e9" fill-opacity="0.5" stroke="#606060" stroke-width=".5" x="0" y="0" width="60" height="60"/>
                <use id="zoomplus" xlink:href="#zoomPlus" x="17" y="9" onmousedown="handleZoom(evt,'in')"/>
                <use id="zoomminus" xlink:href="#zoomMin" x="42" y="9" onmousedown="handleZoom(evt,'out')"/>
                <use id="reset" xlink:href="#resetDef" x="30" y="36" onmousedown="handleReset()"/>
                <g id="arrowUp" xlink:href="#dirArrow" transform="translate(30 24)" onmousedown="handlePan(0,-1)">
                  <use xlink:href="#rim" fill="#404040">
                        <set attributeName="fill" to="#808080" begin="arrowUp.mouseover" end="arrowUp.mouseout"/>
                  </use>
                  <path fill="none" stroke="white" stroke-width="1.5" d="M0,-3.0v7 M-2.5,-0.5L0,-3.0L2.5,-0.5"/>
                </g>
                <g id="arrowRight" xlink:href="#dirArrow" transform="rotate(90) translate(36 -43)" onmousedown="handlePan(1,0)">
                  <use xlink:href="#rim" fill="#404040">
                        <set attributeName="fill" to="#808080" begin="arrowRight.mouseover" end="arrowRight.mouseout"/>
                  </use>
                  <path fill="none" stroke="white" stroke-width="1.5" d="M0,-3.0v7 M-2.5,-0.5L0,-3.0L2.5,-0.5"/>
                </g>
                <g id="arrowDown" xlink:href="#dirArrow" transform="rotate(180) translate(-30 -48)" onmousedown="handlePan(0,1)">
                  <use xlink:href="#rim" fill="#404040">
                        <set attributeName="fill" to="#808080" begin="arrowDown.mouseover" end="arrowDown.mouseout"/>
                  </use>
                  <path fill="none" stroke="white" stroke-width="1.5" d="M0,-3.0v7 M-2.5,-0.5L0,-3.0L2.5,-0.5"/>
                </g>
                <g id="arrowLeft" xlink:href="#dirArrow" transform="rotate(270) translate(-36 17)" onmousedown="handlePan(-1,0)">
                  <use xlink:href="#rim" fill="#404040">
                        <set attributeName="fill" to="#808080" begin="arrowLeft.mouseover" end="arrowLeft.mouseout"/>
                  </use>
                  <path fill="none" stroke="white" stroke-width="1.5" d="M0,-3.0v7 M-2.5,-0.5L0,-3.0L2.5,-0.5"/>
                </g>
        </g>
        <svg viewBox="0 0 15 15" width="100%" height="30px" preserveAspectRatio="xMaxYMin meet">
         <g id="arrow_out" transform="scale(0.3 0.3)">
          <a xlink:href="a60-telecom-infrastructure_8h__incl_org.svg" target="_base">
           <rect id="button" ry="5" rx="5" y="6" x="6" height="38" width="38"
                fill="#f2f5e9" fill-opacity="0.5" stroke="#606060" stroke-width="1.0"/>
           <path id="arrow"
             d="M 11.500037,31.436501 C 11.940474,20.09759 22.043105,11.32322 32.158766,21.979434 L 37.068811,17.246167 C 37.068811,17.246167 37.088388,32 37.088388,32 L 22.160133,31.978069 C 22.160133,31.978069 26.997745,27.140456 26.997745,27.140456 C 18.528582,18.264221 13.291696,25.230495 11.500037,31.436501 z"
             style="fill:#404040;"/>
          </a>
         </g>
        </svg>
</svg>
