<?xml version="1.0" encoding="UTF-8" standalone="no"?>
<!DOCTYPE svg PUBLIC "-//W3C//DTD SVG 1.1//EN"
 "http://www.w3.org/Graphics/SVG/1.1/DTD/svg11.dtd">
<!-- Generated by graphviz version 5.0.0 (0)
 -->
<!-- Title: /home/bkoz/src/alpha60&#45;docs/src/a60&#45;thread&#45;pool.h Pages: 1 -->
<svg width="361pt" height="87pt"
 viewBox="0.00 0.00 361.00 87.00" xmlns="http://www.w3.org/2000/svg" xmlns:xlink="http://www.w3.org/1999/xlink">
<g id="graph0" class="graph" transform="scale(1 1) rotate(0) translate(4 83)">
<title>/home/bkoz/src/alpha60&#45;docs/src/a60&#45;thread&#45;pool.h</title>
<!-- Node1 -->
<g id="node1" class="node">
<title>Node1</title>
<g id="a_node1"><a xlink:title=" ">
<polygon fill="#999999" stroke="#666666" points="236,-79 116,-79 116,-53 236,-53 236,-79"/>
<text text-anchor="start" x="124" y="-68.6" font-family="SourceSans" font-size="8.00">/home/bkoz/src/alpha60</text>
<text text-anchor="middle" x="176" y="-59.6" font-family="SourceSans" font-size="8.00">&#45;docs/src/a60&#45;thread&#45;pool.h</text>
</a>
</g>
</g>
<!-- Node2 -->
<g id="node2" class="node">
<title>Node2</title>
<g id="a_node2"><a xlink:title=" ">
<polygon fill="#e0e0e0" stroke="#999999" points="56,-17 0,-17 0,0 56,0 56,-17"/>
<text text-anchor="middle" x="28" y="-6.6" font-family="SourceSans" font-size="8.00">functional</text>
</a>
</g>
</g>
<!-- Node1&#45;&gt;Node2 -->
<g id="edge1" class="edge">
<title>Node1&#45;&gt;Node2</title>
<path fill="none" stroke="#63b8ff" d="M143.89,-52.96C118.33,-43.37 82.84,-30.07 57.89,-20.71"/>
<polygon fill="#63b8ff" stroke="#63b8ff" points="58.82,-17.32 48.23,-17.09 56.36,-23.87 58.82,-17.32"/>
</g>
<!-- Node3 -->
<g id="node3" class="node">
<title>Node3</title>
<g id="a_node3"><a xlink:title=" ">
<polygon fill="#e0e0e0" stroke="#999999" points="115.5,-17 74.5,-17 74.5,0 115.5,0 115.5,-17"/>
<text text-anchor="middle" x="95" y="-6.6" font-family="SourceSans" font-size="8.00">future</text>
</a>
</g>
</g>
<!-- Node1&#45;&gt;Node3 -->
<g id="edge2" class="edge">
<title>Node1&#45;&gt;Node3</title>
<path fill="none" stroke="#63b8ff" d="M158.42,-52.96C145.57,-44.15 128.12,-32.2 114.78,-23.05"/>
<polygon fill="#63b8ff" stroke="#63b8ff" points="116.54,-20.01 106.31,-17.25 112.58,-25.79 116.54,-20.01"/>
</g>
<!-- Node4 -->
<g id="node4" class="node">
<title>Node4</title>
<g id="a_node4"><a xlink:title=" ">
<polygon fill="#e0e0e0" stroke="#999999" points="162.5,-17 133.5,-17 133.5,0 162.5,0 162.5,-17"/>
<text text-anchor="middle" x="148" y="-6.6" font-family="SourceSans" font-size="8.00">list</text>
</a>
</g>
</g>
<!-- Node1&#45;&gt;Node4 -->
<g id="edge3" class="edge">
<title>Node1&#45;&gt;Node4</title>
<path fill="none" stroke="#63b8ff" d="M169.92,-52.96C165.99,-45.17 160.82,-34.91 156.49,-26.32"/>
<polygon fill="#63b8ff" stroke="#63b8ff" points="159.54,-24.6 151.91,-17.25 153.29,-27.75 159.54,-24.6"/>
</g>
<!-- Node5 -->
<g id="node5" class="node">
<title>Node5</title>
<g id="a_node5"><a xlink:title=" ">
<polygon fill="#e0e0e0" stroke="#999999" points="227.5,-17 180.5,-17 180.5,0 227.5,0 227.5,-17"/>
<text text-anchor="middle" x="204" y="-6.6" font-family="SourceSans" font-size="8.00">memory</text>
</a>
</g>
</g>
<!-- Node1&#45;&gt;Node5 -->
<g id="edge4" class="edge">
<title>Node1&#45;&gt;Node5</title>
<path fill="none" stroke="#63b8ff" d="M182.08,-52.96C186.01,-45.17 191.18,-34.91 195.51,-26.32"/>
<polygon fill="#63b8ff" stroke="#63b8ff" points="198.71,-27.75 200.09,-17.25 192.46,-24.6 198.71,-27.75"/>
</g>
<!-- Node6 -->
<g id="node6" class="node">
<title>Node6</title>
<g id="a_node6"><a xlink:title=" ">
<polygon fill="#e0e0e0" stroke="#999999" points="286.5,-17 245.5,-17 245.5,0 286.5,0 286.5,-17"/>
<text text-anchor="middle" x="266" y="-6.6" font-family="SourceSans" font-size="8.00">queue</text>
</a>
</g>
</g>
<!-- Node1&#45;&gt;Node6 -->
<g id="edge5" class="edge">
<title>Node1&#45;&gt;Node6</title>
<path fill="none" stroke="#63b8ff" d="M195.53,-52.96C210.17,-43.93 230.18,-31.59 245.13,-22.37"/>
<polygon fill="#63b8ff" stroke="#63b8ff" points="247.02,-25.31 253.7,-17.09 243.35,-19.36 247.02,-25.31"/>
</g>
<!-- Node7 -->
<g id="node7" class="node">
<title>Node7</title>
<g id="a_node7"><a xlink:title=" ">
<polygon fill="#e0e0e0" stroke="#999999" points="353,-17 305,-17 305,0 353,0 353,-17"/>
<text text-anchor="middle" x="329" y="-6.6" font-family="SourceSans" font-size="8.00">optional</text>
</a>
</g>
</g>
<!-- Node1&#45;&gt;Node7 -->
<g id="edge6" class="edge">
<title>Node1&#45;&gt;Node7</title>
<path fill="none" stroke="#63b8ff" d="M209.2,-52.96C235.73,-43.33 272.63,-29.95 298.45,-20.58"/>
<polygon fill="#63b8ff" stroke="#63b8ff" points="299.88,-23.79 308.09,-17.09 297.5,-17.21 299.88,-23.79"/>
</g>
</g>
</svg>
