<?xml version="1.0" encoding="UTF-8" standalone="no"?>
<!DOCTYPE svg PUBLIC "-//W3C//DTD SVG 1.1//EN"
 "http://www.w3.org/Graphics/SVG/1.1/DTD/svg11.dtd">
<!-- Generated by graphviz version 5.0.0 (0)
 -->
<!-- Title: /home/bkoz/src/alpha60&#45;docs/src/a60&#45;telecom&#45;infrastructure.h Pages: 1 -->
<svg width="2470pt" height="441pt"
 viewBox="0.00 0.00 2469.50 441.00" xmlns="http://www.w3.org/2000/svg" xmlns:xlink="http://www.w3.org/1999/xlink">
<g id="graph0" class="graph" transform="scale(1 1) rotate(0) translate(4 437)">
<title>/home/bkoz/src/alpha60&#45;docs/src/a60&#45;telecom&#45;infrastructure.h</title>
<!-- Node1 -->
<g id="node1" class="node">
<title>Node1</title>
<g id="a_node1"><a xlink:title=" ">
<polygon fill="#999999" stroke="#666666" points="2268,-433 2152,-433 2152,-398 2268,-398 2268,-433"/>
<text text-anchor="start" x="2160" y="-422.6" font-family="SourceSans" font-size="8.00">/home/bkoz/src/alpha60</text>
<text text-anchor="start" x="2160" y="-413.6" font-family="SourceSans" font-size="8.00">&#45;docs/src/a60&#45;telecom</text>
<text text-anchor="middle" x="2210" y="-404.6" font-family="SourceSans" font-size="8.00">&#45;infrastructure.h</text>
</a>
</g>
</g>
<!-- Node2 -->
<g id="node2" class="node">
<title>Node2</title>
<g id="a_node2"><a xlink:href="$a60-json_8h.html" xlink:title=" ">
<polygon fill="white" stroke="#666666" points="2132,-357.5 2072,-357.5 2072,-340.5 2132,-340.5 2132,-357.5"/>
<text text-anchor="middle" x="2102" y="-347.1" font-family="SourceSans" font-size="8.00">a60&#45;json.h</text>
</a>
</g>
</g>
<!-- Node1&#45;&gt;Node2 -->
<g id="edge1" class="edge">
<title>Node1&#45;&gt;Node2</title>
<path fill="none" stroke="#63b8ff" d="M2182.19,-397.89C2163.84,-386.93 2140.16,-372.79 2123.3,-362.72"/>
<polygon fill="#63b8ff" stroke="#63b8ff" points="2125.1,-359.72 2114.72,-357.59 2121.51,-365.73 2125.1,-359.72"/>
</g>
<!-- Node51 -->
<g id="node51" class="node">
<title>Node51</title>
<g id="a_node51"><a xlink:href="$a60-collection-json_8h.html" xlink:title=" ">
<polygon fill="white" stroke="#666666" points="2261.5,-357.5 2158.5,-357.5 2158.5,-340.5 2261.5,-340.5 2261.5,-357.5"/>
<text text-anchor="middle" x="2210" y="-347.1" font-family="SourceSans" font-size="8.00">a60&#45;collection&#45;json.h</text>
</a>
</g>
</g>
<!-- Node1&#45;&gt;Node51 -->
<g id="edge53" class="edge">
<title>Node1&#45;&gt;Node51</title>
<path fill="none" stroke="#63b8ff" d="M2210,-397.89C2210,-388.65 2210,-377.16 2210,-367.75"/>
<polygon fill="#63b8ff" stroke="#63b8ff" points="2213.5,-367.59 2210,-357.59 2206.5,-367.59 2213.5,-367.59"/>
</g>
<!-- Node56 -->
<g id="node56" class="node">
<title>Node56</title>
<g id="a_node56"><a xlink:href="$a60-carto-projection-cahill-keyes-functions_8h.html" xlink:title=" ">
<polygon fill="white" stroke="#666666" points="2396,-362 2280,-362 2280,-336 2396,-336 2396,-362"/>
<text text-anchor="start" x="2288" y="-351.6" font-family="SourceSans" font-size="8.00">a60&#45;carto&#45;projection</text>
<text text-anchor="middle" x="2338" y="-342.6" font-family="SourceSans" font-size="8.00">&#45;cahill&#45;keyes&#45;functions.h</text>
</a>
</g>
</g>
<!-- Node1&#45;&gt;Node56 -->
<g id="edge61" class="edge">
<title>Node1&#45;&gt;Node56</title>
<path fill="none" stroke="#63b8ff" d="M2242.96,-397.89C2262.06,-388.27 2286.02,-376.19 2305.11,-366.58"/>
<polygon fill="#63b8ff" stroke="#63b8ff" points="2306.69,-369.7 2314.04,-362.07 2303.54,-363.45 2306.69,-369.7"/>
</g>
<!-- Node3 -->
<g id="node3" class="node">
<title>Node3</title>
<g id="a_node3"><a xlink:href="$a60-swarm-functions_8h.html" xlink:title=" ">
<polygon fill="white" stroke="#666666" points="2140.5,-300 2029.5,-300 2029.5,-283 2140.5,-283 2140.5,-300"/>
<text text-anchor="middle" x="2085" y="-289.6" font-family="SourceSans" font-size="8.00">a60&#45;swarm&#45;functions.h</text>
</a>
</g>
</g>
<!-- Node2&#45;&gt;Node3 -->
<g id="edge2" class="edge">
<title>Node2&#45;&gt;Node3</title>
<path fill="none" stroke="#63b8ff" d="M2099.64,-340.28C2097.25,-332.5 2093.49,-320.2 2090.37,-310.04"/>
<polygon fill="#63b8ff" stroke="#63b8ff" points="2093.62,-308.69 2087.34,-300.15 2086.93,-310.74 2093.62,-308.69"/>
</g>
<!-- Node4 -->
<g id="node4" class="node">
<title>Node4</title>
<g id="a_node4"><a xlink:href="$a60-peer_8h.html" xlink:title=" ">
<polygon fill="white" stroke="#666666" points="911,-242.5 849,-242.5 849,-225.5 911,-225.5 911,-242.5"/>
<text text-anchor="middle" x="880" y="-232.1" font-family="SourceSans" font-size="8.00">a60&#45;peer.h</text>
</a>
</g>
</g>
<!-- Node3&#45;&gt;Node4 -->
<g id="edge3" class="edge">
<title>Node3&#45;&gt;Node4</title>
<path fill="none" stroke="#63b8ff" d="M2029.3,-287.93C1822.58,-278.41 1102.04,-245.23 921.34,-236.9"/>
<polygon fill="#63b8ff" stroke="#63b8ff" points="921.35,-233.4 911.2,-236.44 921.02,-240.39 921.35,-233.4"/>
</g>
<!-- Node44 -->
<g id="node44" class="node">
<title>Node44</title>
<g id="a_node44"><a xlink:href="$a60-json-fwd_8h.html" xlink:title=" ">
<polygon fill="white" stroke="#666666" points="2109,-242.5 2031,-242.5 2031,-225.5 2109,-225.5 2109,-242.5"/>
<text text-anchor="middle" x="2070" y="-232.1" font-family="SourceSans" font-size="8.00">a60&#45;json&#45;fwd.h</text>
</a>
</g>
</g>
<!-- Node3&#45;&gt;Node44 -->
<g id="edge46" class="edge">
<title>Node3&#45;&gt;Node44</title>
<path fill="none" stroke="#63b8ff" d="M2082.91,-282.78C2080.81,-275 2077.49,-262.7 2074.74,-252.54"/>
<polygon fill="#63b8ff" stroke="#63b8ff" points="2078.06,-251.39 2072.07,-242.65 2071.3,-253.22 2078.06,-251.39"/>
</g>
<!-- Node5 -->
<g id="node5" class="node">
<title>Node5</title>
<g id="a_node5"><a xlink:href="$a60-geo_8h.html" xlink:title=" ">
<polygon fill="white" stroke="#666666" points="803,-180.5 745,-180.5 745,-163.5 803,-163.5 803,-180.5"/>
<text text-anchor="middle" x="774" y="-170.1" font-family="SourceSans" font-size="8.00">a60&#45;geo.h</text>
</a>
</g>
</g>
<!-- Node4&#45;&gt;Node5 -->
<g id="edge4" class="edge">
<title>Node4&#45;&gt;Node5</title>
<path fill="none" stroke="#63b8ff" d="M866.58,-225.4C848.89,-215.39 817.56,-197.66 796.29,-185.62"/>
<polygon fill="#63b8ff" stroke="#63b8ff" points="797.74,-182.42 787.32,-180.54 794.29,-188.51 797.74,-182.42"/>
</g>
<!-- Node31 -->
<g id="node31" class="node">
<title>Node31</title>
<g id="a_node31"><a xlink:href="$a60-network-functions_8h.html" xlink:title=" ">
<polygon fill="white" stroke="#666666" points="938.5,-180.5 821.5,-180.5 821.5,-163.5 938.5,-163.5 938.5,-180.5"/>
<text text-anchor="middle" x="880" y="-170.1" font-family="SourceSans" font-size="8.00">a60&#45;network&#45;functions.h</text>
</a>
</g>
</g>
<!-- Node4&#45;&gt;Node31 -->
<g id="edge33" class="edge">
<title>Node4&#45;&gt;Node31</title>
<path fill="none" stroke="#63b8ff" d="M880,-225.16C880,-216.48 880,-202.23 880,-190.82"/>
<polygon fill="#63b8ff" stroke="#63b8ff" points="883.5,-190.66 880,-180.66 876.5,-190.66 883.5,-190.66"/>
</g>
<!-- Node32 -->
<g id="node32" class="node">
<title>Node32</title>
<g id="a_node32"><a xlink:title=" ">
<polygon fill="#e0e0e0" stroke="#999999" points="1051.5,-180.5 956.5,-180.5 956.5,-163.5 1051.5,-163.5 1051.5,-180.5"/>
<text text-anchor="middle" x="1004" y="-170.1" font-family="SourceSans" font-size="8.00">libtorrent/entry.hpp</text>
</a>
</g>
</g>
<!-- Node4&#45;&gt;Node32 -->
<g id="edge34" class="edge">
<title>Node4&#45;&gt;Node32</title>
<path fill="none" stroke="#63b8ff" d="M895.7,-225.4C916.76,-215.21 954.37,-197.01 979.25,-184.97"/>
<polygon fill="#63b8ff" stroke="#63b8ff" points="980.95,-188.04 988.42,-180.54 977.9,-181.74 980.95,-188.04"/>
</g>
<!-- Node33 -->
<g id="node33" class="node">
<title>Node33</title>
<g id="a_node33"><a xlink:title=" ">
<polygon fill="#e0e0e0" stroke="#999999" points="1180,-180.5 1070,-180.5 1070,-163.5 1180,-163.5 1180,-180.5"/>
<text text-anchor="middle" x="1125" y="-170.1" font-family="SourceSans" font-size="8.00">libtorrent/bencode.hpp</text>
</a>
</g>
</g>
<!-- Node4&#45;&gt;Node33 -->
<g id="edge35" class="edge">
<title>Node4&#45;&gt;Node33</title>
<path fill="none" stroke="#63b8ff" d="M911.03,-225.4C955.03,-214.63 1035.6,-194.89 1084.33,-182.96"/>
<polygon fill="#63b8ff" stroke="#63b8ff" points="1085.34,-186.32 1094.22,-180.54 1083.68,-179.52 1085.34,-186.32"/>
</g>
<!-- Node34 -->
<g id="node34" class="node">
<title>Node34</title>
<g id="a_node34"><a xlink:title=" ">
<polygon fill="#e0e0e0" stroke="#999999" points="1299.5,-180.5 1198.5,-180.5 1198.5,-163.5 1299.5,-163.5 1299.5,-180.5"/>
<text text-anchor="middle" x="1249" y="-170.1" font-family="SourceSans" font-size="8.00">libtorrent/torrent.hpp</text>
</a>
</g>
</g>
<!-- Node4&#45;&gt;Node34 -->
<g id="edge36" class="edge">
<title>Node4&#45;&gt;Node34</title>
<path fill="none" stroke="#63b8ff" d="M911.21,-228.61C967.06,-220.65 1087.71,-202.99 1189,-185 1193.41,-184.22 1198,-183.36 1202.59,-182.49"/>
<polygon fill="#63b8ff" stroke="#63b8ff" points="1203.41,-185.9 1212.56,-180.55 1202.07,-179.02 1203.41,-185.9"/>
</g>
<!-- Node35 -->
<g id="node35" class="node">
<title>Node35</title>
<g id="a_node35"><a xlink:title=" ">
<polygon fill="#e0e0e0" stroke="#999999" points="1400.5,-185 1317.5,-185 1317.5,-159 1400.5,-159 1400.5,-185"/>
<text text-anchor="start" x="1325.5" y="-174.6" font-family="SourceSans" font-size="8.00">libtorrent/torrent</text>
<text text-anchor="middle" x="1359" y="-165.6" font-family="SourceSans" font-size="8.00">_info.hpp</text>
</a>
</g>
</g>
<!-- Node4&#45;&gt;Node35 -->
<g id="edge37" class="edge">
<title>Node4&#45;&gt;Node35</title>
<path fill="none" stroke="#63b8ff" d="M911.06,-230.8C980.34,-225.61 1152.84,-211.17 1307.2,-184.97"/>
<polygon fill="#63b8ff" stroke="#63b8ff" points="1308.07,-188.37 1317.33,-183.23 1306.89,-181.48 1308.07,-188.37"/>
</g>
<!-- Node36 -->
<g id="node36" class="node">
<title>Node36</title>
<g id="a_node36"><a xlink:title=" ">
<polygon fill="#e0e0e0" stroke="#999999" points="1501.5,-185 1418.5,-185 1418.5,-159 1501.5,-159 1501.5,-185"/>
<text text-anchor="start" x="1426.5" y="-174.6" font-family="SourceSans" font-size="8.00">libtorrent/torrent</text>
<text text-anchor="middle" x="1460" y="-165.6" font-family="SourceSans" font-size="8.00">_status.hpp</text>
</a>
</g>
</g>
<!-- Node4&#45;&gt;Node36 -->
<g id="edge38" class="edge">
<title>Node4&#45;&gt;Node36</title>
<path fill="none" stroke="#63b8ff" d="M911.2,-231.7C991.81,-228.03 1213.72,-215.84 1408.23,-184.93"/>
<polygon fill="#63b8ff" stroke="#63b8ff" points="1409.03,-188.35 1418.35,-183.3 1407.92,-181.44 1409.03,-188.35"/>
</g>
<!-- Node37 -->
<g id="node37" class="node">
<title>Node37</title>
<g id="a_node37"><a xlink:title=" ">
<polygon fill="#e0e0e0" stroke="#999999" points="1632,-180.5 1520,-180.5 1520,-163.5 1632,-163.5 1632,-180.5"/>
<text text-anchor="middle" x="1576" y="-170.1" font-family="SourceSans" font-size="8.00">libtorrent/peer_info.hpp</text>
</a>
</g>
</g>
<!-- Node4&#45;&gt;Node37 -->
<g id="edge39" class="edge">
<title>Node4&#45;&gt;Node37</title>
<path fill="none" stroke="#63b8ff" d="M911.25,-231.77C1003.3,-227.89 1281.26,-214.43 1510,-185 1515.92,-184.24 1522.11,-183.3 1528.24,-182.29"/>
<polygon fill="#63b8ff" stroke="#63b8ff" points="1529.15,-185.68 1538.41,-180.53 1527.96,-178.78 1529.15,-185.68"/>
</g>
<!-- Node38 -->
<g id="node38" class="node">
<title>Node38</title>
<g id="a_node38"><a xlink:title=" ">
<polygon fill="#e0e0e0" stroke="#999999" points="98,-185 0,-185 0,-159 98,-159 98,-185"/>
<text text-anchor="start" x="8" y="-174.6" font-family="SourceSans" font-size="8.00">libtorrent/announce</text>
<text text-anchor="middle" x="49" y="-165.6" font-family="SourceSans" font-size="8.00">_entry.hpp</text>
</a>
</g>
</g>
<!-- Node4&#45;&gt;Node38 -->
<g id="edge40" class="edge">
<title>Node4&#45;&gt;Node38</title>
<path fill="none" stroke="#63b8ff" d="M848.92,-232.65C745.18,-231.15 401.38,-223.51 108.25,-185.02"/>
<polygon fill="#63b8ff" stroke="#63b8ff" points="108.65,-181.54 98.28,-183.69 107.73,-188.48 108.65,-181.54"/>
</g>
<!-- Node39 -->
<g id="node39" class="node">
<title>Node39</title>
<g id="a_node39"><a xlink:title=" ">
<polygon fill="#e0e0e0" stroke="#999999" points="226,-180.5 116,-180.5 116,-163.5 226,-163.5 226,-180.5"/>
<text text-anchor="middle" x="171" y="-170.1" font-family="SourceSans" font-size="8.00">libtorrent/bdecode.hpp</text>
</a>
</g>
</g>
<!-- Node4&#45;&gt;Node39 -->
<g id="edge41" class="edge">
<title>Node4&#45;&gt;Node39</title>
<path fill="none" stroke="#63b8ff" d="M848.99,-231.92C755.77,-228.39 469.94,-215.67 235,-185 229.26,-184.25 223.25,-183.32 217.31,-182.31"/>
<polygon fill="#63b8ff" stroke="#63b8ff" points="217.9,-178.86 207.44,-180.56 216.67,-185.75 217.9,-178.86"/>
</g>
<!-- Node40 -->
<g id="node40" class="node">
<title>Node40</title>
<g id="a_node40"><a xlink:title=" ">
<polygon fill="#e0e0e0" stroke="#999999" points="364,-180.5 244,-180.5 244,-163.5 364,-163.5 364,-180.5"/>
<text text-anchor="middle" x="304" y="-170.1" font-family="SourceSans" font-size="8.00">libtorrent/magnet_uri.hpp</text>
</a>
</g>
</g>
<!-- Node4&#45;&gt;Node40 -->
<g id="edge42" class="edge">
<title>Node4&#45;&gt;Node40</title>
<path fill="none" stroke="#63b8ff" d="M848.75,-230.89C769.16,-225.34 552.42,-209.06 373,-185 366.83,-184.17 360.37,-183.2 353.98,-182.16"/>
<polygon fill="#63b8ff" stroke="#63b8ff" points="354.49,-178.7 344.05,-180.51 353.34,-185.61 354.49,-178.7"/>
</g>
<!-- Node41 -->
<g id="node41" class="node">
<title>Node41</title>
<g id="a_node41"><a xlink:title=" ">
<polygon fill="#e0e0e0" stroke="#999999" points="488,-180.5 382,-180.5 382,-163.5 488,-163.5 488,-180.5"/>
<text text-anchor="middle" x="435" y="-170.1" font-family="SourceSans" font-size="8.00">libtorrent/session.hpp</text>
</a>
</g>
</g>
<!-- Node4&#45;&gt;Node41 -->
<g id="edge43" class="edge">
<title>Node4&#45;&gt;Node41</title>
<path fill="none" stroke="#63b8ff" d="M848.62,-229.78C783.1,-222.91 627.04,-205.71 497,-185 491.99,-184.2 486.76,-183.3 481.55,-182.36"/>
<polygon fill="#63b8ff" stroke="#63b8ff" points="482.12,-178.9 471.65,-180.51 480.84,-185.78 482.12,-178.9"/>
</g>
<!-- Node42 -->
<g id="node42" class="node">
<title>Node42</title>
<g id="a_node42"><a xlink:title=" ">
<polygon fill="#e0e0e0" stroke="#999999" points="607.5,-185 506.5,-185 506.5,-159 607.5,-159 607.5,-185"/>
<text text-anchor="start" x="514.5" y="-174.6" font-family="SourceSans" font-size="8.00">libtorrent/extensions</text>
<text text-anchor="middle" x="557" y="-165.6" font-family="SourceSans" font-size="8.00">/ut_metadata.hpp</text>
</a>
</g>
</g>
<!-- Node4&#45;&gt;Node42 -->
<g id="edge44" class="edge">
<title>Node4&#45;&gt;Node42</title>
<path fill="none" stroke="#63b8ff" d="M848.67,-227.52C800.97,-219.13 707.05,-202.43 617.56,-185.28"/>
<polygon fill="#63b8ff" stroke="#63b8ff" points="618,-181.8 607.52,-183.35 616.68,-188.67 618,-181.8"/>
</g>
<!-- Node43 -->
<g id="node43" class="node">
<title>Node43</title>
<g id="a_node43"><a xlink:title=" ">
<polygon fill="#e0e0e0" stroke="#999999" points="726.5,-185 625.5,-185 625.5,-159 726.5,-159 726.5,-185"/>
<text text-anchor="start" x="633.5" y="-174.6" font-family="SourceSans" font-size="8.00">libtorrent/extensions</text>
<text text-anchor="middle" x="676" y="-165.6" font-family="SourceSans" font-size="8.00">/ut_pex.hpp</text>
</a>
</g>
</g>
<!-- Node4&#45;&gt;Node43 -->
<g id="edge45" class="edge">
<title>Node4&#45;&gt;Node43</title>
<path fill="none" stroke="#63b8ff" d="M854.16,-225.4C822.27,-216.02 767.3,-199.85 726.83,-187.95"/>
<polygon fill="#63b8ff" stroke="#63b8ff" points="727.71,-184.56 717.13,-185.1 725.74,-191.28 727.71,-184.56"/>
</g>
<!-- Node6 -->
<g id="node6" class="node">
<title>Node6</title>
<g id="a_node6"><a xlink:title=" ">
<polygon fill="#e0e0e0" stroke="#999999" points="1752,-17 1710,-17 1710,0 1752,0 1752,-17"/>
<text text-anchor="middle" x="1731" y="-6.6" font-family="SourceSans" font-size="8.00">cmath</text>
</a>
</g>
</g>
<!-- Node5&#45;&gt;Node6 -->
<g id="edge5" class="edge">
<title>Node5&#45;&gt;Node6</title>
<path fill="none" stroke="#63b8ff" d="M795.95,-163.46C801.17,-161.84 806.75,-160.24 812,-159 1003.65,-113.69 1489.5,-58.82 1699.94,-17.03"/>
<polygon fill="#63b8ff" stroke="#63b8ff" points="1700.64,-20.46 1709.75,-15.05 1699.25,-13.6 1700.64,-20.46"/>
</g>
<!-- Node7 -->
<g id="node7" class="node">
<title>Node7</title>
<g id="a_node7"><a xlink:title=" ">
<polygon fill="#e0e0e0" stroke="#999999" points="634.5,-17 605.5,-17 605.5,0 634.5,0 634.5,-17"/>
<text text-anchor="middle" x="620" y="-6.6" font-family="SourceSans" font-size="8.00">set</text>
</a>
</g>
</g>
<!-- Node5&#45;&gt;Node7 -->
<g id="edge6" class="edge">
<title>Node5&#45;&gt;Node7</title>
<path fill="none" stroke="#63b8ff" d="M750.98,-163.49C713.42,-151.14 642.74,-127.47 639,-123 616.18,-95.77 615.9,-51.6 617.85,-27.17"/>
<polygon fill="#63b8ff" stroke="#63b8ff" points="621.33,-27.49 618.87,-17.19 614.37,-26.78 621.33,-27.49"/>
</g>
<!-- Node8 -->
<g id="node8" class="node">
<title>Node8</title>
<g id="a_node8"><a xlink:title=" ">
<polygon fill="#e0e0e0" stroke="#999999" points="706,-123 648,-123 648,-106 706,-106 706,-123"/>
<text text-anchor="middle" x="677" y="-112.6" font-family="SourceSans" font-size="8.00">functional</text>
</a>
</g>
</g>
<!-- Node5&#45;&gt;Node8 -->
<g id="edge7" class="edge">
<title>Node5&#45;&gt;Node8</title>
<path fill="none" stroke="#63b8ff" d="M760.51,-163.28C744.66,-154.21 718.12,-139.03 699.21,-128.21"/>
<polygon fill="#63b8ff" stroke="#63b8ff" points="700.79,-125.08 690.37,-123.15 697.31,-131.16 700.79,-125.08"/>
</g>
<!-- Node9 -->
<g id="node9" class="node">
<title>Node9</title>
<g id="a_node9"><a xlink:title=" ">
<polygon fill="#e0e0e0" stroke="#999999" points="705,-17 653,-17 653,0 705,0 705,-17"/>
<text text-anchor="middle" x="679" y="-6.6" font-family="SourceSans" font-size="8.00">iostream</text>
</a>
</g>
</g>
<!-- Node5&#45;&gt;Node9 -->
<g id="edge8" class="edge">
<title>Node5&#45;&gt;Node9</title>
<path fill="none" stroke="#63b8ff" d="M769.42,-163.21C754.78,-138.32 708.91,-60.35 688.71,-26.01"/>
<polygon fill="#63b8ff" stroke="#63b8ff" points="691.62,-24.06 683.54,-17.21 685.59,-27.61 691.62,-24.06"/>
</g>
<!-- Node10 -->
<g id="node10" class="node">
<title>Node10</title>
<g id="a_node10"><a xlink:href="$a60-io_8h.html" xlink:title=" ">
<polygon fill="white" stroke="#666666" points="839,-123 789,-123 789,-106 839,-106 839,-123"/>
<text text-anchor="middle" x="814" y="-112.6" font-family="SourceSans" font-size="8.00">a60&#45;io.h</text>
</a>
</g>
</g>
<!-- Node5&#45;&gt;Node10 -->
<g id="edge9" class="edge">
<title>Node5&#45;&gt;Node10</title>
<path fill="none" stroke="#63b8ff" d="M779.56,-163.28C785.47,-155.08 794.99,-141.88 802.52,-131.43"/>
<polygon fill="#63b8ff" stroke="#63b8ff" points="805.48,-133.31 808.49,-123.15 799.8,-129.22 805.48,-133.31"/>
</g>
<!-- Node29 -->
<g id="node29" class="node">
<title>Node29</title>
<g id="a_node29"><a xlink:title=" ">
<polygon fill="#e0e0e0" stroke="#999999" points="904.5,-123 857.5,-123 857.5,-106 904.5,-106 904.5,-123"/>
<text text-anchor="middle" x="881" y="-112.6" font-family="SourceSans" font-size="8.00">GeoIP.h</text>
</a>
</g>
</g>
<!-- Node5&#45;&gt;Node29 -->
<g id="edge31" class="edge">
<title>Node5&#45;&gt;Node29</title>
<path fill="none" stroke="#63b8ff" d="M788.88,-163.28C806.61,-154.09 836.45,-138.61 857.35,-127.77"/>
<polygon fill="#63b8ff" stroke="#63b8ff" points="858.98,-130.86 866.25,-123.15 855.76,-124.65 858.98,-130.86"/>
</g>
<!-- Node30 -->
<g id="node30" class="node">
<title>Node30</title>
<g id="a_node30"><a xlink:title=" ">
<polygon fill="#e0e0e0" stroke="#999999" points="985,-123 923,-123 923,-106 985,-106 985,-123"/>
<text text-anchor="middle" x="954" y="-112.6" font-family="SourceSans" font-size="8.00">GeoIPCity.h</text>
</a>
</g>
</g>
<!-- Node5&#45;&gt;Node30 -->
<g id="edge32" class="edge">
<title>Node5&#45;&gt;Node30</title>
<path fill="none" stroke="#63b8ff" d="M797.71,-163.48C802.44,-161.99 807.38,-160.44 812,-159 848.67,-147.59 890.74,-134.74 919.51,-125.98"/>
<polygon fill="#63b8ff" stroke="#63b8ff" points="920.55,-129.32 929.1,-123.06 918.51,-122.62 920.55,-129.32"/>
</g>
<!-- Node11 -->
<g id="node11" class="node">
<title>Node11</title>
<g id="a_node11"><a xlink:title=" ">
<polygon fill="#e0e0e0" stroke="#999999" points="865.5,-70 818.5,-70 818.5,-53 865.5,-53 865.5,-70"/>
<text text-anchor="middle" x="842" y="-59.6" font-family="SourceSans" font-size="8.00">fstream</text>
</a>
</g>
</g>
<!-- Node10&#45;&gt;Node11 -->
<g id="edge10" class="edge">
<title>Node10&#45;&gt;Node11</title>
<path fill="none" stroke="#63b8ff" d="M818.13,-105.97C822.02,-98.89 827.97,-88.05 832.96,-78.96"/>
<polygon fill="#63b8ff" stroke="#63b8ff" points="836.11,-80.51 837.85,-70.06 829.97,-77.14 836.11,-80.51"/>
</g>
<!-- Node12 -->
<g id="node12" class="node">
<title>Node12</title>
<g id="a_node12"><a xlink:title=" ">
<polygon fill="#e0e0e0" stroke="#999999" points="998.5,-70 883.5,-70 883.5,-53 998.5,-53 998.5,-70"/>
<text text-anchor="middle" x="941" y="-59.6" font-family="SourceSans" font-size="8.00">experimental/filesystem</text>
</a>
</g>
</g>
<!-- Node10&#45;&gt;Node12 -->
<g id="edge11" class="edge">
<title>Node10&#45;&gt;Node12</title>
<path fill="none" stroke="#63b8ff" d="M832.74,-105.97C853.84,-97.5 888.37,-83.64 912.75,-73.85"/>
<polygon fill="#63b8ff" stroke="#63b8ff" points="914.21,-77.03 922.18,-70.06 911.6,-70.53 914.21,-77.03"/>
</g>
<!-- Node13 -->
<g id="node13" class="node">
<title>Node13</title>
<g id="a_node13"><a xlink:title=" ">
<polygon fill="#e0e0e0" stroke="#999999" points="1073,-70 1017,-70 1017,-53 1073,-53 1073,-70"/>
<text text-anchor="middle" x="1045" y="-59.6" font-family="SourceSans" font-size="8.00">stdexcept</text>
</a>
</g>
</g>
<!-- Node10&#45;&gt;Node13 -->
<g id="edge12" class="edge">
<title>Node10&#45;&gt;Node13</title>
<path fill="none" stroke="#63b8ff" d="M839.16,-107.95C879.58,-99.02 959.23,-81.44 1006.73,-70.95"/>
<polygon fill="#63b8ff" stroke="#63b8ff" points="1007.63,-74.34 1016.64,-68.76 1006.12,-67.5 1007.63,-74.34"/>
</g>
<!-- Node14 -->
<g id="node14" class="node">
<title>Node14</title>
<g id="a_node14"><a xlink:title=" ">
<polygon fill="#e0e0e0" stroke="#999999" points="800,-70 762,-70 762,-53 800,-53 800,-70"/>
<text text-anchor="middle" x="781" y="-59.6" font-family="SourceSans" font-size="8.00">regex</text>
</a>
</g>
</g>
<!-- Node10&#45;&gt;Node14 -->
<g id="edge13" class="edge">
<title>Node10&#45;&gt;Node14</title>
<path fill="none" stroke="#63b8ff" d="M809.13,-105.97C804.5,-98.82 797.38,-87.82 791.47,-78.67"/>
<polygon fill="#63b8ff" stroke="#63b8ff" points="794.26,-76.55 785.89,-70.06 788.38,-80.35 794.26,-76.55"/>
</g>
<!-- Node15 -->
<g id="node15" class="node">
<title>Node15</title>
<g id="a_node15"><a xlink:href="$a60_8h.html" xlink:title=" ">
<polygon fill="white" stroke="#666666" points="1186,-70 1146,-70 1146,-53 1186,-53 1186,-70"/>
<text text-anchor="middle" x="1166" y="-59.6" font-family="SourceSans" font-size="8.00">a60.h</text>
</a>
</g>
</g>
<!-- Node10&#45;&gt;Node15 -->
<g id="edge14" class="edge">
<title>Node10&#45;&gt;Node15</title>
<path fill="none" stroke="#63b8ff" d="M839.21,-107.7C842.16,-107.09 845.14,-106.51 848,-106 953.13,-87.25 1079.08,-72.19 1135.75,-65.81"/>
<polygon fill="#63b8ff" stroke="#63b8ff" points="1136.27,-69.27 1145.82,-64.68 1135.49,-62.32 1136.27,-69.27"/>
</g>
<!-- Node15&#45;&gt;Node6 -->
<g id="edge15" class="edge">
<title>Node15&#45;&gt;Node6</title>
<path fill="none" stroke="#63b8ff" d="M1186.06,-60.05C1255.78,-58.25 1494.07,-50.02 1699.71,-16.91"/>
<polygon fill="#63b8ff" stroke="#63b8ff" points="1700.48,-20.33 1709.78,-15.26 1699.35,-13.42 1700.48,-20.33"/>
</g>
<!-- Node15&#45;&gt;Node7 -->
<g id="edge19" class="edge">
<title>Node15&#45;&gt;Node7</title>
<path fill="none" stroke="#63b8ff" d="M1145.98,-58.67C1128.96,-57.13 1103.88,-54.88 1082,-53 890.62,-36.59 837.47,-53.77 644.49,-16.55"/>
<polygon fill="#63b8ff" stroke="#63b8ff" points="645.08,-13.1 634.59,-14.62 643.74,-19.97 645.08,-13.1"/>
</g>
<!-- Node15&#45;&gt;Node9 -->
<g id="edge30" class="edge">
<title>Node15&#45;&gt;Node9</title>
<path fill="none" stroke="#63b8ff" d="M1145.94,-58.71C1068.33,-51.75 788.88,-26.54 715.57,-16.93"/>
<polygon fill="#63b8ff" stroke="#63b8ff" points="715.71,-13.42 705.31,-15.48 714.72,-20.35 715.71,-13.42"/>
</g>
<!-- Node16 -->
<g id="node16" class="node">
<title>Node16</title>
<g id="a_node16"><a xlink:title=" ">
<polygon fill="#e0e0e0" stroke="#999999" points="1634,-17 1596,-17 1596,0 1634,0 1634,-17"/>
<text text-anchor="middle" x="1615" y="-6.6" font-family="SourceSans" font-size="8.00">tuple</text>
</a>
</g>
</g>
<!-- Node15&#45;&gt;Node16 -->
<g id="edge16" class="edge">
<title>Node15&#45;&gt;Node16</title>
<path fill="none" stroke="#63b8ff" d="M1186.32,-59.55C1246.14,-56.5 1426.91,-45.57 1585.86,-16.89"/>
<polygon fill="#63b8ff" stroke="#63b8ff" points="1586.61,-20.32 1595.81,-15.07 1585.34,-13.43 1586.61,-20.32"/>
</g>
<!-- Node17 -->
<g id="node17" class="node">
<title>Node17</title>
<g id="a_node17"><a xlink:title=" ">
<polygon fill="#e0e0e0" stroke="#999999" points="1692,-17 1652,-17 1652,0 1692,0 1692,-17"/>
<text text-anchor="middle" x="1672" y="-6.6" font-family="SourceSans" font-size="8.00">string</text>
</a>
</g>
</g>
<!-- Node15&#45;&gt;Node17 -->
<g id="edge17" class="edge">
<title>Node15&#45;&gt;Node17</title>
<path fill="none" stroke="#63b8ff" d="M1186.15,-59.83C1250.95,-57.44 1459.93,-47.82 1641.8,-16.9"/>
<polygon fill="#63b8ff" stroke="#63b8ff" points="1642.55,-20.32 1651.81,-15.17 1641.36,-13.42 1642.55,-20.32"/>
</g>
<!-- Node18 -->
<g id="node18" class="node">
<title>Node18</title>
<g id="a_node18"><a xlink:title=" ">
<polygon fill="#e0e0e0" stroke="#999999" points="765,-17 723,-17 723,0 765,0 765,-17"/>
<text text-anchor="middle" x="744" y="-6.6" font-family="SourceSans" font-size="8.00">vector</text>
</a>
</g>
</g>
<!-- Node15&#45;&gt;Node18 -->
<g id="edge18" class="edge">
<title>Node15&#45;&gt;Node18</title>
<path fill="none" stroke="#63b8ff" d="M1145.61,-58.6C1078.47,-52.3 864,-31.73 775.17,-16.91"/>
<polygon fill="#63b8ff" stroke="#63b8ff" points="775.68,-13.45 765.23,-15.18 774.48,-20.35 775.68,-13.45"/>
</g>
<!-- Node19 -->
<g id="node19" class="node">
<title>Node19</title>
<g id="a_node19"><a xlink:title=" ">
<polygon fill="#e0e0e0" stroke="#999999" points="863,-17 783,-17 783,0 863,0 863,-17"/>
<text text-anchor="middle" x="823" y="-6.6" font-family="SourceSans" font-size="8.00">unordered_map</text>
</a>
</g>
</g>
<!-- Node15&#45;&gt;Node19 -->
<g id="edge20" class="edge">
<title>Node15&#45;&gt;Node19</title>
<path fill="none" stroke="#63b8ff" d="M1145.68,-57.53C1099.37,-50.75 982.2,-33.56 873.28,-17.19"/>
<polygon fill="#63b8ff" stroke="#63b8ff" points="873.52,-13.68 863.11,-15.66 872.48,-20.6 873.52,-13.68"/>
</g>
<!-- Node20 -->
<g id="node20" class="node">
<title>Node20</title>
<g id="a_node20"><a xlink:title=" ">
<polygon fill="#e0e0e0" stroke="#999999" points="956.5,-17 881.5,-17 881.5,0 956.5,0 956.5,-17"/>
<text text-anchor="middle" x="919" y="-6.6" font-family="SourceSans" font-size="8.00">unordered_set</text>
</a>
</g>
</g>
<!-- Node15&#45;&gt;Node20 -->
<g id="edge21" class="edge">
<title>Node15&#45;&gt;Node20</title>
<path fill="none" stroke="#63b8ff" d="M1145.79,-56.33C1106.71,-48.26 1019.9,-30.33 965.73,-19.15"/>
<polygon fill="#63b8ff" stroke="#63b8ff" points="966.19,-15.67 955.69,-17.08 964.77,-22.53 966.19,-15.67"/>
</g>
<!-- Node21 -->
<g id="node21" class="node">
<title>Node21</title>
<g id="a_node21"><a xlink:title=" ">
<polygon fill="#e0e0e0" stroke="#999999" points="1019,-17 975,-17 975,0 1019,0 1019,-17"/>
<text text-anchor="middle" x="997" y="-6.6" font-family="SourceSans" font-size="8.00">chrono</text>
</a>
</g>
</g>
<!-- Node15&#45;&gt;Node21 -->
<g id="edge22" class="edge">
<title>Node15&#45;&gt;Node21</title>
<path fill="none" stroke="#63b8ff" d="M1145.95,-54.45C1116.98,-45.71 1063.14,-29.46 1028.74,-19.08"/>
<polygon fill="#63b8ff" stroke="#63b8ff" points="1029.75,-15.73 1019.16,-16.19 1027.73,-22.43 1029.75,-15.73"/>
</g>
<!-- Node22 -->
<g id="node22" class="node">
<title>Node22</title>
<g id="a_node22"><a xlink:title=" ">
<polygon fill="#e0e0e0" stroke="#999999" points="1087,-17 1037,-17 1037,0 1087,0 1087,-17"/>
<text text-anchor="middle" x="1062" y="-6.6" font-family="SourceSans" font-size="8.00">numeric</text>
</a>
</g>
</g>
<!-- Node15&#45;&gt;Node22 -->
<g id="edge23" class="edge">
<title>Node15&#45;&gt;Node22</title>
<path fill="none" stroke="#63b8ff" d="M1150.65,-52.97C1133.76,-44.69 1106.35,-31.25 1086.48,-21.5"/>
<polygon fill="#63b8ff" stroke="#63b8ff" points="1087.93,-18.32 1077.41,-17.06 1084.85,-24.6 1087.93,-18.32"/>
</g>
<!-- Node23 -->
<g id="node23" class="node">
<title>Node23</title>
<g id="a_node23"><a xlink:title=" ">
<polygon fill="#e0e0e0" stroke="#999999" points="1161,-17 1105,-17 1105,0 1161,0 1161,-17"/>
<text text-anchor="middle" x="1133" y="-6.6" font-family="SourceSans" font-size="8.00">algorithm</text>
</a>
</g>
</g>
<!-- Node15&#45;&gt;Node23 -->
<g id="edge24" class="edge">
<title>Node15&#45;&gt;Node23</title>
<path fill="none" stroke="#63b8ff" d="M1161.13,-52.97C1156.5,-45.82 1149.38,-34.82 1143.47,-25.67"/>
<polygon fill="#63b8ff" stroke="#63b8ff" points="1146.26,-23.55 1137.89,-17.06 1140.38,-27.35 1146.26,-23.55"/>
</g>
<!-- Node24 -->
<g id="node24" class="node">
<title>Node24</title>
<g id="a_node24"><a xlink:title=" ">
<polygon fill="#e0e0e0" stroke="#999999" points="1220.5,-17 1179.5,-17 1179.5,0 1220.5,0 1220.5,-17"/>
<text text-anchor="middle" x="1200" y="-6.6" font-family="SourceSans" font-size="8.00">locale</text>
</a>
</g>
</g>
<!-- Node15&#45;&gt;Node24 -->
<g id="edge25" class="edge">
<title>Node15&#45;&gt;Node24</title>
<path fill="none" stroke="#63b8ff" d="M1171.02,-52.97C1175.84,-45.74 1183.28,-34.59 1189.41,-25.39"/>
<polygon fill="#63b8ff" stroke="#63b8ff" points="1192.33,-27.32 1194.96,-17.06 1186.5,-23.44 1192.33,-27.32"/>
</g>
<!-- Node25 -->
<g id="node25" class="node">
<title>Node25</title>
<g id="a_node25"><a xlink:title=" ">
<polygon fill="#e0e0e0" stroke="#999999" points="1287.5,-17 1238.5,-17 1238.5,0 1287.5,0 1287.5,-17"/>
<text text-anchor="middle" x="1263" y="-6.6" font-family="SourceSans" font-size="8.00">codecvt</text>
</a>
</g>
</g>
<!-- Node15&#45;&gt;Node25 -->
<g id="edge26" class="edge">
<title>Node15&#45;&gt;Node25</title>
<path fill="none" stroke="#63b8ff" d="M1180.31,-52.97C1195.93,-44.76 1221.17,-31.49 1239.66,-21.77"/>
<polygon fill="#63b8ff" stroke="#63b8ff" points="1241.41,-24.81 1248.63,-17.06 1238.15,-18.61 1241.41,-24.81"/>
</g>
<!-- Node26 -->
<g id="node26" class="node">
<title>Node26</title>
<g id="a_node26"><a xlink:title=" ">
<polygon fill="#e0e0e0" stroke="#999999" points="1442.5,-17 1305.5,-17 1305.5,0 1442.5,0 1442.5,-17"/>
<text text-anchor="middle" x="1374" y="-6.6" font-family="SourceSans" font-size="8.00">ext/codecvt_specializations.h</text>
</a>
</g>
</g>
<!-- Node15&#45;&gt;Node26 -->
<g id="edge27" class="edge">
<title>Node15&#45;&gt;Node26</title>
<path fill="none" stroke="#63b8ff" d="M1186.32,-55.52C1220.27,-47.19 1289.15,-30.3 1333.36,-19.47"/>
<polygon fill="#63b8ff" stroke="#63b8ff" points="1334.33,-22.83 1343.21,-17.05 1332.66,-16.03 1334.33,-22.83"/>
</g>
<!-- Node27 -->
<g id="node27" class="node">
<title>Node27</title>
<g id="a_node27"><a xlink:title=" ">
<polygon fill="#e0e0e0" stroke="#999999" points="1509.5,-17 1460.5,-17 1460.5,0 1509.5,0 1509.5,-17"/>
<text text-anchor="middle" x="1485" y="-6.6" font-family="SourceSans" font-size="8.00">sstream</text>
</a>
</g>
</g>
<!-- Node15&#45;&gt;Node27 -->
<g id="edge28" class="edge">
<title>Node15&#45;&gt;Node27</title>
<path fill="none" stroke="#63b8ff" d="M1186.12,-57.89C1231.4,-51.92 1344.94,-36.41 1450.31,-17.01"/>
<polygon fill="#63b8ff" stroke="#63b8ff" points="1450.96,-20.45 1460.16,-15.18 1449.68,-13.56 1450.96,-20.45"/>
</g>
<!-- Node28 -->
<g id="node28" class="node">
<title>Node28</title>
<g id="a_node28"><a xlink:title=" ">
<polygon fill="#e0e0e0" stroke="#999999" points="1578,-17 1528,-17 1528,0 1578,0 1578,-17"/>
<text text-anchor="middle" x="1553" y="-6.6" font-family="SourceSans" font-size="8.00">iomanip</text>
</a>
</g>
</g>
<!-- Node15&#45;&gt;Node28 -->
<g id="edge29" class="edge">
<title>Node15&#45;&gt;Node28</title>
<path fill="none" stroke="#63b8ff" d="M1186.33,-58.62C1239.15,-53.6 1385.24,-38.88 1517.88,-16.84"/>
<polygon fill="#63b8ff" stroke="#63b8ff" points="1518.53,-20.28 1527.82,-15.17 1517.37,-13.38 1518.53,-20.28"/>
</g>
<!-- Node45 -->
<g id="node45" class="node">
<title>Node45</title>
<g id="a_node45"><a xlink:title=" ">
<polygon fill="#e0e0e0" stroke="#999999" points="2004,-180.5 1892,-180.5 1892,-163.5 2004,-163.5 2004,-180.5"/>
<text text-anchor="middle" x="1948" y="-170.1" font-family="SourceSans" font-size="8.00">rapidjson/prettywriter.h</text>
</a>
</g>
</g>
<!-- Node44&#45;&gt;Node45 -->
<g id="edge47" class="edge">
<title>Node44&#45;&gt;Node45</title>
<path fill="none" stroke="#63b8ff" d="M2054.55,-225.4C2033.83,-215.21 1996.83,-197.01 1972.35,-184.97"/>
<polygon fill="#63b8ff" stroke="#63b8ff" points="1973.84,-181.81 1963.33,-180.54 1970.75,-188.09 1973.84,-181.81"/>
</g>
<!-- Node46 -->
<g id="node46" class="node">
<title>Node46</title>
<g id="a_node46"><a xlink:title=" ">
<polygon fill="#e0e0e0" stroke="#999999" points="2117.5,-180.5 2022.5,-180.5 2022.5,-163.5 2117.5,-163.5 2117.5,-180.5"/>
<text text-anchor="middle" x="2070" y="-170.1" font-family="SourceSans" font-size="8.00">rapidjson/pointer.h</text>
</a>
</g>
</g>
<!-- Node44&#45;&gt;Node46 -->
<g id="edge48" class="edge">
<title>Node44&#45;&gt;Node46</title>
<path fill="none" stroke="#63b8ff" d="M2070,-225.16C2070,-216.48 2070,-202.23 2070,-190.82"/>
<polygon fill="#63b8ff" stroke="#63b8ff" points="2073.5,-190.66 2070,-180.66 2066.5,-190.66 2073.5,-190.66"/>
</g>
<!-- Node47 -->
<g id="node47" class="node">
<title>Node47</title>
<g id="a_node47"><a xlink:title=" ">
<polygon fill="#e0e0e0" stroke="#999999" points="2260,-180.5 2136,-180.5 2136,-163.5 2260,-163.5 2260,-180.5"/>
<text text-anchor="middle" x="2198" y="-170.1" font-family="SourceSans" font-size="8.00">rapidjson/filereadstream.h</text>
</a>
</g>
</g>
<!-- Node44&#45;&gt;Node47 -->
<g id="edge49" class="edge">
<title>Node44&#45;&gt;Node47</title>
<path fill="none" stroke="#63b8ff" d="M2086.21,-225.4C2108.04,-215.17 2147.11,-196.85 2172.8,-184.81"/>
<polygon fill="#63b8ff" stroke="#63b8ff" points="2174.35,-187.95 2181.92,-180.54 2171.38,-181.61 2174.35,-187.95"/>
</g>
<!-- Node48 -->
<g id="node48" class="node">
<title>Node48</title>
<g id="a_node48"><a xlink:title=" ">
<polygon fill="#e0e0e0" stroke="#999999" points="2370,-180.5 2278,-180.5 2278,-163.5 2370,-163.5 2370,-180.5"/>
<text text-anchor="middle" x="2324" y="-170.1" font-family="SourceSans" font-size="8.00">rapidjson/reader.h</text>
</a>
</g>
</g>
<!-- Node44&#45;&gt;Node48 -->
<g id="edge50" class="edge">
<title>Node44&#45;&gt;Node48</title>
<path fill="none" stroke="#63b8ff" d="M2101.91,-225.46C2147.54,-214.68 2231.46,-194.86 2282.06,-182.91"/>
<polygon fill="#63b8ff" stroke="#63b8ff" points="2283.09,-186.26 2292.02,-180.55 2281.48,-179.45 2283.09,-186.26"/>
</g>
<!-- Node49 -->
<g id="node49" class="node">
<title>Node49</title>
<g id="a_node49"><a xlink:title=" ">
<polygon fill="#e0e0e0" stroke="#999999" points="1757.5,-180.5 1650.5,-180.5 1650.5,-163.5 1757.5,-163.5 1757.5,-180.5"/>
<text text-anchor="middle" x="1704" y="-170.1" font-family="SourceSans" font-size="8.00">rapidjson/document.h</text>
</a>
</g>
</g>
<!-- Node44&#45;&gt;Node49 -->
<g id="edge51" class="edge">
<title>Node44&#45;&gt;Node49</title>
<path fill="none" stroke="#63b8ff" d="M2030.71,-227.18C1972.87,-218.51 1861.44,-201.47 1767,-185 1762.31,-184.18 1757.43,-183.3 1752.55,-182.41"/>
<polygon fill="#63b8ff" stroke="#63b8ff" points="1753.09,-178.94 1742.61,-180.55 1751.8,-185.83 1753.09,-178.94"/>
</g>
<!-- Node50 -->
<g id="node50" class="node">
<title>Node50</title>
<g id="a_node50"><a xlink:title=" ">
<polygon fill="#e0e0e0" stroke="#999999" points="1874,-180.5 1776,-180.5 1776,-163.5 1874,-163.5 1874,-180.5"/>
<text text-anchor="middle" x="1825" y="-170.1" font-family="SourceSans" font-size="8.00">rapidjson/error/en.h</text>
</a>
</g>
</g>
<!-- Node44&#45;&gt;Node50 -->
<g id="edge52" class="edge">
<title>Node44&#45;&gt;Node50</title>
<path fill="none" stroke="#63b8ff" d="M2038.97,-225.4C1994.97,-214.63 1914.4,-194.89 1865.67,-182.96"/>
<polygon fill="#63b8ff" stroke="#63b8ff" points="1866.32,-179.52 1855.78,-180.54 1864.66,-186.32 1866.32,-179.52"/>
</g>
<!-- Node51&#45;&gt;Node3 -->
<g id="edge60" class="edge">
<title>Node51&#45;&gt;Node3</title>
<path fill="none" stroke="#63b8ff" d="M2192.88,-340.4C2171.84,-331.06 2135.92,-315.11 2111.35,-304.2"/>
<polygon fill="#63b8ff" stroke="#63b8ff" points="2112.47,-300.87 2101.91,-300.01 2109.63,-307.27 2112.47,-300.87"/>
</g>
<!-- Node52 -->
<g id="node52" class="node">
<title>Node52</title>
<g id="a_node52"><a xlink:href="$a60-collection-base_8h.html" xlink:title=" ">
<polygon fill="white" stroke="#666666" points="2443,-242.5 2337,-242.5 2337,-225.5 2443,-225.5 2443,-242.5"/>
<text text-anchor="middle" x="2390" y="-232.1" font-family="SourceSans" font-size="8.00">a60&#45;collection&#45;base.h</text>
</a>
</g>
</g>
<!-- Node51&#45;&gt;Node52 -->
<g id="edge54" class="edge">
<title>Node51&#45;&gt;Node52</title>
<path fill="none" stroke="#63b8ff" d="M2224.36,-340.38C2241.43,-331.21 2270.69,-315.14 2295,-300 2322.11,-283.11 2352.41,-261.97 2371.34,-248.47"/>
<polygon fill="#63b8ff" stroke="#63b8ff" points="2373.56,-251.18 2379.65,-242.51 2369.49,-245.49 2373.56,-251.18"/>
</g>
<!-- Node54 -->
<g id="node54" class="node">
<title>Node54</title>
<g id="a_node54"><a xlink:href="$a60-collection-duration_8h.html" xlink:title=" ">
<polygon fill="white" stroke="#666666" points="2286,-300 2166,-300 2166,-283 2286,-283 2286,-300"/>
<text text-anchor="middle" x="2226" y="-289.6" font-family="SourceSans" font-size="8.00">a60&#45;collection&#45;duration.h</text>
</a>
</g>
</g>
<!-- Node51&#45;&gt;Node54 -->
<g id="edge57" class="edge">
<title>Node51&#45;&gt;Node54</title>
<path fill="none" stroke="#63b8ff" d="M2212.22,-340.28C2214.47,-332.5 2218.01,-320.2 2220.94,-310.04"/>
<polygon fill="#63b8ff" stroke="#63b8ff" points="2224.39,-310.73 2223.79,-300.15 2217.66,-308.79 2224.39,-310.73"/>
</g>
<!-- Node52&#45;&gt;Node15 -->
<g id="edge56" class="edge">
<title>Node52&#45;&gt;Node15</title>
<path fill="none" stroke="#63b8ff" d="M2391.62,-225.11C2394.24,-209.83 2397.41,-176.2 2379,-159 2289.93,-75.8 1375.63,-64.18 1196.39,-62.7"/>
<polygon fill="#63b8ff" stroke="#63b8ff" points="1196.37,-59.2 1186.34,-62.62 1196.31,-66.2 1196.37,-59.2"/>
</g>
<!-- Node53 -->
<g id="node53" class="node">
<title>Node53</title>
<g id="a_node53"><a xlink:title=" ">
<polygon fill="#e0e0e0" stroke="#999999" points="2461.5,-180.5 2426.5,-180.5 2426.5,-163.5 2461.5,-163.5 2461.5,-180.5"/>
<text text-anchor="middle" x="2444" y="-170.1" font-family="SourceSans" font-size="8.00">map</text>
</a>
</g>
</g>
<!-- Node52&#45;&gt;Node53 -->
<g id="edge55" class="edge">
<title>Node52&#45;&gt;Node53</title>
<path fill="none" stroke="#63b8ff" d="M2397.06,-225.16C2405.43,-215.85 2419.59,-200.12 2430.17,-188.37"/>
<polygon fill="#63b8ff" stroke="#63b8ff" points="2433.02,-190.43 2437.11,-180.66 2427.82,-185.75 2433.02,-190.43"/>
</g>
<!-- Node54&#45;&gt;Node52 -->
<g id="edge58" class="edge">
<title>Node54&#45;&gt;Node52</title>
<path fill="none" stroke="#63b8ff" d="M2248.46,-282.9C2276.8,-273.31 2325.72,-256.75 2357.97,-245.84"/>
<polygon fill="#63b8ff" stroke="#63b8ff" points="2359.46,-249.03 2367.81,-242.51 2357.22,-242.4 2359.46,-249.03"/>
</g>
<!-- Node55 -->
<g id="node55" class="node">
<title>Node55</title>
<g id="a_node55"><a xlink:title=" ">
<polygon fill="#e0e0e0" stroke="#999999" points="2288.5,-247 2163.5,-247 2163.5,-221 2288.5,-221 2288.5,-247"/>
<text text-anchor="start" x="2171.5" y="-236.6" font-family="SourceSans" font-size="8.00">boost/date_time/gregorian</text>
<text text-anchor="middle" x="2226" y="-227.6" font-family="SourceSans" font-size="8.00">/gregorian.hpp</text>
</a>
</g>
</g>
<!-- Node54&#45;&gt;Node55 -->
<g id="edge59" class="edge">
<title>Node54&#45;&gt;Node55</title>
<path fill="none" stroke="#63b8ff" d="M2226,-282.78C2226,-276.26 2226,-266.58 2226,-257.63"/>
<polygon fill="#63b8ff" stroke="#63b8ff" points="2229.5,-257.34 2226,-247.34 2222.5,-257.34 2229.5,-257.34"/>
</g>
</g>
</svg>
