<?xml version="1.0" encoding="UTF-8" standalone="no"?>
<!DOCTYPE svg PUBLIC "-//W3C//DTD SVG 1.1//EN"
 "http://www.w3.org/Graphics/SVG/1.1/DTD/svg11.dtd">
<!-- Generated by graphviz version 5.0.0 (0)
 -->
<!-- Title: /home/bkoz/src/alpha60&#45;docs/src/a60&#45;swarm&#45;functions.h Pages: 1 -->
<svg width="2378pt" height="308pt"
 viewBox="0.00 0.00 2377.50 308.00" xmlns="http://www.w3.org/2000/svg" xmlns:xlink="http://www.w3.org/1999/xlink">
<g id="graph0" class="graph" transform="scale(1 1) rotate(0) translate(4 304)">
<title>/home/bkoz/src/alpha60&#45;docs/src/a60&#45;swarm&#45;functions.h</title>
<!-- Node1 -->
<g id="node1" class="node">
<title>Node1</title>
<g id="a_node1"><a xlink:title=" ">
<polygon fill="#999999" stroke="#666666" points="1496.5,-300 1344.5,-300 1344.5,-274 1496.5,-274 1496.5,-300"/>
<text text-anchor="start" x="1352.5" y="-289.6" font-family="SourceSans" font-size="8.00">/home/bkoz/src/alpha60</text>
<text text-anchor="middle" x="1420.5" y="-280.6" font-family="SourceSans" font-size="8.00">&#45;docs/src/a60&#45;swarm&#45;functions.h</text>
</a>
</g>
</g>
<!-- Node2 -->
<g id="node2" class="node">
<title>Node2</title>
<g id="a_node2"><a xlink:href="a60-peer_8h.html" target="_top" xlink:title=" ">
<polygon fill="white" stroke="#666666" points="917.5,-238 855.5,-238 855.5,-221 917.5,-221 917.5,-238"/>
<text text-anchor="middle" x="886.5" y="-227.6" font-family="SourceSans" font-size="8.00">a60&#45;peer.h</text>
</a>
</g>
</g>
<!-- Node1&#45;&gt;Node2 -->
<g id="edge1" class="edge">
<title>Node1&#45;&gt;Node2</title>
<path fill="none" stroke="#63b8ff" d="M1344.27,-278.08C1229.66,-266.17 1016.85,-244.05 927.59,-234.77"/>
<polygon fill="#63b8ff" stroke="#63b8ff" points="927.89,-231.28 917.58,-233.73 927.16,-238.25 927.89,-231.28"/>
</g>
<!-- Node42 -->
<g id="node42" class="node">
<title>Node42</title>
<g id="a_node42"><a xlink:href="a60-json-fwd_8h.html" target="_top" xlink:title=" ">
<polygon fill="white" stroke="#666666" points="1994.5,-238 1916.5,-238 1916.5,-221 1994.5,-221 1994.5,-238"/>
<text text-anchor="middle" x="1955.5" y="-227.6" font-family="SourceSans" font-size="8.00">a60&#45;json&#45;fwd.h</text>
</a>
</g>
</g>
<!-- Node1&#45;&gt;Node42 -->
<g id="edge44" class="edge">
<title>Node1&#45;&gt;Node42</title>
<path fill="none" stroke="#63b8ff" d="M1496.58,-278.11C1608.09,-266.54 1812.77,-245.31 1906.4,-235.59"/>
<polygon fill="#63b8ff" stroke="#63b8ff" points="1906.87,-239.06 1916.46,-234.55 1906.15,-232.1 1906.87,-239.06"/>
</g>
<!-- Node3 -->
<g id="node3" class="node">
<title>Node3</title>
<g id="a_node3"><a xlink:href="a60-geo_8h.html" target="_top" xlink:title=" ">
<polygon fill="white" stroke="#666666" points="1254.5,-180.5 1196.5,-180.5 1196.5,-163.5 1254.5,-163.5 1254.5,-180.5"/>
<text text-anchor="middle" x="1225.5" y="-170.1" font-family="SourceSans" font-size="8.00">a60&#45;geo.h</text>
</a>
</g>
</g>
<!-- Node2&#45;&gt;Node3 -->
<g id="edge2" class="edge">
<title>Node2&#45;&gt;Node3</title>
<path fill="none" stroke="#63b8ff" d="M917.89,-225.56C972.81,-220.07 1089.71,-206.77 1186.5,-185 1188.69,-184.51 1190.94,-183.95 1193.19,-183.36"/>
<polygon fill="#63b8ff" stroke="#63b8ff" points="1194.31,-186.68 1202.97,-180.58 1192.4,-179.95 1194.31,-186.68"/>
</g>
<!-- Node29 -->
<g id="node29" class="node">
<title>Node29</title>
<g id="a_node29"><a xlink:href="a60-network-functions_8h.html" target="_top" xlink:title=" ">
<polygon fill="white" stroke="#666666" points="1390,-180.5 1273,-180.5 1273,-163.5 1390,-163.5 1390,-180.5"/>
<text text-anchor="middle" x="1331.5" y="-170.1" font-family="SourceSans" font-size="8.00">a60&#45;network&#45;functions.h</text>
</a>
</g>
</g>
<!-- Node2&#45;&gt;Node29 -->
<g id="edge31" class="edge">
<title>Node2&#45;&gt;Node29</title>
<path fill="none" stroke="#63b8ff" d="M917.86,-225.52C982.61,-219.23 1135.72,-203.63 1263.5,-185 1269.28,-184.16 1275.31,-183.2 1281.31,-182.21"/>
<polygon fill="#63b8ff" stroke="#63b8ff" points="1282.02,-185.63 1291.29,-180.51 1280.85,-178.73 1282.02,-185.63"/>
</g>
<!-- Node30 -->
<g id="node30" class="node">
<title>Node30</title>
<g id="a_node30"><a xlink:title=" ">
<polygon fill="#e0e0e0" stroke="#999999" points="1503,-180.5 1408,-180.5 1408,-163.5 1503,-163.5 1503,-180.5"/>
<text text-anchor="middle" x="1455.5" y="-170.1" font-family="SourceSans" font-size="8.00">libtorrent/entry.hpp</text>
</a>
</g>
</g>
<!-- Node2&#45;&gt;Node30 -->
<g id="edge32" class="edge">
<title>Node2&#45;&gt;Node30</title>
<path fill="none" stroke="#63b8ff" d="M917.53,-227.19C997.56,-223.53 1217.35,-211.66 1398.5,-185 1403.25,-184.3 1408.2,-183.45 1413.12,-182.52"/>
<polygon fill="#63b8ff" stroke="#63b8ff" points="1413.94,-185.93 1423.07,-180.55 1412.58,-179.06 1413.94,-185.93"/>
</g>
<!-- Node31 -->
<g id="node31" class="node">
<title>Node31</title>
<g id="a_node31"><a xlink:title=" ">
<polygon fill="#e0e0e0" stroke="#999999" points="1631.5,-180.5 1521.5,-180.5 1521.5,-163.5 1631.5,-163.5 1631.5,-180.5"/>
<text text-anchor="middle" x="1576.5" y="-170.1" font-family="SourceSans" font-size="8.00">libtorrent/bencode.hpp</text>
</a>
</g>
</g>
<!-- Node2&#45;&gt;Node31 -->
<g id="edge33" class="edge">
<title>Node2&#45;&gt;Node31</title>
<path fill="none" stroke="#63b8ff" d="M917.51,-227.58C1008.84,-224.62 1284.63,-213.74 1511.5,-185 1517.41,-184.25 1523.59,-183.31 1529.7,-182.29"/>
<polygon fill="#63b8ff" stroke="#63b8ff" points="1530.59,-185.69 1539.83,-180.52 1529.38,-178.8 1530.59,-185.69"/>
</g>
<!-- Node32 -->
<g id="node32" class="node">
<title>Node32</title>
<g id="a_node32"><a xlink:title=" ">
<polygon fill="#e0e0e0" stroke="#999999" points="101,-180.5 0,-180.5 0,-163.5 101,-163.5 101,-180.5"/>
<text text-anchor="middle" x="50.5" y="-170.1" font-family="SourceSans" font-size="8.00">libtorrent/torrent.hpp</text>
</a>
</g>
</g>
<!-- Node2&#45;&gt;Node32 -->
<g id="edge34" class="edge">
<title>Node2&#45;&gt;Node32</title>
<path fill="none" stroke="#63b8ff" d="M855.26,-228.37C749.83,-227.59 397.59,-222.16 109.5,-185 104.12,-184.31 98.5,-183.4 92.96,-182.4"/>
<polygon fill="#63b8ff" stroke="#63b8ff" points="93.61,-178.96 83.13,-180.51 92.29,-185.83 93.61,-178.96"/>
</g>
<!-- Node33 -->
<g id="node33" class="node">
<title>Node33</title>
<g id="a_node33"><a xlink:title=" ">
<polygon fill="#e0e0e0" stroke="#999999" points="202,-185 119,-185 119,-159 202,-159 202,-185"/>
<text text-anchor="start" x="127" y="-174.6" font-family="SourceSans" font-size="8.00">libtorrent/torrent</text>
<text text-anchor="middle" x="160.5" y="-165.6" font-family="SourceSans" font-size="8.00">_info.hpp</text>
</a>
</g>
</g>
<!-- Node2&#45;&gt;Node33 -->
<g id="edge35" class="edge">
<title>Node2&#45;&gt;Node33</title>
<path fill="none" stroke="#63b8ff" d="M855.3,-228.39C760.11,-227.64 464.95,-222.38 212.24,-185.07"/>
<polygon fill="#63b8ff" stroke="#63b8ff" points="212.54,-181.58 202.14,-183.56 211.51,-188.5 212.54,-181.58"/>
</g>
<!-- Node34 -->
<g id="node34" class="node">
<title>Node34</title>
<g id="a_node34"><a xlink:title=" ">
<polygon fill="#e0e0e0" stroke="#999999" points="303,-185 220,-185 220,-159 303,-159 303,-185"/>
<text text-anchor="start" x="228" y="-174.6" font-family="SourceSans" font-size="8.00">libtorrent/torrent</text>
<text text-anchor="middle" x="261.5" y="-165.6" font-family="SourceSans" font-size="8.00">_status.hpp</text>
</a>
</g>
</g>
<!-- Node2&#45;&gt;Node34 -->
<g id="edge36" class="edge">
<title>Node2&#45;&gt;Node34</title>
<path fill="none" stroke="#63b8ff" d="M855.2,-227.83C769.82,-225.66 525.72,-217.03 313.24,-184.9"/>
<polygon fill="#63b8ff" stroke="#63b8ff" points="313.56,-181.41 303.14,-183.36 312.5,-188.33 313.56,-181.41"/>
</g>
<!-- Node35 -->
<g id="node35" class="node">
<title>Node35</title>
<g id="a_node35"><a xlink:title=" ">
<polygon fill="#e0e0e0" stroke="#999999" points="433.5,-180.5 321.5,-180.5 321.5,-163.5 433.5,-163.5 433.5,-180.5"/>
<text text-anchor="middle" x="377.5" y="-170.1" font-family="SourceSans" font-size="8.00">libtorrent/peer_info.hpp</text>
</a>
</g>
</g>
<!-- Node2&#45;&gt;Node35 -->
<g id="edge37" class="edge">
<title>Node2&#45;&gt;Node35</title>
<path fill="none" stroke="#63b8ff" d="M855.44,-226.37C782.91,-221.19 596.85,-206.77 442.5,-185 436.96,-184.22 431.17,-183.3 425.43,-182.32"/>
<polygon fill="#63b8ff" stroke="#63b8ff" points="425.68,-178.81 415.22,-180.52 424.46,-185.71 425.68,-178.81"/>
</g>
<!-- Node36 -->
<g id="node36" class="node">
<title>Node36</title>
<g id="a_node36"><a xlink:title=" ">
<polygon fill="#e0e0e0" stroke="#999999" points="549.5,-185 451.5,-185 451.5,-159 549.5,-159 549.5,-185"/>
<text text-anchor="start" x="459.5" y="-174.6" font-family="SourceSans" font-size="8.00">libtorrent/announce</text>
<text text-anchor="middle" x="500.5" y="-165.6" font-family="SourceSans" font-size="8.00">_entry.hpp</text>
</a>
</g>
</g>
<!-- Node2&#45;&gt;Node36 -->
<g id="edge38" class="edge">
<title>Node2&#45;&gt;Node36</title>
<path fill="none" stroke="#63b8ff" d="M855.18,-225.11C798.35,-218.79 674.25,-204.24 559.51,-185.08"/>
<polygon fill="#63b8ff" stroke="#63b8ff" points="559.94,-181.61 549.5,-183.4 558.78,-188.51 559.94,-181.61"/>
</g>
<!-- Node37 -->
<g id="node37" class="node">
<title>Node37</title>
<g id="a_node37"><a xlink:title=" ">
<polygon fill="#e0e0e0" stroke="#999999" points="677.5,-180.5 567.5,-180.5 567.5,-163.5 677.5,-163.5 677.5,-180.5"/>
<text text-anchor="middle" x="622.5" y="-170.1" font-family="SourceSans" font-size="8.00">libtorrent/bdecode.hpp</text>
</a>
</g>
</g>
<!-- Node2&#45;&gt;Node37 -->
<g id="edge39" class="edge">
<title>Node2&#45;&gt;Node37</title>
<path fill="none" stroke="#63b8ff" d="M855.44,-221.97C809.21,-212.25 722.02,-193.92 668.42,-182.65"/>
<polygon fill="#63b8ff" stroke="#63b8ff" points="669,-179.2 658.49,-180.57 667.56,-186.05 669,-179.2"/>
</g>
<!-- Node38 -->
<g id="node38" class="node">
<title>Node38</title>
<g id="a_node38"><a xlink:title=" ">
<polygon fill="#e0e0e0" stroke="#999999" points="815.5,-180.5 695.5,-180.5 695.5,-163.5 815.5,-163.5 815.5,-180.5"/>
<text text-anchor="middle" x="755.5" y="-170.1" font-family="SourceSans" font-size="8.00">libtorrent/magnet_uri.hpp</text>
</a>
</g>
</g>
<!-- Node2&#45;&gt;Node38 -->
<g id="edge40" class="edge">
<title>Node2&#45;&gt;Node38</title>
<path fill="none" stroke="#63b8ff" d="M868.56,-220.9C846.32,-211.48 808.19,-195.32 782.43,-184.41"/>
<polygon fill="#63b8ff" stroke="#63b8ff" points="783.8,-181.19 773.22,-180.51 781.07,-187.63 783.8,-181.19"/>
</g>
<!-- Node39 -->
<g id="node39" class="node">
<title>Node39</title>
<g id="a_node39"><a xlink:title=" ">
<polygon fill="#e0e0e0" stroke="#999999" points="939.5,-180.5 833.5,-180.5 833.5,-163.5 939.5,-163.5 939.5,-180.5"/>
<text text-anchor="middle" x="886.5" y="-170.1" font-family="SourceSans" font-size="8.00">libtorrent/session.hpp</text>
</a>
</g>
</g>
<!-- Node2&#45;&gt;Node39 -->
<g id="edge41" class="edge">
<title>Node2&#45;&gt;Node39</title>
<path fill="none" stroke="#63b8ff" d="M886.5,-220.78C886.5,-213.08 886.5,-200.96 886.5,-190.86"/>
<polygon fill="#63b8ff" stroke="#63b8ff" points="890,-190.65 886.5,-180.65 883,-190.65 890,-190.65"/>
</g>
<!-- Node40 -->
<g id="node40" class="node">
<title>Node40</title>
<g id="a_node40"><a xlink:title=" ">
<polygon fill="#e0e0e0" stroke="#999999" points="1059,-185 958,-185 958,-159 1059,-159 1059,-185"/>
<text text-anchor="start" x="966" y="-174.6" font-family="SourceSans" font-size="8.00">libtorrent/extensions</text>
<text text-anchor="middle" x="1008.5" y="-165.6" font-family="SourceSans" font-size="8.00">/ut_metadata.hpp</text>
</a>
</g>
</g>
<!-- Node2&#45;&gt;Node40 -->
<g id="edge42" class="edge">
<title>Node2&#45;&gt;Node40</title>
<path fill="none" stroke="#63b8ff" d="M903.21,-220.9C920.99,-212.81 949.66,-199.77 972.6,-189.33"/>
<polygon fill="#63b8ff" stroke="#63b8ff" points="974.06,-192.51 981.71,-185.19 971.16,-186.14 974.06,-192.51"/>
</g>
<!-- Node41 -->
<g id="node41" class="node">
<title>Node41</title>
<g id="a_node41"><a xlink:title=" ">
<polygon fill="#e0e0e0" stroke="#999999" points="1178,-185 1077,-185 1077,-159 1178,-159 1178,-185"/>
<text text-anchor="start" x="1085" y="-174.6" font-family="SourceSans" font-size="8.00">libtorrent/extensions</text>
<text text-anchor="middle" x="1127.5" y="-165.6" font-family="SourceSans" font-size="8.00">/ut_pex.hpp</text>
</a>
</g>
</g>
<!-- Node2&#45;&gt;Node41 -->
<g id="edge43" class="edge">
<title>Node2&#45;&gt;Node41</title>
<path fill="none" stroke="#63b8ff" d="M917.51,-221.36C955.14,-212.69 1019.43,-197.89 1066.98,-186.94"/>
<polygon fill="#63b8ff" stroke="#63b8ff" points="1067.9,-190.32 1076.86,-184.66 1066.33,-183.5 1067.9,-190.32"/>
</g>
<!-- Node4 -->
<g id="node4" class="node">
<title>Node4</title>
<g id="a_node4"><a xlink:title=" ">
<polygon fill="#e0e0e0" stroke="#999999" points="803.5,-17 761.5,-17 761.5,0 803.5,0 803.5,-17"/>
<text text-anchor="middle" x="782.5" y="-6.6" font-family="SourceSans" font-size="8.00">cmath</text>
</a>
</g>
</g>
<!-- Node3&#45;&gt;Node4 -->
<g id="edge3" class="edge">
<title>Node3&#45;&gt;Node4</title>
<path fill="none" stroke="#63b8ff" d="M1201.19,-163.41C1196.33,-161.93 1191.26,-160.4 1186.5,-159 1129.38,-142.25 1113.78,-142.39 1057.5,-123 964.04,-90.8 856.62,-43.31 808.35,-21.39"/>
<polygon fill="#63b8ff" stroke="#63b8ff" points="809.53,-18.08 798.97,-17.11 806.62,-24.45 809.53,-18.08"/>
</g>
<!-- Node5 -->
<g id="node5" class="node">
<title>Node5</title>
<g id="a_node5"><a xlink:title=" ">
<polygon fill="#e0e0e0" stroke="#999999" points="851,-17 822,-17 822,0 851,0 851,-17"/>
<text text-anchor="middle" x="836.5" y="-6.6" font-family="SourceSans" font-size="8.00">set</text>
</a>
</g>
</g>
<!-- Node3&#45;&gt;Node5 -->
<g id="edge4" class="edge">
<title>Node3&#45;&gt;Node5</title>
<path fill="none" stroke="#63b8ff" d="M1204.08,-163.35C1178.55,-154.14 1134.68,-138.04 1097.5,-123 1051.36,-104.33 916.2,-44.75 860.71,-20.22"/>
<polygon fill="#63b8ff" stroke="#63b8ff" points="861.87,-16.91 851.31,-16.06 859.04,-23.31 861.87,-16.91"/>
</g>
<!-- Node6 -->
<g id="node6" class="node">
<title>Node6</title>
<g id="a_node6"><a xlink:title=" ">
<polygon fill="#e0e0e0" stroke="#999999" points="1326.5,-123 1268.5,-123 1268.5,-106 1326.5,-106 1326.5,-123"/>
<text text-anchor="middle" x="1297.5" y="-112.6" font-family="SourceSans" font-size="8.00">functional</text>
</a>
</g>
</g>
<!-- Node3&#45;&gt;Node6 -->
<g id="edge5" class="edge">
<title>Node3&#45;&gt;Node6</title>
<path fill="none" stroke="#63b8ff" d="M1235.51,-163.28C1246.9,-154.5 1265.73,-139.99 1279.65,-129.26"/>
<polygon fill="#63b8ff" stroke="#63b8ff" points="1281.79,-132.03 1287.57,-123.15 1277.52,-126.48 1281.79,-132.03"/>
</g>
<!-- Node7 -->
<g id="node7" class="node">
<title>Node7</title>
<g id="a_node7"><a xlink:title=" ">
<polygon fill="#e0e0e0" stroke="#999999" points="921.5,-17 869.5,-17 869.5,0 921.5,0 921.5,-17"/>
<text text-anchor="middle" x="895.5" y="-6.6" font-family="SourceSans" font-size="8.00">iostream</text>
</a>
</g>
</g>
<!-- Node3&#45;&gt;Node7 -->
<g id="edge6" class="edge">
<title>Node3&#45;&gt;Node7</title>
<path fill="none" stroke="#63b8ff" d="M1210.67,-163.39C1173.57,-144.39 1073.71,-93.52 989.5,-53 966.59,-41.98 940.32,-29.86 921.39,-21.23"/>
<polygon fill="#63b8ff" stroke="#63b8ff" points="922.76,-18.01 912.21,-17.05 919.86,-24.38 922.76,-18.01"/>
</g>
<!-- Node8 -->
<g id="node8" class="node">
<title>Node8</title>
<g id="a_node8"><a xlink:href="a60-io_8h.html" target="_top" xlink:title=" ">
<polygon fill="white" stroke="#666666" points="1250.5,-123 1200.5,-123 1200.5,-106 1250.5,-106 1250.5,-123"/>
<text text-anchor="middle" x="1225.5" y="-112.6" font-family="SourceSans" font-size="8.00">a60&#45;io.h</text>
</a>
</g>
</g>
<!-- Node3&#45;&gt;Node8 -->
<g id="edge7" class="edge">
<title>Node3&#45;&gt;Node8</title>
<path fill="none" stroke="#63b8ff" d="M1225.5,-163.28C1225.5,-155.58 1225.5,-143.46 1225.5,-133.36"/>
<polygon fill="#63b8ff" stroke="#63b8ff" points="1229,-133.15 1225.5,-123.15 1222,-133.15 1229,-133.15"/>
</g>
<!-- Node27 -->
<g id="node27" class="node">
<title>Node27</title>
<g id="a_node27"><a xlink:title=" ">
<polygon fill="#e0e0e0" stroke="#999999" points="1392,-123 1345,-123 1345,-106 1392,-106 1392,-123"/>
<text text-anchor="middle" x="1368.5" y="-112.6" font-family="SourceSans" font-size="8.00">GeoIP.h</text>
</a>
</g>
</g>
<!-- Node3&#45;&gt;Node27 -->
<g id="edge29" class="edge">
<title>Node3&#45;&gt;Node27</title>
<path fill="none" stroke="#63b8ff" d="M1245.08,-163.4C1269.47,-153.93 1311.35,-137.68 1339.47,-126.77"/>
<polygon fill="#63b8ff" stroke="#63b8ff" points="1341.1,-129.89 1349.15,-123.01 1338.56,-123.36 1341.1,-129.89"/>
</g>
<!-- Node28 -->
<g id="node28" class="node">
<title>Node28</title>
<g id="a_node28"><a xlink:title=" ">
<polygon fill="#e0e0e0" stroke="#999999" points="1472.5,-123 1410.5,-123 1410.5,-106 1472.5,-106 1472.5,-123"/>
<text text-anchor="middle" x="1441.5" y="-112.6" font-family="SourceSans" font-size="8.00">GeoIPCity.h</text>
</a>
</g>
</g>
<!-- Node3&#45;&gt;Node28 -->
<g id="edge30" class="edge">
<title>Node3&#45;&gt;Node28</title>
<path fill="none" stroke="#63b8ff" d="M1248.74,-163.39C1253.6,-161.88 1258.7,-160.34 1263.5,-159 1310.07,-145.97 1364.08,-133.08 1400.29,-124.76"/>
<polygon fill="#63b8ff" stroke="#63b8ff" points="1401.5,-128.07 1410.47,-122.43 1399.94,-121.25 1401.5,-128.07"/>
</g>
<!-- Node9 -->
<g id="node9" class="node">
<title>Node9</title>
<g id="a_node9"><a xlink:title=" ">
<polygon fill="#e0e0e0" stroke="#999999" points="1340,-70 1293,-70 1293,-53 1340,-53 1340,-70"/>
<text text-anchor="middle" x="1316.5" y="-59.6" font-family="SourceSans" font-size="8.00">fstream</text>
</a>
</g>
</g>
<!-- Node8&#45;&gt;Node9 -->
<g id="edge8" class="edge">
<title>Node8&#45;&gt;Node9</title>
<path fill="none" stroke="#63b8ff" d="M1238.93,-105.97C1253.44,-97.84 1276.82,-84.74 1294.13,-75.04"/>
<polygon fill="#63b8ff" stroke="#63b8ff" points="1296.01,-78 1303.02,-70.06 1292.58,-71.89 1296.01,-78"/>
</g>
<!-- Node10 -->
<g id="node10" class="node">
<title>Node10</title>
<g id="a_node10"><a xlink:title=" ">
<polygon fill="#e0e0e0" stroke="#999999" points="1473,-70 1358,-70 1358,-53 1473,-53 1473,-70"/>
<text text-anchor="middle" x="1415.5" y="-59.6" font-family="SourceSans" font-size="8.00">experimental/filesystem</text>
</a>
</g>
</g>
<!-- Node8&#45;&gt;Node10 -->
<g id="edge9" class="edge">
<title>Node8&#45;&gt;Node10</title>
<path fill="none" stroke="#63b8ff" d="M1250.73,-106.73C1283.12,-98.03 1339.61,-82.87 1377.29,-72.76"/>
<polygon fill="#63b8ff" stroke="#63b8ff" points="1378.63,-76.02 1387.38,-70.05 1376.81,-69.26 1378.63,-76.02"/>
</g>
<!-- Node11 -->
<g id="node11" class="node">
<title>Node11</title>
<g id="a_node11"><a xlink:title=" ">
<polygon fill="#e0e0e0" stroke="#999999" points="1547.5,-70 1491.5,-70 1491.5,-53 1547.5,-53 1547.5,-70"/>
<text text-anchor="middle" x="1519.5" y="-59.6" font-family="SourceSans" font-size="8.00">stdexcept</text>
</a>
</g>
</g>
<!-- Node8&#45;&gt;Node11 -->
<g id="edge10" class="edge">
<title>Node8&#45;&gt;Node11</title>
<path fill="none" stroke="#63b8ff" d="M1250.72,-107.77C1253.67,-107.15 1256.65,-106.54 1259.5,-106 1354.61,-87.81 1381.46,-87.67 1481.39,-69.95"/>
<polygon fill="#63b8ff" stroke="#63b8ff" points="1482.07,-73.38 1491.3,-68.18 1480.84,-66.49 1482.07,-73.38"/>
</g>
<!-- Node12 -->
<g id="node12" class="node">
<title>Node12</title>
<g id="a_node12"><a xlink:title=" ">
<polygon fill="#e0e0e0" stroke="#999999" points="1216.5,-70 1178.5,-70 1178.5,-53 1216.5,-53 1216.5,-70"/>
<text text-anchor="middle" x="1197.5" y="-59.6" font-family="SourceSans" font-size="8.00">regex</text>
</a>
</g>
</g>
<!-- Node8&#45;&gt;Node12 -->
<g id="edge11" class="edge">
<title>Node8&#45;&gt;Node12</title>
<path fill="none" stroke="#63b8ff" d="M1221.37,-105.97C1217.48,-98.89 1211.53,-88.05 1206.54,-78.96"/>
<polygon fill="#63b8ff" stroke="#63b8ff" points="1209.53,-77.14 1201.65,-70.06 1203.39,-80.51 1209.53,-77.14"/>
</g>
<!-- Node13 -->
<g id="node13" class="node">
<title>Node13</title>
<g id="a_node13"><a xlink:href="a60_8h.html" target="_top" xlink:title=" ">
<polygon fill="white" stroke="#666666" points="1274.5,-70 1234.5,-70 1234.5,-53 1274.5,-53 1274.5,-70"/>
<text text-anchor="middle" x="1254.5" y="-59.6" font-family="SourceSans" font-size="8.00">a60.h</text>
</a>
</g>
</g>
<!-- Node8&#45;&gt;Node13 -->
<g id="edge12" class="edge">
<title>Node8&#45;&gt;Node13</title>
<path fill="none" stroke="#63b8ff" d="M1229.78,-105.97C1233.81,-98.89 1239.97,-88.05 1245.14,-78.96"/>
<polygon fill="#63b8ff" stroke="#63b8ff" points="1248.3,-80.48 1250.2,-70.06 1242.22,-77.02 1248.3,-80.48"/>
</g>
<!-- Node13&#45;&gt;Node4 -->
<g id="edge13" class="edge">
<title>Node13&#45;&gt;Node4</title>
<path fill="none" stroke="#63b8ff" d="M1234.31,-54.82C1231.37,-54.13 1228.37,-53.49 1225.5,-53 1047.1,-22.37 996.01,-46.56 813.63,-16.89"/>
<polygon fill="#63b8ff" stroke="#63b8ff" points="814.16,-13.43 803.72,-15.25 813.01,-20.33 814.16,-13.43"/>
</g>
<!-- Node13&#45;&gt;Node5 -->
<g id="edge17" class="edge">
<title>Node13&#45;&gt;Node5</title>
<path fill="none" stroke="#63b8ff" d="M1234.31,-54.85C1231.37,-54.15 1228.37,-53.51 1225.5,-53 1068.29,-25.09 1022.13,-48.48 861.35,-16.66"/>
<polygon fill="#63b8ff" stroke="#63b8ff" points="861.59,-13.13 851.1,-14.58 860.21,-20 861.59,-13.13"/>
</g>
<!-- Node13&#45;&gt;Node7 -->
<g id="edge28" class="edge">
<title>Node13&#45;&gt;Node7</title>
<path fill="none" stroke="#63b8ff" d="M1234.3,-54.91C1231.36,-54.21 1228.36,-53.54 1225.5,-53 1098.89,-29.01 1062.53,-38.37 931.82,-17.06"/>
<polygon fill="#63b8ff" stroke="#63b8ff" points="932.26,-13.59 921.82,-15.41 931.12,-20.5 932.26,-13.59"/>
</g>
<!-- Node14 -->
<g id="node14" class="node">
<title>Node14</title>
<g id="a_node14"><a xlink:title=" ">
<polygon fill="#e0e0e0" stroke="#999999" points="1335.5,-17 1297.5,-17 1297.5,0 1335.5,0 1335.5,-17"/>
<text text-anchor="middle" x="1316.5" y="-6.6" font-family="SourceSans" font-size="8.00">tuple</text>
</a>
</g>
</g>
<!-- Node13&#45;&gt;Node14 -->
<g id="edge14" class="edge">
<title>Node13&#45;&gt;Node14</title>
<path fill="none" stroke="#63b8ff" d="M1263.65,-52.97C1272.99,-45.29 1287.72,-33.18 1299.25,-23.69"/>
<polygon fill="#63b8ff" stroke="#63b8ff" points="1301.81,-26.11 1307.31,-17.06 1297.37,-20.71 1301.81,-26.11"/>
</g>
<!-- Node15 -->
<g id="node15" class="node">
<title>Node15</title>
<g id="a_node15"><a xlink:title=" ">
<polygon fill="#e0e0e0" stroke="#999999" points="1393.5,-17 1353.5,-17 1353.5,0 1393.5,0 1393.5,-17"/>
<text text-anchor="middle" x="1373.5" y="-6.6" font-family="SourceSans" font-size="8.00">string</text>
</a>
</g>
</g>
<!-- Node13&#45;&gt;Node15 -->
<g id="edge15" class="edge">
<title>Node13&#45;&gt;Node15</title>
<path fill="none" stroke="#63b8ff" d="M1272.06,-52.97C1291.66,-44.58 1323.61,-30.88 1346.41,-21.11"/>
<polygon fill="#63b8ff" stroke="#63b8ff" points="1348.06,-24.21 1355.87,-17.06 1345.3,-17.78 1348.06,-24.21"/>
</g>
<!-- Node16 -->
<g id="node16" class="node">
<title>Node16</title>
<g id="a_node16"><a xlink:title=" ">
<polygon fill="#e0e0e0" stroke="#999999" points="1453.5,-17 1411.5,-17 1411.5,0 1453.5,0 1453.5,-17"/>
<text text-anchor="middle" x="1432.5" y="-6.6" font-family="SourceSans" font-size="8.00">vector</text>
</a>
</g>
</g>
<!-- Node13&#45;&gt;Node16 -->
<g id="edge16" class="edge">
<title>Node13&#45;&gt;Node16</title>
<path fill="none" stroke="#63b8ff" d="M1274.57,-54.75C1305.57,-45.87 1365.32,-28.75 1401.78,-18.3"/>
<polygon fill="#63b8ff" stroke="#63b8ff" points="1402.75,-21.66 1411.4,-15.55 1400.82,-14.94 1402.75,-21.66"/>
</g>
<!-- Node17 -->
<g id="node17" class="node">
<title>Node17</title>
<g id="a_node17"><a xlink:title=" ">
<polygon fill="#e0e0e0" stroke="#999999" points="1551.5,-17 1471.5,-17 1471.5,0 1551.5,0 1551.5,-17"/>
<text text-anchor="middle" x="1511.5" y="-6.6" font-family="SourceSans" font-size="8.00">unordered_map</text>
</a>
</g>
</g>
<!-- Node13&#45;&gt;Node17 -->
<g id="edge18" class="edge">
<title>Node13&#45;&gt;Node17</title>
<path fill="none" stroke="#63b8ff" d="M1274.74,-55.09C1277.67,-54.36 1280.66,-53.64 1283.5,-53 1344.36,-39.34 1414.98,-26.29 1461.31,-18.12"/>
<polygon fill="#63b8ff" stroke="#63b8ff" points="1462.14,-21.52 1471.39,-16.34 1460.93,-14.63 1462.14,-21.52"/>
</g>
<!-- Node18 -->
<g id="node18" class="node">
<title>Node18</title>
<g id="a_node18"><a xlink:title=" ">
<polygon fill="#e0e0e0" stroke="#999999" points="1645,-17 1570,-17 1570,0 1645,0 1645,-17"/>
<text text-anchor="middle" x="1607.5" y="-6.6" font-family="SourceSans" font-size="8.00">unordered_set</text>
</a>
</g>
</g>
<!-- Node13&#45;&gt;Node18 -->
<g id="edge19" class="edge">
<title>Node13&#45;&gt;Node18</title>
<path fill="none" stroke="#63b8ff" d="M1274.71,-54.93C1277.64,-54.22 1280.64,-53.55 1283.5,-53 1402.17,-30.03 1435.87,-34.52 1559.55,-17.08"/>
<polygon fill="#63b8ff" stroke="#63b8ff" points="1560.4,-20.49 1569.8,-15.61 1559.41,-13.57 1560.4,-20.49"/>
</g>
<!-- Node19 -->
<g id="node19" class="node">
<title>Node19</title>
<g id="a_node19"><a xlink:title=" ">
<polygon fill="#e0e0e0" stroke="#999999" points="1707.5,-17 1663.5,-17 1663.5,0 1707.5,0 1707.5,-17"/>
<text text-anchor="middle" x="1685.5" y="-6.6" font-family="SourceSans" font-size="8.00">chrono</text>
</a>
</g>
</g>
<!-- Node13&#45;&gt;Node19 -->
<g id="edge20" class="edge">
<title>Node13&#45;&gt;Node19</title>
<path fill="none" stroke="#63b8ff" d="M1274.69,-54.85C1277.63,-54.15 1280.63,-53.51 1283.5,-53 1443.02,-24.79 1488.71,-43.16 1653.22,-16.76"/>
<polygon fill="#63b8ff" stroke="#63b8ff" points="1653.89,-20.2 1663.2,-15.13 1652.76,-13.29 1653.89,-20.2"/>
</g>
<!-- Node20 -->
<g id="node20" class="node">
<title>Node20</title>
<g id="a_node20"><a xlink:title=" ">
<polygon fill="#e0e0e0" stroke="#999999" points="1775.5,-17 1725.5,-17 1725.5,0 1775.5,0 1775.5,-17"/>
<text text-anchor="middle" x="1750.5" y="-6.6" font-family="SourceSans" font-size="8.00">numeric</text>
</a>
</g>
</g>
<!-- Node13&#45;&gt;Node20 -->
<g id="edge21" class="edge">
<title>Node13&#45;&gt;Node20</title>
<path fill="none" stroke="#63b8ff" d="M1274.69,-54.81C1277.63,-54.12 1280.63,-53.49 1283.5,-53 1470.64,-21.26 1523.75,-45.02 1715.21,-16.96"/>
<polygon fill="#63b8ff" stroke="#63b8ff" points="1715.95,-20.39 1725.32,-15.45 1714.91,-13.47 1715.95,-20.39"/>
</g>
<!-- Node21 -->
<g id="node21" class="node">
<title>Node21</title>
<g id="a_node21"><a xlink:title=" ">
<polygon fill="#e0e0e0" stroke="#999999" points="1849.5,-17 1793.5,-17 1793.5,0 1849.5,0 1849.5,-17"/>
<text text-anchor="middle" x="1821.5" y="-6.6" font-family="SourceSans" font-size="8.00">algorithm</text>
</a>
</g>
</g>
<!-- Node13&#45;&gt;Node21 -->
<g id="edge22" class="edge">
<title>Node13&#45;&gt;Node21</title>
<path fill="none" stroke="#63b8ff" d="M1274.68,-54.78C1277.62,-54.09 1280.63,-53.47 1283.5,-53 1500.58,-17.43 1561.54,-46.36 1783.28,-16.96"/>
<polygon fill="#63b8ff" stroke="#63b8ff" points="1783.84,-20.42 1793.28,-15.61 1782.9,-13.48 1783.84,-20.42"/>
</g>
<!-- Node22 -->
<g id="node22" class="node">
<title>Node22</title>
<g id="a_node22"><a xlink:title=" ">
<polygon fill="#e0e0e0" stroke="#999999" points="1909,-17 1868,-17 1868,0 1909,0 1909,-17"/>
<text text-anchor="middle" x="1888.5" y="-6.6" font-family="SourceSans" font-size="8.00">locale</text>
</a>
</g>
</g>
<!-- Node13&#45;&gt;Node22 -->
<g id="edge23" class="edge">
<title>Node13&#45;&gt;Node22</title>
<path fill="none" stroke="#63b8ff" d="M1274.68,-54.76C1277.62,-54.07 1280.62,-53.46 1283.5,-53 1533.16,-13.27 1603.68,-55.12 1858.04,-16.69"/>
<polygon fill="#63b8ff" stroke="#63b8ff" points="1858.59,-20.14 1867.94,-15.16 1857.53,-13.22 1858.59,-20.14"/>
</g>
<!-- Node23 -->
<g id="node23" class="node">
<title>Node23</title>
<g id="a_node23"><a xlink:title=" ">
<polygon fill="#e0e0e0" stroke="#999999" points="989,-17 940,-17 940,0 989,0 989,-17"/>
<text text-anchor="middle" x="964.5" y="-6.6" font-family="SourceSans" font-size="8.00">codecvt</text>
</a>
</g>
</g>
<!-- Node13&#45;&gt;Node23 -->
<g id="edge24" class="edge">
<title>Node13&#45;&gt;Node23</title>
<path fill="none" stroke="#63b8ff" d="M1234.28,-55C1231.34,-54.28 1228.35,-53.59 1225.5,-53 1128.19,-32.78 1099.99,-36.14 999.3,-17.23"/>
<polygon fill="#63b8ff" stroke="#63b8ff" points="999.81,-13.76 989.33,-15.33 998.5,-20.64 999.81,-13.76"/>
</g>
<!-- Node24 -->
<g id="node24" class="node">
<title>Node24</title>
<g id="a_node24"><a xlink:title=" ">
<polygon fill="#e0e0e0" stroke="#999999" points="1144,-17 1007,-17 1007,0 1144,0 1144,-17"/>
<text text-anchor="middle" x="1075.5" y="-6.6" font-family="SourceSans" font-size="8.00">ext/codecvt_specializations.h</text>
</a>
</g>
</g>
<!-- Node13&#45;&gt;Node24 -->
<g id="edge25" class="edge">
<title>Node13&#45;&gt;Node24</title>
<path fill="none" stroke="#63b8ff" d="M1234.31,-54.75C1204.65,-46.3 1148.79,-30.38 1111.86,-19.86"/>
<polygon fill="#63b8ff" stroke="#63b8ff" points="1112.56,-16.42 1101.99,-17.05 1110.64,-23.15 1112.56,-16.42"/>
</g>
<!-- Node25 -->
<g id="node25" class="node">
<title>Node25</title>
<g id="a_node25"><a xlink:title=" ">
<polygon fill="#e0e0e0" stroke="#999999" points="1211,-17 1162,-17 1162,0 1211,0 1211,-17"/>
<text text-anchor="middle" x="1186.5" y="-6.6" font-family="SourceSans" font-size="8.00">sstream</text>
</a>
</g>
</g>
<!-- Node13&#45;&gt;Node25 -->
<g id="edge26" class="edge">
<title>Node13&#45;&gt;Node25</title>
<path fill="none" stroke="#63b8ff" d="M1244.47,-52.97C1234.02,-45.14 1217.43,-32.7 1204.67,-23.13"/>
<polygon fill="#63b8ff" stroke="#63b8ff" points="1206.67,-20.26 1196.57,-17.06 1202.47,-25.86 1206.67,-20.26"/>
</g>
<!-- Node26 -->
<g id="node26" class="node">
<title>Node26</title>
<g id="a_node26"><a xlink:title=" ">
<polygon fill="#e0e0e0" stroke="#999999" points="1279.5,-17 1229.5,-17 1229.5,0 1279.5,0 1279.5,-17"/>
<text text-anchor="middle" x="1254.5" y="-6.6" font-family="SourceSans" font-size="8.00">iomanip</text>
</a>
</g>
</g>
<!-- Node13&#45;&gt;Node26 -->
<g id="edge27" class="edge">
<title>Node13&#45;&gt;Node26</title>
<path fill="none" stroke="#63b8ff" d="M1254.5,-52.97C1254.5,-46.19 1254.5,-35.97 1254.5,-27.13"/>
<polygon fill="#63b8ff" stroke="#63b8ff" points="1258,-27.06 1254.5,-17.06 1251,-27.06 1258,-27.06"/>
</g>
<!-- Node43 -->
<g id="node43" class="node">
<title>Node43</title>
<g id="a_node43"><a xlink:title=" ">
<polygon fill="#e0e0e0" stroke="#999999" points="1761.5,-180.5 1649.5,-180.5 1649.5,-163.5 1761.5,-163.5 1761.5,-180.5"/>
<text text-anchor="middle" x="1705.5" y="-170.1" font-family="SourceSans" font-size="8.00">rapidjson/prettywriter.h</text>
</a>
</g>
</g>
<!-- Node42&#45;&gt;Node43 -->
<g id="edge45" class="edge">
<title>Node42&#45;&gt;Node43</title>
<path fill="none" stroke="#63b8ff" d="M1921.52,-220.96C1876.9,-211.05 1798.48,-193.64 1749.41,-182.75"/>
<polygon fill="#63b8ff" stroke="#63b8ff" points="1749.92,-179.28 1739.4,-180.53 1748.41,-186.11 1749.92,-179.28"/>
</g>
<!-- Node44 -->
<g id="node44" class="node">
<title>Node44</title>
<g id="a_node44"><a xlink:title=" ">
<polygon fill="#e0e0e0" stroke="#999999" points="1875,-180.5 1780,-180.5 1780,-163.5 1875,-163.5 1875,-180.5"/>
<text text-anchor="middle" x="1827.5" y="-170.1" font-family="SourceSans" font-size="8.00">rapidjson/pointer.h</text>
</a>
</g>
</g>
<!-- Node42&#45;&gt;Node44 -->
<g id="edge46" class="edge">
<title>Node42&#45;&gt;Node44</title>
<path fill="none" stroke="#63b8ff" d="M1937.97,-220.9C1916.33,-211.52 1879.31,-195.47 1854.15,-184.55"/>
<polygon fill="#63b8ff" stroke="#63b8ff" points="1855.38,-181.28 1844.82,-180.51 1852.6,-187.7 1855.38,-181.28"/>
</g>
<!-- Node45 -->
<g id="node45" class="node">
<title>Node45</title>
<g id="a_node45"><a xlink:title=" ">
<polygon fill="#e0e0e0" stroke="#999999" points="2017.5,-180.5 1893.5,-180.5 1893.5,-163.5 2017.5,-163.5 2017.5,-180.5"/>
<text text-anchor="middle" x="1955.5" y="-170.1" font-family="SourceSans" font-size="8.00">rapidjson/filereadstream.h</text>
</a>
</g>
</g>
<!-- Node42&#45;&gt;Node45 -->
<g id="edge47" class="edge">
<title>Node42&#45;&gt;Node45</title>
<path fill="none" stroke="#63b8ff" d="M1955.5,-220.78C1955.5,-213.08 1955.5,-200.96 1955.5,-190.86"/>
<polygon fill="#63b8ff" stroke="#63b8ff" points="1959,-190.65 1955.5,-180.65 1952,-190.65 1959,-190.65"/>
</g>
<!-- Node46 -->
<g id="node46" class="node">
<title>Node46</title>
<g id="a_node46"><a xlink:title=" ">
<polygon fill="#e0e0e0" stroke="#999999" points="2127.5,-180.5 2035.5,-180.5 2035.5,-163.5 2127.5,-163.5 2127.5,-180.5"/>
<text text-anchor="middle" x="2081.5" y="-170.1" font-family="SourceSans" font-size="8.00">rapidjson/reader.h</text>
</a>
</g>
</g>
<!-- Node42&#45;&gt;Node46 -->
<g id="edge48" class="edge">
<title>Node42&#45;&gt;Node46</title>
<path fill="none" stroke="#63b8ff" d="M1972.76,-220.9C1994.06,-211.52 2030.5,-195.47 2055.27,-184.55"/>
<polygon fill="#63b8ff" stroke="#63b8ff" points="2056.71,-187.74 2064.45,-180.51 2053.89,-181.34 2056.71,-187.74"/>
</g>
<!-- Node47 -->
<g id="node47" class="node">
<title>Node47</title>
<g id="a_node47"><a xlink:title=" ">
<polygon fill="#e0e0e0" stroke="#999999" points="2253,-180.5 2146,-180.5 2146,-163.5 2253,-163.5 2253,-180.5"/>
<text text-anchor="middle" x="2199.5" y="-170.1" font-family="SourceSans" font-size="8.00">rapidjson/document.h</text>
</a>
</g>
</g>
<!-- Node42&#45;&gt;Node47 -->
<g id="edge49" class="edge">
<title>Node42&#45;&gt;Node47</title>
<path fill="none" stroke="#63b8ff" d="M1988.66,-220.96C2032.21,-211.05 2108.75,-193.64 2156.65,-182.75"/>
<polygon fill="#63b8ff" stroke="#63b8ff" points="2157.44,-186.16 2166.41,-180.53 2155.88,-179.33 2157.44,-186.16"/>
</g>
<!-- Node48 -->
<g id="node48" class="node">
<title>Node48</title>
<g id="a_node48"><a xlink:title=" ">
<polygon fill="#e0e0e0" stroke="#999999" points="2369.5,-180.5 2271.5,-180.5 2271.5,-163.5 2369.5,-163.5 2369.5,-180.5"/>
<text text-anchor="middle" x="2320.5" y="-170.1" font-family="SourceSans" font-size="8.00">rapidjson/error/en.h</text>
</a>
</g>
</g>
<!-- Node42&#45;&gt;Node48 -->
<g id="edge50" class="edge">
<title>Node42&#45;&gt;Node48</title>
<path fill="none" stroke="#63b8ff" d="M1994.88,-223.73C2053.42,-216.46 2166.78,-201.67 2262.5,-185 2266.89,-184.24 2271.46,-183.39 2276.02,-182.5"/>
<polygon fill="#63b8ff" stroke="#63b8ff" points="2276.79,-185.92 2285.91,-180.53 2275.42,-179.05 2276.79,-185.92"/>
</g>
</g>
</svg>
