<?xml version="1.0" encoding="UTF-8" standalone="no"?>
<!DOCTYPE svg PUBLIC "-//W3C//DTD SVG 1.1//EN"
 "http://www.w3.org/Graphics/SVG/1.1/DTD/svg11.dtd">
<!-- Generated by graphviz version 5.0.0 (0)
 -->
<!-- Title: /home/bkoz/src/alpha60&#45;docs/src/a60&#45;svg&#45;collection&#45;glyphs.h Pages: 1 -->
<!--zoomable 379 -->
<svg id="main" version="1.1" xmlns="http://www.w3.org/2000/svg" xmlns:xlink="http://www.w3.org/1999/xlink" xml:space="preserve" onload="init(evt)">
<style type="text/css"><![CDATA[
.edge:hover path { stroke: red; }
.edge:hover polygon { stroke: red; fill: red; }
]]></style>
<script type="text/javascript"><![CDATA[
var edges = document.getElementsByTagName('g');
if (edges && edges.length) {
  for (var i=0;i<edges.length;i++) {
    if (edges[i].id.substr(0,4)=='edge') {
      edges[i].setAttribute('class','edge');
    }
  }
}
]]></script>
        <defs>
                <circle id="rim" cx="0" cy="0" r="7"/>
                <circle id="rim2" cx="0" cy="0" r="3.5"/>
                <g id="zoomPlus">
                        <use xlink:href="#rim" fill="#404040">
                                <set attributeName="fill" to="#808080" begin="zoomplus.mouseover" end="zoomplus.mouseout"/>
                        </use>
                        <path d="M-4,0h8M0,-4v8" fill="none" stroke="white" stroke-width="1.5" pointer-events="none"/>
                </g>
                <g id="zoomMin">
                        <use xlink:href="#rim" fill="#404040">
                                <set attributeName="fill" to="#808080" begin="zoomminus.mouseover" end="zoomminus.mouseout"/>
                        </use>
                        <path d="M-4,0h8" fill="none" stroke="white" stroke-width="1.5" pointer-events="none"/>
                </g>
                <g id="dirArrow">
                        <path fill="none" stroke="white" stroke-width="1.5" d="M0,-3.0v7 M-2.5,-0.5L0,-3.0L2.5,-0.5"/>
                </g>
               <g id="resetDef">
                       <use xlink:href="#rim2" fill="#404040">
                               <set attributeName="fill" to="#808080" begin="reset.mouseover" end="reset.mouseout"/>
                       </use>
               </g>
        </defs>

<script type="text/javascript">
var viewWidth = 1789;
var viewHeight = 379;
var sectionId = 'dynsection-0';
</script>
<script xlink:href="svgpan.js"/>
<svg id="graph" class="graph">
<g id="viewport">
<title>/home/bkoz/src/alpha60&#45;docs/src/a60&#45;svg&#45;collection&#45;glyphs.h</title>
<!-- Node1 -->
<g id="node1" class="node">
<title>Node1</title>
<g id="a_node1"><a xlink:title=" ">
<polygon fill="#999999" stroke="#666666" points="683.5,-371 564.5,-371 564.5,-336 683.5,-336 683.5,-371"/>
<text text-anchor="start" x="572.5" y="-360.6" font-family="SourceSans" font-size="8.00">/home/bkoz/src/alpha60</text>
<text text-anchor="start" x="572.5" y="-351.6" font-family="SourceSans" font-size="8.00">&#45;docs/src/a60&#45;svg&#45;collection</text>
<text text-anchor="middle" x="624" y="-342.6" font-family="SourceSans" font-size="8.00">&#45;glyphs.h</text>
</a>
</g>
</g>
<!-- Node2 -->
<g id="node2" class="node">
<title>Node2</title>
<g id="a_node2"><a xlink:href="a60-carto_8h.html" target="_top" xlink:title=" ">
<polygon fill="white" stroke="#666666" points="154.5,-189.5 95.5,-189.5 95.5,-172.5 154.5,-172.5 154.5,-189.5"/>
<text text-anchor="middle" x="125" y="-179.1" font-family="SourceSans" font-size="8.00">a60&#45;carto.h</text>
</a>
</g>
</g>
<!-- Node1&#45;&gt;Node2 -->
<g id="edge1" class="edge">
<title>Node1&#45;&gt;Node2</title>
<path fill="none" stroke="#63b8ff" d="M575.7,-336C474.28,-301.34 241.53,-221.82 156.69,-192.83"/>
<polygon fill="#63b8ff" stroke="#63b8ff" points="157.69,-189.47 147.09,-189.55 155.43,-196.09 157.69,-189.47"/>
</g>
<!-- Node33 -->
<g id="node33" class="node">
<title>Node33</title>
<g id="a_node33"><a xlink:href="a60-torrent_8h.html" target="_top" xlink:title=" ">
<polygon fill="white" stroke="#666666" points="919,-300 853,-300 853,-283 919,-283 919,-300"/>
<text text-anchor="middle" x="886" y="-289.6" font-family="SourceSans" font-size="8.00">a60&#45;torrent.h</text>
</a>
</g>
</g>
<!-- Node1&#45;&gt;Node33 -->
<g id="edge35" class="edge">
<title>Node1&#45;&gt;Node33</title>
<path fill="none" stroke="#63b8ff" d="M683.78,-338.81C732.44,-327.67 799.93,-312.21 843.29,-302.28"/>
<polygon fill="#63b8ff" stroke="#63b8ff" points="844.26,-305.65 853.23,-300.01 842.7,-298.83 844.26,-305.65"/>
</g>
<!-- Node3 -->
<g id="node3" class="node">
<title>Node3</title>
<g id="a_node3"><a xlink:title=" ">
<polygon fill="#e0e0e0" stroke="#999999" points="1398.5,-17 1357.5,-17 1357.5,0 1398.5,0 1398.5,-17"/>
<text text-anchor="middle" x="1378" y="-6.6" font-family="SourceSans" font-size="8.00">cmath</text>
</a>
</g>
</g>
<!-- Node2&#45;&gt;Node3 -->
<g id="edge2" class="edge">
<title>Node2&#45;&gt;Node3</title>
<path fill="none" stroke="#63b8ff" d="M145.66,-172.38C151.22,-170.63 157.27,-169 163,-168 565.25,-97.9 682.1,-219.19 1081,-132 1188.82,-108.43 1307.4,-48.11 1355.69,-21.94"/>
<polygon fill="#63b8ff" stroke="#63b8ff" points="1357.55,-24.91 1364.64,-17.03 1354.19,-18.77 1357.55,-24.91"/>
</g>
<!-- Node4 -->
<g id="node4" class="node">
<title>Node4</title>
<g id="a_node4"><a xlink:title=" ">
<polygon fill="#e0e0e0" stroke="#999999" points="1458.5,-17 1429.5,-17 1429.5,0 1458.5,0 1458.5,-17"/>
<text text-anchor="middle" x="1444" y="-6.6" font-family="SourceSans" font-size="8.00">set</text>
</a>
</g>
</g>
<!-- Node2&#45;&gt;Node4 -->
<g id="edge3" class="edge">
<title>Node2&#45;&gt;Node4</title>
<path fill="none" stroke="#63b8ff" d="M145.25,-172.45C150.92,-170.66 157.13,-168.98 163,-168 321.3,-141.57 1459.76,-195.86 1607,-132 1647.7,-114.35 1696.22,-87.23 1668,-53 1642.94,-22.61 1521.66,-13.18 1468.76,-10.49"/>
<polygon fill="#63b8ff" stroke="#63b8ff" points="1468.72,-6.99 1458.56,-10.01 1468.39,-13.98 1468.72,-6.99"/>
</g>
<!-- Node5 -->
<g id="node5" class="node">
<title>Node5</title>
<g id="a_node5"><a xlink:title=" ">
<polygon fill="#e0e0e0" stroke="#999999" points="1339,-127.5 1283,-127.5 1283,-110.5 1339,-110.5 1339,-127.5"/>
<text text-anchor="middle" x="1311" y="-117.1" font-family="SourceSans" font-size="8.00">functional</text>
</a>
</g>
</g>
<!-- Node2&#45;&gt;Node5 -->
<g id="edge4" class="edge">
<title>Node2&#45;&gt;Node5</title>
<path fill="none" stroke="#63b8ff" d="M145.26,-172.48C150.92,-170.69 157.14,-169 163,-168 638.57,-86.6 768.47,-185.3 1248,-132 1256.09,-131.1 1264.7,-129.74 1272.87,-128.25"/>
<polygon fill="#63b8ff" stroke="#63b8ff" points="1273.76,-131.64 1282.92,-126.31 1272.44,-124.77 1273.76,-131.64"/>
</g>
<!-- Node6 -->
<g id="node6" class="node">
<title>Node6</title>
<g id="a_node6"><a xlink:title=" ">
<polygon fill="#e0e0e0" stroke="#999999" points="516,-17 466,-17 466,0 516,0 516,-17"/>
<text text-anchor="middle" x="491" y="-6.6" font-family="SourceSans" font-size="8.00">iostream</text>
</a>
</g>
</g>
<!-- Node2&#45;&gt;Node6 -->
<g id="edge5" class="edge">
<title>Node2&#45;&gt;Node6</title>
<path fill="none" stroke="#63b8ff" d="M117.23,-172.36C103.65,-158.09 78.56,-126.93 95,-106 139.84,-48.92 367.14,-21.35 455.65,-12.65"/>
<polygon fill="#63b8ff" stroke="#63b8ff" points="456.12,-16.12 465.74,-11.68 455.45,-9.16 456.12,-16.12"/>
</g>
<!-- Node7 -->
<g id="node7" class="node">
<title>Node7</title>
<g id="a_node7"><a xlink:title=" ">
<polygon fill="#e0e0e0" stroke="#999999" points="145.5,-127.5 104.5,-127.5 104.5,-110.5 145.5,-110.5 145.5,-127.5"/>
<text text-anchor="middle" x="125" y="-117.1" font-family="SourceSans" font-size="8.00">mutex</text>
</a>
</g>
</g>
<!-- Node2&#45;&gt;Node7 -->
<g id="edge6" class="edge">
<title>Node2&#45;&gt;Node7</title>
<path fill="none" stroke="#63b8ff" d="M125,-172.16C125,-163.48 125,-149.23 125,-137.82"/>
<polygon fill="#63b8ff" stroke="#63b8ff" points="128.5,-137.66 125,-127.66 121.5,-137.66 128.5,-137.66"/>
</g>
<!-- Node8 -->
<g id="node8" class="node">
<title>Node8</title>
<g id="a_node8"><a xlink:title=" ">
<polygon fill="#e0e0e0" stroke="#999999" points="250,-127.5 164,-127.5 164,-110.5 250,-110.5 250,-127.5"/>
<text text-anchor="middle" x="207" y="-117.1" font-family="SourceSans" font-size="8.00">condition_variable</text>
</a>
</g>
</g>
<!-- Node2&#45;&gt;Node8 -->
<g id="edge7" class="edge">
<title>Node2&#45;&gt;Node8</title>
<path fill="none" stroke="#63b8ff" d="M135.39,-172.4C148.69,-162.66 172,-145.61 188.4,-133.61"/>
<polygon fill="#63b8ff" stroke="#63b8ff" points="190.7,-136.27 196.7,-127.54 186.56,-130.62 190.7,-136.27"/>
</g>
<!-- Node9 -->
<g id="node9" class="node">
<title>Node9</title>
<g id="a_node9"><a xlink:title=" ">
<polygon fill="#e0e0e0" stroke="#999999" points="339.5,-127.5 268.5,-127.5 268.5,-110.5 339.5,-110.5 339.5,-127.5"/>
<text text-anchor="middle" x="304" y="-117.1" font-family="SourceSans" font-size="8.00">shared_mutex</text>
</a>
</g>
</g>
<!-- Node2&#45;&gt;Node9 -->
<g id="edge8" class="edge">
<title>Node2&#45;&gt;Node9</title>
<path fill="none" stroke="#63b8ff" d="M147.67,-172.4C179.14,-161.85 236.23,-142.72 272.02,-130.72"/>
<polygon fill="#63b8ff" stroke="#63b8ff" points="273.14,-134.03 281.51,-127.54 270.92,-127.4 273.14,-134.03"/>
</g>
<!-- Node10 -->
<g id="node10" class="node">
<title>Node10</title>
<g id="a_node10"><a xlink:href="a60-io_8h.html" target="_top" xlink:title=" ">
<polygon fill="white" stroke="#666666" points="1071.5,-127.5 1024.5,-127.5 1024.5,-110.5 1071.5,-110.5 1071.5,-127.5"/>
<text text-anchor="middle" x="1048" y="-117.1" font-family="SourceSans" font-size="8.00">a60&#45;io.h</text>
</a>
</g>
</g>
<!-- Node2&#45;&gt;Node10 -->
<g id="edge9" class="edge">
<title>Node2&#45;&gt;Node10</title>
<path fill="none" stroke="#63b8ff" d="M145.67,-172.44C151.23,-170.69 157.28,-169.04 163,-168 184.32,-164.12 853.71,-129.88 1013.84,-121.74"/>
<polygon fill="#63b8ff" stroke="#63b8ff" points="1014.25,-125.22 1024.06,-121.22 1013.89,-118.23 1014.25,-125.22"/>
</g>
<!-- Node29 -->
<g id="node29" class="node">
<title>Node29</title>
<g id="a_node29"><a xlink:href="a60-carto-projection_8h.html" target="_top" xlink:title=" ">
<polygon fill="white" stroke="#666666" points="456.5,-127.5 357.5,-127.5 357.5,-110.5 456.5,-110.5 456.5,-127.5"/>
<text text-anchor="middle" x="407" y="-117.1" font-family="SourceSans" font-size="8.00">a60&#45;carto&#45;projection.h</text>
</a>
</g>
</g>
<!-- Node2&#45;&gt;Node29 -->
<g id="edge31" class="edge">
<title>Node2&#45;&gt;Node29</title>
<path fill="none" stroke="#63b8ff" d="M147.38,-172.47C152.48,-170.88 157.9,-169.3 163,-168 244.18,-147.35 265.85,-148.35 348,-132 351.92,-131.22 355.99,-130.4 360.08,-129.58"/>
<polygon fill="#63b8ff" stroke="#63b8ff" points="361.08,-132.95 370.19,-127.54 359.69,-126.09 361.08,-132.95"/>
</g>
<!-- Node30 -->
<g id="node30" class="node">
<title>Node30</title>
<g id="a_node30"><a xlink:href="a60-carto-projection-un_8h.html" target="_top" xlink:title=" ">
<polygon fill="white" stroke="#666666" points="587,-127.5 475,-127.5 475,-110.5 587,-110.5 587,-127.5"/>
<text text-anchor="middle" x="531" y="-117.1" font-family="SourceSans" font-size="8.00">a60&#45;carto&#45;projection&#45;un.h</text>
</a>
</g>
</g>
<!-- Node2&#45;&gt;Node30 -->
<g id="edge32" class="edge">
<title>Node2&#45;&gt;Node30</title>
<path fill="none" stroke="#63b8ff" d="M146.51,-172.44C151.85,-170.78 157.59,-169.17 163,-168 295.14,-139.52 331.33,-152.1 465,-132 470.47,-131.18 476.18,-130.25 481.86,-129.28"/>
<polygon fill="#63b8ff" stroke="#63b8ff" points="482.73,-132.68 491.98,-127.5 481.52,-125.78 482.73,-132.68"/>
</g>
<!-- Node31 -->
<g id="node31" class="node">
<title>Node31</title>
<g id="a_node31"><a xlink:href="a60-carto-projection-cahill-keyes_8h.html" target="_top" xlink:title=" ">
<polygon fill="white" stroke="#666666" points="697,-132 605,-132 605,-106 697,-106 697,-132"/>
<text text-anchor="start" x="613" y="-121.6" font-family="SourceSans" font-size="8.00">a60&#45;carto&#45;projection</text>
<text text-anchor="middle" x="651" y="-112.6" font-family="SourceSans" font-size="8.00">&#45;cahill&#45;keyes.h</text>
</a>
</g>
</g>
<!-- Node2&#45;&gt;Node31 -->
<g id="edge33" class="edge">
<title>Node2&#45;&gt;Node31</title>
<path fill="none" stroke="#63b8ff" d="M146.09,-172.42C151.53,-170.72 157.43,-169.1 163,-168 349.23,-131.33 403.19,-159.64 594.75,-132.02"/>
<polygon fill="#63b8ff" stroke="#63b8ff" points="595.49,-135.45 604.87,-130.53 594.46,-128.52 595.49,-135.45"/>
</g>
<!-- Node32 -->
<g id="node32" class="node">
<title>Node32</title>
<g id="a_node32"><a xlink:href="a60-carto-frame_8h.html" target="_top" xlink:title=" ">
<polygon fill="white" stroke="#666666" points="798.5,-127.5 715.5,-127.5 715.5,-110.5 798.5,-110.5 798.5,-127.5"/>
<text text-anchor="middle" x="757" y="-117.1" font-family="SourceSans" font-size="8.00">a60&#45;carto&#45;frame.h</text>
</a>
</g>
</g>
<!-- Node2&#45;&gt;Node32 -->
<g id="edge34" class="edge">
<title>Node2&#45;&gt;Node32</title>
<path fill="none" stroke="#63b8ff" d="M145.68,-172.48C151.23,-170.74 157.29,-169.07 163,-168 400.69,-123.26 466.8,-167.82 706,-132 710.2,-131.37 714.56,-130.57 718.89,-129.69"/>
<polygon fill="#63b8ff" stroke="#63b8ff" points="719.82,-133.07 728.84,-127.5 718.32,-126.23 719.82,-133.07"/>
</g>
<!-- Node11 -->
<g id="node11" class="node">
<title>Node11</title>
<g id="a_node11"><a xlink:title=" ">
<polygon fill="#e0e0e0" stroke="#999999" points="1659,-70 1613,-70 1613,-53 1659,-53 1659,-70"/>
<text text-anchor="middle" x="1636" y="-59.6" font-family="SourceSans" font-size="8.00">fstream</text>
</a>
</g>
</g>
<!-- Node10&#45;&gt;Node11 -->
<g id="edge10" class="edge">
<title>Node10&#45;&gt;Node11</title>
<path fill="none" stroke="#63b8ff" d="M1071.78,-115.76C1163.69,-107.08 1495.93,-75.72 1602.7,-65.64"/>
<polygon fill="#63b8ff" stroke="#63b8ff" points="1603.26,-69.11 1612.89,-64.68 1602.6,-62.14 1603.26,-69.11"/>
</g>
<!-- Node12 -->
<g id="node12" class="node">
<title>Node12</title>
<g id="a_node12"><a xlink:title=" ">
<polygon fill="#e0e0e0" stroke="#999999" points="1193,-70 1085,-70 1085,-53 1193,-53 1193,-70"/>
<text text-anchor="middle" x="1139" y="-59.6" font-family="SourceSans" font-size="8.00">experimental/filesystem</text>
</a>
</g>
</g>
<!-- Node10&#45;&gt;Node12 -->
<g id="edge11" class="edge">
<title>Node10&#45;&gt;Node12</title>
<path fill="none" stroke="#63b8ff" d="M1060.65,-110.28C1075.32,-101.34 1099.75,-86.44 1117.43,-75.66"/>
<polygon fill="#63b8ff" stroke="#63b8ff" points="1119.74,-78.35 1126.45,-70.15 1116.09,-72.37 1119.74,-78.35"/>
</g>
<!-- Node13 -->
<g id="node13" class="node">
<title>Node13</title>
<g id="a_node13"><a xlink:title=" ">
<polygon fill="#e0e0e0" stroke="#999999" points="1010.5,-70 957.5,-70 957.5,-53 1010.5,-53 1010.5,-70"/>
<text text-anchor="middle" x="984" y="-59.6" font-family="SourceSans" font-size="8.00">stdexcept</text>
</a>
</g>
</g>
<!-- Node10&#45;&gt;Node13 -->
<g id="edge12" class="edge">
<title>Node10&#45;&gt;Node13</title>
<path fill="none" stroke="#63b8ff" d="M1039.1,-110.28C1029.17,-101.67 1012.87,-87.54 1000.57,-76.87"/>
<polygon fill="#63b8ff" stroke="#63b8ff" points="1002.67,-74.06 992.82,-70.15 998.09,-79.35 1002.67,-74.06"/>
</g>
<!-- Node14 -->
<g id="node14" class="node">
<title>Node14</title>
<g id="a_node14"><a xlink:title=" ">
<polygon fill="#e0e0e0" stroke="#999999" points="1067,-70 1029,-70 1029,-53 1067,-53 1067,-70"/>
<text text-anchor="middle" x="1048" y="-59.6" font-family="SourceSans" font-size="8.00">regex</text>
</a>
</g>
</g>
<!-- Node10&#45;&gt;Node14 -->
<g id="edge13" class="edge">
<title>Node10&#45;&gt;Node14</title>
<path fill="none" stroke="#63b8ff" d="M1048,-110.28C1048,-102.58 1048,-90.46 1048,-80.36"/>
<polygon fill="#63b8ff" stroke="#63b8ff" points="1051.5,-80.15 1048,-70.15 1044.5,-80.15 1051.5,-80.15"/>
</g>
<!-- Node15 -->
<g id="node15" class="node">
<title>Node15</title>
<g id="a_node15"><a xlink:href="a60_8h.html" target="_top" xlink:title=" ">
<polygon fill="white" stroke="#666666" points="933,-70 895,-70 895,-53 933,-53 933,-70"/>
<text text-anchor="middle" x="914" y="-59.6" font-family="SourceSans" font-size="8.00">a60.h</text>
</a>
</g>
</g>
<!-- Node10&#45;&gt;Node15 -->
<g id="edge14" class="edge">
<title>Node10&#45;&gt;Node15</title>
<path fill="none" stroke="#63b8ff" d="M1029.65,-110.4C1006.89,-100.98 967.9,-84.82 941.55,-73.91"/>
<polygon fill="#63b8ff" stroke="#63b8ff" points="942.71,-70.6 932.13,-70.01 940.03,-77.07 942.71,-70.6"/>
</g>
<!-- Node15&#45;&gt;Node3 -->
<g id="edge15" class="edge">
<title>Node15&#45;&gt;Node3</title>
<path fill="none" stroke="#63b8ff" d="M933.18,-55.95C938.3,-54.86 943.84,-53.78 949,-53 1122.29,-26.73 1171.36,-46.7 1347.63,-16.94"/>
<polygon fill="#63b8ff" stroke="#63b8ff" points="1348.23,-20.39 1357.5,-15.24 1347.05,-13.49 1348.23,-20.39"/>
</g>
<!-- Node15&#45;&gt;Node4 -->
<g id="edge19" class="edge">
<title>Node15&#45;&gt;Node4</title>
<path fill="none" stroke="#63b8ff" d="M933.17,-55.91C938.29,-54.82 943.83,-53.75 949,-53 1151.49,-23.5 1205.43,-45.93 1408,-17 1411.65,-16.48 1415.48,-15.81 1419.24,-15.09"/>
<polygon fill="#63b8ff" stroke="#63b8ff" points="1420.28,-18.45 1429.36,-12.99 1418.86,-11.59 1420.28,-18.45"/>
</g>
<!-- Node15&#45;&gt;Node6 -->
<g id="edge30" class="edge">
<title>Node15&#45;&gt;Node6</title>
<path fill="none" stroke="#63b8ff" d="M894.88,-57.98C883.34,-56.48 868.33,-54.57 855,-53 711.77,-36.09 672.34,-40.7 526.42,-17.05"/>
<polygon fill="#63b8ff" stroke="#63b8ff" points="526.63,-13.54 516.19,-15.38 525.49,-20.45 526.63,-13.54"/>
</g>
<!-- Node16 -->
<g id="node16" class="node">
<title>Node16</title>
<g id="a_node16"><a xlink:title=" ">
<polygon fill="#e0e0e0" stroke="#999999" points="571.5,-17 534.5,-17 534.5,0 571.5,0 571.5,-17"/>
<text text-anchor="middle" x="553" y="-6.6" font-family="SourceSans" font-size="8.00">tuple</text>
</a>
</g>
</g>
<!-- Node15&#45;&gt;Node16 -->
<g id="edge16" class="edge">
<title>Node15&#45;&gt;Node16</title>
<path fill="none" stroke="#63b8ff" d="M894.62,-58.01C831.09,-49.86 630.73,-24.1 581.58,-16.69"/>
<polygon fill="#63b8ff" stroke="#63b8ff" points="581.95,-13.2 571.51,-15.01 580.8,-20.1 581.95,-13.2"/>
</g>
<!-- Node17 -->
<g id="node17" class="node">
<title>Node17</title>
<g id="a_node17"><a xlink:title=" ">
<polygon fill="#e0e0e0" stroke="#999999" points="628.5,-17 589.5,-17 589.5,0 628.5,0 628.5,-17"/>
<text text-anchor="middle" x="609" y="-6.6" font-family="SourceSans" font-size="8.00">string</text>
</a>
</g>
</g>
<!-- Node15&#45;&gt;Node17 -->
<g id="edge17" class="edge">
<title>Node15&#45;&gt;Node17</title>
<path fill="none" stroke="#63b8ff" d="M894.84,-57.76C843.49,-50.38 702.82,-29.89 638.52,-17.08"/>
<polygon fill="#63b8ff" stroke="#63b8ff" points="639.02,-13.61 628.52,-15.01 637.6,-20.46 639.02,-13.61"/>
</g>
<!-- Node18 -->
<g id="node18" class="node">
<title>Node18</title>
<g id="a_node18"><a xlink:title=" ">
<polygon fill="#e0e0e0" stroke="#999999" points="685.5,-17 646.5,-17 646.5,0 685.5,0 685.5,-17"/>
<text text-anchor="middle" x="666" y="-6.6" font-family="SourceSans" font-size="8.00">vector</text>
</a>
</g>
</g>
<!-- Node15&#45;&gt;Node18 -->
<g id="edge18" class="edge">
<title>Node15&#45;&gt;Node18</title>
<path fill="none" stroke="#63b8ff" d="M894.88,-57.08C858.3,-50.46 775.66,-35.12 695.84,-17.07"/>
<polygon fill="#63b8ff" stroke="#63b8ff" points="696.15,-13.55 685.62,-14.74 694.59,-20.37 696.15,-13.55"/>
</g>
<!-- Node19 -->
<g id="node19" class="node">
<title>Node19</title>
<g id="a_node19"><a xlink:title=" ">
<polygon fill="#e0e0e0" stroke="#999999" points="782,-17 704,-17 704,0 782,0 782,-17"/>
<text text-anchor="middle" x="743" y="-6.6" font-family="SourceSans" font-size="8.00">unordered_map</text>
</a>
</g>
</g>
<!-- Node15&#45;&gt;Node19 -->
<g id="edge20" class="edge">
<title>Node15&#45;&gt;Node19</title>
<path fill="none" stroke="#63b8ff" d="M894.72,-54.75C866.49,-46.33 813.47,-30.52 778.19,-20"/>
<polygon fill="#63b8ff" stroke="#63b8ff" points="778.88,-16.55 768.3,-17.05 776.88,-23.26 778.88,-16.55"/>
</g>
<!-- Node20 -->
<g id="node20" class="node">
<title>Node20</title>
<g id="a_node20"><a xlink:title=" ">
<polygon fill="#e0e0e0" stroke="#999999" points="872,-17 800,-17 800,0 872,0 872,-17"/>
<text text-anchor="middle" x="836" y="-6.6" font-family="SourceSans" font-size="8.00">unordered_set</text>
</a>
</g>
</g>
<!-- Node15&#45;&gt;Node20 -->
<g id="edge21" class="edge">
<title>Node15&#45;&gt;Node20</title>
<path fill="none" stroke="#63b8ff" d="M902.49,-52.97C890.28,-44.99 870.75,-32.22 856.01,-22.58"/>
<polygon fill="#63b8ff" stroke="#63b8ff" points="857.84,-19.6 847.56,-17.06 854.01,-25.46 857.84,-19.6"/>
</g>
<!-- Node21 -->
<g id="node21" class="node">
<title>Node21</title>
<g id="a_node21"><a xlink:title=" ">
<polygon fill="#e0e0e0" stroke="#999999" points="102.5,-17 59.5,-17 59.5,0 102.5,0 102.5,-17"/>
<text text-anchor="middle" x="81" y="-6.6" font-family="SourceSans" font-size="8.00">chrono</text>
</a>
</g>
</g>
<!-- Node15&#45;&gt;Node21 -->
<g id="edge22" class="edge">
<title>Node15&#45;&gt;Node21</title>
<path fill="none" stroke="#63b8ff" d="M894.64,-59.31C785.71,-52.65 249.34,-19.81 112.71,-11.44"/>
<polygon fill="#63b8ff" stroke="#63b8ff" points="112.7,-7.93 102.51,-10.82 112.28,-14.92 112.7,-7.93"/>
</g>
<!-- Node22 -->
<g id="node22" class="node">
<title>Node22</title>
<g id="a_node22"><a xlink:title=" ">
<polygon fill="#e0e0e0" stroke="#999999" points="938,-17 890,-17 890,0 938,0 938,-17"/>
<text text-anchor="middle" x="914" y="-6.6" font-family="SourceSans" font-size="8.00">numeric</text>
</a>
</g>
</g>
<!-- Node15&#45;&gt;Node22 -->
<g id="edge23" class="edge">
<title>Node15&#45;&gt;Node22</title>
<path fill="none" stroke="#63b8ff" d="M914,-52.97C914,-46.19 914,-35.97 914,-27.13"/>
<polygon fill="#63b8ff" stroke="#63b8ff" points="917.5,-27.06 914,-17.06 910.5,-27.06 917.5,-27.06"/>
</g>
<!-- Node23 -->
<g id="node23" class="node">
<title>Node23</title>
<g id="a_node23"><a xlink:title=" ">
<polygon fill="#e0e0e0" stroke="#999999" points="1010,-17 956,-17 956,0 1010,0 1010,-17"/>
<text text-anchor="middle" x="983" y="-6.6" font-family="SourceSans" font-size="8.00">algorithm</text>
</a>
</g>
</g>
<!-- Node15&#45;&gt;Node23 -->
<g id="edge24" class="edge">
<title>Node15&#45;&gt;Node23</title>
<path fill="none" stroke="#63b8ff" d="M924.18,-52.97C934.78,-45.14 951.61,-32.7 964.56,-23.13"/>
<polygon fill="#63b8ff" stroke="#63b8ff" points="966.82,-25.81 972.78,-17.06 962.65,-20.19 966.82,-25.81"/>
</g>
<!-- Node24 -->
<g id="node24" class="node">
<title>Node24</title>
<g id="a_node24"><a xlink:title=" ">
<polygon fill="#e0e0e0" stroke="#999999" points="1066,-17 1028,-17 1028,0 1066,0 1066,-17"/>
<text text-anchor="middle" x="1047" y="-6.6" font-family="SourceSans" font-size="8.00">locale</text>
</a>
</g>
</g>
<!-- Node15&#45;&gt;Node24 -->
<g id="edge25" class="edge">
<title>Node15&#45;&gt;Node24</title>
<path fill="none" stroke="#63b8ff" d="M933.06,-53.19C955.38,-44.63 992.58,-30.37 1018.37,-20.48"/>
<polygon fill="#63b8ff" stroke="#63b8ff" points="1019.9,-23.64 1027.98,-16.79 1017.39,-17.11 1019.9,-23.64"/>
</g>
<!-- Node25 -->
<g id="node25" class="node">
<title>Node25</title>
<g id="a_node25"><a xlink:title=" ">
<polygon fill="#e0e0e0" stroke="#999999" points="1129.5,-17 1084.5,-17 1084.5,0 1129.5,0 1129.5,-17"/>
<text text-anchor="middle" x="1107" y="-6.6" font-family="SourceSans" font-size="8.00">codecvt</text>
</a>
</g>
</g>
<!-- Node15&#45;&gt;Node25 -->
<g id="edge26" class="edge">
<title>Node15&#45;&gt;Node25</title>
<path fill="none" stroke="#63b8ff" d="M933.21,-55.42C966.19,-46.71 1033.93,-28.81 1074.41,-18.11"/>
<polygon fill="#63b8ff" stroke="#63b8ff" points="1075.54,-21.43 1084.32,-15.49 1073.75,-14.67 1075.54,-21.43"/>
</g>
<!-- Node26 -->
<g id="node26" class="node">
<title>Node26</title>
<g id="a_node26"><a xlink:title=" ">
<polygon fill="#e0e0e0" stroke="#999999" points="1274.5,-17 1147.5,-17 1147.5,0 1274.5,0 1274.5,-17"/>
<text text-anchor="middle" x="1211" y="-6.6" font-family="SourceSans" font-size="8.00">ext/codecvt_specializations.h</text>
</a>
</g>
</g>
<!-- Node15&#45;&gt;Node26 -->
<g id="edge27" class="edge">
<title>Node15&#45;&gt;Node26</title>
<path fill="none" stroke="#63b8ff" d="M933.22,-56.21C938.34,-55.12 943.87,-53.97 949,-53 1018.15,-39.86 1098,-26.92 1151.19,-18.62"/>
<polygon fill="#63b8ff" stroke="#63b8ff" points="1151.79,-22.07 1161.14,-17.07 1150.72,-15.15 1151.79,-22.07"/>
</g>
<!-- Node27 -->
<g id="node27" class="node">
<title>Node27</title>
<g id="a_node27"><a xlink:title=" ">
<polygon fill="#e0e0e0" stroke="#999999" points="1339.5,-17 1292.5,-17 1292.5,0 1339.5,0 1339.5,-17"/>
<text text-anchor="middle" x="1316" y="-6.6" font-family="SourceSans" font-size="8.00">sstream</text>
</a>
</g>
</g>
<!-- Node15&#45;&gt;Node27 -->
<g id="edge28" class="edge">
<title>Node15&#45;&gt;Node27</title>
<path fill="none" stroke="#63b8ff" d="M933.19,-56.01C938.31,-54.92 943.85,-53.83 949,-53 1093.68,-29.79 1134.63,-41.6 1282.41,-17.07"/>
<polygon fill="#63b8ff" stroke="#63b8ff" points="1283.02,-20.51 1292.3,-15.4 1281.86,-13.61 1283.02,-20.51"/>
</g>
<!-- Node28 -->
<g id="node28" class="node">
<title>Node28</title>
<g id="a_node28"><a xlink:title=" ">
<polygon fill="#e0e0e0" stroke="#999999" points="355,-17 307,-17 307,0 355,0 355,-17"/>
<text text-anchor="middle" x="331" y="-6.6" font-family="SourceSans" font-size="8.00">iomanip</text>
</a>
</g>
</g>
<!-- Node15&#45;&gt;Node28 -->
<g id="edge29" class="edge">
<title>Node15&#45;&gt;Node28</title>
<path fill="none" stroke="#63b8ff" d="M894.93,-58.83C811.09,-51.5 474.45,-22.05 365.33,-12.5"/>
<polygon fill="#63b8ff" stroke="#63b8ff" points="365.47,-9 355.2,-11.62 364.86,-15.98 365.47,-9"/>
</g>
<!-- Node33&#45;&gt;Node11 -->
<g id="edge38" class="edge">
<title>Node33&#45;&gt;Node11</title>
<path fill="none" stroke="#63b8ff" d="M919.2,-289.44C1073.09,-284.2 1712.02,-258.65 1770,-194 1811.92,-147.25 1714.86,-96.39 1664.25,-74.08"/>
<polygon fill="#63b8ff" stroke="#63b8ff" points="1665.38,-70.75 1654.81,-70.01 1662.6,-77.18 1665.38,-70.75"/>
</g>
<!-- Node33&#45;&gt;Node21 -->
<g id="edge41" class="edge">
<title>Node33&#45;&gt;Node21</title>
<path fill="none" stroke="#63b8ff" d="M852.82,-290.21C726.79,-288.87 277.92,-281.7 140,-247 73.47,-230.26 0,-250.6 0,-182 0,-182 0,-182 0,-118 0,-77.17 37.28,-41.81 61.26,-23.28"/>
<polygon fill="#63b8ff" stroke="#63b8ff" points="63.45,-26.01 69.39,-17.24 59.28,-20.39 63.45,-26.01"/>
</g>
<!-- Node33&#45;&gt;Node28 -->
<g id="edge39" class="edge">
<title>Node33&#45;&gt;Node28</title>
<path fill="none" stroke="#63b8ff" d="M852.76,-289.81C695.97,-286.12 38,-265.67 38,-182 38,-182 38,-182 38,-118 38,-63.47 218.7,-27.67 296.29,-14.82"/>
<polygon fill="#63b8ff" stroke="#63b8ff" points="297.21,-18.21 306.52,-13.15 296.09,-11.3 297.21,-18.21"/>
</g>
<!-- Node34 -->
<g id="node34" class="node">
<title>Node34</title>
<g id="a_node34"><a xlink:title=" ">
<polygon fill="#e0e0e0" stroke="#999999" points="947.5,-247 896.5,-247 896.5,-230 947.5,-230 947.5,-247"/>
<text text-anchor="middle" x="922" y="-236.6" font-family="SourceSans" font-size="8.00">cinttypes</text>
</a>
</g>
</g>
<!-- Node33&#45;&gt;Node34 -->
<g id="edge36" class="edge">
<title>Node33&#45;&gt;Node34</title>
<path fill="none" stroke="#63b8ff" d="M891.31,-282.97C896.42,-275.74 904.29,-264.59 910.79,-255.39"/>
<polygon fill="#63b8ff" stroke="#63b8ff" points="913.76,-257.24 916.67,-247.06 908.04,-253.21 913.76,-257.24"/>
</g>
<!-- Node35 -->
<g id="node35" class="node">
<title>Node35</title>
<g id="a_node35"><a xlink:title=" ">
<polygon fill="#e0e0e0" stroke="#999999" points="1004,-247 966,-247 966,-230 1004,-230 1004,-247"/>
<text text-anchor="middle" x="985" y="-236.6" font-family="SourceSans" font-size="8.00">ctime</text>
</a>
</g>
</g>
<!-- Node33&#45;&gt;Node35 -->
<g id="edge37" class="edge">
<title>Node33&#45;&gt;Node35</title>
<path fill="none" stroke="#63b8ff" d="M900.61,-282.97C916.62,-274.73 942.54,-261.37 961.44,-251.64"/>
<polygon fill="#63b8ff" stroke="#63b8ff" points="963.05,-254.75 970.33,-247.06 959.84,-248.52 963.05,-254.75"/>
</g>
<!-- Node36 -->
<g id="node36" class="node">
<title>Node36</title>
<g id="a_node36"><a xlink:title=" ">
<polygon fill="#e0e0e0" stroke="#999999" points="1064,-247 1022,-247 1022,-230 1064,-230 1064,-247"/>
<text text-anchor="middle" x="1043" y="-236.6" font-family="SourceSans" font-size="8.00">thread</text>
</a>
</g>
</g>
<!-- Node33&#45;&gt;Node36 -->
<g id="edge40" class="edge">
<title>Node33&#45;&gt;Node36</title>
<path fill="none" stroke="#63b8ff" d="M909.17,-282.97C936.45,-274.11 981.87,-259.36 1012.12,-249.53"/>
<polygon fill="#63b8ff" stroke="#63b8ff" points="1013.33,-252.82 1021.75,-246.4 1011.16,-246.16 1013.33,-252.82"/>
</g>
<!-- Node37 -->
<g id="node37" class="node">
<title>Node37</title>
<g id="a_node37"><a xlink:href="a60-peer_8h.html" target="_top" xlink:title=" ">
<polygon fill="white" stroke="#666666" points="878,-247 822,-247 822,-230 878,-230 878,-247"/>
<text text-anchor="middle" x="850" y="-236.6" font-family="SourceSans" font-size="8.00">a60&#45;peer.h</text>
</a>
</g>
</g>
<!-- Node33&#45;&gt;Node37 -->
<g id="edge42" class="edge">
<title>Node33&#45;&gt;Node37</title>
<path fill="none" stroke="#63b8ff" d="M880.69,-282.97C875.58,-275.74 867.71,-264.59 861.21,-255.39"/>
<polygon fill="#63b8ff" stroke="#63b8ff" points="863.96,-253.21 855.33,-247.06 858.24,-257.24 863.96,-253.21"/>
</g>
<!-- Node38 -->
<g id="node38" class="node">
<title>Node38</title>
<g id="a_node38"><a xlink:href="a60-geo_8h.html" target="_top" xlink:title=" ">
<polygon fill="white" stroke="#666666" points="1522,-189.5 1468,-189.5 1468,-172.5 1522,-172.5 1522,-189.5"/>
<text text-anchor="middle" x="1495" y="-179.1" font-family="SourceSans" font-size="8.00">a60&#45;geo.h</text>
</a>
</g>
</g>
<!-- Node37&#45;&gt;Node38 -->
<g id="edge43" class="edge">
<title>Node37&#45;&gt;Node38</title>
<path fill="none" stroke="#63b8ff" d="M878.15,-231.51C881.46,-230.94 884.8,-230.41 888,-230 1140.17,-197.31 1209.41,-242.61 1459,-194 1461.21,-193.57 1463.46,-193.04 1465.72,-192.45"/>
<polygon fill="#63b8ff" stroke="#63b8ff" points="1466.86,-195.76 1475.44,-189.54 1464.86,-189.05 1466.86,-195.76"/>
</g>
<!-- Node41 -->
<g id="node41" class="node">
<title>Node41</title>
<g id="a_node41"><a xlink:href="a60-network-functions_8h.html" target="_top" xlink:title=" ">
<polygon fill="white" stroke="#666666" points="1649.5,-189.5 1540.5,-189.5 1540.5,-172.5 1649.5,-172.5 1649.5,-189.5"/>
<text text-anchor="middle" x="1595" y="-179.1" font-family="SourceSans" font-size="8.00">a60&#45;network&#45;functions.h</text>
</a>
</g>
</g>
<!-- Node37&#45;&gt;Node41 -->
<g id="edge51" class="edge">
<title>Node37&#45;&gt;Node41</title>
<path fill="none" stroke="#63b8ff" d="M878.15,-231.49C881.46,-230.92 884.8,-230.4 888,-230 1171.98,-194.2 1246.85,-228.45 1531,-194 1536.9,-193.29 1543.07,-192.36 1549.15,-191.34"/>
<polygon fill="#63b8ff" stroke="#63b8ff" points="1550.01,-194.74 1559.25,-189.55 1548.79,-187.85 1550.01,-194.74"/>
</g>
<!-- Node42 -->
<g id="node42" class="node">
<title>Node42</title>
<g id="a_node42"><a xlink:title=" ">
<polygon fill="#e0e0e0" stroke="#999999" points="1760.5,-189.5 1667.5,-189.5 1667.5,-172.5 1760.5,-172.5 1760.5,-189.5"/>
<text text-anchor="middle" x="1714" y="-179.1" font-family="SourceSans" font-size="8.00">libtorrent/entry.hpp</text>
</a>
</g>
</g>
<!-- Node37&#45;&gt;Node42 -->
<g id="edge52" class="edge">
<title>Node37&#45;&gt;Node42</title>
<path fill="none" stroke="#63b8ff" d="M878.15,-231.46C881.46,-230.9 884.8,-230.39 888,-230 1228.54,-188.67 1318.89,-238.72 1659,-194 1663.83,-193.36 1668.87,-192.52 1673.85,-191.58"/>
<polygon fill="#63b8ff" stroke="#63b8ff" points="1674.8,-194.95 1683.9,-189.52 1673.4,-188.09 1674.8,-194.95"/>
</g>
<!-- Node43 -->
<g id="node43" class="node">
<title>Node43</title>
<g id="a_node43"><a xlink:title=" ">
<polygon fill="#e0e0e0" stroke="#999999" points="279.5,-189.5 172.5,-189.5 172.5,-172.5 279.5,-172.5 279.5,-189.5"/>
<text text-anchor="middle" x="226" y="-179.1" font-family="SourceSans" font-size="8.00">libtorrent/bencode.hpp</text>
</a>
</g>
</g>
<!-- Node37&#45;&gt;Node43 -->
<g id="edge53" class="edge">
<title>Node37&#45;&gt;Node43</title>
<path fill="none" stroke="#63b8ff" d="M821.87,-236.42C739.58,-233.03 492.34,-221.16 289,-194 283.48,-193.26 277.72,-192.36 272.01,-191.37"/>
<polygon fill="#63b8ff" stroke="#63b8ff" points="272.33,-187.88 261.87,-189.54 271.09,-194.76 272.33,-187.88"/>
</g>
<!-- Node44 -->
<g id="node44" class="node">
<title>Node44</title>
<g id="a_node44"><a xlink:title=" ">
<polygon fill="#e0e0e0" stroke="#999999" points="398,-189.5 298,-189.5 298,-172.5 398,-172.5 398,-189.5"/>
<text text-anchor="middle" x="348" y="-179.1" font-family="SourceSans" font-size="8.00">libtorrent/torrent.hpp</text>
</a>
</g>
</g>
<!-- Node37&#45;&gt;Node44 -->
<g id="edge54" class="edge">
<title>Node37&#45;&gt;Node44</title>
<path fill="none" stroke="#63b8ff" d="M821.89,-235.75C751.64,-231.15 562.9,-217.44 407,-194 402.15,-193.27 397.1,-192.41 392.08,-191.48"/>
<polygon fill="#63b8ff" stroke="#63b8ff" points="392.38,-187.97 381.9,-189.52 391.06,-194.85 392.38,-187.97"/>
</g>
<!-- Node45 -->
<g id="node45" class="node">
<title>Node45</title>
<g id="a_node45"><a xlink:title=" ">
<polygon fill="#e0e0e0" stroke="#999999" points="498,-194 416,-194 416,-168 498,-168 498,-194"/>
<text text-anchor="start" x="424" y="-183.6" font-family="SourceSans" font-size="8.00">libtorrent/torrent</text>
<text text-anchor="middle" x="457" y="-174.6" font-family="SourceSans" font-size="8.00">_info.hpp</text>
</a>
</g>
</g>
<!-- Node37&#45;&gt;Node45 -->
<g id="edge55" class="edge">
<title>Node37&#45;&gt;Node45</title>
<path fill="none" stroke="#63b8ff" d="M821.83,-234.98C764.57,-229.64 630.35,-215.96 508.03,-194.05"/>
<polygon fill="#63b8ff" stroke="#63b8ff" points="508.59,-190.59 498.12,-192.25 507.34,-197.48 508.59,-190.59"/>
</g>
<!-- Node46 -->
<g id="node46" class="node">
<title>Node46</title>
<g id="a_node46"><a xlink:title=" ">
<polygon fill="#e0e0e0" stroke="#999999" points="598,-194 516,-194 516,-168 598,-168 598,-194"/>
<text text-anchor="start" x="524" y="-183.6" font-family="SourceSans" font-size="8.00">libtorrent/torrent</text>
<text text-anchor="middle" x="557" y="-174.6" font-family="SourceSans" font-size="8.00">_status.hpp</text>
</a>
</g>
</g>
<!-- Node37&#45;&gt;Node46 -->
<g id="edge56" class="edge">
<title>Node37&#45;&gt;Node46</title>
<path fill="none" stroke="#63b8ff" d="M821.83,-233.01C778.18,-225.92 691.34,-211.37 608.03,-194.14"/>
<polygon fill="#63b8ff" stroke="#63b8ff" points="608.66,-190.69 598.16,-192.08 607.23,-197.55 608.66,-190.69"/>
</g>
<!-- Node47 -->
<g id="node47" class="node">
<title>Node47</title>
<g id="a_node47"><a xlink:title=" ">
<polygon fill="#e0e0e0" stroke="#999999" points="726,-189.5 616,-189.5 616,-172.5 726,-172.5 726,-189.5"/>
<text text-anchor="middle" x="671" y="-179.1" font-family="SourceSans" font-size="8.00">libtorrent/peer_info.hpp</text>
</a>
</g>
</g>
<!-- Node37&#45;&gt;Node47 -->
<g id="edge57" class="edge">
<title>Node37&#45;&gt;Node47</title>
<path fill="none" stroke="#63b8ff" d="M825.49,-229.9C794.29,-220.23 740.23,-203.47 705.05,-192.56"/>
<polygon fill="#63b8ff" stroke="#63b8ff" points="705.81,-189.13 695.22,-189.51 703.73,-195.81 705.81,-189.13"/>
</g>
<!-- Node48 -->
<g id="node48" class="node">
<title>Node48</title>
<g id="a_node48"><a xlink:title=" ">
<polygon fill="#e0e0e0" stroke="#999999" points="838,-194 744,-194 744,-168 838,-168 838,-194"/>
<text text-anchor="start" x="752" y="-183.6" font-family="SourceSans" font-size="8.00">libtorrent/announce</text>
<text text-anchor="middle" x="791" y="-174.6" font-family="SourceSans" font-size="8.00">_entry.hpp</text>
</a>
</g>
</g>
<!-- Node37&#45;&gt;Node48 -->
<g id="edge58" class="edge">
<title>Node37&#45;&gt;Node48</title>
<path fill="none" stroke="#63b8ff" d="M841.8,-229.78C834.02,-222.47 822.03,-211.19 811.65,-201.42"/>
<polygon fill="#63b8ff" stroke="#63b8ff" points="813.8,-198.65 804.12,-194.34 809.01,-203.74 813.8,-198.65"/>
</g>
<!-- Node49 -->
<g id="node49" class="node">
<title>Node49</title>
<g id="a_node49"><a xlink:title=" ">
<polygon fill="#e0e0e0" stroke="#999999" points="963.5,-189.5 856.5,-189.5 856.5,-172.5 963.5,-172.5 963.5,-189.5"/>
<text text-anchor="middle" x="910" y="-179.1" font-family="SourceSans" font-size="8.00">libtorrent/bdecode.hpp</text>
</a>
</g>
</g>
<!-- Node37&#45;&gt;Node49 -->
<g id="edge59" class="edge">
<title>Node37&#45;&gt;Node49</title>
<path fill="none" stroke="#63b8ff" d="M858.34,-229.78C867.57,-221.25 882.64,-207.31 894.13,-196.68"/>
<polygon fill="#63b8ff" stroke="#63b8ff" points="896.76,-199.01 901.73,-189.65 892.01,-193.87 896.76,-199.01"/>
</g>
<!-- Node50 -->
<g id="node50" class="node">
<title>Node50</title>
<g id="a_node50"><a xlink:title=" ">
<polygon fill="#e0e0e0" stroke="#999999" points="1100,-189.5 982,-189.5 982,-172.5 1100,-172.5 1100,-189.5"/>
<text text-anchor="middle" x="1041" y="-179.1" font-family="SourceSans" font-size="8.00">libtorrent/magnet_uri.hpp</text>
</a>
</g>
</g>
<!-- Node37&#45;&gt;Node50 -->
<g id="edge60" class="edge">
<title>Node37&#45;&gt;Node50</title>
<path fill="none" stroke="#63b8ff" d="M876.16,-229.9C909.59,-220.18 967.62,-203.32 1005.15,-192.42"/>
<polygon fill="#63b8ff" stroke="#63b8ff" points="1006.53,-195.66 1015.16,-189.51 1004.58,-188.94 1006.53,-195.66"/>
</g>
<!-- Node51 -->
<g id="node51" class="node">
<title>Node51</title>
<g id="a_node51"><a xlink:title=" ">
<polygon fill="#e0e0e0" stroke="#999999" points="1219.5,-189.5 1118.5,-189.5 1118.5,-172.5 1219.5,-172.5 1219.5,-189.5"/>
<text text-anchor="middle" x="1169" y="-179.1" font-family="SourceSans" font-size="8.00">libtorrent/session.hpp</text>
</a>
</g>
</g>
<!-- Node37&#45;&gt;Node51 -->
<g id="edge61" class="edge">
<title>Node37&#45;&gt;Node51</title>
<path fill="none" stroke="#63b8ff" d="M878.2,-231.83C881.5,-231.19 884.82,-230.57 888,-230 985.94,-212.36 1011.08,-211.76 1109,-194 1113.41,-193.2 1118,-192.34 1122.58,-191.45"/>
<polygon fill="#63b8ff" stroke="#63b8ff" points="1123.41,-194.86 1132.55,-189.51 1122.07,-187.99 1123.41,-194.86"/>
</g>
<!-- Node52 -->
<g id="node52" class="node">
<title>Node52</title>
<g id="a_node52"><a xlink:title=" ">
<polygon fill="#e0e0e0" stroke="#999999" points="1334.5,-194 1237.5,-194 1237.5,-168 1334.5,-168 1334.5,-194"/>
<text text-anchor="start" x="1245.5" y="-183.6" font-family="SourceSans" font-size="8.00">libtorrent/extensions</text>
<text text-anchor="middle" x="1286" y="-174.6" font-family="SourceSans" font-size="8.00">/ut_metadata.hpp</text>
</a>
</g>
</g>
<!-- Node37&#45;&gt;Node52 -->
<g id="edge62" class="edge">
<title>Node37&#45;&gt;Node52</title>
<path fill="none" stroke="#63b8ff" d="M878.17,-231.65C881.48,-231.05 884.81,-230.48 888,-230 1035.45,-207.71 1076.7,-217.29 1227.17,-194.18"/>
<polygon fill="#63b8ff" stroke="#63b8ff" points="1227.9,-197.61 1237.24,-192.61 1226.82,-190.69 1227.9,-197.61"/>
</g>
<!-- Node53 -->
<g id="node53" class="node">
<title>Node53</title>
<g id="a_node53"><a xlink:title=" ">
<polygon fill="#e0e0e0" stroke="#999999" points="1449.5,-194 1352.5,-194 1352.5,-168 1449.5,-168 1449.5,-194"/>
<text text-anchor="start" x="1360.5" y="-183.6" font-family="SourceSans" font-size="8.00">libtorrent/extensions</text>
<text text-anchor="middle" x="1401" y="-174.6" font-family="SourceSans" font-size="8.00">/ut_pex.hpp</text>
</a>
</g>
</g>
<!-- Node37&#45;&gt;Node53 -->
<g id="edge63" class="edge">
<title>Node37&#45;&gt;Node53</title>
<path fill="none" stroke="#63b8ff" d="M878.16,-231.56C881.47,-230.98 884.8,-230.44 888,-230 1086.15,-202.72 1141.02,-222.35 1342.25,-194.12"/>
<polygon fill="#63b8ff" stroke="#63b8ff" points="1342.85,-197.57 1352.26,-192.69 1341.86,-190.64 1342.85,-197.57"/>
</g>
<!-- Node38&#45;&gt;Node3 -->
<g id="edge44" class="edge">
<title>Node38&#45;&gt;Node3</title>
<path fill="none" stroke="#63b8ff" d="M1487,-172.29C1477.74,-163.15 1462.34,-147.24 1451,-132 1424.36,-96.2 1399.05,-50.08 1386.4,-25.93"/>
<polygon fill="#63b8ff" stroke="#63b8ff" points="1389.49,-24.28 1381.78,-17.01 1383.27,-27.5 1389.49,-24.28"/>
</g>
<!-- Node38&#45;&gt;Node4 -->
<g id="edge45" class="edge">
<title>Node38&#45;&gt;Node4</title>
<path fill="none" stroke="#63b8ff" d="M1488.42,-172.44C1480.97,-163.45 1469.1,-147.68 1463,-132 1449.26,-96.66 1445.43,-51.95 1444.38,-27.5"/>
<polygon fill="#63b8ff" stroke="#63b8ff" points="1447.87,-27.14 1444.06,-17.25 1440.87,-27.36 1447.87,-27.14"/>
</g>
<!-- Node38&#45;&gt;Node5 -->
<g id="edge46" class="edge">
<title>Node38&#45;&gt;Node5</title>
<path fill="none" stroke="#63b8ff" d="M1472.54,-172.48C1468.06,-170.99 1463.38,-169.44 1459,-168 1419.46,-155 1373.9,-140.26 1343.9,-130.58"/>
<polygon fill="#63b8ff" stroke="#63b8ff" points="1344.94,-127.24 1334.35,-127.51 1342.79,-133.91 1344.94,-127.24"/>
</g>
<!-- Node38&#45;&gt;Node6 -->
<g id="edge47" class="edge">
<title>Node38&#45;&gt;Node6</title>
<path fill="none" stroke="#63b8ff" d="M1475.05,-172.4C1469.89,-170.7 1464.29,-169.08 1459,-168 1265.46,-128.48 1211.16,-162.53 1016,-132 828.92,-102.74 609.65,-43.22 525.9,-19.54"/>
<polygon fill="#63b8ff" stroke="#63b8ff" points="526.72,-16.14 516.14,-16.77 524.81,-22.87 526.72,-16.14"/>
</g>
<!-- Node38&#45;&gt;Node10 -->
<g id="edge48" class="edge">
<title>Node38&#45;&gt;Node10</title>
<path fill="none" stroke="#63b8ff" d="M1474.64,-172.41C1469.59,-170.75 1464.14,-169.15 1459,-168 1321.27,-137.34 1152.94,-125.47 1082.05,-121.61"/>
<polygon fill="#63b8ff" stroke="#63b8ff" points="1082.09,-118.11 1071.91,-121.07 1081.72,-125.1 1082.09,-118.11"/>
</g>
<!-- Node39 -->
<g id="node39" class="node">
<title>Node39</title>
<g id="a_node39"><a xlink:title=" ">
<polygon fill="#e0e0e0" stroke="#999999" points="1518,-127.5 1472,-127.5 1472,-110.5 1518,-110.5 1518,-127.5"/>
<text text-anchor="middle" x="1495" y="-117.1" font-family="SourceSans" font-size="8.00">GeoIP.h</text>
</a>
</g>
</g>
<!-- Node38&#45;&gt;Node39 -->
<g id="edge49" class="edge">
<title>Node38&#45;&gt;Node39</title>
<path fill="none" stroke="#63b8ff" d="M1495,-172.16C1495,-163.48 1495,-149.23 1495,-137.82"/>
<polygon fill="#63b8ff" stroke="#63b8ff" points="1498.5,-137.66 1495,-127.66 1491.5,-137.66 1498.5,-137.66"/>
</g>
<!-- Node40 -->
<g id="node40" class="node">
<title>Node40</title>
<g id="a_node40"><a xlink:title=" ">
<polygon fill="#e0e0e0" stroke="#999999" points="1597.5,-127.5 1536.5,-127.5 1536.5,-110.5 1597.5,-110.5 1597.5,-127.5"/>
<text text-anchor="middle" x="1567" y="-117.1" font-family="SourceSans" font-size="8.00">GeoIPCity.h</text>
</a>
</g>
</g>
<!-- Node38&#45;&gt;Node40 -->
<g id="edge50" class="edge">
<title>Node38&#45;&gt;Node40</title>
<path fill="none" stroke="#63b8ff" d="M1504.12,-172.4C1515.63,-162.81 1535.67,-146.11 1550.03,-134.14"/>
<polygon fill="#63b8ff" stroke="#63b8ff" points="1552.29,-136.82 1557.73,-127.73 1547.8,-131.44 1552.29,-136.82"/>
</g>
</g>
</svg>
        <g id="navigator" transform="translate(0 0)" fill="#404254">
                <rect fill="#f2f5e9" fill-opacity="0.5" stroke="#606060" stroke-width=".5" x="0" y="0" width="60" height="60"/>
                <use id="zoomplus" xlink:href="#zoomPlus" x="17" y="9" onmousedown="handleZoom(evt,'in')"/>
                <use id="zoomminus" xlink:href="#zoomMin" x="42" y="9" onmousedown="handleZoom(evt,'out')"/>
                <use id="reset" xlink:href="#resetDef" x="30" y="36" onmousedown="handleReset()"/>
                <g id="arrowUp" xlink:href="#dirArrow" transform="translate(30 24)" onmousedown="handlePan(0,-1)">
                  <use xlink:href="#rim" fill="#404040">
                        <set attributeName="fill" to="#808080" begin="arrowUp.mouseover" end="arrowUp.mouseout"/>
                  </use>
                  <path fill="none" stroke="white" stroke-width="1.5" d="M0,-3.0v7 M-2.5,-0.5L0,-3.0L2.5,-0.5"/>
                </g>
                <g id="arrowRight" xlink:href="#dirArrow" transform="rotate(90) translate(36 -43)" onmousedown="handlePan(1,0)">
                  <use xlink:href="#rim" fill="#404040">
                        <set attributeName="fill" to="#808080" begin="arrowRight.mouseover" end="arrowRight.mouseout"/>
                  </use>
                  <path fill="none" stroke="white" stroke-width="1.5" d="M0,-3.0v7 M-2.5,-0.5L0,-3.0L2.5,-0.5"/>
                </g>
                <g id="arrowDown" xlink:href="#dirArrow" transform="rotate(180) translate(-30 -48)" onmousedown="handlePan(0,1)">
                  <use xlink:href="#rim" fill="#404040">
                        <set attributeName="fill" to="#808080" begin="arrowDown.mouseover" end="arrowDown.mouseout"/>
                  </use>
                  <path fill="none" stroke="white" stroke-width="1.5" d="M0,-3.0v7 M-2.5,-0.5L0,-3.0L2.5,-0.5"/>
                </g>
                <g id="arrowLeft" xlink:href="#dirArrow" transform="rotate(270) translate(-36 17)" onmousedown="handlePan(-1,0)">
                  <use xlink:href="#rim" fill="#404040">
                        <set attributeName="fill" to="#808080" begin="arrowLeft.mouseover" end="arrowLeft.mouseout"/>
                  </use>
                  <path fill="none" stroke="white" stroke-width="1.5" d="M0,-3.0v7 M-2.5,-0.5L0,-3.0L2.5,-0.5"/>
                </g>
        </g>
        <svg viewBox="0 0 15 15" width="100%" height="30px" preserveAspectRatio="xMaxYMin meet">
         <g id="arrow_out" transform="scale(0.3 0.3)">
          <a xlink:href="a60-svg-collection-glyphs_8h__incl_org.svg" target="_base">
           <rect id="button" ry="5" rx="5" y="6" x="6" height="38" width="38"
                fill="#f2f5e9" fill-opacity="0.5" stroke="#606060" stroke-width="1.0"/>
           <path id="arrow"
             d="M 11.500037,31.436501 C 11.940474,20.09759 22.043105,11.32322 32.158766,21.979434 L 37.068811,17.246167 C 37.068811,17.246167 37.088388,32 37.088388,32 L 22.160133,31.978069 C 22.160133,31.978069 26.997745,27.140456 26.997745,27.140456 C 18.528582,18.264221 13.291696,25.230495 11.500037,31.436501 z"
             style="fill:#404040;"/>
          </a>
         </g>
        </svg>
</svg>
