<?xml version="1.0" encoding="UTF-8" standalone="no"?>
<!DOCTYPE svg PUBLIC "-//W3C//DTD SVG 1.1//EN"
 "http://www.w3.org/Graphics/SVG/1.1/DTD/svg11.dtd">
<!-- Generated by graphviz version 5.0.0 (0)
 -->
<!-- Title: /home/bkoz/src/alpha60&#45;docs/src/a60&#45;json&#45;fwd.h Pages: 1 -->
<svg width="698pt" height="87pt"
 viewBox="0.00 0.00 697.50 87.00" xmlns="http://www.w3.org/2000/svg" xmlns:xlink="http://www.w3.org/1999/xlink">
<g id="graph0" class="graph" transform="scale(1 1) rotate(0) translate(4 83)">
<title>/home/bkoz/src/alpha60&#45;docs/src/a60&#45;json&#45;fwd.h</title>
<!-- Node1 -->
<g id="node1" class="node">
<title>Node1</title>
<g id="a_node1"><a xlink:title=" ">
<polygon fill="#999999" stroke="#666666" points="407.5,-79 297.5,-79 297.5,-53 407.5,-53 407.5,-79"/>
<text text-anchor="start" x="305.5" y="-68.6" font-family="SourceSans" font-size="8.00">/home/bkoz/src/alpha60</text>
<text text-anchor="middle" x="352.5" y="-59.6" font-family="SourceSans" font-size="8.00">&#45;docs/src/a60&#45;json&#45;fwd.h</text>
</a>
</g>
</g>
<!-- Node2 -->
<g id="node2" class="node">
<title>Node2</title>
<g id="a_node2"><a xlink:title=" ">
<polygon fill="#e0e0e0" stroke="#999999" points="107,-17 0,-17 0,0 107,0 107,-17"/>
<text text-anchor="middle" x="53.5" y="-6.6" font-family="SourceSans" font-size="8.00">rapidjson/prettywriter.h</text>
</a>
</g>
</g>
<!-- Node1&#45;&gt;Node2 -->
<g id="edge1" class="edge">
<title>Node1&#45;&gt;Node2</title>
<path fill="none" stroke="#63b8ff" d="M297.31,-54.76C241.99,-44.49 157.54,-28.81 103.95,-18.86"/>
<polygon fill="#63b8ff" stroke="#63b8ff" points="104.46,-15.4 93.99,-17.02 103.19,-22.28 104.46,-15.4"/>
</g>
<!-- Node3 -->
<g id="node3" class="node">
<title>Node3</title>
<g id="a_node3"><a xlink:title=" ">
<polygon fill="#e0e0e0" stroke="#999999" points="215.5,-17 125.5,-17 125.5,0 215.5,0 215.5,-17"/>
<text text-anchor="middle" x="170.5" y="-6.6" font-family="SourceSans" font-size="8.00">rapidjson/pointer.h</text>
</a>
</g>
</g>
<!-- Node1&#45;&gt;Node3 -->
<g id="edge2" class="edge">
<title>Node1&#45;&gt;Node3</title>
<path fill="none" stroke="#63b8ff" d="M313.01,-52.96C280.79,-43.13 235.73,-29.39 204.96,-20.01"/>
<polygon fill="#63b8ff" stroke="#63b8ff" points="205.69,-16.57 195.11,-17 203.65,-23.27 205.69,-16.57"/>
</g>
<!-- Node4 -->
<g id="node4" class="node">
<title>Node4</title>
<g id="a_node4"><a xlink:title=" ">
<polygon fill="#e0e0e0" stroke="#999999" points="351.5,-17 233.5,-17 233.5,0 351.5,0 351.5,-17"/>
<text text-anchor="middle" x="292.5" y="-6.6" font-family="SourceSans" font-size="8.00">rapidjson/filereadstream.h</text>
</a>
</g>
</g>
<!-- Node1&#45;&gt;Node4 -->
<g id="edge3" class="edge">
<title>Node1&#45;&gt;Node4</title>
<path fill="none" stroke="#63b8ff" d="M339.48,-52.96C330.33,-44.49 318.03,-33.11 308.31,-24.12"/>
<polygon fill="#63b8ff" stroke="#63b8ff" points="310.59,-21.47 300.88,-17.25 305.84,-26.61 310.59,-21.47"/>
</g>
<!-- Node5 -->
<g id="node5" class="node">
<title>Node5</title>
<g id="a_node5"><a xlink:title=" ">
<polygon fill="#e0e0e0" stroke="#999999" points="457,-17 370,-17 370,0 457,0 457,-17"/>
<text text-anchor="middle" x="413.5" y="-6.6" font-family="SourceSans" font-size="8.00">rapidjson/reader.h</text>
</a>
</g>
</g>
<!-- Node1&#45;&gt;Node5 -->
<g id="edge4" class="edge">
<title>Node1&#45;&gt;Node5</title>
<path fill="none" stroke="#63b8ff" d="M365.74,-52.96C375.04,-44.49 387.55,-33.11 397.43,-24.12"/>
<polygon fill="#63b8ff" stroke="#63b8ff" points="399.94,-26.57 404.98,-17.25 395.23,-21.39 399.94,-26.57"/>
</g>
<!-- Node6 -->
<g id="node6" class="node">
<title>Node6</title>
<g id="a_node6"><a xlink:title=" ">
<polygon fill="#e0e0e0" stroke="#999999" points="577.5,-17 475.5,-17 475.5,0 577.5,0 577.5,-17"/>
<text text-anchor="middle" x="526.5" y="-6.6" font-family="SourceSans" font-size="8.00">rapidjson/document.h</text>
</a>
</g>
</g>
<!-- Node1&#45;&gt;Node6 -->
<g id="edge5" class="edge">
<title>Node1&#45;&gt;Node6</title>
<path fill="none" stroke="#63b8ff" d="M390.26,-52.96C420.92,-43.18 463.76,-29.51 493.17,-20.13"/>
<polygon fill="#63b8ff" stroke="#63b8ff" points="494.51,-23.38 502.97,-17 492.38,-16.71 494.51,-23.38"/>
</g>
<!-- Node7 -->
<g id="node7" class="node">
<title>Node7</title>
<g id="a_node7"><a xlink:title=" ">
<polygon fill="#e0e0e0" stroke="#999999" points="689.5,-17 595.5,-17 595.5,0 689.5,0 689.5,-17"/>
<text text-anchor="middle" x="642.5" y="-6.6" font-family="SourceSans" font-size="8.00">rapidjson/error/en.h</text>
</a>
</g>
</g>
<!-- Node1&#45;&gt;Node7 -->
<g id="edge6" class="edge">
<title>Node1&#45;&gt;Node7</title>
<path fill="none" stroke="#63b8ff" d="M407.73,-54.43C461.34,-44.17 541.96,-28.74 593.39,-18.9"/>
<polygon fill="#63b8ff" stroke="#63b8ff" points="594.11,-22.32 603.27,-17.01 592.79,-15.45 594.11,-22.32"/>
</g>
</g>
</svg>
