<?xml version="1.0" encoding="UTF-8" standalone="no"?>
<!DOCTYPE svg PUBLIC "-//W3C//DTD SVG 1.1//EN"
 "http://www.w3.org/Graphics/SVG/1.1/DTD/svg11.dtd">
<!-- Generated by graphviz version 5.0.0 (0)
 -->
<!-- Title: /home/bkoz/src/alpha60&#45;docs/src/a60&#45;collection&#45;duration.h Pages: 1 -->
<!--zoomable 211 -->
<svg id="main" version="1.1" xmlns="http://www.w3.org/2000/svg" xmlns:xlink="http://www.w3.org/1999/xlink" xml:space="preserve" onload="init(evt)">
<style type="text/css"><![CDATA[
.edge:hover path { stroke: red; }
.edge:hover polygon { stroke: red; fill: red; }
]]></style>
<script type="text/javascript"><![CDATA[
var edges = document.getElementsByTagName('g');
if (edges && edges.length) {
  for (var i=0;i<edges.length;i++) {
    if (edges[i].id.substr(0,4)=='edge') {
      edges[i].setAttribute('class','edge');
    }
  }
}
]]></script>
        <defs>
                <circle id="rim" cx="0" cy="0" r="7"/>
                <circle id="rim2" cx="0" cy="0" r="3.5"/>
                <g id="zoomPlus">
                        <use xlink:href="#rim" fill="#404040">
                                <set attributeName="fill" to="#808080" begin="zoomplus.mouseover" end="zoomplus.mouseout"/>
                        </use>
                        <path d="M-4,0h8M0,-4v8" fill="none" stroke="white" stroke-width="1.5" pointer-events="none"/>
                </g>
                <g id="zoomMin">
                        <use xlink:href="#rim" fill="#404040">
                                <set attributeName="fill" to="#808080" begin="zoomminus.mouseover" end="zoomminus.mouseout"/>
                        </use>
                        <path d="M-4,0h8" fill="none" stroke="white" stroke-width="1.5" pointer-events="none"/>
                </g>
                <g id="dirArrow">
                        <path fill="none" stroke="white" stroke-width="1.5" d="M0,-3.0v7 M-2.5,-0.5L0,-3.0L2.5,-0.5"/>
                </g>
               <g id="resetDef">
                       <use xlink:href="#rim2" fill="#404040">
                               <set attributeName="fill" to="#808080" begin="reset.mouseover" end="reset.mouseout"/>
                       </use>
               </g>
        </defs>

<script type="text/javascript">
var viewWidth = 1116;
var viewHeight = 211;
var sectionId = 'dynsection-0';
</script>
<script xlink:href="svgpan.js"/>
<svg id="graph" class="graph">
<g id="viewport">
<title>/home/bkoz/src/alpha60&#45;docs/src/a60&#45;collection&#45;duration.h</title>
<!-- Node1 -->
<g id="node1" class="node">
<title>Node1</title>
<g id="a_node1"><a xlink:title=" ">
<polygon fill="#999999" stroke="#666666" points="606.5,-203 496.5,-203 496.5,-168 606.5,-168 606.5,-203"/>
<text text-anchor="start" x="504.5" y="-192.6" font-family="SourceSans" font-size="8.00">/home/bkoz/src/alpha60</text>
<text text-anchor="start" x="504.5" y="-183.6" font-family="SourceSans" font-size="8.00">&#45;docs/src/a60&#45;collection</text>
<text text-anchor="middle" x="551.5" y="-174.6" font-family="SourceSans" font-size="8.00">&#45;duration.h</text>
</a>
</g>
</g>
<!-- Node2 -->
<g id="node2" class="node">
<title>Node2</title>
<g id="a_node2"><a xlink:href="a60-collection-base_8h.html" target="_top" xlink:title=" ">
<polygon fill="white" stroke="#666666" points="536.5,-127.5 440.5,-127.5 440.5,-110.5 536.5,-110.5 536.5,-127.5"/>
<text text-anchor="middle" x="488.5" y="-117.1" font-family="SourceSans" font-size="8.00">a60&#45;collection&#45;base.h</text>
</a>
</g>
</g>
<!-- Node1&#45;&gt;Node2 -->
<g id="edge1" class="edge">
<title>Node1&#45;&gt;Node2</title>
<path fill="none" stroke="#63b8ff" d="M535.28,-167.89C525.36,-157.74 512.79,-144.87 503.17,-135.02"/>
<polygon fill="#63b8ff" stroke="#63b8ff" points="505.41,-132.3 495.92,-127.59 500.4,-137.19 505.41,-132.3"/>
</g>
<!-- Node21 -->
<g id="node21" class="node">
<title>Node21</title>
<g id="a_node21"><a xlink:title=" ">
<polygon fill="#e0e0e0" stroke="#999999" points="674,-132 555,-132 555,-106 674,-106 674,-132"/>
<text text-anchor="start" x="563" y="-121.6" font-family="SourceSans" font-size="8.00">boost/date_time/gregorian</text>
<text text-anchor="middle" x="614.5" y="-112.6" font-family="SourceSans" font-size="8.00">/gregorian.hpp</text>
</a>
</g>
</g>
<!-- Node1&#45;&gt;Node21 -->
<g id="edge20" class="edge">
<title>Node1&#45;&gt;Node21</title>
<path fill="none" stroke="#63b8ff" d="M567.72,-167.89C576.27,-159.14 586.79,-148.37 595.69,-139.26"/>
<polygon fill="#63b8ff" stroke="#63b8ff" points="598.22,-141.67 602.71,-132.07 593.22,-136.78 598.22,-141.67"/>
</g>
<!-- Node3 -->
<g id="node3" class="node">
<title>Node3</title>
<g id="a_node3"><a xlink:title=" ">
<polygon fill="#e0e0e0" stroke="#999999" points="478.5,-70 444.5,-70 444.5,-53 478.5,-53 478.5,-70"/>
<text text-anchor="middle" x="461.5" y="-59.6" font-family="SourceSans" font-size="8.00">map</text>
</a>
</g>
</g>
<!-- Node2&#45;&gt;Node3 -->
<g id="edge2" class="edge">
<title>Node2&#45;&gt;Node3</title>
<path fill="none" stroke="#63b8ff" d="M484.75,-110.28C480.88,-102.33 474.72,-89.68 469.72,-79.39"/>
<polygon fill="#63b8ff" stroke="#63b8ff" points="472.74,-77.61 465.22,-70.15 466.45,-80.68 472.74,-77.61"/>
</g>
<!-- Node4 -->
<g id="node4" class="node">
<title>Node4</title>
<g id="a_node4"><a xlink:href="a60_8h.html" target="_top" xlink:title=" ">
<polygon fill="white" stroke="#666666" points="534.5,-70 496.5,-70 496.5,-53 534.5,-53 534.5,-70"/>
<text text-anchor="middle" x="515.5" y="-59.6" font-family="SourceSans" font-size="8.00">a60.h</text>
</a>
</g>
</g>
<!-- Node2&#45;&gt;Node4 -->
<g id="edge3" class="edge">
<title>Node2&#45;&gt;Node4</title>
<path fill="none" stroke="#63b8ff" d="M492.25,-110.28C496.12,-102.33 502.28,-89.68 507.28,-79.39"/>
<polygon fill="#63b8ff" stroke="#63b8ff" points="510.55,-80.68 511.78,-70.15 504.26,-77.61 510.55,-80.68"/>
</g>
<!-- Node5 -->
<g id="node5" class="node">
<title>Node5</title>
<g id="a_node5"><a xlink:title=" ">
<polygon fill="#e0e0e0" stroke="#999999" points="41,-17 0,-17 0,0 41,0 41,-17"/>
<text text-anchor="middle" x="20.5" y="-6.6" font-family="SourceSans" font-size="8.00">cmath</text>
</a>
</g>
</g>
<!-- Node4&#45;&gt;Node5 -->
<g id="edge4" class="edge">
<title>Node4&#45;&gt;Node5</title>
<path fill="none" stroke="#63b8ff" d="M496.32,-54.88C493.39,-54.16 490.38,-53.5 487.5,-53 298.25,-20.15 243.89,-48.59 50.9,-16.92"/>
<polygon fill="#63b8ff" stroke="#63b8ff" points="51.44,-13.46 41,-15.26 50.29,-20.37 51.44,-13.46"/>
</g>
<!-- Node6 -->
<g id="node6" class="node">
<title>Node6</title>
<g id="a_node6"><a xlink:title=" ">
<polygon fill="#e0e0e0" stroke="#999999" points="96,-17 59,-17 59,0 96,0 96,-17"/>
<text text-anchor="middle" x="77.5" y="-6.6" font-family="SourceSans" font-size="8.00">tuple</text>
</a>
</g>
</g>
<!-- Node4&#45;&gt;Node6 -->
<g id="edge5" class="edge">
<title>Node4&#45;&gt;Node6</title>
<path fill="none" stroke="#63b8ff" d="M496.32,-54.91C493.38,-54.18 490.37,-53.52 487.5,-53 322.42,-23.35 274.46,-47.06 106.22,-16.99"/>
<polygon fill="#63b8ff" stroke="#63b8ff" points="106.75,-13.53 96.28,-15.18 105.49,-20.41 106.75,-13.53"/>
</g>
<!-- Node7 -->
<g id="node7" class="node">
<title>Node7</title>
<g id="a_node7"><a xlink:title=" ">
<polygon fill="#e0e0e0" stroke="#999999" points="153,-17 114,-17 114,0 153,0 153,-17"/>
<text text-anchor="middle" x="133.5" y="-6.6" font-family="SourceSans" font-size="8.00">string</text>
</a>
</g>
</g>
<!-- Node4&#45;&gt;Node7 -->
<g id="edge6" class="edge">
<title>Node4&#45;&gt;Node7</title>
<path fill="none" stroke="#63b8ff" d="M496.31,-54.95C493.37,-54.22 490.37,-53.54 487.5,-53 347.46,-26.67 306.59,-43.16 163.34,-17.07"/>
<polygon fill="#63b8ff" stroke="#63b8ff" points="163.77,-13.59 153.3,-15.2 162.49,-20.47 163.77,-13.59"/>
</g>
<!-- Node8 -->
<g id="node8" class="node">
<title>Node8</title>
<g id="a_node8"><a xlink:title=" ">
<polygon fill="#e0e0e0" stroke="#999999" points="210,-17 171,-17 171,0 210,0 210,-17"/>
<text text-anchor="middle" x="190.5" y="-6.6" font-family="SourceSans" font-size="8.00">vector</text>
</a>
</g>
</g>
<!-- Node4&#45;&gt;Node8 -->
<g id="edge7" class="edge">
<title>Node4&#45;&gt;Node8</title>
<path fill="none" stroke="#63b8ff" d="M496.3,-55.01C493.36,-54.27 490.36,-53.57 487.5,-53 372.34,-29.97 338.55,-40.08 219.84,-17.02"/>
<polygon fill="#63b8ff" stroke="#63b8ff" points="220.5,-13.58 210.01,-15.07 219.14,-20.45 220.5,-13.58"/>
</g>
<!-- Node9 -->
<g id="node9" class="node">
<title>Node9</title>
<g id="a_node9"><a xlink:title=" ">
<polygon fill="#e0e0e0" stroke="#999999" points="257,-17 228,-17 228,0 257,0 257,-17"/>
<text text-anchor="middle" x="242.5" y="-6.6" font-family="SourceSans" font-size="8.00">set</text>
</a>
</g>
</g>
<!-- Node4&#45;&gt;Node9 -->
<g id="edge8" class="edge">
<title>Node4&#45;&gt;Node9</title>
<path fill="none" stroke="#63b8ff" d="M496.28,-55.08C493.35,-54.33 490.35,-53.61 487.5,-53 393.34,-32.77 365.15,-39.43 267.16,-16.79"/>
<polygon fill="#63b8ff" stroke="#63b8ff" points="267.67,-13.32 257.13,-14.43 266.06,-20.13 267.67,-13.32"/>
</g>
<!-- Node10 -->
<g id="node10" class="node">
<title>Node10</title>
<g id="a_node10"><a xlink:title=" ">
<polygon fill="#e0e0e0" stroke="#999999" points="353.5,-17 275.5,-17 275.5,0 353.5,0 353.5,-17"/>
<text text-anchor="middle" x="314.5" y="-6.6" font-family="SourceSans" font-size="8.00">unordered_map</text>
</a>
</g>
</g>
<!-- Node4&#45;&gt;Node10 -->
<g id="edge9" class="edge">
<title>Node4&#45;&gt;Node10</title>
<path fill="none" stroke="#63b8ff" d="M496.23,-55.3C493.31,-54.52 490.33,-53.73 487.5,-53 442.21,-41.24 390.12,-28.21 355.03,-19.5"/>
<polygon fill="#63b8ff" stroke="#63b8ff" points="355.71,-16.07 345.16,-17.06 354.03,-22.86 355.71,-16.07"/>
</g>
<!-- Node11 -->
<g id="node11" class="node">
<title>Node11</title>
<g id="a_node11"><a xlink:title=" ">
<polygon fill="#e0e0e0" stroke="#999999" points="443.5,-17 371.5,-17 371.5,0 443.5,0 443.5,-17"/>
<text text-anchor="middle" x="407.5" y="-6.6" font-family="SourceSans" font-size="8.00">unordered_set</text>
</a>
</g>
</g>
<!-- Node4&#45;&gt;Node11 -->
<g id="edge10" class="edge">
<title>Node4&#45;&gt;Node11</title>
<path fill="none" stroke="#63b8ff" d="M499.56,-52.97C481.94,-44.65 453.3,-31.13 432.64,-21.37"/>
<polygon fill="#63b8ff" stroke="#63b8ff" points="434.04,-18.16 423.5,-17.06 431.05,-24.49 434.04,-18.16"/>
</g>
<!-- Node12 -->
<g id="node12" class="node">
<title>Node12</title>
<g id="a_node12"><a xlink:title=" ">
<polygon fill="#e0e0e0" stroke="#999999" points="505,-17 462,-17 462,0 505,0 505,-17"/>
<text text-anchor="middle" x="483.5" y="-6.6" font-family="SourceSans" font-size="8.00">chrono</text>
</a>
</g>
</g>
<!-- Node4&#45;&gt;Node12 -->
<g id="edge11" class="edge">
<title>Node4&#45;&gt;Node12</title>
<path fill="none" stroke="#63b8ff" d="M510.78,-52.97C506.29,-45.82 499.39,-34.82 493.65,-25.67"/>
<polygon fill="#63b8ff" stroke="#63b8ff" points="496.52,-23.67 488.24,-17.06 490.59,-27.39 496.52,-23.67"/>
</g>
<!-- Node13 -->
<g id="node13" class="node">
<title>Node13</title>
<g id="a_node13"><a xlink:title=" ">
<polygon fill="#e0e0e0" stroke="#999999" points="571.5,-17 523.5,-17 523.5,0 571.5,0 571.5,-17"/>
<text text-anchor="middle" x="547.5" y="-6.6" font-family="SourceSans" font-size="8.00">numeric</text>
</a>
</g>
</g>
<!-- Node4&#45;&gt;Node13 -->
<g id="edge12" class="edge">
<title>Node4&#45;&gt;Node13</title>
<path fill="none" stroke="#63b8ff" d="M520.22,-52.97C524.71,-45.82 531.61,-34.82 537.35,-25.67"/>
<polygon fill="#63b8ff" stroke="#63b8ff" points="540.41,-27.39 542.76,-17.06 534.48,-23.67 540.41,-27.39"/>
</g>
<!-- Node14 -->
<g id="node14" class="node">
<title>Node14</title>
<g id="a_node14"><a xlink:title=" ">
<polygon fill="#e0e0e0" stroke="#999999" points="643.5,-17 589.5,-17 589.5,0 643.5,0 643.5,-17"/>
<text text-anchor="middle" x="616.5" y="-6.6" font-family="SourceSans" font-size="8.00">algorithm</text>
</a>
</g>
</g>
<!-- Node4&#45;&gt;Node14 -->
<g id="edge13" class="edge">
<title>Node4&#45;&gt;Node14</title>
<path fill="none" stroke="#63b8ff" d="M530.4,-52.97C546.74,-44.73 573.19,-31.37 592.46,-21.64"/>
<polygon fill="#63b8ff" stroke="#63b8ff" points="594.19,-24.69 601.54,-17.06 591.03,-18.44 594.19,-24.69"/>
</g>
<!-- Node15 -->
<g id="node15" class="node">
<title>Node15</title>
<g id="a_node15"><a xlink:title=" ">
<polygon fill="#e0e0e0" stroke="#999999" points="699.5,-17 661.5,-17 661.5,0 699.5,0 699.5,-17"/>
<text text-anchor="middle" x="680.5" y="-6.6" font-family="SourceSans" font-size="8.00">locale</text>
</a>
</g>
</g>
<!-- Node4&#45;&gt;Node15 -->
<g id="edge14" class="edge">
<title>Node4&#45;&gt;Node15</title>
<path fill="none" stroke="#63b8ff" d="M534.75,-54.55C563.56,-45.64 618.1,-28.79 651.68,-18.41"/>
<polygon fill="#63b8ff" stroke="#63b8ff" points="652.85,-21.71 661.37,-15.41 650.78,-15.02 652.85,-21.71"/>
</g>
<!-- Node16 -->
<g id="node16" class="node">
<title>Node16</title>
<g id="a_node16"><a xlink:title=" ">
<polygon fill="#e0e0e0" stroke="#999999" points="763,-17 718,-17 718,0 763,0 763,-17"/>
<text text-anchor="middle" x="740.5" y="-6.6" font-family="SourceSans" font-size="8.00">codecvt</text>
</a>
</g>
</g>
<!-- Node4&#45;&gt;Node16 -->
<g id="edge15" class="edge">
<title>Node4&#45;&gt;Node16</title>
<path fill="none" stroke="#63b8ff" d="M534.69,-56.23C567.83,-48.85 638.2,-33.12 707.95,-17.11"/>
<polygon fill="#63b8ff" stroke="#63b8ff" points="708.82,-20.5 717.78,-14.85 707.25,-13.68 708.82,-20.5"/>
</g>
<!-- Node17 -->
<g id="node17" class="node">
<title>Node17</title>
<g id="a_node17"><a xlink:title=" ">
<polygon fill="#e0e0e0" stroke="#999999" points="908,-17 781,-17 781,0 908,0 908,-17"/>
<text text-anchor="middle" x="844.5" y="-6.6" font-family="SourceSans" font-size="8.00">ext/codecvt_specializations.h</text>
</a>
</g>
</g>
<!-- Node4&#45;&gt;Node17 -->
<g id="edge16" class="edge">
<title>Node4&#45;&gt;Node17</title>
<path fill="none" stroke="#63b8ff" d="M534.61,-57.54C582.62,-50.1 709.82,-30.38 785.5,-18.65"/>
<polygon fill="#63b8ff" stroke="#63b8ff" points="786.48,-22.04 795.82,-17.05 785.4,-15.12 786.48,-22.04"/>
</g>
<!-- Node18 -->
<g id="node18" class="node">
<title>Node18</title>
<g id="a_node18"><a xlink:title=" ">
<polygon fill="#e0e0e0" stroke="#999999" points="973,-17 926,-17 926,0 973,0 973,-17"/>
<text text-anchor="middle" x="949.5" y="-6.6" font-family="SourceSans" font-size="8.00">sstream</text>
</a>
</g>
</g>
<!-- Node4&#45;&gt;Node18 -->
<g id="edge17" class="edge">
<title>Node4&#45;&gt;Node18</title>
<path fill="none" stroke="#63b8ff" d="M534.86,-59.25C591.82,-55.39 763.88,-42.49 915.82,-17.09"/>
<polygon fill="#63b8ff" stroke="#63b8ff" points="916.53,-20.52 925.8,-15.4 915.36,-13.62 916.53,-20.52"/>
</g>
<!-- Node19 -->
<g id="node19" class="node">
<title>Node19</title>
<g id="a_node19"><a xlink:title=" ">
<polygon fill="#e0e0e0" stroke="#999999" points="1039.5,-17 991.5,-17 991.5,0 1039.5,0 1039.5,-17"/>
<text text-anchor="middle" x="1015.5" y="-6.6" font-family="SourceSans" font-size="8.00">iomanip</text>
</a>
</g>
</g>
<!-- Node4&#45;&gt;Node19 -->
<g id="edge18" class="edge">
<title>Node4&#45;&gt;Node19</title>
<path fill="none" stroke="#63b8ff" d="M534.74,-59.61C597.53,-56.52 802.23,-44.95 981.29,-16.96"/>
<polygon fill="#63b8ff" stroke="#63b8ff" points="982.09,-20.38 991.42,-15.35 981,-13.46 982.09,-20.38"/>
</g>
<!-- Node20 -->
<g id="node20" class="node">
<title>Node20</title>
<g id="a_node20"><a xlink:title=" ">
<polygon fill="#e0e0e0" stroke="#999999" points="1107.5,-17 1057.5,-17 1057.5,0 1107.5,0 1107.5,-17"/>
<text text-anchor="middle" x="1082.5" y="-6.6" font-family="SourceSans" font-size="8.00">iostream</text>
</a>
</g>
</g>
<!-- Node4&#45;&gt;Node20 -->
<g id="edge19" class="edge">
<title>Node4&#45;&gt;Node20</title>
<path fill="none" stroke="#63b8ff" d="M534.97,-59.87C603.7,-57.42 841.44,-47.3 1047.24,-16.96"/>
<polygon fill="#63b8ff" stroke="#63b8ff" points="1047.95,-20.39 1057.32,-15.45 1046.91,-13.47 1047.95,-20.39"/>
</g>
</g>
</svg>
        <g id="navigator" transform="translate(0 0)" fill="#404254">
                <rect fill="#f2f5e9" fill-opacity="0.5" stroke="#606060" stroke-width=".5" x="0" y="0" width="60" height="60"/>
                <use id="zoomplus" xlink:href="#zoomPlus" x="17" y="9" onmousedown="handleZoom(evt,'in')"/>
                <use id="zoomminus" xlink:href="#zoomMin" x="42" y="9" onmousedown="handleZoom(evt,'out')"/>
                <use id="reset" xlink:href="#resetDef" x="30" y="36" onmousedown="handleReset()"/>
                <g id="arrowUp" xlink:href="#dirArrow" transform="translate(30 24)" onmousedown="handlePan(0,-1)">
                  <use xlink:href="#rim" fill="#404040">
                        <set attributeName="fill" to="#808080" begin="arrowUp.mouseover" end="arrowUp.mouseout"/>
                  </use>
                  <path fill="none" stroke="white" stroke-width="1.5" d="M0,-3.0v7 M-2.5,-0.5L0,-3.0L2.5,-0.5"/>
                </g>
                <g id="arrowRight" xlink:href="#dirArrow" transform="rotate(90) translate(36 -43)" onmousedown="handlePan(1,0)">
                  <use xlink:href="#rim" fill="#404040">
                        <set attributeName="fill" to="#808080" begin="arrowRight.mouseover" end="arrowRight.mouseout"/>
                  </use>
                  <path fill="none" stroke="white" stroke-width="1.5" d="M0,-3.0v7 M-2.5,-0.5L0,-3.0L2.5,-0.5"/>
                </g>
                <g id="arrowDown" xlink:href="#dirArrow" transform="rotate(180) translate(-30 -48)" onmousedown="handlePan(0,1)">
                  <use xlink:href="#rim" fill="#404040">
                        <set attributeName="fill" to="#808080" begin="arrowDown.mouseover" end="arrowDown.mouseout"/>
                  </use>
                  <path fill="none" stroke="white" stroke-width="1.5" d="M0,-3.0v7 M-2.5,-0.5L0,-3.0L2.5,-0.5"/>
                </g>
                <g id="arrowLeft" xlink:href="#dirArrow" transform="rotate(270) translate(-36 17)" onmousedown="handlePan(-1,0)">
                  <use xlink:href="#rim" fill="#404040">
                        <set attributeName="fill" to="#808080" begin="arrowLeft.mouseover" end="arrowLeft.mouseout"/>
                  </use>
                  <path fill="none" stroke="white" stroke-width="1.5" d="M0,-3.0v7 M-2.5,-0.5L0,-3.0L2.5,-0.5"/>
                </g>
        </g>
        <svg viewBox="0 0 15 15" width="100%" height="30px" preserveAspectRatio="xMaxYMin meet">
         <g id="arrow_out" transform="scale(0.3 0.3)">
          <a xlink:href="a60-collection-duration_8h__incl_org.svg" target="_base">
           <rect id="button" ry="5" rx="5" y="6" x="6" height="38" width="38"
                fill="#f2f5e9" fill-opacity="0.5" stroke="#606060" stroke-width="1.0"/>
           <path id="arrow"
             d="M 11.500037,31.436501 C 11.940474,20.09759 22.043105,11.32322 32.158766,21.979434 L 37.068811,17.246167 C 37.068811,17.246167 37.088388,32 37.088388,32 L 22.160133,31.978069 C 22.160133,31.978069 26.997745,27.140456 26.997745,27.140456 C 18.528582,18.264221 13.291696,25.230495 11.500037,31.436501 z"
             style="fill:#404040;"/>
          </a>
         </g>
        </svg>
</svg>
