<?xml version="1.0" encoding="UTF-8" standalone="no"?>
<!DOCTYPE svg PUBLIC "-//W3C//DTD SVG 1.1//EN"
 "http://www.w3.org/Graphics/SVG/1.1/DTD/svg11.dtd">
<!-- Generated by graphviz version 5.0.0 (0)
 -->
<!-- Title: /home/bkoz/src/alpha60&#45;docs/src/a60&#45;peer.h Pages: 1 -->
<svg width="2013pt" height="255pt"
 viewBox="0.00 0.00 2013.00 255.00" xmlns="http://www.w3.org/2000/svg" xmlns:xlink="http://www.w3.org/1999/xlink">
<g id="graph0" class="graph" transform="scale(1 1) rotate(0) translate(4 251)">
<title>/home/bkoz/src/alpha60&#45;docs/src/a60&#45;peer.h</title>
<!-- Node1 -->
<g id="node1" class="node">
<title>Node1</title>
<g id="a_node1"><a xlink:title=" ">
<polygon fill="#999999" stroke="#666666" points="1224.5,-247 1114.5,-247 1114.5,-221 1224.5,-221 1224.5,-247"/>
<text text-anchor="start" x="1122.5" y="-236.6" font-family="SourceSans" font-size="8.00">/home/bkoz/src/alpha60</text>
<text text-anchor="middle" x="1169.5" y="-227.6" font-family="SourceSans" font-size="8.00">&#45;docs/src/a60&#45;peer.h</text>
</a>
</g>
</g>
<!-- Node2 -->
<g id="node2" class="node">
<title>Node2</title>
<g id="a_node2"><a xlink:href="a60-geo_8h.html" target="_top" xlink:title=" ">
<polygon fill="white" stroke="#666666" points="471.5,-180.5 417.5,-180.5 417.5,-163.5 471.5,-163.5 471.5,-180.5"/>
<text text-anchor="middle" x="444.5" y="-170.1" font-family="SourceSans" font-size="8.00">a60&#45;geo.h</text>
</a>
</g>
</g>
<!-- Node1&#45;&gt;Node2 -->
<g id="edge1" class="edge">
<title>Node1&#45;&gt;Node2</title>
<path fill="none" stroke="#63b8ff" d="M1114.06,-233.68C996.37,-234.14 713.35,-229.98 481.5,-185 479.15,-184.54 476.74,-183.98 474.34,-183.36"/>
<polygon fill="#63b8ff" stroke="#63b8ff" points="475.2,-179.97 464.62,-180.51 473.23,-186.68 475.2,-179.97"/>
</g>
<!-- Node28 -->
<g id="node28" class="node">
<title>Node28</title>
<g id="a_node28"><a xlink:href="a60-network-functions_8h.html" target="_top" xlink:title=" ">
<polygon fill="white" stroke="#666666" points="599,-180.5 490,-180.5 490,-163.5 599,-163.5 599,-180.5"/>
<text text-anchor="middle" x="544.5" y="-170.1" font-family="SourceSans" font-size="8.00">a60&#45;network&#45;functions.h</text>
</a>
</g>
</g>
<!-- Node1&#45;&gt;Node28 -->
<g id="edge30" class="edge">
<title>Node1&#45;&gt;Node28</title>
<path fill="none" stroke="#63b8ff" d="M1114.35,-230.12C1013.57,-224.44 793.01,-210.13 608.5,-185 602.97,-184.25 597.19,-183.34 591.47,-182.36"/>
<polygon fill="#63b8ff" stroke="#63b8ff" points="591.75,-178.86 581.29,-180.55 590.52,-185.75 591.75,-178.86"/>
</g>
<!-- Node29 -->
<g id="node29" class="node">
<title>Node29</title>
<g id="a_node29"><a xlink:title=" ">
<polygon fill="#e0e0e0" stroke="#999999" points="710,-180.5 617,-180.5 617,-163.5 710,-163.5 710,-180.5"/>
<text text-anchor="middle" x="663.5" y="-170.1" font-family="SourceSans" font-size="8.00">libtorrent/entry.hpp</text>
</a>
</g>
</g>
<!-- Node1&#45;&gt;Node29 -->
<g id="edge31" class="edge">
<title>Node1&#45;&gt;Node29</title>
<path fill="none" stroke="#63b8ff" d="M1114.18,-228.98C1029.04,-222.36 860.89,-207.63 719.5,-185 715.07,-184.29 710.47,-183.46 705.88,-182.57"/>
<polygon fill="#63b8ff" stroke="#63b8ff" points="706.46,-179.12 695.96,-180.56 705.07,-185.98 706.46,-179.12"/>
</g>
<!-- Node30 -->
<g id="node30" class="node">
<title>Node30</title>
<g id="a_node30"><a xlink:title=" ">
<polygon fill="#e0e0e0" stroke="#999999" points="835,-180.5 728,-180.5 728,-163.5 835,-163.5 835,-180.5"/>
<text text-anchor="middle" x="781.5" y="-170.1" font-family="SourceSans" font-size="8.00">libtorrent/bencode.hpp</text>
</a>
</g>
</g>
<!-- Node1&#45;&gt;Node30 -->
<g id="edge32" class="edge">
<title>Node1&#45;&gt;Node30</title>
<path fill="none" stroke="#63b8ff" d="M1114.47,-225.58C1049.75,-216.7 939.12,-200.99 844.5,-185 839.74,-184.2 834.79,-183.32 829.84,-182.42"/>
<polygon fill="#63b8ff" stroke="#63b8ff" points="830.24,-178.93 819.77,-180.55 828.96,-185.82 830.24,-178.93"/>
</g>
<!-- Node31 -->
<g id="node31" class="node">
<title>Node31</title>
<g id="a_node31"><a xlink:title=" ">
<polygon fill="#e0e0e0" stroke="#999999" points="953.5,-180.5 853.5,-180.5 853.5,-163.5 953.5,-163.5 953.5,-180.5"/>
<text text-anchor="middle" x="903.5" y="-170.1" font-family="SourceSans" font-size="8.00">libtorrent/torrent.hpp</text>
</a>
</g>
</g>
<!-- Node1&#45;&gt;Node31 -->
<g id="edge33" class="edge">
<title>Node1&#45;&gt;Node31</title>
<path fill="none" stroke="#63b8ff" d="M1115.99,-220.93C1066.2,-209.7 992.94,-193.17 946.75,-182.76"/>
<polygon fill="#63b8ff" stroke="#63b8ff" points="947.28,-179.29 936.76,-180.5 945.74,-186.12 947.28,-179.29"/>
</g>
<!-- Node32 -->
<g id="node32" class="node">
<title>Node32</title>
<g id="a_node32"><a xlink:title=" ">
<polygon fill="#e0e0e0" stroke="#999999" points="1053.5,-185 971.5,-185 971.5,-159 1053.5,-159 1053.5,-185"/>
<text text-anchor="start" x="979.5" y="-174.6" font-family="SourceSans" font-size="8.00">libtorrent/torrent</text>
<text text-anchor="middle" x="1012.5" y="-165.6" font-family="SourceSans" font-size="8.00">_info.hpp</text>
</a>
</g>
</g>
<!-- Node1&#45;&gt;Node32 -->
<g id="edge34" class="edge">
<title>Node1&#45;&gt;Node32</title>
<path fill="none" stroke="#63b8ff" d="M1137.73,-220.86C1113.5,-211.6 1079.92,-198.77 1053.64,-188.72"/>
<polygon fill="#63b8ff" stroke="#63b8ff" points="1054.55,-185.32 1043.96,-185.02 1052.05,-191.86 1054.55,-185.32"/>
</g>
<!-- Node33 -->
<g id="node33" class="node">
<title>Node33</title>
<g id="a_node33"><a xlink:title=" ">
<polygon fill="#e0e0e0" stroke="#999999" points="1153.5,-185 1071.5,-185 1071.5,-159 1153.5,-159 1153.5,-185"/>
<text text-anchor="start" x="1079.5" y="-174.6" font-family="SourceSans" font-size="8.00">libtorrent/torrent</text>
<text text-anchor="middle" x="1112.5" y="-165.6" font-family="SourceSans" font-size="8.00">_status.hpp</text>
</a>
</g>
</g>
<!-- Node1&#45;&gt;Node33 -->
<g id="edge35" class="edge">
<title>Node1&#45;&gt;Node33</title>
<path fill="none" stroke="#63b8ff" d="M1157.97,-220.86C1150.24,-212.73 1139.9,-201.84 1131.03,-192.51"/>
<polygon fill="#63b8ff" stroke="#63b8ff" points="1133.44,-189.96 1124.02,-185.12 1128.37,-194.78 1133.44,-189.96"/>
</g>
<!-- Node34 -->
<g id="node34" class="node">
<title>Node34</title>
<g id="a_node34"><a xlink:title=" ">
<polygon fill="#e0e0e0" stroke="#999999" points="1281.5,-180.5 1171.5,-180.5 1171.5,-163.5 1281.5,-163.5 1281.5,-180.5"/>
<text text-anchor="middle" x="1226.5" y="-170.1" font-family="SourceSans" font-size="8.00">libtorrent/peer_info.hpp</text>
</a>
</g>
</g>
<!-- Node1&#45;&gt;Node34 -->
<g id="edge36" class="edge">
<title>Node1&#45;&gt;Node34</title>
<path fill="none" stroke="#63b8ff" d="M1181.03,-220.86C1190.07,-211.35 1202.68,-198.07 1212.33,-187.91"/>
<polygon fill="#63b8ff" stroke="#63b8ff" points="1214.96,-190.23 1219.31,-180.57 1209.88,-185.41 1214.96,-190.23"/>
</g>
<!-- Node35 -->
<g id="node35" class="node">
<title>Node35</title>
<g id="a_node35"><a xlink:title=" ">
<polygon fill="#e0e0e0" stroke="#999999" points="1393.5,-185 1299.5,-185 1299.5,-159 1393.5,-159 1393.5,-185"/>
<text text-anchor="start" x="1307.5" y="-174.6" font-family="SourceSans" font-size="8.00">libtorrent/announce</text>
<text text-anchor="middle" x="1346.5" y="-165.6" font-family="SourceSans" font-size="8.00">_entry.hpp</text>
</a>
</g>
</g>
<!-- Node1&#45;&gt;Node35 -->
<g id="edge37" class="edge">
<title>Node1&#45;&gt;Node35</title>
<path fill="none" stroke="#63b8ff" d="M1205.32,-220.86C1233,-211.47 1271.49,-198.43 1301.29,-188.32"/>
<polygon fill="#63b8ff" stroke="#63b8ff" points="1302.69,-191.55 1311.04,-185.02 1300.44,-184.92 1302.69,-191.55"/>
</g>
<!-- Node36 -->
<g id="node36" class="node">
<title>Node36</title>
<g id="a_node36"><a xlink:title=" ">
<polygon fill="#e0e0e0" stroke="#999999" points="1519,-180.5 1412,-180.5 1412,-163.5 1519,-163.5 1519,-180.5"/>
<text text-anchor="middle" x="1465.5" y="-170.1" font-family="SourceSans" font-size="8.00">libtorrent/bdecode.hpp</text>
</a>
</g>
</g>
<!-- Node1&#45;&gt;Node36 -->
<g id="edge38" class="edge">
<title>Node1&#45;&gt;Node36</title>
<path fill="none" stroke="#63b8ff" d="M1224.83,-221.78C1280.52,-210.5 1365.5,-193.27 1418.16,-182.6"/>
<polygon fill="#63b8ff" stroke="#63b8ff" points="1419.14,-185.97 1428.25,-180.55 1417.75,-179.11 1419.14,-185.97"/>
</g>
<!-- Node37 -->
<g id="node37" class="node">
<title>Node37</title>
<g id="a_node37"><a xlink:title=" ">
<polygon fill="#e0e0e0" stroke="#999999" points="1655.5,-180.5 1537.5,-180.5 1537.5,-163.5 1655.5,-163.5 1655.5,-180.5"/>
<text text-anchor="middle" x="1596.5" y="-170.1" font-family="SourceSans" font-size="8.00">libtorrent/magnet_uri.hpp</text>
</a>
</g>
</g>
<!-- Node1&#45;&gt;Node37 -->
<g id="edge39" class="edge">
<title>Node1&#45;&gt;Node37</title>
<path fill="none" stroke="#63b8ff" d="M1224.65,-226.35C1295.21,-217.68 1421.16,-201.64 1528.5,-185 1533.98,-184.15 1539.7,-183.22 1545.39,-182.26"/>
<polygon fill="#63b8ff" stroke="#63b8ff" points="1546.29,-185.65 1555.55,-180.51 1545.11,-178.75 1546.29,-185.65"/>
</g>
<!-- Node38 -->
<g id="node38" class="node">
<title>Node38</title>
<g id="a_node38"><a xlink:title=" ">
<polygon fill="#e0e0e0" stroke="#999999" points="1775,-180.5 1674,-180.5 1674,-163.5 1775,-163.5 1775,-180.5"/>
<text text-anchor="middle" x="1724.5" y="-170.1" font-family="SourceSans" font-size="8.00">libtorrent/session.hpp</text>
</a>
</g>
</g>
<!-- Node1&#45;&gt;Node38 -->
<g id="edge40" class="edge">
<title>Node1&#45;&gt;Node38</title>
<path fill="none" stroke="#63b8ff" d="M1224.66,-229.47C1316.32,-223.21 1505.64,-208.53 1664.5,-185 1669.56,-184.25 1674.84,-183.36 1680.07,-182.4"/>
<polygon fill="#63b8ff" stroke="#63b8ff" points="1680.85,-185.82 1690.02,-180.51 1679.54,-178.94 1680.85,-185.82"/>
</g>
<!-- Node39 -->
<g id="node39" class="node">
<title>Node39</title>
<g id="a_node39"><a xlink:title=" ">
<polygon fill="#e0e0e0" stroke="#999999" points="1890,-185 1793,-185 1793,-159 1890,-159 1890,-185"/>
<text text-anchor="start" x="1801" y="-174.6" font-family="SourceSans" font-size="8.00">libtorrent/extensions</text>
<text text-anchor="middle" x="1841.5" y="-165.6" font-family="SourceSans" font-size="8.00">/ut_metadata.hpp</text>
</a>
</g>
</g>
<!-- Node1&#45;&gt;Node39 -->
<g id="edge41" class="edge">
<title>Node1&#45;&gt;Node39</title>
<path fill="none" stroke="#63b8ff" d="M1224.89,-231.08C1331.29,-226.88 1571.71,-214.85 1782.73,-185.12"/>
<polygon fill="#63b8ff" stroke="#63b8ff" points="1783.35,-188.57 1792.76,-183.7 1782.36,-181.64 1783.35,-188.57"/>
</g>
<!-- Node40 -->
<g id="node40" class="node">
<title>Node40</title>
<g id="a_node40"><a xlink:title=" ">
<polygon fill="#e0e0e0" stroke="#999999" points="2005,-185 1908,-185 1908,-159 2005,-159 2005,-185"/>
<text text-anchor="start" x="1916" y="-174.6" font-family="SourceSans" font-size="8.00">libtorrent/extensions</text>
<text text-anchor="middle" x="1956.5" y="-165.6" font-family="SourceSans" font-size="8.00">/ut_pex.hpp</text>
</a>
</g>
</g>
<!-- Node1&#45;&gt;Node40 -->
<g id="edge42" class="edge">
<title>Node1&#45;&gt;Node40</title>
<path fill="none" stroke="#63b8ff" d="M1224.71,-232.04C1345.27,-229.36 1641.17,-219.67 1897.51,-185.13"/>
<polygon fill="#63b8ff" stroke="#63b8ff" points="1898.33,-188.55 1907.76,-183.74 1897.38,-181.62 1898.33,-188.55"/>
</g>
<!-- Node3 -->
<g id="node3" class="node">
<title>Node3</title>
<g id="a_node3"><a xlink:title=" ">
<polygon fill="#e0e0e0" stroke="#999999" points="41,-17 0,-17 0,0 41,0 41,-17"/>
<text text-anchor="middle" x="20.5" y="-6.6" font-family="SourceSans" font-size="8.00">cmath</text>
</a>
</g>
</g>
<!-- Node2&#45;&gt;Node3 -->
<g id="edge2" class="edge">
<title>Node2&#45;&gt;Node3</title>
<path fill="none" stroke="#63b8ff" d="M417.49,-164.59C383.81,-156.31 324.68,-140.83 275.5,-123 188.46,-91.45 89.31,-43.78 44.61,-21.62"/>
<polygon fill="#63b8ff" stroke="#63b8ff" points="45.94,-18.37 35.42,-17.05 42.82,-24.64 45.94,-18.37"/>
</g>
<!-- Node4 -->
<g id="node4" class="node">
<title>Node4</title>
<g id="a_node4"><a xlink:title=" ">
<polygon fill="#e0e0e0" stroke="#999999" points="88,-17 59,-17 59,0 88,0 88,-17"/>
<text text-anchor="middle" x="73.5" y="-6.6" font-family="SourceSans" font-size="8.00">set</text>
</a>
</g>
</g>
<!-- Node2&#45;&gt;Node4 -->
<g id="edge3" class="edge">
<title>Node2&#45;&gt;Node4</title>
<path fill="none" stroke="#63b8ff" d="M423.19,-163.49C397.8,-154.42 354.22,-138.45 317.5,-123 235.6,-88.53 140.72,-42.63 97.35,-21.31"/>
<polygon fill="#63b8ff" stroke="#63b8ff" points="98.7,-18.08 88.18,-16.8 95.61,-24.36 98.7,-18.08"/>
</g>
<!-- Node5 -->
<g id="node5" class="node">
<title>Node5</title>
<g id="a_node5"><a xlink:title=" ">
<polygon fill="#e0e0e0" stroke="#999999" points="542.5,-123 486.5,-123 486.5,-106 542.5,-106 542.5,-123"/>
<text text-anchor="middle" x="514.5" y="-112.6" font-family="SourceSans" font-size="8.00">functional</text>
</a>
</g>
</g>
<!-- Node2&#45;&gt;Node5 -->
<g id="edge4" class="edge">
<title>Node2&#45;&gt;Node5</title>
<path fill="none" stroke="#63b8ff" d="M454.23,-163.28C465.2,-154.58 483.27,-140.26 496.76,-129.56"/>
<polygon fill="#63b8ff" stroke="#63b8ff" points="499.19,-132.11 504.85,-123.15 494.84,-126.62 499.19,-132.11"/>
</g>
<!-- Node6 -->
<g id="node6" class="node">
<title>Node6</title>
<g id="a_node6"><a xlink:title=" ">
<polygon fill="#e0e0e0" stroke="#999999" points="156.5,-17 106.5,-17 106.5,0 156.5,0 156.5,-17"/>
<text text-anchor="middle" x="131.5" y="-6.6" font-family="SourceSans" font-size="8.00">iostream</text>
</a>
</g>
</g>
<!-- Node2&#45;&gt;Node6 -->
<g id="edge5" class="edge">
<title>Node2&#45;&gt;Node6</title>
<path fill="none" stroke="#63b8ff" d="M429.82,-163.43C379.92,-137.68 216.48,-53.35 155.09,-21.67"/>
<polygon fill="#63b8ff" stroke="#63b8ff" points="156.64,-18.53 146.15,-17.06 153.43,-24.75 156.64,-18.53"/>
</g>
<!-- Node7 -->
<g id="node7" class="node">
<title>Node7</title>
<g id="a_node7"><a xlink:href="a60-io_8h.html" target="_top" xlink:title=" ">
<polygon fill="white" stroke="#666666" points="468,-123 421,-123 421,-106 468,-106 468,-123"/>
<text text-anchor="middle" x="444.5" y="-112.6" font-family="SourceSans" font-size="8.00">a60&#45;io.h</text>
</a>
</g>
</g>
<!-- Node2&#45;&gt;Node7 -->
<g id="edge6" class="edge">
<title>Node2&#45;&gt;Node7</title>
<path fill="none" stroke="#63b8ff" d="M444.5,-163.28C444.5,-155.58 444.5,-143.46 444.5,-133.36"/>
<polygon fill="#63b8ff" stroke="#63b8ff" points="448,-133.15 444.5,-123.15 441,-133.15 448,-133.15"/>
</g>
<!-- Node26 -->
<g id="node26" class="node">
<title>Node26</title>
<g id="a_node26"><a xlink:title=" ">
<polygon fill="#e0e0e0" stroke="#999999" points="606.5,-123 560.5,-123 560.5,-106 606.5,-106 606.5,-123"/>
<text text-anchor="middle" x="583.5" y="-112.6" font-family="SourceSans" font-size="8.00">GeoIP.h</text>
</a>
</g>
</g>
<!-- Node2&#45;&gt;Node26 -->
<g id="edge28" class="edge">
<title>Node2&#45;&gt;Node26</title>
<path fill="none" stroke="#63b8ff" d="M463.54,-163.4C487.24,-153.93 527.95,-137.68 555.28,-126.77"/>
<polygon fill="#63b8ff" stroke="#63b8ff" points="556.7,-129.97 564.69,-123.01 554.11,-123.47 556.7,-129.97"/>
</g>
<!-- Node27 -->
<g id="node27" class="node">
<title>Node27</title>
<g id="a_node27"><a xlink:title=" ">
<polygon fill="#e0e0e0" stroke="#999999" points="686,-123 625,-123 625,-106 686,-106 686,-123"/>
<text text-anchor="middle" x="655.5" y="-112.6" font-family="SourceSans" font-size="8.00">GeoIPCity.h</text>
</a>
</g>
</g>
<!-- Node2&#45;&gt;Node27 -->
<g id="edge29" class="edge">
<title>Node2&#45;&gt;Node27</title>
<path fill="none" stroke="#63b8ff" d="M467.12,-163.39C471.85,-161.88 476.83,-160.34 481.5,-159 526.86,-145.99 579.49,-133.14 614.89,-124.82"/>
<polygon fill="#63b8ff" stroke="#63b8ff" points="615.9,-128.18 624.84,-122.49 614.31,-121.36 615.9,-128.18"/>
</g>
<!-- Node8 -->
<g id="node8" class="node">
<title>Node8</title>
<g id="a_node8"><a xlink:title=" ">
<polygon fill="#e0e0e0" stroke="#999999" points="555.5,-70 509.5,-70 509.5,-53 555.5,-53 555.5,-70"/>
<text text-anchor="middle" x="532.5" y="-59.6" font-family="SourceSans" font-size="8.00">fstream</text>
</a>
</g>
</g>
<!-- Node7&#45;&gt;Node8 -->
<g id="edge7" class="edge">
<title>Node7&#45;&gt;Node8</title>
<path fill="none" stroke="#63b8ff" d="M457.48,-105.97C471.39,-97.91 493.71,-84.98 510.4,-75.31"/>
<polygon fill="#63b8ff" stroke="#63b8ff" points="512.56,-78.1 519.46,-70.06 509.05,-72.04 512.56,-78.1"/>
</g>
<!-- Node9 -->
<g id="node9" class="node">
<title>Node9</title>
<g id="a_node9"><a xlink:title=" ">
<polygon fill="#e0e0e0" stroke="#999999" points="681.5,-70 573.5,-70 573.5,-53 681.5,-53 681.5,-70"/>
<text text-anchor="middle" x="627.5" y="-59.6" font-family="SourceSans" font-size="8.00">experimental/filesystem</text>
</a>
</g>
</g>
<!-- Node7&#45;&gt;Node9 -->
<g id="edge8" class="edge">
<title>Node7&#45;&gt;Node9</title>
<path fill="none" stroke="#63b8ff" d="M468.05,-106.94C499.11,-98.28 554.1,-82.96 590.68,-72.76"/>
<polygon fill="#63b8ff" stroke="#63b8ff" points="591.78,-76.09 600.47,-70.03 589.9,-69.35 591.78,-76.09"/>
</g>
<!-- Node10 -->
<g id="node10" class="node">
<title>Node10</title>
<g id="a_node10"><a xlink:title=" ">
<polygon fill="#e0e0e0" stroke="#999999" points="753,-70 700,-70 700,-53 753,-53 753,-70"/>
<text text-anchor="middle" x="726.5" y="-59.6" font-family="SourceSans" font-size="8.00">stdexcept</text>
</a>
</g>
</g>
<!-- Node7&#45;&gt;Node10 -->
<g id="edge9" class="edge">
<title>Node7&#45;&gt;Node10</title>
<path fill="none" stroke="#63b8ff" d="M468.26,-107.93C471.36,-107.26 474.5,-106.59 477.5,-106 568.55,-87.97 594.45,-87.79 689.72,-70.07"/>
<polygon fill="#63b8ff" stroke="#63b8ff" points="690.6,-73.47 699.79,-68.18 689.31,-66.59 690.6,-73.47"/>
</g>
<!-- Node11 -->
<g id="node11" class="node">
<title>Node11</title>
<g id="a_node11"><a xlink:title=" ">
<polygon fill="#e0e0e0" stroke="#999999" points="435.5,-70 397.5,-70 397.5,-53 435.5,-53 435.5,-70"/>
<text text-anchor="middle" x="416.5" y="-59.6" font-family="SourceSans" font-size="8.00">regex</text>
</a>
</g>
</g>
<!-- Node7&#45;&gt;Node11 -->
<g id="edge10" class="edge">
<title>Node7&#45;&gt;Node11</title>
<path fill="none" stroke="#63b8ff" d="M440.37,-105.97C436.48,-98.89 430.53,-88.05 425.54,-78.96"/>
<polygon fill="#63b8ff" stroke="#63b8ff" points="428.53,-77.14 420.65,-70.06 422.39,-80.51 428.53,-77.14"/>
</g>
<!-- Node12 -->
<g id="node12" class="node">
<title>Node12</title>
<g id="a_node12"><a xlink:href="a60_8h.html" target="_top" xlink:title=" ">
<polygon fill="white" stroke="#666666" points="491.5,-70 453.5,-70 453.5,-53 491.5,-53 491.5,-70"/>
<text text-anchor="middle" x="472.5" y="-59.6" font-family="SourceSans" font-size="8.00">a60.h</text>
</a>
</g>
</g>
<!-- Node7&#45;&gt;Node12 -->
<g id="edge11" class="edge">
<title>Node7&#45;&gt;Node12</title>
<path fill="none" stroke="#63b8ff" d="M448.63,-105.97C452.52,-98.89 458.47,-88.05 463.46,-78.96"/>
<polygon fill="#63b8ff" stroke="#63b8ff" points="466.61,-80.51 468.35,-70.06 460.47,-77.14 466.61,-80.51"/>
</g>
<!-- Node12&#45;&gt;Node3 -->
<g id="edge12" class="edge">
<title>Node12&#45;&gt;Node3</title>
<path fill="none" stroke="#63b8ff" d="M453.32,-54.9C450.38,-54.18 447.37,-53.51 444.5,-53 274.17,-22.66 225,-46.26 51.01,-16.96"/>
<polygon fill="#63b8ff" stroke="#63b8ff" points="51.45,-13.49 41.01,-15.24 50.27,-20.39 51.45,-13.49"/>
</g>
<!-- Node12&#45;&gt;Node4 -->
<g id="edge16" class="edge">
<title>Node12&#45;&gt;Node4</title>
<path fill="none" stroke="#63b8ff" d="M453.31,-54.93C450.38,-54.2 447.37,-53.53 444.5,-53 295.3,-25.46 251.25,-47.3 98.33,-16.67"/>
<polygon fill="#63b8ff" stroke="#63b8ff" points="98.6,-13.15 88.1,-14.57 97.2,-20.01 98.6,-13.15"/>
</g>
<!-- Node12&#45;&gt;Node6 -->
<g id="edge27" class="edge">
<title>Node12&#45;&gt;Node6</title>
<path fill="none" stroke="#63b8ff" d="M453.3,-55C450.37,-54.26 447.36,-53.57 444.5,-53 324.96,-29.39 290.41,-38.02 166.57,-17.02"/>
<polygon fill="#63b8ff" stroke="#63b8ff" points="167.15,-13.57 156.7,-15.32 165.96,-20.47 167.15,-13.57"/>
</g>
<!-- Node13 -->
<g id="node13" class="node">
<title>Node13</title>
<g id="a_node13"><a xlink:title=" ">
<polygon fill="#e0e0e0" stroke="#999999" points="552,-17 515,-17 515,0 552,0 552,-17"/>
<text text-anchor="middle" x="533.5" y="-6.6" font-family="SourceSans" font-size="8.00">tuple</text>
</a>
</g>
</g>
<!-- Node12&#45;&gt;Node13 -->
<g id="edge13" class="edge">
<title>Node12&#45;&gt;Node13</title>
<path fill="none" stroke="#63b8ff" d="M481.5,-52.97C490.69,-45.29 505.18,-33.18 516.53,-23.69"/>
<polygon fill="#63b8ff" stroke="#63b8ff" points="519.04,-26.16 524.46,-17.06 514.55,-20.79 519.04,-26.16"/>
</g>
<!-- Node14 -->
<g id="node14" class="node">
<title>Node14</title>
<g id="a_node14"><a xlink:title=" ">
<polygon fill="#e0e0e0" stroke="#999999" points="609,-17 570,-17 570,0 609,0 609,-17"/>
<text text-anchor="middle" x="589.5" y="-6.6" font-family="SourceSans" font-size="8.00">string</text>
</a>
</g>
</g>
<!-- Node12&#45;&gt;Node14 -->
<g id="edge14" class="edge">
<title>Node12&#45;&gt;Node14</title>
<path fill="none" stroke="#63b8ff" d="M489.76,-52.97C509.03,-44.58 540.45,-30.88 562.87,-21.11"/>
<polygon fill="#63b8ff" stroke="#63b8ff" points="564.4,-24.26 572.17,-17.06 561.6,-17.84 564.4,-24.26"/>
</g>
<!-- Node15 -->
<g id="node15" class="node">
<title>Node15</title>
<g id="a_node15"><a xlink:title=" ">
<polygon fill="#e0e0e0" stroke="#999999" points="666,-17 627,-17 627,0 666,0 666,-17"/>
<text text-anchor="middle" x="646.5" y="-6.6" font-family="SourceSans" font-size="8.00">vector</text>
</a>
</g>
</g>
<!-- Node12&#45;&gt;Node15 -->
<g id="edge15" class="edge">
<title>Node12&#45;&gt;Node15</title>
<path fill="none" stroke="#63b8ff" d="M491.79,-54.85C522.15,-45.95 581.3,-28.61 617.02,-18.14"/>
<polygon fill="#63b8ff" stroke="#63b8ff" points="618.25,-21.43 626.86,-15.26 616.28,-14.71 618.25,-21.43"/>
</g>
<!-- Node16 -->
<g id="node16" class="node">
<title>Node16</title>
<g id="a_node16"><a xlink:title=" ">
<polygon fill="#e0e0e0" stroke="#999999" points="762.5,-17 684.5,-17 684.5,0 762.5,0 762.5,-17"/>
<text text-anchor="middle" x="723.5" y="-6.6" font-family="SourceSans" font-size="8.00">unordered_map</text>
</a>
</g>
</g>
<!-- Node12&#45;&gt;Node16 -->
<g id="edge17" class="edge">
<title>Node12&#45;&gt;Node16</title>
<path fill="none" stroke="#63b8ff" d="M491.74,-55.16C494.66,-54.4 497.66,-53.66 500.5,-53 559.99,-39.25 629.07,-26.22 674.39,-18.07"/>
<polygon fill="#63b8ff" stroke="#63b8ff" points="675.02,-21.51 684.25,-16.31 673.79,-14.62 675.02,-21.51"/>
</g>
<!-- Node17 -->
<g id="node17" class="node">
<title>Node17</title>
<g id="a_node17"><a xlink:title=" ">
<polygon fill="#e0e0e0" stroke="#999999" points="852.5,-17 780.5,-17 780.5,0 852.5,0 852.5,-17"/>
<text text-anchor="middle" x="816.5" y="-6.6" font-family="SourceSans" font-size="8.00">unordered_set</text>
</a>
</g>
</g>
<!-- Node12&#45;&gt;Node17 -->
<g id="edge18" class="edge">
<title>Node12&#45;&gt;Node17</title>
<path fill="none" stroke="#63b8ff" d="M491.7,-55.01C494.63,-54.27 497.64,-53.57 500.5,-53 616.51,-29.86 649.61,-34.71 770.18,-17.14"/>
<polygon fill="#63b8ff" stroke="#63b8ff" points="770.79,-20.59 780.17,-15.66 769.76,-13.66 770.79,-20.59"/>
</g>
<!-- Node18 -->
<g id="node18" class="node">
<title>Node18</title>
<g id="a_node18"><a xlink:title=" ">
<polygon fill="#e0e0e0" stroke="#999999" points="914,-17 871,-17 871,0 914,0 914,-17"/>
<text text-anchor="middle" x="892.5" y="-6.6" font-family="SourceSans" font-size="8.00">chrono</text>
</a>
</g>
</g>
<!-- Node12&#45;&gt;Node18 -->
<g id="edge19" class="edge">
<title>Node12&#45;&gt;Node18</title>
<path fill="none" stroke="#63b8ff" d="M491.69,-54.92C494.62,-54.2 497.63,-53.52 500.5,-53 655.87,-24.64 700.71,-43.22 860.7,-16.85"/>
<polygon fill="#63b8ff" stroke="#63b8ff" points="861.62,-20.24 870.9,-15.13 860.46,-13.34 861.62,-20.24"/>
</g>
<!-- Node19 -->
<g id="node19" class="node">
<title>Node19</title>
<g id="a_node19"><a xlink:title=" ">
<polygon fill="#e0e0e0" stroke="#999999" points="980.5,-17 932.5,-17 932.5,0 980.5,0 980.5,-17"/>
<text text-anchor="middle" x="956.5" y="-6.6" font-family="SourceSans" font-size="8.00">numeric</text>
</a>
</g>
</g>
<!-- Node12&#45;&gt;Node19 -->
<g id="edge20" class="edge">
<title>Node12&#45;&gt;Node19</title>
<path fill="none" stroke="#63b8ff" d="M491.68,-54.88C494.62,-54.16 497.62,-53.5 500.5,-53 683.18,-21.02 735.29,-45.12 922.53,-16.9"/>
<polygon fill="#63b8ff" stroke="#63b8ff" points="923.07,-20.36 932.42,-15.38 922.01,-13.44 923.07,-20.36"/>
</g>
<!-- Node20 -->
<g id="node20" class="node">
<title>Node20</title>
<g id="a_node20"><a xlink:title=" ">
<polygon fill="#e0e0e0" stroke="#999999" points="1052.5,-17 998.5,-17 998.5,0 1052.5,0 1052.5,-17"/>
<text text-anchor="middle" x="1025.5" y="-6.6" font-family="SourceSans" font-size="8.00">algorithm</text>
</a>
</g>
</g>
<!-- Node12&#45;&gt;Node20 -->
<g id="edge21" class="edge">
<title>Node12&#45;&gt;Node20</title>
<path fill="none" stroke="#63b8ff" d="M491.67,-54.85C494.61,-54.14 497.62,-53.49 500.5,-53 712.12,-17.2 771.89,-46.38 988.35,-16.94"/>
<polygon fill="#63b8ff" stroke="#63b8ff" points="989.02,-20.38 998.44,-15.54 988.05,-13.44 989.02,-20.38"/>
</g>
<!-- Node21 -->
<g id="node21" class="node">
<title>Node21</title>
<g id="a_node21"><a xlink:title=" ">
<polygon fill="#e0e0e0" stroke="#999999" points="1108.5,-17 1070.5,-17 1070.5,0 1108.5,0 1108.5,-17"/>
<text text-anchor="middle" x="1089.5" y="-6.6" font-family="SourceSans" font-size="8.00">locale</text>
</a>
</g>
</g>
<!-- Node12&#45;&gt;Node21 -->
<g id="edge22" class="edge">
<title>Node12&#45;&gt;Node21</title>
<path fill="none" stroke="#63b8ff" d="M491.67,-54.83C494.61,-54.12 497.62,-53.47 500.5,-53 743.79,-13.01 813.14,-56.35 1060.33,-16.8"/>
<polygon fill="#63b8ff" stroke="#63b8ff" points="1061.02,-20.23 1070.33,-15.17 1059.9,-13.32 1061.02,-20.23"/>
</g>
<!-- Node22 -->
<g id="node22" class="node">
<title>Node22</title>
<g id="a_node22"><a xlink:title=" ">
<polygon fill="#e0e0e0" stroke="#999999" points="220,-17 175,-17 175,0 220,0 220,-17"/>
<text text-anchor="middle" x="197.5" y="-6.6" font-family="SourceSans" font-size="8.00">codecvt</text>
</a>
</g>
</g>
<!-- Node12&#45;&gt;Node22 -->
<g id="edge23" class="edge">
<title>Node12&#45;&gt;Node22</title>
<path fill="none" stroke="#63b8ff" d="M453.28,-55.09C450.35,-54.34 447.35,-53.62 444.5,-53 352.54,-33.07 325.63,-36.21 230.22,-17.22"/>
<polygon fill="#63b8ff" stroke="#63b8ff" points="230.64,-13.73 220.14,-15.18 229.25,-20.59 230.64,-13.73"/>
</g>
<!-- Node23 -->
<g id="node23" class="node">
<title>Node23</title>
<g id="a_node23"><a xlink:title=" ">
<polygon fill="#e0e0e0" stroke="#999999" points="365,-17 238,-17 238,0 365,0 365,-17"/>
<text text-anchor="middle" x="301.5" y="-6.6" font-family="SourceSans" font-size="8.00">ext/codecvt_specializations.h</text>
</a>
</g>
</g>
<!-- Node12&#45;&gt;Node23 -->
<g id="edge24" class="edge">
<title>Node12&#45;&gt;Node23</title>
<path fill="none" stroke="#63b8ff" d="M453.22,-54.75C424.99,-46.33 371.97,-30.52 336.69,-20"/>
<polygon fill="#63b8ff" stroke="#63b8ff" points="337.38,-16.55 326.8,-17.05 335.38,-23.26 337.38,-16.55"/>
</g>
<!-- Node24 -->
<g id="node24" class="node">
<title>Node24</title>
<g id="a_node24"><a xlink:title=" ">
<polygon fill="#e0e0e0" stroke="#999999" points="430,-17 383,-17 383,0 430,0 430,-17"/>
<text text-anchor="middle" x="406.5" y="-6.6" font-family="SourceSans" font-size="8.00">sstream</text>
</a>
</g>
</g>
<!-- Node12&#45;&gt;Node24 -->
<g id="edge25" class="edge">
<title>Node12&#45;&gt;Node24</title>
<path fill="none" stroke="#63b8ff" d="M462.76,-52.97C452.72,-45.22 436.83,-32.94 424.5,-23.41"/>
<polygon fill="#63b8ff" stroke="#63b8ff" points="426.33,-20.4 416.28,-17.06 422.05,-25.94 426.33,-20.4"/>
</g>
<!-- Node25 -->
<g id="node25" class="node">
<title>Node25</title>
<g id="a_node25"><a xlink:title=" ">
<polygon fill="#e0e0e0" stroke="#999999" points="496.5,-17 448.5,-17 448.5,0 496.5,0 496.5,-17"/>
<text text-anchor="middle" x="472.5" y="-6.6" font-family="SourceSans" font-size="8.00">iomanip</text>
</a>
</g>
</g>
<!-- Node12&#45;&gt;Node25 -->
<g id="edge26" class="edge">
<title>Node12&#45;&gt;Node25</title>
<path fill="none" stroke="#63b8ff" d="M472.5,-52.97C472.5,-46.19 472.5,-35.97 472.5,-27.13"/>
<polygon fill="#63b8ff" stroke="#63b8ff" points="476,-27.06 472.5,-17.06 469,-27.06 476,-27.06"/>
</g>
</g>
</svg>
