<?xml version="1.0" encoding="UTF-8" standalone="no"?>
<!DOCTYPE svg PUBLIC "-//W3C//DTD SVG 1.1//EN"
 "http://www.w3.org/Graphics/SVG/1.1/DTD/svg11.dtd">
<!-- Generated by graphviz version 5.0.0 (0)
 -->
<!-- Title: /home/bkoz/src/alpha60&#45;docs/src/a60&#45;cache&#45;edit.cc Pages: 1 -->
<svg width="2808pt" height="423pt"
 viewBox="0.00 0.00 2807.50 423.00" xmlns="http://www.w3.org/2000/svg" xmlns:xlink="http://www.w3.org/1999/xlink">
<g id="graph0" class="graph" transform="scale(1 1) rotate(0) translate(4 419)">
<title>/home/bkoz/src/alpha60&#45;docs/src/a60&#45;cache&#45;edit.cc</title>
<!-- Node1 -->
<g id="node1" class="node">
<title>Node1</title>
<g id="a_node1"><a xlink:title=" ">
<polygon fill="#999999" stroke="#666666" points="2488.5,-415 2371.5,-415 2371.5,-389 2488.5,-389 2488.5,-415"/>
<text text-anchor="start" x="2379.5" y="-404.6" font-family="SourceSans" font-size="8.00">/home/bkoz/src/alpha60</text>
<text text-anchor="middle" x="2430" y="-395.6" font-family="SourceSans" font-size="8.00">&#45;docs/src/a60&#45;cache&#45;edit.cc</text>
</a>
</g>
</g>
<!-- Node2 -->
<g id="node2" class="node">
<title>Node2</title>
<g id="a_node2"><a xlink:href="a60-json_8h.html" target="_top" xlink:title=" ">
<polygon fill="white" stroke="#666666" points="2236,-353 2180,-353 2180,-336 2236,-336 2236,-353"/>
<text text-anchor="middle" x="2208" y="-342.6" font-family="SourceSans" font-size="8.00">a60&#45;json.h</text>
</a>
</g>
</g>
<!-- Node1&#45;&gt;Node2 -->
<g id="edge1" class="edge">
<title>Node1&#45;&gt;Node2</title>
<path fill="none" stroke="#63b8ff" d="M2381.83,-388.96C2341.15,-378.79 2283.68,-364.42 2246.13,-355.03"/>
<polygon fill="#63b8ff" stroke="#63b8ff" points="2246.65,-351.56 2236.1,-352.53 2244.96,-358.35 2246.65,-351.56"/>
</g>
<!-- Node51 -->
<g id="node51" class="node">
<title>Node51</title>
<g id="a_node51"><a xlink:href="a60-collection-json_8h.html" target="_top" xlink:title=" ">
<polygon fill="white" stroke="#666666" points="2420,-353 2326,-353 2326,-336 2420,-336 2420,-353"/>
<text text-anchor="middle" x="2373" y="-342.6" font-family="SourceSans" font-size="8.00">a60&#45;collection&#45;json.h</text>
</a>
</g>
</g>
<!-- Node1&#45;&gt;Node51 -->
<g id="edge53" class="edge">
<title>Node1&#45;&gt;Node51</title>
<path fill="none" stroke="#63b8ff" d="M2417.63,-388.96C2409.02,-380.57 2397.48,-369.34 2388.29,-360.39"/>
<polygon fill="#63b8ff" stroke="#63b8ff" points="2390.56,-357.72 2380.96,-353.25 2385.68,-362.73 2390.56,-357.72"/>
</g>
<!-- Node56 -->
<g id="node56" class="node">
<title>Node56</title>
<g id="a_node56"><a xlink:href="a60-collection-cache_8h.html" target="_top" xlink:title=" ">
<polygon fill="white" stroke="#666666" points="2542,-353 2442,-353 2442,-336 2542,-336 2542,-353"/>
<text text-anchor="middle" x="2492" y="-342.6" font-family="SourceSans" font-size="8.00">a60&#45;collection&#45;cache.h</text>
</a>
</g>
</g>
<!-- Node1&#45;&gt;Node56 -->
<g id="edge61" class="edge">
<title>Node1&#45;&gt;Node56</title>
<path fill="none" stroke="#63b8ff" d="M2443.45,-388.96C2452.91,-380.49 2465.62,-369.11 2475.67,-360.12"/>
<polygon fill="#63b8ff" stroke="#63b8ff" points="2478.23,-362.53 2483.34,-353.25 2473.56,-357.31 2478.23,-362.53"/>
</g>
<!-- Node65 -->
<g id="node65" class="node">
<title>Node65</title>
<g id="a_node65"><a xlink:href="a60-collection-objects_8h.html" target="_top" xlink:title=" ">
<polygon fill="white" stroke="#666666" points="2675.5,-300 2570.5,-300 2570.5,-283 2675.5,-283 2675.5,-300"/>
<text text-anchor="middle" x="2623" y="-289.6" font-family="SourceSans" font-size="8.00">a60&#45;collection&#45;objects.h</text>
</a>
</g>
</g>
<!-- Node1&#45;&gt;Node65 -->
<g id="edge73" class="edge">
<title>Node1&#45;&gt;Node65</title>
<path fill="none" stroke="#63b8ff" d="M2469.36,-388.98C2493.78,-380.67 2525.29,-368.35 2551,-353 2572.8,-339.99 2594.68,-320.46 2608.5,-307.14"/>
<polygon fill="#63b8ff" stroke="#63b8ff" points="2610.97,-309.61 2615.64,-300.1 2606.06,-304.63 2610.97,-309.61"/>
</g>
<!-- Node3 -->
<g id="node3" class="node">
<title>Node3</title>
<g id="a_node3"><a xlink:href="a60-swarm-functions_8h.html" target="_top" xlink:title=" ">
<polygon fill="white" stroke="#666666" points="2115.5,-300 2012.5,-300 2012.5,-283 2115.5,-283 2115.5,-300"/>
<text text-anchor="middle" x="2064" y="-289.6" font-family="SourceSans" font-size="8.00">a60&#45;swarm&#45;functions.h</text>
</a>
</g>
</g>
<!-- Node2&#45;&gt;Node3 -->
<g id="edge2" class="edge">
<title>Node2&#45;&gt;Node3</title>
<path fill="none" stroke="#63b8ff" d="M2186.75,-335.97C2162.5,-327.39 2122.63,-313.27 2094.94,-303.46"/>
<polygon fill="#63b8ff" stroke="#63b8ff" points="2095.93,-300.1 2085.33,-300.06 2093.59,-306.69 2095.93,-300.1"/>
</g>
<!-- Node4 -->
<g id="node4" class="node">
<title>Node4</title>
<g id="a_node4"><a xlink:href="a60-peer_8h.html" target="_top" xlink:title=" ">
<polygon fill="white" stroke="#666666" points="898,-247 842,-247 842,-230 898,-230 898,-247"/>
<text text-anchor="middle" x="870" y="-236.6" font-family="SourceSans" font-size="8.00">a60&#45;peer.h</text>
</a>
</g>
</g>
<!-- Node3&#45;&gt;Node4 -->
<g id="edge3" class="edge">
<title>Node3&#45;&gt;Node4</title>
<path fill="none" stroke="#63b8ff" d="M2012.31,-288.29C1811.19,-279.7 1083.32,-248.61 908.12,-241.13"/>
<polygon fill="#63b8ff" stroke="#63b8ff" points="908.23,-237.63 898.09,-240.7 907.93,-244.62 908.23,-237.63"/>
</g>
<!-- Node44 -->
<g id="node44" class="node">
<title>Node44</title>
<g id="a_node44"><a xlink:href="a60-json-fwd_8h.html" target="_top" xlink:title=" ">
<polygon fill="white" stroke="#666666" points="2034,-247 1962,-247 1962,-230 2034,-230 2034,-247"/>
<text text-anchor="middle" x="1998" y="-236.6" font-family="SourceSans" font-size="8.00">a60&#45;json&#45;fwd.h</text>
</a>
</g>
</g>
<!-- Node3&#45;&gt;Node44 -->
<g id="edge46" class="edge">
<title>Node3&#45;&gt;Node44</title>
<path fill="none" stroke="#63b8ff" d="M2054.26,-282.97C2044.22,-275.22 2028.33,-262.94 2016,-253.41"/>
<polygon fill="#63b8ff" stroke="#63b8ff" points="2017.83,-250.4 2007.78,-247.06 2013.55,-255.94 2017.83,-250.4"/>
</g>
<!-- Node5 -->
<g id="node5" class="node">
<title>Node5</title>
<g id="a_node5"><a xlink:href="a60-geo_8h.html" target="_top" xlink:title=" ">
<polygon fill="white" stroke="#666666" points="1106,-189.5 1052,-189.5 1052,-172.5 1106,-172.5 1106,-189.5"/>
<text text-anchor="middle" x="1079" y="-179.1" font-family="SourceSans" font-size="8.00">a60&#45;geo.h</text>
</a>
</g>
</g>
<!-- Node4&#45;&gt;Node5 -->
<g id="edge4" class="edge">
<title>Node4&#45;&gt;Node5</title>
<path fill="none" stroke="#63b8ff" d="M898.16,-230.98C932.35,-222.93 991.69,-208.5 1042,-194 1043.46,-193.58 1044.95,-193.14 1046.45,-192.69"/>
<polygon fill="#63b8ff" stroke="#63b8ff" points="1047.87,-195.91 1056.37,-189.6 1045.79,-189.23 1047.87,-195.91"/>
</g>
<!-- Node31 -->
<g id="node31" class="node">
<title>Node31</title>
<g id="a_node31"><a xlink:href="a60-network-functions_8h.html" target="_top" xlink:title=" ">
<polygon fill="white" stroke="#666666" points="1233.5,-189.5 1124.5,-189.5 1124.5,-172.5 1233.5,-172.5 1233.5,-189.5"/>
<text text-anchor="middle" x="1179" y="-179.1" font-family="SourceSans" font-size="8.00">a60&#45;network&#45;functions.h</text>
</a>
</g>
</g>
<!-- Node4&#45;&gt;Node31 -->
<g id="edge33" class="edge">
<title>Node4&#45;&gt;Node31</title>
<path fill="none" stroke="#63b8ff" d="M898.31,-232.56C943.95,-224.59 1036.59,-208.31 1115,-194 1119.5,-193.18 1124.18,-192.32 1128.86,-191.45"/>
<polygon fill="#63b8ff" stroke="#63b8ff" points="1129.88,-194.82 1139.07,-189.55 1128.6,-187.94 1129.88,-194.82"/>
</g>
<!-- Node32 -->
<g id="node32" class="node">
<title>Node32</title>
<g id="a_node32"><a xlink:title=" ">
<polygon fill="#e0e0e0" stroke="#999999" points="1344.5,-189.5 1251.5,-189.5 1251.5,-172.5 1344.5,-172.5 1344.5,-189.5"/>
<text text-anchor="middle" x="1298" y="-179.1" font-family="SourceSans" font-size="8.00">libtorrent/entry.hpp</text>
</a>
</g>
</g>
<!-- Node4&#45;&gt;Node32 -->
<g id="edge34" class="edge">
<title>Node4&#45;&gt;Node32</title>
<path fill="none" stroke="#63b8ff" d="M898.13,-235.13C960.36,-229.68 1114.33,-215.09 1242,-194 1246.42,-193.27 1251.03,-192.42 1255.61,-191.53"/>
<polygon fill="#63b8ff" stroke="#63b8ff" points="1256.43,-194.93 1265.53,-189.5 1255.03,-188.07 1256.43,-194.93"/>
</g>
<!-- Node33 -->
<g id="node33" class="node">
<title>Node33</title>
<g id="a_node33"><a xlink:title=" ">
<polygon fill="#e0e0e0" stroke="#999999" points="1469.5,-189.5 1362.5,-189.5 1362.5,-172.5 1469.5,-172.5 1469.5,-189.5"/>
<text text-anchor="middle" x="1416" y="-179.1" font-family="SourceSans" font-size="8.00">libtorrent/bencode.hpp</text>
</a>
</g>
</g>
<!-- Node4&#45;&gt;Node33 -->
<g id="edge35" class="edge">
<title>Node4&#45;&gt;Node33</title>
<path fill="none" stroke="#63b8ff" d="M898.15,-235.94C972.65,-231.59 1181.03,-218.06 1353,-194 1358.44,-193.24 1364.13,-192.32 1369.77,-191.34"/>
<polygon fill="#63b8ff" stroke="#63b8ff" points="1370.57,-194.76 1379.79,-189.53 1369.32,-187.87 1370.57,-194.76"/>
</g>
<!-- Node34 -->
<g id="node34" class="node">
<title>Node34</title>
<g id="a_node34"><a xlink:title=" ">
<polygon fill="#e0e0e0" stroke="#999999" points="1588,-189.5 1488,-189.5 1488,-172.5 1588,-172.5 1588,-189.5"/>
<text text-anchor="middle" x="1538" y="-179.1" font-family="SourceSans" font-size="8.00">libtorrent/torrent.hpp</text>
</a>
</g>
</g>
<!-- Node4&#45;&gt;Node34 -->
<g id="edge36" class="edge">
<title>Node4&#45;&gt;Node34</title>
<path fill="none" stroke="#63b8ff" d="M898.01,-236.75C984.61,-234.17 1255.67,-224.06 1478,-194 1483.2,-193.3 1488.62,-192.42 1493.99,-191.46"/>
<polygon fill="#63b8ff" stroke="#63b8ff" points="1494.99,-194.83 1504.17,-189.54 1493.7,-187.95 1494.99,-194.83"/>
</g>
<!-- Node35 -->
<g id="node35" class="node">
<title>Node35</title>
<g id="a_node35"><a xlink:title=" ">
<polygon fill="#e0e0e0" stroke="#999999" points="82,-194 0,-194 0,-168 82,-168 82,-194"/>
<text text-anchor="start" x="8" y="-183.6" font-family="SourceSans" font-size="8.00">libtorrent/torrent</text>
<text text-anchor="middle" x="41" y="-174.6" font-family="SourceSans" font-size="8.00">_info.hpp</text>
</a>
</g>
</g>
<!-- Node4&#45;&gt;Node35 -->
<g id="edge37" class="edge">
<title>Node4&#45;&gt;Node35</title>
<path fill="none" stroke="#63b8ff" d="M841.87,-237.75C741.3,-238.25 390.17,-236.75 92.22,-193.95"/>
<polygon fill="#63b8ff" stroke="#63b8ff" points="92.49,-190.46 82.09,-192.48 91.48,-197.38 92.49,-190.46"/>
</g>
<!-- Node36 -->
<g id="node36" class="node">
<title>Node36</title>
<g id="a_node36"><a xlink:title=" ">
<polygon fill="#e0e0e0" stroke="#999999" points="182,-194 100,-194 100,-168 182,-168 182,-194"/>
<text text-anchor="start" x="108" y="-183.6" font-family="SourceSans" font-size="8.00">libtorrent/torrent</text>
<text text-anchor="middle" x="141" y="-174.6" font-family="SourceSans" font-size="8.00">_status.hpp</text>
</a>
</g>
</g>
<!-- Node4&#45;&gt;Node36 -->
<g id="edge38" class="edge">
<title>Node4&#45;&gt;Node36</title>
<path fill="none" stroke="#63b8ff" d="M841.68,-237.42C749.4,-236.79 449.01,-231.89 191.98,-193.93"/>
<polygon fill="#63b8ff" stroke="#63b8ff" points="192.5,-190.47 182.09,-192.45 191.46,-197.39 192.5,-190.47"/>
</g>
<!-- Node37 -->
<g id="node37" class="node">
<title>Node37</title>
<g id="a_node37"><a xlink:title=" ">
<polygon fill="#e0e0e0" stroke="#999999" points="310,-189.5 200,-189.5 200,-172.5 310,-172.5 310,-189.5"/>
<text text-anchor="middle" x="255" y="-179.1" font-family="SourceSans" font-size="8.00">libtorrent/peer_info.hpp</text>
</a>
</g>
</g>
<!-- Node4&#45;&gt;Node37 -->
<g id="edge39" class="edge">
<title>Node4&#45;&gt;Node37</title>
<path fill="none" stroke="#63b8ff" d="M841.79,-236.34C760.41,-232.75 518.28,-220.47 319,-194 313.26,-193.24 307.25,-192.3 301.31,-191.29"/>
<polygon fill="#63b8ff" stroke="#63b8ff" points="301.9,-187.84 291.44,-189.53 300.68,-194.73 301.9,-187.84"/>
</g>
<!-- Node38 -->
<g id="node38" class="node">
<title>Node38</title>
<g id="a_node38"><a xlink:title=" ">
<polygon fill="#e0e0e0" stroke="#999999" points="422,-194 328,-194 328,-168 422,-168 422,-194"/>
<text text-anchor="start" x="336" y="-183.6" font-family="SourceSans" font-size="8.00">libtorrent/announce</text>
<text text-anchor="middle" x="375" y="-174.6" font-family="SourceSans" font-size="8.00">_entry.hpp</text>
</a>
</g>
</g>
<!-- Node4&#45;&gt;Node38 -->
<g id="edge40" class="edge">
<title>Node4&#45;&gt;Node38</title>
<path fill="none" stroke="#63b8ff" d="M841.87,-235.81C773.46,-231.48 592.79,-218.62 432.34,-194.08"/>
<polygon fill="#63b8ff" stroke="#63b8ff" points="432.7,-190.6 422.29,-192.52 431.63,-197.51 432.7,-190.6"/>
</g>
<!-- Node39 -->
<g id="node39" class="node">
<title>Node39</title>
<g id="a_node39"><a xlink:title=" ">
<polygon fill="#e0e0e0" stroke="#999999" points="547.5,-189.5 440.5,-189.5 440.5,-172.5 547.5,-172.5 547.5,-189.5"/>
<text text-anchor="middle" x="494" y="-179.1" font-family="SourceSans" font-size="8.00">libtorrent/bdecode.hpp</text>
</a>
</g>
</g>
<!-- Node4&#45;&gt;Node39 -->
<g id="edge41" class="edge">
<title>Node4&#45;&gt;Node39</title>
<path fill="none" stroke="#63b8ff" d="M841.87,-234.07C786.97,-227.27 661.75,-211.24 557,-194 552.17,-193.21 547.15,-192.33 542.13,-191.43"/>
<polygon fill="#63b8ff" stroke="#63b8ff" points="542.39,-187.91 531.92,-189.54 541.12,-194.8 542.39,-187.91"/>
</g>
<!-- Node40 -->
<g id="node40" class="node">
<title>Node40</title>
<g id="a_node40"><a xlink:title=" ">
<polygon fill="#e0e0e0" stroke="#999999" points="684,-189.5 566,-189.5 566,-172.5 684,-172.5 684,-189.5"/>
<text text-anchor="middle" x="625" y="-179.1" font-family="SourceSans" font-size="8.00">libtorrent/magnet_uri.hpp</text>
</a>
</g>
</g>
<!-- Node4&#45;&gt;Node40 -->
<g id="edge42" class="edge">
<title>Node4&#45;&gt;Node40</title>
<path fill="none" stroke="#63b8ff" d="M841.9,-231.13C799.33,-221.49 718.18,-203.11 668.11,-191.77"/>
<polygon fill="#63b8ff" stroke="#63b8ff" points="668.75,-188.32 658.22,-189.53 667.2,-195.15 668.75,-188.32"/>
</g>
<!-- Node41 -->
<g id="node41" class="node">
<title>Node41</title>
<g id="a_node41"><a xlink:title=" ">
<polygon fill="#e0e0e0" stroke="#999999" points="803.5,-189.5 702.5,-189.5 702.5,-172.5 803.5,-172.5 803.5,-189.5"/>
<text text-anchor="middle" x="753" y="-179.1" font-family="SourceSans" font-size="8.00">libtorrent/session.hpp</text>
</a>
</g>
</g>
<!-- Node4&#45;&gt;Node41 -->
<g id="edge43" class="edge">
<title>Node4&#45;&gt;Node41</title>
<path fill="none" stroke="#63b8ff" d="M853.73,-229.78C834.17,-220.5 801.13,-204.83 778.25,-193.98"/>
<polygon fill="#63b8ff" stroke="#63b8ff" points="779.67,-190.78 769.13,-189.65 776.67,-197.1 779.67,-190.78"/>
</g>
<!-- Node42 -->
<g id="node42" class="node">
<title>Node42</title>
<g id="a_node42"><a xlink:title=" ">
<polygon fill="#e0e0e0" stroke="#999999" points="918.5,-194 821.5,-194 821.5,-168 918.5,-168 918.5,-194"/>
<text text-anchor="start" x="829.5" y="-183.6" font-family="SourceSans" font-size="8.00">libtorrent/extensions</text>
<text text-anchor="middle" x="870" y="-174.6" font-family="SourceSans" font-size="8.00">/ut_metadata.hpp</text>
</a>
</g>
</g>
<!-- Node4&#45;&gt;Node42 -->
<g id="edge44" class="edge">
<title>Node4&#45;&gt;Node42</title>
<path fill="none" stroke="#63b8ff" d="M870,-229.78C870,-223.26 870,-213.58 870,-204.63"/>
<polygon fill="#63b8ff" stroke="#63b8ff" points="873.5,-204.34 870,-194.34 866.5,-204.34 873.5,-204.34"/>
</g>
<!-- Node43 -->
<g id="node43" class="node">
<title>Node43</title>
<g id="a_node43"><a xlink:title=" ">
<polygon fill="#e0e0e0" stroke="#999999" points="1033.5,-194 936.5,-194 936.5,-168 1033.5,-168 1033.5,-194"/>
<text text-anchor="start" x="944.5" y="-183.6" font-family="SourceSans" font-size="8.00">libtorrent/extensions</text>
<text text-anchor="middle" x="985" y="-174.6" font-family="SourceSans" font-size="8.00">/ut_pex.hpp</text>
</a>
</g>
</g>
<!-- Node4&#45;&gt;Node43 -->
<g id="edge45" class="edge">
<title>Node4&#45;&gt;Node43</title>
<path fill="none" stroke="#63b8ff" d="M885.99,-229.78C902.66,-221.74 929.28,-208.89 950.73,-198.54"/>
<polygon fill="#63b8ff" stroke="#63b8ff" points="952.38,-201.63 959.86,-194.13 949.33,-195.33 952.38,-201.63"/>
</g>
<!-- Node6 -->
<g id="node6" class="node">
<title>Node6</title>
<g id="a_node6"><a xlink:title=" ">
<polygon fill="#e0e0e0" stroke="#999999" points="1008.5,-17 967.5,-17 967.5,0 1008.5,0 1008.5,-17"/>
<text text-anchor="middle" x="988" y="-6.6" font-family="SourceSans" font-size="8.00">cmath</text>
</a>
</g>
</g>
<!-- Node5&#45;&gt;Node6 -->
<g id="edge5" class="edge">
<title>Node5&#45;&gt;Node6</title>
<path fill="none" stroke="#63b8ff" d="M1074.85,-172.23C1061.06,-146.38 1016.47,-62.85 997.11,-26.57"/>
<polygon fill="#63b8ff" stroke="#63b8ff" points="999.97,-24.49 992.17,-17.31 993.79,-27.78 999.97,-24.49"/>
</g>
<!-- Node7 -->
<g id="node7" class="node">
<title>Node7</title>
<g id="a_node7"><a xlink:title=" ">
<polygon fill="#e0e0e0" stroke="#999999" points="1055.5,-17 1026.5,-17 1026.5,0 1055.5,0 1055.5,-17"/>
<text text-anchor="middle" x="1041" y="-6.6" font-family="SourceSans" font-size="8.00">set</text>
</a>
</g>
</g>
<!-- Node5&#45;&gt;Node7 -->
<g id="edge6" class="edge">
<title>Node5&#45;&gt;Node7</title>
<path fill="none" stroke="#63b8ff" d="M1077.27,-172.23C1071.56,-146.6 1053.21,-64.28 1045.02,-27.52"/>
<polygon fill="#63b8ff" stroke="#63b8ff" points="1048.33,-26.31 1042.74,-17.31 1041.5,-27.84 1048.33,-26.31"/>
</g>
<!-- Node8 -->
<g id="node8" class="node">
<title>Node8</title>
<g id="a_node8"><a xlink:title=" ">
<polygon fill="#e0e0e0" stroke="#999999" points="1827,-127.5 1771,-127.5 1771,-110.5 1827,-110.5 1827,-127.5"/>
<text text-anchor="middle" x="1799" y="-117.1" font-family="SourceSans" font-size="8.00">functional</text>
</a>
</g>
</g>
<!-- Node5&#45;&gt;Node8 -->
<g id="edge7" class="edge">
<title>Node5&#45;&gt;Node8</title>
<path fill="none" stroke="#63b8ff" d="M1098.56,-172.49C1103.83,-170.74 1109.57,-169.08 1115,-168 1357.43,-119.89 1656.53,-118.24 1760.92,-119.34"/>
<polygon fill="#63b8ff" stroke="#63b8ff" points="1760.94,-122.84 1770.98,-119.46 1761.02,-115.84 1760.94,-122.84"/>
</g>
<!-- Node9 -->
<g id="node9" class="node">
<title>Node9</title>
<g id="a_node9"><a xlink:title=" ">
<polygon fill="#e0e0e0" stroke="#999999" points="1124,-17 1074,-17 1074,0 1124,0 1124,-17"/>
<text text-anchor="middle" x="1099" y="-6.6" font-family="SourceSans" font-size="8.00">iostream</text>
</a>
</g>
</g>
<!-- Node5&#45;&gt;Node9 -->
<g id="edge8" class="edge">
<title>Node5&#45;&gt;Node9</title>
<path fill="none" stroke="#63b8ff" d="M1079.91,-172.23C1082.92,-146.6 1092.57,-64.28 1096.89,-27.52"/>
<polygon fill="#63b8ff" stroke="#63b8ff" points="1100.39,-27.65 1098.08,-17.31 1093.44,-26.84 1100.39,-27.65"/>
</g>
<!-- Node10 -->
<g id="node10" class="node">
<title>Node10</title>
<g id="a_node10"><a xlink:href="a60-io_8h.html" target="_top" xlink:title=" ">
<polygon fill="white" stroke="#666666" points="1233.5,-127.5 1186.5,-127.5 1186.5,-110.5 1233.5,-110.5 1233.5,-127.5"/>
<text text-anchor="middle" x="1210" y="-117.1" font-family="SourceSans" font-size="8.00">a60&#45;io.h</text>
</a>
</g>
</g>
<!-- Node5&#45;&gt;Node10 -->
<g id="edge9" class="edge">
<title>Node5&#45;&gt;Node10</title>
<path fill="none" stroke="#63b8ff" d="M1095.59,-172.4C1117.94,-162.17 1157.92,-143.85 1184.21,-131.81"/>
<polygon fill="#63b8ff" stroke="#63b8ff" points="1185.91,-134.88 1193.54,-127.54 1182.99,-128.52 1185.91,-134.88"/>
</g>
<!-- Node29 -->
<g id="node29" class="node">
<title>Node29</title>
<g id="a_node29"><a xlink:title=" ">
<polygon fill="#e0e0e0" stroke="#999999" points="1298,-127.5 1252,-127.5 1252,-110.5 1298,-110.5 1298,-127.5"/>
<text text-anchor="middle" x="1275" y="-117.1" font-family="SourceSans" font-size="8.00">GeoIP.h</text>
</a>
</g>
</g>
<!-- Node5&#45;&gt;Node29 -->
<g id="edge31" class="edge">
<title>Node5&#45;&gt;Node29</title>
<path fill="none" stroke="#63b8ff" d="M1101.03,-172.48C1105.64,-170.96 1110.47,-169.4 1115,-168 1171.07,-150.72 1186.17,-150.04 1242,-132 1243.04,-131.66 1244.1,-131.31 1245.17,-130.96"/>
<polygon fill="#63b8ff" stroke="#63b8ff" points="1246.54,-134.19 1254.84,-127.59 1244.24,-127.57 1246.54,-134.19"/>
</g>
<!-- Node30 -->
<g id="node30" class="node">
<title>Node30</title>
<g id="a_node30"><a xlink:title=" ">
<polygon fill="#e0e0e0" stroke="#999999" points="1377.5,-127.5 1316.5,-127.5 1316.5,-110.5 1377.5,-110.5 1377.5,-127.5"/>
<text text-anchor="middle" x="1347" y="-117.1" font-family="SourceSans" font-size="8.00">GeoIPCity.h</text>
</a>
</g>
</g>
<!-- Node5&#45;&gt;Node30 -->
<g id="edge32" class="edge">
<title>Node5&#45;&gt;Node30</title>
<path fill="none" stroke="#63b8ff" d="M1100.18,-172.41C1105.01,-170.82 1110.15,-169.26 1115,-168 1199.04,-146.22 1222.64,-152.5 1307,-132 1309.18,-131.47 1311.41,-130.9 1313.65,-130.29"/>
<polygon fill="#63b8ff" stroke="#63b8ff" points="1314.76,-133.62 1323.42,-127.53 1312.85,-126.88 1314.76,-133.62"/>
</g>
<!-- Node11 -->
<g id="node11" class="node">
<title>Node11</title>
<g id="a_node11"><a xlink:title=" ">
<polygon fill="#e0e0e0" stroke="#999999" points="1407,-70 1361,-70 1361,-53 1407,-53 1407,-70"/>
<text text-anchor="middle" x="1384" y="-59.6" font-family="SourceSans" font-size="8.00">fstream</text>
</a>
</g>
</g>
<!-- Node10&#45;&gt;Node11 -->
<g id="edge10" class="edge">
<title>Node10&#45;&gt;Node11</title>
<path fill="none" stroke="#63b8ff" d="M1230.19,-110.48C1234.41,-108.96 1238.84,-107.4 1243,-106 1279.77,-93.65 1322.37,-80.69 1351.04,-72.17"/>
<polygon fill="#63b8ff" stroke="#63b8ff" points="1352.34,-75.43 1360.93,-69.23 1350.35,-68.72 1352.34,-75.43"/>
</g>
<!-- Node12 -->
<g id="node12" class="node">
<title>Node12</title>
<g id="a_node12"><a xlink:title=" ">
<polygon fill="#e0e0e0" stroke="#999999" points="1215,-70 1107,-70 1107,-53 1215,-53 1215,-70"/>
<text text-anchor="middle" x="1161" y="-59.6" font-family="SourceSans" font-size="8.00">experimental/filesystem</text>
</a>
</g>
</g>
<!-- Node10&#45;&gt;Node12 -->
<g id="edge11" class="edge">
<title>Node10&#45;&gt;Node12</title>
<path fill="none" stroke="#63b8ff" d="M1203.19,-110.28C1195.8,-101.92 1183.82,-88.35 1174.51,-77.8"/>
<polygon fill="#63b8ff" stroke="#63b8ff" points="1177,-75.33 1167.76,-70.15 1171.75,-79.96 1177,-75.33"/>
</g>
<!-- Node13 -->
<g id="node13" class="node">
<title>Node13</title>
<g id="a_node13"><a xlink:title=" ">
<polygon fill="#e0e0e0" stroke="#999999" points="1286.5,-70 1233.5,-70 1233.5,-53 1286.5,-53 1286.5,-70"/>
<text text-anchor="middle" x="1260" y="-59.6" font-family="SourceSans" font-size="8.00">stdexcept</text>
</a>
</g>
</g>
<!-- Node10&#45;&gt;Node13 -->
<g id="edge12" class="edge">
<title>Node10&#45;&gt;Node13</title>
<path fill="none" stroke="#63b8ff" d="M1216.95,-110.28C1224.49,-101.92 1236.71,-88.35 1246.21,-77.8"/>
<polygon fill="#63b8ff" stroke="#63b8ff" points="1249.01,-79.92 1253.11,-70.15 1243.81,-75.24 1249.01,-79.92"/>
</g>
<!-- Node14 -->
<g id="node14" class="node">
<title>Node14</title>
<g id="a_node14"><a xlink:title=" ">
<polygon fill="#e0e0e0" stroke="#999999" points="1343,-70 1305,-70 1305,-53 1343,-53 1343,-70"/>
<text text-anchor="middle" x="1324" y="-59.6" font-family="SourceSans" font-size="8.00">regex</text>
</a>
</g>
</g>
<!-- Node10&#45;&gt;Node14 -->
<g id="edge13" class="edge">
<title>Node10&#45;&gt;Node14</title>
<path fill="none" stroke="#63b8ff" d="M1225.85,-110.28C1244.82,-101.05 1276.82,-85.47 1299.1,-74.62"/>
<polygon fill="#63b8ff" stroke="#63b8ff" points="1300.82,-77.68 1308.28,-70.15 1297.76,-71.38 1300.82,-77.68"/>
</g>
<!-- Node15 -->
<g id="node15" class="node">
<title>Node15</title>
<g id="a_node15"><a xlink:href="a60_8h.html" target="_top" xlink:title=" ">
<polygon fill="white" stroke="#666666" points="1545,-70 1507,-70 1507,-53 1545,-53 1545,-70"/>
<text text-anchor="middle" x="1526" y="-59.6" font-family="SourceSans" font-size="8.00">a60.h</text>
</a>
</g>
</g>
<!-- Node10&#45;&gt;Node15 -->
<g id="edge14" class="edge">
<title>Node10&#45;&gt;Node15</title>
<path fill="none" stroke="#63b8ff" d="M1228.65,-110.5C1233.28,-108.84 1238.28,-107.21 1243,-106 1334.04,-82.69 1444.95,-70.09 1496.74,-65.09"/>
<polygon fill="#63b8ff" stroke="#63b8ff" points="1497.23,-68.56 1506.86,-64.13 1496.58,-61.59 1497.23,-68.56"/>
</g>
<!-- Node15&#45;&gt;Node6 -->
<g id="edge15" class="edge">
<title>Node15&#45;&gt;Node6</title>
<path fill="none" stroke="#63b8ff" d="M1506.72,-59.04C1423.81,-52.76 1098.59,-27.87 1018.48,-16.79"/>
<polygon fill="#63b8ff" stroke="#63b8ff" points="1018.92,-13.31 1008.5,-15.26 1017.86,-20.23 1018.92,-13.31"/>
</g>
<!-- Node15&#45;&gt;Node7 -->
<g id="edge19" class="edge">
<title>Node15&#45;&gt;Node7</title>
<path fill="none" stroke="#63b8ff" d="M1506.88,-59.23C1433.55,-54.28 1169.68,-35.73 1065.46,-16.51"/>
<polygon fill="#63b8ff" stroke="#63b8ff" points="1066.08,-13.07 1055.6,-14.59 1064.74,-19.94 1066.08,-13.07"/>
</g>
<!-- Node15&#45;&gt;Node9 -->
<g id="edge30" class="edge">
<title>Node15&#45;&gt;Node9</title>
<path fill="none" stroke="#63b8ff" d="M1506.68,-59.1C1450.68,-54.88 1283.32,-41.18 1134.43,-17.05"/>
<polygon fill="#63b8ff" stroke="#63b8ff" points="1134.63,-13.54 1124.19,-15.37 1133.49,-20.45 1134.63,-13.54"/>
</g>
<!-- Node16 -->
<g id="node16" class="node">
<title>Node16</title>
<g id="a_node16"><a xlink:title=" ">
<polygon fill="#e0e0e0" stroke="#999999" points="1575.5,-17 1538.5,-17 1538.5,0 1575.5,0 1575.5,-17"/>
<text text-anchor="middle" x="1557" y="-6.6" font-family="SourceSans" font-size="8.00">tuple</text>
</a>
</g>
</g>
<!-- Node15&#45;&gt;Node16 -->
<g id="edge16" class="edge">
<title>Node15&#45;&gt;Node16</title>
<path fill="none" stroke="#63b8ff" d="M1530.57,-52.97C1534.92,-45.82 1541.61,-34.82 1547.17,-25.67"/>
<polygon fill="#63b8ff" stroke="#63b8ff" points="1550.2,-27.42 1552.41,-17.06 1544.22,-23.78 1550.2,-27.42"/>
</g>
<!-- Node17 -->
<g id="node17" class="node">
<title>Node17</title>
<g id="a_node17"><a xlink:title=" ">
<polygon fill="#e0e0e0" stroke="#999999" points="1632.5,-17 1593.5,-17 1593.5,0 1632.5,0 1632.5,-17"/>
<text text-anchor="middle" x="1613" y="-6.6" font-family="SourceSans" font-size="8.00">string</text>
</a>
</g>
</g>
<!-- Node15&#45;&gt;Node17 -->
<g id="edge17" class="edge">
<title>Node15&#45;&gt;Node17</title>
<path fill="none" stroke="#63b8ff" d="M1538.84,-52.97C1552.59,-44.91 1574.65,-31.98 1591.15,-22.31"/>
<polygon fill="#63b8ff" stroke="#63b8ff" points="1593.25,-25.13 1600.11,-17.06 1589.71,-19.09 1593.25,-25.13"/>
</g>
<!-- Node18 -->
<g id="node18" class="node">
<title>Node18</title>
<g id="a_node18"><a xlink:title=" ">
<polygon fill="#e0e0e0" stroke="#999999" points="1689.5,-17 1650.5,-17 1650.5,0 1689.5,0 1689.5,-17"/>
<text text-anchor="middle" x="1670" y="-6.6" font-family="SourceSans" font-size="8.00">vector</text>
</a>
</g>
</g>
<!-- Node15&#45;&gt;Node18 -->
<g id="edge18" class="edge">
<title>Node15&#45;&gt;Node18</title>
<path fill="none" stroke="#63b8ff" d="M1545.12,-53.73C1569.62,-45.05 1612.33,-29.93 1640.88,-19.81"/>
<polygon fill="#63b8ff" stroke="#63b8ff" points="1642.08,-23.1 1650.34,-16.46 1639.74,-16.5 1642.08,-23.1"/>
</g>
<!-- Node19 -->
<g id="node19" class="node">
<title>Node19</title>
<g id="a_node19"><a xlink:title=" ">
<polygon fill="#e0e0e0" stroke="#999999" points="1786,-17 1708,-17 1708,0 1786,0 1786,-17"/>
<text text-anchor="middle" x="1747" y="-6.6" font-family="SourceSans" font-size="8.00">unordered_map</text>
</a>
</g>
</g>
<!-- Node15&#45;&gt;Node19 -->
<g id="edge20" class="edge">
<title>Node15&#45;&gt;Node19</title>
<path fill="none" stroke="#63b8ff" d="M1545.23,-56.06C1580.52,-47.92 1656.42,-30.4 1704.41,-19.33"/>
<polygon fill="#63b8ff" stroke="#63b8ff" points="1705.25,-22.73 1714.2,-17.07 1703.67,-15.91 1705.25,-22.73"/>
</g>
<!-- Node20 -->
<g id="node20" class="node">
<title>Node20</title>
<g id="a_node20"><a xlink:title=" ">
<polygon fill="#e0e0e0" stroke="#999999" points="1876,-17 1804,-17 1804,0 1876,0 1876,-17"/>
<text text-anchor="middle" x="1840" y="-6.6" font-family="SourceSans" font-size="8.00">unordered_set</text>
</a>
</g>
</g>
<!-- Node15&#45;&gt;Node20 -->
<g id="edge21" class="edge">
<title>Node15&#45;&gt;Node20</title>
<path fill="none" stroke="#63b8ff" d="M1545.25,-57.42C1587.99,-50.57 1694.25,-33.52 1793.74,-17.2"/>
<polygon fill="#63b8ff" stroke="#63b8ff" points="1794.35,-20.65 1803.65,-15.57 1793.22,-13.74 1794.35,-20.65"/>
</g>
<!-- Node21 -->
<g id="node21" class="node">
<title>Node21</title>
<g id="a_node21"><a xlink:title=" ">
<polygon fill="#e0e0e0" stroke="#999999" points="1937.5,-17 1894.5,-17 1894.5,0 1937.5,0 1937.5,-17"/>
<text text-anchor="middle" x="1916" y="-6.6" font-family="SourceSans" font-size="8.00">chrono</text>
</a>
</g>
</g>
<!-- Node15&#45;&gt;Node21 -->
<g id="edge22" class="edge">
<title>Node15&#45;&gt;Node21</title>
<path fill="none" stroke="#63b8ff" d="M1545.19,-58.97C1597.75,-54.61 1748.58,-40.99 1884.23,-16.9"/>
<polygon fill="#63b8ff" stroke="#63b8ff" points="1885.17,-20.29 1894.39,-15.07 1883.93,-13.4 1885.17,-20.29"/>
</g>
<!-- Node22 -->
<g id="node22" class="node">
<title>Node22</title>
<g id="a_node22"><a xlink:title=" ">
<polygon fill="#e0e0e0" stroke="#999999" points="2004,-17 1956,-17 1956,0 2004,0 2004,-17"/>
<text text-anchor="middle" x="1980" y="-6.6" font-family="SourceSans" font-size="8.00">numeric</text>
</a>
</g>
</g>
<!-- Node15&#45;&gt;Node22 -->
<g id="edge23" class="edge">
<title>Node15&#45;&gt;Node22</title>
<path fill="none" stroke="#63b8ff" d="M1545.41,-59.33C1604.21,-55.61 1785.64,-42.85 1945.88,-16.97"/>
<polygon fill="#63b8ff" stroke="#63b8ff" points="1946.61,-20.4 1955.92,-15.33 1945.48,-13.49 1946.61,-20.4"/>
</g>
<!-- Node23 -->
<g id="node23" class="node">
<title>Node23</title>
<g id="a_node23"><a xlink:title=" ">
<polygon fill="#e0e0e0" stroke="#999999" points="2076,-17 2022,-17 2022,0 2076,0 2076,-17"/>
<text text-anchor="middle" x="2049" y="-6.6" font-family="SourceSans" font-size="8.00">algorithm</text>
</a>
</g>
</g>
<!-- Node15&#45;&gt;Node23 -->
<g id="edge24" class="edge">
<title>Node15&#45;&gt;Node23</title>
<path fill="none" stroke="#63b8ff" d="M1545.12,-59.59C1609.5,-56.37 1824.32,-44.27 2011.89,-16.97"/>
<polygon fill="#63b8ff" stroke="#63b8ff" points="2012.55,-20.41 2021.93,-15.49 2011.53,-13.49 2012.55,-20.41"/>
</g>
<!-- Node24 -->
<g id="node24" class="node">
<title>Node24</title>
<g id="a_node24"><a xlink:title=" ">
<polygon fill="#e0e0e0" stroke="#999999" points="1180,-17 1142,-17 1142,0 1180,0 1180,-17"/>
<text text-anchor="middle" x="1161" y="-6.6" font-family="SourceSans" font-size="8.00">locale</text>
</a>
</g>
</g>
<!-- Node15&#45;&gt;Node24 -->
<g id="edge25" class="edge">
<title>Node15&#45;&gt;Node24</title>
<path fill="none" stroke="#63b8ff" d="M1506.85,-58.93C1456.51,-54.61 1316.17,-41.36 1190.03,-16.94"/>
<polygon fill="#63b8ff" stroke="#63b8ff" points="1190.69,-13.5 1180.2,-15 1189.34,-20.37 1190.69,-13.5"/>
</g>
<!-- Node25 -->
<g id="node25" class="node">
<title>Node25</title>
<g id="a_node25"><a xlink:title=" ">
<polygon fill="#e0e0e0" stroke="#999999" points="1243.5,-17 1198.5,-17 1198.5,0 1243.5,0 1243.5,-17"/>
<text text-anchor="middle" x="1221" y="-6.6" font-family="SourceSans" font-size="8.00">codecvt</text>
</a>
</g>
</g>
<!-- Node15&#45;&gt;Node25 -->
<g id="edge26" class="edge">
<title>Node15&#45;&gt;Node25</title>
<path fill="none" stroke="#63b8ff" d="M1506.97,-58.01C1463.72,-52.25 1354.51,-37.06 1253.68,-17.2"/>
<polygon fill="#63b8ff" stroke="#63b8ff" points="1254.13,-13.72 1243.64,-15.2 1252.76,-20.58 1254.13,-13.72"/>
</g>
<!-- Node26 -->
<g id="node26" class="node">
<title>Node26</title>
<g id="a_node26"><a xlink:title=" ">
<polygon fill="#e0e0e0" stroke="#999999" points="1388.5,-17 1261.5,-17 1261.5,0 1388.5,0 1388.5,-17"/>
<text text-anchor="middle" x="1325" y="-6.6" font-family="SourceSans" font-size="8.00">ext/codecvt_specializations.h</text>
</a>
</g>
</g>
<!-- Node15&#45;&gt;Node26 -->
<g id="edge27" class="edge">
<title>Node15&#45;&gt;Node26</title>
<path fill="none" stroke="#63b8ff" d="M1506.73,-55.61C1474.16,-47.35 1407.61,-30.46 1364.71,-19.58"/>
<polygon fill="#63b8ff" stroke="#63b8ff" points="1365.44,-16.15 1354.88,-17.08 1363.72,-22.93 1365.44,-16.15"/>
</g>
<!-- Node27 -->
<g id="node27" class="node">
<title>Node27</title>
<g id="a_node27"><a xlink:title=" ">
<polygon fill="#e0e0e0" stroke="#999999" points="1453.5,-17 1406.5,-17 1406.5,0 1453.5,0 1453.5,-17"/>
<text text-anchor="middle" x="1430" y="-6.6" font-family="SourceSans" font-size="8.00">sstream</text>
</a>
</g>
</g>
<!-- Node15&#45;&gt;Node27 -->
<g id="edge28" class="edge">
<title>Node15&#45;&gt;Node27</title>
<path fill="none" stroke="#63b8ff" d="M1511.83,-52.97C1496.38,-44.76 1471.4,-31.49 1453.1,-21.77"/>
<polygon fill="#63b8ff" stroke="#63b8ff" points="1454.7,-18.66 1444.22,-17.06 1451.41,-24.84 1454.7,-18.66"/>
</g>
<!-- Node28 -->
<g id="node28" class="node">
<title>Node28</title>
<g id="a_node28"><a xlink:title=" ">
<polygon fill="#e0e0e0" stroke="#999999" points="1520,-17 1472,-17 1472,0 1520,0 1520,-17"/>
<text text-anchor="middle" x="1496" y="-6.6" font-family="SourceSans" font-size="8.00">iomanip</text>
</a>
</g>
</g>
<!-- Node15&#45;&gt;Node28 -->
<g id="edge29" class="edge">
<title>Node15&#45;&gt;Node28</title>
<path fill="none" stroke="#63b8ff" d="M1521.57,-52.97C1517.41,-45.89 1511.03,-35.05 1505.68,-25.96"/>
<polygon fill="#63b8ff" stroke="#63b8ff" points="1508.53,-23.9 1500.44,-17.06 1502.5,-27.45 1508.53,-23.9"/>
</g>
<!-- Node45 -->
<g id="node45" class="node">
<title>Node45</title>
<g id="a_node45"><a xlink:title=" ">
<polygon fill="#e0e0e0" stroke="#999999" points="2051.5,-189.5 1944.5,-189.5 1944.5,-172.5 2051.5,-172.5 2051.5,-189.5"/>
<text text-anchor="middle" x="1998" y="-179.1" font-family="SourceSans" font-size="8.00">rapidjson/prettywriter.h</text>
</a>
</g>
</g>
<!-- Node44&#45;&gt;Node45 -->
<g id="edge47" class="edge">
<title>Node44&#45;&gt;Node45</title>
<path fill="none" stroke="#63b8ff" d="M1998,-229.78C1998,-222.08 1998,-209.96 1998,-199.86"/>
<polygon fill="#63b8ff" stroke="#63b8ff" points="2001.5,-199.65 1998,-189.65 1994.5,-199.65 2001.5,-199.65"/>
</g>
<!-- Node46 -->
<g id="node46" class="node">
<title>Node46</title>
<g id="a_node46"><a xlink:title=" ">
<polygon fill="#e0e0e0" stroke="#999999" points="2160,-189.5 2070,-189.5 2070,-172.5 2160,-172.5 2160,-189.5"/>
<text text-anchor="middle" x="2115" y="-179.1" font-family="SourceSans" font-size="8.00">rapidjson/pointer.h</text>
</a>
</g>
</g>
<!-- Node44&#45;&gt;Node46 -->
<g id="edge48" class="edge">
<title>Node44&#45;&gt;Node46</title>
<path fill="none" stroke="#63b8ff" d="M2014.27,-229.78C2033.83,-220.5 2066.87,-204.83 2089.75,-193.98"/>
<polygon fill="#63b8ff" stroke="#63b8ff" points="2091.33,-197.1 2098.87,-189.65 2088.33,-190.78 2091.33,-197.1"/>
</g>
<!-- Node47 -->
<g id="node47" class="node">
<title>Node47</title>
<g id="a_node47"><a xlink:title=" ">
<polygon fill="#e0e0e0" stroke="#999999" points="2296,-189.5 2178,-189.5 2178,-172.5 2296,-172.5 2296,-189.5"/>
<text text-anchor="middle" x="2237" y="-179.1" font-family="SourceSans" font-size="8.00">rapidjson/filereadstream.h</text>
</a>
</g>
</g>
<!-- Node44&#45;&gt;Node47 -->
<g id="edge49" class="edge">
<title>Node44&#45;&gt;Node47</title>
<path fill="none" stroke="#63b8ff" d="M2030.73,-229.9C2073.37,-220 2147.99,-202.67 2194.83,-191.79"/>
<polygon fill="#63b8ff" stroke="#63b8ff" points="2195.72,-195.18 2204.66,-189.51 2194.13,-188.36 2195.72,-195.18"/>
</g>
<!-- Node48 -->
<g id="node48" class="node">
<title>Node48</title>
<g id="a_node48"><a xlink:title=" ">
<polygon fill="#e0e0e0" stroke="#999999" points="1693.5,-189.5 1606.5,-189.5 1606.5,-172.5 1693.5,-172.5 1693.5,-189.5"/>
<text text-anchor="middle" x="1650" y="-179.1" font-family="SourceSans" font-size="8.00">rapidjson/reader.h</text>
</a>
</g>
</g>
<!-- Node44&#45;&gt;Node48 -->
<g id="edge50" class="edge">
<title>Node44&#45;&gt;Node48</title>
<path fill="none" stroke="#63b8ff" d="M1961.98,-233.09C1906.25,-226.06 1795.87,-211.34 1703,-194 1699.15,-193.28 1695.15,-192.48 1691.15,-191.64"/>
<polygon fill="#63b8ff" stroke="#63b8ff" points="1691.82,-188.2 1681.31,-189.5 1690.34,-195.04 1691.82,-188.2"/>
</g>
<!-- Node49 -->
<g id="node49" class="node">
<title>Node49</title>
<g id="a_node49"><a xlink:title=" ">
<polygon fill="#e0e0e0" stroke="#999999" points="1814,-189.5 1712,-189.5 1712,-172.5 1814,-172.5 1814,-189.5"/>
<text text-anchor="middle" x="1763" y="-179.1" font-family="SourceSans" font-size="8.00">rapidjson/document.h</text>
</a>
</g>
</g>
<!-- Node44&#45;&gt;Node49 -->
<g id="edge51" class="edge">
<title>Node44&#45;&gt;Node49</title>
<path fill="none" stroke="#63b8ff" d="M1965.82,-229.9C1923.98,-220.02 1850.83,-202.74 1804.76,-191.86"/>
<polygon fill="#63b8ff" stroke="#63b8ff" points="1805.33,-188.4 1794.79,-189.51 1803.72,-195.21 1805.33,-188.4"/>
</g>
<!-- Node50 -->
<g id="node50" class="node">
<title>Node50</title>
<g id="a_node50"><a xlink:title=" ">
<polygon fill="#e0e0e0" stroke="#999999" points="1926,-189.5 1832,-189.5 1832,-172.5 1926,-172.5 1926,-189.5"/>
<text text-anchor="middle" x="1879" y="-179.1" font-family="SourceSans" font-size="8.00">rapidjson/error/en.h</text>
</a>
</g>
</g>
<!-- Node44&#45;&gt;Node50 -->
<g id="edge52" class="edge">
<title>Node44&#45;&gt;Node50</title>
<path fill="none" stroke="#63b8ff" d="M1981.45,-229.78C1961.56,-220.5 1927.95,-204.83 1904.68,-193.98"/>
<polygon fill="#63b8ff" stroke="#63b8ff" points="1905.95,-190.71 1895.41,-189.65 1902.99,-197.05 1905.95,-190.71"/>
</g>
<!-- Node51&#45;&gt;Node3 -->
<g id="edge60" class="edge">
<title>Node51&#45;&gt;Node3</title>
<path fill="none" stroke="#63b8ff" d="M2327.41,-335.97C2272.1,-326.85 2178.91,-311.47 2119.49,-301.66"/>
<polygon fill="#63b8ff" stroke="#63b8ff" points="2119.97,-298.19 2109.53,-300.01 2118.83,-305.1 2119.97,-298.19"/>
</g>
<!-- Node52 -->
<g id="node52" class="node">
<title>Node52</title>
<g id="a_node52"><a xlink:href="a60-collection-base_8h.html" target="_top" xlink:title=" ">
<polygon fill="white" stroke="#666666" points="2502,-127.5 2406,-127.5 2406,-110.5 2502,-110.5 2502,-127.5"/>
<text text-anchor="middle" x="2454" y="-117.1" font-family="SourceSans" font-size="8.00">a60&#45;collection&#45;base.h</text>
</a>
</g>
</g>
<!-- Node51&#45;&gt;Node52 -->
<g id="edge54" class="edge">
<title>Node51&#45;&gt;Node52</title>
<path fill="none" stroke="#63b8ff" d="M2376.62,-335.87C2386.85,-314.1 2416.4,-249.7 2435,-194 2441.29,-175.15 2446.73,-153.02 2450.15,-137.9"/>
<polygon fill="#63b8ff" stroke="#63b8ff" points="2453.63,-138.4 2452.36,-127.88 2446.79,-136.9 2453.63,-138.4"/>
</g>
<!-- Node54 -->
<g id="node54" class="node">
<title>Node54</title>
<g id="a_node54"><a xlink:href="a60-collection-duration_8h.html" target="_top" xlink:title=" ">
<polygon fill="white" stroke="#666666" points="2425.5,-189.5 2314.5,-189.5 2314.5,-172.5 2425.5,-172.5 2425.5,-189.5"/>
<text text-anchor="middle" x="2370" y="-179.1" font-family="SourceSans" font-size="8.00">a60&#45;collection&#45;duration.h</text>
</a>
</g>
</g>
<!-- Node51&#45;&gt;Node54 -->
<g id="edge57" class="edge">
<title>Node51&#45;&gt;Node54</title>
<path fill="none" stroke="#63b8ff" d="M2372.86,-335.71C2372.4,-311.14 2370.98,-234.85 2370.33,-199.86"/>
<polygon fill="#63b8ff" stroke="#63b8ff" points="2373.83,-199.64 2370.14,-189.71 2366.83,-199.77 2373.83,-199.64"/>
</g>
<!-- Node52&#45;&gt;Node15 -->
<g id="edge56" class="edge">
<title>Node52&#45;&gt;Node15</title>
<path fill="none" stroke="#63b8ff" d="M2422.49,-110.44C2414.24,-108.72 2405.32,-107.08 2397,-106 2068.59,-63.5 1665.57,-61.87 1555.14,-62.29"/>
<polygon fill="#63b8ff" stroke="#63b8ff" points="1555.08,-58.8 1545.1,-62.34 1555.12,-65.79 1555.08,-58.8"/>
</g>
<!-- Node53 -->
<g id="node53" class="node">
<title>Node53</title>
<g id="a_node53"><a xlink:title=" ">
<polygon fill="#e0e0e0" stroke="#999999" points="2471,-70 2437,-70 2437,-53 2471,-53 2471,-70"/>
<text text-anchor="middle" x="2454" y="-59.6" font-family="SourceSans" font-size="8.00">map</text>
</a>
</g>
</g>
<!-- Node52&#45;&gt;Node53 -->
<g id="edge55" class="edge">
<title>Node52&#45;&gt;Node53</title>
<path fill="none" stroke="#63b8ff" d="M2454,-110.28C2454,-102.58 2454,-90.46 2454,-80.36"/>
<polygon fill="#63b8ff" stroke="#63b8ff" points="2457.5,-80.15 2454,-70.15 2450.5,-80.15 2457.5,-80.15"/>
</g>
<!-- Node54&#45;&gt;Node52 -->
<g id="edge58" class="edge">
<title>Node54&#45;&gt;Node52</title>
<path fill="none" stroke="#63b8ff" d="M2380.64,-172.4C2394.27,-162.66 2418.15,-145.61 2434.95,-133.61"/>
<polygon fill="#63b8ff" stroke="#63b8ff" points="2437.34,-136.2 2443.45,-127.54 2433.28,-130.5 2437.34,-136.2"/>
</g>
<!-- Node55 -->
<g id="node55" class="node">
<title>Node55</title>
<g id="a_node55"><a xlink:title=" ">
<polygon fill="#e0e0e0" stroke="#999999" points="2387.5,-132 2268.5,-132 2268.5,-106 2387.5,-106 2387.5,-132"/>
<text text-anchor="start" x="2276.5" y="-121.6" font-family="SourceSans" font-size="8.00">boost/date_time/gregorian</text>
<text text-anchor="middle" x="2328" y="-112.6" font-family="SourceSans" font-size="8.00">/gregorian.hpp</text>
</a>
</g>
</g>
<!-- Node54&#45;&gt;Node55 -->
<g id="edge59" class="edge">
<title>Node54&#45;&gt;Node55</title>
<path fill="none" stroke="#63b8ff" d="M2364.51,-172.16C2358.89,-164.14 2349.94,-151.34 2342.3,-140.43"/>
<polygon fill="#63b8ff" stroke="#63b8ff" points="2345.15,-138.4 2336.55,-132.21 2339.42,-142.41 2345.15,-138.4"/>
</g>
<!-- Node57 -->
<g id="node57" class="node">
<title>Node57</title>
<g id="a_node57"><a xlink:href="a60-collection-persistent_8h.html" target="_top" xlink:title=" ">
<polygon fill="white" stroke="#666666" points="2552,-300 2436,-300 2436,-283 2552,-283 2552,-300"/>
<text text-anchor="middle" x="2494" y="-289.6" font-family="SourceSans" font-size="8.00">a60&#45;collection&#45;persistent.h</text>
</a>
</g>
</g>
<!-- Node56&#45;&gt;Node57 -->
<g id="edge62" class="edge">
<title>Node56&#45;&gt;Node57</title>
<path fill="none" stroke="#63b8ff" d="M2492.3,-335.97C2492.56,-329.19 2492.96,-318.97 2493.31,-310.13"/>
<polygon fill="#63b8ff" stroke="#63b8ff" points="2496.81,-310.19 2493.7,-300.06 2489.81,-309.91 2496.81,-310.19"/>
</g>
<!-- Node58 -->
<g id="node58" class="node">
<title>Node58</title>
<g id="a_node58"><a xlink:href="a60-collection-coalesce_8h.html" target="_top" xlink:title=" ">
<polygon fill="white" stroke="#666666" points="2547,-247 2437,-247 2437,-230 2547,-230 2547,-247"/>
<text text-anchor="middle" x="2492" y="-236.6" font-family="SourceSans" font-size="8.00">a60&#45;collection&#45;coalesce.h</text>
</a>
</g>
</g>
<!-- Node57&#45;&gt;Node58 -->
<g id="edge63" class="edge">
<title>Node57&#45;&gt;Node58</title>
<path fill="none" stroke="#63b8ff" d="M2493.7,-282.97C2493.44,-276.19 2493.04,-265.97 2492.69,-257.13"/>
<polygon fill="#63b8ff" stroke="#63b8ff" points="2496.19,-256.91 2492.3,-247.06 2489.19,-257.19 2496.19,-256.91"/>
</g>
<!-- Node58&#45;&gt;Node52 -->
<g id="edge64" class="edge">
<title>Node58&#45;&gt;Node52</title>
<path fill="none" stroke="#63b8ff" d="M2489.51,-229.79C2483.47,-211.12 2467.94,-163.1 2459.56,-137.19"/>
<polygon fill="#63b8ff" stroke="#63b8ff" points="2462.86,-136.02 2456.45,-127.59 2456.2,-138.18 2462.86,-136.02"/>
</g>
<!-- Node58&#45;&gt;Node54 -->
<g id="edge65" class="edge">
<title>Node58&#45;&gt;Node54</title>
<path fill="none" stroke="#63b8ff" d="M2475.29,-229.9C2454.76,-220.56 2419.7,-204.61 2395.72,-193.7"/>
<polygon fill="#63b8ff" stroke="#63b8ff" points="2397.06,-190.46 2386.51,-189.51 2394.16,-196.84 2397.06,-190.46"/>
</g>
<!-- Node59 -->
<g id="node59" class="node">
<title>Node59</title>
<g id="a_node59"><a xlink:href="a60-thread-pool_8h.html" target="_top" xlink:title=" ">
<polygon fill="white" stroke="#666666" points="2687,-189.5 2603,-189.5 2603,-172.5 2687,-172.5 2687,-189.5"/>
<text text-anchor="middle" x="2645" y="-179.1" font-family="SourceSans" font-size="8.00">a60&#45;thread&#45;pool.h</text>
</a>
</g>
</g>
<!-- Node58&#45;&gt;Node59 -->
<g id="edge66" class="edge">
<title>Node58&#45;&gt;Node59</title>
<path fill="none" stroke="#63b8ff" d="M2512.95,-229.9C2539.28,-220.35 2584.64,-203.9 2614.73,-192.98"/>
<polygon fill="#63b8ff" stroke="#63b8ff" points="2616.09,-196.21 2624.3,-189.51 2613.71,-189.63 2616.09,-196.21"/>
</g>
<!-- Node59&#45;&gt;Node8 -->
<g id="edge67" class="edge">
<title>Node59&#45;&gt;Node8</title>
<path fill="none" stroke="#63b8ff" d="M2602.76,-177C2457.15,-166.68 1977.41,-132.65 1837.57,-122.74"/>
<polygon fill="#63b8ff" stroke="#63b8ff" points="1837.57,-119.23 1827.35,-122.01 1837.08,-126.21 1837.57,-119.23"/>
</g>
<!-- Node60 -->
<g id="node60" class="node">
<title>Node60</title>
<g id="a_node60"><a xlink:title=" ">
<polygon fill="#e0e0e0" stroke="#999999" points="2752.5,-127.5 2711.5,-127.5 2711.5,-110.5 2752.5,-110.5 2752.5,-127.5"/>
<text text-anchor="middle" x="2732" y="-117.1" font-family="SourceSans" font-size="8.00">future</text>
</a>
</g>
</g>
<!-- Node59&#45;&gt;Node60 -->
<g id="edge68" class="edge">
<title>Node59&#45;&gt;Node60</title>
<path fill="none" stroke="#63b8ff" d="M2656.02,-172.4C2670.27,-162.57 2695.33,-145.29 2712.75,-133.27"/>
<polygon fill="#63b8ff" stroke="#63b8ff" points="2714.83,-136.1 2721.07,-127.54 2710.85,-130.33 2714.83,-136.1"/>
</g>
<!-- Node61 -->
<g id="node61" class="node">
<title>Node61</title>
<g id="a_node61"><a xlink:title=" ">
<polygon fill="#e0e0e0" stroke="#999999" points="2799.5,-127.5 2770.5,-127.5 2770.5,-110.5 2799.5,-110.5 2799.5,-127.5"/>
<text text-anchor="middle" x="2785" y="-117.1" font-family="SourceSans" font-size="8.00">list</text>
</a>
</g>
</g>
<!-- Node59&#45;&gt;Node61 -->
<g id="edge69" class="edge">
<title>Node59&#45;&gt;Node61</title>
<path fill="none" stroke="#63b8ff" d="M2665.11,-172.4C2688.62,-163.36 2728.55,-147.55 2762,-132 2762.09,-131.96 2762.18,-131.91 2762.28,-131.87"/>
<polygon fill="#63b8ff" stroke="#63b8ff" points="2763.57,-135.13 2770.99,-127.57 2760.48,-128.86 2763.57,-135.13"/>
</g>
<!-- Node62 -->
<g id="node62" class="node">
<title>Node62</title>
<g id="a_node62"><a xlink:title=" ">
<polygon fill="#e0e0e0" stroke="#999999" points="2567.5,-127.5 2520.5,-127.5 2520.5,-110.5 2567.5,-110.5 2567.5,-127.5"/>
<text text-anchor="middle" x="2544" y="-117.1" font-family="SourceSans" font-size="8.00">memory</text>
</a>
</g>
</g>
<!-- Node59&#45;&gt;Node62 -->
<g id="edge70" class="edge">
<title>Node59&#45;&gt;Node62</title>
<path fill="none" stroke="#63b8ff" d="M2632.21,-172.4C2615.44,-162.44 2585.77,-144.82 2565.52,-132.78"/>
<polygon fill="#63b8ff" stroke="#63b8ff" points="2567.07,-129.64 2556.69,-127.54 2563.5,-135.65 2567.07,-129.64"/>
</g>
<!-- Node63 -->
<g id="node63" class="node">
<title>Node63</title>
<g id="a_node63"><a xlink:title=" ">
<polygon fill="#e0e0e0" stroke="#999999" points="2626.5,-127.5 2585.5,-127.5 2585.5,-110.5 2626.5,-110.5 2626.5,-127.5"/>
<text text-anchor="middle" x="2606" y="-117.1" font-family="SourceSans" font-size="8.00">queue</text>
</a>
</g>
</g>
<!-- Node59&#45;&gt;Node63 -->
<g id="edge71" class="edge">
<title>Node59&#45;&gt;Node63</title>
<path fill="none" stroke="#63b8ff" d="M2639.9,-172.16C2633.97,-163.03 2624.03,-147.73 2616.44,-136.06"/>
<polygon fill="#63b8ff" stroke="#63b8ff" points="2619.36,-134.13 2610.98,-127.66 2613.49,-137.95 2619.36,-134.13"/>
</g>
<!-- Node64 -->
<g id="node64" class="node">
<title>Node64</title>
<g id="a_node64"><a xlink:title=" ">
<polygon fill="#e0e0e0" stroke="#999999" points="2693,-127.5 2645,-127.5 2645,-110.5 2693,-110.5 2693,-127.5"/>
<text text-anchor="middle" x="2669" y="-117.1" font-family="SourceSans" font-size="8.00">optional</text>
</a>
</g>
</g>
<!-- Node59&#45;&gt;Node64 -->
<g id="edge72" class="edge">
<title>Node59&#45;&gt;Node64</title>
<path fill="none" stroke="#63b8ff" d="M2648.14,-172.16C2651.68,-163.3 2657.55,-148.64 2662.16,-137.11"/>
<polygon fill="#63b8ff" stroke="#63b8ff" points="2665.47,-138.24 2665.94,-127.66 2658.97,-135.64 2665.47,-138.24"/>
</g>
<!-- Node65&#45;&gt;Node52 -->
<g id="edge74" class="edge">
<title>Node65&#45;&gt;Node52</title>
<path fill="none" stroke="#63b8ff" d="M2615.3,-282.73C2589.24,-256.44 2504.02,-170.46 2469.11,-135.25"/>
<polygon fill="#63b8ff" stroke="#63b8ff" points="2471.27,-132.45 2461.75,-127.81 2466.3,-137.38 2471.27,-132.45"/>
</g>
</g>
</svg>
