<?xml version="1.0" encoding="UTF-8" standalone="no"?>
<!DOCTYPE svg PUBLIC "-//W3C//DTD SVG 1.1//EN"
 "http://www.w3.org/Graphics/SVG/1.1/DTD/svg11.dtd">
<!-- Generated by graphviz version 5.0.0 (0)
 -->
<!-- Title: /home/bkoz/src/alpha60&#45;docs/src/a60&#45;collection&#45;json.h Pages: 1 -->
<svg width="2470pt" height="379pt"
 viewBox="0.00 0.00 2470.00 379.00" xmlns="http://www.w3.org/2000/svg" xmlns:xlink="http://www.w3.org/1999/xlink">
<g id="graph0" class="graph" transform="scale(1 1) rotate(0) translate(4 375)">
<title>/home/bkoz/src/alpha60&#45;docs/src/a60&#45;collection&#45;json.h</title>
<!-- Node1 -->
<g id="node1" class="node">
<title>Node1</title>
<g id="a_node1"><a xlink:title=" ">
<polygon fill="#999999" stroke="#666666" points="244.5,-371 128.5,-371 128.5,-336 244.5,-336 244.5,-371"/>
<text text-anchor="start" x="136.5" y="-360.6" font-family="SourceSans" font-size="8.00">/home/bkoz/src/alpha60</text>
<text text-anchor="start" x="136.5" y="-351.6" font-family="SourceSans" font-size="8.00">&#45;docs/src/a60&#45;collection</text>
<text text-anchor="middle" x="186.5" y="-342.6" font-family="SourceSans" font-size="8.00">&#45;json.h</text>
</a>
</g>
</g>
<!-- Node2 -->
<g id="node2" class="node">
<title>Node2</title>
<g id="a_node2"><a xlink:href="$a60-collection-base_8h.html" xlink:title=" ">
<polygon fill="white" stroke="#666666" points="116.5,-242.5 10.5,-242.5 10.5,-225.5 116.5,-225.5 116.5,-242.5"/>
<text text-anchor="middle" x="63.5" y="-232.1" font-family="SourceSans" font-size="8.00">a60&#45;collection&#45;base.h</text>
</a>
</g>
</g>
<!-- Node1&#45;&gt;Node2 -->
<g id="edge1" class="edge">
<title>Node1&#45;&gt;Node2</title>
<path fill="none" stroke="#63b8ff" d="M161.79,-335.79C148.12,-326.04 131.19,-313.12 117.5,-300 101.49,-284.66 85.56,-264.78 75.2,-251.07"/>
<polygon fill="#63b8ff" stroke="#63b8ff" points="77.75,-248.63 68.98,-242.69 72.13,-252.8 77.75,-248.63"/>
</g>
<!-- Node21 -->
<g id="node21" class="node">
<title>Node21</title>
<g id="a_node21"><a xlink:href="$a60-collection-duration_8h.html" xlink:title=" ">
<polygon fill="white" stroke="#666666" points="246.5,-300 126.5,-300 126.5,-283 246.5,-283 246.5,-300"/>
<text text-anchor="middle" x="186.5" y="-289.6" font-family="SourceSans" font-size="8.00">a60&#45;collection&#45;duration.h</text>
</a>
</g>
</g>
<!-- Node1&#45;&gt;Node21 -->
<g id="edge20" class="edge">
<title>Node1&#45;&gt;Node21</title>
<path fill="none" stroke="#63b8ff" d="M186.5,-335.79C186.5,-327.87 186.5,-318.4 186.5,-310.34"/>
<polygon fill="#63b8ff" stroke="#63b8ff" points="190,-310.2 186.5,-300.2 183,-310.2 190,-310.2"/>
</g>
<!-- Node23 -->
<g id="node23" class="node">
<title>Node23</title>
<g id="a_node23"><a xlink:href="$a60-swarm-functions_8h.html" xlink:title=" ">
<polygon fill="white" stroke="#666666" points="951,-300 840,-300 840,-283 951,-283 951,-300"/>
<text text-anchor="middle" x="895.5" y="-289.6" font-family="SourceSans" font-size="8.00">a60&#45;swarm&#45;functions.h</text>
</a>
</g>
</g>
<!-- Node1&#45;&gt;Node23 -->
<g id="edge23" class="edge">
<title>Node1&#45;&gt;Node23</title>
<path fill="none" stroke="#63b8ff" d="M244.52,-347.59C375.19,-336.53 691.86,-309.73 829.64,-298.07"/>
<polygon fill="#63b8ff" stroke="#63b8ff" points="829.97,-301.56 839.64,-297.23 829.38,-294.58 829.97,-301.56"/>
</g>
<!-- Node3 -->
<g id="node3" class="node">
<title>Node3</title>
<g id="a_node3"><a xlink:title=" ">
<polygon fill="#e0e0e0" stroke="#999999" points="35,-180.5 0,-180.5 0,-163.5 35,-163.5 35,-180.5"/>
<text text-anchor="middle" x="17.5" y="-170.1" font-family="SourceSans" font-size="8.00">map</text>
</a>
</g>
</g>
<!-- Node2&#45;&gt;Node3 -->
<g id="edge2" class="edge">
<title>Node2&#45;&gt;Node3</title>
<path fill="none" stroke="#63b8ff" d="M57.49,-225.16C50.42,-215.94 38.53,-200.43 29.54,-188.71"/>
<polygon fill="#63b8ff" stroke="#63b8ff" points="32.23,-186.46 23.37,-180.66 26.68,-190.72 32.23,-186.46"/>
</g>
<!-- Node4 -->
<g id="node4" class="node">
<title>Node4</title>
<g id="a_node4"><a xlink:href="$a60_8h.html" xlink:title=" ">
<polygon fill="white" stroke="#666666" points="1176.5,-70 1136.5,-70 1136.5,-53 1176.5,-53 1176.5,-70"/>
<text text-anchor="middle" x="1156.5" y="-59.6" font-family="SourceSans" font-size="8.00">a60.h</text>
</a>
</g>
</g>
<!-- Node2&#45;&gt;Node4 -->
<g id="edge3" class="edge">
<title>Node2&#45;&gt;Node4</title>
<path fill="none" stroke="#63b8ff" d="M62.88,-225.49C62.08,-210.27 62.69,-175.84 82.5,-159 164.16,-89.59 959.05,-67.14 1125.88,-63.18"/>
<polygon fill="#63b8ff" stroke="#63b8ff" points="1126.45,-66.67 1136.37,-62.93 1126.29,-59.67 1126.45,-66.67"/>
</g>
<!-- Node5 -->
<g id="node5" class="node">
<title>Node5</title>
<g id="a_node5"><a xlink:title=" ">
<polygon fill="#e0e0e0" stroke="#999999" points="1675.5,-17 1633.5,-17 1633.5,0 1675.5,0 1675.5,-17"/>
<text text-anchor="middle" x="1654.5" y="-6.6" font-family="SourceSans" font-size="8.00">cmath</text>
</a>
</g>
</g>
<!-- Node4&#45;&gt;Node5 -->
<g id="edge4" class="edge">
<title>Node4&#45;&gt;Node5</title>
<path fill="none" stroke="#63b8ff" d="M1176.61,-56.79C1184.37,-55.46 1193.33,-54.03 1201.5,-53 1385.51,-29.87 1436.64,-47.36 1623.42,-16.88"/>
<polygon fill="#63b8ff" stroke="#63b8ff" points="1623.99,-20.34 1633.28,-15.25 1622.85,-13.43 1623.99,-20.34"/>
</g>
<!-- Node6 -->
<g id="node6" class="node">
<title>Node6</title>
<g id="a_node6"><a xlink:title=" ">
<polygon fill="#e0e0e0" stroke="#999999" points="1497.5,-17 1459.5,-17 1459.5,0 1497.5,0 1497.5,-17"/>
<text text-anchor="middle" x="1478.5" y="-6.6" font-family="SourceSans" font-size="8.00">tuple</text>
</a>
</g>
</g>
<!-- Node4&#45;&gt;Node6 -->
<g id="edge5" class="edge">
<title>Node4&#45;&gt;Node6</title>
<path fill="none" stroke="#63b8ff" d="M1176.65,-57.05C1184.41,-55.74 1193.36,-54.27 1201.5,-53 1308.86,-36.29 1339.26,-39.31 1449.45,-16.98"/>
<polygon fill="#63b8ff" stroke="#63b8ff" points="1450.2,-20.4 1459.29,-14.97 1448.79,-13.55 1450.2,-20.4"/>
</g>
<!-- Node7 -->
<g id="node7" class="node">
<title>Node7</title>
<g id="a_node7"><a xlink:title=" ">
<polygon fill="#e0e0e0" stroke="#999999" points="1555.5,-17 1515.5,-17 1515.5,0 1555.5,0 1555.5,-17"/>
<text text-anchor="middle" x="1535.5" y="-6.6" font-family="SourceSans" font-size="8.00">string</text>
</a>
</g>
</g>
<!-- Node4&#45;&gt;Node7 -->
<g id="edge6" class="edge">
<title>Node4&#45;&gt;Node7</title>
<path fill="none" stroke="#63b8ff" d="M1176.63,-56.93C1184.39,-55.62 1193.35,-54.16 1201.5,-53 1333.47,-34.23 1370.61,-41.77 1505.42,-16.94"/>
<polygon fill="#63b8ff" stroke="#63b8ff" points="1506.11,-20.37 1515.3,-15.1 1504.82,-13.49 1506.11,-20.37"/>
</g>
<!-- Node8 -->
<g id="node8" class="node">
<title>Node8</title>
<g id="a_node8"><a xlink:title=" ">
<polygon fill="#e0e0e0" stroke="#999999" points="1615.5,-17 1573.5,-17 1573.5,0 1615.5,0 1615.5,-17"/>
<text text-anchor="middle" x="1594.5" y="-6.6" font-family="SourceSans" font-size="8.00">vector</text>
</a>
</g>
</g>
<!-- Node4&#45;&gt;Node8 -->
<g id="edge7" class="edge">
<title>Node4&#45;&gt;Node8</title>
<path fill="none" stroke="#63b8ff" d="M1176.62,-56.85C1184.38,-55.53 1193.33,-54.08 1201.5,-53 1358.92,-32.1 1402.97,-44.21 1563.07,-16.98"/>
<polygon fill="#63b8ff" stroke="#63b8ff" points="1564.02,-20.36 1573.28,-15.21 1562.83,-13.47 1564.02,-20.36"/>
</g>
<!-- Node9 -->
<g id="node9" class="node">
<title>Node9</title>
<g id="a_node9"><a xlink:title=" ">
<polygon fill="#e0e0e0" stroke="#999999" points="1723,-17 1694,-17 1694,0 1723,0 1723,-17"/>
<text text-anchor="middle" x="1708.5" y="-6.6" font-family="SourceSans" font-size="8.00">set</text>
</a>
</g>
</g>
<!-- Node4&#45;&gt;Node9 -->
<g id="edge8" class="edge">
<title>Node4&#45;&gt;Node9</title>
<path fill="none" stroke="#63b8ff" d="M1176.6,-56.75C1184.36,-55.41 1193.32,-53.98 1201.5,-53 1411.98,-27.67 1471.27,-56.47 1683.99,-16.53"/>
<polygon fill="#63b8ff" stroke="#63b8ff" points="1684.74,-19.95 1693.91,-14.64 1683.43,-13.07 1684.74,-19.95"/>
</g>
<!-- Node10 -->
<g id="node10" class="node">
<title>Node10</title>
<g id="a_node10"><a xlink:title=" ">
<polygon fill="#e0e0e0" stroke="#999999" points="726.5,-17 646.5,-17 646.5,0 726.5,0 726.5,-17"/>
<text text-anchor="middle" x="686.5" y="-6.6" font-family="SourceSans" font-size="8.00">unordered_map</text>
</a>
</g>
</g>
<!-- Node4&#45;&gt;Node10 -->
<g id="edge9" class="edge">
<title>Node4&#45;&gt;Node10</title>
<path fill="none" stroke="#63b8ff" d="M1136.35,-58.74C1077.01,-53.5 897.52,-37.13 736.67,-16.95"/>
<polygon fill="#63b8ff" stroke="#63b8ff" points="736.95,-13.46 726.59,-15.68 736.08,-20.4 736.95,-13.46"/>
</g>
<!-- Node11 -->
<g id="node11" class="node">
<title>Node11</title>
<g id="a_node11"><a xlink:title=" ">
<polygon fill="#e0e0e0" stroke="#999999" points="820,-17 745,-17 745,0 820,0 820,-17"/>
<text text-anchor="middle" x="782.5" y="-6.6" font-family="SourceSans" font-size="8.00">unordered_set</text>
</a>
</g>
</g>
<!-- Node4&#45;&gt;Node11 -->
<g id="edge10" class="edge">
<title>Node4&#45;&gt;Node11</title>
<path fill="none" stroke="#63b8ff" d="M1136.19,-57.99C1086.15,-51.75 952.68,-34.87 830.13,-17.05"/>
<polygon fill="#63b8ff" stroke="#63b8ff" points="830.6,-13.59 820.2,-15.6 829.59,-20.51 830.6,-13.59"/>
</g>
<!-- Node12 -->
<g id="node12" class="node">
<title>Node12</title>
<g id="a_node12"><a xlink:title=" ">
<polygon fill="#e0e0e0" stroke="#999999" points="882.5,-17 838.5,-17 838.5,0 882.5,0 882.5,-17"/>
<text text-anchor="middle" x="860.5" y="-6.6" font-family="SourceSans" font-size="8.00">chrono</text>
</a>
</g>
</g>
<!-- Node4&#45;&gt;Node12 -->
<g id="edge11" class="edge">
<title>Node4&#45;&gt;Node12</title>
<path fill="none" stroke="#63b8ff" d="M1136.46,-57.73C1093.59,-51.7 989.64,-36.49 892.76,-17.12"/>
<polygon fill="#63b8ff" stroke="#63b8ff" points="893.3,-13.66 882.81,-15.11 891.92,-20.52 893.3,-13.66"/>
</g>
<!-- Node13 -->
<g id="node13" class="node">
<title>Node13</title>
<g id="a_node13"><a xlink:title=" ">
<polygon fill="#e0e0e0" stroke="#999999" points="950.5,-17 900.5,-17 900.5,0 950.5,0 950.5,-17"/>
<text text-anchor="middle" x="925.5" y="-6.6" font-family="SourceSans" font-size="8.00">numeric</text>
</a>
</g>
</g>
<!-- Node4&#45;&gt;Node13 -->
<g id="edge12" class="edge">
<title>Node4&#45;&gt;Node13</title>
<path fill="none" stroke="#63b8ff" d="M1136.4,-56.06C1097.05,-47.38 1009.41,-28.03 960.39,-17.2"/>
<polygon fill="#63b8ff" stroke="#63b8ff" points="961.07,-13.77 950.55,-15.03 959.56,-20.6 961.07,-13.77"/>
</g>
<!-- Node14 -->
<g id="node14" class="node">
<title>Node14</title>
<g id="a_node14"><a xlink:title=" ">
<polygon fill="#e0e0e0" stroke="#999999" points="1024.5,-17 968.5,-17 968.5,0 1024.5,0 1024.5,-17"/>
<text text-anchor="middle" x="996.5" y="-6.6" font-family="SourceSans" font-size="8.00">algorithm</text>
</a>
</g>
</g>
<!-- Node4&#45;&gt;Node14 -->
<g id="edge13" class="edge">
<title>Node4&#45;&gt;Node14</title>
<path fill="none" stroke="#63b8ff" d="M1136.24,-54.04C1109.53,-45.53 1062.18,-30.44 1030.08,-20.2"/>
<polygon fill="#63b8ff" stroke="#63b8ff" points="1030.83,-16.77 1020.24,-17.07 1028.7,-23.44 1030.83,-16.77"/>
</g>
<!-- Node15 -->
<g id="node15" class="node">
<title>Node15</title>
<g id="a_node15"><a xlink:title=" ">
<polygon fill="#e0e0e0" stroke="#999999" points="1084,-17 1043,-17 1043,0 1084,0 1084,-17"/>
<text text-anchor="middle" x="1063.5" y="-6.6" font-family="SourceSans" font-size="8.00">locale</text>
</a>
</g>
</g>
<!-- Node4&#45;&gt;Node15 -->
<g id="edge14" class="edge">
<title>Node4&#45;&gt;Node15</title>
<path fill="none" stroke="#63b8ff" d="M1142.78,-52.97C1127.94,-44.84 1104.05,-31.74 1086.37,-22.04"/>
<polygon fill="#63b8ff" stroke="#63b8ff" points="1087.73,-18.8 1077.28,-17.06 1084.36,-24.93 1087.73,-18.8"/>
</g>
<!-- Node16 -->
<g id="node16" class="node">
<title>Node16</title>
<g id="a_node16"><a xlink:title=" ">
<polygon fill="#e0e0e0" stroke="#999999" points="1151,-17 1102,-17 1102,0 1151,0 1151,-17"/>
<text text-anchor="middle" x="1126.5" y="-6.6" font-family="SourceSans" font-size="8.00">codecvt</text>
</a>
</g>
</g>
<!-- Node4&#45;&gt;Node16 -->
<g id="edge15" class="edge">
<title>Node4&#45;&gt;Node16</title>
<path fill="none" stroke="#63b8ff" d="M1152.07,-52.97C1147.91,-45.89 1141.53,-35.05 1136.18,-25.96"/>
<polygon fill="#63b8ff" stroke="#63b8ff" points="1139.03,-23.9 1130.94,-17.06 1133,-27.45 1139.03,-23.9"/>
</g>
<!-- Node17 -->
<g id="node17" class="node">
<title>Node17</title>
<g id="a_node17"><a xlink:title=" ">
<polygon fill="#e0e0e0" stroke="#999999" points="1306,-17 1169,-17 1169,0 1306,0 1306,-17"/>
<text text-anchor="middle" x="1237.5" y="-6.6" font-family="SourceSans" font-size="8.00">ext/codecvt_specializations.h</text>
</a>
</g>
</g>
<!-- Node4&#45;&gt;Node17 -->
<g id="edge16" class="edge">
<title>Node4&#45;&gt;Node17</title>
<path fill="none" stroke="#63b8ff" d="M1168.45,-52.97C1181.13,-44.99 1201.42,-32.22 1216.72,-22.58"/>
<polygon fill="#63b8ff" stroke="#63b8ff" points="1218.9,-25.35 1225.5,-17.06 1215.17,-19.42 1218.9,-25.35"/>
</g>
<!-- Node18 -->
<g id="node18" class="node">
<title>Node18</title>
<g id="a_node18"><a xlink:title=" ">
<polygon fill="#e0e0e0" stroke="#999999" points="1373,-17 1324,-17 1324,0 1373,0 1373,-17"/>
<text text-anchor="middle" x="1348.5" y="-6.6" font-family="SourceSans" font-size="8.00">sstream</text>
</a>
</g>
</g>
<!-- Node4&#45;&gt;Node18 -->
<g id="edge17" class="edge">
<title>Node4&#45;&gt;Node18</title>
<path fill="none" stroke="#63b8ff" d="M1176.68,-55.14C1209.28,-46.48 1273.88,-29.32 1313.92,-18.69"/>
<polygon fill="#63b8ff" stroke="#63b8ff" points="1315.01,-22.02 1323.78,-16.07 1313.22,-15.25 1315.01,-22.02"/>
</g>
<!-- Node19 -->
<g id="node19" class="node">
<title>Node19</title>
<g id="a_node19"><a xlink:title=" ">
<polygon fill="#e0e0e0" stroke="#999999" points="1441.5,-17 1391.5,-17 1391.5,0 1441.5,0 1441.5,-17"/>
<text text-anchor="middle" x="1416.5" y="-6.6" font-family="SourceSans" font-size="8.00">iomanip</text>
</a>
</g>
</g>
<!-- Node4&#45;&gt;Node19 -->
<g id="edge18" class="edge">
<title>Node4&#45;&gt;Node19</title>
<path fill="none" stroke="#63b8ff" d="M1176.8,-56.78C1214.86,-49.77 1299.8,-33.94 1381.34,-17.19"/>
<polygon fill="#63b8ff" stroke="#63b8ff" points="1382.18,-20.59 1391.27,-15.15 1380.76,-13.74 1382.18,-20.59"/>
</g>
<!-- Node20 -->
<g id="node20" class="node">
<title>Node20</title>
<g id="a_node20"><a xlink:title=" ">
<polygon fill="#e0e0e0" stroke="#999999" points="628.5,-17 576.5,-17 576.5,0 628.5,0 628.5,-17"/>
<text text-anchor="middle" x="602.5" y="-6.6" font-family="SourceSans" font-size="8.00">iostream</text>
</a>
</g>
</g>
<!-- Node4&#45;&gt;Node20 -->
<g id="edge19" class="edge">
<title>Node4&#45;&gt;Node20</title>
<path fill="none" stroke="#63b8ff" d="M1136.11,-59.73C1067.42,-56.92 838.03,-45.98 638.87,-17"/>
<polygon fill="#63b8ff" stroke="#63b8ff" points="639.21,-13.51 628.81,-15.51 638.19,-20.43 639.21,-13.51"/>
</g>
<!-- Node21&#45;&gt;Node2 -->
<g id="edge21" class="edge">
<title>Node21&#45;&gt;Node2</title>
<path fill="none" stroke="#63b8ff" d="M169.66,-282.9C148.95,-273.56 113.6,-257.61 89.43,-246.7"/>
<polygon fill="#63b8ff" stroke="#63b8ff" points="90.7,-243.43 80.14,-242.51 87.82,-249.81 90.7,-243.43"/>
</g>
<!-- Node22 -->
<g id="node22" class="node">
<title>Node22</title>
<g id="a_node22"><a xlink:title=" ">
<polygon fill="#e0e0e0" stroke="#999999" points="260,-247 135,-247 135,-221 260,-221 260,-247"/>
<text text-anchor="start" x="143" y="-236.6" font-family="SourceSans" font-size="8.00">boost/date_time/gregorian</text>
<text text-anchor="middle" x="197.5" y="-227.6" font-family="SourceSans" font-size="8.00">/gregorian.hpp</text>
</a>
</g>
</g>
<!-- Node21&#45;&gt;Node22 -->
<g id="edge22" class="edge">
<title>Node21&#45;&gt;Node22</title>
<path fill="none" stroke="#63b8ff" d="M188.03,-282.78C189.34,-276.19 191.28,-266.36 193.07,-257.34"/>
<polygon fill="#63b8ff" stroke="#63b8ff" points="196.54,-257.83 195.05,-247.34 189.68,-256.47 196.54,-257.83"/>
</g>
<!-- Node24 -->
<g id="node24" class="node">
<title>Node24</title>
<g id="a_node24"><a xlink:href="$a60-peer_8h.html" xlink:title=" ">
<polygon fill="white" stroke="#666666" points="926.5,-242.5 864.5,-242.5 864.5,-225.5 926.5,-225.5 926.5,-242.5"/>
<text text-anchor="middle" x="895.5" y="-232.1" font-family="SourceSans" font-size="8.00">a60&#45;peer.h</text>
</a>
</g>
</g>
<!-- Node23&#45;&gt;Node24 -->
<g id="edge24" class="edge">
<title>Node23&#45;&gt;Node24</title>
<path fill="none" stroke="#63b8ff" d="M895.5,-282.78C895.5,-275.08 895.5,-262.96 895.5,-252.86"/>
<polygon fill="#63b8ff" stroke="#63b8ff" points="899,-252.65 895.5,-242.65 892,-252.65 899,-252.65"/>
</g>
<!-- Node47 -->
<g id="node47" class="node">
<title>Node47</title>
<g id="a_node47"><a xlink:href="$a60-json-fwd_8h.html" xlink:title=" ">
<polygon fill="white" stroke="#666666" points="2087.5,-242.5 2009.5,-242.5 2009.5,-225.5 2087.5,-225.5 2087.5,-242.5"/>
<text text-anchor="middle" x="2048.5" y="-232.1" font-family="SourceSans" font-size="8.00">a60&#45;json&#45;fwd.h</text>
</a>
</g>
</g>
<!-- Node23&#45;&gt;Node47 -->
<g id="edge51" class="edge">
<title>Node23&#45;&gt;Node47</title>
<path fill="none" stroke="#63b8ff" d="M951.11,-287.82C1148.35,-278.33 1812.56,-246.36 1999.29,-237.37"/>
<polygon fill="#63b8ff" stroke="#63b8ff" points="1999.55,-240.86 2009.37,-236.88 1999.21,-233.87 1999.55,-240.86"/>
</g>
<!-- Node25 -->
<g id="node25" class="node">
<title>Node25</title>
<g id="a_node25"><a xlink:href="$a60-geo_8h.html" xlink:title=" ">
<polygon fill="white" stroke="#666666" points="1588.5,-180.5 1530.5,-180.5 1530.5,-163.5 1588.5,-163.5 1588.5,-180.5"/>
<text text-anchor="middle" x="1559.5" y="-170.1" font-family="SourceSans" font-size="8.00">a60&#45;geo.h</text>
</a>
</g>
</g>
<!-- Node24&#45;&gt;Node25 -->
<g id="edge25" class="edge">
<title>Node24&#45;&gt;Node25</title>
<path fill="none" stroke="#63b8ff" d="M926.78,-233.12C1018.83,-232.94 1296.5,-228.55 1521.5,-185 1523.85,-184.55 1526.26,-183.99 1528.67,-183.38"/>
<polygon fill="#63b8ff" stroke="#63b8ff" points="1529.76,-186.71 1538.42,-180.6 1527.84,-179.98 1529.76,-186.71"/>
</g>
<!-- Node34 -->
<g id="node34" class="node">
<title>Node34</title>
<g id="a_node34"><a xlink:href="$a60-network-functions_8h.html" xlink:title=" ">
<polygon fill="white" stroke="#666666" points="1724,-180.5 1607,-180.5 1607,-163.5 1724,-163.5 1724,-180.5"/>
<text text-anchor="middle" x="1665.5" y="-170.1" font-family="SourceSans" font-size="8.00">a60&#45;network&#45;functions.h</text>
</a>
</g>
</g>
<!-- Node24&#45;&gt;Node34 -->
<g id="edge38" class="edge">
<title>Node24&#45;&gt;Node34</title>
<path fill="none" stroke="#63b8ff" d="M926.75,-232.05C1025.49,-228.79 1339.52,-216.49 1597.5,-185 1603.83,-184.23 1610.46,-183.26 1616.99,-182.21"/>
<polygon fill="#63b8ff" stroke="#63b8ff" points="1617.85,-185.61 1627.13,-180.51 1616.69,-178.71 1617.85,-185.61"/>
</g>
<!-- Node35 -->
<g id="node35" class="node">
<title>Node35</title>
<g id="a_node35"><a xlink:title=" ">
<polygon fill="#e0e0e0" stroke="#999999" points="187,-180.5 92,-180.5 92,-163.5 187,-163.5 187,-180.5"/>
<text text-anchor="middle" x="139.5" y="-170.1" font-family="SourceSans" font-size="8.00">libtorrent/entry.hpp</text>
</a>
</g>
</g>
<!-- Node24&#45;&gt;Node35 -->
<g id="edge39" class="edge">
<title>Node24&#45;&gt;Node35</title>
<path fill="none" stroke="#63b8ff" d="M864.34,-232.4C765.88,-230.18 452.83,-220.61 196.5,-185 191.62,-184.32 186.54,-183.47 181.5,-182.53"/>
<polygon fill="#63b8ff" stroke="#63b8ff" points="181.81,-179.02 171.32,-180.51 180.45,-185.89 181.81,-179.02"/>
</g>
<!-- Node36 -->
<g id="node36" class="node">
<title>Node36</title>
<g id="a_node36"><a xlink:title=" ">
<polygon fill="#e0e0e0" stroke="#999999" points="315.5,-180.5 205.5,-180.5 205.5,-163.5 315.5,-163.5 315.5,-180.5"/>
<text text-anchor="middle" x="260.5" y="-170.1" font-family="SourceSans" font-size="8.00">libtorrent/bencode.hpp</text>
</a>
</g>
</g>
<!-- Node24&#45;&gt;Node36 -->
<g id="edge40" class="edge">
<title>Node24&#45;&gt;Node36</title>
<path fill="none" stroke="#63b8ff" d="M864.49,-231.47C778.56,-226.98 530.23,-212.45 325.5,-185 319.74,-184.23 313.72,-183.29 307.77,-182.29"/>
<polygon fill="#63b8ff" stroke="#63b8ff" points="308.32,-178.83 297.86,-180.55 307.11,-185.73 308.32,-178.83"/>
</g>
<!-- Node37 -->
<g id="node37" class="node">
<title>Node37</title>
<g id="a_node37"><a xlink:title=" ">
<polygon fill="#e0e0e0" stroke="#999999" points="435,-180.5 334,-180.5 334,-163.5 435,-163.5 435,-180.5"/>
<text text-anchor="middle" x="384.5" y="-170.1" font-family="SourceSans" font-size="8.00">libtorrent/torrent.hpp</text>
</a>
</g>
</g>
<!-- Node24&#45;&gt;Node37 -->
<g id="edge41" class="edge">
<title>Node24&#45;&gt;Node37</title>
<path fill="none" stroke="#63b8ff" d="M864.48,-230.68C791.16,-224.99 601.53,-209.01 444.5,-185 439.51,-184.24 434.3,-183.34 429.13,-182.39"/>
<polygon fill="#63b8ff" stroke="#63b8ff" points="429.78,-178.96 419.3,-180.52 428.47,-185.83 429.78,-178.96"/>
</g>
<!-- Node38 -->
<g id="node38" class="node">
<title>Node38</title>
<g id="a_node38"><a xlink:title=" ">
<polygon fill="#e0e0e0" stroke="#999999" points="536,-185 453,-185 453,-159 536,-159 536,-185"/>
<text text-anchor="start" x="461" y="-174.6" font-family="SourceSans" font-size="8.00">libtorrent/torrent</text>
<text text-anchor="middle" x="494.5" y="-165.6" font-family="SourceSans" font-size="8.00">_info.hpp</text>
</a>
</g>
</g>
<!-- Node24&#45;&gt;Node38 -->
<g id="edge42" class="edge">
<title>Node24&#45;&gt;Node38</title>
<path fill="none" stroke="#63b8ff" d="M864.44,-229.74C804.78,-223.27 669.85,-207.59 546.2,-185"/>
<polygon fill="#63b8ff" stroke="#63b8ff" points="546.65,-181.52 536.18,-183.15 545.38,-188.41 546.65,-181.52"/>
</g>
<!-- Node39 -->
<g id="node39" class="node">
<title>Node39</title>
<g id="a_node39"><a xlink:title=" ">
<polygon fill="#e0e0e0" stroke="#999999" points="637,-185 554,-185 554,-159 637,-159 637,-185"/>
<text text-anchor="start" x="562" y="-174.6" font-family="SourceSans" font-size="8.00">libtorrent/torrent</text>
<text text-anchor="middle" x="595.5" y="-165.6" font-family="SourceSans" font-size="8.00">_status.hpp</text>
</a>
</g>
</g>
<!-- Node24&#45;&gt;Node39 -->
<g id="edge43" class="edge">
<title>Node24&#45;&gt;Node39</title>
<path fill="none" stroke="#63b8ff" d="M864.36,-227.42C818.94,-219.18 731.62,-203.01 647.23,-185.1"/>
<polygon fill="#63b8ff" stroke="#63b8ff" points="647.73,-181.63 637.22,-182.96 646.27,-188.47 647.73,-181.63"/>
</g>
<!-- Node40 -->
<g id="node40" class="node">
<title>Node40</title>
<g id="a_node40"><a xlink:title=" ">
<polygon fill="#e0e0e0" stroke="#999999" points="767.5,-180.5 655.5,-180.5 655.5,-163.5 767.5,-163.5 767.5,-180.5"/>
<text text-anchor="middle" x="711.5" y="-170.1" font-family="SourceSans" font-size="8.00">libtorrent/peer_info.hpp</text>
</a>
</g>
</g>
<!-- Node24&#45;&gt;Node40 -->
<g id="edge44" class="edge">
<title>Node24&#45;&gt;Node40</title>
<path fill="none" stroke="#63b8ff" d="M872.2,-225.4C839.84,-214.85 781.16,-195.72 744.37,-183.72"/>
<polygon fill="#63b8ff" stroke="#63b8ff" points="745.21,-180.31 734.61,-180.54 743.04,-186.97 745.21,-180.31"/>
</g>
<!-- Node41 -->
<g id="node41" class="node">
<title>Node41</title>
<g id="a_node41"><a xlink:title=" ">
<polygon fill="#e0e0e0" stroke="#999999" points="883.5,-185 785.5,-185 785.5,-159 883.5,-159 883.5,-185"/>
<text text-anchor="start" x="793.5" y="-174.6" font-family="SourceSans" font-size="8.00">libtorrent/announce</text>
<text text-anchor="middle" x="834.5" y="-165.6" font-family="SourceSans" font-size="8.00">_entry.hpp</text>
</a>
</g>
</g>
<!-- Node24&#45;&gt;Node41 -->
<g id="edge45" class="edge">
<title>Node24&#45;&gt;Node41</title>
<path fill="none" stroke="#63b8ff" d="M887.77,-225.4C879.44,-217.2 865.83,-203.82 854.46,-192.63"/>
<polygon fill="#63b8ff" stroke="#63b8ff" points="856.61,-189.84 847.03,-185.32 851.7,-194.83 856.61,-189.84"/>
</g>
<!-- Node42 -->
<g id="node42" class="node">
<title>Node42</title>
<g id="a_node42"><a xlink:title=" ">
<polygon fill="#e0e0e0" stroke="#999999" points="1011.5,-180.5 901.5,-180.5 901.5,-163.5 1011.5,-163.5 1011.5,-180.5"/>
<text text-anchor="middle" x="956.5" y="-170.1" font-family="SourceSans" font-size="8.00">libtorrent/bdecode.hpp</text>
</a>
</g>
</g>
<!-- Node24&#45;&gt;Node42 -->
<g id="edge46" class="edge">
<title>Node24&#45;&gt;Node42</title>
<path fill="none" stroke="#63b8ff" d="M903.23,-225.4C912.8,-215.99 929.32,-199.73 941.44,-187.81"/>
<polygon fill="#63b8ff" stroke="#63b8ff" points="943.97,-190.23 948.64,-180.73 939.06,-185.24 943.97,-190.23"/>
</g>
<!-- Node43 -->
<g id="node43" class="node">
<title>Node43</title>
<g id="a_node43"><a xlink:title=" ">
<polygon fill="#e0e0e0" stroke="#999999" points="1149.5,-180.5 1029.5,-180.5 1029.5,-163.5 1149.5,-163.5 1149.5,-180.5"/>
<text text-anchor="middle" x="1089.5" y="-170.1" font-family="SourceSans" font-size="8.00">libtorrent/magnet_uri.hpp</text>
</a>
</g>
</g>
<!-- Node24&#45;&gt;Node43 -->
<g id="edge47" class="edge">
<title>Node24&#45;&gt;Node43</title>
<path fill="none" stroke="#63b8ff" d="M920.07,-225.4C954.33,-214.81 1016.58,-195.55 1055.34,-183.57"/>
<polygon fill="#63b8ff" stroke="#63b8ff" points="1056.61,-186.84 1065.13,-180.54 1054.54,-180.15 1056.61,-186.84"/>
</g>
<!-- Node44 -->
<g id="node44" class="node">
<title>Node44</title>
<g id="a_node44"><a xlink:title=" ">
<polygon fill="#e0e0e0" stroke="#999999" points="1273.5,-180.5 1167.5,-180.5 1167.5,-163.5 1273.5,-163.5 1273.5,-180.5"/>
<text text-anchor="middle" x="1220.5" y="-170.1" font-family="SourceSans" font-size="8.00">libtorrent/session.hpp</text>
</a>
</g>
</g>
<!-- Node24&#45;&gt;Node44 -->
<g id="edge48" class="edge">
<title>Node24&#45;&gt;Node44</title>
<path fill="none" stroke="#63b8ff" d="M926.69,-227.42C975.96,-218.58 1074.8,-200.74 1158.5,-185 1162.86,-184.18 1167.39,-183.32 1171.93,-182.45"/>
<polygon fill="#63b8ff" stroke="#63b8ff" points="1172.66,-185.88 1181.82,-180.55 1171.34,-179 1172.66,-185.88"/>
</g>
<!-- Node45 -->
<g id="node45" class="node">
<title>Node45</title>
<g id="a_node45"><a xlink:title=" ">
<polygon fill="#e0e0e0" stroke="#999999" points="1393,-185 1292,-185 1292,-159 1393,-159 1393,-185"/>
<text text-anchor="start" x="1300" y="-174.6" font-family="SourceSans" font-size="8.00">libtorrent/extensions</text>
<text text-anchor="middle" x="1342.5" y="-165.6" font-family="SourceSans" font-size="8.00">/ut_metadata.hpp</text>
</a>
</g>
</g>
<!-- Node24&#45;&gt;Node45 -->
<g id="edge49" class="edge">
<title>Node24&#45;&gt;Node45</title>
<path fill="none" stroke="#63b8ff" d="M926.71,-229.92C991.09,-223.4 1143.47,-207.09 1281.87,-185.01"/>
<polygon fill="#63b8ff" stroke="#63b8ff" points="1282.49,-188.46 1291.81,-183.41 1281.38,-181.55 1282.49,-188.46"/>
</g>
<!-- Node46 -->
<g id="node46" class="node">
<title>Node46</title>
<g id="a_node46"><a xlink:title=" ">
<polygon fill="#e0e0e0" stroke="#999999" points="1512,-185 1411,-185 1411,-159 1512,-159 1512,-185"/>
<text text-anchor="start" x="1419" y="-174.6" font-family="SourceSans" font-size="8.00">libtorrent/extensions</text>
<text text-anchor="middle" x="1461.5" y="-165.6" font-family="SourceSans" font-size="8.00">/ut_pex.hpp</text>
</a>
</g>
</g>
<!-- Node24&#45;&gt;Node46 -->
<g id="edge50" class="edge">
<title>Node24&#45;&gt;Node46</title>
<path fill="none" stroke="#63b8ff" d="M926.5,-231.22C1004.56,-226.48 1215.62,-212.16 1400.8,-185.15"/>
<polygon fill="#63b8ff" stroke="#63b8ff" points="1401.33,-188.61 1410.71,-183.69 1400.31,-181.68 1401.33,-188.61"/>
</g>
<!-- Node25&#45;&gt;Node5 -->
<g id="edge26" class="edge">
<title>Node25&#45;&gt;Node5</title>
<path fill="none" stroke="#63b8ff" d="M1580.44,-163.45C1598.04,-155.97 1622.37,-142.75 1635.5,-123 1654.99,-93.69 1656.65,-50.97 1655.79,-27.18"/>
<polygon fill="#63b8ff" stroke="#63b8ff" points="1659.29,-26.95 1655.24,-17.16 1652.3,-27.34 1659.29,-26.95"/>
</g>
<!-- Node25&#45;&gt;Node9 -->
<g id="edge27" class="edge">
<title>Node25&#45;&gt;Node9</title>
<path fill="none" stroke="#63b8ff" d="M1584.2,-163.38C1604.91,-155.92 1634.14,-142.77 1653.5,-123 1680.75,-95.18 1696.68,-51.24 1703.87,-27"/>
<polygon fill="#63b8ff" stroke="#63b8ff" points="1707.31,-27.68 1706.64,-17.11 1700.57,-25.8 1707.31,-27.68"/>
</g>
<!-- Node25&#45;&gt;Node20 -->
<g id="edge29" class="edge">
<title>Node25&#45;&gt;Node20</title>
<path fill="none" stroke="#63b8ff" d="M1537.56,-163.43C1532.34,-161.81 1526.76,-160.22 1521.5,-159 1417.72,-134.89 1389.74,-139.61 1284.5,-123 999.91,-78.07 925.49,-71.25 638.7,-17.15"/>
<polygon fill="#63b8ff" stroke="#63b8ff" points="639.32,-13.71 628.85,-15.29 638.02,-20.58 639.32,-13.71"/>
</g>
<!-- Node26 -->
<g id="node26" class="node">
<title>Node26</title>
<g id="a_node26"><a xlink:title=" ">
<polygon fill="#e0e0e0" stroke="#999999" points="1480.5,-123 1422.5,-123 1422.5,-106 1480.5,-106 1480.5,-123"/>
<text text-anchor="middle" x="1451.5" y="-112.6" font-family="SourceSans" font-size="8.00">functional</text>
</a>
</g>
</g>
<!-- Node25&#45;&gt;Node26 -->
<g id="edge28" class="edge">
<title>Node25&#45;&gt;Node26</title>
<path fill="none" stroke="#63b8ff" d="M1544.48,-163.28C1526.59,-154.09 1496.47,-138.61 1475.37,-127.77"/>
<polygon fill="#63b8ff" stroke="#63b8ff" points="1476.88,-124.61 1466.39,-123.15 1473.68,-130.84 1476.88,-124.61"/>
</g>
<!-- Node27 -->
<g id="node27" class="node">
<title>Node27</title>
<g id="a_node27"><a xlink:href="$a60-io_8h.html" xlink:title=" ">
<polygon fill="white" stroke="#666666" points="1343.5,-123 1293.5,-123 1293.5,-106 1343.5,-106 1343.5,-123"/>
<text text-anchor="middle" x="1318.5" y="-112.6" font-family="SourceSans" font-size="8.00">a60&#45;io.h</text>
</a>
</g>
</g>
<!-- Node25&#45;&gt;Node27 -->
<g id="edge30" class="edge">
<title>Node25&#45;&gt;Node27</title>
<path fill="none" stroke="#63b8ff" d="M1536.69,-163.41C1531.71,-161.86 1526.45,-160.31 1521.5,-159 1463.16,-143.57 1394.3,-129.72 1353.64,-121.98"/>
<polygon fill="#63b8ff" stroke="#63b8ff" points="1354.16,-118.52 1343.68,-120.1 1352.86,-125.39 1354.16,-118.52"/>
</g>
<!-- Node32 -->
<g id="node32" class="node">
<title>Node32</title>
<g id="a_node32"><a xlink:title=" ">
<polygon fill="#e0e0e0" stroke="#999999" points="1546,-123 1499,-123 1499,-106 1546,-106 1546,-123"/>
<text text-anchor="middle" x="1522.5" y="-112.6" font-family="SourceSans" font-size="8.00">GeoIP.h</text>
</a>
</g>
</g>
<!-- Node25&#45;&gt;Node32 -->
<g id="edge36" class="edge">
<title>Node25&#45;&gt;Node32</title>
<path fill="none" stroke="#63b8ff" d="M1554.36,-163.28C1548.94,-155.16 1540.27,-142.15 1533.33,-131.75"/>
<polygon fill="#63b8ff" stroke="#63b8ff" points="1536.06,-129.53 1527.6,-123.15 1530.24,-133.41 1536.06,-129.53"/>
</g>
<!-- Node33 -->
<g id="node33" class="node">
<title>Node33</title>
<g id="a_node33"><a xlink:title=" ">
<polygon fill="#e0e0e0" stroke="#999999" points="1626.5,-123 1564.5,-123 1564.5,-106 1626.5,-106 1626.5,-123"/>
<text text-anchor="middle" x="1595.5" y="-112.6" font-family="SourceSans" font-size="8.00">GeoIPCity.h</text>
</a>
</g>
</g>
<!-- Node25&#45;&gt;Node33 -->
<g id="edge37" class="edge">
<title>Node25&#45;&gt;Node33</title>
<path fill="none" stroke="#63b8ff" d="M1564.51,-163.28C1569.77,-155.16 1578.21,-142.15 1584.96,-131.75"/>
<polygon fill="#63b8ff" stroke="#63b8ff" points="1588.03,-133.45 1590.54,-123.15 1582.16,-129.64 1588.03,-133.45"/>
</g>
<!-- Node27&#45;&gt;Node4 -->
<g id="edge35" class="edge">
<title>Node27&#45;&gt;Node4</title>
<path fill="none" stroke="#63b8ff" d="M1294.6,-105.97C1265.97,-96.96 1217.99,-81.86 1186.79,-72.04"/>
<polygon fill="#63b8ff" stroke="#63b8ff" points="1187.5,-68.59 1176.91,-68.93 1185.4,-75.27 1187.5,-68.59"/>
</g>
<!-- Node28 -->
<g id="node28" class="node">
<title>Node28</title>
<g id="a_node28"><a xlink:title=" ">
<polygon fill="#e0e0e0" stroke="#999999" points="1388,-70 1341,-70 1341,-53 1388,-53 1388,-70"/>
<text text-anchor="middle" x="1364.5" y="-59.6" font-family="SourceSans" font-size="8.00">fstream</text>
</a>
</g>
</g>
<!-- Node27&#45;&gt;Node28 -->
<g id="edge31" class="edge">
<title>Node27&#45;&gt;Node28</title>
<path fill="none" stroke="#63b8ff" d="M1325.29,-105.97C1332.01,-98.52 1342.51,-86.89 1350.94,-77.53"/>
<polygon fill="#63b8ff" stroke="#63b8ff" points="1353.59,-79.83 1357.68,-70.06 1348.39,-75.14 1353.59,-79.83"/>
</g>
<!-- Node29 -->
<g id="node29" class="node">
<title>Node29</title>
<g id="a_node29"><a xlink:title=" ">
<polygon fill="#e0e0e0" stroke="#999999" points="1521,-70 1406,-70 1406,-53 1521,-53 1521,-70"/>
<text text-anchor="middle" x="1463.5" y="-59.6" font-family="SourceSans" font-size="8.00">experimental/filesystem</text>
</a>
</g>
</g>
<!-- Node27&#45;&gt;Node29 -->
<g id="edge32" class="edge">
<title>Node27&#45;&gt;Node29</title>
<path fill="none" stroke="#63b8ff" d="M1339.9,-105.97C1364.31,-97.39 1404.46,-83.27 1432.35,-73.46"/>
<polygon fill="#63b8ff" stroke="#63b8ff" points="1433.74,-76.68 1442.02,-70.06 1431.42,-70.07 1433.74,-76.68"/>
</g>
<!-- Node30 -->
<g id="node30" class="node">
<title>Node30</title>
<g id="a_node30"><a xlink:title=" ">
<polygon fill="#e0e0e0" stroke="#999999" points="1266.5,-70 1210.5,-70 1210.5,-53 1266.5,-53 1266.5,-70"/>
<text text-anchor="middle" x="1238.5" y="-59.6" font-family="SourceSans" font-size="8.00">stdexcept</text>
</a>
</g>
</g>
<!-- Node27&#45;&gt;Node30 -->
<g id="edge33" class="edge">
<title>Node27&#45;&gt;Node30</title>
<path fill="none" stroke="#63b8ff" d="M1306.7,-105.97C1294.17,-97.99 1274.14,-85.22 1259.02,-75.58"/>
<polygon fill="#63b8ff" stroke="#63b8ff" points="1260.67,-72.48 1250.35,-70.06 1256.9,-78.38 1260.67,-72.48"/>
</g>
<!-- Node31 -->
<g id="node31" class="node">
<title>Node31</title>
<g id="a_node31"><a xlink:title=" ">
<polygon fill="#e0e0e0" stroke="#999999" points="1322.5,-70 1284.5,-70 1284.5,-53 1322.5,-53 1322.5,-70"/>
<text text-anchor="middle" x="1303.5" y="-59.6" font-family="SourceSans" font-size="8.00">regex</text>
</a>
</g>
</g>
<!-- Node27&#45;&gt;Node31 -->
<g id="edge34" class="edge">
<title>Node27&#45;&gt;Node31</title>
<path fill="none" stroke="#63b8ff" d="M1316.29,-105.97C1314.27,-99.12 1311.22,-88.74 1308.6,-79.84"/>
<polygon fill="#63b8ff" stroke="#63b8ff" points="1311.9,-78.66 1305.72,-70.06 1305.19,-80.64 1311.9,-78.66"/>
</g>
<!-- Node48 -->
<g id="node48" class="node">
<title>Node48</title>
<g id="a_node48"><a xlink:title=" ">
<polygon fill="#e0e0e0" stroke="#999999" points="2348.5,-180.5 2236.5,-180.5 2236.5,-163.5 2348.5,-163.5 2348.5,-180.5"/>
<text text-anchor="middle" x="2292.5" y="-170.1" font-family="SourceSans" font-size="8.00">rapidjson/prettywriter.h</text>
</a>
</g>
</g>
<!-- Node47&#45;&gt;Node48 -->
<g id="edge52" class="edge">
<title>Node47&#45;&gt;Node48</title>
<path fill="none" stroke="#63b8ff" d="M2079.4,-225.4C2123.22,-214.63 2203.46,-194.89 2252,-182.96"/>
<polygon fill="#63b8ff" stroke="#63b8ff" points="2252.97,-186.32 2261.85,-180.54 2251.3,-179.53 2252.97,-186.32"/>
</g>
<!-- Node49 -->
<g id="node49" class="node">
<title>Node49</title>
<g id="a_node49"><a xlink:title=" ">
<polygon fill="#e0e0e0" stroke="#999999" points="2462,-180.5 2367,-180.5 2367,-163.5 2462,-163.5 2462,-180.5"/>
<text text-anchor="middle" x="2414.5" y="-170.1" font-family="SourceSans" font-size="8.00">rapidjson/pointer.h</text>
</a>
</g>
</g>
<!-- Node47&#45;&gt;Node49 -->
<g id="edge53" class="edge">
<title>Node47&#45;&gt;Node49</title>
<path fill="none" stroke="#63b8ff" d="M2087.64,-227.6C2146.4,-219.35 2260.84,-202.67 2357.5,-185 2361.64,-184.24 2365.94,-183.42 2370.24,-182.56"/>
<polygon fill="#63b8ff" stroke="#63b8ff" points="2371.1,-185.96 2380.2,-180.53 2369.7,-179.1 2371.1,-185.96"/>
</g>
<!-- Node50 -->
<g id="node50" class="node">
<title>Node50</title>
<g id="a_node50"><a xlink:title=" ">
<polygon fill="#e0e0e0" stroke="#999999" points="1866.5,-180.5 1742.5,-180.5 1742.5,-163.5 1866.5,-163.5 1866.5,-180.5"/>
<text text-anchor="middle" x="1804.5" y="-170.1" font-family="SourceSans" font-size="8.00">rapidjson/filereadstream.h</text>
</a>
</g>
</g>
<!-- Node47&#45;&gt;Node50 -->
<g id="edge54" class="edge">
<title>Node47&#45;&gt;Node50</title>
<path fill="none" stroke="#63b8ff" d="M2017.6,-225.4C1973.78,-214.63 1893.54,-194.89 1845,-182.96"/>
<polygon fill="#63b8ff" stroke="#63b8ff" points="1845.7,-179.53 1835.15,-180.54 1844.03,-186.32 1845.7,-179.53"/>
</g>
<!-- Node51 -->
<g id="node51" class="node">
<title>Node51</title>
<g id="a_node51"><a xlink:title=" ">
<polygon fill="#e0e0e0" stroke="#999999" points="1976.5,-180.5 1884.5,-180.5 1884.5,-163.5 1976.5,-163.5 1976.5,-180.5"/>
<text text-anchor="middle" x="1930.5" y="-170.1" font-family="SourceSans" font-size="8.00">rapidjson/reader.h</text>
</a>
</g>
</g>
<!-- Node47&#45;&gt;Node51 -->
<g id="edge55" class="edge">
<title>Node47&#45;&gt;Node51</title>
<path fill="none" stroke="#63b8ff" d="M2033.56,-225.4C2013.61,-215.26 1978.04,-197.18 1954.36,-185.13"/>
<polygon fill="#63b8ff" stroke="#63b8ff" points="1955.82,-181.95 1945.32,-180.54 1952.65,-188.19 1955.82,-181.95"/>
</g>
<!-- Node52 -->
<g id="node52" class="node">
<title>Node52</title>
<g id="a_node52"><a xlink:title=" ">
<polygon fill="#e0e0e0" stroke="#999999" points="2102,-180.5 1995,-180.5 1995,-163.5 2102,-163.5 2102,-180.5"/>
<text text-anchor="middle" x="2048.5" y="-170.1" font-family="SourceSans" font-size="8.00">rapidjson/document.h</text>
</a>
</g>
</g>
<!-- Node47&#45;&gt;Node52 -->
<g id="edge56" class="edge">
<title>Node47&#45;&gt;Node52</title>
<path fill="none" stroke="#63b8ff" d="M2048.5,-225.16C2048.5,-216.48 2048.5,-202.23 2048.5,-190.82"/>
<polygon fill="#63b8ff" stroke="#63b8ff" points="2052,-190.66 2048.5,-180.66 2045,-190.66 2052,-190.66"/>
</g>
<!-- Node53 -->
<g id="node53" class="node">
<title>Node53</title>
<g id="a_node53"><a xlink:title=" ">
<polygon fill="#e0e0e0" stroke="#999999" points="2218.5,-180.5 2120.5,-180.5 2120.5,-163.5 2218.5,-163.5 2218.5,-180.5"/>
<text text-anchor="middle" x="2169.5" y="-170.1" font-family="SourceSans" font-size="8.00">rapidjson/error/en.h</text>
</a>
</g>
</g>
<!-- Node47&#45;&gt;Node53 -->
<g id="edge57" class="edge">
<title>Node47&#45;&gt;Node53</title>
<path fill="none" stroke="#63b8ff" d="M2063.82,-225.4C2084.28,-215.26 2120.75,-197.18 2145.03,-185.13"/>
<polygon fill="#63b8ff" stroke="#63b8ff" points="2146.9,-188.12 2154.3,-180.54 2143.79,-181.84 2146.9,-188.12"/>
</g>
</g>
</svg>
