<?xml version="1.0" encoding="UTF-8" standalone="no"?>
<!DOCTYPE svg PUBLIC "-//W3C//DTD SVG 1.1//EN"
 "http://www.w3.org/Graphics/SVG/1.1/DTD/svg11.dtd">
<!-- Generated by graphviz version 5.0.0 (0)
 -->
<!-- Title: /home/bkoz/src/alpha60&#45;docs/src/a60&#45;sample&#45;dump&#45;multi.cc Pages: 1 -->
<!--zoomable 423 -->
<svg id="main" version="1.1" xmlns="http://www.w3.org/2000/svg" xmlns:xlink="http://www.w3.org/1999/xlink" xml:space="preserve" onload="init(evt)">
<style type="text/css"><![CDATA[
.edge:hover path { stroke: red; }
.edge:hover polygon { stroke: red; fill: red; }
]]></style>
<script type="text/javascript"><![CDATA[
var edges = document.getElementsByTagName('g');
if (edges && edges.length) {
  for (var i=0;i<edges.length;i++) {
    if (edges[i].id.substr(0,4)=='edge') {
      edges[i].setAttribute('class','edge');
    }
  }
}
]]></script>
        <defs>
                <circle id="rim" cx="0" cy="0" r="7"/>
                <circle id="rim2" cx="0" cy="0" r="3.5"/>
                <g id="zoomPlus">
                        <use xlink:href="#rim" fill="#404040">
                                <set attributeName="fill" to="#808080" begin="zoomplus.mouseover" end="zoomplus.mouseout"/>
                        </use>
                        <path d="M-4,0h8M0,-4v8" fill="none" stroke="white" stroke-width="1.5" pointer-events="none"/>
                </g>
                <g id="zoomMin">
                        <use xlink:href="#rim" fill="#404040">
                                <set attributeName="fill" to="#808080" begin="zoomminus.mouseover" end="zoomminus.mouseout"/>
                        </use>
                        <path d="M-4,0h8" fill="none" stroke="white" stroke-width="1.5" pointer-events="none"/>
                </g>
                <g id="dirArrow">
                        <path fill="none" stroke="white" stroke-width="1.5" d="M0,-3.0v7 M-2.5,-0.5L0,-3.0L2.5,-0.5"/>
                </g>
               <g id="resetDef">
                       <use xlink:href="#rim2" fill="#404040">
                               <set attributeName="fill" to="#808080" begin="reset.mouseover" end="reset.mouseout"/>
                       </use>
               </g>
        </defs>

<script type="text/javascript">
var viewWidth = 2694;
var viewHeight = 423;
var sectionId = 'dynsection-0';
</script>
<script xlink:href="svgpan.js"/>
<svg id="graph" class="graph">
<g id="viewport">
<title>/home/bkoz/src/alpha60&#45;docs/src/a60&#45;sample&#45;dump&#45;multi.cc</title>
<!-- Node1 -->
<g id="node1" class="node">
<title>Node1</title>
<g id="a_node1"><a xlink:title=" ">
<polygon fill="#999999" stroke="#666666" points="1529.5,-415 1407.5,-415 1407.5,-380 1529.5,-380 1529.5,-415"/>
<text text-anchor="start" x="1415.5" y="-404.6" font-family="SourceSans" font-size="8.00">/home/bkoz/src/alpha60</text>
<text text-anchor="start" x="1415.5" y="-395.6" font-family="SourceSans" font-size="8.00">&#45;docs/src/a60&#45;sample&#45;dump</text>
<text text-anchor="middle" x="1468.5" y="-386.6" font-family="SourceSans" font-size="8.00">&#45;multi.cc</text>
</a>
</g>
</g>
<!-- Node2 -->
<g id="node2" class="node">
<title>Node2</title>
<g id="a_node2"><a xlink:href="a60-json_8h.html" target="_top" xlink:title=" ">
<polygon fill="white" stroke="#666666" points="1496.5,-344 1440.5,-344 1440.5,-327 1496.5,-327 1496.5,-344"/>
<text text-anchor="middle" x="1468.5" y="-333.6" font-family="SourceSans" font-size="8.00">a60&#45;json.h</text>
</a>
</g>
</g>
<!-- Node1&#45;&gt;Node2 -->
<g id="edge1" class="edge">
<title>Node1&#45;&gt;Node2</title>
<path fill="none" stroke="#63b8ff" d="M1468.5,-379.79C1468.5,-371.87 1468.5,-362.4 1468.5,-354.34"/>
<polygon fill="#63b8ff" stroke="#63b8ff" points="1472,-354.2 1468.5,-344.2 1465,-354.2 1472,-354.2"/>
</g>
<!-- Node51 -->
<g id="node51" class="node">
<title>Node51</title>
<g id="a_node51"><a xlink:href="a60-torrent_8h.html" target="_top" xlink:title=" ">
<polygon fill="white" stroke="#666666" points="247.5,-291 181.5,-291 181.5,-274 247.5,-274 247.5,-291"/>
<text text-anchor="middle" x="214.5" y="-280.6" font-family="SourceSans" font-size="8.00">a60&#45;torrent.h</text>
</a>
</g>
</g>
<!-- Node1&#45;&gt;Node51 -->
<g id="edge53" class="edge">
<title>Node1&#45;&gt;Node51</title>
<path fill="none" stroke="#63b8ff" d="M1407.17,-390.97C1187.7,-371.2 444.59,-304.23 257.52,-287.38"/>
<polygon fill="#63b8ff" stroke="#63b8ff" points="257.79,-283.89 247.51,-286.47 257.16,-290.86 257.79,-283.89"/>
</g>
<!-- Node55 -->
<g id="node55" class="node">
<title>Node55</title>
<g id="a_node55"><a xlink:href="a60-collection-objects_8h.html" target="_top" xlink:title=" ">
<polygon fill="white" stroke="#666666" points="2363,-344 2258,-344 2258,-327 2363,-327 2363,-344"/>
<text text-anchor="middle" x="2310.5" y="-333.6" font-family="SourceSans" font-size="8.00">a60&#45;collection&#45;objects.h</text>
</a>
</g>
</g>
<!-- Node1&#45;&gt;Node55 -->
<g id="edge61" class="edge">
<title>Node1&#45;&gt;Node55</title>
<path fill="none" stroke="#63b8ff" d="M1529.73,-392.14C1684.55,-381.1 2090.43,-352.18 2247.33,-341"/>
<polygon fill="#63b8ff" stroke="#63b8ff" points="2248.02,-344.46 2257.74,-340.26 2247.52,-337.48 2248.02,-344.46"/>
</g>
<!-- Node3 -->
<g id="node3" class="node">
<title>Node3</title>
<g id="a_node3"><a xlink:href="a60-swarm-functions_8h.html" target="_top" xlink:title=" ">
<polygon fill="white" stroke="#666666" points="1520,-291 1417,-291 1417,-274 1520,-274 1520,-291"/>
<text text-anchor="middle" x="1468.5" y="-280.6" font-family="SourceSans" font-size="8.00">a60&#45;swarm&#45;functions.h</text>
</a>
</g>
</g>
<!-- Node2&#45;&gt;Node3 -->
<g id="edge2" class="edge">
<title>Node2&#45;&gt;Node3</title>
<path fill="none" stroke="#63b8ff" d="M1468.5,-326.97C1468.5,-320.19 1468.5,-309.97 1468.5,-301.13"/>
<polygon fill="#63b8ff" stroke="#63b8ff" points="1472,-301.06 1468.5,-291.06 1465,-301.06 1472,-301.06"/>
</g>
<!-- Node4 -->
<g id="node4" class="node">
<title>Node4</title>
<g id="a_node4"><a xlink:href="a60-peer_8h.html" target="_top" xlink:title=" ">
<polygon fill="white" stroke="#666666" points="1125.5,-238 1069.5,-238 1069.5,-221 1125.5,-221 1125.5,-238"/>
<text text-anchor="middle" x="1097.5" y="-227.6" font-family="SourceSans" font-size="8.00">a60&#45;peer.h</text>
</a>
</g>
</g>
<!-- Node3&#45;&gt;Node4 -->
<g id="edge3" class="edge">
<title>Node3&#45;&gt;Node4</title>
<path fill="none" stroke="#63b8ff" d="M1416.91,-274.41C1341.51,-264.04 1202.88,-244.99 1135.83,-235.77"/>
<polygon fill="#63b8ff" stroke="#63b8ff" points="1136.08,-232.27 1125.7,-234.38 1135.13,-239.21 1136.08,-232.27"/>
</g>
<!-- Node44 -->
<g id="node44" class="node">
<title>Node44</title>
<g id="a_node44"><a xlink:href="a60-json-fwd_8h.html" target="_top" xlink:title=" ">
<polygon fill="white" stroke="#666666" points="2224.5,-238 2152.5,-238 2152.5,-221 2224.5,-221 2224.5,-238"/>
<text text-anchor="middle" x="2188.5" y="-227.6" font-family="SourceSans" font-size="8.00">a60&#45;json&#45;fwd.h</text>
</a>
</g>
</g>
<!-- Node3&#45;&gt;Node44 -->
<g id="edge46" class="edge">
<title>Node3&#45;&gt;Node44</title>
<path fill="none" stroke="#63b8ff" d="M1520.28,-277.83C1654.83,-268.3 2013.89,-242.87 2142.16,-233.78"/>
<polygon fill="#63b8ff" stroke="#63b8ff" points="2142.69,-237.25 2152.42,-233.06 2142.2,-230.27 2142.69,-237.25"/>
</g>
<!-- Node5 -->
<g id="node5" class="node">
<title>Node5</title>
<g id="a_node5"><a xlink:href="a60-geo_8h.html" target="_top" xlink:title=" ">
<polygon fill="white" stroke="#666666" points="965.5,-180.5 911.5,-180.5 911.5,-163.5 965.5,-163.5 965.5,-180.5"/>
<text text-anchor="middle" x="938.5" y="-170.1" font-family="SourceSans" font-size="8.00">a60&#45;geo.h</text>
</a>
</g>
</g>
<!-- Node4&#45;&gt;Node5 -->
<g id="edge4" class="edge">
<title>Node4&#45;&gt;Node5</title>
<path fill="none" stroke="#63b8ff" d="M1075.73,-220.9C1048.25,-211.31 1000.82,-194.75 969.55,-183.84"/>
<polygon fill="#63b8ff" stroke="#63b8ff" points="970.61,-180.5 960.01,-180.51 968.3,-187.11 970.61,-180.5"/>
</g>
<!-- Node31 -->
<g id="node31" class="node">
<title>Node31</title>
<g id="a_node31"><a xlink:href="a60-network-functions_8h.html" target="_top" xlink:title=" ">
<polygon fill="white" stroke="#666666" points="1093,-180.5 984,-180.5 984,-163.5 1093,-163.5 1093,-180.5"/>
<text text-anchor="middle" x="1038.5" y="-170.1" font-family="SourceSans" font-size="8.00">a60&#45;network&#45;functions.h</text>
</a>
</g>
</g>
<!-- Node4&#45;&gt;Node31 -->
<g id="edge33" class="edge">
<title>Node4&#45;&gt;Node31</title>
<path fill="none" stroke="#63b8ff" d="M1089.3,-220.78C1080.23,-212.25 1065.4,-198.31 1054.11,-187.68"/>
<polygon fill="#63b8ff" stroke="#63b8ff" points="1056.32,-184.95 1046.63,-180.65 1051.52,-190.05 1056.32,-184.95"/>
</g>
<!-- Node32 -->
<g id="node32" class="node">
<title>Node32</title>
<g id="a_node32"><a xlink:title=" ">
<polygon fill="#e0e0e0" stroke="#999999" points="1204,-180.5 1111,-180.5 1111,-163.5 1204,-163.5 1204,-180.5"/>
<text text-anchor="middle" x="1157.5" y="-170.1" font-family="SourceSans" font-size="8.00">libtorrent/entry.hpp</text>
</a>
</g>
</g>
<!-- Node4&#45;&gt;Node32 -->
<g id="edge34" class="edge">
<title>Node4&#45;&gt;Node32</title>
<path fill="none" stroke="#63b8ff" d="M1105.84,-220.78C1115.07,-212.25 1130.14,-198.31 1141.63,-187.68"/>
<polygon fill="#63b8ff" stroke="#63b8ff" points="1144.26,-190.01 1149.23,-180.65 1139.51,-184.87 1144.26,-190.01"/>
</g>
<!-- Node33 -->
<g id="node33" class="node">
<title>Node33</title>
<g id="a_node33"><a xlink:title=" ">
<polygon fill="#e0e0e0" stroke="#999999" points="1329,-180.5 1222,-180.5 1222,-163.5 1329,-163.5 1329,-180.5"/>
<text text-anchor="middle" x="1275.5" y="-170.1" font-family="SourceSans" font-size="8.00">libtorrent/bencode.hpp</text>
</a>
</g>
</g>
<!-- Node4&#45;&gt;Node33 -->
<g id="edge35" class="edge">
<title>Node4&#45;&gt;Node33</title>
<path fill="none" stroke="#63b8ff" d="M1121.88,-220.9C1152.9,-211.23 1206.66,-194.47 1241.64,-183.56"/>
<polygon fill="#63b8ff" stroke="#63b8ff" points="1242.91,-186.83 1251.42,-180.51 1240.83,-180.14 1242.91,-186.83"/>
</g>
<!-- Node34 -->
<g id="node34" class="node">
<title>Node34</title>
<g id="a_node34"><a xlink:title=" ">
<polygon fill="#e0e0e0" stroke="#999999" points="1447.5,-180.5 1347.5,-180.5 1347.5,-163.5 1447.5,-163.5 1447.5,-180.5"/>
<text text-anchor="middle" x="1397.5" y="-170.1" font-family="SourceSans" font-size="8.00">libtorrent/torrent.hpp</text>
</a>
</g>
</g>
<!-- Node4&#45;&gt;Node34 -->
<g id="edge36" class="edge">
<title>Node4&#45;&gt;Node34</title>
<path fill="none" stroke="#63b8ff" d="M1125.61,-223.57C1170.46,-215.68 1260.96,-199.59 1337.5,-185 1341.67,-184.21 1345.99,-183.37 1350.33,-182.52"/>
<polygon fill="#63b8ff" stroke="#63b8ff" points="1351.26,-185.9 1360.39,-180.53 1349.9,-179.03 1351.26,-185.9"/>
</g>
<!-- Node35 -->
<g id="node35" class="node">
<title>Node35</title>
<g id="a_node35"><a xlink:title=" ">
<polygon fill="#e0e0e0" stroke="#999999" points="1547.5,-185 1465.5,-185 1465.5,-159 1547.5,-159 1547.5,-185"/>
<text text-anchor="start" x="1473.5" y="-174.6" font-family="SourceSans" font-size="8.00">libtorrent/torrent</text>
<text text-anchor="middle" x="1506.5" y="-165.6" font-family="SourceSans" font-size="8.00">_info.hpp</text>
</a>
</g>
</g>
<!-- Node4&#45;&gt;Node35 -->
<g id="edge37" class="edge">
<title>Node4&#45;&gt;Node35</title>
<path fill="none" stroke="#63b8ff" d="M1125.59,-226.2C1184.77,-221.13 1326.7,-207.72 1455.35,-185.06"/>
<polygon fill="#63b8ff" stroke="#63b8ff" points="1456.15,-188.47 1465.38,-183.27 1454.92,-181.58 1456.15,-188.47"/>
</g>
<!-- Node36 -->
<g id="node36" class="node">
<title>Node36</title>
<g id="a_node36"><a xlink:title=" ">
<polygon fill="#e0e0e0" stroke="#999999" points="1647.5,-185 1565.5,-185 1565.5,-159 1647.5,-159 1647.5,-185"/>
<text text-anchor="start" x="1573.5" y="-174.6" font-family="SourceSans" font-size="8.00">libtorrent/torrent</text>
<text text-anchor="middle" x="1606.5" y="-165.6" font-family="SourceSans" font-size="8.00">_status.hpp</text>
</a>
</g>
</g>
<!-- Node4&#45;&gt;Node36 -->
<g id="edge38" class="edge">
<title>Node4&#45;&gt;Node36</title>
<path fill="none" stroke="#63b8ff" d="M1125.62,-227.22C1196.27,-223.7 1386.99,-212.41 1555.36,-185.01"/>
<polygon fill="#63b8ff" stroke="#63b8ff" points="1556.1,-188.43 1565.39,-183.35 1554.96,-181.53 1556.1,-188.43"/>
</g>
<!-- Node37 -->
<g id="node37" class="node">
<title>Node37</title>
<g id="a_node37"><a xlink:title=" ">
<polygon fill="#e0e0e0" stroke="#999999" points="1775.5,-180.5 1665.5,-180.5 1665.5,-163.5 1775.5,-163.5 1775.5,-180.5"/>
<text text-anchor="middle" x="1720.5" y="-170.1" font-family="SourceSans" font-size="8.00">libtorrent/peer_info.hpp</text>
</a>
</g>
</g>
<!-- Node4&#45;&gt;Node37 -->
<g id="edge39" class="edge">
<title>Node4&#45;&gt;Node37</title>
<path fill="none" stroke="#63b8ff" d="M1125.53,-227.39C1207.51,-223.9 1453.85,-211.8 1656.5,-185 1662.24,-184.24 1668.25,-183.3 1674.19,-182.29"/>
<polygon fill="#63b8ff" stroke="#63b8ff" points="1674.83,-185.73 1684.06,-180.54 1673.6,-178.84 1674.83,-185.73"/>
</g>
<!-- Node38 -->
<g id="node38" class="node">
<title>Node38</title>
<g id="a_node38"><a xlink:title=" ">
<polygon fill="#e0e0e0" stroke="#999999" points="1887.5,-185 1793.5,-185 1793.5,-159 1887.5,-159 1887.5,-185"/>
<text text-anchor="start" x="1801.5" y="-174.6" font-family="SourceSans" font-size="8.00">libtorrent/announce</text>
<text text-anchor="middle" x="1840.5" y="-165.6" font-family="SourceSans" font-size="8.00">_entry.hpp</text>
</a>
</g>
</g>
<!-- Node4&#45;&gt;Node38 -->
<g id="edge40" class="edge">
<title>Node4&#45;&gt;Node38</title>
<path fill="none" stroke="#63b8ff" d="M1125.79,-228.2C1218.66,-226.92 1522.71,-220.22 1783.2,-185.02"/>
<polygon fill="#63b8ff" stroke="#63b8ff" points="1783.8,-188.47 1793.23,-183.64 1782.85,-181.53 1783.8,-188.47"/>
</g>
<!-- Node39 -->
<g id="node39" class="node">
<title>Node39</title>
<g id="a_node39"><a xlink:title=" ">
<polygon fill="#e0e0e0" stroke="#999999" points="407,-180.5 300,-180.5 300,-163.5 407,-163.5 407,-180.5"/>
<text text-anchor="middle" x="353.5" y="-170.1" font-family="SourceSans" font-size="8.00">libtorrent/bdecode.hpp</text>
</a>
</g>
</g>
<!-- Node4&#45;&gt;Node39 -->
<g id="edge41" class="edge">
<title>Node4&#45;&gt;Node39</title>
<path fill="none" stroke="#63b8ff" d="M1069.49,-227.96C976.34,-225.89 668.6,-216.94 416.5,-185 410.7,-184.26 404.62,-183.33 398.63,-182.3"/>
<polygon fill="#63b8ff" stroke="#63b8ff" points="399.16,-178.84 388.7,-180.5 397.92,-185.73 399.16,-178.84"/>
</g>
<!-- Node40 -->
<g id="node40" class="node">
<title>Node40</title>
<g id="a_node40"><a xlink:title=" ">
<polygon fill="#e0e0e0" stroke="#999999" points="543.5,-180.5 425.5,-180.5 425.5,-163.5 543.5,-163.5 543.5,-180.5"/>
<text text-anchor="middle" x="484.5" y="-170.1" font-family="SourceSans" font-size="8.00">libtorrent/magnet_uri.hpp</text>
</a>
</g>
</g>
<!-- Node4&#45;&gt;Node40 -->
<g id="edge42" class="edge">
<title>Node4&#45;&gt;Node40</title>
<path fill="none" stroke="#63b8ff" d="M1069.32,-227.2C988.58,-223.26 749.51,-210.19 552.5,-185 546.34,-184.21 539.88,-183.25 533.5,-182.22"/>
<polygon fill="#63b8ff" stroke="#63b8ff" points="534.04,-178.76 523.6,-180.55 532.88,-185.66 534.04,-178.76"/>
</g>
<!-- Node41 -->
<g id="node41" class="node">
<title>Node41</title>
<g id="a_node41"><a xlink:title=" ">
<polygon fill="#e0e0e0" stroke="#999999" points="663,-180.5 562,-180.5 562,-163.5 663,-163.5 663,-180.5"/>
<text text-anchor="middle" x="612.5" y="-170.1" font-family="SourceSans" font-size="8.00">libtorrent/session.hpp</text>
</a>
</g>
</g>
<!-- Node4&#45;&gt;Node41 -->
<g id="edge43" class="edge">
<title>Node4&#45;&gt;Node41</title>
<path fill="none" stroke="#63b8ff" d="M1069.47,-226.6C1001.14,-221.77 820.69,-207.73 671.5,-185 666.71,-184.27 661.73,-183.41 656.77,-182.5"/>
<polygon fill="#63b8ff" stroke="#63b8ff" points="657.2,-179.01 646.72,-180.56 655.87,-185.89 657.2,-179.01"/>
</g>
<!-- Node42 -->
<g id="node42" class="node">
<title>Node42</title>
<g id="a_node42"><a xlink:title=" ">
<polygon fill="#e0e0e0" stroke="#999999" points="778,-185 681,-185 681,-159 778,-159 778,-185"/>
<text text-anchor="start" x="689" y="-174.6" font-family="SourceSans" font-size="8.00">libtorrent/extensions</text>
<text text-anchor="middle" x="729.5" y="-165.6" font-family="SourceSans" font-size="8.00">/ut_metadata.hpp</text>
</a>
</g>
</g>
<!-- Node4&#45;&gt;Node42 -->
<g id="edge44" class="edge">
<title>Node4&#45;&gt;Node42</title>
<path fill="none" stroke="#63b8ff" d="M1069.1,-225.19C1015.88,-218.84 897.36,-204.04 788.14,-185.21"/>
<polygon fill="#63b8ff" stroke="#63b8ff" points="788.73,-181.76 778.28,-183.5 787.53,-188.66 788.73,-181.76"/>
</g>
<!-- Node43 -->
<g id="node43" class="node">
<title>Node43</title>
<g id="a_node43"><a xlink:title=" ">
<polygon fill="#e0e0e0" stroke="#999999" points="893,-185 796,-185 796,-159 893,-159 893,-185"/>
<text text-anchor="start" x="804" y="-174.6" font-family="SourceSans" font-size="8.00">libtorrent/extensions</text>
<text text-anchor="middle" x="844.5" y="-165.6" font-family="SourceSans" font-size="8.00">/ut_pex.hpp</text>
</a>
</g>
</g>
<!-- Node4&#45;&gt;Node43 -->
<g id="edge45" class="edge">
<title>Node4&#45;&gt;Node43</title>
<path fill="none" stroke="#63b8ff" d="M1069.46,-222.35C1029.57,-213.6 955.51,-197.35 903.28,-185.9"/>
<polygon fill="#63b8ff" stroke="#63b8ff" points="903.99,-182.47 893.47,-183.74 902.49,-189.3 903.99,-182.47"/>
</g>
<!-- Node6 -->
<g id="node6" class="node">
<title>Node6</title>
<g id="a_node6"><a xlink:title=" ">
<polygon fill="#e0e0e0" stroke="#999999" points="1132,-17 1091,-17 1091,0 1132,0 1132,-17"/>
<text text-anchor="middle" x="1111.5" y="-6.6" font-family="SourceSans" font-size="8.00">cmath</text>
</a>
</g>
</g>
<!-- Node5&#45;&gt;Node6 -->
<g id="edge5" class="edge">
<title>Node5&#45;&gt;Node6</title>
<path fill="none" stroke="#63b8ff" d="M960.73,-163.34C989.04,-153.26 1035.93,-135.38 1049.5,-123 1079.13,-95.97 1097.6,-51.4 1106.06,-26.92"/>
<polygon fill="#63b8ff" stroke="#63b8ff" points="1109.44,-27.82 1109.24,-17.23 1102.79,-25.64 1109.44,-27.82"/>
</g>
<!-- Node7 -->
<g id="node7" class="node">
<title>Node7</title>
<g id="a_node7"><a xlink:title=" ">
<polygon fill="#e0e0e0" stroke="#999999" points="1179,-17 1150,-17 1150,0 1179,0 1179,-17"/>
<text text-anchor="middle" x="1164.5" y="-6.6" font-family="SourceSans" font-size="8.00">set</text>
</a>
</g>
</g>
<!-- Node5&#45;&gt;Node7 -->
<g id="edge6" class="edge">
<title>Node5&#45;&gt;Node7</title>
<path fill="none" stroke="#63b8ff" d="M960.38,-163.44C996.9,-150.79 1066.78,-126.34 1071.5,-123 1109.35,-96.25 1140.37,-50.19 1155.15,-25.79"/>
<polygon fill="#63b8ff" stroke="#63b8ff" points="1158.25,-27.43 1160.32,-17.04 1152.22,-23.87 1158.25,-27.43"/>
</g>
<!-- Node8 -->
<g id="node8" class="node">
<title>Node8</title>
<g id="a_node8"><a xlink:title=" ">
<polygon fill="#e0e0e0" stroke="#999999" points="897.5,-123 841.5,-123 841.5,-106 897.5,-106 897.5,-123"/>
<text text-anchor="middle" x="869.5" y="-112.6" font-family="SourceSans" font-size="8.00">functional</text>
</a>
</g>
</g>
<!-- Node5&#45;&gt;Node8 -->
<g id="edge7" class="edge">
<title>Node5&#45;&gt;Node8</title>
<path fill="none" stroke="#63b8ff" d="M928.91,-163.28C918.09,-154.58 900.29,-140.26 886.99,-129.56"/>
<polygon fill="#63b8ff" stroke="#63b8ff" points="889,-126.69 879.01,-123.15 884.61,-132.15 889,-126.69"/>
</g>
<!-- Node9 -->
<g id="node9" class="node">
<title>Node9</title>
<g id="a_node9"><a xlink:title=" ">
<polygon fill="#e0e0e0" stroke="#999999" points="1247.5,-17 1197.5,-17 1197.5,0 1247.5,0 1247.5,-17"/>
<text text-anchor="middle" x="1222.5" y="-6.6" font-family="SourceSans" font-size="8.00">iostream</text>
</a>
</g>
</g>
<!-- Node5&#45;&gt;Node9 -->
<g id="edge8" class="edge">
<title>Node5&#45;&gt;Node9</title>
<path fill="none" stroke="#63b8ff" d="M960.93,-163.4C965.42,-161.91 970.1,-160.39 974.5,-159 1028.01,-142.13 1046.51,-150.35 1095.5,-123 1143.1,-96.42 1188.01,-49.26 1209.41,-24.95"/>
<polygon fill="#63b8ff" stroke="#63b8ff" points="1212.3,-26.96 1216.2,-17.1 1207.01,-22.38 1212.3,-26.96"/>
</g>
<!-- Node10 -->
<g id="node10" class="node">
<title>Node10</title>
<g id="a_node10"><a xlink:href="a60-io_8h.html" target="_top" xlink:title=" ">
<polygon fill="white" stroke="#666666" points="664,-123 617,-123 617,-106 664,-106 664,-123"/>
<text text-anchor="middle" x="640.5" y="-112.6" font-family="SourceSans" font-size="8.00">a60&#45;io.h</text>
</a>
</g>
</g>
<!-- Node5&#45;&gt;Node10 -->
<g id="edge9" class="edge">
<title>Node5&#45;&gt;Node10</title>
<path fill="none" stroke="#63b8ff" d="M917.13,-163.47C912.05,-161.85 906.62,-160.25 901.5,-159 820.88,-139.32 724.07,-125.76 674.07,-119.47"/>
<polygon fill="#63b8ff" stroke="#63b8ff" points="674.49,-116 664.13,-118.24 673.63,-122.95 674.49,-116"/>
</g>
<!-- Node29 -->
<g id="node29" class="node">
<title>Node29</title>
<g id="a_node29"><a xlink:title=" ">
<polygon fill="#e0e0e0" stroke="#999999" points="961.5,-123 915.5,-123 915.5,-106 961.5,-106 961.5,-123"/>
<text text-anchor="middle" x="938.5" y="-112.6" font-family="SourceSans" font-size="8.00">GeoIP.h</text>
</a>
</g>
</g>
<!-- Node5&#45;&gt;Node29 -->
<g id="edge31" class="edge">
<title>Node5&#45;&gt;Node29</title>
<path fill="none" stroke="#63b8ff" d="M938.5,-163.28C938.5,-155.58 938.5,-143.46 938.5,-133.36"/>
<polygon fill="#63b8ff" stroke="#63b8ff" points="942,-133.15 938.5,-123.15 935,-133.15 942,-133.15"/>
</g>
<!-- Node30 -->
<g id="node30" class="node">
<title>Node30</title>
<g id="a_node30"><a xlink:title=" ">
<polygon fill="#e0e0e0" stroke="#999999" points="1041,-123 980,-123 980,-106 1041,-106 1041,-123"/>
<text text-anchor="middle" x="1010.5" y="-112.6" font-family="SourceSans" font-size="8.00">GeoIPCity.h</text>
</a>
</g>
</g>
<!-- Node5&#45;&gt;Node30 -->
<g id="edge32" class="edge">
<title>Node5&#45;&gt;Node30</title>
<path fill="none" stroke="#63b8ff" d="M948.51,-163.28C959.9,-154.5 978.73,-139.99 992.65,-129.26"/>
<polygon fill="#63b8ff" stroke="#63b8ff" points="994.79,-132.03 1000.57,-123.15 990.52,-126.48 994.79,-132.03"/>
</g>
<!-- Node11 -->
<g id="node11" class="node">
<title>Node11</title>
<g id="a_node11"><a xlink:title=" ">
<polygon fill="#e0e0e0" stroke="#999999" points="368.5,-70 322.5,-70 322.5,-53 368.5,-53 368.5,-70"/>
<text text-anchor="middle" x="345.5" y="-59.6" font-family="SourceSans" font-size="8.00">fstream</text>
</a>
</g>
</g>
<!-- Node10&#45;&gt;Node11 -->
<g id="edge10" class="edge">
<title>Node10&#45;&gt;Node11</title>
<path fill="none" stroke="#63b8ff" d="M616.86,-109.41C564.62,-100.38 439.24,-78.71 378.97,-68.29"/>
<polygon fill="#63b8ff" stroke="#63b8ff" points="379.3,-64.79 368.85,-66.54 378.1,-71.69 379.3,-64.79"/>
</g>
<!-- Node12 -->
<g id="node12" class="node">
<title>Node12</title>
<g id="a_node12"><a xlink:title=" ">
<polygon fill="#e0e0e0" stroke="#999999" points="563.5,-70 455.5,-70 455.5,-53 563.5,-53 563.5,-70"/>
<text text-anchor="middle" x="509.5" y="-59.6" font-family="SourceSans" font-size="8.00">experimental/filesystem</text>
</a>
</g>
</g>
<!-- Node10&#45;&gt;Node12 -->
<g id="edge11" class="edge">
<title>Node10&#45;&gt;Node12</title>
<path fill="none" stroke="#63b8ff" d="M621.17,-105.97C599.31,-97.46 563.47,-83.51 538.31,-73.72"/>
<polygon fill="#63b8ff" stroke="#63b8ff" points="539.5,-70.42 528.91,-70.06 536.96,-76.95 539.5,-70.42"/>
</g>
<!-- Node13 -->
<g id="node13" class="node">
<title>Node13</title>
<g id="a_node13"><a xlink:title=" ">
<polygon fill="#e0e0e0" stroke="#999999" points="635,-70 582,-70 582,-53 635,-53 635,-70"/>
<text text-anchor="middle" x="608.5" y="-59.6" font-family="SourceSans" font-size="8.00">stdexcept</text>
</a>
</g>
</g>
<!-- Node10&#45;&gt;Node13 -->
<g id="edge12" class="edge">
<title>Node10&#45;&gt;Node13</title>
<path fill="none" stroke="#63b8ff" d="M635.78,-105.97C631.29,-98.82 624.39,-87.82 618.65,-78.67"/>
<polygon fill="#63b8ff" stroke="#63b8ff" points="621.52,-76.67 613.24,-70.06 615.59,-80.39 621.52,-76.67"/>
</g>
<!-- Node14 -->
<g id="node14" class="node">
<title>Node14</title>
<g id="a_node14"><a xlink:title=" ">
<polygon fill="#e0e0e0" stroke="#999999" points="691.5,-70 653.5,-70 653.5,-53 691.5,-53 691.5,-70"/>
<text text-anchor="middle" x="672.5" y="-59.6" font-family="SourceSans" font-size="8.00">regex</text>
</a>
</g>
</g>
<!-- Node10&#45;&gt;Node14 -->
<g id="edge13" class="edge">
<title>Node10&#45;&gt;Node14</title>
<path fill="none" stroke="#63b8ff" d="M645.22,-105.97C649.71,-98.82 656.61,-87.82 662.35,-78.67"/>
<polygon fill="#63b8ff" stroke="#63b8ff" points="665.41,-80.39 667.76,-70.06 659.48,-76.67 665.41,-80.39"/>
</g>
<!-- Node15 -->
<g id="node15" class="node">
<title>Node15</title>
<g id="a_node15"><a xlink:href="a60_8h.html" target="_top" xlink:title=" ">
<polygon fill="white" stroke="#666666" points="747.5,-70 709.5,-70 709.5,-53 747.5,-53 747.5,-70"/>
<text text-anchor="middle" x="728.5" y="-59.6" font-family="SourceSans" font-size="8.00">a60.h</text>
</a>
</g>
</g>
<!-- Node10&#45;&gt;Node15 -->
<g id="edge14" class="edge">
<title>Node10&#45;&gt;Node15</title>
<path fill="none" stroke="#63b8ff" d="M653.48,-105.97C667.39,-97.91 689.71,-84.98 706.4,-75.31"/>
<polygon fill="#63b8ff" stroke="#63b8ff" points="708.56,-78.1 715.46,-70.06 705.05,-72.04 708.56,-78.1"/>
</g>
<!-- Node15&#45;&gt;Node6 -->
<g id="edge15" class="edge">
<title>Node15&#45;&gt;Node6</title>
<path fill="none" stroke="#63b8ff" d="M747.76,-58.96C799.81,-54.63 947.76,-41.15 1080.95,-16.84"/>
<polygon fill="#63b8ff" stroke="#63b8ff" points="1081.72,-20.26 1090.92,-15 1080.45,-13.38 1081.72,-20.26"/>
</g>
<!-- Node15&#45;&gt;Node7 -->
<g id="edge19" class="edge">
<title>Node15&#45;&gt;Node7</title>
<path fill="none" stroke="#63b8ff" d="M747.6,-59.82C805.42,-57.5 983.66,-48.29 1140.1,-16.59"/>
<polygon fill="#63b8ff" stroke="#63b8ff" points="1140.81,-20.02 1149.9,-14.57 1139.4,-13.16 1140.81,-20.02"/>
</g>
<!-- Node15&#45;&gt;Node9 -->
<g id="edge30" class="edge">
<title>Node15&#45;&gt;Node9</title>
<path fill="none" stroke="#63b8ff" d="M747.84,-59.48C810.03,-56.02 1010.57,-43.55 1187.33,-16.79"/>
<polygon fill="#63b8ff" stroke="#63b8ff" points="1187.98,-20.24 1197.33,-15.26 1186.92,-13.32 1187.98,-20.24"/>
</g>
<!-- Node16 -->
<g id="node16" class="node">
<title>Node16</title>
<g id="a_node16"><a xlink:title=" ">
<polygon fill="#e0e0e0" stroke="#999999" points="1016,-17 979,-17 979,0 1016,0 1016,-17"/>
<text text-anchor="middle" x="997.5" y="-6.6" font-family="SourceSans" font-size="8.00">tuple</text>
</a>
</g>
</g>
<!-- Node15&#45;&gt;Node16 -->
<g id="edge16" class="edge">
<title>Node15&#45;&gt;Node16</title>
<path fill="none" stroke="#63b8ff" d="M747.67,-57.6C787.13,-51.5 880.48,-36.48 968.95,-16.94"/>
<polygon fill="#63b8ff" stroke="#63b8ff" points="969.88,-20.31 978.88,-14.72 968.35,-13.48 969.88,-20.31"/>
</g>
<!-- Node17 -->
<g id="node17" class="node">
<title>Node17</title>
<g id="a_node17"><a xlink:title=" ">
<polygon fill="#e0e0e0" stroke="#999999" points="1073,-17 1034,-17 1034,0 1073,0 1073,-17"/>
<text text-anchor="middle" x="1053.5" y="-6.6" font-family="SourceSans" font-size="8.00">string</text>
</a>
</g>
</g>
<!-- Node15&#45;&gt;Node17 -->
<g id="edge17" class="edge">
<title>Node15&#45;&gt;Node17</title>
<path fill="none" stroke="#63b8ff" d="M747.67,-58.4C793.58,-53.24 913.59,-38.83 1023.95,-16.88"/>
<polygon fill="#63b8ff" stroke="#63b8ff" points="1024.8,-20.28 1033.91,-14.87 1023.42,-13.41 1024.8,-20.28"/>
</g>
<!-- Node18 -->
<g id="node18" class="node">
<title>Node18</title>
<g id="a_node18"><a xlink:title=" ">
<polygon fill="#e0e0e0" stroke="#999999" points="307,-17 268,-17 268,0 307,0 307,-17"/>
<text text-anchor="middle" x="287.5" y="-6.6" font-family="SourceSans" font-size="8.00">vector</text>
</a>
</g>
</g>
<!-- Node15&#45;&gt;Node18 -->
<g id="edge18" class="edge">
<title>Node15&#45;&gt;Node18</title>
<path fill="none" stroke="#63b8ff" d="M709.32,-54.91C706.38,-54.18 703.37,-53.52 700.5,-53 534.99,-23.29 487.16,-45.67 317.11,-16.75"/>
<polygon fill="#63b8ff" stroke="#63b8ff" points="317.51,-13.27 307.06,-15.01 316.32,-20.17 317.51,-13.27"/>
</g>
<!-- Node19 -->
<g id="node19" class="node">
<title>Node19</title>
<g id="a_node19"><a xlink:title=" ">
<polygon fill="#e0e0e0" stroke="#999999" points="403.5,-17 325.5,-17 325.5,0 403.5,0 403.5,-17"/>
<text text-anchor="middle" x="364.5" y="-6.6" font-family="SourceSans" font-size="8.00">unordered_map</text>
</a>
</g>
</g>
<!-- Node15&#45;&gt;Node19 -->
<g id="edge20" class="edge">
<title>Node15&#45;&gt;Node19</title>
<path fill="none" stroke="#63b8ff" d="M709.3,-54.99C706.37,-54.25 703.36,-53.56 700.5,-53 577.11,-28.88 542.01,-34.64 413.74,-17.12"/>
<polygon fill="#63b8ff" stroke="#63b8ff" points="413.9,-13.61 403.52,-15.7 412.94,-20.54 413.9,-13.61"/>
</g>
<!-- Node20 -->
<g id="node20" class="node">
<title>Node20</title>
<g id="a_node20"><a xlink:title=" ">
<polygon fill="#e0e0e0" stroke="#999999" points="493.5,-17 421.5,-17 421.5,0 493.5,0 493.5,-17"/>
<text text-anchor="middle" x="457.5" y="-6.6" font-family="SourceSans" font-size="8.00">unordered_set</text>
</a>
</g>
</g>
<!-- Node15&#45;&gt;Node20 -->
<g id="edge21" class="edge">
<title>Node15&#45;&gt;Node20</title>
<path fill="none" stroke="#63b8ff" d="M709.27,-55.12C706.34,-54.37 703.35,-53.64 700.5,-53 663.82,-44.82 563.38,-27.44 503.73,-17.3"/>
<polygon fill="#63b8ff" stroke="#63b8ff" points="504.25,-13.83 493.81,-15.61 503.08,-20.74 504.25,-13.83"/>
</g>
<!-- Node21 -->
<g id="node21" class="node">
<title>Node21</title>
<g id="a_node21"><a xlink:title=" ">
<polygon fill="#e0e0e0" stroke="#999999" points="183,-17 140,-17 140,0 183,0 183,-17"/>
<text text-anchor="middle" x="161.5" y="-6.6" font-family="SourceSans" font-size="8.00">chrono</text>
</a>
</g>
</g>
<!-- Node15&#45;&gt;Node21 -->
<g id="edge22" class="edge">
<title>Node15&#45;&gt;Node21</title>
<path fill="none" stroke="#63b8ff" d="M709.33,-54.85C706.39,-54.13 703.38,-53.48 700.5,-53 480.55,-16.1 417.99,-50.69 193.22,-16.77"/>
<polygon fill="#63b8ff" stroke="#63b8ff" points="193.5,-13.27 183.09,-15.21 192.44,-20.19 193.5,-13.27"/>
</g>
<!-- Node22 -->
<g id="node22" class="node">
<title>Node22</title>
<g id="a_node22"><a xlink:title=" ">
<polygon fill="#e0e0e0" stroke="#999999" points="559.5,-17 511.5,-17 511.5,0 559.5,0 559.5,-17"/>
<text text-anchor="middle" x="535.5" y="-6.6" font-family="SourceSans" font-size="8.00">numeric</text>
</a>
</g>
</g>
<!-- Node15&#45;&gt;Node22 -->
<g id="edge23" class="edge">
<title>Node15&#45;&gt;Node22</title>
<path fill="none" stroke="#63b8ff" d="M709.22,-55.33C706.3,-54.54 703.32,-53.75 700.5,-53 655.09,-40.93 602.62,-27.12 569.26,-18.36"/>
<polygon fill="#63b8ff" stroke="#63b8ff" points="570.12,-14.96 559.55,-15.81 568.34,-21.74 570.12,-14.96"/>
</g>
<!-- Node23 -->
<g id="node23" class="node">
<title>Node23</title>
<g id="a_node23"><a xlink:title=" ">
<polygon fill="#e0e0e0" stroke="#999999" points="631.5,-17 577.5,-17 577.5,0 631.5,0 631.5,-17"/>
<text text-anchor="middle" x="604.5" y="-6.6" font-family="SourceSans" font-size="8.00">algorithm</text>
</a>
</g>
</g>
<!-- Node15&#45;&gt;Node23 -->
<g id="edge24" class="edge">
<title>Node15&#45;&gt;Node23</title>
<path fill="none" stroke="#63b8ff" d="M710.2,-52.97C689.69,-44.54 656.19,-30.76 632.4,-20.98"/>
<polygon fill="#63b8ff" stroke="#63b8ff" points="633.45,-17.62 622.87,-17.06 630.79,-24.1 633.45,-17.62"/>
</g>
<!-- Node24 -->
<g id="node24" class="node">
<title>Node24</title>
<g id="a_node24"><a xlink:title=" ">
<polygon fill="#e0e0e0" stroke="#999999" points="687.5,-17 649.5,-17 649.5,0 687.5,0 687.5,-17"/>
<text text-anchor="middle" x="668.5" y="-6.6" font-family="SourceSans" font-size="8.00">locale</text>
</a>
</g>
</g>
<!-- Node15&#45;&gt;Node24 -->
<g id="edge25" class="edge">
<title>Node15&#45;&gt;Node24</title>
<path fill="none" stroke="#63b8ff" d="M719.65,-52.97C710.61,-45.29 696.36,-33.18 685.19,-23.69"/>
<polygon fill="#63b8ff" stroke="#63b8ff" points="687.28,-20.87 677.39,-17.06 682.74,-26.2 687.28,-20.87"/>
</g>
<!-- Node25 -->
<g id="node25" class="node">
<title>Node25</title>
<g id="a_node25"><a xlink:title=" ">
<polygon fill="#e0e0e0" stroke="#999999" points="751,-17 706,-17 706,0 751,0 751,-17"/>
<text text-anchor="middle" x="728.5" y="-6.6" font-family="SourceSans" font-size="8.00">codecvt</text>
</a>
</g>
</g>
<!-- Node15&#45;&gt;Node25 -->
<g id="edge26" class="edge">
<title>Node15&#45;&gt;Node25</title>
<path fill="none" stroke="#63b8ff" d="M728.5,-52.97C728.5,-46.19 728.5,-35.97 728.5,-27.13"/>
<polygon fill="#63b8ff" stroke="#63b8ff" points="732,-27.06 728.5,-17.06 725,-27.06 732,-27.06"/>
</g>
<!-- Node26 -->
<g id="node26" class="node">
<title>Node26</title>
<g id="a_node26"><a xlink:title=" ">
<polygon fill="#e0e0e0" stroke="#999999" points="896,-17 769,-17 769,0 896,0 896,-17"/>
<text text-anchor="middle" x="832.5" y="-6.6" font-family="SourceSans" font-size="8.00">ext/codecvt_specializations.h</text>
</a>
</g>
</g>
<!-- Node15&#45;&gt;Node26 -->
<g id="edge27" class="edge">
<title>Node15&#45;&gt;Node26</title>
<path fill="none" stroke="#63b8ff" d="M743.85,-52.97C760.74,-44.69 788.15,-31.25 808.02,-21.5"/>
<polygon fill="#63b8ff" stroke="#63b8ff" points="809.65,-24.6 817.09,-17.06 806.57,-18.32 809.65,-24.6"/>
</g>
<!-- Node27 -->
<g id="node27" class="node">
<title>Node27</title>
<g id="a_node27"><a xlink:title=" ">
<polygon fill="#e0e0e0" stroke="#999999" points="961,-17 914,-17 914,0 961,0 961,-17"/>
<text text-anchor="middle" x="937.5" y="-6.6" font-family="SourceSans" font-size="8.00">sstream</text>
</a>
</g>
</g>
<!-- Node15&#45;&gt;Node27 -->
<g id="edge28" class="edge">
<title>Node15&#45;&gt;Node27</title>
<path fill="none" stroke="#63b8ff" d="M747.79,-55.79C783.34,-47.12 859.6,-28.51 903.84,-17.71"/>
<polygon fill="#63b8ff" stroke="#63b8ff" points="904.94,-21.05 913.83,-15.28 903.29,-14.25 904.94,-21.05"/>
</g>
<!-- Node28 -->
<g id="node28" class="node">
<title>Node28</title>
<g id="a_node28"><a xlink:title=" ">
<polygon fill="#e0e0e0" stroke="#999999" points="249.5,-17 201.5,-17 201.5,0 249.5,0 249.5,-17"/>
<text text-anchor="middle" x="225.5" y="-6.6" font-family="SourceSans" font-size="8.00">iomanip</text>
</a>
</g>
</g>
<!-- Node15&#45;&gt;Node28 -->
<g id="edge29" class="edge">
<title>Node15&#45;&gt;Node28</title>
<path fill="none" stroke="#63b8ff" d="M709.32,-54.87C706.39,-54.16 703.38,-53.5 700.5,-53 509.52,-19.92 455.11,-46.02 259.6,-16.91"/>
<polygon fill="#63b8ff" stroke="#63b8ff" points="259.99,-13.43 249.57,-15.39 258.94,-20.35 259.99,-13.43"/>
</g>
<!-- Node45 -->
<g id="node45" class="node">
<title>Node45</title>
<g id="a_node45"><a xlink:title=" ">
<polygon fill="#e0e0e0" stroke="#999999" points="2125,-180.5 2018,-180.5 2018,-163.5 2125,-163.5 2125,-180.5"/>
<text text-anchor="middle" x="2071.5" y="-170.1" font-family="SourceSans" font-size="8.00">rapidjson/prettywriter.h</text>
</a>
</g>
</g>
<!-- Node44&#45;&gt;Node45 -->
<g id="edge47" class="edge">
<title>Node44&#45;&gt;Node45</title>
<path fill="none" stroke="#63b8ff" d="M2172.23,-220.78C2152.67,-211.5 2119.63,-195.83 2096.75,-184.98"/>
<polygon fill="#63b8ff" stroke="#63b8ff" points="2098.17,-181.78 2087.63,-180.65 2095.17,-188.1 2098.17,-181.78"/>
</g>
<!-- Node46 -->
<g id="node46" class="node">
<title>Node46</title>
<g id="a_node46"><a xlink:title=" ">
<polygon fill="#e0e0e0" stroke="#999999" points="2233.5,-180.5 2143.5,-180.5 2143.5,-163.5 2233.5,-163.5 2233.5,-180.5"/>
<text text-anchor="middle" x="2188.5" y="-170.1" font-family="SourceSans" font-size="8.00">rapidjson/pointer.h</text>
</a>
</g>
</g>
<!-- Node44&#45;&gt;Node46 -->
<g id="edge48" class="edge">
<title>Node44&#45;&gt;Node46</title>
<path fill="none" stroke="#63b8ff" d="M2188.5,-220.78C2188.5,-213.08 2188.5,-200.96 2188.5,-190.86"/>
<polygon fill="#63b8ff" stroke="#63b8ff" points="2192,-190.65 2188.5,-180.65 2185,-190.65 2192,-190.65"/>
</g>
<!-- Node47 -->
<g id="node47" class="node">
<title>Node47</title>
<g id="a_node47"><a xlink:title=" ">
<polygon fill="#e0e0e0" stroke="#999999" points="2369.5,-180.5 2251.5,-180.5 2251.5,-163.5 2369.5,-163.5 2369.5,-180.5"/>
<text text-anchor="middle" x="2310.5" y="-170.1" font-family="SourceSans" font-size="8.00">rapidjson/filereadstream.h</text>
</a>
</g>
</g>
<!-- Node44&#45;&gt;Node47 -->
<g id="edge49" class="edge">
<title>Node44&#45;&gt;Node47</title>
<path fill="none" stroke="#63b8ff" d="M2205.21,-220.9C2225.74,-211.56 2260.8,-195.61 2284.78,-184.7"/>
<polygon fill="#63b8ff" stroke="#63b8ff" points="2286.34,-187.84 2293.99,-180.51 2283.44,-181.46 2286.34,-187.84"/>
</g>
<!-- Node48 -->
<g id="node48" class="node">
<title>Node48</title>
<g id="a_node48"><a xlink:title=" ">
<polygon fill="#e0e0e0" stroke="#999999" points="2475,-180.5 2388,-180.5 2388,-163.5 2475,-163.5 2475,-180.5"/>
<text text-anchor="middle" x="2431.5" y="-170.1" font-family="SourceSans" font-size="8.00">rapidjson/reader.h</text>
</a>
</g>
</g>
<!-- Node44&#45;&gt;Node48 -->
<g id="edge50" class="edge">
<title>Node44&#45;&gt;Node48</title>
<path fill="none" stroke="#63b8ff" d="M2221.52,-220.96C2264.81,-211.07 2340.8,-193.72 2388.52,-182.82"/>
<polygon fill="#63b8ff" stroke="#63b8ff" points="2389.58,-186.17 2398.55,-180.53 2388.02,-179.34 2389.58,-186.17"/>
</g>
<!-- Node49 -->
<g id="node49" class="node">
<title>Node49</title>
<g id="a_node49"><a xlink:title=" ">
<polygon fill="#e0e0e0" stroke="#999999" points="2595.5,-180.5 2493.5,-180.5 2493.5,-163.5 2595.5,-163.5 2595.5,-180.5"/>
<text text-anchor="middle" x="2544.5" y="-170.1" font-family="SourceSans" font-size="8.00">rapidjson/document.h</text>
</a>
</g>
</g>
<!-- Node44&#45;&gt;Node49 -->
<g id="edge51" class="edge">
<title>Node44&#45;&gt;Node49</title>
<path fill="none" stroke="#63b8ff" d="M2224.59,-223.81C2280.44,-216.4 2391.1,-201.19 2484.5,-185 2488.98,-184.22 2493.63,-183.37 2498.29,-182.49"/>
<polygon fill="#63b8ff" stroke="#63b8ff" points="2499.23,-185.87 2508.39,-180.54 2497.9,-179 2499.23,-185.87"/>
</g>
<!-- Node50 -->
<g id="node50" class="node">
<title>Node50</title>
<g id="a_node50"><a xlink:title=" ">
<polygon fill="#e0e0e0" stroke="#999999" points="1999.5,-180.5 1905.5,-180.5 1905.5,-163.5 1999.5,-163.5 1999.5,-180.5"/>
<text text-anchor="middle" x="1952.5" y="-170.1" font-family="SourceSans" font-size="8.00">rapidjson/error/en.h</text>
</a>
</g>
</g>
<!-- Node44&#45;&gt;Node50 -->
<g id="edge52" class="edge">
<title>Node44&#45;&gt;Node50</title>
<path fill="none" stroke="#63b8ff" d="M2156.18,-220.9C2114.16,-211.02 2040.7,-193.74 1994.44,-182.86"/>
<polygon fill="#63b8ff" stroke="#63b8ff" points="1994.97,-179.39 1984.43,-180.51 1993.36,-186.21 1994.97,-179.39"/>
</g>
<!-- Node51&#45;&gt;Node4 -->
<g id="edge60" class="edge">
<title>Node51&#45;&gt;Node4</title>
<path fill="none" stroke="#63b8ff" d="M247.5,-279.59C384.95,-271.66 911.62,-241.24 1058.99,-232.72"/>
<polygon fill="#63b8ff" stroke="#63b8ff" points="1059.54,-236.2 1069.32,-232.13 1059.14,-229.21 1059.54,-236.2"/>
</g>
<!-- Node51&#45;&gt;Node11 -->
<g id="edge56" class="edge">
<title>Node51&#45;&gt;Node11</title>
<path fill="none" stroke="#63b8ff" d="M220.95,-273.74C227.89,-265.24 239.06,-251.06 247.5,-238 269.2,-204.43 271.05,-193.92 290.5,-159 306.16,-130.88 324.78,-98.41 335.84,-79.21"/>
<polygon fill="#63b8ff" stroke="#63b8ff" points="338.92,-80.89 340.88,-70.48 332.85,-77.39 338.92,-80.89"/>
</g>
<!-- Node51&#45;&gt;Node21 -->
<g id="edge59" class="edge">
<title>Node51&#45;&gt;Node21</title>
<path fill="none" stroke="#63b8ff" d="M212.25,-273.95C207.21,-256.4 195.5,-211.44 195.5,-173 195.5,-173 195.5,-173 195.5,-113.5 195.5,-81.31 180.6,-46.16 170.53,-26.08"/>
<polygon fill="#63b8ff" stroke="#63b8ff" points="173.54,-24.29 165.81,-17.05 167.34,-27.53 173.54,-24.29"/>
</g>
<!-- Node51&#45;&gt;Node28 -->
<g id="edge57" class="edge">
<title>Node51&#45;&gt;Node28</title>
<path fill="none" stroke="#63b8ff" d="M216.75,-273.95C221.79,-256.4 233.5,-211.44 233.5,-173 233.5,-173 233.5,-173 233.5,-113.5 233.5,-83.08 230.06,-47.81 227.69,-27.15"/>
<polygon fill="#63b8ff" stroke="#63b8ff" points="231.14,-26.57 226.48,-17.05 224.19,-27.4 231.14,-26.57"/>
</g>
<!-- Node52 -->
<g id="node52" class="node">
<title>Node52</title>
<g id="a_node52"><a xlink:title=" ">
<polygon fill="#e0e0e0" stroke="#999999" points="51,-238 0,-238 0,-221 51,-221 51,-238"/>
<text text-anchor="middle" x="25.5" y="-227.6" font-family="SourceSans" font-size="8.00">cinttypes</text>
</a>
</g>
</g>
<!-- Node51&#45;&gt;Node52 -->
<g id="edge54" class="edge">
<title>Node51&#45;&gt;Node52</title>
<path fill="none" stroke="#63b8ff" d="M186.61,-273.97C153.2,-264.96 97.18,-249.84 60.78,-240.02"/>
<polygon fill="#63b8ff" stroke="#63b8ff" points="61.64,-236.63 51.08,-237.4 59.82,-243.39 61.64,-236.63"/>
</g>
<!-- Node53 -->
<g id="node53" class="node">
<title>Node53</title>
<g id="a_node53"><a xlink:title=" ">
<polygon fill="#e0e0e0" stroke="#999999" points="107.5,-238 69.5,-238 69.5,-221 107.5,-221 107.5,-238"/>
<text text-anchor="middle" x="88.5" y="-227.6" font-family="SourceSans" font-size="8.00">ctime</text>
</a>
</g>
</g>
<!-- Node51&#45;&gt;Node53 -->
<g id="edge55" class="edge">
<title>Node51&#45;&gt;Node53</title>
<path fill="none" stroke="#63b8ff" d="M195.91,-273.97C174.97,-265.5 140.72,-251.64 116.53,-241.85"/>
<polygon fill="#63b8ff" stroke="#63b8ff" points="117.75,-238.56 107.17,-238.06 115.12,-245.05 117.75,-238.56"/>
</g>
<!-- Node54 -->
<g id="node54" class="node">
<title>Node54</title>
<g id="a_node54"><a xlink:title=" ">
<polygon fill="#e0e0e0" stroke="#999999" points="167.5,-238 125.5,-238 125.5,-221 167.5,-221 167.5,-238"/>
<text text-anchor="middle" x="146.5" y="-227.6" font-family="SourceSans" font-size="8.00">thread</text>
</a>
</g>
</g>
<!-- Node51&#45;&gt;Node54 -->
<g id="edge58" class="edge">
<title>Node51&#45;&gt;Node54</title>
<path fill="none" stroke="#63b8ff" d="M204.47,-273.97C194.02,-266.14 177.43,-253.7 164.67,-244.13"/>
<polygon fill="#63b8ff" stroke="#63b8ff" points="166.67,-241.26 156.57,-238.06 162.47,-246.86 166.67,-241.26"/>
</g>
<!-- Node56 -->
<g id="node56" class="node">
<title>Node56</title>
<g id="a_node56"><a xlink:href="a60-collection-base_8h.html" target="_top" xlink:title=" ">
<polygon fill="white" stroke="#666666" points="2671.5,-291 2575.5,-291 2575.5,-274 2671.5,-274 2671.5,-291"/>
<text text-anchor="middle" x="2623.5" y="-280.6" font-family="SourceSans" font-size="8.00">a60&#45;collection&#45;base.h</text>
</a>
</g>
</g>
<!-- Node55&#45;&gt;Node56 -->
<g id="edge62" class="edge">
<title>Node55&#45;&gt;Node56</title>
<path fill="none" stroke="#63b8ff" d="M2356.68,-326.97C2412.71,-317.85 2507.1,-302.47 2567.29,-292.66"/>
<polygon fill="#63b8ff" stroke="#63b8ff" points="2568.07,-296.08 2577.38,-291.01 2566.95,-289.17 2568.07,-296.08"/>
</g>
<!-- Node56&#45;&gt;Node15 -->
<g id="edge64" class="edge">
<title>Node56&#45;&gt;Node15</title>
<path fill="none" stroke="#63b8ff" d="M2625.13,-273.99C2629.34,-252.31 2638.05,-189.28 2604.5,-159 2532.89,-94.38 990.96,-66.77 757.9,-62.96"/>
<polygon fill="#63b8ff" stroke="#63b8ff" points="757.86,-59.46 747.8,-62.8 757.74,-66.46 757.86,-59.46"/>
</g>
<!-- Node57 -->
<g id="node57" class="node">
<title>Node57</title>
<g id="a_node57"><a xlink:title=" ">
<polygon fill="#e0e0e0" stroke="#999999" points="2685.5,-238 2651.5,-238 2651.5,-221 2685.5,-221 2685.5,-238"/>
<text text-anchor="middle" x="2668.5" y="-227.6" font-family="SourceSans" font-size="8.00">map</text>
</a>
</g>
</g>
<!-- Node56&#45;&gt;Node57 -->
<g id="edge63" class="edge">
<title>Node56&#45;&gt;Node57</title>
<path fill="none" stroke="#63b8ff" d="M2630.14,-273.97C2636.65,-266.59 2646.78,-255.12 2654.99,-245.81"/>
<polygon fill="#63b8ff" stroke="#63b8ff" points="2657.84,-247.87 2661.83,-238.06 2652.59,-243.24 2657.84,-247.87"/>
</g>
</g>
</svg>
        <g id="navigator" transform="translate(0 0)" fill="#404254">
                <rect fill="#f2f5e9" fill-opacity="0.5" stroke="#606060" stroke-width=".5" x="0" y="0" width="60" height="60"/>
                <use id="zoomplus" xlink:href="#zoomPlus" x="17" y="9" onmousedown="handleZoom(evt,'in')"/>
                <use id="zoomminus" xlink:href="#zoomMin" x="42" y="9" onmousedown="handleZoom(evt,'out')"/>
                <use id="reset" xlink:href="#resetDef" x="30" y="36" onmousedown="handleReset()"/>
                <g id="arrowUp" xlink:href="#dirArrow" transform="translate(30 24)" onmousedown="handlePan(0,-1)">
                  <use xlink:href="#rim" fill="#404040">
                        <set attributeName="fill" to="#808080" begin="arrowUp.mouseover" end="arrowUp.mouseout"/>
                  </use>
                  <path fill="none" stroke="white" stroke-width="1.5" d="M0,-3.0v7 M-2.5,-0.5L0,-3.0L2.5,-0.5"/>
                </g>
                <g id="arrowRight" xlink:href="#dirArrow" transform="rotate(90) translate(36 -43)" onmousedown="handlePan(1,0)">
                  <use xlink:href="#rim" fill="#404040">
                        <set attributeName="fill" to="#808080" begin="arrowRight.mouseover" end="arrowRight.mouseout"/>
                  </use>
                  <path fill="none" stroke="white" stroke-width="1.5" d="M0,-3.0v7 M-2.5,-0.5L0,-3.0L2.5,-0.5"/>
                </g>
                <g id="arrowDown" xlink:href="#dirArrow" transform="rotate(180) translate(-30 -48)" onmousedown="handlePan(0,1)">
                  <use xlink:href="#rim" fill="#404040">
                        <set attributeName="fill" to="#808080" begin="arrowDown.mouseover" end="arrowDown.mouseout"/>
                  </use>
                  <path fill="none" stroke="white" stroke-width="1.5" d="M0,-3.0v7 M-2.5,-0.5L0,-3.0L2.5,-0.5"/>
                </g>
                <g id="arrowLeft" xlink:href="#dirArrow" transform="rotate(270) translate(-36 17)" onmousedown="handlePan(-1,0)">
                  <use xlink:href="#rim" fill="#404040">
                        <set attributeName="fill" to="#808080" begin="arrowLeft.mouseover" end="arrowLeft.mouseout"/>
                  </use>
                  <path fill="none" stroke="white" stroke-width="1.5" d="M0,-3.0v7 M-2.5,-0.5L0,-3.0L2.5,-0.5"/>
                </g>
        </g>
        <svg viewBox="0 0 15 15" width="100%" height="30px" preserveAspectRatio="xMaxYMin meet">
         <g id="arrow_out" transform="scale(0.3 0.3)">
          <a xlink:href="a60-sample-dump-multi_8cc__incl_org.svg" target="_base">
           <rect id="button" ry="5" rx="5" y="6" x="6" height="38" width="38"
                fill="#f2f5e9" fill-opacity="0.5" stroke="#606060" stroke-width="1.0"/>
           <path id="arrow"
             d="M 11.500037,31.436501 C 11.940474,20.09759 22.043105,11.32322 32.158766,21.979434 L 37.068811,17.246167 C 37.068811,17.246167 37.088388,32 37.088388,32 L 22.160133,31.978069 C 22.160133,31.978069 26.997745,27.140456 26.997745,27.140456 C 18.528582,18.264221 13.291696,25.230495 11.500037,31.436501 z"
             style="fill:#404040;"/>
          </a>
         </g>
        </svg>
</svg>
