<?xml version="1.0" encoding="UTF-8" standalone="no"?>
<!DOCTYPE svg PUBLIC "-//W3C//DTD SVG 1.1//EN"
 "http://www.w3.org/Graphics/SVG/1.1/DTD/svg11.dtd">
<!-- Generated by graphviz version 5.0.0 (0)
 -->
<!-- Title: /home/bkoz/src/alpha60&#45;docs/src/a60&#45;thread&#45;pool.ganler.h Pages: 1 -->
<svg width="917pt" height="87pt"
 viewBox="0.00 0.00 916.50 87.00" xmlns="http://www.w3.org/2000/svg" xmlns:xlink="http://www.w3.org/1999/xlink">
<g id="graph0" class="graph" transform="scale(1 1) rotate(0) translate(4 83)">
<title>/home/bkoz/src/alpha60&#45;docs/src/a60&#45;thread&#45;pool.ganler.h</title>
<!-- Node1 -->
<g id="node1" class="node">
<title>Node1</title>
<g id="a_node1"><a xlink:title=" ">
<polygon fill="#999999" stroke="#666666" points="564,-79 418,-79 418,-53 564,-53 564,-79"/>
<text text-anchor="start" x="426" y="-68.6" font-family="SourceSans" font-size="8.00">/home/bkoz/src/alpha60</text>
<text text-anchor="middle" x="491" y="-59.6" font-family="SourceSans" font-size="8.00">&#45;docs/src/a60&#45;thread&#45;pool.ganler.h</text>
</a>
</g>
</g>
<!-- Node2 -->
<g id="node2" class="node">
<title>Node2</title>
<g id="a_node2"><a xlink:title=" ">
<polygon fill="#e0e0e0" stroke="#999999" points="56,-17 0,-17 0,0 56,0 56,-17"/>
<text text-anchor="middle" x="28" y="-6.6" font-family="SourceSans" font-size="8.00">type_traits</text>
</a>
</g>
</g>
<!-- Node1&#45;&gt;Node2 -->
<g id="edge1" class="edge">
<title>Node1&#45;&gt;Node2</title>
<path fill="none" stroke="#63b8ff" d="M418,-58.74C335.11,-51.19 195.64,-37.15 66.32,-17.07"/>
<polygon fill="#63b8ff" stroke="#63b8ff" points="66.66,-13.58 56.24,-15.49 65.57,-20.5 66.66,-13.58"/>
</g>
<!-- Node3 -->
<g id="node3" class="node">
<title>Node3</title>
<g id="a_node3"><a xlink:title=" ">
<polygon fill="#e0e0e0" stroke="#999999" points="130,-17 74,-17 74,0 130,0 130,-17"/>
<text text-anchor="middle" x="102" y="-6.6" font-family="SourceSans" font-size="8.00">functional</text>
</a>
</g>
</g>
<!-- Node1&#45;&gt;Node3 -->
<g id="edge2" class="edge">
<title>Node1&#45;&gt;Node3</title>
<path fill="none" stroke="#63b8ff" d="M417.98,-56.44C348.94,-48.02 242.23,-34.2 140.4,-17.14"/>
<polygon fill="#63b8ff" stroke="#63b8ff" points="140.69,-13.64 130.25,-15.42 139.52,-20.54 140.69,-13.64"/>
</g>
<!-- Node4 -->
<g id="node4" class="node">
<title>Node4</title>
<g id="a_node4"><a xlink:title=" ">
<polygon fill="#e0e0e0" stroke="#999999" points="202,-17 148,-17 148,0 202,0 202,-17"/>
<text text-anchor="middle" x="175" y="-6.6" font-family="SourceSans" font-size="8.00">algorithm</text>
</a>
</g>
</g>
<!-- Node1&#45;&gt;Node4 -->
<g id="edge3" class="edge">
<title>Node1&#45;&gt;Node4</title>
<path fill="none" stroke="#63b8ff" d="M417.77,-53.18C363.63,-44.27 287.86,-31.45 212.28,-17.18"/>
<polygon fill="#63b8ff" stroke="#63b8ff" points="212.58,-13.68 202.11,-15.25 211.28,-20.56 212.58,-13.68"/>
</g>
<!-- Node5 -->
<g id="node5" class="node">
<title>Node5</title>
<g id="a_node5"><a xlink:title=" ">
<polygon fill="#e0e0e0" stroke="#999999" points="255.5,-17 220.5,-17 220.5,0 255.5,0 255.5,-17"/>
<text text-anchor="middle" x="238" y="-6.6" font-family="SourceSans" font-size="8.00">array</text>
</a>
</g>
</g>
<!-- Node1&#45;&gt;Node5 -->
<g id="edge4" class="edge">
<title>Node1&#45;&gt;Node5</title>
<path fill="none" stroke="#63b8ff" d="M429.38,-52.98C386.12,-44.3 326.73,-31.88 265.52,-16.99"/>
<polygon fill="#63b8ff" stroke="#63b8ff" points="266.22,-13.56 255.68,-14.58 264.56,-20.36 266.22,-13.56"/>
</g>
<!-- Node6 -->
<g id="node6" class="node">
<title>Node6</title>
<g id="a_node6"><a xlink:title=" ">
<polygon fill="#e0e0e0" stroke="#999999" points="316,-17 274,-17 274,0 316,0 316,-17"/>
<text text-anchor="middle" x="295" y="-6.6" font-family="SourceSans" font-size="8.00">atomic</text>
</a>
</g>
</g>
<!-- Node1&#45;&gt;Node6 -->
<g id="edge5" class="edge">
<title>Node1&#45;&gt;Node6</title>
<path fill="none" stroke="#63b8ff" d="M448.47,-52.96C411.59,-42.51 359.09,-27.65 326.04,-18.29"/>
<polygon fill="#63b8ff" stroke="#63b8ff" points="326.62,-14.82 316.04,-15.46 324.71,-21.55 326.62,-14.82"/>
</g>
<!-- Node7 -->
<g id="node7" class="node">
<title>Node7</title>
<g id="a_node7"><a xlink:title=" ">
<polygon fill="#e0e0e0" stroke="#999999" points="420,-17 334,-17 334,0 420,0 420,-17"/>
<text text-anchor="middle" x="377" y="-6.6" font-family="SourceSans" font-size="8.00">condition_variable</text>
</a>
</g>
</g>
<!-- Node1&#45;&gt;Node7 -->
<g id="edge6" class="edge">
<title>Node1&#45;&gt;Node7</title>
<path fill="none" stroke="#63b8ff" d="M466.26,-52.96C447.1,-43.63 420.69,-30.77 401.58,-21.46"/>
<polygon fill="#63b8ff" stroke="#63b8ff" points="403.1,-18.32 392.58,-17.09 400.04,-24.61 403.1,-18.32"/>
</g>
<!-- Node8 -->
<g id="node8" class="node">
<title>Node8</title>
<g id="a_node8"><a xlink:title=" ">
<polygon fill="#e0e0e0" stroke="#999999" points="483.5,-17 438.5,-17 438.5,0 483.5,0 483.5,-17"/>
<text text-anchor="middle" x="461" y="-6.6" font-family="SourceSans" font-size="8.00">cstddef</text>
</a>
</g>
</g>
<!-- Node1&#45;&gt;Node8 -->
<g id="edge7" class="edge">
<title>Node1&#45;&gt;Node8</title>
<path fill="none" stroke="#63b8ff" d="M484.49,-52.96C480.28,-45.17 474.74,-34.91 470.09,-26.32"/>
<polygon fill="#63b8ff" stroke="#63b8ff" points="473.02,-24.38 465.19,-17.25 466.86,-27.71 473.02,-24.38"/>
</g>
<!-- Node9 -->
<g id="node9" class="node">
<title>Node9</title>
<g id="a_node9"><a xlink:title=" ">
<polygon fill="#e0e0e0" stroke="#999999" points="542.5,-17 501.5,-17 501.5,0 542.5,0 542.5,-17"/>
<text text-anchor="middle" x="522" y="-6.6" font-family="SourceSans" font-size="8.00">future</text>
</a>
</g>
</g>
<!-- Node1&#45;&gt;Node9 -->
<g id="edge8" class="edge">
<title>Node1&#45;&gt;Node9</title>
<path fill="none" stroke="#63b8ff" d="M497.73,-52.96C502.13,-45.08 507.93,-34.69 512.76,-26.04"/>
<polygon fill="#63b8ff" stroke="#63b8ff" points="515.85,-27.69 517.67,-17.25 509.74,-24.27 515.85,-27.69"/>
</g>
<!-- Node10 -->
<g id="node10" class="node">
<title>Node10</title>
<g id="a_node10"><a xlink:title=" ">
<polygon fill="#e0e0e0" stroke="#999999" points="607.5,-17 560.5,-17 560.5,0 607.5,0 607.5,-17"/>
<text text-anchor="middle" x="584" y="-6.6" font-family="SourceSans" font-size="8.00">memory</text>
</a>
</g>
</g>
<!-- Node1&#45;&gt;Node10 -->
<g id="edge9" class="edge">
<title>Node1&#45;&gt;Node10</title>
<path fill="none" stroke="#63b8ff" d="M511.18,-52.96C526.31,-43.93 546.98,-31.59 562.44,-22.37"/>
<polygon fill="#63b8ff" stroke="#63b8ff" points="564.5,-25.22 571.29,-17.09 560.91,-19.2 564.5,-25.22"/>
</g>
<!-- Node11 -->
<g id="node11" class="node">
<title>Node11</title>
<g id="a_node11"><a xlink:title=" ">
<polygon fill="#e0e0e0" stroke="#999999" points="666.5,-17 625.5,-17 625.5,0 666.5,0 666.5,-17"/>
<text text-anchor="middle" x="646" y="-6.6" font-family="SourceSans" font-size="8.00">mutex</text>
</a>
</g>
</g>
<!-- Node1&#45;&gt;Node11 -->
<g id="edge10" class="edge">
<title>Node1&#45;&gt;Node11</title>
<path fill="none" stroke="#63b8ff" d="M524.63,-52.96C551.79,-43.23 589.67,-29.67 615.85,-20.3"/>
<polygon fill="#63b8ff" stroke="#63b8ff" points="617.03,-23.59 625.27,-16.92 614.67,-17 617.03,-23.59"/>
</g>
<!-- Node12 -->
<g id="node12" class="node">
<title>Node12</title>
<g id="a_node12"><a xlink:title=" ">
<polygon fill="#e0e0e0" stroke="#999999" points="725.5,-17 684.5,-17 684.5,0 725.5,0 725.5,-17"/>
<text text-anchor="middle" x="705" y="-6.6" font-family="SourceSans" font-size="8.00">queue</text>
</a>
</g>
</g>
<!-- Node1&#45;&gt;Node12 -->
<g id="edge11" class="edge">
<title>Node1&#45;&gt;Node12</title>
<path fill="none" stroke="#63b8ff" d="M537.43,-52.96C578.94,-42.19 638.58,-26.72 674.39,-17.44"/>
<polygon fill="#63b8ff" stroke="#63b8ff" points="675.45,-20.78 684.25,-14.88 673.69,-14 675.45,-20.78"/>
</g>
<!-- Node13 -->
<g id="node13" class="node">
<title>Node13</title>
<g id="a_node13"><a xlink:title=" ">
<polygon fill="#e0e0e0" stroke="#999999" points="786,-17 744,-17 744,0 786,0 786,-17"/>
<text text-anchor="middle" x="765" y="-6.6" font-family="SourceSans" font-size="8.00">thread</text>
</a>
</g>
</g>
<!-- Node1&#45;&gt;Node13 -->
<g id="edge12" class="edge">
<title>Node1&#45;&gt;Node13</title>
<path fill="none" stroke="#63b8ff" d="M556.95,-52.96C603.75,-44.21 668.28,-31.7 733.65,-17.21"/>
<polygon fill="#63b8ff" stroke="#63b8ff" points="734.73,-20.55 743.73,-14.96 733.2,-13.72 734.73,-20.55"/>
</g>
<!-- Node14 -->
<g id="node14" class="node">
<title>Node14</title>
<g id="a_node14"><a xlink:title=" ">
<polygon fill="#e0e0e0" stroke="#999999" points="843.5,-17 804.5,-17 804.5,0 843.5,0 843.5,-17"/>
<text text-anchor="middle" x="824" y="-6.6" font-family="SourceSans" font-size="8.00">vector</text>
</a>
</g>
</g>
<!-- Node1&#45;&gt;Node14 -->
<g id="edge13" class="edge">
<title>Node1&#45;&gt;Node14</title>
<path fill="none" stroke="#63b8ff" d="M564.15,-55.47C623.59,-47.26 709.79,-34.31 794.37,-16.93"/>
<polygon fill="#63b8ff" stroke="#63b8ff" points="795.33,-20.3 804.4,-14.84 793.9,-13.45 795.33,-20.3"/>
</g>
<!-- Node15 -->
<g id="node15" class="node">
<title>Node15</title>
<g id="a_node15"><a xlink:title=" ">
<polygon fill="#e0e0e0" stroke="#999999" points="908.5,-17 861.5,-17 861.5,0 908.5,0 908.5,-17"/>
<text text-anchor="middle" x="885" y="-6.6" font-family="SourceSans" font-size="8.00">util.hpp</text>
</a>
</g>
</g>
<!-- Node1&#45;&gt;Node15 -->
<g id="edge14" class="edge">
<title>Node1&#45;&gt;Node15</title>
<path fill="none" stroke="#63b8ff" d="M564.13,-57.44C635.2,-49.61 746.32,-36.08 851.16,-17.18"/>
<polygon fill="#63b8ff" stroke="#63b8ff" points="852.08,-20.57 861.29,-15.33 850.82,-13.68 852.08,-20.57"/>
</g>
</g>
</svg>
