<?xml version="1.0" encoding="UTF-8" standalone="no"?>
<!DOCTYPE svg PUBLIC "-//W3C//DTD SVG 1.1//EN"
 "http://www.w3.org/Graphics/SVG/1.1/DTD/svg11.dtd">
<!-- Generated by graphviz version 5.0.0 (0)
 -->
<!-- Title: /home/bkoz/src/alpha60&#45;docs/src/a60&#45;torrent.h Pages: 1 -->
<!--zoomable 308 -->
<svg id="main" version="1.1" xmlns="http://www.w3.org/2000/svg" xmlns:xlink="http://www.w3.org/1999/xlink" xml:space="preserve" onload="init(evt)">
<style type="text/css"><![CDATA[
.edge:hover path { stroke: red; }
.edge:hover polygon { stroke: red; fill: red; }
]]></style>
<script type="text/javascript"><![CDATA[
var edges = document.getElementsByTagName('g');
if (edges && edges.length) {
  for (var i=0;i<edges.length;i++) {
    if (edges[i].id.substr(0,4)=='edge') {
      edges[i].setAttribute('class','edge');
    }
  }
}
]]></script>
        <defs>
                <circle id="rim" cx="0" cy="0" r="7"/>
                <circle id="rim2" cx="0" cy="0" r="3.5"/>
                <g id="zoomPlus">
                        <use xlink:href="#rim" fill="#404040">
                                <set attributeName="fill" to="#808080" begin="zoomplus.mouseover" end="zoomplus.mouseout"/>
                        </use>
                        <path d="M-4,0h8M0,-4v8" fill="none" stroke="white" stroke-width="1.5" pointer-events="none"/>
                </g>
                <g id="zoomMin">
                        <use xlink:href="#rim" fill="#404040">
                                <set attributeName="fill" to="#808080" begin="zoomminus.mouseover" end="zoomminus.mouseout"/>
                        </use>
                        <path d="M-4,0h8" fill="none" stroke="white" stroke-width="1.5" pointer-events="none"/>
                </g>
                <g id="dirArrow">
                        <path fill="none" stroke="white" stroke-width="1.5" d="M0,-3.0v7 M-2.5,-0.5L0,-3.0L2.5,-0.5"/>
                </g>
               <g id="resetDef">
                       <use xlink:href="#rim2" fill="#404040">
                               <set attributeName="fill" to="#808080" begin="reset.mouseover" end="reset.mouseout"/>
                       </use>
               </g>
        </defs>

<script type="text/javascript">
var viewWidth = 2153;
var viewHeight = 308;
var sectionId = 'dynsection-0';
</script>
<script xlink:href="svgpan.js"/>
<svg id="graph" class="graph">
<g id="viewport">
<title>/home/bkoz/src/alpha60&#45;docs/src/a60&#45;torrent.h</title>
<!-- Node1 -->
<g id="node1" class="node">
<title>Node1</title>
<g id="a_node1"><a xlink:title=" ">
<polygon fill="#999999" stroke="#666666" points="545,-300 435,-300 435,-274 545,-274 545,-300"/>
<text text-anchor="start" x="443" y="-289.6" font-family="SourceSans" font-size="8.00">/home/bkoz/src/alpha60</text>
<text text-anchor="middle" x="490" y="-280.6" font-family="SourceSans" font-size="8.00">&#45;docs/src/a60&#45;torrent.h</text>
</a>
</g>
</g>
<!-- Node2 -->
<g id="node2" class="node">
<title>Node2</title>
<g id="a_node2"><a xlink:title=" ">
<polygon fill="#e0e0e0" stroke="#999999" points="367.5,-238 316.5,-238 316.5,-221 367.5,-221 367.5,-238"/>
<text text-anchor="middle" x="342" y="-227.6" font-family="SourceSans" font-size="8.00">cinttypes</text>
</a>
</g>
</g>
<!-- Node1&#45;&gt;Node2 -->
<g id="edge1" class="edge">
<title>Node1&#45;&gt;Node2</title>
<path fill="none" stroke="#63b8ff" d="M457.89,-273.96C432.33,-264.37 396.84,-251.07 371.89,-241.71"/>
<polygon fill="#63b8ff" stroke="#63b8ff" points="372.82,-238.32 362.23,-238.09 370.36,-244.87 372.82,-238.32"/>
</g>
<!-- Node3 -->
<g id="node3" class="node">
<title>Node3</title>
<g id="a_node3"><a xlink:title=" ">
<polygon fill="#e0e0e0" stroke="#999999" points="424,-238 386,-238 386,-221 424,-221 424,-238"/>
<text text-anchor="middle" x="405" y="-227.6" font-family="SourceSans" font-size="8.00">ctime</text>
</a>
</g>
</g>
<!-- Node1&#45;&gt;Node3 -->
<g id="edge2" class="edge">
<title>Node1&#45;&gt;Node3</title>
<path fill="none" stroke="#63b8ff" d="M471.56,-273.96C457.94,-265.07 439.41,-252.97 425.36,-243.79"/>
<polygon fill="#63b8ff" stroke="#63b8ff" points="427.15,-240.78 416.87,-238.25 423.33,-246.65 427.15,-240.78"/>
</g>
<!-- Node4 -->
<g id="node4" class="node">
<title>Node4</title>
<g id="a_node4"><a xlink:title=" ">
<polygon fill="#e0e0e0" stroke="#999999" points="574,-70 528,-70 528,-53 574,-53 574,-70"/>
<text text-anchor="middle" x="551" y="-59.6" font-family="SourceSans" font-size="8.00">fstream</text>
</a>
</g>
</g>
<!-- Node1&#45;&gt;Node4 -->
<g id="edge3" class="edge">
<title>Node1&#45;&gt;Node4</title>
<path fill="none" stroke="#63b8ff" d="M493.64,-273.79C496.51,-264.1 500.59,-250.21 504,-238 520.12,-180.37 538.16,-111.78 546.42,-80.12"/>
<polygon fill="#63b8ff" stroke="#63b8ff" points="549.87,-80.77 549,-70.21 543.09,-79.01 549.87,-80.77"/>
</g>
<!-- Node5 -->
<g id="node5" class="node">
<title>Node5</title>
<g id="a_node5"><a xlink:title=" ">
<polygon fill="#e0e0e0" stroke="#999999" points="48,-17 0,-17 0,0 48,0 48,-17"/>
<text text-anchor="middle" x="24" y="-6.6" font-family="SourceSans" font-size="8.00">iomanip</text>
</a>
</g>
</g>
<!-- Node1&#45;&gt;Node5 -->
<g id="edge4" class="edge">
<title>Node1&#45;&gt;Node5</title>
<path fill="none" stroke="#63b8ff" d="M483.03,-273.91C472.06,-253.71 452,-211.5 452,-173 452,-173 452,-173 452,-113.5 452,-108.45 159.82,-40.75 58.28,-17.37"/>
<polygon fill="#63b8ff" stroke="#63b8ff" points="58.77,-13.89 48.24,-15.06 57.2,-20.71 58.77,-13.89"/>
</g>
<!-- Node6 -->
<g id="node6" class="node">
<title>Node6</title>
<g id="a_node6"><a xlink:title=" ">
<polygon fill="#e0e0e0" stroke="#999999" points="1300,-238 1258,-238 1258,-221 1300,-221 1300,-238"/>
<text text-anchor="middle" x="1279" y="-227.6" font-family="SourceSans" font-size="8.00">thread</text>
</a>
</g>
</g>
<!-- Node1&#45;&gt;Node6 -->
<g id="edge5" class="edge">
<title>Node1&#45;&gt;Node6</title>
<path fill="none" stroke="#63b8ff" d="M545.14,-285.93C669.26,-285.05 980.02,-278.73 1247.88,-237.84"/>
<polygon fill="#63b8ff" stroke="#63b8ff" points="1248.44,-241.3 1257.79,-236.31 1247.37,-234.38 1248.44,-241.3"/>
</g>
<!-- Node7 -->
<g id="node7" class="node">
<title>Node7</title>
<g id="a_node7"><a xlink:title=" ">
<polygon fill="#e0e0e0" stroke="#999999" points="109.5,-17 66.5,-17 66.5,0 109.5,0 109.5,-17"/>
<text text-anchor="middle" x="88" y="-6.6" font-family="SourceSans" font-size="8.00">chrono</text>
</a>
</g>
</g>
<!-- Node1&#45;&gt;Node7 -->
<g id="edge6" class="edge">
<title>Node1&#45;&gt;Node7</title>
<path fill="none" stroke="#63b8ff" d="M490,-273.79C490,-253.07 490,-209.69 490,-173 490,-173 490,-173 490,-113.5 490,-84.57 489.06,-70.47 466,-53 406.5,-7.93 210.7,-28.46 119.65,-16.64"/>
<polygon fill="#63b8ff" stroke="#63b8ff" points="120.01,-13.15 109.6,-15.12 118.97,-20.07 120.01,-13.15"/>
</g>
<!-- Node8 -->
<g id="node8" class="node">
<title>Node8</title>
<g id="a_node8"><a xlink:href="a60-peer_8h.html" target="_top" xlink:title=" ">
<polygon fill="white" stroke="#666666" points="1240,-238 1184,-238 1184,-221 1240,-221 1240,-238"/>
<text text-anchor="middle" x="1212" y="-227.6" font-family="SourceSans" font-size="8.00">a60&#45;peer.h</text>
</a>
</g>
</g>
<!-- Node1&#45;&gt;Node8 -->
<g id="edge7" class="edge">
<title>Node1&#45;&gt;Node8</title>
<path fill="none" stroke="#63b8ff" d="M545.16,-281.76C685.47,-270.97 1053.37,-242.69 1173.47,-233.46"/>
<polygon fill="#63b8ff" stroke="#63b8ff" points="1173.95,-236.94 1183.66,-232.68 1173.42,-229.96 1173.95,-236.94"/>
</g>
<!-- Node9 -->
<g id="node9" class="node">
<title>Node9</title>
<g id="a_node9"><a xlink:href="a60-geo_8h.html" target="_top" xlink:title=" ">
<polygon fill="white" stroke="#666666" points="841,-180.5 787,-180.5 787,-163.5 841,-163.5 841,-180.5"/>
<text text-anchor="middle" x="814" y="-170.1" font-family="SourceSans" font-size="8.00">a60&#45;geo.h</text>
</a>
</g>
</g>
<!-- Node8&#45;&gt;Node9 -->
<g id="edge8" class="edge">
<title>Node8&#45;&gt;Node9</title>
<path fill="none" stroke="#63b8ff" d="M1183.6,-226.95C1122.26,-223.2 973.07,-211.88 851,-185 848.94,-184.55 846.83,-184.02 844.72,-183.46"/>
<polygon fill="#63b8ff" stroke="#63b8ff" points="845.52,-180.05 834.94,-180.57 843.54,-186.76 845.52,-180.05"/>
</g>
<!-- Node32 -->
<g id="node32" class="node">
<title>Node32</title>
<g id="a_node32"><a xlink:href="a60-network-functions_8h.html" target="_top" xlink:title=" ">
<polygon fill="white" stroke="#666666" points="968.5,-180.5 859.5,-180.5 859.5,-163.5 968.5,-163.5 968.5,-180.5"/>
<text text-anchor="middle" x="914" y="-170.1" font-family="SourceSans" font-size="8.00">a60&#45;network&#45;functions.h</text>
</a>
</g>
</g>
<!-- Node8&#45;&gt;Node32 -->
<g id="edge37" class="edge">
<title>Node8&#45;&gt;Node32</title>
<path fill="none" stroke="#63b8ff" d="M1183.9,-223.29C1139.97,-215.14 1052.33,-198.88 978,-185 973.57,-184.17 968.96,-183.31 964.35,-182.45"/>
<polygon fill="#63b8ff" stroke="#63b8ff" points="964.76,-178.96 954.28,-180.56 963.47,-185.84 964.76,-178.96"/>
</g>
<!-- Node33 -->
<g id="node33" class="node">
<title>Node33</title>
<g id="a_node33"><a xlink:title=" ">
<polygon fill="#e0e0e0" stroke="#999999" points="1079.5,-180.5 986.5,-180.5 986.5,-163.5 1079.5,-163.5 1079.5,-180.5"/>
<text text-anchor="middle" x="1033" y="-170.1" font-family="SourceSans" font-size="8.00">libtorrent/entry.hpp</text>
</a>
</g>
</g>
<!-- Node8&#45;&gt;Node33 -->
<g id="edge38" class="edge">
<title>Node8&#45;&gt;Node33</title>
<path fill="none" stroke="#63b8ff" d="M1187.49,-220.9C1156.29,-211.23 1102.23,-194.47 1067.05,-183.56"/>
<polygon fill="#63b8ff" stroke="#63b8ff" points="1067.81,-180.13 1057.22,-180.51 1065.73,-186.81 1067.81,-180.13"/>
</g>
<!-- Node34 -->
<g id="node34" class="node">
<title>Node34</title>
<g id="a_node34"><a xlink:title=" ">
<polygon fill="#e0e0e0" stroke="#999999" points="1204.5,-180.5 1097.5,-180.5 1097.5,-163.5 1204.5,-163.5 1204.5,-180.5"/>
<text text-anchor="middle" x="1151" y="-170.1" font-family="SourceSans" font-size="8.00">libtorrent/bencode.hpp</text>
</a>
</g>
</g>
<!-- Node8&#45;&gt;Node34 -->
<g id="edge39" class="edge">
<title>Node8&#45;&gt;Node34</title>
<path fill="none" stroke="#63b8ff" d="M1203.52,-220.78C1194.14,-212.25 1178.82,-198.31 1167.13,-187.68"/>
<polygon fill="#63b8ff" stroke="#63b8ff" points="1169.16,-184.79 1159.41,-180.65 1164.45,-189.97 1169.16,-184.79"/>
</g>
<!-- Node35 -->
<g id="node35" class="node">
<title>Node35</title>
<g id="a_node35"><a xlink:title=" ">
<polygon fill="#e0e0e0" stroke="#999999" points="1323,-180.5 1223,-180.5 1223,-163.5 1323,-163.5 1323,-180.5"/>
<text text-anchor="middle" x="1273" y="-170.1" font-family="SourceSans" font-size="8.00">libtorrent/torrent.hpp</text>
</a>
</g>
</g>
<!-- Node8&#45;&gt;Node35 -->
<g id="edge40" class="edge">
<title>Node8&#45;&gt;Node35</title>
<path fill="none" stroke="#63b8ff" d="M1220.48,-220.78C1229.86,-212.25 1245.18,-198.31 1256.87,-187.68"/>
<polygon fill="#63b8ff" stroke="#63b8ff" points="1259.55,-189.97 1264.59,-180.65 1254.84,-184.79 1259.55,-189.97"/>
</g>
<!-- Node36 -->
<g id="node36" class="node">
<title>Node36</title>
<g id="a_node36"><a xlink:title=" ">
<polygon fill="#e0e0e0" stroke="#999999" points="1423,-185 1341,-185 1341,-159 1423,-159 1423,-185"/>
<text text-anchor="start" x="1349" y="-174.6" font-family="SourceSans" font-size="8.00">libtorrent/torrent</text>
<text text-anchor="middle" x="1382" y="-165.6" font-family="SourceSans" font-size="8.00">_info.hpp</text>
</a>
</g>
</g>
<!-- Node8&#45;&gt;Node36 -->
<g id="edge41" class="edge">
<title>Node8&#45;&gt;Node36</title>
<path fill="none" stroke="#63b8ff" d="M1235.28,-220.9C1260.91,-212.53 1302.78,-198.86 1335.25,-188.26"/>
<polygon fill="#63b8ff" stroke="#63b8ff" points="1336.57,-191.51 1344.99,-185.08 1334.4,-184.86 1336.57,-191.51"/>
</g>
<!-- Node37 -->
<g id="node37" class="node">
<title>Node37</title>
<g id="a_node37"><a xlink:title=" ">
<polygon fill="#e0e0e0" stroke="#999999" points="1523,-185 1441,-185 1441,-159 1523,-159 1523,-185"/>
<text text-anchor="start" x="1449" y="-174.6" font-family="SourceSans" font-size="8.00">libtorrent/torrent</text>
<text text-anchor="middle" x="1482" y="-165.6" font-family="SourceSans" font-size="8.00">_status.hpp</text>
</a>
</g>
</g>
<!-- Node8&#45;&gt;Node37 -->
<g id="edge42" class="edge">
<title>Node8&#45;&gt;Node37</title>
<path fill="none" stroke="#63b8ff" d="M1240.28,-222.75C1243.22,-222.16 1246.17,-221.56 1249,-221 1327.11,-205.4 1349.3,-202.86 1430.61,-185.25"/>
<polygon fill="#63b8ff" stroke="#63b8ff" points="1431.8,-188.57 1440.83,-183.02 1430.31,-181.73 1431.8,-188.57"/>
</g>
<!-- Node38 -->
<g id="node38" class="node">
<title>Node38</title>
<g id="a_node38"><a xlink:title=" ">
<polygon fill="#e0e0e0" stroke="#999999" points="1651,-180.5 1541,-180.5 1541,-163.5 1651,-163.5 1651,-180.5"/>
<text text-anchor="middle" x="1596" y="-170.1" font-family="SourceSans" font-size="8.00">libtorrent/peer_info.hpp</text>
</a>
</g>
</g>
<!-- Node8&#45;&gt;Node38 -->
<g id="edge43" class="edge">
<title>Node8&#45;&gt;Node38</title>
<path fill="none" stroke="#63b8ff" d="M1240.24,-222.55C1243.19,-222 1246.15,-221.47 1249,-221 1374.11,-200.39 1406.75,-204.69 1532,-185 1537.1,-184.2 1542.43,-183.3 1547.72,-182.36"/>
<polygon fill="#63b8ff" stroke="#63b8ff" points="1548.6,-185.76 1557.82,-180.54 1547.36,-178.87 1548.6,-185.76"/>
</g>
<!-- Node39 -->
<g id="node39" class="node">
<title>Node39</title>
<g id="a_node39"><a xlink:title=" ">
<polygon fill="#e0e0e0" stroke="#999999" points="1763,-185 1669,-185 1669,-159 1763,-159 1763,-185"/>
<text text-anchor="start" x="1677" y="-174.6" font-family="SourceSans" font-size="8.00">libtorrent/announce</text>
<text text-anchor="middle" x="1716" y="-165.6" font-family="SourceSans" font-size="8.00">_entry.hpp</text>
</a>
</g>
</g>
<!-- Node8&#45;&gt;Node39 -->
<g id="edge44" class="edge">
<title>Node8&#45;&gt;Node39</title>
<path fill="none" stroke="#63b8ff" d="M1240.22,-222.44C1243.18,-221.91 1246.15,-221.41 1249,-221 1427.29,-195.21 1476.94,-211.66 1658.83,-185.03"/>
<polygon fill="#63b8ff" stroke="#63b8ff" points="1659.34,-188.49 1668.72,-183.56 1658.31,-181.57 1659.34,-188.49"/>
</g>
<!-- Node40 -->
<g id="node40" class="node">
<title>Node40</title>
<g id="a_node40"><a xlink:title=" ">
<polygon fill="#e0e0e0" stroke="#999999" points="1888.5,-180.5 1781.5,-180.5 1781.5,-163.5 1888.5,-163.5 1888.5,-180.5"/>
<text text-anchor="middle" x="1835" y="-170.1" font-family="SourceSans" font-size="8.00">libtorrent/bdecode.hpp</text>
</a>
</g>
</g>
<!-- Node8&#45;&gt;Node40 -->
<g id="edge45" class="edge">
<title>Node8&#45;&gt;Node40</title>
<path fill="none" stroke="#63b8ff" d="M1240.22,-222.38C1243.17,-221.86 1246.14,-221.39 1249,-221 1479.89,-189.79 1540.93,-214.85 1772,-185 1777.59,-184.28 1783.43,-183.37 1789.21,-182.38"/>
<polygon fill="#63b8ff" stroke="#63b8ff" points="1790.25,-185.75 1799.47,-180.54 1789.01,-178.86 1790.25,-185.75"/>
</g>
<!-- Node41 -->
<g id="node41" class="node">
<title>Node41</title>
<g id="a_node41"><a xlink:title=" ">
<polygon fill="#e0e0e0" stroke="#999999" points="2025,-180.5 1907,-180.5 1907,-163.5 2025,-163.5 2025,-180.5"/>
<text text-anchor="middle" x="1966" y="-170.1" font-family="SourceSans" font-size="8.00">libtorrent/magnet_uri.hpp</text>
</a>
</g>
</g>
<!-- Node8&#45;&gt;Node41 -->
<g id="edge46" class="edge">
<title>Node8&#45;&gt;Node41</title>
<path fill="none" stroke="#63b8ff" d="M1240.21,-222.34C1243.17,-221.83 1246.14,-221.37 1249,-221 1535.54,-184.21 1611.02,-218.16 1898,-185 1904.41,-184.26 1911.13,-183.3 1917.74,-182.25"/>
<polygon fill="#63b8ff" stroke="#63b8ff" points="1918.71,-185.63 1927.99,-180.53 1917.55,-178.73 1918.71,-185.63"/>
</g>
<!-- Node42 -->
<g id="node42" class="node">
<title>Node42</title>
<g id="a_node42"><a xlink:title=" ">
<polygon fill="#e0e0e0" stroke="#999999" points="2144.5,-180.5 2043.5,-180.5 2043.5,-163.5 2144.5,-163.5 2144.5,-180.5"/>
<text text-anchor="middle" x="2094" y="-170.1" font-family="SourceSans" font-size="8.00">libtorrent/session.hpp</text>
</a>
</g>
</g>
<!-- Node8&#45;&gt;Node42 -->
<g id="edge47" class="edge">
<title>Node8&#45;&gt;Node42</title>
<path fill="none" stroke="#63b8ff" d="M1240.21,-222.32C1243.17,-221.81 1246.14,-221.35 1249,-221 1595.62,-178.18 1687.32,-227.37 2034,-185 2039.54,-184.32 2045.32,-183.42 2051.03,-182.41"/>
<polygon fill="#63b8ff" stroke="#63b8ff" points="2051.96,-185.8 2061.14,-180.51 2050.66,-178.92 2051.96,-185.8"/>
</g>
<!-- Node43 -->
<g id="node43" class="node">
<title>Node43</title>
<g id="a_node43"><a xlink:title=" ">
<polygon fill="#e0e0e0" stroke="#999999" points="653.5,-185 556.5,-185 556.5,-159 653.5,-159 653.5,-185"/>
<text text-anchor="start" x="564.5" y="-174.6" font-family="SourceSans" font-size="8.00">libtorrent/extensions</text>
<text text-anchor="middle" x="605" y="-165.6" font-family="SourceSans" font-size="8.00">/ut_metadata.hpp</text>
</a>
</g>
</g>
<!-- Node8&#45;&gt;Node43 -->
<g id="edge48" class="edge">
<title>Node8&#45;&gt;Node43</title>
<path fill="none" stroke="#63b8ff" d="M1183.87,-227.51C1104.02,-224.45 869.04,-213.61 663.72,-184.95"/>
<polygon fill="#63b8ff" stroke="#63b8ff" points="664.05,-181.46 653.66,-183.53 663.07,-188.39 664.05,-181.46"/>
</g>
<!-- Node44 -->
<g id="node44" class="node">
<title>Node44</title>
<g id="a_node44"><a xlink:title=" ">
<polygon fill="#e0e0e0" stroke="#999999" points="768.5,-185 671.5,-185 671.5,-159 768.5,-159 768.5,-185"/>
<text text-anchor="start" x="679.5" y="-174.6" font-family="SourceSans" font-size="8.00">libtorrent/extensions</text>
<text text-anchor="middle" x="720" y="-165.6" font-family="SourceSans" font-size="8.00">/ut_pex.hpp</text>
</a>
</g>
</g>
<!-- Node8&#45;&gt;Node44 -->
<g id="edge49" class="edge">
<title>Node8&#45;&gt;Node44</title>
<path fill="none" stroke="#63b8ff" d="M1183.95,-226.71C1116.14,-222.15 937.84,-208.89 778.64,-184.97"/>
<polygon fill="#63b8ff" stroke="#63b8ff" points="779.08,-181.5 768.67,-183.45 778.03,-188.42 779.08,-181.5"/>
</g>
<!-- Node10 -->
<g id="node10" class="node">
<title>Node10</title>
<g id="a_node10"><a xlink:title=" ">
<polygon fill="#e0e0e0" stroke="#999999" points="992.5,-17 951.5,-17 951.5,0 992.5,0 992.5,-17"/>
<text text-anchor="middle" x="972" y="-6.6" font-family="SourceSans" font-size="8.00">cmath</text>
</a>
</g>
</g>
<!-- Node9&#45;&gt;Node10 -->
<g id="edge9" class="edge">
<title>Node9&#45;&gt;Node10</title>
<path fill="none" stroke="#63b8ff" d="M826.34,-163.41C850.42,-148.13 904.33,-111.56 939,-70 950.02,-56.79 959.07,-39.34 964.88,-26.58"/>
<polygon fill="#63b8ff" stroke="#63b8ff" points="968.2,-27.72 968.98,-17.15 961.79,-24.93 968.2,-27.72"/>
</g>
<!-- Node11 -->
<g id="node11" class="node">
<title>Node11</title>
<g id="a_node11"><a xlink:title=" ">
<polygon fill="#e0e0e0" stroke="#999999" points="1039.5,-17 1010.5,-17 1010.5,0 1039.5,0 1039.5,-17"/>
<text text-anchor="middle" x="1025" y="-6.6" font-family="SourceSans" font-size="8.00">set</text>
</a>
</g>
</g>
<!-- Node9&#45;&gt;Node11 -->
<g id="edge10" class="edge">
<title>Node9&#45;&gt;Node11</title>
<path fill="none" stroke="#63b8ff" d="M832.37,-163.42C851.8,-154.98 882.92,-140.24 907,-123 949.2,-92.79 991.23,-47.94 1011.86,-24.7"/>
<polygon fill="#63b8ff" stroke="#63b8ff" points="1014.49,-27.01 1018.46,-17.18 1009.23,-22.39 1014.49,-27.01"/>
</g>
<!-- Node12 -->
<g id="node12" class="node">
<title>Node12</title>
<g id="a_node12"><a xlink:title=" ">
<polygon fill="#e0e0e0" stroke="#999999" points="1118,-123 1062,-123 1062,-106 1118,-106 1118,-123"/>
<text text-anchor="middle" x="1090" y="-112.6" font-family="SourceSans" font-size="8.00">functional</text>
</a>
</g>
</g>
<!-- Node9&#45;&gt;Node12 -->
<g id="edge11" class="edge">
<title>Node9&#45;&gt;Node12</title>
<path fill="none" stroke="#63b8ff" d="M835.77,-163.4C840.74,-161.82 846.02,-160.25 851,-159 855.86,-157.77 985.59,-134.33 1051.84,-122.38"/>
<polygon fill="#63b8ff" stroke="#63b8ff" points="1052.67,-125.78 1061.89,-120.57 1051.43,-118.9 1052.67,-125.78"/>
</g>
<!-- Node13 -->
<g id="node13" class="node">
<title>Node13</title>
<g id="a_node13"><a xlink:title=" ">
<polygon fill="#e0e0e0" stroke="#999999" points="1108,-17 1058,-17 1058,0 1108,0 1108,-17"/>
<text text-anchor="middle" x="1083" y="-6.6" font-family="SourceSans" font-size="8.00">iostream</text>
</a>
</g>
</g>
<!-- Node9&#45;&gt;Node13 -->
<g id="edge12" class="edge">
<title>Node9&#45;&gt;Node13</title>
<path fill="none" stroke="#63b8ff" d="M837.22,-163.43C861.42,-155.09 900.05,-140.53 931,-123 984.01,-92.98 1039.77,-47.08 1066.64,-23.93"/>
<polygon fill="#63b8ff" stroke="#63b8ff" points="1069.05,-26.46 1074.3,-17.26 1064.46,-21.18 1069.05,-26.46"/>
</g>
<!-- Node14 -->
<g id="node14" class="node">
<title>Node14</title>
<g id="a_node14"><a xlink:href="a60-io_8h.html" target="_top" xlink:title=" ">
<polygon fill="white" stroke="#666666" points="832.5,-123 785.5,-123 785.5,-106 832.5,-106 832.5,-123"/>
<text text-anchor="middle" x="809" y="-112.6" font-family="SourceSans" font-size="8.00">a60&#45;io.h</text>
</a>
</g>
</g>
<!-- Node9&#45;&gt;Node14 -->
<g id="edge13" class="edge">
<title>Node9&#45;&gt;Node14</title>
<path fill="none" stroke="#63b8ff" d="M813.3,-163.28C812.61,-155.58 811.52,-143.46 810.61,-133.36"/>
<polygon fill="#63b8ff" stroke="#63b8ff" points="814.07,-132.8 809.69,-123.15 807.1,-133.43 814.07,-132.8"/>
</g>
<!-- Node30 -->
<g id="node30" class="node">
<title>Node30</title>
<g id="a_node30"><a xlink:title=" ">
<polygon fill="#e0e0e0" stroke="#999999" points="688,-123 642,-123 642,-106 688,-106 688,-123"/>
<text text-anchor="middle" x="665" y="-112.6" font-family="SourceSans" font-size="8.00">GeoIP.h</text>
</a>
</g>
</g>
<!-- Node9&#45;&gt;Node30 -->
<g id="edge35" class="edge">
<title>Node9&#45;&gt;Node30</title>
<path fill="none" stroke="#63b8ff" d="M793.59,-163.4C768.07,-153.89 724.17,-137.54 694.86,-126.62"/>
<polygon fill="#63b8ff" stroke="#63b8ff" points="695.75,-123.22 685.16,-123.01 693.31,-129.78 695.75,-123.22"/>
</g>
<!-- Node31 -->
<g id="node31" class="node">
<title>Node31</title>
<g id="a_node31"><a xlink:title=" ">
<polygon fill="#e0e0e0" stroke="#999999" points="767.5,-123 706.5,-123 706.5,-106 767.5,-106 767.5,-123"/>
<text text-anchor="middle" x="737" y="-112.6" font-family="SourceSans" font-size="8.00">GeoIPCity.h</text>
</a>
</g>
</g>
<!-- Node9&#45;&gt;Node31 -->
<g id="edge36" class="edge">
<title>Node9&#45;&gt;Node31</title>
<path fill="none" stroke="#63b8ff" d="M803.29,-163.28C791.11,-154.5 770.98,-139.99 756.09,-129.26"/>
<polygon fill="#63b8ff" stroke="#63b8ff" points="757.77,-126.16 747.62,-123.15 753.68,-131.84 757.77,-126.16"/>
</g>
<!-- Node14&#45;&gt;Node4 -->
<g id="edge14" class="edge">
<title>Node14&#45;&gt;Node4</title>
<path fill="none" stroke="#63b8ff" d="M785.26,-107.82C782.48,-107.19 779.68,-106.57 777,-106 708.63,-91.41 628.14,-76.45 584.04,-68.43"/>
<polygon fill="#63b8ff" stroke="#63b8ff" points="584.62,-64.98 574.16,-66.64 583.38,-71.87 584.62,-64.98"/>
</g>
<!-- Node15 -->
<g id="node15" class="node">
<title>Node15</title>
<g id="a_node15"><a xlink:title=" ">
<polygon fill="#e0e0e0" stroke="#999999" points="858,-70 750,-70 750,-53 858,-53 858,-70"/>
<text text-anchor="middle" x="804" y="-59.6" font-family="SourceSans" font-size="8.00">experimental/filesystem</text>
</a>
</g>
</g>
<!-- Node14&#45;&gt;Node15 -->
<g id="edge15" class="edge">
<title>Node14&#45;&gt;Node15</title>
<path fill="none" stroke="#63b8ff" d="M808.26,-105.97C807.6,-99.19 806.59,-88.97 805.73,-80.13"/>
<polygon fill="#63b8ff" stroke="#63b8ff" points="809.2,-79.67 804.74,-70.06 802.23,-80.35 809.2,-79.67"/>
</g>
<!-- Node16 -->
<g id="node16" class="node">
<title>Node16</title>
<g id="a_node16"><a xlink:title=" ">
<polygon fill="#e0e0e0" stroke="#999999" points="929.5,-70 876.5,-70 876.5,-53 929.5,-53 929.5,-70"/>
<text text-anchor="middle" x="903" y="-59.6" font-family="SourceSans" font-size="8.00">stdexcept</text>
</a>
</g>
</g>
<!-- Node14&#45;&gt;Node16 -->
<g id="edge16" class="edge">
<title>Node14&#45;&gt;Node16</title>
<path fill="none" stroke="#63b8ff" d="M822.87,-105.97C837.87,-97.84 862.02,-84.74 879.89,-75.04"/>
<polygon fill="#63b8ff" stroke="#63b8ff" points="881.95,-77.9 889.07,-70.06 878.61,-71.75 881.95,-77.9"/>
</g>
<!-- Node17 -->
<g id="node17" class="node">
<title>Node17</title>
<g id="a_node17"><a xlink:title=" ">
<polygon fill="#e0e0e0" stroke="#999999" points="732,-70 694,-70 694,-53 732,-53 732,-70"/>
<text text-anchor="middle" x="713" y="-59.6" font-family="SourceSans" font-size="8.00">regex</text>
</a>
</g>
</g>
<!-- Node14&#45;&gt;Node17 -->
<g id="edge17" class="edge">
<title>Node14&#45;&gt;Node17</title>
<path fill="none" stroke="#63b8ff" d="M794.83,-105.97C779.38,-97.76 754.4,-84.49 736.1,-74.77"/>
<polygon fill="#63b8ff" stroke="#63b8ff" points="737.7,-71.66 727.22,-70.06 734.41,-77.84 737.7,-71.66"/>
</g>
<!-- Node18 -->
<g id="node18" class="node">
<title>Node18</title>
<g id="a_node18"><a xlink:href="a60_8h.html" target="_top" xlink:title=" ">
<polygon fill="white" stroke="#666666" points="663,-70 625,-70 625,-53 663,-53 663,-70"/>
<text text-anchor="middle" x="644" y="-59.6" font-family="SourceSans" font-size="8.00">a60.h</text>
</a>
</g>
</g>
<!-- Node14&#45;&gt;Node18 -->
<g id="edge18" class="edge">
<title>Node14&#45;&gt;Node18</title>
<path fill="none" stroke="#63b8ff" d="M785.36,-106.19C755.77,-97.05 705.1,-81.39 673.14,-71.51"/>
<polygon fill="#63b8ff" stroke="#63b8ff" points="674.06,-68.13 663.47,-68.52 671.99,-74.82 674.06,-68.13"/>
</g>
<!-- Node18&#45;&gt;Node5 -->
<g id="edge33" class="edge">
<title>Node18&#45;&gt;Node5</title>
<path fill="none" stroke="#63b8ff" d="M624.8,-57.87C612.8,-56.29 597.02,-54.34 583,-53 353.04,-31.01 290.59,-50.5 58.19,-16.9"/>
<polygon fill="#63b8ff" stroke="#63b8ff" points="58.47,-13.41 48.07,-15.42 57.46,-20.33 58.47,-13.41"/>
</g>
<!-- Node18&#45;&gt;Node7 -->
<g id="edge26" class="edge">
<title>Node18&#45;&gt;Node7</title>
<path fill="none" stroke="#63b8ff" d="M624.79,-57.91C612.79,-56.35 597.01,-54.4 583,-53 380.4,-32.7 325.01,-48.9 119.49,-16.76"/>
<polygon fill="#63b8ff" stroke="#63b8ff" points="120.02,-13.3 109.59,-15.19 118.92,-20.21 120.02,-13.3"/>
</g>
<!-- Node18&#45;&gt;Node10 -->
<g id="edge19" class="edge">
<title>Node18&#45;&gt;Node10</title>
<path fill="none" stroke="#63b8ff" d="M663.16,-56.82C670.04,-55.55 677.86,-54.15 685,-53 795.75,-35.12 827.08,-38.79 941.55,-16.86"/>
<polygon fill="#63b8ff" stroke="#63b8ff" points="942.26,-20.29 951.41,-14.95 940.92,-13.42 942.26,-20.29"/>
</g>
<!-- Node18&#45;&gt;Node11 -->
<g id="edge23" class="edge">
<title>Node18&#45;&gt;Node11</title>
<path fill="none" stroke="#63b8ff" d="M663.15,-56.72C670.02,-55.44 677.84,-54.06 685,-53 821.98,-32.72 861.6,-46.45 999.9,-17.06"/>
<polygon fill="#63b8ff" stroke="#63b8ff" points="1000.99,-20.4 1010.03,-14.86 999.51,-13.56 1000.99,-20.4"/>
</g>
<!-- Node18&#45;&gt;Node13 -->
<g id="edge34" class="edge">
<title>Node18&#45;&gt;Node13</title>
<path fill="none" stroke="#63b8ff" d="M663.14,-56.66C670.01,-55.37 677.83,-54.01 685,-53 842.68,-30.82 886.66,-42.07 1047.55,-17.03"/>
<polygon fill="#63b8ff" stroke="#63b8ff" points="1048.48,-20.42 1057.81,-15.4 1047.39,-13.51 1048.48,-20.42"/>
</g>
<!-- Node19 -->
<g id="node19" class="node">
<title>Node19</title>
<g id="a_node19"><a xlink:title=" ">
<polygon fill="#e0e0e0" stroke="#999999" points="722.5,-17 685.5,-17 685.5,0 722.5,0 722.5,-17"/>
<text text-anchor="middle" x="704" y="-6.6" font-family="SourceSans" font-size="8.00">tuple</text>
</a>
</g>
</g>
<!-- Node18&#45;&gt;Node19 -->
<g id="edge20" class="edge">
<title>Node18&#45;&gt;Node19</title>
<path fill="none" stroke="#63b8ff" d="M652.85,-52.97C661.89,-45.29 676.14,-33.18 687.31,-23.69"/>
<polygon fill="#63b8ff" stroke="#63b8ff" points="689.76,-26.2 695.11,-17.06 685.22,-20.87 689.76,-26.2"/>
</g>
<!-- Node20 -->
<g id="node20" class="node">
<title>Node20</title>
<g id="a_node20"><a xlink:title=" ">
<polygon fill="#e0e0e0" stroke="#999999" points="779.5,-17 740.5,-17 740.5,0 779.5,0 779.5,-17"/>
<text text-anchor="middle" x="760" y="-6.6" font-family="SourceSans" font-size="8.00">string</text>
</a>
</g>
</g>
<!-- Node18&#45;&gt;Node20 -->
<g id="edge21" class="edge">
<title>Node18&#45;&gt;Node20</title>
<path fill="none" stroke="#63b8ff" d="M661.12,-52.97C680.22,-44.58 711.37,-30.88 733.6,-21.11"/>
<polygon fill="#63b8ff" stroke="#63b8ff" points="735.07,-24.28 742.81,-17.06 732.25,-17.88 735.07,-24.28"/>
</g>
<!-- Node21 -->
<g id="node21" class="node">
<title>Node21</title>
<g id="a_node21"><a xlink:title=" ">
<polygon fill="#e0e0e0" stroke="#999999" points="836.5,-17 797.5,-17 797.5,0 836.5,0 836.5,-17"/>
<text text-anchor="middle" x="817" y="-6.6" font-family="SourceSans" font-size="8.00">vector</text>
</a>
</g>
</g>
<!-- Node18&#45;&gt;Node21 -->
<g id="edge22" class="edge">
<title>Node18&#45;&gt;Node21</title>
<path fill="none" stroke="#63b8ff" d="M663.18,-54.85C693.36,-45.95 752.18,-28.61 787.69,-18.14"/>
<polygon fill="#63b8ff" stroke="#63b8ff" points="788.87,-21.44 797.47,-15.26 786.89,-14.73 788.87,-21.44"/>
</g>
<!-- Node22 -->
<g id="node22" class="node">
<title>Node22</title>
<g id="a_node22"><a xlink:title=" ">
<polygon fill="#e0e0e0" stroke="#999999" points="933,-17 855,-17 855,0 933,0 933,-17"/>
<text text-anchor="middle" x="894" y="-6.6" font-family="SourceSans" font-size="8.00">unordered_map</text>
</a>
</g>
</g>
<!-- Node18&#45;&gt;Node22 -->
<g id="edge24" class="edge">
<title>Node18&#45;&gt;Node22</title>
<path fill="none" stroke="#63b8ff" d="M663.2,-56.58C702.17,-48.63 791.51,-30.41 846.91,-19.11"/>
<polygon fill="#63b8ff" stroke="#63b8ff" points="847.74,-22.51 856.84,-17.08 846.34,-15.65 847.74,-22.51"/>
</g>
<!-- Node23 -->
<g id="node23" class="node">
<title>Node23</title>
<g id="a_node23"><a xlink:title=" ">
<polygon fill="#e0e0e0" stroke="#999999" points="200,-17 128,-17 128,0 200,0 200,-17"/>
<text text-anchor="middle" x="164" y="-6.6" font-family="SourceSans" font-size="8.00">unordered_set</text>
</a>
</g>
</g>
<!-- Node18&#45;&gt;Node23 -->
<g id="edge25" class="edge">
<title>Node18&#45;&gt;Node23</title>
<path fill="none" stroke="#63b8ff" d="M624.78,-58.01C612.78,-56.48 597,-54.53 583,-53 420.25,-35.16 376.27,-38.59 210.38,-17.09"/>
<polygon fill="#63b8ff" stroke="#63b8ff" points="210.69,-13.6 200.32,-15.77 209.78,-20.54 210.69,-13.6"/>
</g>
<!-- Node24 -->
<g id="node24" class="node">
<title>Node24</title>
<g id="a_node24"><a xlink:title=" ">
<polygon fill="#e0e0e0" stroke="#999999" points="266,-17 218,-17 218,0 266,0 266,-17"/>
<text text-anchor="middle" x="242" y="-6.6" font-family="SourceSans" font-size="8.00">numeric</text>
</a>
</g>
</g>
<!-- Node18&#45;&gt;Node24 -->
<g id="edge27" class="edge">
<title>Node18&#45;&gt;Node24</title>
<path fill="none" stroke="#63b8ff" d="M624.77,-58.11C612.77,-56.62 596.98,-54.68 583,-53 449.37,-36.98 412.55,-40.14 276.09,-17"/>
<polygon fill="#63b8ff" stroke="#63b8ff" points="276.54,-13.53 266.09,-15.29 275.36,-20.43 276.54,-13.53"/>
</g>
<!-- Node25 -->
<g id="node25" class="node">
<title>Node25</title>
<g id="a_node25"><a xlink:title=" ">
<polygon fill="#e0e0e0" stroke="#999999" points="338,-17 284,-17 284,0 338,0 338,-17"/>
<text text-anchor="middle" x="311" y="-6.6" font-family="SourceSans" font-size="8.00">algorithm</text>
</a>
</g>
</g>
<!-- Node18&#45;&gt;Node25 -->
<g id="edge28" class="edge">
<title>Node18&#45;&gt;Node25</title>
<path fill="none" stroke="#63b8ff" d="M624.83,-58.1C578.89,-52.25 458.74,-36.47 348.08,-17.09"/>
<polygon fill="#63b8ff" stroke="#63b8ff" points="348.55,-13.62 338.09,-15.33 347.33,-20.51 348.55,-13.62"/>
</g>
<!-- Node26 -->
<g id="node26" class="node">
<title>Node26</title>
<g id="a_node26"><a xlink:title=" ">
<polygon fill="#e0e0e0" stroke="#999999" points="394,-17 356,-17 356,0 394,0 394,-17"/>
<text text-anchor="middle" x="375" y="-6.6" font-family="SourceSans" font-size="8.00">locale</text>
</a>
</g>
</g>
<!-- Node18&#45;&gt;Node26 -->
<g id="edge29" class="edge">
<title>Node18&#45;&gt;Node26</title>
<path fill="none" stroke="#63b8ff" d="M624.83,-57.6C585.37,-51.5 492.02,-36.48 404.09,-17.08"/>
<polygon fill="#63b8ff" stroke="#63b8ff" points="404.75,-13.64 394.23,-14.88 403.23,-20.47 404.75,-13.64"/>
</g>
<!-- Node27 -->
<g id="node27" class="node">
<title>Node27</title>
<g id="a_node27"><a xlink:title=" ">
<polygon fill="#e0e0e0" stroke="#999999" points="457.5,-17 412.5,-17 412.5,0 457.5,0 457.5,-17"/>
<text text-anchor="middle" x="435" y="-6.6" font-family="SourceSans" font-size="8.00">codecvt</text>
</a>
</g>
</g>
<!-- Node18&#45;&gt;Node27 -->
<g id="edge30" class="edge">
<title>Node18&#45;&gt;Node27</title>
<path fill="none" stroke="#63b8ff" d="M624.71,-55.79C588.88,-47.05 511.69,-28.21 467.61,-17.46"/>
<polygon fill="#63b8ff" stroke="#63b8ff" points="468.23,-14.01 457.69,-15.04 466.57,-20.81 468.23,-14.01"/>
</g>
<!-- Node28 -->
<g id="node28" class="node">
<title>Node28</title>
<g id="a_node28"><a xlink:title=" ">
<polygon fill="#e0e0e0" stroke="#999999" points="602.5,-17 475.5,-17 475.5,0 602.5,0 602.5,-17"/>
<text text-anchor="middle" x="539" y="-6.6" font-family="SourceSans" font-size="8.00">ext/codecvt_specializations.h</text>
</a>
</g>
</g>
<!-- Node18&#45;&gt;Node28 -->
<g id="edge31" class="edge">
<title>Node18&#45;&gt;Node28</title>
<path fill="none" stroke="#63b8ff" d="M628.51,-52.97C611.45,-44.69 583.78,-31.25 563.72,-21.5"/>
<polygon fill="#63b8ff" stroke="#63b8ff" points="565.08,-18.28 554.56,-17.06 562.02,-24.57 565.08,-18.28"/>
</g>
<!-- Node29 -->
<g id="node29" class="node">
<title>Node29</title>
<g id="a_node29"><a xlink:title=" ">
<polygon fill="#e0e0e0" stroke="#999999" points="667.5,-17 620.5,-17 620.5,0 667.5,0 667.5,-17"/>
<text text-anchor="middle" x="644" y="-6.6" font-family="SourceSans" font-size="8.00">sstream</text>
</a>
</g>
</g>
<!-- Node18&#45;&gt;Node29 -->
<g id="edge32" class="edge">
<title>Node18&#45;&gt;Node29</title>
<path fill="none" stroke="#63b8ff" d="M644,-52.97C644,-46.19 644,-35.97 644,-27.13"/>
<polygon fill="#63b8ff" stroke="#63b8ff" points="647.5,-27.06 644,-17.06 640.5,-27.06 647.5,-27.06"/>
</g>
</g>
</svg>
        <g id="navigator" transform="translate(0 0)" fill="#404254">
                <rect fill="#f2f5e9" fill-opacity="0.5" stroke="#606060" stroke-width=".5" x="0" y="0" width="60" height="60"/>
                <use id="zoomplus" xlink:href="#zoomPlus" x="17" y="9" onmousedown="handleZoom(evt,'in')"/>
                <use id="zoomminus" xlink:href="#zoomMin" x="42" y="9" onmousedown="handleZoom(evt,'out')"/>
                <use id="reset" xlink:href="#resetDef" x="30" y="36" onmousedown="handleReset()"/>
                <g id="arrowUp" xlink:href="#dirArrow" transform="translate(30 24)" onmousedown="handlePan(0,-1)">
                  <use xlink:href="#rim" fill="#404040">
                        <set attributeName="fill" to="#808080" begin="arrowUp.mouseover" end="arrowUp.mouseout"/>
                  </use>
                  <path fill="none" stroke="white" stroke-width="1.5" d="M0,-3.0v7 M-2.5,-0.5L0,-3.0L2.5,-0.5"/>
                </g>
                <g id="arrowRight" xlink:href="#dirArrow" transform="rotate(90) translate(36 -43)" onmousedown="handlePan(1,0)">
                  <use xlink:href="#rim" fill="#404040">
                        <set attributeName="fill" to="#808080" begin="arrowRight.mouseover" end="arrowRight.mouseout"/>
                  </use>
                  <path fill="none" stroke="white" stroke-width="1.5" d="M0,-3.0v7 M-2.5,-0.5L0,-3.0L2.5,-0.5"/>
                </g>
                <g id="arrowDown" xlink:href="#dirArrow" transform="rotate(180) translate(-30 -48)" onmousedown="handlePan(0,1)">
                  <use xlink:href="#rim" fill="#404040">
                        <set attributeName="fill" to="#808080" begin="arrowDown.mouseover" end="arrowDown.mouseout"/>
                  </use>
                  <path fill="none" stroke="white" stroke-width="1.5" d="M0,-3.0v7 M-2.5,-0.5L0,-3.0L2.5,-0.5"/>
                </g>
                <g id="arrowLeft" xlink:href="#dirArrow" transform="rotate(270) translate(-36 17)" onmousedown="handlePan(-1,0)">
                  <use xlink:href="#rim" fill="#404040">
                        <set attributeName="fill" to="#808080" begin="arrowLeft.mouseover" end="arrowLeft.mouseout"/>
                  </use>
                  <path fill="none" stroke="white" stroke-width="1.5" d="M0,-3.0v7 M-2.5,-0.5L0,-3.0L2.5,-0.5"/>
                </g>
        </g>
        <svg viewBox="0 0 15 15" width="100%" height="30px" preserveAspectRatio="xMaxYMin meet">
         <g id="arrow_out" transform="scale(0.3 0.3)">
          <a xlink:href="a60-torrent_8h__incl_org.svg" target="_base">
           <rect id="button" ry="5" rx="5" y="6" x="6" height="38" width="38"
                fill="#f2f5e9" fill-opacity="0.5" stroke="#606060" stroke-width="1.0"/>
           <path id="arrow"
             d="M 11.500037,31.436501 C 11.940474,20.09759 22.043105,11.32322 32.158766,21.979434 L 37.068811,17.246167 C 37.068811,17.246167 37.088388,32 37.088388,32 L 22.160133,31.978069 C 22.160133,31.978069 26.997745,27.140456 26.997745,27.140456 C 18.528582,18.264221 13.291696,25.230495 11.500037,31.436501 z"
             style="fill:#404040;"/>
          </a>
         </g>
        </svg>
</svg>
