<?xml version="1.0" encoding="UTF-8" standalone="no"?>
<!DOCTYPE svg PUBLIC "-//W3C//DTD SVG 1.1//EN"
 "http://www.w3.org/Graphics/SVG/1.1/DTD/svg11.dtd">
<!-- Generated by graphviz version 5.0.0 (0)
 -->
<!-- Title: /home/bkoz/src/alpha60&#45;docs/src/a60.h Pages: 1 -->
<svg width="1155pt" height="87pt"
 viewBox="0.00 0.00 1155.00 87.00" xmlns="http://www.w3.org/2000/svg" xmlns:xlink="http://www.w3.org/1999/xlink">
<g id="graph0" class="graph" transform="scale(1 1) rotate(0) translate(4 83)">
<title>/home/bkoz/src/alpha60&#45;docs/src/a60.h</title>
<!-- Node1 -->
<g id="node1" class="node">
<title>Node1</title>
<g id="a_node1"><a xlink:title=" ">
<polygon fill="#999999" stroke="#666666" points="586,-79 470,-79 470,-53 586,-53 586,-79"/>
<text text-anchor="start" x="478" y="-68.6" font-family="SourceSans" font-size="8.00">/home/bkoz/src/alpha60</text>
<text text-anchor="middle" x="528" y="-59.6" font-family="SourceSans" font-size="8.00">&#45;docs/src/a60.h</text>
</a>
</g>
</g>
<!-- Node2 -->
<g id="node2" class="node">
<title>Node2</title>
<g id="a_node2"><a xlink:title=" ">
<polygon fill="#e0e0e0" stroke="#999999" points="42,-17 0,-17 0,0 42,0 42,-17"/>
<text text-anchor="middle" x="21" y="-6.6" font-family="SourceSans" font-size="8.00">cmath</text>
</a>
</g>
</g>
<!-- Node1&#45;&gt;Node2 -->
<g id="edge1" class="edge">
<title>Node1&#45;&gt;Node2</title>
<path fill="none" stroke="#63b8ff" d="M469.99,-61.88C381.77,-56.53 208.49,-43.7 52.47,-16.99"/>
<polygon fill="#63b8ff" stroke="#63b8ff" points="52.68,-13.47 42.22,-15.21 51.48,-20.37 52.68,-13.47"/>
</g>
<!-- Node3 -->
<g id="node3" class="node">
<title>Node3</title>
<g id="a_node3"><a xlink:title=" ">
<polygon fill="#e0e0e0" stroke="#999999" points="98,-17 60,-17 60,0 98,0 98,-17"/>
<text text-anchor="middle" x="79" y="-6.6" font-family="SourceSans" font-size="8.00">tuple</text>
</a>
</g>
</g>
<!-- Node1&#45;&gt;Node3 -->
<g id="edge2" class="edge">
<title>Node1&#45;&gt;Node3</title>
<path fill="none" stroke="#63b8ff" d="M469.71,-61.1C390.06,-55.16 242.7,-42.02 108.26,-16.95"/>
<polygon fill="#63b8ff" stroke="#63b8ff" points="108.67,-13.46 98.19,-15.04 107.37,-20.34 108.67,-13.46"/>
</g>
<!-- Node4 -->
<g id="node4" class="node">
<title>Node4</title>
<g id="a_node4"><a xlink:title=" ">
<polygon fill="#e0e0e0" stroke="#999999" points="156,-17 116,-17 116,0 156,0 156,-17"/>
<text text-anchor="middle" x="136" y="-6.6" font-family="SourceSans" font-size="8.00">string</text>
</a>
</g>
</g>
<!-- Node1&#45;&gt;Node4 -->
<g id="edge3" class="edge">
<title>Node1&#45;&gt;Node4</title>
<path fill="none" stroke="#63b8ff" d="M469.81,-59.51C399.86,-52.42 278.8,-38.58 166.05,-16.97"/>
<polygon fill="#63b8ff" stroke="#63b8ff" points="166.69,-13.53 156.21,-15.06 165.36,-20.4 166.69,-13.53"/>
</g>
<!-- Node5 -->
<g id="node5" class="node">
<title>Node5</title>
<g id="a_node5"><a xlink:title=" ">
<polygon fill="#e0e0e0" stroke="#999999" points="216,-17 174,-17 174,0 216,0 216,-17"/>
<text text-anchor="middle" x="195" y="-6.6" font-family="SourceSans" font-size="8.00">vector</text>
</a>
</g>
</g>
<!-- Node1&#45;&gt;Node5 -->
<g id="edge4" class="edge">
<title>Node1&#45;&gt;Node5</title>
<path fill="none" stroke="#63b8ff" d="M469.92,-57.35C410.88,-49.22 316.59,-35.28 226.12,-17.07"/>
<polygon fill="#63b8ff" stroke="#63b8ff" points="226.75,-13.62 216.25,-15.06 225.35,-20.48 226.75,-13.62"/>
</g>
<!-- Node6 -->
<g id="node6" class="node">
<title>Node6</title>
<g id="a_node6"><a xlink:title=" ">
<polygon fill="#e0e0e0" stroke="#999999" points="263.5,-17 234.5,-17 234.5,0 263.5,0 263.5,-17"/>
<text text-anchor="middle" x="249" y="-6.6" font-family="SourceSans" font-size="8.00">set</text>
</a>
</g>
</g>
<!-- Node1&#45;&gt;Node6 -->
<g id="edge5" class="edge">
<title>Node1&#45;&gt;Node6</title>
<path fill="none" stroke="#63b8ff" d="M469.86,-56.04C420.13,-47.93 346.53,-34.87 273.48,-16.83"/>
<polygon fill="#63b8ff" stroke="#63b8ff" points="274.2,-13.41 263.65,-14.37 272.5,-20.2 274.2,-13.41"/>
</g>
<!-- Node7 -->
<g id="node7" class="node">
<title>Node7</title>
<g id="a_node7"><a xlink:title=" ">
<polygon fill="#e0e0e0" stroke="#999999" points="362,-17 282,-17 282,0 362,0 362,-17"/>
<text text-anchor="middle" x="322" y="-6.6" font-family="SourceSans" font-size="8.00">unordered_map</text>
</a>
</g>
</g>
<!-- Node1&#45;&gt;Node7 -->
<g id="edge6" class="edge">
<title>Node1&#45;&gt;Node7</title>
<path fill="none" stroke="#63b8ff" d="M483.3,-52.96C446.36,-43 394.5,-29.03 359.65,-19.64"/>
<polygon fill="#63b8ff" stroke="#63b8ff" points="360.42,-16.23 349.85,-17 358.6,-22.99 360.42,-16.23"/>
</g>
<!-- Node8 -->
<g id="node8" class="node">
<title>Node8</title>
<g id="a_node8"><a xlink:title=" ">
<polygon fill="#e0e0e0" stroke="#999999" points="455.5,-17 380.5,-17 380.5,0 455.5,0 455.5,-17"/>
<text text-anchor="middle" x="418" y="-6.6" font-family="SourceSans" font-size="8.00">unordered_set</text>
</a>
</g>
</g>
<!-- Node1&#45;&gt;Node8 -->
<g id="edge7" class="edge">
<title>Node1&#45;&gt;Node8</title>
<path fill="none" stroke="#63b8ff" d="M504.13,-52.96C485.73,-43.67 460.39,-30.89 441.97,-21.59"/>
<polygon fill="#63b8ff" stroke="#63b8ff" points="443.54,-18.47 433.03,-17.09 440.39,-24.71 443.54,-18.47"/>
</g>
<!-- Node9 -->
<g id="node9" class="node">
<title>Node9</title>
<g id="a_node9"><a xlink:title=" ">
<polygon fill="#e0e0e0" stroke="#999999" points="518,-17 474,-17 474,0 518,0 518,-17"/>
<text text-anchor="middle" x="496" y="-6.6" font-family="SourceSans" font-size="8.00">chrono</text>
</a>
</g>
</g>
<!-- Node1&#45;&gt;Node9 -->
<g id="edge8" class="edge">
<title>Node1&#45;&gt;Node9</title>
<path fill="none" stroke="#63b8ff" d="M521.06,-52.96C516.52,-45.08 510.52,-34.69 505.54,-26.04"/>
<polygon fill="#63b8ff" stroke="#63b8ff" points="508.49,-24.16 500.47,-17.25 502.43,-27.66 508.49,-24.16"/>
</g>
<!-- Node10 -->
<g id="node10" class="node">
<title>Node10</title>
<g id="a_node10"><a xlink:title=" ">
<polygon fill="#e0e0e0" stroke="#999999" points="586,-17 536,-17 536,0 586,0 586,-17"/>
<text text-anchor="middle" x="561" y="-6.6" font-family="SourceSans" font-size="8.00">numeric</text>
</a>
</g>
</g>
<!-- Node1&#45;&gt;Node10 -->
<g id="edge9" class="edge">
<title>Node1&#45;&gt;Node10</title>
<path fill="none" stroke="#63b8ff" d="M535.16,-52.96C539.84,-45.08 546.02,-34.69 551.16,-26.04"/>
<polygon fill="#63b8ff" stroke="#63b8ff" points="554.29,-27.63 556.39,-17.25 548.27,-24.05 554.29,-27.63"/>
</g>
<!-- Node11 -->
<g id="node11" class="node">
<title>Node11</title>
<g id="a_node11"><a xlink:title=" ">
<polygon fill="#e0e0e0" stroke="#999999" points="660,-17 604,-17 604,0 660,0 660,-17"/>
<text text-anchor="middle" x="632" y="-6.6" font-family="SourceSans" font-size="8.00">algorithm</text>
</a>
</g>
</g>
<!-- Node1&#45;&gt;Node11 -->
<g id="edge10" class="edge">
<title>Node1&#45;&gt;Node11</title>
<path fill="none" stroke="#63b8ff" d="M550.57,-52.96C567.81,-43.76 591.48,-31.12 608.86,-21.85"/>
<polygon fill="#63b8ff" stroke="#63b8ff" points="610.61,-24.88 617.79,-17.09 607.32,-18.71 610.61,-24.88"/>
</g>
<!-- Node12 -->
<g id="node12" class="node">
<title>Node12</title>
<g id="a_node12"><a xlink:title=" ">
<polygon fill="#e0e0e0" stroke="#999999" points="719.5,-17 678.5,-17 678.5,0 719.5,0 719.5,-17"/>
<text text-anchor="middle" x="699" y="-6.6" font-family="SourceSans" font-size="8.00">locale</text>
</a>
</g>
</g>
<!-- Node1&#45;&gt;Node12 -->
<g id="edge11" class="edge">
<title>Node1&#45;&gt;Node12</title>
<path fill="none" stroke="#63b8ff" d="M565.1,-52.96C596.03,-42.92 639.56,-28.79 668.49,-19.4"/>
<polygon fill="#63b8ff" stroke="#63b8ff" points="669.64,-22.71 678.07,-16.29 667.48,-16.05 669.64,-22.71"/>
</g>
<!-- Node13 -->
<g id="node13" class="node">
<title>Node13</title>
<g id="a_node13"><a xlink:title=" ">
<polygon fill="#e0e0e0" stroke="#999999" points="786.5,-17 737.5,-17 737.5,0 786.5,0 786.5,-17"/>
<text text-anchor="middle" x="762" y="-6.6" font-family="SourceSans" font-size="8.00">codecvt</text>
</a>
</g>
</g>
<!-- Node1&#45;&gt;Node13 -->
<g id="edge12" class="edge">
<title>Node1&#45;&gt;Node13</title>
<path fill="none" stroke="#63b8ff" d="M578.77,-52.96C623.81,-42.28 688.37,-26.96 727.61,-17.66"/>
<polygon fill="#63b8ff" stroke="#63b8ff" points="728.57,-21.03 737.49,-15.31 726.96,-14.21 728.57,-21.03"/>
</g>
<!-- Node14 -->
<g id="node14" class="node">
<title>Node14</title>
<g id="a_node14"><a xlink:title=" ">
<polygon fill="#e0e0e0" stroke="#999999" points="941.5,-17 804.5,-17 804.5,0 941.5,0 941.5,-17"/>
<text text-anchor="middle" x="873" y="-6.6" font-family="SourceSans" font-size="8.00">ext/codecvt_specializations.h</text>
</a>
</g>
</g>
<!-- Node1&#45;&gt;Node14 -->
<g id="edge13" class="edge">
<title>Node1&#45;&gt;Node14</title>
<path fill="none" stroke="#63b8ff" d="M586.13,-55.65C650.17,-45.35 752.46,-28.89 816.03,-18.67"/>
<polygon fill="#63b8ff" stroke="#63b8ff" points="816.95,-22.06 826.27,-17.02 815.84,-15.15 816.95,-22.06"/>
</g>
<!-- Node15 -->
<g id="node15" class="node">
<title>Node15</title>
<g id="a_node15"><a xlink:title=" ">
<polygon fill="#e0e0e0" stroke="#999999" points="1008.5,-17 959.5,-17 959.5,0 1008.5,0 1008.5,-17"/>
<text text-anchor="middle" x="984" y="-6.6" font-family="SourceSans" font-size="8.00">sstream</text>
</a>
</g>
</g>
<!-- Node1&#45;&gt;Node15 -->
<g id="edge14" class="edge">
<title>Node1&#45;&gt;Node15</title>
<path fill="none" stroke="#63b8ff" d="M586.1,-60.45C665.9,-53.76 814.03,-39.71 949.08,-17.16"/>
<polygon fill="#63b8ff" stroke="#63b8ff" points="949.92,-20.56 959.19,-15.45 948.75,-13.66 949.92,-20.56"/>
</g>
<!-- Node16 -->
<g id="node16" class="node">
<title>Node16</title>
<g id="a_node16"><a xlink:title=" ">
<polygon fill="#e0e0e0" stroke="#999999" points="1077,-17 1027,-17 1027,0 1077,0 1077,-17"/>
<text text-anchor="middle" x="1052" y="-6.6" font-family="SourceSans" font-size="8.00">iomanip</text>
</a>
</g>
</g>
<!-- Node1&#45;&gt;Node16 -->
<g id="edge15" class="edge">
<title>Node1&#45;&gt;Node16</title>
<path fill="none" stroke="#63b8ff" d="M586.37,-61.55C676.61,-55.71 855.56,-42.15 1016.71,-17"/>
<polygon fill="#63b8ff" stroke="#63b8ff" points="1017.48,-20.42 1026.81,-15.41 1016.39,-13.51 1017.48,-20.42"/>
</g>
<!-- Node17 -->
<g id="node17" class="node">
<title>Node17</title>
<g id="a_node17"><a xlink:title=" ">
<polygon fill="#e0e0e0" stroke="#999999" points="1147,-17 1095,-17 1095,0 1147,0 1147,-17"/>
<text text-anchor="middle" x="1121" y="-6.6" font-family="SourceSans" font-size="8.00">iostream</text>
</a>
</g>
</g>
<!-- Node1&#45;&gt;Node17 -->
<g id="edge16" class="edge">
<title>Node1&#45;&gt;Node17</title>
<path fill="none" stroke="#63b8ff" d="M586.12,-62.4C686.08,-57.41 897.14,-44.57 1084.65,-17"/>
<polygon fill="#63b8ff" stroke="#63b8ff" points="1085.32,-20.44 1094.69,-15.51 1084.29,-13.52 1085.32,-20.44"/>
</g>
</g>
</svg>
