<?xml version="1.0" encoding="UTF-8" standalone="no"?>
<!DOCTYPE svg PUBLIC "-//W3C//DTD SVG 1.1//EN"
 "http://www.w3.org/Graphics/SVG/1.1/DTD/svg11.dtd">
<!-- Generated by graphviz version 5.0.0 (0)
 -->
<!-- Title: base_thread_pool&lt; Task &gt; Pages: 1 -->
<svg width="170pt" height="150pt"
 viewBox="0.00 0.00 169.50 150.00" xmlns="http://www.w3.org/2000/svg" xmlns:xlink="http://www.w3.org/1999/xlink">
<g id="graph0" class="graph" transform="scale(1 1) rotate(0) translate(4 146)">
<title>base_thread_pool&lt; Task &gt;</title>
<!-- Node1 -->
<g id="node1" class="node">
<title>Node1</title>
<g id="a_node1"><a xlink:title=" ">
<polygon fill="#999999" stroke="#666666" points="125,-142 0,-142 0,-125 125,-125 125,-142"/>
<text text-anchor="middle" x="62.5" y="-131.6" font-family="SourceSans" font-size="8.00">base_thread_pool&lt; Task &gt;</text>
</a>
</g>
</g>
<!-- Node2 -->
<g id="node2" class="node">
<title>Node2</title>
<g id="a_node2"><a xlink:href="$classbase__thread__pool.html" xlink:title=" ">
<polygon fill="white" stroke="#666666" points="117.5,-80 7.5,-80 7.5,-54 117.5,-54 117.5,-80"/>
<text text-anchor="start" x="15.5" y="-69.6" font-family="SourceSans" font-size="8.00">base_thread_pool&lt; std</text>
<text text-anchor="middle" x="62.5" y="-60.6" font-family="SourceSans" font-size="8.00">::future&lt; void &gt; &gt;</text>
</a>
</g>
</g>
<!-- Node1&#45;&gt;Node2 -->
<g id="edge1" class="edge">
<title>Node1&#45;&gt;Node2</title>
<path fill="none" stroke="orange" stroke-dasharray="5,2" d="M62.5,-114.52C62.5,-103.65 62.5,-90.07 62.5,-80.4"/>
<polygon fill="orange" stroke="orange" points="59,-114.59 62.5,-124.59 66,-114.59 59,-114.59"/>
<text text-anchor="middle" x="112" y="-100.6" font-family="SourceSans" font-size="8.00"> &lt; std::future&lt; void &gt; &gt;</text>
</g>
<!-- Node3 -->
<g id="node3" class="node">
<title>Node3</title>
<g id="a_node3"><a xlink:href="$classthread__pool.html" xlink:title=" ">
<polygon fill="white" stroke="#666666" points="95,-17 30,-17 30,0 95,0 95,-17"/>
<text text-anchor="middle" x="62.5" y="-6.6" font-family="SourceSans" font-size="8.00">thread_pool</text>
</a>
</g>
</g>
<!-- Node2&#45;&gt;Node3 -->
<g id="edge2" class="edge">
<title>Node2&#45;&gt;Node3</title>
<path fill="none" stroke="#63b8ff" d="M55.89,-43.71C55.45,-34.26 56.06,-23.88 57.73,-17.06"/>
<polygon fill="#63b8ff" stroke="#63b8ff" points="52.41,-44.11 56.82,-53.74 59.38,-43.46 52.41,-44.11"/>
</g>
<!-- Node2&#45;&gt;Node3 -->
<g id="edge3" class="edge">
<title>Node2&#45;&gt;Node3</title>
<path fill="none" stroke="#63b8ff" d="M69.11,-43.71C69.55,-34.26 68.94,-23.88 67.27,-17.06"/>
<polygon fill="#63b8ff" stroke="#63b8ff" points="65.62,-43.46 68.18,-53.74 72.59,-44.11 65.62,-43.46"/>
</g>
</g>
</svg>
