<?xml version="1.0" encoding="UTF-8" standalone="no"?>
<!DOCTYPE svg PUBLIC "-//W3C//DTD SVG 1.1//EN"
 "http://www.w3.org/Graphics/SVG/1.1/DTD/svg11.dtd">
<!-- Generated by graphviz version 5.0.0 (0)
 -->
<!-- Title: Graphical Class Hierarchy Pages: 1 -->
<svg width="239pt" height="60pt"
 viewBox="0.00 0.00 239.00 60.00" xmlns="http://www.w3.org/2000/svg" xmlns:xlink="http://www.w3.org/1999/xlink">
<g id="graph0" class="graph" transform="scale(1 1) rotate(0) translate(4 56)">
<title>Graphical Class Hierarchy</title>
<!-- Node0 -->
<g id="node1" class="node">
<title>Node0</title>
<g id="a_node1"><a xlink:href="structa60_1_1geo_1_1map__base.html" target="_top" xlink:title=" ">
<polygon fill="white" stroke="#666666" points="92,-34 0,-34 0,-17 92,-17 92,-34"/>
<text text-anchor="middle" x="46" y="-23.6" font-family="SourceSans" font-size="8.00">a60::geo::map_base</text>
</a>
</g>
</g>
<!-- Node1 -->
<g id="node2" class="node">
<title>Node1</title>
<g id="a_node2"><a xlink:href="structa60_1_1geo_1_1city__map.html" target="_top" xlink:title="Region mapping.">
<polygon fill="white" stroke="#666666" points="223,-52 136,-52 136,-35 223,-35 223,-52"/>
<text text-anchor="middle" x="179.5" y="-41.6" font-family="SourceSans" font-size="8.00">a60::geo::city_map</text>
</a>
</g>
</g>
<!-- Node0&#45;&gt;Node1 -->
<g id="edge1" class="edge">
<title>Node0&#45;&gt;Node1</title>
<path fill="none" stroke="#63b8ff" d="M102.37,-33.08C113.56,-34.61 125.15,-36.2 135.82,-37.66"/>
<polygon fill="#63b8ff" stroke="#63b8ff" points="102.64,-29.58 92.25,-31.69 101.69,-36.52 102.64,-29.58"/>
</g>
<!-- Node2 -->
<g id="node3" class="node">
<title>Node2</title>
<g id="a_node3"><a xlink:href="structa60_1_1geo_1_1country__map.html" target="_top" xlink:title="Country mapping.">
<polygon fill="white" stroke="#666666" points="231,-17 128,-17 128,0 231,0 231,-17"/>
<text text-anchor="middle" x="179.5" y="-6.6" font-family="SourceSans" font-size="8.00">a60::geo::country_map</text>
</a>
</g>
</g>
<!-- Node0&#45;&gt;Node2 -->
<g id="edge2" class="edge">
<title>Node0&#45;&gt;Node2</title>
<path fill="none" stroke="#63b8ff" d="M102.37,-18.34C110.79,-17.25 119.44,-16.14 127.75,-15.06"/>
<polygon fill="#63b8ff" stroke="#63b8ff" points="101.72,-14.9 92.25,-19.65 102.62,-21.84 101.72,-14.9"/>
</g>
</g>
</svg>
