<?xml version="1.0" encoding="UTF-8" standalone="no"?>
<!DOCTYPE svg PUBLIC "-//W3C//DTD SVG 1.1//EN"
 "http://www.w3.org/Graphics/SVG/1.1/DTD/svg11.dtd">
<!-- Generated by graphviz version 5.0.0 (0)
 -->
<!-- Title: Graphical Class Hierarchy Pages: 1 -->
<svg width="259pt" height="60pt"
 viewBox="0.00 0.00 259.00 60.00" xmlns="http://www.w3.org/2000/svg" xmlns:xlink="http://www.w3.org/1999/xlink">
<g id="graph0" class="graph" transform="scale(1 1) rotate(0) translate(4 56)">
<title>Graphical Class Hierarchy</title>
<!-- Node0 -->
<g id="node1" class="node">
<title>Node0</title>
<g id="a_node1"><a xlink:href="$structa60_1_1geo_1_1map__base.html" xlink:title=" ">
<polygon fill="white" stroke="#666666" points="102,-34 0,-34 0,-17 102,-17 102,-34"/>
<text text-anchor="middle" x="51" y="-23.6" font-family="SourceSans" font-size="8.00">a60::geo::map_base</text>
</a>
</g>
</g>
<!-- Node1 -->
<g id="node2" class="node">
<title>Node1</title>
<g id="a_node2"><a xlink:href="$structa60_1_1geo_1_1city__map.html" xlink:title="Region mapping.">
<polygon fill="white" stroke="#666666" points="242.5,-52 146.5,-52 146.5,-35 242.5,-35 242.5,-52"/>
<text text-anchor="middle" x="194.5" y="-41.6" font-family="SourceSans" font-size="8.00">a60::geo::city_map</text>
</a>
</g>
</g>
<!-- Node0&#45;&gt;Node1 -->
<g id="edge1" class="edge">
<title>Node0&#45;&gt;Node1</title>
<path fill="none" stroke="#63b8ff" d="M112.51,-33.2C123.78,-34.63 135.41,-36.11 146.22,-37.49"/>
<polygon fill="#63b8ff" stroke="#63b8ff" points="112.65,-29.69 102.29,-31.9 111.76,-36.63 112.65,-29.69"/>
</g>
<!-- Node2 -->
<g id="node3" class="node">
<title>Node2</title>
<g id="a_node3"><a xlink:href="$structa60_1_1geo_1_1country__map.html" xlink:title="Country mapping.">
<polygon fill="white" stroke="#666666" points="251,-17 138,-17 138,0 251,0 251,-17"/>
<text text-anchor="middle" x="194.5" y="-6.6" font-family="SourceSans" font-size="8.00">a60::geo::country_map</text>
</a>
</g>
</g>
<!-- Node0&#45;&gt;Node2 -->
<g id="edge2" class="edge">
<title>Node0&#45;&gt;Node2</title>
<path fill="none" stroke="#63b8ff" d="M112.37,-18.25C120.74,-17.24 129.31,-16.21 137.6,-15.22"/>
<polygon fill="#63b8ff" stroke="#63b8ff" points="111.8,-14.79 102.29,-19.46 112.63,-21.74 111.8,-14.79"/>
</g>
</g>
</svg>
