<?xml version="1.0" encoding="UTF-8" standalone="no"?>
<!DOCTYPE svg PUBLIC "-//W3C//DTD SVG 1.1//EN"
 "http://www.w3.org/Graphics/SVG/1.1/DTD/svg11.dtd">
<!-- Generated by graphviz version 5.0.0 (0)
 -->
<!-- Title: Graphical Class Hierarchy Pages: 1 -->
<svg width="263pt" height="60pt"
 viewBox="0.00 0.00 263.00 60.00" xmlns="http://www.w3.org/2000/svg" xmlns:xlink="http://www.w3.org/1999/xlink">
<g id="graph0" class="graph" transform="scale(1 1) rotate(0) translate(4 56)">
<title>Graphical Class Hierarchy</title>
<!-- Node0 -->
<g id="node1" class="node">
<title>Node0</title>
<g id="a_node1"><a xlink:href="structa60_1_1carto_1_1projection__api.html" target="_top" xlink:title="Abstract base class for derived projections.">
<polygon fill="white" stroke="#666666" points="126,-52 4,-52 4,-35 126,-35 126,-52"/>
<text text-anchor="middle" x="65" y="-41.6" font-family="SourceSans" font-size="8.00">a60::carto::projection_api</text>
</a>
</g>
</g>
<!-- Node1 -->
<g id="node2" class="node">
<title>Node1</title>
<g id="a_node2"><a xlink:href="structa60_1_1carto_1_1ckproj.html" target="_top" xlink:title=" ">
<polygon fill="white" stroke="#666666" points="255,-52 166,-52 166,-35 255,-35 255,-52"/>
<text text-anchor="middle" x="210.5" y="-41.6" font-family="SourceSans" font-size="8.00">a60::carto::ckproj</text>
</a>
</g>
</g>
<!-- Node0&#45;&gt;Node1 -->
<g id="edge1" class="edge">
<title>Node0&#45;&gt;Node1</title>
<path fill="none" stroke="#63b8ff" d="M136.12,-43.5C146.26,-43.5 156.45,-43.5 165.87,-43.5"/>
<polygon fill="#63b8ff" stroke="#63b8ff" points="136.03,-40 126.03,-43.5 136.03,-47 136.03,-40"/>
</g>
<!-- Node3 -->
<g id="node3" class="node">
<title>Node3</title>
<g id="a_node3"><a xlink:href="structa60_1_1carto_1_1erproj.html" target="_top" xlink:title=" ">
<polygon fill="white" stroke="#666666" points="255,-17 166,-17 166,0 255,0 255,-17"/>
<text text-anchor="middle" x="210.5" y="-6.6" font-family="SourceSans" font-size="8.00">a60::carto::erproj</text>
</a>
</g>
</g>
<!-- Node0&#45;&gt;Node3 -->
<g id="edge2" class="edge">
<title>Node0&#45;&gt;Node3</title>
<path fill="none" stroke="#63b8ff" d="M110.83,-32.57C131.27,-27.58 155.13,-21.76 174.26,-17.09"/>
<polygon fill="#63b8ff" stroke="#63b8ff" points="109.99,-29.17 101.1,-34.94 111.65,-35.97 109.99,-29.17"/>
</g>
<!-- Node2 -->
<g id="node4" class="node">
<title>Node2</title>
<g id="a_node4"><a xlink:href="structa60_1_1carto_1_1projection__base.html" target="_top" xlink:title=" ">
<polygon fill="white" stroke="#666666" points="130,-17 0,-17 0,0 130,0 130,-17"/>
<text text-anchor="middle" x="65" y="-6.6" font-family="SourceSans" font-size="8.00">a60::carto::projection_base</text>
</a>
</g>
</g>
<!-- Node2&#45;&gt;Node1 -->
<g id="edge3" class="edge">
<title>Node2&#45;&gt;Node1</title>
<path fill="none" stroke="#63b8ff" d="M110.83,-19.43C131.27,-24.42 155.13,-30.24 174.26,-34.91"/>
<polygon fill="#63b8ff" stroke="#63b8ff" points="111.65,-16.03 101.1,-17.06 109.99,-22.83 111.65,-16.03"/>
</g>
<!-- Node2&#45;&gt;Node3 -->
<g id="edge4" class="edge">
<title>Node2&#45;&gt;Node3</title>
<path fill="none" stroke="#63b8ff" d="M140.43,-8.5C149.16,-8.5 157.83,-8.5 165.94,-8.5"/>
<polygon fill="#63b8ff" stroke="#63b8ff" points="140.2,-5 130.2,-8.5 140.2,-12 140.2,-5"/>
</g>
</g>
</svg>
