<?xml version="1.0" encoding="UTF-8" standalone="no"?>
<!DOCTYPE svg PUBLIC "-//W3C//DTD SVG 1.1//EN"
 "http://www.w3.org/Graphics/SVG/1.1/DTD/svg11.dtd">
<!-- Generated by graphviz version 5.0.0 (0)
 -->
<!-- Title: a60::media_objects::wonder_woman_1984 Pages: 1 -->
<svg width="120pt" height="140pt"
 viewBox="0.00 0.00 120.00 140.00" xmlns="http://www.w3.org/2000/svg" xmlns:xlink="http://www.w3.org/1999/xlink">
<g id="graph0" class="graph" transform="scale(1 1) rotate(0) translate(4 136)">
<title>a60::media_objects::wonder_woman_1984</title>
<!-- Node1 -->
<g id="node1" class="node">
<title>Node1</title>
<g id="a_node1"><a xlink:title=" ">
<polygon fill="#999999" stroke="#666666" points="112,-26 0,-26 0,0 112,0 112,-26"/>
<text text-anchor="start" x="8" y="-15.6" font-family="SourceSans" font-size="8.00">a60::media_objects</text>
<text text-anchor="middle" x="56" y="-6.6" font-family="SourceSans" font-size="8.00">::wonder_woman_1984</text>
</a>
</g>
</g>
<!-- Node2 -->
<g id="node2" class="node">
<title>Node2</title>
<g id="a_node2"><a xlink:href="structa60_1_1collection.html" target="_top" xlink:title="All variants of torrents for the same media property.">
<polygon fill="white" stroke="#666666" points="95,-79 17,-79 17,-62 95,-62 95,-79"/>
<text text-anchor="middle" x="56" y="-68.6" font-family="SourceSans" font-size="8.00">a60::collection</text>
</a>
</g>
</g>
<!-- Node2&#45;&gt;Node1 -->
<g id="edge1" class="edge">
<title>Node2&#45;&gt;Node1</title>
<path fill="none" stroke="#63b8ff" d="M49.65,-51.68C48.96,-43.41 49.16,-33.79 50.28,-26.34"/>
<polygon fill="#63b8ff" stroke="#63b8ff" points="46.22,-52.41 51.16,-61.78 53.14,-51.38 46.22,-52.41"/>
</g>
<!-- Node2&#45;&gt;Node1 -->
<g id="edge3" class="edge">
<title>Node2&#45;&gt;Node1</title>
<path fill="none" stroke="#63b8ff" d="M62.35,-51.68C63.04,-43.41 62.84,-33.79 61.72,-26.34"/>
<polygon fill="#63b8ff" stroke="#63b8ff" points="58.86,-51.38 60.84,-61.78 65.78,-52.41 58.86,-51.38"/>
</g>
<!-- Node3 -->
<g id="node3" class="node">
<title>Node3</title>
<g id="a_node3"><a xlink:href="structa60_1_1collection__base.html" target="_top" xlink:title=" ">
<polygon fill="white" stroke="#666666" points="107,-132 5,-132 5,-115 107,-115 107,-132"/>
<text text-anchor="middle" x="56" y="-121.6" font-family="SourceSans" font-size="8.00">a60::collection_base</text>
</a>
</g>
</g>
<!-- Node3&#45;&gt;Node2 -->
<g id="edge2" class="edge">
<title>Node3&#45;&gt;Node2</title>
<path fill="none" stroke="#63b8ff" d="M56,-104.91C56,-96.08 56,-85.85 56,-79.06"/>
<polygon fill="#63b8ff" stroke="#63b8ff" points="52.5,-104.97 56,-114.97 59.5,-104.97 52.5,-104.97"/>
</g>
</g>
</svg>
