<?xml version="1.0" encoding="UTF-8" standalone="no"?>
<!DOCTYPE svg PUBLIC "-//W3C//DTD SVG 1.1//EN"
 "http://www.w3.org/Graphics/SVG/1.1/DTD/svg11.dtd">
<!-- Generated by graphviz version 5.0.0 (0)
 -->
<!-- Title: a60::media_objects::station_eleven_110 Pages: 1 -->
<svg width="101pt" height="140pt"
 viewBox="0.00 0.00 101.00 140.00" xmlns="http://www.w3.org/2000/svg" xmlns:xlink="http://www.w3.org/1999/xlink">
<g id="graph0" class="graph" transform="scale(1 1) rotate(0) translate(4 136)">
<title>a60::media_objects::station_eleven_110</title>
<!-- Node1 -->
<g id="node1" class="node">
<title>Node1</title>
<g id="a_node1"><a xlink:title=" ">
<polygon fill="#999999" stroke="#666666" points="93,-26 0,-26 0,0 93,0 93,-26"/>
<text text-anchor="start" x="8" y="-15.6" font-family="SourceSans" font-size="8.00">a60::media_objects</text>
<text text-anchor="middle" x="46.5" y="-6.6" font-family="SourceSans" font-size="8.00">::station_eleven_110</text>
</a>
</g>
</g>
<!-- Node2 -->
<g id="node2" class="node">
<title>Node2</title>
<g id="a_node2"><a xlink:href="structa60_1_1collection.html" target="_top" xlink:title="All variants of torrents for the same media property.">
<polygon fill="white" stroke="#666666" points="82,-79 11,-79 11,-62 82,-62 82,-79"/>
<text text-anchor="middle" x="46.5" y="-68.6" font-family="SourceSans" font-size="8.00">a60::collection</text>
</a>
</g>
</g>
<!-- Node2&#45;&gt;Node1 -->
<g id="edge1" class="edge">
<title>Node2&#45;&gt;Node1</title>
<path fill="none" stroke="#63b8ff" d="M40.15,-51.68C39.46,-43.41 39.66,-33.79 40.78,-26.34"/>
<polygon fill="#63b8ff" stroke="#63b8ff" points="36.72,-52.41 41.66,-61.78 43.64,-51.38 36.72,-52.41"/>
</g>
<!-- Node2&#45;&gt;Node1 -->
<g id="edge3" class="edge">
<title>Node2&#45;&gt;Node1</title>
<path fill="none" stroke="#63b8ff" d="M52.85,-51.68C53.54,-43.41 53.34,-33.79 52.22,-26.34"/>
<polygon fill="#63b8ff" stroke="#63b8ff" points="49.36,-51.38 51.34,-61.78 56.28,-52.41 49.36,-51.38"/>
</g>
<!-- Node3 -->
<g id="node3" class="node">
<title>Node3</title>
<g id="a_node3"><a xlink:href="structa60_1_1collection__base.html" target="_top" xlink:title=" ">
<polygon fill="white" stroke="#666666" points="92.5,-132 0.5,-132 0.5,-115 92.5,-115 92.5,-132"/>
<text text-anchor="middle" x="46.5" y="-121.6" font-family="SourceSans" font-size="8.00">a60::collection_base</text>
</a>
</g>
</g>
<!-- Node3&#45;&gt;Node2 -->
<g id="edge2" class="edge">
<title>Node3&#45;&gt;Node2</title>
<path fill="none" stroke="#63b8ff" d="M46.5,-104.91C46.5,-96.08 46.5,-85.85 46.5,-79.06"/>
<polygon fill="#63b8ff" stroke="#63b8ff" points="43,-104.97 46.5,-114.97 50,-104.97 43,-104.97"/>
</g>
</g>
</svg>
