<?xml version="1.0" encoding="UTF-8" standalone="no"?>
<!DOCTYPE svg PUBLIC "-//W3C//DTD SVG 1.1//EN"
 "http://www.w3.org/Graphics/SVG/1.1/DTD/svg11.dtd">
<!-- Generated by graphviz version 5.0.0 (0)
 -->
<!-- Title: a60::carto::ckproj Pages: 1 -->
<svg width="256pt" height="78pt"
 viewBox="0.00 0.00 256.00 78.00" xmlns="http://www.w3.org/2000/svg" xmlns:xlink="http://www.w3.org/1999/xlink">
<g id="graph0" class="graph" transform="scale(1 1) rotate(0) translate(4 74)">
<title>a60::carto::ckproj</title>
<!-- Node1 -->
<g id="node1" class="node">
<title>Node1</title>
<g id="a_node1"><a xlink:title=" ">
<polygon fill="#999999" stroke="#666666" points="165.5,-17 84.5,-17 84.5,0 165.5,0 165.5,-17"/>
<text text-anchor="middle" x="125" y="-6.6" font-family="SourceSans" font-size="8.00">a60::carto::ckproj</text>
</a>
</g>
</g>
<!-- Node2 -->
<g id="node2" class="node">
<title>Node2</title>
<g id="a_node2"><a xlink:href="structa60_1_1carto_1_1projection__base.html" target="_top" xlink:title=" ">
<polygon fill="white" stroke="#666666" points="118,-70 0,-70 0,-53 118,-53 118,-70"/>
<text text-anchor="middle" x="59" y="-59.6" font-family="SourceSans" font-size="8.00">a60::carto::projection_base</text>
</a>
</g>
</g>
<!-- Node2&#45;&gt;Node1 -->
<g id="edge1" class="edge">
<title>Node2&#45;&gt;Node1</title>
<path fill="none" stroke="#63b8ff" d="M76.95,-46.63C89.27,-37.11 105.16,-24.83 115.22,-17.06"/>
<polygon fill="#63b8ff" stroke="#63b8ff" points="74.51,-44.09 68.74,-52.97 78.79,-49.63 74.51,-44.09"/>
</g>
<!-- Node3 -->
<g id="node3" class="node">
<title>Node3</title>
<g id="a_node3"><a xlink:href="structa60_1_1carto_1_1projection__api.html" target="_top" xlink:title="Abstract base class for derived projections.">
<polygon fill="white" stroke="#666666" points="248,-70 136,-70 136,-53 248,-53 248,-70"/>
<text text-anchor="middle" x="192" y="-59.6" font-family="SourceSans" font-size="8.00">a60::carto::projection_api</text>
</a>
</g>
</g>
<!-- Node3&#45;&gt;Node1 -->
<g id="edge2" class="edge">
<title>Node3&#45;&gt;Node1</title>
<path fill="none" stroke="#63b8ff" d="M174.14,-46.91C161.58,-37.34 145.23,-24.9 134.93,-17.06"/>
<polygon fill="#63b8ff" stroke="#63b8ff" points="172.04,-49.7 182.11,-52.97 176.28,-44.13 172.04,-49.7"/>
</g>
</g>
</svg>
