<?xml version="1.0" encoding="UTF-8" standalone="no"?>
<!DOCTYPE svg PUBLIC "-//W3C//DTD SVG 1.1//EN"
 "http://www.w3.org/Graphics/SVG/1.1/DTD/svg11.dtd">
<!-- Generated by graphviz version 5.0.0 (0)
 -->
<!-- Title: a60::media_objects::njp Pages: 1 -->
<svg width="115pt" height="131pt"
 viewBox="0.00 0.00 115.00 131.00" xmlns="http://www.w3.org/2000/svg" xmlns:xlink="http://www.w3.org/1999/xlink">
<g id="graph0" class="graph" transform="scale(1 1) rotate(0) translate(4 127)">
<title>a60::media_objects::njp</title>
<!-- Node1 -->
<g id="node1" class="node">
<title>Node1</title>
<g id="a_node1"><a xlink:title=" ">
<polygon fill="#999999" stroke="#666666" points="107,-17 0,-17 0,0 107,0 107,-17"/>
<text text-anchor="middle" x="53.5" y="-6.6" font-family="SourceSans" font-size="8.00">a60::media_objects::njp</text>
</a>
</g>
</g>
<!-- Node2 -->
<g id="node2" class="node">
<title>Node2</title>
<g id="a_node2"><a xlink:href="structa60_1_1collection.html" target="_top" xlink:title="All variants of torrents for the same media property.">
<polygon fill="white" stroke="#666666" points="89,-70 18,-70 18,-53 89,-53 89,-70"/>
<text text-anchor="middle" x="53.5" y="-59.6" font-family="SourceSans" font-size="8.00">a60::collection</text>
</a>
</g>
</g>
<!-- Node2&#45;&gt;Node1 -->
<g id="edge1" class="edge">
<title>Node2&#45;&gt;Node1</title>
<path fill="none" stroke="#63b8ff" d="M47.05,-42.91C46.36,-34.08 46.86,-23.85 48.54,-17.06"/>
<polygon fill="#63b8ff" stroke="#63b8ff" points="43.61,-43.6 48.54,-52.97 50.54,-42.57 43.61,-43.6"/>
</g>
<!-- Node2&#45;&gt;Node1 -->
<g id="edge3" class="edge">
<title>Node2&#45;&gt;Node1</title>
<path fill="none" stroke="#63b8ff" d="M59.95,-42.91C60.64,-34.08 60.14,-23.85 58.46,-17.06"/>
<polygon fill="#63b8ff" stroke="#63b8ff" points="56.46,-42.57 58.46,-52.97 63.39,-43.6 56.46,-42.57"/>
</g>
<!-- Node3 -->
<g id="node3" class="node">
<title>Node3</title>
<g id="a_node3"><a xlink:href="structa60_1_1collection__base.html" target="_top" xlink:title=" ">
<polygon fill="white" stroke="#666666" points="99.5,-123 7.5,-123 7.5,-106 99.5,-106 99.5,-123"/>
<text text-anchor="middle" x="53.5" y="-112.6" font-family="SourceSans" font-size="8.00">a60::collection_base</text>
</a>
</g>
</g>
<!-- Node3&#45;&gt;Node2 -->
<g id="edge2" class="edge">
<title>Node3&#45;&gt;Node2</title>
<path fill="none" stroke="#63b8ff" d="M53.5,-95.91C53.5,-87.08 53.5,-76.85 53.5,-70.06"/>
<polygon fill="#63b8ff" stroke="#63b8ff" points="50,-95.97 53.5,-105.97 57,-95.97 50,-95.97"/>
</g>
</g>
</svg>
