<?xml version="1.0" encoding="UTF-8" standalone="no"?>
<!DOCTYPE svg PUBLIC "-//W3C//DTD SVG 1.1//EN"
 "http://www.w3.org/Graphics/SVG/1.1/DTD/svg11.dtd">
<!-- Generated by graphviz version 5.0.0 (0)
 -->
<!-- Title: a60::media_objects::black_panther_wakanda_forever Pages: 1 -->
<svg width="129pt" height="149pt"
 viewBox="0.00 0.00 129.00 149.00" xmlns="http://www.w3.org/2000/svg" xmlns:xlink="http://www.w3.org/1999/xlink">
<g id="graph0" class="graph" transform="scale(1 1) rotate(0) translate(4 145)">
<title>a60::media_objects::black_panther_wakanda_forever</title>
<!-- Node1 -->
<g id="node1" class="node">
<title>Node1</title>
<g id="a_node1"><a xlink:title=" ">
<polygon fill="#999999" stroke="#666666" points="121,-35 0,-35 0,0 121,0 121,-35"/>
<text text-anchor="start" x="8" y="-24.6" font-family="SourceSans" font-size="8.00">a60::media_objects</text>
<text text-anchor="start" x="8" y="-15.6" font-family="SourceSans" font-size="8.00">::black_panther_wakanda</text>
<text text-anchor="middle" x="60.5" y="-6.6" font-family="SourceSans" font-size="8.00">_forever</text>
</a>
</g>
</g>
<!-- Node2 -->
<g id="node2" class="node">
<title>Node2</title>
<g id="a_node2"><a xlink:href="structa60_1_1collection.html" target="_top" xlink:title="All variants of torrents for the same media property.">
<polygon fill="white" stroke="#666666" points="99.5,-88 21.5,-88 21.5,-71 99.5,-71 99.5,-88"/>
<text text-anchor="middle" x="60.5" y="-77.6" font-family="SourceSans" font-size="8.00">a60::collection</text>
</a>
</g>
</g>
<!-- Node2&#45;&gt;Node1 -->
<g id="edge1" class="edge">
<title>Node2&#45;&gt;Node1</title>
<path fill="none" stroke="#63b8ff" d="M54.26,-60.6C53.55,-52.63 53.58,-43.3 54.35,-35.44"/>
<polygon fill="#63b8ff" stroke="#63b8ff" points="50.83,-61.28 55.77,-70.66 57.75,-60.25 50.83,-61.28"/>
</g>
<!-- Node2&#45;&gt;Node1 -->
<g id="edge3" class="edge">
<title>Node2&#45;&gt;Node1</title>
<path fill="none" stroke="#63b8ff" d="M66.74,-60.6C67.45,-52.63 67.42,-43.3 66.65,-35.44"/>
<polygon fill="#63b8ff" stroke="#63b8ff" points="63.25,-60.25 65.23,-70.66 70.17,-61.28 63.25,-60.25"/>
</g>
<!-- Node3 -->
<g id="node3" class="node">
<title>Node3</title>
<g id="a_node3"><a xlink:href="structa60_1_1collection__base.html" target="_top" xlink:title=" ">
<polygon fill="white" stroke="#666666" points="111.5,-141 9.5,-141 9.5,-124 111.5,-124 111.5,-141"/>
<text text-anchor="middle" x="60.5" y="-130.6" font-family="SourceSans" font-size="8.00">a60::collection_base</text>
</a>
</g>
</g>
<!-- Node3&#45;&gt;Node2 -->
<g id="edge2" class="edge">
<title>Node3&#45;&gt;Node2</title>
<path fill="none" stroke="#63b8ff" d="M60.5,-113.91C60.5,-105.08 60.5,-94.85 60.5,-88.06"/>
<polygon fill="#63b8ff" stroke="#63b8ff" points="57,-113.97 60.5,-123.97 64,-113.97 57,-113.97"/>
</g>
</g>
</svg>
