<?xml version="1.0" encoding="UTF-8" standalone="no"?>
<!DOCTYPE svg PUBLIC "-//W3C//DTD SVG 1.1//EN"
 "http://www.w3.org/Graphics/SVG/1.1/DTD/svg11.dtd">
<!-- Generated by graphviz version 5.0.0 (0)
 -->
<!-- Title: a60::media_objects::altered_carbon_resleeved Pages: 1 -->
<svg width="126pt" height="140pt"
 viewBox="0.00 0.00 126.00 140.00" xmlns="http://www.w3.org/2000/svg" xmlns:xlink="http://www.w3.org/1999/xlink">
<g id="graph0" class="graph" transform="scale(1 1) rotate(0) translate(4 136)">
<title>a60::media_objects::altered_carbon_resleeved</title>
<!-- Node1 -->
<g id="node1" class="node">
<title>Node1</title>
<g id="a_node1"><a xlink:title=" ">
<polygon fill="#999999" stroke="#666666" points="118,-26 0,-26 0,0 118,0 118,-26"/>
<text text-anchor="start" x="8" y="-15.6" font-family="SourceSans" font-size="8.00">a60::media_objects</text>
<text text-anchor="middle" x="59" y="-6.6" font-family="SourceSans" font-size="8.00">::altered_carbon_resleeved</text>
</a>
</g>
</g>
<!-- Node2 -->
<g id="node2" class="node">
<title>Node2</title>
<g id="a_node2"><a xlink:href="structa60_1_1collection.html" target="_top" xlink:title="All variants of torrents for the same media property.">
<polygon fill="white" stroke="#666666" points="94.5,-79 23.5,-79 23.5,-62 94.5,-62 94.5,-79"/>
<text text-anchor="middle" x="59" y="-68.6" font-family="SourceSans" font-size="8.00">a60::collection</text>
</a>
</g>
</g>
<!-- Node2&#45;&gt;Node1 -->
<g id="edge1" class="edge">
<title>Node2&#45;&gt;Node1</title>
<path fill="none" stroke="#63b8ff" d="M52.65,-51.68C51.96,-43.41 52.16,-33.79 53.28,-26.34"/>
<polygon fill="#63b8ff" stroke="#63b8ff" points="49.22,-52.41 54.16,-61.78 56.14,-51.38 49.22,-52.41"/>
</g>
<!-- Node2&#45;&gt;Node1 -->
<g id="edge3" class="edge">
<title>Node2&#45;&gt;Node1</title>
<path fill="none" stroke="#63b8ff" d="M65.35,-51.68C66.04,-43.41 65.84,-33.79 64.72,-26.34"/>
<polygon fill="#63b8ff" stroke="#63b8ff" points="61.86,-51.38 63.84,-61.78 68.78,-52.41 61.86,-51.38"/>
</g>
<!-- Node3 -->
<g id="node3" class="node">
<title>Node3</title>
<g id="a_node3"><a xlink:href="structa60_1_1collection__base.html" target="_top" xlink:title=" ">
<polygon fill="white" stroke="#666666" points="105,-132 13,-132 13,-115 105,-115 105,-132"/>
<text text-anchor="middle" x="59" y="-121.6" font-family="SourceSans" font-size="8.00">a60::collection_base</text>
</a>
</g>
</g>
<!-- Node3&#45;&gt;Node2 -->
<g id="edge2" class="edge">
<title>Node3&#45;&gt;Node2</title>
<path fill="none" stroke="#63b8ff" d="M59,-104.91C59,-96.08 59,-85.85 59,-79.06"/>
<polygon fill="#63b8ff" stroke="#63b8ff" points="55.5,-104.97 59,-114.97 62.5,-104.97 55.5,-104.97"/>
</g>
</g>
</svg>
