<?xml version="1.0" encoding="UTF-8" standalone="no"?>
<!DOCTYPE svg PUBLIC "-//W3C//DTD SVG 1.1//EN"
 "http://www.w3.org/Graphics/SVG/1.1/DTD/svg11.dtd">
<!-- Generated by graphviz version 5.0.0 (0)
 -->
<!-- Title: a60::media_objects::blade_runner_black_lotus_101 Pages: 1 -->
<svg width="105pt" height="149pt"
 viewBox="0.00 0.00 105.00 149.00" xmlns="http://www.w3.org/2000/svg" xmlns:xlink="http://www.w3.org/1999/xlink">
<g id="graph0" class="graph" transform="scale(1 1) rotate(0) translate(4 145)">
<title>a60::media_objects::blade_runner_black_lotus_101</title>
<!-- Node1 -->
<g id="node1" class="node">
<title>Node1</title>
<g id="a_node1"><a xlink:title=" ">
<polygon fill="#999999" stroke="#666666" points="97,-35 0,-35 0,0 97,0 97,-35"/>
<text text-anchor="start" x="8" y="-24.6" font-family="SourceSans" font-size="8.00">a60::media_objects</text>
<text text-anchor="start" x="8" y="-15.6" font-family="SourceSans" font-size="8.00">::blade_runner_black</text>
<text text-anchor="middle" x="48.5" y="-6.6" font-family="SourceSans" font-size="8.00">_lotus_101</text>
</a>
</g>
</g>
<!-- Node2 -->
<g id="node2" class="node">
<title>Node2</title>
<g id="a_node2"><a xlink:href="structa60_1_1collection.html" target="_top" xlink:title="All variants of torrents for the same media property.">
<polygon fill="white" stroke="#666666" points="84,-88 13,-88 13,-71 84,-71 84,-88"/>
<text text-anchor="middle" x="48.5" y="-77.6" font-family="SourceSans" font-size="8.00">a60::collection</text>
</a>
</g>
</g>
<!-- Node2&#45;&gt;Node1 -->
<g id="edge1" class="edge">
<title>Node2&#45;&gt;Node1</title>
<path fill="none" stroke="#63b8ff" d="M42.26,-60.6C41.55,-52.63 41.58,-43.3 42.35,-35.44"/>
<polygon fill="#63b8ff" stroke="#63b8ff" points="38.83,-61.28 43.77,-70.66 45.75,-60.25 38.83,-61.28"/>
</g>
<!-- Node2&#45;&gt;Node1 -->
<g id="edge3" class="edge">
<title>Node2&#45;&gt;Node1</title>
<path fill="none" stroke="#63b8ff" d="M54.74,-60.6C55.45,-52.63 55.42,-43.3 54.65,-35.44"/>
<polygon fill="#63b8ff" stroke="#63b8ff" points="51.25,-60.25 53.23,-70.66 58.17,-61.28 51.25,-60.25"/>
</g>
<!-- Node3 -->
<g id="node3" class="node">
<title>Node3</title>
<g id="a_node3"><a xlink:href="structa60_1_1collection__base.html" target="_top" xlink:title=" ">
<polygon fill="white" stroke="#666666" points="94.5,-141 2.5,-141 2.5,-124 94.5,-124 94.5,-141"/>
<text text-anchor="middle" x="48.5" y="-130.6" font-family="SourceSans" font-size="8.00">a60::collection_base</text>
</a>
</g>
</g>
<!-- Node3&#45;&gt;Node2 -->
<g id="edge2" class="edge">
<title>Node3&#45;&gt;Node2</title>
<path fill="none" stroke="#63b8ff" d="M48.5,-113.91C48.5,-105.08 48.5,-94.85 48.5,-88.06"/>
<polygon fill="#63b8ff" stroke="#63b8ff" points="45,-113.97 48.5,-123.97 52,-113.97 45,-113.97"/>
</g>
</g>
</svg>
