<?xml version="1.0" encoding="UTF-8" standalone="no"?>
<!DOCTYPE svg PUBLIC "-//W3C//DTD SVG 1.1//EN"
 "http://www.w3.org/Graphics/SVG/1.1/DTD/svg11.dtd">
<!-- Generated by graphviz version 5.0.0 (0)
 -->
<!-- Title: a60::media_objects::fistful_of_vengeance Pages: 1 -->
<svg width="115pt" height="140pt"
 viewBox="0.00 0.00 115.00 140.00" xmlns="http://www.w3.org/2000/svg" xmlns:xlink="http://www.w3.org/1999/xlink">
<g id="graph0" class="graph" transform="scale(1 1) rotate(0) translate(4 136)">
<title>a60::media_objects::fistful_of_vengeance</title>
<!-- Node1 -->
<g id="node1" class="node">
<title>Node1</title>
<g id="a_node1"><a xlink:title="Fistful of Vengeance.">
<polygon fill="#999999" stroke="#666666" points="107,-26 0,-26 0,0 107,0 107,-26"/>
<text text-anchor="start" x="8" y="-15.6" font-family="SourceSans" font-size="8.00">a60::media_objects</text>
<text text-anchor="middle" x="53.5" y="-6.6" font-family="SourceSans" font-size="8.00">::fistful_of_vengeance</text>
</a>
</g>
</g>
<!-- Node2 -->
<g id="node2" class="node">
<title>Node2</title>
<g id="a_node2"><a xlink:href="$structa60_1_1collection.html" xlink:title="All variants of torrents for the same media property.">
<polygon fill="white" stroke="#666666" points="92.5,-79 14.5,-79 14.5,-62 92.5,-62 92.5,-79"/>
<text text-anchor="middle" x="53.5" y="-68.6" font-family="SourceSans" font-size="8.00">a60::collection</text>
</a>
</g>
</g>
<!-- Node2&#45;&gt;Node1 -->
<g id="edge1" class="edge">
<title>Node2&#45;&gt;Node1</title>
<path fill="none" stroke="#63b8ff" d="M47.15,-51.68C46.46,-43.41 46.66,-33.79 47.78,-26.34"/>
<polygon fill="#63b8ff" stroke="#63b8ff" points="43.72,-52.41 48.66,-61.78 50.64,-51.38 43.72,-52.41"/>
</g>
<!-- Node2&#45;&gt;Node1 -->
<g id="edge3" class="edge">
<title>Node2&#45;&gt;Node1</title>
<path fill="none" stroke="#63b8ff" d="M59.85,-51.68C60.54,-43.41 60.34,-33.79 59.22,-26.34"/>
<polygon fill="#63b8ff" stroke="#63b8ff" points="56.36,-51.38 58.34,-61.78 63.28,-52.41 56.36,-51.38"/>
</g>
<!-- Node3 -->
<g id="node3" class="node">
<title>Node3</title>
<g id="a_node3"><a xlink:href="$structa60_1_1collection__base.html" xlink:title=" ">
<polygon fill="white" stroke="#666666" points="104.5,-132 2.5,-132 2.5,-115 104.5,-115 104.5,-132"/>
<text text-anchor="middle" x="53.5" y="-121.6" font-family="SourceSans" font-size="8.00">a60::collection_base</text>
</a>
</g>
</g>
<!-- Node3&#45;&gt;Node2 -->
<g id="edge2" class="edge">
<title>Node3&#45;&gt;Node2</title>
<path fill="none" stroke="#63b8ff" d="M53.5,-104.91C53.5,-96.08 53.5,-85.85 53.5,-79.06"/>
<polygon fill="#63b8ff" stroke="#63b8ff" points="50,-104.97 53.5,-114.97 57,-104.97 50,-104.97"/>
</g>
</g>
</svg>
