<?xml version="1.0" encoding="UTF-8" standalone="no"?>
<!DOCTYPE svg PUBLIC "-//W3C//DTD SVG 1.1//EN"
 "http://www.w3.org/Graphics/SVG/1.1/DTD/svg11.dtd">
<!-- Generated by graphviz version 5.0.0 (0)
 -->
<!-- Title: a60::media_objects::blade_runner_2049 Pages: 1 -->
<svg width="103pt" height="140pt"
 viewBox="0.00 0.00 103.00 140.00" xmlns="http://www.w3.org/2000/svg" xmlns:xlink="http://www.w3.org/1999/xlink">
<g id="graph0" class="graph" transform="scale(1 1) rotate(0) translate(4 136)">
<title>a60::media_objects::blade_runner_2049</title>
<!-- Node1 -->
<g id="node1" class="node">
<title>Node1</title>
<g id="a_node1"><a xlink:title="Blade Runner.">
<polygon fill="#999999" stroke="#666666" points="95,-26 0,-26 0,0 95,0 95,-26"/>
<text text-anchor="start" x="8" y="-15.6" font-family="SourceSans" font-size="8.00">a60::media_objects</text>
<text text-anchor="middle" x="47.5" y="-6.6" font-family="SourceSans" font-size="8.00">::blade_runner_2049</text>
</a>
</g>
</g>
<!-- Node2 -->
<g id="node2" class="node">
<title>Node2</title>
<g id="a_node2"><a xlink:href="structa60_1_1collection.html" target="_top" xlink:title="All variants of torrents for the same media property.">
<polygon fill="white" stroke="#666666" points="83,-79 12,-79 12,-62 83,-62 83,-79"/>
<text text-anchor="middle" x="47.5" y="-68.6" font-family="SourceSans" font-size="8.00">a60::collection</text>
</a>
</g>
</g>
<!-- Node2&#45;&gt;Node1 -->
<g id="edge1" class="edge">
<title>Node2&#45;&gt;Node1</title>
<path fill="none" stroke="#63b8ff" d="M41.15,-51.68C40.46,-43.41 40.66,-33.79 41.78,-26.34"/>
<polygon fill="#63b8ff" stroke="#63b8ff" points="37.72,-52.41 42.66,-61.78 44.64,-51.38 37.72,-52.41"/>
</g>
<!-- Node2&#45;&gt;Node1 -->
<g id="edge3" class="edge">
<title>Node2&#45;&gt;Node1</title>
<path fill="none" stroke="#63b8ff" d="M53.85,-51.68C54.54,-43.41 54.34,-33.79 53.22,-26.34"/>
<polygon fill="#63b8ff" stroke="#63b8ff" points="50.36,-51.38 52.34,-61.78 57.28,-52.41 50.36,-51.38"/>
</g>
<!-- Node3 -->
<g id="node3" class="node">
<title>Node3</title>
<g id="a_node3"><a xlink:href="structa60_1_1collection__base.html" target="_top" xlink:title=" ">
<polygon fill="white" stroke="#666666" points="93.5,-132 1.5,-132 1.5,-115 93.5,-115 93.5,-132"/>
<text text-anchor="middle" x="47.5" y="-121.6" font-family="SourceSans" font-size="8.00">a60::collection_base</text>
</a>
</g>
</g>
<!-- Node3&#45;&gt;Node2 -->
<g id="edge2" class="edge">
<title>Node3&#45;&gt;Node2</title>
<path fill="none" stroke="#63b8ff" d="M47.5,-104.91C47.5,-96.08 47.5,-85.85 47.5,-79.06"/>
<polygon fill="#63b8ff" stroke="#63b8ff" points="44,-104.97 47.5,-114.97 51,-104.97 44,-104.97"/>
</g>
</g>
</svg>
