<?xml version="1.0" encoding="UTF-8" standalone="no"?>
<!DOCTYPE svg PUBLIC "-//W3C//DTD SVG 1.1//EN"
 "http://www.w3.org/Graphics/SVG/1.1/DTD/svg11.dtd">
<!-- Generated by graphviz version 5.0.0 (0)
 -->
<!-- Title: a60::media_objects::house_of_the_dragon_101 Pages: 1 -->
<svg width="138pt" height="140pt"
 viewBox="0.00 0.00 138.00 140.00" xmlns="http://www.w3.org/2000/svg" xmlns:xlink="http://www.w3.org/1999/xlink">
<g id="graph0" class="graph" transform="scale(1 1) rotate(0) translate(4 136)">
<title>a60::media_objects::house_of_the_dragon_101</title>
<!-- Node1 -->
<g id="node1" class="node">
<title>Node1</title>
<g id="a_node1"><a xlink:title="House of the Dragon.">
<polygon fill="#999999" stroke="#666666" points="130,-26 0,-26 0,0 130,0 130,-26"/>
<text text-anchor="start" x="8" y="-15.6" font-family="SourceSans" font-size="8.00">a60::media_objects</text>
<text text-anchor="middle" x="65" y="-6.6" font-family="SourceSans" font-size="8.00">::house_of_the_dragon_101</text>
</a>
</g>
</g>
<!-- Node2 -->
<g id="node2" class="node">
<title>Node2</title>
<g id="a_node2"><a xlink:href="$structa60_1_1collection.html" xlink:title="All variants of torrents for the same media property.">
<polygon fill="white" stroke="#666666" points="104,-79 26,-79 26,-62 104,-62 104,-79"/>
<text text-anchor="middle" x="65" y="-68.6" font-family="SourceSans" font-size="8.00">a60::collection</text>
</a>
</g>
</g>
<!-- Node2&#45;&gt;Node1 -->
<g id="edge1" class="edge">
<title>Node2&#45;&gt;Node1</title>
<path fill="none" stroke="#63b8ff" d="M58.65,-51.68C57.96,-43.41 58.16,-33.79 59.28,-26.34"/>
<polygon fill="#63b8ff" stroke="#63b8ff" points="55.22,-52.41 60.16,-61.78 62.14,-51.38 55.22,-52.41"/>
</g>
<!-- Node2&#45;&gt;Node1 -->
<g id="edge3" class="edge">
<title>Node2&#45;&gt;Node1</title>
<path fill="none" stroke="#63b8ff" d="M71.35,-51.68C72.04,-43.41 71.84,-33.79 70.72,-26.34"/>
<polygon fill="#63b8ff" stroke="#63b8ff" points="67.86,-51.38 69.84,-61.78 74.78,-52.41 67.86,-51.38"/>
</g>
<!-- Node3 -->
<g id="node3" class="node">
<title>Node3</title>
<g id="a_node3"><a xlink:href="$structa60_1_1collection__base.html" xlink:title=" ">
<polygon fill="white" stroke="#666666" points="116,-132 14,-132 14,-115 116,-115 116,-132"/>
<text text-anchor="middle" x="65" y="-121.6" font-family="SourceSans" font-size="8.00">a60::collection_base</text>
</a>
</g>
</g>
<!-- Node3&#45;&gt;Node2 -->
<g id="edge2" class="edge">
<title>Node3&#45;&gt;Node2</title>
<path fill="none" stroke="#63b8ff" d="M65,-104.91C65,-96.08 65,-85.85 65,-79.06"/>
<polygon fill="#63b8ff" stroke="#63b8ff" points="61.5,-104.97 65,-114.97 68.5,-104.97 61.5,-104.97"/>
</g>
</g>
</svg>
