<?xml version="1.0" encoding="UTF-8" standalone="no"?>
<!DOCTYPE svg PUBLIC "-//W3C//DTD SVG 1.1//EN"
 "http://www.w3.org/Graphics/SVG/1.1/DTD/svg11.dtd">
<!-- Generated by graphviz version 5.0.0 (0)
 -->
<!-- Title: a60::media_objects::better_call_saul_406 Pages: 1 -->
<svg width="106pt" height="140pt"
 viewBox="0.00 0.00 106.00 140.00" xmlns="http://www.w3.org/2000/svg" xmlns:xlink="http://www.w3.org/1999/xlink">
<g id="graph0" class="graph" transform="scale(1 1) rotate(0) translate(4 136)">
<title>a60::media_objects::better_call_saul_406</title>
<!-- Node1 -->
<g id="node1" class="node">
<title>Node1</title>
<g id="a_node1"><a xlink:title=" ">
<polygon fill="#999999" stroke="#666666" points="98,-26 0,-26 0,0 98,0 98,-26"/>
<text text-anchor="start" x="8" y="-15.6" font-family="SourceSans" font-size="8.00">a60::media_objects</text>
<text text-anchor="middle" x="49" y="-6.6" font-family="SourceSans" font-size="8.00">::better_call_saul_406</text>
</a>
</g>
</g>
<!-- Node2 -->
<g id="node2" class="node">
<title>Node2</title>
<g id="a_node2"><a xlink:href="structa60_1_1collection.html" target="_top" xlink:title="All variants of torrents for the same media property.">
<polygon fill="white" stroke="#666666" points="84.5,-79 13.5,-79 13.5,-62 84.5,-62 84.5,-79"/>
<text text-anchor="middle" x="49" y="-68.6" font-family="SourceSans" font-size="8.00">a60::collection</text>
</a>
</g>
</g>
<!-- Node2&#45;&gt;Node1 -->
<g id="edge1" class="edge">
<title>Node2&#45;&gt;Node1</title>
<path fill="none" stroke="#63b8ff" d="M42.65,-51.68C41.96,-43.41 42.16,-33.79 43.28,-26.34"/>
<polygon fill="#63b8ff" stroke="#63b8ff" points="39.22,-52.41 44.16,-61.78 46.14,-51.38 39.22,-52.41"/>
</g>
<!-- Node2&#45;&gt;Node1 -->
<g id="edge3" class="edge">
<title>Node2&#45;&gt;Node1</title>
<path fill="none" stroke="#63b8ff" d="M55.35,-51.68C56.04,-43.41 55.84,-33.79 54.72,-26.34"/>
<polygon fill="#63b8ff" stroke="#63b8ff" points="51.86,-51.38 53.84,-61.78 58.78,-52.41 51.86,-51.38"/>
</g>
<!-- Node3 -->
<g id="node3" class="node">
<title>Node3</title>
<g id="a_node3"><a xlink:href="structa60_1_1collection__base.html" target="_top" xlink:title=" ">
<polygon fill="white" stroke="#666666" points="95,-132 3,-132 3,-115 95,-115 95,-132"/>
<text text-anchor="middle" x="49" y="-121.6" font-family="SourceSans" font-size="8.00">a60::collection_base</text>
</a>
</g>
</g>
<!-- Node3&#45;&gt;Node2 -->
<g id="edge2" class="edge">
<title>Node3&#45;&gt;Node2</title>
<path fill="none" stroke="#63b8ff" d="M49,-104.91C49,-96.08 49,-85.85 49,-79.06"/>
<polygon fill="#63b8ff" stroke="#63b8ff" points="45.5,-104.97 49,-114.97 52.5,-104.97 45.5,-104.97"/>
</g>
</g>
</svg>
