<?xml version="1.0" encoding="UTF-8" standalone="no"?>
<!DOCTYPE svg PUBLIC "-//W3C//DTD SVG 1.1//EN"
 "http://www.w3.org/Graphics/SVG/1.1/DTD/svg11.dtd">
<!-- Generated by graphviz version 5.0.0 (0)
 -->
<!-- Title: a60::media_objects::yoi Pages: 1 -->
<svg width="112pt" height="131pt"
 viewBox="0.00 0.00 112.00 131.00" xmlns="http://www.w3.org/2000/svg" xmlns:xlink="http://www.w3.org/1999/xlink">
<g id="graph0" class="graph" transform="scale(1 1) rotate(0) translate(4 127)">
<title>a60::media_objects::yoi</title>
<!-- Node1 -->
<g id="node1" class="node">
<title>Node1</title>
<g id="a_node1"><a xlink:title=" ">
<polygon fill="#999999" stroke="#666666" points="104,-17 0,-17 0,0 104,0 104,-17"/>
<text text-anchor="middle" x="52" y="-6.6" font-family="SourceSans" font-size="8.00">a60::media_objects::yoi</text>
</a>
</g>
</g>
<!-- Node2 -->
<g id="node2" class="node">
<title>Node2</title>
<g id="a_node2"><a xlink:href="structa60_1_1collection.html" target="_top" xlink:title="All variants of torrents for the same media property.">
<polygon fill="white" stroke="#666666" points="87.5,-70 16.5,-70 16.5,-53 87.5,-53 87.5,-70"/>
<text text-anchor="middle" x="52" y="-59.6" font-family="SourceSans" font-size="8.00">a60::collection</text>
</a>
</g>
</g>
<!-- Node2&#45;&gt;Node1 -->
<g id="edge1" class="edge">
<title>Node2&#45;&gt;Node1</title>
<path fill="none" stroke="#63b8ff" d="M39.14,-43.2C37.7,-34.31 38.68,-23.92 42.07,-17.06"/>
<polygon fill="#63b8ff" stroke="#63b8ff" points="35.85,-44.41 42.09,-52.97 42.55,-42.39 35.85,-44.41"/>
</g>
<!-- Node2&#45;&gt;Node1 -->
<g id="edge3" class="edge">
<title>Node2&#45;&gt;Node1</title>
<path fill="none" stroke="#63b8ff" d="M52,-42.91C52,-34.08 52,-23.85 52,-17.06"/>
<polygon fill="#63b8ff" stroke="#63b8ff" points="48.5,-42.97 52,-52.97 55.5,-42.97 48.5,-42.97"/>
</g>
<!-- Node2&#45;&gt;Node1 -->
<g id="edge4" class="edge">
<title>Node2&#45;&gt;Node1</title>
<path fill="none" stroke="#63b8ff" d="M64.86,-43.2C66.3,-34.31 65.32,-23.92 61.93,-17.06"/>
<polygon fill="#63b8ff" stroke="#63b8ff" points="61.45,-42.39 61.91,-52.97 68.15,-44.41 61.45,-42.39"/>
</g>
<!-- Node3 -->
<g id="node3" class="node">
<title>Node3</title>
<g id="a_node3"><a xlink:href="structa60_1_1collection__base.html" target="_top" xlink:title=" ">
<polygon fill="white" stroke="#666666" points="98,-123 6,-123 6,-106 98,-106 98,-123"/>
<text text-anchor="middle" x="52" y="-112.6" font-family="SourceSans" font-size="8.00">a60::collection_base</text>
</a>
</g>
</g>
<!-- Node3&#45;&gt;Node2 -->
<g id="edge2" class="edge">
<title>Node3&#45;&gt;Node2</title>
<path fill="none" stroke="#63b8ff" d="M52,-95.91C52,-87.08 52,-76.85 52,-70.06"/>
<polygon fill="#63b8ff" stroke="#63b8ff" points="48.5,-95.97 52,-105.97 55.5,-95.97 48.5,-95.97"/>
</g>
</g>
</svg>
