<?xml version="1.0" encoding="UTF-8" standalone="no"?>
<!DOCTYPE svg PUBLIC "-//W3C//DTD SVG 1.1//EN"
 "http://www.w3.org/Graphics/SVG/1.1/DTD/svg11.dtd">
<!-- Generated by graphviz version 5.0.0 (0)
 -->
<!-- Title: a60::media_objects::blade_runner_black_lotus_101 Pages: 1 -->
<svg width="110pt" height="149pt"
 viewBox="0.00 0.00 110.00 149.00" xmlns="http://www.w3.org/2000/svg" xmlns:xlink="http://www.w3.org/1999/xlink">
<g id="graph0" class="graph" transform="scale(1 1) rotate(0) translate(4 145)">
<title>a60::media_objects::blade_runner_black_lotus_101</title>
<!-- Node1 -->
<g id="node1" class="node">
<title>Node1</title>
<g id="a_node1"><a xlink:title=" ">
<polygon fill="#999999" stroke="#666666" points="102,-35 0,-35 0,0 102,0 102,-35"/>
<text text-anchor="start" x="8" y="-24.6" font-family="SourceSans" font-size="8.00">a60::media_objects</text>
<text text-anchor="start" x="8" y="-15.6" font-family="SourceSans" font-size="8.00">::blade_runner_black</text>
<text text-anchor="middle" x="51" y="-6.6" font-family="SourceSans" font-size="8.00">_lotus_101</text>
</a>
</g>
</g>
<!-- Node2 -->
<g id="node2" class="node">
<title>Node2</title>
<g id="a_node2"><a xlink:href="structa60_1_1collection.html" target="_top" xlink:title="All variants of torrents for the same media property.">
<polygon fill="white" stroke="#666666" points="90,-88 12,-88 12,-71 90,-71 90,-88"/>
<text text-anchor="middle" x="51" y="-77.6" font-family="SourceSans" font-size="8.00">a60::collection</text>
</a>
</g>
</g>
<!-- Node2&#45;&gt;Node1 -->
<g id="edge1" class="edge">
<title>Node2&#45;&gt;Node1</title>
<path fill="none" stroke="#63b8ff" d="M44.76,-60.6C44.05,-52.63 44.08,-43.3 44.85,-35.44"/>
<polygon fill="#63b8ff" stroke="#63b8ff" points="41.33,-61.28 46.27,-70.66 48.25,-60.25 41.33,-61.28"/>
</g>
<!-- Node2&#45;&gt;Node1 -->
<g id="edge3" class="edge">
<title>Node2&#45;&gt;Node1</title>
<path fill="none" stroke="#63b8ff" d="M57.24,-60.6C57.95,-52.63 57.92,-43.3 57.15,-35.44"/>
<polygon fill="#63b8ff" stroke="#63b8ff" points="53.75,-60.25 55.73,-70.66 60.67,-61.28 53.75,-60.25"/>
</g>
<!-- Node3 -->
<g id="node3" class="node">
<title>Node3</title>
<g id="a_node3"><a xlink:href="structa60_1_1collection__base.html" target="_top" xlink:title=" ">
<polygon fill="white" stroke="#666666" points="102,-141 0,-141 0,-124 102,-124 102,-141"/>
<text text-anchor="middle" x="51" y="-130.6" font-family="SourceSans" font-size="8.00">a60::collection_base</text>
</a>
</g>
</g>
<!-- Node3&#45;&gt;Node2 -->
<g id="edge2" class="edge">
<title>Node3&#45;&gt;Node2</title>
<path fill="none" stroke="#63b8ff" d="M51,-113.91C51,-105.08 51,-94.85 51,-88.06"/>
<polygon fill="#63b8ff" stroke="#63b8ff" points="47.5,-113.97 51,-123.97 54.5,-113.97 47.5,-113.97"/>
</g>
</g>
</svg>
