<?xml version="1.0" encoding="UTF-8" standalone="no"?>
<!DOCTYPE svg PUBLIC "-//W3C//DTD SVG 1.1//EN"
 "http://www.w3.org/Graphics/SVG/1.1/DTD/svg11.dtd">
<!-- Generated by graphviz version 5.0.0 (0)
 -->
<!-- Title: a60::media_objects::random_acts_of_flyness_106 Pages: 1 -->
<svg width="148pt" height="140pt"
 viewBox="0.00 0.00 148.00 140.00" xmlns="http://www.w3.org/2000/svg" xmlns:xlink="http://www.w3.org/1999/xlink">
<g id="graph0" class="graph" transform="scale(1 1) rotate(0) translate(4 136)">
<title>a60::media_objects::random_acts_of_flyness_106</title>
<!-- Node1 -->
<g id="node1" class="node">
<title>Node1</title>
<g id="a_node1"><a xlink:title=" ">
<polygon fill="#999999" stroke="#666666" points="140,-26 0,-26 0,0 140,0 140,-26"/>
<text text-anchor="start" x="8" y="-15.6" font-family="SourceSans" font-size="8.00">a60::media_objects</text>
<text text-anchor="middle" x="70" y="-6.6" font-family="SourceSans" font-size="8.00">::random_acts_of_flyness_106</text>
</a>
</g>
</g>
<!-- Node2 -->
<g id="node2" class="node">
<title>Node2</title>
<g id="a_node2"><a xlink:href="$structa60_1_1collection.html" xlink:title="All variants of torrents for the same media property.">
<polygon fill="white" stroke="#666666" points="109,-79 31,-79 31,-62 109,-62 109,-79"/>
<text text-anchor="middle" x="70" y="-68.6" font-family="SourceSans" font-size="8.00">a60::collection</text>
</a>
</g>
</g>
<!-- Node2&#45;&gt;Node1 -->
<g id="edge1" class="edge">
<title>Node2&#45;&gt;Node1</title>
<path fill="none" stroke="#63b8ff" d="M63.65,-51.68C62.96,-43.41 63.16,-33.79 64.28,-26.34"/>
<polygon fill="#63b8ff" stroke="#63b8ff" points="60.22,-52.41 65.16,-61.78 67.14,-51.38 60.22,-52.41"/>
</g>
<!-- Node2&#45;&gt;Node1 -->
<g id="edge3" class="edge">
<title>Node2&#45;&gt;Node1</title>
<path fill="none" stroke="#63b8ff" d="M76.35,-51.68C77.04,-43.41 76.84,-33.79 75.72,-26.34"/>
<polygon fill="#63b8ff" stroke="#63b8ff" points="72.86,-51.38 74.84,-61.78 79.78,-52.41 72.86,-51.38"/>
</g>
<!-- Node3 -->
<g id="node3" class="node">
<title>Node3</title>
<g id="a_node3"><a xlink:href="$structa60_1_1collection__base.html" xlink:title=" ">
<polygon fill="white" stroke="#666666" points="121,-132 19,-132 19,-115 121,-115 121,-132"/>
<text text-anchor="middle" x="70" y="-121.6" font-family="SourceSans" font-size="8.00">a60::collection_base</text>
</a>
</g>
</g>
<!-- Node3&#45;&gt;Node2 -->
<g id="edge2" class="edge">
<title>Node3&#45;&gt;Node2</title>
<path fill="none" stroke="#63b8ff" d="M70,-104.91C70,-96.08 70,-85.85 70,-79.06"/>
<polygon fill="#63b8ff" stroke="#63b8ff" points="66.5,-104.97 70,-114.97 73.5,-104.97 66.5,-104.97"/>
</g>
</g>
</svg>
