<?xml version="1.0" encoding="UTF-8" standalone="no"?>
<!DOCTYPE svg PUBLIC "-//W3C//DTD SVG 1.1//EN"
 "http://www.w3.org/Graphics/SVG/1.1/DTD/svg11.dtd">
<!-- Generated by graphviz version 5.0.0 (0)
 -->
<!-- Title: a60::media_objects::one_night_in_miami Pages: 1 -->
<svg width="107pt" height="140pt"
 viewBox="0.00 0.00 107.00 140.00" xmlns="http://www.w3.org/2000/svg" xmlns:xlink="http://www.w3.org/1999/xlink">
<g id="graph0" class="graph" transform="scale(1 1) rotate(0) translate(4 136)">
<title>a60::media_objects::one_night_in_miami</title>
<!-- Node1 -->
<g id="node1" class="node">
<title>Node1</title>
<g id="a_node1"><a xlink:title="One_Night_In_Miami.">
<polygon fill="#999999" stroke="#666666" points="99,-26 0,-26 0,0 99,0 99,-26"/>
<text text-anchor="start" x="8" y="-15.6" font-family="SourceSans" font-size="8.00">a60::media_objects</text>
<text text-anchor="middle" x="49.5" y="-6.6" font-family="SourceSans" font-size="8.00">::one_night_in_miami</text>
</a>
</g>
</g>
<!-- Node2 -->
<g id="node2" class="node">
<title>Node2</title>
<g id="a_node2"><a xlink:href="structa60_1_1collection.html" target="_top" xlink:title="All variants of torrents for the same media property.">
<polygon fill="white" stroke="#666666" points="85,-79 14,-79 14,-62 85,-62 85,-79"/>
<text text-anchor="middle" x="49.5" y="-68.6" font-family="SourceSans" font-size="8.00">a60::collection</text>
</a>
</g>
</g>
<!-- Node2&#45;&gt;Node1 -->
<g id="edge1" class="edge">
<title>Node2&#45;&gt;Node1</title>
<path fill="none" stroke="#63b8ff" d="M43.15,-51.68C42.46,-43.41 42.66,-33.79 43.78,-26.34"/>
<polygon fill="#63b8ff" stroke="#63b8ff" points="39.72,-52.41 44.66,-61.78 46.64,-51.38 39.72,-52.41"/>
</g>
<!-- Node2&#45;&gt;Node1 -->
<g id="edge3" class="edge">
<title>Node2&#45;&gt;Node1</title>
<path fill="none" stroke="#63b8ff" d="M55.85,-51.68C56.54,-43.41 56.34,-33.79 55.22,-26.34"/>
<polygon fill="#63b8ff" stroke="#63b8ff" points="52.36,-51.38 54.34,-61.78 59.28,-52.41 52.36,-51.38"/>
</g>
<!-- Node3 -->
<g id="node3" class="node">
<title>Node3</title>
<g id="a_node3"><a xlink:href="structa60_1_1collection__base.html" target="_top" xlink:title=" ">
<polygon fill="white" stroke="#666666" points="95.5,-132 3.5,-132 3.5,-115 95.5,-115 95.5,-132"/>
<text text-anchor="middle" x="49.5" y="-121.6" font-family="SourceSans" font-size="8.00">a60::collection_base</text>
</a>
</g>
</g>
<!-- Node3&#45;&gt;Node2 -->
<g id="edge2" class="edge">
<title>Node3&#45;&gt;Node2</title>
<path fill="none" stroke="#63b8ff" d="M49.5,-104.91C49.5,-96.08 49.5,-85.85 49.5,-79.06"/>
<polygon fill="#63b8ff" stroke="#63b8ff" points="46,-104.97 49.5,-114.97 53,-104.97 46,-104.97"/>
</g>
</g>
</svg>
