<?xml version="1.0" encoding="UTF-8" standalone="no"?>
<!DOCTYPE svg PUBLIC "-//W3C//DTD SVG 1.1//EN"
 "http://www.w3.org/Graphics/SVG/1.1/DTD/svg11.dtd">
<!-- Generated by graphviz version 5.0.0 (0)
 -->
<!-- Title: a60::media_objects::star_wars_tales_of_the_jedi Pages: 1 -->
<svg width="100pt" height="149pt"
 viewBox="0.00 0.00 100.00 149.00" xmlns="http://www.w3.org/2000/svg" xmlns:xlink="http://www.w3.org/1999/xlink">
<g id="graph0" class="graph" transform="scale(1 1) rotate(0) translate(4 145)">
<title>a60::media_objects::star_wars_tales_of_the_jedi</title>
<!-- Node1 -->
<g id="node1" class="node">
<title>Node1</title>
<g id="a_node1"><a xlink:title="Star Wars Tales of the Jedi.">
<polygon fill="#999999" stroke="#666666" points="90.5,-35 1.5,-35 1.5,0 90.5,0 90.5,-35"/>
<text text-anchor="start" x="9.5" y="-24.6" font-family="SourceSans" font-size="8.00">a60::media_objects</text>
<text text-anchor="start" x="9.5" y="-15.6" font-family="SourceSans" font-size="8.00">::star_wars_tales_of</text>
<text text-anchor="middle" x="46" y="-6.6" font-family="SourceSans" font-size="8.00">_the_jedi</text>
</a>
</g>
</g>
<!-- Node2 -->
<g id="node2" class="node">
<title>Node2</title>
<g id="a_node2"><a xlink:href="structa60_1_1collection.html" target="_top" xlink:title="All variants of torrents for the same media property.">
<polygon fill="white" stroke="#666666" points="81.5,-88 10.5,-88 10.5,-71 81.5,-71 81.5,-88"/>
<text text-anchor="middle" x="46" y="-77.6" font-family="SourceSans" font-size="8.00">a60::collection</text>
</a>
</g>
</g>
<!-- Node2&#45;&gt;Node1 -->
<g id="edge1" class="edge">
<title>Node2&#45;&gt;Node1</title>
<path fill="none" stroke="#63b8ff" d="M39.76,-60.6C39.05,-52.63 39.08,-43.3 39.85,-35.44"/>
<polygon fill="#63b8ff" stroke="#63b8ff" points="36.33,-61.28 41.27,-70.66 43.25,-60.25 36.33,-61.28"/>
</g>
<!-- Node2&#45;&gt;Node1 -->
<g id="edge3" class="edge">
<title>Node2&#45;&gt;Node1</title>
<path fill="none" stroke="#63b8ff" d="M52.24,-60.6C52.95,-52.63 52.92,-43.3 52.15,-35.44"/>
<polygon fill="#63b8ff" stroke="#63b8ff" points="48.75,-60.25 50.73,-70.66 55.67,-61.28 48.75,-60.25"/>
</g>
<!-- Node3 -->
<g id="node3" class="node">
<title>Node3</title>
<g id="a_node3"><a xlink:href="structa60_1_1collection__base.html" target="_top" xlink:title=" ">
<polygon fill="white" stroke="#666666" points="92,-141 0,-141 0,-124 92,-124 92,-141"/>
<text text-anchor="middle" x="46" y="-130.6" font-family="SourceSans" font-size="8.00">a60::collection_base</text>
</a>
</g>
</g>
<!-- Node3&#45;&gt;Node2 -->
<g id="edge2" class="edge">
<title>Node3&#45;&gt;Node2</title>
<path fill="none" stroke="#63b8ff" d="M46,-113.91C46,-105.08 46,-94.85 46,-88.06"/>
<polygon fill="#63b8ff" stroke="#63b8ff" points="42.5,-113.97 46,-123.97 49.5,-113.97 42.5,-113.97"/>
</g>
</g>
</svg>
