<?xml version="1.0" encoding="UTF-8" standalone="no"?>
<!DOCTYPE svg PUBLIC "-//W3C//DTD SVG 1.1//EN"
 "http://www.w3.org/Graphics/SVG/1.1/DTD/svg11.dtd">
<!-- Generated by graphviz version 5.0.0 (0)
 -->
<!-- Title: a60::media_objects::westworld_109 Pages: 1 -->
<svg width="100pt" height="140pt"
 viewBox="0.00 0.00 100.00 140.00" xmlns="http://www.w3.org/2000/svg" xmlns:xlink="http://www.w3.org/1999/xlink">
<g id="graph0" class="graph" transform="scale(1 1) rotate(0) translate(4 136)">
<title>a60::media_objects::westworld_109</title>
<!-- Node1 -->
<g id="node1" class="node">
<title>Node1</title>
<g id="a_node1"><a xlink:title=" ">
<polygon fill="#999999" stroke="#666666" points="90.5,-26 1.5,-26 1.5,0 90.5,0 90.5,-26"/>
<text text-anchor="start" x="9.5" y="-15.6" font-family="SourceSans" font-size="8.00">a60::media_objects</text>
<text text-anchor="middle" x="46" y="-6.6" font-family="SourceSans" font-size="8.00">::westworld_109</text>
</a>
</g>
</g>
<!-- Node2 -->
<g id="node2" class="node">
<title>Node2</title>
<g id="a_node2"><a xlink:href="structa60_1_1collection.html" target="_top" xlink:title="All variants of torrents for the same media property.">
<polygon fill="white" stroke="#666666" points="81.5,-79 10.5,-79 10.5,-62 81.5,-62 81.5,-79"/>
<text text-anchor="middle" x="46" y="-68.6" font-family="SourceSans" font-size="8.00">a60::collection</text>
</a>
</g>
</g>
<!-- Node2&#45;&gt;Node1 -->
<g id="edge1" class="edge">
<title>Node2&#45;&gt;Node1</title>
<path fill="none" stroke="#63b8ff" d="M33.35,-51.96C31.9,-43.63 32.3,-33.88 34.55,-26.34"/>
<polygon fill="#63b8ff" stroke="#63b8ff" points="30.07,-53.22 36.31,-61.78 36.77,-51.2 30.07,-53.22"/>
</g>
<!-- Node2&#45;&gt;Node1 -->
<g id="edge3" class="edge">
<title>Node2&#45;&gt;Node1</title>
<path fill="none" stroke="#63b8ff" d="M46,-51.68C46,-43.41 46,-33.79 46,-26.34"/>
<polygon fill="#63b8ff" stroke="#63b8ff" points="42.5,-51.78 46,-61.78 49.5,-51.78 42.5,-51.78"/>
</g>
<!-- Node2&#45;&gt;Node1 -->
<g id="edge4" class="edge">
<title>Node2&#45;&gt;Node1</title>
<path fill="none" stroke="#63b8ff" d="M58.65,-51.96C60.1,-43.63 59.7,-33.88 57.45,-26.34"/>
<polygon fill="#63b8ff" stroke="#63b8ff" points="55.23,-51.2 55.69,-61.78 61.93,-53.22 55.23,-51.2"/>
</g>
<!-- Node3 -->
<g id="node3" class="node">
<title>Node3</title>
<g id="a_node3"><a xlink:href="structa60_1_1collection__base.html" target="_top" xlink:title=" ">
<polygon fill="white" stroke="#666666" points="92,-132 0,-132 0,-115 92,-115 92,-132"/>
<text text-anchor="middle" x="46" y="-121.6" font-family="SourceSans" font-size="8.00">a60::collection_base</text>
</a>
</g>
</g>
<!-- Node3&#45;&gt;Node2 -->
<g id="edge2" class="edge">
<title>Node3&#45;&gt;Node2</title>
<path fill="none" stroke="#63b8ff" d="M46,-104.91C46,-96.08 46,-85.85 46,-79.06"/>
<polygon fill="#63b8ff" stroke="#63b8ff" points="42.5,-104.97 46,-114.97 49.5,-104.97 42.5,-104.97"/>
</g>
</g>
</svg>
