<?xml version="1.0" encoding="UTF-8" standalone="no"?>
<!DOCTYPE svg PUBLIC "-//W3C//DTD SVG 1.1//EN"
 "http://www.w3.org/Graphics/SVG/1.1/DTD/svg11.dtd">
<!-- Generated by graphviz version 5.0.0 (0)
 -->
<!-- Title: a60::swarm_gcache Pages: 1 -->
<svg width="110pt" height="131pt"
 viewBox="0.00 0.00 110.00 131.00" xmlns="http://www.w3.org/2000/svg" xmlns:xlink="http://www.w3.org/1999/xlink">
<g id="graph0" class="graph" transform="scale(1 1) rotate(0) translate(4 127)">
<title>a60::swarm_gcache</title>
<!-- Node1 -->
<g id="node1" class="node">
<title>Node1</title>
<g id="a_node1"><a xlink:title=" ">
<polygon fill="#999999" stroke="#666666" points="100.5,-17 1.5,-17 1.5,0 100.5,0 100.5,-17"/>
<text text-anchor="middle" x="51" y="-6.6" font-family="SourceSans" font-size="8.00">a60::swarm_gcache</text>
</a>
</g>
</g>
<!-- Node2 -->
<g id="node2" class="node">
<title>Node2</title>
<g id="a_node2"><a xlink:href="structa60_1_1collection.html" target="_top" xlink:title="All variants of torrents for the same media property.">
<polygon fill="white" stroke="#666666" points="90,-70 12,-70 12,-53 90,-53 90,-70"/>
<text text-anchor="middle" x="51" y="-59.6" font-family="SourceSans" font-size="8.00">a60::collection</text>
</a>
</g>
</g>
<!-- Node2&#45;&gt;Node1 -->
<g id="edge1" class="edge">
<title>Node2&#45;&gt;Node1</title>
<path fill="none" stroke="#63b8ff" d="M51,-42.91C51,-34.08 51,-23.85 51,-17.06"/>
<polygon fill="#63b8ff" stroke="#63b8ff" points="47.5,-42.97 51,-52.97 54.5,-42.97 47.5,-42.97"/>
</g>
<!-- Node3 -->
<g id="node3" class="node">
<title>Node3</title>
<g id="a_node3"><a xlink:href="structa60_1_1collection__base.html" target="_top" xlink:title=" ">
<polygon fill="white" stroke="#666666" points="102,-123 0,-123 0,-106 102,-106 102,-123"/>
<text text-anchor="middle" x="51" y="-112.6" font-family="SourceSans" font-size="8.00">a60::collection_base</text>
</a>
</g>
</g>
<!-- Node3&#45;&gt;Node2 -->
<g id="edge2" class="edge">
<title>Node3&#45;&gt;Node2</title>
<path fill="none" stroke="#63b8ff" d="M51,-95.91C51,-87.08 51,-76.85 51,-70.06"/>
<polygon fill="#63b8ff" stroke="#63b8ff" points="47.5,-95.97 51,-105.97 54.5,-95.97 47.5,-95.97"/>
</g>
</g>
</svg>
