<?xml version="1.0" encoding="UTF-8" standalone="no"?>
<!DOCTYPE svg PUBLIC "-//W3C//DTD SVG 1.1//EN"
 "http://www.w3.org/Graphics/SVG/1.1/DTD/svg11.dtd">
<!-- Generated by graphviz version 5.0.0 (0)
 -->
<!-- Title: a60::media_objects::book_of_boba_fett_107 Pages: 1 -->
<svg width="117pt" height="140pt"
 viewBox="0.00 0.00 117.00 140.00" xmlns="http://www.w3.org/2000/svg" xmlns:xlink="http://www.w3.org/1999/xlink">
<g id="graph0" class="graph" transform="scale(1 1) rotate(0) translate(4 136)">
<title>a60::media_objects::book_of_boba_fett_107</title>
<!-- Node1 -->
<g id="node1" class="node">
<title>Node1</title>
<g id="a_node1"><a xlink:title="Book of Boba Fett 107.">
<polygon fill="#999999" stroke="#666666" points="109,-26 0,-26 0,0 109,0 109,-26"/>
<text text-anchor="start" x="8" y="-15.6" font-family="SourceSans" font-size="8.00">a60::media_objects</text>
<text text-anchor="middle" x="54.5" y="-6.6" font-family="SourceSans" font-size="8.00">::book_of_boba_fett_107</text>
</a>
</g>
</g>
<!-- Node2 -->
<g id="node2" class="node">
<title>Node2</title>
<g id="a_node2"><a xlink:href="structa60_1_1collection.html" target="_top" xlink:title="All variants of torrents for the same media property.">
<polygon fill="white" stroke="#666666" points="90,-79 19,-79 19,-62 90,-62 90,-79"/>
<text text-anchor="middle" x="54.5" y="-68.6" font-family="SourceSans" font-size="8.00">a60::collection</text>
</a>
</g>
</g>
<!-- Node2&#45;&gt;Node1 -->
<g id="edge1" class="edge">
<title>Node2&#45;&gt;Node1</title>
<path fill="none" stroke="#63b8ff" d="M48.15,-51.68C47.46,-43.41 47.66,-33.79 48.78,-26.34"/>
<polygon fill="#63b8ff" stroke="#63b8ff" points="44.72,-52.41 49.66,-61.78 51.64,-51.38 44.72,-52.41"/>
</g>
<!-- Node2&#45;&gt;Node1 -->
<g id="edge3" class="edge">
<title>Node2&#45;&gt;Node1</title>
<path fill="none" stroke="#63b8ff" d="M60.85,-51.68C61.54,-43.41 61.34,-33.79 60.22,-26.34"/>
<polygon fill="#63b8ff" stroke="#63b8ff" points="57.36,-51.38 59.34,-61.78 64.28,-52.41 57.36,-51.38"/>
</g>
<!-- Node3 -->
<g id="node3" class="node">
<title>Node3</title>
<g id="a_node3"><a xlink:href="structa60_1_1collection__base.html" target="_top" xlink:title=" ">
<polygon fill="white" stroke="#666666" points="100.5,-132 8.5,-132 8.5,-115 100.5,-115 100.5,-132"/>
<text text-anchor="middle" x="54.5" y="-121.6" font-family="SourceSans" font-size="8.00">a60::collection_base</text>
</a>
</g>
</g>
<!-- Node3&#45;&gt;Node2 -->
<g id="edge2" class="edge">
<title>Node3&#45;&gt;Node2</title>
<path fill="none" stroke="#63b8ff" d="M54.5,-104.91C54.5,-96.08 54.5,-85.85 54.5,-79.06"/>
<polygon fill="#63b8ff" stroke="#63b8ff" points="51,-104.97 54.5,-114.97 58,-104.97 51,-104.97"/>
</g>
</g>
</svg>
