<?xml version="1.0" encoding="UTF-8" standalone="no"?>
<!DOCTYPE svg PUBLIC "-//W3C//DTD SVG 1.1//EN"
 "http://www.w3.org/Graphics/SVG/1.1/DTD/svg11.dtd">
<!-- Generated by graphviz version 5.0.0 (0)
 -->
<!-- Title: a60::carto::projection_api Pages: 1 -->
<svg width="188pt" height="78pt"
 viewBox="0.00 0.00 187.50 78.00" xmlns="http://www.w3.org/2000/svg" xmlns:xlink="http://www.w3.org/1999/xlink">
<g id="graph0" class="graph" transform="scale(1 1) rotate(0) translate(4 74)">
<title>a60::carto::projection_api</title>
<!-- Node1 -->
<g id="node1" class="node">
<title>Node1</title>
<g id="a_node1"><a xlink:title="Abstract base class for derived projections.">
<polygon fill="#999999" stroke="#666666" points="145.5,-70 33.5,-70 33.5,-53 145.5,-53 145.5,-70"/>
<text text-anchor="middle" x="89.5" y="-59.6" font-family="SourceSans" font-size="8.00">a60::carto::projection_api</text>
</a>
</g>
</g>
<!-- Node2 -->
<g id="node2" class="node">
<title>Node2</title>
<g id="a_node2"><a xlink:href="structa60_1_1carto_1_1ckproj.html" target="_top" xlink:title=" ">
<polygon fill="white" stroke="#666666" points="81,-17 0,-17 0,0 81,0 81,-17"/>
<text text-anchor="middle" x="40.5" y="-6.6" font-family="SourceSans" font-size="8.00">a60::carto::ckproj</text>
</a>
</g>
</g>
<!-- Node1&#45;&gt;Node2 -->
<g id="edge1" class="edge">
<title>Node1&#45;&gt;Node2</title>
<path fill="none" stroke="#63b8ff" d="M75.1,-45.51C66.11,-36.16 54.94,-24.53 47.76,-17.06"/>
<polygon fill="#63b8ff" stroke="#63b8ff" points="72.82,-48.19 82.27,-52.97 77.87,-43.34 72.82,-48.19"/>
</g>
<!-- Node3 -->
<g id="node3" class="node">
<title>Node3</title>
<g id="a_node3"><a xlink:href="structa60_1_1carto_1_1erproj.html" target="_top" xlink:title=" ">
<polygon fill="white" stroke="#666666" points="179.5,-17 99.5,-17 99.5,0 179.5,0 179.5,-17"/>
<text text-anchor="middle" x="139.5" y="-6.6" font-family="SourceSans" font-size="8.00">a60::carto::erproj</text>
</a>
</g>
</g>
<!-- Node1&#45;&gt;Node3 -->
<g id="edge2" class="edge">
<title>Node1&#45;&gt;Node3</title>
<path fill="none" stroke="#63b8ff" d="M103.92,-45.79C113.13,-36.39 124.7,-24.6 132.09,-17.06"/>
<polygon fill="#63b8ff" stroke="#63b8ff" points="101.38,-43.38 96.88,-52.97 106.38,-48.28 101.38,-43.38"/>
</g>
</g>
</svg>
