<?xml version="1.0" encoding="UTF-8" standalone="no"?>
<!DOCTYPE svg PUBLIC "-//W3C//DTD SVG 1.1//EN"
 "http://www.w3.org/Graphics/SVG/1.1/DTD/svg11.dtd">
<!-- Generated by graphviz version 5.0.0 (0)
 -->
<!-- Title: a60::media_objects::njp Pages: 1 -->
<svg width="124pt" height="131pt"
 viewBox="0.00 0.00 124.00 131.00" xmlns="http://www.w3.org/2000/svg" xmlns:xlink="http://www.w3.org/1999/xlink">
<g id="graph0" class="graph" transform="scale(1 1) rotate(0) translate(4 127)">
<title>a60::media_objects::njp</title>
<!-- Node1 -->
<g id="node1" class="node">
<title>Node1</title>
<g id="a_node1"><a xlink:title=" ">
<polygon fill="#999999" stroke="#666666" points="116,-17 0,-17 0,0 116,0 116,-17"/>
<text text-anchor="middle" x="58" y="-6.6" font-family="SourceSans" font-size="8.00">a60::media_objects::njp</text>
</a>
</g>
</g>
<!-- Node2 -->
<g id="node2" class="node">
<title>Node2</title>
<g id="a_node2"><a xlink:href="$structa60_1_1collection.html" xlink:title="All variants of torrents for the same media property.">
<polygon fill="white" stroke="#666666" points="97,-70 19,-70 19,-53 97,-53 97,-70"/>
<text text-anchor="middle" x="58" y="-59.6" font-family="SourceSans" font-size="8.00">a60::collection</text>
</a>
</g>
</g>
<!-- Node2&#45;&gt;Node1 -->
<g id="edge1" class="edge">
<title>Node2&#45;&gt;Node1</title>
<path fill="none" stroke="#63b8ff" d="M51.55,-42.91C50.86,-34.08 51.36,-23.85 53.04,-17.06"/>
<polygon fill="#63b8ff" stroke="#63b8ff" points="48.11,-43.6 53.04,-52.97 55.04,-42.57 48.11,-43.6"/>
</g>
<!-- Node2&#45;&gt;Node1 -->
<g id="edge3" class="edge">
<title>Node2&#45;&gt;Node1</title>
<path fill="none" stroke="#63b8ff" d="M64.45,-42.91C65.14,-34.08 64.64,-23.85 62.96,-17.06"/>
<polygon fill="#63b8ff" stroke="#63b8ff" points="60.96,-42.57 62.96,-52.97 67.89,-43.6 60.96,-42.57"/>
</g>
<!-- Node3 -->
<g id="node3" class="node">
<title>Node3</title>
<g id="a_node3"><a xlink:href="$structa60_1_1collection__base.html" xlink:title=" ">
<polygon fill="white" stroke="#666666" points="109,-123 7,-123 7,-106 109,-106 109,-123"/>
<text text-anchor="middle" x="58" y="-112.6" font-family="SourceSans" font-size="8.00">a60::collection_base</text>
</a>
</g>
</g>
<!-- Node3&#45;&gt;Node2 -->
<g id="edge2" class="edge">
<title>Node3&#45;&gt;Node2</title>
<path fill="none" stroke="#63b8ff" d="M58,-95.91C58,-87.08 58,-76.85 58,-70.06"/>
<polygon fill="#63b8ff" stroke="#63b8ff" points="54.5,-95.97 58,-105.97 61.5,-95.97 54.5,-95.97"/>
</g>
</g>
</svg>
