<?xml version="1.0" encoding="UTF-8" standalone="no"?>
<!DOCTYPE svg PUBLIC "-//W3C//DTD SVG 1.1//EN"
 "http://www.w3.org/Graphics/SVG/1.1/DTD/svg11.dtd">
<!-- Generated by graphviz version 5.0.0 (0)
 -->
<!-- Title: a60::media_objects::marvelous_maisel_3 Pages: 1 -->
<svg width="105pt" height="140pt"
 viewBox="0.00 0.00 105.00 140.00" xmlns="http://www.w3.org/2000/svg" xmlns:xlink="http://www.w3.org/1999/xlink">
<g id="graph0" class="graph" transform="scale(1 1) rotate(0) translate(4 136)">
<title>a60::media_objects::marvelous_maisel_3</title>
<!-- Node1 -->
<g id="node1" class="node">
<title>Node1</title>
<g id="a_node1"><a xlink:title=" ">
<polygon fill="#999999" stroke="#666666" points="97,-26 0,-26 0,0 97,0 97,-26"/>
<text text-anchor="start" x="8" y="-15.6" font-family="SourceSans" font-size="8.00">a60::media_objects</text>
<text text-anchor="middle" x="48.5" y="-6.6" font-family="SourceSans" font-size="8.00">::marvelous_maisel_3</text>
</a>
</g>
</g>
<!-- Node2 -->
<g id="node2" class="node">
<title>Node2</title>
<g id="a_node2"><a xlink:href="structa60_1_1collection.html" target="_top" xlink:title="All variants of torrents for the same media property.">
<polygon fill="white" stroke="#666666" points="84,-79 13,-79 13,-62 84,-62 84,-79"/>
<text text-anchor="middle" x="48.5" y="-68.6" font-family="SourceSans" font-size="8.00">a60::collection</text>
</a>
</g>
</g>
<!-- Node2&#45;&gt;Node1 -->
<g id="edge1" class="edge">
<title>Node2&#45;&gt;Node1</title>
<path fill="none" stroke="#63b8ff" d="M42.15,-51.68C41.46,-43.41 41.66,-33.79 42.78,-26.34"/>
<polygon fill="#63b8ff" stroke="#63b8ff" points="38.72,-52.41 43.66,-61.78 45.64,-51.38 38.72,-52.41"/>
</g>
<!-- Node2&#45;&gt;Node1 -->
<g id="edge3" class="edge">
<title>Node2&#45;&gt;Node1</title>
<path fill="none" stroke="#63b8ff" d="M54.85,-51.68C55.54,-43.41 55.34,-33.79 54.22,-26.34"/>
<polygon fill="#63b8ff" stroke="#63b8ff" points="51.36,-51.38 53.34,-61.78 58.28,-52.41 51.36,-51.38"/>
</g>
<!-- Node3 -->
<g id="node3" class="node">
<title>Node3</title>
<g id="a_node3"><a xlink:href="structa60_1_1collection__base.html" target="_top" xlink:title=" ">
<polygon fill="white" stroke="#666666" points="94.5,-132 2.5,-132 2.5,-115 94.5,-115 94.5,-132"/>
<text text-anchor="middle" x="48.5" y="-121.6" font-family="SourceSans" font-size="8.00">a60::collection_base</text>
</a>
</g>
</g>
<!-- Node3&#45;&gt;Node2 -->
<g id="edge2" class="edge">
<title>Node3&#45;&gt;Node2</title>
<path fill="none" stroke="#63b8ff" d="M48.5,-104.91C48.5,-96.08 48.5,-85.85 48.5,-79.06"/>
<polygon fill="#63b8ff" stroke="#63b8ff" points="45,-104.97 48.5,-114.97 52,-104.97 45,-104.97"/>
</g>
</g>
</svg>
