<?xml version="1.0" encoding="UTF-8" standalone="no"?>
<!DOCTYPE svg PUBLIC "-//W3C//DTD SVG 1.1//EN"
 "http://www.w3.org/Graphics/SVG/1.1/DTD/svg11.dtd">
<!-- Generated by graphviz version 5.0.0 (0)
 -->
<!-- Title: /home/bkoz/src/alpha60/src/a60&#45;torrent.h Pages: 1 -->
<!--zoomable 308 -->
<svg id="main" version="1.1" xmlns="http://www.w3.org/2000/svg" xmlns:xlink="http://www.w3.org/1999/xlink" xml:space="preserve" onload="init(evt)">
<style type="text/css"><![CDATA[
.edge:hover path { stroke: red; }
.edge:hover polygon { stroke: red; fill: red; }
]]></style>
<script type="text/javascript"><![CDATA[
var edges = document.getElementsByTagName('g');
if (edges && edges.length) {
  for (var i=0;i<edges.length;i++) {
    if (edges[i].id.substr(0,4)=='edge') {
      edges[i].setAttribute('class','edge');
    }
  }
}
]]></script>
        <defs>
                <circle id="rim" cx="0" cy="0" r="7"/>
                <circle id="rim2" cx="0" cy="0" r="3.5"/>
                <g id="zoomPlus">
                        <use xlink:href="#rim" fill="#404040">
                                <set attributeName="fill" to="#808080" begin="zoomplus.mouseover" end="zoomplus.mouseout"/>
                        </use>
                        <path d="M-4,0h8M0,-4v8" fill="none" stroke="white" stroke-width="1.5" pointer-events="none"/>
                </g>
                <g id="zoomMin">
                        <use xlink:href="#rim" fill="#404040">
                                <set attributeName="fill" to="#808080" begin="zoomminus.mouseover" end="zoomminus.mouseout"/>
                        </use>
                        <path d="M-4,0h8" fill="none" stroke="white" stroke-width="1.5" pointer-events="none"/>
                </g>
                <g id="dirArrow">
                        <path fill="none" stroke="white" stroke-width="1.5" d="M0,-3.0v7 M-2.5,-0.5L0,-3.0L2.5,-0.5"/>
                </g>
               <g id="resetDef">
                       <use xlink:href="#rim2" fill="#404040">
                               <set attributeName="fill" to="#808080" begin="reset.mouseover" end="reset.mouseout"/>
                       </use>
               </g>
        </defs>

<script type="text/javascript">
var viewWidth = 2219;
var viewHeight = 308;
var sectionId = 'dynsection-0';
</script>
<script xlink:href="svgpan.js"/>
<svg id="graph" class="graph">
<g id="viewport">
<title>/home/bkoz/src/alpha60/src/a60&#45;torrent.h</title>
<!-- Node1 -->
<g id="node1" class="node">
<title>Node1</title>
<g id="a_node1"><a xlink:title=" ">
<polygon fill="#999999" stroke="#666666" points="571,-300 455,-300 455,-274 571,-274 571,-300"/>
<text text-anchor="start" x="463" y="-289.6" font-family="SourceSans" font-size="8.00">/home/bkoz/src/alpha60</text>
<text text-anchor="middle" x="513" y="-280.6" font-family="SourceSans" font-size="8.00">/src/a60&#45;torrent.h</text>
</a>
</g>
</g>
<!-- Node2 -->
<g id="node2" class="node">
<title>Node2</title>
<g id="a_node2"><a xlink:title=" ">
<polygon fill="#e0e0e0" stroke="#999999" points="389,-238 335,-238 335,-221 389,-221 389,-238"/>
<text text-anchor="middle" x="362" y="-227.6" font-family="SourceSans" font-size="8.00">cinttypes</text>
</a>
</g>
</g>
<!-- Node1&#45;&gt;Node2 -->
<g id="edge1" class="edge">
<title>Node1&#45;&gt;Node2</title>
<path fill="none" stroke="#63b8ff" d="M480.24,-273.96C454.05,-264.33 417.63,-250.95 392.15,-241.58"/>
<polygon fill="#63b8ff" stroke="#63b8ff" points="393.23,-238.25 382.64,-238.09 390.82,-244.82 393.23,-238.25"/>
</g>
<!-- Node3 -->
<g id="node3" class="node">
<title>Node3</title>
<g id="a_node3"><a xlink:title=" ">
<polygon fill="#e0e0e0" stroke="#999999" points="446.5,-238 407.5,-238 407.5,-221 446.5,-221 446.5,-238"/>
<text text-anchor="middle" x="427" y="-227.6" font-family="SourceSans" font-size="8.00">ctime</text>
</a>
</g>
</g>
<!-- Node1&#45;&gt;Node3 -->
<g id="edge2" class="edge">
<title>Node1&#45;&gt;Node3</title>
<path fill="none" stroke="#63b8ff" d="M494.34,-273.96C480.48,-265.01 461.59,-252.82 447.35,-243.63"/>
<polygon fill="#63b8ff" stroke="#63b8ff" points="449.05,-240.57 438.75,-238.09 445.26,-246.45 449.05,-240.57"/>
</g>
<!-- Node4 -->
<g id="node4" class="node">
<title>Node4</title>
<g id="a_node4"><a xlink:title=" ">
<polygon fill="#e0e0e0" stroke="#999999" points="599.5,-70 552.5,-70 552.5,-53 599.5,-53 599.5,-70"/>
<text text-anchor="middle" x="576" y="-59.6" font-family="SourceSans" font-size="8.00">fstream</text>
</a>
</g>
</g>
<!-- Node1&#45;&gt;Node4 -->
<g id="edge3" class="edge">
<title>Node1&#45;&gt;Node4</title>
<path fill="none" stroke="#63b8ff" d="M516.61,-273.78C519.46,-264.09 523.52,-250.19 527,-238 543.47,-180.29 562.44,-111.74 571.16,-80.1"/>
<polygon fill="#63b8ff" stroke="#63b8ff" points="574.6,-80.78 573.88,-70.21 567.85,-78.92 574.6,-80.78"/>
</g>
<!-- Node5 -->
<g id="node5" class="node">
<title>Node5</title>
<g id="a_node5"><a xlink:title=" ">
<polygon fill="#e0e0e0" stroke="#999999" points="50,-17 0,-17 0,0 50,0 50,-17"/>
<text text-anchor="middle" x="25" y="-6.6" font-family="SourceSans" font-size="8.00">iomanip</text>
</a>
</g>
</g>
<!-- Node1&#45;&gt;Node5 -->
<g id="edge4" class="edge">
<title>Node1&#45;&gt;Node5</title>
<path fill="none" stroke="#63b8ff" d="M506.03,-273.91C495.06,-253.71 475,-211.5 475,-173 475,-173 475,-173 475,-113.5 475,-110.84 165.86,-41.14 60.03,-17.36"/>
<polygon fill="#63b8ff" stroke="#63b8ff" points="60.68,-13.92 50.16,-15.14 59.15,-20.75 60.68,-13.92"/>
</g>
<!-- Node6 -->
<g id="node6" class="node">
<title>Node6</title>
<g id="a_node6"><a xlink:title=" ">
<polygon fill="#e0e0e0" stroke="#999999" points="1352.5,-238 1309.5,-238 1309.5,-221 1352.5,-221 1352.5,-238"/>
<text text-anchor="middle" x="1331" y="-227.6" font-family="SourceSans" font-size="8.00">thread</text>
</a>
</g>
</g>
<!-- Node1&#45;&gt;Node6 -->
<g id="edge5" class="edge">
<title>Node1&#45;&gt;Node6</title>
<path fill="none" stroke="#63b8ff" d="M571.13,-285.95C700.43,-285.09 1021.64,-278.79 1299.15,-237.77"/>
<polygon fill="#63b8ff" stroke="#63b8ff" points="1300.04,-241.18 1309.42,-236.24 1299.01,-234.26 1300.04,-241.18"/>
</g>
<!-- Node7 -->
<g id="node7" class="node">
<title>Node7</title>
<g id="a_node7"><a xlink:title=" ">
<polygon fill="#e0e0e0" stroke="#999999" points="112,-17 68,-17 68,0 112,0 112,-17"/>
<text text-anchor="middle" x="90" y="-6.6" font-family="SourceSans" font-size="8.00">chrono</text>
</a>
</g>
</g>
<!-- Node1&#45;&gt;Node7 -->
<g id="edge6" class="edge">
<title>Node1&#45;&gt;Node7</title>
<path fill="none" stroke="#63b8ff" d="M513,-273.79C513,-253.07 513,-209.69 513,-173 513,-173 513,-173 513,-113.5 513,-84.57 512.11,-70.4 489,-53 425.66,-5.32 217.39,-28.88 122.21,-16.76"/>
<polygon fill="#63b8ff" stroke="#63b8ff" points="122.68,-13.29 112.27,-15.28 121.65,-20.21 122.68,-13.29"/>
</g>
<!-- Node8 -->
<g id="node8" class="node">
<title>Node8</title>
<g id="a_node8"><a xlink:href="a60-peer_8h.html" target="_top" xlink:title=" ">
<polygon fill="white" stroke="#666666" points="1291,-238 1229,-238 1229,-221 1291,-221 1291,-238"/>
<text text-anchor="middle" x="1260" y="-227.6" font-family="SourceSans" font-size="8.00">a60&#45;peer.h</text>
</a>
</g>
</g>
<!-- Node1&#45;&gt;Node8 -->
<g id="edge7" class="edge">
<title>Node1&#45;&gt;Node8</title>
<path fill="none" stroke="#63b8ff" d="M571.3,-281.67C716.77,-270.86 1093.03,-242.91 1218.55,-233.58"/>
<polygon fill="#63b8ff" stroke="#63b8ff" points="1219.16,-237.04 1228.88,-232.81 1218.65,-230.06 1219.16,-237.04"/>
</g>
<!-- Node9 -->
<g id="node9" class="node">
<title>Node9</title>
<g id="a_node9"><a xlink:href="a60-geo_8h.html" target="_top" xlink:title=" ">
<polygon fill="white" stroke="#666666" points="876,-180.5 818,-180.5 818,-163.5 876,-163.5 876,-180.5"/>
<text text-anchor="middle" x="847" y="-170.1" font-family="SourceSans" font-size="8.00">a60&#45;geo.h</text>
</a>
</g>
</g>
<!-- Node8&#45;&gt;Node9 -->
<g id="edge8" class="edge">
<title>Node8&#45;&gt;Node9</title>
<path fill="none" stroke="#63b8ff" d="M1228.66,-226.79C1164.01,-222.85 1011.38,-211.35 886,-185 883.66,-184.51 881.26,-183.94 878.85,-183.32"/>
<polygon fill="#63b8ff" stroke="#63b8ff" points="879.66,-179.91 869.09,-180.56 877.77,-186.65 879.66,-179.91"/>
</g>
<!-- Node32 -->
<g id="node32" class="node">
<title>Node32</title>
<g id="a_node32"><a xlink:href="a60-network-functions_8h.html" target="_top" xlink:title=" ">
<polygon fill="white" stroke="#666666" points="1011.5,-180.5 894.5,-180.5 894.5,-163.5 1011.5,-163.5 1011.5,-180.5"/>
<text text-anchor="middle" x="953" y="-170.1" font-family="SourceSans" font-size="8.00">a60&#45;network&#45;functions.h</text>
</a>
</g>
</g>
<!-- Node8&#45;&gt;Node32 -->
<g id="edge37" class="edge">
<title>Node8&#45;&gt;Node32</title>
<path fill="none" stroke="#63b8ff" d="M1228.87,-222.87C1176.13,-213.34 1068.69,-193.92 1004.57,-182.32"/>
<polygon fill="#63b8ff" stroke="#63b8ff" points="1005.12,-178.87 994.66,-180.53 1003.88,-185.75 1005.12,-178.87"/>
</g>
<!-- Node33 -->
<g id="node33" class="node">
<title>Node33</title>
<g id="a_node33"><a xlink:title=" ">
<polygon fill="#e0e0e0" stroke="#999999" points="1124.5,-180.5 1029.5,-180.5 1029.5,-163.5 1124.5,-163.5 1124.5,-180.5"/>
<text text-anchor="middle" x="1077" y="-170.1" font-family="SourceSans" font-size="8.00">libtorrent/entry.hpp</text>
</a>
</g>
</g>
<!-- Node8&#45;&gt;Node33 -->
<g id="edge38" class="edge">
<title>Node8&#45;&gt;Node33</title>
<path fill="none" stroke="#63b8ff" d="M1234.94,-220.9C1202.91,-211.18 1147.3,-194.32 1111.34,-183.42"/>
<polygon fill="#63b8ff" stroke="#63b8ff" points="1112.34,-180.06 1101.76,-180.51 1110.31,-186.76 1112.34,-180.06"/>
</g>
<!-- Node34 -->
<g id="node34" class="node">
<title>Node34</title>
<g id="a_node34"><a xlink:title=" ">
<polygon fill="#e0e0e0" stroke="#999999" points="1253,-180.5 1143,-180.5 1143,-163.5 1253,-163.5 1253,-180.5"/>
<text text-anchor="middle" x="1198" y="-170.1" font-family="SourceSans" font-size="8.00">libtorrent/bencode.hpp</text>
</a>
</g>
</g>
<!-- Node8&#45;&gt;Node34 -->
<g id="edge39" class="edge">
<title>Node8&#45;&gt;Node34</title>
<path fill="none" stroke="#63b8ff" d="M1251.38,-220.78C1241.75,-212.17 1225.97,-198.04 1214.05,-187.37"/>
<polygon fill="#63b8ff" stroke="#63b8ff" points="1216.33,-184.71 1206.55,-180.65 1211.66,-189.93 1216.33,-184.71"/>
</g>
<!-- Node35 -->
<g id="node35" class="node">
<title>Node35</title>
<g id="a_node35"><a xlink:title=" ">
<polygon fill="#e0e0e0" stroke="#999999" points="1372.5,-180.5 1271.5,-180.5 1271.5,-163.5 1372.5,-163.5 1372.5,-180.5"/>
<text text-anchor="middle" x="1322" y="-170.1" font-family="SourceSans" font-size="8.00">libtorrent/torrent.hpp</text>
</a>
</g>
</g>
<!-- Node8&#45;&gt;Node35 -->
<g id="edge40" class="edge">
<title>Node8&#45;&gt;Node35</title>
<path fill="none" stroke="#63b8ff" d="M1268.62,-220.78C1278.25,-212.17 1294.03,-198.04 1305.95,-187.37"/>
<polygon fill="#63b8ff" stroke="#63b8ff" points="1308.34,-189.93 1313.45,-180.65 1303.67,-184.71 1308.34,-189.93"/>
</g>
<!-- Node36 -->
<g id="node36" class="node">
<title>Node36</title>
<g id="a_node36"><a xlink:title=" ">
<polygon fill="#e0e0e0" stroke="#999999" points="1473.5,-185 1390.5,-185 1390.5,-159 1473.5,-159 1473.5,-185"/>
<text text-anchor="start" x="1398.5" y="-174.6" font-family="SourceSans" font-size="8.00">libtorrent/torrent</text>
<text text-anchor="middle" x="1432" y="-165.6" font-family="SourceSans" font-size="8.00">_info.hpp</text>
</a>
</g>
</g>
<!-- Node8&#45;&gt;Node36 -->
<g id="edge41" class="edge">
<title>Node8&#45;&gt;Node36</title>
<path fill="none" stroke="#63b8ff" d="M1283.56,-220.9C1309.49,-212.53 1351.85,-198.86 1384.7,-188.26"/>
<polygon fill="#63b8ff" stroke="#63b8ff" points="1386.12,-191.48 1394.56,-185.08 1383.97,-184.82 1386.12,-191.48"/>
</g>
<!-- Node37 -->
<g id="node37" class="node">
<title>Node37</title>
<g id="a_node37"><a xlink:title=" ">
<polygon fill="#e0e0e0" stroke="#999999" points="1574.5,-185 1491.5,-185 1491.5,-159 1574.5,-159 1574.5,-185"/>
<text text-anchor="start" x="1499.5" y="-174.6" font-family="SourceSans" font-size="8.00">libtorrent/torrent</text>
<text text-anchor="middle" x="1533" y="-165.6" font-family="SourceSans" font-size="8.00">_status.hpp</text>
</a>
</g>
</g>
<!-- Node8&#45;&gt;Node37 -->
<g id="edge42" class="edge">
<title>Node8&#45;&gt;Node37</title>
<path fill="none" stroke="#63b8ff" d="M1291.17,-222.59C1339.91,-213.32 1432.89,-195.53 1481.37,-185.28"/>
<polygon fill="#63b8ff" stroke="#63b8ff" points="1482.25,-188.67 1491.29,-183.15 1480.78,-181.83 1482.25,-188.67"/>
</g>
<!-- Node38 -->
<g id="node38" class="node">
<title>Node38</title>
<g id="a_node38"><a xlink:title=" ">
<polygon fill="#e0e0e0" stroke="#999999" points="1705,-180.5 1593,-180.5 1593,-163.5 1705,-163.5 1705,-180.5"/>
<text text-anchor="middle" x="1649" y="-170.1" font-family="SourceSans" font-size="8.00">libtorrent/peer_info.hpp</text>
</a>
</g>
</g>
<!-- Node8&#45;&gt;Node38 -->
<g id="edge43" class="edge">
<title>Node8&#45;&gt;Node38</title>
<path fill="none" stroke="#63b8ff" d="M1291.31,-222.59C1294.58,-222.03 1297.85,-221.49 1301,-221 1426.3,-201.59 1458.72,-204.52 1584,-185 1589.18,-184.19 1594.59,-183.29 1599.97,-182.35"/>
<polygon fill="#63b8ff" stroke="#63b8ff" points="1600.99,-185.73 1610.22,-180.53 1599.76,-178.84 1600.99,-185.73"/>
</g>
<!-- Node39 -->
<g id="node39" class="node">
<title>Node39</title>
<g id="a_node39"><a xlink:title=" ">
<polygon fill="#e0e0e0" stroke="#999999" points="1821,-185 1723,-185 1723,-159 1821,-159 1821,-185"/>
<text text-anchor="start" x="1731" y="-174.6" font-family="SourceSans" font-size="8.00">libtorrent/announce</text>
<text text-anchor="middle" x="1772" y="-165.6" font-family="SourceSans" font-size="8.00">_entry.hpp</text>
</a>
</g>
</g>
<!-- Node8&#45;&gt;Node39 -->
<g id="edge44" class="edge">
<title>Node8&#45;&gt;Node39</title>
<path fill="none" stroke="#63b8ff" d="M1291.29,-222.46C1294.56,-221.93 1297.84,-221.43 1301,-221 1480.39,-196.83 1529.96,-211.18 1712.77,-185.05"/>
<polygon fill="#63b8ff" stroke="#63b8ff" points="1713.31,-188.51 1722.71,-183.61 1712.31,-181.58 1713.31,-188.51"/>
</g>
<!-- Node40 -->
<g id="node40" class="node">
<title>Node40</title>
<g id="a_node40"><a xlink:title=" ">
<polygon fill="#e0e0e0" stroke="#999999" points="1949,-180.5 1839,-180.5 1839,-163.5 1949,-163.5 1949,-180.5"/>
<text text-anchor="middle" x="1894" y="-170.1" font-family="SourceSans" font-size="8.00">libtorrent/bdecode.hpp</text>
</a>
</g>
</g>
<!-- Node8&#45;&gt;Node40 -->
<g id="edge45" class="edge">
<title>Node8&#45;&gt;Node40</title>
<path fill="none" stroke="#63b8ff" d="M1291.28,-222.4C1294.56,-221.88 1297.84,-221.4 1301,-221 1534.83,-191.75 1596.23,-214.77 1830,-185 1835.82,-184.26 1841.91,-183.33 1847.92,-182.31"/>
<polygon fill="#63b8ff" stroke="#63b8ff" points="1848.67,-185.73 1857.9,-180.53 1847.44,-178.84 1848.67,-185.73"/>
</g>
<!-- Node41 -->
<g id="node41" class="node">
<title>Node41</title>
<g id="a_node41"><a xlink:title=" ">
<polygon fill="#e0e0e0" stroke="#999999" points="2087,-180.5 1967,-180.5 1967,-163.5 2087,-163.5 2087,-180.5"/>
<text text-anchor="middle" x="2027" y="-170.1" font-family="SourceSans" font-size="8.00">libtorrent/magnet_uri.hpp</text>
</a>
</g>
</g>
<!-- Node8&#45;&gt;Node41 -->
<g id="edge46" class="edge">
<title>Node8&#45;&gt;Node41</title>
<path fill="none" stroke="#63b8ff" d="M1291.28,-222.36C1294.55,-221.84 1297.84,-221.37 1301,-221 1591.41,-186.62 1667.44,-218.11 1958,-185 1964.66,-184.24 1971.64,-183.25 1978.51,-182.17"/>
<polygon fill="#63b8ff" stroke="#63b8ff" points="1979.14,-185.61 1988.43,-180.53 1978,-178.71 1979.14,-185.61"/>
</g>
<!-- Node42 -->
<g id="node42" class="node">
<title>Node42</title>
<g id="a_node42"><a xlink:title=" ">
<polygon fill="#e0e0e0" stroke="#999999" points="2211,-180.5 2105,-180.5 2105,-163.5 2211,-163.5 2211,-180.5"/>
<text text-anchor="middle" x="2158" y="-170.1" font-family="SourceSans" font-size="8.00">libtorrent/session.hpp</text>
</a>
</g>
</g>
<!-- Node8&#45;&gt;Node42 -->
<g id="edge47" class="edge">
<title>Node8&#45;&gt;Node42</title>
<path fill="none" stroke="#63b8ff" d="M1291.27,-222.33C1294.55,-221.82 1297.84,-221.36 1301,-221 1652.44,-181.09 1744.77,-226.72 2096,-185 2101.86,-184.3 2107.99,-183.37 2114.03,-182.33"/>
<polygon fill="#63b8ff" stroke="#63b8ff" points="2114.82,-185.74 2124.03,-180.5 2113.56,-178.86 2114.82,-185.74"/>
</g>
<!-- Node43 -->
<g id="node43" class="node">
<title>Node43</title>
<g id="a_node43"><a xlink:title=" ">
<polygon fill="#e0e0e0" stroke="#999999" points="680.5,-185 579.5,-185 579.5,-159 680.5,-159 680.5,-185"/>
<text text-anchor="start" x="587.5" y="-174.6" font-family="SourceSans" font-size="8.00">libtorrent/extensions</text>
<text text-anchor="middle" x="630" y="-165.6" font-family="SourceSans" font-size="8.00">/ut_metadata.hpp</text>
</a>
</g>
</g>
<!-- Node8&#45;&gt;Node43 -->
<g id="edge48" class="edge">
<title>Node8&#45;&gt;Node43</title>
<path fill="none" stroke="#63b8ff" d="M1228.97,-227.45C1144.32,-224.32 902.23,-213.49 690.71,-184.95"/>
<polygon fill="#63b8ff" stroke="#63b8ff" points="691.05,-181.47 680.67,-183.58 690.1,-188.4 691.05,-181.47"/>
</g>
<!-- Node44 -->
<g id="node44" class="node">
<title>Node44</title>
<g id="a_node44"><a xlink:title=" ">
<polygon fill="#e0e0e0" stroke="#999999" points="799.5,-185 698.5,-185 698.5,-159 799.5,-159 799.5,-185"/>
<text text-anchor="start" x="706.5" y="-174.6" font-family="SourceSans" font-size="8.00">libtorrent/extensions</text>
<text text-anchor="middle" x="749" y="-165.6" font-family="SourceSans" font-size="8.00">/ut_pex.hpp</text>
</a>
</g>
</g>
<!-- Node8&#45;&gt;Node44 -->
<g id="edge49" class="edge">
<title>Node8&#45;&gt;Node44</title>
<path fill="none" stroke="#63b8ff" d="M1228.97,-226.59C1157.15,-221.95 973.72,-208.77 809.94,-185.02"/>
<polygon fill="#63b8ff" stroke="#63b8ff" points="810.08,-181.5 799.68,-183.51 809.06,-188.43 810.08,-181.5"/>
</g>
<!-- Node10 -->
<g id="node10" class="node">
<title>Node10</title>
<g id="a_node10"><a xlink:title=" ">
<polygon fill="#e0e0e0" stroke="#999999" points="1029,-17 987,-17 987,0 1029,0 1029,-17"/>
<text text-anchor="middle" x="1008" y="-6.6" font-family="SourceSans" font-size="8.00">cmath</text>
</a>
</g>
</g>
<!-- Node9&#45;&gt;Node10 -->
<g id="edge9" class="edge">
<title>Node9&#45;&gt;Node10</title>
<path fill="none" stroke="#63b8ff" d="M860.35,-163.38C885.79,-148.31 941.81,-112.48 977,-70 987.82,-56.94 996.27,-39.47 1001.59,-26.66"/>
<polygon fill="#63b8ff" stroke="#63b8ff" points="1004.91,-27.78 1005.31,-17.2 998.39,-25.22 1004.91,-27.78"/>
</g>
<!-- Node11 -->
<g id="node11" class="node">
<title>Node11</title>
<g id="a_node11"><a xlink:title=" ">
<polygon fill="#e0e0e0" stroke="#999999" points="1076.5,-17 1047.5,-17 1047.5,0 1076.5,0 1076.5,-17"/>
<text text-anchor="middle" x="1062" y="-6.6" font-family="SourceSans" font-size="8.00">set</text>
</a>
</g>
</g>
<!-- Node9&#45;&gt;Node11 -->
<g id="edge10" class="edge">
<title>Node9&#45;&gt;Node11</title>
<path fill="none" stroke="#63b8ff" d="M866.56,-163.42C886.87,-155.08 919.1,-140.51 944,-123 986.46,-93.15 1028.37,-48.15 1048.93,-24.79"/>
<polygon fill="#63b8ff" stroke="#63b8ff" points="1051.58,-27.07 1055.49,-17.23 1046.29,-22.48 1051.58,-27.07"/>
</g>
<!-- Node12 -->
<g id="node12" class="node">
<title>Node12</title>
<g id="a_node12"><a xlink:title=" ">
<polygon fill="#e0e0e0" stroke="#999999" points="1158,-123 1100,-123 1100,-106 1158,-106 1158,-123"/>
<text text-anchor="middle" x="1129" y="-112.6" font-family="SourceSans" font-size="8.00">functional</text>
</a>
</g>
</g>
<!-- Node9&#45;&gt;Node12 -->
<g id="edge11" class="edge">
<title>Node9&#45;&gt;Node12</title>
<path fill="none" stroke="#63b8ff" d="M869.97,-163.43C875.2,-161.84 880.77,-160.27 886,-159 895.83,-156.62 1023.46,-134.07 1089.69,-122.41"/>
<polygon fill="#63b8ff" stroke="#63b8ff" points="1090.52,-125.82 1099.76,-120.64 1089.31,-118.92 1090.52,-125.82"/>
</g>
<!-- Node13 -->
<g id="node13" class="node">
<title>Node13</title>
<g id="a_node13"><a xlink:title=" ">
<polygon fill="#e0e0e0" stroke="#999999" points="1147,-17 1095,-17 1095,0 1147,0 1147,-17"/>
<text text-anchor="middle" x="1121" y="-6.6" font-family="SourceSans" font-size="8.00">iostream</text>
</a>
</g>
</g>
<!-- Node9&#45;&gt;Node13 -->
<g id="edge12" class="edge">
<title>Node9&#45;&gt;Node13</title>
<path fill="none" stroke="#63b8ff" d="M871.49,-163.39C896.55,-155.12 936.21,-140.7 968,-123 1021.72,-93.1 1078.09,-46.78 1104.94,-23.65"/>
<polygon fill="#63b8ff" stroke="#63b8ff" points="1107.33,-26.21 1112.58,-17.01 1102.74,-20.93 1107.33,-26.21"/>
</g>
<!-- Node14 -->
<g id="node14" class="node">
<title>Node14</title>
<g id="a_node14"><a xlink:href="a60-io_8h.html" target="_top" xlink:title=" ">
<polygon fill="white" stroke="#666666" points="866,-123 816,-123 816,-106 866,-106 866,-123"/>
<text text-anchor="middle" x="841" y="-112.6" font-family="SourceSans" font-size="8.00">a60&#45;io.h</text>
</a>
</g>
</g>
<!-- Node9&#45;&gt;Node14 -->
<g id="edge13" class="edge">
<title>Node9&#45;&gt;Node14</title>
<path fill="none" stroke="#63b8ff" d="M846.17,-163.28C845.33,-155.58 844.02,-143.46 842.93,-133.36"/>
<polygon fill="#63b8ff" stroke="#63b8ff" points="846.38,-132.72 841.83,-123.15 839.42,-133.47 846.38,-132.72"/>
</g>
<!-- Node30 -->
<g id="node30" class="node">
<title>Node30</title>
<g id="a_node30"><a xlink:title=" ">
<polygon fill="#e0e0e0" stroke="#999999" points="717.5,-123 670.5,-123 670.5,-106 717.5,-106 717.5,-123"/>
<text text-anchor="middle" x="694" y="-112.6" font-family="SourceSans" font-size="8.00">GeoIP.h</text>
</a>
</g>
</g>
<!-- Node9&#45;&gt;Node30 -->
<g id="edge35" class="edge">
<title>Node9&#45;&gt;Node30</title>
<path fill="none" stroke="#63b8ff" d="M826.05,-163.4C799.72,-153.85 754.36,-137.4 724.27,-126.48"/>
<polygon fill="#63b8ff" stroke="#63b8ff" points="725.29,-123.13 714.7,-123.01 722.91,-129.71 725.29,-123.13"/>
</g>
<!-- Node31 -->
<g id="node31" class="node">
<title>Node31</title>
<g id="a_node31"><a xlink:title=" ">
<polygon fill="#e0e0e0" stroke="#999999" points="798,-123 736,-123 736,-106 798,-106 798,-123"/>
<text text-anchor="middle" x="767" y="-112.6" font-family="SourceSans" font-size="8.00">GeoIPCity.h</text>
</a>
</g>
</g>
<!-- Node9&#45;&gt;Node31 -->
<g id="edge36" class="edge">
<title>Node9&#45;&gt;Node31</title>
<path fill="none" stroke="#63b8ff" d="M835.88,-163.28C823.1,-154.42 801.91,-139.72 786.4,-128.96"/>
<polygon fill="#63b8ff" stroke="#63b8ff" points="788.24,-125.98 778.03,-123.15 784.25,-131.73 788.24,-125.98"/>
</g>
<!-- Node14&#45;&gt;Node4 -->
<g id="edge14" class="edge">
<title>Node14&#45;&gt;Node4</title>
<path fill="none" stroke="#63b8ff" d="M815.77,-107.84C812.81,-107.21 809.84,-106.58 807,-106 737.04,-91.7 654.8,-76.63 609.75,-68.52"/>
<polygon fill="#63b8ff" stroke="#63b8ff" points="610.12,-65.03 599.66,-66.71 608.88,-71.92 610.12,-65.03"/>
</g>
<!-- Node15 -->
<g id="node15" class="node">
<title>Node15</title>
<g id="a_node15"><a xlink:title=" ">
<polygon fill="#e0e0e0" stroke="#999999" points="893.5,-70 778.5,-70 778.5,-53 893.5,-53 893.5,-70"/>
<text text-anchor="middle" x="836" y="-59.6" font-family="SourceSans" font-size="8.00">experimental/filesystem</text>
</a>
</g>
</g>
<!-- Node14&#45;&gt;Node15 -->
<g id="edge15" class="edge">
<title>Node14&#45;&gt;Node15</title>
<path fill="none" stroke="#63b8ff" d="M840.26,-105.97C839.6,-99.19 838.59,-88.97 837.73,-80.13"/>
<polygon fill="#63b8ff" stroke="#63b8ff" points="841.2,-79.67 836.74,-70.06 834.23,-80.35 841.2,-79.67"/>
</g>
<!-- Node16 -->
<g id="node16" class="node">
<title>Node16</title>
<g id="a_node16"><a xlink:title=" ">
<polygon fill="#e0e0e0" stroke="#999999" points="968,-70 912,-70 912,-53 968,-53 968,-70"/>
<text text-anchor="middle" x="940" y="-59.6" font-family="SourceSans" font-size="8.00">stdexcept</text>
</a>
</g>
</g>
<!-- Node14&#45;&gt;Node16 -->
<g id="edge16" class="edge">
<title>Node14&#45;&gt;Node16</title>
<path fill="none" stroke="#63b8ff" d="M855.61,-105.97C871.62,-97.73 897.54,-84.37 916.44,-74.64"/>
<polygon fill="#63b8ff" stroke="#63b8ff" points="918.05,-77.75 925.33,-70.06 914.84,-71.52 918.05,-77.75"/>
</g>
<!-- Node17 -->
<g id="node17" class="node">
<title>Node17</title>
<g id="a_node17"><a xlink:title=" ">
<polygon fill="#e0e0e0" stroke="#999999" points="760,-70 722,-70 722,-53 760,-53 760,-70"/>
<text text-anchor="middle" x="741" y="-59.6" font-family="SourceSans" font-size="8.00">regex</text>
</a>
</g>
</g>
<!-- Node14&#45;&gt;Node17 -->
<g id="edge17" class="edge">
<title>Node14&#45;&gt;Node17</title>
<path fill="none" stroke="#63b8ff" d="M826.24,-105.97C810.07,-97.73 783.89,-84.37 764.8,-74.64"/>
<polygon fill="#63b8ff" stroke="#63b8ff" points="766.31,-71.48 755.82,-70.06 763.13,-77.72 766.31,-71.48"/>
</g>
<!-- Node18 -->
<g id="node18" class="node">
<title>Node18</title>
<g id="a_node18"><a xlink:href="a60_8h.html" target="_top" xlink:title=" ">
<polygon fill="white" stroke="#666666" points="692,-70 652,-70 652,-53 692,-53 692,-70"/>
<text text-anchor="middle" x="672" y="-59.6" font-family="SourceSans" font-size="8.00">a60.h</text>
</a>
</g>
</g>
<!-- Node14&#45;&gt;Node18 -->
<g id="edge18" class="edge">
<title>Node14&#45;&gt;Node18</title>
<path fill="none" stroke="#63b8ff" d="M816.06,-105.97C785.66,-96.8 734.32,-81.31 701.84,-71.51"/>
<polygon fill="#63b8ff" stroke="#63b8ff" points="702.6,-68.08 692.01,-68.54 700.57,-74.78 702.6,-68.08"/>
</g>
<!-- Node18&#45;&gt;Node5 -->
<g id="edge33" class="edge">
<title>Node18&#45;&gt;Node5</title>
<path fill="none" stroke="#63b8ff" d="M651.85,-57.87C639.26,-56.29 622.71,-54.34 608,-53 367.82,-31.07 302.85,-50.88 60.36,-16.94"/>
<polygon fill="#63b8ff" stroke="#63b8ff" points="60.57,-13.44 50.17,-15.5 59.58,-20.37 60.57,-13.44"/>
</g>
<!-- Node18&#45;&gt;Node7 -->
<g id="edge26" class="edge">
<title>Node18&#45;&gt;Node7</title>
<path fill="none" stroke="#63b8ff" d="M651.85,-57.91C639.26,-56.35 622.7,-54.4 608,-53 395.22,-32.68 337.16,-50.09 122.28,-16.91"/>
<polygon fill="#63b8ff" stroke="#63b8ff" points="122.68,-13.43 112.26,-15.35 121.6,-20.35 122.68,-13.43"/>
</g>
<!-- Node18&#45;&gt;Node10 -->
<g id="edge19" class="edge">
<title>Node18&#45;&gt;Node10</title>
<path fill="none" stroke="#63b8ff" d="M692.41,-56.58C698.97,-55.37 706.28,-54.07 713,-53 827.17,-34.81 859.52,-39.18 976.67,-17.05"/>
<polygon fill="#63b8ff" stroke="#63b8ff" points="977.6,-20.44 986.76,-15.12 976.28,-13.56 977.6,-20.44"/>
</g>
<!-- Node18&#45;&gt;Node11 -->
<g id="edge23" class="edge">
<title>Node18&#45;&gt;Node11</title>
<path fill="none" stroke="#63b8ff" d="M692.39,-56.48C698.95,-55.26 706.27,-53.99 713,-53 853.56,-32.39 893.96,-46.16 1037.35,-16.66"/>
<polygon fill="#63b8ff" stroke="#63b8ff" points="1038.32,-20.03 1047.39,-14.55 1036.89,-13.18 1038.32,-20.03"/>
</g>
<!-- Node18&#45;&gt;Node13 -->
<g id="edge34" class="edge">
<title>Node18&#45;&gt;Node13</title>
<path fill="none" stroke="#63b8ff" d="M692.38,-56.42C698.95,-55.2 706.26,-53.94 713,-53 874.73,-30.44 919.67,-42.02 1084.68,-17.02"/>
<polygon fill="#63b8ff" stroke="#63b8ff" points="1085.33,-20.46 1094.69,-15.48 1084.27,-13.54 1085.33,-20.46"/>
</g>
<!-- Node19 -->
<g id="node19" class="node">
<title>Node19</title>
<g id="a_node19"><a xlink:title=" ">
<polygon fill="#e0e0e0" stroke="#999999" points="753,-17 715,-17 715,0 753,0 753,-17"/>
<text text-anchor="middle" x="734" y="-6.6" font-family="SourceSans" font-size="8.00">tuple</text>
</a>
</g>
</g>
<!-- Node18&#45;&gt;Node19 -->
<g id="edge20" class="edge">
<title>Node18&#45;&gt;Node19</title>
<path fill="none" stroke="#63b8ff" d="M681.15,-52.97C690.49,-45.29 705.22,-33.18 716.75,-23.69"/>
<polygon fill="#63b8ff" stroke="#63b8ff" points="719.31,-26.11 724.81,-17.06 714.87,-20.71 719.31,-26.11"/>
</g>
<!-- Node20 -->
<g id="node20" class="node">
<title>Node20</title>
<g id="a_node20"><a xlink:title=" ">
<polygon fill="#e0e0e0" stroke="#999999" points="811,-17 771,-17 771,0 811,0 811,-17"/>
<text text-anchor="middle" x="791" y="-6.6" font-family="SourceSans" font-size="8.00">string</text>
</a>
</g>
</g>
<!-- Node18&#45;&gt;Node20 -->
<g id="edge21" class="edge">
<title>Node18&#45;&gt;Node20</title>
<path fill="none" stroke="#63b8ff" d="M689.56,-52.97C709.16,-44.58 741.11,-30.88 763.91,-21.11"/>
<polygon fill="#63b8ff" stroke="#63b8ff" points="765.56,-24.21 773.37,-17.06 762.8,-17.78 765.56,-24.21"/>
</g>
<!-- Node21 -->
<g id="node21" class="node">
<title>Node21</title>
<g id="a_node21"><a xlink:title=" ">
<polygon fill="#e0e0e0" stroke="#999999" points="871,-17 829,-17 829,0 871,0 871,-17"/>
<text text-anchor="middle" x="850" y="-6.6" font-family="SourceSans" font-size="8.00">vector</text>
</a>
</g>
</g>
<!-- Node18&#45;&gt;Node21 -->
<g id="edge22" class="edge">
<title>Node18&#45;&gt;Node21</title>
<path fill="none" stroke="#63b8ff" d="M692.07,-54.75C723.07,-45.87 782.82,-28.75 819.28,-18.3"/>
<polygon fill="#63b8ff" stroke="#63b8ff" points="820.25,-21.66 828.9,-15.55 818.32,-14.94 820.25,-21.66"/>
</g>
<!-- Node22 -->
<g id="node22" class="node">
<title>Node22</title>
<g id="a_node22"><a xlink:title=" ">
<polygon fill="#e0e0e0" stroke="#999999" points="969,-17 889,-17 889,0 969,0 969,-17"/>
<text text-anchor="middle" x="929" y="-6.6" font-family="SourceSans" font-size="8.00">unordered_map</text>
</a>
</g>
</g>
<!-- Node18&#45;&gt;Node22 -->
<g id="edge24" class="edge">
<title>Node18&#45;&gt;Node22</title>
<path fill="none" stroke="#63b8ff" d="M692.17,-56.5C732.58,-48.48 824.44,-30.25 881.14,-19"/>
<polygon fill="#63b8ff" stroke="#63b8ff" points="881.83,-22.43 890.96,-17.05 880.47,-15.56 881.83,-22.43"/>
</g>
<!-- Node23 -->
<g id="node23" class="node">
<title>Node23</title>
<g id="a_node23"><a xlink:title=" ">
<polygon fill="#e0e0e0" stroke="#999999" points="205.5,-17 130.5,-17 130.5,0 205.5,0 205.5,-17"/>
<text text-anchor="middle" x="168" y="-6.6" font-family="SourceSans" font-size="8.00">unordered_set</text>
</a>
</g>
</g>
<!-- Node18&#45;&gt;Node23 -->
<g id="edge25" class="edge">
<title>Node18&#45;&gt;Node23</title>
<path fill="none" stroke="#63b8ff" d="M651.84,-58C639.24,-56.48 622.69,-54.53 608,-53 436.79,-35.13 390.73,-38.69 215.74,-17"/>
<polygon fill="#63b8ff" stroke="#63b8ff" points="216.04,-13.51 205.68,-15.74 215.17,-20.45 216.04,-13.51"/>
</g>
<!-- Node24 -->
<g id="node24" class="node">
<title>Node24</title>
<g id="a_node24"><a xlink:title=" ">
<polygon fill="#e0e0e0" stroke="#999999" points="274,-17 224,-17 224,0 274,0 274,-17"/>
<text text-anchor="middle" x="249" y="-6.6" font-family="SourceSans" font-size="8.00">numeric</text>
</a>
</g>
</g>
<!-- Node18&#45;&gt;Node24 -->
<g id="edge27" class="edge">
<title>Node18&#45;&gt;Node24</title>
<path fill="none" stroke="#63b8ff" d="M651.83,-58.1C639.23,-56.61 622.67,-54.67 608,-53 466.85,-36.91 428.11,-40.51 284.28,-17.03"/>
<polygon fill="#63b8ff" stroke="#63b8ff" points="284.63,-13.54 274.19,-15.37 283.49,-20.45 284.63,-13.54"/>
</g>
<!-- Node25 -->
<g id="node25" class="node">
<title>Node25</title>
<g id="a_node25"><a xlink:title=" ">
<polygon fill="#e0e0e0" stroke="#999999" points="348,-17 292,-17 292,0 348,0 348,-17"/>
<text text-anchor="middle" x="320" y="-6.6" font-family="SourceSans" font-size="8.00">algorithm</text>
</a>
</g>
</g>
<!-- Node18&#45;&gt;Node25 -->
<g id="edge28" class="edge">
<title>Node18&#45;&gt;Node25</title>
<path fill="none" stroke="#63b8ff" d="M651.66,-58.14C602.9,-52.39 475.26,-36.77 358.43,-17.14"/>
<polygon fill="#63b8ff" stroke="#63b8ff" points="358.69,-13.64 348.25,-15.42 357.52,-20.54 358.69,-13.64"/>
</g>
<!-- Node26 -->
<g id="node26" class="node">
<title>Node26</title>
<g id="a_node26"><a xlink:title=" ">
<polygon fill="#e0e0e0" stroke="#999999" points="407.5,-17 366.5,-17 366.5,0 407.5,0 407.5,-17"/>
<text text-anchor="middle" x="387" y="-6.6" font-family="SourceSans" font-size="8.00">locale</text>
</a>
</g>
</g>
<!-- Node18&#45;&gt;Node26 -->
<g id="edge29" class="edge">
<title>Node18&#45;&gt;Node26</title>
<path fill="none" stroke="#63b8ff" d="M651.97,-57.69C610.17,-51.69 510.42,-36.74 417.39,-17.14"/>
<polygon fill="#63b8ff" stroke="#63b8ff" points="418.05,-13.7 407.54,-15.04 416.6,-20.55 418.05,-13.7"/>
</g>
<!-- Node27 -->
<g id="node27" class="node">
<title>Node27</title>
<g id="a_node27"><a xlink:title=" ">
<polygon fill="#e0e0e0" stroke="#999999" points="474.5,-17 425.5,-17 425.5,0 474.5,0 474.5,-17"/>
<text text-anchor="middle" x="450" y="-6.6" font-family="SourceSans" font-size="8.00">codecvt</text>
</a>
</g>
</g>
<!-- Node18&#45;&gt;Node27 -->
<g id="edge30" class="edge">
<title>Node18&#45;&gt;Node27</title>
<path fill="none" stroke="#63b8ff" d="M651.91,-55.88C614,-47.18 531.54,-28.23 484.57,-17.44"/>
<polygon fill="#63b8ff" stroke="#63b8ff" points="485.08,-13.97 474.55,-15.14 483.52,-20.79 485.08,-13.97"/>
</g>
<!-- Node28 -->
<g id="node28" class="node">
<title>Node28</title>
<g id="a_node28"><a xlink:title=" ">
<polygon fill="#e0e0e0" stroke="#999999" points="629.5,-17 492.5,-17 492.5,0 629.5,0 629.5,-17"/>
<text text-anchor="middle" x="561" y="-6.6" font-family="SourceSans" font-size="8.00">ext/codecvt_specializations.h</text>
</a>
</g>
</g>
<!-- Node18&#45;&gt;Node28 -->
<g id="edge31" class="edge">
<title>Node18&#45;&gt;Node28</title>
<path fill="none" stroke="#63b8ff" d="M655.62,-52.97C637.42,-44.61 607.8,-31 586.55,-21.24"/>
<polygon fill="#63b8ff" stroke="#63b8ff" points="587.99,-18.05 577.45,-17.06 585.07,-24.41 587.99,-18.05"/>
</g>
<!-- Node29 -->
<g id="node29" class="node">
<title>Node29</title>
<g id="a_node29"><a xlink:title=" ">
<polygon fill="#e0e0e0" stroke="#999999" points="696.5,-17 647.5,-17 647.5,0 696.5,0 696.5,-17"/>
<text text-anchor="middle" x="672" y="-6.6" font-family="SourceSans" font-size="8.00">sstream</text>
</a>
</g>
</g>
<!-- Node18&#45;&gt;Node29 -->
<g id="edge32" class="edge">
<title>Node18&#45;&gt;Node29</title>
<path fill="none" stroke="#63b8ff" d="M672,-52.97C672,-46.19 672,-35.97 672,-27.13"/>
<polygon fill="#63b8ff" stroke="#63b8ff" points="675.5,-27.06 672,-17.06 668.5,-27.06 675.5,-27.06"/>
</g>
</g>
</svg>
        <g id="navigator" transform="translate(0 0)" fill="#404254">
                <rect fill="#f2f5e9" fill-opacity="0.5" stroke="#606060" stroke-width=".5" x="0" y="0" width="60" height="60"/>
                <use id="zoomplus" xlink:href="#zoomPlus" x="17" y="9" onmousedown="handleZoom(evt,'in')"/>
                <use id="zoomminus" xlink:href="#zoomMin" x="42" y="9" onmousedown="handleZoom(evt,'out')"/>
                <use id="reset" xlink:href="#resetDef" x="30" y="36" onmousedown="handleReset()"/>
                <g id="arrowUp" xlink:href="#dirArrow" transform="translate(30 24)" onmousedown="handlePan(0,-1)">
                  <use xlink:href="#rim" fill="#404040">
                        <set attributeName="fill" to="#808080" begin="arrowUp.mouseover" end="arrowUp.mouseout"/>
                  </use>
                  <path fill="none" stroke="white" stroke-width="1.5" d="M0,-3.0v7 M-2.5,-0.5L0,-3.0L2.5,-0.5"/>
                </g>
                <g id="arrowRight" xlink:href="#dirArrow" transform="rotate(90) translate(36 -43)" onmousedown="handlePan(1,0)">
                  <use xlink:href="#rim" fill="#404040">
                        <set attributeName="fill" to="#808080" begin="arrowRight.mouseover" end="arrowRight.mouseout"/>
                  </use>
                  <path fill="none" stroke="white" stroke-width="1.5" d="M0,-3.0v7 M-2.5,-0.5L0,-3.0L2.5,-0.5"/>
                </g>
                <g id="arrowDown" xlink:href="#dirArrow" transform="rotate(180) translate(-30 -48)" onmousedown="handlePan(0,1)">
                  <use xlink:href="#rim" fill="#404040">
                        <set attributeName="fill" to="#808080" begin="arrowDown.mouseover" end="arrowDown.mouseout"/>
                  </use>
                  <path fill="none" stroke="white" stroke-width="1.5" d="M0,-3.0v7 M-2.5,-0.5L0,-3.0L2.5,-0.5"/>
                </g>
                <g id="arrowLeft" xlink:href="#dirArrow" transform="rotate(270) translate(-36 17)" onmousedown="handlePan(-1,0)">
                  <use xlink:href="#rim" fill="#404040">
                        <set attributeName="fill" to="#808080" begin="arrowLeft.mouseover" end="arrowLeft.mouseout"/>
                  </use>
                  <path fill="none" stroke="white" stroke-width="1.5" d="M0,-3.0v7 M-2.5,-0.5L0,-3.0L2.5,-0.5"/>
                </g>
        </g>
        <svg viewBox="0 0 15 15" width="100%" height="30px" preserveAspectRatio="xMaxYMin meet">
         <g id="arrow_out" transform="scale(0.3 0.3)">
          <a xlink:href="a60-torrent_8h__incl_org.svg" target="_base">
           <rect id="button" ry="5" rx="5" y="6" x="6" height="38" width="38"
                fill="#f2f5e9" fill-opacity="0.5" stroke="#606060" stroke-width="1.0"/>
           <path id="arrow"
             d="M 11.500037,31.436501 C 11.940474,20.09759 22.043105,11.32322 32.158766,21.979434 L 37.068811,17.246167 C 37.068811,17.246167 37.088388,32 37.088388,32 L 22.160133,31.978069 C 22.160133,31.978069 26.997745,27.140456 26.997745,27.140456 C 18.528582,18.264221 13.291696,25.230495 11.500037,31.436501 z"
             style="fill:#404040;"/>
          </a>
         </g>
        </svg>
</svg>
