<?xml version="1.0" encoding="UTF-8" standalone="no"?>
<!DOCTYPE svg PUBLIC "-//W3C//DTD SVG 1.1//EN"
 "http://www.w3.org/Graphics/SVG/1.1/DTD/svg11.dtd">
<!-- Generated by graphviz version 5.0.0 (0)
 -->
<!-- Title: sample_swarm_repeat_repeat Pages: 1 -->
<!--zoomable 777 -->
<svg id="main" version="1.1" xmlns="http://www.w3.org/2000/svg" xmlns:xlink="http://www.w3.org/1999/xlink" xml:space="preserve" onload="init(evt)">
<style type="text/css"><![CDATA[
.edge:hover path { stroke: red; }
.edge:hover polygon { stroke: red; fill: red; }
]]></style>
<script type="text/javascript"><![CDATA[
var edges = document.getElementsByTagName('g');
if (edges && edges.length) {
  for (var i=0;i<edges.length;i++) {
    if (edges[i].id.substr(0,4)=='edge') {
      edges[i].setAttribute('class','edge');
    }
  }
}
]]></script>
        <defs>
                <circle id="rim" cx="0" cy="0" r="7"/>
                <circle id="rim2" cx="0" cy="0" r="3.5"/>
                <g id="zoomPlus">
                        <use xlink:href="#rim" fill="#404040">
                                <set attributeName="fill" to="#808080" begin="zoomplus.mouseover" end="zoomplus.mouseout"/>
                        </use>
                        <path d="M-4,0h8M0,-4v8" fill="none" stroke="white" stroke-width="1.5" pointer-events="none"/>
                </g>
                <g id="zoomMin">
                        <use xlink:href="#rim" fill="#404040">
                                <set attributeName="fill" to="#808080" begin="zoomminus.mouseover" end="zoomminus.mouseout"/>
                        </use>
                        <path d="M-4,0h8" fill="none" stroke="white" stroke-width="1.5" pointer-events="none"/>
                </g>
                <g id="dirArrow">
                        <path fill="none" stroke="white" stroke-width="1.5" d="M0,-3.0v7 M-2.5,-0.5L0,-3.0L2.5,-0.5"/>
                </g>
               <g id="resetDef">
                       <use xlink:href="#rim2" fill="#404040">
                               <set attributeName="fill" to="#808080" begin="reset.mouseover" end="reset.mouseout"/>
                       </use>
               </g>
        </defs>

<script type="text/javascript">
var viewWidth = 1481;
var viewHeight = 777;
var sectionId = 'dynsection-6';
</script>
<script xlink:href="svgpan.js"/>
<svg id="graph" class="graph">
<g id="viewport">
<title>sample_swarm_repeat_repeat</title>
<!-- Node1 -->
<g id="node1" class="node">
<title>Node1</title>
<g id="a_node1"><a xlink:title="Repeat above n times at intervals of no less than duration D.">
<polygon fill="#999999" stroke="#666666" points="107,-571.5 0,-571.5 0,-545.5 107,-545.5 107,-571.5"/>
<text text-anchor="start" x="8" y="-561.1" font-family="SourceSans" font-size="8.00">sample_swarm_repeat</text>
<text text-anchor="middle" x="53.5" y="-552.1" font-family="SourceSans" font-size="8.00">_repeat</text>
</a>
</g>
</g>
<!-- Node2 -->
<g id="node2" class="node">
<title>Node2</title>
<g id="a_node2"><a xlink:href="namespacea60_1_1io.html#a89f2bd581ec510ccc0a8cfedccff7bd0" target="_top" xlink:title="Top level of directory for output files.">
<polygon fill="white" stroke="#666666" points="1005,-532.5 909,-532.5 909,-506.5 1005,-506.5 1005,-532.5"/>
<text text-anchor="start" x="917" y="-522.1" font-family="SourceSans" font-size="8.00">a60::io::get_output</text>
<text text-anchor="middle" x="957" y="-513.1" font-family="SourceSans" font-size="8.00">_directory</text>
</a>
</g>
</g>
<!-- Node1&#45;&gt;Node2 -->
<g id="edge1" class="edge">
<title>Node1&#45;&gt;Node2</title>
<path fill="none" stroke="#63b8ff" d="M91.24,-545.35C145.46,-527.15 250.44,-496.5 342.5,-496.5 342.5,-496.5 342.5,-496.5 495.5,-496.5 601.91,-496.5 627.71,-512.35 734,-517.5 789.9,-520.21 853.8,-520.49 898.64,-520.22"/>
<polygon fill="#63b8ff" stroke="#63b8ff" points="898.79,-523.72 908.76,-520.15 898.74,-516.72 898.79,-523.72"/>
</g>
<!-- Node4 -->
<g id="node4" class="node">
<title>Node4</title>
<g id="a_node4"><a xlink:href="namespacea60_1_1io.html#a6ad052ef18cfb1a1ac708f7c69c9050d" target="_top" xlink:title="Assumes argument is full path, no error checking...">
<polygon fill="white" stroke="#666666" points="1156,-670.5 1060,-670.5 1060,-644.5 1156,-644.5 1156,-670.5"/>
<text text-anchor="start" x="1068" y="-660.1" font-family="SourceSans" font-size="8.00">a60::io::get_output</text>
<text text-anchor="middle" x="1108" y="-651.1" font-family="SourceSans" font-size="8.00">_prefix</text>
</a>
</g>
</g>
<!-- Node1&#45;&gt;Node4 -->
<g id="edge5" class="edge">
<title>Node1&#45;&gt;Node4</title>
<path fill="none" stroke="#63b8ff" d="M107.24,-564.37C164.94,-570.27 260.18,-578.5 342.5,-578.5 342.5,-578.5 342.5,-578.5 799,-578.5 898.15,-578.5 1009.78,-617.39 1067.58,-640.59"/>
<polygon fill="#63b8ff" stroke="#63b8ff" points="1066.47,-643.92 1077.05,-644.45 1069.11,-637.44 1066.47,-643.92"/>
</g>
<!-- Node5 -->
<g id="node5" class="node">
<title>Node5</title>
<g id="a_node5"><a xlink:href="a60-sample-dump-multi_8cc.html#ab58b216d67bfd918b0255bf7e25f1ca1" target="_top" xlink:title="Repeat 3 locale above n times at intervals of no less than (interval) minutes.">
<polygon fill="white" stroke="#666666" points="250,-626 143,-626 143,-609 250,-609 250,-626"/>
<text text-anchor="middle" x="196.5" y="-615.6" font-family="SourceSans" font-size="8.00">sample_swarm_repeat</text>
</a>
</g>
</g>
<!-- Node1&#45;&gt;Node5 -->
<g id="edge6" class="edge">
<title>Node1&#45;&gt;Node5</title>
<path fill="none" stroke="#63b8ff" d="M85.79,-571.59C109.65,-581.58 142.28,-595.23 165.74,-605.05"/>
<polygon fill="#63b8ff" stroke="#63b8ff" points="164.61,-608.37 175.19,-609 167.31,-601.91 164.61,-608.37"/>
</g>
<!-- Node8 -->
<g id="node8" class="node">
<title>Node8</title>
<g id="a_node8"><a xlink:href="namespacea60_1_1io.html#ad8339b50abcf6975587ba229c04066e7" target="_top" xlink:title="Check directory exists, else make it.">
<polygon fill="white" stroke="#666666" points="695,-550.5 591,-550.5 591,-524.5 695,-524.5 695,-550.5"/>
<text text-anchor="start" x="599" y="-540.1" font-family="SourceSans" font-size="8.00">a60::io::sanity_check</text>
<text text-anchor="middle" x="643" y="-531.1" font-family="SourceSans" font-size="8.00">_output_directory</text>
</a>
</g>
</g>
<!-- Node1&#45;&gt;Node8 -->
<g id="edge57" class="edge">
<title>Node1&#45;&gt;Node8</title>
<path fill="none" stroke="#63b8ff" d="M107.15,-556.62C215.96,-552.73 465.09,-543.82 580.83,-539.69"/>
<polygon fill="#63b8ff" stroke="#63b8ff" points="581.06,-543.18 590.93,-539.33 580.81,-536.18 581.06,-543.18"/>
</g>
<!-- Node29 -->
<g id="node29" class="node">
<title>Node29</title>
<g id="a_node29"><a xlink:href="namespacea60.html#a9f2c8dc1d45c663c1017a1b7b651588d" target="_top" xlink:title="ISO date time stamp as default.">
<polygon fill="white" stroke="#666666" points="1155.5,-215.5 1060.5,-215.5 1060.5,-189.5 1155.5,-189.5 1155.5,-215.5"/>
<text text-anchor="start" x="1068.5" y="-205.1" font-family="SourceSans" font-size="8.00">a60::time_point_as</text>
<text text-anchor="middle" x="1108" y="-196.1" font-family="SourceSans" font-size="8.00">_string</text>
</a>
</g>
</g>
<!-- Node1&#45;&gt;Node29 -->
<g id="edge59" class="edge">
<title>Node1&#45;&gt;Node29</title>
<path fill="none" stroke="#63b8ff" d="M56.39,-545.36C67.73,-472.32 133.31,-119.5 342.5,-119.5 342.5,-119.5 342.5,-119.5 799,-119.5 849.71,-119.5 985.49,-161.98 1058.67,-186.16"/>
<polygon fill="#63b8ff" stroke="#63b8ff" points="1057.98,-189.61 1068.57,-189.44 1060.18,-182.97 1057.98,-189.61"/>
</g>
<!-- Node36 -->
<g id="node36" class="node">
<title>Node36</title>
<g id="a_node36"><a xlink:href="namespacea60_1_1io.html#a5714619410f0816827d4238eb3291d0a" target="_top" xlink:title="Sets man output directory.">
<polygon fill="white" stroke="#666666" points="542,-746.5 447,-746.5 447,-720.5 542,-720.5 542,-746.5"/>
<text text-anchor="start" x="455" y="-736.1" font-family="SourceSans" font-size="8.00">a60::io::set_output</text>
<text text-anchor="middle" x="494.5" y="-727.1" font-family="SourceSans" font-size="8.00">_prefix</text>
</a>
</g>
</g>
<!-- Node1&#45;&gt;Node36 -->
<g id="edge58" class="edge">
<title>Node1&#45;&gt;Node36</title>
<path fill="none" stroke="#63b8ff" d="M66.37,-571.77C82.22,-588.72 111.95,-617.84 143,-634.5 239.12,-686.07 364.87,-713.09 436.65,-725.23"/>
<polygon fill="#63b8ff" stroke="#63b8ff" points="436.41,-728.74 446.84,-726.92 437.55,-721.84 436.41,-728.74"/>
</g>
<!-- Node3 -->
<g id="node3" class="node">
<title>Node3</title>
<g id="a_node3"><a xlink:href="namespacea60_1_1io.html#a16f17ea9e02c1975ca17b77e46cf7629" target="_top" xlink:title="Make sure a path ends in &#39;/&#39;;.">
<polygon fill="white" stroke="#666666" points="1305.5,-645 1215.5,-645 1215.5,-628 1305.5,-628 1305.5,-645"/>
<text text-anchor="middle" x="1260.5" y="-634.6" font-family="SourceSans" font-size="8.00">a60::io::end_path</text>
</a>
</g>
</g>
<!-- Node2&#45;&gt;Node3 -->
<g id="edge2" class="edge">
<title>Node2&#45;&gt;Node3</title>
<path fill="none" stroke="#63b8ff" d="M991.71,-532.58C1050.42,-555.36 1170.62,-602.01 1227.85,-624.22"/>
<polygon fill="#63b8ff" stroke="#63b8ff" points="1226.87,-627.59 1237.46,-627.95 1229.4,-621.06 1226.87,-627.59"/>
</g>
<!-- Node2&#45;&gt;Node4 -->
<g id="edge3" class="edge">
<title>Node2&#45;&gt;Node4</title>
<path fill="none" stroke="#63b8ff" d="M976.28,-532.68C987.96,-541.34 1003.25,-553.14 1016,-564.5 1042.38,-588.02 1070.5,-617.52 1088.39,-636.91"/>
<polygon fill="#63b8ff" stroke="#63b8ff" points="1085.83,-639.3 1095.16,-644.31 1090.99,-634.57 1085.83,-639.3"/>
</g>
<!-- Node4&#45;&gt;Node3 -->
<g id="edge4" class="edge">
<title>Node4&#45;&gt;Node3</title>
<path fill="none" stroke="#63b8ff" d="M1156.21,-650.91C1171.69,-648.75 1189.03,-646.33 1205.01,-644.1"/>
<polygon fill="#63b8ff" stroke="#63b8ff" points="1205.86,-647.52 1215.28,-642.67 1204.89,-640.59 1205.86,-647.52"/>
</g>
<!-- Node6 -->
<g id="node6" class="node">
<title>Node6</title>
<g id="a_node6"><a xlink:href="a60-sample-dump-multi_8cc.html#a7d162b08732e1de1af3ede955b6d40a3" target="_top" xlink:title="Sample three locales: Toronto, London, Sydney.">
<polygon fill="white" stroke="#666666" points="401,-628 286,-628 286,-611 401,-611 401,-628"/>
<text text-anchor="middle" x="343.5" y="-617.6" font-family="SourceSans" font-size="8.00">sample_swarm_3_locale</text>
</a>
</g>
</g>
<!-- Node5&#45;&gt;Node6 -->
<g id="edge7" class="edge">
<title>Node5&#45;&gt;Node6</title>
<path fill="none" stroke="#63b8ff" d="M250.26,-618.23C258.43,-618.34 266.97,-618.46 275.41,-618.57"/>
<polygon fill="#63b8ff" stroke="#63b8ff" points="275.58,-622.08 285.62,-618.72 275.67,-615.08 275.58,-622.08"/>
</g>
<!-- Node6&#45;&gt;Node4 -->
<g id="edge8" class="edge">
<title>Node6&#45;&gt;Node4</title>
<path fill="none" stroke="#63b8ff" d="M364.64,-628.02C412.06,-647.27 534.84,-692.5 642,-692.5 642,-692.5 642,-692.5 799,-692.5 887.07,-692.5 988.39,-678.2 1050.05,-667.88"/>
<polygon fill="#63b8ff" stroke="#63b8ff" points="1050.69,-671.32 1059.96,-666.2 1049.52,-664.42 1050.69,-671.32"/>
</g>
<!-- Node7 -->
<g id="node7" class="node">
<title>Node7</title>
<g id="a_node7"><a xlink:href="namespacea60_1_1io.html#aff5d72d9d64945e355a39c2b72a245bd" target="_top" xlink:title="Make subdirectory for output files.">
<polygon fill="white" stroke="#666666" points="542.5,-632.5 446.5,-632.5 446.5,-606.5 542.5,-606.5 542.5,-632.5"/>
<text text-anchor="start" x="454.5" y="-622.1" font-family="SourceSans" font-size="8.00">a60::io::get_output</text>
<text text-anchor="middle" x="494.5" y="-613.1" font-family="SourceSans" font-size="8.00">_sub_directory</text>
</a>
</g>
</g>
<!-- Node6&#45;&gt;Node7 -->
<g id="edge9" class="edge">
<title>Node6&#45;&gt;Node7</title>
<path fill="none" stroke="#63b8ff" d="M401.26,-619.5C412.59,-619.5 424.5,-619.5 435.87,-619.5"/>
<polygon fill="#63b8ff" stroke="#63b8ff" points="436.12,-623 446.12,-619.5 436.12,-616 436.12,-623"/>
</g>
<!-- Node9 -->
<g id="node9" class="node">
<title>Node9</title>
<g id="a_node9"><a xlink:href="a60-sample-dump-multi_8cc.html#a8bcc07a401b6f586ae365e12a9f102d3" target="_top" xlink:title="Sample one locale.">
<polygon fill="white" stroke="#666666" points="552,-369 437,-369 437,-352 552,-352 552,-369"/>
<text text-anchor="middle" x="494.5" y="-358.6" font-family="SourceSans" font-size="8.00">sample_swarm_1_locale</text>
</a>
</g>
</g>
<!-- Node6&#45;&gt;Node9 -->
<g id="edge13" class="edge">
<title>Node6&#45;&gt;Node9</title>
<path fill="none" stroke="#63b8ff" d="M349.46,-610.88C370.71,-573.94 454.38,-428.5 483.47,-377.94"/>
<polygon fill="#63b8ff" stroke="#63b8ff" points="486.57,-379.56 488.52,-369.15 480.5,-376.07 486.57,-379.56"/>
</g>
<!-- Node6&#45;&gt;Node36 -->
<g id="edge54" class="edge">
<title>Node6&#45;&gt;Node36</title>
<path fill="none" stroke="#63b8ff" d="M351.94,-628.09C366.78,-644.84 401.71,-682.34 437,-706.5 441.88,-709.84 447.25,-712.99 452.66,-715.86"/>
<polygon fill="#63b8ff" stroke="#63b8ff" points="451.25,-719.07 461.76,-720.44 454.4,-712.82 451.25,-719.07"/>
</g>
<!-- Node7&#45;&gt;Node3 -->
<g id="edge10" class="edge">
<title>Node7&#45;&gt;Node3</title>
<path fill="none" stroke="#63b8ff" d="M542.76,-618.74C602.12,-617.85 707.1,-616.5 797,-616.5 797,-616.5 797,-616.5 958,-616.5 1044.66,-616.5 1145.02,-624.83 1205.32,-630.74"/>
<polygon fill="#63b8ff" stroke="#63b8ff" points="1205.07,-634.23 1215.37,-631.73 1205.76,-627.26 1205.07,-634.23"/>
</g>
<!-- Node7&#45;&gt;Node4 -->
<g id="edge11" class="edge">
<title>Node7&#45;&gt;Node4</title>
<path fill="none" stroke="#63b8ff" d="M542.97,-625.76C557.41,-627.5 573.34,-629.25 588,-630.5 755.41,-644.79 953.88,-652.58 1049.65,-655.76"/>
<polygon fill="#63b8ff" stroke="#63b8ff" points="1049.59,-659.26 1059.7,-656.09 1049.82,-652.26 1049.59,-659.26"/>
</g>
<!-- Node7&#45;&gt;Node8 -->
<g id="edge12" class="edge">
<title>Node7&#45;&gt;Node8</title>
<path fill="none" stroke="#63b8ff" d="M519.04,-606.33C543.6,-592.58 582.28,-570.93 609.69,-555.58"/>
<polygon fill="#63b8ff" stroke="#63b8ff" points="611.5,-558.58 618.52,-550.64 608.09,-552.47 611.5,-558.58"/>
</g>
<!-- Node10 -->
<g id="node10" class="node">
<title>Node10</title>
<g id="a_node10"><a xlink:href="namespacea60.html#a384a69e042867db6ff2e12764444b39c" target="_top" xlink:title="Run session for torrent, repeat &lt; tickmax, put results in now folder. Default tixmax == 4.">
<polygon fill="white" stroke="#666666" points="698,-353.5 588,-353.5 588,-327.5 698,-327.5 698,-353.5"/>
<text text-anchor="start" x="596" y="-343.1" font-family="SourceSans" font-size="8.00">a60::make_session_for</text>
<text text-anchor="middle" x="643" y="-334.1" font-family="SourceSans" font-size="8.00">_torrent</text>
</a>
</g>
</g>
<!-- Node9&#45;&gt;Node10 -->
<g id="edge14" class="edge">
<title>Node9&#45;&gt;Node10</title>
<path fill="none" stroke="#63b8ff" d="M552.14,-352.77C560.59,-351.61 569.35,-350.42 577.94,-349.25"/>
<polygon fill="#63b8ff" stroke="#63b8ff" points="578.48,-352.7 587.92,-347.88 577.53,-345.77 578.48,-352.7"/>
</g>
<!-- Node9&#45;&gt;Node29 -->
<g id="edge53" class="edge">
<title>Node9&#45;&gt;Node29</title>
<path fill="none" stroke="#63b8ff" d="M505.05,-351.97C535.66,-325.22 635.07,-242.81 734,-209.5 841.14,-173.43 975.57,-183.29 1050.28,-193.22"/>
<polygon fill="#63b8ff" stroke="#63b8ff" points="1050.03,-196.72 1060.41,-194.61 1050.98,-189.78 1050.03,-196.72"/>
</g>
<!-- Node35 -->
<g id="node35" class="node">
<title>Node35</title>
<g id="a_node35"><a xlink:href="namespacea60_1_1io.html#aea30b8fc474f5a7b922516dc1e199037" target="_top" xlink:title="Takes a string representing a directory, returns a sorted list of contents as a std::vector&lt;string&gt;.">
<polygon fill="white" stroke="#666666" points="698,-389 588,-389 588,-372 698,-372 698,-389"/>
<text text-anchor="middle" x="643" y="-378.6" font-family="SourceSans" font-size="8.00">a60::io::populate_files</text>
</a>
</g>
</g>
<!-- Node9&#45;&gt;Node35 -->
<g id="edge52" class="edge">
<title>Node9&#45;&gt;Node35</title>
<path fill="none" stroke="#63b8ff" d="M552.14,-368.23C560.59,-369.39 569.35,-370.58 577.94,-371.75"/>
<polygon fill="#63b8ff" stroke="#63b8ff" points="577.53,-375.23 587.92,-373.12 578.48,-368.3 577.53,-375.23"/>
</g>
<!-- Node10&#45;&gt;Node2 -->
<g id="edge18" class="edge">
<title>Node10&#45;&gt;Node2</title>
<path fill="none" stroke="#63b8ff" d="M686.8,-353.51C690.95,-356.02 694.8,-358.98 698,-362.5 735.21,-403.35 692.58,-444.93 734,-481.5 778.74,-521 849.06,-526.91 898.54,-525.24"/>
<polygon fill="#63b8ff" stroke="#63b8ff" points="898.93,-528.72 908.77,-524.77 898.62,-521.73 898.93,-528.72"/>
</g>
<!-- Node11 -->
<g id="node11" class="node">
<title>Node11</title>
<g id="a_node11"><a xlink:href="namespacea60.html#a732ca2d85679838beb92881e9f39a999" target="_top" xlink:title="Engage bittorrent, create session.">
<polygon fill="white" stroke="#666666" points="854,-473 742,-473 742,-456 854,-456 854,-473"/>
<text text-anchor="middle" x="798" y="-462.6" font-family="SourceSans" font-size="8.00">a60::configure_session</text>
</a>
</g>
</g>
<!-- Node10&#45;&gt;Node11 -->
<g id="edge15" class="edge">
<title>Node10&#45;&gt;Node11</title>
<path fill="none" stroke="#63b8ff" d="M685.88,-353.57C690.3,-356.07 694.46,-359.02 698,-362.5 726.98,-390.96 703.52,-419.65 734,-446.5 735.94,-448.21 738.04,-449.76 740.24,-451.16"/>
<polygon fill="#63b8ff" stroke="#63b8ff" points="738.72,-454.32 749.2,-455.87 741.98,-448.12 738.72,-454.32"/>
</g>
<!-- Node12 -->
<g id="node12" class="node">
<title>Node12</title>
<g id="a_node12"><a xlink:href="namespacea60.html#a8b9a182b9bab06f3abea397c373a5f6b" target="_top" xlink:title="Print info about torrent_handle.">
<polygon fill="white" stroke="#666666" points="847,-437.5 749,-437.5 749,-411.5 847,-411.5 847,-437.5"/>
<text text-anchor="start" x="757" y="-427.1" font-family="SourceSans" font-size="8.00">a60::display_torrent</text>
<text text-anchor="middle" x="798" y="-418.1" font-family="SourceSans" font-size="8.00">_handle</text>
</a>
</g>
</g>
<!-- Node10&#45;&gt;Node12 -->
<g id="edge16" class="edge">
<title>Node10&#45;&gt;Node12</title>
<path fill="none" stroke="#63b8ff" d="M682.32,-353.57C687.8,-356.15 693.2,-359.12 698,-362.5 717.57,-376.25 714.09,-389.25 734,-402.5 736.44,-404.12 739.02,-405.64 741.67,-407.06"/>
<polygon fill="#63b8ff" stroke="#63b8ff" points="740.42,-410.34 750.96,-411.5 743.44,-404.03 740.42,-410.34"/>
</g>
<!-- Node13 -->
<g id="node13" class="node">
<title>Node13</title>
<g id="a_node13"><a xlink:href="namespacea60.html#a291221a4eb53708506dceedfd78ad3e1" target="_top" xlink:title="Print info about torrent_status. (ie, just from the torrent file).">
<polygon fill="white" stroke="#666666" points="847,-393.5 749,-393.5 749,-367.5 847,-367.5 847,-393.5"/>
<text text-anchor="start" x="757" y="-383.1" font-family="SourceSans" font-size="8.00">a60::display_torrent</text>
<text text-anchor="middle" x="798" y="-374.1" font-family="SourceSans" font-size="8.00">_status</text>
</a>
</g>
</g>
<!-- Node10&#45;&gt;Node13 -->
<g id="edge17" class="edge">
<title>Node10&#45;&gt;Node13</title>
<path fill="none" stroke="#63b8ff" d="M694.1,-353.6C708.4,-357.34 724.11,-361.44 738.85,-365.3"/>
<polygon fill="#63b8ff" stroke="#63b8ff" points="738.31,-368.77 748.87,-367.92 740.08,-362 738.31,-368.77"/>
</g>
<!-- Node14 -->
<g id="node14" class="node">
<title>Node14</title>
<g id="a_node14"><a xlink:href="namespacea60.html#afe8d89ca4ef974726fd66dbda364cbf1" target="_top" xlink:title="Given session and magnet file, make session.">
<polygon fill="white" stroke="#666666" points="862,-314 734,-314 734,-297 862,-297 862,-314"/>
<text text-anchor="middle" x="798" y="-303.6" font-family="SourceSans" font-size="8.00">a60::make_magnet_handle</text>
</a>
</g>
</g>
<!-- Node10&#45;&gt;Node14 -->
<g id="edge19" class="edge">
<title>Node10&#45;&gt;Node14</title>
<path fill="none" stroke="#63b8ff" d="M698.37,-328.06C715.16,-324.22 733.5,-320.03 749.76,-316.31"/>
<polygon fill="#63b8ff" stroke="#63b8ff" points="750.62,-319.7 759.59,-314.06 749.06,-312.88 750.62,-319.7"/>
</g>
<!-- Node15 -->
<g id="node15" class="node">
<title>Node15</title>
<g id="a_node15"><a xlink:href="namespacea60.html#a1ae4660be19d8586055437f379fa4985" target="_top" xlink:title="Configure torrent session.">
<polygon fill="white" stroke="#666666" points="858,-349 738,-349 738,-332 858,-332 858,-349"/>
<text text-anchor="middle" x="798" y="-338.6" font-family="SourceSans" font-size="8.00">a60::make_settings_pack</text>
</a>
</g>
</g>
<!-- Node10&#45;&gt;Node15 -->
<g id="edge21" class="edge">
<title>Node10&#45;&gt;Node15</title>
<path fill="none" stroke="#63b8ff" d="M698.37,-340.5C707.87,-340.5 717.87,-340.5 727.7,-340.5"/>
<polygon fill="#63b8ff" stroke="#63b8ff" points="727.87,-344 737.87,-340.5 727.87,-337 727.87,-344"/>
</g>
<!-- Node16 -->
<g id="node16" class="node">
<title>Node16</title>
<g id="a_node16"><a xlink:href="namespacea60.html#a0024ebebf4beab70240ed62e88733a5e" target="_top" xlink:title="Given session and torrent file, add torrent to session.">
<polygon fill="white" stroke="#666666" points="859.5,-279 736.5,-279 736.5,-262 859.5,-262 859.5,-279"/>
<text text-anchor="middle" x="798" y="-268.6" font-family="SourceSans" font-size="8.00">a60::make_torrent_handle</text>
</a>
</g>
</g>
<!-- Node10&#45;&gt;Node16 -->
<g id="edge22" class="edge">
<title>Node10&#45;&gt;Node16</title>
<path fill="none" stroke="#63b8ff" d="M662.87,-327.35C680.56,-315.52 708.09,-298.39 734,-287.5 738.77,-285.49 743.85,-283.66 748.97,-282.01"/>
<polygon fill="#63b8ff" stroke="#63b8ff" points="750.24,-285.28 758.8,-279.04 748.22,-278.58 750.24,-285.28"/>
</g>
<!-- Node10&#45;&gt;Node29 -->
<g id="edge51" class="edge">
<title>Node10&#45;&gt;Node29</title>
<path fill="none" stroke="#63b8ff" d="M653.01,-327.39C667.51,-307.46 698.06,-270.03 734,-252.5 837.06,-202.24 974.11,-197.39 1050.12,-199.31"/>
<polygon fill="#63b8ff" stroke="#63b8ff" points="1050.32,-202.82 1060.43,-199.63 1050.54,-195.83 1050.32,-202.82"/>
</g>
<!-- Node30 -->
<g id="node30" class="node">
<title>Node30</title>
<g id="a_node30"><a xlink:href="namespacea60.html#ab629c2f2a2ce0c6e94f1b2093eceb42e" target="_top" xlink:title="Info about torrent_info, serialized to json.">
<polygon fill="white" stroke="#666666" points="1009,-91.5 905,-91.5 905,-65.5 1009,-65.5 1009,-91.5"/>
<text text-anchor="start" x="913" y="-81.1" font-family="SourceSans" font-size="8.00">a60::serialize_torrent</text>
<text text-anchor="middle" x="957" y="-72.1" font-family="SourceSans" font-size="8.00">_handle_json</text>
</a>
</g>
</g>
<!-- Node10&#45;&gt;Node30 -->
<g id="edge41" class="edge">
<title>Node10&#45;&gt;Node30</title>
<path fill="none" stroke="#63b8ff" d="M651.59,-327.27C665.63,-303.61 697.55,-253.35 734,-219.5 792.05,-165.57 873.42,-119.96 919.81,-96.18"/>
<polygon fill="#63b8ff" stroke="#63b8ff" points="921.55,-99.22 928.88,-91.58 918.38,-92.98 921.55,-99.22"/>
</g>
<!-- Node14&#45;&gt;Node2 -->
<g id="edge20" class="edge">
<title>Node14&#45;&gt;Node2</title>
<path fill="none" stroke="#63b8ff" d="M847.91,-314.04C853,-316.25 857.82,-319.02 862,-322.5 917.46,-368.7 942.43,-455.21 951.58,-496.47"/>
<polygon fill="#63b8ff" stroke="#63b8ff" points="948.18,-497.32 953.66,-506.39 955.03,-495.88 948.18,-497.32"/>
</g>
<!-- Node16&#45;&gt;Node2 -->
<g id="edge40" class="edge">
<title>Node16&#45;&gt;Node2</title>
<path fill="none" stroke="#63b8ff" d="M848.75,-279.08C853.56,-281.28 858.1,-284.05 862,-287.5 925.71,-343.91 946.95,-449.75 953.42,-496.41"/>
<polygon fill="#63b8ff" stroke="#63b8ff" points="949.96,-496.96 954.7,-506.43 956.9,-496.07 949.96,-496.96"/>
</g>
<!-- Node17 -->
<g id="node17" class="node">
<title>Node17</title>
<g id="a_node17"><a xlink:href="namespacea60.html#a36ea22d12ecf44568213ff453ad1da2c" target="_top" xlink:title="Print info about torrent_info.">
<polygon fill="white" stroke="#666666" points="1016,-279 898,-279 898,-262 1016,-262 1016,-279"/>
<text text-anchor="middle" x="957" y="-268.6" font-family="SourceSans" font-size="8.00">a60::display_torrent_info</text>
</a>
</g>
</g>
<!-- Node16&#45;&gt;Node17 -->
<g id="edge23" class="edge">
<title>Node16&#45;&gt;Node17</title>
<path fill="none" stroke="#63b8ff" d="M859.7,-270.5C868.89,-270.5 878.42,-270.5 887.76,-270.5"/>
<polygon fill="#63b8ff" stroke="#63b8ff" points="887.78,-274 897.78,-270.5 887.78,-267 887.78,-274"/>
</g>
<!-- Node18 -->
<g id="node18" class="node">
<title>Node18</title>
<g id="a_node18"><a xlink:href="namespacea60_1_1geo.html#a2ec44da723ee6128696872f94d989c7f" target="_top" xlink:title="Address to IP/Geo.">
<polygon fill="white" stroke="#666666" points="1158.5,-281.5 1057.5,-281.5 1057.5,-255.5 1158.5,-255.5 1158.5,-281.5"/>
<text text-anchor="start" x="1065.5" y="-271.1" font-family="SourceSans" font-size="8.00">a60::geo::display_ip</text>
<text text-anchor="middle" x="1108" y="-262.1" font-family="SourceSans" font-size="8.00">_and_geo_info</text>
</a>
</g>
</g>
<!-- Node17&#45;&gt;Node18 -->
<g id="edge24" class="edge">
<title>Node17&#45;&gt;Node18</title>
<path fill="none" stroke="#63b8ff" d="M1016.03,-269.72C1026.21,-269.58 1036.81,-269.44 1047.04,-269.3"/>
<polygon fill="#63b8ff" stroke="#63b8ff" points="1047.15,-272.8 1057.1,-269.17 1047.06,-265.8 1047.15,-272.8"/>
</g>
<!-- Node27 -->
<g id="node27" class="node">
<title>Node27</title>
<g id="a_node27"><a xlink:href="namespacea60.html#aafdf18ade22a9e669299209ed5a8bdc6" target="_top" xlink:title="Once.">
<polygon fill="white" stroke="#666666" points="1160,-171 1056,-171 1056,-154 1160,-154 1160,-171"/>
<text text-anchor="middle" x="1108" y="-160.6" font-family="SourceSans" font-size="8.00">a60::host_ip_address</text>
</a>
</g>
</g>
<!-- Node17&#45;&gt;Node27 -->
<g id="edge36" class="edge">
<title>Node17&#45;&gt;Node27</title>
<path fill="none" stroke="#63b8ff" d="M964.81,-261.74C979.09,-243.93 1014.02,-203.27 1052,-180.5 1055.59,-178.35 1059.46,-176.42 1063.44,-174.7"/>
<polygon fill="#63b8ff" stroke="#63b8ff" points="1064.75,-177.95 1072.8,-171.06 1062.21,-171.42 1064.75,-177.95"/>
</g>
<!-- Node17&#45;&gt;Node29 -->
<g id="edge38" class="edge">
<title>Node17&#45;&gt;Node29</title>
<path fill="none" stroke="#63b8ff" d="M980.76,-261.97C991.53,-257.81 1004.52,-252.61 1016,-247.5 1035.02,-239.04 1055.87,-228.81 1072.8,-220.24"/>
<polygon fill="#63b8ff" stroke="#63b8ff" points="1074.45,-223.33 1081.77,-215.67 1071.27,-217.09 1074.45,-223.33"/>
</g>
<!-- Node19 -->
<g id="node19" class="node">
<title>Node19</title>
<g id="a_node19"><a xlink:href="structa60_1_1geo_1_1country__map.html#a96a87722e7988878c37210a8bb208624" target="_top" xlink:title=" ">
<polygon fill="white" stroke="#666666" points="1320.5,-307.5 1200.5,-307.5 1200.5,-281.5 1320.5,-281.5 1320.5,-307.5"/>
<text text-anchor="start" x="1208.5" y="-297.1" font-family="SourceSans" font-size="8.00">a60::geo::country_map</text>
<text text-anchor="middle" x="1260.5" y="-288.1" font-family="SourceSans" font-size="8.00">::country_code_via_string</text>
</a>
</g>
</g>
<!-- Node18&#45;&gt;Node19 -->
<g id="edge25" class="edge">
<title>Node18&#45;&gt;Node19</title>
<path fill="none" stroke="#63b8ff" d="M1158.7,-277.09C1168.82,-278.83 1179.64,-280.7 1190.3,-282.55"/>
<polygon fill="#63b8ff" stroke="#63b8ff" points="1189.99,-286.04 1200.44,-284.3 1191.18,-279.15 1189.99,-286.04"/>
</g>
<!-- Node21 -->
<g id="node21" class="node">
<title>Node21</title>
<g id="a_node21"><a xlink:href="namespacea60_1_1geo.html#a7d8058b0d2e8d5f5c90dfe2cab6fc462" target="_top" xlink:title=" ">
<polygon fill="white" stroke="#666666" points="1473,-262 1357,-262 1357,-245 1473,-245 1473,-262"/>
<text text-anchor="middle" x="1415" y="-251.6" font-family="SourceSans" font-size="8.00">a60::geo::safe_if_empty</text>
</a>
</g>
</g>
<!-- Node18&#45;&gt;Node21 -->
<g id="edge35" class="edge">
<title>Node18&#45;&gt;Node21</title>
<path fill="none" stroke="#63b8ff" d="M1158.68,-266.06C1209.77,-263.54 1289.68,-259.61 1346.48,-256.82"/>
<polygon fill="#63b8ff" stroke="#63b8ff" points="1346.99,-260.3 1356.8,-256.31 1346.64,-253.31 1346.99,-260.3"/>
</g>
<!-- Node23 -->
<g id="node23" class="node">
<title>Node23</title>
<g id="a_node23"><a xlink:href="structa60_1_1geo_1_1city__map_1_1record.html#a7b30bf979e46ddb75bc274871e4ab367" target="_top" xlink:title=" ">
<polygon fill="white" stroke="#666666" points="1318,-225.5 1203,-225.5 1203,-199.5 1318,-199.5 1318,-225.5"/>
<text text-anchor="start" x="1211" y="-215.1" font-family="SourceSans" font-size="8.00">a60::geo::city_map</text>
<text text-anchor="middle" x="1260.5" y="-206.1" font-family="SourceSans" font-size="8.00">::record::is_record_open</text>
</a>
</g>
</g>
<!-- Node18&#45;&gt;Node23 -->
<g id="edge30" class="edge">
<title>Node18&#45;&gt;Node23</title>
<path fill="none" stroke="#63b8ff" d="M1144.29,-255.37C1165.42,-247.51 1192.48,-237.44 1215.06,-229.04"/>
<polygon fill="#63b8ff" stroke="#63b8ff" points="1216.28,-232.31 1224.44,-225.55 1213.84,-225.75 1216.28,-232.31"/>
</g>
<!-- Node24 -->
<g id="node24" class="node">
<title>Node24</title>
<g id="a_node24"><a xlink:href="structa60_1_1geo_1_1map__base.html#a9215731f10e2fa8488b0e081c2a5cef4" target="_top" xlink:title=" ">
<polygon fill="white" stroke="#666666" points="1311.5,-96.5 1209.5,-96.5 1209.5,-70.5 1311.5,-70.5 1311.5,-96.5"/>
<text text-anchor="start" x="1217.5" y="-86.1" font-family="SourceSans" font-size="8.00">a60::geo::map_base</text>
<text text-anchor="middle" x="1260.5" y="-77.1" font-family="SourceSans" font-size="8.00">::open</text>
</a>
</g>
</g>
<!-- Node18&#45;&gt;Node24 -->
<g id="edge31" class="edge">
<title>Node18&#45;&gt;Node24</title>
<path fill="none" stroke="#63b8ff" d="M1146.86,-255.45C1153.18,-251.99 1159.23,-247.72 1164,-242.5 1195.31,-208.25 1175.25,-183.75 1200,-144.5 1209.71,-129.1 1223.83,-114.41 1235.88,-103.31"/>
<polygon fill="#63b8ff" stroke="#63b8ff" points="1238.31,-105.83 1243.43,-96.56 1233.64,-100.61 1238.31,-105.83"/>
</g>
<!-- Node26 -->
<g id="node26" class="node">
<title>Node26</title>
<g id="a_node26"><a xlink:href="structa60_1_1geo_1_1city__map.html#a8edb2011397d2166076b33f5187afe18" target="_top" xlink:title=" ">
<polygon fill="white" stroke="#666666" points="1308.5,-355.5 1212.5,-355.5 1212.5,-329.5 1308.5,-329.5 1308.5,-355.5"/>
<text text-anchor="start" x="1220.5" y="-345.1" font-family="SourceSans" font-size="8.00">a60::geo::city_map</text>
<text text-anchor="middle" x="1260.5" y="-336.1" font-family="SourceSans" font-size="8.00">::open_record</text>
</a>
</g>
</g>
<!-- Node18&#45;&gt;Node26 -->
<g id="edge33" class="edge">
<title>Node18&#45;&gt;Node26</title>
<path fill="none" stroke="#63b8ff" d="M1132.71,-281.62C1150.93,-291.55 1176.82,-305.34 1200,-316.5 1206.14,-319.46 1212.7,-322.47 1219.14,-325.34"/>
<polygon fill="#63b8ff" stroke="#63b8ff" points="1217.86,-328.6 1228.42,-329.43 1220.68,-322.2 1217.86,-328.6"/>
</g>
<!-- Node20 -->
<g id="node20" class="node">
<title>Node20</title>
<g id="a_node20"><a xlink:href="structa60_1_1geo_1_1map__base.html#ae86685f27b25cdaead9c94752618b2e4" target="_top" xlink:title=" ">
<polygon fill="white" stroke="#666666" points="1466,-359.5 1364,-359.5 1364,-333.5 1466,-333.5 1466,-359.5"/>
<text text-anchor="start" x="1372" y="-349.1" font-family="SourceSans" font-size="8.00">a60::geo::map_base</text>
<text text-anchor="middle" x="1415" y="-340.1" font-family="SourceSans" font-size="8.00">::is_map_open</text>
</a>
</g>
</g>
<!-- Node19&#45;&gt;Node20 -->
<g id="edge26" class="edge">
<title>Node19&#45;&gt;Node20</title>
<path fill="none" stroke="#63b8ff" d="M1299.98,-307.62C1320.11,-314.48 1344.93,-322.95 1366.26,-330.22"/>
<polygon fill="#63b8ff" stroke="#63b8ff" points="1365.2,-333.56 1375.79,-333.47 1367.46,-326.93 1365.2,-333.56"/>
</g>
<!-- Node19&#45;&gt;Node21 -->
<g id="edge27" class="edge">
<title>Node19&#45;&gt;Node21</title>
<path fill="none" stroke="#63b8ff" d="M1310.17,-281.41C1330.21,-276.03 1353.19,-269.85 1372.43,-264.68"/>
<polygon fill="#63b8ff" stroke="#63b8ff" points="1373.37,-268.05 1382.11,-262.07 1371.55,-261.29 1373.37,-268.05"/>
</g>
<!-- Node22 -->
<g id="node22" class="node">
<title>Node22</title>
<g id="a_node22"><a xlink:href="namespacea60_1_1constants.html#a01d9786063fb572d9389b0cd207bbe53" target="_top" xlink:title=" ">
<polygon fill="white" stroke="#666666" points="1464,-297 1366,-297 1366,-280 1464,-280 1464,-297"/>
<text text-anchor="middle" x="1415" y="-286.6" font-family="SourceSans" font-size="8.00">a60::constants::tab</text>
</a>
</g>
</g>
<!-- Node19&#45;&gt;Node22 -->
<g id="edge28" class="edge">
<title>Node19&#45;&gt;Node22</title>
<path fill="none" stroke="#63b8ff" d="M1320.9,-292.16C1332.29,-291.71 1344.22,-291.25 1355.59,-290.8"/>
<polygon fill="#63b8ff" stroke="#63b8ff" points="1355.98,-294.29 1365.84,-290.39 1355.71,-287.29 1355.98,-294.29"/>
</g>
<!-- Node22&#45;&gt;Node22 -->
<g id="edge29" class="edge">
<title>Node22&#45;&gt;Node22</title>
<path fill="none" stroke="#63b8ff" d="M1392.05,-297.19C1379.38,-305.67 1387.03,-315 1415,-315 1433.79,-315 1443.41,-310.79 1443.86,-305.45"/>
<polygon fill="#63b8ff" stroke="#63b8ff" points="1446.61,-303.28 1437.95,-297.19 1440.92,-307.36 1446.61,-303.28"/>
</g>
<!-- Node25 -->
<g id="node25" class="node">
<title>Node25</title>
<g id="a_node25"><a xlink:href="namespacea60_1_1io.html#aa5fbb8ab63397dd45c4a54c0758935ef" target="_top" xlink:title="Sanity check input existence.">
<polygon fill="white" stroke="#666666" points="1467,-96.5 1363,-96.5 1363,-70.5 1467,-70.5 1467,-96.5"/>
<text text-anchor="start" x="1371" y="-86.1" font-family="SourceSans" font-size="8.00">a60::io::sanity_check</text>
<text text-anchor="middle" x="1415" y="-77.1" font-family="SourceSans" font-size="8.00">_input</text>
</a>
</g>
</g>
<!-- Node24&#45;&gt;Node25 -->
<g id="edge32" class="edge">
<title>Node24&#45;&gt;Node25</title>
<path fill="none" stroke="#63b8ff" d="M1311.86,-83.5C1324.92,-83.5 1339.14,-83.5 1352.7,-83.5"/>
<polygon fill="#63b8ff" stroke="#63b8ff" points="1352.91,-87 1362.91,-83.5 1352.91,-80 1352.91,-87"/>
</g>
<!-- Node26&#45;&gt;Node20 -->
<g id="edge34" class="edge">
<title>Node26&#45;&gt;Node20</title>
<path fill="none" stroke="#63b8ff" d="M1308.92,-343.74C1323.12,-344.12 1338.9,-344.53 1353.81,-344.92"/>
<polygon fill="#63b8ff" stroke="#63b8ff" points="1353.89,-348.42 1363.97,-345.19 1354.07,-341.43 1353.89,-348.42"/>
</g>
<!-- Node28 -->
<g id="node28" class="node">
<title>Node28</title>
<g id="a_node28"><a xlink:href="namespacea60.html#ac912026493721c2646a3336faffe1baa" target="_top" xlink:title="Test machine&#39;s address.">
<polygon fill="white" stroke="#666666" points="1321,-171 1200,-171 1200,-154 1321,-154 1321,-171"/>
<text text-anchor="middle" x="1260.5" y="-160.6" font-family="SourceSans" font-size="8.00">a60::get_host_ip_address</text>
</a>
</g>
</g>
<!-- Node27&#45;&gt;Node28 -->
<g id="edge37" class="edge">
<title>Node27&#45;&gt;Node28</title>
<path fill="none" stroke="#63b8ff" d="M1160.37,-162.5C1169.79,-162.5 1179.76,-162.5 1189.61,-162.5"/>
<polygon fill="#63b8ff" stroke="#63b8ff" points="1189.8,-166 1199.8,-162.5 1189.8,-159 1189.8,-166"/>
</g>
<!-- Node29&#45;&gt;Node29 -->
<g id="edge39" class="edge">
<title>Node29&#45;&gt;Node29</title>
<path fill="none" stroke="#63b8ff" d="M1082.62,-215.56C1074.93,-224.6 1083.39,-233.5 1108,-233.5 1123,-233.5 1132,-230.19 1135,-225.57"/>
<polygon fill="#63b8ff" stroke="#63b8ff" points="1138.43,-224.87 1133.38,-215.56 1131.52,-225.99 1138.43,-224.87"/>
</g>
<!-- Node30&#45;&gt;Node24 -->
<g id="edge48" class="edge">
<title>Node30&#45;&gt;Node24</title>
<path fill="none" stroke="#63b8ff" d="M1009.15,-79.35C1061.66,-80.22 1143.35,-81.57 1199.03,-82.5"/>
<polygon fill="#63b8ff" stroke="#63b8ff" points="1199.05,-86 1209.11,-82.66 1199.17,-79 1199.05,-86"/>
</g>
<!-- Node30&#45;&gt;Node27 -->
<g id="edge42" class="edge">
<title>Node30&#45;&gt;Node27</title>
<path fill="none" stroke="#63b8ff" d="M991.76,-91.52C1000.05,-95.43 1008.64,-100.13 1016,-105.5 1035.05,-119.41 1032.15,-131.75 1052,-144.5 1055.19,-146.55 1058.63,-148.38 1062.19,-150.02"/>
<polygon fill="#63b8ff" stroke="#63b8ff" points="1061.17,-153.39 1071.75,-153.92 1063.81,-146.91 1061.17,-153.39"/>
</g>
<!-- Node30&#45;&gt;Node29 -->
<g id="edge50" class="edge">
<title>Node30&#45;&gt;Node29</title>
<path fill="none" stroke="#63b8ff" d="M995.98,-91.61C1003.21,-95.31 1010.3,-99.89 1016,-105.5 1042.08,-131.14 1025.42,-154.38 1052,-179.5 1053.68,-181.09 1055.49,-182.57 1057.38,-183.96"/>
<polygon fill="#63b8ff" stroke="#63b8ff" points="1055.84,-187.13 1066.18,-189.46 1059.55,-181.19 1055.84,-187.13"/>
</g>
<!-- Node31 -->
<g id="node31" class="node">
<title>Node31</title>
<g id="a_node31"><a xlink:href="namespacea60.html#ad300edc3a7396b9f52a64f37e9443891" target="_top" xlink:title="No GeoIP.">
<polygon fill="white" stroke="#666666" points="1314,-17 1207,-17 1207,0 1314,0 1314,-17"/>
<text text-anchor="middle" x="1260.5" y="-6.6" font-family="SourceSans" font-size="8.00">a60::make_meta_peer</text>
</a>
</g>
</g>
<!-- Node30&#45;&gt;Node31 -->
<g id="edge43" class="edge">
<title>Node30&#45;&gt;Node31</title>
<path fill="none" stroke="#63b8ff" d="M976.04,-65.49C994.24,-53.11 1023.64,-35.15 1052,-26.5 1099.13,-12.13 1154.88,-7.96 1196.72,-7.2"/>
<polygon fill="#63b8ff" stroke="#63b8ff" points="1196.81,-10.7 1206.77,-7.08 1196.73,-3.7 1196.81,-10.7"/>
</g>
<!-- Node32 -->
<g id="node32" class="node">
<title>Node32</title>
<g id="a_node32"><a xlink:href="namespacea60.html#a9d37f2f6f8a4b125ee6304d15a118f61" target="_top" xlink:title=" ">
<polygon fill="white" stroke="#666666" points="1164,-53 1052,-53 1052,-36 1164,-36 1164,-53"/>
<text text-anchor="middle" x="1108" y="-42.6" font-family="SourceSans" font-size="8.00">a60::make_meta_peers</text>
</a>
</g>
</g>
<!-- Node30&#45;&gt;Node32 -->
<g id="edge44" class="edge">
<title>Node30&#45;&gt;Node32</title>
<path fill="none" stroke="#63b8ff" d="M1009.28,-66.8C1025.73,-63.04 1043.86,-58.91 1059.99,-55.23"/>
<polygon fill="#63b8ff" stroke="#63b8ff" points="1060.77,-58.64 1069.74,-53 1059.22,-51.81 1060.77,-58.64"/>
</g>
<!-- Node34 -->
<g id="node34" class="node">
<title>Node34</title>
<g id="a_node34"><a xlink:href="namespacea60.html#a2228baa081fe66cea91ed8032bda4732" target="_top" xlink:title="Serialize meta_peer.">
<polygon fill="white" stroke="#666666" points="1157,-135.5 1059,-135.5 1059,-109.5 1157,-109.5 1157,-135.5"/>
<text text-anchor="start" x="1067" y="-125.1" font-family="SourceSans" font-size="8.00">a60::serialize_meta</text>
<text text-anchor="middle" x="1108" y="-116.1" font-family="SourceSans" font-size="8.00">_peer_json</text>
</a>
</g>
</g>
<!-- Node30&#45;&gt;Node34 -->
<g id="edge49" class="edge">
<title>Node30&#45;&gt;Node34</title>
<path fill="none" stroke="#63b8ff" d="M1002.3,-91.58C1018.29,-96.3 1036.52,-101.69 1053.23,-106.62"/>
<polygon fill="#63b8ff" stroke="#63b8ff" points="1052.29,-109.99 1062.87,-109.47 1054.27,-103.28 1052.29,-109.99"/>
</g>
<!-- Node32&#45;&gt;Node24 -->
<g id="edge47" class="edge">
<title>Node32&#45;&gt;Node24</title>
<path fill="none" stroke="#63b8ff" d="M1142.03,-53.06C1158.9,-57.43 1179.97,-62.89 1199.59,-67.97"/>
<polygon fill="#63b8ff" stroke="#63b8ff" points="1198.82,-71.39 1209.38,-70.51 1200.57,-64.61 1198.82,-71.39"/>
</g>
<!-- Node32&#45;&gt;Node31 -->
<g id="edge45" class="edge">
<title>Node32&#45;&gt;Node31</title>
<path fill="none" stroke="#63b8ff" d="M1144.67,-35.97C1165.4,-31.01 1191.73,-24.71 1213.95,-19.4"/>
<polygon fill="#63b8ff" stroke="#63b8ff" points="1214.92,-22.76 1223.83,-17.03 1213.29,-15.96 1214.92,-22.76"/>
</g>
<!-- Node33 -->
<g id="node33" class="node">
<title>Node33</title>
<g id="a_node33"><a xlink:href="namespacea60.html#afa4b02aa30f3ff7828561abb787ede03" target="_top" xlink:title="Less than compare for meta_peer via geo.">
<polygon fill="white" stroke="#666666" points="1315.5,-52 1205.5,-52 1205.5,-35 1315.5,-35 1315.5,-52"/>
<text text-anchor="middle" x="1260.5" y="-41.6" font-family="SourceSans" font-size="8.00">a60::meta_peer_lt_geo</text>
</a>
</g>
</g>
<!-- Node32&#45;&gt;Node33 -->
<g id="edge46" class="edge">
<title>Node32&#45;&gt;Node33</title>
<path fill="none" stroke="#63b8ff" d="M1164.19,-44.13C1174.25,-44.07 1184.84,-44 1195.14,-43.93"/>
<polygon fill="#63b8ff" stroke="#63b8ff" points="1195.35,-47.43 1205.33,-43.86 1195.3,-40.43 1195.35,-47.43"/>
</g>
<!-- Node36&#45;&gt;Node3 -->
<g id="edge55" class="edge">
<title>Node36&#45;&gt;Node3</title>
<path fill="none" stroke="#63b8ff" d="M542.29,-745.62C556.85,-748.98 573.01,-752.31 588,-754.5 680.12,-767.96 703.9,-768.5 797,-768.5 797,-768.5 797,-768.5 958,-768.5 1073.71,-768.5 1195.01,-685.91 1240.66,-651.39"/>
<polygon fill="#63b8ff" stroke="#63b8ff" points="1242.96,-654.03 1248.76,-645.16 1238.7,-648.48 1242.96,-654.03"/>
</g>
<!-- Node36&#45;&gt;Node4 -->
<g id="edge56" class="edge">
<title>Node36&#45;&gt;Node4</title>
<path fill="none" stroke="#63b8ff" d="M542.2,-737.81C634.66,-744.9 846.73,-753.87 1016,-706.5 1038.95,-700.08 1062.59,-687.12 1080.02,-676.15"/>
<polygon fill="#63b8ff" stroke="#63b8ff" points="1082.04,-679.01 1088.53,-670.64 1078.24,-673.14 1082.04,-679.01"/>
</g>
</g>
</svg>
        <g id="navigator" transform="translate(0 0)" fill="#404254">
                <rect fill="#f2f5e9" fill-opacity="0.5" stroke="#606060" stroke-width=".5" x="0" y="0" width="60" height="60"/>
                <use id="zoomplus" xlink:href="#zoomPlus" x="17" y="9" onmousedown="handleZoom(evt,'in')"/>
                <use id="zoomminus" xlink:href="#zoomMin" x="42" y="9" onmousedown="handleZoom(evt,'out')"/>
                <use id="reset" xlink:href="#resetDef" x="30" y="36" onmousedown="handleReset()"/>
                <g id="arrowUp" xlink:href="#dirArrow" transform="translate(30 24)" onmousedown="handlePan(0,-1)">
                  <use xlink:href="#rim" fill="#404040">
                        <set attributeName="fill" to="#808080" begin="arrowUp.mouseover" end="arrowUp.mouseout"/>
                  </use>
                  <path fill="none" stroke="white" stroke-width="1.5" d="M0,-3.0v7 M-2.5,-0.5L0,-3.0L2.5,-0.5"/>
                </g>
                <g id="arrowRight" xlink:href="#dirArrow" transform="rotate(90) translate(36 -43)" onmousedown="handlePan(1,0)">
                  <use xlink:href="#rim" fill="#404040">
                        <set attributeName="fill" to="#808080" begin="arrowRight.mouseover" end="arrowRight.mouseout"/>
                  </use>
                  <path fill="none" stroke="white" stroke-width="1.5" d="M0,-3.0v7 M-2.5,-0.5L0,-3.0L2.5,-0.5"/>
                </g>
                <g id="arrowDown" xlink:href="#dirArrow" transform="rotate(180) translate(-30 -48)" onmousedown="handlePan(0,1)">
                  <use xlink:href="#rim" fill="#404040">
                        <set attributeName="fill" to="#808080" begin="arrowDown.mouseover" end="arrowDown.mouseout"/>
                  </use>
                  <path fill="none" stroke="white" stroke-width="1.5" d="M0,-3.0v7 M-2.5,-0.5L0,-3.0L2.5,-0.5"/>
                </g>
                <g id="arrowLeft" xlink:href="#dirArrow" transform="rotate(270) translate(-36 17)" onmousedown="handlePan(-1,0)">
                  <use xlink:href="#rim" fill="#404040">
                        <set attributeName="fill" to="#808080" begin="arrowLeft.mouseover" end="arrowLeft.mouseout"/>
                  </use>
                  <path fill="none" stroke="white" stroke-width="1.5" d="M0,-3.0v7 M-2.5,-0.5L0,-3.0L2.5,-0.5"/>
                </g>
        </g>
        <svg viewBox="0 0 15 15" width="100%" height="30px" preserveAspectRatio="xMaxYMin meet">
         <g id="arrow_out" transform="scale(0.3 0.3)">
          <a xlink:href="a60-sample-dump-multi_8cc_aac8edcc9933aaf7de6e3c73bc96e0c5f_cgraph_org.svg" target="_base">
           <rect id="button" ry="5" rx="5" y="6" x="6" height="38" width="38"
                fill="#f2f5e9" fill-opacity="0.5" stroke="#606060" stroke-width="1.0"/>
           <path id="arrow"
             d="M 11.500037,31.436501 C 11.940474,20.09759 22.043105,11.32322 32.158766,21.979434 L 37.068811,17.246167 C 37.068811,17.246167 37.088388,32 37.088388,32 L 22.160133,31.978069 C 22.160133,31.978069 26.997745,27.140456 26.997745,27.140456 C 18.528582,18.264221 13.291696,25.230495 11.500037,31.436501 z"
             style="fill:#404040;"/>
          </a>
         </g>
        </svg>
</svg>
