<?xml version="1.0" encoding="UTF-8" standalone="no"?>
<!DOCTYPE svg PUBLIC "-//W3C//DTD SVG 1.1//EN"
 "http://www.w3.org/Graphics/SVG/1.1/DTD/svg11.dtd">
<!-- Generated by graphviz version 5.0.0 (0)
 -->
<!-- Title: /home/bkoz/src/alpha60/src/a60&#45;json&#45;fwd.h Pages: 1 -->
<svg width="728pt" height="87pt"
 viewBox="0.00 0.00 728.00 87.00" xmlns="http://www.w3.org/2000/svg" xmlns:xlink="http://www.w3.org/1999/xlink">
<g id="graph0" class="graph" transform="scale(1 1) rotate(0) translate(4 83)">
<title>/home/bkoz/src/alpha60/src/a60&#45;json&#45;fwd.h</title>
<!-- Node1 -->
<g id="node1" class="node">
<title>Node1</title>
<g id="a_node1"><a xlink:title=" ">
<polygon fill="#999999" stroke="#666666" points="427,-79 311,-79 311,-53 427,-53 427,-79"/>
<text text-anchor="start" x="319" y="-68.6" font-family="SourceSans" font-size="8.00">/home/bkoz/src/alpha60</text>
<text text-anchor="middle" x="369" y="-59.6" font-family="SourceSans" font-size="8.00">/src/a60&#45;json&#45;fwd.h</text>
</a>
</g>
</g>
<!-- Node2 -->
<g id="node2" class="node">
<title>Node2</title>
<g id="a_node2"><a xlink:title=" ">
<polygon fill="#e0e0e0" stroke="#999999" points="112,-17 0,-17 0,0 112,0 112,-17"/>
<text text-anchor="middle" x="56" y="-6.6" font-family="SourceSans" font-size="8.00">rapidjson/prettywriter.h</text>
</a>
</g>
</g>
<!-- Node1&#45;&gt;Node2 -->
<g id="edge1" class="edge">
<title>Node1&#45;&gt;Node2</title>
<path fill="none" stroke="#63b8ff" d="M310.86,-54.69C252.94,-44.42 164.8,-28.79 108.82,-18.87"/>
<polygon fill="#63b8ff" stroke="#63b8ff" points="109.22,-15.38 98.76,-17.08 107.99,-22.27 109.22,-15.38"/>
</g>
<!-- Node3 -->
<g id="node3" class="node">
<title>Node3</title>
<g id="a_node3"><a xlink:title=" ">
<polygon fill="#e0e0e0" stroke="#999999" points="225.5,-17 130.5,-17 130.5,0 225.5,0 225.5,-17"/>
<text text-anchor="middle" x="178" y="-6.6" font-family="SourceSans" font-size="8.00">rapidjson/pointer.h</text>
</a>
</g>
</g>
<!-- Node1&#45;&gt;Node3 -->
<g id="edge2" class="edge">
<title>Node1&#45;&gt;Node3</title>
<path fill="none" stroke="#63b8ff" d="M327.56,-52.96C293.6,-43.09 246.04,-29.27 213.74,-19.89"/>
<polygon fill="#63b8ff" stroke="#63b8ff" points="214.41,-16.43 203.83,-17 212.45,-23.16 214.41,-16.43"/>
</g>
<!-- Node4 -->
<g id="node4" class="node">
<title>Node4</title>
<g id="a_node4"><a xlink:title=" ">
<polygon fill="#e0e0e0" stroke="#999999" points="368,-17 244,-17 244,0 368,0 368,-17"/>
<text text-anchor="middle" x="306" y="-6.6" font-family="SourceSans" font-size="8.00">rapidjson/filereadstream.h</text>
</a>
</g>
</g>
<!-- Node1&#45;&gt;Node4 -->
<g id="edge3" class="edge">
<title>Node1&#45;&gt;Node4</title>
<path fill="none" stroke="#63b8ff" d="M355.33,-52.96C345.72,-44.49 332.8,-33.11 322.6,-24.12"/>
<polygon fill="#63b8ff" stroke="#63b8ff" points="324.61,-21.23 314.8,-17.25 319.99,-26.48 324.61,-21.23"/>
</g>
<!-- Node5 -->
<g id="node5" class="node">
<title>Node5</title>
<g id="a_node5"><a xlink:title=" ">
<polygon fill="#e0e0e0" stroke="#999999" points="478,-17 386,-17 386,0 478,0 478,-17"/>
<text text-anchor="middle" x="432" y="-6.6" font-family="SourceSans" font-size="8.00">rapidjson/reader.h</text>
</a>
</g>
</g>
<!-- Node1&#45;&gt;Node5 -->
<g id="edge4" class="edge">
<title>Node1&#45;&gt;Node5</title>
<path fill="none" stroke="#63b8ff" d="M382.67,-52.96C392.28,-44.49 405.2,-33.11 415.4,-24.12"/>
<polygon fill="#63b8ff" stroke="#63b8ff" points="418.01,-26.48 423.2,-17.25 413.39,-21.23 418.01,-26.48"/>
</g>
<!-- Node6 -->
<g id="node6" class="node">
<title>Node6</title>
<g id="a_node6"><a xlink:title=" ">
<polygon fill="#e0e0e0" stroke="#999999" points="603.5,-17 496.5,-17 496.5,0 603.5,0 603.5,-17"/>
<text text-anchor="middle" x="550" y="-6.6" font-family="SourceSans" font-size="8.00">rapidjson/document.h</text>
</a>
</g>
</g>
<!-- Node1&#45;&gt;Node6 -->
<g id="edge5" class="edge">
<title>Node1&#45;&gt;Node6</title>
<path fill="none" stroke="#63b8ff" d="M408.27,-52.96C440.31,-43.13 485.13,-29.39 515.73,-20.01"/>
<polygon fill="#63b8ff" stroke="#63b8ff" points="516.99,-23.28 525.53,-17 514.94,-16.59 516.99,-23.28"/>
</g>
<!-- Node7 -->
<g id="node7" class="node">
<title>Node7</title>
<g id="a_node7"><a xlink:title=" ">
<polygon fill="#e0e0e0" stroke="#999999" points="720,-17 622,-17 622,0 720,0 720,-17"/>
<text text-anchor="middle" x="671" y="-6.6" font-family="SourceSans" font-size="8.00">rapidjson/error/en.h</text>
</a>
</g>
</g>
<!-- Node1&#45;&gt;Node7 -->
<g id="edge6" class="edge">
<title>Node1&#45;&gt;Node7</title>
<path fill="none" stroke="#63b8ff" d="M427.23,-54.3C483.1,-44.03 566.65,-28.68 619.98,-18.88"/>
<polygon fill="#63b8ff" stroke="#63b8ff" points="620.69,-22.3 629.9,-17.05 619.43,-15.42 620.69,-22.3"/>
</g>
</g>
</svg>
