<?xml version="1.0" encoding="UTF-8" standalone="no"?>
<!DOCTYPE svg PUBLIC "-//W3C//DTD SVG 1.1//EN"
 "http://www.w3.org/Graphics/SVG/1.1/DTD/svg11.dtd">
<!-- Generated by graphviz version 5.0.0 (0)
 -->
<!-- Title: sample_swarm_3_locale Pages: 1 -->
<!--zoomable 547 -->
<svg id="main" version="1.1" xmlns="http://www.w3.org/2000/svg" xmlns:xlink="http://www.w3.org/1999/xlink" xml:space="preserve" onload="init(evt)">
<style type="text/css"><![CDATA[
.edge:hover path { stroke: red; }
.edge:hover polygon { stroke: red; fill: red; }
]]></style>
<script type="text/javascript"><![CDATA[
var edges = document.getElementsByTagName('g');
if (edges && edges.length) {
  for (var i=0;i<edges.length;i++) {
    if (edges[i].id.substr(0,4)=='edge') {
      edges[i].setAttribute('class','edge');
    }
  }
}
]]></script>
        <defs>
                <circle id="rim" cx="0" cy="0" r="7"/>
                <circle id="rim2" cx="0" cy="0" r="3.5"/>
                <g id="zoomPlus">
                        <use xlink:href="#rim" fill="#404040">
                                <set attributeName="fill" to="#808080" begin="zoomplus.mouseover" end="zoomplus.mouseout"/>
                        </use>
                        <path d="M-4,0h8M0,-4v8" fill="none" stroke="white" stroke-width="1.5" pointer-events="none"/>
                </g>
                <g id="zoomMin">
                        <use xlink:href="#rim" fill="#404040">
                                <set attributeName="fill" to="#808080" begin="zoomminus.mouseover" end="zoomminus.mouseout"/>
                        </use>
                        <path d="M-4,0h8" fill="none" stroke="white" stroke-width="1.5" pointer-events="none"/>
                </g>
                <g id="dirArrow">
                        <path fill="none" stroke="white" stroke-width="1.5" d="M0,-3.0v7 M-2.5,-0.5L0,-3.0L2.5,-0.5"/>
                </g>
               <g id="resetDef">
                       <use xlink:href="#rim2" fill="#404040">
                               <set attributeName="fill" to="#808080" begin="reset.mouseover" end="reset.mouseout"/>
                       </use>
               </g>
        </defs>

<script type="text/javascript">
var viewWidth = 1195;
var viewHeight = 547;
var sectionId = 'dynsection-3';
</script>
<script xlink:href="svgpan.js"/>
<svg id="graph" class="graph">
<g id="viewport">
<title>sample_swarm_3_locale</title>
<!-- Node1 -->
<g id="node1" class="node">
<title>Node1</title>
<g id="a_node1"><a xlink:title="Sample three locales: Toronto, London, Sydney.">
<polygon fill="#999999" stroke="#666666" points="115,-456 0,-456 0,-439 115,-439 115,-456"/>
<text text-anchor="middle" x="57.5" y="-445.6" font-family="SourceSans" font-size="8.00">sample_swarm_3_locale</text>
</a>
</g>
</g>
<!-- Node2 -->
<g id="node2" class="node">
<title>Node2</title>
<g id="a_node2"><a xlink:href="namespacea60_1_1io.html#a6ad052ef18cfb1a1ac708f7c69c9050d" target="_top" xlink:title="Assumes argument is full path, no error checking...">
<polygon fill="white" stroke="#666666" points="870,-477.5 774,-477.5 774,-451.5 870,-451.5 870,-477.5"/>
<text text-anchor="start" x="782" y="-467.1" font-family="SourceSans" font-size="8.00">a60::io::get_output</text>
<text text-anchor="middle" x="822" y="-458.1" font-family="SourceSans" font-size="8.00">_prefix</text>
</a>
</g>
</g>
<!-- Node1&#45;&gt;Node2 -->
<g id="edge1" class="edge">
<title>Node1&#45;&gt;Node2</title>
<path fill="none" stroke="#63b8ff" d="M115.19,-453.28C174.99,-458.87 272.03,-466.5 356,-466.5 356,-466.5 356,-466.5 513,-466.5 600.32,-466.5 701.57,-465.69 763.44,-465.1"/>
<polygon fill="#63b8ff" stroke="#63b8ff" points="763.81,-468.59 773.78,-465 763.74,-461.59 763.81,-468.59"/>
</g>
<!-- Node4 -->
<g id="node4" class="node">
<title>Node4</title>
<g id="a_node4"><a xlink:href="namespacea60_1_1io.html#aff5d72d9d64945e355a39c2b72a245bd" target="_top" xlink:title="Make subdirectory for output files.">
<polygon fill="white" stroke="#666666" points="719,-520.5 623,-520.5 623,-494.5 719,-494.5 719,-520.5"/>
<text text-anchor="start" x="631" y="-510.1" font-family="SourceSans" font-size="8.00">a60::io::get_output</text>
<text text-anchor="middle" x="671" y="-501.1" font-family="SourceSans" font-size="8.00">_sub_directory</text>
</a>
</g>
</g>
<!-- Node1&#45;&gt;Node4 -->
<g id="edge3" class="edge">
<title>Node1&#45;&gt;Node4</title>
<path fill="none" stroke="#63b8ff" d="M77.52,-456.13C95.91,-464.03 124.75,-475.25 151,-480.5 316.18,-513.52 516.47,-512.74 612.8,-509.9"/>
<polygon fill="#63b8ff" stroke="#63b8ff" points="613.03,-513.39 622.91,-509.58 612.81,-506.39 613.03,-513.39"/>
</g>
<!-- Node6 -->
<g id="node6" class="node">
<title>Node6</title>
<g id="a_node6"><a xlink:href="a60-sample-dump-multi_8cc.html#a8bcc07a401b6f586ae365e12a9f102d3" target="_top" xlink:title="Sample one locale.">
<polygon fill="white" stroke="#666666" points="266,-150 151,-150 151,-133 266,-133 266,-150"/>
<text text-anchor="middle" x="208.5" y="-139.6" font-family="SourceSans" font-size="8.00">sample_swarm_1_locale</text>
</a>
</g>
</g>
<!-- Node1&#45;&gt;Node6 -->
<g id="edge7" class="edge">
<title>Node1&#45;&gt;Node6</title>
<path fill="none" stroke="#63b8ff" d="M62.64,-439C82.77,-397.65 170.61,-217.27 198.77,-159.42"/>
<polygon fill="#63b8ff" stroke="#63b8ff" points="202.08,-160.63 203.31,-150.11 195.78,-157.57 202.08,-160.63"/>
</g>
<!-- Node34 -->
<g id="node34" class="node">
<title>Node34</title>
<g id="a_node34"><a xlink:href="namespacea60_1_1io.html#a5714619410f0816827d4238eb3291d0a" target="_top" xlink:title="Sets man output directory.">
<polygon fill="white" stroke="#666666" points="718.5,-438.5 623.5,-438.5 623.5,-412.5 718.5,-412.5 718.5,-438.5"/>
<text text-anchor="start" x="631.5" y="-428.1" font-family="SourceSans" font-size="8.00">a60::io::set_output</text>
<text text-anchor="middle" x="671" y="-419.1" font-family="SourceSans" font-size="8.00">_prefix</text>
</a>
</g>
</g>
<!-- Node1&#45;&gt;Node34 -->
<g id="edge50" class="edge">
<title>Node1&#45;&gt;Node34</title>
<path fill="none" stroke="#63b8ff" d="M115.21,-445.46C231.61,-441.27 496.35,-431.75 613,-427.55"/>
<polygon fill="#63b8ff" stroke="#63b8ff" points="613.28,-431.04 623.15,-427.19 613.03,-424.05 613.28,-431.04"/>
</g>
<!-- Node3 -->
<g id="node3" class="node">
<title>Node3</title>
<g id="a_node3"><a xlink:href="namespacea60_1_1io.html#a16f17ea9e02c1975ca17b77e46cf7629" target="_top" xlink:title="Make sure a path ends in &#39;/&#39;;.">
<polygon fill="white" stroke="#666666" points="1019.5,-473 929.5,-473 929.5,-456 1019.5,-456 1019.5,-473"/>
<text text-anchor="middle" x="974.5" y="-462.6" font-family="SourceSans" font-size="8.00">a60::io::end_path</text>
</a>
</g>
</g>
<!-- Node2&#45;&gt;Node3 -->
<g id="edge2" class="edge">
<title>Node2&#45;&gt;Node3</title>
<path fill="none" stroke="#63b8ff" d="M870.21,-464.5C885.69,-464.5 903.03,-464.5 919.01,-464.5"/>
<polygon fill="#63b8ff" stroke="#63b8ff" points="919.28,-468 929.28,-464.5 919.28,-461 919.28,-468"/>
</g>
<!-- Node4&#45;&gt;Node2 -->
<g id="edge5" class="edge">
<title>Node4&#45;&gt;Node2</title>
<path fill="none" stroke="#63b8ff" d="M717.11,-494.48C732.5,-490.04 749.89,-485.02 765.97,-480.38"/>
<polygon fill="#63b8ff" stroke="#63b8ff" points="767.15,-483.68 775.79,-477.55 765.21,-476.96 767.15,-483.68"/>
</g>
<!-- Node4&#45;&gt;Node3 -->
<g id="edge4" class="edge">
<title>Node4&#45;&gt;Node3</title>
<path fill="none" stroke="#63b8ff" d="M708.96,-520.51C750.87,-533.25 820.8,-548.34 878,-530.5 909.41,-520.7 939.61,-496.55 957.36,-480.35"/>
<polygon fill="#63b8ff" stroke="#63b8ff" points="960.14,-482.53 965.02,-473.12 955.34,-477.43 960.14,-482.53"/>
</g>
<!-- Node5 -->
<g id="node5" class="node">
<title>Node5</title>
<g id="a_node5"><a xlink:href="namespacea60_1_1io.html#ad8339b50abcf6975587ba229c04066e7" target="_top" xlink:title="Check directory exists, else make it.">
<polygon fill="white" stroke="#666666" points="874,-521.5 770,-521.5 770,-495.5 874,-495.5 874,-521.5"/>
<text text-anchor="start" x="778" y="-511.1" font-family="SourceSans" font-size="8.00">a60::io::sanity_check</text>
<text text-anchor="middle" x="822" y="-502.1" font-family="SourceSans" font-size="8.00">_output_directory</text>
</a>
</g>
</g>
<!-- Node4&#45;&gt;Node5 -->
<g id="edge6" class="edge">
<title>Node4&#45;&gt;Node5</title>
<path fill="none" stroke="#63b8ff" d="M719.14,-507.82C731.99,-507.9 746.09,-508 759.59,-508.09"/>
<polygon fill="#63b8ff" stroke="#63b8ff" points="759.75,-511.59 769.77,-508.16 759.8,-504.59 759.75,-511.59"/>
</g>
<!-- Node7 -->
<g id="node7" class="node">
<title>Node7</title>
<g id="a_node7"><a xlink:href="namespacea60.html#a384a69e042867db6ff2e12764444b39c" target="_top" xlink:title="Run session for torrent, repeat &lt; tickmax, put results in now folder. Default tixmax == 4.">
<polygon fill="white" stroke="#666666" points="412,-232.5 302,-232.5 302,-206.5 412,-206.5 412,-232.5"/>
<text text-anchor="start" x="310" y="-222.1" font-family="SourceSans" font-size="8.00">a60::make_session_for</text>
<text text-anchor="middle" x="357" y="-213.1" font-family="SourceSans" font-size="8.00">_torrent</text>
</a>
</g>
</g>
<!-- Node6&#45;&gt;Node7 -->
<g id="edge8" class="edge">
<title>Node6&#45;&gt;Node7</title>
<path fill="none" stroke="#63b8ff" d="M225.74,-150.15C248.96,-162.51 292.2,-185.53 322.47,-201.65"/>
<polygon fill="#63b8ff" stroke="#63b8ff" points="320.94,-204.8 331.41,-206.41 324.22,-198.62 320.94,-204.8"/>
</g>
<!-- Node27 -->
<g id="node27" class="node">
<title>Node27</title>
<g id="a_node27"><a xlink:href="namespacea60.html#a9f2c8dc1d45c663c1017a1b7b651588d" target="_top" xlink:title="ISO date time stamp as default.">
<polygon fill="white" stroke="#666666" points="869.5,-57.5 774.5,-57.5 774.5,-31.5 869.5,-31.5 869.5,-57.5"/>
<text text-anchor="start" x="782.5" y="-47.1" font-family="SourceSans" font-size="8.00">a60::time_point_as</text>
<text text-anchor="middle" x="822" y="-38.1" font-family="SourceSans" font-size="8.00">_string</text>
</a>
</g>
</g>
<!-- Node6&#45;&gt;Node27 -->
<g id="edge49" class="edge">
<title>Node6&#45;&gt;Node27</title>
<path fill="none" stroke="#63b8ff" d="M228.47,-132.97C268.22,-115.58 363.54,-76.32 448,-60.5 558.36,-39.83 690.16,-39.81 763.85,-41.95"/>
<polygon fill="#63b8ff" stroke="#63b8ff" points="764.18,-45.47 774.29,-42.28 764.41,-38.47 764.18,-45.47"/>
</g>
<!-- Node33 -->
<g id="node33" class="node">
<title>Node33</title>
<g id="a_node33"><a xlink:href="namespacea60_1_1io.html#aea30b8fc474f5a7b922516dc1e199037" target="_top" xlink:title="Takes a string representing a directory, returns a sorted list of contents as a std::vector&lt;string&gt;.">
<polygon fill="white" stroke="#666666" points="412,-17 302,-17 302,0 412,0 412,-17"/>
<text text-anchor="middle" x="357" y="-6.6" font-family="SourceSans" font-size="8.00">a60::io::populate_files</text>
</a>
</g>
</g>
<!-- Node6&#45;&gt;Node33 -->
<g id="edge48" class="edge">
<title>Node6&#45;&gt;Node33</title>
<path fill="none" stroke="#63b8ff" d="M214.7,-132.88C227.32,-112.64 261.49,-61.48 302,-31.5 307.32,-27.56 313.42,-24.14 319.56,-21.23"/>
<polygon fill="#63b8ff" stroke="#63b8ff" points="321.35,-24.26 329.13,-17.07 318.56,-17.84 321.35,-24.26"/>
</g>
<!-- Node8 -->
<g id="node8" class="node">
<title>Node8</title>
<g id="a_node8"><a xlink:href="namespacea60.html#a732ca2d85679838beb92881e9f39a999" target="_top" xlink:title="Engage bittorrent, create session.">
<polygon fill="white" stroke="#666666" points="568,-173 456,-173 456,-156 568,-156 568,-173"/>
<text text-anchor="middle" x="512" y="-162.6" font-family="SourceSans" font-size="8.00">a60::configure_session</text>
</a>
</g>
</g>
<!-- Node7&#45;&gt;Node8 -->
<g id="edge9" class="edge">
<title>Node7&#45;&gt;Node8</title>
<path fill="none" stroke="#63b8ff" d="M394.26,-206.47C419.42,-197.42 452.71,-185.45 477.3,-176.62"/>
<polygon fill="#63b8ff" stroke="#63b8ff" points="478.69,-179.83 486.92,-173.16 476.33,-173.25 478.69,-179.83"/>
</g>
<!-- Node9 -->
<g id="node9" class="node">
<title>Node9</title>
<g id="a_node9"><a xlink:href="namespacea60.html#a8b9a182b9bab06f3abea397c373a5f6b" target="_top" xlink:title="Print info about torrent_handle.">
<polygon fill="white" stroke="#666666" points="561,-137.5 463,-137.5 463,-111.5 561,-111.5 561,-137.5"/>
<text text-anchor="start" x="471" y="-127.1" font-family="SourceSans" font-size="8.00">a60::display_torrent</text>
<text text-anchor="middle" x="512" y="-118.1" font-family="SourceSans" font-size="8.00">_handle</text>
</a>
</g>
</g>
<!-- Node7&#45;&gt;Node9 -->
<g id="edge10" class="edge">
<title>Node7&#45;&gt;Node9</title>
<path fill="none" stroke="#63b8ff" d="M371.24,-206.24C387.89,-190.2 417.95,-163.26 448,-146.5 451.08,-144.78 454.31,-143.16 457.63,-141.64"/>
<polygon fill="#63b8ff" stroke="#63b8ff" points="459.27,-144.75 467.1,-137.62 456.53,-138.31 459.27,-144.75"/>
</g>
<!-- Node10 -->
<g id="node10" class="node">
<title>Node10</title>
<g id="a_node10"><a xlink:href="namespacea60.html#a291221a4eb53708506dceedfd78ad3e1" target="_top" xlink:title="Print info about torrent_status. (ie, just from the torrent file).">
<polygon fill="white" stroke="#666666" points="561,-400.5 463,-400.5 463,-374.5 561,-374.5 561,-400.5"/>
<text text-anchor="start" x="471" y="-390.1" font-family="SourceSans" font-size="8.00">a60::display_torrent</text>
<text text-anchor="middle" x="512" y="-381.1" font-family="SourceSans" font-size="8.00">_status</text>
</a>
</g>
</g>
<!-- Node7&#45;&gt;Node10 -->
<g id="edge11" class="edge">
<title>Node7&#45;&gt;Node10</title>
<path fill="none" stroke="#63b8ff" d="M362.76,-232.76C373.54,-260.99 402.48,-327.49 448,-364.5 450.24,-366.32 452.65,-368.01 455.15,-369.57"/>
<polygon fill="#63b8ff" stroke="#63b8ff" points="453.56,-372.69 464.02,-374.39 456.9,-366.54 453.56,-372.69"/>
</g>
<!-- Node11 -->
<g id="node11" class="node">
<title>Node11</title>
<g id="a_node11"><a xlink:href="namespacea60_1_1io.html#a89f2bd581ec510ccc0a8cfedccff7bd0" target="_top" xlink:title="Top level of directory for output files.">
<polygon fill="white" stroke="#666666" points="719,-325.5 623,-325.5 623,-299.5 719,-299.5 719,-325.5"/>
<text text-anchor="start" x="631" y="-315.1" font-family="SourceSans" font-size="8.00">a60::io::get_output</text>
<text text-anchor="middle" x="671" y="-306.1" font-family="SourceSans" font-size="8.00">_directory</text>
</a>
</g>
</g>
<!-- Node7&#45;&gt;Node11 -->
<g id="edge12" class="edge">
<title>Node7&#45;&gt;Node11</title>
<path fill="none" stroke="#63b8ff" d="M388.05,-232.65C405.38,-239.95 427.69,-248.86 448,-255.5 503.21,-273.54 567.63,-289.54 612.81,-299.96"/>
<polygon fill="#63b8ff" stroke="#63b8ff" points="612.19,-303.41 622.72,-302.23 613.75,-296.59 612.19,-303.41"/>
</g>
<!-- Node12 -->
<g id="node12" class="node">
<title>Node12</title>
<g id="a_node12"><a xlink:href="namespacea60.html#afe8d89ca4ef974726fd66dbda364cbf1" target="_top" xlink:title="Given session and magnet file, make session.">
<polygon fill="white" stroke="#666666" points="576,-321 448,-321 448,-304 576,-304 576,-321"/>
<text text-anchor="middle" x="512" y="-310.6" font-family="SourceSans" font-size="8.00">a60::make_magnet_handle</text>
</a>
</g>
</g>
<!-- Node7&#45;&gt;Node12 -->
<g id="edge15" class="edge">
<title>Node7&#45;&gt;Node12</title>
<path fill="none" stroke="#63b8ff" d="M371.98,-232.65C388.88,-247.98 418.73,-273.3 448,-289.5 455.54,-293.67 463.99,-297.36 472.19,-300.49"/>
<polygon fill="#63b8ff" stroke="#63b8ff" points="471.04,-303.79 481.63,-303.9 473.42,-297.21 471.04,-303.79"/>
</g>
<!-- Node13 -->
<g id="node13" class="node">
<title>Node13</title>
<g id="a_node13"><a xlink:href="namespacea60.html#a1ae4660be19d8586055437f379fa4985" target="_top" xlink:title="Configure torrent session.">
<polygon fill="white" stroke="#666666" points="572,-356 452,-356 452,-339 572,-339 572,-356"/>
<text text-anchor="middle" x="512" y="-345.6" font-family="SourceSans" font-size="8.00">a60::make_settings_pack</text>
</a>
</g>
</g>
<!-- Node7&#45;&gt;Node13 -->
<g id="edge17" class="edge">
<title>Node7&#45;&gt;Node13</title>
<path fill="none" stroke="#63b8ff" d="M365.05,-232.53C378.23,-255.63 408.83,-303.74 448,-329.5 451.27,-331.65 454.81,-333.55 458.47,-335.23"/>
<polygon fill="#63b8ff" stroke="#63b8ff" points="457.19,-338.49 467.78,-338.95 459.79,-331.99 457.19,-338.49"/>
</g>
<!-- Node14 -->
<g id="node14" class="node">
<title>Node14</title>
<g id="a_node14"><a xlink:href="namespacea60.html#a0024ebebf4beab70240ed62e88733a5e" target="_top" xlink:title="Given session and torrent file, add torrent to session.">
<polygon fill="white" stroke="#666666" points="573.5,-247 450.5,-247 450.5,-230 573.5,-230 573.5,-247"/>
<text text-anchor="middle" x="512" y="-236.6" font-family="SourceSans" font-size="8.00">a60::make_torrent_handle</text>
</a>
</g>
</g>
<!-- Node7&#45;&gt;Node14 -->
<g id="edge18" class="edge">
<title>Node7&#45;&gt;Node14</title>
<path fill="none" stroke="#63b8ff" d="M412.37,-226.25C421.39,-227.37 430.86,-228.55 440.22,-229.71"/>
<polygon fill="#63b8ff" stroke="#63b8ff" points="439.94,-233.2 450.3,-230.96 440.8,-226.26 439.94,-233.2"/>
</g>
<!-- Node7&#45;&gt;Node27 -->
<g id="edge47" class="edge">
<title>Node7&#45;&gt;Node27</title>
<path fill="none" stroke="#63b8ff" d="M363.93,-206.3C375.88,-181.37 405.41,-127.64 448,-102.5 557.18,-38.06 604.78,-79.37 730,-59.5 741.02,-57.75 752.78,-55.84 764.06,-53.99"/>
<polygon fill="#63b8ff" stroke="#63b8ff" points="764.96,-57.39 774.26,-52.32 763.82,-50.49 764.96,-57.39"/>
</g>
<!-- Node28 -->
<g id="node28" class="node">
<title>Node28</title>
<g id="a_node28"><a xlink:href="namespacea60.html#ab629c2f2a2ce0c6e94f1b2093eceb42e" target="_top" xlink:title="Info about torrent_info, serialized to json.">
<polygon fill="white" stroke="#666666" points="723,-197.5 619,-197.5 619,-171.5 723,-171.5 723,-197.5"/>
<text text-anchor="start" x="627" y="-187.1" font-family="SourceSans" font-size="8.00">a60::serialize_torrent</text>
<text text-anchor="middle" x="671" y="-178.1" font-family="SourceSans" font-size="8.00">_handle_json</text>
</a>
</g>
</g>
<!-- Node7&#45;&gt;Node28 -->
<g id="edge37" class="edge">
<title>Node7&#45;&gt;Node28</title>
<path fill="none" stroke="#63b8ff" d="M412.35,-213.4C467.19,-207.25 551.73,-197.77 608.88,-191.36"/>
<polygon fill="#63b8ff" stroke="#63b8ff" points="609.31,-194.83 618.86,-190.24 608.53,-187.87 609.31,-194.83"/>
</g>
<!-- Node11&#45;&gt;Node2 -->
<g id="edge14" class="edge">
<title>Node11&#45;&gt;Node2</title>
<path fill="none" stroke="#63b8ff" d="M684.96,-325.72C710.94,-352.22 769.55,-412.01 800.68,-443.77"/>
<polygon fill="#63b8ff" stroke="#63b8ff" points="798.46,-446.51 807.96,-451.2 803.46,-441.61 798.46,-446.51"/>
</g>
<!-- Node11&#45;&gt;Node3 -->
<g id="edge13" class="edge">
<title>Node11&#45;&gt;Node3</title>
<path fill="none" stroke="#63b8ff" d="M695.8,-325.65C734.16,-346.86 812.05,-389.93 878,-426.5 894.01,-435.38 897.14,-439.37 914,-446.5 919.41,-448.79 925.21,-450.92 930.99,-452.86"/>
<polygon fill="#63b8ff" stroke="#63b8ff" points="930.04,-456.23 940.63,-455.92 932.16,-449.56 930.04,-456.23"/>
</g>
<!-- Node12&#45;&gt;Node11 -->
<g id="edge16" class="edge">
<title>Node12&#45;&gt;Node11</title>
<path fill="none" stroke="#63b8ff" d="M576.41,-312.5C588.39,-312.5 600.85,-312.5 612.63,-312.5"/>
<polygon fill="#63b8ff" stroke="#63b8ff" points="612.78,-316 622.78,-312.5 612.78,-309 612.78,-316"/>
</g>
<!-- Node14&#45;&gt;Node11 -->
<g id="edge36" class="edge">
<title>Node14&#45;&gt;Node11</title>
<path fill="none" stroke="#63b8ff" d="M539.09,-247.06C550.57,-251.07 564.11,-256.14 576,-261.5 597.62,-271.25 621.07,-283.97 639.14,-294.26"/>
<polygon fill="#63b8ff" stroke="#63b8ff" points="637.64,-297.44 648.06,-299.4 641.14,-291.37 637.64,-297.44"/>
</g>
<!-- Node15 -->
<g id="node15" class="node">
<title>Node15</title>
<g id="a_node15"><a xlink:href="namespacea60.html#a36ea22d12ecf44568213ff453ad1da2c" target="_top" xlink:title="Print info about torrent_info.">
<polygon fill="white" stroke="#666666" points="730,-257 612,-257 612,-240 730,-240 730,-257"/>
<text text-anchor="middle" x="671" y="-246.6" font-family="SourceSans" font-size="8.00">a60::display_torrent_info</text>
</a>
</g>
</g>
<!-- Node14&#45;&gt;Node15 -->
<g id="edge19" class="edge">
<title>Node14&#45;&gt;Node15</title>
<path fill="none" stroke="#63b8ff" d="M573.7,-242.37C582.89,-242.95 592.42,-243.56 601.76,-244.15"/>
<polygon fill="#63b8ff" stroke="#63b8ff" points="601.58,-247.65 611.78,-244.79 602.02,-240.66 601.58,-247.65"/>
</g>
<!-- Node16 -->
<g id="node16" class="node">
<title>Node16</title>
<g id="a_node16"><a xlink:href="namespacea60_1_1geo.html#a2ec44da723ee6128696872f94d989c7f" target="_top" xlink:title="Address to IP/Geo.">
<polygon fill="white" stroke="#666666" points="872.5,-330.5 771.5,-330.5 771.5,-304.5 872.5,-304.5 872.5,-330.5"/>
<text text-anchor="start" x="779.5" y="-320.1" font-family="SourceSans" font-size="8.00">a60::geo::display_ip</text>
<text text-anchor="middle" x="822" y="-311.1" font-family="SourceSans" font-size="8.00">_and_geo_info</text>
</a>
</g>
</g>
<!-- Node15&#45;&gt;Node16 -->
<g id="edge20" class="edge">
<title>Node15&#45;&gt;Node16</title>
<path fill="none" stroke="#63b8ff" d="M690.57,-257.1C713.73,-267.82 753.88,-286.42 783.54,-300.15"/>
<polygon fill="#63b8ff" stroke="#63b8ff" points="782.21,-303.4 792.76,-304.42 785.16,-297.04 782.21,-303.4"/>
</g>
<!-- Node25 -->
<g id="node25" class="node">
<title>Node25</title>
<g id="a_node25"><a xlink:href="namespacea60.html#aafdf18ade22a9e669299209ed5a8bdc6" target="_top" xlink:title="Once.">
<polygon fill="white" stroke="#666666" points="874,-267 770,-267 770,-250 874,-250 874,-267"/>
<text text-anchor="middle" x="822" y="-256.6" font-family="SourceSans" font-size="8.00">a60::host_ip_address</text>
</a>
</g>
</g>
<!-- Node15&#45;&gt;Node25 -->
<g id="edge32" class="edge">
<title>Node15&#45;&gt;Node25</title>
<path fill="none" stroke="#63b8ff" d="M730.03,-252.39C739.74,-253.05 749.83,-253.72 759.62,-254.38"/>
<polygon fill="#63b8ff" stroke="#63b8ff" points="759.46,-257.88 769.67,-255.06 759.93,-250.89 759.46,-257.88"/>
</g>
<!-- Node15&#45;&gt;Node27 -->
<g id="edge34" class="edge">
<title>Node15&#45;&gt;Node27</title>
<path fill="none" stroke="#63b8ff" d="M689.39,-239.96C702.37,-232.74 719.59,-221.22 730,-206.5 762.64,-160.34 733.41,-130.69 766,-84.5 771.76,-76.34 779.72,-69.2 787.8,-63.3"/>
<polygon fill="#63b8ff" stroke="#63b8ff" points="789.86,-66.13 796.17,-57.62 785.93,-60.34 789.86,-66.13"/>
</g>
<!-- Node17 -->
<g id="node17" class="node">
<title>Node17</title>
<g id="a_node17"><a xlink:href="structa60_1_1geo_1_1country__map.html#a96a87722e7988878c37210a8bb208624" target="_top" xlink:title=" ">
<polygon fill="white" stroke="#666666" points="1034.5,-349.5 914.5,-349.5 914.5,-323.5 1034.5,-323.5 1034.5,-349.5"/>
<text text-anchor="start" x="922.5" y="-339.1" font-family="SourceSans" font-size="8.00">a60::geo::country_map</text>
<text text-anchor="middle" x="974.5" y="-330.1" font-family="SourceSans" font-size="8.00">::country_code_via_string</text>
</a>
</g>
</g>
<!-- Node16&#45;&gt;Node17 -->
<g id="edge21" class="edge">
<title>Node16&#45;&gt;Node17</title>
<path fill="none" stroke="#63b8ff" d="M872.7,-323.77C882.82,-325.05 893.64,-326.42 904.3,-327.76"/>
<polygon fill="#63b8ff" stroke="#63b8ff" points="904.08,-331.26 914.44,-329.04 904.96,-324.32 904.08,-331.26"/>
</g>
<!-- Node19 -->
<g id="node19" class="node">
<title>Node19</title>
<g id="a_node19"><a xlink:href="namespacea60_1_1geo.html#a7d8058b0d2e8d5f5c90dfe2cab6fc462" target="_top" xlink:title=" ">
<polygon fill="white" stroke="#666666" points="1187,-304 1071,-304 1071,-287 1187,-287 1187,-304"/>
<text text-anchor="middle" x="1129" y="-293.6" font-family="SourceSans" font-size="8.00">a60::geo::safe_if_empty</text>
</a>
</g>
</g>
<!-- Node16&#45;&gt;Node19 -->
<g id="edge31" class="edge">
<title>Node16&#45;&gt;Node19</title>
<path fill="none" stroke="#63b8ff" d="M872.68,-313.92C923.77,-310.23 1003.68,-304.47 1060.48,-300.37"/>
<polygon fill="#63b8ff" stroke="#63b8ff" points="1061.08,-303.84 1070.8,-299.63 1060.58,-296.85 1061.08,-303.84"/>
</g>
<!-- Node21 -->
<g id="node21" class="node">
<title>Node21</title>
<g id="a_node21"><a xlink:href="structa60_1_1geo_1_1city__map_1_1record.html#a7b30bf979e46ddb75bc274871e4ab367" target="_top" xlink:title=" ">
<polygon fill="white" stroke="#666666" points="1032,-437.5 917,-437.5 917,-411.5 1032,-411.5 1032,-437.5"/>
<text text-anchor="start" x="925" y="-427.1" font-family="SourceSans" font-size="8.00">a60::geo::city_map</text>
<text text-anchor="middle" x="974.5" y="-418.1" font-family="SourceSans" font-size="8.00">::record::is_record_open</text>
</a>
</g>
</g>
<!-- Node16&#45;&gt;Node21 -->
<g id="edge26" class="edge">
<title>Node16&#45;&gt;Node21</title>
<path fill="none" stroke="#63b8ff" d="M837.6,-330.53C848.75,-340.54 864.46,-354.77 878,-367.5 894.26,-382.79 895.13,-390.59 914,-402.5 916.62,-404.15 919.38,-405.7 922.21,-407.16"/>
<polygon fill="#63b8ff" stroke="#63b8ff" points="920.93,-410.43 931.47,-411.49 923.9,-404.09 920.93,-410.43"/>
</g>
<!-- Node22 -->
<g id="node22" class="node">
<title>Node22</title>
<g id="a_node22"><a xlink:href="structa60_1_1geo_1_1map__base.html#a9215731f10e2fa8488b0e081c2a5cef4" target="_top" xlink:title=" ">
<polygon fill="white" stroke="#666666" points="1025.5,-231.5 923.5,-231.5 923.5,-205.5 1025.5,-205.5 1025.5,-231.5"/>
<text text-anchor="start" x="931.5" y="-221.1" font-family="SourceSans" font-size="8.00">a60::geo::map_base</text>
<text text-anchor="middle" x="974.5" y="-212.1" font-family="SourceSans" font-size="8.00">::open</text>
</a>
</g>
</g>
<!-- Node16&#45;&gt;Node22 -->
<g id="edge27" class="edge">
<title>Node16&#45;&gt;Node22</title>
<path fill="none" stroke="#63b8ff" d="M841.26,-304.41C852.17,-296.37 866.17,-285.7 878,-275.5 894.9,-260.92 895.13,-252.41 914,-240.5 916.62,-238.85 919.38,-237.3 922.21,-235.84"/>
<polygon fill="#63b8ff" stroke="#63b8ff" points="923.9,-238.91 931.47,-231.51 920.93,-232.57 923.9,-238.91"/>
</g>
<!-- Node24 -->
<g id="node24" class="node">
<title>Node24</title>
<g id="a_node24"><a xlink:href="structa60_1_1geo_1_1city__map.html#a8edb2011397d2166076b33f5187afe18" target="_top" xlink:title=" ">
<polygon fill="white" stroke="#666666" points="1022.5,-393.5 926.5,-393.5 926.5,-367.5 1022.5,-367.5 1022.5,-393.5"/>
<text text-anchor="start" x="934.5" y="-383.1" font-family="SourceSans" font-size="8.00">a60::geo::city_map</text>
<text text-anchor="middle" x="974.5" y="-374.1" font-family="SourceSans" font-size="8.00">::open_record</text>
</a>
</g>
</g>
<!-- Node16&#45;&gt;Node24 -->
<g id="edge29" class="edge">
<title>Node16&#45;&gt;Node24</title>
<path fill="none" stroke="#63b8ff" d="M850.66,-330.56C868.59,-338.88 892.51,-349.7 914,-358.5 918.36,-360.28 922.92,-362.09 927.49,-363.85"/>
<polygon fill="#63b8ff" stroke="#63b8ff" points="926.25,-367.12 936.84,-367.4 928.74,-360.58 926.25,-367.12"/>
</g>
<!-- Node18 -->
<g id="node18" class="node">
<title>Node18</title>
<g id="a_node18"><a xlink:href="structa60_1_1geo_1_1map__base.html#ae86685f27b25cdaead9c94752618b2e4" target="_top" xlink:title=" ">
<polygon fill="white" stroke="#666666" points="1180,-401.5 1078,-401.5 1078,-375.5 1180,-375.5 1180,-401.5"/>
<text text-anchor="start" x="1086" y="-391.1" font-family="SourceSans" font-size="8.00">a60::geo::map_base</text>
<text text-anchor="middle" x="1129" y="-382.1" font-family="SourceSans" font-size="8.00">::is_map_open</text>
</a>
</g>
</g>
<!-- Node17&#45;&gt;Node18 -->
<g id="edge22" class="edge">
<title>Node17&#45;&gt;Node18</title>
<path fill="none" stroke="#63b8ff" d="M1013.98,-349.62C1034.11,-356.48 1058.93,-364.95 1080.26,-372.22"/>
<polygon fill="#63b8ff" stroke="#63b8ff" points="1079.2,-375.56 1089.79,-375.47 1081.46,-368.93 1079.2,-375.56"/>
</g>
<!-- Node17&#45;&gt;Node19 -->
<g id="edge23" class="edge">
<title>Node17&#45;&gt;Node19</title>
<path fill="none" stroke="#63b8ff" d="M1024.17,-323.41C1044.21,-318.03 1067.19,-311.85 1086.43,-306.68"/>
<polygon fill="#63b8ff" stroke="#63b8ff" points="1087.37,-310.05 1096.11,-304.07 1085.55,-303.29 1087.37,-310.05"/>
</g>
<!-- Node20 -->
<g id="node20" class="node">
<title>Node20</title>
<g id="a_node20"><a xlink:href="namespacea60_1_1constants.html#a01d9786063fb572d9389b0cd207bbe53" target="_top" xlink:title=" ">
<polygon fill="white" stroke="#666666" points="1178,-339 1080,-339 1080,-322 1178,-322 1178,-339"/>
<text text-anchor="middle" x="1129" y="-328.6" font-family="SourceSans" font-size="8.00">a60::constants::tab</text>
</a>
</g>
</g>
<!-- Node17&#45;&gt;Node20 -->
<g id="edge24" class="edge">
<title>Node17&#45;&gt;Node20</title>
<path fill="none" stroke="#63b8ff" d="M1034.9,-334.16C1046.29,-333.71 1058.22,-333.25 1069.59,-332.8"/>
<polygon fill="#63b8ff" stroke="#63b8ff" points="1069.98,-336.29 1079.84,-332.39 1069.71,-329.29 1069.98,-336.29"/>
</g>
<!-- Node20&#45;&gt;Node20 -->
<g id="edge25" class="edge">
<title>Node20&#45;&gt;Node20</title>
<path fill="none" stroke="#63b8ff" d="M1106.05,-339.19C1093.38,-347.67 1101.03,-357 1129,-357 1147.79,-357 1157.41,-352.79 1157.86,-347.45"/>
<polygon fill="#63b8ff" stroke="#63b8ff" points="1160.61,-345.28 1151.95,-339.19 1154.92,-349.36 1160.61,-345.28"/>
</g>
<!-- Node23 -->
<g id="node23" class="node">
<title>Node23</title>
<g id="a_node23"><a xlink:href="namespacea60_1_1io.html#aa5fbb8ab63397dd45c4a54c0758935ef" target="_top" xlink:title="Sanity check input existence.">
<polygon fill="white" stroke="#666666" points="1181,-231.5 1077,-231.5 1077,-205.5 1181,-205.5 1181,-231.5"/>
<text text-anchor="start" x="1085" y="-221.1" font-family="SourceSans" font-size="8.00">a60::io::sanity_check</text>
<text text-anchor="middle" x="1129" y="-212.1" font-family="SourceSans" font-size="8.00">_input</text>
</a>
</g>
</g>
<!-- Node22&#45;&gt;Node23 -->
<g id="edge28" class="edge">
<title>Node22&#45;&gt;Node23</title>
<path fill="none" stroke="#63b8ff" d="M1025.86,-218.5C1038.92,-218.5 1053.14,-218.5 1066.7,-218.5"/>
<polygon fill="#63b8ff" stroke="#63b8ff" points="1066.91,-222 1076.91,-218.5 1066.91,-215 1066.91,-222"/>
</g>
<!-- Node24&#45;&gt;Node18 -->
<g id="edge30" class="edge">
<title>Node24&#45;&gt;Node18</title>
<path fill="none" stroke="#63b8ff" d="M1022.92,-382.99C1037.12,-383.73 1052.9,-384.56 1067.81,-385.34"/>
<polygon fill="#63b8ff" stroke="#63b8ff" points="1067.8,-388.85 1077.97,-385.88 1068.17,-381.86 1067.8,-388.85"/>
</g>
<!-- Node26 -->
<g id="node26" class="node">
<title>Node26</title>
<g id="a_node26"><a xlink:href="namespacea60.html#ac912026493721c2646a3336faffe1baa" target="_top" xlink:title="Test machine&#39;s address.">
<polygon fill="white" stroke="#666666" points="1035,-267 914,-267 914,-250 1035,-250 1035,-267"/>
<text text-anchor="middle" x="974.5" y="-256.6" font-family="SourceSans" font-size="8.00">a60::get_host_ip_address</text>
</a>
</g>
</g>
<!-- Node25&#45;&gt;Node26 -->
<g id="edge33" class="edge">
<title>Node25&#45;&gt;Node26</title>
<path fill="none" stroke="#63b8ff" d="M874.37,-258.5C883.79,-258.5 893.76,-258.5 903.61,-258.5"/>
<polygon fill="#63b8ff" stroke="#63b8ff" points="903.8,-262 913.8,-258.5 903.8,-255 903.8,-262"/>
</g>
<!-- Node27&#45;&gt;Node27 -->
<g id="edge35" class="edge">
<title>Node27&#45;&gt;Node27</title>
<path fill="none" stroke="#63b8ff" d="M796.62,-57.56C788.93,-66.6 797.39,-75.5 822,-75.5 837,-75.5 846,-72.19 849,-67.57"/>
<polygon fill="#63b8ff" stroke="#63b8ff" points="852.43,-66.87 847.38,-57.56 845.52,-67.99 852.43,-66.87"/>
</g>
<!-- Node28&#45;&gt;Node22 -->
<g id="edge44" class="edge">
<title>Node28&#45;&gt;Node22</title>
<path fill="none" stroke="#63b8ff" d="M723.08,-194.67C736.96,-197.18 752.02,-199.67 766,-201.5 815.39,-207.97 871.74,-212.4 913.24,-215.12"/>
<polygon fill="#63b8ff" stroke="#63b8ff" points="913.26,-218.62 923.46,-215.77 913.71,-211.64 913.26,-218.62"/>
</g>
<!-- Node28&#45;&gt;Node25 -->
<g id="edge38" class="edge">
<title>Node28&#45;&gt;Node25</title>
<path fill="none" stroke="#63b8ff" d="M694.46,-197.52C713.3,-208.24 741.05,-223.55 766,-235.5 773.55,-239.11 781.82,-242.74 789.59,-246.01"/>
<polygon fill="#63b8ff" stroke="#63b8ff" points="788.52,-249.35 799.09,-249.93 791.19,-242.88 788.52,-249.35"/>
</g>
<!-- Node28&#45;&gt;Node27 -->
<g id="edge46" class="edge">
<title>Node28&#45;&gt;Node27</title>
<path fill="none" stroke="#63b8ff" d="M682.87,-171.45C699.68,-151.62 733.47,-113.18 766,-84.5 774.39,-77.1 784.1,-69.7 793.01,-63.32"/>
<polygon fill="#63b8ff" stroke="#63b8ff" points="795.06,-66.15 801.23,-57.54 791.04,-60.42 795.06,-66.15"/>
</g>
<!-- Node29 -->
<g id="node29" class="node">
<title>Node29</title>
<g id="a_node29"><a xlink:href="namespacea60.html#ad300edc3a7396b9f52a64f37e9443891" target="_top" xlink:title="No GeoIP.">
<polygon fill="white" stroke="#666666" points="1028,-152 921,-152 921,-135 1028,-135 1028,-152"/>
<text text-anchor="middle" x="974.5" y="-141.6" font-family="SourceSans" font-size="8.00">a60::make_meta_peer</text>
</a>
</g>
</g>
<!-- Node28&#45;&gt;Node29 -->
<g id="edge39" class="edge">
<title>Node28&#45;&gt;Node29</title>
<path fill="none" stroke="#63b8ff" d="M723.1,-173.96C736.98,-171.3 752.03,-168.61 766,-166.5 814.4,-159.19 869.49,-153.2 910.73,-149.16"/>
<polygon fill="#63b8ff" stroke="#63b8ff" points="911.29,-152.62 920.9,-148.17 910.61,-145.65 911.29,-152.62"/>
</g>
<!-- Node30 -->
<g id="node30" class="node">
<title>Node30</title>
<g id="a_node30"><a xlink:href="namespacea60.html#a9d37f2f6f8a4b125ee6304d15a118f61" target="_top" xlink:title=" ">
<polygon fill="white" stroke="#666666" points="878,-193 766,-193 766,-176 878,-176 878,-193"/>
<text text-anchor="middle" x="822" y="-182.6" font-family="SourceSans" font-size="8.00">a60::make_meta_peers</text>
</a>
</g>
</g>
<!-- Node28&#45;&gt;Node30 -->
<g id="edge40" class="edge">
<title>Node28&#45;&gt;Node30</title>
<path fill="none" stroke="#63b8ff" d="M723.28,-184.5C733.68,-184.5 744.74,-184.5 755.56,-184.5"/>
<polygon fill="#63b8ff" stroke="#63b8ff" points="755.81,-188 765.81,-184.5 755.81,-181 755.81,-188"/>
</g>
<!-- Node32 -->
<g id="node32" class="node">
<title>Node32</title>
<g id="a_node32"><a xlink:href="namespacea60.html#a2228baa081fe66cea91ed8032bda4732" target="_top" xlink:title="Serialize meta_peer.">
<polygon fill="white" stroke="#666666" points="871,-119.5 773,-119.5 773,-93.5 871,-93.5 871,-119.5"/>
<text text-anchor="start" x="781" y="-109.1" font-family="SourceSans" font-size="8.00">a60::serialize_meta</text>
<text text-anchor="middle" x="822" y="-100.1" font-family="SourceSans" font-size="8.00">_peer_json</text>
</a>
</g>
</g>
<!-- Node28&#45;&gt;Node32 -->
<g id="edge45" class="edge">
<title>Node28&#45;&gt;Node32</title>
<path fill="none" stroke="#63b8ff" d="M695.42,-171.45C714.36,-160.98 741.75,-146.02 766,-133.5 772.03,-130.38 778.48,-127.14 784.75,-124.03"/>
<polygon fill="#63b8ff" stroke="#63b8ff" points="786.33,-127.16 793.75,-119.6 783.24,-120.88 786.33,-127.16"/>
</g>
<!-- Node30&#45;&gt;Node22 -->
<g id="edge43" class="edge">
<title>Node30&#45;&gt;Node22</title>
<path fill="none" stroke="#63b8ff" d="M860.98,-193.08C876.77,-196.65 895.5,-200.88 913.1,-204.85"/>
<polygon fill="#63b8ff" stroke="#63b8ff" points="912.78,-208.37 923.3,-207.16 914.32,-201.54 912.78,-208.37"/>
</g>
<!-- Node30&#45;&gt;Node29 -->
<g id="edge41" class="edge">
<title>Node30&#45;&gt;Node29</title>
<path fill="none" stroke="#63b8ff" d="M854.55,-175.91C877.2,-169.73 907.94,-161.36 932.49,-154.67"/>
<polygon fill="#63b8ff" stroke="#63b8ff" points="933.52,-158.02 942.25,-152.01 931.68,-151.26 933.52,-158.02"/>
</g>
<!-- Node31 -->
<g id="node31" class="node">
<title>Node31</title>
<g id="a_node31"><a xlink:href="namespacea60.html#afa4b02aa30f3ff7828561abb787ede03" target="_top" xlink:title="Less than compare for meta_peer via geo.">
<polygon fill="white" stroke="#666666" points="1029.5,-187 919.5,-187 919.5,-170 1029.5,-170 1029.5,-187"/>
<text text-anchor="middle" x="974.5" y="-176.6" font-family="SourceSans" font-size="8.00">a60::meta_peer_lt_geo</text>
</a>
</g>
</g>
<!-- Node30&#45;&gt;Node31 -->
<g id="edge42" class="edge">
<title>Node30&#45;&gt;Node31</title>
<path fill="none" stroke="#63b8ff" d="M878.19,-182.3C888.25,-181.9 898.84,-181.48 909.14,-181.07"/>
<polygon fill="#63b8ff" stroke="#63b8ff" points="909.47,-184.56 919.33,-180.66 909.19,-177.56 909.47,-184.56"/>
</g>
<!-- Node34&#45;&gt;Node2 -->
<g id="edge52" class="edge">
<title>Node34&#45;&gt;Node2</title>
<path fill="none" stroke="#63b8ff" d="M718.74,-437.73C733.16,-441.51 749.2,-445.71 764.22,-449.64"/>
<polygon fill="#63b8ff" stroke="#63b8ff" points="763.36,-453.03 773.92,-452.18 765.13,-446.26 763.36,-453.03"/>
</g>
<!-- Node34&#45;&gt;Node3 -->
<g id="edge51" class="edge">
<title>Node34&#45;&gt;Node3</title>
<path fill="none" stroke="#63b8ff" d="M718.86,-427.44C760.76,-429.63 823.75,-434.06 878,-442.5 895.68,-445.25 914.95,-449.46 931.52,-453.45"/>
<polygon fill="#63b8ff" stroke="#63b8ff" points="930.91,-456.91 941.45,-455.9 932.58,-450.11 930.91,-456.91"/>
</g>
</g>
</svg>
        <g id="navigator" transform="translate(0 0)" fill="#404254">
                <rect fill="#f2f5e9" fill-opacity="0.5" stroke="#606060" stroke-width=".5" x="0" y="0" width="60" height="60"/>
                <use id="zoomplus" xlink:href="#zoomPlus" x="17" y="9" onmousedown="handleZoom(evt,'in')"/>
                <use id="zoomminus" xlink:href="#zoomMin" x="42" y="9" onmousedown="handleZoom(evt,'out')"/>
                <use id="reset" xlink:href="#resetDef" x="30" y="36" onmousedown="handleReset()"/>
                <g id="arrowUp" xlink:href="#dirArrow" transform="translate(30 24)" onmousedown="handlePan(0,-1)">
                  <use xlink:href="#rim" fill="#404040">
                        <set attributeName="fill" to="#808080" begin="arrowUp.mouseover" end="arrowUp.mouseout"/>
                  </use>
                  <path fill="none" stroke="white" stroke-width="1.5" d="M0,-3.0v7 M-2.5,-0.5L0,-3.0L2.5,-0.5"/>
                </g>
                <g id="arrowRight" xlink:href="#dirArrow" transform="rotate(90) translate(36 -43)" onmousedown="handlePan(1,0)">
                  <use xlink:href="#rim" fill="#404040">
                        <set attributeName="fill" to="#808080" begin="arrowRight.mouseover" end="arrowRight.mouseout"/>
                  </use>
                  <path fill="none" stroke="white" stroke-width="1.5" d="M0,-3.0v7 M-2.5,-0.5L0,-3.0L2.5,-0.5"/>
                </g>
                <g id="arrowDown" xlink:href="#dirArrow" transform="rotate(180) translate(-30 -48)" onmousedown="handlePan(0,1)">
                  <use xlink:href="#rim" fill="#404040">
                        <set attributeName="fill" to="#808080" begin="arrowDown.mouseover" end="arrowDown.mouseout"/>
                  </use>
                  <path fill="none" stroke="white" stroke-width="1.5" d="M0,-3.0v7 M-2.5,-0.5L0,-3.0L2.5,-0.5"/>
                </g>
                <g id="arrowLeft" xlink:href="#dirArrow" transform="rotate(270) translate(-36 17)" onmousedown="handlePan(-1,0)">
                  <use xlink:href="#rim" fill="#404040">
                        <set attributeName="fill" to="#808080" begin="arrowLeft.mouseover" end="arrowLeft.mouseout"/>
                  </use>
                  <path fill="none" stroke="white" stroke-width="1.5" d="M0,-3.0v7 M-2.5,-0.5L0,-3.0L2.5,-0.5"/>
                </g>
        </g>
        <svg viewBox="0 0 15 15" width="100%" height="30px" preserveAspectRatio="xMaxYMin meet">
         <g id="arrow_out" transform="scale(0.3 0.3)">
          <a xlink:href="a60-sample-dump-multi_8cc_a7d162b08732e1de1af3ede955b6d40a3_cgraph_org.svg" target="_base">
           <rect id="button" ry="5" rx="5" y="6" x="6" height="38" width="38"
                fill="#f2f5e9" fill-opacity="0.5" stroke="#606060" stroke-width="1.0"/>
           <path id="arrow"
             d="M 11.500037,31.436501 C 11.940474,20.09759 22.043105,11.32322 32.158766,21.979434 L 37.068811,17.246167 C 37.068811,17.246167 37.088388,32 37.088388,32 L 22.160133,31.978069 C 22.160133,31.978069 26.997745,27.140456 26.997745,27.140456 C 18.528582,18.264221 13.291696,25.230495 11.500037,31.436501 z"
             style="fill:#404040;"/>
          </a>
         </g>
        </svg>
</svg>
