<?xml version="1.0" encoding="UTF-8" standalone="no"?>
<!DOCTYPE svg PUBLIC "-//W3C//DTD SVG 1.1//EN"
 "http://www.w3.org/Graphics/SVG/1.1/DTD/svg11.dtd">
<!-- Generated by graphviz version 5.0.0 (0)
 -->
<!-- Title: strip_whitespace_from_filename Pages: 1 -->
<svg width="261pt" height="88pt"
 viewBox="0.00 0.00 261.00 87.50" xmlns="http://www.w3.org/2000/svg" xmlns:xlink="http://www.w3.org/1999/xlink">
<g id="graph0" class="graph" transform="scale(1 1) rotate(0) translate(4 83.5)">
<title>strip_whitespace_from_filename</title>
<!-- Node1 -->
<g id="node1" class="node">
<title>Node1</title>
<g id="a_node1"><a xlink:title=" ">
<polygon fill="#999999" stroke="#666666" points="107,-55 0,-55 0,-29 107,-29 107,-55"/>
<text text-anchor="start" x="8" y="-44.6" font-family="SourceSans" font-size="8.00">strip_whitespace_from</text>
<text text-anchor="middle" x="53.5" y="-35.6" font-family="SourceSans" font-size="8.00">_filename</text>
</a>
</g>
</g>
<!-- Node2 -->
<g id="node2" class="node">
<title>Node2</title>
<g id="a_node2"><a xlink:href="namespacea60_1_1io.html#aea30b8fc474f5a7b922516dc1e199037" target="_top" xlink:title="Takes a string representing a directory, returns a sorted list of contents as a std::vector&lt;string&gt;.">
<polygon fill="white" stroke="#666666" points="253,-79.5 143,-79.5 143,-62.5 253,-62.5 253,-79.5"/>
<text text-anchor="middle" x="198" y="-69.1" font-family="SourceSans" font-size="8.00">a60::io::populate_files</text>
</a>
</g>
</g>
<!-- Node1&#45;&gt;Node2 -->
<g id="edge1" class="edge">
<title>Node1&#45;&gt;Node2</title>
<path fill="none" stroke="#63b8ff" d="M107.16,-52.72C119.42,-55.21 132.48,-57.87 144.72,-60.36"/>
<polygon fill="#63b8ff" stroke="#63b8ff" points="144.29,-63.84 154.79,-62.41 145.68,-56.99 144.29,-63.84"/>
</g>
<!-- Node3 -->
<g id="node3" class="node">
<title>Node3</title>
<g id="a_node3"><a xlink:href="namespacea60_1_1io.html#afbc9bd4e46187119419128390e16a033" target="_top" xlink:title="Takes a string representing a directory, returns a list of contents as a std::vector&lt;string&gt;.">
<polygon fill="white" stroke="#666666" points="251.5,-26 144.5,-26 144.5,0 251.5,0 251.5,-26"/>
<text text-anchor="start" x="152.5" y="-15.6" font-family="SourceSans" font-size="8.00">a60::io::populate_sub</text>
<text text-anchor="middle" x="198" y="-6.6" font-family="SourceSans" font-size="8.00">_directories</text>
</a>
</g>
</g>
<!-- Node1&#45;&gt;Node3 -->
<g id="edge2" class="edge">
<title>Node1&#45;&gt;Node3</title>
<path fill="none" stroke="#63b8ff" d="M107.16,-31.28C115.91,-29.5 125.07,-27.64 134.05,-25.81"/>
<polygon fill="#63b8ff" stroke="#63b8ff" points="134.98,-29.19 144.08,-23.77 133.59,-22.33 134.98,-29.19"/>
</g>
<!-- Node3&#45;&gt;Node3 -->
<g id="edge3" class="edge">
<title>Node3&#45;&gt;Node3</title>
<path fill="none" stroke="#63b8ff" d="M173.64,-26.06C166.25,-35.1 174.38,-44 198,-44 212.4,-44 221.04,-40.69 223.92,-36.07"/>
<polygon fill="#63b8ff" stroke="#63b8ff" points="227.36,-35.4 222.36,-26.06 220.44,-36.48 227.36,-35.4"/>
</g>
</g>
</svg>
