<?xml version="1.0" encoding="UTF-8" standalone="no"?>
<!DOCTYPE svg PUBLIC "-//W3C//DTD SVG 1.1//EN"
 "http://www.w3.org/Graphics/SVG/1.1/DTD/svg11.dtd">
<!-- Generated by graphviz version 5.0.0 (0)
 -->
<!-- Title: sample_swarm_pause_for Pages: 1 -->
<svg width="1202pt" height="564pt"
 viewBox="0.00 0.00 1202.00 563.99" xmlns="http://www.w3.org/2000/svg" xmlns:xlink="http://www.w3.org/1999/xlink">
<g id="graph0" class="graph" transform="scale(1 1) rotate(0) translate(4 559.99)">
<title>sample_swarm_pause_for</title>
<!-- Node1 -->
<g id="node1" class="node">
<title>Node1</title>
<g id="a_node1"><a xlink:title="Repeat 1 locale above with delay PAUSE over not more than duration INTERVAL.">
<polygon fill="#999999" stroke="#666666" points="122,-271.5 0,-271.5 0,-254.5 122,-254.5 122,-271.5"/>
<text text-anchor="middle" x="61" y="-261.1" font-family="SourceSans" font-size="8.00">sample_swarm_pause_for</text>
</a>
</g>
</g>
<!-- Node2 -->
<g id="node2" class="node">
<title>Node2</title>
<g id="a_node2"><a xlink:href="namespacea60_1_1io.html#a89f2bd581ec510ccc0a8cfedccff7bd0" target="_top" xlink:title="Top level of directory for output files.">
<polygon fill="white" stroke="#666666" points="726,-429 630,-429 630,-403 726,-403 726,-429"/>
<text text-anchor="start" x="638" y="-418.6" font-family="SourceSans" font-size="8.00">a60::io::get_output</text>
<text text-anchor="middle" x="678" y="-409.6" font-family="SourceSans" font-size="8.00">_directory</text>
</a>
</g>
</g>
<!-- Node1&#45;&gt;Node2 -->
<g id="edge1" class="edge">
<title>Node1&#45;&gt;Node2</title>
<path fill="none" stroke="#63b8ff" d="M78.24,-271.61C130.81,-298.94 301.86,-383.7 455,-413 510.14,-423.55 574.4,-423.07 619.55,-420.69"/>
<polygon fill="#63b8ff" stroke="#63b8ff" points="619.96,-424.17 629.74,-420.1 619.56,-417.18 619.96,-424.17"/>
</g>
<!-- Node4 -->
<g id="node4" class="node">
<title>Node4</title>
<g id="a_node4"><a xlink:href="namespacea60_1_1io.html#a6ad052ef18cfb1a1ac708f7c69c9050d" target="_top" xlink:title="Assumes argument is full path, no error checking...">
<polygon fill="white" stroke="#666666" points="877,-488 781,-488 781,-462 877,-462 877,-488"/>
<text text-anchor="start" x="789" y="-477.6" font-family="SourceSans" font-size="8.00">a60::io::get_output</text>
<text text-anchor="middle" x="829" y="-468.6" font-family="SourceSans" font-size="8.00">_prefix</text>
</a>
</g>
</g>
<!-- Node1&#45;&gt;Node4 -->
<g id="edge5" class="edge">
<title>Node1&#45;&gt;Node4</title>
<path fill="none" stroke="#63b8ff" d="M67.85,-271.57C95.65,-311.24 219.19,-475 363,-475 363,-475 363,-475 520,-475 607.32,-475 708.57,-475 770.44,-475"/>
<polygon fill="#63b8ff" stroke="#63b8ff" points="770.78,-478.5 780.78,-475 770.78,-471.5 770.78,-478.5"/>
</g>
<!-- Node5 -->
<g id="node5" class="node">
<title>Node5</title>
<g id="a_node5"><a xlink:href="a60-sample-dump-multi_8cc.html#a8bcc07a401b6f586ae365e12a9f102d3" target="_top" xlink:title="Sample one locale.">
<polygon fill="white" stroke="#666666" points="273,-61.5 158,-61.5 158,-44.5 273,-44.5 273,-61.5"/>
<text text-anchor="middle" x="215.5" y="-51.1" font-family="SourceSans" font-size="8.00">sample_swarm_1_locale</text>
</a>
</g>
</g>
<!-- Node1&#45;&gt;Node5 -->
<g id="edge6" class="edge">
<title>Node1&#45;&gt;Node5</title>
<path fill="none" stroke="#63b8ff" d="M64.15,-254.22C71.75,-224.87 100.14,-129 158,-76 162.4,-71.97 167.61,-68.6 173.04,-65.79"/>
<polygon fill="#63b8ff" stroke="#63b8ff" points="174.66,-68.9 182.32,-61.58 171.77,-62.53 174.66,-68.9"/>
</g>
<!-- Node25 -->
<g id="node25" class="node">
<title>Node25</title>
<g id="a_node25"><a xlink:href="namespacea60.html#a9f2c8dc1d45c663c1017a1b7b651588d" target="_top" xlink:title="ISO date time stamp as default.">
<polygon fill="white" stroke="#666666" points="876.5,-152 781.5,-152 781.5,-126 876.5,-126 876.5,-152"/>
<text text-anchor="start" x="789.5" y="-141.6" font-family="SourceSans" font-size="8.00">a60::time_point_as</text>
<text text-anchor="middle" x="829" y="-132.6" font-family="SourceSans" font-size="8.00">_string</text>
</a>
</g>
</g>
<!-- Node1&#45;&gt;Node25 -->
<g id="edge51" class="edge">
<title>Node1&#45;&gt;Node25</title>
<path fill="none" stroke="#63b8ff" d="M74.44,-254.34C121.42,-222.24 293.59,-109.97 455,-73 575.97,-45.29 721.29,-94.3 789.32,-121.98"/>
<polygon fill="#63b8ff" stroke="#63b8ff" points="788.2,-125.3 798.78,-125.89 790.88,-118.84 788.2,-125.3"/>
</g>
<!-- Node32 -->
<g id="node32" class="node">
<title>Node32</title>
<g id="a_node32"><a xlink:href="namespacea60_1_1io.html#ad8339b50abcf6975587ba229c04066e7" target="_top" xlink:title="Check directory exists, else make it.">
<polygon fill="white" stroke="#666666" points="267.5,-26 163.5,-26 163.5,0 267.5,0 267.5,-26"/>
<text text-anchor="start" x="171.5" y="-15.6" font-family="SourceSans" font-size="8.00">a60::io::sanity_check</text>
<text text-anchor="middle" x="215.5" y="-6.6" font-family="SourceSans" font-size="8.00">_output_directory</text>
</a>
</g>
</g>
<!-- Node1&#45;&gt;Node32 -->
<g id="edge47" class="edge">
<title>Node1&#45;&gt;Node32</title>
<path fill="none" stroke="#63b8ff" d="M63.21,-254.2C68.26,-220.82 90.59,-100.6 158,-35 159.11,-33.92 160.27,-32.89 161.49,-31.92"/>
<polygon fill="#63b8ff" stroke="#63b8ff" points="163.74,-34.62 170.1,-26.15 159.85,-28.8 163.74,-34.62"/>
</g>
<!-- Node33 -->
<g id="node33" class="node">
<title>Node33</title>
<g id="a_node33"><a xlink:href="namespacea60_1_1io.html#a5714619410f0816827d4238eb3291d0a" target="_top" xlink:title="Sets man output directory.">
<polygon fill="white" stroke="#666666" points="725.5,-529 630.5,-529 630.5,-503 725.5,-503 725.5,-529"/>
<text text-anchor="start" x="638.5" y="-518.6" font-family="SourceSans" font-size="8.00">a60::io::set_output</text>
<text text-anchor="middle" x="678" y="-509.6" font-family="SourceSans" font-size="8.00">_prefix</text>
</a>
</g>
</g>
<!-- Node1&#45;&gt;Node33 -->
<g id="edge48" class="edge">
<title>Node1&#45;&gt;Node33</title>
<path fill="none" stroke="#63b8ff" d="M62.6,-271.96C65.49,-306.97 81.16,-435.23 158,-489 298.94,-587.62 517.81,-554.32 620.36,-530.9"/>
<polygon fill="#63b8ff" stroke="#63b8ff" points="621.27,-534.28 630.21,-528.6 619.68,-527.46 621.27,-534.28"/>
</g>
<!-- Node3 -->
<g id="node3" class="node">
<title>Node3</title>
<g id="a_node3"><a xlink:href="namespacea60_1_1io.html#a16f17ea9e02c1975ca17b77e46cf7629" target="_top" xlink:title="Make sure a path ends in &#39;/&#39;;.">
<polygon fill="white" stroke="#666666" points="1026.5,-483.5 936.5,-483.5 936.5,-466.5 1026.5,-466.5 1026.5,-483.5"/>
<text text-anchor="middle" x="981.5" y="-473.1" font-family="SourceSans" font-size="8.00">a60::io::end_path</text>
</a>
</g>
</g>
<!-- Node2&#45;&gt;Node3 -->
<g id="edge2" class="edge">
<title>Node2&#45;&gt;Node3</title>
<path fill="none" stroke="#63b8ff" d="M726.17,-423.8C768,-430.88 830.71,-441.88 885,-453 901.41,-456.36 919.32,-460.39 935.15,-464.08"/>
<polygon fill="#63b8ff" stroke="#63b8ff" points="934.68,-467.56 945.21,-466.44 936.28,-460.75 934.68,-467.56"/>
</g>
<!-- Node2&#45;&gt;Node4 -->
<g id="edge3" class="edge">
<title>Node2&#45;&gt;Node4</title>
<path fill="none" stroke="#63b8ff" d="M712.07,-429.09C733.77,-437.69 762.35,-449 785.7,-458.25"/>
<polygon fill="#63b8ff" stroke="#63b8ff" points="784.44,-461.52 795.02,-461.94 787.02,-455.01 784.44,-461.52"/>
</g>
<!-- Node4&#45;&gt;Node3 -->
<g id="edge4" class="edge">
<title>Node4&#45;&gt;Node3</title>
<path fill="none" stroke="#63b8ff" d="M877.21,-475C892.69,-475 910.03,-475 926.01,-475"/>
<polygon fill="#63b8ff" stroke="#63b8ff" points="926.28,-478.5 936.28,-475 926.28,-471.5 926.28,-478.5"/>
</g>
<!-- Node6 -->
<g id="node6" class="node">
<title>Node6</title>
<g id="a_node6"><a xlink:href="namespacea60.html#a384a69e042867db6ff2e12764444b39c" target="_top" xlink:title="Run session for torrent, repeat &lt; tickmax, put results in now folder. Default tixmax == 4.">
<polygon fill="white" stroke="#666666" points="419,-239 309,-239 309,-213 419,-213 419,-239"/>
<text text-anchor="start" x="317" y="-228.6" font-family="SourceSans" font-size="8.00">a60::make_session_for</text>
<text text-anchor="middle" x="364" y="-219.6" font-family="SourceSans" font-size="8.00">_torrent</text>
</a>
</g>
</g>
<!-- Node5&#45;&gt;Node6 -->
<g id="edge7" class="edge">
<title>Node5&#45;&gt;Node6</title>
<path fill="none" stroke="#63b8ff" d="M223.97,-61.82C246.3,-88.19 313.03,-166.99 345.23,-205.02"/>
<polygon fill="#63b8ff" stroke="#63b8ff" points="342.78,-207.53 351.91,-212.9 348.12,-203.01 342.78,-207.53"/>
</g>
<!-- Node5&#45;&gt;Node25 -->
<g id="edge46" class="edge">
<title>Node5&#45;&gt;Node25</title>
<path fill="none" stroke="#63b8ff" d="M243.81,-44.45C323.93,-20.97 563.59,37.77 737,-40 772.54,-55.94 800.41,-93.16 815.51,-117.14"/>
<polygon fill="#63b8ff" stroke="#63b8ff" points="812.65,-119.18 820.84,-125.92 818.64,-115.55 812.65,-119.18"/>
</g>
<!-- Node31 -->
<g id="node31" class="node">
<title>Node31</title>
<g id="a_node31"><a xlink:href="namespacea60_1_1io.html#aea30b8fc474f5a7b922516dc1e199037" target="_top" xlink:title="Takes a string representing a directory, returns a sorted list of contents as a std::vector&lt;string&gt;.">
<polygon fill="white" stroke="#666666" points="419,-61.5 309,-61.5 309,-44.5 419,-44.5 419,-61.5"/>
<text text-anchor="middle" x="364" y="-51.1" font-family="SourceSans" font-size="8.00">a60::io::populate_files</text>
</a>
</g>
</g>
<!-- Node5&#45;&gt;Node31 -->
<g id="edge45" class="edge">
<title>Node5&#45;&gt;Node31</title>
<path fill="none" stroke="#63b8ff" d="M273.14,-53C281.5,-53 290.16,-53 298.66,-53"/>
<polygon fill="#63b8ff" stroke="#63b8ff" points="298.92,-56.5 308.92,-53 298.92,-49.5 298.92,-56.5"/>
</g>
<!-- Node6&#45;&gt;Node2 -->
<g id="edge11" class="edge">
<title>Node6&#45;&gt;Node2</title>
<path fill="none" stroke="#63b8ff" d="M368.57,-239.39C377.46,-269.93 403.68,-344.79 455,-380 503.44,-413.24 571.63,-419.84 619.62,-419.64"/>
<polygon fill="#63b8ff" stroke="#63b8ff" points="619.89,-423.13 629.84,-419.49 619.79,-416.13 619.89,-423.13"/>
</g>
<!-- Node7 -->
<g id="node7" class="node">
<title>Node7</title>
<g id="a_node7"><a xlink:href="namespacea60.html#a732ca2d85679838beb92881e9f39a999" target="_top" xlink:title="Engage bittorrent, create session.">
<polygon fill="white" stroke="#666666" points="575,-143.5 463,-143.5 463,-126.5 575,-126.5 575,-143.5"/>
<text text-anchor="middle" x="519" y="-133.1" font-family="SourceSans" font-size="8.00">a60::configure_session</text>
</a>
</g>
</g>
<!-- Node6&#45;&gt;Node7 -->
<g id="edge8" class="edge">
<title>Node6&#45;&gt;Node7</title>
<path fill="none" stroke="#63b8ff" d="M379.35,-213C396.37,-198.1 426.1,-173.73 455,-158 462.64,-153.84 471.2,-150.15 479.47,-147"/>
<polygon fill="#63b8ff" stroke="#63b8ff" points="480.77,-150.26 488.99,-143.57 478.4,-143.67 480.77,-150.26"/>
</g>
<!-- Node8 -->
<g id="node8" class="node">
<title>Node8</title>
<g id="a_node8"><a xlink:href="namespacea60.html#a8b9a182b9bab06f3abea397c373a5f6b" target="_top" xlink:title="Print info about torrent_handle.">
<polygon fill="white" stroke="#666666" points="568,-108 470,-108 470,-82 568,-82 568,-108"/>
<text text-anchor="start" x="478" y="-97.6" font-family="SourceSans" font-size="8.00">a60::display_torrent</text>
<text text-anchor="middle" x="519" y="-88.6" font-family="SourceSans" font-size="8.00">_handle</text>
</a>
</g>
</g>
<!-- Node6&#45;&gt;Node8 -->
<g id="edge9" class="edge">
<title>Node6&#45;&gt;Node8</title>
<path fill="none" stroke="#63b8ff" d="M372.45,-212.96C386.02,-190.29 416.94,-143.51 455,-117 457.24,-115.44 459.6,-113.98 462.04,-112.62"/>
<polygon fill="#63b8ff" stroke="#63b8ff" points="463.76,-115.67 471.16,-108.09 460.65,-109.4 463.76,-115.67"/>
</g>
<!-- Node9 -->
<g id="node9" class="node">
<title>Node9</title>
<g id="a_node9"><a xlink:href="namespacea60.html#a291221a4eb53708506dceedfd78ad3e1" target="_top" xlink:title="Print info about torrent_status. (ie, just from the torrent file).">
<polygon fill="white" stroke="#666666" points="568,-297 470,-297 470,-271 568,-271 568,-297"/>
<text text-anchor="start" x="478" y="-286.6" font-family="SourceSans" font-size="8.00">a60::display_torrent</text>
<text text-anchor="middle" x="519" y="-277.6" font-family="SourceSans" font-size="8.00">_status</text>
</a>
</g>
</g>
<!-- Node6&#45;&gt;Node9 -->
<g id="edge10" class="edge">
<title>Node6&#45;&gt;Node9</title>
<path fill="none" stroke="#63b8ff" d="M398.27,-239.13C415.22,-245.77 436.18,-253.9 455,-261 460.58,-263.1 466.46,-265.29 472.28,-267.44"/>
<polygon fill="#63b8ff" stroke="#63b8ff" points="471.38,-270.83 481.97,-270.99 473.79,-264.26 471.38,-270.83"/>
</g>
<!-- Node10 -->
<g id="node10" class="node">
<title>Node10</title>
<g id="a_node10"><a xlink:href="namespacea60.html#afe8d89ca4ef974726fd66dbda364cbf1" target="_top" xlink:title="Given session and magnet file, make session.">
<polygon fill="white" stroke="#666666" points="583,-370.5 455,-370.5 455,-353.5 583,-353.5 583,-370.5"/>
<text text-anchor="middle" x="519" y="-360.1" font-family="SourceSans" font-size="8.00">a60::make_magnet_handle</text>
</a>
</g>
</g>
<!-- Node6&#45;&gt;Node10 -->
<g id="edge12" class="edge">
<title>Node6&#45;&gt;Node10</title>
<path fill="none" stroke="#63b8ff" d="M372.15,-239.11C385.49,-262.4 416.33,-311.15 455,-339 460.98,-343.3 467.84,-346.88 474.8,-349.84"/>
<polygon fill="#63b8ff" stroke="#63b8ff" points="473.67,-353.15 484.26,-353.48 476.19,-346.62 473.67,-353.15"/>
</g>
<!-- Node11 -->
<g id="node11" class="node">
<title>Node11</title>
<g id="a_node11"><a xlink:href="namespacea60.html#a1ae4660be19d8586055437f379fa4985" target="_top" xlink:title="Configure torrent session.">
<polygon fill="white" stroke="#666666" points="579,-252.5 459,-252.5 459,-235.5 579,-235.5 579,-252.5"/>
<text text-anchor="middle" x="519" y="-242.1" font-family="SourceSans" font-size="8.00">a60::make_settings_pack</text>
</a>
</g>
</g>
<!-- Node6&#45;&gt;Node11 -->
<g id="edge14" class="edge">
<title>Node6&#45;&gt;Node11</title>
<path fill="none" stroke="#63b8ff" d="M419.37,-232.4C428.87,-233.51 438.87,-234.69 448.7,-235.85"/>
<polygon fill="#63b8ff" stroke="#63b8ff" points="448.53,-239.35 458.87,-237.04 449.35,-232.4 448.53,-239.35"/>
</g>
<!-- Node12 -->
<g id="node12" class="node">
<title>Node12</title>
<g id="a_node12"><a xlink:href="namespacea60.html#a0024ebebf4beab70240ed62e88733a5e" target="_top" xlink:title="Given session and torrent file, add torrent to session.">
<polygon fill="white" stroke="#666666" points="580.5,-217.5 457.5,-217.5 457.5,-200.5 580.5,-200.5 580.5,-217.5"/>
<text text-anchor="middle" x="519" y="-207.1" font-family="SourceSans" font-size="8.00">a60::make_torrent_handle</text>
</a>
</g>
</g>
<!-- Node6&#45;&gt;Node12 -->
<g id="edge15" class="edge">
<title>Node6&#45;&gt;Node12</title>
<path fill="none" stroke="#63b8ff" d="M419.37,-219.96C428.39,-218.96 437.86,-217.9 447.22,-216.86"/>
<polygon fill="#63b8ff" stroke="#63b8ff" points="447.74,-220.33 457.3,-215.74 446.97,-213.37 447.74,-220.33"/>
</g>
<!-- Node6&#45;&gt;Node25 -->
<g id="edge44" class="edge">
<title>Node6&#45;&gt;Node25</title>
<path fill="none" stroke="#63b8ff" d="M393.62,-212.9C411.03,-205.43 433.91,-196.49 455,-191 564.99,-162.36 697.58,-148.64 771.37,-142.78"/>
<polygon fill="#63b8ff" stroke="#63b8ff" points="771.68,-146.27 781.38,-142.01 771.14,-139.29 771.68,-146.27"/>
</g>
<!-- Node26 -->
<g id="node26" class="node">
<title>Node26</title>
<g id="a_node26"><a xlink:href="namespacea60.html#ab629c2f2a2ce0c6e94f1b2093eceb42e" target="_top" xlink:title="Info about torrent_info, serialized to json.">
<polygon fill="white" stroke="#666666" points="730,-328 626,-328 626,-302 730,-302 730,-328"/>
<text text-anchor="start" x="634" y="-317.6" font-family="SourceSans" font-size="8.00">a60::serialize_torrent</text>
<text text-anchor="middle" x="678" y="-308.6" font-family="SourceSans" font-size="8.00">_handle_json</text>
</a>
</g>
</g>
<!-- Node6&#45;&gt;Node26 -->
<g id="edge34" class="edge">
<title>Node6&#45;&gt;Node26</title>
<path fill="none" stroke="#63b8ff" d="M374.86,-239.24C389.79,-258.09 420.1,-291.92 455,-306 506.21,-326.67 569.58,-327.03 615.49,-323.34"/>
<polygon fill="#63b8ff" stroke="#63b8ff" points="615.94,-326.81 625.59,-322.44 615.32,-319.84 615.94,-326.81"/>
</g>
<!-- Node10&#45;&gt;Node2 -->
<g id="edge13" class="edge">
<title>Node10&#45;&gt;Node2</title>
<path fill="none" stroke="#63b8ff" d="M544.88,-370.56C567.54,-378.35 601.62,-390.07 629.49,-399.66"/>
<polygon fill="#63b8ff" stroke="#63b8ff" points="628.47,-403.01 639.07,-402.95 630.75,-396.39 628.47,-403.01"/>
</g>
<!-- Node12&#45;&gt;Node2 -->
<g id="edge33" class="edge">
<title>Node12&#45;&gt;Node2</title>
<path fill="none" stroke="#63b8ff" d="M570.63,-217.6C575.16,-219.81 579.39,-222.56 583,-226 620.58,-261.74 595.35,-290.84 619,-337 629.87,-358.21 646.2,-379.86 658.77,-395.12"/>
<polygon fill="#63b8ff" stroke="#63b8ff" points="656.2,-397.49 665.31,-402.89 661.55,-392.99 656.2,-397.49"/>
</g>
<!-- Node13 -->
<g id="node13" class="node">
<title>Node13</title>
<g id="a_node13"><a xlink:href="namespacea60.html#a36ea22d12ecf44568213ff453ad1da2c" target="_top" xlink:title="Print info about torrent_info.">
<polygon fill="white" stroke="#666666" points="737,-217.5 619,-217.5 619,-200.5 737,-200.5 737,-217.5"/>
<text text-anchor="middle" x="678" y="-207.1" font-family="SourceSans" font-size="8.00">a60::display_torrent_info</text>
</a>
</g>
</g>
<!-- Node12&#45;&gt;Node13 -->
<g id="edge16" class="edge">
<title>Node12&#45;&gt;Node13</title>
<path fill="none" stroke="#63b8ff" d="M580.7,-209C589.89,-209 599.42,-209 608.76,-209"/>
<polygon fill="#63b8ff" stroke="#63b8ff" points="608.78,-212.5 618.78,-209 608.78,-205.5 608.78,-212.5"/>
</g>
<!-- Node14 -->
<g id="node14" class="node">
<title>Node14</title>
<g id="a_node14"><a xlink:href="namespacea60_1_1geo.html#a2ec44da723ee6128696872f94d989c7f" target="_top" xlink:title="Address to IP/Geo.">
<polygon fill="white" stroke="#666666" points="879.5,-214 778.5,-214 778.5,-188 879.5,-188 879.5,-214"/>
<text text-anchor="start" x="786.5" y="-203.6" font-family="SourceSans" font-size="8.00">a60::geo::display_ip</text>
<text text-anchor="middle" x="829" y="-194.6" font-family="SourceSans" font-size="8.00">_and_geo_info</text>
</a>
</g>
</g>
<!-- Node13&#45;&gt;Node14 -->
<g id="edge17" class="edge">
<title>Node13&#45;&gt;Node14</title>
<path fill="none" stroke="#63b8ff" d="M737.03,-205.88C747.21,-205.34 757.81,-204.77 768.04,-204.22"/>
<polygon fill="#63b8ff" stroke="#63b8ff" points="768.31,-207.71 778.1,-203.68 767.93,-200.72 768.31,-207.71"/>
</g>
<!-- Node23 -->
<g id="node23" class="node">
<title>Node23</title>
<g id="a_node23"><a xlink:href="namespacea60.html#aafdf18ade22a9e669299209ed5a8bdc6" target="_top" xlink:title="Once.">
<polygon fill="white" stroke="#666666" points="881,-249.5 777,-249.5 777,-232.5 881,-232.5 881,-249.5"/>
<text text-anchor="middle" x="829" y="-239.1" font-family="SourceSans" font-size="8.00">a60::host_ip_address</text>
</a>
</g>
</g>
<!-- Node13&#45;&gt;Node23 -->
<g id="edge29" class="edge">
<title>Node13&#45;&gt;Node23</title>
<path fill="none" stroke="#63b8ff" d="M718.93,-217.58C737.21,-221.5 759.05,-226.19 778.38,-230.34"/>
<polygon fill="#63b8ff" stroke="#63b8ff" points="777.71,-233.78 788.22,-232.46 779.18,-226.93 777.71,-233.78"/>
</g>
<!-- Node13&#45;&gt;Node25 -->
<g id="edge31" class="edge">
<title>Node13&#45;&gt;Node25</title>
<path fill="none" stroke="#63b8ff" d="M702.08,-200.45C712.81,-196.33 725.66,-191.16 737,-186 756.66,-177.05 778.16,-166.01 795.32,-156.88"/>
<polygon fill="#63b8ff" stroke="#63b8ff" points="797.21,-159.84 804.37,-152.03 793.9,-153.67 797.21,-159.84"/>
</g>
<!-- Node15 -->
<g id="node15" class="node">
<title>Node15</title>
<g id="a_node15"><a xlink:href="structa60_1_1geo_1_1country__map.html#a96a87722e7988878c37210a8bb208624" target="_top" xlink:title=" ">
<polygon fill="white" stroke="#666666" points="1041.5,-126 921.5,-126 921.5,-100 1041.5,-100 1041.5,-126"/>
<text text-anchor="start" x="929.5" y="-115.6" font-family="SourceSans" font-size="8.00">a60::geo::country_map</text>
<text text-anchor="middle" x="981.5" y="-106.6" font-family="SourceSans" font-size="8.00">::country_code_via_string</text>
</a>
</g>
</g>
<!-- Node14&#45;&gt;Node15 -->
<g id="edge18" class="edge">
<title>Node14&#45;&gt;Node15</title>
<path fill="none" stroke="#63b8ff" d="M869.75,-187.93C875.11,-185.37 880.36,-182.41 885,-179 905.37,-164.06 900.43,-149.67 921,-135 923.12,-133.49 925.35,-132.07 927.66,-130.74"/>
<polygon fill="#63b8ff" stroke="#63b8ff" points="929.56,-133.7 936.87,-126.03 926.37,-127.47 929.56,-133.7"/>
</g>
<!-- Node17 -->
<g id="node17" class="node">
<title>Node17</title>
<g id="a_node17"><a xlink:href="namespacea60_1_1geo.html#a7d8058b0d2e8d5f5c90dfe2cab6fc462" target="_top" xlink:title=" ">
<polygon fill="white" stroke="#666666" points="1194,-80.5 1078,-80.5 1078,-63.5 1194,-63.5 1194,-80.5"/>
<text text-anchor="middle" x="1136" y="-70.1" font-family="SourceSans" font-size="8.00">a60::geo::safe_if_empty</text>
</a>
</g>
</g>
<!-- Node14&#45;&gt;Node17 -->
<g id="edge28" class="edge">
<title>Node14&#45;&gt;Node17</title>
<path fill="none" stroke="#63b8ff" d="M872.98,-187.92C877.37,-185.42 881.5,-182.48 885,-179 915,-149.24 886.99,-116.08 921,-91 966.72,-57.28 1033.8,-56.96 1080.63,-62.23"/>
<polygon fill="#63b8ff" stroke="#63b8ff" points="1080.24,-65.71 1090.59,-63.47 1081.1,-58.76 1080.24,-65.71"/>
</g>
<!-- Node19 -->
<g id="node19" class="node">
<title>Node19</title>
<g id="a_node19"><a xlink:href="structa60_1_1geo_1_1city__map_1_1record.html#a7b30bf979e46ddb75bc274871e4ab367" target="_top" xlink:title=" ">
<polygon fill="white" stroke="#666666" points="1039,-214 924,-214 924,-188 1039,-188 1039,-214"/>
<text text-anchor="start" x="932" y="-203.6" font-family="SourceSans" font-size="8.00">a60::geo::city_map</text>
<text text-anchor="middle" x="981.5" y="-194.6" font-family="SourceSans" font-size="8.00">::record::is_record_open</text>
</a>
</g>
</g>
<!-- Node14&#45;&gt;Node19 -->
<g id="edge23" class="edge">
<title>Node14&#45;&gt;Node19</title>
<path fill="none" stroke="#63b8ff" d="M879.7,-201C890.51,-201 902.13,-201 913.49,-201"/>
<polygon fill="#63b8ff" stroke="#63b8ff" points="913.82,-204.5 923.82,-201 913.82,-197.5 913.82,-204.5"/>
</g>
<!-- Node20 -->
<g id="node20" class="node">
<title>Node20</title>
<g id="a_node20"><a xlink:href="structa60_1_1geo_1_1map__base.html#a9215731f10e2fa8488b0e081c2a5cef4" target="_top" xlink:title=" ">
<polygon fill="white" stroke="#666666" points="1032.5,-294 930.5,-294 930.5,-268 1032.5,-268 1032.5,-294"/>
<text text-anchor="start" x="938.5" y="-283.6" font-family="SourceSans" font-size="8.00">a60::geo::map_base</text>
<text text-anchor="middle" x="981.5" y="-274.6" font-family="SourceSans" font-size="8.00">::open</text>
</a>
</g>
</g>
<!-- Node14&#45;&gt;Node20 -->
<g id="edge24" class="edge">
<title>Node14&#45;&gt;Node20</title>
<path fill="none" stroke="#63b8ff" d="M868.25,-214.03C874.05,-216.65 879.82,-219.64 885,-223 903.72,-235.15 902.21,-245.96 921,-258 924.12,-260 927.44,-261.87 930.86,-263.61"/>
<polygon fill="#63b8ff" stroke="#63b8ff" points="929.51,-266.85 940.05,-267.91 932.48,-260.51 929.51,-266.85"/>
</g>
<!-- Node22 -->
<g id="node22" class="node">
<title>Node22</title>
<g id="a_node22"><a xlink:href="structa60_1_1geo_1_1city__map.html#a8edb2011397d2166076b33f5187afe18" target="_top" xlink:title=" ">
<polygon fill="white" stroke="#666666" points="1029.5,-170 933.5,-170 933.5,-144 1029.5,-144 1029.5,-170"/>
<text text-anchor="start" x="941.5" y="-159.6" font-family="SourceSans" font-size="8.00">a60::geo::city_map</text>
<text text-anchor="middle" x="981.5" y="-150.6" font-family="SourceSans" font-size="8.00">::open_record</text>
</a>
</g>
</g>
<!-- Node14&#45;&gt;Node22 -->
<g id="edge26" class="edge">
<title>Node14&#45;&gt;Node22</title>
<path fill="none" stroke="#63b8ff" d="M874.75,-187.92C890.9,-183.2 909.31,-177.81 926.19,-172.88"/>
<polygon fill="#63b8ff" stroke="#63b8ff" points="927.31,-176.2 935.92,-170.03 925.34,-169.48 927.31,-176.2"/>
</g>
<!-- Node16 -->
<g id="node16" class="node">
<title>Node16</title>
<g id="a_node16"><a xlink:href="structa60_1_1geo_1_1map__base.html#ae86685f27b25cdaead9c94752618b2e4" target="_top" xlink:title=" ">
<polygon fill="white" stroke="#666666" points="1187,-178 1085,-178 1085,-152 1187,-152 1187,-178"/>
<text text-anchor="start" x="1093" y="-167.6" font-family="SourceSans" font-size="8.00">a60::geo::map_base</text>
<text text-anchor="middle" x="1136" y="-158.6" font-family="SourceSans" font-size="8.00">::is_map_open</text>
</a>
</g>
</g>
<!-- Node15&#45;&gt;Node16 -->
<g id="edge19" class="edge">
<title>Node15&#45;&gt;Node16</title>
<path fill="none" stroke="#63b8ff" d="M1020.98,-126.12C1041.11,-132.98 1065.93,-141.45 1087.26,-148.72"/>
<polygon fill="#63b8ff" stroke="#63b8ff" points="1086.2,-152.06 1096.79,-151.97 1088.46,-145.43 1086.2,-152.06"/>
</g>
<!-- Node15&#45;&gt;Node17 -->
<g id="edge20" class="edge">
<title>Node15&#45;&gt;Node17</title>
<path fill="none" stroke="#63b8ff" d="M1031.17,-99.91C1051.21,-94.53 1074.19,-88.35 1093.43,-83.18"/>
<polygon fill="#63b8ff" stroke="#63b8ff" points="1094.37,-86.55 1103.11,-80.57 1092.55,-79.79 1094.37,-86.55"/>
</g>
<!-- Node18 -->
<g id="node18" class="node">
<title>Node18</title>
<g id="a_node18"><a xlink:href="namespacea60_1_1constants.html#a01d9786063fb572d9389b0cd207bbe53" target="_top" xlink:title=" ">
<polygon fill="white" stroke="#666666" points="1185,-115.5 1087,-115.5 1087,-98.5 1185,-98.5 1185,-115.5"/>
<text text-anchor="middle" x="1136" y="-105.1" font-family="SourceSans" font-size="8.00">a60::constants::tab</text>
</a>
</g>
</g>
<!-- Node15&#45;&gt;Node18 -->
<g id="edge21" class="edge">
<title>Node15&#45;&gt;Node18</title>
<path fill="none" stroke="#63b8ff" d="M1041.9,-110.66C1053.29,-110.21 1065.22,-109.75 1076.59,-109.3"/>
<polygon fill="#63b8ff" stroke="#63b8ff" points="1076.98,-112.79 1086.84,-108.89 1076.71,-105.79 1076.98,-112.79"/>
</g>
<!-- Node18&#45;&gt;Node18 -->
<g id="edge22" class="edge">
<title>Node18&#45;&gt;Node18</title>
<path fill="none" stroke="#63b8ff" d="M1113.05,-115.69C1100.38,-124.17 1108.03,-133.5 1136,-133.5 1154.79,-133.5 1164.41,-129.29 1164.86,-123.95"/>
<polygon fill="#63b8ff" stroke="#63b8ff" points="1167.61,-121.78 1158.95,-115.69 1161.92,-125.86 1167.61,-121.78"/>
</g>
<!-- Node21 -->
<g id="node21" class="node">
<title>Node21</title>
<g id="a_node21"><a xlink:href="namespacea60_1_1io.html#aa5fbb8ab63397dd45c4a54c0758935ef" target="_top" xlink:title="Sanity check input existence.">
<polygon fill="white" stroke="#666666" points="1188,-294 1084,-294 1084,-268 1188,-268 1188,-294"/>
<text text-anchor="start" x="1092" y="-283.6" font-family="SourceSans" font-size="8.00">a60::io::sanity_check</text>
<text text-anchor="middle" x="1136" y="-274.6" font-family="SourceSans" font-size="8.00">_input</text>
</a>
</g>
</g>
<!-- Node20&#45;&gt;Node21 -->
<g id="edge25" class="edge">
<title>Node20&#45;&gt;Node21</title>
<path fill="none" stroke="#63b8ff" d="M1032.86,-281C1045.92,-281 1060.14,-281 1073.7,-281"/>
<polygon fill="#63b8ff" stroke="#63b8ff" points="1073.91,-284.5 1083.91,-281 1073.91,-277.5 1073.91,-284.5"/>
</g>
<!-- Node22&#45;&gt;Node16 -->
<g id="edge27" class="edge">
<title>Node22&#45;&gt;Node16</title>
<path fill="none" stroke="#63b8ff" d="M1029.92,-159.49C1044.12,-160.23 1059.9,-161.06 1074.81,-161.84"/>
<polygon fill="#63b8ff" stroke="#63b8ff" points="1074.8,-165.35 1084.97,-162.38 1075.17,-158.36 1074.8,-165.35"/>
</g>
<!-- Node24 -->
<g id="node24" class="node">
<title>Node24</title>
<g id="a_node24"><a xlink:href="namespacea60.html#ac912026493721c2646a3336faffe1baa" target="_top" xlink:title="Test machine&#39;s address.">
<polygon fill="white" stroke="#666666" points="1042,-249.5 921,-249.5 921,-232.5 1042,-232.5 1042,-249.5"/>
<text text-anchor="middle" x="981.5" y="-239.1" font-family="SourceSans" font-size="8.00">a60::get_host_ip_address</text>
</a>
</g>
</g>
<!-- Node23&#45;&gt;Node24 -->
<g id="edge30" class="edge">
<title>Node23&#45;&gt;Node24</title>
<path fill="none" stroke="#63b8ff" d="M881.37,-241C890.79,-241 900.76,-241 910.61,-241"/>
<polygon fill="#63b8ff" stroke="#63b8ff" points="910.8,-244.5 920.8,-241 910.8,-237.5 910.8,-244.5"/>
</g>
<!-- Node25&#45;&gt;Node25 -->
<g id="edge32" class="edge">
<title>Node25&#45;&gt;Node25</title>
<path fill="none" stroke="#63b8ff" d="M803.62,-152.06C795.93,-161.1 804.39,-170 829,-170 844,-170 853,-166.69 856,-162.07"/>
<polygon fill="#63b8ff" stroke="#63b8ff" points="859.43,-161.37 854.38,-152.06 852.52,-162.49 859.43,-161.37"/>
</g>
<!-- Node26&#45;&gt;Node20 -->
<g id="edge41" class="edge">
<title>Node26&#45;&gt;Node20</title>
<path fill="none" stroke="#63b8ff" d="M730.05,-304.14C743.94,-301.49 759,-298.87 773,-297 822.36,-290.39 878.71,-286.26 920.22,-283.86"/>
<polygon fill="#63b8ff" stroke="#63b8ff" points="920.65,-287.34 930.44,-283.28 920.26,-280.35 920.65,-287.34"/>
</g>
<!-- Node26&#45;&gt;Node23 -->
<g id="edge35" class="edge">
<title>Node26&#45;&gt;Node23</title>
<path fill="none" stroke="#63b8ff" d="M701.46,-301.98C720.3,-291.26 748.05,-275.95 773,-264 780.55,-260.39 788.82,-256.76 796.59,-253.49"/>
<polygon fill="#63b8ff" stroke="#63b8ff" points="798.19,-256.62 806.09,-249.57 795.52,-250.15 798.19,-256.62"/>
</g>
<!-- Node26&#45;&gt;Node25 -->
<g id="edge43" class="edge">
<title>Node26&#45;&gt;Node25</title>
<path fill="none" stroke="#63b8ff" d="M687.36,-301.72C706.39,-271.71 752.85,-199.64 773,-179 780.48,-171.33 789.57,-164.08 798.19,-157.9"/>
<polygon fill="#63b8ff" stroke="#63b8ff" points="800.33,-160.67 806.57,-152.11 796.36,-154.91 800.33,-160.67"/>
</g>
<!-- Node27 -->
<g id="node27" class="node">
<title>Node27</title>
<g id="a_node27"><a xlink:href="namespacea60.html#ad300edc3a7396b9f52a64f37e9443891" target="_top" xlink:title="No GeoIP.">
<polygon fill="white" stroke="#666666" points="1035,-384.5 928,-384.5 928,-367.5 1035,-367.5 1035,-384.5"/>
<text text-anchor="middle" x="981.5" y="-374.1" font-family="SourceSans" font-size="8.00">a60::make_meta_peer</text>
</a>
</g>
</g>
<!-- Node26&#45;&gt;Node27 -->
<g id="edge36" class="edge">
<title>Node26&#45;&gt;Node27</title>
<path fill="none" stroke="#63b8ff" d="M692.92,-328.06C710.16,-343.24 741.17,-367.45 773,-377 820.34,-391.21 876.53,-389.9 918.49,-385.63"/>
<polygon fill="#63b8ff" stroke="#63b8ff" points="919.01,-389.09 928.57,-384.52 918.24,-382.13 919.01,-389.09"/>
</g>
<!-- Node28 -->
<g id="node28" class="node">
<title>Node28</title>
<g id="a_node28"><a xlink:href="namespacea60.html#a9d37f2f6f8a4b125ee6304d15a118f61" target="_top" xlink:title=" ">
<polygon fill="white" stroke="#666666" points="885,-323.5 773,-323.5 773,-306.5 885,-306.5 885,-323.5"/>
<text text-anchor="middle" x="829" y="-313.1" font-family="SourceSans" font-size="8.00">a60::make_meta_peers</text>
</a>
</g>
</g>
<!-- Node26&#45;&gt;Node28 -->
<g id="edge37" class="edge">
<title>Node26&#45;&gt;Node28</title>
<path fill="none" stroke="#63b8ff" d="M730.28,-315C740.68,-315 751.74,-315 762.56,-315"/>
<polygon fill="#63b8ff" stroke="#63b8ff" points="762.81,-318.5 772.81,-315 762.81,-311.5 762.81,-318.5"/>
</g>
<!-- Node30 -->
<g id="node30" class="node">
<title>Node30</title>
<g id="a_node30"><a xlink:href="namespacea60.html#a2228baa081fe66cea91ed8032bda4732" target="_top" xlink:title="Serialize meta_peer.">
<polygon fill="white" stroke="#666666" points="878,-368 780,-368 780,-342 878,-342 878,-368"/>
<text text-anchor="start" x="788" y="-357.6" font-family="SourceSans" font-size="8.00">a60::serialize_meta</text>
<text text-anchor="middle" x="829" y="-348.6" font-family="SourceSans" font-size="8.00">_peer_json</text>
</a>
</g>
</g>
<!-- Node26&#45;&gt;Node30 -->
<g id="edge42" class="edge">
<title>Node26&#45;&gt;Node30</title>
<path fill="none" stroke="#63b8ff" d="M727.79,-328.1C741.24,-331.71 755.97,-335.66 769.9,-339.4"/>
<polygon fill="#63b8ff" stroke="#63b8ff" points="769.3,-342.87 779.87,-342.08 771.11,-336.1 769.3,-342.87"/>
</g>
<!-- Node28&#45;&gt;Node20 -->
<g id="edge40" class="edge">
<title>Node28&#45;&gt;Node20</title>
<path fill="none" stroke="#63b8ff" d="M867.98,-306.42C883.77,-302.85 902.5,-298.62 920.1,-294.65"/>
<polygon fill="#63b8ff" stroke="#63b8ff" points="921.32,-297.96 930.3,-292.34 919.78,-291.13 921.32,-297.96"/>
</g>
<!-- Node28&#45;&gt;Node27 -->
<g id="edge38" class="edge">
<title>Node28&#45;&gt;Node27</title>
<path fill="none" stroke="#63b8ff" d="M858.18,-323.58C866.85,-326.4 876.38,-329.66 885,-333 908.53,-342.12 934.62,-353.99 953.58,-362.95"/>
<polygon fill="#63b8ff" stroke="#63b8ff" points="952.26,-366.2 962.79,-367.34 955.27,-359.88 952.26,-366.2"/>
</g>
<!-- Node29 -->
<g id="node29" class="node">
<title>Node29</title>
<g id="a_node29"><a xlink:href="namespacea60.html#afa4b02aa30f3ff7828561abb787ede03" target="_top" xlink:title="Less than compare for meta_peer via geo.">
<polygon fill="white" stroke="#666666" points="1036.5,-329.5 926.5,-329.5 926.5,-312.5 1036.5,-312.5 1036.5,-329.5"/>
<text text-anchor="middle" x="981.5" y="-319.1" font-family="SourceSans" font-size="8.00">a60::meta_peer_lt_geo</text>
</a>
</g>
</g>
<!-- Node28&#45;&gt;Node29 -->
<g id="edge39" class="edge">
<title>Node28&#45;&gt;Node29</title>
<path fill="none" stroke="#63b8ff" d="M885.19,-317.2C895.25,-317.6 905.84,-318.02 916.14,-318.43"/>
<polygon fill="#63b8ff" stroke="#63b8ff" points="916.19,-321.94 926.33,-318.84 916.47,-314.94 916.19,-321.94"/>
</g>
<!-- Node33&#45;&gt;Node3 -->
<g id="edge49" class="edge">
<title>Node33&#45;&gt;Node3</title>
<path fill="none" stroke="#63b8ff" d="M725.86,-513.48C767.76,-510.8 830.74,-505.71 885,-497 902.67,-494.16 921.94,-489.94 938.51,-485.96"/>
<polygon fill="#63b8ff" stroke="#63b8ff" points="939.57,-489.3 948.44,-483.52 937.9,-482.5 939.57,-489.3"/>
</g>
<!-- Node33&#45;&gt;Node4 -->
<g id="edge50" class="edge">
<title>Node33&#45;&gt;Node4</title>
<path fill="none" stroke="#63b8ff" d="M725.74,-503.14C740.16,-499.17 756.2,-494.76 771.22,-490.62"/>
<polygon fill="#63b8ff" stroke="#63b8ff" points="772.2,-493.98 780.92,-487.96 770.35,-487.23 772.2,-493.98"/>
</g>
</g>
</svg>
