<?xml version="1.0" encoding="UTF-8" standalone="no"?>
<!DOCTYPE svg PUBLIC "-//W3C//DTD SVG 1.1//EN"
 "http://www.w3.org/Graphics/SVG/1.1/DTD/svg11.dtd">
<!-- Generated by graphviz version 5.0.0 (0)
 -->
<!-- Title: thread_pool::async Pages: 1 -->
<svg width="270pt" height="70pt"
 viewBox="0.00 0.00 270.00 69.50" xmlns="http://www.w3.org/2000/svg" xmlns:xlink="http://www.w3.org/1999/xlink">
<g id="graph0" class="graph" transform="scale(1 1) rotate(0) translate(4 65.5)">
<title>thread_pool::async</title>
<!-- Node1 -->
<g id="node1" class="node">
<title>Node1</title>
<g id="a_node1"><a xlink:title=" ">
<polygon fill="#999999" stroke="#666666" points="95,-41.5 0,-41.5 0,-24.5 95,-24.5 95,-41.5"/>
<text text-anchor="middle" x="47.5" y="-31.1" font-family="SourceSans" font-size="8.00">thread_pool::async</text>
</a>
</g>
</g>
<!-- Node2 -->
<g id="node2" class="node">
<title>Node2</title>
<g id="a_node2"><a xlink:href="classthread__pool.html#adb81e803e844526177b0f8a72229dda2" target="_top" xlink:title=" ">
<polygon fill="white" stroke="#666666" points="250,-61.5 143,-61.5 143,-44.5 250,-44.5 250,-61.5"/>
<text text-anchor="middle" x="196.5" y="-51.1" font-family="SourceSans" font-size="8.00">thread_pool::add_task</text>
</a>
</g>
</g>
<!-- Node1&#45;&gt;Node2 -->
<g id="edge1" class="edge">
<title>Node1&#45;&gt;Node2</title>
<path fill="none" stroke="#63b8ff" d="M95.01,-39.33C107.02,-40.96 120.16,-42.75 132.84,-44.48"/>
<polygon fill="#63b8ff" stroke="#63b8ff" points="132.52,-47.96 142.9,-45.84 133.46,-41.03 132.52,-47.96"/>
</g>
<!-- Node3 -->
<g id="node3" class="node">
<title>Node3</title>
<g id="a_node3"><a xlink:href="classbase__thread__pool.html#ab99cb06ba52430880d337400fedc20d1" target="_top" xlink:title=" ">
<polygon fill="white" stroke="#666666" points="262,-26 131,-26 131,0 262,0 262,-26"/>
<text text-anchor="start" x="139" y="-15.6" font-family="SourceSans" font-size="8.00">base_thread_pool&lt; std</text>
<text text-anchor="middle" x="196.5" y="-6.6" font-family="SourceSans" font-size="8.00">::future&lt; void &gt; &gt;::package</text>
</a>
</g>
</g>
<!-- Node1&#45;&gt;Node3 -->
<g id="edge2" class="edge">
<title>Node1&#45;&gt;Node3</title>
<path fill="none" stroke="#63b8ff" d="M95.01,-26.67C103.26,-25.55 112.04,-24.36 120.84,-23.16"/>
<polygon fill="#63b8ff" stroke="#63b8ff" points="121.32,-26.62 130.76,-21.81 120.38,-19.69 121.32,-26.62"/>
</g>
</g>
</svg>
