<?xml version="1.0" encoding="UTF-8" standalone="no"?>
<!DOCTYPE svg PUBLIC "-//W3C//DTD SVG 1.1//EN"
 "http://www.w3.org/Graphics/SVG/1.1/DTD/svg11.dtd">
<!-- Generated by graphviz version 5.0.0 (0)
 -->
<!-- Title: a60::augment_wgeo_peers_location Pages: 1 -->
<svg width="620pt" height="150pt"
 viewBox="0.00 0.00 620.00 150.00" xmlns="http://www.w3.org/2000/svg" xmlns:xlink="http://www.w3.org/1999/xlink">
<g id="graph0" class="graph" transform="scale(1 1) rotate(0) translate(4 146)">
<title>a60::augment_wgeo_peers_location</title>
<!-- Node1 -->
<g id="node1" class="node">
<title>Node1</title>
<g id="a_node1"><a xlink:title="Parameterize scaling normalizes on range (nfloor, nceil). nfloor == 2, 48 nceil == 396,...">
<polygon fill="#999999" stroke="#666666" points="128,-56.5 0,-56.5 0,-30.5 128,-30.5 128,-56.5"/>
<text text-anchor="start" x="8" y="-46.1" font-family="SourceSans" font-size="8.00">a60::augment_wgeo_peers</text>
<text text-anchor="middle" x="64" y="-37.1" font-family="SourceSans" font-size="8.00">_location</text>
</a>
</g>
</g>
<!-- Node2 -->
<g id="node2" class="node">
<title>Node2</title>
<g id="a_node2"><a xlink:href="namespacea60.html#ac997b39099fe8c748ee393875dd23c9e" target="_top" xlink:title=" ">
<polygon fill="white" stroke="#666666" points="298,-87 164,-87 164,-70 298,-70 298,-87"/>
<text text-anchor="middle" x="231" y="-76.6" font-family="SourceSans" font-size="8.00">a60::augment_peer_location</text>
</a>
</g>
</g>
<!-- Node1&#45;&gt;Node2 -->
<g id="edge1" class="edge">
<title>Node1&#45;&gt;Node2</title>
<path fill="none" stroke="#63b8ff" d="M126.44,-56.53C143.89,-60.23 162.69,-64.22 179.42,-67.77"/>
<polygon fill="#63b8ff" stroke="#63b8ff" points="179.03,-71.27 189.54,-69.92 180.48,-64.42 179.03,-71.27"/>
</g>
<!-- Node8 -->
<g id="node8" class="node">
<title>Node8</title>
<g id="a_node8"><a xlink:href="namespacea60.html#a3ea049ae7ac9af3ba2edcc7f79d62fde" target="_top" xlink:title="Get min, max of weight in weighed peers.">
<polygon fill="white" stroke="#666666" points="287.5,-52 174.5,-52 174.5,-35 287.5,-35 287.5,-52"/>
<text text-anchor="middle" x="231" y="-41.6" font-family="SourceSans" font-size="8.00">a60::find_weight_range</text>
</a>
</g>
</g>
<!-- Node1&#45;&gt;Node8 -->
<g id="edge7" class="edge">
<title>Node1&#45;&gt;Node8</title>
<path fill="none" stroke="#63b8ff" d="M128.32,-43.5C140.06,-43.5 152.35,-43.5 164.16,-43.5"/>
<polygon fill="#63b8ff" stroke="#63b8ff" points="164.39,-47 174.39,-43.5 164.39,-40 164.39,-47"/>
</g>
<!-- Node9 -->
<g id="node9" class="node">
<title>Node9</title>
<g id="a_node9"><a xlink:href="namespacea60.html#a0d53d95ed1faf99432c1eaaa0d238732" target="_top" xlink:title="Normalize value from (min, max) on (nfloor, nceil)">
<polygon fill="white" stroke="#666666" points="291.5,-17 170.5,-17 170.5,0 291.5,0 291.5,-17"/>
<text text-anchor="middle" x="231" y="-6.6" font-family="SourceSans" font-size="8.00">a60::normalize_on_range</text>
</a>
</g>
</g>
<!-- Node1&#45;&gt;Node9 -->
<g id="edge8" class="edge">
<title>Node1&#45;&gt;Node9</title>
<path fill="none" stroke="#63b8ff" d="M126.44,-30.47C143.89,-26.77 162.69,-22.78 179.42,-19.23"/>
<polygon fill="#63b8ff" stroke="#63b8ff" points="180.48,-22.58 189.54,-17.08 179.03,-15.73 180.48,-22.58"/>
</g>
<!-- Node3 -->
<g id="node3" class="node">
<title>Node3</title>
<g id="a_node3"><a xlink:href="namespacea60.html#a935512b7346e03fbd98295ec07511666" target="_top" xlink:title=" ">
<polygon fill="white" stroke="#666666" points="450,-142 334,-142 334,-125 450,-125 450,-142"/>
<text text-anchor="middle" x="392" y="-131.6" font-family="SourceSans" font-size="8.00">a60::augment_peer_text</text>
</a>
</g>
</g>
<!-- Node2&#45;&gt;Node3 -->
<g id="edge2" class="edge">
<title>Node2&#45;&gt;Node3</title>
<path fill="none" stroke="#63b8ff" d="M253.74,-87.08C274.29,-95.07 306.05,-107.14 334,-116.5 339.58,-118.37 345.51,-120.25 351.34,-122.04"/>
<polygon fill="#63b8ff" stroke="#63b8ff" points="350.42,-125.42 361,-124.96 352.44,-118.72 350.42,-125.42"/>
</g>
<!-- Node4 -->
<g id="node4" class="node">
<title>Node4</title>
<g id="a_node4"><a xlink:href="namespacea60.html#a67a216731ae229be675dbcbfa228d865" target="_top" xlink:title=" ">
<polygon fill="white" stroke="#666666" points="442.5,-107 341.5,-107 341.5,-90 442.5,-90 442.5,-107"/>
<text text-anchor="middle" x="392" y="-96.6" font-family="SourceSans" font-size="8.00">a60::convert_to_utf8</text>
</a>
</g>
</g>
<!-- Node2&#45;&gt;Node4 -->
<g id="edge3" class="edge">
<title>Node2&#45;&gt;Node4</title>
<path fill="none" stroke="#63b8ff" d="M298.05,-86.81C309.04,-88.19 320.39,-89.62 331.21,-90.98"/>
<polygon fill="#63b8ff" stroke="#63b8ff" points="331.04,-94.49 341.4,-92.26 331.92,-87.54 331.04,-94.49"/>
</g>
<!-- Node6 -->
<g id="node6" class="node">
<title>Node6</title>
<g id="a_node6"><a xlink:href="namespacea60.html#a63bf2b0abf68edc3f3e74a0811fe771b" target="_top" xlink:title="Error checking support. Null Island Check (aka latitude and longitude set to zero).">
<polygon fill="white" stroke="#666666" points="445.5,-71.5 338.5,-71.5 338.5,-45.5 445.5,-45.5 445.5,-71.5"/>
<text text-anchor="start" x="346.5" y="-61.1" font-family="SourceSans" font-size="8.00">a60::is_meta_peer_on</text>
<text text-anchor="middle" x="392" y="-52.1" font-family="SourceSans" font-size="8.00">_null_island</text>
</a>
</g>
</g>
<!-- Node2&#45;&gt;Node6 -->
<g id="edge5" class="edge">
<title>Node2&#45;&gt;Node6</title>
<path fill="none" stroke="#63b8ff" d="M298.05,-70.19C308.05,-68.93 318.35,-67.64 328.28,-66.39"/>
<polygon fill="#63b8ff" stroke="#63b8ff" points="328.99,-69.83 338.47,-65.11 328.12,-62.88 328.99,-69.83"/>
</g>
<!-- Node7 -->
<g id="node7" class="node">
<title>Node7</title>
<g id="a_node7"><a xlink:href="structa60_1_1carto_1_1cartography.html#a57e14cabb4993189316e369a27752a73" target="_top" xlink:title=" ">
<polygon fill="white" stroke="#666666" points="449.5,-27.5 334.5,-27.5 334.5,-1.5 449.5,-1.5 449.5,-27.5"/>
<text text-anchor="start" x="342.5" y="-17.1" font-family="SourceSans" font-size="8.00">a60::carto::cartography</text>
<text text-anchor="middle" x="392" y="-8.1" font-family="SourceSans" font-size="8.00">::to_point_2d</text>
</a>
</g>
</g>
<!-- Node2&#45;&gt;Node7 -->
<g id="edge6" class="edge">
<title>Node2&#45;&gt;Node7</title>
<path fill="none" stroke="#63b8ff" d="M274.32,-69.98C282.36,-67.7 290.58,-64.9 298,-61.5 315.71,-53.39 316.79,-45.63 334,-36.5 337.24,-34.78 340.64,-33.13 344.1,-31.55"/>
<polygon fill="#63b8ff" stroke="#63b8ff" points="345.53,-34.75 353.33,-27.57 342.76,-28.32 345.53,-34.75"/>
</g>
<!-- Node5 -->
<g id="node5" class="node">
<title>Node5</title>
<g id="a_node5"><a xlink:href="namespacea60.html#a1c4e23f164dec11b9fee53e2292af224" target="_top" xlink:title="Convert MaxMind GeoIP information from ISO&#45;8859&#45;1 encoding to UTF&#45;8.">
<polygon fill="white" stroke="#666666" points="612,-107 486,-107 486,-90 612,-90 612,-107"/>
<text text-anchor="middle" x="549" y="-96.6" font-family="SourceSans" font-size="8.00">a60::convert_8859_to_utf8</text>
</a>
</g>
</g>
<!-- Node4&#45;&gt;Node5 -->
<g id="edge4" class="edge">
<title>Node4&#45;&gt;Node5</title>
<path fill="none" stroke="#63b8ff" d="M442.9,-98.5C453.4,-98.5 464.68,-98.5 475.81,-98.5"/>
<polygon fill="#63b8ff" stroke="#63b8ff" points="475.97,-102 485.97,-98.5 475.97,-95 475.97,-102"/>
</g>
</g>
</svg>
