<?xml version="1.0" encoding="UTF-8" standalone="no"?>
<!DOCTYPE svg PUBLIC "-//W3C//DTD SVG 1.1//EN"
 "http://www.w3.org/Graphics/SVG/1.1/DTD/svg11.dtd">
<!-- Generated by graphviz version 5.0.0 (0)
 -->
<!-- Title: a60::serialize_buffer Pages: 1 -->
<svg width="720pt" height="158pt"
 viewBox="0.00 0.00 720.00 157.50" xmlns="http://www.w3.org/2000/svg" xmlns:xlink="http://www.w3.org/1999/xlink">
<g id="graph0" class="graph" transform="scale(1 1) rotate(0) translate(4 153.5)">
<title>a60::serialize_buffer</title>
<!-- Node1 -->
<g id="node1" class="node">
<title>Node1</title>
<g id="a_node1"><a xlink:title="Serialize buffer to output file.">
<polygon fill="#999999" stroke="#666666" points="101,-84.5 0,-84.5 0,-67.5 101,-67.5 101,-84.5"/>
<text text-anchor="middle" x="50.5" y="-74.1" font-family="SourceSans" font-size="8.00">a60::serialize_buffer</text>
</a>
</g>
</g>
<!-- Node2 -->
<g id="node2" class="node">
<title>Node2</title>
<g id="a_node2"><a xlink:href="structa60_1_1collection.html#a3780f3266ff2355e74b737a201c89116" target="_top" xlink:title=" ">
<polygon fill="white" stroke="#666666" points="252,-109 137,-109 137,-83 252,-83 252,-109"/>
<text text-anchor="start" x="145" y="-98.6" font-family="SourceSans" font-size="8.00">a60::collection::mangle</text>
<text text-anchor="middle" x="194.5" y="-89.6" font-family="SourceSans" font-size="8.00">_tid_match_id</text>
</a>
</g>
</g>
<!-- Node1&#45;&gt;Node2 -->
<g id="edge1" class="edge">
<title>Node1&#45;&gt;Node2</title>
<path fill="none" stroke="#63b8ff" d="M101.16,-83C109.44,-84.16 118.15,-85.39 126.77,-86.6"/>
<polygon fill="#63b8ff" stroke="#63b8ff" points="126.43,-90.09 136.82,-88.02 127.4,-83.16 126.43,-90.09"/>
</g>
<!-- Node10 -->
<g id="node10" class="node">
<title>Node10</title>
<g id="a_node10"><a xlink:href="namespacea60.html#aba8b47de875bd5bebeed9c57e3b52c06" target="_top" xlink:title="Serialize buffer to output file.">
<polygon fill="white" stroke="#666666" points="245,-64.5 144,-64.5 144,-47.5 245,-47.5 245,-64.5"/>
<text text-anchor="middle" x="194.5" y="-54.1" font-family="SourceSans" font-size="8.00">a60::serialize_buffer</text>
</a>
</g>
</g>
<!-- Node1&#45;&gt;Node10 -->
<g id="edge9" class="edge">
<title>Node1&#45;&gt;Node10</title>
<path fill="none" stroke="#63b8ff" d="M101.16,-69C111.59,-67.54 122.69,-65.97 133.45,-64.46"/>
<polygon fill="#63b8ff" stroke="#63b8ff" points="134.21,-67.89 143.62,-63.02 133.23,-60.95 134.21,-67.89"/>
</g>
<!-- Node3 -->
<g id="node3" class="node">
<title>Node3</title>
<g id="a_node3"><a xlink:href="structa60_1_1collection.html#ab234addb5725bb5900b44f55ec1aae10" target="_top" xlink:title=" ">
<polygon fill="white" stroke="#666666" points="403,-136 288,-136 288,-110 403,-110 403,-136"/>
<text text-anchor="start" x="296" y="-125.6" font-family="SourceSans" font-size="8.00">a60::collection::mangle</text>
<text text-anchor="middle" x="345.5" y="-116.6" font-family="SourceSans" font-size="8.00">_with_id</text>
</a>
</g>
</g>
<!-- Node2&#45;&gt;Node3 -->
<g id="edge2" class="edge">
<title>Node2&#45;&gt;Node3</title>
<path fill="none" stroke="#63b8ff" d="M252.26,-106.28C260.65,-107.81 269.36,-109.38 277.93,-110.94"/>
<polygon fill="#63b8ff" stroke="#63b8ff" points="277.44,-114.4 287.9,-112.74 278.69,-107.52 277.44,-114.4"/>
</g>
<!-- Node5 -->
<g id="node5" class="node">
<title>Node5</title>
<g id="a_node5"><a xlink:href="structa60_1_1collection.html#a80993af9aec8238db8e44da1e9a3c994" target="_top" xlink:title=" ">
<polygon fill="white" stroke="#666666" points="397,-83 294,-83 294,-57 397,-57 397,-83"/>
<text text-anchor="start" x="302" y="-72.6" font-family="SourceSans" font-size="8.00">a60::collection::slice</text>
<text text-anchor="middle" x="345.5" y="-63.6" font-family="SourceSans" font-size="8.00">_name_mangled</text>
</a>
</g>
</g>
<!-- Node2&#45;&gt;Node5 -->
<g id="edge4" class="edge">
<title>Node2&#45;&gt;Node5</title>
<path fill="none" stroke="#63b8ff" d="M252.26,-86.1C262.6,-84.29 273.43,-82.4 283.88,-80.58"/>
<polygon fill="#63b8ff" stroke="#63b8ff" points="284.51,-84.02 293.76,-78.85 283.31,-77.12 284.51,-84.02"/>
</g>
<!-- Node4 -->
<g id="node4" class="node">
<title>Node4</title>
<g id="a_node4"><a xlink:href="structa60_1_1collection.html#a899f781ad983b2ec1f0da35a5d3f8b54" target="_top" xlink:title=" ">
<polygon fill="white" stroke="#666666" points="561.5,-149.5 446.5,-149.5 446.5,-114.5 561.5,-114.5 561.5,-149.5"/>
<text text-anchor="start" x="454.5" y="-139.1" font-family="SourceSans" font-size="8.00">a60::collection::mangle</text>
<text text-anchor="start" x="454.5" y="-130.1" font-family="SourceSans" font-size="8.00">_duration_significant</text>
<text text-anchor="middle" x="504" y="-121.1" font-family="SourceSans" font-size="8.00">_digits</text>
</a>
</g>
</g>
<!-- Node3&#45;&gt;Node4 -->
<g id="edge3" class="edge">
<title>Node3&#45;&gt;Node4</title>
<path fill="none" stroke="#63b8ff" d="M403,-126.25C413.79,-126.87 425.18,-127.52 436.26,-128.16"/>
<polygon fill="#63b8ff" stroke="#63b8ff" points="436.14,-131.66 446.32,-128.74 436.54,-124.67 436.14,-131.66"/>
</g>
<!-- Node6 -->
<g id="node6" class="node">
<title>Node6</title>
<g id="a_node6"><a xlink:href="structa60_1_1collection.html#a25b35cf4ac39da89d868fe2cf41b5acd" target="_top" xlink:title=" ">
<polygon fill="white" stroke="#666666" points="569,-96.5 439,-96.5 439,-79.5 569,-79.5 569,-96.5"/>
<text text-anchor="middle" x="504" y="-86.1" font-family="SourceSans" font-size="8.00">a60::collection::slice_name</text>
</a>
</g>
</g>
<!-- Node5&#45;&gt;Node6 -->
<g id="edge5" class="edge">
<title>Node5&#45;&gt;Node6</title>
<path fill="none" stroke="#63b8ff" d="M397.31,-75.84C407.32,-77 418.02,-78.23 428.62,-79.44"/>
<polygon fill="#63b8ff" stroke="#63b8ff" points="428.39,-82.94 438.73,-80.61 429.19,-75.99 428.39,-82.94"/>
</g>
<!-- Node7 -->
<g id="node7" class="node">
<title>Node7</title>
<g id="a_node7"><a xlink:href="namespacea60.html#ac7eddb2e330d8983ddc852edde5335c5" target="_top" xlink:title=" ">
<polygon fill="white" stroke="#666666" points="563.5,-61.5 444.5,-61.5 444.5,-44.5 563.5,-44.5 563.5,-61.5"/>
<text text-anchor="middle" x="504" y="-51.1" font-family="SourceSans" font-size="8.00">a60::to_lowercase_string</text>
</a>
</g>
</g>
<!-- Node5&#45;&gt;Node7 -->
<g id="edge6" class="edge">
<title>Node5&#45;&gt;Node7</title>
<path fill="none" stroke="#63b8ff" d="M397.31,-64.48C409.03,-63.21 421.68,-61.83 434.02,-60.49"/>
<polygon fill="#63b8ff" stroke="#63b8ff" points="434.72,-63.94 444.29,-59.38 433.97,-56.98 434.72,-63.94"/>
</g>
<!-- Node8 -->
<g id="node8" class="node">
<title>Node8</title>
<g id="a_node8"><a xlink:href="namespacea60.html#a11d9ffc210e8dca8410e7a5ad62deabc" target="_top" xlink:title=" ">
<polygon fill="white" stroke="#666666" points="560.5,-26 447.5,-26 447.5,0 560.5,0 560.5,-26"/>
<text text-anchor="start" x="455.5" y="-15.6" font-family="SourceSans" font-size="8.00">a60::to_replace_spaces</text>
<text text-anchor="middle" x="504" y="-6.6" font-family="SourceSans" font-size="8.00">_string</text>
</a>
</g>
</g>
<!-- Node5&#45;&gt;Node8 -->
<g id="edge7" class="edge">
<title>Node5&#45;&gt;Node8</title>
<path fill="none" stroke="#63b8ff" d="M380.24,-56.95C397.72,-50.26 419.46,-42.05 439,-35 444.11,-33.16 449.46,-31.26 454.81,-29.39"/>
<polygon fill="#63b8ff" stroke="#63b8ff" points="456.05,-32.66 464.35,-26.07 453.76,-26.05 456.05,-32.66"/>
</g>
<!-- Node9 -->
<g id="node9" class="node">
<title>Node9</title>
<g id="a_node9"><a xlink:href="namespacea60.html#a751f954fe64233f1dc6517220e4b5692" target="_top" xlink:title=" ">
<polygon fill="white" stroke="#666666" points="712,-21.5 605,-21.5 605,-4.5 712,-4.5 712,-21.5"/>
<text text-anchor="middle" x="658.5" y="-11.1" font-family="SourceSans" font-size="8.00">a60::to_replace_string</text>
</a>
</g>
</g>
<!-- Node8&#45;&gt;Node9 -->
<g id="edge8" class="edge">
<title>Node8&#45;&gt;Node9</title>
<path fill="none" stroke="#63b8ff" d="M560.92,-13C571.92,-13 583.53,-13 594.73,-13"/>
<polygon fill="#63b8ff" stroke="#63b8ff" points="594.88,-16.5 604.88,-13 594.88,-9.5 594.88,-16.5"/>
</g>
</g>
</svg>
