<?xml version="1.0" encoding="UTF-8" standalone="no"?>
<!DOCTYPE svg PUBLIC "-//W3C//DTD SVG 1.1//EN"
 "http://www.w3.org/Graphics/SVG/1.1/DTD/svg11.dtd">
<!-- Generated by graphviz version 5.0.0 (0)
 -->
<!-- Title: a60::metadata::render_id_base Pages: 1 -->
<svg width="408pt" height="170pt"
 viewBox="0.00 0.00 408.00 169.50" xmlns="http://www.w3.org/2000/svg" xmlns:xlink="http://www.w3.org/1999/xlink">
<g id="graph0" class="graph" transform="scale(1 1) rotate(0) translate(4 165.5)">
<title>a60::metadata::render_id_base</title>
<!-- Node1 -->
<g id="node1" class="node">
<title>Node1</title>
<g id="a_node1"><a xlink:title="Base Radial Visualization.">
<polygon fill="#999999" stroke="#666666" points="110,-99.5 0,-99.5 0,-73.5 110,-73.5 110,-99.5"/>
<text text-anchor="start" x="8" y="-89.1" font-family="SourceSans" font-size="8.00">a60::metadata::render</text>
<text text-anchor="middle" x="55" y="-80.1" font-family="SourceSans" font-size="8.00">_id_base</text>
</a>
</g>
</g>
<!-- Node2 -->
<g id="node2" class="node">
<title>Node2</title>
<g id="a_node2"><a xlink:href="namespacea60_1_1constants.html#a613cac7d85819a545849f5eefd733896" target="_top" xlink:title=" ">
<polygon fill="white" stroke="#666666" points="247,-161.5 146,-161.5 146,-135.5 247,-135.5 247,-161.5"/>
<text text-anchor="start" x="154" y="-151.1" font-family="SourceSans" font-size="8.00">a60::constants::age</text>
<text text-anchor="middle" x="196.5" y="-142.1" font-family="SourceSans" font-size="8.00">_value_to_multiple</text>
</a>
</g>
</g>
<!-- Node1&#45;&gt;Node2 -->
<g id="edge1" class="edge">
<title>Node1&#45;&gt;Node2</title>
<path fill="none" stroke="#63b8ff" d="M85.58,-99.65C106.3,-108.86 134.18,-121.25 156.68,-131.25"/>
<polygon fill="#63b8ff" stroke="#63b8ff" points="155.4,-134.51 165.96,-135.37 158.24,-128.11 155.4,-134.51"/>
</g>
<!-- Node4 -->
<g id="node4" class="node">
<title>Node4</title>
<g id="a_node4"><a xlink:href="namespacea60_1_1metadata.html#abcd6d192e6ed0f853c3c6cd9bcf13cad" target="_top" xlink:title=" ">
<polygon fill="white" stroke="#666666" points="390.5,-100.5 292.5,-100.5 292.5,-74.5 390.5,-74.5 390.5,-100.5"/>
<text text-anchor="start" x="300.5" y="-90.1" font-family="SourceSans" font-size="8.00">a60::metadata::get</text>
<text text-anchor="middle" x="341.5" y="-81.1" font-family="SourceSans" font-size="8.00">_metadata_style</text>
</a>
</g>
</g>
<!-- Node1&#45;&gt;Node4 -->
<g id="edge3" class="edge">
<title>Node1&#45;&gt;Node4</title>
<path fill="none" stroke="#63b8ff" d="M110.25,-87.9C122.04,-88.15 134.44,-88.37 146,-88.5 191.72,-89.01 243.49,-88.7 282.11,-88.29"/>
<polygon fill="#63b8ff" stroke="#63b8ff" points="282.18,-91.79 292.14,-88.18 282.1,-84.79 282.18,-91.79"/>
</g>
<!-- Node5 -->
<g id="node5" class="node">
<title>Node5</title>
<g id="a_node5"><a xlink:href="namespacea60_1_1metadata.html#aeba42336cc4f30ed9ee705111d3e82a9" target="_top" xlink:title="Typographic defaults for text labels.">
<polygon fill="white" stroke="#666666" points="245.5,-79.5 147.5,-79.5 147.5,-53.5 245.5,-53.5 245.5,-79.5"/>
<text text-anchor="start" x="155.5" y="-69.1" font-family="SourceSans" font-size="8.00">a60::metadata::get</text>
<text text-anchor="middle" x="196.5" y="-60.1" font-family="SourceSans" font-size="8.00">_metadata_typo</text>
</a>
</g>
</g>
<!-- Node1&#45;&gt;Node5 -->
<g id="edge4" class="edge">
<title>Node1&#45;&gt;Node5</title>
<path fill="none" stroke="#63b8ff" d="M110.33,-78.71C119.23,-77.44 128.47,-76.11 137.45,-74.82"/>
<polygon fill="#63b8ff" stroke="#63b8ff" points="138.04,-78.27 147.44,-73.39 137.05,-71.34 138.04,-78.27"/>
</g>
<!-- Node6 -->
<g id="node6" class="node">
<title>Node6</title>
<g id="a_node6"><a xlink:href="namespacea60.html#a4e8b0cabed112734147b499bf0cc9029" target="_top" xlink:title="Conversion of resolution_mode to string.">
<polygon fill="white" stroke="#666666" points="233.5,-17 159.5,-17 159.5,0 233.5,0 233.5,-17"/>
<text text-anchor="middle" x="196.5" y="-6.6" font-family="SourceSans" font-size="8.00">a60::to_string</text>
</a>
</g>
</g>
<!-- Node1&#45;&gt;Node6 -->
<g id="edge6" class="edge">
<title>Node1&#45;&gt;Node6</title>
<path fill="none" stroke="#63b8ff" d="M79.35,-73.44C104.91,-59.15 145.68,-36.36 171.5,-21.92"/>
<polygon fill="#63b8ff" stroke="#63b8ff" points="173.26,-24.95 180.28,-17.01 169.84,-18.84 173.26,-24.95"/>
</g>
<!-- Node3 -->
<g id="node3" class="node">
<title>Node3</title>
<g id="a_node3"><a xlink:href="namespacea60_1_1constants.html#ac27c77e4606552ae5f74a1c21dd9258e" target="_top" xlink:title=" ">
<polygon fill="white" stroke="#666666" points="400,-157 283,-157 283,-140 400,-140 400,-157"/>
<text text-anchor="middle" x="341.5" y="-146.6" font-family="SourceSans" font-size="8.00">a60::constants::newline</text>
</a>
</g>
</g>
<!-- Node2&#45;&gt;Node3 -->
<g id="edge2" class="edge">
<title>Node2&#45;&gt;Node3</title>
<path fill="none" stroke="#63b8ff" d="M247.11,-148.5C255.35,-148.5 264.01,-148.5 272.6,-148.5"/>
<polygon fill="#63b8ff" stroke="#63b8ff" points="272.62,-152 282.62,-148.5 272.62,-145 272.62,-152"/>
</g>
<!-- Node5&#45;&gt;Node4 -->
<g id="edge5" class="edge">
<title>Node5&#45;&gt;Node4</title>
<path fill="none" stroke="#63b8ff" d="M245.51,-73.55C257.31,-75.28 270.05,-77.15 282.27,-78.95"/>
<polygon fill="#63b8ff" stroke="#63b8ff" points="281.97,-82.44 292.37,-80.43 282.98,-75.52 281.97,-82.44"/>
</g>
<!-- Node6&#45;&gt;Node6 -->
<g id="edge7" class="edge">
<title>Node6&#45;&gt;Node6</title>
<path fill="none" stroke="#63b8ff" d="M175.64,-17.19C164.12,-25.67 171.07,-35 196.5,-35 213.19,-35 221.92,-30.98 222.69,-25.82"/>
<polygon fill="#63b8ff" stroke="#63b8ff" points="225.59,-23.86 217.36,-17.19 219.64,-27.53 225.59,-23.86"/>
</g>
</g>
</svg>
