<?xml version="1.0" encoding="UTF-8" standalone="no"?>
<!DOCTYPE svg PUBLIC "-//W3C//DTD SVG 1.1//EN"
 "http://www.w3.org/Graphics/SVG/1.1/DTD/svg11.dtd">
<!-- Generated by graphviz version 5.0.0 (0)
 -->
<!-- Title: a60::augment_collection_text_vector Pages: 1 -->
<!--zoomable 389 -->
<svg id="main" version="1.1" xmlns="http://www.w3.org/2000/svg" xmlns:xlink="http://www.w3.org/1999/xlink" xml:space="preserve" onload="init(evt)">
<style type="text/css"><![CDATA[
.edge:hover path { stroke: red; }
.edge:hover polygon { stroke: red; fill: red; }
]]></style>
<script type="text/javascript"><![CDATA[
var edges = document.getElementsByTagName('g');
if (edges && edges.length) {
  for (var i=0;i<edges.length;i++) {
    if (edges[i].id.substr(0,4)=='edge') {
      edges[i].setAttribute('class','edge');
    }
  }
}
]]></script>
        <defs>
                <circle id="rim" cx="0" cy="0" r="7"/>
                <circle id="rim2" cx="0" cy="0" r="3.5"/>
                <g id="zoomPlus">
                        <use xlink:href="#rim" fill="#404040">
                                <set attributeName="fill" to="#808080" begin="zoomplus.mouseover" end="zoomplus.mouseout"/>
                        </use>
                        <path d="M-4,0h8M0,-4v8" fill="none" stroke="white" stroke-width="1.5" pointer-events="none"/>
                </g>
                <g id="zoomMin">
                        <use xlink:href="#rim" fill="#404040">
                                <set attributeName="fill" to="#808080" begin="zoomminus.mouseover" end="zoomminus.mouseout"/>
                        </use>
                        <path d="M-4,0h8" fill="none" stroke="white" stroke-width="1.5" pointer-events="none"/>
                </g>
                <g id="dirArrow">
                        <path fill="none" stroke="white" stroke-width="1.5" d="M0,-3.0v7 M-2.5,-0.5L0,-3.0L2.5,-0.5"/>
                </g>
               <g id="resetDef">
                       <use xlink:href="#rim2" fill="#404040">
                               <set attributeName="fill" to="#808080" begin="reset.mouseover" end="reset.mouseout"/>
                       </use>
               </g>
        </defs>

<script type="text/javascript">
var viewWidth = 987;
var viewHeight = 389;
var sectionId = 'dynsection-29';
</script>
<script xlink:href="svgpan.js"/>
<svg id="graph" class="graph">
<g id="viewport">
<title>a60::augment_collection_text_vector</title>
<!-- Node1 -->
<g id="node1" class="node">
<title>Node1</title>
<g id="a_node1"><a xlink:title=" ">
<polygon fill="#999999" stroke="#666666" points="119,-176 0,-176 0,-150 119,-150 119,-176"/>
<text text-anchor="start" x="8" y="-165.6" font-family="SourceSans" font-size="8.00">a60::augment_collection</text>
<text text-anchor="middle" x="59.5" y="-156.6" font-family="SourceSans" font-size="8.00">_text_vector</text>
</a>
</g>
</g>
<!-- Node2 -->
<g id="node2" class="node">
<title>Node2</title>
<g id="a_node2"><a xlink:href="namespacea60.html#afd267ab94266951ec08784e178349e3c" target="_top" xlink:title="Common parts of weighed collections.">
<polygon fill="white" stroke="#666666" points="275.5,-287.5 176.5,-287.5 176.5,-270.5 275.5,-270.5 275.5,-287.5"/>
<text text-anchor="middle" x="226" y="-277.1" font-family="SourceSans" font-size="8.00">a60::augment_base</text>
</a>
</g>
</g>
<!-- Node1&#45;&gt;Node2 -->
<g id="edge1" class="edge">
<title>Node1&#45;&gt;Node2</title>
<path fill="none" stroke="#63b8ff" d="M79.05,-176.08C110.08,-197.96 172.27,-241.82 204.53,-264.57"/>
<polygon fill="#63b8ff" stroke="#63b8ff" points="202.6,-267.49 212.79,-270.39 206.63,-261.77 202.6,-267.49"/>
</g>
<!-- Node14 -->
<g id="node14" class="node">
<title>Node14</title>
<g id="a_node14"><a xlink:href="namespacea60.html#ad1228ffd0fdb48bdb299b16f95e44fc3" target="_top" xlink:title="Text layer overlay.">
<polygon fill="white" stroke="#666666" points="297,-105.5 155,-105.5 155,-88.5 297,-88.5 297,-105.5"/>
<text text-anchor="middle" x="226" y="-95.1" font-family="SourceSans" font-size="8.00">a60::augment_ccollection_text</text>
</a>
</g>
</g>
<!-- Node1&#45;&gt;Node14 -->
<g id="edge19" class="edge">
<title>Node1&#45;&gt;Node14</title>
<path fill="none" stroke="#63b8ff" d="M93,-149.96C122.32,-138.2 165.14,-121.02 193.98,-109.44"/>
<polygon fill="#63b8ff" stroke="#63b8ff" points="195.58,-112.57 203.56,-105.6 192.98,-106.08 195.58,-112.57"/>
</g>
<!-- Node25 -->
<g id="node25" class="node">
<title>Node25</title>
<g id="a_node25"><a xlink:href="namespacea60.html#a56fa4f1fa5904c6215b0a9ad7988d569" target="_top" xlink:title=" ">
<polygon fill="white" stroke="#666666" points="468.5,-176 345.5,-176 345.5,-150 468.5,-150 468.5,-176"/>
<text text-anchor="start" x="353.5" y="-165.6" font-family="SourceSans" font-size="8.00">a60::augment_ccollection</text>
<text text-anchor="middle" x="407" y="-156.6" font-family="SourceSans" font-size="8.00">_vector_cloud</text>
</a>
</g>
</g>
<!-- Node1&#45;&gt;Node25 -->
<g id="edge31" class="edge">
<title>Node1&#45;&gt;Node25</title>
<path fill="none" stroke="#63b8ff" d="M119.11,-163C178.75,-163 271.23,-163 334.99,-163"/>
<polygon fill="#63b8ff" stroke="#63b8ff" points="335.36,-166.5 345.36,-163 335.36,-159.5 335.36,-166.5"/>
</g>
<!-- Node3 -->
<g id="node3" class="node">
<title>Node3</title>
<g id="a_node3"><a xlink:href="namespacea60.html#a578d5079a62c97b1fb3a1693a82d7430" target="_top" xlink:title="Base name for output for non&#45;map, data/info.">
<polygon fill="white" stroke="#666666" points="480,-270.5 334,-270.5 334,-253.5 480,-253.5 480,-270.5"/>
<text text-anchor="middle" x="407" y="-260.1" font-family="SourceSans" font-size="8.00">a60::augment_base_info_name</text>
</a>
</g>
</g>
<!-- Node2&#45;&gt;Node3 -->
<g id="edge2" class="edge">
<title>Node2&#45;&gt;Node3</title>
<path fill="none" stroke="#63b8ff" d="M275.91,-274.35C290.74,-272.95 307.46,-271.36 323.84,-269.8"/>
<polygon fill="#63b8ff" stroke="#63b8ff" points="324.36,-273.27 333.98,-268.84 323.7,-266.3 324.36,-273.27"/>
</g>
<!-- Node4 -->
<g id="node4" class="node">
<title>Node4</title>
<g id="a_node4"><a xlink:href="structa60_1_1collection.html#a80993af9aec8238db8e44da1e9a3c994" target="_top" xlink:title=" ">
<polygon fill="white" stroke="#666666" points="635.5,-269 532.5,-269 532.5,-243 635.5,-243 635.5,-269"/>
<text text-anchor="start" x="540.5" y="-258.6" font-family="SourceSans" font-size="8.00">a60::collection::slice</text>
<text text-anchor="middle" x="584" y="-249.6" font-family="SourceSans" font-size="8.00">_name_mangled</text>
</a>
</g>
</g>
<!-- Node2&#45;&gt;Node4 -->
<g id="edge18" class="edge">
<title>Node2&#45;&gt;Node4</title>
<path fill="none" stroke="#63b8ff" d="M246.46,-270.48C267.37,-261.83 301.81,-249.02 333,-244 397.02,-233.7 471.34,-239.49 522.21,-246.1"/>
<polygon fill="#63b8ff" stroke="#63b8ff" points="522,-249.61 532.38,-247.48 522.94,-242.67 522,-249.61"/>
</g>
<!-- Node9 -->
<g id="node9" class="node">
<title>Node9</title>
<g id="a_node9"><a xlink:href="namespacea60.html#af7680b43cbe9dfe398fb13de46e09895" target="_top" xlink:title="Base name for output with maps.">
<polygon fill="white" stroke="#666666" points="481,-305.5 333,-305.5 333,-288.5 481,-288.5 481,-305.5"/>
<text text-anchor="middle" x="407" y="-295.1" font-family="SourceSans" font-size="8.00">a60::augment_base_map_name</text>
</a>
</g>
</g>
<!-- Node2&#45;&gt;Node9 -->
<g id="edge8" class="edge">
<title>Node2&#45;&gt;Node9</title>
<path fill="none" stroke="#63b8ff" d="M275.91,-283.92C290.49,-285.38 306.88,-287.03 322.99,-288.65"/>
<polygon fill="#63b8ff" stroke="#63b8ff" points="322.67,-292.14 332.97,-289.66 323.37,-285.17 322.67,-292.14"/>
</g>
<!-- Node11 -->
<g id="node11" class="node">
<title>Node11</title>
<g id="a_node11"><a xlink:href="namespacea60.html#a1bf91ba66297e089d99c49d6a376c0ad" target="_top" xlink:title="NEW STYLE First composite with map, black on white.">
<polygon fill="white" stroke="#666666" points="460,-378.5 354,-378.5 354,-361.5 460,-361.5 460,-378.5"/>
<text text-anchor="middle" x="407" y="-368.1" font-family="SourceSans" font-size="8.00">a60::make_map_base</text>
</a>
</g>
</g>
<!-- Node2&#45;&gt;Node11 -->
<g id="edge14" class="edge">
<title>Node2&#45;&gt;Node11</title>
<path fill="none" stroke="#63b8ff" d="M237.11,-287.65C255.18,-302.67 294.71,-333.64 333,-351 339.33,-353.87 346.17,-356.37 353.05,-358.52"/>
<polygon fill="#63b8ff" stroke="#63b8ff" points="352.5,-362.01 363.08,-361.44 354.45,-355.29 352.5,-362.01"/>
</g>
<!-- Node13 -->
<g id="node13" class="node">
<title>Node13</title>
<g id="a_node13"><a xlink:href="namespacea60.html#af951ad59a8649d55d5075079447bf0e7" target="_top" xlink:title="First composite with map, white on black.">
<polygon fill="white" stroke="#666666" points="477,-342.5 337,-342.5 337,-325.5 477,-325.5 477,-342.5"/>
<text text-anchor="middle" x="407" y="-332.1" font-family="SourceSans" font-size="8.00">a60::make_map_inverse_base</text>
</a>
</g>
</g>
<!-- Node2&#45;&gt;Node13 -->
<g id="edge16" class="edge">
<title>Node2&#45;&gt;Node13</title>
<path fill="none" stroke="#63b8ff" d="M251.73,-287.57C273.14,-294.89 304.98,-305.54 333,-314 342.91,-316.99 353.63,-320.03 363.72,-322.81"/>
<polygon fill="#63b8ff" stroke="#63b8ff" points="362.99,-326.24 373.55,-325.5 364.83,-319.49 362.99,-326.24"/>
</g>
<!-- Node3&#45;&gt;Node4 -->
<g id="edge3" class="edge">
<title>Node3&#45;&gt;Node4</title>
<path fill="none" stroke="#63b8ff" d="M480.19,-259.52C494.14,-259.05 508.64,-258.55 522.18,-258.09"/>
<polygon fill="#63b8ff" stroke="#63b8ff" points="522.46,-261.58 532.34,-257.74 522.22,-254.58 522.46,-261.58"/>
</g>
<!-- Node5 -->
<g id="node5" class="node">
<title>Node5</title>
<g id="a_node5"><a xlink:href="structa60_1_1collection.html#a25b35cf4ac39da89d868fe2cf41b5acd" target="_top" xlink:title=" ">
<polygon fill="white" stroke="#666666" points="817,-263.5 687,-263.5 687,-246.5 817,-246.5 817,-263.5"/>
<text text-anchor="middle" x="752" y="-253.1" font-family="SourceSans" font-size="8.00">a60::collection::slice_name</text>
</a>
</g>
</g>
<!-- Node4&#45;&gt;Node5 -->
<g id="edge4" class="edge">
<title>Node4&#45;&gt;Node5</title>
<path fill="none" stroke="#63b8ff" d="M635.71,-255.69C648.67,-255.62 662.89,-255.53 676.77,-255.45"/>
<polygon fill="#63b8ff" stroke="#63b8ff" points="676.82,-258.95 686.79,-255.39 676.77,-251.95 676.82,-258.95"/>
</g>
<!-- Node6 -->
<g id="node6" class="node">
<title>Node6</title>
<g id="a_node6"><a xlink:href="namespacea60.html#ac7eddb2e330d8983ddc852edde5335c5" target="_top" xlink:title=" ">
<polygon fill="white" stroke="#666666" points="811.5,-343.5 692.5,-343.5 692.5,-326.5 811.5,-326.5 811.5,-343.5"/>
<text text-anchor="middle" x="752" y="-333.1" font-family="SourceSans" font-size="8.00">a60::to_lowercase_string</text>
</a>
</g>
</g>
<!-- Node4&#45;&gt;Node6 -->
<g id="edge5" class="edge">
<title>Node4&#45;&gt;Node6</title>
<path fill="none" stroke="#63b8ff" d="M603.37,-269.04C623.2,-282.61 656.11,-303.7 687,-317 692.5,-319.37 698.4,-321.52 704.31,-323.44"/>
<polygon fill="#63b8ff" stroke="#63b8ff" points="703.62,-326.88 714.21,-326.45 705.66,-320.19 703.62,-326.88"/>
</g>
<!-- Node7 -->
<g id="node7" class="node">
<title>Node7</title>
<g id="a_node7"><a xlink:href="namespacea60.html#a11d9ffc210e8dca8410e7a5ad62deabc" target="_top" xlink:title=" ">
<polygon fill="white" stroke="#666666" points="808.5,-308 695.5,-308 695.5,-282 808.5,-282 808.5,-308"/>
<text text-anchor="start" x="703.5" y="-297.6" font-family="SourceSans" font-size="8.00">a60::to_replace_spaces</text>
<text text-anchor="middle" x="752" y="-288.6" font-family="SourceSans" font-size="8.00">_string</text>
</a>
</g>
</g>
<!-- Node4&#45;&gt;Node7 -->
<g id="edge6" class="edge">
<title>Node4&#45;&gt;Node7</title>
<path fill="none" stroke="#63b8ff" d="M635.71,-267.91C651.34,-271.59 668.79,-275.68 685.28,-279.56"/>
<polygon fill="#63b8ff" stroke="#63b8ff" points="684.86,-283.06 695.4,-281.94 686.47,-276.24 684.86,-283.06"/>
</g>
<!-- Node8 -->
<g id="node8" class="node">
<title>Node8</title>
<g id="a_node8"><a xlink:href="namespacea60.html#a751f954fe64233f1dc6517220e4b5692" target="_top" xlink:title=" ">
<polygon fill="white" stroke="#666666" points="969.5,-303.5 862.5,-303.5 862.5,-286.5 969.5,-286.5 969.5,-303.5"/>
<text text-anchor="middle" x="916" y="-293.1" font-family="SourceSans" font-size="8.00">a60::to_replace_string</text>
</a>
</g>
</g>
<!-- Node7&#45;&gt;Node8 -->
<g id="edge7" class="edge">
<title>Node7&#45;&gt;Node8</title>
<path fill="none" stroke="#63b8ff" d="M808.75,-295C822.74,-295 837.85,-295 852.17,-295"/>
<polygon fill="#63b8ff" stroke="#63b8ff" points="852.42,-298.5 862.42,-295 852.42,-291.5 852.42,-298.5"/>
</g>
<!-- Node9&#45;&gt;Node4 -->
<g id="edge9" class="edge">
<title>Node9&#45;&gt;Node4</title>
<path fill="none" stroke="#63b8ff" d="M444.69,-288.41C467.26,-283.12 496.74,-276.21 522.68,-270.13"/>
<polygon fill="#63b8ff" stroke="#63b8ff" points="523.49,-273.54 532.42,-267.85 521.89,-266.72 523.49,-273.54"/>
</g>
<!-- Node9&#45;&gt;Node6 -->
<g id="edge10" class="edge">
<title>Node9&#45;&gt;Node6</title>
<path fill="none" stroke="#63b8ff" d="M478.35,-305.52C491.2,-307.04 504.5,-308.59 517,-310 572.6,-316.29 635.68,-323 682.32,-327.89"/>
<polygon fill="#63b8ff" stroke="#63b8ff" points="682.01,-331.37 692.32,-328.93 682.74,-324.41 682.01,-331.37"/>
</g>
<!-- Node9&#45;&gt;Node7 -->
<g id="edge11" class="edge">
<title>Node9&#45;&gt;Node7</title>
<path fill="none" stroke="#63b8ff" d="M481.16,-296.57C541.67,-296.22 626.84,-295.72 685.22,-295.38"/>
<polygon fill="#63b8ff" stroke="#63b8ff" points="685.45,-298.88 695.43,-295.32 685.41,-291.88 685.45,-298.88"/>
</g>
<!-- Node10 -->
<g id="node10" class="node">
<title>Node10</title>
<g id="a_node10"><a xlink:href="namespacea60.html#a4e8b0cabed112734147b499bf0cc9029" target="_top" xlink:title="Conversion of resolution_mode to string.">
<polygon fill="white" stroke="#666666" points="621,-206.5 547,-206.5 547,-189.5 621,-189.5 621,-206.5"/>
<text text-anchor="middle" x="584" y="-196.1" font-family="SourceSans" font-size="8.00">a60::to_string</text>
</a>
</g>
</g>
<!-- Node9&#45;&gt;Node10 -->
<g id="edge12" class="edge">
<title>Node9&#45;&gt;Node10</title>
<path fill="none" stroke="#63b8ff" d="M460.77,-288.42C467.88,-286.01 474.84,-282.94 481,-279 502.58,-265.2 497.37,-250.45 517,-234 527.89,-224.87 541.46,-216.99 553.45,-210.96"/>
<polygon fill="#63b8ff" stroke="#63b8ff" points="555.17,-214.01 562.66,-206.52 552.13,-207.71 555.17,-214.01"/>
</g>
<!-- Node10&#45;&gt;Node10 -->
<g id="edge13" class="edge">
<title>Node10&#45;&gt;Node10</title>
<path fill="none" stroke="#63b8ff" d="M558.97,-206.69C545.14,-215.17 553.48,-224.5 584,-224.5 604.98,-224.5 615.48,-220.09 615.5,-214.58"/>
<polygon fill="#63b8ff" stroke="#63b8ff" points="618.08,-212.2 609.03,-206.69 612.66,-216.64 618.08,-212.2"/>
</g>
<!-- Node12 -->
<g id="node12" class="node">
<title>Node12</title>
<g id="a_node12"><a xlink:href="namespacea60.html#a63203aef78ad674129103340323d3b63" target="_top" xlink:title="First layer.">
<polygon fill="white" stroke="#666666" points="645,-380.5 523,-380.5 523,-363.5 645,-363.5 645,-380.5"/>
<text text-anchor="middle" x="584" y="-370.1" font-family="SourceSans" font-size="8.00">a60::place_map_in_frame</text>
</a>
</g>
</g>
<!-- Node11&#45;&gt;Node12 -->
<g id="edge15" class="edge">
<title>Node11&#45;&gt;Node12</title>
<path fill="none" stroke="#63b8ff" d="M460.03,-370.59C476.54,-370.78 495.07,-371 512.65,-371.2"/>
<polygon fill="#63b8ff" stroke="#63b8ff" points="512.82,-374.7 522.86,-371.31 512.9,-367.7 512.82,-374.7"/>
</g>
<!-- Node13&#45;&gt;Node12 -->
<g id="edge17" class="edge">
<title>Node13&#45;&gt;Node12</title>
<path fill="none" stroke="#63b8ff" d="M447.27,-342.53C472.74,-348.06 506.13,-355.31 533.42,-361.23"/>
<polygon fill="#63b8ff" stroke="#63b8ff" points="533.04,-364.73 543.56,-363.43 534.53,-357.89 533.04,-364.73"/>
</g>
<!-- Node15 -->
<g id="node15" class="node">
<title>Node15</title>
<g id="a_node15"><a xlink:href="namespacea60.html#ab4006d7794d9932d29555a8c2250d6f7" target="_top" xlink:title=" ">
<polygon fill="white" stroke="#666666" points="458,-110 356,-110 356,-84 458,-84 458,-110"/>
<text text-anchor="start" x="364" y="-99.6" font-family="SourceSans" font-size="8.00">a60::augment_peers</text>
<text text-anchor="middle" x="407" y="-90.6" font-family="SourceSans" font-size="8.00">_location</text>
</a>
</g>
</g>
<!-- Node14&#45;&gt;Node15 -->
<g id="edge20" class="edge">
<title>Node14&#45;&gt;Node15</title>
<path fill="none" stroke="#63b8ff" d="M297.23,-97C313.3,-97 330.24,-97 345.84,-97"/>
<polygon fill="#63b8ff" stroke="#63b8ff" points="345.88,-100.5 355.88,-97 345.88,-93.5 345.88,-100.5"/>
</g>
<!-- Node22 -->
<g id="node22" class="node">
<title>Node22</title>
<g id="a_node22"><a xlink:href="namespacea60.html#a6070ca9b0aaa2e721d0feacd175f429c" target="_top" xlink:title="Parameterize scaling normalizes on range (nfloor, nceil). nfloor == 2, 48 nceil == 396,...">
<polygon fill="white" stroke="#666666" points="471,-66 343,-66 343,-40 471,-40 471,-66"/>
<text text-anchor="start" x="351" y="-55.6" font-family="SourceSans" font-size="8.00">a60::augment_wgeo_peers</text>
<text text-anchor="middle" x="407" y="-46.6" font-family="SourceSans" font-size="8.00">_location</text>
</a>
</g>
</g>
<!-- Node14&#45;&gt;Node22 -->
<g id="edge27" class="edge">
<title>Node14&#45;&gt;Node22</title>
<path fill="none" stroke="#63b8ff" d="M261.94,-88.41C284.95,-82.75 315.75,-75.18 342.97,-68.49"/>
<polygon fill="#63b8ff" stroke="#63b8ff" points="343.94,-71.86 352.81,-66.07 342.26,-65.06 343.94,-71.86"/>
</g>
<!-- Node16 -->
<g id="node16" class="node">
<title>Node16</title>
<g id="a_node16"><a xlink:href="namespacea60.html#ac997b39099fe8c748ee393875dd23c9e" target="_top" xlink:title=" ">
<polygon fill="white" stroke="#666666" points="651,-96.5 517,-96.5 517,-79.5 651,-79.5 651,-96.5"/>
<text text-anchor="middle" x="584" y="-86.1" font-family="SourceSans" font-size="8.00">a60::augment_peer_location</text>
</a>
</g>
</g>
<!-- Node15&#45;&gt;Node16 -->
<g id="edge21" class="edge">
<title>Node15&#45;&gt;Node16</title>
<path fill="none" stroke="#63b8ff" d="M458.15,-94.42C473.29,-93.64 490.26,-92.77 506.7,-91.92"/>
<polygon fill="#63b8ff" stroke="#63b8ff" points="507.04,-95.41 516.85,-91.4 506.68,-88.42 507.04,-95.41"/>
</g>
<!-- Node17 -->
<g id="node17" class="node">
<title>Node17</title>
<g id="a_node17"><a xlink:href="namespacea60.html#a935512b7346e03fbd98295ec07511666" target="_top" xlink:title=" ">
<polygon fill="white" stroke="#666666" points="810,-96.5 694,-96.5 694,-79.5 810,-79.5 810,-96.5"/>
<text text-anchor="middle" x="752" y="-86.1" font-family="SourceSans" font-size="8.00">a60::augment_peer_text</text>
</a>
</g>
</g>
<!-- Node16&#45;&gt;Node17 -->
<g id="edge22" class="edge">
<title>Node16&#45;&gt;Node17</title>
<path fill="none" stroke="#63b8ff" d="M651.08,-88C661.84,-88 672.99,-88 683.78,-88"/>
<polygon fill="#63b8ff" stroke="#63b8ff" points="683.98,-91.5 693.98,-88 683.98,-84.5 683.98,-91.5"/>
</g>
<!-- Node18 -->
<g id="node18" class="node">
<title>Node18</title>
<g id="a_node18"><a xlink:href="namespacea60.html#a67a216731ae229be675dbcbfa228d865" target="_top" xlink:title=" ">
<polygon fill="white" stroke="#666666" points="802.5,-61.5 701.5,-61.5 701.5,-44.5 802.5,-44.5 802.5,-61.5"/>
<text text-anchor="middle" x="752" y="-51.1" font-family="SourceSans" font-size="8.00">a60::convert_to_utf8</text>
</a>
</g>
</g>
<!-- Node16&#45;&gt;Node18 -->
<g id="edge23" class="edge">
<title>Node16&#45;&gt;Node18</title>
<path fill="none" stroke="#63b8ff" d="M625.61,-79.44C648.2,-74.67 676.52,-68.7 700.53,-63.64"/>
<polygon fill="#63b8ff" stroke="#63b8ff" points="701.46,-67.02 710.52,-61.53 700.02,-60.17 701.46,-67.02"/>
</g>
<!-- Node20 -->
<g id="node20" class="node">
<title>Node20</title>
<g id="a_node20"><a xlink:href="namespacea60.html#a63bf2b0abf68edc3f3e74a0811fe771b" target="_top" xlink:title="Error checking support. Null Island Check (aka latitude and longitude set to zero).">
<polygon fill="white" stroke="#666666" points="805.5,-26 698.5,-26 698.5,0 805.5,0 805.5,-26"/>
<text text-anchor="start" x="706.5" y="-15.6" font-family="SourceSans" font-size="8.00">a60::is_meta_peer_on</text>
<text text-anchor="middle" x="752" y="-6.6" font-family="SourceSans" font-size="8.00">_null_island</text>
</a>
</g>
</g>
<!-- Node16&#45;&gt;Node20 -->
<g id="edge25" class="edge">
<title>Node16&#45;&gt;Node20</title>
<path fill="none" stroke="#63b8ff" d="M628.85,-79.4C636.51,-76.97 644.19,-73.89 651,-70 670.38,-58.94 667.99,-46.69 687,-35 689.75,-33.31 692.65,-31.73 695.64,-30.25"/>
<polygon fill="#63b8ff" stroke="#63b8ff" points="697.09,-33.43 704.77,-26.13 694.22,-27.05 697.09,-33.43"/>
</g>
<!-- Node21 -->
<g id="node21" class="node">
<title>Node21</title>
<g id="a_node21"><a xlink:href="structa60_1_1carto_1_1cartography.html#a57e14cabb4993189316e369a27752a73" target="_top" xlink:title=" ">
<polygon fill="white" stroke="#666666" points="809.5,-141 694.5,-141 694.5,-115 809.5,-115 809.5,-141"/>
<text text-anchor="start" x="702.5" y="-130.6" font-family="SourceSans" font-size="8.00">a60::carto::cartography</text>
<text text-anchor="middle" x="752" y="-121.6" font-family="SourceSans" font-size="8.00">::to_point_2d</text>
</a>
</g>
</g>
<!-- Node16&#45;&gt;Node21 -->
<g id="edge26" class="edge">
<title>Node16&#45;&gt;Node21</title>
<path fill="none" stroke="#63b8ff" d="M620.61,-96.58C639.95,-101.24 664.44,-107.14 686.97,-112.57"/>
<polygon fill="#63b8ff" stroke="#63b8ff" points="686.28,-116 696.82,-114.94 687.91,-109.2 686.28,-116"/>
</g>
<!-- Node19 -->
<g id="node19" class="node">
<title>Node19</title>
<g id="a_node19"><a xlink:href="namespacea60.html#a1c4e23f164dec11b9fee53e2292af224" target="_top" xlink:title="Convert MaxMind GeoIP information from ISO&#45;8859&#45;1 encoding to UTF&#45;8.">
<polygon fill="white" stroke="#666666" points="979,-61.5 853,-61.5 853,-44.5 979,-44.5 979,-61.5"/>
<text text-anchor="middle" x="916" y="-51.1" font-family="SourceSans" font-size="8.00">a60::convert_8859_to_utf8</text>
</a>
</g>
</g>
<!-- Node18&#45;&gt;Node19 -->
<g id="edge24" class="edge">
<title>Node18&#45;&gt;Node19</title>
<path fill="none" stroke="#63b8ff" d="M802.93,-53C815.52,-53 829.3,-53 842.75,-53"/>
<polygon fill="#63b8ff" stroke="#63b8ff" points="842.94,-56.5 852.94,-53 842.94,-49.5 842.94,-56.5"/>
</g>
<!-- Node22&#45;&gt;Node16 -->
<g id="edge28" class="edge">
<title>Node22&#45;&gt;Node16</title>
<path fill="none" stroke="#63b8ff" d="M471.18,-65.64C490.59,-69.52 511.74,-73.75 530.37,-77.47"/>
<polygon fill="#63b8ff" stroke="#63b8ff" points="529.94,-80.96 540.43,-79.49 531.31,-74.09 529.94,-80.96"/>
</g>
<!-- Node23 -->
<g id="node23" class="node">
<title>Node23</title>
<g id="a_node23"><a xlink:href="namespacea60.html#a3ea049ae7ac9af3ba2edcc7f79d62fde" target="_top" xlink:title="Get min, max of weight in weighed peers.">
<polygon fill="white" stroke="#666666" points="640.5,-26.5 527.5,-26.5 527.5,-9.5 640.5,-9.5 640.5,-26.5"/>
<text text-anchor="middle" x="584" y="-16.1" font-family="SourceSans" font-size="8.00">a60::find_weight_range</text>
</a>
</g>
</g>
<!-- Node22&#45;&gt;Node23 -->
<g id="edge29" class="edge">
<title>Node22&#45;&gt;Node23</title>
<path fill="none" stroke="#63b8ff" d="M471.18,-40.36C490.59,-36.48 511.74,-32.25 530.37,-28.53"/>
<polygon fill="#63b8ff" stroke="#63b8ff" points="531.31,-31.91 540.43,-26.51 529.94,-25.04 531.31,-31.91"/>
</g>
<!-- Node24 -->
<g id="node24" class="node">
<title>Node24</title>
<g id="a_node24"><a xlink:href="namespacea60.html#a0d53d95ed1faf99432c1eaaa0d238732" target="_top" xlink:title="Normalize value from (min, max) on (nfloor, nceil)">
<polygon fill="white" stroke="#666666" points="644.5,-61.5 523.5,-61.5 523.5,-44.5 644.5,-44.5 644.5,-61.5"/>
<text text-anchor="middle" x="584" y="-51.1" font-family="SourceSans" font-size="8.00">a60::normalize_on_range</text>
</a>
</g>
</g>
<!-- Node22&#45;&gt;Node24 -->
<g id="edge30" class="edge">
<title>Node22&#45;&gt;Node24</title>
<path fill="none" stroke="#63b8ff" d="M471.18,-53C484.89,-53 499.46,-53 513.4,-53"/>
<polygon fill="#63b8ff" stroke="#63b8ff" points="513.42,-56.5 523.42,-53 513.42,-49.5 513.42,-56.5"/>
</g>
<!-- Node25&#45;&gt;Node10 -->
<g id="edge38" class="edge">
<title>Node25&#45;&gt;Node10</title>
<path fill="none" stroke="#63b8ff" d="M468.72,-175.14C491.11,-179.62 516.1,-184.62 536.99,-188.8"/>
<polygon fill="#63b8ff" stroke="#63b8ff" points="536.39,-192.25 546.88,-190.78 537.76,-185.38 536.39,-192.25"/>
</g>
<!-- Node26 -->
<g id="node26" class="node">
<title>Node26</title>
<g id="a_node26"><a xlink:href="namespacea60.html#a1594609e9578c9bedb5751e6b0674c28" target="_top" xlink:title=" ">
<polygon fill="white" stroke="#666666" points="645,-136.5 523,-136.5 523,-119.5 645,-119.5 645,-136.5"/>
<text text-anchor="middle" x="584" y="-126.1" font-family="SourceSans" font-size="8.00">a60::augment_geo_peers</text>
</a>
</g>
</g>
<!-- Node25&#45;&gt;Node26 -->
<g id="edge32" class="edge">
<title>Node25&#45;&gt;Node26</title>
<path fill="none" stroke="#63b8ff" d="M468.72,-150.86C488.81,-146.84 510.98,-142.4 530.41,-138.52"/>
<polygon fill="#63b8ff" stroke="#63b8ff" points="531.18,-141.93 540.3,-136.54 529.81,-135.07 531.18,-141.93"/>
</g>
<!-- Node28 -->
<g id="node28" class="node">
<title>Node28</title>
<g id="a_node28"><a xlink:href="namespacea60.html#a1e6677c479d89336c9f30a6eae2ff1d8" target="_top" xlink:title=" ">
<polygon fill="white" stroke="#666666" points="648,-171.5 520,-171.5 520,-154.5 648,-154.5 648,-171.5"/>
<text text-anchor="middle" x="584" y="-161.1" font-family="SourceSans" font-size="8.00">a60::augment_wgeo_peers</text>
</a>
</g>
</g>
<!-- Node25&#45;&gt;Node28 -->
<g id="edge35" class="edge">
<title>Node25&#45;&gt;Node28</title>
<path fill="none" stroke="#63b8ff" d="M468.72,-163C481.85,-163 495.88,-163 509.45,-163"/>
<polygon fill="#63b8ff" stroke="#63b8ff" points="509.72,-166.5 519.72,-163 509.72,-159.5 509.72,-166.5"/>
</g>
<!-- Node26&#45;&gt;Node21 -->
<g id="edge34" class="edge">
<title>Node26&#45;&gt;Node21</title>
<path fill="none" stroke="#63b8ff" d="M645.4,-128C657.98,-128 671.31,-128 684.11,-128"/>
<polygon fill="#63b8ff" stroke="#63b8ff" points="684.24,-131.5 694.24,-128 684.24,-124.5 684.24,-131.5"/>
</g>
<!-- Node27 -->
<g id="node27" class="node">
<title>Node27</title>
<g id="a_node27"><a xlink:href="namespacea60_1_1geo.html#ac883e224021a4d5d0ac4c2d307f4808a" target="_top" xlink:title="Error checking for common anomalies.">
<polygon fill="white" stroke="#666666" points="802,-185 702,-185 702,-159 802,-159 802,-185"/>
<text text-anchor="start" x="710" y="-174.6" font-family="SourceSans" font-size="8.00">a60::geo::is_on_null</text>
<text text-anchor="middle" x="752" y="-165.6" font-family="SourceSans" font-size="8.00">_island</text>
</a>
</g>
</g>
<!-- Node26&#45;&gt;Node27 -->
<g id="edge33" class="edge">
<title>Node26&#45;&gt;Node27</title>
<path fill="none" stroke="#63b8ff" d="M618.6,-136.57C628.99,-139.25 640.47,-142.22 651,-145 664.71,-148.62 679.47,-152.57 693.32,-156.3"/>
<polygon fill="#63b8ff" stroke="#63b8ff" points="692.65,-159.75 703.22,-158.98 694.48,-152.99 692.65,-159.75"/>
</g>
<!-- Node28&#45;&gt;Node21 -->
<g id="edge37" class="edge">
<title>Node28&#45;&gt;Node21</title>
<path fill="none" stroke="#63b8ff" d="M625.61,-154.44C643.26,-150.72 664.41,-146.26 684.27,-142.07"/>
<polygon fill="#63b8ff" stroke="#63b8ff" points="685.14,-145.46 694.2,-139.98 683.7,-138.61 685.14,-145.46"/>
</g>
<!-- Node28&#45;&gt;Node27 -->
<g id="edge36" class="edge">
<title>Node28&#45;&gt;Node27</title>
<path fill="none" stroke="#63b8ff" d="M648.23,-166.43C662.53,-167.2 677.67,-168.02 691.8,-168.79"/>
<polygon fill="#63b8ff" stroke="#63b8ff" points="691.71,-172.29 701.88,-169.34 692.09,-165.3 691.71,-172.29"/>
</g>
</g>
</svg>
        <g id="navigator" transform="translate(0 0)" fill="#404254">
                <rect fill="#f2f5e9" fill-opacity="0.5" stroke="#606060" stroke-width=".5" x="0" y="0" width="60" height="60"/>
                <use id="zoomplus" xlink:href="#zoomPlus" x="17" y="9" onmousedown="handleZoom(evt,'in')"/>
                <use id="zoomminus" xlink:href="#zoomMin" x="42" y="9" onmousedown="handleZoom(evt,'out')"/>
                <use id="reset" xlink:href="#resetDef" x="30" y="36" onmousedown="handleReset()"/>
                <g id="arrowUp" xlink:href="#dirArrow" transform="translate(30 24)" onmousedown="handlePan(0,-1)">
                  <use xlink:href="#rim" fill="#404040">
                        <set attributeName="fill" to="#808080" begin="arrowUp.mouseover" end="arrowUp.mouseout"/>
                  </use>
                  <path fill="none" stroke="white" stroke-width="1.5" d="M0,-3.0v7 M-2.5,-0.5L0,-3.0L2.5,-0.5"/>
                </g>
                <g id="arrowRight" xlink:href="#dirArrow" transform="rotate(90) translate(36 -43)" onmousedown="handlePan(1,0)">
                  <use xlink:href="#rim" fill="#404040">
                        <set attributeName="fill" to="#808080" begin="arrowRight.mouseover" end="arrowRight.mouseout"/>
                  </use>
                  <path fill="none" stroke="white" stroke-width="1.5" d="M0,-3.0v7 M-2.5,-0.5L0,-3.0L2.5,-0.5"/>
                </g>
                <g id="arrowDown" xlink:href="#dirArrow" transform="rotate(180) translate(-30 -48)" onmousedown="handlePan(0,1)">
                  <use xlink:href="#rim" fill="#404040">
                        <set attributeName="fill" to="#808080" begin="arrowDown.mouseover" end="arrowDown.mouseout"/>
                  </use>
                  <path fill="none" stroke="white" stroke-width="1.5" d="M0,-3.0v7 M-2.5,-0.5L0,-3.0L2.5,-0.5"/>
                </g>
                <g id="arrowLeft" xlink:href="#dirArrow" transform="rotate(270) translate(-36 17)" onmousedown="handlePan(-1,0)">
                  <use xlink:href="#rim" fill="#404040">
                        <set attributeName="fill" to="#808080" begin="arrowLeft.mouseover" end="arrowLeft.mouseout"/>
                  </use>
                  <path fill="none" stroke="white" stroke-width="1.5" d="M0,-3.0v7 M-2.5,-0.5L0,-3.0L2.5,-0.5"/>
                </g>
        </g>
        <svg viewBox="0 0 15 15" width="100%" height="30px" preserveAspectRatio="xMaxYMin meet">
         <g id="arrow_out" transform="scale(0.3 0.3)">
          <a xlink:href="namespacea60_ae616f321d092417a94a30571055077a3_cgraph_org.svg" target="_base">
           <rect id="button" ry="5" rx="5" y="6" x="6" height="38" width="38"
                fill="#f2f5e9" fill-opacity="0.5" stroke="#606060" stroke-width="1.0"/>
           <path id="arrow"
             d="M 11.500037,31.436501 C 11.940474,20.09759 22.043105,11.32322 32.158766,21.979434 L 37.068811,17.246167 C 37.068811,17.246167 37.088388,32 37.088388,32 L 22.160133,31.978069 C 22.160133,31.978069 26.997745,27.140456 26.997745,27.140456 C 18.528582,18.264221 13.291696,25.230495 11.500037,31.436501 z"
             style="fill:#404040;"/>
          </a>
         </g>
        </svg>
</svg>
