<?xml version="1.0" encoding="UTF-8" standalone="no"?>
<!DOCTYPE svg PUBLIC "-//W3C//DTD SVG 1.1//EN"
 "http://www.w3.org/Graphics/SVG/1.1/DTD/svg11.dtd">
<!-- Generated by graphviz version 5.0.0 (0)
 -->
<!-- Title: a60::make_torrent_handle Pages: 1 -->
<!--zoomable 280 -->
<svg id="main" version="1.1" xmlns="http://www.w3.org/2000/svg" xmlns:xlink="http://www.w3.org/1999/xlink" xml:space="preserve" onload="init(evt)">
<style type="text/css"><![CDATA[
.edge:hover path { stroke: red; }
.edge:hover polygon { stroke: red; fill: red; }
]]></style>
<script type="text/javascript"><![CDATA[
var edges = document.getElementsByTagName('g');
if (edges && edges.length) {
  for (var i=0;i<edges.length;i++) {
    if (edges[i].id.substr(0,4)=='edge') {
      edges[i].setAttribute('class','edge');
    }
  }
}
]]></script>
        <defs>
                <circle id="rim" cx="0" cy="0" r="7"/>
                <circle id="rim2" cx="0" cy="0" r="3.5"/>
                <g id="zoomPlus">
                        <use xlink:href="#rim" fill="#404040">
                                <set attributeName="fill" to="#808080" begin="zoomplus.mouseover" end="zoomplus.mouseout"/>
                        </use>
                        <path d="M-4,0h8M0,-4v8" fill="none" stroke="white" stroke-width="1.5" pointer-events="none"/>
                </g>
                <g id="zoomMin">
                        <use xlink:href="#rim" fill="#404040">
                                <set attributeName="fill" to="#808080" begin="zoomminus.mouseover" end="zoomminus.mouseout"/>
                        </use>
                        <path d="M-4,0h8" fill="none" stroke="white" stroke-width="1.5" pointer-events="none"/>
                </g>
                <g id="dirArrow">
                        <path fill="none" stroke="white" stroke-width="1.5" d="M0,-3.0v7 M-2.5,-0.5L0,-3.0L2.5,-0.5"/>
                </g>
               <g id="resetDef">
                       <use xlink:href="#rim2" fill="#404040">
                               <set attributeName="fill" to="#808080" begin="reset.mouseover" end="reset.mouseout"/>
                       </use>
               </g>
        </defs>

<script type="text/javascript">
var viewWidth = 734;
var viewHeight = 280;
var sectionId = 'dynsection-149';
</script>
<script xlink:href="svgpan.js"/>
<svg id="graph" class="graph">
<g id="viewport">
<title>a60::make_torrent_handle</title>
<!-- Node1 -->
<g id="node1" class="node">
<title>Node1</title>
<g id="a_node1"><a xlink:title="Given session and torrent file, add torrent to session.">
<polygon fill="#999999" stroke="#666666" points="123,-105.5 0,-105.5 0,-88.5 123,-88.5 123,-105.5"/>
<text text-anchor="middle" x="61.5" y="-95.1" font-family="SourceSans" font-size="8.00">a60::make_torrent_handle</text>
</a>
</g>
</g>
<!-- Node2 -->
<g id="node2" class="node">
<title>Node2</title>
<g id="a_node2"><a xlink:href="namespacea60.html#a36ea22d12ecf44568213ff453ad1da2c" target="_top" xlink:title="Print info about torrent_info.">
<polygon fill="white" stroke="#666666" points="277,-171.5 159,-171.5 159,-154.5 277,-154.5 277,-171.5"/>
<text text-anchor="middle" x="218" y="-161.1" font-family="SourceSans" font-size="8.00">a60::display_torrent_info</text>
</a>
</g>
</g>
<!-- Node1&#45;&gt;Node2 -->
<g id="edge1" class="edge">
<title>Node1&#45;&gt;Node2</title>
<path fill="none" stroke="#63b8ff" d="M82.7,-105.63C109.42,-117.04 156.71,-137.24 187.45,-150.37"/>
<polygon fill="#63b8ff" stroke="#63b8ff" points="186.23,-153.66 196.8,-154.37 188.98,-147.22 186.23,-153.66"/>
</g>
<!-- Node15 -->
<g id="node15" class="node">
<title>Node15</title>
<g id="a_node15"><a xlink:href="namespacea60_1_1io.html#a89f2bd581ec510ccc0a8cfedccff7bd0" target="_top" xlink:title="Top level of directory for output files.">
<polygon fill="white" stroke="#666666" points="266,-67 170,-67 170,-41 266,-41 266,-67"/>
<text text-anchor="start" x="178" y="-56.6" font-family="SourceSans" font-size="8.00">a60::io::get_output</text>
<text text-anchor="middle" x="218" y="-47.6" font-family="SourceSans" font-size="8.00">_directory</text>
</a>
</g>
</g>
<!-- Node1&#45;&gt;Node15 -->
<g id="edge18" class="edge">
<title>Node1&#45;&gt;Node15</title>
<path fill="none" stroke="#63b8ff" d="M93.39,-88.4C112.49,-83.09 137.6,-76.1 160.18,-69.81"/>
<polygon fill="#63b8ff" stroke="#63b8ff" points="161.32,-73.13 170.02,-67.08 159.45,-66.38 161.32,-73.13"/>
</g>
<!-- Node3 -->
<g id="node3" class="node">
<title>Node3</title>
<g id="a_node3"><a xlink:href="namespacea60_1_1geo.html#a2ec44da723ee6128696872f94d989c7f" target="_top" xlink:title="Address to IP/Geo.">
<polygon fill="white" stroke="#666666" points="415.5,-154 314.5,-154 314.5,-128 415.5,-128 415.5,-154"/>
<text text-anchor="start" x="322.5" y="-143.6" font-family="SourceSans" font-size="8.00">a60::geo::display_ip</text>
<text text-anchor="middle" x="365" y="-134.6" font-family="SourceSans" font-size="8.00">_and_geo_info</text>
</a>
</g>
</g>
<!-- Node2&#45;&gt;Node3 -->
<g id="edge2" class="edge">
<title>Node2&#45;&gt;Node3</title>
<path fill="none" stroke="#63b8ff" d="M275.06,-154.49C284.64,-153.04 294.63,-151.53 304.3,-150.06"/>
<polygon fill="#63b8ff" stroke="#63b8ff" points="304.88,-153.51 314.24,-148.55 303.83,-146.59 304.88,-153.51"/>
</g>
<!-- Node12 -->
<g id="node12" class="node">
<title>Node12</title>
<g id="a_node12"><a xlink:href="namespacea60.html#aafdf18ade22a9e669299209ed5a8bdc6" target="_top" xlink:title="Once.">
<polygon fill="white" stroke="#666666" points="417,-261.5 313,-261.5 313,-244.5 417,-244.5 417,-261.5"/>
<text text-anchor="middle" x="365" y="-251.1" font-family="SourceSans" font-size="8.00">a60::host_ip_address</text>
</a>
</g>
</g>
<!-- Node2&#45;&gt;Node12 -->
<g id="edge14" class="edge">
<title>Node2&#45;&gt;Node12</title>
<path fill="none" stroke="#63b8ff" d="M231.26,-171.55C249.02,-183.82 283.03,-206.93 313,-225 321.17,-229.93 330.25,-235.03 338.47,-239.51"/>
<polygon fill="#63b8ff" stroke="#63b8ff" points="336.81,-242.59 347.27,-244.26 340.13,-236.43 336.81,-242.59"/>
</g>
<!-- Node14 -->
<g id="node14" class="node">
<title>Node14</title>
<g id="a_node14"><a xlink:href="namespacea60.html#a9f2c8dc1d45c663c1017a1b7b651588d" target="_top" xlink:title="ISO date time stamp as default.">
<polygon fill="white" stroke="#666666" points="412.5,-198 317.5,-198 317.5,-172 412.5,-172 412.5,-198"/>
<text text-anchor="start" x="325.5" y="-187.6" font-family="SourceSans" font-size="8.00">a60::time_point_as</text>
<text text-anchor="middle" x="365" y="-178.6" font-family="SourceSans" font-size="8.00">_string</text>
</a>
</g>
</g>
<!-- Node2&#45;&gt;Node14 -->
<g id="edge16" class="edge">
<title>Node2&#45;&gt;Node14</title>
<path fill="none" stroke="#63b8ff" d="M275.06,-171.51C285.69,-173.12 296.82,-174.81 307.46,-176.42"/>
<polygon fill="#63b8ff" stroke="#63b8ff" points="307.07,-179.9 317.49,-177.94 308.12,-172.98 307.07,-179.9"/>
</g>
<!-- Node4 -->
<g id="node4" class="node">
<title>Node4</title>
<g id="a_node4"><a xlink:href="structa60_1_1geo_1_1country__map.html#a96a87722e7988878c37210a8bb208624" target="_top" xlink:title=" ">
<polygon fill="white" stroke="#666666" points="573.5,-154 453.5,-154 453.5,-128 573.5,-128 573.5,-154"/>
<text text-anchor="start" x="461.5" y="-143.6" font-family="SourceSans" font-size="8.00">a60::geo::country_map</text>
<text text-anchor="middle" x="513.5" y="-134.6" font-family="SourceSans" font-size="8.00">::country_code_via_string</text>
</a>
</g>
</g>
<!-- Node3&#45;&gt;Node4 -->
<g id="edge3" class="edge">
<title>Node3&#45;&gt;Node4</title>
<path fill="none" stroke="#63b8ff" d="M415.6,-141C424.5,-141 433.92,-141 443.26,-141"/>
<polygon fill="#63b8ff" stroke="#63b8ff" points="443.32,-144.5 453.32,-141 443.32,-137.5 443.32,-144.5"/>
</g>
<!-- Node6 -->
<g id="node6" class="node">
<title>Node6</title>
<g id="a_node6"><a xlink:href="namespacea60_1_1geo.html#a7d8058b0d2e8d5f5c90dfe2cab6fc462" target="_top" xlink:title=" ">
<polygon fill="white" stroke="#666666" points="726,-190.5 610,-190.5 610,-173.5 726,-173.5 726,-190.5"/>
<text text-anchor="middle" x="668" y="-180.1" font-family="SourceSans" font-size="8.00">a60::geo::safe_if_empty</text>
</a>
</g>
</g>
<!-- Node3&#45;&gt;Node6 -->
<g id="edge13" class="edge">
<title>Node3&#45;&gt;Node6</title>
<path fill="none" stroke="#63b8ff" d="M411.76,-154.02C424.98,-157.39 439.48,-160.71 453,-163 501.75,-171.27 557.4,-176.07 599.73,-178.78"/>
<polygon fill="#63b8ff" stroke="#63b8ff" points="599.72,-182.28 609.91,-179.41 600.15,-175.3 599.72,-182.28"/>
</g>
<!-- Node8 -->
<g id="node8" class="node">
<title>Node8</title>
<g id="a_node8"><a xlink:href="structa60_1_1geo_1_1city__map_1_1record.html#a7b30bf979e46ddb75bc274871e4ab367" target="_top" xlink:title=" ">
<polygon fill="white" stroke="#666666" points="571,-110 456,-110 456,-84 571,-84 571,-110"/>
<text text-anchor="start" x="464" y="-99.6" font-family="SourceSans" font-size="8.00">a60::geo::city_map</text>
<text text-anchor="middle" x="513.5" y="-90.6" font-family="SourceSans" font-size="8.00">::record::is_record_open</text>
</a>
</g>
</g>
<!-- Node3&#45;&gt;Node8 -->
<g id="edge8" class="edge">
<title>Node3&#45;&gt;Node8</title>
<path fill="none" stroke="#63b8ff" d="M409.56,-127.92C425.13,-123.24 442.87,-117.91 459.17,-113.02"/>
<polygon fill="#63b8ff" stroke="#63b8ff" points="460.54,-116.26 469.11,-110.03 458.53,-109.56 460.54,-116.26"/>
</g>
<!-- Node9 -->
<g id="node9" class="node">
<title>Node9</title>
<g id="a_node9"><a xlink:href="structa60_1_1geo_1_1map__base.html#a9215731f10e2fa8488b0e081c2a5cef4" target="_top" xlink:title=" ">
<polygon fill="white" stroke="#666666" points="564.5,-236 462.5,-236 462.5,-210 564.5,-210 564.5,-236"/>
<text text-anchor="start" x="470.5" y="-225.6" font-family="SourceSans" font-size="8.00">a60::geo::map_base</text>
<text text-anchor="middle" x="513.5" y="-216.6" font-family="SourceSans" font-size="8.00">::open</text>
</a>
</g>
</g>
<!-- Node3&#45;&gt;Node9 -->
<g id="edge9" class="edge">
<title>Node3&#45;&gt;Node9</title>
<path fill="none" stroke="#63b8ff" d="M400.56,-154.03C406.22,-156.69 411.9,-159.7 417,-163 435.22,-174.8 434.89,-184.03 453,-196 458.22,-199.45 463.95,-202.66 469.72,-205.58"/>
<polygon fill="#63b8ff" stroke="#63b8ff" points="468.25,-208.76 478.78,-209.93 471.28,-202.45 468.25,-208.76"/>
</g>
<!-- Node11 -->
<g id="node11" class="node">
<title>Node11</title>
<g id="a_node11"><a xlink:href="structa60_1_1geo_1_1city__map.html#a8edb2011397d2166076b33f5187afe18" target="_top" xlink:title=" ">
<polygon fill="white" stroke="#666666" points="561.5,-66 465.5,-66 465.5,-40 561.5,-40 561.5,-66"/>
<text text-anchor="start" x="473.5" y="-55.6" font-family="SourceSans" font-size="8.00">a60::geo::city_map</text>
<text text-anchor="middle" x="513.5" y="-46.6" font-family="SourceSans" font-size="8.00">::open_record</text>
</a>
</g>
</g>
<!-- Node3&#45;&gt;Node11 -->
<g id="edge11" class="edge">
<title>Node3&#45;&gt;Node11</title>
<path fill="none" stroke="#63b8ff" d="M380.47,-127.87C397.02,-113.39 425.41,-90.13 453,-75 456.09,-73.31 459.33,-71.69 462.64,-70.17"/>
<polygon fill="#63b8ff" stroke="#63b8ff" points="464.29,-73.27 472.09,-66.1 461.53,-66.84 464.29,-73.27"/>
</g>
<!-- Node5 -->
<g id="node5" class="node">
<title>Node5</title>
<g id="a_node5"><a xlink:href="structa60_1_1geo_1_1map__base.html#ae86685f27b25cdaead9c94752618b2e4" target="_top" xlink:title=" ">
<polygon fill="white" stroke="#666666" points="719,-84 617,-84 617,-58 719,-58 719,-84"/>
<text text-anchor="start" x="625" y="-73.6" font-family="SourceSans" font-size="8.00">a60::geo::map_base</text>
<text text-anchor="middle" x="668" y="-64.6" font-family="SourceSans" font-size="8.00">::is_map_open</text>
</a>
</g>
</g>
<!-- Node4&#45;&gt;Node5 -->
<g id="edge4" class="edge">
<title>Node4&#45;&gt;Node5</title>
<path fill="none" stroke="#63b8ff" d="M551.92,-127.96C559.3,-125.16 566.95,-122.11 574,-119 594.48,-109.97 616.78,-98.51 634.42,-89.06"/>
<polygon fill="#63b8ff" stroke="#63b8ff" points="636.56,-91.88 643.69,-84.04 633.23,-85.72 636.56,-91.88"/>
</g>
<!-- Node4&#45;&gt;Node6 -->
<g id="edge5" class="edge">
<title>Node4&#45;&gt;Node6</title>
<path fill="none" stroke="#63b8ff" d="M563.17,-154.09C583.21,-159.47 606.19,-165.65 625.43,-170.82"/>
<polygon fill="#63b8ff" stroke="#63b8ff" points="624.55,-174.21 635.11,-173.43 626.37,-167.45 624.55,-174.21"/>
</g>
<!-- Node7 -->
<g id="node7" class="node">
<title>Node7</title>
<g id="a_node7"><a xlink:href="namespacea60_1_1constants.html#a01d9786063fb572d9389b0cd207bbe53" target="_top" xlink:title=" ">
<polygon fill="white" stroke="#666666" points="717,-137.5 619,-137.5 619,-120.5 717,-120.5 717,-137.5"/>
<text text-anchor="middle" x="668" y="-127.1" font-family="SourceSans" font-size="8.00">a60::constants::tab</text>
</a>
</g>
</g>
<!-- Node4&#45;&gt;Node7 -->
<g id="edge6" class="edge">
<title>Node4&#45;&gt;Node7</title>
<path fill="none" stroke="#63b8ff" d="M573.9,-136.33C585.29,-135.43 597.22,-134.49 608.59,-133.6"/>
<polygon fill="#63b8ff" stroke="#63b8ff" points="609.14,-137.06 618.84,-132.79 608.59,-130.09 609.14,-137.06"/>
</g>
<!-- Node7&#45;&gt;Node7 -->
<g id="edge7" class="edge">
<title>Node7&#45;&gt;Node7</title>
<path fill="none" stroke="#63b8ff" d="M645.05,-137.69C632.38,-146.17 640.03,-155.5 668,-155.5 686.79,-155.5 696.41,-151.29 696.86,-145.95"/>
<polygon fill="#63b8ff" stroke="#63b8ff" points="699.61,-143.78 690.95,-137.69 693.92,-147.86 699.61,-143.78"/>
</g>
<!-- Node10 -->
<g id="node10" class="node">
<title>Node10</title>
<g id="a_node10"><a xlink:href="namespacea60_1_1io.html#aa5fbb8ab63397dd45c4a54c0758935ef" target="_top" xlink:title="Sanity check input existence.">
<polygon fill="white" stroke="#666666" points="720,-236 616,-236 616,-210 720,-210 720,-236"/>
<text text-anchor="start" x="624" y="-225.6" font-family="SourceSans" font-size="8.00">a60::io::sanity_check</text>
<text text-anchor="middle" x="668" y="-216.6" font-family="SourceSans" font-size="8.00">_input</text>
</a>
</g>
</g>
<!-- Node9&#45;&gt;Node10 -->
<g id="edge10" class="edge">
<title>Node9&#45;&gt;Node10</title>
<path fill="none" stroke="#63b8ff" d="M564.86,-223C577.92,-223 592.14,-223 605.7,-223"/>
<polygon fill="#63b8ff" stroke="#63b8ff" points="605.91,-226.5 615.91,-223 605.91,-219.5 605.91,-226.5"/>
</g>
<!-- Node11&#45;&gt;Node5 -->
<g id="edge12" class="edge">
<title>Node11&#45;&gt;Node5</title>
<path fill="none" stroke="#63b8ff" d="M561.92,-58.6C576.12,-60.27 591.9,-62.14 606.81,-63.9"/>
<polygon fill="#63b8ff" stroke="#63b8ff" points="606.63,-67.4 616.97,-65.1 607.45,-60.45 606.63,-67.4"/>
</g>
<!-- Node13 -->
<g id="node13" class="node">
<title>Node13</title>
<g id="a_node13"><a xlink:href="namespacea60.html#ac912026493721c2646a3336faffe1baa" target="_top" xlink:title="Test machine&#39;s address.">
<polygon fill="white" stroke="#666666" points="574,-271.5 453,-271.5 453,-254.5 574,-254.5 574,-271.5"/>
<text text-anchor="middle" x="513.5" y="-261.1" font-family="SourceSans" font-size="8.00">a60::get_host_ip_address</text>
</a>
</g>
</g>
<!-- Node12&#45;&gt;Node13 -->
<g id="edge15" class="edge">
<title>Node12&#45;&gt;Node13</title>
<path fill="none" stroke="#63b8ff" d="M417.24,-256.5C425.48,-257.06 434.14,-257.65 442.73,-258.24"/>
<polygon fill="#63b8ff" stroke="#63b8ff" points="442.54,-261.73 452.75,-258.92 443.01,-254.75 442.54,-261.73"/>
</g>
<!-- Node14&#45;&gt;Node14 -->
<g id="edge17" class="edge">
<title>Node14&#45;&gt;Node14</title>
<path fill="none" stroke="#63b8ff" d="M340.3,-198.06C332.81,-207.1 341.05,-216 365,-216 379.6,-216 388.36,-212.69 391.28,-208.07"/>
<polygon fill="#63b8ff" stroke="#63b8ff" points="394.71,-207.39 389.7,-198.06 387.8,-208.48 394.71,-207.39"/>
</g>
<!-- Node16 -->
<g id="node16" class="node">
<title>Node16</title>
<g id="a_node16"><a xlink:href="namespacea60_1_1io.html#a16f17ea9e02c1975ca17b77e46cf7629" target="_top" xlink:title="Make sure a path ends in &#39;/&#39;;.">
<polygon fill="white" stroke="#666666" points="558.5,-21.5 468.5,-21.5 468.5,-4.5 558.5,-4.5 558.5,-21.5"/>
<text text-anchor="middle" x="513.5" y="-11.1" font-family="SourceSans" font-size="8.00">a60::io::end_path</text>
</a>
</g>
</g>
<!-- Node15&#45;&gt;Node16 -->
<g id="edge19" class="edge">
<title>Node15&#45;&gt;Node16</title>
<path fill="none" stroke="#63b8ff" d="M266.03,-51.23C306.29,-48.44 365.7,-43.33 417,-35 434.52,-32.15 453.63,-27.97 470.11,-24.02"/>
<polygon fill="#63b8ff" stroke="#63b8ff" points="471.12,-27.37 480,-21.6 469.46,-20.58 471.12,-27.37"/>
</g>
<!-- Node17 -->
<g id="node17" class="node">
<title>Node17</title>
<g id="a_node17"><a xlink:href="namespacea60_1_1io.html#a6ad052ef18cfb1a1ac708f7c69c9050d" target="_top" xlink:title="Assumes argument is full path, no error checking...">
<polygon fill="white" stroke="#666666" points="413,-26 317,-26 317,0 413,0 413,-26"/>
<text text-anchor="start" x="325" y="-15.6" font-family="SourceSans" font-size="8.00">a60::io::get_output</text>
<text text-anchor="middle" x="365" y="-6.6" font-family="SourceSans" font-size="8.00">_prefix</text>
</a>
</g>
</g>
<!-- Node15&#45;&gt;Node17 -->
<g id="edge20" class="edge">
<title>Node15&#45;&gt;Node17</title>
<path fill="none" stroke="#63b8ff" d="M265.28,-40.91C278.75,-37.11 293.62,-32.9 307.64,-28.94"/>
<polygon fill="#63b8ff" stroke="#63b8ff" points="308.99,-32.19 317.66,-26.1 307.09,-25.45 308.99,-32.19"/>
</g>
<!-- Node17&#45;&gt;Node16 -->
<g id="edge21" class="edge">
<title>Node17&#45;&gt;Node16</title>
<path fill="none" stroke="#63b8ff" d="M413.16,-13C427.57,-13 443.52,-13 458.36,-13"/>
<polygon fill="#63b8ff" stroke="#63b8ff" points="458.41,-16.5 468.41,-13 458.41,-9.5 458.41,-16.5"/>
</g>
</g>
</svg>
        <g id="navigator" transform="translate(0 0)" fill="#404254">
                <rect fill="#f2f5e9" fill-opacity="0.5" stroke="#606060" stroke-width=".5" x="0" y="0" width="60" height="60"/>
                <use id="zoomplus" xlink:href="#zoomPlus" x="17" y="9" onmousedown="handleZoom(evt,'in')"/>
                <use id="zoomminus" xlink:href="#zoomMin" x="42" y="9" onmousedown="handleZoom(evt,'out')"/>
                <use id="reset" xlink:href="#resetDef" x="30" y="36" onmousedown="handleReset()"/>
                <g id="arrowUp" xlink:href="#dirArrow" transform="translate(30 24)" onmousedown="handlePan(0,-1)">
                  <use xlink:href="#rim" fill="#404040">
                        <set attributeName="fill" to="#808080" begin="arrowUp.mouseover" end="arrowUp.mouseout"/>
                  </use>
                  <path fill="none" stroke="white" stroke-width="1.5" d="M0,-3.0v7 M-2.5,-0.5L0,-3.0L2.5,-0.5"/>
                </g>
                <g id="arrowRight" xlink:href="#dirArrow" transform="rotate(90) translate(36 -43)" onmousedown="handlePan(1,0)">
                  <use xlink:href="#rim" fill="#404040">
                        <set attributeName="fill" to="#808080" begin="arrowRight.mouseover" end="arrowRight.mouseout"/>
                  </use>
                  <path fill="none" stroke="white" stroke-width="1.5" d="M0,-3.0v7 M-2.5,-0.5L0,-3.0L2.5,-0.5"/>
                </g>
                <g id="arrowDown" xlink:href="#dirArrow" transform="rotate(180) translate(-30 -48)" onmousedown="handlePan(0,1)">
                  <use xlink:href="#rim" fill="#404040">
                        <set attributeName="fill" to="#808080" begin="arrowDown.mouseover" end="arrowDown.mouseout"/>
                  </use>
                  <path fill="none" stroke="white" stroke-width="1.5" d="M0,-3.0v7 M-2.5,-0.5L0,-3.0L2.5,-0.5"/>
                </g>
                <g id="arrowLeft" xlink:href="#dirArrow" transform="rotate(270) translate(-36 17)" onmousedown="handlePan(-1,0)">
                  <use xlink:href="#rim" fill="#404040">
                        <set attributeName="fill" to="#808080" begin="arrowLeft.mouseover" end="arrowLeft.mouseout"/>
                  </use>
                  <path fill="none" stroke="white" stroke-width="1.5" d="M0,-3.0v7 M-2.5,-0.5L0,-3.0L2.5,-0.5"/>
                </g>
        </g>
        <svg viewBox="0 0 15 15" width="100%" height="30px" preserveAspectRatio="xMaxYMin meet">
         <g id="arrow_out" transform="scale(0.3 0.3)">
          <a xlink:href="namespacea60_a0024ebebf4beab70240ed62e88733a5e_cgraph_org.svg" target="_base">
           <rect id="button" ry="5" rx="5" y="6" x="6" height="38" width="38"
                fill="#f2f5e9" fill-opacity="0.5" stroke="#606060" stroke-width="1.0"/>
           <path id="arrow"
             d="M 11.500037,31.436501 C 11.940474,20.09759 22.043105,11.32322 32.158766,21.979434 L 37.068811,17.246167 C 37.068811,17.246167 37.088388,32 37.088388,32 L 22.160133,31.978069 C 22.160133,31.978069 26.997745,27.140456 26.997745,27.140456 C 18.528582,18.264221 13.291696,25.230495 11.500037,31.436501 z"
             style="fill:#404040;"/>
          </a>
         </g>
        </svg>
</svg>
