<?xml version="1.0" encoding="UTF-8" standalone="no"?>
<!DOCTYPE svg PUBLIC "-//W3C//DTD SVG 1.1//EN"
 "http://www.w3.org/Graphics/SVG/1.1/DTD/svg11.dtd">
<!-- Generated by graphviz version 5.0.0 (0)
 -->
<!-- Title: a60::metadata::render_ids_ages Pages: 1 -->
<!--zoomable 432 -->
<svg id="main" version="1.1" xmlns="http://www.w3.org/2000/svg" xmlns:xlink="http://www.w3.org/1999/xlink" xml:space="preserve" onload="init(evt)">
<style type="text/css"><![CDATA[
.edge:hover path { stroke: red; }
.edge:hover polygon { stroke: red; fill: red; }
]]></style>
<script type="text/javascript"><![CDATA[
var edges = document.getElementsByTagName('g');
if (edges && edges.length) {
  for (var i=0;i<edges.length;i++) {
    if (edges[i].id.substr(0,4)=='edge') {
      edges[i].setAttribute('class','edge');
    }
  }
}
]]></script>
        <defs>
                <circle id="rim" cx="0" cy="0" r="7"/>
                <circle id="rim2" cx="0" cy="0" r="3.5"/>
                <g id="zoomPlus">
                        <use xlink:href="#rim" fill="#404040">
                                <set attributeName="fill" to="#808080" begin="zoomplus.mouseover" end="zoomplus.mouseout"/>
                        </use>
                        <path d="M-4,0h8M0,-4v8" fill="none" stroke="white" stroke-width="1.5" pointer-events="none"/>
                </g>
                <g id="zoomMin">
                        <use xlink:href="#rim" fill="#404040">
                                <set attributeName="fill" to="#808080" begin="zoomminus.mouseover" end="zoomminus.mouseout"/>
                        </use>
                        <path d="M-4,0h8" fill="none" stroke="white" stroke-width="1.5" pointer-events="none"/>
                </g>
                <g id="dirArrow">
                        <path fill="none" stroke="white" stroke-width="1.5" d="M0,-3.0v7 M-2.5,-0.5L0,-3.0L2.5,-0.5"/>
                </g>
               <g id="resetDef">
                       <use xlink:href="#rim2" fill="#404040">
                               <set attributeName="fill" to="#808080" begin="reset.mouseover" end="reset.mouseout"/>
                       </use>
               </g>
        </defs>

<script type="text/javascript">
var viewWidth = 567;
var viewHeight = 432;
var sectionId = 'dynsection-54';
</script>
<script xlink:href="svgpan.js"/>
<svg id="graph" class="graph">
<g id="viewport">
<title>a60::metadata::render_ids_ages</title>
<!-- Node1 -->
<g id="node1" class="node">
<title>Node1</title>
<g id="a_node1"><a xlink:title="Entry point specialized for age dimension for aggregate.">
<polygon fill="#999999" stroke="#666666" points="110,-155 0,-155 0,-129 110,-129 110,-155"/>
<text text-anchor="start" x="8" y="-144.6" font-family="SourceSans" font-size="8.00">a60::metadata::render</text>
<text text-anchor="middle" x="55" y="-135.6" font-family="SourceSans" font-size="8.00">_ids_ages</text>
</a>
</g>
</g>
<!-- Node2 -->
<g id="node2" class="node">
<title>Node2</title>
<g id="a_node2"><a xlink:href="namespacea60_1_1metadata.html#a87bb50bc273e4021f9b9375a7384964f" target="_top" xlink:title="Find the center points of horizontal (left and right) diptych circles.">
<polygon fill="white" stroke="#666666" points="260,-380 146,-380 146,-354 260,-354 260,-380"/>
<text text-anchor="start" x="154" y="-369.6" font-family="SourceSans" font-size="8.00">a60::metadata::diptych</text>
<text text-anchor="middle" x="203" y="-360.6" font-family="SourceSans" font-size="8.00">_xdipoles</text>
</a>
</g>
</g>
<!-- Node1&#45;&gt;Node2 -->
<g id="edge1" class="edge">
<title>Node1&#45;&gt;Node2</title>
<path fill="none" stroke="#63b8ff" d="M61.75,-155.07C74.69,-183.85 108,-254.35 146,-307 156.16,-321.08 169.34,-335.35 180.36,-346.44"/>
<polygon fill="#63b8ff" stroke="#63b8ff" points="178.01,-349.04 187.58,-353.57 182.92,-344.06 178.01,-349.04"/>
</g>
<!-- Node6 -->
<g id="node6" class="node">
<title>Node6</title>
<g id="a_node6"><a xlink:href="namespacea60_1_1metadata.html#aeba42336cc4f30ed9ee705111d3e82a9" target="_top" xlink:title="Typographic defaults for text labels.">
<polygon fill="white" stroke="#666666" points="400,-118 302,-118 302,-92 400,-92 400,-118"/>
<text text-anchor="start" x="310" y="-107.6" font-family="SourceSans" font-size="8.00">a60::metadata::get</text>
<text text-anchor="middle" x="351" y="-98.6" font-family="SourceSans" font-size="8.00">_metadata_typo</text>
</a>
</g>
</g>
<!-- Node1&#45;&gt;Node6 -->
<g id="edge5" class="edge">
<title>Node1&#45;&gt;Node6</title>
<path fill="none" stroke="#63b8ff" d="M110.3,-138.49C151.51,-135.46 209.49,-130.38 260,-123 270.28,-121.5 281.15,-119.59 291.66,-117.59"/>
<polygon fill="#63b8ff" stroke="#63b8ff" points="292.44,-121 301.58,-115.65 291.1,-114.13 292.44,-121"/>
</g>
<!-- Node8 -->
<g id="node8" class="node">
<title>Node8</title>
<g id="a_node8"><a xlink:href="namespacea60_1_1metadata.html#abe322ca471be97b35424d804a9c62084" target="_top" xlink:title="Playing values are styled this way.">
<polygon fill="white" stroke="#666666" points="252,-114 154,-114 154,-88 252,-88 252,-114"/>
<text text-anchor="start" x="162" y="-103.6" font-family="SourceSans" font-size="8.00">a60::metadata::get</text>
<text text-anchor="middle" x="203" y="-94.6" font-family="SourceSans" font-size="8.00">_playing_style</text>
</a>
</g>
</g>
<!-- Node1&#45;&gt;Node8 -->
<g id="edge7" class="edge">
<title>Node1&#45;&gt;Node8</title>
<path fill="none" stroke="#63b8ff" d="M102.6,-128.91C116.36,-125.05 131.57,-120.78 145.87,-116.76"/>
<polygon fill="#63b8ff" stroke="#63b8ff" points="146.91,-120.1 155.6,-114.03 145.02,-113.37 146.91,-120.1"/>
</g>
<!-- Node9 -->
<g id="node9" class="node">
<title>Node9</title>
<g id="a_node9"><a xlink:href="namespacea60_1_1metadata.html#a508b12e5a87aa6656c7c675e93a436ae" target="_top" xlink:title="Add id and weight to existing umids type.">
<polygon fill="white" stroke="#666666" points="256.5,-70 149.5,-70 149.5,-44 256.5,-44 256.5,-70"/>
<text text-anchor="start" x="157.5" y="-59.6" font-family="SourceSans" font-size="8.00">a60::metadata::insert</text>
<text text-anchor="middle" x="203" y="-50.6" font-family="SourceSans" font-size="8.00">_ids_into</text>
</a>
</g>
</g>
<!-- Node1&#45;&gt;Node9 -->
<g id="edge8" class="edge">
<title>Node1&#45;&gt;Node9</title>
<path fill="none" stroke="#63b8ff" d="M72.16,-128.92C89.61,-115.22 118.61,-93.7 146,-79 149.08,-77.34 152.32,-75.75 155.62,-74.22"/>
<polygon fill="#63b8ff" stroke="#63b8ff" points="157.24,-77.33 164.99,-70.1 154.42,-70.92 157.24,-77.33"/>
</g>
<!-- Node10 -->
<g id="node10" class="node">
<title>Node10</title>
<g id="a_node10"><a xlink:href="namespacea60_1_1metadata.html#acac3003bbaeb00d1c2dbfab86874dd04" target="_top" xlink:title="Base Radial Visualization.">
<polygon fill="white" stroke="#666666" points="258,-196 148,-196 148,-170 258,-170 258,-196"/>
<text text-anchor="start" x="156" y="-185.6" font-family="SourceSans" font-size="8.00">a60::metadata::render</text>
<text text-anchor="middle" x="203" y="-176.6" font-family="SourceSans" font-size="8.00">_id_base</text>
</a>
</g>
</g>
<!-- Node1&#45;&gt;Node10 -->
<g id="edge9" class="edge">
<title>Node1&#45;&gt;Node10</title>
<path fill="none" stroke="#63b8ff" d="M102.6,-155.09C116.36,-158.95 131.57,-163.22 145.87,-167.24"/>
<polygon fill="#63b8ff" stroke="#63b8ff" points="145.02,-170.63 155.6,-169.97 146.91,-163.9 145.02,-170.63"/>
</g>
<!-- Node12 -->
<g id="node12" class="node">
<title>Node12</title>
<g id="a_node12"><a xlink:href="namespacea60_1_1metadata.html#a14fc13e67b0e7fd11314066390e64056" target="_top" xlink:title="Weighted ring glyph. Not opacity, but breadth. More weight, wider bands around ring_radius length.">
<polygon fill="white" stroke="#666666" points="253,-298 153,-298 153,-272 253,-272 253,-298"/>
<text text-anchor="start" x="161" y="-287.6" font-family="SourceSans" font-size="8.00">a60::metadata::ring</text>
<text text-anchor="middle" x="203" y="-278.6" font-family="SourceSans" font-size="8.00">_w_glyph</text>
</a>
</g>
</g>
<!-- Node1&#45;&gt;Node12 -->
<g id="edge15" class="edge">
<title>Node1&#45;&gt;Node12</title>
<path fill="none" stroke="#63b8ff" d="M69.47,-155.2C95.01,-180.2 150.6,-234.65 181.04,-264.47"/>
<polygon fill="#63b8ff" stroke="#63b8ff" points="178.97,-267.34 188.56,-271.84 183.86,-262.34 178.97,-267.34"/>
</g>
<!-- Node15 -->
<g id="node15" class="node">
<title>Node15</title>
<g id="a_node15"><a xlink:href="namespacea60_1_1metadata.html#a5156bb42291c8eb54dc6ddef8688be1e" target="_top" xlink:title="Split playing value into actor &#45;&gt; LHS of playing &quot;person&quot; role &#45;&gt; RHS of playing &quot;persona&quot; NB: Each s...">
<polygon fill="white" stroke="#666666" points="253.5,-26 152.5,-26 152.5,0 253.5,0 253.5,-26"/>
<text text-anchor="start" x="160.5" y="-15.6" font-family="SourceSans" font-size="8.00">a60::metadata::split</text>
<text text-anchor="middle" x="203" y="-6.6" font-family="SourceSans" font-size="8.00">_playing_value</text>
</a>
</g>
</g>
<!-- Node1&#45;&gt;Node15 -->
<g id="edge23" class="edge">
<title>Node1&#45;&gt;Node15</title>
<path fill="none" stroke="#63b8ff" d="M63.83,-129C77.77,-106.85 108.94,-61.62 146,-35 148.08,-33.51 150.27,-32.1 152.54,-30.77"/>
<polygon fill="#63b8ff" stroke="#63b8ff" points="154.32,-33.79 161.57,-26.05 151.08,-27.58 154.32,-33.79"/>
</g>
<!-- Node3 -->
<g id="node3" class="node">
<title>Node3</title>
<g id="a_node3"><a xlink:href="namespacea60_1_1constants.html#a613cac7d85819a545849f5eefd733896" target="_top" xlink:title=" ">
<polygon fill="white" stroke="#666666" points="401.5,-380 300.5,-380 300.5,-354 401.5,-354 401.5,-380"/>
<text text-anchor="start" x="308.5" y="-369.6" font-family="SourceSans" font-size="8.00">a60::constants::age</text>
<text text-anchor="middle" x="351" y="-360.6" font-family="SourceSans" font-size="8.00">_value_to_multiple</text>
</a>
</g>
</g>
<!-- Node2&#45;&gt;Node3 -->
<g id="edge2" class="edge">
<title>Node2&#45;&gt;Node3</title>
<path fill="none" stroke="#63b8ff" d="M260.03,-367C269.82,-367 280.04,-367 289.93,-367"/>
<polygon fill="#63b8ff" stroke="#63b8ff" points="290.09,-370.5 300.09,-367 290.09,-363.5 290.09,-370.5"/>
</g>
<!-- Node5 -->
<g id="node5" class="node">
<title>Node5</title>
<g id="a_node5"><a xlink:href="namespacea60_1_1metadata.html#ae3aa31b1fc054034f40b30f22bf0d4b8" target="_top" xlink:title="Find orbit of ring, given radius, rspace, and number ring. Assume: ringsn starts with 1 for values an...">
<polygon fill="white" stroke="#666666" points="401,-424 301,-424 301,-398 401,-398 401,-424"/>
<text text-anchor="start" x="309" y="-413.6" font-family="SourceSans" font-size="8.00">a60::metadata::ring</text>
<text text-anchor="middle" x="351" y="-404.6" font-family="SourceSans" font-size="8.00">_radius</text>
</a>
</g>
</g>
<!-- Node2&#45;&gt;Node5 -->
<g id="edge4" class="edge">
<title>Node2&#45;&gt;Node5</title>
<path fill="none" stroke="#63b8ff" d="M247.41,-380.08C262.93,-384.76 280.6,-390.09 296.85,-394.98"/>
<polygon fill="#63b8ff" stroke="#63b8ff" points="296.17,-398.43 306.76,-397.97 298.19,-391.73 296.17,-398.43"/>
</g>
<!-- Node4 -->
<g id="node4" class="node">
<title>Node4</title>
<g id="a_node4"><a xlink:href="namespacea60_1_1constants.html#ac27c77e4606552ae5f74a1c21dd9258e" target="_top" xlink:title=" ">
<polygon fill="white" stroke="#666666" points="559,-354.5 442,-354.5 442,-337.5 559,-337.5 559,-354.5"/>
<text text-anchor="middle" x="500.5" y="-344.1" font-family="SourceSans" font-size="8.00">a60::constants::newline</text>
</a>
</g>
</g>
<!-- Node3&#45;&gt;Node4 -->
<g id="edge3" class="edge">
<title>Node3&#45;&gt;Node4</title>
<path fill="none" stroke="#63b8ff" d="M401.53,-359.95C411.25,-358.56 421.62,-357.09 431.82,-355.64"/>
<polygon fill="#63b8ff" stroke="#63b8ff" points="432.54,-359.07 441.95,-354.19 431.55,-352.14 432.54,-359.07"/>
</g>
<!-- Node7 -->
<g id="node7" class="node">
<title>Node7</title>
<g id="a_node7"><a xlink:href="namespacea60_1_1metadata.html#abcd6d192e6ed0f853c3c6cd9bcf13cad" target="_top" xlink:title=" ">
<polygon fill="white" stroke="#666666" points="549.5,-159 451.5,-159 451.5,-133 549.5,-133 549.5,-159"/>
<text text-anchor="start" x="459.5" y="-148.6" font-family="SourceSans" font-size="8.00">a60::metadata::get</text>
<text text-anchor="middle" x="500.5" y="-139.6" font-family="SourceSans" font-size="8.00">_metadata_style</text>
</a>
</g>
</g>
<!-- Node6&#45;&gt;Node7 -->
<g id="edge6" class="edge">
<title>Node6&#45;&gt;Node7</title>
<path fill="none" stroke="#63b8ff" d="M399.08,-118.09C412.98,-121.95 428.35,-126.22 442.79,-130.24"/>
<polygon fill="#63b8ff" stroke="#63b8ff" points="442.05,-133.66 452.62,-132.97 443.92,-126.92 442.05,-133.66"/>
</g>
<!-- Node10&#45;&gt;Node3 -->
<g id="edge10" class="edge">
<title>Node10&#45;&gt;Node3</title>
<path fill="none" stroke="#63b8ff" d="M213.27,-196.34C229.43,-219.4 264.09,-267.99 296,-307 307.1,-320.57 320.25,-335.21 330.8,-346.63"/>
<polygon fill="#63b8ff" stroke="#63b8ff" points="328.25,-349.03 337.62,-353.97 333.37,-344.26 328.25,-349.03"/>
</g>
<!-- Node10&#45;&gt;Node6 -->
<g id="edge12" class="edge">
<title>Node10&#45;&gt;Node6</title>
<path fill="none" stroke="#63b8ff" d="M233.17,-169.88C241.93,-165.69 251.47,-160.87 260,-156 276.7,-146.47 279.37,-141.65 296,-132 301.47,-128.82 307.37,-125.64 313.18,-122.64"/>
<polygon fill="#63b8ff" stroke="#63b8ff" points="314.84,-125.72 322.18,-118.09 311.68,-119.48 314.84,-125.72"/>
</g>
<!-- Node10&#45;&gt;Node7 -->
<g id="edge11" class="edge">
<title>Node10&#45;&gt;Node7</title>
<path fill="none" stroke="#63b8ff" d="M258.36,-172.17C270.7,-169.93 283.78,-167.73 296,-166 344.77,-159.11 400.45,-153.81 441.22,-150.41"/>
<polygon fill="#63b8ff" stroke="#63b8ff" points="441.58,-153.89 451.26,-149.58 441,-146.91 441.58,-153.89"/>
</g>
<!-- Node11 -->
<g id="node11" class="node">
<title>Node11</title>
<g id="a_node11"><a xlink:href="namespacea60.html#a4e8b0cabed112734147b499bf0cc9029" target="_top" xlink:title="Conversion of resolution_mode to string.">
<polygon fill="white" stroke="#666666" points="388,-191.5 314,-191.5 314,-174.5 388,-174.5 388,-191.5"/>
<text text-anchor="middle" x="351" y="-181.1" font-family="SourceSans" font-size="8.00">a60::to_string</text>
</a>
</g>
</g>
<!-- Node10&#45;&gt;Node11 -->
<g id="edge13" class="edge">
<title>Node10&#45;&gt;Node11</title>
<path fill="none" stroke="#63b8ff" d="M258.37,-183C273.24,-183 289.22,-183 303.6,-183"/>
<polygon fill="#63b8ff" stroke="#63b8ff" points="303.76,-186.5 313.76,-183 303.76,-179.5 303.76,-186.5"/>
</g>
<!-- Node11&#45;&gt;Node11 -->
<g id="edge14" class="edge">
<title>Node11&#45;&gt;Node11</title>
<path fill="none" stroke="#63b8ff" d="M328.95,-191.69C316.77,-200.17 324.12,-209.5 351,-209.5 369.06,-209.5 378.31,-205.29 378.73,-199.95"/>
<polygon fill="#63b8ff" stroke="#63b8ff" points="381.6,-197.94 373.05,-191.69 375.83,-201.91 381.6,-197.94"/>
</g>
<!-- Node12&#45;&gt;Node3 -->
<g id="edge16" class="edge">
<title>Node12&#45;&gt;Node3</title>
<path fill="none" stroke="#63b8ff" d="M224.93,-298.13C243.41,-309.57 271.19,-326.41 296,-340 301.67,-343.11 307.74,-346.28 313.7,-349.32"/>
<polygon fill="#63b8ff" stroke="#63b8ff" points="312.37,-352.57 322.88,-353.94 315.52,-346.31 312.37,-352.57"/>
</g>
<!-- Node12&#45;&gt;Node4 -->
<g id="edge19" class="edge">
<title>Node12&#45;&gt;Node4</title>
<path fill="none" stroke="#63b8ff" d="M253.08,-297.17C266.93,-300.49 282.03,-303.99 296,-307 344.95,-317.54 400.84,-328.15 441.64,-335.63"/>
<polygon fill="#63b8ff" stroke="#63b8ff" points="441.21,-339.11 451.68,-337.47 442.47,-332.23 441.21,-339.11"/>
</g>
<!-- Node12&#45;&gt;Node5 -->
<g id="edge21" class="edge">
<title>Node12&#45;&gt;Node5</title>
<path fill="none" stroke="#63b8ff" d="M216.71,-298.12C228.23,-310.12 245.56,-328.48 260,-345 276.63,-364.02 275.67,-373.99 296,-389 298.03,-390.5 300.18,-391.92 302.4,-393.25"/>
<polygon fill="#63b8ff" stroke="#63b8ff" points="300.79,-396.36 311.25,-398 304.1,-390.19 300.79,-396.36"/>
</g>
<!-- Node12&#45;&gt;Node11 -->
<g id="edge22" class="edge">
<title>Node12&#45;&gt;Node11</title>
<path fill="none" stroke="#63b8ff" d="M221.85,-271.92C240.29,-258.47 269.97,-237 296,-219 306.5,-211.74 318.28,-203.85 328.16,-197.32"/>
<polygon fill="#63b8ff" stroke="#63b8ff" points="330.18,-200.18 336.6,-191.75 326.32,-194.33 330.18,-200.18"/>
</g>
<!-- Node13 -->
<g id="node13" class="node">
<title>Node13</title>
<g id="a_node13"><a xlink:href="namespacea60_1_1metadata.html#a0f59763af905b28339abf072db876919" target="_top" xlink:title="Typographic defaults for radial diagrams.">
<polygon fill="white" stroke="#666666" points="400,-254 302,-254 302,-228 400,-228 400,-254"/>
<text text-anchor="start" x="310" y="-243.6" font-family="SourceSans" font-size="8.00">a60::metadata::get</text>
<text text-anchor="middle" x="351" y="-234.6" font-family="SourceSans" font-size="8.00">_radial_typo</text>
</a>
</g>
</g>
<!-- Node12&#45;&gt;Node13 -->
<g id="edge17" class="edge">
<title>Node12&#45;&gt;Node13</title>
<path fill="none" stroke="#63b8ff" d="M247.41,-271.92C262.93,-267.24 280.6,-261.91 296.85,-257.02"/>
<polygon fill="#63b8ff" stroke="#63b8ff" points="298.19,-260.27 306.76,-254.03 296.17,-253.57 298.19,-260.27"/>
</g>
<!-- Node14 -->
<g id="node14" class="node">
<title>Node14</title>
<g id="a_node14"><a xlink:href="namespacea60_1_1metadata.html#ac76923f3952666a3ce767d9259fba1dc" target="_top" xlink:title="Ring glyph with arc missing on the bottom.">
<polygon fill="white" stroke="#666666" points="406,-298 296,-298 296,-272 406,-272 406,-298"/>
<text text-anchor="start" x="304" y="-287.6" font-family="SourceSans" font-size="8.00">a60::metadata::partial</text>
<text text-anchor="middle" x="351" y="-278.6" font-family="SourceSans" font-size="8.00">_ring_glyph</text>
</a>
</g>
</g>
<!-- Node12&#45;&gt;Node14 -->
<g id="edge20" class="edge">
<title>Node12&#45;&gt;Node14</title>
<path fill="none" stroke="#63b8ff" d="M253.02,-285C263.55,-285 274.83,-285 285.83,-285"/>
<polygon fill="#63b8ff" stroke="#63b8ff" points="285.83,-288.5 295.83,-285 285.83,-281.5 285.83,-288.5"/>
</g>
<!-- Node13&#45;&gt;Node7 -->
<g id="edge18" class="edge">
<title>Node13&#45;&gt;Node7</title>
<path fill="none" stroke="#63b8ff" d="M388.1,-227.92C394.21,-225.24 400.39,-222.25 406,-219 432.27,-203.79 459.29,-181.89 477.49,-166.05"/>
<polygon fill="#63b8ff" stroke="#63b8ff" points="480.01,-168.48 485.19,-159.24 475.38,-163.24 480.01,-168.48"/>
</g>
<!-- Node16 -->
<g id="node16" class="node">
<title>Node16</title>
<g id="a_node16"><a xlink:href="namespacea60_1_1metadata.html#acd47cfb00b07af853234227fdaa04cf9" target="_top" xlink:title="Convert a comma&#45;space&#45;separated list of strings to a vector of strings.">
<polygon fill="white" stroke="#666666" points="402,-26 300,-26 300,0 402,0 402,-26"/>
<text text-anchor="start" x="308" y="-15.6" font-family="SourceSans" font-size="8.00">a60::metadata::cssv</text>
<text text-anchor="middle" x="351" y="-6.6" font-family="SourceSans" font-size="8.00">_string_to_strings</text>
</a>
</g>
</g>
<!-- Node15&#45;&gt;Node16 -->
<g id="edge24" class="edge">
<title>Node15&#45;&gt;Node16</title>
<path fill="none" stroke="#63b8ff" d="M253.84,-13C265.34,-13 277.69,-13 289.59,-13"/>
<polygon fill="#63b8ff" stroke="#63b8ff" points="289.89,-16.5 299.89,-13 289.89,-9.5 289.89,-16.5"/>
</g>
<!-- Node17 -->
<g id="node17" class="node">
<title>Node17</title>
<g id="a_node17"><a xlink:href="namespacea60_1_1constants.html#a2fd5efb0c88809132a730787d05a080a" target="_top" xlink:title=" ">
<polygon fill="white" stroke="#666666" points="558,-21.5 443,-21.5 443,-4.5 558,-4.5 558,-21.5"/>
<text text-anchor="middle" x="500.5" y="-11.1" font-family="SourceSans" font-size="8.00">a60::constants::comma</text>
</a>
</g>
</g>
<!-- Node16&#45;&gt;Node17 -->
<g id="edge25" class="edge">
<title>Node16&#45;&gt;Node17</title>
<path fill="none" stroke="#63b8ff" d="M402.35,-13C412.11,-13 422.49,-13 432.68,-13"/>
<polygon fill="#63b8ff" stroke="#63b8ff" points="432.79,-16.5 442.79,-13 432.79,-9.5 432.79,-16.5"/>
</g>
</g>
</svg>
        <g id="navigator" transform="translate(0 0)" fill="#404254">
                <rect fill="#f2f5e9" fill-opacity="0.5" stroke="#606060" stroke-width=".5" x="0" y="0" width="60" height="60"/>
                <use id="zoomplus" xlink:href="#zoomPlus" x="17" y="9" onmousedown="handleZoom(evt,'in')"/>
                <use id="zoomminus" xlink:href="#zoomMin" x="42" y="9" onmousedown="handleZoom(evt,'out')"/>
                <use id="reset" xlink:href="#resetDef" x="30" y="36" onmousedown="handleReset()"/>
                <g id="arrowUp" xlink:href="#dirArrow" transform="translate(30 24)" onmousedown="handlePan(0,-1)">
                  <use xlink:href="#rim" fill="#404040">
                        <set attributeName="fill" to="#808080" begin="arrowUp.mouseover" end="arrowUp.mouseout"/>
                  </use>
                  <path fill="none" stroke="white" stroke-width="1.5" d="M0,-3.0v7 M-2.5,-0.5L0,-3.0L2.5,-0.5"/>
                </g>
                <g id="arrowRight" xlink:href="#dirArrow" transform="rotate(90) translate(36 -43)" onmousedown="handlePan(1,0)">
                  <use xlink:href="#rim" fill="#404040">
                        <set attributeName="fill" to="#808080" begin="arrowRight.mouseover" end="arrowRight.mouseout"/>
                  </use>
                  <path fill="none" stroke="white" stroke-width="1.5" d="M0,-3.0v7 M-2.5,-0.5L0,-3.0L2.5,-0.5"/>
                </g>
                <g id="arrowDown" xlink:href="#dirArrow" transform="rotate(180) translate(-30 -48)" onmousedown="handlePan(0,1)">
                  <use xlink:href="#rim" fill="#404040">
                        <set attributeName="fill" to="#808080" begin="arrowDown.mouseover" end="arrowDown.mouseout"/>
                  </use>
                  <path fill="none" stroke="white" stroke-width="1.5" d="M0,-3.0v7 M-2.5,-0.5L0,-3.0L2.5,-0.5"/>
                </g>
                <g id="arrowLeft" xlink:href="#dirArrow" transform="rotate(270) translate(-36 17)" onmousedown="handlePan(-1,0)">
                  <use xlink:href="#rim" fill="#404040">
                        <set attributeName="fill" to="#808080" begin="arrowLeft.mouseover" end="arrowLeft.mouseout"/>
                  </use>
                  <path fill="none" stroke="white" stroke-width="1.5" d="M0,-3.0v7 M-2.5,-0.5L0,-3.0L2.5,-0.5"/>
                </g>
        </g>
        <svg viewBox="0 0 15 15" width="100%" height="30px" preserveAspectRatio="xMaxYMin meet">
         <g id="arrow_out" transform="scale(0.3 0.3)">
          <a xlink:href="namespacea60_1_1metadata_af391a800454f4b2a4ad559f6f9468609_cgraph_org.svg" target="_base">
           <rect id="button" ry="5" rx="5" y="6" x="6" height="38" width="38"
                fill="#f2f5e9" fill-opacity="0.5" stroke="#606060" stroke-width="1.0"/>
           <path id="arrow"
             d="M 11.500037,31.436501 C 11.940474,20.09759 22.043105,11.32322 32.158766,21.979434 L 37.068811,17.246167 C 37.068811,17.246167 37.088388,32 37.088388,32 L 22.160133,31.978069 C 22.160133,31.978069 26.997745,27.140456 26.997745,27.140456 C 18.528582,18.264221 13.291696,25.230495 11.500037,31.436501 z"
             style="fill:#404040;"/>
          </a>
         </g>
        </svg>
</svg>
