<?xml version="1.0" encoding="UTF-8" standalone="no"?>
<!DOCTYPE svg PUBLIC "-//W3C//DTD SVG 1.1//EN"
 "http://www.w3.org/Graphics/SVG/1.1/DTD/svg11.dtd">
<!-- Generated by graphviz version 5.0.0 (0)
 -->
<!-- Title: a60::augment_collection_titles_6 Pages: 1 -->
<svg width="285pt" height="123pt"
 viewBox="0.00 0.00 285.00 123.00" xmlns="http://www.w3.org/2000/svg" xmlns:xlink="http://www.w3.org/1999/xlink">
<g id="graph0" class="graph" transform="scale(1 1) rotate(0) translate(4 119)">
<title>a60::augment_collection_titles_6</title>
<!-- Node1 -->
<g id="node1" class="node">
<title>Node1</title>
<g id="a_node1"><a xlink:title=" ">
<polygon fill="#999999" stroke="#666666" points="119,-79.5 0,-79.5 0,-53.5 119,-53.5 119,-79.5"/>
<text text-anchor="start" x="8" y="-69.1" font-family="SourceSans" font-size="8.00">a60::augment_collection</text>
<text text-anchor="middle" x="59.5" y="-60.1" font-family="SourceSans" font-size="8.00">_titles_6</text>
</a>
</g>
</g>
<!-- Node2 -->
<g id="node2" class="node">
<title>Node2</title>
<g id="a_node2"><a xlink:href="namespacea60_1_1carto.html#af59ef7858ef576e7f17b781f38436f28" target="_top" xlink:title=" ">
<polygon fill="white" stroke="#666666" points="277,-115 155,-115 155,-98 277,-98 277,-115"/>
<text text-anchor="middle" x="216" y="-104.6" font-family="SourceSans" font-size="8.00">a60::carto::frame_margin</text>
</a>
</g>
</g>
<!-- Node1&#45;&gt;Node2 -->
<g id="edge1" class="edge">
<title>Node1&#45;&gt;Node2</title>
<path fill="none" stroke="#63b8ff" d="M111.09,-79.6C130.78,-84.7 153.11,-90.48 172.01,-95.37"/>
<polygon fill="#63b8ff" stroke="#63b8ff" points="171.27,-98.79 181.83,-97.91 173.03,-92.02 171.27,-98.79"/>
</g>
<!-- Node3 -->
<g id="node3" class="node">
<title>Node3</title>
<g id="a_node3"><a xlink:href="structa60_1_1collection.html#a4b5f4e6148e18b08ccc033e200327cdf" target="_top" xlink:title="Display/output name for torrent collection, including partition, episode/multiepisode,...">
<polygon fill="white" stroke="#666666" points="271,-79.5 161,-79.5 161,-53.5 271,-53.5 271,-79.5"/>
<text text-anchor="start" x="169" y="-69.1" font-family="SourceSans" font-size="8.00">a60::collection::media</text>
<text text-anchor="middle" x="216" y="-60.1" font-family="SourceSans" font-size="8.00">_object_name</text>
</a>
</g>
</g>
<!-- Node1&#45;&gt;Node3 -->
<g id="edge2" class="edge">
<title>Node1&#45;&gt;Node3</title>
<path fill="none" stroke="#63b8ff" d="M119.35,-66.5C129.58,-66.5 140.27,-66.5 150.65,-66.5"/>
<polygon fill="#63b8ff" stroke="#63b8ff" points="150.88,-70 160.88,-66.5 150.88,-63 150.88,-70"/>
</g>
<!-- Node4 -->
<g id="node4" class="node">
<title>Node4</title>
<g id="a_node4"><a xlink:href="namespacea60.html#a4e8b0cabed112734147b499bf0cc9029" target="_top" xlink:title="Conversion of resolution_mode to string.">
<polygon fill="white" stroke="#666666" points="253,-17 179,-17 179,0 253,0 253,-17"/>
<text text-anchor="middle" x="216" y="-6.6" font-family="SourceSans" font-size="8.00">a60::to_string</text>
</a>
</g>
</g>
<!-- Node1&#45;&gt;Node4 -->
<g id="edge3" class="edge">
<title>Node1&#45;&gt;Node4</title>
<path fill="none" stroke="#63b8ff" d="M95.17,-53.48C121.25,-43.69 156.74,-30.37 182.32,-20.77"/>
<polygon fill="#63b8ff" stroke="#63b8ff" points="183.8,-23.95 191.94,-17.16 181.34,-17.4 183.8,-23.95"/>
</g>
<!-- Node4&#45;&gt;Node4 -->
<g id="edge4" class="edge">
<title>Node4&#45;&gt;Node4</title>
<path fill="none" stroke="#63b8ff" d="M192.76,-17.19C179.92,-25.67 187.66,-35 216,-35 235.04,-35 244.78,-30.79 245.23,-25.45"/>
<polygon fill="#63b8ff" stroke="#63b8ff" points="247.95,-23.23 239.24,-17.19 242.28,-27.34 247.95,-23.23"/>
</g>
</g>
</svg>
