<?xml version="1.0" encoding="UTF-8" standalone="no"?>
<!DOCTYPE svg PUBLIC "-//W3C//DTD SVG 1.1//EN"
 "http://www.w3.org/Graphics/SVG/1.1/DTD/svg11.dtd">
<!-- Generated by graphviz version 5.0.0 (0)
 -->
<!-- Title: a60::augment_peers Pages: 1 -->
<svg width="431pt" height="114pt"
 viewBox="0.00 0.00 431.00 113.50" xmlns="http://www.w3.org/2000/svg" xmlns:xlink="http://www.w3.org/1999/xlink">
<g id="graph0" class="graph" transform="scale(1 1) rotate(0) translate(4 109.5)">
<title>a60::augment_peers</title>
<!-- Node1 -->
<g id="node1" class="node">
<title>Node1</title>
<g id="a_node1"><a xlink:title=" ">
<polygon fill="#999999" stroke="#666666" points="102,-37 0,-37 0,-20 102,-20 102,-37"/>
<text text-anchor="middle" x="51" y="-26.6" font-family="SourceSans" font-size="8.00">a60::augment_peers</text>
</a>
</g>
</g>
<!-- Node2 -->
<g id="node2" class="node">
<title>Node2</title>
<g id="a_node2"><a xlink:href="namespacea60.html#a5caa86e17a9e072a76171d760fbeace9" target="_top" xlink:title=" ">
<polygon fill="white" stroke="#666666" points="265,-57 138,-57 138,-40 265,-40 265,-57"/>
<text text-anchor="middle" x="201.5" y="-46.6" font-family="SourceSans" font-size="8.00">a60::augment_meta_peers</text>
</a>
</g>
</g>
<!-- Node1&#45;&gt;Node2 -->
<g id="edge1" class="edge">
<title>Node1&#45;&gt;Node2</title>
<path fill="none" stroke="#63b8ff" d="M102.28,-35.27C110.5,-36.38 119.16,-37.55 127.8,-38.71"/>
<polygon fill="#63b8ff" stroke="#63b8ff" points="127.52,-42.2 137.9,-40.07 128.46,-35.27 127.52,-42.2"/>
</g>
<!-- Node5 -->
<g id="node5" class="node">
<title>Node5</title>
<g id="a_node5"><a xlink:href="namespacea60.html#a1bf91ba66297e089d99c49d6a376c0ad" target="_top" xlink:title="NEW STYLE First composite with map, black on white.">
<polygon fill="white" stroke="#666666" points="254.5,-20 148.5,-20 148.5,-3 254.5,-3 254.5,-20"/>
<text text-anchor="middle" x="201.5" y="-9.6" font-family="SourceSans" font-size="8.00">a60::make_map_base</text>
</a>
</g>
</g>
<!-- Node1&#45;&gt;Node5 -->
<g id="edge4" class="edge">
<title>Node1&#45;&gt;Node5</title>
<path fill="none" stroke="#63b8ff" d="M102.28,-22.74C113.84,-21.42 126.28,-20 138.29,-18.62"/>
<polygon fill="#63b8ff" stroke="#63b8ff" points="138.71,-22.1 148.25,-17.48 137.92,-15.14 138.71,-22.1"/>
</g>
<!-- Node3 -->
<g id="node3" class="node">
<title>Node3</title>
<g id="a_node3"><a xlink:href="namespacea60.html#a63bf2b0abf68edc3f3e74a0811fe771b" target="_top" xlink:title="Error checking support. Null Island Check (aka latitude and longitude set to zero).">
<polygon fill="white" stroke="#666666" points="415.5,-105.5 308.5,-105.5 308.5,-79.5 415.5,-79.5 415.5,-105.5"/>
<text text-anchor="start" x="316.5" y="-95.1" font-family="SourceSans" font-size="8.00">a60::is_meta_peer_on</text>
<text text-anchor="middle" x="362" y="-86.1" font-family="SourceSans" font-size="8.00">_null_island</text>
</a>
</g>
</g>
<!-- Node2&#45;&gt;Node3 -->
<g id="edge2" class="edge">
<title>Node2&#45;&gt;Node3</title>
<path fill="none" stroke="#63b8ff" d="M233.44,-57.09C253.55,-62.67 280.37,-70.12 304.23,-76.74"/>
<polygon fill="#63b8ff" stroke="#63b8ff" points="303.33,-80.12 313.9,-79.43 305.2,-73.38 303.33,-80.12"/>
</g>
<!-- Node4 -->
<g id="node4" class="node">
<title>Node4</title>
<g id="a_node4"><a xlink:href="structa60_1_1carto_1_1cartography.html#a57e14cabb4993189316e369a27752a73" target="_top" xlink:title=" ">
<polygon fill="white" stroke="#666666" points="419.5,-61.5 304.5,-61.5 304.5,-35.5 419.5,-35.5 419.5,-61.5"/>
<text text-anchor="start" x="312.5" y="-51.1" font-family="SourceSans" font-size="8.00">a60::carto::cartography</text>
<text text-anchor="middle" x="362" y="-42.1" font-family="SourceSans" font-size="8.00">::to_point_2d</text>
</a>
</g>
</g>
<!-- Node2&#45;&gt;Node4 -->
<g id="edge3" class="edge">
<title>Node2&#45;&gt;Node4</title>
<path fill="none" stroke="#63b8ff" d="M265.14,-48.5C274.78,-48.5 284.75,-48.5 294.47,-48.5"/>
<polygon fill="#63b8ff" stroke="#63b8ff" points="294.47,-52 304.47,-48.5 294.47,-45 294.47,-52"/>
</g>
<!-- Node6 -->
<g id="node6" class="node">
<title>Node6</title>
<g id="a_node6"><a xlink:href="namespacea60.html#a63203aef78ad674129103340323d3b63" target="_top" xlink:title="First layer.">
<polygon fill="white" stroke="#666666" points="423,-17 301,-17 301,0 423,0 423,-17"/>
<text text-anchor="middle" x="362" y="-6.6" font-family="SourceSans" font-size="8.00">a60::place_map_in_frame</text>
</a>
</g>
</g>
<!-- Node5&#45;&gt;Node6 -->
<g id="edge5" class="edge">
<title>Node5&#45;&gt;Node6</title>
<path fill="none" stroke="#63b8ff" d="M254.84,-10.51C266.32,-10.29 278.66,-10.06 290.72,-9.83"/>
<polygon fill="#63b8ff" stroke="#63b8ff" points="290.82,-13.33 300.75,-9.64 290.69,-6.33 290.82,-13.33"/>
</g>
</g>
</svg>
