<?xml version="1.0" encoding="UTF-8" standalone="no"?>
<!DOCTYPE svg PUBLIC "-//W3C//DTD SVG 1.1//EN"
 "http://www.w3.org/Graphics/SVG/1.1/DTD/svg11.dtd">
<!-- Generated by graphviz version 5.0.0 (0)
 -->
<!-- Title: a60::sum_int_field_in_node_across_files Pages: 1 -->
<svg width="258pt" height="70pt"
 viewBox="0.00 0.00 258.00 69.50" xmlns="http://www.w3.org/2000/svg" xmlns:xlink="http://www.w3.org/1999/xlink">
<g id="graph0" class="graph" transform="scale(1 1) rotate(0) translate(4 65.5)">
<title>a60::sum_int_field_in_node_across_files</title>
<!-- Node1 -->
<g id="node1" class="node">
<title>Node1</title>
<g id="a_node1"><a xlink:title="Search files for field value, return sum.">
<polygon fill="#999999" stroke="#666666" points="104,-41.5 0,-41.5 0,-15.5 104,-15.5 104,-41.5"/>
<text text-anchor="start" x="8" y="-31.1" font-family="SourceSans" font-size="8.00">a60::sum_int_field</text>
<text text-anchor="middle" x="52" y="-22.1" font-family="SourceSans" font-size="8.00">_in_node_across_files</text>
</a>
</g>
</g>
<!-- Node2 -->
<g id="node2" class="node">
<title>Node2</title>
<g id="a_node2"><a xlink:href="namespacea60.html#a538d43bb9bfa488a54cea929736dbe2d" target="_top" xlink:title="Deserialize input file.">
<polygon fill="white" stroke="#666666" points="247,-61.5 143,-61.5 143,-35.5 247,-35.5 247,-61.5"/>
<text text-anchor="start" x="151" y="-51.1" font-family="SourceSans" font-size="8.00">a60::deserialize_json</text>
<text text-anchor="middle" x="195" y="-42.1" font-family="SourceSans" font-size="8.00">_to_dom</text>
</a>
</g>
</g>
<!-- Node1&#45;&gt;Node2 -->
<g id="edge1" class="edge">
<title>Node1&#45;&gt;Node2</title>
<path fill="none" stroke="#63b8ff" d="M104.3,-35.78C113.56,-37.09 123.28,-38.47 132.79,-39.82"/>
<polygon fill="#63b8ff" stroke="#63b8ff" points="132.58,-43.32 142.97,-41.26 133.56,-36.39 132.58,-43.32"/>
</g>
<!-- Node3 -->
<g id="node3" class="node">
<title>Node3</title>
<g id="a_node3"><a xlink:href="namespacea60_1_1io.html#aea30b8fc474f5a7b922516dc1e199037" target="_top" xlink:title="Takes a string representing a directory, returns a sorted list of contents as a std::vector&lt;string&gt;.">
<polygon fill="white" stroke="#666666" points="250,-17 140,-17 140,0 250,0 250,-17"/>
<text text-anchor="middle" x="195" y="-6.6" font-family="SourceSans" font-size="8.00">a60::io::populate_files</text>
</a>
</g>
</g>
<!-- Node1&#45;&gt;Node3 -->
<g id="edge2" class="edge">
<title>Node1&#45;&gt;Node3</title>
<path fill="none" stroke="#63b8ff" d="M104.3,-21.22C112.57,-20.05 121.21,-18.82 129.73,-17.62"/>
<polygon fill="#63b8ff" stroke="#63b8ff" points="130.24,-21.08 139.65,-16.21 129.26,-14.15 130.24,-21.08"/>
</g>
</g>
</svg>
