<?xml version="1.0" encoding="UTF-8" standalone="no"?>
<!DOCTYPE svg PUBLIC "-//W3C//DTD SVG 1.1//EN"
 "http://www.w3.org/Graphics/SVG/1.1/DTD/svg11.dtd">
<!-- Generated by graphviz version 5.0.0 (0)
 -->
<!-- Title: a60::metadata::rank_metadata_by_dimension_count Pages: 1 -->
<svg width="470pt" height="360pt"
 viewBox="0.00 0.00 470.00 359.50" xmlns="http://www.w3.org/2000/svg" xmlns:xlink="http://www.w3.org/1999/xlink">
<g id="graph0" class="graph" transform="scale(1 1) rotate(0) translate(4 355.5)">
<title>a60::metadata::rank_metadata_by_dimension_count</title>
<!-- Node1 -->
<g id="node1" class="node">
<title>Node1</title>
<g id="a_node1"><a xlink:title="rdim == &quot;bias&#45;tags&quot; etc">
<polygon fill="#999999" stroke="#666666" points="147,-159 0,-159 0,-133 147,-133 147,-159"/>
<text text-anchor="start" x="8" y="-148.6" font-family="SourceSans" font-size="8.00">a60::metadata::rank</text>
<text text-anchor="middle" x="73.5" y="-139.6" font-family="SourceSans" font-size="8.00">_metadata_by_dimension_count</text>
</a>
</g>
</g>
<!-- Node2 -->
<g id="node2" class="node">
<title>Node2</title>
<g id="a_node2"><a xlink:href="namespacea60_1_1metadata.html#adefdcf326e3314b557066902a1e2dcf9" target="_top" xlink:title=" ">
<polygon fill="white" stroke="#666666" points="307,-181 183,-181 183,-155 307,-155 307,-181"/>
<text text-anchor="start" x="191" y="-170.6" font-family="SourceSans" font-size="8.00">a60::metadata::canonical</text>
<text text-anchor="middle" x="245" y="-161.6" font-family="SourceSans" font-size="8.00">_media_name</text>
</a>
</g>
</g>
<!-- Node1&#45;&gt;Node2 -->
<g id="edge1" class="edge">
<title>Node1&#45;&gt;Node2</title>
<path fill="none" stroke="#63b8ff" d="M147.37,-155.46C155.79,-156.55 164.37,-157.66 172.77,-158.75"/>
<polygon fill="#63b8ff" stroke="#63b8ff" points="172.53,-162.25 182.9,-160.07 173.43,-155.31 172.53,-162.25"/>
</g>
<!-- Node10 -->
<g id="node10" class="node">
<title>Node10</title>
<g id="a_node10"><a xlink:href="namespacea60.html#af45982273a7a2e61b6aaa436081238c0" target="_top" xlink:title="Load JSON file to in&#45;memory DOM.">
<polygon fill="white" stroke="#666666" points="297,-137 193,-137 193,-111 297,-111 297,-137"/>
<text text-anchor="start" x="201" y="-126.6" font-family="SourceSans" font-size="8.00">a60::deserialize_json</text>
<text text-anchor="middle" x="245" y="-117.6" font-family="SourceSans" font-size="8.00">_to_dom_object</text>
</a>
</g>
</g>
<!-- Node1&#45;&gt;Node10 -->
<g id="edge9" class="edge">
<title>Node1&#45;&gt;Node10</title>
<path fill="none" stroke="#63b8ff" d="M147.37,-136.54C159.23,-135 171.42,-133.42 182.96,-131.92"/>
<polygon fill="#63b8ff" stroke="#63b8ff" points="183.46,-135.39 192.92,-130.63 182.55,-128.45 183.46,-135.39"/>
</g>
<!-- Node12 -->
<g id="node12" class="node">
<title>Node12</title>
<g id="a_node12"><a xlink:href="namespacea60_1_1metadata.html#a4ffb1ab0b6aa36e73fc117c333d402c7" target="_top" xlink:title="Output ranked list in text format.">
<polygon fill="white" stroke="#666666" points="304.5,-286 185.5,-286 185.5,-260 304.5,-260 304.5,-286"/>
<text text-anchor="start" x="193.5" y="-275.6" font-family="SourceSans" font-size="8.00">a60::metadata::serialize</text>
<text text-anchor="middle" x="245" y="-266.6" font-family="SourceSans" font-size="8.00">_ranked_media_object</text>
</a>
</g>
</g>
<!-- Node1&#45;&gt;Node12 -->
<g id="edge11" class="edge">
<title>Node1&#45;&gt;Node12</title>
<path fill="none" stroke="#63b8ff" d="M92,-159.11C122.02,-181.61 183.46,-227.64 218.34,-253.77"/>
<polygon fill="#63b8ff" stroke="#63b8ff" points="216.49,-256.76 226.59,-259.96 220.69,-251.16 216.49,-256.76"/>
</g>
<!-- Node15 -->
<g id="node15" class="node">
<title>Node15</title>
<g id="a_node15"><a xlink:href="namespacea60_1_1metadata.html#a80da6438996a07a5fa1df5728c004b2a" target="_top" xlink:title="Find name &#39;field&#39; in JSON file and return vector of values.">
<polygon fill="white" stroke="#666666" points="300.5,-93 189.5,-93 189.5,-67 300.5,-67 300.5,-93"/>
<text text-anchor="start" x="197.5" y="-82.6" font-family="SourceSans" font-size="8.00">a60::metadata::values</text>
<text text-anchor="middle" x="245" y="-73.6" font-family="SourceSans" font-size="8.00">_from_field</text>
</a>
</g>
</g>
<!-- Node1&#45;&gt;Node15 -->
<g id="edge16" class="edge">
<title>Node1&#45;&gt;Node15</title>
<path fill="none" stroke="#63b8ff" d="M105.71,-132.97C127.32,-124.03 156.8,-112.03 183,-102 187.74,-100.18 192.7,-98.33 197.66,-96.5"/>
<polygon fill="#63b8ff" stroke="#63b8ff" points="198.95,-99.75 207.14,-93.03 196.55,-93.18 198.95,-99.75"/>
</g>
<!-- Node3 -->
<g id="node3" class="node">
<title>Node3</title>
<g id="a_node3"><a xlink:href="namespacea60_1_1constants.html#a8a38c40674ec5fbf57af8127a67d1609" target="_top" xlink:title=" ">
<polygon fill="white" stroke="#666666" points="456,-211.5 349,-211.5 349,-194.5 456,-194.5 456,-211.5"/>
<text text-anchor="middle" x="402.5" y="-201.1" font-family="SourceSans" font-size="8.00">a60::constants::colon</text>
</a>
</g>
</g>
<!-- Node2&#45;&gt;Node3 -->
<g id="edge2" class="edge">
<title>Node2&#45;&gt;Node3</title>
<path fill="none" stroke="#63b8ff" d="M303.9,-181.03C320.19,-184.7 337.73,-188.65 353.38,-192.17"/>
<polygon fill="#63b8ff" stroke="#63b8ff" points="352.84,-195.64 363.37,-194.42 354.38,-188.81 352.84,-195.64"/>
</g>
<!-- Node4 -->
<g id="node4" class="node">
<title>Node4</title>
<g id="a_node4"><a xlink:href="namespacea60_1_1constants.html#a6338b74a1c5c6dc024b03069e07e34ac" target="_top" xlink:title=" ">
<polygon fill="white" stroke="#666666" points="460.5,-281.5 344.5,-281.5 344.5,-264.5 460.5,-264.5 460.5,-281.5"/>
<text text-anchor="middle" x="402.5" y="-271.1" font-family="SourceSans" font-size="8.00">a60::constants::hyphen</text>
</a>
</g>
</g>
<!-- Node2&#45;&gt;Node4 -->
<g id="edge3" class="edge">
<title>Node2&#45;&gt;Node4</title>
<path fill="none" stroke="#63b8ff" d="M256.85,-181.06C273.46,-200.24 307.08,-235.92 343,-256 346.24,-257.81 349.68,-259.44 353.22,-260.91"/>
<polygon fill="#63b8ff" stroke="#63b8ff" points="352.14,-264.24 362.73,-264.44 354.57,-257.68 352.14,-264.24"/>
</g>
<!-- Node5 -->
<g id="node5" class="node">
<title>Node5</title>
<g id="a_node5"><a xlink:href="namespacea60_1_1constants.html#a370b70e28b3935e8736cb9e79697ceda" target="_top" xlink:title=" ">
<polygon fill="white" stroke="#666666" points="458,-176.5 347,-176.5 347,-159.5 458,-159.5 458,-176.5"/>
<text text-anchor="middle" x="402.5" y="-166.1" font-family="SourceSans" font-size="8.00">a60::constants::period</text>
</a>
</g>
</g>
<!-- Node2&#45;&gt;Node5 -->
<g id="edge4" class="edge">
<title>Node2&#45;&gt;Node5</title>
<path fill="none" stroke="#63b8ff" d="M307.01,-168C316.8,-168 326.96,-168 336.83,-168"/>
<polygon fill="#63b8ff" stroke="#63b8ff" points="336.98,-171.5 346.98,-168 336.98,-164.5 336.98,-171.5"/>
</g>
<!-- Node6 -->
<g id="node6" class="node">
<title>Node6</title>
<g id="a_node6"><a xlink:href="namespacea60.html#a34d53970ee23a7c014960a2bf1a10e2b" target="_top" xlink:title="Search DOM for string literals.">
<polygon fill="white" stroke="#666666" points="454,-141 351,-141 351,-115 454,-115 454,-141"/>
<text text-anchor="start" x="359" y="-130.6" font-family="SourceSans" font-size="8.00">a60::search_dom_for</text>
<text text-anchor="middle" x="402.5" y="-121.6" font-family="SourceSans" font-size="8.00">_string_field</text>
</a>
</g>
</g>
<!-- Node2&#45;&gt;Node6 -->
<g id="edge5" class="edge">
<title>Node2&#45;&gt;Node6</title>
<path fill="none" stroke="#63b8ff" d="M296.92,-154.9C310.95,-151.29 326.31,-147.34 340.84,-143.6"/>
<polygon fill="#63b8ff" stroke="#63b8ff" points="341.92,-146.94 350.73,-141.06 340.18,-140.16 341.92,-146.94"/>
</g>
<!-- Node7 -->
<g id="node7" class="node">
<title>Node7</title>
<g id="a_node7"><a xlink:href="namespacea60.html#a0022cb8323c9a304730c5d70e4da4e4b" target="_top" xlink:title=" ">
<polygon fill="white" stroke="#666666" points="453,-96.5 352,-96.5 352,-79.5 453,-79.5 453,-96.5"/>
<text text-anchor="middle" x="402.5" y="-86.1" font-family="SourceSans" font-size="8.00">a60::to_erase_string</text>
</a>
</g>
</g>
<!-- Node2&#45;&gt;Node7 -->
<g id="edge6" class="edge">
<title>Node2&#45;&gt;Node7</title>
<path fill="none" stroke="#63b8ff" d="M290.58,-154.86C296.32,-152.33 301.96,-149.39 307,-146 326.85,-132.65 322.84,-118.87 343,-106 346.33,-103.87 349.93,-101.98 353.64,-100.31"/>
<polygon fill="#63b8ff" stroke="#63b8ff" points="355.04,-103.52 363.04,-96.57 352.46,-97.02 355.04,-103.52"/>
</g>
<!-- Node8 -->
<g id="node8" class="node">
<title>Node8</title>
<g id="a_node8"><a xlink:href="namespacea60.html#ac7eddb2e330d8983ddc852edde5335c5" target="_top" xlink:title=" ">
<polygon fill="white" stroke="#666666" points="462,-61.5 343,-61.5 343,-44.5 462,-44.5 462,-61.5"/>
<text text-anchor="middle" x="402.5" y="-51.1" font-family="SourceSans" font-size="8.00">a60::to_lowercase_string</text>
</a>
</g>
</g>
<!-- Node2&#45;&gt;Node8 -->
<g id="edge7" class="edge">
<title>Node2&#45;&gt;Node8</title>
<path fill="none" stroke="#63b8ff" d="M294.06,-154.9C298.74,-152.42 303.17,-149.48 307,-146 334.67,-120.87 314.55,-94.24 343,-70 344.54,-68.69 346.18,-67.48 347.89,-66.36"/>
<polygon fill="#63b8ff" stroke="#63b8ff" points="349.77,-69.32 356.94,-61.52 346.47,-63.15 349.77,-69.32"/>
</g>
<!-- Node9 -->
<g id="node9" class="node">
<title>Node9</title>
<g id="a_node9"><a xlink:href="namespacea60.html#a751f954fe64233f1dc6517220e4b5692" target="_top" xlink:title=" ">
<polygon fill="white" stroke="#666666" points="456,-246.5 349,-246.5 349,-229.5 456,-229.5 456,-246.5"/>
<text text-anchor="middle" x="402.5" y="-236.1" font-family="SourceSans" font-size="8.00">a60::to_replace_string</text>
</a>
</g>
</g>
<!-- Node2&#45;&gt;Node9 -->
<g id="edge8" class="edge">
<title>Node2&#45;&gt;Node9</title>
<path fill="none" stroke="#63b8ff" d="M266.92,-181.17C286.13,-192.84 315.68,-209.73 343,-221 347.71,-222.94 352.71,-224.76 357.74,-226.42"/>
<polygon fill="#63b8ff" stroke="#63b8ff" points="356.76,-229.78 367.35,-229.43 358.85,-223.1 356.76,-229.78"/>
</g>
<!-- Node11 -->
<g id="node11" class="node">
<title>Node11</title>
<g id="a_node11"><a xlink:href="namespacea60.html#a538d43bb9bfa488a54cea929736dbe2d" target="_top" xlink:title="Deserialize input file.">
<polygon fill="white" stroke="#666666" points="454.5,-26 350.5,-26 350.5,0 454.5,0 454.5,-26"/>
<text text-anchor="start" x="358.5" y="-15.6" font-family="SourceSans" font-size="8.00">a60::deserialize_json</text>
<text text-anchor="middle" x="402.5" y="-6.6" font-family="SourceSans" font-size="8.00">_to_dom</text>
</a>
</g>
</g>
<!-- Node10&#45;&gt;Node11 -->
<g id="edge10" class="edge">
<title>Node10&#45;&gt;Node11</title>
<path fill="none" stroke="#63b8ff" d="M293.58,-110.86C298.4,-108.39 302.99,-105.46 307,-102 332.59,-79.92 317.56,-57.26 343,-35 344.5,-33.69 346.09,-32.45 347.74,-31.28"/>
<polygon fill="#63b8ff" stroke="#63b8ff" points="349.7,-34.19 356.46,-26.02 346.09,-28.19 349.7,-34.19"/>
</g>
<!-- Node12&#45;&gt;Node4 -->
<g id="edge13" class="edge">
<title>Node12&#45;&gt;Node4</title>
<path fill="none" stroke="#63b8ff" d="M304.79,-273C314.43,-273 324.48,-273 334.3,-273"/>
<polygon fill="#63b8ff" stroke="#63b8ff" points="334.43,-276.5 344.43,-273 334.43,-269.5 334.43,-276.5"/>
</g>
<!-- Node12&#45;&gt;Node9 -->
<g id="edge15" class="edge">
<title>Node12&#45;&gt;Node9</title>
<path fill="none" stroke="#63b8ff" d="M303.9,-259.97C320.19,-256.3 337.73,-252.35 353.38,-248.83"/>
<polygon fill="#63b8ff" stroke="#63b8ff" points="354.38,-252.19 363.37,-246.58 352.84,-245.36 354.38,-252.19"/>
</g>
<!-- Node13 -->
<g id="node13" class="node">
<title>Node13</title>
<g id="a_node13"><a xlink:href="namespacea60_1_1constants.html#a2fd5efb0c88809132a730787d05a080a" target="_top" xlink:title=" ">
<polygon fill="white" stroke="#666666" points="460,-351.5 345,-351.5 345,-334.5 460,-334.5 460,-351.5"/>
<text text-anchor="middle" x="402.5" y="-341.1" font-family="SourceSans" font-size="8.00">a60::constants::comma</text>
</a>
</g>
</g>
<!-- Node12&#45;&gt;Node13 -->
<g id="edge12" class="edge">
<title>Node12&#45;&gt;Node13</title>
<path fill="none" stroke="#63b8ff" d="M266.92,-286.17C286.13,-297.84 315.68,-314.73 343,-326 347.71,-327.94 352.71,-329.76 357.74,-331.42"/>
<polygon fill="#63b8ff" stroke="#63b8ff" points="356.76,-334.78 367.35,-334.43 358.85,-328.1 356.76,-334.78"/>
</g>
<!-- Node14 -->
<g id="node14" class="node">
<title>Node14</title>
<g id="a_node14"><a xlink:href="namespacea60_1_1constants.html#a4eca9d522711df25806d6dd1ff38e904" target="_top" xlink:title=" ">
<polygon fill="white" stroke="#666666" points="457.5,-316.5 347.5,-316.5 347.5,-299.5 457.5,-299.5 457.5,-316.5"/>
<text text-anchor="middle" x="402.5" y="-306.1" font-family="SourceSans" font-size="8.00">a60::constants::space</text>
</a>
</g>
</g>
<!-- Node12&#45;&gt;Node14 -->
<g id="edge14" class="edge">
<title>Node12&#45;&gt;Node14</title>
<path fill="none" stroke="#63b8ff" d="M303.9,-286.03C320.19,-289.7 337.73,-293.65 353.38,-297.17"/>
<polygon fill="#63b8ff" stroke="#63b8ff" points="352.84,-300.64 363.37,-299.42 354.38,-293.81 352.84,-300.64"/>
</g>
</g>
</svg>
