<?xml version="1.0" encoding="UTF-8" standalone="no"?>
<!DOCTYPE svg PUBLIC "-//W3C//DTD SVG 1.1//EN"
 "http://www.w3.org/Graphics/SVG/1.1/DTD/svg11.dtd">
<!-- Generated by graphviz version 5.0.0 (0)
 -->
<!-- Title: a60::augment_filenames Pages: 1 -->
<svg width="440pt" height="158pt"
 viewBox="0.00 0.00 440.00 157.50" xmlns="http://www.w3.org/2000/svg" xmlns:xlink="http://www.w3.org/1999/xlink">
<g id="graph0" class="graph" transform="scale(1 1) rotate(0) translate(4 153.5)">
<title>a60::augment_filenames</title>
<!-- Node1 -->
<g id="node1" class="node">
<title>Node1</title>
<g id="a_node1"><a xlink:title=" ">
<polygon fill="#999999" stroke="#666666" points="119,-79 0,-79 0,-62 119,-62 119,-79"/>
<text text-anchor="middle" x="59.5" y="-68.6" font-family="SourceSans" font-size="8.00">a60::augment_filenames</text>
</a>
</g>
</g>
<!-- Node2 -->
<g id="node2" class="node">
<title>Node2</title>
<g id="a_node2"><a xlink:href="namespacea60.html#a509aad812b39c14aec23d7c28a1bbab1" target="_top" xlink:title=" ">
<polygon fill="white" stroke="#666666" points="274,-105.5 155,-105.5 155,-79.5 274,-79.5 274,-105.5"/>
<text text-anchor="start" x="163" y="-95.1" font-family="SourceSans" font-size="8.00">a60::augment_collection</text>
<text text-anchor="middle" x="214.5" y="-86.1" font-family="SourceSans" font-size="8.00">_titles_4</text>
</a>
</g>
</g>
<!-- Node1&#45;&gt;Node2 -->
<g id="edge1" class="edge">
<title>Node1&#45;&gt;Node2</title>
<path fill="none" stroke="#63b8ff" d="M119.22,-78.94C127.64,-80.15 136.36,-81.41 144.95,-82.64"/>
<polygon fill="#63b8ff" stroke="#63b8ff" points="144.54,-86.12 154.94,-84.08 145.54,-79.19 144.54,-86.12"/>
</g>
<!-- Node5 -->
<g id="node5" class="node">
<title>Node5</title>
<g id="a_node5"><a xlink:href="namespacea60.html#a61b26883af598131fd53cf60addf2a48" target="_top" xlink:title=" ">
<polygon fill="white" stroke="#666666" points="274,-149.5 155,-149.5 155,-123.5 274,-123.5 274,-149.5"/>
<text text-anchor="start" x="163" y="-139.1" font-family="SourceSans" font-size="8.00">a60::augment_filenames</text>
<text text-anchor="middle" x="214.5" y="-130.1" font-family="SourceSans" font-size="8.00">_per_page</text>
</a>
</g>
</g>
<!-- Node1&#45;&gt;Node5 -->
<g id="edge4" class="edge">
<title>Node1&#45;&gt;Node5</title>
<path fill="none" stroke="#63b8ff" d="M77.74,-79.01C96.55,-88.18 127.64,-103 155,-114.5 159.16,-116.25 163.52,-118.01 167.9,-119.74"/>
<polygon fill="#63b8ff" stroke="#63b8ff" points="166.85,-123.08 177.44,-123.43 169.38,-116.56 166.85,-123.08"/>
</g>
<!-- Node6 -->
<g id="node6" class="node">
<title>Node6</title>
<g id="a_node6"><a xlink:href="namespacea60.html#ab8e4135bf0b91ea44a27a6fcb7a648e4" target="_top" xlink:title=" ">
<polygon fill="white" stroke="#666666" points="259.5,-61.5 169.5,-61.5 169.5,-35.5 259.5,-35.5 259.5,-61.5"/>
<text text-anchor="start" x="177.5" y="-51.1" font-family="SourceSans" font-size="8.00">a60::get_intertitle</text>
<text text-anchor="middle" x="214.5" y="-42.1" font-family="SourceSans" font-size="8.00">_render_state</text>
</a>
</g>
</g>
<!-- Node1&#45;&gt;Node6 -->
<g id="edge6" class="edge">
<title>Node1&#45;&gt;Node6</title>
<path fill="none" stroke="#63b8ff" d="M119.22,-62.06C132.38,-60.16 146.29,-58.16 159.27,-56.3"/>
<polygon fill="#63b8ff" stroke="#63b8ff" points="160.04,-59.72 169.44,-54.84 159.04,-52.79 160.04,-59.72"/>
</g>
<!-- Node7 -->
<g id="node7" class="node">
<title>Node7</title>
<g id="a_node7"><a xlink:href="namespacea60.html#a1bf91ba66297e089d99c49d6a376c0ad" target="_top" xlink:title="NEW STYLE First composite with map, black on white.">
<polygon fill="white" stroke="#666666" points="267.5,-17 161.5,-17 161.5,0 267.5,0 267.5,-17"/>
<text text-anchor="middle" x="214.5" y="-6.6" font-family="SourceSans" font-size="8.00">a60::make_map_base</text>
</a>
</g>
</g>
<!-- Node1&#45;&gt;Node7 -->
<g id="edge7" class="edge">
<title>Node1&#45;&gt;Node7</title>
<path fill="none" stroke="#63b8ff" d="M77.27,-61.84C95.93,-52.4 127.13,-37.22 155,-26.5 160.86,-24.25 167.13,-22.08 173.3,-20.07"/>
<polygon fill="#63b8ff" stroke="#63b8ff" points="174.38,-23.4 182.87,-17.06 172.28,-16.72 174.38,-23.4"/>
</g>
<!-- Node3 -->
<g id="node3" class="node">
<title>Node3</title>
<g id="a_node3"><a xlink:href="namespacea60_1_1carto.html#af59ef7858ef576e7f17b781f38436f28" target="_top" xlink:title=" ">
<polygon fill="white" stroke="#666666" points="432,-143 310,-143 310,-126 432,-126 432,-143"/>
<text text-anchor="middle" x="371" y="-132.6" font-family="SourceSans" font-size="8.00">a60::carto::frame_margin</text>
</a>
</g>
</g>
<!-- Node2&#45;&gt;Node3 -->
<g id="edge2" class="edge">
<title>Node2&#45;&gt;Node3</title>
<path fill="none" stroke="#63b8ff" d="M263.54,-105.56C284.45,-111.24 308.72,-117.84 328.8,-123.3"/>
<polygon fill="#63b8ff" stroke="#63b8ff" points="328.01,-126.71 338.58,-125.96 329.85,-119.96 328.01,-126.71"/>
</g>
<!-- Node4 -->
<g id="node4" class="node">
<title>Node4</title>
<g id="a_node4"><a xlink:href="structa60_1_1collection.html#a4b5f4e6148e18b08ccc033e200327cdf" target="_top" xlink:title="Display/output name for torrent collection, including partition, episode/multiepisode,...">
<polygon fill="white" stroke="#666666" points="426,-105.5 316,-105.5 316,-79.5 426,-79.5 426,-105.5"/>
<text text-anchor="start" x="324" y="-95.1" font-family="SourceSans" font-size="8.00">a60::collection::media</text>
<text text-anchor="middle" x="371" y="-86.1" font-family="SourceSans" font-size="8.00">_object_name</text>
</a>
</g>
</g>
<!-- Node2&#45;&gt;Node4 -->
<g id="edge3" class="edge">
<title>Node2&#45;&gt;Node4</title>
<path fill="none" stroke="#63b8ff" d="M274.35,-92.5C284.58,-92.5 295.27,-92.5 305.65,-92.5"/>
<polygon fill="#63b8ff" stroke="#63b8ff" points="305.88,-96 315.88,-92.5 305.88,-89 305.88,-96"/>
</g>
<!-- Node5&#45;&gt;Node3 -->
<g id="edge5" class="edge">
<title>Node5&#45;&gt;Node3</title>
<path fill="none" stroke="#63b8ff" d="M274.35,-135.74C282.6,-135.63 291.14,-135.52 299.57,-135.41"/>
<polygon fill="#63b8ff" stroke="#63b8ff" points="299.82,-138.91 309.78,-135.28 299.73,-131.91 299.82,-138.91"/>
</g>
<!-- Node8 -->
<g id="node8" class="node">
<title>Node8</title>
<g id="a_node8"><a xlink:href="namespacea60.html#a63203aef78ad674129103340323d3b63" target="_top" xlink:title="First layer.">
<polygon fill="white" stroke="#666666" points="432,-17 310,-17 310,0 432,0 432,-17"/>
<text text-anchor="middle" x="371" y="-6.6" font-family="SourceSans" font-size="8.00">a60::place_map_in_frame</text>
</a>
</g>
</g>
<!-- Node7&#45;&gt;Node8 -->
<g id="edge8" class="edge">
<title>Node7&#45;&gt;Node8</title>
<path fill="none" stroke="#63b8ff" d="M267.81,-8.5C278.02,-8.5 288.89,-8.5 299.58,-8.5"/>
<polygon fill="#63b8ff" stroke="#63b8ff" points="299.75,-12 309.75,-8.5 299.75,-5 299.75,-12"/>
</g>
</g>
</svg>
