<?xml version="1.0" encoding="UTF-8" standalone="no"?>
<!DOCTYPE svg PUBLIC "-//W3C//DTD SVG 1.1//EN"
 "http://www.w3.org/Graphics/SVG/1.1/DTD/svg11.dtd">
<!-- Generated by graphviz version 5.0.0 (0)
 -->
<!-- Title: a60::metadata::country_code_glyph_v2 Pages: 1 -->
<svg width="391pt" height="34pt"
 viewBox="0.00 0.00 391.00 34.00" xmlns="http://www.w3.org/2000/svg" xmlns:xlink="http://www.w3.org/1999/xlink">
<g id="graph0" class="graph" transform="scale(1 1) rotate(0) translate(4 30)">
<title>a60::metadata::country_code_glyph_v2</title>
<!-- Node1 -->
<g id="node1" class="node">
<title>Node1</title>
<g id="a_node1"><a xlink:title="Country code variant 2: Top to bottom, display vertical.">
<polygon fill="#999999" stroke="#666666" points="115,-26 0,-26 0,0 115,0 115,-26"/>
<text text-anchor="start" x="8" y="-15.6" font-family="SourceSans" font-size="8.00">a60::metadata::country</text>
<text text-anchor="middle" x="57.5" y="-6.6" font-family="SourceSans" font-size="8.00">_code_glyph_v2</text>
</a>
</g>
</g>
<!-- Node2 -->
<g id="node2" class="node">
<title>Node2</title>
<g id="a_node2"><a xlink:href="namespacea60_1_1metadata.html#aeba42336cc4f30ed9ee705111d3e82a9" target="_top" xlink:title="Typographic defaults for text labels.">
<polygon fill="white" stroke="#666666" points="249,-26 151,-26 151,0 249,0 249,-26"/>
<text text-anchor="start" x="159" y="-15.6" font-family="SourceSans" font-size="8.00">a60::metadata::get</text>
<text text-anchor="middle" x="200" y="-6.6" font-family="SourceSans" font-size="8.00">_metadata_typo</text>
</a>
</g>
</g>
<!-- Node1&#45;&gt;Node2 -->
<g id="edge1" class="edge">
<title>Node1&#45;&gt;Node2</title>
<path fill="none" stroke="#63b8ff" d="M115.24,-13C123.58,-13 132.18,-13 140.55,-13"/>
<polygon fill="#63b8ff" stroke="#63b8ff" points="140.62,-16.5 150.62,-13 140.62,-9.5 140.62,-16.5"/>
</g>
<!-- Node3 -->
<g id="node3" class="node">
<title>Node3</title>
<g id="a_node3"><a xlink:href="namespacea60_1_1metadata.html#abcd6d192e6ed0f853c3c6cd9bcf13cad" target="_top" xlink:title=" ">
<polygon fill="white" stroke="#666666" points="383,-26 285,-26 285,0 383,0 383,-26"/>
<text text-anchor="start" x="293" y="-15.6" font-family="SourceSans" font-size="8.00">a60::metadata::get</text>
<text text-anchor="middle" x="334" y="-6.6" font-family="SourceSans" font-size="8.00">_metadata_style</text>
</a>
</g>
</g>
<!-- Node2&#45;&gt;Node3 -->
<g id="edge2" class="edge">
<title>Node2&#45;&gt;Node3</title>
<path fill="none" stroke="#63b8ff" d="M249.03,-13C257.31,-13 266,-13 274.52,-13"/>
<polygon fill="#63b8ff" stroke="#63b8ff" points="274.79,-16.5 284.79,-13 274.79,-9.5 274.79,-16.5"/>
</g>
</g>
</svg>
