<?xml version="1.0" encoding="UTF-8" standalone="no"?>
<!DOCTYPE svg PUBLIC "-//W3C//DTD SVG 1.1//EN"
 "http://www.w3.org/Graphics/SVG/1.1/DTD/svg11.dtd">
<!-- Generated by graphviz version 5.0.0 (0)
 -->
<!-- Title: a60::metadata::composite_z_glyph Pages: 1 -->
<svg width="581pt" height="122pt"
 viewBox="0.00 0.00 581.00 122.00" xmlns="http://www.w3.org/2000/svg" xmlns:xlink="http://www.w3.org/1999/xlink">
<g id="graph0" class="graph" transform="scale(1 1) rotate(0) translate(4 118)">
<title>a60::metadata::composite_z_glyph</title>
<!-- Node1 -->
<g id="node1" class="node">
<title>Node1</title>
<g id="a_node1"><a xlink:title="Z/species glyph.">
<polygon fill="#999999" stroke="#666666" points="127,-70 0,-70 0,-44 127,-44 127,-70"/>
<text text-anchor="start" x="8" y="-59.6" font-family="SourceSans" font-size="8.00">a60::metadata::composite</text>
<text text-anchor="middle" x="63.5" y="-50.6" font-family="SourceSans" font-size="8.00">_z_glyph</text>
</a>
</g>
</g>
<!-- Node2 -->
<g id="node2" class="node">
<title>Node2</title>
<g id="a_node2"><a xlink:href="namespacea60_1_1metadata.html#a5570579c703597755acb69f31662661b" target="_top" xlink:title="Species (z, the unknown) glyph.">
<polygon fill="white" stroke="#666666" points="278.5,-114 168.5,-114 168.5,-88 278.5,-88 278.5,-114"/>
<text text-anchor="start" x="176.5" y="-103.6" font-family="SourceSans" font-size="8.00">a60::metadata::render</text>
<text text-anchor="middle" x="223.5" y="-94.6" font-family="SourceSans" font-size="8.00">_z_glyph</text>
</a>
</g>
</g>
<!-- Node1&#45;&gt;Node2 -->
<g id="edge1" class="edge">
<title>Node1&#45;&gt;Node2</title>
<path fill="none" stroke="#63b8ff" d="M111.48,-70.08C128.59,-74.85 148.12,-80.29 165.98,-85.26"/>
<polygon fill="#63b8ff" stroke="#63b8ff" points="165.13,-88.66 175.7,-87.97 167.01,-81.91 165.13,-88.66"/>
</g>
<!-- Node3 -->
<g id="node3" class="node">
<title>Node3</title>
<g id="a_node3"><a xlink:href="namespacea60_1_1metadata.html#adc2e2f567c754963b5e5b5ca3960798e" target="_top" xlink:title="Input string vector @values is the vector of string field values from one field, say character&#45;lead&#45;1...">
<polygon fill="white" stroke="#666666" points="284,-70 163,-70 163,-44 284,-44 284,-70"/>
<text text-anchor="start" x="171" y="-59.6" font-family="SourceSans" font-size="8.00">a60::metadata::separate</text>
<text text-anchor="middle" x="223.5" y="-50.6" font-family="SourceSans" font-size="8.00">_playing_values</text>
</a>
</g>
</g>
<!-- Node1&#45;&gt;Node3 -->
<g id="edge2" class="edge">
<title>Node1&#45;&gt;Node3</title>
<path fill="none" stroke="#63b8ff" d="M127.4,-57C135.72,-57 144.29,-57 152.72,-57"/>
<polygon fill="#63b8ff" stroke="#63b8ff" points="152.9,-60.5 162.9,-57 152.9,-53.5 152.9,-60.5"/>
</g>
<!-- Node4 -->
<g id="node4" class="node">
<title>Node4</title>
<g id="a_node4"><a xlink:href="namespacea60_1_1metadata.html#a5156bb42291c8eb54dc6ddef8688be1e" target="_top" xlink:title="Split playing value into actor &#45;&gt; LHS of playing &quot;person&quot; role &#45;&gt; RHS of playing &quot;persona&quot; NB: Each s...">
<polygon fill="white" stroke="#666666" points="274,-26 173,-26 173,0 274,0 274,-26"/>
<text text-anchor="start" x="181" y="-15.6" font-family="SourceSans" font-size="8.00">a60::metadata::split</text>
<text text-anchor="middle" x="223.5" y="-6.6" font-family="SourceSans" font-size="8.00">_playing_value</text>
</a>
</g>
</g>
<!-- Node1&#45;&gt;Node4 -->
<g id="edge3" class="edge">
<title>Node1&#45;&gt;Node4</title>
<path fill="none" stroke="#63b8ff" d="M111.48,-43.92C128.59,-39.15 148.12,-33.71 165.98,-28.74"/>
<polygon fill="#63b8ff" stroke="#63b8ff" points="167.01,-32.09 175.7,-26.03 165.13,-25.34 167.01,-32.09"/>
</g>
<!-- Node5 -->
<g id="node5" class="node">
<title>Node5</title>
<g id="a_node5"><a xlink:href="namespacea60_1_1metadata.html#acd47cfb00b07af853234227fdaa04cf9" target="_top" xlink:title="Convert a comma&#45;space&#45;separated list of strings to a vector of strings.">
<polygon fill="white" stroke="#666666" points="422,-26 320,-26 320,0 422,0 422,-26"/>
<text text-anchor="start" x="328" y="-15.6" font-family="SourceSans" font-size="8.00">a60::metadata::cssv</text>
<text text-anchor="middle" x="371" y="-6.6" font-family="SourceSans" font-size="8.00">_string_to_strings</text>
</a>
</g>
</g>
<!-- Node4&#45;&gt;Node5 -->
<g id="edge4" class="edge">
<title>Node4&#45;&gt;Node5</title>
<path fill="none" stroke="#63b8ff" d="M274.17,-13C285.5,-13 297.67,-13 309.4,-13"/>
<polygon fill="#63b8ff" stroke="#63b8ff" points="309.57,-16.5 319.57,-13 309.57,-9.5 309.57,-16.5"/>
</g>
<!-- Node6 -->
<g id="node6" class="node">
<title>Node6</title>
<g id="a_node6"><a xlink:href="namespacea60_1_1constants.html#a2fd5efb0c88809132a730787d05a080a" target="_top" xlink:title=" ">
<polygon fill="white" stroke="#666666" points="573,-21.5 458,-21.5 458,-4.5 573,-4.5 573,-21.5"/>
<text text-anchor="middle" x="515.5" y="-11.1" font-family="SourceSans" font-size="8.00">a60::constants::comma</text>
</a>
</g>
</g>
<!-- Node5&#45;&gt;Node6 -->
<g id="edge5" class="edge">
<title>Node5&#45;&gt;Node6</title>
<path fill="none" stroke="#63b8ff" d="M422.24,-13C430.53,-13 439.24,-13 447.86,-13"/>
<polygon fill="#63b8ff" stroke="#63b8ff" points="447.91,-16.5 457.91,-13 447.91,-9.5 447.91,-16.5"/>
</g>
</g>
</svg>
