<?xml version="1.0" encoding="UTF-8" standalone="no"?>
<!DOCTYPE svg PUBLIC "-//W3C//DTD SVG 1.1//EN"
 "http://www.w3.org/Graphics/SVG/1.1/DTD/svg11.dtd">
<!-- Generated by graphviz version 5.0.0 (0)
 -->
<!-- Title: a60::metadata::render_ids_text_x Pages: 1 -->
<svg width="404pt" height="142pt"
 viewBox="0.00 0.00 404.00 142.00" xmlns="http://www.w3.org/2000/svg" xmlns:xlink="http://www.w3.org/1999/xlink">
<g id="graph0" class="graph" transform="scale(1 1) rotate(0) translate(4 138)">
<title>a60::metadata::render_ids_text_x</title>
<!-- Node1 -->
<g id="node1" class="node">
<title>Node1</title>
<g id="a_node1"><a xlink:title="Text grow&#45;up columns, horizontal with values (LHS) and values playing (RHS). Entry point specialized ...">
<polygon fill="#999999" stroke="#666666" points="110,-92 0,-92 0,-66 110,-66 110,-92"/>
<text text-anchor="start" x="8" y="-81.6" font-family="SourceSans" font-size="8.00">a60::metadata::render</text>
<text text-anchor="middle" x="55" y="-72.6" font-family="SourceSans" font-size="8.00">_ids_text_x</text>
</a>
</g>
</g>
<!-- Node2 -->
<g id="node2" class="node">
<title>Node2</title>
<g id="a_node2"><a xlink:href="namespacea60_1_1metadata.html#abcd6d192e6ed0f853c3c6cd9bcf13cad" target="_top" xlink:title=" ">
<polygon fill="white" stroke="#666666" points="396,-134 298,-134 298,-108 396,-108 396,-134"/>
<text text-anchor="start" x="306" y="-123.6" font-family="SourceSans" font-size="8.00">a60::metadata::get</text>
<text text-anchor="middle" x="347" y="-114.6" font-family="SourceSans" font-size="8.00">_metadata_style</text>
</a>
</g>
</g>
<!-- Node1&#45;&gt;Node2 -->
<g id="edge1" class="edge">
<title>Node1&#45;&gt;Node2</title>
<path fill="none" stroke="#63b8ff" d="M76.09,-92.15C93.7,-102.84 120.41,-117.08 146,-123 192.68,-133.8 247.15,-132.38 287.44,-128.77"/>
<polygon fill="#63b8ff" stroke="#63b8ff" points="288.01,-132.23 297.63,-127.78 287.34,-125.26 288.01,-132.23"/>
</g>
<!-- Node3 -->
<g id="node3" class="node">
<title>Node3</title>
<g id="a_node3"><a xlink:href="namespacea60_1_1metadata.html#aeba42336cc4f30ed9ee705111d3e82a9" target="_top" xlink:title="Typographic defaults for text labels.">
<polygon fill="white" stroke="#666666" points="253,-114 155,-114 155,-88 253,-88 253,-114"/>
<text text-anchor="start" x="163" y="-103.6" font-family="SourceSans" font-size="8.00">a60::metadata::get</text>
<text text-anchor="middle" x="204" y="-94.6" font-family="SourceSans" font-size="8.00">_metadata_typo</text>
</a>
</g>
</g>
<!-- Node1&#45;&gt;Node3 -->
<g id="edge2" class="edge">
<title>Node1&#45;&gt;Node3</title>
<path fill="none" stroke="#63b8ff" d="M110.32,-87.13C121.47,-88.8 133.24,-90.56 144.53,-92.25"/>
<polygon fill="#63b8ff" stroke="#63b8ff" points="144.31,-95.76 154.72,-93.77 145.35,-88.83 144.31,-95.76"/>
</g>
<!-- Node4 -->
<g id="node4" class="node">
<title>Node4</title>
<g id="a_node4"><a xlink:href="namespacea60_1_1metadata.html#ab809b870c71701237f98849a7fe94a35" target="_top" xlink:title="Substitue &quot;&#45;&gt;&quot; for &quot;playing&quot; in input string s.">
<polygon fill="white" stroke="#666666" points="262,-70 146,-70 146,-44 262,-44 262,-70"/>
<text text-anchor="start" x="154" y="-59.6" font-family="SourceSans" font-size="8.00">a60::metadata::shorten</text>
<text text-anchor="middle" x="204" y="-50.6" font-family="SourceSans" font-size="8.00">_playing_value</text>
</a>
</g>
</g>
<!-- Node1&#45;&gt;Node4 -->
<g id="edge4" class="edge">
<title>Node1&#45;&gt;Node4</title>
<path fill="none" stroke="#63b8ff" d="M110.32,-70.87C118.67,-69.62 127.37,-68.32 135.95,-67.03"/>
<polygon fill="#63b8ff" stroke="#63b8ff" points="136.58,-70.48 145.95,-65.54 135.54,-63.56 136.58,-70.48"/>
</g>
<!-- Node5 -->
<g id="node5" class="node">
<title>Node5</title>
<g id="a_node5"><a xlink:href="namespacea60_1_1metadata.html#a841cf4a54bf053a6f8b77d8254053548" target="_top" xlink:title="Text moving up.">
<polygon fill="white" stroke="#666666" points="253.5,-26 154.5,-26 154.5,0 253.5,0 253.5,-26"/>
<text text-anchor="start" x="162.5" y="-15.6" font-family="SourceSans" font-size="8.00">a60::metadata::text</text>
<text text-anchor="middle" x="204" y="-6.6" font-family="SourceSans" font-size="8.00">_grow_up_from</text>
</a>
</g>
</g>
<!-- Node1&#45;&gt;Node5 -->
<g id="edge5" class="edge">
<title>Node1&#45;&gt;Node5</title>
<path fill="none" stroke="#63b8ff" d="M81.33,-65.89C99.21,-56.81 123.84,-44.67 146,-35 150.05,-33.23 154.28,-31.46 158.54,-29.73"/>
<polygon fill="#63b8ff" stroke="#63b8ff" points="159.85,-32.98 167.84,-26.02 157.25,-26.48 159.85,-32.98"/>
</g>
<!-- Node3&#45;&gt;Node2 -->
<g id="edge3" class="edge">
<title>Node3&#45;&gt;Node2</title>
<path fill="none" stroke="#63b8ff" d="M253.13,-107.83C264.24,-109.4 276.17,-111.09 287.66,-112.72"/>
<polygon fill="#63b8ff" stroke="#63b8ff" points="287.22,-116.2 297.61,-114.14 288.2,-109.27 287.22,-116.2"/>
</g>
</g>
</svg>
