<?xml version="1.0" encoding="UTF-8" standalone="no"?>
<!DOCTYPE svg PUBLIC "-//W3C//DTD SVG 1.1//EN"
 "http://www.w3.org/Graphics/SVG/1.1/DTD/svg11.dtd">
<!-- Generated by graphviz version 5.0.0 (0)
 -->
<!-- Title: a60::augment_carto_fiber Pages: 1 -->
<!--zoomable 342 -->
<svg id="main" version="1.1" xmlns="http://www.w3.org/2000/svg" xmlns:xlink="http://www.w3.org/1999/xlink" xml:space="preserve" onload="init(evt)">
<style type="text/css"><![CDATA[
.edge:hover path { stroke: red; }
.edge:hover polygon { stroke: red; fill: red; }
]]></style>
<script type="text/javascript"><![CDATA[
var edges = document.getElementsByTagName('g');
if (edges && edges.length) {
  for (var i=0;i<edges.length;i++) {
    if (edges[i].id.substr(0,4)=='edge') {
      edges[i].setAttribute('class','edge');
    }
  }
}
]]></script>
        <defs>
                <circle id="rim" cx="0" cy="0" r="7"/>
                <circle id="rim2" cx="0" cy="0" r="3.5"/>
                <g id="zoomPlus">
                        <use xlink:href="#rim" fill="#404040">
                                <set attributeName="fill" to="#808080" begin="zoomplus.mouseover" end="zoomplus.mouseout"/>
                        </use>
                        <path d="M-4,0h8M0,-4v8" fill="none" stroke="white" stroke-width="1.5" pointer-events="none"/>
                </g>
                <g id="zoomMin">
                        <use xlink:href="#rim" fill="#404040">
                                <set attributeName="fill" to="#808080" begin="zoomminus.mouseover" end="zoomminus.mouseout"/>
                        </use>
                        <path d="M-4,0h8" fill="none" stroke="white" stroke-width="1.5" pointer-events="none"/>
                </g>
                <g id="dirArrow">
                        <path fill="none" stroke="white" stroke-width="1.5" d="M0,-3.0v7 M-2.5,-0.5L0,-3.0L2.5,-0.5"/>
                </g>
               <g id="resetDef">
                       <use xlink:href="#rim2" fill="#404040">
                               <set attributeName="fill" to="#808080" begin="reset.mouseover" end="reset.mouseout"/>
                       </use>
               </g>
        </defs>

<script type="text/javascript">
var viewWidth = 715;
var viewHeight = 342;
var sectionId = 'dynsection-7';
</script>
<script xlink:href="svgpan.js"/>
<svg id="graph" class="graph">
<g id="viewport">
<title>a60::augment_carto_fiber</title>
<!-- Node1 -->
<g id="node1" class="node">
<title>Node1</title>
<g id="a_node1"><a xlink:title="Augment Fiber / Submarine cables.">
<polygon fill="#999999" stroke="#666666" points="100,-117.5 0,-117.5 0,-91.5 100,-91.5 100,-117.5"/>
<text text-anchor="start" x="8" y="-107.1" font-family="SourceSans" font-size="8.00">a60::augment_carto</text>
<text text-anchor="middle" x="50" y="-98.1" font-family="SourceSans" font-size="8.00">_fiber</text>
</a>
</g>
</g>
<!-- Node2 -->
<g id="node2" class="node">
<title>Node2</title>
<g id="a_node2"><a xlink:href="namespacea60.html#ac8c1102be27b45984c799f968d7960e6" target="_top" xlink:title="Augment Fiber / Submarine cables, object version.">
<polygon fill="white" stroke="#666666" points="239,-137.5 139,-137.5 139,-111.5 239,-111.5 239,-137.5"/>
<text text-anchor="start" x="147" y="-127.1" font-family="SourceSans" font-size="8.00">a60::augment_carto</text>
<text text-anchor="middle" x="189" y="-118.1" font-family="SourceSans" font-size="8.00">_fiber</text>
</a>
</g>
</g>
<!-- Node1&#45;&gt;Node2 -->
<g id="edge1" class="edge">
<title>Node1&#45;&gt;Node2</title>
<path fill="none" stroke="#63b8ff" d="M100.07,-111.66C109.42,-113.03 119.29,-114.47 128.91,-115.87"/>
<polygon fill="#63b8ff" stroke="#63b8ff" points="128.41,-119.34 138.81,-117.32 129.42,-112.41 128.41,-119.34"/>
</g>
<!-- Node17 -->
<g id="node17" class="node">
<title>Node17</title>
<g id="a_node17"><a xlink:href="namespacea60.html#a1bf91ba66297e089d99c49d6a376c0ad" target="_top" xlink:title="NEW STYLE First composite with map, black on white.">
<polygon fill="white" stroke="#666666" points="242,-93 136,-93 136,-76 242,-76 242,-93"/>
<text text-anchor="middle" x="189" y="-82.6" font-family="SourceSans" font-size="8.00">a60::make_map_base</text>
</a>
</g>
</g>
<!-- Node1&#45;&gt;Node17 -->
<g id="edge20" class="edge">
<title>Node1&#45;&gt;Node17</title>
<path fill="none" stroke="#63b8ff" d="M100.07,-97.34C108.35,-96.13 117.04,-94.86 125.6,-93.61"/>
<polygon fill="#63b8ff" stroke="#63b8ff" points="126.17,-97.06 135.56,-92.16 125.16,-90.14 126.17,-97.06"/>
</g>
<!-- Node3 -->
<g id="node3" class="node">
<title>Node3</title>
<g id="a_node3"><a xlink:href="namespacea60.html#a32720df1709c77d01ac8d6100419d1d5" target="_top" xlink:title="Create paths that map out telecom cables from a single geo json file.">
<polygon fill="white" stroke="#666666" points="399.5,-130 278.5,-130 278.5,-113 399.5,-113 399.5,-130"/>
<text text-anchor="middle" x="339" y="-119.6" font-family="SourceSans" font-size="8.00">a60::fiber_paths_geojson</text>
</a>
</g>
</g>
<!-- Node2&#45;&gt;Node3 -->
<g id="edge2" class="edge">
<title>Node2&#45;&gt;Node3</title>
<path fill="none" stroke="#63b8ff" d="M239.28,-123.5C248.58,-123.31 258.47,-123.11 268.26,-122.91"/>
<polygon fill="#63b8ff" stroke="#63b8ff" points="268.46,-126.41 278.39,-122.71 268.32,-119.41 268.46,-126.41"/>
</g>
<!-- Node16 -->
<g id="node16" class="node">
<title>Node16</title>
<g id="a_node16"><a xlink:href="namespacea60_1_1io.html#ac95e5271a27a23bc2336d84b3f821fa2" target="_top" xlink:title="Constant filesystem and run&#45;time resources.">
<polygon fill="white" stroke="#666666" points="391,-174.5 287,-174.5 287,-148.5 391,-148.5 391,-174.5"/>
<text text-anchor="start" x="295" y="-164.1" font-family="SourceSans" font-size="8.00">a60::io::get_run_time</text>
<text text-anchor="middle" x="339" y="-155.1" font-family="SourceSans" font-size="8.00">_resources</text>
</a>
</g>
</g>
<!-- Node2&#45;&gt;Node16 -->
<g id="edge19" class="edge">
<title>Node2&#45;&gt;Node16</title>
<path fill="none" stroke="#63b8ff" d="M239.28,-136.82C251.36,-139.84 264.43,-143.11 276.98,-146.24"/>
<polygon fill="#63b8ff" stroke="#63b8ff" points="276.36,-149.7 286.91,-148.73 278.06,-142.91 276.36,-149.7"/>
</g>
<!-- Node4 -->
<g id="node4" class="node">
<title>Node4</title>
<g id="a_node4"><a xlink:href="namespacea60.html#af45982273a7a2e61b6aaa436081238c0" target="_top" xlink:title="Load JSON file to in&#45;memory DOM.">
<polygon fill="white" stroke="#666666" points="547,-286.5 443,-286.5 443,-260.5 547,-260.5 547,-286.5"/>
<text text-anchor="start" x="451" y="-276.1" font-family="SourceSans" font-size="8.00">a60::deserialize_json</text>
<text text-anchor="middle" x="495" y="-267.1" font-family="SourceSans" font-size="8.00">_to_dom_object</text>
</a>
</g>
</g>
<!-- Node3&#45;&gt;Node4 -->
<g id="edge3" class="edge">
<title>Node3&#45;&gt;Node4</title>
<path fill="none" stroke="#63b8ff" d="M383.36,-130.02C389.34,-132.43 395.1,-135.53 400,-139.5 425.95,-160.55 417.06,-177.98 436,-205.5 447.58,-222.33 462.59,-239.84 474.44,-252.87"/>
<polygon fill="#63b8ff" stroke="#63b8ff" points="472,-255.39 481.35,-260.36 477.15,-250.64 472,-255.39"/>
</g>
<!-- Node6 -->
<g id="node6" class="node">
<title>Node6</title>
<g id="a_node6"><a xlink:href="namespacea60_1_1carto.html#a970aeb8370891780c15e73fba0dc48bc" target="_top" xlink:title=" ">
<polygon fill="white" stroke="#666666" points="547,-196.5 443,-196.5 443,-170.5 547,-170.5 547,-196.5"/>
<text text-anchor="start" x="451" y="-186.1" font-family="SourceSans" font-size="8.00">a60::carto::fold_path</text>
<text text-anchor="middle" x="495" y="-177.1" font-family="SourceSans" font-size="8.00">_edges</text>
</a>
</g>
</g>
<!-- Node3&#45;&gt;Node6 -->
<g id="edge5" class="edge">
<title>Node3&#45;&gt;Node6</title>
<path fill="none" stroke="#63b8ff" d="M371.75,-130.06C380.96,-132.8 390.96,-136.03 400,-139.5 416.52,-145.84 419.98,-148.99 436,-156.5 442.71,-159.64 449.85,-162.98 456.76,-166.2"/>
<polygon fill="#63b8ff" stroke="#63b8ff" points="455.42,-169.44 465.96,-170.48 458.37,-163.09 455.42,-169.44"/>
</g>
<!-- Node8 -->
<g id="node8" class="node">
<title>Node8</title>
<g id="a_node8"><a xlink:href="namespacea60_1_1constants.html#ac27c77e4606552ae5f74a1c21dd9258e" target="_top" xlink:title=" ">
<polygon fill="white" stroke="#666666" points="707,-112 590,-112 590,-95 707,-95 707,-112"/>
<text text-anchor="middle" x="648.5" y="-101.6" font-family="SourceSans" font-size="8.00">a60::constants::newline</text>
</a>
</g>
</g>
<!-- Node3&#45;&gt;Node8 -->
<g id="edge12" class="edge">
<title>Node3&#45;&gt;Node8</title>
<path fill="none" stroke="#63b8ff" d="M399.67,-125.71C442.7,-127.85 502.09,-128.99 554,-123.5 571.06,-121.7 589.59,-118.09 605.62,-114.43"/>
<polygon fill="#63b8ff" stroke="#63b8ff" points="606.82,-117.74 615.75,-112.03 605.21,-110.93 606.82,-117.74"/>
</g>
<!-- Node12 -->
<g id="node12" class="node">
<title>Node12</title>
<g id="a_node12"><a xlink:href="namespacea60.html#a3fdf876ab1d06c5cfd12a9018c231dd8" target="_top" xlink:title=" ">
<polygon fill="white" stroke="#666666" points="554,-114.5 436,-114.5 436,-88.5 554,-88.5 554,-114.5"/>
<text text-anchor="start" x="444" y="-104.1" font-family="SourceSans" font-size="8.00">a60::point_from_geojson</text>
<text text-anchor="middle" x="495" y="-95.1" font-family="SourceSans" font-size="8.00">_coordinate</text>
</a>
</g>
</g>
<!-- Node3&#45;&gt;Node12 -->
<g id="edge13" class="edge">
<title>Node3&#45;&gt;Node12</title>
<path fill="none" stroke="#63b8ff" d="M399.54,-113.77C408.12,-112.65 417,-111.5 425.73,-110.37"/>
<polygon fill="#63b8ff" stroke="#63b8ff" points="426.42,-113.81 435.88,-109.05 425.52,-106.86 426.42,-113.81"/>
</g>
<!-- Node14 -->
<g id="node14" class="node">
<title>Node14</title>
<g id="a_node14"><a xlink:href="namespacea60_1_1constants.html#a4eca9d522711df25806d6dd1ff38e904" target="_top" xlink:title=" ">
<polygon fill="white" stroke="#666666" points="550,-70 440,-70 440,-53 550,-53 550,-70"/>
<text text-anchor="middle" x="495" y="-59.6" font-family="SourceSans" font-size="8.00">a60::constants::space</text>
</a>
</g>
</g>
<!-- Node3&#45;&gt;Node14 -->
<g id="edge16" class="edge">
<title>Node3&#45;&gt;Node14</title>
<path fill="none" stroke="#63b8ff" d="M372.35,-112.96C381.48,-110.09 391.29,-106.57 400,-102.5 417.2,-94.45 418.78,-87.5 436,-79.5 440.96,-77.2 446.29,-75.09 451.64,-73.19"/>
<polygon fill="#63b8ff" stroke="#63b8ff" points="452.83,-76.48 461.21,-70 450.62,-69.84 452.83,-76.48"/>
</g>
<!-- Node15 -->
<g id="node15" class="node">
<title>Node15</title>
<g id="a_node15"><a xlink:href="namespacea60_1_1constants.html#a01d9786063fb572d9389b0cd207bbe53" target="_top" xlink:title=" ">
<polygon fill="white" stroke="#666666" points="544,-17 446,-17 446,0 544,0 544,-17"/>
<text text-anchor="middle" x="495" y="-6.6" font-family="SourceSans" font-size="8.00">a60::constants::tab</text>
</a>
</g>
</g>
<!-- Node3&#45;&gt;Node15 -->
<g id="edge17" class="edge">
<title>Node3&#45;&gt;Node15</title>
<path fill="none" stroke="#63b8ff" d="M380.71,-112.99C387.59,-110.37 394.32,-106.95 400,-102.5 424.18,-83.55 414.23,-65.17 436,-43.5 444.62,-34.93 455.73,-27.57 465.92,-21.85"/>
<polygon fill="#63b8ff" stroke="#63b8ff" points="467.73,-24.85 474.92,-17.06 464.45,-18.66 467.73,-24.85"/>
</g>
<!-- Node5 -->
<g id="node5" class="node">
<title>Node5</title>
<g id="a_node5"><a xlink:href="namespacea60.html#a538d43bb9bfa488a54cea929736dbe2d" target="_top" xlink:title="Deserialize input file.">
<polygon fill="white" stroke="#666666" points="700.5,-333.5 596.5,-333.5 596.5,-307.5 700.5,-307.5 700.5,-333.5"/>
<text text-anchor="start" x="604.5" y="-323.1" font-family="SourceSans" font-size="8.00">a60::deserialize_json</text>
<text text-anchor="middle" x="648.5" y="-314.1" font-family="SourceSans" font-size="8.00">_to_dom</text>
</a>
</g>
</g>
<!-- Node4&#45;&gt;Node5 -->
<g id="edge4" class="edge">
<title>Node4&#45;&gt;Node5</title>
<path fill="none" stroke="#63b8ff" d="M538.2,-286.59C556.1,-292.14 577.12,-298.67 595.92,-304.5"/>
<polygon fill="#63b8ff" stroke="#63b8ff" points="594.94,-307.86 605.53,-307.48 597.01,-301.17 594.94,-307.86"/>
</g>
<!-- Node7 -->
<g id="node7" class="node">
<title>Node7</title>
<g id="a_node7"><a xlink:href="namespacea60.html#a3c32f6c147e634c4b4c383aa09007d74" target="_top" xlink:title=" ">
<polygon fill="white" stroke="#666666" points="703.5,-192 593.5,-192 593.5,-175 703.5,-175 703.5,-192"/>
<text text-anchor="middle" x="648.5" y="-181.6" font-family="SourceSans" font-size="8.00">a60::distance_point_2t</text>
</a>
</g>
</g>
<!-- Node6&#45;&gt;Node7 -->
<g id="edge6" class="edge">
<title>Node6&#45;&gt;Node7</title>
<path fill="none" stroke="#63b8ff" d="M547.29,-183.5C558.89,-183.5 571.35,-183.5 583.41,-183.5"/>
<polygon fill="#63b8ff" stroke="#63b8ff" points="583.41,-187 593.41,-183.5 583.41,-180 583.41,-187"/>
</g>
<!-- Node6&#45;&gt;Node8 -->
<g id="edge7" class="edge">
<title>Node6&#45;&gt;Node8</title>
<path fill="none" stroke="#63b8ff" d="M528.96,-170.48C537.43,-166.52 546.32,-161.79 554,-156.5 572.37,-143.84 570.83,-132.92 590,-121.5 593.64,-119.33 597.57,-117.4 601.6,-115.68"/>
<polygon fill="#63b8ff" stroke="#63b8ff" points="603.02,-118.89 611.11,-112.05 600.52,-112.35 603.02,-118.89"/>
</g>
<!-- Node9 -->
<g id="node9" class="node">
<title>Node9</title>
<g id="a_node9"><a xlink:href="structa60_1_1carto_1_1cartography.html#a228cede7b1b2847024501cfdac0640ca" target="_top" xlink:title=" ">
<polygon fill="white" stroke="#666666" points="706,-156.5 591,-156.5 591,-130.5 706,-130.5 706,-156.5"/>
<text text-anchor="start" x="599" y="-146.1" font-family="SourceSans" font-size="8.00">a60::carto::cartography</text>
<text text-anchor="middle" x="648.5" y="-137.1" font-family="SourceSans" font-size="8.00">::point_to_x_quadrant</text>
</a>
</g>
</g>
<!-- Node6&#45;&gt;Node9 -->
<g id="edge8" class="edge">
<title>Node6&#45;&gt;Node9</title>
<path fill="none" stroke="#63b8ff" d="M545.61,-170.4C559.15,-166.83 573.96,-162.92 587.99,-159.21"/>
<polygon fill="#63b8ff" stroke="#63b8ff" points="589.27,-162.5 598.04,-156.56 587.48,-155.73 589.27,-162.5"/>
</g>
<!-- Node10 -->
<g id="node10" class="node">
<title>Node10</title>
<g id="a_node10"><a xlink:href="structa60_1_1carto_1_1cartography.html#a1f7b7d81b342346b52e5c6c9b9e3455a" target="_top" xlink:title="Top (h1) and bottom (h2) vertical.">
<polygon fill="white" stroke="#666666" points="706,-289.5 591,-289.5 591,-263.5 706,-263.5 706,-289.5"/>
<text text-anchor="start" x="599" y="-279.1" font-family="SourceSans" font-size="8.00">a60::carto::cartography</text>
<text text-anchor="middle" x="648.5" y="-270.1" font-family="SourceSans" font-size="8.00">::point_to_y_half</text>
</a>
</g>
</g>
<!-- Node6&#45;&gt;Node10 -->
<g id="edge9" class="edge">
<title>Node6&#45;&gt;Node10</title>
<path fill="none" stroke="#63b8ff" d="M510.72,-196.72C528.49,-212.17 559.77,-237.74 590,-254.5 593.04,-256.18 596.23,-257.79 599.49,-259.32"/>
<polygon fill="#63b8ff" stroke="#63b8ff" points="598.21,-262.59 608.78,-263.41 601.03,-256.18 598.21,-262.59"/>
</g>
<!-- Node11 -->
<g id="node11" class="node">
<title>Node11</title>
<g id="a_node11"><a xlink:href="namespacea60.html#a4e8b0cabed112734147b499bf0cc9029" target="_top" xlink:title="Conversion of resolution_mode to string.">
<polygon fill="white" stroke="#666666" points="685.5,-227 611.5,-227 611.5,-210 685.5,-210 685.5,-227"/>
<text text-anchor="middle" x="648.5" y="-216.6" font-family="SourceSans" font-size="8.00">a60::to_string</text>
</a>
</g>
</g>
<!-- Node6&#45;&gt;Node11 -->
<g id="edge10" class="edge">
<title>Node6&#45;&gt;Node11</title>
<path fill="none" stroke="#63b8ff" d="M547.29,-195.35C564.8,-199.39 584.26,-203.89 601.34,-207.84"/>
<polygon fill="#63b8ff" stroke="#63b8ff" points="600.56,-211.25 611.09,-210.09 602.14,-204.43 600.56,-211.25"/>
</g>
<!-- Node11&#45;&gt;Node11 -->
<g id="edge11" class="edge">
<title>Node11&#45;&gt;Node11</title>
<path fill="none" stroke="#63b8ff" d="M625.85,-227.19C613.34,-235.67 620.89,-245 648.5,-245 667.05,-245 676.54,-240.79 676.98,-235.45"/>
<polygon fill="#63b8ff" stroke="#63b8ff" points="679.77,-233.34 671.15,-227.19 674.06,-237.37 679.77,-233.34"/>
</g>
<!-- Node12&#45;&gt;Node8 -->
<g id="edge14" class="edge">
<title>Node12&#45;&gt;Node8</title>
<path fill="none" stroke="#63b8ff" d="M554.14,-102.27C562.45,-102.38 571.05,-102.49 579.52,-102.6"/>
<polygon fill="#63b8ff" stroke="#63b8ff" points="579.72,-106.11 589.77,-102.74 579.81,-99.11 579.72,-106.11"/>
</g>
<!-- Node13 -->
<g id="node13" class="node">
<title>Node13</title>
<g id="a_node13"><a xlink:href="structa60_1_1carto_1_1cartography.html#a57e14cabb4993189316e369a27752a73" target="_top" xlink:title=" ">
<polygon fill="white" stroke="#666666" points="706,-76.5 591,-76.5 591,-50.5 706,-50.5 706,-76.5"/>
<text text-anchor="start" x="599" y="-66.1" font-family="SourceSans" font-size="8.00">a60::carto::cartography</text>
<text text-anchor="middle" x="648.5" y="-57.1" font-family="SourceSans" font-size="8.00">::to_point_2d</text>
</a>
</g>
</g>
<!-- Node12&#45;&gt;Node13 -->
<g id="edge15" class="edge">
<title>Node12&#45;&gt;Node13</title>
<path fill="none" stroke="#63b8ff" d="M548.14,-88.42C560.23,-85.39 573.21,-82.13 585.67,-79.01"/>
<polygon fill="#63b8ff" stroke="#63b8ff" points="586.67,-82.36 595.52,-76.54 584.97,-75.58 586.67,-82.36"/>
</g>
<!-- Node15&#45;&gt;Node15 -->
<g id="edge18" class="edge">
<title>Node15&#45;&gt;Node15</title>
<path fill="none" stroke="#63b8ff" d="M472.35,-17.19C459.84,-25.67 467.39,-35 495,-35 513.55,-35 523.04,-30.79 523.48,-25.45"/>
<polygon fill="#63b8ff" stroke="#63b8ff" points="526.27,-23.34 517.65,-17.19 520.56,-27.37 526.27,-23.34"/>
</g>
<!-- Node18 -->
<g id="node18" class="node">
<title>Node18</title>
<g id="a_node18"><a xlink:href="namespacea60.html#a63203aef78ad674129103340323d3b63" target="_top" xlink:title="First layer.">
<polygon fill="white" stroke="#666666" points="400,-93 278,-93 278,-76 400,-76 400,-93"/>
<text text-anchor="middle" x="339" y="-82.6" font-family="SourceSans" font-size="8.00">a60::place_map_in_frame</text>
</a>
</g>
</g>
<!-- Node17&#45;&gt;Node18 -->
<g id="edge21" class="edge">
<title>Node17&#45;&gt;Node18</title>
<path fill="none" stroke="#63b8ff" d="M242.18,-84.5C250.49,-84.5 259.21,-84.5 267.86,-84.5"/>
<polygon fill="#63b8ff" stroke="#63b8ff" points="267.95,-88 277.95,-84.5 267.95,-81 267.95,-88"/>
</g>
</g>
</svg>
        <g id="navigator" transform="translate(0 0)" fill="#404254">
                <rect fill="#f2f5e9" fill-opacity="0.5" stroke="#606060" stroke-width=".5" x="0" y="0" width="60" height="60"/>
                <use id="zoomplus" xlink:href="#zoomPlus" x="17" y="9" onmousedown="handleZoom(evt,'in')"/>
                <use id="zoomminus" xlink:href="#zoomMin" x="42" y="9" onmousedown="handleZoom(evt,'out')"/>
                <use id="reset" xlink:href="#resetDef" x="30" y="36" onmousedown="handleReset()"/>
                <g id="arrowUp" xlink:href="#dirArrow" transform="translate(30 24)" onmousedown="handlePan(0,-1)">
                  <use xlink:href="#rim" fill="#404040">
                        <set attributeName="fill" to="#808080" begin="arrowUp.mouseover" end="arrowUp.mouseout"/>
                  </use>
                  <path fill="none" stroke="white" stroke-width="1.5" d="M0,-3.0v7 M-2.5,-0.5L0,-3.0L2.5,-0.5"/>
                </g>
                <g id="arrowRight" xlink:href="#dirArrow" transform="rotate(90) translate(36 -43)" onmousedown="handlePan(1,0)">
                  <use xlink:href="#rim" fill="#404040">
                        <set attributeName="fill" to="#808080" begin="arrowRight.mouseover" end="arrowRight.mouseout"/>
                  </use>
                  <path fill="none" stroke="white" stroke-width="1.5" d="M0,-3.0v7 M-2.5,-0.5L0,-3.0L2.5,-0.5"/>
                </g>
                <g id="arrowDown" xlink:href="#dirArrow" transform="rotate(180) translate(-30 -48)" onmousedown="handlePan(0,1)">
                  <use xlink:href="#rim" fill="#404040">
                        <set attributeName="fill" to="#808080" begin="arrowDown.mouseover" end="arrowDown.mouseout"/>
                  </use>
                  <path fill="none" stroke="white" stroke-width="1.5" d="M0,-3.0v7 M-2.5,-0.5L0,-3.0L2.5,-0.5"/>
                </g>
                <g id="arrowLeft" xlink:href="#dirArrow" transform="rotate(270) translate(-36 17)" onmousedown="handlePan(-1,0)">
                  <use xlink:href="#rim" fill="#404040">
                        <set attributeName="fill" to="#808080" begin="arrowLeft.mouseover" end="arrowLeft.mouseout"/>
                  </use>
                  <path fill="none" stroke="white" stroke-width="1.5" d="M0,-3.0v7 M-2.5,-0.5L0,-3.0L2.5,-0.5"/>
                </g>
        </g>
        <svg viewBox="0 0 15 15" width="100%" height="30px" preserveAspectRatio="xMaxYMin meet">
         <g id="arrow_out" transform="scale(0.3 0.3)">
          <a xlink:href="namespacea60_a49f90ad70811e995d23a179cbd97194b_cgraph_org.svg" target="_base">
           <rect id="button" ry="5" rx="5" y="6" x="6" height="38" width="38"
                fill="#f2f5e9" fill-opacity="0.5" stroke="#606060" stroke-width="1.0"/>
           <path id="arrow"
             d="M 11.500037,31.436501 C 11.940474,20.09759 22.043105,11.32322 32.158766,21.979434 L 37.068811,17.246167 C 37.068811,17.246167 37.088388,32 37.088388,32 L 22.160133,31.978069 C 22.160133,31.978069 26.997745,27.140456 26.997745,27.140456 C 18.528582,18.264221 13.291696,25.230495 11.500037,31.436501 z"
             style="fill:#404040;"/>
          </a>
         </g>
        </svg>
</svg>
