<?xml version="1.0" encoding="UTF-8" standalone="no"?>
<!DOCTYPE svg PUBLIC "-//W3C//DTD SVG 1.1//EN"
 "http://www.w3.org/Graphics/SVG/1.1/DTD/svg11.dtd">
<!-- Generated by graphviz version 5.0.0 (0)
 -->
<!-- Title: a60::metadata::canonical_media_name Pages: 1 -->
<svg width="287pt" height="245pt"
 viewBox="0.00 0.00 287.00 245.00" xmlns="http://www.w3.org/2000/svg" xmlns:xlink="http://www.w3.org/1999/xlink">
<g id="graph0" class="graph" transform="scale(1 1) rotate(0) translate(4 241)">
<title>a60::metadata::canonical_media_name</title>
<!-- Node1 -->
<g id="node1" class="node">
<title>Node1</title>
<g id="a_node1"><a xlink:title=" ">
<polygon fill="#999999" stroke="#666666" points="124,-131.5 0,-131.5 0,-105.5 124,-105.5 124,-131.5"/>
<text text-anchor="start" x="8" y="-121.1" font-family="SourceSans" font-size="8.00">a60::metadata::canonical</text>
<text text-anchor="middle" x="62" y="-112.1" font-family="SourceSans" font-size="8.00">_media_name</text>
</a>
</g>
</g>
<!-- Node2 -->
<g id="node2" class="node">
<title>Node2</title>
<g id="a_node2"><a xlink:href="namespacea60_1_1constants.html#a8a38c40674ec5fbf57af8127a67d1609" target="_top" xlink:title=" ">
<polygon fill="white" stroke="#666666" points="273,-237 166,-237 166,-220 273,-220 273,-237"/>
<text text-anchor="middle" x="219.5" y="-226.6" font-family="SourceSans" font-size="8.00">a60::constants::colon</text>
</a>
</g>
</g>
<!-- Node1&#45;&gt;Node2 -->
<g id="edge1" class="edge">
<title>Node1&#45;&gt;Node2</title>
<path fill="none" stroke="#63b8ff" d="M73.14,-131.67C89.35,-151.8 123.03,-190.15 160,-211.5 163.07,-213.27 166.34,-214.87 169.7,-216.31"/>
<polygon fill="#63b8ff" stroke="#63b8ff" points="168.75,-219.7 179.34,-219.97 171.23,-213.15 168.75,-219.7"/>
</g>
<!-- Node3 -->
<g id="node3" class="node">
<title>Node3</title>
<g id="a_node3"><a xlink:href="namespacea60_1_1constants.html#a6338b74a1c5c6dc024b03069e07e34ac" target="_top" xlink:title=" ">
<polygon fill="white" stroke="#666666" points="277.5,-202 161.5,-202 161.5,-185 277.5,-185 277.5,-202"/>
<text text-anchor="middle" x="219.5" y="-191.6" font-family="SourceSans" font-size="8.00">a60::constants::hyphen</text>
</a>
</g>
</g>
<!-- Node1&#45;&gt;Node3 -->
<g id="edge2" class="edge">
<title>Node1&#45;&gt;Node3</title>
<path fill="none" stroke="#63b8ff" d="M81.55,-131.56C100.52,-144.44 131.22,-163.96 160,-176.5 164.43,-178.43 169.15,-180.21 173.9,-181.84"/>
<polygon fill="#63b8ff" stroke="#63b8ff" points="173.05,-185.24 183.64,-184.96 175.19,-178.58 173.05,-185.24"/>
</g>
<!-- Node4 -->
<g id="node4" class="node">
<title>Node4</title>
<g id="a_node4"><a xlink:href="namespacea60_1_1constants.html#a370b70e28b3935e8736cb9e79697ceda" target="_top" xlink:title=" ">
<polygon fill="white" stroke="#666666" points="275,-167 164,-167 164,-150 275,-150 275,-167"/>
<text text-anchor="middle" x="219.5" y="-156.6" font-family="SourceSans" font-size="8.00">a60::constants::period</text>
</a>
</g>
</g>
<!-- Node1&#45;&gt;Node4 -->
<g id="edge3" class="edge">
<title>Node1&#45;&gt;Node4</title>
<path fill="none" stroke="#63b8ff" d="M113.92,-131.6C133.74,-136.7 156.21,-142.48 175.23,-147.37"/>
<polygon fill="#63b8ff" stroke="#63b8ff" points="174.56,-150.81 185.12,-149.91 176.3,-144.03 174.56,-150.81"/>
</g>
<!-- Node5 -->
<g id="node5" class="node">
<title>Node5</title>
<g id="a_node5"><a xlink:href="namespacea60.html#a34d53970ee23a7c014960a2bf1a10e2b" target="_top" xlink:title="Search DOM for string literals.">
<polygon fill="white" stroke="#666666" points="271,-131.5 168,-131.5 168,-105.5 271,-105.5 271,-131.5"/>
<text text-anchor="start" x="176" y="-121.1" font-family="SourceSans" font-size="8.00">a60::search_dom_for</text>
<text text-anchor="middle" x="219.5" y="-112.1" font-family="SourceSans" font-size="8.00">_string_field</text>
</a>
</g>
</g>
<!-- Node1&#45;&gt;Node5 -->
<g id="edge4" class="edge">
<title>Node1&#45;&gt;Node5</title>
<path fill="none" stroke="#63b8ff" d="M124.01,-118.5C135.09,-118.5 146.64,-118.5 157.7,-118.5"/>
<polygon fill="#63b8ff" stroke="#63b8ff" points="157.71,-122 167.71,-118.5 157.71,-115 157.71,-122"/>
</g>
<!-- Node6 -->
<g id="node6" class="node">
<title>Node6</title>
<g id="a_node6"><a xlink:href="namespacea60.html#a0022cb8323c9a304730c5d70e4da4e4b" target="_top" xlink:title=" ">
<polygon fill="white" stroke="#666666" points="270,-87 169,-87 169,-70 270,-70 270,-87"/>
<text text-anchor="middle" x="219.5" y="-76.6" font-family="SourceSans" font-size="8.00">a60::to_erase_string</text>
</a>
</g>
</g>
<!-- Node1&#45;&gt;Node6 -->
<g id="edge5" class="edge">
<title>Node1&#45;&gt;Node6</title>
<path fill="none" stroke="#63b8ff" d="M113.92,-105.4C133.74,-100.3 156.21,-94.52 175.23,-89.63"/>
<polygon fill="#63b8ff" stroke="#63b8ff" points="176.3,-92.97 185.12,-87.09 174.56,-86.19 176.3,-92.97"/>
</g>
<!-- Node7 -->
<g id="node7" class="node">
<title>Node7</title>
<g id="a_node7"><a xlink:href="namespacea60.html#ac7eddb2e330d8983ddc852edde5335c5" target="_top" xlink:title=" ">
<polygon fill="white" stroke="#666666" points="279,-52 160,-52 160,-35 279,-35 279,-52"/>
<text text-anchor="middle" x="219.5" y="-41.6" font-family="SourceSans" font-size="8.00">a60::to_lowercase_string</text>
</a>
</g>
</g>
<!-- Node1&#45;&gt;Node7 -->
<g id="edge6" class="edge">
<title>Node1&#45;&gt;Node7</title>
<path fill="none" stroke="#63b8ff" d="M82.34,-105.31C101.43,-92.74 131.76,-73.94 160,-61.5 165.11,-59.25 170.58,-57.17 176.05,-55.28"/>
<polygon fill="#63b8ff" stroke="#63b8ff" points="177.4,-58.52 185.82,-52.09 175.23,-51.86 177.4,-58.52"/>
</g>
<!-- Node8 -->
<g id="node8" class="node">
<title>Node8</title>
<g id="a_node8"><a xlink:href="namespacea60.html#a751f954fe64233f1dc6517220e4b5692" target="_top" xlink:title=" ">
<polygon fill="white" stroke="#666666" points="273,-17 166,-17 166,0 273,0 273,-17"/>
<text text-anchor="middle" x="219.5" y="-6.6" font-family="SourceSans" font-size="8.00">a60::to_replace_string</text>
</a>
</g>
</g>
<!-- Node1&#45;&gt;Node8 -->
<g id="edge7" class="edge">
<title>Node1&#45;&gt;Node8</title>
<path fill="none" stroke="#63b8ff" d="M73.49,-105.22C89.89,-85.32 123.53,-47.81 160,-26.5 163.72,-24.33 167.72,-22.39 171.83,-20.68"/>
<polygon fill="#63b8ff" stroke="#63b8ff" points="173.38,-23.83 181.52,-17.05 170.93,-17.28 173.38,-23.83"/>
</g>
</g>
</svg>
