<?xml version="1.0" encoding="UTF-8" standalone="no"?>
<!DOCTYPE svg PUBLIC "-//W3C//DTD SVG 1.1//EN"
 "http://www.w3.org/Graphics/SVG/1.1/DTD/svg11.dtd">
<!-- Generated by graphviz version 5.0.0 (0)
 -->
<!-- Title: a60::augment_ccollection_vector_ray Pages: 1 -->
<!--zoomable 202 -->
<svg id="main" version="1.1" xmlns="http://www.w3.org/2000/svg" xmlns:xlink="http://www.w3.org/1999/xlink" xml:space="preserve" onload="init(evt)">
<style type="text/css"><![CDATA[
.edge:hover path { stroke: red; }
.edge:hover polygon { stroke: red; fill: red; }
]]></style>
<script type="text/javascript"><![CDATA[
var edges = document.getElementsByTagName('g');
if (edges && edges.length) {
  for (var i=0;i<edges.length;i++) {
    if (edges[i].id.substr(0,4)=='edge') {
      edges[i].setAttribute('class','edge');
    }
  }
}
]]></script>
        <defs>
                <circle id="rim" cx="0" cy="0" r="7"/>
                <circle id="rim2" cx="0" cy="0" r="3.5"/>
                <g id="zoomPlus">
                        <use xlink:href="#rim" fill="#404040">
                                <set attributeName="fill" to="#808080" begin="zoomplus.mouseover" end="zoomplus.mouseout"/>
                        </use>
                        <path d="M-4,0h8M0,-4v8" fill="none" stroke="white" stroke-width="1.5" pointer-events="none"/>
                </g>
                <g id="zoomMin">
                        <use xlink:href="#rim" fill="#404040">
                                <set attributeName="fill" to="#808080" begin="zoomminus.mouseover" end="zoomminus.mouseout"/>
                        </use>
                        <path d="M-4,0h8" fill="none" stroke="white" stroke-width="1.5" pointer-events="none"/>
                </g>
                <g id="dirArrow">
                        <path fill="none" stroke="white" stroke-width="1.5" d="M0,-3.0v7 M-2.5,-0.5L0,-3.0L2.5,-0.5"/>
                </g>
               <g id="resetDef">
                       <use xlink:href="#rim2" fill="#404040">
                               <set attributeName="fill" to="#808080" begin="reset.mouseover" end="reset.mouseout"/>
                       </use>
               </g>
        </defs>

<script type="text/javascript">
var viewWidth = 723;
var viewHeight = 202;
var sectionId = 'dynsection-18';
</script>
<script xlink:href="svgpan.js"/>
<svg id="graph" class="graph">
<g id="viewport">
<title>a60::augment_ccollection_vector_ray</title>
<!-- Node1 -->
<g id="node1" class="node">
<title>Node1</title>
<g id="a_node1"><a xlink:title=" ">
<polygon fill="#999999" stroke="#666666" points="123,-128 0,-128 0,-102 123,-102 123,-128"/>
<text text-anchor="start" x="8" y="-117.6" font-family="SourceSans" font-size="8.00">a60::augment_ccollection</text>
<text text-anchor="middle" x="61.5" y="-108.6" font-family="SourceSans" font-size="8.00">_vector_ray</text>
</a>
</g>
</g>
<!-- Node2 -->
<g id="node2" class="node">
<title>Node2</title>
<g id="a_node2"><a xlink:href="namespacea60.html#ae300214a10d2da331791de0275d9df6c" target="_top" xlink:title=" ">
<polygon fill="white" stroke="#666666" points="275,-150 159,-150 159,-124 275,-124 275,-150"/>
<text text-anchor="start" x="167" y="-139.6" font-family="SourceSans" font-size="8.00">a60::augment_ray_meta</text>
<text text-anchor="middle" x="217" y="-130.6" font-family="SourceSans" font-size="8.00">_peers</text>
</a>
</g>
</g>
<!-- Node1&#45;&gt;Node2 -->
<g id="edge1" class="edge">
<title>Node1&#45;&gt;Node2</title>
<path fill="none" stroke="#63b8ff" d="M123.17,-123.69C131.6,-124.9 140.3,-126.15 148.85,-127.38"/>
<polygon fill="#63b8ff" stroke="#63b8ff" points="148.38,-130.84 158.77,-128.8 149.37,-123.91 148.38,-130.84"/>
</g>
<!-- Node5 -->
<g id="node5" class="node">
<title>Node5</title>
<g id="a_node5"><a xlink:href="namespacea60.html#a241f1edd5dab1f67b02a080b2833238c" target="_top" xlink:title="Create list of current Tor Exit Nodes.">
<polygon fill="white" stroke="#666666" points="268,-106 166,-106 166,-80 268,-80 268,-106"/>
<text text-anchor="start" x="174" y="-95.6" font-family="SourceSans" font-size="8.00">a60::exit_node_meta</text>
<text text-anchor="middle" x="217" y="-86.6" font-family="SourceSans" font-size="8.00">_peers</text>
</a>
</g>
</g>
<!-- Node1&#45;&gt;Node5 -->
<g id="edge4" class="edge">
<title>Node1&#45;&gt;Node5</title>
<path fill="none" stroke="#63b8ff" d="M123.17,-106.31C133.84,-104.78 144.94,-103.18 155.6,-101.66"/>
<polygon fill="#63b8ff" stroke="#63b8ff" points="156.26,-105.1 165.66,-100.22 155.26,-98.17 156.26,-105.1"/>
</g>
<!-- Node3 -->
<g id="node3" class="node">
<title>Node3</title>
<g id="a_node3"><a xlink:href="namespacea60.html#a63bf2b0abf68edc3f3e74a0811fe771b" target="_top" xlink:title="Error checking support. Null Island Check (aka latitude and longitude set to zero).">
<polygon fill="white" stroke="#666666" points="422,-194 315,-194 315,-168 422,-168 422,-194"/>
<text text-anchor="start" x="323" y="-183.6" font-family="SourceSans" font-size="8.00">a60::is_meta_peer_on</text>
<text text-anchor="middle" x="368.5" y="-174.6" font-family="SourceSans" font-size="8.00">_null_island</text>
</a>
</g>
</g>
<!-- Node2&#45;&gt;Node3 -->
<g id="edge2" class="edge">
<title>Node2&#45;&gt;Node3</title>
<path fill="none" stroke="#63b8ff" d="M262.45,-150.08C278.5,-154.8 296.78,-160.19 313.55,-165.12"/>
<polygon fill="#63b8ff" stroke="#63b8ff" points="312.64,-168.5 323.22,-167.97 314.62,-161.79 312.64,-168.5"/>
</g>
<!-- Node4 -->
<g id="node4" class="node">
<title>Node4</title>
<g id="a_node4"><a xlink:href="structa60_1_1carto_1_1cartography.html#a57e14cabb4993189316e369a27752a73" target="_top" xlink:title=" ">
<polygon fill="white" stroke="#666666" points="426,-150 311,-150 311,-124 426,-124 426,-150"/>
<text text-anchor="start" x="319" y="-139.6" font-family="SourceSans" font-size="8.00">a60::carto::cartography</text>
<text text-anchor="middle" x="368.5" y="-130.6" font-family="SourceSans" font-size="8.00">::to_point_2d</text>
</a>
</g>
</g>
<!-- Node2&#45;&gt;Node4 -->
<g id="edge3" class="edge">
<title>Node2&#45;&gt;Node4</title>
<path fill="none" stroke="#63b8ff" d="M275.37,-137C283.57,-137 292.06,-137 300.42,-137"/>
<polygon fill="#63b8ff" stroke="#63b8ff" points="300.53,-140.5 310.53,-137 300.53,-133.5 300.53,-140.5"/>
</g>
<!-- Node6 -->
<g id="node6" class="node">
<title>Node6</title>
<g id="a_node6"><a xlink:href="namespacea60.html#a55d7f8d5aa523f5270d478a635ee03b4" target="_top" xlink:title="Survey current tor exit nodes and convert into meta_peers. Assume input list is sorted low to high,...">
<polygon fill="white" stroke="#666666" points="420,-106 317,-106 317,-80 420,-80 420,-106"/>
<text text-anchor="start" x="325" y="-95.6" font-family="SourceSans" font-size="8.00">a60::make_exit_node</text>
<text text-anchor="middle" x="368.5" y="-86.6" font-family="SourceSans" font-size="8.00">_meta_peers</text>
</a>
</g>
</g>
<!-- Node5&#45;&gt;Node6 -->
<g id="edge5" class="edge">
<title>Node5&#45;&gt;Node6</title>
<path fill="none" stroke="#63b8ff" d="M268.2,-93C280.58,-93 293.97,-93 306.8,-93"/>
<polygon fill="#63b8ff" stroke="#63b8ff" points="306.93,-96.5 316.93,-93 306.93,-89.5 306.93,-96.5"/>
</g>
<!-- Node7 -->
<g id="node7" class="node">
<title>Node7</title>
<g id="a_node7"><a xlink:href="namespacea60_1_1io.html#a16f17ea9e02c1975ca17b77e46cf7629" target="_top" xlink:title="Make sure a path ends in &#39;/&#39;;.">
<polygon fill="white" stroke="#666666" points="563.5,-185.5 473.5,-185.5 473.5,-168.5 563.5,-168.5 563.5,-185.5"/>
<text text-anchor="middle" x="518.5" y="-175.1" font-family="SourceSans" font-size="8.00">a60::io::end_path</text>
</a>
</g>
</g>
<!-- Node6&#45;&gt;Node7 -->
<g id="edge6" class="edge">
<title>Node6&#45;&gt;Node7</title>
<path fill="none" stroke="#63b8ff" d="M410.63,-106.1C416.04,-108.64 421.32,-111.6 426,-115 446.44,-129.85 441.14,-144.75 462,-159 464.93,-161 468.1,-162.8 471.39,-164.4"/>
<polygon fill="#63b8ff" stroke="#63b8ff" points="470.3,-167.74 480.87,-168.42 473.03,-161.29 470.3,-167.74"/>
</g>
<!-- Node8 -->
<g id="node8" class="node">
<title>Node8</title>
<g id="a_node8"><a xlink:href="namespacea60_1_1io.html#ac95e5271a27a23bc2336d84b3f821fa2" target="_top" xlink:title="Constant filesystem and run&#45;time resources.">
<polygon fill="white" stroke="#666666" points="570.5,-150 466.5,-150 466.5,-124 570.5,-124 570.5,-150"/>
<text text-anchor="start" x="474.5" y="-139.6" font-family="SourceSans" font-size="8.00">a60::io::get_run_time</text>
<text text-anchor="middle" x="518.5" y="-130.6" font-family="SourceSans" font-size="8.00">_resources</text>
</a>
</g>
</g>
<!-- Node6&#45;&gt;Node8 -->
<g id="edge7" class="edge">
<title>Node6&#45;&gt;Node8</title>
<path fill="none" stroke="#63b8ff" d="M413.5,-106.08C429.24,-110.76 447.15,-116.09 463.63,-120.98"/>
<polygon fill="#63b8ff" stroke="#63b8ff" points="463.08,-124.47 473.67,-123.97 465.08,-117.76 463.08,-124.47"/>
</g>
<!-- Node9 -->
<g id="node9" class="node">
<title>Node9</title>
<g id="a_node9"><a xlink:href="namespacea60.html#a439bb950e8e56f95462cb70ab0bab2f0" target="_top" xlink:title="Pruned line of text that starts with an IP4 address.">
<polygon fill="white" stroke="#666666" points="575,-106 462,-106 462,-80 575,-80 575,-106"/>
<text text-anchor="start" x="470" y="-95.6" font-family="SourceSans" font-size="8.00">a60::line_to_ip_address</text>
<text text-anchor="middle" x="518.5" y="-86.6" font-family="SourceSans" font-size="8.00">_as_string</text>
</a>
</g>
</g>
<!-- Node6&#45;&gt;Node9 -->
<g id="edge8" class="edge">
<title>Node6&#45;&gt;Node9</title>
<path fill="none" stroke="#63b8ff" d="M420.02,-93C430.24,-93 441.12,-93 451.77,-93"/>
<polygon fill="#63b8ff" stroke="#63b8ff" points="451.88,-96.5 461.88,-93 451.88,-89.5 451.88,-96.5"/>
</g>
<!-- Node10 -->
<g id="node10" class="node">
<title>Node10</title>
<g id="a_node10"><a xlink:href="namespacea60.html#ad300edc3a7396b9f52a64f37e9443891" target="_top" xlink:title="No GeoIP.">
<polygon fill="white" stroke="#666666" points="572,-61.5 465,-61.5 465,-44.5 572,-44.5 572,-61.5"/>
<text text-anchor="middle" x="518.5" y="-51.1" font-family="SourceSans" font-size="8.00">a60::make_meta_peer</text>
</a>
</g>
</g>
<!-- Node6&#45;&gt;Node10 -->
<g id="edge9" class="edge">
<title>Node6&#45;&gt;Node10</title>
<path fill="none" stroke="#63b8ff" d="M417.96,-79.9C436.74,-74.83 458.02,-69.08 476.07,-64.2"/>
<polygon fill="#63b8ff" stroke="#63b8ff" points="476.99,-67.58 485.73,-61.59 475.16,-60.82 476.99,-67.58"/>
</g>
<!-- Node11 -->
<g id="node11" class="node">
<title>Node11</title>
<g id="a_node11"><a xlink:href="structa60_1_1geo_1_1map__base.html#a9215731f10e2fa8488b0e081c2a5cef4" target="_top" xlink:title=" ">
<polygon fill="white" stroke="#666666" points="569.5,-26 467.5,-26 467.5,0 569.5,0 569.5,-26"/>
<text text-anchor="start" x="475.5" y="-15.6" font-family="SourceSans" font-size="8.00">a60::geo::map_base</text>
<text text-anchor="middle" x="518.5" y="-6.6" font-family="SourceSans" font-size="8.00">::open</text>
</a>
</g>
</g>
<!-- Node6&#45;&gt;Node11 -->
<g id="edge10" class="edge">
<title>Node6&#45;&gt;Node11</title>
<path fill="none" stroke="#63b8ff" d="M388.04,-79.96C406.31,-67.45 435.28,-48.53 462,-35 465.34,-33.31 468.84,-31.66 472.4,-30.07"/>
<polygon fill="#63b8ff" stroke="#63b8ff" points="474.03,-33.17 481.84,-26.02 471.27,-26.74 474.03,-33.17"/>
</g>
<!-- Node12 -->
<g id="node12" class="node">
<title>Node12</title>
<g id="a_node12"><a xlink:href="namespacea60_1_1io.html#aa5fbb8ab63397dd45c4a54c0758935ef" target="_top" xlink:title="Sanity check input existence.">
<polygon fill="white" stroke="#666666" points="715,-26 611,-26 611,0 715,0 715,-26"/>
<text text-anchor="start" x="619" y="-15.6" font-family="SourceSans" font-size="8.00">a60::io::sanity_check</text>
<text text-anchor="middle" x="663" y="-6.6" font-family="SourceSans" font-size="8.00">_input</text>
</a>
</g>
</g>
<!-- Node11&#45;&gt;Node12 -->
<g id="edge11" class="edge">
<title>Node11&#45;&gt;Node12</title>
<path fill="none" stroke="#63b8ff" d="M569.74,-13C579.72,-13 590.3,-13 600.6,-13"/>
<polygon fill="#63b8ff" stroke="#63b8ff" points="600.77,-16.5 610.77,-13 600.77,-9.5 600.77,-16.5"/>
</g>
</g>
</svg>
        <g id="navigator" transform="translate(0 0)" fill="#404254">
                <rect fill="#f2f5e9" fill-opacity="0.5" stroke="#606060" stroke-width=".5" x="0" y="0" width="60" height="60"/>
                <use id="zoomplus" xlink:href="#zoomPlus" x="17" y="9" onmousedown="handleZoom(evt,'in')"/>
                <use id="zoomminus" xlink:href="#zoomMin" x="42" y="9" onmousedown="handleZoom(evt,'out')"/>
                <use id="reset" xlink:href="#resetDef" x="30" y="36" onmousedown="handleReset()"/>
                <g id="arrowUp" xlink:href="#dirArrow" transform="translate(30 24)" onmousedown="handlePan(0,-1)">
                  <use xlink:href="#rim" fill="#404040">
                        <set attributeName="fill" to="#808080" begin="arrowUp.mouseover" end="arrowUp.mouseout"/>
                  </use>
                  <path fill="none" stroke="white" stroke-width="1.5" d="M0,-3.0v7 M-2.5,-0.5L0,-3.0L2.5,-0.5"/>
                </g>
                <g id="arrowRight" xlink:href="#dirArrow" transform="rotate(90) translate(36 -43)" onmousedown="handlePan(1,0)">
                  <use xlink:href="#rim" fill="#404040">
                        <set attributeName="fill" to="#808080" begin="arrowRight.mouseover" end="arrowRight.mouseout"/>
                  </use>
                  <path fill="none" stroke="white" stroke-width="1.5" d="M0,-3.0v7 M-2.5,-0.5L0,-3.0L2.5,-0.5"/>
                </g>
                <g id="arrowDown" xlink:href="#dirArrow" transform="rotate(180) translate(-30 -48)" onmousedown="handlePan(0,1)">
                  <use xlink:href="#rim" fill="#404040">
                        <set attributeName="fill" to="#808080" begin="arrowDown.mouseover" end="arrowDown.mouseout"/>
                  </use>
                  <path fill="none" stroke="white" stroke-width="1.5" d="M0,-3.0v7 M-2.5,-0.5L0,-3.0L2.5,-0.5"/>
                </g>
                <g id="arrowLeft" xlink:href="#dirArrow" transform="rotate(270) translate(-36 17)" onmousedown="handlePan(-1,0)">
                  <use xlink:href="#rim" fill="#404040">
                        <set attributeName="fill" to="#808080" begin="arrowLeft.mouseover" end="arrowLeft.mouseout"/>
                  </use>
                  <path fill="none" stroke="white" stroke-width="1.5" d="M0,-3.0v7 M-2.5,-0.5L0,-3.0L2.5,-0.5"/>
                </g>
        </g>
        <svg viewBox="0 0 15 15" width="100%" height="30px" preserveAspectRatio="xMaxYMin meet">
         <g id="arrow_out" transform="scale(0.3 0.3)">
          <a xlink:href="namespacea60_a44387a8fc4c7d36390346f3269db04d6_cgraph_org.svg" target="_base">
           <rect id="button" ry="5" rx="5" y="6" x="6" height="38" width="38"
                fill="#f2f5e9" fill-opacity="0.5" stroke="#606060" stroke-width="1.0"/>
           <path id="arrow"
             d="M 11.500037,31.436501 C 11.940474,20.09759 22.043105,11.32322 32.158766,21.979434 L 37.068811,17.246167 C 37.068811,17.246167 37.088388,32 37.088388,32 L 22.160133,31.978069 C 22.160133,31.978069 26.997745,27.140456 26.997745,27.140456 C 18.528582,18.264221 13.291696,25.230495 11.500037,31.436501 z"
             style="fill:#404040;"/>
          </a>
         </g>
        </svg>
</svg>
