<?xml version="1.0" encoding="UTF-8" standalone="no"?>
<!DOCTYPE svg PUBLIC "-//W3C//DTD SVG 1.1//EN"
 "http://www.w3.org/Graphics/SVG/1.1/DTD/svg11.dtd">
<!-- Generated by graphviz version 5.0.0 (0)
 -->
<!-- Title: a60::swarm_each Pages: 1 -->
<svg width="719pt" height="213pt"
 viewBox="0.00 0.00 719.00 213.00" xmlns="http://www.w3.org/2000/svg" xmlns:xlink="http://www.w3.org/1999/xlink">
<g id="graph0" class="graph" transform="scale(1 1) rotate(0) translate(4 209)">
<title>a60::swarm_each</title>
<!-- Node1 -->
<g id="node1" class="node">
<title>Node1</title>
<g id="a_node1"><a xlink:title="Using previously coalesced files for [duration and persistent&#45;duration], summarize swarm between dura...">
<polygon fill="#999999" stroke="#666666" points="89,-101 0,-101 0,-84 89,-84 89,-101"/>
<text text-anchor="middle" x="44.5" y="-90.6" font-family="SourceSans" font-size="8.00">a60::swarm_each</text>
</a>
</g>
</g>
<!-- Node2 -->
<g id="node2" class="node">
<title>Node2</title>
<g id="a_node2"><a xlink:href="namespacea60.html#af45982273a7a2e61b6aaa436081238c0" target="_top" xlink:title="Load JSON file to in&#45;memory DOM.">
<polygon fill="white" stroke="#666666" points="239.5,-191.5 135.5,-191.5 135.5,-165.5 239.5,-165.5 239.5,-191.5"/>
<text text-anchor="start" x="143.5" y="-181.1" font-family="SourceSans" font-size="8.00">a60::deserialize_json</text>
<text text-anchor="middle" x="187.5" y="-172.1" font-family="SourceSans" font-size="8.00">_to_dom_object</text>
</a>
</g>
</g>
<!-- Node1&#45;&gt;Node2 -->
<g id="edge1" class="edge">
<title>Node1&#45;&gt;Node2</title>
<path fill="none" stroke="#63b8ff" d="M54.65,-101.1C68.81,-114.06 97.31,-138.75 125,-154.5 129.26,-156.92 133.81,-159.21 138.44,-161.33"/>
<polygon fill="#63b8ff" stroke="#63b8ff" points="137.41,-164.69 147.97,-165.45 140.18,-158.27 137.41,-164.69"/>
</g>
<!-- Node4 -->
<g id="node4" class="node">
<title>Node4</title>
<g id="a_node4"><a xlink:href="structa60_1_1collection.html#a3780f3266ff2355e74b737a201c89116" target="_top" xlink:title=" ">
<polygon fill="white" stroke="#666666" points="245,-145.5 130,-145.5 130,-119.5 245,-119.5 245,-145.5"/>
<text text-anchor="start" x="138" y="-135.1" font-family="SourceSans" font-size="8.00">a60::collection::mangle</text>
<text text-anchor="middle" x="187.5" y="-126.1" font-family="SourceSans" font-size="8.00">_tid_match_id</text>
</a>
</g>
</g>
<!-- Node1&#45;&gt;Node4 -->
<g id="edge3" class="edge">
<title>Node1&#45;&gt;Node4</title>
<path fill="none" stroke="#63b8ff" d="M75.75,-101.08C91.8,-105.64 112.05,-111.38 130.82,-116.7"/>
<polygon fill="#63b8ff" stroke="#63b8ff" points="129.9,-120.08 140.48,-119.44 131.81,-113.35 129.9,-120.08"/>
</g>
<!-- Node12 -->
<g id="node12" class="node">
<title>Node12</title>
<g id="a_node12"><a xlink:href="namespacea60_1_1io.html#aea30b8fc474f5a7b922516dc1e199037" target="_top" xlink:title="Takes a string representing a directory, returns a sorted list of contents as a std::vector&lt;string&gt;.">
<polygon fill="white" stroke="#666666" points="242.5,-66 132.5,-66 132.5,-49 242.5,-49 242.5,-66"/>
<text text-anchor="middle" x="187.5" y="-55.6" font-family="SourceSans" font-size="8.00">a60::io::populate_files</text>
</a>
</g>
</g>
<!-- Node1&#45;&gt;Node12 -->
<g id="edge11" class="edge">
<title>Node1&#45;&gt;Node12</title>
<path fill="none" stroke="#63b8ff" d="M79.99,-83.94C98.68,-79.3 121.99,-73.51 142.03,-68.54"/>
<polygon fill="#63b8ff" stroke="#63b8ff" points="143.01,-71.9 151.87,-66.09 141.33,-65.11 143.01,-71.9"/>
</g>
<!-- Node13 -->
<g id="node13" class="node">
<title>Node13</title>
<g id="a_node13"><a xlink:href="namespacea60.html#a800a2e54e8f2d2481c4bb2fb929dba7f" target="_top" xlink:title="Search DOM for integer values.">
<polygon fill="white" stroke="#666666" points="239,-30.5 136,-30.5 136,-4.5 239,-4.5 239,-30.5"/>
<text text-anchor="start" x="144" y="-20.1" font-family="SourceSans" font-size="8.00">a60::search_dom_for</text>
<text text-anchor="middle" x="187.5" y="-11.1" font-family="SourceSans" font-size="8.00">_int_field</text>
</a>
</g>
</g>
<!-- Node1&#45;&gt;Node13 -->
<g id="edge12" class="edge">
<title>Node1&#45;&gt;Node13</title>
<path fill="none" stroke="#63b8ff" d="M56.55,-83.86C71.44,-72.52 99.06,-52.54 125,-39.5 128.55,-37.72 132.27,-36.01 136.06,-34.39"/>
<polygon fill="#63b8ff" stroke="#63b8ff" points="137.59,-37.55 145.55,-30.56 134.97,-31.06 137.59,-37.55"/>
</g>
<!-- Node14 -->
<g id="node14" class="node">
<title>Node14</title>
<g id="a_node14"><a xlink:href="namespacea60.html#ac7ec35d2a0f81f1570817264e4ef49f2" target="_top" xlink:title="Serialization minimal summary info per duration.">
<polygon fill="white" stroke="#666666" points="250,-101 125,-101 125,-84 250,-84 250,-101"/>
<text text-anchor="middle" x="187.5" y="-90.6" font-family="SourceSans" font-size="8.00">a60::serialize_swarm_json</text>
</a>
</g>
</g>
<!-- Node1&#45;&gt;Node14 -->
<g id="edge13" class="edge">
<title>Node1&#45;&gt;Node14</title>
<path fill="none" stroke="#63b8ff" d="M89.34,-92.5C97.42,-92.5 106.04,-92.5 114.69,-92.5"/>
<polygon fill="#63b8ff" stroke="#63b8ff" points="114.83,-96 124.83,-92.5 114.83,-89 114.83,-96"/>
</g>
<!-- Node3 -->
<g id="node3" class="node">
<title>Node3</title>
<g id="a_node3"><a xlink:href="namespacea60.html#a538d43bb9bfa488a54cea929736dbe2d" target="_top" xlink:title="Deserialize input file.">
<polygon fill="white" stroke="#666666" points="396,-193.5 292,-193.5 292,-167.5 396,-167.5 396,-193.5"/>
<text text-anchor="start" x="300" y="-183.1" font-family="SourceSans" font-size="8.00">a60::deserialize_json</text>
<text text-anchor="middle" x="344" y="-174.1" font-family="SourceSans" font-size="8.00">_to_dom</text>
</a>
</g>
</g>
<!-- Node2&#45;&gt;Node3 -->
<g id="edge2" class="edge">
<title>Node2&#45;&gt;Node3</title>
<path fill="none" stroke="#63b8ff" d="M239.52,-179.16C253.03,-179.34 267.75,-179.53 281.74,-179.71"/>
<polygon fill="#63b8ff" stroke="#63b8ff" points="281.73,-183.21 291.77,-179.84 281.82,-176.21 281.73,-183.21"/>
</g>
<!-- Node5 -->
<g id="node5" class="node">
<title>Node5</title>
<g id="a_node5"><a xlink:href="structa60_1_1collection.html#ab234addb5725bb5900b44f55ec1aae10" target="_top" xlink:title=" ">
<polygon fill="white" stroke="#666666" points="401.5,-105.5 286.5,-105.5 286.5,-79.5 401.5,-79.5 401.5,-105.5"/>
<text text-anchor="start" x="294.5" y="-95.1" font-family="SourceSans" font-size="8.00">a60::collection::mangle</text>
<text text-anchor="middle" x="344" y="-86.1" font-family="SourceSans" font-size="8.00">_with_id</text>
</a>
</g>
</g>
<!-- Node4&#45;&gt;Node5 -->
<g id="edge4" class="edge">
<title>Node4&#45;&gt;Node5</title>
<path fill="none" stroke="#63b8ff" d="M239.09,-119.4C253.03,-115.79 268.3,-111.84 282.73,-108.1"/>
<polygon fill="#63b8ff" stroke="#63b8ff" points="283.76,-111.45 292.56,-105.56 282,-104.68 283.76,-111.45"/>
</g>
<!-- Node7 -->
<g id="node7" class="node">
<title>Node7</title>
<g id="a_node7"><a xlink:href="structa60_1_1collection.html#a80993af9aec8238db8e44da1e9a3c994" target="_top" xlink:title=" ">
<polygon fill="white" stroke="#666666" points="395.5,-149.5 292.5,-149.5 292.5,-123.5 395.5,-123.5 395.5,-149.5"/>
<text text-anchor="start" x="300.5" y="-139.1" font-family="SourceSans" font-size="8.00">a60::collection::slice</text>
<text text-anchor="middle" x="344" y="-130.1" font-family="SourceSans" font-size="8.00">_name_mangled</text>
</a>
</g>
</g>
<!-- Node4&#45;&gt;Node7 -->
<g id="edge6" class="edge">
<title>Node4&#45;&gt;Node7</title>
<path fill="none" stroke="#63b8ff" d="M245.15,-133.97C257.26,-134.28 270.1,-134.61 282.36,-134.93"/>
<polygon fill="#63b8ff" stroke="#63b8ff" points="282.4,-138.43 292.48,-135.19 282.58,-131.43 282.4,-138.43"/>
</g>
<!-- Node6 -->
<g id="node6" class="node">
<title>Node6</title>
<g id="a_node6"><a xlink:href="structa60_1_1collection.html#a899f781ad983b2ec1f0da35a5d3f8b54" target="_top" xlink:title=" ">
<polygon fill="white" stroke="#666666" points="560.5,-90 445.5,-90 445.5,-55 560.5,-55 560.5,-90"/>
<text text-anchor="start" x="453.5" y="-79.6" font-family="SourceSans" font-size="8.00">a60::collection::mangle</text>
<text text-anchor="start" x="453.5" y="-70.6" font-family="SourceSans" font-size="8.00">_duration_significant</text>
<text text-anchor="middle" x="503" y="-61.6" font-family="SourceSans" font-size="8.00">_digits</text>
</a>
</g>
</g>
<!-- Node5&#45;&gt;Node6 -->
<g id="edge5" class="edge">
<title>Node5&#45;&gt;Node6</title>
<path fill="none" stroke="#63b8ff" d="M401.68,-85.28C412.57,-83.89 424.08,-82.43 435.26,-81"/>
<polygon fill="#63b8ff" stroke="#63b8ff" points="435.93,-84.45 445.4,-79.71 435.04,-77.5 435.93,-84.45"/>
</g>
<!-- Node8 -->
<g id="node8" class="node">
<title>Node8</title>
<g id="a_node8"><a xlink:href="structa60_1_1collection.html#a25b35cf4ac39da89d868fe2cf41b5acd" target="_top" xlink:title=" ">
<polygon fill="white" stroke="#666666" points="568,-125 438,-125 438,-108 568,-108 568,-125"/>
<text text-anchor="middle" x="503" y="-114.6" font-family="SourceSans" font-size="8.00">a60::collection::slice_name</text>
</a>
</g>
</g>
<!-- Node7&#45;&gt;Node8 -->
<g id="edge7" class="edge">
<title>Node7&#45;&gt;Node8</title>
<path fill="none" stroke="#63b8ff" d="M395.54,-130.06C405.83,-128.75 416.87,-127.34 427.79,-125.95"/>
<polygon fill="#63b8ff" stroke="#63b8ff" points="428.29,-129.42 437.76,-124.68 427.4,-122.47 428.29,-129.42"/>
</g>
<!-- Node9 -->
<g id="node9" class="node">
<title>Node9</title>
<g id="a_node9"><a xlink:href="namespacea60.html#ac7eddb2e330d8983ddc852edde5335c5" target="_top" xlink:title=" ">
<polygon fill="white" stroke="#666666" points="562.5,-205 443.5,-205 443.5,-188 562.5,-188 562.5,-205"/>
<text text-anchor="middle" x="503" y="-194.6" font-family="SourceSans" font-size="8.00">a60::to_lowercase_string</text>
</a>
</g>
</g>
<!-- Node7&#45;&gt;Node9 -->
<g id="edge8" class="edge">
<title>Node7&#45;&gt;Node9</title>
<path fill="none" stroke="#63b8ff" d="M381.2,-149.6C388.17,-152.37 395.37,-155.4 402,-158.5 418.58,-166.26 421.08,-171.53 438,-178.5 443.81,-180.89 450.05,-183.08 456.27,-185.05"/>
<polygon fill="#63b8ff" stroke="#63b8ff" points="455.37,-188.43 465.96,-187.95 457.38,-181.73 455.37,-188.43"/>
</g>
<!-- Node10 -->
<g id="node10" class="node">
<title>Node10</title>
<g id="a_node10"><a xlink:href="namespacea60.html#a11d9ffc210e8dca8410e7a5ad62deabc" target="_top" xlink:title=" ">
<polygon fill="white" stroke="#666666" points="559.5,-169.5 446.5,-169.5 446.5,-143.5 559.5,-143.5 559.5,-169.5"/>
<text text-anchor="start" x="454.5" y="-159.1" font-family="SourceSans" font-size="8.00">a60::to_replace_spaces</text>
<text text-anchor="middle" x="503" y="-150.1" font-family="SourceSans" font-size="8.00">_string</text>
</a>
</g>
</g>
<!-- Node7&#45;&gt;Node10 -->
<g id="edge9" class="edge">
<title>Node7&#45;&gt;Node10</title>
<path fill="none" stroke="#63b8ff" d="M395.54,-142.94C408.47,-144.59 422.56,-146.38 436.14,-148.11"/>
<polygon fill="#63b8ff" stroke="#63b8ff" points="436.03,-151.62 446.39,-149.42 436.91,-144.68 436.03,-151.62"/>
</g>
<!-- Node11 -->
<g id="node11" class="node">
<title>Node11</title>
<g id="a_node11"><a xlink:href="namespacea60.html#a751f954fe64233f1dc6517220e4b5692" target="_top" xlink:title=" ">
<polygon fill="white" stroke="#666666" points="711,-165 604,-165 604,-148 711,-148 711,-165"/>
<text text-anchor="middle" x="657.5" y="-154.6" font-family="SourceSans" font-size="8.00">a60::to_replace_string</text>
</a>
</g>
</g>
<!-- Node10&#45;&gt;Node11 -->
<g id="edge10" class="edge">
<title>Node10&#45;&gt;Node11</title>
<path fill="none" stroke="#63b8ff" d="M559.92,-156.5C570.92,-156.5 582.53,-156.5 593.73,-156.5"/>
<polygon fill="#63b8ff" stroke="#63b8ff" points="593.88,-160 603.88,-156.5 593.88,-153 593.88,-160"/>
</g>
<!-- Node14&#45;&gt;Node5 -->
<g id="edge14" class="edge">
<title>Node14&#45;&gt;Node5</title>
<path fill="none" stroke="#63b8ff" d="M250.01,-92.5C258.6,-92.5 267.45,-92.5 276.14,-92.5"/>
<polygon fill="#63b8ff" stroke="#63b8ff" points="276.22,-96 286.22,-92.5 276.22,-89 276.22,-96"/>
</g>
<!-- Node14&#45;&gt;Node7 -->
<g id="edge17" class="edge">
<title>Node14&#45;&gt;Node7</title>
<path fill="none" stroke="#63b8ff" d="M218.66,-101.09C238.17,-106.65 264.18,-114.05 287.36,-120.65"/>
<polygon fill="#63b8ff" stroke="#63b8ff" points="286.51,-124.05 297.09,-123.43 288.43,-117.32 286.51,-124.05"/>
</g>
<!-- Node15 -->
<g id="node15" class="node">
<title>Node15</title>
<g id="a_node15"><a xlink:href="namespacea60.html#aba8b47de875bd5bebeed9c57e3b52c06" target="_top" xlink:title="Serialize buffer to output file.">
<polygon fill="white" stroke="#666666" points="394.5,-17 293.5,-17 293.5,0 394.5,0 394.5,-17"/>
<text text-anchor="middle" x="344" y="-6.6" font-family="SourceSans" font-size="8.00">a60::serialize_buffer</text>
</a>
</g>
</g>
<!-- Node14&#45;&gt;Node15 -->
<g id="edge15" class="edge">
<title>Node14&#45;&gt;Node15</title>
<path fill="none" stroke="#63b8ff" d="M231.16,-83.92C237.8,-81.51 244.33,-78.43 250,-74.5 271.92,-59.31 264.24,-41.92 286,-26.5 288.84,-24.49 291.91,-22.7 295.1,-21.1"/>
<polygon fill="#63b8ff" stroke="#63b8ff" points="296.56,-24.28 304.35,-17.09 293.78,-17.86 296.56,-24.28"/>
</g>
<!-- Node16 -->
<g id="node16" class="node">
<title>Node16</title>
<g id="a_node16"><a xlink:href="namespacea60.html#a5491ff3ca7dc34407696caaa90828819" target="_top" xlink:title="First collection serialization, common for all writing.">
<polygon fill="white" stroke="#666666" points="402,-61.5 286,-61.5 286,-35.5 402,-35.5 402,-61.5"/>
<text text-anchor="start" x="294" y="-51.1" font-family="SourceSans" font-size="8.00">a60::serialize_collection</text>
<text text-anchor="middle" x="344" y="-42.1" font-family="SourceSans" font-size="8.00">_base_json</text>
</a>
</g>
</g>
<!-- Node14&#45;&gt;Node16 -->
<g id="edge16" class="edge">
<title>Node14&#45;&gt;Node16</title>
<path fill="none" stroke="#63b8ff" d="M218.66,-83.91C238.17,-78.35 264.18,-70.95 287.36,-64.35"/>
<polygon fill="#63b8ff" stroke="#63b8ff" points="288.43,-67.68 297.09,-61.57 286.51,-60.95 288.43,-67.68"/>
</g>
</g>
</svg>
