<?xml version="1.0" encoding="UTF-8" standalone="no"?>
<!DOCTYPE svg PUBLIC "-//W3C//DTD SVG 1.1//EN"
 "http://www.w3.org/Graphics/SVG/1.1/DTD/svg11.dtd">
<!-- Generated by graphviz version 5.0.0 (0)
 -->
<!-- Title: a60::augment_collection_access Pages: 1 -->
<!--zoomable 738 -->
<svg id="main" version="1.1" xmlns="http://www.w3.org/2000/svg" xmlns:xlink="http://www.w3.org/1999/xlink" xml:space="preserve" onload="init(evt)">
<style type="text/css"><![CDATA[
.edge:hover path { stroke: red; }
.edge:hover polygon { stroke: red; fill: red; }
]]></style>
<script type="text/javascript"><![CDATA[
var edges = document.getElementsByTagName('g');
if (edges && edges.length) {
  for (var i=0;i<edges.length;i++) {
    if (edges[i].id.substr(0,4)=='edge') {
      edges[i].setAttribute('class','edge');
    }
  }
}
]]></script>
        <defs>
                <circle id="rim" cx="0" cy="0" r="7"/>
                <circle id="rim2" cx="0" cy="0" r="3.5"/>
                <g id="zoomPlus">
                        <use xlink:href="#rim" fill="#404040">
                                <set attributeName="fill" to="#808080" begin="zoomplus.mouseover" end="zoomplus.mouseout"/>
                        </use>
                        <path d="M-4,0h8M0,-4v8" fill="none" stroke="white" stroke-width="1.5" pointer-events="none"/>
                </g>
                <g id="zoomMin">
                        <use xlink:href="#rim" fill="#404040">
                                <set attributeName="fill" to="#808080" begin="zoomminus.mouseover" end="zoomminus.mouseout"/>
                        </use>
                        <path d="M-4,0h8" fill="none" stroke="white" stroke-width="1.5" pointer-events="none"/>
                </g>
                <g id="dirArrow">
                        <path fill="none" stroke="white" stroke-width="1.5" d="M0,-3.0v7 M-2.5,-0.5L0,-3.0L2.5,-0.5"/>
                </g>
               <g id="resetDef">
                       <use xlink:href="#rim2" fill="#404040">
                               <set attributeName="fill" to="#808080" begin="reset.mouseover" end="reset.mouseout"/>
                       </use>
               </g>
        </defs>

<script type="text/javascript">
var viewWidth = 1103;
var viewHeight = 738;
var sectionId = 'dynsection-21';
</script>
<script xlink:href="svgpan.js"/>
<svg id="graph" class="graph">
<g id="viewport">
<title>a60::augment_collection_access</title>
<!-- Node1 -->
<g id="node1" class="node">
<title>Node1</title>
<g id="a_node1"><a xlink:title=" ">
<polygon fill="#999999" stroke="#666666" points="119,-602.73 0,-602.73 0,-576.73 119,-576.73 119,-602.73"/>
<text text-anchor="start" x="8" y="-592.33" font-family="SourceSans" font-size="8.00">a60::augment_collection</text>
<text text-anchor="middle" x="59.5" y="-583.33" font-family="SourceSans" font-size="8.00">_access</text>
</a>
</g>
</g>
<!-- Node2 -->
<g id="node2" class="node">
<title>Node2</title>
<g id="a_node2"><a xlink:href="namespacea60.html#a2b3725c71fd92a6b687fcad1cc804d5e" target="_top" xlink:title=" ">
<polygon fill="white" stroke="#666666" points="274,-582.73 155,-582.73 155,-556.73 274,-556.73 274,-582.73"/>
<text text-anchor="start" x="163" y="-572.33" font-family="SourceSans" font-size="8.00">a60::augment_collection</text>
<text text-anchor="middle" x="214.5" y="-563.33" font-family="SourceSans" font-size="8.00">_ovoid</text>
</a>
</g>
</g>
<!-- Node1&#45;&gt;Node2 -->
<g id="edge1" class="edge">
<title>Node1&#45;&gt;Node2</title>
<path fill="none" stroke="#63b8ff" d="M119.22,-582.06C127.64,-580.96 136.36,-579.82 144.95,-578.7"/>
<polygon fill="#63b8ff" stroke="#63b8ff" points="145.48,-582.16 154.94,-577.39 144.57,-575.21 145.48,-582.16"/>
</g>
<!-- Node11 -->
<g id="node11" class="node">
<title>Node11</title>
<g id="a_node11"><a xlink:href="namespacea60.html#a4e8b0cabed112734147b499bf0cc9029" target="_top" xlink:title="Conversion of resolution_mode to string.">
<polygon fill="white" stroke="#666666" points="762,-537.23 688,-537.23 688,-520.23 762,-520.23 762,-537.23"/>
<text text-anchor="middle" x="725" y="-526.83" font-family="SourceSans" font-size="8.00">a60::to_string</text>
</a>
</g>
</g>
<!-- Node1&#45;&gt;Node11 -->
<g id="edge45" class="edge">
<title>Node1&#45;&gt;Node11</title>
<path fill="none" stroke="#63b8ff" d="M119.27,-600.89C224.1,-618.41 449.11,-645.19 628,-591.73 658.86,-582.51 689,-559.84 707.04,-544.36"/>
<polygon fill="#63b8ff" stroke="#63b8ff" points="709.71,-546.68 714.88,-537.44 705.07,-541.44 709.71,-546.68"/>
</g>
<!-- Node18 -->
<g id="node18" class="node">
<title>Node18</title>
<g id="a_node18"><a xlink:href="namespacea60.html#a75f5d9553ad7cfab9f6af56253bc746d" target="_top" xlink:title="Sum over vector glyphs, return as new summary glyph.">
<polygon fill="white" stroke="#666666" points="597,-730.23 511,-730.23 511,-713.23 597,-713.23 597,-730.23"/>
<text text-anchor="middle" x="554" y="-719.83" font-family="SourceSans" font-size="8.00">a60::sum_glyphs</text>
</a>
</g>
</g>
<!-- Node1&#45;&gt;Node18 -->
<g id="edge44" class="edge">
<title>Node1&#45;&gt;Node18</title>
<path fill="none" stroke="#63b8ff" d="M92.98,-602.82C111.07,-609.84 134.09,-618.34 155,-624.73 277.52,-662.22 424.71,-694.98 501.17,-711.11"/>
<polygon fill="#63b8ff" stroke="#63b8ff" points="500.52,-714.55 511.03,-713.18 501.96,-707.7 500.52,-714.55"/>
</g>
<!-- Node22 -->
<g id="node22" class="node">
<title>Node22</title>
<g id="a_node22"><a xlink:href="namespacea60.html#a93afe633a2da7041b3d7ac7ba8da41a4" target="_top" xlink:title="Expensive. Should this be part of a weighed collection?">
<polygon fill="white" stroke="#666666" points="260,-374.23 169,-374.23 169,-357.23 260,-357.23 260,-374.23"/>
<text text-anchor="middle" x="214.5" y="-363.83" font-family="SourceSans" font-size="8.00">a60::make_glyphs</text>
</a>
</g>
</g>
<!-- Node1&#45;&gt;Node22 -->
<g id="edge29" class="edge">
<title>Node1&#45;&gt;Node22</title>
<path fill="none" stroke="#63b8ff" d="M69.39,-576.72C95.53,-538.45 172.19,-426.22 201.72,-382.99"/>
<polygon fill="#63b8ff" stroke="#63b8ff" points="204.67,-384.87 207.42,-374.64 198.89,-380.92 204.67,-384.87"/>
</g>
<!-- Node3 -->
<g id="node3" class="node">
<title>Node3</title>
<g id="a_node3"><a xlink:href="namespacea60.html#afd267ab94266951ec08784e178349e3c" target="_top" xlink:title="Common parts of weighed collections.">
<polygon fill="white" stroke="#666666" points="426.5,-409.23 327.5,-409.23 327.5,-392.23 426.5,-392.23 426.5,-409.23"/>
<text text-anchor="middle" x="377" y="-398.83" font-family="SourceSans" font-size="8.00">a60::augment_base</text>
</a>
</g>
</g>
<!-- Node2&#45;&gt;Node3 -->
<g id="edge2" class="edge">
<title>Node2&#45;&gt;Node3</title>
<path fill="none" stroke="#63b8ff" d="M228.09,-556.47C257.25,-525.77 329.31,-449.9 360.83,-416.71"/>
<polygon fill="#63b8ff" stroke="#63b8ff" points="363.57,-418.91 367.92,-409.25 358.49,-414.09 363.57,-418.91"/>
</g>
<!-- Node15 -->
<g id="node15" class="node">
<title>Node15</title>
<g id="a_node15"><a xlink:href="namespacea60.html#a892e88cdb0f518eb083be90e21b4b8af" target="_top" xlink:title=" ">
<polygon fill="white" stroke="#666666" points="444,-582.73 310,-582.73 310,-556.73 444,-556.73 444,-582.73"/>
<text text-anchor="start" x="318" y="-572.33" font-family="SourceSans" font-size="8.00">a60::make_torrent_collection</text>
<text text-anchor="middle" x="377" y="-563.33" font-family="SourceSans" font-size="8.00">_ovoid_glyph</text>
</a>
</g>
</g>
<!-- Node2&#45;&gt;Node15 -->
<g id="edge20" class="edge">
<title>Node2&#45;&gt;Node15</title>
<path fill="none" stroke="#63b8ff" d="M274.35,-569.73C282.56,-569.73 291.08,-569.73 299.56,-569.73"/>
<polygon fill="#63b8ff" stroke="#63b8ff" points="299.83,-573.23 309.83,-569.73 299.83,-566.23 299.83,-573.23"/>
</g>
<!-- Node4 -->
<g id="node4" class="node">
<title>Node4</title>
<g id="a_node4"><a xlink:href="namespacea60.html#a578d5079a62c97b1fb3a1693a82d7430" target="_top" xlink:title="Base name for output for non&#45;map, data/info.">
<polygon fill="white" stroke="#666666" points="627,-391.23 481,-391.23 481,-374.23 627,-374.23 627,-391.23"/>
<text text-anchor="middle" x="554" y="-380.83" font-family="SourceSans" font-size="8.00">a60::augment_base_info_name</text>
</a>
</g>
</g>
<!-- Node3&#45;&gt;Node4 -->
<g id="edge3" class="edge">
<title>Node3&#45;&gt;Node4</title>
<path fill="none" stroke="#63b8ff" d="M426.75,-395.72C440.39,-394.32 455.6,-392.75 470.62,-391.21"/>
<polygon fill="#63b8ff" stroke="#63b8ff" points="471.37,-394.65 480.96,-390.14 470.65,-387.69 471.37,-394.65"/>
</g>
<!-- Node5 -->
<g id="node5" class="node">
<title>Node5</title>
<g id="a_node5"><a xlink:href="structa60_1_1collection.html#a80993af9aec8238db8e44da1e9a3c994" target="_top" xlink:title=" ">
<polygon fill="white" stroke="#666666" points="776.5,-404.73 673.5,-404.73 673.5,-378.73 776.5,-378.73 776.5,-404.73"/>
<text text-anchor="start" x="681.5" y="-394.33" font-family="SourceSans" font-size="8.00">a60::collection::slice</text>
<text text-anchor="middle" x="725" y="-385.33" font-family="SourceSans" font-size="8.00">_name_mangled</text>
</a>
</g>
</g>
<!-- Node3&#45;&gt;Node5 -->
<g id="edge19" class="edge">
<title>Node3&#45;&gt;Node5</title>
<path fill="none" stroke="#63b8ff" d="M426.89,-402.08C477.31,-403.16 558.2,-404 628,-400.73 639.38,-400.2 651.5,-399.32 663.15,-398.3"/>
<polygon fill="#63b8ff" stroke="#63b8ff" points="663.6,-401.78 673.24,-397.39 662.97,-394.81 663.6,-401.78"/>
</g>
<!-- Node10 -->
<g id="node10" class="node">
<title>Node10</title>
<g id="a_node10"><a xlink:href="namespacea60.html#af7680b43cbe9dfe398fb13de46e09895" target="_top" xlink:title="Base name for output with maps.">
<polygon fill="white" stroke="#666666" points="628,-465.23 480,-465.23 480,-448.23 628,-448.23 628,-465.23"/>
<text text-anchor="middle" x="554" y="-454.83" font-family="SourceSans" font-size="8.00">a60::augment_base_map_name</text>
</a>
</g>
</g>
<!-- Node3&#45;&gt;Node10 -->
<g id="edge9" class="edge">
<title>Node3&#45;&gt;Node10</title>
<path fill="none" stroke="#63b8ff" d="M404.4,-409.34C424.98,-416.03 454.29,-425.53 480,-433.73 491.65,-437.45 504.36,-441.47 515.86,-445.09"/>
<polygon fill="#63b8ff" stroke="#63b8ff" points="515.01,-448.49 525.6,-448.16 517.11,-441.82 515.01,-448.49"/>
</g>
<!-- Node12 -->
<g id="node12" class="node">
<title>Node12</title>
<g id="a_node12"><a xlink:href="namespacea60.html#a1bf91ba66297e089d99c49d6a376c0ad" target="_top" xlink:title="NEW STYLE First composite with map, black on white.">
<polygon fill="white" stroke="#666666" points="607,-321.23 501,-321.23 501,-304.23 607,-304.23 607,-321.23"/>
<text text-anchor="middle" x="554" y="-310.83" font-family="SourceSans" font-size="8.00">a60::make_map_base</text>
</a>
</g>
</g>
<!-- Node3&#45;&gt;Node12 -->
<g id="edge15" class="edge">
<title>Node3&#45;&gt;Node12</title>
<path fill="none" stroke="#63b8ff" d="M387.97,-392.04C405.42,-377.26 443.16,-347.26 480,-330.73 485.49,-328.27 491.38,-326.11 497.33,-324.22"/>
<polygon fill="#63b8ff" stroke="#63b8ff" points="498.74,-327.46 507.37,-321.3 496.79,-320.74 498.74,-327.46"/>
</g>
<!-- Node14 -->
<g id="node14" class="node">
<title>Node14</title>
<g id="a_node14"><a xlink:href="namespacea60.html#af951ad59a8649d55d5075079447bf0e7" target="_top" xlink:title="First composite with map, white on black.">
<polygon fill="white" stroke="#666666" points="624,-356.23 484,-356.23 484,-339.23 624,-339.23 624,-356.23"/>
<text text-anchor="middle" x="554" y="-345.83" font-family="SourceSans" font-size="8.00">a60::make_map_inverse_base</text>
</a>
</g>
</g>
<!-- Node3&#45;&gt;Node14 -->
<g id="edge17" class="edge">
<title>Node3&#45;&gt;Node14</title>
<path fill="none" stroke="#63b8ff" d="M400.9,-392.22C421.45,-384.74 452.52,-373.82 480,-365.73 488.28,-363.3 497.15,-360.92 505.76,-358.73"/>
<polygon fill="#63b8ff" stroke="#63b8ff" points="506.83,-362.07 515.69,-356.26 505.14,-355.28 506.83,-362.07"/>
</g>
<!-- Node4&#45;&gt;Node5 -->
<g id="edge4" class="edge">
<title>Node4&#45;&gt;Node5</title>
<path fill="none" stroke="#63b8ff" d="M627.16,-386.58C639.17,-387.22 651.51,-387.87 663.2,-388.5"/>
<polygon fill="#63b8ff" stroke="#63b8ff" points="663.1,-392 673.27,-389.03 663.47,-385.01 663.1,-392"/>
</g>
<!-- Node6 -->
<g id="node6" class="node">
<title>Node6</title>
<g id="a_node6"><a xlink:href="structa60_1_1collection.html#a25b35cf4ac39da89d868fe2cf41b5acd" target="_top" xlink:title=" ">
<polygon fill="white" stroke="#666666" points="952,-375.23 822,-375.23 822,-358.23 952,-358.23 952,-375.23"/>
<text text-anchor="middle" x="887" y="-364.83" font-family="SourceSans" font-size="8.00">a60::collection::slice_name</text>
</a>
</g>
</g>
<!-- Node5&#45;&gt;Node6 -->
<g id="edge5" class="edge">
<title>Node5&#45;&gt;Node6</title>
<path fill="none" stroke="#63b8ff" d="M776.62,-383.82C790.83,-381.6 806.48,-379.16 821.38,-376.83"/>
<polygon fill="#63b8ff" stroke="#63b8ff" points="822.21,-380.24 831.55,-375.24 821.13,-373.33 822.21,-380.24"/>
</g>
<!-- Node7 -->
<g id="node7" class="node">
<title>Node7</title>
<g id="a_node7"><a xlink:href="namespacea60.html#ac7eddb2e330d8983ddc852edde5335c5" target="_top" xlink:title=" ">
<polygon fill="white" stroke="#666666" points="946.5,-410.23 827.5,-410.23 827.5,-393.23 946.5,-393.23 946.5,-410.23"/>
<text text-anchor="middle" x="887" y="-399.83" font-family="SourceSans" font-size="8.00">a60::to_lowercase_string</text>
</a>
</g>
</g>
<!-- Node5&#45;&gt;Node7 -->
<g id="edge6" class="edge">
<title>Node5&#45;&gt;Node7</title>
<path fill="none" stroke="#63b8ff" d="M776.62,-394.9C789.47,-395.7 803.48,-396.58 817.06,-397.43"/>
<polygon fill="#63b8ff" stroke="#63b8ff" points="817.13,-400.94 827.33,-398.07 817.57,-393.95 817.13,-400.94"/>
</g>
<!-- Node8 -->
<g id="node8" class="node">
<title>Node8</title>
<g id="a_node8"><a xlink:href="namespacea60.html#a11d9ffc210e8dca8410e7a5ad62deabc" target="_top" xlink:title=" ">
<polygon fill="white" stroke="#666666" points="943.5,-473.73 830.5,-473.73 830.5,-447.73 943.5,-447.73 943.5,-473.73"/>
<text text-anchor="start" x="838.5" y="-463.33" font-family="SourceSans" font-size="8.00">a60::to_replace_spaces</text>
<text text-anchor="middle" x="887" y="-454.33" font-family="SourceSans" font-size="8.00">_string</text>
</a>
</g>
</g>
<!-- Node5&#45;&gt;Node8 -->
<g id="edge7" class="edge">
<title>Node5&#45;&gt;Node8</title>
<path fill="none" stroke="#63b8ff" d="M756.47,-404.88C781.94,-415.86 818.45,-431.6 846.22,-443.58"/>
<polygon fill="#63b8ff" stroke="#63b8ff" points="845.07,-446.9 855.64,-447.64 847.85,-440.47 845.07,-446.9"/>
</g>
<!-- Node9 -->
<g id="node9" class="node">
<title>Node9</title>
<g id="a_node9"><a xlink:href="namespacea60.html#a751f954fe64233f1dc6517220e4b5692" target="_top" xlink:title=" ">
<polygon fill="white" stroke="#666666" points="1095,-469.23 988,-469.23 988,-452.23 1095,-452.23 1095,-469.23"/>
<text text-anchor="middle" x="1041.5" y="-458.83" font-family="SourceSans" font-size="8.00">a60::to_replace_string</text>
</a>
</g>
</g>
<!-- Node8&#45;&gt;Node9 -->
<g id="edge8" class="edge">
<title>Node8&#45;&gt;Node9</title>
<path fill="none" stroke="#63b8ff" d="M943.92,-460.73C954.92,-460.73 966.53,-460.73 977.73,-460.73"/>
<polygon fill="#63b8ff" stroke="#63b8ff" points="977.88,-464.23 987.88,-460.73 977.88,-457.23 977.88,-464.23"/>
</g>
<!-- Node10&#45;&gt;Node5 -->
<g id="edge10" class="edge">
<title>Node10&#45;&gt;Node5</title>
<path fill="none" stroke="#63b8ff" d="M584.73,-448.16C598.07,-444.11 613.94,-439.01 628,-433.73 639.13,-429.56 663.91,-418.71 685.5,-409.08"/>
<polygon fill="#63b8ff" stroke="#63b8ff" points="687.12,-412.19 694.82,-404.91 684.27,-405.8 687.12,-412.19"/>
</g>
<!-- Node10&#45;&gt;Node7 -->
<g id="edge11" class="edge">
<title>Node10&#45;&gt;Node7</title>
<path fill="none" stroke="#63b8ff" d="M606.36,-448.2C665.27,-438.41 761.81,-422.37 824.63,-411.93"/>
<polygon fill="#63b8ff" stroke="#63b8ff" points="825.51,-415.33 834.8,-410.24 824.36,-408.43 825.51,-415.33"/>
</g>
<!-- Node10&#45;&gt;Node8 -->
<g id="edge12" class="edge">
<title>Node10&#45;&gt;Node8</title>
<path fill="none" stroke="#63b8ff" d="M628.05,-457.62C685.49,-458.31 764.81,-459.27 820.28,-459.94"/>
<polygon fill="#63b8ff" stroke="#63b8ff" points="820.3,-463.44 830.34,-460.06 820.39,-456.44 820.3,-463.44"/>
</g>
<!-- Node10&#45;&gt;Node11 -->
<g id="edge13" class="edge">
<title>Node10&#45;&gt;Node11</title>
<path fill="none" stroke="#63b8ff" d="M598.07,-465.3C608.06,-467.85 618.53,-470.99 628,-474.73 655.04,-485.44 683.84,-502.49 702.76,-514.56"/>
<polygon fill="#63b8ff" stroke="#63b8ff" points="700.91,-517.54 711.21,-520.04 704.72,-511.66 700.91,-517.54"/>
</g>
<!-- Node11&#45;&gt;Node11 -->
<g id="edge14" class="edge">
<title>Node11&#45;&gt;Node11</title>
<path fill="none" stroke="#63b8ff" d="M700.86,-537.42C687.53,-545.91 695.57,-555.23 725,-555.23 745.23,-555.23 755.36,-550.83 755.37,-545.31"/>
<polygon fill="#63b8ff" stroke="#63b8ff" points="758.08,-543.1 749.14,-537.42 752.59,-547.44 758.08,-543.1"/>
</g>
<!-- Node13 -->
<g id="node13" class="node">
<title>Node13</title>
<g id="a_node13"><a xlink:href="namespacea60.html#a63203aef78ad674129103340323d3b63" target="_top" xlink:title="First layer.">
<polygon fill="white" stroke="#666666" points="786,-348.23 664,-348.23 664,-331.23 786,-331.23 786,-348.23"/>
<text text-anchor="middle" x="725" y="-337.83" font-family="SourceSans" font-size="8.00">a60::place_map_in_frame</text>
</a>
</g>
</g>
<!-- Node12&#45;&gt;Node13 -->
<g id="edge16" class="edge">
<title>Node12&#45;&gt;Node13</title>
<path fill="none" stroke="#63b8ff" d="M607.08,-321.06C623.95,-323.75 642.84,-326.77 660.44,-329.58"/>
<polygon fill="#63b8ff" stroke="#63b8ff" points="660.2,-333.09 670.63,-331.21 661.31,-326.17 660.2,-333.09"/>
</g>
<!-- Node14&#45;&gt;Node13 -->
<g id="edge18" class="edge">
<title>Node14&#45;&gt;Node13</title>
<path fill="none" stroke="#63b8ff" d="M624.23,-344.46C633.97,-344 643.99,-343.52 653.75,-343.06"/>
<polygon fill="#63b8ff" stroke="#63b8ff" points="653.98,-346.55 663.81,-342.58 653.65,-339.56 653.98,-346.55"/>
</g>
<!-- Node15&#45;&gt;Node11 -->
<g id="edge24" class="edge">
<title>Node15&#45;&gt;Node11</title>
<path fill="none" stroke="#63b8ff" d="M431.75,-556.72C447.24,-553.36 464.23,-550.04 480,-547.73 548.49,-537.73 628.63,-532.76 677.84,-530.47"/>
<polygon fill="#63b8ff" stroke="#63b8ff" points="678.03,-533.97 687.86,-530.03 677.72,-526.98 678.03,-533.97"/>
</g>
<!-- Node16 -->
<g id="node16" class="node">
<title>Node16</title>
<g id="a_node16"><a xlink:href="namespacea60.html#a04a926d3b0ca9d55ac2fd8b272c65ac5" target="_top" xlink:title="For ovoid representation.">
<polygon fill="white" stroke="#666666" points="611,-582.73 497,-582.73 497,-556.73 611,-556.73 611,-582.73"/>
<text text-anchor="start" x="505" y="-572.33" font-family="SourceSans" font-size="8.00">a60::augment_weighed</text>
<text text-anchor="middle" x="554" y="-563.33" font-family="SourceSans" font-size="8.00">_glyph_v2</text>
</a>
</g>
</g>
<!-- Node15&#45;&gt;Node16 -->
<g id="edge21" class="edge">
<title>Node15&#45;&gt;Node16</title>
<path fill="none" stroke="#63b8ff" d="M444.16,-569.73C457.97,-569.73 472.53,-569.73 486.35,-569.73"/>
<polygon fill="#63b8ff" stroke="#63b8ff" points="486.75,-573.23 496.75,-569.73 486.75,-566.23 486.75,-573.23"/>
</g>
<!-- Node17 -->
<g id="node17" class="node">
<title>Node17</title>
<g id="a_node17"><a xlink:href="namespacea60.html#af9e02e1293a4eadf10ef7ca9f3979c74" target="_top" xlink:title="Eraser.">
<polygon fill="white" stroke="#666666" points="618,-500.23 490,-500.23 490,-483.23 618,-483.23 618,-500.23"/>
<text text-anchor="middle" x="554" y="-489.83" font-family="SourceSans" font-size="8.00">a60::remove_empty_glyphs</text>
</a>
</g>
</g>
<!-- Node15&#45;&gt;Node17 -->
<g id="edge22" class="edge">
<title>Node15&#45;&gt;Node17</title>
<path fill="none" stroke="#63b8ff" d="M399.3,-556.71C419.54,-544.7 451.09,-526.95 480,-514.73 490.02,-510.5 501.09,-506.62 511.52,-503.31"/>
<polygon fill="#63b8ff" stroke="#63b8ff" points="512.74,-506.59 521.27,-500.31 510.68,-499.9 512.74,-506.59"/>
</g>
<!-- Node15&#45;&gt;Node18 -->
<g id="edge23" class="edge">
<title>Node15&#45;&gt;Node18</title>
<path fill="none" stroke="#63b8ff" d="M384.81,-582.84C398.97,-608.83 434.16,-667.14 480,-698.73 486.46,-703.19 493.83,-706.81 501.34,-709.75"/>
<polygon fill="#63b8ff" stroke="#63b8ff" points="500.27,-713.09 510.87,-713.12 502.6,-706.49 500.27,-713.09"/>
</g>
<!-- Node19 -->
<g id="node19" class="node">
<title>Node19</title>
<g id="a_node19"><a xlink:href="structa60_1_1glyph.html#ab2b6d99fc50ac7b0a05644091be9738b" target="_top" xlink:title=" ">
<polygon fill="white" stroke="#666666" points="769.5,-692.23 680.5,-692.23 680.5,-675.23 769.5,-675.23 769.5,-692.23"/>
<text text-anchor="middle" x="725" y="-681.83" font-family="SourceSans" font-size="8.00">a60::glyph::value</text>
</a>
</g>
</g>
<!-- Node15&#45;&gt;Node19 -->
<g id="edge25" class="edge">
<title>Node15&#45;&gt;Node19</title>
<path fill="none" stroke="#63b8ff" d="M387.16,-582.91C403.14,-604.64 438.37,-647.43 480,-665.73 541.11,-692.61 619.16,-693.27 670.31,-689.78"/>
<polygon fill="#63b8ff" stroke="#63b8ff" points="670.78,-693.25 680.48,-689 670.24,-686.27 670.78,-693.25"/>
</g>
<!-- Node20 -->
<g id="node20" class="node">
<title>Node20</title>
<g id="a_node20"><a xlink:href="namespacea60.html#a44aac8d8dd1c56a7539473d12b2a4f9a" target="_top" xlink:title="Weigh a vector of glyphs via the number of current peers.">
<polygon fill="white" stroke="#666666" points="622.5,-656.23 485.5,-656.23 485.5,-639.23 622.5,-639.23 622.5,-656.23"/>
<text text-anchor="middle" x="554" y="-645.83" font-family="SourceSans" font-size="8.00">a60::weigh_glyphs_via_mode</text>
</a>
</g>
</g>
<!-- Node15&#45;&gt;Node20 -->
<g id="edge26" class="edge">
<title>Node15&#45;&gt;Node20</title>
<path fill="none" stroke="#63b8ff" d="M407.29,-582.79C439.92,-597.33 492.3,-620.68 524.58,-635.07"/>
<polygon fill="#63b8ff" stroke="#63b8ff" points="523.34,-638.35 533.9,-639.22 526.19,-631.95 523.34,-638.35"/>
</g>
<!-- Node20&#45;&gt;Node19 -->
<g id="edge28" class="edge">
<title>Node20&#45;&gt;Node19</title>
<path fill="none" stroke="#63b8ff" d="M595.05,-656.27C618.64,-661.29 648.7,-667.69 673.85,-673.05"/>
<polygon fill="#63b8ff" stroke="#63b8ff" points="673.43,-676.54 683.94,-675.2 674.89,-669.7 673.43,-676.54"/>
</g>
<!-- Node21 -->
<g id="node21" class="node">
<title>Node21</title>
<g id="a_node21"><a xlink:href="namespacea60.html#a0d53d95ed1faf99432c1eaaa0d238732" target="_top" xlink:title="Normalize value from (min, max) on (nfloor, nceil)">
<polygon fill="white" stroke="#666666" points="785.5,-656.23 664.5,-656.23 664.5,-639.23 785.5,-639.23 785.5,-656.23"/>
<text text-anchor="middle" x="725" y="-645.83" font-family="SourceSans" font-size="8.00">a60::normalize_on_range</text>
</a>
</g>
</g>
<!-- Node20&#45;&gt;Node21 -->
<g id="edge27" class="edge">
<title>Node20&#45;&gt;Node21</title>
<path fill="none" stroke="#63b8ff" d="M622.76,-647.73C633.1,-647.73 643.77,-647.73 654.15,-647.73"/>
<polygon fill="#63b8ff" stroke="#63b8ff" points="654.4,-651.23 664.4,-647.73 654.4,-644.23 654.4,-651.23"/>
</g>
<!-- Node23 -->
<g id="node23" class="node">
<title>Node23</title>
<g id="a_node23"><a xlink:href="namespacea60.html#ae9dd8f5f0bd8cfc07cfc19f957cf2c95" target="_top" xlink:title="Shell for titles page.">
<polygon fill="white" stroke="#666666" points="435,-210.23 319,-210.23 319,-193.23 435,-193.23 435,-210.23"/>
<text text-anchor="middle" x="377" y="-199.83" font-family="SourceSans" font-size="8.00">a60::make_glyphs_basic</text>
</a>
</g>
</g>
<!-- Node22&#45;&gt;Node23 -->
<g id="edge30" class="edge">
<title>Node22&#45;&gt;Node23</title>
<path fill="none" stroke="#63b8ff" d="M224.13,-356.92C249.93,-330.55 326.75,-252.05 360.18,-217.9"/>
<polygon fill="#63b8ff" stroke="#63b8ff" points="362.84,-220.19 367.33,-210.6 357.83,-215.29 362.84,-220.19"/>
</g>
<!-- Node24 -->
<g id="node24" class="node">
<title>Node24</title>
<g id="a_node24"><a xlink:href="namespacea60.html#a732ca2d85679838beb92881e9f39a999" target="_top" xlink:title="Engage bittorrent, create session.">
<polygon fill="white" stroke="#666666" points="610,-247.23 498,-247.23 498,-230.23 610,-230.23 610,-247.23"/>
<text text-anchor="middle" x="554" y="-236.83" font-family="SourceSans" font-size="8.00">a60::configure_session</text>
</a>
</g>
</g>
<!-- Node23&#45;&gt;Node24 -->
<g id="edge31" class="edge">
<title>Node23&#45;&gt;Node24</title>
<path fill="none" stroke="#63b8ff" d="M418.59,-210.32C443.66,-215.62 476.02,-222.46 502.71,-228.1"/>
<polygon fill="#63b8ff" stroke="#63b8ff" points="502.12,-231.56 512.63,-230.2 503.57,-224.71 502.12,-231.56"/>
</g>
<!-- Node25 -->
<g id="node25" class="node">
<title>Node25</title>
<g id="a_node25"><a xlink:href="namespacea60_1_1io.html#a16f17ea9e02c1975ca17b77e46cf7629" target="_top" xlink:title="Make sure a path ends in &#39;/&#39;;.">
<polygon fill="white" stroke="#666666" points="932,-108.23 842,-108.23 842,-91.23 932,-91.23 932,-108.23"/>
<text text-anchor="middle" x="887" y="-97.83" font-family="SourceSans" font-size="8.00">a60::io::end_path</text>
</a>
</g>
</g>
<!-- Node23&#45;&gt;Node25 -->
<g id="edge32" class="edge">
<title>Node23&#45;&gt;Node25</title>
<path fill="none" stroke="#63b8ff" d="M435.2,-204.77C515.77,-207.19 666.25,-204.9 786,-163.73 817.61,-152.87 849.3,-130.09 868.28,-114.85"/>
<polygon fill="#63b8ff" stroke="#63b8ff" points="870.57,-117.5 876.07,-108.45 866.12,-112.1 870.57,-117.5"/>
</g>
<!-- Node26 -->
<g id="node26" class="node">
<title>Node26</title>
<g id="a_node26"><a xlink:href="namespacea60_1_1io.html#a89f2bd581ec510ccc0a8cfedccff7bd0" target="_top" xlink:title="Top level of directory for output files.">
<polygon fill="white" stroke="#666666" points="602,-69.73 506,-69.73 506,-43.73 602,-43.73 602,-69.73"/>
<text text-anchor="start" x="514" y="-59.33" font-family="SourceSans" font-size="8.00">a60::io::get_output</text>
<text text-anchor="middle" x="554" y="-50.33" font-family="SourceSans" font-size="8.00">_directory</text>
</a>
</g>
</g>
<!-- Node23&#45;&gt;Node26 -->
<g id="edge33" class="edge">
<title>Node23&#45;&gt;Node26</title>
<path fill="none" stroke="#63b8ff" d="M388.42,-193.1C415.85,-170.37 490.59,-108.44 529.2,-76.45"/>
<polygon fill="#63b8ff" stroke="#63b8ff" points="531.84,-78.81 537.31,-69.74 527.38,-73.42 531.84,-78.81"/>
</g>
<!-- Node28 -->
<g id="node28" class="node">
<title>Node28</title>
<g id="a_node28"><a xlink:href="namespacea60.html#a1ae4660be19d8586055437f379fa4985" target="_top" xlink:title="Configure torrent session.">
<polygon fill="white" stroke="#666666" points="614,-25.23 494,-25.23 494,-8.23 614,-8.23 614,-25.23"/>
<text text-anchor="middle" x="554" y="-14.83" font-family="SourceSans" font-size="8.00">a60::make_settings_pack</text>
</a>
</g>
</g>
<!-- Node23&#45;&gt;Node28 -->
<g id="edge37" class="edge">
<title>Node23&#45;&gt;Node28</title>
<path fill="none" stroke="#63b8ff" d="M380.6,-193.19C389.48,-165.53 421.35,-77.69 480,-34.73 482.69,-32.77 485.56,-31.01 488.56,-29.45"/>
<polygon fill="#63b8ff" stroke="#63b8ff" points="490.16,-32.57 497.87,-25.31 487.31,-26.18 490.16,-32.57"/>
</g>
<!-- Node29 -->
<g id="node29" class="node">
<title>Node29</title>
<g id="a_node29"><a xlink:href="structa60_1_1collection.html#a997d47a7fc3ffcabaeba3fd74cce0d82" target="_top" xlink:title=" ">
<polygon fill="white" stroke="#666666" points="609.5,-154.73 498.5,-154.73 498.5,-128.73 609.5,-128.73 609.5,-154.73"/>
<text text-anchor="start" x="506.5" y="-144.33" font-family="SourceSans" font-size="8.00">a60::collection::torrent</text>
<text text-anchor="middle" x="554" y="-135.33" font-family="SourceSans" font-size="8.00">_directory</text>
</a>
</g>
</g>
<!-- Node23&#45;&gt;Node29 -->
<g id="edge38" class="edge">
<title>Node23&#45;&gt;Node29</title>
<path fill="none" stroke="#63b8ff" d="M403.07,-193.14C429.65,-184.02 472.27,-169.41 505.28,-158.09"/>
<polygon fill="#63b8ff" stroke="#63b8ff" points="506.43,-161.4 514.76,-154.85 504.16,-154.78 506.43,-161.4"/>
</g>
<!-- Node32 -->
<g id="node32" class="node">
<title>Node32</title>
<g id="a_node32"><a xlink:href="structa60_1_1collection.html#a7f3662085b6407ab2a8916075c984151" target="_top" xlink:title=" ">
<polygon fill="white" stroke="#666666" points="775,-296.73 675,-296.73 675,-270.73 775,-270.73 775,-296.73"/>
<text text-anchor="start" x="683" y="-286.33" font-family="SourceSans" font-size="8.00">a60::collection::trim</text>
<text text-anchor="middle" x="725" y="-277.33" font-family="SourceSans" font-size="8.00">_string</text>
</a>
</g>
</g>
<!-- Node23&#45;&gt;Node32 -->
<g id="edge42" class="edge">
<title>Node23&#45;&gt;Node32</title>
<path fill="none" stroke="#63b8ff" d="M390.52,-210.36C409.12,-222.7 445.55,-245.06 480,-255.73 541.15,-274.69 614.51,-281.04 664.72,-283.05"/>
<polygon fill="#63b8ff" stroke="#63b8ff" points="664.64,-286.55 674.76,-283.41 664.89,-279.56 664.64,-286.55"/>
</g>
<!-- Node26&#45;&gt;Node25 -->
<g id="edge34" class="edge">
<title>Node26&#45;&gt;Node25</title>
<path fill="none" stroke="#63b8ff" d="M601.92,-43.66C610.71,-40.73 619.74,-37.39 628,-33.73 644.94,-26.24 646.12,-17.57 664,-12.73 716.34,1.42 735.22,6.26 786,-12.73 823.53,-26.77 856.27,-61.96 873.37,-83.04"/>
<polygon fill="#63b8ff" stroke="#63b8ff" points="870.78,-85.4 879.71,-91.1 876.28,-81.08 870.78,-85.4"/>
</g>
<!-- Node27 -->
<g id="node27" class="node">
<title>Node27</title>
<g id="a_node27"><a xlink:href="namespacea60_1_1io.html#a6ad052ef18cfb1a1ac708f7c69c9050d" target="_top" xlink:title="Assumes argument is full path, no error checking...">
<polygon fill="white" stroke="#666666" points="773,-47.73 677,-47.73 677,-21.73 773,-21.73 773,-47.73"/>
<text text-anchor="start" x="685" y="-37.33" font-family="SourceSans" font-size="8.00">a60::io::get_output</text>
<text text-anchor="middle" x="725" y="-28.33" font-family="SourceSans" font-size="8.00">_prefix</text>
</a>
</g>
</g>
<!-- Node26&#45;&gt;Node27 -->
<g id="edge35" class="edge">
<title>Node26&#45;&gt;Node27</title>
<path fill="none" stroke="#63b8ff" d="M602.08,-50.61C622.14,-47.99 645.72,-44.92 666.78,-42.18"/>
<polygon fill="#63b8ff" stroke="#63b8ff" points="667.42,-45.63 676.88,-40.87 666.52,-38.69 667.42,-45.63"/>
</g>
<!-- Node27&#45;&gt;Node25 -->
<g id="edge36" class="edge">
<title>Node27&#45;&gt;Node25</title>
<path fill="none" stroke="#63b8ff" d="M762.61,-47.8C770.36,-50.66 778.47,-53.74 786,-56.73 810.33,-66.42 837.63,-78.22 857.55,-87.01"/>
<polygon fill="#63b8ff" stroke="#63b8ff" points="856.4,-90.33 866.96,-91.18 859.23,-83.93 856.4,-90.33"/>
</g>
<!-- Node29&#45;&gt;Node25 -->
<g id="edge39" class="edge">
<title>Node29&#45;&gt;Node25</title>
<path fill="none" stroke="#63b8ff" d="M609.82,-149.25C657.06,-154.12 726.79,-157.44 786,-144.73 813.99,-138.73 843.61,-124.25 863.28,-113.32"/>
<polygon fill="#63b8ff" stroke="#63b8ff" points="865.13,-116.29 872.08,-108.3 861.66,-110.21 865.13,-116.29"/>
</g>
<!-- Node30 -->
<g id="node30" class="node">
<title>Node30</title>
<g id="a_node30"><a xlink:href="namespacea60_1_1io.html#ac95e5271a27a23bc2336d84b3f821fa2" target="_top" xlink:title="Constant filesystem and run&#45;time resources.">
<polygon fill="white" stroke="#666666" points="777,-135.73 673,-135.73 673,-109.73 777,-109.73 777,-135.73"/>
<text text-anchor="start" x="681" y="-125.33" font-family="SourceSans" font-size="8.00">a60::io::get_run_time</text>
<text text-anchor="middle" x="725" y="-116.33" font-family="SourceSans" font-size="8.00">_resources</text>
</a>
</g>
</g>
<!-- Node29&#45;&gt;Node30 -->
<g id="edge40" class="edge">
<title>Node29&#45;&gt;Node30</title>
<path fill="none" stroke="#63b8ff" d="M609.87,-135.57C626.79,-133.66 645.52,-131.56 662.84,-129.61"/>
<polygon fill="#63b8ff" stroke="#63b8ff" points="663.3,-133.08 672.84,-128.49 662.52,-126.12 663.3,-133.08"/>
</g>
<!-- Node31 -->
<g id="node31" class="node">
<title>Node31</title>
<g id="a_node31"><a xlink:href="namespacea60_1_1io.html#aa5fbb8ab63397dd45c4a54c0758935ef" target="_top" xlink:title="Sanity check input existence.">
<polygon fill="white" stroke="#666666" points="777,-91.73 673,-91.73 673,-65.73 777,-65.73 777,-91.73"/>
<text text-anchor="start" x="681" y="-81.33" font-family="SourceSans" font-size="8.00">a60::io::sanity_check</text>
<text text-anchor="middle" x="725" y="-72.33" font-family="SourceSans" font-size="8.00">_input</text>
</a>
</g>
</g>
<!-- Node29&#45;&gt;Node31 -->
<g id="edge41" class="edge">
<title>Node29&#45;&gt;Node31</title>
<path fill="none" stroke="#63b8ff" d="M589.83,-128.55C611.21,-120.48 639.17,-109.96 664,-100.73 668.75,-98.97 673.72,-97.13 678.68,-95.31"/>
<polygon fill="#63b8ff" stroke="#63b8ff" points="679.95,-98.57 688.13,-91.83 677.54,-92 679.95,-98.57"/>
</g>
<!-- Node32&#45;&gt;Node7 -->
<g id="edge43" class="edge">
<title>Node32&#45;&gt;Node7</title>
<path fill="none" stroke="#63b8ff" d="M751.59,-296.77C763.05,-303.46 776.15,-312.38 786,-322.73 807.96,-345.83 796.68,-365.4 822,-384.73 823.86,-386.15 825.82,-387.45 827.86,-388.64"/>
<polygon fill="#63b8ff" stroke="#63b8ff" points="826.72,-391.98 837.25,-393.2 829.78,-385.68 826.72,-391.98"/>
</g>
</g>
</svg>
        <g id="navigator" transform="translate(0 0)" fill="#404254">
                <rect fill="#f2f5e9" fill-opacity="0.5" stroke="#606060" stroke-width=".5" x="0" y="0" width="60" height="60"/>
                <use id="zoomplus" xlink:href="#zoomPlus" x="17" y="9" onmousedown="handleZoom(evt,'in')"/>
                <use id="zoomminus" xlink:href="#zoomMin" x="42" y="9" onmousedown="handleZoom(evt,'out')"/>
                <use id="reset" xlink:href="#resetDef" x="30" y="36" onmousedown="handleReset()"/>
                <g id="arrowUp" xlink:href="#dirArrow" transform="translate(30 24)" onmousedown="handlePan(0,-1)">
                  <use xlink:href="#rim" fill="#404040">
                        <set attributeName="fill" to="#808080" begin="arrowUp.mouseover" end="arrowUp.mouseout"/>
                  </use>
                  <path fill="none" stroke="white" stroke-width="1.5" d="M0,-3.0v7 M-2.5,-0.5L0,-3.0L2.5,-0.5"/>
                </g>
                <g id="arrowRight" xlink:href="#dirArrow" transform="rotate(90) translate(36 -43)" onmousedown="handlePan(1,0)">
                  <use xlink:href="#rim" fill="#404040">
                        <set attributeName="fill" to="#808080" begin="arrowRight.mouseover" end="arrowRight.mouseout"/>
                  </use>
                  <path fill="none" stroke="white" stroke-width="1.5" d="M0,-3.0v7 M-2.5,-0.5L0,-3.0L2.5,-0.5"/>
                </g>
                <g id="arrowDown" xlink:href="#dirArrow" transform="rotate(180) translate(-30 -48)" onmousedown="handlePan(0,1)">
                  <use xlink:href="#rim" fill="#404040">
                        <set attributeName="fill" to="#808080" begin="arrowDown.mouseover" end="arrowDown.mouseout"/>
                  </use>
                  <path fill="none" stroke="white" stroke-width="1.5" d="M0,-3.0v7 M-2.5,-0.5L0,-3.0L2.5,-0.5"/>
                </g>
                <g id="arrowLeft" xlink:href="#dirArrow" transform="rotate(270) translate(-36 17)" onmousedown="handlePan(-1,0)">
                  <use xlink:href="#rim" fill="#404040">
                        <set attributeName="fill" to="#808080" begin="arrowLeft.mouseover" end="arrowLeft.mouseout"/>
                  </use>
                  <path fill="none" stroke="white" stroke-width="1.5" d="M0,-3.0v7 M-2.5,-0.5L0,-3.0L2.5,-0.5"/>
                </g>
        </g>
        <svg viewBox="0 0 15 15" width="100%" height="30px" preserveAspectRatio="xMaxYMin meet">
         <g id="arrow_out" transform="scale(0.3 0.3)">
          <a xlink:href="namespacea60_a3e76834a386c9d522ef79b7a9c903a2a_cgraph_org.svg" target="_base">
           <rect id="button" ry="5" rx="5" y="6" x="6" height="38" width="38"
                fill="#f2f5e9" fill-opacity="0.5" stroke="#606060" stroke-width="1.0"/>
           <path id="arrow"
             d="M 11.500037,31.436501 C 11.940474,20.09759 22.043105,11.32322 32.158766,21.979434 L 37.068811,17.246167 C 37.068811,17.246167 37.088388,32 37.088388,32 L 22.160133,31.978069 C 22.160133,31.978069 26.997745,27.140456 26.997745,27.140456 C 18.528582,18.264221 13.291696,25.230495 11.500037,31.436501 z"
             style="fill:#404040;"/>
          </a>
         </g>
        </svg>
</svg>
