<?xml version="1.0" encoding="UTF-8" standalone="no"?>
<!DOCTYPE svg PUBLIC "-//W3C//DTD SVG 1.1//EN"
 "http://www.w3.org/Graphics/SVG/1.1/DTD/svg11.dtd">
<!-- Generated by graphviz version 5.0.0 (0)
 -->
<!-- Title: a60::metadata::cache_metadata Pages: 1 -->
<svg width="560pt" height="147pt"
 viewBox="0.00 0.00 560.00 147.00" xmlns="http://www.w3.org/2000/svg" xmlns:xlink="http://www.w3.org/1999/xlink">
<g id="graph0" class="graph" transform="scale(1 1) rotate(0) translate(4 143)">
<title>a60::metadata::cache_metadata</title>
<!-- Node1 -->
<g id="node1" class="node">
<title>Node1</title>
<g id="a_node1"><a xlink:title="Find data files in idir and return a cached (id, count) for each dimension. Returns: Vector with cumu...">
<polygon fill="#999999" stroke="#666666" points="109,-95 0,-95 0,-69 109,-69 109,-95"/>
<text text-anchor="start" x="8" y="-84.6" font-family="SourceSans" font-size="8.00">a60::metadata::cache</text>
<text text-anchor="middle" x="54.5" y="-75.6" font-family="SourceSans" font-size="8.00">_metadata</text>
</a>
</g>
</g>
<!-- Node2 -->
<g id="node2" class="node">
<title>Node2</title>
<g id="a_node2"><a xlink:href="namespacea60_1_1metadata.html#a0e500e6b24fc0c34c086dbbef210bfbb" target="_top" xlink:title=" ">
<polygon fill="white" stroke="#666666" points="252,-95 145,-95 145,-69 252,-69 252,-95"/>
<text text-anchor="start" x="153" y="-84.6" font-family="SourceSans" font-size="8.00">a60::metadata::get</text>
<text text-anchor="middle" x="198.5" y="-75.6" font-family="SourceSans" font-size="8.00">_vsids_from_metadata</text>
</a>
</g>
</g>
<!-- Node1&#45;&gt;Node2 -->
<g id="edge1" class="edge">
<title>Node1&#45;&gt;Node2</title>
<path fill="none" stroke="#63b8ff" d="M109.18,-82C117.45,-82 126.04,-82 134.49,-82"/>
<polygon fill="#63b8ff" stroke="#63b8ff" points="134.68,-85.5 144.68,-82 134.68,-78.5 134.68,-85.5"/>
</g>
<!-- Node3 -->
<g id="node3" class="node">
<title>Node3</title>
<g id="a_node3"><a xlink:href="namespacea60.html#af45982273a7a2e61b6aaa436081238c0" target="_top" xlink:title="Load JSON file to in&#45;memory DOM.">
<polygon fill="white" stroke="#666666" points="398.5,-139 294.5,-139 294.5,-113 398.5,-113 398.5,-139"/>
<text text-anchor="start" x="302.5" y="-128.6" font-family="SourceSans" font-size="8.00">a60::deserialize_json</text>
<text text-anchor="middle" x="346.5" y="-119.6" font-family="SourceSans" font-size="8.00">_to_dom_object</text>
</a>
</g>
</g>
<!-- Node2&#45;&gt;Node3 -->
<g id="edge2" class="edge">
<title>Node2&#45;&gt;Node3</title>
<path fill="none" stroke="#63b8ff" d="M242.91,-95.08C258.43,-99.76 276.1,-105.09 292.35,-109.98"/>
<polygon fill="#63b8ff" stroke="#63b8ff" points="291.67,-113.43 302.26,-112.97 293.69,-106.73 291.67,-113.43"/>
</g>
<!-- Node5 -->
<g id="node5" class="node">
<title>Node5</title>
<g id="a_node5"><a xlink:href="namespacea60_1_1metadata.html#a90edc2a49e803d1acc1c9c44c8c7cb46" target="_top" xlink:title="From multiset of strings to ordered elements of id (aka count, identifier).">
<polygon fill="white" stroke="#666666" points="405,-95 288,-95 288,-69 405,-69 405,-95"/>
<text text-anchor="start" x="296" y="-84.6" font-family="SourceSans" font-size="8.00">a60::metadata::multiset</text>
<text text-anchor="middle" x="346.5" y="-75.6" font-family="SourceSans" font-size="8.00">_to_set_of_ids</text>
</a>
</g>
</g>
<!-- Node2&#45;&gt;Node5 -->
<g id="edge4" class="edge">
<title>Node2&#45;&gt;Node5</title>
<path fill="none" stroke="#63b8ff" d="M252.21,-82C260.55,-82 269.27,-82 277.88,-82"/>
<polygon fill="#63b8ff" stroke="#63b8ff" points="277.93,-85.5 287.93,-82 277.93,-78.5 277.93,-85.5"/>
</g>
<!-- Node6 -->
<g id="node6" class="node">
<title>Node6</title>
<g id="a_node6"><a xlink:href="namespacea60_1_1metadata.html#ad5a0a0992f537497235f04e35bea124b" target="_top" xlink:title="Find the values from all matching fields containing agg.">
<polygon fill="white" stroke="#666666" points="402,-51 291,-51 291,-25 402,-25 402,-51"/>
<text text-anchor="start" x="299" y="-40.6" font-family="SourceSans" font-size="8.00">a60::metadata::values</text>
<text text-anchor="middle" x="346.5" y="-31.6" font-family="SourceSans" font-size="8.00">_from_fields_matching</text>
</a>
</g>
</g>
<!-- Node2&#45;&gt;Node6 -->
<g id="edge5" class="edge">
<title>Node2&#45;&gt;Node6</title>
<path fill="none" stroke="#63b8ff" d="M242.91,-68.92C258.43,-64.24 276.1,-58.91 292.35,-54.02"/>
<polygon fill="#63b8ff" stroke="#63b8ff" points="293.69,-57.27 302.26,-51.03 291.67,-50.57 293.69,-57.27"/>
</g>
<!-- Node4 -->
<g id="node4" class="node">
<title>Node4</title>
<g id="a_node4"><a xlink:href="namespacea60.html#a538d43bb9bfa488a54cea929736dbe2d" target="_top" xlink:title="Deserialize input file.">
<polygon fill="white" stroke="#666666" points="548.5,-139 444.5,-139 444.5,-113 548.5,-113 548.5,-139"/>
<text text-anchor="start" x="452.5" y="-128.6" font-family="SourceSans" font-size="8.00">a60::deserialize_json</text>
<text text-anchor="middle" x="496.5" y="-119.6" font-family="SourceSans" font-size="8.00">_to_dom</text>
</a>
</g>
</g>
<!-- Node3&#45;&gt;Node4 -->
<g id="edge3" class="edge">
<title>Node3&#45;&gt;Node4</title>
<path fill="none" stroke="#63b8ff" d="M398.85,-126C410.21,-126 422.37,-126 434.09,-126"/>
<polygon fill="#63b8ff" stroke="#63b8ff" points="434.24,-129.5 444.24,-126 434.24,-122.5 434.24,-129.5"/>
</g>
<!-- Node7 -->
<g id="node7" class="node">
<title>Node7</title>
<g id="a_node7"><a xlink:href="namespacea60.html#a4e8b0cabed112734147b499bf0cc9029" target="_top" xlink:title="Conversion of resolution_mode to string.">
<polygon fill="white" stroke="#666666" points="533.5,-61.5 459.5,-61.5 459.5,-44.5 533.5,-44.5 533.5,-61.5"/>
<text text-anchor="middle" x="496.5" y="-51.1" font-family="SourceSans" font-size="8.00">a60::to_string</text>
</a>
</g>
</g>
<!-- Node6&#45;&gt;Node7 -->
<g id="edge6" class="edge">
<title>Node6&#45;&gt;Node7</title>
<path fill="none" stroke="#63b8ff" d="M402.19,-43.54C417.71,-45.12 434.45,-46.81 449.41,-48.33"/>
<polygon fill="#63b8ff" stroke="#63b8ff" points="449.14,-51.82 459.44,-49.35 449.85,-44.85 449.14,-51.82"/>
</g>
<!-- Node8 -->
<g id="node8" class="node">
<title>Node8</title>
<g id="a_node8"><a xlink:href="namespacea60_1_1metadata.html#a80da6438996a07a5fa1df5728c004b2a" target="_top" xlink:title="Find name &#39;field&#39; in JSON file and return vector of values.">
<polygon fill="white" stroke="#666666" points="552,-26 441,-26 441,0 552,0 552,-26"/>
<text text-anchor="start" x="449" y="-15.6" font-family="SourceSans" font-size="8.00">a60::metadata::values</text>
<text text-anchor="middle" x="496.5" y="-6.6" font-family="SourceSans" font-size="8.00">_from_field</text>
</a>
</g>
</g>
<!-- Node6&#45;&gt;Node8 -->
<g id="edge8" class="edge">
<title>Node6&#45;&gt;Node8</title>
<path fill="none" stroke="#63b8ff" d="M402.19,-28.76C411.38,-27.21 421,-25.58 430.42,-23.99"/>
<polygon fill="#63b8ff" stroke="#63b8ff" points="431.26,-27.4 440.54,-22.28 430.1,-20.5 431.26,-27.4"/>
</g>
<!-- Node7&#45;&gt;Node7 -->
<g id="edge7" class="edge">
<title>Node7&#45;&gt;Node7</title>
<path fill="none" stroke="#63b8ff" d="M474.15,-61.69C461.8,-70.17 469.25,-79.5 496.5,-79.5 514.81,-79.5 524.18,-75.29 524.61,-69.95"/>
<polygon fill="#63b8ff" stroke="#63b8ff" points="527.44,-67.89 518.85,-61.69 521.69,-71.89 527.44,-67.89"/>
</g>
</g>
</svg>
