<?xml version="1.0" encoding="UTF-8" standalone="no"?>
<!DOCTYPE svg PUBLIC "-//W3C//DTD SVG 1.1//EN"
 "http://www.w3.org/Graphics/SVG/1.1/DTD/svg11.dtd">
<!-- Generated by graphviz version 5.0.0 (0)
 -->
<!-- Title: a60::reserialize_sample_json Pages: 1 -->
<svg width="618pt" height="122pt"
 viewBox="0.00 0.00 618.00 122.00" xmlns="http://www.w3.org/2000/svg" xmlns:xlink="http://www.w3.org/1999/xlink">
<g id="graph0" class="graph" transform="scale(1 1) rotate(0) translate(4 118)">
<title>a60::reserialize_sample_json</title>
<!-- Node1 -->
<g id="node1" class="node">
<title>Node1</title>
<g id="a_node1"><a xlink:title="Write out per&#45;sample details for accumlulated meta_peers.">
<polygon fill="#999999" stroke="#666666" points="135,-65.5 0,-65.5 0,-48.5 135,-48.5 135,-65.5"/>
<text text-anchor="middle" x="67.5" y="-55.1" font-family="SourceSans" font-size="8.00">a60::reserialize_sample_json</text>
</a>
</g>
</g>
<!-- Node2 -->
<g id="node2" class="node">
<title>Node2</title>
<g id="a_node2"><a xlink:href="namespacea60.html#a481196ce0dd2fed071183fa6e47ecd70" target="_top" xlink:title="Write out meta_peers for a specific ID at SUFFIX.">
<polygon fill="white" stroke="#666666" points="306,-65.5 171,-65.5 171,-48.5 306,-48.5 306,-65.5"/>
<text text-anchor="middle" x="238.5" y="-55.1" font-family="SourceSans" font-size="8.00">a60::reserialize_sample_json</text>
</a>
</g>
</g>
<!-- Node1&#45;&gt;Node2 -->
<g id="edge1" class="edge">
<title>Node1&#45;&gt;Node2</title>
<path fill="none" stroke="#63b8ff" d="M135.29,-57C143.62,-57 152.19,-57 160.66,-57"/>
<polygon fill="#63b8ff" stroke="#63b8ff" points="160.92,-60.5 170.92,-57 160.92,-53.5 160.92,-60.5"/>
</g>
<!-- Node3 -->
<g id="node3" class="node">
<title>Node3</title>
<g id="a_node3"><a xlink:href="namespacea60.html#aba8b47de875bd5bebeed9c57e3b52c06" target="_top" xlink:title="Serialize buffer to output file.">
<polygon fill="white" stroke="#666666" points="450.5,-105.5 349.5,-105.5 349.5,-88.5 450.5,-88.5 450.5,-105.5"/>
<text text-anchor="middle" x="400" y="-95.1" font-family="SourceSans" font-size="8.00">a60::serialize_buffer</text>
</a>
</g>
</g>
<!-- Node2&#45;&gt;Node3 -->
<g id="edge2" class="edge">
<title>Node2&#45;&gt;Node3</title>
<path fill="none" stroke="#63b8ff" d="M273.72,-65.58C297.47,-71.54 329.34,-79.53 354.99,-85.96"/>
<polygon fill="#63b8ff" stroke="#63b8ff" points="354.29,-89.4 364.84,-88.43 355.99,-82.61 354.29,-89.4"/>
</g>
<!-- Node4 -->
<g id="node4" class="node">
<title>Node4</title>
<g id="a_node4"><a xlink:href="namespacea60.html#a94d004bc4c17246fd2bb76cabb121d9a" target="_top" xlink:title="Per collection metadata for given duration.">
<polygon fill="white" stroke="#666666" points="458,-70 342,-70 342,-44 458,-44 458,-70"/>
<text text-anchor="start" x="350" y="-59.6" font-family="SourceSans" font-size="8.00">a60::serialize_collection</text>
<text text-anchor="middle" x="400" y="-50.6" font-family="SourceSans" font-size="8.00">_metadata_json</text>
</a>
</g>
</g>
<!-- Node2&#45;&gt;Node4 -->
<g id="edge3" class="edge">
<title>Node2&#45;&gt;Node4</title>
<path fill="none" stroke="#63b8ff" d="M306.22,-57C314.59,-57 323.17,-57 331.55,-57"/>
<polygon fill="#63b8ff" stroke="#63b8ff" points="331.66,-60.5 341.66,-57 331.66,-53.5 331.66,-60.5"/>
</g>
<!-- Node7 -->
<g id="node7" class="node">
<title>Node7</title>
<g id="a_node7"><a xlink:href="namespacea60.html#a87cd73602b7d6cf64ef441200cfda504" target="_top" xlink:title="Serialize vector of meta_peer.">
<polygon fill="white" stroke="#666666" points="449,-26 351,-26 351,0 449,0 449,-26"/>
<text text-anchor="start" x="359" y="-15.6" font-family="SourceSans" font-size="8.00">a60::serialize_meta</text>
<text text-anchor="middle" x="400" y="-6.6" font-family="SourceSans" font-size="8.00">_peers_json</text>
</a>
</g>
</g>
<!-- Node2&#45;&gt;Node7 -->
<g id="edge6" class="edge">
<title>Node2&#45;&gt;Node7</title>
<path fill="none" stroke="#63b8ff" d="M270.63,-48.41C290.87,-42.83 317.87,-35.38 341.88,-28.76"/>
<polygon fill="#63b8ff" stroke="#63b8ff" points="342.9,-32.11 351.61,-26.07 341.03,-25.36 342.9,-32.11"/>
</g>
<!-- Node5 -->
<g id="node5" class="node">
<title>Node5</title>
<g id="a_node5"><a xlink:href="structa60_1_1collection.html#a8ac066ef3bb824d0ecff3b1238e358e4" target="_top" xlink:title=" ">
<polygon fill="white" stroke="#666666" points="601,-114 503,-114 503,-88 601,-88 601,-114"/>
<text text-anchor="start" x="511" y="-103.6" font-family="SourceSans" font-size="8.00">a60::collection::get</text>
<text text-anchor="middle" x="552" y="-94.6" font-family="SourceSans" font-size="8.00">_name_from_tid</text>
</a>
</g>
</g>
<!-- Node4&#45;&gt;Node5 -->
<g id="edge4" class="edge">
<title>Node4&#45;&gt;Node5</title>
<path fill="none" stroke="#63b8ff" d="M445.6,-70.08C461.7,-74.8 480.05,-80.19 496.87,-85.12"/>
<polygon fill="#63b8ff" stroke="#63b8ff" points="495.99,-88.51 506.57,-87.97 497.96,-81.79 495.99,-88.51"/>
</g>
<!-- Node6 -->
<g id="node6" class="node">
<title>Node6</title>
<g id="a_node6"><a xlink:href="namespacea60.html#a5491ff3ca7dc34407696caaa90828819" target="_top" xlink:title="First collection serialization, common for all writing.">
<polygon fill="white" stroke="#666666" points="610,-70 494,-70 494,-44 610,-44 610,-70"/>
<text text-anchor="start" x="502" y="-59.6" font-family="SourceSans" font-size="8.00">a60::serialize_collection</text>
<text text-anchor="middle" x="552" y="-50.6" font-family="SourceSans" font-size="8.00">_base_json</text>
</a>
</g>
</g>
<!-- Node4&#45;&gt;Node6 -->
<g id="edge5" class="edge">
<title>Node4&#45;&gt;Node6</title>
<path fill="none" stroke="#63b8ff" d="M458.14,-57C466.38,-57 474.92,-57 483.34,-57"/>
<polygon fill="#63b8ff" stroke="#63b8ff" points="483.53,-60.5 493.53,-57 483.53,-53.5 483.53,-60.5"/>
</g>
<!-- Node8 -->
<g id="node8" class="node">
<title>Node8</title>
<g id="a_node8"><a xlink:href="namespacea60.html#a2228baa081fe66cea91ed8032bda4732" target="_top" xlink:title="Serialize meta_peer.">
<polygon fill="white" stroke="#666666" points="601,-26 503,-26 503,0 601,0 601,-26"/>
<text text-anchor="start" x="511" y="-15.6" font-family="SourceSans" font-size="8.00">a60::serialize_meta</text>
<text text-anchor="middle" x="552" y="-6.6" font-family="SourceSans" font-size="8.00">_peer_json</text>
</a>
</g>
</g>
<!-- Node7&#45;&gt;Node8 -->
<g id="edge7" class="edge">
<title>Node7&#45;&gt;Node8</title>
<path fill="none" stroke="#63b8ff" d="M449.29,-13C463.07,-13 478.24,-13 492.56,-13"/>
<polygon fill="#63b8ff" stroke="#63b8ff" points="492.8,-16.5 502.8,-13 492.8,-9.5 492.8,-16.5"/>
</g>
</g>
</svg>
