<?xml version="1.0" encoding="UTF-8" standalone="no"?>
<!DOCTYPE svg PUBLIC "-//W3C//DTD SVG 1.1//EN"
 "http://www.w3.org/Graphics/SVG/1.1/DTD/svg11.dtd">
<!-- Generated by graphviz version 5.0.0 (0)
 -->
<!-- Title: a60::weigh_glyphs_via_mode Pages: 1 -->
<svg width="302pt" height="60pt"
 viewBox="0.00 0.00 302.00 60.00" xmlns="http://www.w3.org/2000/svg" xmlns:xlink="http://www.w3.org/1999/xlink">
<g id="graph0" class="graph" transform="scale(1 1) rotate(0) translate(4 56)">
<title>a60::weigh_glyphs_via_mode</title>
<!-- Node1 -->
<g id="node1" class="node">
<title>Node1</title>
<g id="a_node1"><a xlink:title="Weigh a vector of glyphs via the number of current peers.">
<polygon fill="#999999" stroke="#666666" points="137,-34 0,-34 0,-17 137,-17 137,-34"/>
<text text-anchor="middle" x="68.5" y="-23.6" font-family="SourceSans" font-size="8.00">a60::weigh_glyphs_via_mode</text>
</a>
</g>
</g>
<!-- Node2 -->
<g id="node2" class="node">
<title>Node2</title>
<g id="a_node2"><a xlink:href="namespacea60.html#a0d53d95ed1faf99432c1eaaa0d238732" target="_top" xlink:title="Normalize value from (min, max) on (nfloor, nceil)">
<polygon fill="white" stroke="#666666" points="294,-52 173,-52 173,-35 294,-35 294,-52"/>
<text text-anchor="middle" x="233.5" y="-41.6" font-family="SourceSans" font-size="8.00">a60::normalize_on_range</text>
</a>
</g>
</g>
<!-- Node1&#45;&gt;Node2 -->
<g id="edge1" class="edge">
<title>Node1&#45;&gt;Node2</title>
<path fill="none" stroke="#63b8ff" d="M137.21,-32.98C145.61,-33.9 154.2,-34.85 162.63,-35.78"/>
<polygon fill="#63b8ff" stroke="#63b8ff" points="162.47,-39.29 172.8,-36.91 163.24,-32.33 162.47,-39.29"/>
</g>
<!-- Node3 -->
<g id="node3" class="node">
<title>Node3</title>
<g id="a_node3"><a xlink:href="structa60_1_1glyph.html#ab2b6d99fc50ac7b0a05644091be9738b" target="_top" xlink:title=" ">
<polygon fill="white" stroke="#666666" points="278,-17 189,-17 189,0 278,0 278,-17"/>
<text text-anchor="middle" x="233.5" y="-6.6" font-family="SourceSans" font-size="8.00">a60::glyph::value</text>
</a>
</g>
</g>
<!-- Node1&#45;&gt;Node3 -->
<g id="edge2" class="edge">
<title>Node1&#45;&gt;Node3</title>
<path fill="none" stroke="#63b8ff" d="M137.21,-18.44C151.15,-16.98 165.65,-15.47 179,-14.08"/>
<polygon fill="#63b8ff" stroke="#63b8ff" points="179.38,-17.56 188.96,-13.04 178.65,-10.6 179.38,-17.56"/>
</g>
</g>
</svg>
