<?xml version="1.0" encoding="UTF-8" standalone="no"?>
<!DOCTYPE svg PUBLIC "-//W3C//DTD SVG 1.1//EN"
 "http://www.w3.org/Graphics/SVG/1.1/DTD/svg11.dtd">
<!-- Generated by graphviz version 5.0.0 (0)
 -->
<!-- Title: a60::metadata::render_ids_text_bias Pages: 1 -->
<svg width="554pt" height="170pt"
 viewBox="0.00 0.00 554.00 169.50" xmlns="http://www.w3.org/2000/svg" xmlns:xlink="http://www.w3.org/1999/xlink">
<g id="graph0" class="graph" transform="scale(1 1) rotate(0) translate(4 165.5)">
<title>a60::metadata::render_ids_text_bias</title>
<!-- Node1 -->
<g id="node1" class="node">
<title>Node1</title>
<g id="a_node1"><a xlink:title="Entry point specialized for bias tag display.">
<polygon fill="#999999" stroke="#666666" points="110,-140.5 0,-140.5 0,-114.5 110,-114.5 110,-140.5"/>
<text text-anchor="start" x="8" y="-130.1" font-family="SourceSans" font-size="8.00">a60::metadata::render</text>
<text text-anchor="middle" x="55" y="-121.1" font-family="SourceSans" font-size="8.00">_ids_text_bias</text>
</a>
</g>
</g>
<!-- Node2 -->
<g id="node2" class="node">
<title>Node2</title>
<g id="a_node2"><a xlink:href="namespacea60_1_1metadata.html#aeba42336cc4f30ed9ee705111d3e82a9" target="_top" xlink:title="Typographic defaults for text labels.">
<polygon fill="white" stroke="#666666" points="391.5,-161.5 293.5,-161.5 293.5,-135.5 391.5,-135.5 391.5,-161.5"/>
<text text-anchor="start" x="301.5" y="-151.1" font-family="SourceSans" font-size="8.00">a60::metadata::get</text>
<text text-anchor="middle" x="342.5" y="-142.1" font-family="SourceSans" font-size="8.00">_metadata_typo</text>
</a>
</g>
</g>
<!-- Node1&#45;&gt;Node2 -->
<g id="edge1" class="edge">
<title>Node1&#45;&gt;Node2</title>
<path fill="none" stroke="#63b8ff" d="M110.04,-131.47C159.49,-135.11 232.48,-140.48 283.23,-144.21"/>
<polygon fill="#63b8ff" stroke="#63b8ff" points="283.15,-147.72 293.38,-144.96 283.67,-140.74 283.15,-147.72"/>
</g>
<!-- Node4 -->
<g id="node4" class="node">
<title>Node4</title>
<g id="a_node4"><a xlink:href="namespacea60_1_1metadata.html#acac3003bbaeb00d1c2dbfab86874dd04" target="_top" xlink:title="Base Radial Visualization.">
<polygon fill="white" stroke="#666666" points="256,-120.5 146,-120.5 146,-94.5 256,-94.5 256,-120.5"/>
<text text-anchor="start" x="154" y="-110.1" font-family="SourceSans" font-size="8.00">a60::metadata::render</text>
<text text-anchor="middle" x="201" y="-101.1" font-family="SourceSans" font-size="8.00">_id_base</text>
</a>
</g>
</g>
<!-- Node1&#45;&gt;Node4 -->
<g id="edge3" class="edge">
<title>Node1&#45;&gt;Node4</title>
<path fill="none" stroke="#63b8ff" d="M110.03,-120C118.4,-118.83 127.13,-117.62 135.7,-116.43"/>
<polygon fill="#63b8ff" stroke="#63b8ff" points="136.24,-119.89 145.67,-115.05 135.28,-112.96 136.24,-119.89"/>
</g>
<!-- Node3 -->
<g id="node3" class="node">
<title>Node3</title>
<g id="a_node3"><a xlink:href="namespacea60_1_1metadata.html#abcd6d192e6ed0f853c3c6cd9bcf13cad" target="_top" xlink:title=" ">
<polygon fill="white" stroke="#666666" points="536.5,-140.5 438.5,-140.5 438.5,-114.5 536.5,-114.5 536.5,-140.5"/>
<text text-anchor="start" x="446.5" y="-130.1" font-family="SourceSans" font-size="8.00">a60::metadata::get</text>
<text text-anchor="middle" x="487.5" y="-121.1" font-family="SourceSans" font-size="8.00">_metadata_style</text>
</a>
</g>
</g>
<!-- Node2&#45;&gt;Node3 -->
<g id="edge2" class="edge">
<title>Node2&#45;&gt;Node3</title>
<path fill="none" stroke="#63b8ff" d="M391.51,-141.45C403.31,-139.72 416.05,-137.85 428.27,-136.05"/>
<polygon fill="#63b8ff" stroke="#63b8ff" points="428.98,-139.48 438.37,-134.57 427.97,-132.56 428.98,-139.48"/>
</g>
<!-- Node4&#45;&gt;Node2 -->
<g id="edge7" class="edge">
<title>Node4&#45;&gt;Node2</title>
<path fill="none" stroke="#63b8ff" d="M246.52,-120.59C259.48,-124.39 273.79,-128.6 287.28,-132.56"/>
<polygon fill="#63b8ff" stroke="#63b8ff" points="286.34,-135.94 296.92,-135.4 288.32,-129.22 286.34,-135.94"/>
</g>
<!-- Node4&#45;&gt;Node3 -->
<g id="edge6" class="edge">
<title>Node4&#45;&gt;Node3</title>
<path fill="none" stroke="#63b8ff" d="M256.18,-111.31C305.35,-114.77 377.67,-119.85 428.11,-123.4"/>
<polygon fill="#63b8ff" stroke="#63b8ff" points="427.98,-126.9 438.21,-124.1 428.48,-119.91 427.98,-126.9"/>
</g>
<!-- Node5 -->
<g id="node5" class="node">
<title>Node5</title>
<g id="a_node5"><a xlink:href="namespacea60_1_1constants.html#a613cac7d85819a545849f5eefd733896" target="_top" xlink:title=" ">
<polygon fill="white" stroke="#666666" points="393,-79.5 292,-79.5 292,-53.5 393,-53.5 393,-79.5"/>
<text text-anchor="start" x="300" y="-69.1" font-family="SourceSans" font-size="8.00">a60::constants::age</text>
<text text-anchor="middle" x="342.5" y="-60.1" font-family="SourceSans" font-size="8.00">_value_to_multiple</text>
</a>
</g>
</g>
<!-- Node4&#45;&gt;Node5 -->
<g id="edge4" class="edge">
<title>Node4&#45;&gt;Node5</title>
<path fill="none" stroke="#63b8ff" d="M246.52,-94.41C259.48,-90.61 273.79,-86.4 287.28,-82.44"/>
<polygon fill="#63b8ff" stroke="#63b8ff" points="288.32,-85.78 296.92,-79.6 286.34,-79.06 288.32,-85.78"/>
</g>
<!-- Node7 -->
<g id="node7" class="node">
<title>Node7</title>
<g id="a_node7"><a xlink:href="namespacea60.html#a4e8b0cabed112734147b499bf0cc9029" target="_top" xlink:title="Conversion of resolution_mode to string.">
<polygon fill="white" stroke="#666666" points="379.5,-17 305.5,-17 305.5,0 379.5,0 379.5,-17"/>
<text text-anchor="middle" x="342.5" y="-6.6" font-family="SourceSans" font-size="8.00">a60::to_string</text>
</a>
</g>
</g>
<!-- Node4&#45;&gt;Node7 -->
<g id="edge8" class="edge">
<title>Node4&#45;&gt;Node7</title>
<path fill="none" stroke="#63b8ff" d="M220.52,-94.35C246.63,-75.83 294.06,-42.17 321.13,-22.96"/>
<polygon fill="#63b8ff" stroke="#63b8ff" points="323.34,-25.68 329.47,-17.04 319.29,-19.97 323.34,-25.68"/>
</g>
<!-- Node6 -->
<g id="node6" class="node">
<title>Node6</title>
<g id="a_node6"><a xlink:href="namespacea60_1_1constants.html#ac27c77e4606552ae5f74a1c21dd9258e" target="_top" xlink:title=" ">
<polygon fill="white" stroke="#666666" points="546,-75 429,-75 429,-58 546,-58 546,-75"/>
<text text-anchor="middle" x="487.5" y="-64.6" font-family="SourceSans" font-size="8.00">a60::constants::newline</text>
</a>
</g>
</g>
<!-- Node5&#45;&gt;Node6 -->
<g id="edge5" class="edge">
<title>Node5&#45;&gt;Node6</title>
<path fill="none" stroke="#63b8ff" d="M393.11,-66.5C401.35,-66.5 410.01,-66.5 418.6,-66.5"/>
<polygon fill="#63b8ff" stroke="#63b8ff" points="418.62,-70 428.62,-66.5 418.62,-63 418.62,-70"/>
</g>
<!-- Node7&#45;&gt;Node7 -->
<g id="edge9" class="edge">
<title>Node7&#45;&gt;Node7</title>
<path fill="none" stroke="#63b8ff" d="M321.64,-17.19C310.12,-25.67 317.07,-35 342.5,-35 359.19,-35 367.92,-30.98 368.69,-25.82"/>
<polygon fill="#63b8ff" stroke="#63b8ff" points="371.59,-23.86 363.36,-17.19 365.64,-27.53 371.59,-23.86"/>
</g>
</g>
</svg>
