<?xml version="1.0" encoding="UTF-8" standalone="no"?>
<!DOCTYPE svg PUBLIC "-//W3C//DTD SVG 1.1//EN"
 "http://www.w3.org/Graphics/SVG/1.1/DTD/svg11.dtd">
<!-- Generated by graphviz version 5.0.0 (0)
 -->
<!-- Title: a60::metadata::augment_metadata_background Pages: 1 -->
<svg width="269pt" height="114pt"
 viewBox="0.00 0.00 269.00 113.50" xmlns="http://www.w3.org/2000/svg" xmlns:xlink="http://www.w3.org/1999/xlink">
<g id="graph0" class="graph" transform="scale(1 1) rotate(0) translate(4 109.5)">
<title>a60::metadata::augment_metadata_background</title>
<!-- Node1 -->
<g id="node1" class="node">
<title>Node1</title>
<g id="a_node1"><a xlink:title="Base plate color, identity graphics, svg file.">
<polygon fill="#999999" stroke="#666666" points="121,-70 0,-70 0,-44 121,-44 121,-70"/>
<text text-anchor="start" x="8" y="-59.6" font-family="SourceSans" font-size="8.00">a60::metadata::augment</text>
<text text-anchor="middle" x="60.5" y="-50.6" font-family="SourceSans" font-size="8.00">_metadata_background</text>
</a>
</g>
</g>
<!-- Node2 -->
<g id="node2" class="node">
<title>Node2</title>
<g id="a_node2"><a xlink:href="namespacea60_1_1io.html#a16f17ea9e02c1975ca17b77e46cf7629" target="_top" xlink:title="Make sure a path ends in &#39;/&#39;;.">
<polygon fill="white" stroke="#666666" points="254,-105.5 164,-105.5 164,-88.5 254,-88.5 254,-105.5"/>
<text text-anchor="middle" x="209" y="-95.1" font-family="SourceSans" font-size="8.00">a60::io::end_path</text>
</a>
</g>
</g>
<!-- Node1&#45;&gt;Node2 -->
<g id="edge1" class="edge">
<title>Node1&#45;&gt;Node2</title>
<path fill="none" stroke="#63b8ff" d="M109.47,-70.1C127.89,-75.13 148.73,-80.82 166.49,-85.67"/>
<polygon fill="#63b8ff" stroke="#63b8ff" points="165.98,-89.16 176.55,-88.41 167.82,-82.4 165.98,-89.16"/>
</g>
<!-- Node3 -->
<g id="node3" class="node">
<title>Node3</title>
<g id="a_node3"><a xlink:href="namespacea60_1_1metadata.html#abcd6d192e6ed0f853c3c6cd9bcf13cad" target="_top" xlink:title=" ">
<polygon fill="white" stroke="#666666" points="258,-70 160,-70 160,-44 258,-44 258,-70"/>
<text text-anchor="start" x="168" y="-59.6" font-family="SourceSans" font-size="8.00">a60::metadata::get</text>
<text text-anchor="middle" x="209" y="-50.6" font-family="SourceSans" font-size="8.00">_metadata_style</text>
</a>
</g>
</g>
<!-- Node1&#45;&gt;Node3 -->
<g id="edge2" class="edge">
<title>Node1&#45;&gt;Node3</title>
<path fill="none" stroke="#63b8ff" d="M121.09,-57C130.51,-57 140.25,-57 149.64,-57"/>
<polygon fill="#63b8ff" stroke="#63b8ff" points="149.68,-60.5 159.68,-57 149.68,-53.5 149.68,-60.5"/>
</g>
<!-- Node4 -->
<g id="node4" class="node">
<title>Node4</title>
<g id="a_node4"><a xlink:href="namespacea60_1_1io.html#ac95e5271a27a23bc2336d84b3f821fa2" target="_top" xlink:title="Constant filesystem and run&#45;time resources.">
<polygon fill="white" stroke="#666666" points="261,-26 157,-26 157,0 261,0 261,-26"/>
<text text-anchor="start" x="165" y="-15.6" font-family="SourceSans" font-size="8.00">a60::io::get_run_time</text>
<text text-anchor="middle" x="209" y="-6.6" font-family="SourceSans" font-size="8.00">_resources</text>
</a>
</g>
</g>
<!-- Node1&#45;&gt;Node4 -->
<g id="edge3" class="edge">
<title>Node1&#45;&gt;Node4</title>
<path fill="none" stroke="#63b8ff" d="M105.06,-43.92C120.63,-39.24 138.37,-33.91 154.67,-29.02"/>
<polygon fill="#63b8ff" stroke="#63b8ff" points="156.04,-32.26 164.61,-26.03 154.03,-25.56 156.04,-32.26"/>
</g>
</g>
</svg>
