<?xml version="1.0" encoding="UTF-8" standalone="no"?>
<!DOCTYPE svg PUBLIC "-//W3C//DTD SVG 1.1//EN"
 "http://www.w3.org/Graphics/SVG/1.1/DTD/svg11.dtd">
<!-- Generated by graphviz version 5.0.0 (0)
 -->
<!-- Title: a60::augment_wmeta_peers Pages: 1 -->
<svg width="266pt" height="78pt"
 viewBox="0.00 0.00 266.00 78.00" xmlns="http://www.w3.org/2000/svg" xmlns:xlink="http://www.w3.org/1999/xlink">
<g id="graph0" class="graph" transform="scale(1 1) rotate(0) translate(4 74)">
<title>a60::augment_wmeta_peers</title>
<!-- Node1 -->
<g id="node1" class="node">
<title>Node1</title>
<g id="a_node1"><a xlink:title=" ">
<polygon fill="#999999" stroke="#666666" points="107,-48 0,-48 0,-22 107,-22 107,-48"/>
<text text-anchor="start" x="8" y="-37.6" font-family="SourceSans" font-size="8.00">a60::augment_wmeta</text>
<text text-anchor="middle" x="53.5" y="-28.6" font-family="SourceSans" font-size="8.00">_peers</text>
</a>
</g>
</g>
<!-- Node2 -->
<g id="node2" class="node">
<title>Node2</title>
<g id="a_node2"><a xlink:href="namespacea60.html#a63bf2b0abf68edc3f3e74a0811fe771b" target="_top" xlink:title="Error checking support. Null Island Check (aka latitude and longitude set to zero).">
<polygon fill="white" stroke="#666666" points="254,-70 147,-70 147,-44 254,-44 254,-70"/>
<text text-anchor="start" x="155" y="-59.6" font-family="SourceSans" font-size="8.00">a60::is_meta_peer_on</text>
<text text-anchor="middle" x="200.5" y="-50.6" font-family="SourceSans" font-size="8.00">_null_island</text>
</a>
</g>
</g>
<!-- Node1&#45;&gt;Node2 -->
<g id="edge1" class="edge">
<title>Node1&#45;&gt;Node2</title>
<path fill="none" stroke="#63b8ff" d="M107.26,-43C116.75,-44.45 126.74,-45.96 136.49,-47.44"/>
<polygon fill="#63b8ff" stroke="#63b8ff" points="136.13,-50.92 146.54,-48.96 137.18,-44 136.13,-50.92"/>
</g>
<!-- Node3 -->
<g id="node3" class="node">
<title>Node3</title>
<g id="a_node3"><a xlink:href="structa60_1_1carto_1_1cartography.html#a57e14cabb4993189316e369a27752a73" target="_top" xlink:title=" ">
<polygon fill="white" stroke="#666666" points="258,-26 143,-26 143,0 258,0 258,-26"/>
<text text-anchor="start" x="151" y="-15.6" font-family="SourceSans" font-size="8.00">a60::carto::cartography</text>
<text text-anchor="middle" x="200.5" y="-6.6" font-family="SourceSans" font-size="8.00">::to_point_2d</text>
</a>
</g>
</g>
<!-- Node1&#45;&gt;Node3 -->
<g id="edge2" class="edge">
<title>Node1&#45;&gt;Node3</title>
<path fill="none" stroke="#63b8ff" d="M107.26,-27C115.52,-25.74 124.16,-24.43 132.69,-23.14"/>
<polygon fill="#63b8ff" stroke="#63b8ff" points="133.26,-26.59 142.62,-21.63 132.21,-19.67 133.26,-26.59"/>
</g>
</g>
</svg>
