<?xml version="1.0" encoding="UTF-8" standalone="no"?>
<!DOCTYPE svg PUBLIC "-//W3C//DTD SVG 1.1//EN"
 "http://www.w3.org/Graphics/SVG/1.1/DTD/svg11.dtd">
<!-- Generated by graphviz version 5.0.0 (0)
 -->
<!-- Title: a60::metadata::strings_to_cssv_string_len Pages: 1 -->
<svg width="273pt" height="123pt"
 viewBox="0.00 0.00 273.00 123.00" xmlns="http://www.w3.org/2000/svg" xmlns:xlink="http://www.w3.org/1999/xlink">
<g id="graph0" class="graph" transform="scale(1 1) rotate(0) translate(4 119)">
<title>a60::metadata::strings_to_cssv_string_len</title>
<!-- Node1 -->
<g id="node1" class="node">
<title>Node1</title>
<g id="a_node1"><a xlink:title="As above, but only enough of the input vector to make maxlen string. Argument is not const: modified ...">
<polygon fill="#999999" stroke="#666666" points="112,-79.5 0,-79.5 0,-53.5 112,-53.5 112,-79.5"/>
<text text-anchor="start" x="8" y="-69.1" font-family="SourceSans" font-size="8.00">a60::metadata::strings</text>
<text text-anchor="middle" x="56" y="-60.1" font-family="SourceSans" font-size="8.00">_to_cssv_string_len</text>
</a>
</g>
</g>
<!-- Node2 -->
<g id="node2" class="node">
<title>Node2</title>
<g id="a_node2"><a xlink:href="namespacea60_1_1constants.html#ac27c77e4606552ae5f74a1c21dd9258e" target="_top" xlink:title=" ">
<polygon fill="white" stroke="#666666" points="265,-115 148,-115 148,-98 265,-98 265,-115"/>
<text text-anchor="middle" x="206.5" y="-104.6" font-family="SourceSans" font-size="8.00">a60::constants::newline</text>
</a>
</g>
</g>
<!-- Node1&#45;&gt;Node2 -->
<g id="edge1" class="edge">
<title>Node1&#45;&gt;Node2</title>
<path fill="none" stroke="#63b8ff" d="M105.62,-79.6C124.47,-84.67 145.82,-90.42 163.93,-95.3"/>
<polygon fill="#63b8ff" stroke="#63b8ff" points="163.05,-98.69 173.62,-97.91 164.87,-91.93 163.05,-98.69"/>
</g>
<!-- Node3 -->
<g id="node3" class="node">
<title>Node3</title>
<g id="a_node3"><a xlink:href="namespacea60_1_1metadata.html#adb36743be767a1f1a9947f5b6feff3a8" target="_top" xlink:title="Convert a vector of strings to a flattened and comma&#45;space&#45;separated list of strings.">
<polygon fill="white" stroke="#666666" points="262.5,-79.5 150.5,-79.5 150.5,-53.5 262.5,-53.5 262.5,-79.5"/>
<text text-anchor="start" x="158.5" y="-69.1" font-family="SourceSans" font-size="8.00">a60::metadata::strings</text>
<text text-anchor="middle" x="206.5" y="-60.1" font-family="SourceSans" font-size="8.00">_to_cssv_string</text>
</a>
</g>
</g>
<!-- Node1&#45;&gt;Node3 -->
<g id="edge2" class="edge">
<title>Node1&#45;&gt;Node3</title>
<path fill="none" stroke="#63b8ff" d="M112.3,-66.5C121.28,-66.5 130.67,-66.5 139.87,-66.5"/>
<polygon fill="#63b8ff" stroke="#63b8ff" points="140.16,-70 150.16,-66.5 140.16,-63 140.16,-70"/>
</g>
<!-- Node4 -->
<g id="node4" class="node">
<title>Node4</title>
<g id="a_node4"><a xlink:href="namespacea60.html#a4e8b0cabed112734147b499bf0cc9029" target="_top" xlink:title="Conversion of resolution_mode to string.">
<polygon fill="white" stroke="#666666" points="243.5,-17 169.5,-17 169.5,0 243.5,0 243.5,-17"/>
<text text-anchor="middle" x="206.5" y="-6.6" font-family="SourceSans" font-size="8.00">a60::to_string</text>
</a>
</g>
</g>
<!-- Node1&#45;&gt;Node4 -->
<g id="edge3" class="edge">
<title>Node1&#45;&gt;Node4</title>
<path fill="none" stroke="#63b8ff" d="M90.33,-53.48C115.28,-43.74 149.2,-30.49 173.76,-20.9"/>
<polygon fill="#63b8ff" stroke="#63b8ff" points="175.29,-24.06 183.33,-17.16 172.74,-17.54 175.29,-24.06"/>
</g>
<!-- Node4&#45;&gt;Node4 -->
<g id="edge4" class="edge">
<title>Node4&#45;&gt;Node4</title>
<path fill="none" stroke="#63b8ff" d="M184.15,-17.19C171.8,-25.67 179.25,-35 206.5,-35 224.81,-35 234.18,-30.79 234.61,-25.45"/>
<polygon fill="#63b8ff" stroke="#63b8ff" points="237.44,-23.39 228.85,-17.19 231.69,-27.39 237.44,-23.39"/>
</g>
</g>
</svg>
