<?xml version="1.0" encoding="UTF-8" standalone="no"?>
<!DOCTYPE svg PUBLIC "-//W3C//DTD SVG 1.1//EN"
 "http://www.w3.org/Graphics/SVG/1.1/DTD/svg11.dtd">
<!-- Generated by graphviz version 5.0.0 (0)
 -->
<!-- Title: a60::augment_carto_fiber Pages: 1 -->
<!--zoomable 342 -->
<svg id="main" version="1.1" xmlns="http://www.w3.org/2000/svg" xmlns:xlink="http://www.w3.org/1999/xlink" xml:space="preserve" onload="init(evt)">
<style type="text/css"><![CDATA[
.edge:hover path { stroke: red; }
.edge:hover polygon { stroke: red; fill: red; }
]]></style>
<script type="text/javascript"><![CDATA[
var edges = document.getElementsByTagName('g');
if (edges && edges.length) {
  for (var i=0;i<edges.length;i++) {
    if (edges[i].id.substr(0,4)=='edge') {
      edges[i].setAttribute('class','edge');
    }
  }
}
]]></script>
        <defs>
                <circle id="rim" cx="0" cy="0" r="7"/>
                <circle id="rim2" cx="0" cy="0" r="3.5"/>
                <g id="zoomPlus">
                        <use xlink:href="#rim" fill="#404040">
                                <set attributeName="fill" to="#808080" begin="zoomplus.mouseover" end="zoomplus.mouseout"/>
                        </use>
                        <path d="M-4,0h8M0,-4v8" fill="none" stroke="white" stroke-width="1.5" pointer-events="none"/>
                </g>
                <g id="zoomMin">
                        <use xlink:href="#rim" fill="#404040">
                                <set attributeName="fill" to="#808080" begin="zoomminus.mouseover" end="zoomminus.mouseout"/>
                        </use>
                        <path d="M-4,0h8" fill="none" stroke="white" stroke-width="1.5" pointer-events="none"/>
                </g>
                <g id="dirArrow">
                        <path fill="none" stroke="white" stroke-width="1.5" d="M0,-3.0v7 M-2.5,-0.5L0,-3.0L2.5,-0.5"/>
                </g>
               <g id="resetDef">
                       <use xlink:href="#rim2" fill="#404040">
                               <set attributeName="fill" to="#808080" begin="reset.mouseover" end="reset.mouseout"/>
                       </use>
               </g>
        </defs>

<script type="text/javascript">
var viewWidth = 572;
var viewHeight = 342;
var sectionId = 'dynsection-8';
</script>
<script xlink:href="svgpan.js"/>
<svg id="graph" class="graph">
<g id="viewport">
<title>a60::augment_carto_fiber</title>
<!-- Node1 -->
<g id="node1" class="node">
<title>Node1</title>
<g id="a_node1"><a xlink:title="Augment Fiber / Submarine cables, object version.">
<polygon fill="#999999" stroke="#666666" points="100,-114.5 0,-114.5 0,-88.5 100,-88.5 100,-114.5"/>
<text text-anchor="start" x="8" y="-104.1" font-family="SourceSans" font-size="8.00">a60::augment_carto</text>
<text text-anchor="middle" x="50" y="-95.1" font-family="SourceSans" font-size="8.00">_fiber</text>
</a>
</g>
</g>
<!-- Node2 -->
<g id="node2" class="node">
<title>Node2</title>
<g id="a_node2"><a xlink:href="namespacea60.html#a32720df1709c77d01ac8d6100419d1d5" target="_top" xlink:title="Create paths that map out telecom cables from a single geo json file.">
<polygon fill="white" stroke="#666666" points="257,-130 136,-130 136,-113 257,-113 257,-130"/>
<text text-anchor="middle" x="196.5" y="-119.6" font-family="SourceSans" font-size="8.00">a60::fiber_paths_geojson</text>
</a>
</g>
</g>
<!-- Node1&#45;&gt;Node2 -->
<g id="edge1" class="edge">
<title>Node1&#45;&gt;Node2</title>
<path fill="none" stroke="#63b8ff" d="M100.32,-108.33C108.55,-109.47 117.22,-110.67 125.84,-111.86"/>
<polygon fill="#63b8ff" stroke="#63b8ff" points="125.52,-115.35 135.91,-113.25 126.48,-108.41 125.52,-115.35"/>
</g>
<!-- Node15 -->
<g id="node15" class="node">
<title>Node15</title>
<g id="a_node15"><a xlink:href="namespacea60_1_1io.html#ac95e5271a27a23bc2336d84b3f821fa2" target="_top" xlink:title="Constant filesystem and run&#45;time resources.">
<polygon fill="white" stroke="#666666" points="248.5,-94.5 144.5,-94.5 144.5,-68.5 248.5,-68.5 248.5,-94.5"/>
<text text-anchor="start" x="152.5" y="-84.1" font-family="SourceSans" font-size="8.00">a60::io::get_run_time</text>
<text text-anchor="middle" x="196.5" y="-75.1" font-family="SourceSans" font-size="8.00">_resources</text>
</a>
</g>
</g>
<!-- Node1&#45;&gt;Node15 -->
<g id="edge18" class="edge">
<title>Node1&#45;&gt;Node15</title>
<path fill="none" stroke="#63b8ff" d="M100.32,-94.67C111.22,-93.17 122.88,-91.55 134.19,-89.99"/>
<polygon fill="#63b8ff" stroke="#63b8ff" points="135,-93.41 144.43,-88.57 134.04,-86.47 135,-93.41"/>
</g>
<!-- Node3 -->
<g id="node3" class="node">
<title>Node3</title>
<g id="a_node3"><a xlink:href="namespacea60.html#af45982273a7a2e61b6aaa436081238c0" target="_top" xlink:title="Load JSON file to in&#45;memory DOM.">
<polygon fill="white" stroke="#666666" points="404,-286.5 300,-286.5 300,-260.5 404,-260.5 404,-286.5"/>
<text text-anchor="start" x="308" y="-276.1" font-family="SourceSans" font-size="8.00">a60::deserialize_json</text>
<text text-anchor="middle" x="352" y="-267.1" font-family="SourceSans" font-size="8.00">_to_dom_object</text>
</a>
</g>
</g>
<!-- Node2&#45;&gt;Node3 -->
<g id="edge2" class="edge">
<title>Node2&#45;&gt;Node3</title>
<path fill="none" stroke="#63b8ff" d="M206.19,-130.11C229.91,-153.6 296.25,-219.29 330.29,-252.99"/>
<polygon fill="#63b8ff" stroke="#63b8ff" points="328.24,-255.89 337.81,-260.44 333.17,-250.91 328.24,-255.89"/>
</g>
<!-- Node5 -->
<g id="node5" class="node">
<title>Node5</title>
<g id="a_node5"><a xlink:href="namespacea60_1_1carto.html#a970aeb8370891780c15e73fba0dc48bc" target="_top" xlink:title=" ">
<polygon fill="white" stroke="#666666" points="404,-196.5 300,-196.5 300,-170.5 404,-170.5 404,-196.5"/>
<text text-anchor="start" x="308" y="-186.1" font-family="SourceSans" font-size="8.00">a60::carto::fold_path</text>
<text text-anchor="middle" x="352" y="-177.1" font-family="SourceSans" font-size="8.00">_edges</text>
</a>
</g>
</g>
<!-- Node2&#45;&gt;Node5 -->
<g id="edge4" class="edge">
<title>Node2&#45;&gt;Node5</title>
<path fill="none" stroke="#63b8ff" d="M218.84,-130.12C242.08,-139.51 279.84,-154.76 309.05,-166.56"/>
<polygon fill="#63b8ff" stroke="#63b8ff" points="308.02,-169.91 318.6,-170.41 310.64,-163.42 308.02,-169.91"/>
</g>
<!-- Node7 -->
<g id="node7" class="node">
<title>Node7</title>
<g id="a_node7"><a xlink:href="namespacea60_1_1constants.html#ac27c77e4606552ae5f74a1c21dd9258e" target="_top" xlink:title=" ">
<polygon fill="white" stroke="#666666" points="564,-112 447,-112 447,-95 564,-95 564,-112"/>
<text text-anchor="middle" x="505.5" y="-101.6" font-family="SourceSans" font-size="8.00">a60::constants::newline</text>
</a>
</g>
</g>
<!-- Node2&#45;&gt;Node7 -->
<g id="edge11" class="edge">
<title>Node2&#45;&gt;Node7</title>
<path fill="none" stroke="#63b8ff" d="M257.04,-125.7C299.96,-127.84 359.21,-128.98 411,-123.5 428.06,-121.7 446.59,-118.09 462.62,-114.43"/>
<polygon fill="#63b8ff" stroke="#63b8ff" points="463.82,-117.74 472.75,-112.03 462.21,-110.93 463.82,-117.74"/>
</g>
<!-- Node11 -->
<g id="node11" class="node">
<title>Node11</title>
<g id="a_node11"><a xlink:href="namespacea60.html#a3fdf876ab1d06c5cfd12a9018c231dd8" target="_top" xlink:title=" ">
<polygon fill="white" stroke="#666666" points="411,-114.5 293,-114.5 293,-88.5 411,-88.5 411,-114.5"/>
<text text-anchor="start" x="301" y="-104.1" font-family="SourceSans" font-size="8.00">a60::point_from_geojson</text>
<text text-anchor="middle" x="352" y="-95.1" font-family="SourceSans" font-size="8.00">_coordinate</text>
</a>
</g>
</g>
<!-- Node2&#45;&gt;Node11 -->
<g id="edge12" class="edge">
<title>Node2&#45;&gt;Node11</title>
<path fill="none" stroke="#63b8ff" d="M257.29,-113.71C265.7,-112.61 274.39,-111.48 282.94,-110.37"/>
<polygon fill="#63b8ff" stroke="#63b8ff" points="283.42,-113.83 292.89,-109.07 282.52,-106.89 283.42,-113.83"/>
</g>
<!-- Node13 -->
<g id="node13" class="node">
<title>Node13</title>
<g id="a_node13"><a xlink:href="namespacea60_1_1constants.html#a4eca9d522711df25806d6dd1ff38e904" target="_top" xlink:title=" ">
<polygon fill="white" stroke="#666666" points="407,-70 297,-70 297,-53 407,-53 407,-70"/>
<text text-anchor="middle" x="352" y="-59.6" font-family="SourceSans" font-size="8.00">a60::constants::space</text>
</a>
</g>
</g>
<!-- Node2&#45;&gt;Node13 -->
<g id="edge15" class="edge">
<title>Node2&#45;&gt;Node13</title>
<path fill="none" stroke="#63b8ff" d="M231.82,-113C240.23,-110.4 249.09,-107.23 257,-103.5 274.39,-95.29 275.64,-87.77 293,-79.5 297.7,-77.26 302.74,-75.22 307.82,-73.38"/>
<polygon fill="#63b8ff" stroke="#63b8ff" points="309.2,-76.6 317.55,-70.09 306.96,-69.97 309.2,-76.6"/>
</g>
<!-- Node14 -->
<g id="node14" class="node">
<title>Node14</title>
<g id="a_node14"><a xlink:href="namespacea60_1_1constants.html#a01d9786063fb572d9389b0cd207bbe53" target="_top" xlink:title=" ">
<polygon fill="white" stroke="#666666" points="401,-17 303,-17 303,0 401,0 401,-17"/>
<text text-anchor="middle" x="352" y="-6.6" font-family="SourceSans" font-size="8.00">a60::constants::tab</text>
</a>
</g>
</g>
<!-- Node2&#45;&gt;Node14 -->
<g id="edge16" class="edge">
<title>Node2&#45;&gt;Node14</title>
<path fill="none" stroke="#63b8ff" d="M240.05,-112.88C246.11,-110.48 251.98,-107.41 257,-103.5 281.53,-84.38 271.04,-65.52 293,-43.5 301.58,-34.89 312.69,-27.53 322.89,-21.81"/>
<polygon fill="#63b8ff" stroke="#63b8ff" points="324.7,-24.81 331.89,-17.03 321.42,-18.63 324.7,-24.81"/>
</g>
<!-- Node4 -->
<g id="node4" class="node">
<title>Node4</title>
<g id="a_node4"><a xlink:href="namespacea60.html#a538d43bb9bfa488a54cea929736dbe2d" target="_top" xlink:title="Deserialize input file.">
<polygon fill="white" stroke="#666666" points="557.5,-333.5 453.5,-333.5 453.5,-307.5 557.5,-307.5 557.5,-333.5"/>
<text text-anchor="start" x="461.5" y="-323.1" font-family="SourceSans" font-size="8.00">a60::deserialize_json</text>
<text text-anchor="middle" x="505.5" y="-314.1" font-family="SourceSans" font-size="8.00">_to_dom</text>
</a>
</g>
</g>
<!-- Node3&#45;&gt;Node4 -->
<g id="edge3" class="edge">
<title>Node3&#45;&gt;Node4</title>
<path fill="none" stroke="#63b8ff" d="M395.2,-286.59C413.1,-292.14 434.12,-298.67 452.92,-304.5"/>
<polygon fill="#63b8ff" stroke="#63b8ff" points="451.94,-307.86 462.53,-307.48 454.01,-301.17 451.94,-307.86"/>
</g>
<!-- Node6 -->
<g id="node6" class="node">
<title>Node6</title>
<g id="a_node6"><a xlink:href="namespacea60.html#a3c32f6c147e634c4b4c383aa09007d74" target="_top" xlink:title=" ">
<polygon fill="white" stroke="#666666" points="560.5,-192 450.5,-192 450.5,-175 560.5,-175 560.5,-192"/>
<text text-anchor="middle" x="505.5" y="-181.6" font-family="SourceSans" font-size="8.00">a60::distance_point_2t</text>
</a>
</g>
</g>
<!-- Node5&#45;&gt;Node6 -->
<g id="edge5" class="edge">
<title>Node5&#45;&gt;Node6</title>
<path fill="none" stroke="#63b8ff" d="M404.29,-183.5C415.89,-183.5 428.35,-183.5 440.41,-183.5"/>
<polygon fill="#63b8ff" stroke="#63b8ff" points="440.41,-187 450.41,-183.5 440.41,-180 440.41,-187"/>
</g>
<!-- Node5&#45;&gt;Node7 -->
<g id="edge6" class="edge">
<title>Node5&#45;&gt;Node7</title>
<path fill="none" stroke="#63b8ff" d="M385.96,-170.48C394.43,-166.52 403.32,-161.79 411,-156.5 429.37,-143.84 427.83,-132.92 447,-121.5 450.64,-119.33 454.57,-117.4 458.6,-115.68"/>
<polygon fill="#63b8ff" stroke="#63b8ff" points="460.02,-118.89 468.11,-112.05 457.52,-112.35 460.02,-118.89"/>
</g>
<!-- Node8 -->
<g id="node8" class="node">
<title>Node8</title>
<g id="a_node8"><a xlink:href="structa60_1_1carto_1_1cartography.html#a228cede7b1b2847024501cfdac0640ca" target="_top" xlink:title=" ">
<polygon fill="white" stroke="#666666" points="563,-156.5 448,-156.5 448,-130.5 563,-130.5 563,-156.5"/>
<text text-anchor="start" x="456" y="-146.1" font-family="SourceSans" font-size="8.00">a60::carto::cartography</text>
<text text-anchor="middle" x="505.5" y="-137.1" font-family="SourceSans" font-size="8.00">::point_to_x_quadrant</text>
</a>
</g>
</g>
<!-- Node5&#45;&gt;Node8 -->
<g id="edge7" class="edge">
<title>Node5&#45;&gt;Node8</title>
<path fill="none" stroke="#63b8ff" d="M402.61,-170.4C416.15,-166.83 430.96,-162.92 444.99,-159.21"/>
<polygon fill="#63b8ff" stroke="#63b8ff" points="446.27,-162.5 455.04,-156.56 444.48,-155.73 446.27,-162.5"/>
</g>
<!-- Node9 -->
<g id="node9" class="node">
<title>Node9</title>
<g id="a_node9"><a xlink:href="structa60_1_1carto_1_1cartography.html#a1f7b7d81b342346b52e5c6c9b9e3455a" target="_top" xlink:title="Top (h1) and bottom (h2) vertical.">
<polygon fill="white" stroke="#666666" points="563,-289.5 448,-289.5 448,-263.5 563,-263.5 563,-289.5"/>
<text text-anchor="start" x="456" y="-279.1" font-family="SourceSans" font-size="8.00">a60::carto::cartography</text>
<text text-anchor="middle" x="505.5" y="-270.1" font-family="SourceSans" font-size="8.00">::point_to_y_half</text>
</a>
</g>
</g>
<!-- Node5&#45;&gt;Node9 -->
<g id="edge8" class="edge">
<title>Node5&#45;&gt;Node9</title>
<path fill="none" stroke="#63b8ff" d="M367.72,-196.72C385.49,-212.17 416.77,-237.74 447,-254.5 450.04,-256.18 453.23,-257.79 456.49,-259.32"/>
<polygon fill="#63b8ff" stroke="#63b8ff" points="455.21,-262.59 465.78,-263.41 458.03,-256.18 455.21,-262.59"/>
</g>
<!-- Node10 -->
<g id="node10" class="node">
<title>Node10</title>
<g id="a_node10"><a xlink:href="namespacea60.html#a4e8b0cabed112734147b499bf0cc9029" target="_top" xlink:title="Conversion of resolution_mode to string.">
<polygon fill="white" stroke="#666666" points="542.5,-227 468.5,-227 468.5,-210 542.5,-210 542.5,-227"/>
<text text-anchor="middle" x="505.5" y="-216.6" font-family="SourceSans" font-size="8.00">a60::to_string</text>
</a>
</g>
</g>
<!-- Node5&#45;&gt;Node10 -->
<g id="edge9" class="edge">
<title>Node5&#45;&gt;Node10</title>
<path fill="none" stroke="#63b8ff" d="M404.29,-195.35C421.8,-199.39 441.26,-203.89 458.34,-207.84"/>
<polygon fill="#63b8ff" stroke="#63b8ff" points="457.56,-211.25 468.09,-210.09 459.14,-204.43 457.56,-211.25"/>
</g>
<!-- Node10&#45;&gt;Node10 -->
<g id="edge10" class="edge">
<title>Node10&#45;&gt;Node10</title>
<path fill="none" stroke="#63b8ff" d="M482.85,-227.19C470.34,-235.67 477.89,-245 505.5,-245 524.05,-245 533.54,-240.79 533.98,-235.45"/>
<polygon fill="#63b8ff" stroke="#63b8ff" points="536.77,-233.34 528.15,-227.19 531.06,-237.37 536.77,-233.34"/>
</g>
<!-- Node11&#45;&gt;Node7 -->
<g id="edge13" class="edge">
<title>Node11&#45;&gt;Node7</title>
<path fill="none" stroke="#63b8ff" d="M411.14,-102.27C419.45,-102.38 428.05,-102.49 436.52,-102.6"/>
<polygon fill="#63b8ff" stroke="#63b8ff" points="436.72,-106.11 446.77,-102.74 436.81,-99.11 436.72,-106.11"/>
</g>
<!-- Node12 -->
<g id="node12" class="node">
<title>Node12</title>
<g id="a_node12"><a xlink:href="structa60_1_1carto_1_1cartography.html#a57e14cabb4993189316e369a27752a73" target="_top" xlink:title=" ">
<polygon fill="white" stroke="#666666" points="563,-76.5 448,-76.5 448,-50.5 563,-50.5 563,-76.5"/>
<text text-anchor="start" x="456" y="-66.1" font-family="SourceSans" font-size="8.00">a60::carto::cartography</text>
<text text-anchor="middle" x="505.5" y="-57.1" font-family="SourceSans" font-size="8.00">::to_point_2d</text>
</a>
</g>
</g>
<!-- Node11&#45;&gt;Node12 -->
<g id="edge14" class="edge">
<title>Node11&#45;&gt;Node12</title>
<path fill="none" stroke="#63b8ff" d="M405.14,-88.42C417.23,-85.39 430.21,-82.13 442.67,-79.01"/>
<polygon fill="#63b8ff" stroke="#63b8ff" points="443.67,-82.36 452.52,-76.54 441.97,-75.58 443.67,-82.36"/>
</g>
<!-- Node14&#45;&gt;Node14 -->
<g id="edge17" class="edge">
<title>Node14&#45;&gt;Node14</title>
<path fill="none" stroke="#63b8ff" d="M329.35,-17.19C316.84,-25.67 324.39,-35 352,-35 370.55,-35 380.04,-30.79 380.48,-25.45"/>
<polygon fill="#63b8ff" stroke="#63b8ff" points="383.27,-23.34 374.65,-17.19 377.56,-27.37 383.27,-23.34"/>
</g>
</g>
</svg>
        <g id="navigator" transform="translate(0 0)" fill="#404254">
                <rect fill="#f2f5e9" fill-opacity="0.5" stroke="#606060" stroke-width=".5" x="0" y="0" width="60" height="60"/>
                <use id="zoomplus" xlink:href="#zoomPlus" x="17" y="9" onmousedown="handleZoom(evt,'in')"/>
                <use id="zoomminus" xlink:href="#zoomMin" x="42" y="9" onmousedown="handleZoom(evt,'out')"/>
                <use id="reset" xlink:href="#resetDef" x="30" y="36" onmousedown="handleReset()"/>
                <g id="arrowUp" xlink:href="#dirArrow" transform="translate(30 24)" onmousedown="handlePan(0,-1)">
                  <use xlink:href="#rim" fill="#404040">
                        <set attributeName="fill" to="#808080" begin="arrowUp.mouseover" end="arrowUp.mouseout"/>
                  </use>
                  <path fill="none" stroke="white" stroke-width="1.5" d="M0,-3.0v7 M-2.5,-0.5L0,-3.0L2.5,-0.5"/>
                </g>
                <g id="arrowRight" xlink:href="#dirArrow" transform="rotate(90) translate(36 -43)" onmousedown="handlePan(1,0)">
                  <use xlink:href="#rim" fill="#404040">
                        <set attributeName="fill" to="#808080" begin="arrowRight.mouseover" end="arrowRight.mouseout"/>
                  </use>
                  <path fill="none" stroke="white" stroke-width="1.5" d="M0,-3.0v7 M-2.5,-0.5L0,-3.0L2.5,-0.5"/>
                </g>
                <g id="arrowDown" xlink:href="#dirArrow" transform="rotate(180) translate(-30 -48)" onmousedown="handlePan(0,1)">
                  <use xlink:href="#rim" fill="#404040">
                        <set attributeName="fill" to="#808080" begin="arrowDown.mouseover" end="arrowDown.mouseout"/>
                  </use>
                  <path fill="none" stroke="white" stroke-width="1.5" d="M0,-3.0v7 M-2.5,-0.5L0,-3.0L2.5,-0.5"/>
                </g>
                <g id="arrowLeft" xlink:href="#dirArrow" transform="rotate(270) translate(-36 17)" onmousedown="handlePan(-1,0)">
                  <use xlink:href="#rim" fill="#404040">
                        <set attributeName="fill" to="#808080" begin="arrowLeft.mouseover" end="arrowLeft.mouseout"/>
                  </use>
                  <path fill="none" stroke="white" stroke-width="1.5" d="M0,-3.0v7 M-2.5,-0.5L0,-3.0L2.5,-0.5"/>
                </g>
        </g>
        <svg viewBox="0 0 15 15" width="100%" height="30px" preserveAspectRatio="xMaxYMin meet">
         <g id="arrow_out" transform="scale(0.3 0.3)">
          <a xlink:href="namespacea60_ac8c1102be27b45984c799f968d7960e6_cgraph_org.svg" target="_base">
           <rect id="button" ry="5" rx="5" y="6" x="6" height="38" width="38"
                fill="#f2f5e9" fill-opacity="0.5" stroke="#606060" stroke-width="1.0"/>
           <path id="arrow"
             d="M 11.500037,31.436501 C 11.940474,20.09759 22.043105,11.32322 32.158766,21.979434 L 37.068811,17.246167 C 37.068811,17.246167 37.088388,32 37.088388,32 L 22.160133,31.978069 C 22.160133,31.978069 26.997745,27.140456 26.997745,27.140456 C 18.528582,18.264221 13.291696,25.230495 11.500037,31.436501 z"
             style="fill:#404040;"/>
          </a>
         </g>
        </svg>
</svg>
