<?xml version="1.0" encoding="UTF-8" standalone="no"?>
<!DOCTYPE svg PUBLIC "-//W3C//DTD SVG 1.1//EN"
 "http://www.w3.org/Graphics/SVG/1.1/DTD/svg11.dtd">
<!-- Generated by graphviz version 5.0.0 (0)
 -->
<!-- Title: a60::metadata::augment_metadata_base_text_r Pages: 1 -->
<svg width="444pt" height="429pt"
 viewBox="0.00 0.00 444.00 428.50" xmlns="http://www.w3.org/2000/svg" xmlns:xlink="http://www.w3.org/1999/xlink">
<g id="graph0" class="graph" transform="scale(1 1) rotate(0) translate(4 424.5)">
<title>a60::metadata::augment_metadata_base_text_r</title>
<!-- Node1 -->
<g id="node1" class="node">
<title>Node1</title>
<g id="a_node1"><a xlink:title="Base info for per&#45;media object metadata visualizations, rotated.">
<polygon fill="#999999" stroke="#666666" points="121,-155 0,-155 0,-129 121,-129 121,-155"/>
<text text-anchor="start" x="8" y="-144.6" font-family="SourceSans" font-size="8.00">a60::metadata::augment</text>
<text text-anchor="middle" x="60.5" y="-135.6" font-family="SourceSans" font-size="8.00">_metadata_base_text_r</text>
</a>
</g>
</g>
<!-- Node2 -->
<g id="node2" class="node">
<title>Node2</title>
<g id="a_node2"><a xlink:href="namespacea60_1_1metadata.html#a826951d79c6be34a2ce4a06abee65fcf" target="_top" xlink:title="Base plate color, identity graphics, svg file.">
<polygon fill="white" stroke="#666666" points="279.5,-363 158.5,-363 158.5,-337 279.5,-337 279.5,-363"/>
<text text-anchor="start" x="166.5" y="-352.6" font-family="SourceSans" font-size="8.00">a60::metadata::augment</text>
<text text-anchor="middle" x="219" y="-343.6" font-family="SourceSans" font-size="8.00">_metadata_background</text>
</a>
</g>
</g>
<!-- Node1&#45;&gt;Node2 -->
<g id="edge1" class="edge">
<title>Node1&#45;&gt;Node2</title>
<path fill="none" stroke="#63b8ff" d="M67.59,-155.27C81.04,-183.75 115.44,-252.03 157,-300 166.79,-311.3 179.32,-322.05 190.48,-330.67"/>
<polygon fill="#63b8ff" stroke="#63b8ff" points="188.58,-333.62 198.67,-336.82 192.78,-328.02 188.58,-333.62"/>
</g>
<!-- Node6 -->
<g id="node6" class="node">
<title>Node6</title>
<g id="a_node6"><a xlink:href="namespacea60_1_1metadata.html#adefdcf326e3314b557066902a1e2dcf9" target="_top" xlink:title=" ">
<polygon fill="white" stroke="#666666" points="281,-196 157,-196 157,-170 281,-170 281,-196"/>
<text text-anchor="start" x="165" y="-185.6" font-family="SourceSans" font-size="8.00">a60::metadata::canonical</text>
<text text-anchor="middle" x="219" y="-176.6" font-family="SourceSans" font-size="8.00">_media_name</text>
</a>
</g>
</g>
<!-- Node1&#45;&gt;Node6 -->
<g id="edge5" class="edge">
<title>Node1&#45;&gt;Node6</title>
<path fill="none" stroke="#63b8ff" d="M111.45,-155.09C126.34,-158.99 142.82,-163.3 158.28,-167.35"/>
<polygon fill="#63b8ff" stroke="#63b8ff" points="157.7,-170.82 168.26,-169.97 159.47,-164.05 157.7,-170.82"/>
</g>
<!-- Node10 -->
<g id="node10" class="node">
<title>Node10</title>
<g id="a_node10"><a xlink:href="namespacea60.html#a34d53970ee23a7c014960a2bf1a10e2b" target="_top" xlink:title="Search DOM for string literals.">
<polygon fill="white" stroke="#666666" points="428,-86 325,-86 325,-60 428,-60 428,-86"/>
<text text-anchor="start" x="333" y="-75.6" font-family="SourceSans" font-size="8.00">a60::search_dom_for</text>
<text text-anchor="middle" x="376.5" y="-66.6" font-family="SourceSans" font-size="8.00">_string_field</text>
</a>
</g>
</g>
<!-- Node1&#45;&gt;Node10 -->
<g id="edge17" class="edge">
<title>Node1&#45;&gt;Node10</title>
<path fill="none" stroke="#63b8ff" d="M121.23,-145.56C166.53,-146.21 229.55,-142.66 281,-123 299.68,-115.86 299.54,-105.75 317,-96 320.7,-93.94 324.62,-91.97 328.61,-90.12"/>
<polygon fill="#63b8ff" stroke="#63b8ff" points="330.23,-93.23 337.98,-86.01 327.42,-86.82 330.23,-93.23"/>
</g>
<!-- Node14 -->
<g id="node14" class="node">
<title>Node14</title>
<g id="a_node14"><a xlink:href="namespacea60.html#af45982273a7a2e61b6aaa436081238c0" target="_top" xlink:title="Load JSON file to in&#45;memory DOM.">
<polygon fill="white" stroke="#666666" points="271,-114 167,-114 167,-88 271,-88 271,-114"/>
<text text-anchor="start" x="175" y="-103.6" font-family="SourceSans" font-size="8.00">a60::deserialize_json</text>
<text text-anchor="middle" x="219" y="-94.6" font-family="SourceSans" font-size="8.00">_to_dom_object</text>
</a>
</g>
</g>
<!-- Node1&#45;&gt;Node14 -->
<g id="edge13" class="edge">
<title>Node1&#45;&gt;Node14</title>
<path fill="none" stroke="#63b8ff" d="M111.45,-128.91C126.34,-125.01 142.82,-120.7 158.28,-116.65"/>
<polygon fill="#63b8ff" stroke="#63b8ff" points="159.47,-119.95 168.26,-114.03 157.7,-113.18 159.47,-119.95"/>
</g>
<!-- Node16 -->
<g id="node16" class="node">
<title>Node16</title>
<g id="a_node16"><a xlink:href="namespacea60_1_1metadata.html#aeba42336cc4f30ed9ee705111d3e82a9" target="_top" xlink:title="Typographic defaults for text labels.">
<polygon fill="white" stroke="#666666" points="268,-291 170,-291 170,-265 268,-265 268,-291"/>
<text text-anchor="start" x="178" y="-280.6" font-family="SourceSans" font-size="8.00">a60::metadata::get</text>
<text text-anchor="middle" x="219" y="-271.6" font-family="SourceSans" font-size="8.00">_metadata_typo</text>
</a>
</g>
</g>
<!-- Node1&#45;&gt;Node16 -->
<g id="edge15" class="edge">
<title>Node1&#45;&gt;Node16</title>
<path fill="none" stroke="#63b8ff" d="M76.51,-155.04C104.01,-178.94 162.66,-229.91 195.15,-258.14"/>
<polygon fill="#63b8ff" stroke="#63b8ff" points="192.97,-260.88 202.81,-264.8 197.56,-255.6 192.97,-260.88"/>
</g>
<!-- Node17 -->
<g id="node17" class="node">
<title>Node17</title>
<g id="a_node17"><a xlink:href="namespacea60_1_1metadata.html#adb36743be767a1f1a9947f5b6feff3a8" target="_top" xlink:title="Convert a vector of strings to a flattened and comma&#45;space&#45;separated list of strings.">
<polygon fill="white" stroke="#666666" points="275,-70 163,-70 163,-44 275,-44 275,-70"/>
<text text-anchor="start" x="171" y="-59.6" font-family="SourceSans" font-size="8.00">a60::metadata::strings</text>
<text text-anchor="middle" x="219" y="-50.6" font-family="SourceSans" font-size="8.00">_to_cssv_string</text>
</a>
</g>
</g>
<!-- Node1&#45;&gt;Node17 -->
<g id="edge18" class="edge">
<title>Node1&#45;&gt;Node17</title>
<path fill="none" stroke="#63b8ff" d="M78.69,-128.84C97.25,-115.08 128.06,-93.51 157,-79 160.52,-77.23 164.22,-75.54 167.98,-73.93"/>
<polygon fill="#63b8ff" stroke="#63b8ff" points="169.45,-77.11 177.4,-70.11 166.82,-70.63 169.45,-77.11"/>
</g>
<!-- Node18 -->
<g id="node18" class="node">
<title>Node18</title>
<g id="a_node18"><a xlink:href="namespacea60_1_1metadata.html#a80da6438996a07a5fa1df5728c004b2a" target="_top" xlink:title="Find name &#39;field&#39; in JSON file and return vector of values.">
<polygon fill="white" stroke="#666666" points="274.5,-26 163.5,-26 163.5,0 274.5,0 274.5,-26"/>
<text text-anchor="start" x="171.5" y="-15.6" font-family="SourceSans" font-size="8.00">a60::metadata::values</text>
<text text-anchor="middle" x="219" y="-6.6" font-family="SourceSans" font-size="8.00">_from_field</text>
</a>
</g>
</g>
<!-- Node1&#45;&gt;Node18 -->
<g id="edge19" class="edge">
<title>Node1&#45;&gt;Node18</title>
<path fill="none" stroke="#63b8ff" d="M69.92,-128.91C84.89,-106.63 118.21,-61.2 157,-35 159.28,-33.46 161.69,-32.01 164.17,-30.65"/>
<polygon fill="#63b8ff" stroke="#63b8ff" points="165.97,-33.67 173.41,-26.12 162.89,-27.38 165.97,-33.67"/>
</g>
<!-- Node3 -->
<g id="node3" class="node">
<title>Node3</title>
<g id="a_node3"><a xlink:href="namespacea60_1_1io.html#a16f17ea9e02c1975ca17b77e46cf7629" target="_top" xlink:title="Make sure a path ends in &#39;/&#39;;.">
<polygon fill="white" stroke="#666666" points="421.5,-420.5 331.5,-420.5 331.5,-403.5 421.5,-403.5 421.5,-420.5"/>
<text text-anchor="middle" x="376.5" y="-410.1" font-family="SourceSans" font-size="8.00">a60::io::end_path</text>
</a>
</g>
</g>
<!-- Node2&#45;&gt;Node3 -->
<g id="edge2" class="edge">
<title>Node2&#45;&gt;Node3</title>
<path fill="none" stroke="#63b8ff" d="M246.38,-363.07C265.67,-372.35 292.62,-384.76 317,-394 322.93,-396.25 329.28,-398.43 335.53,-400.45"/>
<polygon fill="#63b8ff" stroke="#63b8ff" points="334.6,-403.82 345.19,-403.48 336.7,-397.14 334.6,-403.82"/>
</g>
<!-- Node4 -->
<g id="node4" class="node">
<title>Node4</title>
<g id="a_node4"><a xlink:href="namespacea60_1_1metadata.html#abcd6d192e6ed0f853c3c6cd9bcf13cad" target="_top" xlink:title=" ">
<polygon fill="white" stroke="#666666" points="425.5,-341 327.5,-341 327.5,-315 425.5,-315 425.5,-341"/>
<text text-anchor="start" x="335.5" y="-330.6" font-family="SourceSans" font-size="8.00">a60::metadata::get</text>
<text text-anchor="middle" x="376.5" y="-321.6" font-family="SourceSans" font-size="8.00">_metadata_style</text>
</a>
</g>
</g>
<!-- Node2&#45;&gt;Node4 -->
<g id="edge3" class="edge">
<title>Node2&#45;&gt;Node4</title>
<path fill="none" stroke="#63b8ff" d="M279.68,-341.56C291.99,-339.82 304.94,-337.98 317.2,-336.25"/>
<polygon fill="#63b8ff" stroke="#63b8ff" points="317.9,-339.68 327.31,-334.82 316.92,-332.75 317.9,-339.68"/>
</g>
<!-- Node5 -->
<g id="node5" class="node">
<title>Node5</title>
<g id="a_node5"><a xlink:href="namespacea60_1_1io.html#ac95e5271a27a23bc2336d84b3f821fa2" target="_top" xlink:title="Constant filesystem and run&#45;time resources.">
<polygon fill="white" stroke="#666666" points="428.5,-385 324.5,-385 324.5,-359 428.5,-359 428.5,-385"/>
<text text-anchor="start" x="332.5" y="-374.6" font-family="SourceSans" font-size="8.00">a60::io::get_run_time</text>
<text text-anchor="middle" x="376.5" y="-365.6" font-family="SourceSans" font-size="8.00">_resources</text>
</a>
</g>
</g>
<!-- Node2&#45;&gt;Node5 -->
<g id="edge4" class="edge">
<title>Node2&#45;&gt;Node5</title>
<path fill="none" stroke="#63b8ff" d="M279.68,-358.44C290.95,-360.04 302.77,-361.71 314.1,-363.31"/>
<polygon fill="#63b8ff" stroke="#63b8ff" points="313.95,-366.83 324.34,-364.76 314.93,-359.9 313.95,-366.83"/>
</g>
<!-- Node7 -->
<g id="node7" class="node">
<title>Node7</title>
<g id="a_node7"><a xlink:href="namespacea60_1_1constants.html#a8a38c40674ec5fbf57af8127a67d1609" target="_top" xlink:title=" ">
<polygon fill="white" stroke="#666666" points="430,-296.5 323,-296.5 323,-279.5 430,-279.5 430,-296.5"/>
<text text-anchor="middle" x="376.5" y="-286.1" font-family="SourceSans" font-size="8.00">a60::constants::colon</text>
</a>
</g>
</g>
<!-- Node6&#45;&gt;Node7 -->
<g id="edge6" class="edge">
<title>Node6&#45;&gt;Node7</title>
<path fill="none" stroke="#63b8ff" d="M230.85,-196.06C247.46,-215.24 281.08,-250.92 317,-271 320.24,-272.81 323.68,-274.44 327.22,-275.91"/>
<polygon fill="#63b8ff" stroke="#63b8ff" points="326.14,-279.24 336.73,-279.44 328.57,-272.68 326.14,-279.24"/>
</g>
<!-- Node8 -->
<g id="node8" class="node">
<title>Node8</title>
<g id="a_node8"><a xlink:href="namespacea60_1_1constants.html#a6338b74a1c5c6dc024b03069e07e34ac" target="_top" xlink:title=" ">
<polygon fill="white" stroke="#666666" points="434.5,-261.5 318.5,-261.5 318.5,-244.5 434.5,-244.5 434.5,-261.5"/>
<text text-anchor="middle" x="376.5" y="-251.1" font-family="SourceSans" font-size="8.00">a60::constants::hyphen</text>
</a>
</g>
</g>
<!-- Node6&#45;&gt;Node8 -->
<g id="edge7" class="edge">
<title>Node6&#45;&gt;Node8</title>
<path fill="none" stroke="#63b8ff" d="M240.92,-196.17C260.13,-207.84 289.68,-224.73 317,-236 321.71,-237.94 326.71,-239.76 331.74,-241.42"/>
<polygon fill="#63b8ff" stroke="#63b8ff" points="330.76,-244.78 341.35,-244.43 332.85,-238.1 330.76,-244.78"/>
</g>
<!-- Node9 -->
<g id="node9" class="node">
<title>Node9</title>
<g id="a_node9"><a xlink:href="namespacea60_1_1constants.html#a370b70e28b3935e8736cb9e79697ceda" target="_top" xlink:title=" ">
<polygon fill="white" stroke="#666666" points="432,-226.5 321,-226.5 321,-209.5 432,-209.5 432,-226.5"/>
<text text-anchor="middle" x="376.5" y="-216.1" font-family="SourceSans" font-size="8.00">a60::constants::period</text>
</a>
</g>
</g>
<!-- Node6&#45;&gt;Node9 -->
<g id="edge8" class="edge">
<title>Node6&#45;&gt;Node9</title>
<path fill="none" stroke="#63b8ff" d="M277.9,-196.03C294.19,-199.7 311.73,-203.65 327.38,-207.17"/>
<polygon fill="#63b8ff" stroke="#63b8ff" points="326.84,-210.64 337.37,-209.42 328.38,-203.81 326.84,-210.64"/>
</g>
<!-- Node6&#45;&gt;Node10 -->
<g id="edge9" class="edge">
<title>Node6&#45;&gt;Node10</title>
<path fill="none" stroke="#63b8ff" d="M259.23,-169.91C266.98,-166.2 274.66,-161.6 281,-156 304.31,-135.41 293.26,-116.09 317,-96 319,-94.3 321.15,-92.72 323.39,-91.25"/>
<polygon fill="#63b8ff" stroke="#63b8ff" points="325.46,-94.1 332.41,-86.1 321.99,-88.02 325.46,-94.1"/>
</g>
<!-- Node11 -->
<g id="node11" class="node">
<title>Node11</title>
<g id="a_node11"><a xlink:href="namespacea60.html#a0022cb8323c9a304730c5d70e4da4e4b" target="_top" xlink:title=" ">
<polygon fill="white" stroke="#666666" points="427,-191.5 326,-191.5 326,-174.5 427,-174.5 427,-191.5"/>
<text text-anchor="middle" x="376.5" y="-181.1" font-family="SourceSans" font-size="8.00">a60::to_erase_string</text>
</a>
</g>
</g>
<!-- Node6&#45;&gt;Node11 -->
<g id="edge10" class="edge">
<title>Node6&#45;&gt;Node11</title>
<path fill="none" stroke="#63b8ff" d="M281.01,-183C292.35,-183 304.18,-183 315.48,-183"/>
<polygon fill="#63b8ff" stroke="#63b8ff" points="315.69,-186.5 325.69,-183 315.69,-179.5 315.69,-186.5"/>
</g>
<!-- Node12 -->
<g id="node12" class="node">
<title>Node12</title>
<g id="a_node12"><a xlink:href="namespacea60.html#ac7eddb2e330d8983ddc852edde5335c5" target="_top" xlink:title=" ">
<polygon fill="white" stroke="#666666" points="436,-156.5 317,-156.5 317,-139.5 436,-139.5 436,-156.5"/>
<text text-anchor="middle" x="376.5" y="-146.1" font-family="SourceSans" font-size="8.00">a60::to_lowercase_string</text>
</a>
</g>
</g>
<!-- Node6&#45;&gt;Node12 -->
<g id="edge11" class="edge">
<title>Node6&#45;&gt;Node12</title>
<path fill="none" stroke="#63b8ff" d="M277.9,-169.97C294.19,-166.3 311.73,-162.35 327.38,-158.83"/>
<polygon fill="#63b8ff" stroke="#63b8ff" points="328.38,-162.19 337.37,-156.58 326.84,-155.36 328.38,-162.19"/>
</g>
<!-- Node13 -->
<g id="node13" class="node">
<title>Node13</title>
<g id="a_node13"><a xlink:href="namespacea60.html#a751f954fe64233f1dc6517220e4b5692" target="_top" xlink:title=" ">
<polygon fill="white" stroke="#666666" points="430,-121.5 323,-121.5 323,-104.5 430,-104.5 430,-121.5"/>
<text text-anchor="middle" x="376.5" y="-111.1" font-family="SourceSans" font-size="8.00">a60::to_replace_string</text>
</a>
</g>
</g>
<!-- Node6&#45;&gt;Node13 -->
<g id="edge12" class="edge">
<title>Node6&#45;&gt;Node13</title>
<path fill="none" stroke="#63b8ff" d="M252.54,-169.97C261.9,-165.85 272.01,-161.05 281,-156 297.98,-146.46 299.48,-139.52 317,-131 321.66,-128.73 326.66,-126.68 331.72,-124.83"/>
<polygon fill="#63b8ff" stroke="#63b8ff" points="333.06,-128.08 341.41,-121.55 330.81,-121.45 333.06,-128.08"/>
</g>
<!-- Node15 -->
<g id="node15" class="node">
<title>Node15</title>
<g id="a_node15"><a xlink:href="namespacea60.html#a538d43bb9bfa488a54cea929736dbe2d" target="_top" xlink:title="Deserialize input file.">
<polygon fill="white" stroke="#666666" points="428.5,-42 324.5,-42 324.5,-16 428.5,-16 428.5,-42"/>
<text text-anchor="start" x="332.5" y="-31.6" font-family="SourceSans" font-size="8.00">a60::deserialize_json</text>
<text text-anchor="middle" x="376.5" y="-22.6" font-family="SourceSans" font-size="8.00">_to_dom</text>
</a>
</g>
</g>
<!-- Node14&#45;&gt;Node15 -->
<g id="edge14" class="edge">
<title>Node14&#45;&gt;Node15</title>
<path fill="none" stroke="#63b8ff" d="M261.79,-87.92C268.37,-85.3 274.99,-82.31 281,-79 298.75,-69.22 299.31,-60.9 317,-51 320.03,-49.31 323.21,-47.69 326.46,-46.16"/>
<polygon fill="#63b8ff" stroke="#63b8ff" points="327.99,-49.31 335.75,-42.09 325.18,-42.9 327.99,-49.31"/>
</g>
<!-- Node16&#45;&gt;Node4 -->
<g id="edge16" class="edge">
<title>Node16&#45;&gt;Node4</title>
<path fill="none" stroke="#63b8ff" d="M260.45,-291.01C280.26,-297.38 304.3,-305.11 325.28,-311.85"/>
<polygon fill="#63b8ff" stroke="#63b8ff" points="324.39,-315.24 334.98,-314.97 326.53,-308.58 324.39,-315.24"/>
</g>
</g>
</svg>
