<?xml version="1.0" encoding="UTF-8" standalone="no"?>
<!DOCTYPE svg PUBLIC "-//W3C//DTD SVG 1.1//EN"
 "http://www.w3.org/Graphics/SVG/1.1/DTD/svg11.dtd">
<!-- Generated by graphviz version 5.0.0 (0)
 -->
<!-- Title: a60::find_duplicate_btih_in_torrent_collection Pages: 1 -->
<svg width="276pt" height="60pt"
 viewBox="0.00 0.00 276.00 60.00" xmlns="http://www.w3.org/2000/svg" xmlns:xlink="http://www.w3.org/1999/xlink">
<g id="graph0" class="graph" transform="scale(1 1) rotate(0) translate(4 56)">
<title>a60::find_duplicate_btih_in_torrent_collection</title>
<!-- Node1 -->
<g id="node1" class="node">
<title>Node1</title>
<g id="a_node1"><a xlink:title=" ">
<polygon fill="#999999" stroke="#666666" points="122,-38.5 0,-38.5 0,-12.5 122,-12.5 122,-38.5"/>
<text text-anchor="start" x="8" y="-28.1" font-family="SourceSans" font-size="8.00">a60::find_duplicate</text>
<text text-anchor="middle" x="61" y="-19.1" font-family="SourceSans" font-size="8.00">_btih_in_torrent_collection</text>
</a>
</g>
</g>
<!-- Node2 -->
<g id="node2" class="node">
<title>Node2</title>
<g id="a_node2"><a xlink:href="namespacea60_1_1io.html#aea30b8fc474f5a7b922516dc1e199037" target="_top" xlink:title="Takes a string representing a directory, returns a sorted list of contents as a std::vector&lt;string&gt;.">
<polygon fill="white" stroke="#666666" points="268,-52 158,-52 158,-35 268,-35 268,-52"/>
<text text-anchor="middle" x="213" y="-41.6" font-family="SourceSans" font-size="8.00">a60::io::populate_files</text>
</a>
</g>
</g>
<!-- Node1&#45;&gt;Node2 -->
<g id="edge1" class="edge">
<title>Node1&#45;&gt;Node2</title>
<path fill="none" stroke="#63b8ff" d="M122.15,-32.72C130.49,-33.72 139.09,-34.75 147.51,-35.76"/>
<polygon fill="#63b8ff" stroke="#63b8ff" points="147.32,-39.26 157.66,-36.98 148.15,-32.31 147.32,-39.26"/>
</g>
<!-- Node3 -->
<g id="node3" class="node">
<title>Node3</title>
<g id="a_node3"><a xlink:href="namespacea60_1_1io.html#af9ba5ecc6e668e47fb2f020216f7b611" target="_top" xlink:title="Strip off path component from full&#45;qualified filename.">
<polygon fill="white" stroke="#666666" points="262,-17 164,-17 164,0 262,0 262,-17"/>
<text text-anchor="middle" x="213" y="-6.6" font-family="SourceSans" font-size="8.00">a60::io::prune_path</text>
</a>
</g>
</g>
<!-- Node1&#45;&gt;Node3 -->
<g id="edge2" class="edge">
<title>Node1&#45;&gt;Node3</title>
<path fill="none" stroke="#63b8ff" d="M122.15,-18.68C132.54,-17.51 143.33,-16.28 153.67,-15.11"/>
<polygon fill="#63b8ff" stroke="#63b8ff" points="154.29,-18.56 163.83,-13.96 153.5,-11.61 154.29,-18.56"/>
</g>
</g>
</svg>
