<?xml version="1.0" encoding="UTF-8" standalone="no"?>
<!DOCTYPE svg PUBLIC "-//W3C//DTD SVG 1.1//EN"
 "http://www.w3.org/Graphics/SVG/1.1/DTD/svg11.dtd">
<!-- Generated by graphviz version 5.0.0 (0)
 -->
<!-- Title: a60::persistent_collection_per Pages: 1 -->
<!--zoomable 438 -->
<svg id="main" version="1.1" xmlns="http://www.w3.org/2000/svg" xmlns:xlink="http://www.w3.org/1999/xlink" xml:space="preserve" onload="init(evt)">
<style type="text/css"><![CDATA[
.edge:hover path { stroke: red; }
.edge:hover polygon { stroke: red; fill: red; }
]]></style>
<script type="text/javascript"><![CDATA[
var edges = document.getElementsByTagName('g');
if (edges && edges.length) {
  for (var i=0;i<edges.length;i++) {
    if (edges[i].id.substr(0,4)=='edge') {
      edges[i].setAttribute('class','edge');
    }
  }
}
]]></script>
        <defs>
                <circle id="rim" cx="0" cy="0" r="7"/>
                <circle id="rim2" cx="0" cy="0" r="3.5"/>
                <g id="zoomPlus">
                        <use xlink:href="#rim" fill="#404040">
                                <set attributeName="fill" to="#808080" begin="zoomplus.mouseover" end="zoomplus.mouseout"/>
                        </use>
                        <path d="M-4,0h8M0,-4v8" fill="none" stroke="white" stroke-width="1.5" pointer-events="none"/>
                </g>
                <g id="zoomMin">
                        <use xlink:href="#rim" fill="#404040">
                                <set attributeName="fill" to="#808080" begin="zoomminus.mouseover" end="zoomminus.mouseout"/>
                        </use>
                        <path d="M-4,0h8" fill="none" stroke="white" stroke-width="1.5" pointer-events="none"/>
                </g>
                <g id="dirArrow">
                        <path fill="none" stroke="white" stroke-width="1.5" d="M0,-3.0v7 M-2.5,-0.5L0,-3.0L2.5,-0.5"/>
                </g>
               <g id="resetDef">
                       <use xlink:href="#rim2" fill="#404040">
                               <set attributeName="fill" to="#808080" begin="reset.mouseover" end="reset.mouseout"/>
                       </use>
               </g>
        </defs>

<script type="text/javascript">
var viewWidth = 1092;
var viewHeight = 438;
var sectionId = 'dynsection-154';
</script>
<script xlink:href="svgpan.js"/>
<svg id="graph" class="graph">
<g id="viewport">
<title>a60::persistent_collection_per</title>
<!-- Node1 -->
<g id="node1" class="node">
<title>Node1</title>
<g id="a_node1"><a xlink:title=" ">
<polygon fill="#999999" stroke="#666666" points="140,-301 0,-301 0,-284 140,-284 140,-301"/>
<text text-anchor="middle" x="70" y="-290.6" font-family="SourceSans" font-size="8.00">a60::persistent_collection_per</text>
</a>
</g>
</g>
<!-- Node2 -->
<g id="node2" class="node">
<title>Node2</title>
<g id="a_node2"><a xlink:href="classthread__pool.html#a7a459493866cf961a2c2e1805505afa6" target="_top" xlink:title=" ">
<polygon fill="white" stroke="#666666" points="275.5,-386 180.5,-386 180.5,-369 275.5,-369 275.5,-386"/>
<text text-anchor="middle" x="228" y="-375.6" font-family="SourceSans" font-size="8.00">thread_pool::async</text>
</a>
</g>
</g>
<!-- Node1&#45;&gt;Node2 -->
<g id="edge1" class="edge">
<title>Node1&#45;&gt;Node2</title>
<path fill="none" stroke="#63b8ff" d="M86.82,-301.12C114.03,-315.95 169.9,-346.39 202.29,-364.03"/>
<polygon fill="#63b8ff" stroke="#63b8ff" points="200.69,-367.15 211.14,-368.86 204.04,-361 200.69,-367.15"/>
</g>
<!-- Node5 -->
<g id="node5" class="node">
<title>Node5</title>
<g id="a_node5"><a xlink:href="namespacea60.html#ad9e8576a26510975b74498aeab91ffe4" target="_top" xlink:title="Using previously coalesced files, compute persistence between durations (d) and (dprev).">
<polygon fill="white" stroke="#666666" points="280,-217 176,-217 176,-200 280,-200 280,-217"/>
<text text-anchor="middle" x="228" y="-206.6" font-family="SourceSans" font-size="8.00">a60::persistent_each</text>
</a>
</g>
</g>
<!-- Node1&#45;&gt;Node5 -->
<g id="edge4" class="edge">
<title>Node1&#45;&gt;Node5</title>
<path fill="none" stroke="#63b8ff" d="M86.82,-283.98C114.03,-269.33 169.9,-239.25 202.29,-221.81"/>
<polygon fill="#63b8ff" stroke="#63b8ff" points="204,-224.86 211.14,-217.04 200.68,-218.7 204,-224.86"/>
</g>
<!-- Node3 -->
<g id="node3" class="node">
<title>Node3</title>
<g id="a_node3"><a xlink:href="classthread__pool.html#adb81e803e844526177b0f8a72229dda2" target="_top" xlink:title=" ">
<polygon fill="white" stroke="#666666" points="442.5,-426 335.5,-426 335.5,-409 442.5,-409 442.5,-426"/>
<text text-anchor="middle" x="389" y="-415.6" font-family="SourceSans" font-size="8.00">thread_pool::add_task</text>
</a>
</g>
</g>
<!-- Node2&#45;&gt;Node3 -->
<g id="edge2" class="edge">
<title>Node2&#45;&gt;Node3</title>
<path fill="none" stroke="#63b8ff" d="M262.87,-386.09C278.97,-390.16 298.47,-395.09 316,-399.5 324.99,-401.76 334.62,-404.17 343.81,-406.47"/>
<polygon fill="#63b8ff" stroke="#63b8ff" points="343.02,-409.88 353.57,-408.91 344.72,-403.09 343.02,-409.88"/>
</g>
<!-- Node4 -->
<g id="node4" class="node">
<title>Node4</title>
<g id="a_node4"><a xlink:href="classbase__thread__pool.html#ab99cb06ba52430880d337400fedc20d1" target="_top" xlink:title=" ">
<polygon fill="white" stroke="#666666" points="454.5,-390.5 323.5,-390.5 323.5,-364.5 454.5,-364.5 454.5,-390.5"/>
<text text-anchor="start" x="331.5" y="-380.1" font-family="SourceSans" font-size="8.00">base_thread_pool&lt; std</text>
<text text-anchor="middle" x="389" y="-371.1" font-family="SourceSans" font-size="8.00">::future&lt; void &gt; &gt;::package</text>
</a>
</g>
</g>
<!-- Node2&#45;&gt;Node4 -->
<g id="edge3" class="edge">
<title>Node2&#45;&gt;Node4</title>
<path fill="none" stroke="#63b8ff" d="M275.85,-377.5C287.55,-377.5 300.41,-377.5 313.1,-377.5"/>
<polygon fill="#63b8ff" stroke="#63b8ff" points="313.23,-381 323.23,-377.5 313.23,-374 313.23,-381"/>
</g>
<!-- Node6 -->
<g id="node6" class="node">
<title>Node6</title>
<g id="a_node6"><a xlink:href="structa60_1_1collection.html#a899f781ad983b2ec1f0da35a5d3f8b54" target="_top" xlink:title=" ">
<polygon fill="white" stroke="#666666" points="933.5,-232 818.5,-232 818.5,-197 933.5,-197 933.5,-232"/>
<text text-anchor="start" x="826.5" y="-221.6" font-family="SourceSans" font-size="8.00">a60::collection::mangle</text>
<text text-anchor="start" x="826.5" y="-212.6" font-family="SourceSans" font-size="8.00">_duration_significant</text>
<text text-anchor="middle" x="876" y="-203.6" font-family="SourceSans" font-size="8.00">_digits</text>
</a>
</g>
</g>
<!-- Node5&#45;&gt;Node6 -->
<g id="edge5" class="edge">
<title>Node5&#45;&gt;Node6</title>
<path fill="none" stroke="#63b8ff" d="M249.79,-217.02C323.16,-245.86 576.26,-334.88 775,-277.5 801.62,-269.81 827.98,-252.71 846.94,-238.26"/>
<polygon fill="#63b8ff" stroke="#63b8ff" points="849.14,-240.98 854.85,-232.06 844.82,-235.48 849.14,-240.98"/>
</g>
<!-- Node7 -->
<g id="node7" class="node">
<title>Node7</title>
<g id="a_node7"><a xlink:href="structa60_1_1collection.html#a3780f3266ff2355e74b737a201c89116" target="_top" xlink:title=" ">
<polygon fill="white" stroke="#666666" points="618,-100.5 503,-100.5 503,-74.5 618,-74.5 618,-100.5"/>
<text text-anchor="start" x="511" y="-90.1" font-family="SourceSans" font-size="8.00">a60::collection::mangle</text>
<text text-anchor="middle" x="560.5" y="-81.1" font-family="SourceSans" font-size="8.00">_tid_match_id</text>
</a>
</g>
</g>
<!-- Node5&#45;&gt;Node7 -->
<g id="edge6" class="edge">
<title>Node5&#45;&gt;Node7</title>
<path fill="none" stroke="#63b8ff" d="M238.67,-199.81C253.96,-186.52 285.18,-161.27 316,-147.5 376.83,-120.32 397.36,-129.64 462,-113.5 474.87,-110.29 488.65,-106.7 501.68,-103.24"/>
<polygon fill="#63b8ff" stroke="#63b8ff" points="502.71,-106.59 511.47,-100.63 500.91,-99.83 502.71,-106.59"/>
</g>
<!-- Node14 -->
<g id="node14" class="node">
<title>Node14</title>
<g id="a_node14"><a xlink:href="namespacea60.html#a13a3caf3539f435224ed108790559c95" target="_top" xlink:title="Write out per&#45;sample details for swarm_uinon meta_peers.">
<polygon fill="white" stroke="#666666" points="462,-217 316,-217 316,-200 462,-200 462,-217"/>
<text text-anchor="middle" x="389" y="-206.6" font-family="SourceSans" font-size="8.00">a60::reserialize_persistent_json</text>
</a>
</g>
</g>
<!-- Node5&#45;&gt;Node14 -->
<g id="edge14" class="edge">
<title>Node5&#45;&gt;Node14</title>
<path fill="none" stroke="#63b8ff" d="M280.18,-208.5C288.34,-208.5 296.95,-208.5 305.61,-208.5"/>
<polygon fill="#63b8ff" stroke="#63b8ff" points="305.77,-212 315.77,-208.5 305.77,-205 305.77,-212"/>
</g>
<!-- Node21 -->
<g id="node21" class="node">
<title>Node21</title>
<g id="a_node21"><a xlink:href="namespacea60.html#ac7ec35d2a0f81f1570817264e4ef49f2" target="_top" xlink:title="Serialization minimal summary info per duration.">
<polygon fill="white" stroke="#666666" points="623,-136 498,-136 498,-119 623,-119 623,-136"/>
<text text-anchor="middle" x="560.5" y="-125.6" font-family="SourceSans" font-size="8.00">a60::serialize_swarm_json</text>
</a>
</g>
</g>
<!-- Node5&#45;&gt;Node21 -->
<g id="edge22" class="edge">
<title>Node5&#45;&gt;Node21</title>
<path fill="none" stroke="#63b8ff" d="M263.74,-199.98C324.12,-185.19 448.31,-154.75 514.94,-138.42"/>
<polygon fill="#63b8ff" stroke="#63b8ff" points="515.85,-141.8 524.72,-136.02 514.18,-135 515.85,-141.8"/>
</g>
<!-- Node22 -->
<g id="node22" class="node">
<title>Node22</title>
<g id="a_node22"><a xlink:href="namespacea60.html#afaa1913d8f75fba4675c3a13046e548d" target="_top" xlink:title=" ">
<polygon fill="white" stroke="#666666" points="438,-346 340,-346 340,-329 438,-329 438,-346"/>
<text text-anchor="middle" x="389" y="-335.6" font-family="SourceSans" font-size="8.00">a60::sunique_peers</text>
</a>
</g>
</g>
<!-- Node5&#45;&gt;Node22 -->
<g id="edge27" class="edge">
<title>Node5&#45;&gt;Node22</title>
<path fill="none" stroke="#63b8ff" d="M234.2,-217.17C246.23,-236.55 277.89,-283.77 316,-310.5 324.78,-316.66 335.14,-321.61 345.22,-325.51"/>
<polygon fill="#63b8ff" stroke="#63b8ff" points="344.15,-328.84 354.74,-328.92 346.51,-322.25 344.15,-328.84"/>
</g>
<!-- Node27 -->
<g id="node27" class="node">
<title>Node27</title>
<g id="a_node27"><a xlink:href="namespacea60.html#aefa42cfe5a843f4db6544399f9062bc9" target="_top" xlink:title="Difference between swarmA and swarmB. (a &#45; b)">
<polygon fill="white" stroke="#666666" points="444,-105 334,-105 334,-88 444,-88 444,-105"/>
<text text-anchor="middle" x="389" y="-94.6" font-family="SourceSans" font-size="8.00">a60::swarm_difference</text>
</a>
</g>
</g>
<!-- Node5&#45;&gt;Node27 -->
<g id="edge32" class="edge">
<title>Node5&#45;&gt;Node27</title>
<path fill="none" stroke="#63b8ff" d="M235.16,-199.79C248.11,-182.1 279.96,-141.74 316,-119.5 323.3,-114.99 331.58,-111.29 339.84,-108.27"/>
<polygon fill="#63b8ff" stroke="#63b8ff" points="341.12,-111.53 349.49,-105.03 338.9,-104.89 341.12,-111.53"/>
</g>
<!-- Node8 -->
<g id="node8" class="node">
<title>Node8</title>
<g id="a_node8"><a xlink:href="structa60_1_1collection.html#ab234addb5725bb5900b44f55ec1aae10" target="_top" xlink:title=" ">
<polygon fill="white" stroke="#666666" points="774.5,-100.5 659.5,-100.5 659.5,-74.5 774.5,-74.5 774.5,-100.5"/>
<text text-anchor="start" x="667.5" y="-90.1" font-family="SourceSans" font-size="8.00">a60::collection::mangle</text>
<text text-anchor="middle" x="717" y="-81.1" font-family="SourceSans" font-size="8.00">_with_id</text>
</a>
</g>
</g>
<!-- Node7&#45;&gt;Node8 -->
<g id="edge7" class="edge">
<title>Node7&#45;&gt;Node8</title>
<path fill="none" stroke="#63b8ff" d="M618.15,-87.5C628.23,-87.5 638.81,-87.5 649.14,-87.5"/>
<polygon fill="#63b8ff" stroke="#63b8ff" points="649.35,-91 659.35,-87.5 649.35,-84 649.35,-91"/>
</g>
<!-- Node9 -->
<g id="node9" class="node">
<title>Node9</title>
<g id="a_node9"><a xlink:href="structa60_1_1collection.html#a80993af9aec8238db8e44da1e9a3c994" target="_top" xlink:title=" ">
<polygon fill="white" stroke="#666666" points="768.5,-56.5 665.5,-56.5 665.5,-30.5 768.5,-30.5 768.5,-56.5"/>
<text text-anchor="start" x="673.5" y="-46.1" font-family="SourceSans" font-size="8.00">a60::collection::slice</text>
<text text-anchor="middle" x="717" y="-37.1" font-family="SourceSans" font-size="8.00">_name_mangled</text>
</a>
</g>
</g>
<!-- Node7&#45;&gt;Node9 -->
<g id="edge9" class="edge">
<title>Node7&#45;&gt;Node9</title>
<path fill="none" stroke="#63b8ff" d="M607.44,-74.42C624.02,-69.7 642.92,-64.31 660.25,-59.38"/>
<polygon fill="#63b8ff" stroke="#63b8ff" points="661.58,-62.64 670.24,-56.53 659.66,-55.9 661.58,-62.64"/>
</g>
<!-- Node8&#45;&gt;Node6 -->
<g id="edge8" class="edge">
<title>Node8&#45;&gt;Node6</title>
<path fill="none" stroke="#63b8ff" d="M758.67,-100.62C764.36,-103.19 769.97,-106.14 775,-109.5 807.62,-131.3 837.59,-165.47 856.04,-188.88"/>
<polygon fill="#63b8ff" stroke="#63b8ff" points="853.41,-191.2 862.3,-196.97 858.95,-186.92 853.41,-191.2"/>
</g>
<!-- Node10 -->
<g id="node10" class="node">
<title>Node10</title>
<g id="a_node10"><a xlink:href="structa60_1_1collection.html#a25b35cf4ac39da89d868fe2cf41b5acd" target="_top" xlink:title=" ">
<polygon fill="white" stroke="#666666" points="941,-52 811,-52 811,-35 941,-35 941,-52"/>
<text text-anchor="middle" x="876" y="-41.6" font-family="SourceSans" font-size="8.00">a60::collection::slice_name</text>
</a>
</g>
</g>
<!-- Node9&#45;&gt;Node10 -->
<g id="edge10" class="edge">
<title>Node9&#45;&gt;Node10</title>
<path fill="none" stroke="#63b8ff" d="M768.54,-43.5C778.73,-43.5 789.64,-43.5 800.45,-43.5"/>
<polygon fill="#63b8ff" stroke="#63b8ff" points="800.76,-47 810.76,-43.5 800.76,-40 800.76,-47"/>
</g>
<!-- Node11 -->
<g id="node11" class="node">
<title>Node11</title>
<g id="a_node11"><a xlink:href="namespacea60.html#ac7eddb2e330d8983ddc852edde5335c5" target="_top" xlink:title=" ">
<polygon fill="white" stroke="#666666" points="935.5,-17 816.5,-17 816.5,0 935.5,0 935.5,-17"/>
<text text-anchor="middle" x="876" y="-6.6" font-family="SourceSans" font-size="8.00">a60::to_lowercase_string</text>
</a>
</g>
</g>
<!-- Node9&#45;&gt;Node11 -->
<g id="edge11" class="edge">
<title>Node9&#45;&gt;Node11</title>
<path fill="none" stroke="#63b8ff" d="M768.54,-32.23C787.22,-28.07 808.33,-23.36 826.8,-19.24"/>
<polygon fill="#63b8ff" stroke="#63b8ff" points="827.76,-22.62 836.76,-17.03 826.24,-15.79 827.76,-22.62"/>
</g>
<!-- Node12 -->
<g id="node12" class="node">
<title>Node12</title>
<g id="a_node12"><a xlink:href="namespacea60.html#a11d9ffc210e8dca8410e7a5ad62deabc" target="_top" xlink:title=" ">
<polygon fill="white" stroke="#666666" points="932.5,-96.5 819.5,-96.5 819.5,-70.5 932.5,-70.5 932.5,-96.5"/>
<text text-anchor="start" x="827.5" y="-86.1" font-family="SourceSans" font-size="8.00">a60::to_replace_spaces</text>
<text text-anchor="middle" x="876" y="-77.1" font-family="SourceSans" font-size="8.00">_string</text>
</a>
</g>
</g>
<!-- Node9&#45;&gt;Node12 -->
<g id="edge12" class="edge">
<title>Node9&#45;&gt;Node12</title>
<path fill="none" stroke="#63b8ff" d="M768.54,-56.38C783.03,-60.07 798.97,-64.13 814.02,-67.96"/>
<polygon fill="#63b8ff" stroke="#63b8ff" points="813.19,-71.36 823.75,-70.44 814.92,-64.58 813.19,-71.36"/>
</g>
<!-- Node13 -->
<g id="node13" class="node">
<title>Node13</title>
<g id="a_node13"><a xlink:href="namespacea60.html#a751f954fe64233f1dc6517220e4b5692" target="_top" xlink:title=" ">
<polygon fill="white" stroke="#666666" points="1084,-92 977,-92 977,-75 1084,-75 1084,-92"/>
<text text-anchor="middle" x="1030.5" y="-81.6" font-family="SourceSans" font-size="8.00">a60::to_replace_string</text>
</a>
</g>
</g>
<!-- Node12&#45;&gt;Node13 -->
<g id="edge13" class="edge">
<title>Node12&#45;&gt;Node13</title>
<path fill="none" stroke="#63b8ff" d="M932.92,-83.5C943.92,-83.5 955.53,-83.5 966.73,-83.5"/>
<polygon fill="#63b8ff" stroke="#63b8ff" points="966.88,-87 976.88,-83.5 966.88,-80 966.88,-87"/>
</g>
<!-- Node14&#45;&gt;Node7 -->
<g id="edge15" class="edge">
<title>Node14&#45;&gt;Node7</title>
<path fill="none" stroke="#63b8ff" d="M400.81,-199.96C415.17,-188.47 441.17,-167.2 462,-147.5 478.9,-131.51 478.51,-122.21 498,-109.5 500.45,-107.9 503.03,-106.4 505.69,-105"/>
<polygon fill="#63b8ff" stroke="#63b8ff" points="507.43,-108.05 514.96,-100.59 504.42,-101.73 507.43,-108.05"/>
</g>
<!-- Node15 -->
<g id="node15" class="node">
<title>Node15</title>
<g id="a_node15"><a xlink:href="namespacea60.html#aba8b47de875bd5bebeed9c57e3b52c06" target="_top" xlink:title="Serialize buffer to output file.">
<polygon fill="white" stroke="#666666" points="767.5,-136 666.5,-136 666.5,-119 767.5,-119 767.5,-136"/>
<text text-anchor="middle" x="717" y="-125.6" font-family="SourceSans" font-size="8.00">a60::serialize_buffer</text>
</a>
</g>
</g>
<!-- Node14&#45;&gt;Node15 -->
<g id="edge16" class="edge">
<title>Node14&#45;&gt;Node15</title>
<path fill="none" stroke="#63b8ff" d="M424.27,-199.98C483.7,-185.22 605.82,-154.88 671.64,-138.52"/>
<polygon fill="#63b8ff" stroke="#63b8ff" points="672.84,-141.83 681.7,-136.02 671.15,-135.04 672.84,-141.83"/>
</g>
<!-- Node16 -->
<g id="node16" class="node">
<title>Node16</title>
<g id="a_node16"><a xlink:href="namespacea60.html#a94d004bc4c17246fd2bb76cabb121d9a" target="_top" xlink:title="Per collection metadata for given duration.">
<polygon fill="white" stroke="#666666" points="618.5,-221.5 502.5,-221.5 502.5,-195.5 618.5,-195.5 618.5,-221.5"/>
<text text-anchor="start" x="510.5" y="-211.1" font-family="SourceSans" font-size="8.00">a60::serialize_collection</text>
<text text-anchor="middle" x="560.5" y="-202.1" font-family="SourceSans" font-size="8.00">_metadata_json</text>
</a>
</g>
</g>
<!-- Node14&#45;&gt;Node16 -->
<g id="edge17" class="edge">
<title>Node14&#45;&gt;Node16</title>
<path fill="none" stroke="#63b8ff" d="M462.37,-208.5C472.33,-208.5 482.51,-208.5 492.36,-208.5"/>
<polygon fill="#63b8ff" stroke="#63b8ff" points="492.48,-212 502.48,-208.5 492.48,-205 492.48,-212"/>
</g>
<!-- Node19 -->
<g id="node19" class="node">
<title>Node19</title>
<g id="a_node19"><a xlink:href="namespacea60.html#a87cd73602b7d6cf64ef441200cfda504" target="_top" xlink:title="Serialize vector of meta_peer.">
<polygon fill="white" stroke="#666666" points="609.5,-267.5 511.5,-267.5 511.5,-241.5 609.5,-241.5 609.5,-267.5"/>
<text text-anchor="start" x="519.5" y="-257.1" font-family="SourceSans" font-size="8.00">a60::serialize_meta</text>
<text text-anchor="middle" x="560.5" y="-248.1" font-family="SourceSans" font-size="8.00">_peers_json</text>
</a>
</g>
</g>
<!-- Node14&#45;&gt;Node19 -->
<g id="edge20" class="edge">
<title>Node14&#45;&gt;Node19</title>
<path fill="none" stroke="#63b8ff" d="M421.48,-217.04C443.99,-223.15 474.94,-231.55 501.82,-238.85"/>
<polygon fill="#63b8ff" stroke="#63b8ff" points="500.95,-242.24 511.52,-241.48 502.78,-235.48 500.95,-242.24"/>
</g>
<!-- Node17 -->
<g id="node17" class="node">
<title>Node17</title>
<g id="a_node17"><a xlink:href="structa60_1_1collection.html#a8ac066ef3bb824d0ecff3b1238e358e4" target="_top" xlink:title=" ">
<polygon fill="white" stroke="#666666" points="766,-224.5 668,-224.5 668,-198.5 766,-198.5 766,-224.5"/>
<text text-anchor="start" x="676" y="-214.1" font-family="SourceSans" font-size="8.00">a60::collection::get</text>
<text text-anchor="middle" x="717" y="-205.1" font-family="SourceSans" font-size="8.00">_name_from_tid</text>
</a>
</g>
</g>
<!-- Node16&#45;&gt;Node17 -->
<g id="edge18" class="edge">
<title>Node16&#45;&gt;Node17</title>
<path fill="none" stroke="#63b8ff" d="M618.59,-209.61C631.34,-209.86 644.88,-210.12 657.68,-210.37"/>
<polygon fill="#63b8ff" stroke="#63b8ff" points="657.69,-213.87 667.76,-210.56 657.83,-206.87 657.69,-213.87"/>
</g>
<!-- Node18 -->
<g id="node18" class="node">
<title>Node18</title>
<g id="a_node18"><a xlink:href="namespacea60.html#a5491ff3ca7dc34407696caaa90828819" target="_top" xlink:title="First collection serialization, common for all writing.">
<polygon fill="white" stroke="#666666" points="775,-180.5 659,-180.5 659,-154.5 775,-154.5 775,-180.5"/>
<text text-anchor="start" x="667" y="-170.1" font-family="SourceSans" font-size="8.00">a60::serialize_collection</text>
<text text-anchor="middle" x="717" y="-161.1" font-family="SourceSans" font-size="8.00">_base_json</text>
</a>
</g>
</g>
<!-- Node16&#45;&gt;Node18 -->
<g id="edge19" class="edge">
<title>Node16&#45;&gt;Node18</title>
<path fill="none" stroke="#63b8ff" d="M610.81,-195.41C625.52,-191.51 641.78,-187.2 657.04,-183.15"/>
<polygon fill="#63b8ff" stroke="#63b8ff" points="658.13,-186.48 666.89,-180.53 656.33,-179.71 658.13,-186.48"/>
</g>
<!-- Node20 -->
<g id="node20" class="node">
<title>Node20</title>
<g id="a_node20"><a xlink:href="namespacea60.html#a2228baa081fe66cea91ed8032bda4732" target="_top" xlink:title="Serialize meta_peer.">
<polygon fill="white" stroke="#666666" points="766,-268.5 668,-268.5 668,-242.5 766,-242.5 766,-268.5"/>
<text text-anchor="start" x="676" y="-258.1" font-family="SourceSans" font-size="8.00">a60::serialize_meta</text>
<text text-anchor="middle" x="717" y="-249.1" font-family="SourceSans" font-size="8.00">_peer_json</text>
</a>
</g>
</g>
<!-- Node19&#45;&gt;Node20 -->
<g id="edge21" class="edge">
<title>Node19&#45;&gt;Node20</title>
<path fill="none" stroke="#63b8ff" d="M609.54,-254.81C624.8,-254.91 641.84,-255.02 657.74,-255.12"/>
<polygon fill="#63b8ff" stroke="#63b8ff" points="657.97,-258.62 667.99,-255.19 658.01,-251.62 657.97,-258.62"/>
</g>
<!-- Node21&#45;&gt;Node8 -->
<g id="edge23" class="edge">
<title>Node21&#45;&gt;Node8</title>
<path fill="none" stroke="#63b8ff" d="M594.64,-118.92C612.48,-114.3 635.03,-108.46 655.84,-103.08"/>
<polygon fill="#63b8ff" stroke="#63b8ff" points="656.77,-106.45 665.57,-100.56 655.01,-99.67 656.77,-106.45"/>
</g>
<!-- Node21&#45;&gt;Node9 -->
<g id="edge26" class="edge">
<title>Node21&#45;&gt;Node9</title>
<path fill="none" stroke="#63b8ff" d="M603.37,-118.95C610.25,-116.52 617.06,-113.43 623,-109.5 644.07,-95.55 638.53,-80.32 659,-65.5 661.07,-64 663.25,-62.59 665.51,-61.27"/>
<polygon fill="#63b8ff" stroke="#63b8ff" points="667.26,-64.3 674.5,-56.56 664.02,-58.1 667.26,-64.3"/>
</g>
<!-- Node21&#45;&gt;Node15 -->
<g id="edge24" class="edge">
<title>Node21&#45;&gt;Node15</title>
<path fill="none" stroke="#63b8ff" d="M623.01,-127.5C633.85,-127.5 645.12,-127.5 655.92,-127.5"/>
<polygon fill="#63b8ff" stroke="#63b8ff" points="656.1,-131 666.1,-127.5 656.1,-124 656.1,-131"/>
</g>
<!-- Node21&#45;&gt;Node18 -->
<g id="edge25" class="edge">
<title>Node21&#45;&gt;Node18</title>
<path fill="none" stroke="#63b8ff" d="M594.64,-136.08C612.48,-140.7 635.03,-146.54 655.84,-151.92"/>
<polygon fill="#63b8ff" stroke="#63b8ff" points="655.01,-155.33 665.57,-154.44 656.77,-148.55 655.01,-155.33"/>
</g>
<!-- Node23 -->
<g id="node23" class="node">
<title>Node23</title>
<g id="a_node23"><a xlink:href="namespacea60.html#af45982273a7a2e61b6aaa436081238c0" target="_top" xlink:title="Load JSON file to in&#45;memory DOM.">
<polygon fill="white" stroke="#666666" points="612.5,-350.5 508.5,-350.5 508.5,-324.5 612.5,-324.5 612.5,-350.5"/>
<text text-anchor="start" x="516.5" y="-340.1" font-family="SourceSans" font-size="8.00">a60::deserialize_json</text>
<text text-anchor="middle" x="560.5" y="-331.1" font-family="SourceSans" font-size="8.00">_to_dom_object</text>
</a>
</g>
</g>
<!-- Node22&#45;&gt;Node23 -->
<g id="edge28" class="edge">
<title>Node22&#45;&gt;Node23</title>
<path fill="none" stroke="#63b8ff" d="M438.12,-337.5C456.79,-337.5 478.39,-337.5 498.16,-337.5"/>
<polygon fill="#63b8ff" stroke="#63b8ff" points="498.3,-341 508.3,-337.5 498.3,-334 498.3,-341"/>
</g>
<!-- Node25 -->
<g id="node25" class="node">
<title>Node25</title>
<g id="a_node25"><a xlink:href="namespacea60_1_1io.html#aea30b8fc474f5a7b922516dc1e199037" target="_top" xlink:title="Takes a string representing a directory, returns a sorted list of contents as a std::vector&lt;string&gt;.">
<polygon fill="white" stroke="#666666" points="615.5,-430 505.5,-430 505.5,-413 615.5,-413 615.5,-430"/>
<text text-anchor="middle" x="560.5" y="-419.6" font-family="SourceSans" font-size="8.00">a60::io::populate_files</text>
</a>
</g>
</g>
<!-- Node22&#45;&gt;Node25 -->
<g id="edge30" class="edge">
<title>Node22&#45;&gt;Node25</title>
<path fill="none" stroke="#63b8ff" d="M438.03,-344.64C446.45,-347.22 454.81,-350.72 462,-355.5 484.22,-370.25 476.08,-388.31 498,-403.5 500.92,-405.53 504.08,-407.33 507.35,-408.93"/>
<polygon fill="#63b8ff" stroke="#63b8ff" points="506.27,-412.27 516.84,-412.92 508.99,-405.82 506.27,-412.27"/>
</g>
<!-- Node26 -->
<g id="node26" class="node">
<title>Node26</title>
<g id="a_node26"><a xlink:href="namespacea60.html#a6ce8704ec3c4d5e258d062283dd40efb" target="_top" xlink:title="Search DOM for meta_peer(s).">
<polygon fill="white" stroke="#666666" points="612,-394.5 509,-394.5 509,-368.5 612,-368.5 612,-394.5"/>
<text text-anchor="start" x="517" y="-384.1" font-family="SourceSans" font-size="8.00">a60::search_dom_for</text>
<text text-anchor="middle" x="560.5" y="-375.1" font-family="SourceSans" font-size="8.00">_meta_peers</text>
</a>
</g>
</g>
<!-- Node22&#45;&gt;Node26 -->
<g id="edge31" class="edge">
<title>Node22&#45;&gt;Node26</title>
<path fill="none" stroke="#63b8ff" d="M424.82,-346.09C436.63,-349.03 449.9,-352.37 462,-355.5 474.71,-358.78 488.32,-362.37 501.23,-365.8"/>
<polygon fill="#63b8ff" stroke="#63b8ff" points="500.37,-369.2 510.94,-368.39 502.18,-362.43 500.37,-369.2"/>
</g>
<!-- Node24 -->
<g id="node24" class="node">
<title>Node24</title>
<g id="a_node24"><a xlink:href="namespacea60.html#a538d43bb9bfa488a54cea929736dbe2d" target="_top" xlink:title="Deserialize input file.">
<polygon fill="white" stroke="#666666" points="769,-350.5 665,-350.5 665,-324.5 769,-324.5 769,-350.5"/>
<text text-anchor="start" x="673" y="-340.1" font-family="SourceSans" font-size="8.00">a60::deserialize_json</text>
<text text-anchor="middle" x="717" y="-331.1" font-family="SourceSans" font-size="8.00">_to_dom</text>
</a>
</g>
</g>
<!-- Node23&#45;&gt;Node24 -->
<g id="edge29" class="edge">
<title>Node23&#45;&gt;Node24</title>
<path fill="none" stroke="#63b8ff" d="M612.52,-337.5C626.03,-337.5 640.75,-337.5 654.74,-337.5"/>
<polygon fill="#63b8ff" stroke="#63b8ff" points="654.77,-341 664.77,-337.5 654.77,-334 654.77,-341"/>
</g>
</g>
</svg>
        <g id="navigator" transform="translate(0 0)" fill="#404254">
                <rect fill="#f2f5e9" fill-opacity="0.5" stroke="#606060" stroke-width=".5" x="0" y="0" width="60" height="60"/>
                <use id="zoomplus" xlink:href="#zoomPlus" x="17" y="9" onmousedown="handleZoom(evt,'in')"/>
                <use id="zoomminus" xlink:href="#zoomMin" x="42" y="9" onmousedown="handleZoom(evt,'out')"/>
                <use id="reset" xlink:href="#resetDef" x="30" y="36" onmousedown="handleReset()"/>
                <g id="arrowUp" xlink:href="#dirArrow" transform="translate(30 24)" onmousedown="handlePan(0,-1)">
                  <use xlink:href="#rim" fill="#404040">
                        <set attributeName="fill" to="#808080" begin="arrowUp.mouseover" end="arrowUp.mouseout"/>
                  </use>
                  <path fill="none" stroke="white" stroke-width="1.5" d="M0,-3.0v7 M-2.5,-0.5L0,-3.0L2.5,-0.5"/>
                </g>
                <g id="arrowRight" xlink:href="#dirArrow" transform="rotate(90) translate(36 -43)" onmousedown="handlePan(1,0)">
                  <use xlink:href="#rim" fill="#404040">
                        <set attributeName="fill" to="#808080" begin="arrowRight.mouseover" end="arrowRight.mouseout"/>
                  </use>
                  <path fill="none" stroke="white" stroke-width="1.5" d="M0,-3.0v7 M-2.5,-0.5L0,-3.0L2.5,-0.5"/>
                </g>
                <g id="arrowDown" xlink:href="#dirArrow" transform="rotate(180) translate(-30 -48)" onmousedown="handlePan(0,1)">
                  <use xlink:href="#rim" fill="#404040">
                        <set attributeName="fill" to="#808080" begin="arrowDown.mouseover" end="arrowDown.mouseout"/>
                  </use>
                  <path fill="none" stroke="white" stroke-width="1.5" d="M0,-3.0v7 M-2.5,-0.5L0,-3.0L2.5,-0.5"/>
                </g>
                <g id="arrowLeft" xlink:href="#dirArrow" transform="rotate(270) translate(-36 17)" onmousedown="handlePan(-1,0)">
                  <use xlink:href="#rim" fill="#404040">
                        <set attributeName="fill" to="#808080" begin="arrowLeft.mouseover" end="arrowLeft.mouseout"/>
                  </use>
                  <path fill="none" stroke="white" stroke-width="1.5" d="M0,-3.0v7 M-2.5,-0.5L0,-3.0L2.5,-0.5"/>
                </g>
        </g>
        <svg viewBox="0 0 15 15" width="100%" height="30px" preserveAspectRatio="xMaxYMin meet">
         <g id="arrow_out" transform="scale(0.3 0.3)">
          <a xlink:href="namespacea60_a1b6e6a762e15c3843b342b6fe8e3153c_cgraph_org.svg" target="_base">
           <rect id="button" ry="5" rx="5" y="6" x="6" height="38" width="38"
                fill="#f2f5e9" fill-opacity="0.5" stroke="#606060" stroke-width="1.0"/>
           <path id="arrow"
             d="M 11.500037,31.436501 C 11.940474,20.09759 22.043105,11.32322 32.158766,21.979434 L 37.068811,17.246167 C 37.068811,17.246167 37.088388,32 37.088388,32 L 22.160133,31.978069 C 22.160133,31.978069 26.997745,27.140456 26.997745,27.140456 C 18.528582,18.264221 13.291696,25.230495 11.500037,31.436501 z"
             style="fill:#404040;"/>
          </a>
         </g>
        </svg>
</svg>
