<?xml version="1.0" encoding="UTF-8" standalone="no"?>
<!DOCTYPE svg PUBLIC "-//W3C//DTD SVG 1.1//EN"
 "http://www.w3.org/Graphics/SVG/1.1/DTD/svg11.dtd">
<!-- Generated by graphviz version 5.0.0 (0)
 -->
<!-- Title: a60::initialize_colors Pages: 1 -->
<svg width="244pt" height="78pt"
 viewBox="0.00 0.00 244.00 78.00" xmlns="http://www.w3.org/2000/svg" xmlns:xlink="http://www.w3.org/1999/xlink">
<g id="graph0" class="graph" transform="scale(1 1) rotate(0) translate(4 74)">
<title>a60::initialize_colors</title>
<!-- Node1 -->
<g id="node1" class="node">
<title>Node1</title>
<g id="a_node1"><a xlink:title=" ">
<polygon fill="#999999" stroke="#666666" points="101,-43.5 0,-43.5 0,-26.5 101,-26.5 101,-43.5"/>
<text text-anchor="middle" x="50.5" y="-33.1" font-family="SourceSans" font-size="8.00">a60::initialize_colors</text>
</a>
</g>
</g>
<!-- Node2 -->
<g id="node2" class="node">
<title>Node2</title>
<g id="a_node2"><a xlink:href="namespacea60.html#a23ddf1b7c4d38db4ef94f549f2602d90" target="_top" xlink:title=" ">
<polygon fill="white" stroke="#666666" points="236,-70 137,-70 137,-44 236,-44 236,-70"/>
<text text-anchor="start" x="145" y="-59.6" font-family="SourceSans" font-size="8.00">a60::color_by_mode</text>
<text text-anchor="middle" x="186.5" y="-50.6" font-family="SourceSans" font-size="8.00">_and_colorband</text>
</a>
</g>
</g>
<!-- Node1&#45;&gt;Node2 -->
<g id="edge1" class="edge">
<title>Node1&#45;&gt;Node2</title>
<path fill="none" stroke="#63b8ff" d="M101.02,-43.13C109.38,-44.5 118.13,-45.94 126.69,-47.35"/>
<polygon fill="#63b8ff" stroke="#63b8ff" points="126.2,-50.81 136.63,-48.98 127.33,-43.9 126.2,-50.81"/>
</g>
<!-- Node3 -->
<g id="node3" class="node">
<title>Node3</title>
<g id="a_node3"><a xlink:href="namespacea60.html#a3d0fc46ba5187db176d42c603953ae4c" target="_top" xlink:title=" ">
<polygon fill="white" stroke="#666666" points="236,-26 137,-26 137,0 236,0 236,-26"/>
<text text-anchor="start" x="145" y="-15.6" font-family="SourceSans" font-size="8.00">a60::color_by_mode</text>
<text text-anchor="middle" x="186.5" y="-6.6" font-family="SourceSans" font-size="8.00">_finite</text>
</a>
</g>
</g>
<!-- Node1&#45;&gt;Node3 -->
<g id="edge2" class="edge">
<title>Node1&#45;&gt;Node3</title>
<path fill="none" stroke="#63b8ff" d="M101.02,-26.87C109.38,-25.5 118.13,-24.06 126.69,-22.65"/>
<polygon fill="#63b8ff" stroke="#63b8ff" points="127.33,-26.1 136.63,-21.02 126.2,-19.19 127.33,-26.1"/>
</g>
</g>
</svg>
