<?xml version="1.0" encoding="UTF-8" standalone="no"?>
<!DOCTYPE svg PUBLIC "-//W3C//DTD SVG 1.1//EN"
 "http://www.w3.org/Graphics/SVG/1.1/DTD/svg11.dtd">
<!-- Generated by graphviz version 5.0.0 (0)
 -->
<!-- Title: a60::serialize_torrent_handle_json Pages: 1 -->
<!--zoomable 244 -->
<svg id="main" version="1.1" xmlns="http://www.w3.org/2000/svg" xmlns:xlink="http://www.w3.org/1999/xlink" xml:space="preserve" onload="init(evt)">
<style type="text/css"><![CDATA[
.edge:hover path { stroke: red; }
.edge:hover polygon { stroke: red; fill: red; }
]]></style>
<script type="text/javascript"><![CDATA[
var edges = document.getElementsByTagName('g');
if (edges && edges.length) {
  for (var i=0;i<edges.length;i++) {
    if (edges[i].id.substr(0,4)=='edge') {
      edges[i].setAttribute('class','edge');
    }
  }
}
]]></script>
        <defs>
                <circle id="rim" cx="0" cy="0" r="7"/>
                <circle id="rim2" cx="0" cy="0" r="3.5"/>
                <g id="zoomPlus">
                        <use xlink:href="#rim" fill="#404040">
                                <set attributeName="fill" to="#808080" begin="zoomplus.mouseover" end="zoomplus.mouseout"/>
                        </use>
                        <path d="M-4,0h8M0,-4v8" fill="none" stroke="white" stroke-width="1.5" pointer-events="none"/>
                </g>
                <g id="zoomMin">
                        <use xlink:href="#rim" fill="#404040">
                                <set attributeName="fill" to="#808080" begin="zoomminus.mouseover" end="zoomminus.mouseout"/>
                        </use>
                        <path d="M-4,0h8" fill="none" stroke="white" stroke-width="1.5" pointer-events="none"/>
                </g>
                <g id="dirArrow">
                        <path fill="none" stroke="white" stroke-width="1.5" d="M0,-3.0v7 M-2.5,-0.5L0,-3.0L2.5,-0.5"/>
                </g>
               <g id="resetDef">
                       <use xlink:href="#rim2" fill="#404040">
                               <set attributeName="fill" to="#808080" begin="reset.mouseover" end="reset.mouseout"/>
                       </use>
               </g>
        </defs>

<script type="text/javascript">
var viewWidth = 557;
var viewHeight = 244;
var sectionId = 'dynsection-177';
</script>
<script xlink:href="svgpan.js"/>
<svg id="graph" class="graph">
<g id="viewport">
<title>a60::serialize_torrent_handle_json</title>
<!-- Node1 -->
<g id="node1" class="node">
<title>Node1</title>
<g id="a_node1"><a xlink:title="Info about torrent_info, serialized to json.">
<polygon fill="#999999" stroke="#666666" points="104,-147 0,-147 0,-121 104,-121 104,-147"/>
<text text-anchor="start" x="8" y="-136.6" font-family="SourceSans" font-size="8.00">a60::serialize_torrent</text>
<text text-anchor="middle" x="52" y="-127.6" font-family="SourceSans" font-size="8.00">_handle_json</text>
</a>
</g>
</g>
<!-- Node2 -->
<g id="node2" class="node">
<title>Node2</title>
<g id="a_node2"><a xlink:href="namespacea60.html#aafdf18ade22a9e669299209ed5a8bdc6" target="_top" xlink:title="Once.">
<polygon fill="white" stroke="#666666" points="248,-235.5 144,-235.5 144,-218.5 248,-218.5 248,-235.5"/>
<text text-anchor="middle" x="196" y="-225.1" font-family="SourceSans" font-size="8.00">a60::host_ip_address</text>
</a>
</g>
</g>
<!-- Node1&#45;&gt;Node2 -->
<g id="edge1" class="edge">
<title>Node1&#45;&gt;Node2</title>
<path fill="none" stroke="#63b8ff" d="M66.85,-147.22C83.29,-162.4 112.01,-187.34 140,-204 146.54,-207.89 153.87,-211.45 160.98,-214.54"/>
<polygon fill="#63b8ff" stroke="#63b8ff" points="159.89,-217.87 170.46,-218.45 162.56,-211.4 159.89,-217.87"/>
</g>
<!-- Node4 -->
<g id="node4" class="node">
<title>Node4</title>
<g id="a_node4"><a xlink:href="namespacea60.html#ad300edc3a7396b9f52a64f37e9443891" target="_top" xlink:title="No GeoIP.">
<polygon fill="white" stroke="#666666" points="402,-198.5 295,-198.5 295,-181.5 402,-181.5 402,-198.5"/>
<text text-anchor="middle" x="348.5" y="-188.1" font-family="SourceSans" font-size="8.00">a60::make_meta_peer</text>
</a>
</g>
</g>
<!-- Node1&#45;&gt;Node4 -->
<g id="edge3" class="edge">
<title>Node1&#45;&gt;Node4</title>
<path fill="none" stroke="#63b8ff" d="M78.16,-147.17C95.15,-155.45 118.35,-165.55 140,-171 187.64,-183 243.13,-187.61 284.73,-189.3"/>
<polygon fill="#63b8ff" stroke="#63b8ff" points="284.61,-192.8 294.73,-189.66 284.86,-185.8 284.61,-192.8"/>
</g>
<!-- Node5 -->
<g id="node5" class="node">
<title>Node5</title>
<g id="a_node5"><a xlink:href="namespacea60.html#a9d37f2f6f8a4b125ee6304d15a118f61" target="_top" xlink:title=" ">
<polygon fill="white" stroke="#666666" points="252,-161.5 140,-161.5 140,-144.5 252,-144.5 252,-161.5"/>
<text text-anchor="middle" x="196" y="-151.1" font-family="SourceSans" font-size="8.00">a60::make_meta_peers</text>
</a>
</g>
</g>
<!-- Node1&#45;&gt;Node5 -->
<g id="edge4" class="edge">
<title>Node1&#45;&gt;Node5</title>
<path fill="none" stroke="#63b8ff" d="M104.27,-140.86C112.6,-141.97 121.33,-143.14 129.95,-144.3"/>
<polygon fill="#63b8ff" stroke="#63b8ff" points="129.6,-147.78 139.97,-145.64 130.52,-140.84 129.6,-147.78"/>
</g>
<!-- Node7 -->
<g id="node7" class="node">
<title>Node7</title>
<g id="a_node7"><a xlink:href="structa60_1_1geo_1_1map__base.html#a9215731f10e2fa8488b0e081c2a5cef4" target="_top" xlink:title=" ">
<polygon fill="white" stroke="#666666" points="399.5,-128 297.5,-128 297.5,-102 399.5,-102 399.5,-128"/>
<text text-anchor="start" x="305.5" y="-117.6" font-family="SourceSans" font-size="8.00">a60::geo::map_base</text>
<text text-anchor="middle" x="348.5" y="-108.6" font-family="SourceSans" font-size="8.00">::open</text>
</a>
</g>
</g>
<!-- Node1&#45;&gt;Node7 -->
<g id="edge9" class="edge">
<title>Node1&#45;&gt;Node7</title>
<path fill="none" stroke="#63b8ff" d="M104.3,-130.69C155.23,-127.4 233.3,-122.37 287.18,-118.89"/>
<polygon fill="#63b8ff" stroke="#63b8ff" points="287.53,-122.38 297.28,-118.24 287.08,-115.39 287.53,-122.38"/>
</g>
<!-- Node9 -->
<g id="node9" class="node">
<title>Node9</title>
<g id="a_node9"><a xlink:href="namespacea60.html#a2228baa081fe66cea91ed8032bda4732" target="_top" xlink:title="Serialize meta_peer.">
<polygon fill="white" stroke="#666666" points="245,-88 147,-88 147,-62 245,-62 245,-88"/>
<text text-anchor="start" x="155" y="-77.6" font-family="SourceSans" font-size="8.00">a60::serialize_meta</text>
<text text-anchor="middle" x="196" y="-68.6" font-family="SourceSans" font-size="8.00">_peer_json</text>
</a>
</g>
</g>
<!-- Node1&#45;&gt;Node9 -->
<g id="edge10" class="edge">
<title>Node1&#45;&gt;Node9</title>
<path fill="none" stroke="#63b8ff" d="M84.51,-120.91C105.01,-112.39 131.95,-101.2 154.09,-92"/>
<polygon fill="#63b8ff" stroke="#63b8ff" points="155.68,-95.13 163.57,-88.06 153,-88.66 155.68,-95.13"/>
</g>
<!-- Node10 -->
<g id="node10" class="node">
<title>Node10</title>
<g id="a_node10"><a xlink:href="namespacea60.html#a9f2c8dc1d45c663c1017a1b7b651588d" target="_top" xlink:title="ISO date time stamp as default.">
<polygon fill="white" stroke="#666666" points="243.5,-26 148.5,-26 148.5,0 243.5,0 243.5,-26"/>
<text text-anchor="start" x="156.5" y="-15.6" font-family="SourceSans" font-size="8.00">a60::time_point_as</text>
<text text-anchor="middle" x="196" y="-6.6" font-family="SourceSans" font-size="8.00">_string</text>
</a>
</g>
</g>
<!-- Node1&#45;&gt;Node10 -->
<g id="edge11" class="edge">
<title>Node1&#45;&gt;Node10</title>
<path fill="none" stroke="#63b8ff" d="M66.11,-120.85C82.75,-104.38 112.61,-75.57 140,-53 148.7,-45.83 158.56,-38.44 167.51,-32"/>
<polygon fill="#63b8ff" stroke="#63b8ff" points="169.62,-34.8 175.74,-26.15 165.56,-29.09 169.62,-34.8"/>
</g>
<!-- Node3 -->
<g id="node3" class="node">
<title>Node3</title>
<g id="a_node3"><a xlink:href="namespacea60.html#ac912026493721c2646a3336faffe1baa" target="_top" xlink:title="Test machine&#39;s address.">
<polygon fill="white" stroke="#666666" points="409,-235.5 288,-235.5 288,-218.5 409,-218.5 409,-235.5"/>
<text text-anchor="middle" x="348.5" y="-225.1" font-family="SourceSans" font-size="8.00">a60::get_host_ip_address</text>
</a>
</g>
</g>
<!-- Node2&#45;&gt;Node3 -->
<g id="edge2" class="edge">
<title>Node2&#45;&gt;Node3</title>
<path fill="none" stroke="#63b8ff" d="M248.37,-227C257.79,-227 267.76,-227 277.61,-227"/>
<polygon fill="#63b8ff" stroke="#63b8ff" points="277.8,-230.5 287.8,-227 277.8,-223.5 277.8,-230.5"/>
</g>
<!-- Node5&#45;&gt;Node4 -->
<g id="edge5" class="edge">
<title>Node5&#45;&gt;Node4</title>
<path fill="none" stroke="#63b8ff" d="M231.91,-161.58C253.09,-166.79 280.32,-173.48 303.03,-179.07"/>
<polygon fill="#63b8ff" stroke="#63b8ff" points="302.24,-182.48 312.78,-181.46 303.91,-175.68 302.24,-182.48"/>
</g>
<!-- Node6 -->
<g id="node6" class="node">
<title>Node6</title>
<g id="a_node6"><a xlink:href="namespacea60.html#afa4b02aa30f3ff7828561abb787ede03" target="_top" xlink:title="Less than compare for meta_peer via geo.">
<polygon fill="white" stroke="#666666" points="403.5,-163.5 293.5,-163.5 293.5,-146.5 403.5,-146.5 403.5,-163.5"/>
<text text-anchor="middle" x="348.5" y="-153.1" font-family="SourceSans" font-size="8.00">a60::meta_peer_lt_geo</text>
</a>
</g>
</g>
<!-- Node5&#45;&gt;Node6 -->
<g id="edge6" class="edge">
<title>Node5&#45;&gt;Node6</title>
<path fill="none" stroke="#63b8ff" d="M252.19,-153.73C262.25,-153.87 272.84,-154.01 283.14,-154.14"/>
<polygon fill="#63b8ff" stroke="#63b8ff" points="283.28,-157.65 293.33,-154.28 283.37,-150.65 283.28,-157.65"/>
</g>
<!-- Node5&#45;&gt;Node7 -->
<g id="edge7" class="edge">
<title>Node5&#45;&gt;Node7</title>
<path fill="none" stroke="#63b8ff" d="M230.78,-144.47C247.45,-140.26 268.09,-135.05 287.34,-130.19"/>
<polygon fill="#63b8ff" stroke="#63b8ff" points="288.42,-133.53 297.26,-127.69 286.71,-126.74 288.42,-133.53"/>
</g>
<!-- Node8 -->
<g id="node8" class="node">
<title>Node8</title>
<g id="a_node8"><a xlink:href="namespacea60_1_1io.html#aa5fbb8ab63397dd45c4a54c0758935ef" target="_top" xlink:title="Sanity check input existence.">
<polygon fill="white" stroke="#666666" points="549,-128 445,-128 445,-102 549,-102 549,-128"/>
<text text-anchor="start" x="453" y="-117.6" font-family="SourceSans" font-size="8.00">a60::io::sanity_check</text>
<text text-anchor="middle" x="497" y="-108.6" font-family="SourceSans" font-size="8.00">_input</text>
</a>
</g>
</g>
<!-- Node7&#45;&gt;Node8 -->
<g id="edge8" class="edge">
<title>Node7&#45;&gt;Node8</title>
<path fill="none" stroke="#63b8ff" d="M399.51,-115C410.79,-115 422.9,-115 434.59,-115"/>
<polygon fill="#63b8ff" stroke="#63b8ff" points="434.72,-118.5 444.72,-115 434.72,-111.5 434.72,-118.5"/>
</g>
<!-- Node10&#45;&gt;Node10 -->
<g id="edge12" class="edge">
<title>Node10&#45;&gt;Node10</title>
<path fill="none" stroke="#63b8ff" d="M171.64,-26.06C164.25,-35.1 172.38,-44 196,-44 210.4,-44 219.04,-40.69 221.92,-36.07"/>
<polygon fill="#63b8ff" stroke="#63b8ff" points="225.36,-35.4 220.36,-26.06 218.44,-36.48 225.36,-35.4"/>
</g>
</g>
</svg>
        <g id="navigator" transform="translate(0 0)" fill="#404254">
                <rect fill="#f2f5e9" fill-opacity="0.5" stroke="#606060" stroke-width=".5" x="0" y="0" width="60" height="60"/>
                <use id="zoomplus" xlink:href="#zoomPlus" x="17" y="9" onmousedown="handleZoom(evt,'in')"/>
                <use id="zoomminus" xlink:href="#zoomMin" x="42" y="9" onmousedown="handleZoom(evt,'out')"/>
                <use id="reset" xlink:href="#resetDef" x="30" y="36" onmousedown="handleReset()"/>
                <g id="arrowUp" xlink:href="#dirArrow" transform="translate(30 24)" onmousedown="handlePan(0,-1)">
                  <use xlink:href="#rim" fill="#404040">
                        <set attributeName="fill" to="#808080" begin="arrowUp.mouseover" end="arrowUp.mouseout"/>
                  </use>
                  <path fill="none" stroke="white" stroke-width="1.5" d="M0,-3.0v7 M-2.5,-0.5L0,-3.0L2.5,-0.5"/>
                </g>
                <g id="arrowRight" xlink:href="#dirArrow" transform="rotate(90) translate(36 -43)" onmousedown="handlePan(1,0)">
                  <use xlink:href="#rim" fill="#404040">
                        <set attributeName="fill" to="#808080" begin="arrowRight.mouseover" end="arrowRight.mouseout"/>
                  </use>
                  <path fill="none" stroke="white" stroke-width="1.5" d="M0,-3.0v7 M-2.5,-0.5L0,-3.0L2.5,-0.5"/>
                </g>
                <g id="arrowDown" xlink:href="#dirArrow" transform="rotate(180) translate(-30 -48)" onmousedown="handlePan(0,1)">
                  <use xlink:href="#rim" fill="#404040">
                        <set attributeName="fill" to="#808080" begin="arrowDown.mouseover" end="arrowDown.mouseout"/>
                  </use>
                  <path fill="none" stroke="white" stroke-width="1.5" d="M0,-3.0v7 M-2.5,-0.5L0,-3.0L2.5,-0.5"/>
                </g>
                <g id="arrowLeft" xlink:href="#dirArrow" transform="rotate(270) translate(-36 17)" onmousedown="handlePan(-1,0)">
                  <use xlink:href="#rim" fill="#404040">
                        <set attributeName="fill" to="#808080" begin="arrowLeft.mouseover" end="arrowLeft.mouseout"/>
                  </use>
                  <path fill="none" stroke="white" stroke-width="1.5" d="M0,-3.0v7 M-2.5,-0.5L0,-3.0L2.5,-0.5"/>
                </g>
        </g>
        <svg viewBox="0 0 15 15" width="100%" height="30px" preserveAspectRatio="xMaxYMin meet">
         <g id="arrow_out" transform="scale(0.3 0.3)">
          <a xlink:href="namespacea60_ab629c2f2a2ce0c6e94f1b2093eceb42e_cgraph_org.svg" target="_base">
           <rect id="button" ry="5" rx="5" y="6" x="6" height="38" width="38"
                fill="#f2f5e9" fill-opacity="0.5" stroke="#606060" stroke-width="1.0"/>
           <path id="arrow"
             d="M 11.500037,31.436501 C 11.940474,20.09759 22.043105,11.32322 32.158766,21.979434 L 37.068811,17.246167 C 37.068811,17.246167 37.088388,32 37.088388,32 L 22.160133,31.978069 C 22.160133,31.978069 26.997745,27.140456 26.997745,27.140456 C 18.528582,18.264221 13.291696,25.230495 11.500037,31.436501 z"
             style="fill:#404040;"/>
          </a>
         </g>
        </svg>
</svg>
