<?xml version="1.0" encoding="UTF-8" standalone="no"?>
<!DOCTYPE svg PUBLIC "-//W3C//DTD SVG 1.1//EN"
 "http://www.w3.org/Graphics/SVG/1.1/DTD/svg11.dtd">
<!-- Generated by graphviz version 5.0.0 (0)
 -->
<!-- Title: a60::initialize_scale_and_opacity Pages: 1 -->
<svg width="247pt" height="88pt"
 viewBox="0.00 0.00 247.00 87.50" xmlns="http://www.w3.org/2000/svg" xmlns:xlink="http://www.w3.org/1999/xlink">
<g id="graph0" class="graph" transform="scale(1 1) rotate(0) translate(4 83.5)">
<title>a60::initialize_scale_and_opacity</title>
<!-- Node1 -->
<g id="node1" class="node">
<title>Node1</title>
<g id="a_node1"><a xlink:title="Render state defaults: render layer visibility, opacity, size.">
<polygon fill="#999999" stroke="#666666" points="98,-50.5 0,-50.5 0,-24.5 98,-24.5 98,-50.5"/>
<text text-anchor="start" x="8" y="-40.1" font-family="SourceSans" font-size="8.00">a60::initialize_scale</text>
<text text-anchor="middle" x="49" y="-31.1" font-family="SourceSans" font-size="8.00">_and_opacity</text>
</a>
</g>
</g>
<!-- Node2 -->
<g id="node2" class="node">
<title>Node2</title>
<g id="a_node2"><a xlink:href="structa60_1_1swarm__gcache.html#a52c65b0040757a229beb63361678c73b" target="_top" xlink:title="Count of total added before weighing, should match weights &#45; anomalies.">
<polygon fill="white" stroke="#666666" points="239,-79.5 134,-79.5 134,-53.5 239,-53.5 239,-79.5"/>
<text text-anchor="start" x="142" y="-69.1" font-family="SourceSans" font-size="8.00">a60::swarm_gcache::</text>
<text text-anchor="middle" x="186.5" y="-60.1" font-family="SourceSans" font-size="8.00">summarize_totals</text>
</a>
</g>
</g>
<!-- Node1&#45;&gt;Node2 -->
<g id="edge1" class="edge">
<title>Node1&#45;&gt;Node2</title>
<path fill="none" stroke="#63b8ff" d="M98.15,-47.81C106.46,-49.58 115.2,-51.46 123.81,-53.3"/>
<polygon fill="#63b8ff" stroke="#63b8ff" points="123.32,-56.77 133.83,-55.44 124.78,-49.93 123.32,-56.77"/>
</g>
<!-- Node3 -->
<g id="node3" class="node">
<title>Node3</title>
<g id="a_node3"><a xlink:href="namespacea60.html#a4e8b0cabed112734147b499bf0cc9029" target="_top" xlink:title="Conversion of resolution_mode to string.">
<polygon fill="white" stroke="#666666" points="223.5,-17 149.5,-17 149.5,0 223.5,0 223.5,-17"/>
<text text-anchor="middle" x="186.5" y="-6.6" font-family="SourceSans" font-size="8.00">a60::to_string</text>
</a>
</g>
</g>
<!-- Node1&#45;&gt;Node3 -->
<g id="edge2" class="edge">
<title>Node1&#45;&gt;Node3</title>
<path fill="none" stroke="#63b8ff" d="M98.15,-27.19C111.61,-24.31 126.2,-21.19 139.52,-18.34"/>
<polygon fill="#63b8ff" stroke="#63b8ff" points="140.38,-21.74 149.43,-16.22 138.92,-14.89 140.38,-21.74"/>
</g>
<!-- Node3&#45;&gt;Node3 -->
<g id="edge3" class="edge">
<title>Node3&#45;&gt;Node3</title>
<path fill="none" stroke="#63b8ff" d="M166.24,-17.19C155.04,-25.67 161.8,-35 186.5,-35 202.71,-35 211.19,-30.98 211.95,-25.82"/>
<polygon fill="#63b8ff" stroke="#63b8ff" points="214.91,-23.96 206.76,-17.19 208.91,-27.56 214.91,-23.96"/>
</g>
</g>
</svg>
