<?xml version="1.0" encoding="UTF-8" standalone="no"?>
<!DOCTYPE svg PUBLIC "-//W3C//DTD SVG 1.1//EN"
 "http://www.w3.org/Graphics/SVG/1.1/DTD/svg11.dtd">
<!-- Generated by graphviz version 5.0.0 (0)
 -->
<!-- Title: a60::metadata::files_with_field_matching Pages: 1 -->
<svg width="570pt" height="356pt"
 viewBox="0.00 0.00 570.00 356.00" xmlns="http://www.w3.org/2000/svg" xmlns:xlink="http://www.w3.org/1999/xlink">
<g id="graph0" class="graph" transform="scale(1 1) rotate(0) translate(4 352)">
<title>a60::metadata::files_with_field_matching</title>
<!-- Node1 -->
<g id="node1" class="node">
<title>Node1</title>
<g id="a_node1"><a xlink:title="Convenience function, assumes total set of metadata files.">
<polygon fill="#999999" stroke="#666666" points="101,-61.5 0,-61.5 0,-35.5 101,-35.5 101,-61.5"/>
<text text-anchor="start" x="8" y="-51.1" font-family="SourceSans" font-size="8.00">a60::metadata::files</text>
<text text-anchor="middle" x="50.5" y="-42.1" font-family="SourceSans" font-size="8.00">_with_field_matching</text>
</a>
</g>
</g>
<!-- Node2 -->
<g id="node2" class="node">
<title>Node2</title>
<g id="a_node2"><a xlink:href="namespacea60_1_1metadata.html#a98d5807e6dc5b5f4a7a33b45b5e7e816" target="_top" xlink:title="Find metadata files containing. Find field of name &#39;field&#39; in JSON file and return vector of name&#45;key...">
<polygon fill="white" stroke="#666666" points="242.5,-105.5 141.5,-105.5 141.5,-79.5 242.5,-79.5 242.5,-105.5"/>
<text text-anchor="start" x="149.5" y="-95.1" font-family="SourceSans" font-size="8.00">a60::metadata::files</text>
<text text-anchor="middle" x="192" y="-86.1" font-family="SourceSans" font-size="8.00">_with_field_matching</text>
</a>
</g>
</g>
<!-- Node1&#45;&gt;Node2 -->
<g id="edge1" class="edge">
<title>Node1&#45;&gt;Node2</title>
<path fill="none" stroke="#63b8ff" d="M92.98,-61.58C107.6,-66.2 124.23,-71.44 139.57,-76.28"/>
<polygon fill="#63b8ff" stroke="#63b8ff" points="138.85,-79.72 149.44,-79.39 140.96,-73.05 138.85,-79.72"/>
</g>
<!-- Node15 -->
<g id="node15" class="node">
<title>Node15</title>
<g id="a_node15"><a xlink:href="namespacea60_1_1io.html#ac95e5271a27a23bc2336d84b3f821fa2" target="_top" xlink:title="Constant filesystem and run&#45;time resources.">
<polygon fill="white" stroke="#666666" points="244,-61.5 140,-61.5 140,-35.5 244,-35.5 244,-61.5"/>
<text text-anchor="start" x="148" y="-51.1" font-family="SourceSans" font-size="8.00">a60::io::get_run_time</text>
<text text-anchor="middle" x="192" y="-42.1" font-family="SourceSans" font-size="8.00">_resources</text>
</a>
</g>
</g>
<!-- Node1&#45;&gt;Node15 -->
<g id="edge14" class="edge">
<title>Node1&#45;&gt;Node15</title>
<path fill="none" stroke="#63b8ff" d="M101.08,-48.5C110.28,-48.5 119.99,-48.5 129.5,-48.5"/>
<polygon fill="#63b8ff" stroke="#63b8ff" points="129.7,-52 139.7,-48.5 129.7,-45 129.7,-52"/>
</g>
<!-- Node16 -->
<g id="node16" class="node">
<title>Node16</title>
<g id="a_node16"><a xlink:href="namespacea60_1_1io.html#aea30b8fc474f5a7b922516dc1e199037" target="_top" xlink:title="Takes a string representing a directory, returns a sorted list of contents as a std::vector&lt;string&gt;.">
<polygon fill="white" stroke="#666666" points="247,-17 137,-17 137,0 247,0 247,-17"/>
<text text-anchor="middle" x="192" y="-6.6" font-family="SourceSans" font-size="8.00">a60::io::populate_files</text>
</a>
</g>
</g>
<!-- Node1&#45;&gt;Node16 -->
<g id="edge15" class="edge">
<title>Node1&#45;&gt;Node16</title>
<path fill="none" stroke="#63b8ff" d="M97.18,-35.4C114.55,-30.42 134.19,-24.79 151,-19.97"/>
<polygon fill="#63b8ff" stroke="#63b8ff" points="152.4,-23.21 161.05,-17.09 150.47,-16.48 152.4,-23.21"/>
</g>
<!-- Node3 -->
<g id="node3" class="node">
<title>Node3</title>
<g id="a_node3"><a xlink:href="namespacea60_1_1metadata.html#adefdcf326e3314b557066902a1e2dcf9" target="_top" xlink:title=" ">
<polygon fill="white" stroke="#666666" points="407,-222.5 283,-222.5 283,-196.5 407,-196.5 407,-222.5"/>
<text text-anchor="start" x="291" y="-212.1" font-family="SourceSans" font-size="8.00">a60::metadata::canonical</text>
<text text-anchor="middle" x="345" y="-203.1" font-family="SourceSans" font-size="8.00">_media_name</text>
</a>
</g>
</g>
<!-- Node2&#45;&gt;Node3 -->
<g id="edge2" class="edge">
<title>Node2&#45;&gt;Node3</title>
<path fill="none" stroke="#63b8ff" d="M210.03,-105.69C236.54,-126.23 287.82,-165.97 318.68,-189.88"/>
<polygon fill="#63b8ff" stroke="#63b8ff" points="316.75,-192.82 326.8,-196.17 321.04,-187.28 316.75,-192.82"/>
</g>
<!-- Node11 -->
<g id="node11" class="node">
<title>Node11</title>
<g id="a_node11"><a xlink:href="namespacea60.html#af45982273a7a2e61b6aaa436081238c0" target="_top" xlink:title="Load JSON file to in&#45;memory DOM.">
<polygon fill="white" stroke="#666666" points="397,-125.5 293,-125.5 293,-99.5 397,-99.5 397,-125.5"/>
<text text-anchor="start" x="301" y="-115.1" font-family="SourceSans" font-size="8.00">a60::deserialize_json</text>
<text text-anchor="middle" x="345" y="-106.1" font-family="SourceSans" font-size="8.00">_to_dom_object</text>
</a>
</g>
</g>
<!-- Node2&#45;&gt;Node11 -->
<g id="edge10" class="edge">
<title>Node2&#45;&gt;Node11</title>
<path fill="none" stroke="#63b8ff" d="M242.86,-99.1C255.66,-100.8 269.58,-102.64 282.88,-104.4"/>
<polygon fill="#63b8ff" stroke="#63b8ff" points="282.53,-107.89 292.9,-105.73 283.45,-100.95 282.53,-107.89"/>
</g>
<!-- Node13 -->
<g id="node13" class="node">
<title>Node13</title>
<g id="a_node13"><a xlink:href="namespacea60_1_1constants.html#ac27c77e4606552ae5f74a1c21dd9258e" target="_top" xlink:title=" ">
<polygon fill="white" stroke="#666666" points="403.5,-81 286.5,-81 286.5,-64 403.5,-64 403.5,-81"/>
<text text-anchor="middle" x="345" y="-70.6" font-family="SourceSans" font-size="8.00">a60::constants::newline</text>
</a>
</g>
</g>
<!-- Node2&#45;&gt;Node13 -->
<g id="edge12" class="edge">
<title>Node2&#45;&gt;Node13</title>
<path fill="none" stroke="#63b8ff" d="M242.86,-85.9C253.52,-84.48 264.94,-82.97 276.15,-81.49"/>
<polygon fill="#63b8ff" stroke="#63b8ff" points="276.89,-84.92 286.34,-80.14 275.97,-77.98 276.89,-84.92"/>
</g>
<!-- Node14 -->
<g id="node14" class="node">
<title>Node14</title>
<g id="a_node14"><a xlink:href="namespacea60_1_1constants.html#a114d624cfb36c0f4079b16739844e840" target="_top" xlink:title=" ">
<polygon fill="white" stroke="#666666" points="399.5,-46 290.5,-46 290.5,-29 399.5,-29 399.5,-46"/>
<text text-anchor="middle" x="345" y="-35.6" font-family="SourceSans" font-size="8.00">a60::constants::quote</text>
</a>
</g>
</g>
<!-- Node2&#45;&gt;Node14 -->
<g id="edge13" class="edge">
<title>Node2&#45;&gt;Node14</title>
<path fill="none" stroke="#63b8ff" d="M225.62,-79.4C232.69,-76.51 240.11,-73.43 247,-70.5 263.11,-63.64 266.52,-60.42 283,-54.5 288.5,-52.52 294.35,-50.63 300.16,-48.88"/>
<polygon fill="#63b8ff" stroke="#63b8ff" points="301.22,-52.22 309.84,-46.07 299.26,-45.5 301.22,-52.22"/>
</g>
<!-- Node4 -->
<g id="node4" class="node">
<title>Node4</title>
<g id="a_node4"><a xlink:href="namespacea60_1_1constants.html#a8a38c40674ec5fbf57af8127a67d1609" target="_top" xlink:title=" ">
<polygon fill="white" stroke="#666666" points="556,-348 449,-348 449,-331 556,-331 556,-348"/>
<text text-anchor="middle" x="502.5" y="-337.6" font-family="SourceSans" font-size="8.00">a60::constants::colon</text>
</a>
</g>
</g>
<!-- Node3&#45;&gt;Node4 -->
<g id="edge3" class="edge">
<title>Node3&#45;&gt;Node4</title>
<path fill="none" stroke="#63b8ff" d="M353.78,-222.86C368.27,-246.54 401.7,-295.9 443,-322.5 445.58,-324.16 448.34,-325.67 451.18,-327.03"/>
<polygon fill="#63b8ff" stroke="#63b8ff" points="449.94,-330.3 460.52,-330.91 452.62,-323.84 449.94,-330.3"/>
</g>
<!-- Node5 -->
<g id="node5" class="node">
<title>Node5</title>
<g id="a_node5"><a xlink:href="namespacea60_1_1constants.html#a6338b74a1c5c6dc024b03069e07e34ac" target="_top" xlink:title=" ">
<polygon fill="white" stroke="#666666" points="560.5,-313 444.5,-313 444.5,-296 560.5,-296 560.5,-313"/>
<text text-anchor="middle" x="502.5" y="-302.6" font-family="SourceSans" font-size="8.00">a60::constants::hyphen</text>
</a>
</g>
</g>
<!-- Node3&#45;&gt;Node5 -->
<g id="edge4" class="edge">
<title>Node3&#45;&gt;Node5</title>
<path fill="none" stroke="#63b8ff" d="M358.91,-222.74C376.45,-240 409.46,-270.04 443,-287.5 446.54,-289.34 450.31,-291.01 454.16,-292.52"/>
<polygon fill="#63b8ff" stroke="#63b8ff" points="453.23,-295.9 463.82,-295.93 455.56,-289.3 453.23,-295.9"/>
</g>
<!-- Node6 -->
<g id="node6" class="node">
<title>Node6</title>
<g id="a_node6"><a xlink:href="namespacea60_1_1constants.html#a370b70e28b3935e8736cb9e79697ceda" target="_top" xlink:title=" ">
<polygon fill="white" stroke="#666666" points="558,-278 447,-278 447,-261 558,-261 558,-278"/>
<text text-anchor="middle" x="502.5" y="-267.6" font-family="SourceSans" font-size="8.00">a60::constants::period</text>
</a>
</g>
</g>
<!-- Node3&#45;&gt;Node6 -->
<g id="edge5" class="edge">
<title>Node3&#45;&gt;Node6</title>
<path fill="none" stroke="#63b8ff" d="M374.1,-222.65C393.29,-231.38 419.41,-242.8 443,-251.5 449.02,-253.72 455.45,-255.9 461.77,-257.92"/>
<polygon fill="#63b8ff" stroke="#63b8ff" points="460.94,-261.33 471.53,-260.97 463.03,-254.65 460.94,-261.33"/>
</g>
<!-- Node7 -->
<g id="node7" class="node">
<title>Node7</title>
<g id="a_node7"><a xlink:href="namespacea60.html#a34d53970ee23a7c014960a2bf1a10e2b" target="_top" xlink:title="Search DOM for string literals.">
<polygon fill="white" stroke="#666666" points="554,-242.5 451,-242.5 451,-216.5 554,-216.5 554,-242.5"/>
<text text-anchor="start" x="459" y="-232.1" font-family="SourceSans" font-size="8.00">a60::search_dom_for</text>
<text text-anchor="middle" x="502.5" y="-223.1" font-family="SourceSans" font-size="8.00">_string_field</text>
</a>
</g>
</g>
<!-- Node3&#45;&gt;Node7 -->
<g id="edge6" class="edge">
<title>Node3&#45;&gt;Node7</title>
<path fill="none" stroke="#63b8ff" d="M407.01,-217.35C418.09,-218.77 429.64,-220.26 440.7,-221.68"/>
<polygon fill="#63b8ff" stroke="#63b8ff" points="440.34,-225.16 450.71,-222.97 441.23,-218.22 440.34,-225.16"/>
</g>
<!-- Node8 -->
<g id="node8" class="node">
<title>Node8</title>
<g id="a_node8"><a xlink:href="namespacea60.html#a0022cb8323c9a304730c5d70e4da4e4b" target="_top" xlink:title=" ">
<polygon fill="white" stroke="#666666" points="553,-198 452,-198 452,-181 553,-181 553,-198"/>
<text text-anchor="middle" x="502.5" y="-187.6" font-family="SourceSans" font-size="8.00">a60::to_erase_string</text>
</a>
</g>
</g>
<!-- Node3&#45;&gt;Node8 -->
<g id="edge7" class="edge">
<title>Node3&#45;&gt;Node8</title>
<path fill="none" stroke="#63b8ff" d="M407.01,-201.65C418.35,-200.19 430.18,-198.67 441.48,-197.22"/>
<polygon fill="#63b8ff" stroke="#63b8ff" points="442.22,-200.65 451.69,-195.91 441.32,-193.71 442.22,-200.65"/>
</g>
<!-- Node9 -->
<g id="node9" class="node">
<title>Node9</title>
<g id="a_node9"><a xlink:href="namespacea60.html#ac7eddb2e330d8983ddc852edde5335c5" target="_top" xlink:title=" ">
<polygon fill="white" stroke="#666666" points="562,-163 443,-163 443,-146 562,-146 562,-163"/>
<text text-anchor="middle" x="502.5" y="-152.6" font-family="SourceSans" font-size="8.00">a60::to_lowercase_string</text>
</a>
</g>
</g>
<!-- Node3&#45;&gt;Node9 -->
<g id="edge8" class="edge">
<title>Node3&#45;&gt;Node9</title>
<path fill="none" stroke="#63b8ff" d="M378.58,-196.46C397.31,-189.11 421.36,-179.95 443,-172.5 449.41,-170.29 456.27,-168.07 462.94,-165.97"/>
<polygon fill="#63b8ff" stroke="#63b8ff" points="464,-169.31 472.52,-163.01 461.93,-162.62 464,-169.31"/>
</g>
<!-- Node10 -->
<g id="node10" class="node">
<title>Node10</title>
<g id="a_node10"><a xlink:href="namespacea60.html#a751f954fe64233f1dc6517220e4b5692" target="_top" xlink:title=" ">
<polygon fill="white" stroke="#666666" points="556,-128 449,-128 449,-111 556,-111 556,-128"/>
<text text-anchor="middle" x="502.5" y="-117.6" font-family="SourceSans" font-size="8.00">a60::to_replace_string</text>
</a>
</g>
</g>
<!-- Node3&#45;&gt;Node10 -->
<g id="edge9" class="edge">
<title>Node3&#45;&gt;Node10</title>
<path fill="none" stroke="#63b8ff" d="M360.4,-196.31C378.47,-180.38 411,-153.69 443,-137.5 447.39,-135.28 452.11,-133.27 456.89,-131.47"/>
<polygon fill="#63b8ff" stroke="#63b8ff" points="458.4,-134.65 466.71,-128.08 456.11,-128.04 458.4,-134.65"/>
</g>
<!-- Node12 -->
<g id="node12" class="node">
<title>Node12</title>
<g id="a_node12"><a xlink:href="namespacea60.html#a538d43bb9bfa488a54cea929736dbe2d" target="_top" xlink:title="Deserialize input file.">
<polygon fill="white" stroke="#666666" points="554.5,-92.5 450.5,-92.5 450.5,-66.5 554.5,-66.5 554.5,-92.5"/>
<text text-anchor="start" x="458.5" y="-82.1" font-family="SourceSans" font-size="8.00">a60::deserialize_json</text>
<text text-anchor="middle" x="502.5" y="-73.1" font-family="SourceSans" font-size="8.00">_to_dom</text>
</a>
</g>
</g>
<!-- Node11&#45;&gt;Node12 -->
<g id="edge11" class="edge">
<title>Node11&#45;&gt;Node12</title>
<path fill="none" stroke="#63b8ff" d="M397.35,-101.6C411.09,-98.69 426.07,-95.51 440.29,-92.49"/>
<polygon fill="#63b8ff" stroke="#63b8ff" points="441.42,-95.83 450.47,-90.33 439.96,-88.98 441.42,-95.83"/>
</g>
</g>
</svg>
