<?xml version="1.0" encoding="UTF-8" standalone="no"?>
<!DOCTYPE svg PUBLIC "-//W3C//DTD SVG 1.1//EN"
 "http://www.w3.org/Graphics/SVG/1.1/DTD/svg11.dtd">
<!-- Generated by graphviz version 5.0.0 (0)
 -->
<!-- Title: a60::augment_base_info_name Pages: 1 -->
<svg width="602pt" height="105pt"
 viewBox="0.00 0.00 602.00 104.50" xmlns="http://www.w3.org/2000/svg" xmlns:xlink="http://www.w3.org/1999/xlink">
<g id="graph0" class="graph" transform="scale(1 1) rotate(0) translate(4 100.5)">
<title>a60::augment_base_info_name</title>
<!-- Node1 -->
<g id="node1" class="node">
<title>Node1</title>
<g id="a_node1"><a xlink:title="Base name for output for non&#45;map, data/info.">
<polygon fill="#999999" stroke="#666666" points="146,-61.5 0,-61.5 0,-44.5 146,-44.5 146,-61.5"/>
<text text-anchor="middle" x="73" y="-51.1" font-family="SourceSans" font-size="8.00">a60::augment_base_info_name</text>
</a>
</g>
</g>
<!-- Node2 -->
<g id="node2" class="node">
<title>Node2</title>
<g id="a_node2"><a xlink:href="structa60_1_1collection.html#a80993af9aec8238db8e44da1e9a3c994" target="_top" xlink:title=" ">
<polygon fill="white" stroke="#666666" points="285,-66 182,-66 182,-40 285,-40 285,-66"/>
<text text-anchor="start" x="190" y="-55.6" font-family="SourceSans" font-size="8.00">a60::collection::slice</text>
<text text-anchor="middle" x="233.5" y="-46.6" font-family="SourceSans" font-size="8.00">_name_mangled</text>
</a>
</g>
</g>
<!-- Node1&#45;&gt;Node2 -->
<g id="edge1" class="edge">
<title>Node1&#45;&gt;Node2</title>
<path fill="none" stroke="#63b8ff" d="M146.29,-53C154.67,-53 163.16,-53 171.37,-53"/>
<polygon fill="#63b8ff" stroke="#63b8ff" points="171.6,-56.5 181.6,-53 171.6,-49.5 171.6,-56.5"/>
</g>
<!-- Node3 -->
<g id="node3" class="node">
<title>Node3</title>
<g id="a_node3"><a xlink:href="structa60_1_1collection.html#a25b35cf4ac39da89d868fe2cf41b5acd" target="_top" xlink:title=" ">
<polygon fill="white" stroke="#666666" points="451,-96.5 321,-96.5 321,-79.5 451,-79.5 451,-96.5"/>
<text text-anchor="middle" x="386" y="-86.1" font-family="SourceSans" font-size="8.00">a60::collection::slice_name</text>
</a>
</g>
</g>
<!-- Node2&#45;&gt;Node3 -->
<g id="edge2" class="edge">
<title>Node2&#45;&gt;Node3</title>
<path fill="none" stroke="#63b8ff" d="M285.03,-64.75C302.15,-68.73 321.18,-73.16 338.01,-77.07"/>
<polygon fill="#63b8ff" stroke="#63b8ff" points="337.63,-80.58 348.16,-79.43 339.21,-73.76 337.63,-80.58"/>
</g>
<!-- Node4 -->
<g id="node4" class="node">
<title>Node4</title>
<g id="a_node4"><a xlink:href="namespacea60.html#ac7eddb2e330d8983ddc852edde5335c5" target="_top" xlink:title=" ">
<polygon fill="white" stroke="#666666" points="445.5,-61.5 326.5,-61.5 326.5,-44.5 445.5,-44.5 445.5,-61.5"/>
<text text-anchor="middle" x="386" y="-51.1" font-family="SourceSans" font-size="8.00">a60::to_lowercase_string</text>
</a>
</g>
</g>
<!-- Node2&#45;&gt;Node4 -->
<g id="edge3" class="edge">
<title>Node2&#45;&gt;Node4</title>
<path fill="none" stroke="#63b8ff" d="M285.03,-53C295.06,-53 305.75,-53 316.27,-53"/>
<polygon fill="#63b8ff" stroke="#63b8ff" points="316.28,-56.5 326.28,-53 316.28,-49.5 316.28,-56.5"/>
</g>
<!-- Node5 -->
<g id="node5" class="node">
<title>Node5</title>
<g id="a_node5"><a xlink:href="namespacea60.html#a11d9ffc210e8dca8410e7a5ad62deabc" target="_top" xlink:title=" ">
<polygon fill="white" stroke="#666666" points="442.5,-26 329.5,-26 329.5,0 442.5,0 442.5,-26"/>
<text text-anchor="start" x="337.5" y="-15.6" font-family="SourceSans" font-size="8.00">a60::to_replace_spaces</text>
<text text-anchor="middle" x="386" y="-6.6" font-family="SourceSans" font-size="8.00">_string</text>
</a>
</g>
</g>
<!-- Node2&#45;&gt;Node5 -->
<g id="edge4" class="edge">
<title>Node2&#45;&gt;Node5</title>
<path fill="none" stroke="#63b8ff" d="M283.78,-39.9C297.23,-36.33 311.94,-32.42 325.88,-28.71"/>
<polygon fill="#63b8ff" stroke="#63b8ff" points="327.1,-32.01 335.87,-26.06 325.3,-25.24 327.1,-32.01"/>
</g>
<!-- Node6 -->
<g id="node6" class="node">
<title>Node6</title>
<g id="a_node6"><a xlink:href="namespacea60.html#a751f954fe64233f1dc6517220e4b5692" target="_top" xlink:title=" ">
<polygon fill="white" stroke="#666666" points="594,-21.5 487,-21.5 487,-4.5 594,-4.5 594,-21.5"/>
<text text-anchor="middle" x="540.5" y="-11.1" font-family="SourceSans" font-size="8.00">a60::to_replace_string</text>
</a>
</g>
</g>
<!-- Node5&#45;&gt;Node6 -->
<g id="edge5" class="edge">
<title>Node5&#45;&gt;Node6</title>
<path fill="none" stroke="#63b8ff" d="M442.92,-13C453.92,-13 465.53,-13 476.73,-13"/>
<polygon fill="#63b8ff" stroke="#63b8ff" points="476.88,-16.5 486.88,-13 476.88,-9.5 476.88,-16.5"/>
</g>
</g>
</svg>
