<?xml version="1.0" encoding="UTF-8" standalone="no"?>
<!DOCTYPE svg PUBLIC "-//W3C//DTD SVG 1.1//EN"
 "http://www.w3.org/Graphics/SVG/1.1/DTD/svg11.dtd">
<!-- Generated by graphviz version 5.0.0 (0)
 -->
<!-- Title: a60::metadata::initial_metadata_characteristics Pages: 1 -->
<!--zoomable 598 -->
<svg id="main" version="1.1" xmlns="http://www.w3.org/2000/svg" xmlns:xlink="http://www.w3.org/1999/xlink" xml:space="preserve" onload="init(evt)">
<style type="text/css"><![CDATA[
.edge:hover path { stroke: red; }
.edge:hover polygon { stroke: red; fill: red; }
]]></style>
<script type="text/javascript"><![CDATA[
var edges = document.getElementsByTagName('g');
if (edges && edges.length) {
  for (var i=0;i<edges.length;i++) {
    if (edges[i].id.substr(0,4)=='edge') {
      edges[i].setAttribute('class','edge');
    }
  }
}
]]></script>
        <defs>
                <circle id="rim" cx="0" cy="0" r="7"/>
                <circle id="rim2" cx="0" cy="0" r="3.5"/>
                <g id="zoomPlus">
                        <use xlink:href="#rim" fill="#404040">
                                <set attributeName="fill" to="#808080" begin="zoomplus.mouseover" end="zoomplus.mouseout"/>
                        </use>
                        <path d="M-4,0h8M0,-4v8" fill="none" stroke="white" stroke-width="1.5" pointer-events="none"/>
                </g>
                <g id="zoomMin">
                        <use xlink:href="#rim" fill="#404040">
                                <set attributeName="fill" to="#808080" begin="zoomminus.mouseover" end="zoomminus.mouseout"/>
                        </use>
                        <path d="M-4,0h8" fill="none" stroke="white" stroke-width="1.5" pointer-events="none"/>
                </g>
                <g id="dirArrow">
                        <path fill="none" stroke="white" stroke-width="1.5" d="M0,-3.0v7 M-2.5,-0.5L0,-3.0L2.5,-0.5"/>
                </g>
               <g id="resetDef">
                       <use xlink:href="#rim2" fill="#404040">
                               <set attributeName="fill" to="#808080" begin="reset.mouseover" end="reset.mouseout"/>
                       </use>
               </g>
        </defs>

<script type="text/javascript">
var viewWidth = 633;
var viewHeight = 598;
var sectionId = 'dynsection-44';
</script>
<script xlink:href="svgpan.js"/>
<svg id="graph" class="graph">
<g id="viewport">
<title>a60::metadata::initial_metadata_characteristics</title>
<!-- Node1 -->
<g id="node1" class="node">
<title>Node1</title>
<g id="a_node1"><a xlink:title="Dump text files for dimensions over selected aggregate.">
<polygon fill="#999999" stroke="#666666" points="124,-176.5 0,-176.5 0,-150.5 124,-150.5 124,-176.5"/>
<text text-anchor="start" x="8" y="-166.1" font-family="SourceSans" font-size="8.00">a60::metadata::initial</text>
<text text-anchor="middle" x="62" y="-157.1" font-family="SourceSans" font-size="8.00">_metadata_characteristics</text>
</a>
</g>
</g>
<!-- Node2 -->
<g id="node2" class="node">
<title>Node2</title>
<g id="a_node2"><a xlink:href="namespacea60_1_1metadata.html#adefdcf326e3314b557066902a1e2dcf9" target="_top" xlink:title=" ">
<polygon fill="white" stroke="#666666" points="468.5,-390.5 344.5,-390.5 344.5,-364.5 468.5,-364.5 468.5,-390.5"/>
<text text-anchor="start" x="352.5" y="-380.1" font-family="SourceSans" font-size="8.00">a60::metadata::canonical</text>
<text text-anchor="middle" x="406.5" y="-371.1" font-family="SourceSans" font-size="8.00">_media_name</text>
</a>
</g>
</g>
<!-- Node1&#45;&gt;Node2 -->
<g id="edge1" class="edge">
<title>Node1&#45;&gt;Node2</title>
<path fill="none" stroke="#63b8ff" d="M65.14,-176.7C71.74,-212.69 95.41,-312.77 160,-356.5 210.72,-390.85 281.52,-393.34 334.06,-388.87"/>
<polygon fill="#63b8ff" stroke="#63b8ff" points="334.69,-392.32 344.31,-387.89 334.02,-385.35 334.69,-392.32"/>
</g>
<!-- Node10 -->
<g id="node10" class="node">
<title>Node10</title>
<g id="a_node10"><a xlink:href="namespacea60.html#af45982273a7a2e61b6aaa436081238c0" target="_top" xlink:title="Load JSON file to in&#45;memory DOM.">
<polygon fill="white" stroke="#666666" points="458.5,-434.5 354.5,-434.5 354.5,-408.5 458.5,-408.5 458.5,-434.5"/>
<text text-anchor="start" x="362.5" y="-424.1" font-family="SourceSans" font-size="8.00">a60::deserialize_json</text>
<text text-anchor="middle" x="406.5" y="-415.1" font-family="SourceSans" font-size="8.00">_to_dom_object</text>
</a>
</g>
</g>
<!-- Node1&#45;&gt;Node10 -->
<g id="edge9" class="edge">
<title>Node1&#45;&gt;Node10</title>
<path fill="none" stroke="#63b8ff" d="M64.31,-176.54C68.98,-215.75 88.64,-333.27 160,-387.5 212.62,-427.49 290.48,-431.73 344.34,-428.73"/>
<polygon fill="#63b8ff" stroke="#63b8ff" points="344.7,-432.21 354.44,-428.06 344.24,-425.23 344.7,-432.21"/>
</g>
<!-- Node12 -->
<g id="node12" class="node">
<title>Node12</title>
<g id="a_node12"><a xlink:href="namespacea60_1_1io.html#ac95e5271a27a23bc2336d84b3f821fa2" target="_top" xlink:title="Constant filesystem and run&#45;time resources.">
<polygon fill="white" stroke="#666666" points="285.5,-96.5 181.5,-96.5 181.5,-70.5 285.5,-70.5 285.5,-96.5"/>
<text text-anchor="start" x="189.5" y="-86.1" font-family="SourceSans" font-size="8.00">a60::io::get_run_time</text>
<text text-anchor="middle" x="233.5" y="-77.1" font-family="SourceSans" font-size="8.00">_resources</text>
</a>
</g>
</g>
<!-- Node1&#45;&gt;Node12 -->
<g id="edge11" class="edge">
<title>Node1&#45;&gt;Node12</title>
<path fill="none" stroke="#63b8ff" d="M84.88,-150.36C104.24,-139.03 133.47,-122.61 160,-110.5 167.99,-106.85 176.63,-103.31 185.06,-100.05"/>
<polygon fill="#63b8ff" stroke="#63b8ff" points="186.33,-103.31 194.45,-96.5 183.86,-96.76 186.33,-103.31"/>
</g>
<!-- Node13 -->
<g id="node13" class="node">
<title>Node13</title>
<g id="a_node13"><a xlink:href="namespacea60_1_1constants.html#ac27c77e4606552ae5f74a1c21dd9258e" target="_top" xlink:title=" ">
<polygon fill="white" stroke="#666666" points="292,-52 175,-52 175,-35 292,-35 292,-52"/>
<text text-anchor="middle" x="233.5" y="-41.6" font-family="SourceSans" font-size="8.00">a60::constants::newline</text>
</a>
</g>
</g>
<!-- Node1&#45;&gt;Node13 -->
<g id="edge12" class="edge">
<title>Node1&#45;&gt;Node13</title>
<path fill="none" stroke="#63b8ff" d="M71.73,-150.27C86.95,-128.31 120.5,-84.48 160,-61.5 163.89,-59.24 168.05,-57.26 172.35,-55.53"/>
<polygon fill="#63b8ff" stroke="#63b8ff" points="173.67,-58.77 181.91,-52.12 171.31,-52.18 173.67,-58.77"/>
</g>
<!-- Node14 -->
<g id="node14" class="node">
<title>Node14</title>
<g id="a_node14"><a xlink:href="namespacea60_1_1io.html#aea30b8fc474f5a7b922516dc1e199037" target="_top" xlink:title="Takes a string representing a directory, returns a sorted list of contents as a std::vector&lt;string&gt;.">
<polygon fill="white" stroke="#666666" points="288.5,-17 178.5,-17 178.5,0 288.5,0 288.5,-17"/>
<text text-anchor="middle" x="233.5" y="-6.6" font-family="SourceSans" font-size="8.00">a60::io::populate_files</text>
</a>
</g>
</g>
<!-- Node1&#45;&gt;Node14 -->
<g id="edge13" class="edge">
<title>Node1&#45;&gt;Node14</title>
<path fill="none" stroke="#63b8ff" d="M68.28,-150.46C80.2,-122.76 111.96,-57.96 160,-25.5 162.79,-23.62 165.75,-21.94 168.84,-20.45"/>
<polygon fill="#63b8ff" stroke="#63b8ff" points="170.47,-23.57 178.37,-16.51 167.79,-17.1 170.47,-23.57"/>
</g>
<!-- Node15 -->
<g id="node15" class="node">
<title>Node15</title>
<g id="a_node15"><a xlink:href="namespacea60_1_1metadata.html#ad3f7bae9fe7d36aa8ab3bc98f525efbc" target="_top" xlink:title="rdim == &quot;ethnicities&quot; etc rmatch == match specific tag like &quot;black&quot;">
<polygon fill="white" stroke="#666666" points="293.5,-303 173.5,-303 173.5,-268 293.5,-268 293.5,-303"/>
<text text-anchor="start" x="181.5" y="-292.6" font-family="SourceSans" font-size="8.00">a60::metadata::rank</text>
<text text-anchor="start" x="181.5" y="-283.6" font-family="SourceSans" font-size="8.00">_metadata_by_dimension</text>
<text text-anchor="middle" x="233.5" y="-274.6" font-family="SourceSans" font-size="8.00">_and_match</text>
</a>
</g>
</g>
<!-- Node1&#45;&gt;Node15 -->
<g id="edge14" class="edge">
<title>Node1&#45;&gt;Node15</title>
<path fill="none" stroke="#63b8ff" d="M81.14,-176.56C109.33,-196.84 164.06,-236.24 199.41,-261.69"/>
<polygon fill="#63b8ff" stroke="#63b8ff" points="197.79,-264.83 207.96,-267.83 201.88,-259.15 197.79,-264.83"/>
</g>
<!-- Node18 -->
<g id="node18" class="node">
<title>Node18</title>
<g id="a_node18"><a xlink:href="namespacea60_1_1metadata.html#a80da6438996a07a5fa1df5728c004b2a" target="_top" xlink:title="Find name &#39;field&#39; in JSON file and return vector of values.">
<polygon fill="white" stroke="#666666" points="621,-166.5 510,-166.5 510,-140.5 621,-140.5 621,-166.5"/>
<text text-anchor="start" x="518" y="-156.1" font-family="SourceSans" font-size="8.00">a60::metadata::values</text>
<text text-anchor="middle" x="565.5" y="-147.1" font-family="SourceSans" font-size="8.00">_from_field</text>
</a>
</g>
</g>
<!-- Node1&#45;&gt;Node18 -->
<g id="edge35" class="edge">
<title>Node1&#45;&gt;Node18</title>
<path fill="none" stroke="#63b8ff" d="M124.04,-155.74C203.67,-146.65 347.29,-133.74 470,-141.5 479.55,-142.1 489.62,-143.05 499.48,-144.15"/>
<polygon fill="#63b8ff" stroke="#63b8ff" points="499.3,-147.65 509.64,-145.34 500.12,-140.7 499.3,-147.65"/>
</g>
<!-- Node23 -->
<g id="node23" class="node">
<title>Node23</title>
<g id="a_node23"><a xlink:href="namespacea60_1_1metadata.html#ad5a0a0992f537497235f04e35bea124b" target="_top" xlink:title="Find the values from all matching fields containing agg.">
<polygon fill="white" stroke="#666666" points="462,-176.5 351,-176.5 351,-150.5 462,-150.5 462,-176.5"/>
<text text-anchor="start" x="359" y="-166.1" font-family="SourceSans" font-size="8.00">a60::metadata::values</text>
<text text-anchor="middle" x="406.5" y="-157.1" font-family="SourceSans" font-size="8.00">_from_fields_matching</text>
</a>
</g>
</g>
<!-- Node1&#45;&gt;Node23 -->
<g id="edge36" class="edge">
<title>Node1&#45;&gt;Node23</title>
<path fill="none" stroke="#63b8ff" d="M124.23,-163.5C185.2,-163.5 278.43,-163.5 340.64,-163.5"/>
<polygon fill="#63b8ff" stroke="#63b8ff" points="340.73,-167 350.73,-163.5 340.73,-160 340.73,-167"/>
</g>
<!-- Node24 -->
<g id="node24" class="node">
<title>Node24</title>
<g id="a_node24"><a xlink:href="namespacea60_1_1metadata.html#a7eb50ed831ec18df2287c04a1cb71180" target="_top" xlink:title="rdim == &quot;bias&#45;tags&quot; etc">
<polygon fill="white" stroke="#666666" points="307,-347.5 160,-347.5 160,-321.5 307,-321.5 307,-347.5"/>
<text text-anchor="start" x="168" y="-337.1" font-family="SourceSans" font-size="8.00">a60::metadata::rank</text>
<text text-anchor="middle" x="233.5" y="-328.1" font-family="SourceSans" font-size="8.00">_metadata_by_dimension_count</text>
</a>
</g>
</g>
<!-- Node1&#45;&gt;Node24 -->
<g id="edge30" class="edge">
<title>Node1&#45;&gt;Node24</title>
<path fill="none" stroke="#63b8ff" d="M67.98,-176.88C79.51,-206.04 110.88,-275.61 160,-312.5 161.88,-313.91 163.85,-315.23 165.89,-316.47"/>
<polygon fill="#63b8ff" stroke="#63b8ff" points="164.73,-319.82 175.21,-321.38 167.99,-313.62 164.73,-319.82"/>
</g>
<!-- Node3 -->
<g id="node3" class="node">
<title>Node3</title>
<g id="a_node3"><a xlink:href="namespacea60_1_1constants.html#a8a38c40674ec5fbf57af8127a67d1609" target="_top" xlink:title=" ">
<polygon fill="white" stroke="#666666" points="619,-545 512,-545 512,-528 619,-528 619,-545"/>
<text text-anchor="middle" x="565.5" y="-534.6" font-family="SourceSans" font-size="8.00">a60::constants::colon</text>
</a>
</g>
</g>
<!-- Node2&#45;&gt;Node3 -->
<g id="edge2" class="edge">
<title>Node2&#45;&gt;Node3</title>
<path fill="none" stroke="#63b8ff" d="M458.51,-390.59C462.74,-393.06 466.66,-396 470,-399.5 508.44,-439.79 466.46,-480.3 506,-519.5 507.08,-520.57 508.22,-521.57 509.42,-522.52"/>
<polygon fill="#63b8ff" stroke="#63b8ff" points="507.63,-525.52 517.96,-527.86 511.34,-519.59 507.63,-525.52"/>
</g>
<!-- Node4 -->
<g id="node4" class="node">
<title>Node4</title>
<g id="a_node4"><a xlink:href="namespacea60_1_1constants.html#a6338b74a1c5c6dc024b03069e07e34ac" target="_top" xlink:title=" ">
<polygon fill="white" stroke="#666666" points="623.5,-360 507.5,-360 507.5,-343 623.5,-343 623.5,-360"/>
<text text-anchor="middle" x="565.5" y="-349.6" font-family="SourceSans" font-size="8.00">a60::constants::hyphen</text>
</a>
</g>
</g>
<!-- Node2&#45;&gt;Node4 -->
<g id="edge3" class="edge">
<title>Node2&#45;&gt;Node4</title>
<path fill="none" stroke="#63b8ff" d="M468.65,-367.37C479.86,-365.52 491.56,-363.58 502.78,-361.72"/>
<polygon fill="#63b8ff" stroke="#63b8ff" points="503.63,-365.13 512.93,-360.04 502.49,-358.22 503.63,-365.13"/>
</g>
<!-- Node5 -->
<g id="node5" class="node">
<title>Node5</title>
<g id="a_node5"><a xlink:href="namespacea60_1_1constants.html#a370b70e28b3935e8736cb9e79697ceda" target="_top" xlink:title=" ">
<polygon fill="white" stroke="#666666" points="621,-510 510,-510 510,-493 621,-493 621,-510"/>
<text text-anchor="middle" x="565.5" y="-499.6" font-family="SourceSans" font-size="8.00">a60::constants::period</text>
</a>
</g>
</g>
<!-- Node2&#45;&gt;Node5 -->
<g id="edge4" class="edge">
<title>Node2&#45;&gt;Node5</title>
<path fill="none" stroke="#63b8ff" d="M457.49,-390.66C462.03,-393.12 466.3,-396.04 470,-399.5 499.66,-427.25 475.79,-456.35 506,-483.5 507.94,-485.24 510.04,-486.81 512.25,-488.23"/>
<polygon fill="#63b8ff" stroke="#63b8ff" points="510.8,-491.42 521.28,-492.99 514.06,-485.23 510.8,-491.42"/>
</g>
<!-- Node6 -->
<g id="node6" class="node">
<title>Node6</title>
<g id="a_node6"><a xlink:href="namespacea60.html#a34d53970ee23a7c014960a2bf1a10e2b" target="_top" xlink:title="Search DOM for string literals.">
<polygon fill="white" stroke="#666666" points="617,-474.5 514,-474.5 514,-448.5 617,-448.5 617,-474.5"/>
<text text-anchor="start" x="522" y="-464.1" font-family="SourceSans" font-size="8.00">a60::search_dom_for</text>
<text text-anchor="middle" x="565.5" y="-455.1" font-family="SourceSans" font-size="8.00">_string_field</text>
</a>
</g>
</g>
<!-- Node2&#45;&gt;Node6 -->
<g id="edge5" class="edge">
<title>Node2&#45;&gt;Node6</title>
<path fill="none" stroke="#63b8ff" d="M453.18,-390.54C459.06,-393.08 464.83,-396.05 470,-399.5 489.9,-412.77 486.24,-426.02 506,-439.5 508.35,-441.11 510.84,-442.61 513.4,-444.03"/>
<polygon fill="#63b8ff" stroke="#63b8ff" points="511.85,-447.16 522.36,-448.47 514.96,-440.89 511.85,-447.16"/>
</g>
<!-- Node7 -->
<g id="node7" class="node">
<title>Node7</title>
<g id="a_node7"><a xlink:href="namespacea60.html#a0022cb8323c9a304730c5d70e4da4e4b" target="_top" xlink:title=" ">
<polygon fill="white" stroke="#666666" points="616,-430 515,-430 515,-413 616,-413 616,-430"/>
<text text-anchor="middle" x="565.5" y="-419.6" font-family="SourceSans" font-size="8.00">a60::to_erase_string</text>
</a>
</g>
</g>
<!-- Node2&#45;&gt;Node7 -->
<g id="edge6" class="edge">
<title>Node2&#45;&gt;Node7</title>
<path fill="none" stroke="#63b8ff" d="M454.18,-390.58C476.5,-396.84 502.94,-404.25 524.35,-410.25"/>
<polygon fill="#63b8ff" stroke="#63b8ff" points="523.53,-413.65 534.1,-412.98 525.42,-406.91 523.53,-413.65"/>
</g>
<!-- Node8 -->
<g id="node8" class="node">
<title>Node8</title>
<g id="a_node8"><a xlink:href="namespacea60.html#ac7eddb2e330d8983ddc852edde5335c5" target="_top" xlink:title=" ">
<polygon fill="white" stroke="#666666" points="625,-395 506,-395 506,-378 625,-378 625,-395"/>
<text text-anchor="middle" x="565.5" y="-384.6" font-family="SourceSans" font-size="8.00">a60::to_lowercase_string</text>
</a>
</g>
</g>
<!-- Node2&#45;&gt;Node8 -->
<g id="edge7" class="edge">
<title>Node2&#45;&gt;Node8</title>
<path fill="none" stroke="#63b8ff" d="M468.65,-381.01C477.53,-381.51 486.73,-382.04 495.75,-382.56"/>
<polygon fill="#63b8ff" stroke="#63b8ff" points="495.65,-386.06 505.83,-383.14 496.05,-379.07 495.65,-386.06"/>
</g>
<!-- Node9 -->
<g id="node9" class="node">
<title>Node9</title>
<g id="a_node9"><a xlink:href="namespacea60.html#a751f954fe64233f1dc6517220e4b5692" target="_top" xlink:title=" ">
<polygon fill="white" stroke="#666666" points="619,-325 512,-325 512,-308 619,-308 619,-325"/>
<text text-anchor="middle" x="565.5" y="-314.6" font-family="SourceSans" font-size="8.00">a60::to_replace_string</text>
</a>
</g>
</g>
<!-- Node2&#45;&gt;Node9 -->
<g id="edge8" class="edge">
<title>Node2&#45;&gt;Node9</title>
<path fill="none" stroke="#63b8ff" d="M448.29,-364.4C455.62,-361.69 463.11,-358.69 470,-355.5 486.81,-347.72 489.04,-341.94 506,-334.5 511.17,-332.23 516.71,-330.13 522.25,-328.22"/>
<polygon fill="#63b8ff" stroke="#63b8ff" points="523.71,-331.43 532.14,-325.01 521.55,-324.77 523.71,-331.43"/>
</g>
<!-- Node11 -->
<g id="node11" class="node">
<title>Node11</title>
<g id="a_node11"><a xlink:href="namespacea60.html#a538d43bb9bfa488a54cea929736dbe2d" target="_top" xlink:title="Deserialize input file.">
<polygon fill="white" stroke="#666666" points="617.5,-589.5 513.5,-589.5 513.5,-563.5 617.5,-563.5 617.5,-589.5"/>
<text text-anchor="start" x="521.5" y="-579.1" font-family="SourceSans" font-size="8.00">a60::deserialize_json</text>
<text text-anchor="middle" x="565.5" y="-570.1" font-family="SourceSans" font-size="8.00">_to_dom</text>
</a>
</g>
</g>
<!-- Node10&#45;&gt;Node11 -->
<g id="edge10" class="edge">
<title>Node10&#45;&gt;Node11</title>
<path fill="none" stroke="#63b8ff" d="M413.99,-434.81C427.54,-461.25 461.28,-520.75 506,-554.5 507.86,-555.91 509.83,-557.23 511.86,-558.48"/>
<polygon fill="#63b8ff" stroke="#63b8ff" points="510.68,-561.82 521.14,-563.47 513.99,-555.65 510.68,-561.82"/>
</g>
<!-- Node15&#45;&gt;Node2 -->
<g id="edge15" class="edge">
<title>Node15&#45;&gt;Node2</title>
<path fill="none" stroke="#63b8ff" d="M290.63,-303C296.38,-305.78 301.95,-308.93 307,-312.5 327.36,-326.88 322.52,-341.3 343,-355.5 345.35,-357.13 347.83,-358.65 350.4,-360.06"/>
<polygon fill="#63b8ff" stroke="#63b8ff" points="348.86,-363.21 359.38,-364.49 351.96,-356.93 348.86,-363.21"/>
</g>
<!-- Node15&#45;&gt;Node10 -->
<g id="edge20" class="edge">
<title>Node15&#45;&gt;Node10</title>
<path fill="none" stroke="#63b8ff" d="M293.63,-302.55C298.48,-305.39 303.04,-308.68 307,-312.5 337.12,-341.55 312.62,-370.72 343,-399.5 344.26,-400.7 345.59,-401.83 346.98,-402.9"/>
<polygon fill="#63b8ff" stroke="#63b8ff" points="345.17,-405.89 355.46,-408.39 348.97,-400.02 345.17,-405.89"/>
</g>
<!-- Node16 -->
<g id="node16" class="node">
<title>Node16</title>
<g id="a_node16"><a xlink:href="namespacea60_1_1metadata.html#a251c367137aefe7cb575c85a8256c5a5" target="_top" xlink:title="Returns the number of cast&#45;lead&#45;n&#45;[agg] fields with non&#45;blank entries.">
<polygon fill="white" stroke="#666666" points="470,-302.5 343,-302.5 343,-276.5 470,-276.5 470,-302.5"/>
<text text-anchor="start" x="351" y="-292.1" font-family="SourceSans" font-size="8.00">a60::metadata::count</text>
<text text-anchor="middle" x="406.5" y="-283.1" font-family="SourceSans" font-size="8.00">_values_in_fields_matching</text>
</a>
</g>
</g>
<!-- Node15&#45;&gt;Node16 -->
<g id="edge16" class="edge">
<title>Node15&#45;&gt;Node16</title>
<path fill="none" stroke="#63b8ff" d="M293.83,-286.89C306.31,-287.18 319.62,-287.49 332.53,-287.79"/>
<polygon fill="#63b8ff" stroke="#63b8ff" points="332.71,-291.3 342.79,-288.03 332.87,-284.3 332.71,-291.3"/>
</g>
<!-- Node19 -->
<g id="node19" class="node">
<title>Node19</title>
<g id="a_node19"><a xlink:href="namespacea60_1_1metadata.html#a90edc2a49e803d1acc1c9c44c8c7cb46" target="_top" xlink:title="From multiset of strings to ordered elements of id (aka count, identifier).">
<polygon fill="white" stroke="#666666" points="465,-220.5 348,-220.5 348,-194.5 465,-194.5 465,-220.5"/>
<text text-anchor="start" x="356" y="-210.1" font-family="SourceSans" font-size="8.00">a60::metadata::multiset</text>
<text text-anchor="middle" x="406.5" y="-201.1" font-family="SourceSans" font-size="8.00">_to_set_of_ids</text>
</a>
</g>
</g>
<!-- Node15&#45;&gt;Node19 -->
<g id="edge21" class="edge">
<title>Node15&#45;&gt;Node19</title>
<path fill="none" stroke="#63b8ff" d="M271.03,-267.98C292.01,-258 318.9,-245.37 343,-234.5 350.2,-231.25 357.89,-227.86 365.34,-224.63"/>
<polygon fill="#63b8ff" stroke="#63b8ff" points="366.79,-227.81 374.58,-220.63 364.01,-221.39 366.79,-227.81"/>
</g>
<!-- Node20 -->
<g id="node20" class="node">
<title>Node20</title>
<g id="a_node20"><a xlink:href="namespacea60_1_1metadata.html#a4ffb1ab0b6aa36e73fc117c333d402c7" target="_top" xlink:title="Output ranked list in text format.">
<polygon fill="white" stroke="#666666" points="466,-346.5 347,-346.5 347,-320.5 466,-320.5 466,-346.5"/>
<text text-anchor="start" x="355" y="-336.1" font-family="SourceSans" font-size="8.00">a60::metadata::serialize</text>
<text text-anchor="middle" x="406.5" y="-327.1" font-family="SourceSans" font-size="8.00">_ranked_media_object</text>
</a>
</g>
</g>
<!-- Node15&#45;&gt;Node20 -->
<g id="edge22" class="edge">
<title>Node15&#45;&gt;Node20</title>
<path fill="none" stroke="#63b8ff" d="M293.83,-302.15C311.81,-307.2 331.51,-312.73 349.29,-317.72"/>
<polygon fill="#63b8ff" stroke="#63b8ff" points="348.37,-321.1 358.94,-320.43 350.26,-314.36 348.37,-321.1"/>
</g>
<!-- Node15&#45;&gt;Node23 -->
<g id="edge27" class="edge">
<title>Node15&#45;&gt;Node23</title>
<path fill="none" stroke="#63b8ff" d="M249.34,-267.98C268.83,-245.98 305.02,-208.34 343,-185.5 345.81,-183.81 348.77,-182.22 351.81,-180.74"/>
<polygon fill="#63b8ff" stroke="#63b8ff" points="353.4,-183.86 361.1,-176.59 350.54,-177.47 353.4,-183.86"/>
</g>
<!-- Node17 -->
<g id="node17" class="node">
<title>Node17</title>
<g id="a_node17"><a xlink:href="namespacea60.html#a4e8b0cabed112734147b499bf0cc9029" target="_top" xlink:title="Conversion of resolution_mode to string.">
<polygon fill="white" stroke="#666666" points="602.5,-202 528.5,-202 528.5,-185 602.5,-185 602.5,-202"/>
<text text-anchor="middle" x="565.5" y="-191.6" font-family="SourceSans" font-size="8.00">a60::to_string</text>
</a>
</g>
</g>
<!-- Node16&#45;&gt;Node17 -->
<g id="edge17" class="edge">
<title>Node16&#45;&gt;Node17</title>
<path fill="none" stroke="#63b8ff" d="M443.27,-276.48C452.3,-272.55 461.77,-267.83 470,-262.5 488.22,-250.7 488.68,-242.58 506,-229.5 516.6,-221.5 529.05,-213.64 539.73,-207.32"/>
<polygon fill="#63b8ff" stroke="#63b8ff" points="541.68,-210.24 548.57,-202.2 538.17,-204.18 541.68,-210.24"/>
</g>
<!-- Node16&#45;&gt;Node18 -->
<g id="edge19" class="edge">
<title>Node16&#45;&gt;Node18</title>
<path fill="none" stroke="#63b8ff" d="M449.97,-276.45C457.29,-272.8 464.35,-268.22 470,-262.5 499.13,-233.03 476.38,-205.48 506,-176.5 507.62,-174.92 509.35,-173.44 511.18,-172.07"/>
<polygon fill="#63b8ff" stroke="#63b8ff" points="513.14,-174.97 519.69,-166.64 509.38,-169.06 513.14,-174.97"/>
</g>
<!-- Node17&#45;&gt;Node17 -->
<g id="edge18" class="edge">
<title>Node17&#45;&gt;Node17</title>
<path fill="none" stroke="#63b8ff" d="M541.96,-202.19C528.95,-210.67 536.8,-220 565.5,-220 584.78,-220 594.65,-215.79 595.11,-210.45"/>
<polygon fill="#63b8ff" stroke="#63b8ff" points="597.78,-208.18 589.04,-202.19 592.14,-212.32 597.78,-208.18"/>
</g>
<!-- Node20&#45;&gt;Node4 -->
<g id="edge24" class="edge">
<title>Node20&#45;&gt;Node4</title>
<path fill="none" stroke="#63b8ff" d="M466.41,-340.25C476.46,-341.41 486.96,-342.61 497.21,-343.79"/>
<polygon fill="#63b8ff" stroke="#63b8ff" points="497.01,-347.29 507.35,-344.95 497.81,-340.33 497.01,-347.29"/>
</g>
<!-- Node20&#45;&gt;Node9 -->
<g id="edge26" class="edge">
<title>Node20&#45;&gt;Node9</title>
<path fill="none" stroke="#63b8ff" d="M466.41,-327.12C477.98,-325.87 490.17,-324.55 501.86,-323.28"/>
<polygon fill="#63b8ff" stroke="#63b8ff" points="502.41,-326.74 511.98,-322.19 501.66,-319.78 502.41,-326.74"/>
</g>
<!-- Node21 -->
<g id="node21" class="node">
<title>Node21</title>
<g id="a_node21"><a xlink:href="namespacea60_1_1constants.html#a2fd5efb0c88809132a730787d05a080a" target="_top" xlink:title=" ">
<polygon fill="white" stroke="#666666" points="623,-290 508,-290 508,-273 623,-273 623,-290"/>
<text text-anchor="middle" x="565.5" y="-279.6" font-family="SourceSans" font-size="8.00">a60::constants::comma</text>
</a>
</g>
</g>
<!-- Node20&#45;&gt;Node21 -->
<g id="edge23" class="edge">
<title>Node20&#45;&gt;Node21</title>
<path fill="none" stroke="#63b8ff" d="M444.35,-320.45C462.81,-313.99 485.53,-306.18 506,-299.5 512.58,-297.35 519.61,-295.13 526.42,-293.01"/>
<polygon fill="#63b8ff" stroke="#63b8ff" points="527.65,-296.3 536.17,-290.01 525.58,-289.61 527.65,-296.3"/>
</g>
<!-- Node22 -->
<g id="node22" class="node">
<title>Node22</title>
<g id="a_node22"><a xlink:href="namespacea60_1_1constants.html#a4eca9d522711df25806d6dd1ff38e904" target="_top" xlink:title=" ">
<polygon fill="white" stroke="#666666" points="620.5,-255 510.5,-255 510.5,-238 620.5,-238 620.5,-255"/>
<text text-anchor="middle" x="565.5" y="-244.6" font-family="SourceSans" font-size="8.00">a60::constants::space</text>
</a>
</g>
</g>
<!-- Node20&#45;&gt;Node22 -->
<g id="edge25" class="edge">
<title>Node20&#45;&gt;Node22</title>
<path fill="none" stroke="#63b8ff" d="M454.41,-320.4C459.92,-317.89 465.25,-314.95 470,-311.5 491.3,-296.04 484.4,-279.53 506,-264.5 508.92,-262.47 512.08,-260.66 515.37,-259.05"/>
<polygon fill="#63b8ff" stroke="#63b8ff" points="517.03,-262.15 524.87,-255.02 514.29,-255.7 517.03,-262.15"/>
</g>
<!-- Node23&#45;&gt;Node17 -->
<g id="edge28" class="edge">
<title>Node23&#45;&gt;Node17</title>
<path fill="none" stroke="#63b8ff" d="M462.41,-173.99C480.6,-177.47 500.64,-181.3 518.12,-184.64"/>
<polygon fill="#63b8ff" stroke="#63b8ff" points="517.6,-188.1 528.08,-186.54 518.91,-181.23 517.6,-188.1"/>
</g>
<!-- Node23&#45;&gt;Node18 -->
<g id="edge29" class="edge">
<title>Node23&#45;&gt;Node18</title>
<path fill="none" stroke="#63b8ff" d="M462.41,-160C474.43,-159.24 487.27,-158.42 499.63,-157.63"/>
<polygon fill="#63b8ff" stroke="#63b8ff" points="500.13,-161.11 509.89,-156.98 499.68,-154.12 500.13,-161.11"/>
</g>
<!-- Node24&#45;&gt;Node2 -->
<g id="edge31" class="edge">
<title>Node24&#45;&gt;Node2</title>
<path fill="none" stroke="#63b8ff" d="M286.27,-347.52C304.43,-352.09 325.02,-357.26 343.91,-362.01"/>
<polygon fill="#63b8ff" stroke="#63b8ff" points="343.06,-365.41 353.61,-364.45 344.77,-358.62 343.06,-365.41"/>
</g>
<!-- Node24&#45;&gt;Node10 -->
<g id="edge32" class="edge">
<title>Node24&#45;&gt;Node10</title>
<path fill="none" stroke="#63b8ff" d="M253.84,-347.72C275.04,-361.82 310.4,-384.19 343,-399.5 346.87,-401.32 350.92,-403.07 355.04,-404.74"/>
<polygon fill="#63b8ff" stroke="#63b8ff" points="354.09,-408.12 364.68,-408.47 356.61,-401.59 354.09,-408.12"/>
</g>
<!-- Node24&#45;&gt;Node18 -->
<g id="edge34" class="edge">
<title>Node24&#45;&gt;Node18</title>
<path fill="none" stroke="#63b8ff" d="M290.33,-321.38C296.2,-318.9 301.88,-315.97 307,-312.5 328.21,-298.14 321.77,-281.82 343,-267.5 391.84,-234.55 422.48,-264.33 470,-229.5 492.97,-212.67 483.76,-194.28 506,-176.5 508.28,-174.68 510.72,-172.99 513.26,-171.42"/>
<polygon fill="#63b8ff" stroke="#63b8ff" points="515.11,-174.4 522.22,-166.55 511.76,-168.25 515.11,-174.4"/>
</g>
<!-- Node24&#45;&gt;Node20 -->
<g id="edge33" class="edge">
<title>Node24&#45;&gt;Node20</title>
<path fill="none" stroke="#63b8ff" d="M307.02,-334.08C316.88,-334.02 326.98,-333.96 336.78,-333.9"/>
<polygon fill="#63b8ff" stroke="#63b8ff" points="336.87,-337.4 346.85,-333.84 336.83,-330.4 336.87,-337.4"/>
</g>
</g>
</svg>
        <g id="navigator" transform="translate(0 0)" fill="#404254">
                <rect fill="#f2f5e9" fill-opacity="0.5" stroke="#606060" stroke-width=".5" x="0" y="0" width="60" height="60"/>
                <use id="zoomplus" xlink:href="#zoomPlus" x="17" y="9" onmousedown="handleZoom(evt,'in')"/>
                <use id="zoomminus" xlink:href="#zoomMin" x="42" y="9" onmousedown="handleZoom(evt,'out')"/>
                <use id="reset" xlink:href="#resetDef" x="30" y="36" onmousedown="handleReset()"/>
                <g id="arrowUp" xlink:href="#dirArrow" transform="translate(30 24)" onmousedown="handlePan(0,-1)">
                  <use xlink:href="#rim" fill="#404040">
                        <set attributeName="fill" to="#808080" begin="arrowUp.mouseover" end="arrowUp.mouseout"/>
                  </use>
                  <path fill="none" stroke="white" stroke-width="1.5" d="M0,-3.0v7 M-2.5,-0.5L0,-3.0L2.5,-0.5"/>
                </g>
                <g id="arrowRight" xlink:href="#dirArrow" transform="rotate(90) translate(36 -43)" onmousedown="handlePan(1,0)">
                  <use xlink:href="#rim" fill="#404040">
                        <set attributeName="fill" to="#808080" begin="arrowRight.mouseover" end="arrowRight.mouseout"/>
                  </use>
                  <path fill="none" stroke="white" stroke-width="1.5" d="M0,-3.0v7 M-2.5,-0.5L0,-3.0L2.5,-0.5"/>
                </g>
                <g id="arrowDown" xlink:href="#dirArrow" transform="rotate(180) translate(-30 -48)" onmousedown="handlePan(0,1)">
                  <use xlink:href="#rim" fill="#404040">
                        <set attributeName="fill" to="#808080" begin="arrowDown.mouseover" end="arrowDown.mouseout"/>
                  </use>
                  <path fill="none" stroke="white" stroke-width="1.5" d="M0,-3.0v7 M-2.5,-0.5L0,-3.0L2.5,-0.5"/>
                </g>
                <g id="arrowLeft" xlink:href="#dirArrow" transform="rotate(270) translate(-36 17)" onmousedown="handlePan(-1,0)">
                  <use xlink:href="#rim" fill="#404040">
                        <set attributeName="fill" to="#808080" begin="arrowLeft.mouseover" end="arrowLeft.mouseout"/>
                  </use>
                  <path fill="none" stroke="white" stroke-width="1.5" d="M0,-3.0v7 M-2.5,-0.5L0,-3.0L2.5,-0.5"/>
                </g>
        </g>
        <svg viewBox="0 0 15 15" width="100%" height="30px" preserveAspectRatio="xMaxYMin meet">
         <g id="arrow_out" transform="scale(0.3 0.3)">
          <a xlink:href="namespacea60_1_1metadata_aaed0a95a1b3a69dd4a32c16834a79169_cgraph_org.svg" target="_base">
           <rect id="button" ry="5" rx="5" y="6" x="6" height="38" width="38"
                fill="#f2f5e9" fill-opacity="0.5" stroke="#606060" stroke-width="1.0"/>
           <path id="arrow"
             d="M 11.500037,31.436501 C 11.940474,20.09759 22.043105,11.32322 32.158766,21.979434 L 37.068811,17.246167 C 37.068811,17.246167 37.088388,32 37.088388,32 L 22.160133,31.978069 C 22.160133,31.978069 26.997745,27.140456 26.997745,27.140456 C 18.528582,18.264221 13.291696,25.230495 11.500037,31.436501 z"
             style="fill:#404040;"/>
          </a>
         </g>
        </svg>
</svg>
