<?xml version="1.0" encoding="UTF-8" standalone="no"?>
<!DOCTYPE svg PUBLIC "-//W3C//DTD SVG 1.1//EN"
 "http://www.w3.org/Graphics/SVG/1.1/DTD/svg11.dtd">
<!-- Generated by graphviz version 5.0.0 (0)
 -->
<!-- Title: a60::sample_range_for_field Pages: 1 -->
<svg width="259pt" height="78pt"
 viewBox="0.00 0.00 259.00 78.00" xmlns="http://www.w3.org/2000/svg" xmlns:xlink="http://www.w3.org/1999/xlink">
<g id="graph0" class="graph" transform="scale(1 1) rotate(0) translate(4 74)">
<title>a60::sample_range_for_field</title>
<!-- Node1 -->
<g id="node1" class="node">
<title>Node1</title>
<g id="a_node1"><a xlink:title="Search DOM for a range of integer values.">
<polygon fill="#999999" stroke="#666666" points="111,-48 0,-48 0,-22 111,-22 111,-48"/>
<text text-anchor="start" x="8" y="-37.6" font-family="SourceSans" font-size="8.00">a60::sample_range_for</text>
<text text-anchor="middle" x="55.5" y="-28.6" font-family="SourceSans" font-size="8.00">_field</text>
</a>
</g>
</g>
<!-- Node2 -->
<g id="node2" class="node">
<title>Node2</title>
<g id="a_node2"><a xlink:href="namespacea60.html#a538d43bb9bfa488a54cea929736dbe2d" target="_top" xlink:title="Deserialize input file.">
<polygon fill="white" stroke="#666666" points="251,-70 147,-70 147,-44 251,-44 251,-70"/>
<text text-anchor="start" x="155" y="-59.6" font-family="SourceSans" font-size="8.00">a60::deserialize_json</text>
<text text-anchor="middle" x="199" y="-50.6" font-family="SourceSans" font-size="8.00">_to_dom</text>
</a>
</g>
</g>
<!-- Node1&#45;&gt;Node2 -->
<g id="edge1" class="edge">
<title>Node1&#45;&gt;Node2</title>
<path fill="none" stroke="#63b8ff" d="M111.21,-43.51C119.5,-44.8 128.1,-46.13 136.53,-47.44"/>
<polygon fill="#63b8ff" stroke="#63b8ff" points="136.27,-50.94 146.69,-49.02 137.34,-44.03 136.27,-50.94"/>
</g>
<!-- Node3 -->
<g id="node3" class="node">
<title>Node3</title>
<g id="a_node3"><a xlink:href="namespacea60.html#a800a2e54e8f2d2481c4bb2fb929dba7f" target="_top" xlink:title="Search DOM for integer values.">
<polygon fill="white" stroke="#666666" points="250.5,-26 147.5,-26 147.5,0 250.5,0 250.5,-26"/>
<text text-anchor="start" x="155.5" y="-15.6" font-family="SourceSans" font-size="8.00">a60::search_dom_for</text>
<text text-anchor="middle" x="199" y="-6.6" font-family="SourceSans" font-size="8.00">_int_field</text>
</a>
</g>
</g>
<!-- Node1&#45;&gt;Node3 -->
<g id="edge2" class="edge">
<title>Node1&#45;&gt;Node3</title>
<path fill="none" stroke="#63b8ff" d="M111.21,-26.49C119.7,-25.17 128.53,-23.8 137.15,-22.46"/>
<polygon fill="#63b8ff" stroke="#63b8ff" points="137.8,-25.9 147.15,-20.91 136.73,-18.98 137.8,-25.9"/>
</g>
</g>
</svg>
