<?xml version="1.0" encoding="UTF-8" standalone="no"?>
<!DOCTYPE svg PUBLIC "-//W3C//DTD SVG 1.1//EN"
 "http://www.w3.org/Graphics/SVG/1.1/DTD/svg11.dtd">
<!-- Generated by graphviz version 5.0.0 (0)
 -->
<!-- Title: a60::augment_carto_exit_nodes Pages: 1 -->
<svg width="1024pt" height="261pt"
 viewBox="0.00 0.00 1024.00 260.50" xmlns="http://www.w3.org/2000/svg" xmlns:xlink="http://www.w3.org/1999/xlink">
<g id="graph0" class="graph" transform="scale(1 1) rotate(0) translate(4 256.5)">
<title>a60::augment_carto_exit_nodes</title>
<!-- Node1 -->
<g id="node1" class="node">
<title>Node1</title>
<g id="a_node1"><a xlink:title="Augment Tor Exit Nodes.">
<polygon fill="#999999" stroke="#666666" points="100,-108 0,-108 0,-82 100,-82 100,-108"/>
<text text-anchor="start" x="8" y="-97.6" font-family="SourceSans" font-size="8.00">a60::augment_carto</text>
<text text-anchor="middle" x="50" y="-88.6" font-family="SourceSans" font-size="8.00">_exit_nodes</text>
</a>
</g>
</g>
<!-- Node2 -->
<g id="node2" class="node">
<title>Node2</title>
<g id="a_node2"><a xlink:href="namespacea60.html#a7689c37750ba7a14c111ca3c52abe5eb" target="_top" xlink:title="Augment Tor Exit Nodes, object version. len starx 44x30 == 20.">
<polygon fill="white" stroke="#666666" points="239,-128 139,-128 139,-102 239,-102 239,-128"/>
<text text-anchor="start" x="147" y="-117.6" font-family="SourceSans" font-size="8.00">a60::augment_carto</text>
<text text-anchor="middle" x="189" y="-108.6" font-family="SourceSans" font-size="8.00">_exit_nodes</text>
</a>
</g>
</g>
<!-- Node1&#45;&gt;Node2 -->
<g id="edge1" class="edge">
<title>Node1&#45;&gt;Node2</title>
<path fill="none" stroke="#63b8ff" d="M100.07,-102.16C109.42,-103.53 119.29,-104.97 128.91,-106.37"/>
<polygon fill="#63b8ff" stroke="#63b8ff" points="128.41,-109.84 138.81,-107.82 129.42,-102.91 128.41,-109.84"/>
</g>
<!-- Node21 -->
<g id="node21" class="node">
<title>Node21</title>
<g id="a_node21"><a xlink:href="namespacea60.html#a1bf91ba66297e089d99c49d6a376c0ad" target="_top" xlink:title="NEW STYLE First composite with map, black on white.">
<polygon fill="white" stroke="#666666" points="242,-83.5 136,-83.5 136,-66.5 242,-66.5 242,-83.5"/>
<text text-anchor="middle" x="189" y="-73.1" font-family="SourceSans" font-size="8.00">a60::make_map_base</text>
</a>
</g>
</g>
<!-- Node1&#45;&gt;Node21 -->
<g id="edge23" class="edge">
<title>Node1&#45;&gt;Node21</title>
<path fill="none" stroke="#63b8ff" d="M100.07,-87.84C108.35,-86.63 117.04,-85.36 125.6,-84.11"/>
<polygon fill="#63b8ff" stroke="#63b8ff" points="126.17,-87.56 135.56,-82.66 125.16,-80.64 126.17,-87.56"/>
</g>
<!-- Node3 -->
<g id="node3" class="node">
<title>Node3</title>
<g id="a_node3"><a xlink:href="namespacea60.html#ae300214a10d2da331791de0275d9df6c" target="_top" xlink:title=" ">
<polygon fill="white" stroke="#666666" points="397,-194 281,-194 281,-168 397,-168 397,-194"/>
<text text-anchor="start" x="289" y="-183.6" font-family="SourceSans" font-size="8.00">a60::augment_ray_meta</text>
<text text-anchor="middle" x="339" y="-174.6" font-family="SourceSans" font-size="8.00">_peers</text>
</a>
</g>
</g>
<!-- Node2&#45;&gt;Node3 -->
<g id="edge2" class="edge">
<title>Node2&#45;&gt;Node3</title>
<path fill="none" stroke="#63b8ff" d="M214.31,-128.08C231.79,-137.25 256.05,-149.52 278,-159 282.12,-160.78 286.44,-162.55 290.79,-164.26"/>
<polygon fill="#63b8ff" stroke="#63b8ff" points="289.71,-167.59 300.3,-167.91 292.22,-161.06 289.71,-167.59"/>
</g>
<!-- Node6 -->
<g id="node6" class="node">
<title>Node6</title>
<g id="a_node6"><a xlink:href="namespacea60.html#a3c58a6378d57386252f6ec31d1fbb808" target="_top" xlink:title="Cache for whois calls.">
<polygon fill="white" stroke="#666666" points="393,-150 285,-150 285,-124 393,-124 393,-150"/>
<text text-anchor="start" x="293" y="-139.6" font-family="SourceSans" font-size="8.00">a60::cached_whois_to</text>
<text text-anchor="middle" x="339" y="-130.6" font-family="SourceSans" font-size="8.00">_meta_peer</text>
</a>
</g>
</g>
<!-- Node2&#45;&gt;Node6 -->
<g id="edge5" class="edge">
<title>Node2&#45;&gt;Node6</title>
<path fill="none" stroke="#63b8ff" d="M239.28,-122.33C250.71,-124.02 263.03,-125.86 274.96,-127.63"/>
<polygon fill="#63b8ff" stroke="#63b8ff" points="274.46,-131.09 284.87,-129.1 275.49,-124.17 274.46,-131.09"/>
</g>
<!-- Node16 -->
<g id="node16" class="node">
<title>Node16</title>
<g id="a_node16"><a xlink:href="namespacea60.html#a241f1edd5dab1f67b02a080b2833238c" target="_top" xlink:title="Create list of current Tor Exit Nodes.">
<polygon fill="white" stroke="#666666" points="390,-106 288,-106 288,-80 390,-80 390,-106"/>
<text text-anchor="start" x="296" y="-95.6" font-family="SourceSans" font-size="8.00">a60::exit_node_meta</text>
<text text-anchor="middle" x="339" y="-86.6" font-family="SourceSans" font-size="8.00">_peers</text>
</a>
</g>
</g>
<!-- Node2&#45;&gt;Node16 -->
<g id="edge15" class="edge">
<title>Node2&#45;&gt;Node16</title>
<path fill="none" stroke="#63b8ff" d="M239.28,-107.67C251.62,-105.84 265,-103.85 277.81,-101.95"/>
<polygon fill="#63b8ff" stroke="#63b8ff" points="278.55,-105.38 287.92,-100.44 277.52,-98.45 278.55,-105.38"/>
</g>
<!-- Node4 -->
<g id="node4" class="node">
<title>Node4</title>
<g id="a_node4"><a xlink:href="namespacea60.html#a63bf2b0abf68edc3f3e74a0811fe771b" target="_top" xlink:title="Error checking support. Null Island Check (aka latitude and longitude set to zero).">
<polygon fill="white" stroke="#666666" points="550.5,-236 443.5,-236 443.5,-210 550.5,-210 550.5,-236"/>
<text text-anchor="start" x="451.5" y="-225.6" font-family="SourceSans" font-size="8.00">a60::is_meta_peer_on</text>
<text text-anchor="middle" x="497" y="-216.6" font-family="SourceSans" font-size="8.00">_null_island</text>
</a>
</g>
</g>
<!-- Node3&#45;&gt;Node4 -->
<g id="edge3" class="edge">
<title>Node3&#45;&gt;Node4</title>
<path fill="none" stroke="#63b8ff" d="M388.5,-194.06C404.06,-198.25 421.45,-202.93 437.63,-207.29"/>
<polygon fill="#63b8ff" stroke="#63b8ff" points="436.96,-210.73 447.53,-209.95 438.78,-203.97 436.96,-210.73"/>
</g>
<!-- Node5 -->
<g id="node5" class="node">
<title>Node5</title>
<g id="a_node5"><a xlink:href="structa60_1_1carto_1_1cartography.html#a57e14cabb4993189316e369a27752a73" target="_top" xlink:title=" ">
<polygon fill="white" stroke="#666666" points="554.5,-192 439.5,-192 439.5,-166 554.5,-166 554.5,-192"/>
<text text-anchor="start" x="447.5" y="-181.6" font-family="SourceSans" font-size="8.00">a60::carto::cartography</text>
<text text-anchor="middle" x="497" y="-172.6" font-family="SourceSans" font-size="8.00">::to_point_2d</text>
</a>
</g>
</g>
<!-- Node3&#45;&gt;Node5 -->
<g id="edge4" class="edge">
<title>Node3&#45;&gt;Node5</title>
<path fill="none" stroke="#63b8ff" d="M397.2,-180.27C407.61,-180.13 418.56,-179.99 429.22,-179.86"/>
<polygon fill="#63b8ff" stroke="#63b8ff" points="429.37,-183.35 439.33,-179.73 429.28,-176.36 429.37,-183.35"/>
</g>
<!-- Node7 -->
<g id="node7" class="node">
<title>Node7</title>
<g id="a_node7"><a xlink:href="namespacea60.html#aa5a85040742ee6c68d51e0b91131eac9" target="_top" xlink:title="Use whois service to get more information about the netblock.">
<polygon fill="white" stroke="#666666" points="558,-145.5 436,-145.5 436,-128.5 558,-128.5 558,-145.5"/>
<text text-anchor="middle" x="497" y="-135.1" font-family="SourceSans" font-size="8.00">a60::whois_to_meta_peer</text>
</a>
</g>
</g>
<!-- Node6&#45;&gt;Node7 -->
<g id="edge6" class="edge">
<title>Node6&#45;&gt;Node7</title>
<path fill="none" stroke="#63b8ff" d="M393.25,-137C403.62,-137 414.64,-137 425.46,-137"/>
<polygon fill="#63b8ff" stroke="#63b8ff" points="425.75,-140.5 435.75,-137 425.75,-133.5 425.75,-140.5"/>
</g>
<!-- Node8 -->
<g id="node8" class="node">
<title>Node8</title>
<g id="a_node8"><a xlink:href="namespacea60_1_1geo.html#a5f9ec94084fb0de60a38f64865ae7de6" target="_top" xlink:title="Convert ISO 2 to ISO 3.">
<polygon fill="white" stroke="#666666" points="703.5,-188 599.5,-188 599.5,-162 703.5,-162 703.5,-188"/>
<text text-anchor="start" x="607.5" y="-177.6" font-family="SourceSans" font-size="8.00">a60::geo::alpha_2_to</text>
<text text-anchor="middle" x="651.5" y="-168.6" font-family="SourceSans" font-size="8.00">_alpha_3</text>
</a>
</g>
</g>
<!-- Node7&#45;&gt;Node8 -->
<g id="edge7" class="edge">
<title>Node7&#45;&gt;Node8</title>
<path fill="none" stroke="#63b8ff" d="M532.22,-145.53C549.13,-149.74 570.04,-154.95 589.55,-159.81"/>
<polygon fill="#63b8ff" stroke="#63b8ff" points="588.75,-163.22 599.3,-162.24 590.44,-156.43 588.75,-163.22"/>
</g>
<!-- Node15 -->
<g id="node15" class="node">
<title>Node15</title>
<g id="a_node15"><a xlink:href="namespacea60_1_1constants.html#a2fd5efb0c88809132a730787d05a080a" target="_top" xlink:title=" ">
<polygon fill="white" stroke="#666666" points="709,-143.5 594,-143.5 594,-126.5 709,-126.5 709,-143.5"/>
<text text-anchor="middle" x="651.5" y="-133.1" font-family="SourceSans" font-size="8.00">a60::constants::comma</text>
</a>
</g>
</g>
<!-- Node7&#45;&gt;Node15 -->
<g id="edge14" class="edge">
<title>Node7&#45;&gt;Node15</title>
<path fill="none" stroke="#63b8ff" d="M558.27,-136.21C566.56,-136.1 575.11,-135.99 583.51,-135.88"/>
<polygon fill="#63b8ff" stroke="#63b8ff" points="583.69,-139.38 593.65,-135.75 583.6,-132.38 583.69,-139.38"/>
</g>
<!-- Node9 -->
<g id="node9" class="node">
<title>Node9</title>
<g id="a_node9"><a xlink:href="namespacea60_1_1geo.html#aa72939682c5a6daa05ddeb6103fde043" target="_top" xlink:title="ISO&#45;2 to ISO&#45;3.">
<polygon fill="white" stroke="#666666" points="866,-188 745,-188 745,-162 866,-162 866,-188"/>
<text text-anchor="start" x="753" y="-177.6" font-family="SourceSans" font-size="8.00">a60::geo::deserialize</text>
<text text-anchor="middle" x="805.5" y="-168.6" font-family="SourceSans" font-size="8.00">_json_to_iso_3166_2_map</text>
</a>
</g>
</g>
<!-- Node8&#45;&gt;Node9 -->
<g id="edge8" class="edge">
<title>Node8&#45;&gt;Node9</title>
<path fill="none" stroke="#63b8ff" d="M703.54,-175C713.6,-175 724.32,-175 734.88,-175"/>
<polygon fill="#63b8ff" stroke="#63b8ff" points="734.92,-178.5 744.92,-175 734.92,-171.5 734.92,-178.5"/>
</g>
<!-- Node10 -->
<g id="node10" class="node">
<title>Node10</title>
<g id="a_node10"><a xlink:href="namespacea60.html#a538d43bb9bfa488a54cea929736dbe2d" target="_top" xlink:title="Deserialize input file.">
<polygon fill="white" stroke="#666666" points="1011,-217 907,-217 907,-191 1011,-191 1011,-217"/>
<text text-anchor="start" x="915" y="-206.6" font-family="SourceSans" font-size="8.00">a60::deserialize_json</text>
<text text-anchor="middle" x="959" y="-197.6" font-family="SourceSans" font-size="8.00">_to_dom</text>
</a>
</g>
</g>
<!-- Node9&#45;&gt;Node10 -->
<g id="edge9" class="edge">
<title>Node9&#45;&gt;Node10</title>
<path fill="none" stroke="#63b8ff" d="M866.38,-186.46C876.43,-188.39 886.87,-190.38 896.94,-192.31"/>
<polygon fill="#63b8ff" stroke="#63b8ff" points="896.39,-195.77 906.87,-194.21 897.71,-188.9 896.39,-195.77"/>
</g>
<!-- Node11 -->
<g id="node11" class="node">
<title>Node11</title>
<g id="a_node11"><a xlink:href="namespacea60_1_1io.html#a16f17ea9e02c1975ca17b77e46cf7629" target="_top" xlink:title="Make sure a path ends in &#39;/&#39;;.">
<polygon fill="white" stroke="#666666" points="1004,-252.5 914,-252.5 914,-235.5 1004,-235.5 1004,-252.5"/>
<text text-anchor="middle" x="959" y="-242.1" font-family="SourceSans" font-size="8.00">a60::io::end_path</text>
</a>
</g>
</g>
<!-- Node9&#45;&gt;Node11 -->
<g id="edge10" class="edge">
<title>Node9&#45;&gt;Node11</title>
<path fill="none" stroke="#63b8ff" d="M828.33,-188.11C847.34,-199.17 875.87,-214.93 902,-226 907.17,-228.19 912.71,-230.27 918.21,-232.19"/>
<polygon fill="#63b8ff" stroke="#63b8ff" points="917.4,-235.61 927.99,-235.45 919.61,-228.97 917.4,-235.61"/>
</g>
<!-- Node12 -->
<g id="node12" class="node">
<title>Node12</title>
<g id="a_node12"><a xlink:href="namespacea60_1_1io.html#ac95e5271a27a23bc2336d84b3f821fa2" target="_top" xlink:title="Constant filesystem and run&#45;time resources.">
<polygon fill="white" stroke="#666666" points="1011,-137 907,-137 907,-111 1011,-111 1011,-137"/>
<text text-anchor="start" x="915" y="-126.6" font-family="SourceSans" font-size="8.00">a60::io::get_run_time</text>
<text text-anchor="middle" x="959" y="-117.6" font-family="SourceSans" font-size="8.00">_resources</text>
</a>
</g>
</g>
<!-- Node9&#45;&gt;Node12 -->
<g id="edge11" class="edge">
<title>Node9&#45;&gt;Node12</title>
<path fill="none" stroke="#63b8ff" d="M845.12,-162C864.72,-155.4 888.73,-147.32 909.56,-140.31"/>
<polygon fill="#63b8ff" stroke="#63b8ff" points="910.82,-143.57 919.19,-137.07 908.59,-136.94 910.82,-143.57"/>
</g>
<!-- Node13 -->
<g id="node13" class="node">
<title>Node13</title>
<g id="a_node13"><a xlink:href="namespacea60.html#a0fc88c5c87f54b303a1856bc2aa76a45" target="_top" xlink:title=" ">
<polygon fill="white" stroke="#666666" points="1016,-172.5 902,-172.5 902,-155.5 1016,-155.5 1016,-172.5"/>
<text text-anchor="middle" x="959" y="-162.1" font-family="SourceSans" font-size="8.00">a60::insert_to_iso_3166</text>
</a>
</g>
</g>
<!-- Node9&#45;&gt;Node13 -->
<g id="edge12" class="edge">
<title>Node9&#45;&gt;Node13</title>
<path fill="none" stroke="#63b8ff" d="M866.38,-170.65C874.61,-170.05 883.1,-169.44 891.45,-168.83"/>
<polygon fill="#63b8ff" stroke="#63b8ff" points="891.8,-172.32 901.52,-168.1 891.29,-165.33 891.8,-172.32"/>
</g>
<!-- Node14 -->
<g id="node14" class="node">
<title>Node14</title>
<g id="a_node14"><a xlink:href="namespacea60_1_1io.html#aa5fbb8ab63397dd45c4a54c0758935ef" target="_top" xlink:title="Sanity check input existence.">
<polygon fill="white" stroke="#666666" points="1011,-74 907,-74 907,-48 1011,-48 1011,-74"/>
<text text-anchor="start" x="915" y="-63.6" font-family="SourceSans" font-size="8.00">a60::io::sanity_check</text>
<text text-anchor="middle" x="959" y="-54.6" font-family="SourceSans" font-size="8.00">_input</text>
</a>
</g>
</g>
<!-- Node9&#45;&gt;Node14 -->
<g id="edge13" class="edge">
<title>Node9&#45;&gt;Node14</title>
<path fill="none" stroke="#63b8ff" d="M823.33,-161.97C842.34,-147.29 874.26,-122.75 902,-102 911.68,-94.76 922.37,-86.9 931.79,-80.02"/>
<polygon fill="#63b8ff" stroke="#63b8ff" points="934,-82.73 940.02,-74.02 929.88,-77.08 934,-82.73"/>
</g>
<!-- Node17 -->
<g id="node17" class="node">
<title>Node17</title>
<g id="a_node17"><a xlink:href="namespacea60.html#a55d7f8d5aa523f5270d478a635ee03b4" target="_top" xlink:title="Survey current tor exit nodes and convert into meta_peers. Assume input list is sorted low to high,...">
<polygon fill="white" stroke="#666666" points="703,-106 600,-106 600,-80 703,-80 703,-106"/>
<text text-anchor="start" x="608" y="-95.6" font-family="SourceSans" font-size="8.00">a60::make_exit_node</text>
<text text-anchor="middle" x="651.5" y="-86.6" font-family="SourceSans" font-size="8.00">_meta_peers</text>
</a>
</g>
</g>
<!-- Node16&#45;&gt;Node17 -->
<g id="edge16" class="edge">
<title>Node16&#45;&gt;Node17</title>
<path fill="none" stroke="#63b8ff" d="M390.23,-93C444.64,-93 531.43,-93 589.66,-93"/>
<polygon fill="#63b8ff" stroke="#63b8ff" points="589.82,-96.5 599.82,-93 589.82,-89.5 589.82,-96.5"/>
</g>
<!-- Node17&#45;&gt;Node11 -->
<g id="edge17" class="edge">
<title>Node17&#45;&gt;Node11</title>
<path fill="none" stroke="#63b8ff" d="M692.23,-106.1C698.33,-109.32 704.2,-113.25 709,-118 736.43,-145.13 715,-172.73 745,-197 789.89,-233.31 856.86,-243.04 903.69,-244.97"/>
<polygon fill="#63b8ff" stroke="#63b8ff" points="903.85,-248.48 913.95,-245.29 904.06,-241.48 903.85,-248.48"/>
</g>
<!-- Node17&#45;&gt;Node12 -->
<g id="edge18" class="edge">
<title>Node17&#45;&gt;Node12</title>
<path fill="none" stroke="#63b8ff" d="M699.7,-106.06C714.13,-109.56 730.12,-112.94 745,-115 795.8,-122.05 854.02,-124.1 896.73,-124.51"/>
<polygon fill="#63b8ff" stroke="#63b8ff" points="896.95,-128.01 906.97,-124.57 896.99,-121.01 896.95,-128.01"/>
</g>
<!-- Node18 -->
<g id="node18" class="node">
<title>Node18</title>
<g id="a_node18"><a xlink:href="namespacea60.html#a439bb950e8e56f95462cb70ab0bab2f0" target="_top" xlink:title="Pruned line of text that starts with an IP4 address.">
<polygon fill="white" stroke="#666666" points="862,-106 749,-106 749,-80 862,-80 862,-106"/>
<text text-anchor="start" x="757" y="-95.6" font-family="SourceSans" font-size="8.00">a60::line_to_ip_address</text>
<text text-anchor="middle" x="805.5" y="-86.6" font-family="SourceSans" font-size="8.00">_as_string</text>
</a>
</g>
</g>
<!-- Node17&#45;&gt;Node18 -->
<g id="edge19" class="edge">
<title>Node17&#45;&gt;Node18</title>
<path fill="none" stroke="#63b8ff" d="M703.11,-93C714.47,-93 726.68,-93 738.55,-93"/>
<polygon fill="#63b8ff" stroke="#63b8ff" points="738.88,-96.5 748.87,-93 738.87,-89.5 738.88,-96.5"/>
</g>
<!-- Node19 -->
<g id="node19" class="node">
<title>Node19</title>
<g id="a_node19"><a xlink:href="namespacea60.html#ad300edc3a7396b9f52a64f37e9443891" target="_top" xlink:title="No GeoIP.">
<polygon fill="white" stroke="#666666" points="859,-61.5 752,-61.5 752,-44.5 859,-44.5 859,-61.5"/>
<text text-anchor="middle" x="805.5" y="-51.1" font-family="SourceSans" font-size="8.00">a60::make_meta_peer</text>
</a>
</g>
</g>
<!-- Node17&#45;&gt;Node19 -->
<g id="edge20" class="edge">
<title>Node17&#45;&gt;Node19</title>
<path fill="none" stroke="#63b8ff" d="M702.27,-79.9C721.56,-74.83 743.41,-69.08 761.95,-64.2"/>
<polygon fill="#63b8ff" stroke="#63b8ff" points="763.09,-67.52 771.87,-61.59 761.31,-60.75 763.09,-67.52"/>
</g>
<!-- Node20 -->
<g id="node20" class="node">
<title>Node20</title>
<g id="a_node20"><a xlink:href="structa60_1_1geo_1_1map__base.html#a9215731f10e2fa8488b0e081c2a5cef4" target="_top" xlink:title=" ">
<polygon fill="white" stroke="#666666" points="856.5,-26 754.5,-26 754.5,0 856.5,0 856.5,-26"/>
<text text-anchor="start" x="762.5" y="-15.6" font-family="SourceSans" font-size="8.00">a60::geo::map_base</text>
<text text-anchor="middle" x="805.5" y="-6.6" font-family="SourceSans" font-size="8.00">::open</text>
</a>
</g>
</g>
<!-- Node17&#45;&gt;Node20 -->
<g id="edge21" class="edge">
<title>Node17&#45;&gt;Node20</title>
<path fill="none" stroke="#63b8ff" d="M670.97,-79.82C689.19,-67.21 718.13,-48.22 745,-35 748.57,-33.25 752.31,-31.55 756.11,-29.93"/>
<polygon fill="#63b8ff" stroke="#63b8ff" points="757.66,-33.08 765.6,-26.07 755.02,-26.59 757.66,-33.08"/>
</g>
<!-- Node20&#45;&gt;Node14 -->
<g id="edge22" class="edge">
<title>Node20&#45;&gt;Node14</title>
<path fill="none" stroke="#63b8ff" d="M847.9,-26.12C866.26,-31.93 888.04,-38.83 907.36,-44.96"/>
<polygon fill="#63b8ff" stroke="#63b8ff" points="906.32,-48.3 916.91,-47.98 908.44,-41.63 906.32,-48.3"/>
</g>
<!-- Node22 -->
<g id="node22" class="node">
<title>Node22</title>
<g id="a_node22"><a xlink:href="namespacea60.html#a63203aef78ad674129103340323d3b63" target="_top" xlink:title="First layer.">
<polygon fill="white" stroke="#666666" points="400,-61.5 278,-61.5 278,-44.5 400,-44.5 400,-61.5"/>
<text text-anchor="middle" x="339" y="-51.1" font-family="SourceSans" font-size="8.00">a60::place_map_in_frame</text>
</a>
</g>
</g>
<!-- Node21&#45;&gt;Node22 -->
<g id="edge24" class="edge">
<title>Node21&#45;&gt;Node22</title>
<path fill="none" stroke="#63b8ff" d="M242.18,-67.24C251.44,-65.87 261.21,-64.41 270.82,-62.99"/>
<polygon fill="#63b8ff" stroke="#63b8ff" points="271.38,-66.44 280.75,-61.51 270.35,-59.52 271.38,-66.44"/>
</g>
</g>
</svg>
