<?xml version="1.0" encoding="UTF-8" standalone="no"?>
<!DOCTYPE svg PUBLIC "-//W3C//DTD SVG 1.1//EN"
 "http://www.w3.org/Graphics/SVG/1.1/DTD/svg11.dtd">
<!-- Generated by graphviz version 5.0.0 (0)
 -->
<!-- Title: a60::augment_carto_internet_exchanges Pages: 1 -->
<svg width="571pt" height="119pt"
 viewBox="0.00 0.00 571.00 119.00" xmlns="http://www.w3.org/2000/svg" xmlns:xlink="http://www.w3.org/1999/xlink">
<g id="graph0" class="graph" transform="scale(1 1) rotate(0) translate(4 115)">
<title>a60::augment_carto_internet_exchanges</title>
<!-- Node1 -->
<g id="node1" class="node">
<title>Node1</title>
<g id="a_node1"><a xlink:title="Augment Internet Exchanges object version.">
<polygon fill="#999999" stroke="#666666" points="101,-89 0,-89 0,-63 101,-63 101,-89"/>
<text text-anchor="start" x="8" y="-78.6" font-family="SourceSans" font-size="8.00">a60::augment_carto</text>
<text text-anchor="middle" x="50.5" y="-69.6" font-family="SourceSans" font-size="8.00">_internet_exchanges</text>
</a>
</g>
</g>
<!-- Node2 -->
<g id="node2" class="node">
<title>Node2</title>
<g id="a_node2"><a xlink:href="namespacea60_1_1io.html#ac95e5271a27a23bc2336d84b3f821fa2" target="_top" xlink:title="Constant filesystem and run&#45;time resources.">
<polygon fill="white" stroke="#666666" points="248.5,-111 144.5,-111 144.5,-85 248.5,-85 248.5,-111"/>
<text text-anchor="start" x="152.5" y="-100.6" font-family="SourceSans" font-size="8.00">a60::io::get_run_time</text>
<text text-anchor="middle" x="196.5" y="-91.6" font-family="SourceSans" font-size="8.00">_resources</text>
</a>
</g>
</g>
<!-- Node1&#45;&gt;Node2 -->
<g id="edge1" class="edge">
<title>Node1&#45;&gt;Node2</title>
<path fill="none" stroke="#63b8ff" d="M101.06,-83.57C111.77,-85.21 123.22,-86.96 134.32,-88.65"/>
<polygon fill="#63b8ff" stroke="#63b8ff" points="133.97,-92.14 144.38,-90.19 135.03,-85.22 133.97,-92.14"/>
</g>
<!-- Node3 -->
<g id="node3" class="node">
<title>Node3</title>
<g id="a_node3"><a xlink:href="namespacea60.html#a5c255db0f946c551b27e986732315040" target="_top" xlink:title="Create x or cross marks at internet exchanges (ix)">
<polygon fill="white" stroke="#666666" points="256,-67 137,-67 137,-41 256,-41 256,-67"/>
<text text-anchor="start" x="145" y="-56.6" font-family="SourceSans" font-size="8.00">a60::internet_exchanges</text>
<text text-anchor="middle" x="196.5" y="-47.6" font-family="SourceSans" font-size="8.00">_geojson</text>
</a>
</g>
</g>
<!-- Node1&#45;&gt;Node3 -->
<g id="edge2" class="edge">
<title>Node1&#45;&gt;Node3</title>
<path fill="none" stroke="#63b8ff" d="M101.06,-68.43C109.36,-67.16 118.11,-65.82 126.79,-64.5"/>
<polygon fill="#63b8ff" stroke="#63b8ff" points="127.56,-67.92 136.92,-62.95 126.51,-61 127.56,-67.92"/>
</g>
<!-- Node4 -->
<g id="node4" class="node">
<title>Node4</title>
<g id="a_node4"><a xlink:href="namespacea60.html#af45982273a7a2e61b6aaa436081238c0" target="_top" xlink:title="Load JSON file to in&#45;memory DOM.">
<polygon fill="white" stroke="#666666" points="403,-108 299,-108 299,-82 403,-82 403,-108"/>
<text text-anchor="start" x="307" y="-97.6" font-family="SourceSans" font-size="8.00">a60::deserialize_json</text>
<text text-anchor="middle" x="351" y="-88.6" font-family="SourceSans" font-size="8.00">_to_dom_object</text>
</a>
</g>
</g>
<!-- Node3&#45;&gt;Node4 -->
<g id="edge3" class="edge">
<title>Node3&#45;&gt;Node4</title>
<path fill="none" stroke="#63b8ff" d="M246.17,-67.09C260.69,-70.99 276.74,-75.3 291.8,-79.35"/>
<polygon fill="#63b8ff" stroke="#63b8ff" points="290.96,-82.75 301.53,-81.97 292.78,-75.99 290.96,-82.75"/>
</g>
<!-- Node6 -->
<g id="node6" class="node">
<title>Node6</title>
<g id="a_node6"><a xlink:href="namespacea60_1_1constants.html#ac27c77e4606552ae5f74a1c21dd9258e" target="_top" xlink:title=" ">
<polygon fill="white" stroke="#666666" points="563,-62.5 446,-62.5 446,-45.5 563,-45.5 563,-62.5"/>
<text text-anchor="middle" x="504.5" y="-52.1" font-family="SourceSans" font-size="8.00">a60::constants::newline</text>
</a>
</g>
</g>
<!-- Node3&#45;&gt;Node6 -->
<g id="edge5" class="edge">
<title>Node3&#45;&gt;Node6</title>
<path fill="none" stroke="#63b8ff" d="M256.14,-54C307.41,-54 381.88,-54 435.7,-54"/>
<polygon fill="#63b8ff" stroke="#63b8ff" points="435.84,-57.5 445.84,-54 435.84,-50.5 435.84,-57.5"/>
</g>
<!-- Node7 -->
<g id="node7" class="node">
<title>Node7</title>
<g id="a_node7"><a xlink:href="namespacea60.html#a3fdf876ab1d06c5cfd12a9018c231dd8" target="_top" xlink:title=" ">
<polygon fill="white" stroke="#666666" points="410,-26 292,-26 292,0 410,0 410,-26"/>
<text text-anchor="start" x="300" y="-15.6" font-family="SourceSans" font-size="8.00">a60::point_from_geojson</text>
<text text-anchor="middle" x="351" y="-6.6" font-family="SourceSans" font-size="8.00">_coordinate</text>
</a>
</g>
</g>
<!-- Node3&#45;&gt;Node7 -->
<g id="edge6" class="edge">
<title>Node3&#45;&gt;Node7</title>
<path fill="none" stroke="#63b8ff" d="M246.17,-40.91C260.69,-37.01 276.74,-32.7 291.8,-28.65"/>
<polygon fill="#63b8ff" stroke="#63b8ff" points="292.78,-32.01 301.53,-26.03 290.96,-25.25 292.78,-32.01"/>
</g>
<!-- Node5 -->
<g id="node5" class="node">
<title>Node5</title>
<g id="a_node5"><a xlink:href="namespacea60.html#a538d43bb9bfa488a54cea929736dbe2d" target="_top" xlink:title="Deserialize input file.">
<polygon fill="white" stroke="#666666" points="556.5,-108 452.5,-108 452.5,-82 556.5,-82 556.5,-108"/>
<text text-anchor="start" x="460.5" y="-97.6" font-family="SourceSans" font-size="8.00">a60::deserialize_json</text>
<text text-anchor="middle" x="504.5" y="-88.6" font-family="SourceSans" font-size="8.00">_to_dom</text>
</a>
</g>
</g>
<!-- Node4&#45;&gt;Node5 -->
<g id="edge4" class="edge">
<title>Node4&#45;&gt;Node5</title>
<path fill="none" stroke="#63b8ff" d="M403.29,-95C415.75,-95 429.21,-95 442.09,-95"/>
<polygon fill="#63b8ff" stroke="#63b8ff" points="442.26,-98.5 452.26,-95 442.26,-91.5 442.26,-98.5"/>
</g>
<!-- Node7&#45;&gt;Node6 -->
<g id="edge7" class="edge">
<title>Node7&#45;&gt;Node6</title>
<path fill="none" stroke="#63b8ff" d="M400.35,-26.09C420.17,-31.45 442.88,-37.6 461.94,-42.75"/>
<polygon fill="#63b8ff" stroke="#63b8ff" points="461.26,-46.19 471.82,-45.43 463.08,-39.44 461.26,-46.19"/>
</g>
<!-- Node8 -->
<g id="node8" class="node">
<title>Node8</title>
<g id="a_node8"><a xlink:href="structa60_1_1carto_1_1cartography.html#a57e14cabb4993189316e369a27752a73" target="_top" xlink:title=" ">
<polygon fill="white" stroke="#666666" points="562,-26 447,-26 447,0 562,0 562,-26"/>
<text text-anchor="start" x="455" y="-15.6" font-family="SourceSans" font-size="8.00">a60::carto::cartography</text>
<text text-anchor="middle" x="504.5" y="-6.6" font-family="SourceSans" font-size="8.00">::to_point_2d</text>
</a>
</g>
</g>
<!-- Node7&#45;&gt;Node8 -->
<g id="edge8" class="edge">
<title>Node7&#45;&gt;Node8</title>
<path fill="none" stroke="#63b8ff" d="M410.14,-13C418.78,-13 427.74,-13 436.54,-13"/>
<polygon fill="#63b8ff" stroke="#63b8ff" points="436.76,-16.5 446.76,-13 436.76,-9.5 436.76,-16.5"/>
</g>
</g>
</svg>
