<?xml version="1.0" encoding="UTF-8" standalone="no"?>
<!DOCTYPE svg PUBLIC "-//W3C//DTD SVG 1.1//EN"
 "http://www.w3.org/Graphics/SVG/1.1/DTD/svg11.dtd">
<!-- Generated by graphviz version 5.0.0 (0)
 -->
<!-- Title: a60::augment_collection_titles_2 Pages: 1 -->
<!--zoomable 175 -->
<svg id="main" version="1.1" xmlns="http://www.w3.org/2000/svg" xmlns:xlink="http://www.w3.org/1999/xlink" xml:space="preserve" onload="init(evt)">
<style type="text/css"><![CDATA[
.edge:hover path { stroke: red; }
.edge:hover polygon { stroke: red; fill: red; }
]]></style>
<script type="text/javascript"><![CDATA[
var edges = document.getElementsByTagName('g');
if (edges && edges.length) {
  for (var i=0;i<edges.length;i++) {
    if (edges[i].id.substr(0,4)=='edge') {
      edges[i].setAttribute('class','edge');
    }
  }
}
]]></script>
        <defs>
                <circle id="rim" cx="0" cy="0" r="7"/>
                <circle id="rim2" cx="0" cy="0" r="3.5"/>
                <g id="zoomPlus">
                        <use xlink:href="#rim" fill="#404040">
                                <set attributeName="fill" to="#808080" begin="zoomplus.mouseover" end="zoomplus.mouseout"/>
                        </use>
                        <path d="M-4,0h8M0,-4v8" fill="none" stroke="white" stroke-width="1.5" pointer-events="none"/>
                </g>
                <g id="zoomMin">
                        <use xlink:href="#rim" fill="#404040">
                                <set attributeName="fill" to="#808080" begin="zoomminus.mouseover" end="zoomminus.mouseout"/>
                        </use>
                        <path d="M-4,0h8" fill="none" stroke="white" stroke-width="1.5" pointer-events="none"/>
                </g>
                <g id="dirArrow">
                        <path fill="none" stroke="white" stroke-width="1.5" d="M0,-3.0v7 M-2.5,-0.5L0,-3.0L2.5,-0.5"/>
                </g>
               <g id="resetDef">
                       <use xlink:href="#rim2" fill="#404040">
                               <set attributeName="fill" to="#808080" begin="reset.mouseover" end="reset.mouseout"/>
                       </use>
               </g>
        </defs>

<script type="text/javascript">
var viewWidth = 567;
var viewHeight = 175;
var sectionId = 'dynsection-32';
</script>
<script xlink:href="svgpan.js"/>
<svg id="graph" class="graph">
<g id="viewport">
<title>a60::augment_collection_titles_2</title>
<!-- Node1 -->
<g id="node1" class="node">
<title>Node1</title>
<g id="a_node1"><a xlink:title="Whole earth, 1x, summary style (classic)">
<polygon fill="#999999" stroke="#666666" points="119,-81.5 0,-81.5 0,-55.5 119,-55.5 119,-81.5"/>
<text text-anchor="start" x="8" y="-71.1" font-family="SourceSans" font-size="8.00">a60::augment_collection</text>
<text text-anchor="middle" x="59.5" y="-62.1" font-family="SourceSans" font-size="8.00">_titles_2</text>
</a>
</g>
</g>
<!-- Node2 -->
<g id="node2" class="node">
<title>Node2</title>
<g id="a_node2"><a xlink:href="namespacea60.html#ad8f50fdaa7f0fdee7309f430e72ce72e" target="_top" xlink:title="Swarm_mode dominates.">
<polygon fill="white" stroke="#666666" points="291,-132 155,-132 155,-115 291,-115 291,-132"/>
<text text-anchor="middle" x="223" y="-121.6" font-family="SourceSans" font-size="8.00">a60::augment_sum_glyphs_2</text>
</a>
</g>
</g>
<!-- Node1&#45;&gt;Node2 -->
<g id="edge1" class="edge">
<title>Node1&#45;&gt;Node2</title>
<path fill="none" stroke="#63b8ff" d="M89.92,-81.51C108.38,-89.38 132.81,-99.26 155,-106.5 161.36,-108.58 168.13,-110.55 174.83,-112.38"/>
<polygon fill="#63b8ff" stroke="#63b8ff" points="173.97,-115.77 184.53,-114.94 175.76,-109 173.97,-115.77"/>
</g>
<!-- Node6 -->
<g id="node6" class="node">
<title>Node6</title>
<g id="a_node6"><a xlink:href="namespacea60_1_1carto.html#af59ef7858ef576e7f17b781f38436f28" target="_top" xlink:title=" ">
<polygon fill="white" stroke="#666666" points="284,-97 162,-97 162,-80 284,-80 284,-97"/>
<text text-anchor="middle" x="223" y="-86.6" font-family="SourceSans" font-size="8.00">a60::carto::frame_margin</text>
</a>
</g>
</g>
<!-- Node1&#45;&gt;Node6 -->
<g id="edge6" class="edge">
<title>Node1&#45;&gt;Node6</title>
<path fill="none" stroke="#63b8ff" d="M119.26,-75.78C129.9,-77.09 141.08,-78.48 152,-79.83"/>
<polygon fill="#63b8ff" stroke="#63b8ff" points="151.57,-83.3 161.93,-81.06 152.43,-76.36 151.57,-83.3"/>
</g>
<!-- Node7 -->
<g id="node7" class="node">
<title>Node7</title>
<g id="a_node7"><a xlink:href="structa60_1_1collection.html#a4b5f4e6148e18b08ccc033e200327cdf" target="_top" xlink:title="Display/output name for torrent collection, including partition, episode/multiepisode,...">
<polygon fill="white" stroke="#666666" points="278,-61.5 168,-61.5 168,-35.5 278,-35.5 278,-61.5"/>
<text text-anchor="start" x="176" y="-51.1" font-family="SourceSans" font-size="8.00">a60::collection::media</text>
<text text-anchor="middle" x="223" y="-42.1" font-family="SourceSans" font-size="8.00">_object_name</text>
</a>
</g>
</g>
<!-- Node1&#45;&gt;Node7 -->
<g id="edge7" class="edge">
<title>Node1&#45;&gt;Node7</title>
<path fill="none" stroke="#63b8ff" d="M119.26,-61.22C131.79,-59.67 145.08,-58.03 157.79,-56.45"/>
<polygon fill="#63b8ff" stroke="#63b8ff" points="158.35,-59.91 167.84,-55.21 157.49,-52.96 158.35,-59.91"/>
</g>
<!-- Node8 -->
<g id="node8" class="node">
<title>Node8</title>
<g id="a_node8"><a xlink:href="namespacea60.html#a9d17d06e9d4dfbebc3b6541240b5a6f6" target="_top" xlink:title=" ">
<polygon fill="white" stroke="#666666" points="288,-17 158,-17 158,0 288,0 288,-17"/>
<text text-anchor="middle" x="223" y="-6.6" font-family="SourceSans" font-size="8.00">a60::strip_dir_to_timestamp</text>
</a>
</g>
</g>
<!-- Node1&#45;&gt;Node8 -->
<g id="edge8" class="edge">
<title>Node1&#45;&gt;Node8</title>
<path fill="none" stroke="#63b8ff" d="M86.93,-55.42C105.64,-46.5 131.48,-34.83 155,-26.5 161.87,-24.07 169.23,-21.78 176.48,-19.7"/>
<polygon fill="#63b8ff" stroke="#63b8ff" points="177.51,-23.05 186.22,-17.01 175.65,-16.3 177.51,-23.05"/>
</g>
<!-- Node3 -->
<g id="node3" class="node">
<title>Node3</title>
<g id="a_node3"><a xlink:href="namespacea60.html#ac2702e5ee0d3e84919043e65e486f8cc" target="_top" xlink:title="Swarm_mode dominates.">
<polygon fill="white" stroke="#666666" points="449,-149 327,-149 327,-132 449,-132 449,-149"/>
<text text-anchor="middle" x="388" y="-138.6" font-family="SourceSans" font-size="8.00">a60::augment_sum_glyph</text>
</a>
</g>
</g>
<!-- Node2&#45;&gt;Node3 -->
<g id="edge2" class="edge">
<title>Node2&#45;&gt;Node3</title>
<path fill="none" stroke="#63b8ff" d="M291.24,-130.51C299.66,-131.39 308.28,-132.29 316.74,-133.17"/>
<polygon fill="#63b8ff" stroke="#63b8ff" points="316.65,-136.68 326.96,-134.24 317.37,-129.72 316.65,-136.68"/>
</g>
<!-- Node5 -->
<g id="node5" class="node">
<title>Node5</title>
<g id="a_node5"><a xlink:href="namespacea60.html#a75f5d9553ad7cfab9f6af56253bc746d" target="_top" xlink:title="Sum over vector glyphs, return as new summary glyph.">
<polygon fill="white" stroke="#666666" points="431,-114 345,-114 345,-97 431,-97 431,-114"/>
<text text-anchor="middle" x="388" y="-103.6" font-family="SourceSans" font-size="8.00">a60::sum_glyphs</text>
</a>
</g>
</g>
<!-- Node2&#45;&gt;Node5 -->
<g id="edge5" class="edge">
<title>Node2&#45;&gt;Node5</title>
<path fill="none" stroke="#63b8ff" d="M291.24,-116.07C305.64,-114.49 320.64,-112.83 334.39,-111.31"/>
<polygon fill="#63b8ff" stroke="#63b8ff" points="335.07,-114.76 344.63,-110.18 334.31,-107.8 335.07,-114.76"/>
</g>
<!-- Node4 -->
<g id="node4" class="node">
<title>Node4</title>
<g id="a_node4"><a xlink:href="namespacea60.html#a4e8b0cabed112734147b499bf0cc9029" target="_top" xlink:title="Conversion of resolution_mode to string.">
<polygon fill="white" stroke="#666666" points="559,-149 485,-149 485,-132 559,-132 559,-149"/>
<text text-anchor="middle" x="522" y="-138.6" font-family="SourceSans" font-size="8.00">a60::to_string</text>
</a>
</g>
</g>
<!-- Node3&#45;&gt;Node4 -->
<g id="edge3" class="edge">
<title>Node3&#45;&gt;Node4</title>
<path fill="none" stroke="#63b8ff" d="M449.21,-140.5C457.72,-140.5 466.36,-140.5 474.55,-140.5"/>
<polygon fill="#63b8ff" stroke="#63b8ff" points="474.66,-144 484.66,-140.5 474.66,-137 474.66,-144"/>
</g>
<!-- Node4&#45;&gt;Node4 -->
<g id="edge4" class="edge">
<title>Node4&#45;&gt;Node4</title>
<path fill="none" stroke="#63b8ff" d="M502.03,-149.19C491,-157.67 497.66,-167 522,-167 537.97,-167 546.33,-162.98 547.07,-157.82"/>
<polygon fill="#63b8ff" stroke="#63b8ff" points="550.07,-156.01 541.97,-149.19 544.04,-159.58 550.07,-156.01"/>
</g>
</g>
</svg>
        <g id="navigator" transform="translate(0 0)" fill="#404254">
                <rect fill="#f2f5e9" fill-opacity="0.5" stroke="#606060" stroke-width=".5" x="0" y="0" width="60" height="60"/>
                <use id="zoomplus" xlink:href="#zoomPlus" x="17" y="9" onmousedown="handleZoom(evt,'in')"/>
                <use id="zoomminus" xlink:href="#zoomMin" x="42" y="9" onmousedown="handleZoom(evt,'out')"/>
                <use id="reset" xlink:href="#resetDef" x="30" y="36" onmousedown="handleReset()"/>
                <g id="arrowUp" xlink:href="#dirArrow" transform="translate(30 24)" onmousedown="handlePan(0,-1)">
                  <use xlink:href="#rim" fill="#404040">
                        <set attributeName="fill" to="#808080" begin="arrowUp.mouseover" end="arrowUp.mouseout"/>
                  </use>
                  <path fill="none" stroke="white" stroke-width="1.5" d="M0,-3.0v7 M-2.5,-0.5L0,-3.0L2.5,-0.5"/>
                </g>
                <g id="arrowRight" xlink:href="#dirArrow" transform="rotate(90) translate(36 -43)" onmousedown="handlePan(1,0)">
                  <use xlink:href="#rim" fill="#404040">
                        <set attributeName="fill" to="#808080" begin="arrowRight.mouseover" end="arrowRight.mouseout"/>
                  </use>
                  <path fill="none" stroke="white" stroke-width="1.5" d="M0,-3.0v7 M-2.5,-0.5L0,-3.0L2.5,-0.5"/>
                </g>
                <g id="arrowDown" xlink:href="#dirArrow" transform="rotate(180) translate(-30 -48)" onmousedown="handlePan(0,1)">
                  <use xlink:href="#rim" fill="#404040">
                        <set attributeName="fill" to="#808080" begin="arrowDown.mouseover" end="arrowDown.mouseout"/>
                  </use>
                  <path fill="none" stroke="white" stroke-width="1.5" d="M0,-3.0v7 M-2.5,-0.5L0,-3.0L2.5,-0.5"/>
                </g>
                <g id="arrowLeft" xlink:href="#dirArrow" transform="rotate(270) translate(-36 17)" onmousedown="handlePan(-1,0)">
                  <use xlink:href="#rim" fill="#404040">
                        <set attributeName="fill" to="#808080" begin="arrowLeft.mouseover" end="arrowLeft.mouseout"/>
                  </use>
                  <path fill="none" stroke="white" stroke-width="1.5" d="M0,-3.0v7 M-2.5,-0.5L0,-3.0L2.5,-0.5"/>
                </g>
        </g>
        <svg viewBox="0 0 15 15" width="100%" height="30px" preserveAspectRatio="xMaxYMin meet">
         <g id="arrow_out" transform="scale(0.3 0.3)">
          <a xlink:href="namespacea60_a6988d87e92c20662cfa1e19ad5f4da6f_cgraph_org.svg" target="_base">
           <rect id="button" ry="5" rx="5" y="6" x="6" height="38" width="38"
                fill="#f2f5e9" fill-opacity="0.5" stroke="#606060" stroke-width="1.0"/>
           <path id="arrow"
             d="M 11.500037,31.436501 C 11.940474,20.09759 22.043105,11.32322 32.158766,21.979434 L 37.068811,17.246167 C 37.068811,17.246167 37.088388,32 37.088388,32 L 22.160133,31.978069 C 22.160133,31.978069 26.997745,27.140456 26.997745,27.140456 C 18.528582,18.264221 13.291696,25.230495 11.500037,31.436501 z"
             style="fill:#404040;"/>
          </a>
         </g>
        </svg>
</svg>
