<?xml version="1.0" encoding="UTF-8" standalone="no"?>
<!DOCTYPE svg PUBLIC "-//W3C//DTD SVG 1.1//EN"
 "http://www.w3.org/Graphics/SVG/1.1/DTD/svg11.dtd">
<!-- Generated by graphviz version 5.0.0 (0)
 -->
<!-- Title: a60::constants::to_string Pages: 1 -->
<svg width="253pt" height="123pt"
 viewBox="0.00 0.00 253.00 123.00" xmlns="http://www.w3.org/2000/svg" xmlns:xlink="http://www.w3.org/1999/xlink">
<g id="graph0" class="graph" transform="scale(1 1) rotate(0) translate(4 119)">
<title>a60::constants::to_string</title>
<!-- Node1 -->
<g id="node1" class="node">
<title>Node1</title>
<g id="a_node1"><a xlink:title="Convenience, masked value to value&#45;hyphenated string. So, sduration::week | sduration::cumulative wil...">
<polygon fill="#999999" stroke="#666666" points="93,-79.5 0,-79.5 0,-53.5 93,-53.5 93,-79.5"/>
<text text-anchor="start" x="8" y="-69.1" font-family="SourceSans" font-size="8.00">a60::constants::to</text>
<text text-anchor="middle" x="46.5" y="-60.1" font-family="SourceSans" font-size="8.00">_string</text>
</a>
</g>
</g>
<!-- Node2 -->
<g id="node2" class="node">
<title>Node2</title>
<g id="a_node2"><a xlink:href="namespacea60_1_1constants.html#a6338b74a1c5c6dc024b03069e07e34ac" target="_top" xlink:title=" ">
<polygon fill="white" stroke="#666666" points="245,-115 129,-115 129,-98 245,-98 245,-115"/>
<text text-anchor="middle" x="187" y="-104.6" font-family="SourceSans" font-size="8.00">a60::constants::hyphen</text>
</a>
</g>
</g>
<!-- Node1&#45;&gt;Node2 -->
<g id="edge1" class="edge">
<title>Node1&#45;&gt;Node2</title>
<path fill="none" stroke="#63b8ff" d="M92.85,-79.6C110.1,-84.58 129.6,-90.21 146.29,-95.03"/>
<polygon fill="#63b8ff" stroke="#63b8ff" points="145.69,-98.5 156.27,-97.91 147.63,-91.78 145.69,-98.5"/>
</g>
<!-- Node3 -->
<g id="node3" class="node">
<title>Node3</title>
<g id="a_node3"><a xlink:href="namespacea60_1_1constants.html#a4fe8ea1790a5351686bb5a033f0016f5" target="_top" xlink:title=" ">
<polygon fill="white" stroke="#666666" points="233,-79.5 141,-79.5 141,-53.5 233,-53.5 233,-79.5"/>
<text text-anchor="start" x="149" y="-69.1" font-family="SourceSans" font-size="8.00">a60::constants::is</text>
<text text-anchor="middle" x="187" y="-60.1" font-family="SourceSans" font-size="8.00">_sduration</text>
</a>
</g>
</g>
<!-- Node1&#45;&gt;Node3 -->
<g id="edge2" class="edge">
<title>Node1&#45;&gt;Node3</title>
<path fill="none" stroke="#63b8ff" d="M93.23,-66.5C105.18,-66.5 118.18,-66.5 130.56,-66.5"/>
<polygon fill="#63b8ff" stroke="#63b8ff" points="130.79,-70 140.79,-66.5 130.79,-63 130.79,-70"/>
</g>
<!-- Node4 -->
<g id="node4" class="node">
<title>Node4</title>
<g id="a_node4"><a xlink:href="namespacea60.html#a4e8b0cabed112734147b499bf0cc9029" target="_top" xlink:title="Conversion of resolution_mode to string.">
<polygon fill="white" stroke="#666666" points="224,-17 150,-17 150,0 224,0 224,-17"/>
<text text-anchor="middle" x="187" y="-6.6" font-family="SourceSans" font-size="8.00">a60::to_string</text>
</a>
</g>
</g>
<!-- Node1&#45;&gt;Node4 -->
<g id="edge3" class="edge">
<title>Node1&#45;&gt;Node4</title>
<path fill="none" stroke="#63b8ff" d="M78.58,-53.48C101.75,-43.78 133.21,-30.61 156.09,-21.03"/>
<polygon fill="#63b8ff" stroke="#63b8ff" points="157.45,-24.25 165.32,-17.16 154.75,-17.79 157.45,-24.25"/>
</g>
<!-- Node4&#45;&gt;Node4 -->
<g id="edge4" class="edge">
<title>Node4&#45;&gt;Node4</title>
<path fill="none" stroke="#63b8ff" d="M166.14,-17.19C154.62,-25.67 161.57,-35 187,-35 203.69,-35 212.42,-30.98 213.19,-25.82"/>
<polygon fill="#63b8ff" stroke="#63b8ff" points="216.09,-23.86 207.86,-17.19 210.14,-27.53 216.09,-23.86"/>
</g>
</g>
</svg>
