<?xml version="1.0" encoding="UTF-8" standalone="no"?>
<!DOCTYPE svg PUBLIC "-//W3C//DTD SVG 1.1//EN"
 "http://www.w3.org/Graphics/SVG/1.1/DTD/svg11.dtd">
<!-- Generated by graphviz version 5.0.0 (0)
 -->
<!-- Title: a60::augment_ccollection_text Pages: 1 -->
<!--zoomable 154 -->
<svg id="main" version="1.1" xmlns="http://www.w3.org/2000/svg" xmlns:xlink="http://www.w3.org/1999/xlink" xml:space="preserve" onload="init(evt)">
<style type="text/css"><![CDATA[
.edge:hover path { stroke: red; }
.edge:hover polygon { stroke: red; fill: red; }
]]></style>
<script type="text/javascript"><![CDATA[
var edges = document.getElementsByTagName('g');
if (edges && edges.length) {
  for (var i=0;i<edges.length;i++) {
    if (edges[i].id.substr(0,4)=='edge') {
      edges[i].setAttribute('class','edge');
    }
  }
}
]]></script>
        <defs>
                <circle id="rim" cx="0" cy="0" r="7"/>
                <circle id="rim2" cx="0" cy="0" r="3.5"/>
                <g id="zoomPlus">
                        <use xlink:href="#rim" fill="#404040">
                                <set attributeName="fill" to="#808080" begin="zoomplus.mouseover" end="zoomplus.mouseout"/>
                        </use>
                        <path d="M-4,0h8M0,-4v8" fill="none" stroke="white" stroke-width="1.5" pointer-events="none"/>
                </g>
                <g id="zoomMin">
                        <use xlink:href="#rim" fill="#404040">
                                <set attributeName="fill" to="#808080" begin="zoomminus.mouseover" end="zoomminus.mouseout"/>
                        </use>
                        <path d="M-4,0h8" fill="none" stroke="white" stroke-width="1.5" pointer-events="none"/>
                </g>
                <g id="dirArrow">
                        <path fill="none" stroke="white" stroke-width="1.5" d="M0,-3.0v7 M-2.5,-0.5L0,-3.0L2.5,-0.5"/>
                </g>
               <g id="resetDef">
                       <use xlink:href="#rim2" fill="#404040">
                               <set attributeName="fill" to="#808080" begin="reset.mouseover" end="reset.mouseout"/>
                       </use>
               </g>
        </defs>

<script type="text/javascript">
var viewWidth = 798;
var viewHeight = 154;
var sectionId = 'dynsection-16';
</script>
<script xlink:href="svgpan.js"/>
<svg id="graph" class="graph">
<g id="viewport">
<title>a60::augment_ccollection_text</title>
<!-- Node1 -->
<g id="node1" class="node">
<title>Node1</title>
<g id="a_node1"><a xlink:title="Text layer overlay.">
<polygon fill="#999999" stroke="#666666" points="142,-71 0,-71 0,-54 142,-54 142,-71"/>
<text text-anchor="middle" x="71" y="-60.6" font-family="SourceSans" font-size="8.00">a60::augment_ccollection_text</text>
</a>
</g>
</g>
<!-- Node2 -->
<g id="node2" class="node">
<title>Node2</title>
<g id="a_node2"><a xlink:href="namespacea60.html#ab4006d7794d9932d29555a8c2250d6f7" target="_top" xlink:title=" ">
<polygon fill="white" stroke="#666666" points="293,-97.5 191,-97.5 191,-71.5 293,-71.5 293,-97.5"/>
<text text-anchor="start" x="199" y="-87.1" font-family="SourceSans" font-size="8.00">a60::augment_peers</text>
<text text-anchor="middle" x="242" y="-78.1" font-family="SourceSans" font-size="8.00">_location</text>
</a>
</g>
</g>
<!-- Node1&#45;&gt;Node2 -->
<g id="edge1" class="edge">
<title>Node1&#45;&gt;Node2</title>
<path fill="none" stroke="#63b8ff" d="M137.34,-71.01C151.62,-72.86 166.66,-74.82 180.73,-76.65"/>
<polygon fill="#63b8ff" stroke="#63b8ff" points="180.41,-80.14 190.77,-77.96 181.31,-73.2 180.41,-80.14"/>
</g>
<!-- Node9 -->
<g id="node9" class="node">
<title>Node9</title>
<g id="a_node9"><a xlink:href="namespacea60.html#a6070ca9b0aaa2e721d0feacd175f429c" target="_top" xlink:title="Parameterize scaling normalizes on range (nfloor, nceil). nfloor == 2, 48 nceil == 396,...">
<polygon fill="white" stroke="#666666" points="306,-53.5 178,-53.5 178,-27.5 306,-27.5 306,-53.5"/>
<text text-anchor="start" x="186" y="-43.1" font-family="SourceSans" font-size="8.00">a60::augment_wgeo_peers</text>
<text text-anchor="middle" x="242" y="-34.1" font-family="SourceSans" font-size="8.00">_location</text>
</a>
</g>
</g>
<!-- Node1&#45;&gt;Node9 -->
<g id="edge8" class="edge">
<title>Node1&#45;&gt;Node9</title>
<path fill="none" stroke="#63b8ff" d="M137.34,-53.99C147.3,-52.7 157.64,-51.35 167.76,-50.03"/>
<polygon fill="#63b8ff" stroke="#63b8ff" points="168.31,-53.49 177.78,-48.73 167.41,-46.55 168.31,-53.49"/>
</g>
<!-- Node3 -->
<g id="node3" class="node">
<title>Node3</title>
<g id="a_node3"><a xlink:href="namespacea60.html#ac997b39099fe8c748ee393875dd23c9e" target="_top" xlink:title=" ">
<polygon fill="white" stroke="#666666" points="476,-91 342,-91 342,-74 476,-74 476,-91"/>
<text text-anchor="middle" x="409" y="-80.6" font-family="SourceSans" font-size="8.00">a60::augment_peer_location</text>
</a>
</g>
</g>
<!-- Node2&#45;&gt;Node3 -->
<g id="edge2" class="edge">
<title>Node2&#45;&gt;Node3</title>
<path fill="none" stroke="#63b8ff" d="M293.4,-83.89C305.44,-83.74 318.56,-83.58 331.49,-83.43"/>
<polygon fill="#63b8ff" stroke="#63b8ff" points="331.83,-86.92 341.78,-83.3 331.74,-79.92 331.83,-86.92"/>
</g>
<!-- Node4 -->
<g id="node4" class="node">
<title>Node4</title>
<g id="a_node4"><a xlink:href="namespacea60.html#a935512b7346e03fbd98295ec07511666" target="_top" xlink:title=" ">
<polygon fill="white" stroke="#666666" points="628,-146 512,-146 512,-129 628,-129 628,-146"/>
<text text-anchor="middle" x="570" y="-135.6" font-family="SourceSans" font-size="8.00">a60::augment_peer_text</text>
</a>
</g>
</g>
<!-- Node3&#45;&gt;Node4 -->
<g id="edge3" class="edge">
<title>Node3&#45;&gt;Node4</title>
<path fill="none" stroke="#63b8ff" d="M432.59,-91C453.2,-98.69 484.53,-110.18 512,-119.5 518.19,-121.6 524.79,-123.76 531.21,-125.81"/>
<polygon fill="#63b8ff" stroke="#63b8ff" points="530.5,-129.26 541.09,-128.94 532.62,-122.59 530.5,-129.26"/>
</g>
<!-- Node5 -->
<g id="node5" class="node">
<title>Node5</title>
<g id="a_node5"><a xlink:href="namespacea60.html#a67a216731ae229be675dbcbfa228d865" target="_top" xlink:title=" ">
<polygon fill="white" stroke="#666666" points="620.5,-111 519.5,-111 519.5,-94 620.5,-94 620.5,-111"/>
<text text-anchor="middle" x="570" y="-100.6" font-family="SourceSans" font-size="8.00">a60::convert_to_utf8</text>
</a>
</g>
</g>
<!-- Node3&#45;&gt;Node5 -->
<g id="edge4" class="edge">
<title>Node3&#45;&gt;Node5</title>
<path fill="none" stroke="#63b8ff" d="M476.05,-90.81C487.04,-92.19 498.39,-93.62 509.21,-94.98"/>
<polygon fill="#63b8ff" stroke="#63b8ff" points="509.04,-98.49 519.4,-96.26 509.92,-91.54 509.04,-98.49"/>
</g>
<!-- Node7 -->
<g id="node7" class="node">
<title>Node7</title>
<g id="a_node7"><a xlink:href="namespacea60.html#a63bf2b0abf68edc3f3e74a0811fe771b" target="_top" xlink:title="Error checking support. Null Island Check (aka latitude and longitude set to zero).">
<polygon fill="white" stroke="#666666" points="623.5,-75.5 516.5,-75.5 516.5,-49.5 623.5,-49.5 623.5,-75.5"/>
<text text-anchor="start" x="524.5" y="-65.1" font-family="SourceSans" font-size="8.00">a60::is_meta_peer_on</text>
<text text-anchor="middle" x="570" y="-56.1" font-family="SourceSans" font-size="8.00">_null_island</text>
</a>
</g>
</g>
<!-- Node3&#45;&gt;Node7 -->
<g id="edge6" class="edge">
<title>Node3&#45;&gt;Node7</title>
<path fill="none" stroke="#63b8ff" d="M476.05,-74.19C486.05,-72.93 496.35,-71.64 506.28,-70.39"/>
<polygon fill="#63b8ff" stroke="#63b8ff" points="506.99,-73.83 516.47,-69.11 506.12,-66.88 506.99,-73.83"/>
</g>
<!-- Node8 -->
<g id="node8" class="node">
<title>Node8</title>
<g id="a_node8"><a xlink:href="structa60_1_1carto_1_1cartography.html#a57e14cabb4993189316e369a27752a73" target="_top" xlink:title=" ">
<polygon fill="white" stroke="#666666" points="627.5,-31.5 512.5,-31.5 512.5,-5.5 627.5,-5.5 627.5,-31.5"/>
<text text-anchor="start" x="520.5" y="-21.1" font-family="SourceSans" font-size="8.00">a60::carto::cartography</text>
<text text-anchor="middle" x="570" y="-12.1" font-family="SourceSans" font-size="8.00">::to_point_2d</text>
</a>
</g>
</g>
<!-- Node3&#45;&gt;Node8 -->
<g id="edge7" class="edge">
<title>Node3&#45;&gt;Node8</title>
<path fill="none" stroke="#63b8ff" d="M439.68,-73.9C451.2,-70.23 464.39,-65.61 476,-60.5 492.75,-53.13 495.42,-48.26 512,-40.5 515.63,-38.8 519.42,-37.13 523.26,-35.51"/>
<polygon fill="#63b8ff" stroke="#63b8ff" points="524.87,-38.63 532.8,-31.6 522.22,-32.15 524.87,-38.63"/>
</g>
<!-- Node6 -->
<g id="node6" class="node">
<title>Node6</title>
<g id="a_node6"><a xlink:href="namespacea60.html#a1c4e23f164dec11b9fee53e2292af224" target="_top" xlink:title="Convert MaxMind GeoIP information from ISO&#45;8859&#45;1 encoding to UTF&#45;8.">
<polygon fill="white" stroke="#666666" points="790,-111 664,-111 664,-94 790,-94 790,-111"/>
<text text-anchor="middle" x="727" y="-100.6" font-family="SourceSans" font-size="8.00">a60::convert_8859_to_utf8</text>
</a>
</g>
</g>
<!-- Node5&#45;&gt;Node6 -->
<g id="edge5" class="edge">
<title>Node5&#45;&gt;Node6</title>
<path fill="none" stroke="#63b8ff" d="M620.9,-102.5C631.4,-102.5 642.68,-102.5 653.81,-102.5"/>
<polygon fill="#63b8ff" stroke="#63b8ff" points="653.97,-106 663.97,-102.5 653.97,-99 653.97,-106"/>
</g>
<!-- Node9&#45;&gt;Node3 -->
<g id="edge9" class="edge">
<title>Node9&#45;&gt;Node3</title>
<path fill="none" stroke="#63b8ff" d="M294.3,-53.56C316.84,-59.3 343.03,-65.96 364.58,-71.45"/>
<polygon fill="#63b8ff" stroke="#63b8ff" points="363.89,-74.88 374.44,-73.96 365.61,-68.1 363.89,-74.88"/>
</g>
<!-- Node10 -->
<g id="node10" class="node">
<title>Node10</title>
<g id="a_node10"><a xlink:href="namespacea60.html#a3ea049ae7ac9af3ba2edcc7f79d62fde" target="_top" xlink:title="Get min, max of weight in weighed peers.">
<polygon fill="white" stroke="#666666" points="465.5,-52 352.5,-52 352.5,-35 465.5,-35 465.5,-52"/>
<text text-anchor="middle" x="409" y="-41.6" font-family="SourceSans" font-size="8.00">a60::find_weight_range</text>
</a>
</g>
</g>
<!-- Node9&#45;&gt;Node10 -->
<g id="edge10" class="edge">
<title>Node9&#45;&gt;Node10</title>
<path fill="none" stroke="#63b8ff" d="M306.32,-41.65C318.06,-41.86 330.35,-42.09 342.16,-42.3"/>
<polygon fill="#63b8ff" stroke="#63b8ff" points="342.33,-45.81 352.39,-42.49 342.46,-38.81 342.33,-45.81"/>
</g>
<!-- Node11 -->
<g id="node11" class="node">
<title>Node11</title>
<g id="a_node11"><a xlink:href="namespacea60.html#a0d53d95ed1faf99432c1eaaa0d238732" target="_top" xlink:title="Normalize value from (min, max) on (nfloor, nceil)">
<polygon fill="white" stroke="#666666" points="469.5,-17 348.5,-17 348.5,0 469.5,0 469.5,-17"/>
<text text-anchor="middle" x="409" y="-6.6" font-family="SourceSans" font-size="8.00">a60::normalize_on_range</text>
</a>
</g>
</g>
<!-- Node9&#45;&gt;Node11 -->
<g id="edge11" class="edge">
<title>Node9&#45;&gt;Node11</title>
<path fill="none" stroke="#63b8ff" d="M306.32,-28.22C321.98,-25.18 338.61,-21.96 353.78,-19.02"/>
<polygon fill="#63b8ff" stroke="#63b8ff" points="354.88,-22.37 364.03,-17.03 353.54,-15.5 354.88,-22.37"/>
</g>
</g>
</svg>
        <g id="navigator" transform="translate(0 0)" fill="#404254">
                <rect fill="#f2f5e9" fill-opacity="0.5" stroke="#606060" stroke-width=".5" x="0" y="0" width="60" height="60"/>
                <use id="zoomplus" xlink:href="#zoomPlus" x="17" y="9" onmousedown="handleZoom(evt,'in')"/>
                <use id="zoomminus" xlink:href="#zoomMin" x="42" y="9" onmousedown="handleZoom(evt,'out')"/>
                <use id="reset" xlink:href="#resetDef" x="30" y="36" onmousedown="handleReset()"/>
                <g id="arrowUp" xlink:href="#dirArrow" transform="translate(30 24)" onmousedown="handlePan(0,-1)">
                  <use xlink:href="#rim" fill="#404040">
                        <set attributeName="fill" to="#808080" begin="arrowUp.mouseover" end="arrowUp.mouseout"/>
                  </use>
                  <path fill="none" stroke="white" stroke-width="1.5" d="M0,-3.0v7 M-2.5,-0.5L0,-3.0L2.5,-0.5"/>
                </g>
                <g id="arrowRight" xlink:href="#dirArrow" transform="rotate(90) translate(36 -43)" onmousedown="handlePan(1,0)">
                  <use xlink:href="#rim" fill="#404040">
                        <set attributeName="fill" to="#808080" begin="arrowRight.mouseover" end="arrowRight.mouseout"/>
                  </use>
                  <path fill="none" stroke="white" stroke-width="1.5" d="M0,-3.0v7 M-2.5,-0.5L0,-3.0L2.5,-0.5"/>
                </g>
                <g id="arrowDown" xlink:href="#dirArrow" transform="rotate(180) translate(-30 -48)" onmousedown="handlePan(0,1)">
                  <use xlink:href="#rim" fill="#404040">
                        <set attributeName="fill" to="#808080" begin="arrowDown.mouseover" end="arrowDown.mouseout"/>
                  </use>
                  <path fill="none" stroke="white" stroke-width="1.5" d="M0,-3.0v7 M-2.5,-0.5L0,-3.0L2.5,-0.5"/>
                </g>
                <g id="arrowLeft" xlink:href="#dirArrow" transform="rotate(270) translate(-36 17)" onmousedown="handlePan(-1,0)">
                  <use xlink:href="#rim" fill="#404040">
                        <set attributeName="fill" to="#808080" begin="arrowLeft.mouseover" end="arrowLeft.mouseout"/>
                  </use>
                  <path fill="none" stroke="white" stroke-width="1.5" d="M0,-3.0v7 M-2.5,-0.5L0,-3.0L2.5,-0.5"/>
                </g>
        </g>
        <svg viewBox="0 0 15 15" width="100%" height="30px" preserveAspectRatio="xMaxYMin meet">
         <g id="arrow_out" transform="scale(0.3 0.3)">
          <a xlink:href="namespacea60_ad1228ffd0fdb48bdb299b16f95e44fc3_cgraph_org.svg" target="_base">
           <rect id="button" ry="5" rx="5" y="6" x="6" height="38" width="38"
                fill="#f2f5e9" fill-opacity="0.5" stroke="#606060" stroke-width="1.0"/>
           <path id="arrow"
             d="M 11.500037,31.436501 C 11.940474,20.09759 22.043105,11.32322 32.158766,21.979434 L 37.068811,17.246167 C 37.068811,17.246167 37.088388,32 37.088388,32 L 22.160133,31.978069 C 22.160133,31.978069 26.997745,27.140456 26.997745,27.140456 C 18.528582,18.264221 13.291696,25.230495 11.500037,31.436501 z"
             style="fill:#404040;"/>
          </a>
         </g>
        </svg>
</svg>
