<?xml version="1.0" encoding="UTF-8" standalone="no"?>
<!DOCTYPE svg PUBLIC "-//W3C//DTD SVG 1.1//EN"
 "http://www.w3.org/Graphics/SVG/1.1/DTD/svg11.dtd">
<!-- Generated by graphviz version 5.0.0 (0)
 -->
<!-- Title: a60::unify_json_data_name_to_filename Pages: 1 -->
<svg width="396pt" height="132pt"
 viewBox="0.00 0.00 396.00 132.00" xmlns="http://www.w3.org/2000/svg" xmlns:xlink="http://www.w3.org/1999/xlink">
<g id="graph0" class="graph" transform="scale(1 1) rotate(0) translate(4 128)">
<title>a60::unify_json_data_name_to_filename</title>
<!-- Node1 -->
<g id="node1" class="node">
<title>Node1</title>
<g id="a_node1"><a xlink:title=" ">
<polygon fill="#999999" stroke="#666666" points="102,-84 0,-84 0,-58 102,-58 102,-84"/>
<text text-anchor="start" x="8" y="-73.6" font-family="SourceSans" font-size="8.00">a60::unify_json_data</text>
<text text-anchor="middle" x="51" y="-64.6" font-family="SourceSans" font-size="8.00">_name_to_filename</text>
</a>
</g>
</g>
<!-- Node2 -->
<g id="node2" class="node">
<title>Node2</title>
<g id="a_node2"><a xlink:href="namespacea60.html#af45982273a7a2e61b6aaa436081238c0" target="_top" xlink:title="Load JSON file to in&#45;memory DOM.">
<polygon fill="white" stroke="#666666" points="245,-124 141,-124 141,-98 245,-98 245,-124"/>
<text text-anchor="start" x="149" y="-113.6" font-family="SourceSans" font-size="8.00">a60::deserialize_json</text>
<text text-anchor="middle" x="193" y="-104.6" font-family="SourceSans" font-size="8.00">_to_dom_object</text>
</a>
</g>
</g>
<!-- Node1&#45;&gt;Node2 -->
<g id="edge1" class="edge">
<title>Node1&#45;&gt;Node2</title>
<path fill="none" stroke="#63b8ff" d="M97.84,-84.1C110.17,-87.62 123.64,-91.47 136.43,-95.12"/>
<polygon fill="#63b8ff" stroke="#63b8ff" points="135.48,-98.49 146.06,-97.87 137.4,-91.76 135.48,-98.49"/>
</g>
<!-- Node4 -->
<g id="node4" class="node">
<title>Node4</title>
<g id="a_node4"><a xlink:href="namespacea60_1_1io.html#aea30b8fc474f5a7b922516dc1e199037" target="_top" xlink:title="Takes a string representing a directory, returns a sorted list of contents as a std::vector&lt;string&gt;.">
<polygon fill="white" stroke="#666666" points="248,-79.5 138,-79.5 138,-62.5 248,-62.5 248,-79.5"/>
<text text-anchor="middle" x="193" y="-69.1" font-family="SourceSans" font-size="8.00">a60::io::populate_files</text>
</a>
</g>
</g>
<!-- Node1&#45;&gt;Node4 -->
<g id="edge3" class="edge">
<title>Node1&#45;&gt;Node4</title>
<path fill="none" stroke="#63b8ff" d="M102.15,-71C110.49,-71 119.25,-71 127.89,-71"/>
<polygon fill="#63b8ff" stroke="#63b8ff" points="127.94,-74.5 137.94,-71 127.94,-67.5 127.94,-74.5"/>
</g>
<!-- Node5 -->
<g id="node5" class="node">
<title>Node5</title>
<g id="a_node5"><a xlink:href="namespacea60_1_1io.html#afbc9bd4e46187119419128390e16a033" target="_top" xlink:title="Takes a string representing a directory, returns a list of contents as a std::vector&lt;string&gt;.">
<polygon fill="white" stroke="#666666" points="246.5,-26 139.5,-26 139.5,0 246.5,0 246.5,-26"/>
<text text-anchor="start" x="147.5" y="-15.6" font-family="SourceSans" font-size="8.00">a60::io::populate_sub</text>
<text text-anchor="middle" x="193" y="-6.6" font-family="SourceSans" font-size="8.00">_directories</text>
</a>
</g>
</g>
<!-- Node1&#45;&gt;Node5 -->
<g id="edge4" class="edge">
<title>Node1&#45;&gt;Node5</title>
<path fill="none" stroke="#63b8ff" d="M83.42,-57.98C103.36,-49.72 129.38,-38.94 150.95,-30.01"/>
<polygon fill="#63b8ff" stroke="#63b8ff" points="152.3,-33.23 160.2,-26.17 149.62,-26.77 152.3,-33.23"/>
</g>
<!-- Node3 -->
<g id="node3" class="node">
<title>Node3</title>
<g id="a_node3"><a xlink:href="namespacea60.html#a538d43bb9bfa488a54cea929736dbe2d" target="_top" xlink:title="Deserialize input file.">
<polygon fill="white" stroke="#666666" points="388,-124 284,-124 284,-98 388,-98 388,-124"/>
<text text-anchor="start" x="292" y="-113.6" font-family="SourceSans" font-size="8.00">a60::deserialize_json</text>
<text text-anchor="middle" x="336" y="-104.6" font-family="SourceSans" font-size="8.00">_to_dom</text>
</a>
</g>
</g>
<!-- Node2&#45;&gt;Node3 -->
<g id="edge2" class="edge">
<title>Node2&#45;&gt;Node3</title>
<path fill="none" stroke="#63b8ff" d="M245.3,-111C254.56,-111 264.28,-111 273.79,-111"/>
<polygon fill="#63b8ff" stroke="#63b8ff" points="273.97,-114.5 283.97,-111 273.97,-107.5 273.97,-114.5"/>
</g>
<!-- Node5&#45;&gt;Node5 -->
<g id="edge5" class="edge">
<title>Node5&#45;&gt;Node5</title>
<path fill="none" stroke="#63b8ff" d="M168.98,-26.06C161.69,-35.1 169.7,-44 193,-44 207.2,-44 215.72,-40.69 218.56,-36.07"/>
<polygon fill="#63b8ff" stroke="#63b8ff" points="222,-35.41 217.02,-26.06 215.08,-36.47 222,-35.41"/>
</g>
</g>
</svg>
