<?xml version="1.0" encoding="UTF-8" standalone="no"?>
<!DOCTYPE svg PUBLIC "-//W3C//DTD SVG 1.1//EN"
 "http://www.w3.org/Graphics/SVG/1.1/DTD/svg11.dtd">
<!-- Generated by graphviz version 5.0.0 (0)
 -->
<!-- Title: a60::metadata::render_ids_text_y Pages: 1 -->
<svg width="409pt" height="179pt"
 viewBox="0.00 0.00 409.00 178.81" xmlns="http://www.w3.org/2000/svg" xmlns:xlink="http://www.w3.org/1999/xlink">
<g id="graph0" class="graph" transform="scale(1 1) rotate(0) translate(4 174.81)">
<title>a60::metadata::render_ids_text_y</title>
<!-- Node1 -->
<g id="node1" class="node">
<title>Node1</title>
<g id="a_node1"><a xlink:title="Vertical version of above. Use optimized vertical with shortest horizontal width possible (long names...">
<polygon fill="#999999" stroke="#666666" points="110,-105.5 0,-105.5 0,-79.5 110,-79.5 110,-105.5"/>
<text text-anchor="start" x="8" y="-95.1" font-family="SourceSans" font-size="8.00">a60::metadata::render</text>
<text text-anchor="middle" x="55" y="-86.1" font-family="SourceSans" font-size="8.00">_ids_text_y</text>
</a>
</g>
</g>
<!-- Node2 -->
<g id="node2" class="node">
<title>Node2</title>
<g id="a_node2"><a xlink:href="namespacea60_1_1metadata.html#abcd6d192e6ed0f853c3c6cd9bcf13cad" target="_top" xlink:title=" ">
<polygon fill="white" stroke="#666666" points="401,-169.5 303,-169.5 303,-143.5 401,-143.5 401,-169.5"/>
<text text-anchor="start" x="311" y="-159.1" font-family="SourceSans" font-size="8.00">a60::metadata::get</text>
<text text-anchor="middle" x="352" y="-150.1" font-family="SourceSans" font-size="8.00">_metadata_style</text>
</a>
</g>
</g>
<!-- Node1&#45;&gt;Node2 -->
<g id="edge1" class="edge">
<title>Node1&#45;&gt;Node2</title>
<path fill="none" stroke="#63b8ff" d="M68.2,-105.53C84.24,-121.6 114.14,-148.07 146,-158.5 193.65,-174.1 250.94,-171.92 292.83,-166.81"/>
<polygon fill="#63b8ff" stroke="#63b8ff" points="293.4,-170.27 302.86,-165.5 292.49,-163.33 293.4,-170.27"/>
</g>
<!-- Node3 -->
<g id="node3" class="node">
<title>Node3</title>
<g id="a_node3"><a xlink:href="namespacea60_1_1metadata.html#aeba42336cc4f30ed9ee705111d3e82a9" target="_top" xlink:title="Typographic defaults for text labels.">
<polygon fill="white" stroke="#666666" points="255.5,-149.5 157.5,-149.5 157.5,-123.5 255.5,-123.5 255.5,-149.5"/>
<text text-anchor="start" x="165.5" y="-139.1" font-family="SourceSans" font-size="8.00">a60::metadata::get</text>
<text text-anchor="middle" x="206.5" y="-130.1" font-family="SourceSans" font-size="8.00">_metadata_typo</text>
</a>
</g>
</g>
<!-- Node1&#45;&gt;Node3 -->
<g id="edge2" class="edge">
<title>Node1&#45;&gt;Node3</title>
<path fill="none" stroke="#63b8ff" d="M100.45,-105.58C116.5,-110.3 134.78,-115.69 151.55,-120.62"/>
<polygon fill="#63b8ff" stroke="#63b8ff" points="150.64,-124 161.22,-123.47 152.62,-117.29 150.64,-124"/>
</g>
<!-- Node4 -->
<g id="node4" class="node">
<title>Node4</title>
<g id="a_node4"><a xlink:href="namespacea60_1_1metadata.html#abe322ca471be97b35424d804a9c62084" target="_top" xlink:title="Playing values are styled this way.">
<polygon fill="white" stroke="#666666" points="255.5,-105.5 157.5,-105.5 157.5,-79.5 255.5,-79.5 255.5,-105.5"/>
<text text-anchor="start" x="165.5" y="-95.1" font-family="SourceSans" font-size="8.00">a60::metadata::get</text>
<text text-anchor="middle" x="206.5" y="-86.1" font-family="SourceSans" font-size="8.00">_playing_style</text>
</a>
</g>
</g>
<!-- Node1&#45;&gt;Node4 -->
<g id="edge4" class="edge">
<title>Node1&#45;&gt;Node4</title>
<path fill="none" stroke="#63b8ff" d="M110.4,-92.5C122.4,-92.5 135.16,-92.5 147.3,-92.5"/>
<polygon fill="#63b8ff" stroke="#63b8ff" points="147.33,-96 157.33,-92.5 147.33,-89 147.33,-96"/>
</g>
<!-- Node5 -->
<g id="node5" class="node">
<title>Node5</title>
<g id="a_node5"><a xlink:href="namespacea60_1_1metadata.html#ab809b870c71701237f98849a7fe94a35" target="_top" xlink:title="Substitue &quot;&#45;&gt;&quot; for &quot;playing&quot; in input string s.">
<polygon fill="white" stroke="#666666" points="264.5,-61.5 148.5,-61.5 148.5,-35.5 264.5,-35.5 264.5,-61.5"/>
<text text-anchor="start" x="156.5" y="-51.1" font-family="SourceSans" font-size="8.00">a60::metadata::shorten</text>
<text text-anchor="middle" x="206.5" y="-42.1" font-family="SourceSans" font-size="8.00">_playing_value</text>
</a>
</g>
</g>
<!-- Node1&#45;&gt;Node5 -->
<g id="edge5" class="edge">
<title>Node1&#45;&gt;Node5</title>
<path fill="none" stroke="#63b8ff" d="M100.45,-79.42C116.5,-74.7 134.78,-69.31 151.55,-64.38"/>
<polygon fill="#63b8ff" stroke="#63b8ff" points="152.62,-67.71 161.22,-61.53 150.64,-61 152.62,-67.71"/>
</g>
<!-- Node6 -->
<g id="node6" class="node">
<title>Node6</title>
<g id="a_node6"><a xlink:href="namespacea60.html#a9a0e0fba3b668f9ff46f4f695867c070" target="_top" xlink:title=" ">
<polygon fill="white" stroke="#666666" points="267,-17 146,-17 146,0 267,0 267,-17"/>
<text text-anchor="middle" x="206.5" y="-6.6" font-family="SourceSans" font-size="8.00">a60::to_uppercase_string</text>
</a>
</g>
</g>
<!-- Node1&#45;&gt;Node6 -->
<g id="edge6" class="edge">
<title>Node1&#45;&gt;Node6</title>
<path fill="none" stroke="#63b8ff" d="M70.57,-79.36C87.57,-64.64 117.05,-40.96 146,-26.5 150.59,-24.21 155.53,-22.15 160.52,-20.31"/>
<polygon fill="#63b8ff" stroke="#63b8ff" points="161.78,-23.58 170.13,-17.05 159.53,-16.95 161.78,-23.58"/>
</g>
<!-- Node3&#45;&gt;Node2 -->
<g id="edge3" class="edge">
<title>Node3&#45;&gt;Node2</title>
<path fill="none" stroke="#63b8ff" d="M255.68,-143.22C267.51,-144.86 280.31,-146.65 292.56,-148.36"/>
<polygon fill="#63b8ff" stroke="#63b8ff" points="292.31,-151.85 302.7,-149.77 293.28,-144.92 292.31,-151.85"/>
</g>
</g>
</svg>
