<?xml version="1.0" encoding="UTF-8" standalone="no"?>
<!DOCTYPE svg PUBLIC "-//W3C//DTD SVG 1.1//EN"
 "http://www.w3.org/Graphics/SVG/1.1/DTD/svg11.dtd">
<!-- Generated by graphviz version 5.0.0 (0)
 -->
<!-- Title: a60::augment_base Pages: 1 -->
<!--zoomable 239 -->
<svg id="main" version="1.1" xmlns="http://www.w3.org/2000/svg" xmlns:xlink="http://www.w3.org/1999/xlink" xml:space="preserve" onload="init(evt)">
<style type="text/css"><![CDATA[
.edge:hover path { stroke: red; }
.edge:hover polygon { stroke: red; fill: red; }
]]></style>
<script type="text/javascript"><![CDATA[
var edges = document.getElementsByTagName('g');
if (edges && edges.length) {
  for (var i=0;i<edges.length;i++) {
    if (edges[i].id.substr(0,4)=='edge') {
      edges[i].setAttribute('class','edge');
    }
  }
}
]]></script>
        <defs>
                <circle id="rim" cx="0" cy="0" r="7"/>
                <circle id="rim2" cx="0" cy="0" r="3.5"/>
                <g id="zoomPlus">
                        <use xlink:href="#rim" fill="#404040">
                                <set attributeName="fill" to="#808080" begin="zoomplus.mouseover" end="zoomplus.mouseout"/>
                        </use>
                        <path d="M-4,0h8M0,-4v8" fill="none" stroke="white" stroke-width="1.5" pointer-events="none"/>
                </g>
                <g id="zoomMin">
                        <use xlink:href="#rim" fill="#404040">
                                <set attributeName="fill" to="#808080" begin="zoomminus.mouseover" end="zoomminus.mouseout"/>
                        </use>
                        <path d="M-4,0h8" fill="none" stroke="white" stroke-width="1.5" pointer-events="none"/>
                </g>
                <g id="dirArrow">
                        <path fill="none" stroke="white" stroke-width="1.5" d="M0,-3.0v7 M-2.5,-0.5L0,-3.0L2.5,-0.5"/>
                </g>
               <g id="resetDef">
                       <use xlink:href="#rim2" fill="#404040">
                               <set attributeName="fill" to="#808080" begin="reset.mouseover" end="reset.mouseout"/>
                       </use>
               </g>
        </defs>

<script type="text/javascript">
var viewWidth = 758;
var viewHeight = 239;
var sectionId = 'dynsection-0';
</script>
<script xlink:href="svgpan.js"/>
<svg id="graph" class="graph">
<g id="viewport">
<title>a60::augment_base</title>
<!-- Node1 -->
<g id="node1" class="node">
<title>Node1</title>
<g id="a_node1"><a xlink:title="Common parts of weighed collections.">
<polygon fill="#999999" stroke="#666666" points="99,-87 0,-87 0,-70 99,-70 99,-87"/>
<text text-anchor="middle" x="49.5" y="-76.6" font-family="SourceSans" font-size="8.00">a60::augment_base</text>
</a>
</g>
</g>
<!-- Node2 -->
<g id="node2" class="node">
<title>Node2</title>
<g id="a_node2"><a xlink:href="namespacea60.html#a578d5079a62c97b1fb3a1693a82d7430" target="_top" xlink:title="Base name for output for non&#45;map, data/info.">
<polygon fill="white" stroke="#666666" points="282,-87 136,-87 136,-70 282,-70 282,-87"/>
<text text-anchor="middle" x="209" y="-76.6" font-family="SourceSans" font-size="8.00">a60::augment_base_info_name</text>
</a>
</g>
</g>
<!-- Node1&#45;&gt;Node2 -->
<g id="edge1" class="edge">
<title>Node1&#45;&gt;Node2</title>
<path fill="none" stroke="#63b8ff" d="M99.04,-78.5C107.51,-78.5 116.53,-78.5 125.62,-78.5"/>
<polygon fill="#63b8ff" stroke="#63b8ff" points="125.88,-82 135.88,-78.5 125.88,-75 125.88,-82"/>
</g>
<!-- Node3 -->
<g id="node3" class="node">
<title>Node3</title>
<g id="a_node3"><a xlink:href="structa60_1_1collection.html#a80993af9aec8238db8e44da1e9a3c994" target="_top" xlink:title=" ">
<polygon fill="white" stroke="#666666" points="431.5,-101.5 328.5,-101.5 328.5,-75.5 431.5,-75.5 431.5,-101.5"/>
<text text-anchor="start" x="336.5" y="-91.1" font-family="SourceSans" font-size="8.00">a60::collection::slice</text>
<text text-anchor="middle" x="380" y="-82.1" font-family="SourceSans" font-size="8.00">_name_mangled</text>
</a>
</g>
</g>
<!-- Node1&#45;&gt;Node3 -->
<g id="edge17" class="edge">
<title>Node1&#45;&gt;Node3</title>
<path fill="none" stroke="#63b8ff" d="M82.75,-87.03C98.4,-90.74 117.55,-94.66 135,-96.5 197.18,-103.05 268.71,-99.39 318.18,-95.12"/>
<polygon fill="#63b8ff" stroke="#63b8ff" points="318.74,-98.58 328.38,-94.2 318.11,-91.61 318.74,-98.58"/>
</g>
<!-- Node8 -->
<g id="node8" class="node">
<title>Node8</title>
<g id="a_node8"><a xlink:href="namespacea60.html#af7680b43cbe9dfe398fb13de46e09895" target="_top" xlink:title="Base name for output with maps.">
<polygon fill="white" stroke="#666666" points="283,-161 135,-161 135,-144 283,-144 283,-161"/>
<text text-anchor="middle" x="209" y="-150.6" font-family="SourceSans" font-size="8.00">a60::augment_base_map_name</text>
</a>
</g>
</g>
<!-- Node1&#45;&gt;Node8 -->
<g id="edge7" class="edge">
<title>Node1&#45;&gt;Node8</title>
<path fill="none" stroke="#63b8ff" d="M62.59,-87.07C78.56,-98.08 107.83,-117.23 135,-129.5 144.54,-133.81 155.11,-137.64 165.19,-140.88"/>
<polygon fill="#63b8ff" stroke="#63b8ff" points="164.45,-144.32 175.04,-143.93 166.52,-137.63 164.45,-144.32"/>
</g>
<!-- Node10 -->
<g id="node10" class="node">
<title>Node10</title>
<g id="a_node10"><a xlink:href="namespacea60.html#a1bf91ba66297e089d99c49d6a376c0ad" target="_top" xlink:title="NEW STYLE First composite with map, black on white.">
<polygon fill="white" stroke="#666666" points="262,-17 156,-17 156,0 262,0 262,-17"/>
<text text-anchor="middle" x="209" y="-6.6" font-family="SourceSans" font-size="8.00">a60::make_map_base</text>
</a>
</g>
</g>
<!-- Node1&#45;&gt;Node10 -->
<g id="edge13" class="edge">
<title>Node1&#45;&gt;Node10</title>
<path fill="none" stroke="#63b8ff" d="M61.59,-69.84C77.14,-58.11 106.7,-37.28 135,-25.5 140.11,-23.37 145.53,-21.49 151.02,-19.81"/>
<polygon fill="#63b8ff" stroke="#63b8ff" points="152.25,-23.11 160.93,-17.04 150.36,-16.37 152.25,-23.11"/>
</g>
<!-- Node12 -->
<g id="node12" class="node">
<title>Node12</title>
<g id="a_node12"><a xlink:href="namespacea60.html#af951ad59a8649d55d5075079447bf0e7" target="_top" xlink:title="First composite with map, white on black.">
<polygon fill="white" stroke="#666666" points="279,-52 139,-52 139,-35 279,-35 279,-52"/>
<text text-anchor="middle" x="209" y="-41.6" font-family="SourceSans" font-size="8.00">a60::make_map_inverse_base</text>
</a>
</g>
</g>
<!-- Node1&#45;&gt;Node12 -->
<g id="edge15" class="edge">
<title>Node1&#45;&gt;Node12</title>
<path fill="none" stroke="#63b8ff" d="M89.03,-69.94C110.37,-65.2 137.09,-59.26 159.81,-54.21"/>
<polygon fill="#63b8ff" stroke="#63b8ff" points="160.59,-57.62 169.6,-52.03 159.08,-50.79 160.59,-57.62"/>
</g>
<!-- Node2&#45;&gt;Node3 -->
<g id="edge2" class="edge">
<title>Node2&#45;&gt;Node3</title>
<path fill="none" stroke="#63b8ff" d="M282.16,-82.77C294.17,-83.48 306.51,-84.21 318.2,-84.9"/>
<polygon fill="#63b8ff" stroke="#63b8ff" points="318.08,-88.4 328.27,-85.5 318.49,-81.41 318.08,-88.4"/>
</g>
<!-- Node4 -->
<g id="node4" class="node">
<title>Node4</title>
<g id="a_node4"><a xlink:href="structa60_1_1collection.html#a25b35cf4ac39da89d868fe2cf41b5acd" target="_top" xlink:title=" ">
<polygon fill="white" stroke="#666666" points="607,-97 477,-97 477,-80 607,-80 607,-97"/>
<text text-anchor="middle" x="542" y="-86.6" font-family="SourceSans" font-size="8.00">a60::collection::slice_name</text>
</a>
</g>
</g>
<!-- Node3&#45;&gt;Node4 -->
<g id="edge3" class="edge">
<title>Node3&#45;&gt;Node4</title>
<path fill="none" stroke="#63b8ff" d="M431.62,-88.5C442.74,-88.5 454.74,-88.5 466.57,-88.5"/>
<polygon fill="#63b8ff" stroke="#63b8ff" points="466.9,-92 476.9,-88.5 466.9,-85 466.9,-92"/>
</g>
<!-- Node5 -->
<g id="node5" class="node">
<title>Node5</title>
<g id="a_node5"><a xlink:href="namespacea60.html#ac7eddb2e330d8983ddc852edde5335c5" target="_top" xlink:title=" ">
<polygon fill="white" stroke="#666666" points="601.5,-134 482.5,-134 482.5,-117 601.5,-117 601.5,-134"/>
<text text-anchor="middle" x="542" y="-123.6" font-family="SourceSans" font-size="8.00">a60::to_lowercase_string</text>
</a>
</g>
</g>
<!-- Node3&#45;&gt;Node5 -->
<g id="edge4" class="edge">
<title>Node3&#45;&gt;Node5</title>
<path fill="none" stroke="#63b8ff" d="M431.62,-100.21C451.66,-104.84 474.55,-110.13 494.2,-114.68"/>
<polygon fill="#63b8ff" stroke="#63b8ff" points="493.61,-118.13 504.14,-116.98 495.19,-111.31 493.61,-118.13"/>
</g>
<!-- Node6 -->
<g id="node6" class="node">
<title>Node6</title>
<g id="a_node6"><a xlink:href="namespacea60.html#a11d9ffc210e8dca8410e7a5ad62deabc" target="_top" xlink:title=" ">
<polygon fill="white" stroke="#666666" points="598.5,-179.5 485.5,-179.5 485.5,-153.5 598.5,-153.5 598.5,-179.5"/>
<text text-anchor="start" x="493.5" y="-169.1" font-family="SourceSans" font-size="8.00">a60::to_replace_spaces</text>
<text text-anchor="middle" x="542" y="-160.1" font-family="SourceSans" font-size="8.00">_string</text>
</a>
</g>
</g>
<!-- Node3&#45;&gt;Node6 -->
<g id="edge5" class="edge">
<title>Node3&#45;&gt;Node6</title>
<path fill="none" stroke="#63b8ff" d="M401.42,-101.6C420.48,-113.49 449.97,-131.02 477,-143.5 481.7,-145.67 486.67,-147.77 491.68,-149.77"/>
<polygon fill="#63b8ff" stroke="#63b8ff" points="490.71,-153.14 501.3,-153.46 493.22,-146.61 490.71,-153.14"/>
</g>
<!-- Node7 -->
<g id="node7" class="node">
<title>Node7</title>
<g id="a_node7"><a xlink:href="namespacea60.html#a751f954fe64233f1dc6517220e4b5692" target="_top" xlink:title=" ">
<polygon fill="white" stroke="#666666" points="750,-175 643,-175 643,-158 750,-158 750,-175"/>
<text text-anchor="middle" x="696.5" y="-164.6" font-family="SourceSans" font-size="8.00">a60::to_replace_string</text>
</a>
</g>
</g>
<!-- Node6&#45;&gt;Node7 -->
<g id="edge6" class="edge">
<title>Node6&#45;&gt;Node7</title>
<path fill="none" stroke="#63b8ff" d="M598.92,-166.5C609.92,-166.5 621.53,-166.5 632.73,-166.5"/>
<polygon fill="#63b8ff" stroke="#63b8ff" points="632.88,-170 642.88,-166.5 632.88,-163 632.88,-170"/>
</g>
<!-- Node8&#45;&gt;Node3 -->
<g id="edge8" class="edge">
<title>Node8&#45;&gt;Node3</title>
<path fill="none" stroke="#63b8ff" d="M239.35,-143.97C252.76,-139.89 268.79,-134.76 283,-129.5 302.36,-122.34 323.5,-113.43 341,-105.75"/>
<polygon fill="#63b8ff" stroke="#63b8ff" points="342.58,-108.88 350.31,-101.63 339.75,-102.48 342.58,-108.88"/>
</g>
<!-- Node8&#45;&gt;Node5 -->
<g id="edge9" class="edge">
<title>Node8&#45;&gt;Node5</title>
<path fill="none" stroke="#63b8ff" d="M283.05,-146.54C339.51,-141.94 417.1,-135.61 472.4,-131.1"/>
<polygon fill="#63b8ff" stroke="#63b8ff" points="472.77,-134.58 482.46,-130.28 472.21,-127.6 472.77,-134.58"/>
</g>
<!-- Node8&#45;&gt;Node6 -->
<g id="edge10" class="edge">
<title>Node8&#45;&gt;Node6</title>
<path fill="none" stroke="#63b8ff" d="M283.05,-155.59C340.49,-158.02 419.81,-161.37 475.28,-163.72"/>
<polygon fill="#63b8ff" stroke="#63b8ff" points="475.21,-167.22 485.34,-164.15 475.5,-160.23 475.21,-167.22"/>
</g>
<!-- Node9 -->
<g id="node9" class="node">
<title>Node9</title>
<g id="a_node9"><a xlink:href="namespacea60.html#a4e8b0cabed112734147b499bf0cc9029" target="_top" xlink:title="Conversion of resolution_mode to string.">
<polygon fill="white" stroke="#666666" points="417,-213 343,-213 343,-196 417,-196 417,-213"/>
<text text-anchor="middle" x="380" y="-202.6" font-family="SourceSans" font-size="8.00">a60::to_string</text>
</a>
</g>
</g>
<!-- Node8&#45;&gt;Node9 -->
<g id="edge11" class="edge">
<title>Node8&#45;&gt;Node9</title>
<path fill="none" stroke="#63b8ff" d="M237.91,-161.09C266.25,-169.81 310.3,-183.36 341.64,-193"/>
<polygon fill="#63b8ff" stroke="#63b8ff" points="340.75,-196.39 351.33,-195.99 342.8,-189.7 340.75,-196.39"/>
</g>
<!-- Node9&#45;&gt;Node9 -->
<g id="edge12" class="edge">
<title>Node9&#45;&gt;Node9</title>
<path fill="none" stroke="#63b8ff" d="M355.86,-213.19C342.53,-221.67 350.57,-231 380,-231 400.23,-231 410.36,-226.59 410.37,-221.08"/>
<polygon fill="#63b8ff" stroke="#63b8ff" points="413.08,-218.86 404.14,-213.19 407.59,-223.2 413.08,-218.86"/>
</g>
<!-- Node11 -->
<g id="node11" class="node">
<title>Node11</title>
<g id="a_node11"><a xlink:href="namespacea60.html#a63203aef78ad674129103340323d3b63" target="_top" xlink:title="First layer.">
<polygon fill="white" stroke="#666666" points="441,-42 319,-42 319,-25 441,-25 441,-42"/>
<text text-anchor="middle" x="380" y="-31.6" font-family="SourceSans" font-size="8.00">a60::place_map_in_frame</text>
</a>
</g>
</g>
<!-- Node10&#45;&gt;Node11 -->
<g id="edge14" class="edge">
<title>Node10&#45;&gt;Node11</title>
<path fill="none" stroke="#63b8ff" d="M262.08,-16.2C277.67,-18.51 294.98,-21.07 311.41,-23.5"/>
<polygon fill="#63b8ff" stroke="#63b8ff" points="311.09,-26.99 321.5,-24.99 312.11,-20.07 311.09,-26.99"/>
</g>
<!-- Node12&#45;&gt;Node11 -->
<g id="edge16" class="edge">
<title>Node12&#45;&gt;Node11</title>
<path fill="none" stroke="#63b8ff" d="M279.23,-39.4C288.97,-38.83 298.99,-38.23 308.75,-37.66"/>
<polygon fill="#63b8ff" stroke="#63b8ff" points="309.03,-41.15 318.81,-37.06 308.62,-34.16 309.03,-41.15"/>
</g>
</g>
</svg>
        <g id="navigator" transform="translate(0 0)" fill="#404254">
                <rect fill="#f2f5e9" fill-opacity="0.5" stroke="#606060" stroke-width=".5" x="0" y="0" width="60" height="60"/>
                <use id="zoomplus" xlink:href="#zoomPlus" x="17" y="9" onmousedown="handleZoom(evt,'in')"/>
                <use id="zoomminus" xlink:href="#zoomMin" x="42" y="9" onmousedown="handleZoom(evt,'out')"/>
                <use id="reset" xlink:href="#resetDef" x="30" y="36" onmousedown="handleReset()"/>
                <g id="arrowUp" xlink:href="#dirArrow" transform="translate(30 24)" onmousedown="handlePan(0,-1)">
                  <use xlink:href="#rim" fill="#404040">
                        <set attributeName="fill" to="#808080" begin="arrowUp.mouseover" end="arrowUp.mouseout"/>
                  </use>
                  <path fill="none" stroke="white" stroke-width="1.5" d="M0,-3.0v7 M-2.5,-0.5L0,-3.0L2.5,-0.5"/>
                </g>
                <g id="arrowRight" xlink:href="#dirArrow" transform="rotate(90) translate(36 -43)" onmousedown="handlePan(1,0)">
                  <use xlink:href="#rim" fill="#404040">
                        <set attributeName="fill" to="#808080" begin="arrowRight.mouseover" end="arrowRight.mouseout"/>
                  </use>
                  <path fill="none" stroke="white" stroke-width="1.5" d="M0,-3.0v7 M-2.5,-0.5L0,-3.0L2.5,-0.5"/>
                </g>
                <g id="arrowDown" xlink:href="#dirArrow" transform="rotate(180) translate(-30 -48)" onmousedown="handlePan(0,1)">
                  <use xlink:href="#rim" fill="#404040">
                        <set attributeName="fill" to="#808080" begin="arrowDown.mouseover" end="arrowDown.mouseout"/>
                  </use>
                  <path fill="none" stroke="white" stroke-width="1.5" d="M0,-3.0v7 M-2.5,-0.5L0,-3.0L2.5,-0.5"/>
                </g>
                <g id="arrowLeft" xlink:href="#dirArrow" transform="rotate(270) translate(-36 17)" onmousedown="handlePan(-1,0)">
                  <use xlink:href="#rim" fill="#404040">
                        <set attributeName="fill" to="#808080" begin="arrowLeft.mouseover" end="arrowLeft.mouseout"/>
                  </use>
                  <path fill="none" stroke="white" stroke-width="1.5" d="M0,-3.0v7 M-2.5,-0.5L0,-3.0L2.5,-0.5"/>
                </g>
        </g>
        <svg viewBox="0 0 15 15" width="100%" height="30px" preserveAspectRatio="xMaxYMin meet">
         <g id="arrow_out" transform="scale(0.3 0.3)">
          <a xlink:href="namespacea60_afd267ab94266951ec08784e178349e3c_cgraph_org.svg" target="_base">
           <rect id="button" ry="5" rx="5" y="6" x="6" height="38" width="38"
                fill="#f2f5e9" fill-opacity="0.5" stroke="#606060" stroke-width="1.0"/>
           <path id="arrow"
             d="M 11.500037,31.436501 C 11.940474,20.09759 22.043105,11.32322 32.158766,21.979434 L 37.068811,17.246167 C 37.068811,17.246167 37.088388,32 37.088388,32 L 22.160133,31.978069 C 22.160133,31.978069 26.997745,27.140456 26.997745,27.140456 C 18.528582,18.264221 13.291696,25.230495 11.500037,31.436501 z"
             style="fill:#404040;"/>
          </a>
         </g>
        </svg>
</svg>
