<?xml version="1.0" encoding="UTF-8" standalone="no"?>
<!DOCTYPE svg PUBLIC "-//W3C//DTD SVG 1.1//EN"
 "http://www.w3.org/Graphics/SVG/1.1/DTD/svg11.dtd">
<!-- Generated by graphviz version 5.0.0 (0)
 -->
<!-- Title: a60::coalesce_each_hour Pages: 1 -->
<svg width="768pt" height="528pt"
 viewBox="0.00 0.00 768.00 527.50" xmlns="http://www.w3.org/2000/svg" xmlns:xlink="http://www.w3.org/1999/xlink">
<g id="graph0" class="graph" transform="scale(1 1) rotate(0) translate(4 523.5)">
<title>a60::coalesce_each_hour</title>
<!-- Node1 -->
<g id="node1" class="node">
<title>Node1</title>
<g id="a_node1"><a xlink:title="Inner loop for routine below, computing a per&#45;hour cache.">
<polygon fill="#999999" stroke="#666666" points="122,-380.5 0,-380.5 0,-363.5 122,-363.5 122,-380.5"/>
<text text-anchor="middle" x="61" y="-370.1" font-family="SourceSans" font-size="8.00">a60::coalesce_each_hour</text>
</a>
</g>
</g>
<!-- Node2 -->
<g id="node2" class="node">
<title>Node2</title>
<g id="a_node2"><a xlink:href="structa60_1_1collection.html#a772cab0c0123491c08a92fce4cf0eacb" target="_top" xlink:title=" ">
<polygon fill="white" stroke="#666666" points="287.5,-484 163.5,-484 163.5,-458 287.5,-458 287.5,-484"/>
<text text-anchor="start" x="171.5" y="-473.6" font-family="SourceSans" font-size="8.00">a60::collection::collection</text>
<text text-anchor="middle" x="225.5" y="-464.6" font-family="SourceSans" font-size="8.00">_archive_directory</text>
</a>
</g>
</g>
<!-- Node1&#45;&gt;Node2 -->
<g id="edge1" class="edge">
<title>Node1&#45;&gt;Node2</title>
<path fill="none" stroke="#63b8ff" d="M76.14,-380.61C102.29,-396.55 158.78,-430.96 194.01,-452.43"/>
<polygon fill="#63b8ff" stroke="#63b8ff" points="192.55,-455.63 202.91,-457.85 196.19,-449.66 192.55,-455.63"/>
</g>
<!-- Node5 -->
<g id="node5" class="node">
<title>Node5</title>
<g id="a_node5"><a xlink:href="structa60_1_1collection.html#a6c09e15effe8e57d54949bbfd8fb9db0" target="_top" xlink:title=" ">
<polygon fill="white" stroke="#666666" points="281,-409 170,-409 170,-383 281,-383 281,-409"/>
<text text-anchor="start" x="178" y="-398.6" font-family="SourceSans" font-size="8.00">a60::collection::rescue</text>
<text text-anchor="middle" x="225.5" y="-389.6" font-family="SourceSans" font-size="8.00">_meta_peers</text>
</a>
</g>
</g>
<!-- Node1&#45;&gt;Node5 -->
<g id="edge4" class="edge">
<title>Node1&#45;&gt;Node5</title>
<path fill="none" stroke="#63b8ff" d="M119.75,-380.53C132.76,-382.45 146.65,-384.5 159.93,-386.46"/>
<polygon fill="#63b8ff" stroke="#63b8ff" points="159.52,-389.94 169.93,-387.94 160.55,-383.02 159.52,-389.94"/>
</g>
<!-- Node14 -->
<g id="node14" class="node">
<title>Node14</title>
<g id="a_node14"><a xlink:href="namespacea60.html#a481196ce0dd2fed071183fa6e47ecd70" target="_top" xlink:title="Write out meta_peers for a specific ID at SUFFIX.">
<polygon fill="white" stroke="#666666" points="293,-338.5 158,-338.5 158,-321.5 293,-321.5 293,-338.5"/>
<text text-anchor="middle" x="225.5" y="-328.1" font-family="SourceSans" font-size="8.00">a60::reserialize_sample_json</text>
</a>
</g>
</g>
<!-- Node1&#45;&gt;Node14 -->
<g id="edge14" class="edge">
<title>Node1&#45;&gt;Node14</title>
<path fill="none" stroke="#63b8ff" d="M95.28,-363.4C120.22,-356.95 154.57,-348.07 181.59,-341.09"/>
<polygon fill="#63b8ff" stroke="#63b8ff" points="182.74,-344.41 191.55,-338.52 180.99,-337.63 182.74,-344.41"/>
</g>
<!-- Node21 -->
<g id="node21" class="node">
<title>Node21</title>
<g id="a_node21"><a xlink:href="namespacea60.html#a96be6f3a12e16a84ef5b465832f1657c" target="_top" xlink:title="Accumulate peers all files in all subdirectories of dir matching dirm. Where all files matching filem...">
<polygon fill="white" stroke="#666666" points="277.5,-141.5 173.5,-141.5 173.5,-124.5 277.5,-124.5 277.5,-141.5"/>
<text text-anchor="middle" x="225.5" y="-131.1" font-family="SourceSans" font-size="8.00">a60::usunique_peers</text>
</a>
</g>
</g>
<!-- Node1&#45;&gt;Node21 -->
<g id="edge21" class="edge">
<title>Node1&#45;&gt;Node21</title>
<path fill="none" stroke="#63b8ff" d="M67.78,-363.49C91.37,-328.8 180.6,-197.57 212.81,-150.19"/>
<polygon fill="#63b8ff" stroke="#63b8ff" points="215.89,-151.89 218.62,-141.65 210.1,-147.96 215.89,-151.89"/>
</g>
<!-- Node3 -->
<g id="node3" class="node">
<title>Node3</title>
<g id="a_node3"><a xlink:href="namespacea60_1_1io.html#a16f17ea9e02c1975ca17b77e46cf7629" target="_top" xlink:title="Make sure a path ends in &#39;/&#39;;.">
<polygon fill="white" stroke="#666666" points="432,-519.5 342,-519.5 342,-502.5 432,-502.5 432,-519.5"/>
<text text-anchor="middle" x="387" y="-509.1" font-family="SourceSans" font-size="8.00">a60::io::end_path</text>
</a>
</g>
</g>
<!-- Node2&#45;&gt;Node3 -->
<g id="edge2" class="edge">
<title>Node2&#45;&gt;Node3</title>
<path fill="none" stroke="#63b8ff" d="M278.73,-484.1C299.15,-489.22 322.32,-495.03 341.89,-499.94"/>
<polygon fill="#63b8ff" stroke="#63b8ff" points="341.21,-503.38 351.76,-502.41 342.91,-496.59 341.21,-503.38"/>
</g>
<!-- Node4 -->
<g id="node4" class="node">
<title>Node4</title>
<g id="a_node4"><a xlink:href="namespacea60_1_1io.html#ac95e5271a27a23bc2336d84b3f821fa2" target="_top" xlink:title="Constant filesystem and run&#45;time resources.">
<polygon fill="white" stroke="#666666" points="439,-484 335,-484 335,-458 439,-458 439,-484"/>
<text text-anchor="start" x="343" y="-473.6" font-family="SourceSans" font-size="8.00">a60::io::get_run_time</text>
<text text-anchor="middle" x="387" y="-464.6" font-family="SourceSans" font-size="8.00">_resources</text>
</a>
</g>
</g>
<!-- Node2&#45;&gt;Node4 -->
<g id="edge3" class="edge">
<title>Node2&#45;&gt;Node4</title>
<path fill="none" stroke="#63b8ff" d="M287.71,-471C299.86,-471 312.61,-471 324.76,-471"/>
<polygon fill="#63b8ff" stroke="#63b8ff" points="324.8,-474.5 334.8,-471 324.8,-467.5 324.8,-474.5"/>
</g>
<!-- Node6 -->
<g id="node6" class="node">
<title>Node6</title>
<g id="a_node6"><a xlink:href="namespacea60.html#a24d75332c6079b3a73c8c69498455c55" target="_top" xlink:title="Try again to get geoip information for peers that are returning (0,0).">
<polygon fill="white" stroke="#666666" points="442.5,-404.5 331.5,-404.5 331.5,-387.5 442.5,-387.5 442.5,-404.5"/>
<text text-anchor="middle" x="387" y="-394.1" font-family="SourceSans" font-size="8.00">a60::rescue_lost_peers</text>
</a>
</g>
</g>
<!-- Node5&#45;&gt;Node6 -->
<g id="edge5" class="edge">
<title>Node5&#45;&gt;Node6</title>
<path fill="none" stroke="#63b8ff" d="M281.39,-396C294.12,-396 307.78,-396 320.9,-396"/>
<polygon fill="#63b8ff" stroke="#63b8ff" points="321.28,-399.5 331.28,-396 321.28,-392.5 321.28,-399.5"/>
</g>
<!-- Node13 -->
<g id="node13" class="node">
<title>Node13</title>
<g id="a_node13"><a xlink:href="namespacea60.html#a718120588394d0516778b6ad06793bf8" target="_top" xlink:title="See what peers have no country info or latitude/longitude.">
<polygon fill="white" stroke="#666666" points="442.5,-439.5 331.5,-439.5 331.5,-422.5 442.5,-422.5 442.5,-439.5"/>
<text text-anchor="middle" x="387" y="-429.1" font-family="SourceSans" font-size="8.00">a60::survey_lost_peers</text>
</a>
</g>
</g>
<!-- Node5&#45;&gt;Node13 -->
<g id="edge12" class="edge">
<title>Node5&#45;&gt;Node13</title>
<path fill="none" stroke="#63b8ff" d="M281.39,-408.05C299.47,-412.01 319.44,-416.39 337.05,-420.26"/>
<polygon fill="#63b8ff" stroke="#63b8ff" points="336.59,-423.74 347.11,-422.47 338.09,-416.9 336.59,-423.74"/>
</g>
<!-- Node7 -->
<g id="node7" class="node">
<title>Node7</title>
<g id="a_node7"><a xlink:href="namespacea60.html#ac39b0d667e2ffa7a1bf2df7cc4e5ac38" target="_top" xlink:title="IFF either of the above is true.">
<polygon fill="white" stroke="#666666" points="594.5,-443.5 483.5,-443.5 483.5,-426.5 594.5,-426.5 594.5,-443.5"/>
<text text-anchor="middle" x="539" y="-433.1" font-family="SourceSans" font-size="8.00">a60::is_meta_peer_lost</text>
</a>
</g>
</g>
<!-- Node6&#45;&gt;Node7 -->
<g id="edge6" class="edge">
<title>Node6&#45;&gt;Node7</title>
<path fill="none" stroke="#63b8ff" d="M420.92,-404.56C442.8,-410.25 471.75,-417.78 495.39,-423.92"/>
<polygon fill="#63b8ff" stroke="#63b8ff" points="494.6,-427.33 505.16,-426.46 496.36,-420.56 494.6,-427.33"/>
</g>
<!-- Node10 -->
<g id="node10" class="node">
<title>Node10</title>
<g id="a_node10"><a xlink:href="namespacea60.html#ad300edc3a7396b9f52a64f37e9443891" target="_top" xlink:title="No GeoIP.">
<polygon fill="white" stroke="#666666" points="592.5,-408.5 485.5,-408.5 485.5,-391.5 592.5,-391.5 592.5,-408.5"/>
<text text-anchor="middle" x="539" y="-398.1" font-family="SourceSans" font-size="8.00">a60::make_meta_peer</text>
</a>
</g>
</g>
<!-- Node6&#45;&gt;Node10 -->
<g id="edge9" class="edge">
<title>Node6&#45;&gt;Node10</title>
<path fill="none" stroke="#63b8ff" d="M442.58,-397.46C453.12,-397.74 464.24,-398.03 475.02,-398.32"/>
<polygon fill="#63b8ff" stroke="#63b8ff" points="475.13,-401.82 485.22,-398.59 475.31,-394.83 475.13,-401.82"/>
</g>
<!-- Node11 -->
<g id="node11" class="node">
<title>Node11</title>
<g id="a_node11"><a xlink:href="structa60_1_1geo_1_1map__base.html#a9215731f10e2fa8488b0e081c2a5cef4" target="_top" xlink:title=" ">
<polygon fill="white" stroke="#666666" points="590,-373 488,-373 488,-347 590,-347 590,-373"/>
<text text-anchor="start" x="496" y="-362.6" font-family="SourceSans" font-size="8.00">a60::geo::map_base</text>
<text text-anchor="middle" x="539" y="-353.6" font-family="SourceSans" font-size="8.00">::open</text>
</a>
</g>
</g>
<!-- Node6&#45;&gt;Node11 -->
<g id="edge10" class="edge">
<title>Node6&#45;&gt;Node11</title>
<path fill="none" stroke="#63b8ff" d="M423.55,-387.47C439.85,-383.56 459.63,-378.81 478.13,-374.37"/>
<polygon fill="#63b8ff" stroke="#63b8ff" points="479.04,-377.75 487.95,-372.01 477.41,-370.94 479.04,-377.75"/>
</g>
<!-- Node8 -->
<g id="node8" class="node">
<title>Node8</title>
<g id="a_node8"><a xlink:href="namespacea60.html#a63bf2b0abf68edc3f3e74a0811fe771b" target="_top" xlink:title="Error checking support. Null Island Check (aka latitude and longitude set to zero).">
<polygon fill="white" stroke="#666666" points="750,-476 643,-476 643,-450 750,-450 750,-476"/>
<text text-anchor="start" x="651" y="-465.6" font-family="SourceSans" font-size="8.00">a60::is_meta_peer_on</text>
<text text-anchor="middle" x="696.5" y="-456.6" font-family="SourceSans" font-size="8.00">_null_island</text>
</a>
</g>
</g>
<!-- Node7&#45;&gt;Node8 -->
<g id="edge7" class="edge">
<title>Node7&#45;&gt;Node8</title>
<path fill="none" stroke="#63b8ff" d="M587.5,-443.55C601.72,-446.11 617.55,-448.96 632.6,-451.67"/>
<polygon fill="#63b8ff" stroke="#63b8ff" points="632.41,-455.2 642.87,-453.52 633.65,-448.31 632.41,-455.2"/>
</g>
<!-- Node9 -->
<g id="node9" class="node">
<title>Node9</title>
<g id="a_node9"><a xlink:href="namespacea60.html#a0ff511c579a9f94ffff788b1cd4ae864" target="_top" xlink:title="Null Country Check.">
<polygon fill="white" stroke="#666666" points="760,-432 633,-432 633,-406 760,-406 760,-432"/>
<text text-anchor="start" x="641" y="-421.6" font-family="SourceSans" font-size="8.00">a60::is_meta_peer_without</text>
<text text-anchor="middle" x="696.5" y="-412.6" font-family="SourceSans" font-size="8.00">_country</text>
</a>
</g>
</g>
<!-- Node7&#45;&gt;Node9 -->
<g id="edge8" class="edge">
<title>Node7&#45;&gt;Node9</title>
<path fill="none" stroke="#63b8ff" d="M594.82,-429.36C603.88,-428.43 613.39,-427.45 622.8,-426.48"/>
<polygon fill="#63b8ff" stroke="#63b8ff" points="623.36,-429.94 632.94,-425.44 622.64,-422.98 623.36,-429.94"/>
</g>
<!-- Node12 -->
<g id="node12" class="node">
<title>Node12</title>
<g id="a_node12"><a xlink:href="namespacea60_1_1io.html#aa5fbb8ab63397dd45c4a54c0758935ef" target="_top" xlink:title="Sanity check input existence.">
<polygon fill="white" stroke="#666666" points="748.5,-373 644.5,-373 644.5,-347 748.5,-347 748.5,-373"/>
<text text-anchor="start" x="652.5" y="-362.6" font-family="SourceSans" font-size="8.00">a60::io::sanity_check</text>
<text text-anchor="middle" x="696.5" y="-353.6" font-family="SourceSans" font-size="8.00">_input</text>
</a>
</g>
</g>
<!-- Node11&#45;&gt;Node12 -->
<g id="edge11" class="edge">
<title>Node11&#45;&gt;Node12</title>
<path fill="none" stroke="#63b8ff" d="M590.06,-360C604.2,-360 619.74,-360 634.45,-360"/>
<polygon fill="#63b8ff" stroke="#63b8ff" points="634.47,-363.5 644.47,-360 634.47,-356.5 634.47,-363.5"/>
</g>
<!-- Node13&#45;&gt;Node7 -->
<g id="edge13" class="edge">
<title>Node13&#45;&gt;Node7</title>
<path fill="none" stroke="#63b8ff" d="M442.58,-432.46C452.57,-432.72 463.08,-433 473.33,-433.28"/>
<polygon fill="#63b8ff" stroke="#63b8ff" points="473.37,-436.78 483.46,-433.55 473.56,-429.78 473.37,-436.78"/>
</g>
<!-- Node15 -->
<g id="node15" class="node">
<title>Node15</title>
<g id="a_node15"><a xlink:href="namespacea60.html#aba8b47de875bd5bebeed9c57e3b52c06" target="_top" xlink:title="Serialize buffer to output file.">
<polygon fill="white" stroke="#666666" points="437.5,-359.5 336.5,-359.5 336.5,-342.5 437.5,-342.5 437.5,-359.5"/>
<text text-anchor="middle" x="387" y="-349.1" font-family="SourceSans" font-size="8.00">a60::serialize_buffer</text>
</a>
</g>
</g>
<!-- Node14&#45;&gt;Node15 -->
<g id="edge15" class="edge">
<title>Node14&#45;&gt;Node15</title>
<path fill="none" stroke="#63b8ff" d="M291.37,-338.54C302.86,-340.05 314.78,-341.62 326.13,-343.12"/>
<polygon fill="#63b8ff" stroke="#63b8ff" points="325.98,-346.63 336.35,-344.46 326.9,-339.69 325.98,-346.63"/>
</g>
<!-- Node16 -->
<g id="node16" class="node">
<title>Node16</title>
<g id="a_node16"><a xlink:href="namespacea60.html#a94d004bc4c17246fd2bb76cabb121d9a" target="_top" xlink:title="Per collection metadata for given duration.">
<polygon fill="white" stroke="#666666" points="445,-324 329,-324 329,-298 445,-298 445,-324"/>
<text text-anchor="start" x="337" y="-313.6" font-family="SourceSans" font-size="8.00">a60::serialize_collection</text>
<text text-anchor="middle" x="387" y="-304.6" font-family="SourceSans" font-size="8.00">_metadata_json</text>
</a>
</g>
</g>
<!-- Node14&#45;&gt;Node16 -->
<g id="edge16" class="edge">
<title>Node14&#45;&gt;Node16</title>
<path fill="none" stroke="#63b8ff" d="M293.22,-322.05C301.59,-321.05 310.17,-320.03 318.55,-319.03"/>
<polygon fill="#63b8ff" stroke="#63b8ff" points="319.15,-322.49 328.66,-317.83 318.32,-315.54 319.15,-322.49"/>
</g>
<!-- Node19 -->
<g id="node19" class="node">
<title>Node19</title>
<g id="a_node19"><a xlink:href="namespacea60.html#a87cd73602b7d6cf64ef441200cfda504" target="_top" xlink:title="Serialize vector of meta_peer.">
<polygon fill="white" stroke="#666666" points="436,-269 338,-269 338,-243 436,-243 436,-269"/>
<text text-anchor="start" x="346" y="-258.6" font-family="SourceSans" font-size="8.00">a60::serialize_meta</text>
<text text-anchor="middle" x="387" y="-249.6" font-family="SourceSans" font-size="8.00">_peers_json</text>
</a>
</g>
</g>
<!-- Node14&#45;&gt;Node19 -->
<g id="edge19" class="edge">
<title>Node14&#45;&gt;Node19</title>
<path fill="none" stroke="#63b8ff" d="M245.11,-321.37C270.39,-309.64 316.15,-288.41 348.66,-273.32"/>
<polygon fill="#63b8ff" stroke="#63b8ff" points="350.27,-276.44 357.87,-269.05 347.32,-270.09 350.27,-276.44"/>
</g>
<!-- Node17 -->
<g id="node17" class="node">
<title>Node17</title>
<g id="a_node17"><a xlink:href="structa60_1_1collection.html#a8ac066ef3bb824d0ecff3b1238e358e4" target="_top" xlink:title=" ">
<polygon fill="white" stroke="#666666" points="588,-329 490,-329 490,-303 588,-303 588,-329"/>
<text text-anchor="start" x="498" y="-318.6" font-family="SourceSans" font-size="8.00">a60::collection::get</text>
<text text-anchor="middle" x="539" y="-309.6" font-family="SourceSans" font-size="8.00">_name_from_tid</text>
</a>
</g>
</g>
<!-- Node16&#45;&gt;Node17 -->
<g id="edge17" class="edge">
<title>Node16&#45;&gt;Node17</title>
<path fill="none" stroke="#63b8ff" d="M445.14,-312.9C456.42,-313.28 468.28,-313.68 479.6,-314.05"/>
<polygon fill="#63b8ff" stroke="#63b8ff" points="479.71,-317.56 489.82,-314.39 479.94,-310.56 479.71,-317.56"/>
</g>
<!-- Node18 -->
<g id="node18" class="node">
<title>Node18</title>
<g id="a_node18"><a xlink:href="namespacea60.html#a5491ff3ca7dc34407696caaa90828819" target="_top" xlink:title="First collection serialization, common for all writing.">
<polygon fill="white" stroke="#666666" points="597,-285 481,-285 481,-259 597,-259 597,-285"/>
<text text-anchor="start" x="489" y="-274.6" font-family="SourceSans" font-size="8.00">a60::serialize_collection</text>
<text text-anchor="middle" x="539" y="-265.6" font-family="SourceSans" font-size="8.00">_base_json</text>
</a>
</g>
</g>
<!-- Node16&#45;&gt;Node18 -->
<g id="edge18" class="edge">
<title>Node16&#45;&gt;Node18</title>
<path fill="none" stroke="#63b8ff" d="M438.37,-297.91C451.05,-294.61 464.79,-291.04 477.9,-287.63"/>
<polygon fill="#63b8ff" stroke="#63b8ff" points="478.97,-290.96 487.77,-285.06 477.21,-284.19 478.97,-290.96"/>
</g>
<!-- Node20 -->
<g id="node20" class="node">
<title>Node20</title>
<g id="a_node20"><a xlink:href="namespacea60.html#a2228baa081fe66cea91ed8032bda4732" target="_top" xlink:title="Serialize meta_peer.">
<polygon fill="white" stroke="#666666" points="588,-241 490,-241 490,-215 588,-215 588,-241"/>
<text text-anchor="start" x="498" y="-230.6" font-family="SourceSans" font-size="8.00">a60::serialize_meta</text>
<text text-anchor="middle" x="539" y="-221.6" font-family="SourceSans" font-size="8.00">_peer_json</text>
</a>
</g>
</g>
<!-- Node19&#45;&gt;Node20 -->
<g id="edge20" class="edge">
<title>Node19&#45;&gt;Node20</title>
<path fill="none" stroke="#63b8ff" d="M436.29,-246.99C450.07,-244.41 465.24,-241.58 479.56,-238.91"/>
<polygon fill="#63b8ff" stroke="#63b8ff" points="480.62,-242.27 489.8,-237 479.33,-235.39 480.62,-242.27"/>
</g>
<!-- Node22 -->
<g id="node22" class="node">
<title>Node22</title>
<g id="a_node22"><a xlink:href="namespacea60.html#af45982273a7a2e61b6aaa436081238c0" target="_top" xlink:title="Load JSON file to in&#45;memory DOM.">
<polygon fill="white" stroke="#666666" points="439,-203 335,-203 335,-177 439,-177 439,-203"/>
<text text-anchor="start" x="343" y="-192.6" font-family="SourceSans" font-size="8.00">a60::deserialize_json</text>
<text text-anchor="middle" x="387" y="-183.6" font-family="SourceSans" font-size="8.00">_to_dom_object</text>
</a>
</g>
</g>
<!-- Node21&#45;&gt;Node22 -->
<g id="edge22" class="edge">
<title>Node21&#45;&gt;Node22</title>
<path fill="none" stroke="#63b8ff" d="M250.38,-141.53C273.96,-149.96 310.63,-163.07 339.9,-173.53"/>
<polygon fill="#63b8ff" stroke="#63b8ff" points="338.92,-176.89 349.52,-176.96 341.28,-170.3 338.92,-176.89"/>
</g>
<!-- Node24 -->
<g id="node24" class="node">
<title>Node24</title>
<g id="a_node24"><a xlink:href="namespacea60.html#aa900ae641408375a5d008580bab781df" target="_top" xlink:title="Input as: /home/bkoz/src/alpha60&#45;data/game&#45;of&#45;thrones&#45;703/2017&#45;07&#45;31&#45;at&#45;22&#45;30 Output as: 2017.">
<polygon fill="white" stroke="#666666" points="441,-158.5 333,-158.5 333,-141.5 441,-141.5 441,-158.5"/>
<text text-anchor="middle" x="387" y="-148.1" font-family="SourceSans" font-size="8.00">a60::find_unique_year</text>
</a>
</g>
</g>
<!-- Node21&#45;&gt;Node24 -->
<g id="edge24" class="edge">
<title>Node21&#45;&gt;Node24</title>
<path fill="none" stroke="#63b8ff" d="M277.84,-138.47C292.13,-139.99 307.8,-141.67 322.68,-143.25"/>
<polygon fill="#63b8ff" stroke="#63b8ff" points="322.52,-146.75 332.83,-144.33 323.26,-139.79 322.52,-146.75"/>
</g>
<!-- Node25 -->
<g id="node25" class="node">
<title>Node25</title>
<g id="a_node25"><a xlink:href="namespacea60_1_1io.html#aea30b8fc474f5a7b922516dc1e199037" target="_top" xlink:title="Takes a string representing a directory, returns a sorted list of contents as a std::vector&lt;string&gt;.">
<polygon fill="white" stroke="#666666" points="442,-123.5 332,-123.5 332,-106.5 442,-106.5 442,-123.5"/>
<text text-anchor="middle" x="387" y="-113.1" font-family="SourceSans" font-size="8.00">a60::io::populate_files</text>
</a>
</g>
</g>
<!-- Node21&#45;&gt;Node25 -->
<g id="edge25" class="edge">
<title>Node21&#45;&gt;Node25</title>
<path fill="none" stroke="#63b8ff" d="M277.84,-127.21C291.83,-125.63 307.15,-123.9 321.76,-122.25"/>
<polygon fill="#63b8ff" stroke="#63b8ff" points="322.18,-125.72 331.73,-121.12 321.4,-118.77 322.18,-125.72"/>
</g>
<!-- Node26 -->
<g id="node26" class="node">
<title>Node26</title>
<g id="a_node26"><a xlink:href="namespacea60_1_1io.html#afbc9bd4e46187119419128390e16a033" target="_top" xlink:title="Takes a string representing a directory, returns a list of contents as a std::vector&lt;string&gt;.">
<polygon fill="white" stroke="#666666" points="440.5,-70 333.5,-70 333.5,-44 440.5,-44 440.5,-70"/>
<text text-anchor="start" x="341.5" y="-59.6" font-family="SourceSans" font-size="8.00">a60::io::populate_sub</text>
<text text-anchor="middle" x="387" y="-50.6" font-family="SourceSans" font-size="8.00">_directories</text>
</a>
</g>
</g>
<!-- Node21&#45;&gt;Node26 -->
<g id="edge26" class="edge">
<title>Node21&#45;&gt;Node26</title>
<path fill="none" stroke="#63b8ff" d="M244.49,-124.43C269.77,-112.38 316.4,-90.16 349.21,-74.53"/>
<polygon fill="#63b8ff" stroke="#63b8ff" points="350.96,-77.57 358.49,-70.11 347.95,-71.25 350.96,-77.57"/>
</g>
<!-- Node27 -->
<g id="node27" class="node">
<title>Node27</title>
<g id="a_node27"><a xlink:href="namespacea60.html#a6ce8704ec3c4d5e258d062283dd40efb" target="_top" xlink:title="Search DOM for meta_peer(s).">
<polygon fill="white" stroke="#666666" points="438.5,-26 335.5,-26 335.5,0 438.5,0 438.5,-26"/>
<text text-anchor="start" x="343.5" y="-15.6" font-family="SourceSans" font-size="8.00">a60::search_dom_for</text>
<text text-anchor="middle" x="387" y="-6.6" font-family="SourceSans" font-size="8.00">_meta_peers</text>
</a>
</g>
</g>
<!-- Node21&#45;&gt;Node27 -->
<g id="edge28" class="edge">
<title>Node21&#45;&gt;Node27</title>
<path fill="none" stroke="#63b8ff" d="M233.33,-124.49C248.64,-105.91 287.64,-61.26 329,-35 331.56,-33.38 334.26,-31.84 337.03,-30.39"/>
<polygon fill="#63b8ff" stroke="#63b8ff" points="338.56,-33.54 346.07,-26.07 335.54,-27.23 338.56,-33.54"/>
</g>
<!-- Node23 -->
<g id="node23" class="node">
<title>Node23</title>
<g id="a_node23"><a xlink:href="namespacea60.html#a538d43bb9bfa488a54cea929736dbe2d" target="_top" xlink:title="Deserialize input file.">
<polygon fill="white" stroke="#666666" points="591,-197 487,-197 487,-171 591,-171 591,-197"/>
<text text-anchor="start" x="495" y="-186.6" font-family="SourceSans" font-size="8.00">a60::deserialize_json</text>
<text text-anchor="middle" x="539" y="-177.6" font-family="SourceSans" font-size="8.00">_to_dom</text>
</a>
</g>
</g>
<!-- Node22&#45;&gt;Node23 -->
<g id="edge23" class="edge">
<title>Node22&#45;&gt;Node23</title>
<path fill="none" stroke="#63b8ff" d="M439.2,-187.95C451.2,-187.47 464.11,-186.96 476.51,-186.46"/>
<polygon fill="#63b8ff" stroke="#63b8ff" points="476.92,-189.95 486.77,-186.05 476.64,-182.95 476.92,-189.95"/>
</g>
<!-- Node26&#45;&gt;Node26 -->
<g id="edge27" class="edge">
<title>Node26&#45;&gt;Node26</title>
<path fill="none" stroke="#63b8ff" d="M361.28,-70.06C353.49,-79.1 362.06,-88 387,-88 402.2,-88 411.32,-84.69 414.36,-80.07"/>
<polygon fill="#63b8ff" stroke="#63b8ff" points="417.79,-79.36 412.72,-70.06 410.88,-80.49 417.79,-79.36"/>
</g>
</g>
</svg>
