<?xml version="1.0" encoding="UTF-8" standalone="no"?>
<!DOCTYPE svg PUBLIC "-//W3C//DTD SVG 1.1//EN"
 "http://www.w3.org/Graphics/SVG/1.1/DTD/svg11.dtd">
<!-- Generated by graphviz version 5.0.0 (0)
 -->
<!-- Title: a60::metadata::render_vsids_aggregate Pages: 1 -->
<!--zoomable 574 -->
<svg id="main" version="1.1" xmlns="http://www.w3.org/2000/svg" xmlns:xlink="http://www.w3.org/1999/xlink" xml:space="preserve" onload="init(evt)">
<style type="text/css"><![CDATA[
.edge:hover path { stroke: red; }
.edge:hover polygon { stroke: red; fill: red; }
]]></style>
<script type="text/javascript"><![CDATA[
var edges = document.getElementsByTagName('g');
if (edges && edges.length) {
  for (var i=0;i<edges.length;i++) {
    if (edges[i].id.substr(0,4)=='edge') {
      edges[i].setAttribute('class','edge');
    }
  }
}
]]></script>
        <defs>
                <circle id="rim" cx="0" cy="0" r="7"/>
                <circle id="rim2" cx="0" cy="0" r="3.5"/>
                <g id="zoomPlus">
                        <use xlink:href="#rim" fill="#404040">
                                <set attributeName="fill" to="#808080" begin="zoomplus.mouseover" end="zoomplus.mouseout"/>
                        </use>
                        <path d="M-4,0h8M0,-4v8" fill="none" stroke="white" stroke-width="1.5" pointer-events="none"/>
                </g>
                <g id="zoomMin">
                        <use xlink:href="#rim" fill="#404040">
                                <set attributeName="fill" to="#808080" begin="zoomminus.mouseover" end="zoomminus.mouseout"/>
                        </use>
                        <path d="M-4,0h8" fill="none" stroke="white" stroke-width="1.5" pointer-events="none"/>
                </g>
                <g id="dirArrow">
                        <path fill="none" stroke="white" stroke-width="1.5" d="M0,-3.0v7 M-2.5,-0.5L0,-3.0L2.5,-0.5"/>
                </g>
               <g id="resetDef">
                       <use xlink:href="#rim2" fill="#404040">
                               <set attributeName="fill" to="#808080" begin="reset.mouseover" end="reset.mouseout"/>
                       </use>
               </g>
        </defs>

<script type="text/javascript">
var viewWidth = 894;
var viewHeight = 574;
var sectionId = 'dynsection-65';
</script>
<script xlink:href="svgpan.js"/>
<svg id="graph" class="graph">
<g id="viewport">
<title>a60::metadata::render_vsids_aggregate</title>
<!-- Node1 -->
<g id="node1" class="node">
<title>Node1</title>
<g id="a_node1"><a xlink:title="Entry point for identity tag output, per aggregate Input @dimensions are vsids.">
<polygon fill="#999999" stroke="#666666" points="110,-224 0,-224 0,-198 110,-198 110,-224"/>
<text text-anchor="start" x="8" y="-213.6" font-family="SourceSans" font-size="8.00">a60::metadata::render</text>
<text text-anchor="middle" x="55" y="-204.6" font-family="SourceSans" font-size="8.00">_vsids_aggregate</text>
</a>
</g>
</g>
<!-- Node2 -->
<g id="node2" class="node">
<title>Node2</title>
<g id="a_node2"><a xlink:href="namespacea60_1_1metadata.html#a826951d79c6be34a2ce4a06abee65fcf" target="_top" xlink:title="Base plate color, identity graphics, svg file.">
<polygon fill="white" stroke="#666666" points="267,-443 146,-443 146,-417 267,-417 267,-443"/>
<text text-anchor="start" x="154" y="-432.6" font-family="SourceSans" font-size="8.00">a60::metadata::augment</text>
<text text-anchor="middle" x="206.5" y="-423.6" font-family="SourceSans" font-size="8.00">_metadata_background</text>
</a>
</g>
</g>
<!-- Node1&#45;&gt;Node2 -->
<g id="edge1" class="edge">
<title>Node1&#45;&gt;Node2</title>
<path fill="none" stroke="#63b8ff" d="M63.08,-224.09C77.5,-250.41 111.84,-311.34 146,-359 158.69,-376.7 174.6,-395.54 186.78,-409.37"/>
<polygon fill="#63b8ff" stroke="#63b8ff" points="184.2,-411.73 193.46,-416.88 189.43,-407.08 184.2,-411.73"/>
</g>
<!-- Node6 -->
<g id="node6" class="node">
<title>Node6</title>
<g id="a_node6"><a xlink:href="namespacea60_1_1constants.html#aa2d8262405ba8638e9d38e5a714db26f" target="_top" xlink:title="Find index for specific value in id_dimensions.">
<polygon fill="white" stroke="#666666" points="257,-350 156,-350 156,-324 257,-324 257,-350"/>
<text text-anchor="start" x="164" y="-339.6" font-family="SourceSans" font-size="8.00">a60::constants::find</text>
<text text-anchor="middle" x="206.5" y="-330.6" font-family="SourceSans" font-size="8.00">_id_index</text>
</a>
</g>
</g>
<!-- Node1&#45;&gt;Node6 -->
<g id="edge5" class="edge">
<title>Node1&#45;&gt;Node6</title>
<path fill="none" stroke="#63b8ff" d="M68.91,-224.11C85.94,-241.16 117.15,-271.53 146,-295 155.79,-302.96 166.98,-311.09 177,-318.06"/>
<polygon fill="#63b8ff" stroke="#63b8ff" points="175.21,-321.08 185.44,-323.84 179.17,-315.3 175.21,-321.08"/>
</g>
<!-- Node8 -->
<g id="node8" class="node">
<title>Node8</title>
<g id="a_node8"><a xlink:href="namespacea60_1_1metadata.html#aeba42336cc4f30ed9ee705111d3e82a9" target="_top" xlink:title="Typographic defaults for text labels.">
<polygon fill="white" stroke="#666666" points="573,-152 475,-152 475,-126 573,-126 573,-152"/>
<text text-anchor="start" x="483" y="-141.6" font-family="SourceSans" font-size="8.00">a60::metadata::get</text>
<text text-anchor="middle" x="524" y="-132.6" font-family="SourceSans" font-size="8.00">_metadata_typo</text>
</a>
</g>
</g>
<!-- Node1&#45;&gt;Node8 -->
<g id="edge7" class="edge">
<title>Node1&#45;&gt;Node8</title>
<path fill="none" stroke="#63b8ff" d="M78.09,-197.96C95.81,-188.18 121.66,-175.42 146,-169 255.9,-140 389.55,-136.5 464.58,-137.28"/>
<polygon fill="#63b8ff" stroke="#63b8ff" points="464.73,-140.78 474.77,-137.41 464.82,-133.78 464.73,-140.78"/>
</g>
<!-- Node9 -->
<g id="node9" class="node">
<title>Node9</title>
<g id="a_node9"><a xlink:href="namespacea60_1_1metadata.html#acac3003bbaeb00d1c2dbfab86874dd04" target="_top" xlink:title="Base Radial Visualization.">
<polygon fill="white" stroke="#666666" points="421.5,-247 311.5,-247 311.5,-221 421.5,-221 421.5,-247"/>
<text text-anchor="start" x="319.5" y="-236.6" font-family="SourceSans" font-size="8.00">a60::metadata::render</text>
<text text-anchor="middle" x="366.5" y="-227.6" font-family="SourceSans" font-size="8.00">_id_base</text>
</a>
</g>
</g>
<!-- Node1&#45;&gt;Node9 -->
<g id="edge9" class="edge">
<title>Node1&#45;&gt;Node9</title>
<path fill="none" stroke="#63b8ff" d="M110.26,-215.03C163.47,-218.99 244.6,-225.02 301.05,-229.21"/>
<polygon fill="#63b8ff" stroke="#63b8ff" points="301.07,-232.72 311.3,-229.97 301.58,-225.74 301.07,-232.72"/>
</g>
<!-- Node12 -->
<g id="node12" class="node">
<title>Node12</title>
<g id="a_node12"><a xlink:href="namespacea60_1_1metadata.html#a0ebea31a8739b305a9ef94783f22a077" target="_top" xlink:title="Entry point specialized for age dimension for media object.">
<polygon fill="white" stroke="#666666" points="261.5,-286 151.5,-286 151.5,-260 261.5,-260 261.5,-286"/>
<text text-anchor="start" x="159.5" y="-275.6" font-family="SourceSans" font-size="8.00">a60::metadata::render</text>
<text text-anchor="middle" x="206.5" y="-266.6" font-family="SourceSans" font-size="8.00">_ids_ages</text>
</a>
</g>
</g>
<!-- Node1&#45;&gt;Node12 -->
<g id="edge16" class="edge">
<title>Node1&#45;&gt;Node12</title>
<path fill="none" stroke="#63b8ff" d="M87.71,-224.15C110.18,-233.47 140.53,-246.05 164.79,-256.12"/>
<polygon fill="#63b8ff" stroke="#63b8ff" points="163.52,-259.38 174.1,-259.98 166.2,-252.91 163.52,-259.38"/>
</g>
<!-- Node19 -->
<g id="node19" class="node">
<title>Node19</title>
<g id="a_node19"><a xlink:href="namespacea60_1_1metadata.html#ac059aaea1bbe1e28b32dabb7dddd16f8" target="_top" xlink:title="Text grow&#45;up columns, horizontal with values (LHS) and values playing (RHS). Entry point specialized ...">
<polygon fill="white" stroke="#666666" points="421.5,-111 311.5,-111 311.5,-85 421.5,-85 421.5,-111"/>
<text text-anchor="start" x="319.5" y="-100.6" font-family="SourceSans" font-size="8.00">a60::metadata::render</text>
<text text-anchor="middle" x="366.5" y="-91.6" font-family="SourceSans" font-size="8.00">_ids_text_x</text>
</a>
</g>
</g>
<!-- Node1&#45;&gt;Node19 -->
<g id="edge28" class="edge">
<title>Node1&#45;&gt;Node19</title>
<path fill="none" stroke="#63b8ff" d="M67.31,-197.81C83.05,-180.38 113.35,-150.14 146,-135 195.06,-112.26 256.06,-103.32 301.29,-99.89"/>
<polygon fill="#63b8ff" stroke="#63b8ff" points="301.54,-103.39 311.27,-99.21 301.06,-96.4 301.54,-103.39"/>
</g>
<!-- Node22 -->
<g id="node22" class="node">
<title>Node22</title>
<g id="a_node22"><a xlink:href="namespacea60_1_1metadata.html#a9a7209089206738890db1c3ab9f9902a" target="_top" xlink:title="Entry point for output, per identity dimension, per unique value. If kusamap == true,...">
<polygon fill="white" stroke="#666666" points="261.5,-204 151.5,-204 151.5,-178 261.5,-178 261.5,-204"/>
<text text-anchor="start" x="159.5" y="-193.6" font-family="SourceSans" font-size="8.00">a60::metadata::render</text>
<text text-anchor="middle" x="206.5" y="-184.6" font-family="SourceSans" font-size="8.00">_ids_uvalue</text>
</a>
</g>
</g>
<!-- Node1&#45;&gt;Node22 -->
<g id="edge33" class="edge">
<title>Node1&#45;&gt;Node22</title>
<path fill="none" stroke="#63b8ff" d="M110.4,-203.72C120.41,-202.38 130.96,-200.97 141.24,-199.6"/>
<polygon fill="#63b8ff" stroke="#63b8ff" points="141.95,-203.03 151.39,-198.24 141.02,-196.1 141.95,-203.03"/>
</g>
<!-- Node24 -->
<g id="node24" class="node">
<title>Node24</title>
<g id="a_node24"><a xlink:href="namespacea60_1_1metadata.html#a4eb35209c54ffd28eebbfa8e07365b69" target="_top" xlink:title="From string to sids with count n.">
<polygon fill="white" stroke="#666666" points="262.5,-83 150.5,-83 150.5,-57 262.5,-57 262.5,-83"/>
<text text-anchor="start" x="158.5" y="-72.6" font-family="SourceSans" font-size="8.00">a60::metadata::strings</text>
<text text-anchor="middle" x="206.5" y="-63.6" font-family="SourceSans" font-size="8.00">_to_set_of_ids</text>
</a>
</g>
</g>
<!-- Node1&#45;&gt;Node24 -->
<g id="edge37" class="edge">
<title>Node1&#45;&gt;Node24</title>
<path fill="none" stroke="#63b8ff" d="M63.56,-197.7C77.3,-174.52 108.47,-126.38 146,-97 150.35,-93.59 155.21,-90.5 160.21,-87.73"/>
<polygon fill="#63b8ff" stroke="#63b8ff" points="161.99,-90.76 169.31,-83.1 158.81,-84.52 161.99,-90.76"/>
</g>
<!-- Node3 -->
<g id="node3" class="node">
<title>Node3</title>
<g id="a_node3"><a xlink:href="namespacea60_1_1io.html#a16f17ea9e02c1975ca17b77e46cf7629" target="_top" xlink:title="Make sure a path ends in &#39;/&#39;;.">
<polygon fill="white" stroke="#666666" points="411.5,-518.5 321.5,-518.5 321.5,-501.5 411.5,-501.5 411.5,-518.5"/>
<text text-anchor="middle" x="366.5" y="-508.1" font-family="SourceSans" font-size="8.00">a60::io::end_path</text>
</a>
</g>
</g>
<!-- Node2&#45;&gt;Node3 -->
<g id="edge2" class="edge">
<title>Node2&#45;&gt;Node3</title>
<path fill="none" stroke="#63b8ff" d="M224.21,-443.05C242.61,-456.88 273.51,-478.54 303,-492 308.14,-494.34 313.65,-496.46 319.2,-498.34"/>
<polygon fill="#63b8ff" stroke="#63b8ff" points="318.56,-501.81 329.15,-501.49 320.67,-495.14 318.56,-501.81"/>
</g>
<!-- Node4 -->
<g id="node4" class="node">
<title>Node4</title>
<g id="a_node4"><a xlink:href="namespacea60_1_1metadata.html#abcd6d192e6ed0f853c3c6cd9bcf13cad" target="_top" xlink:title=" ">
<polygon fill="white" stroke="#666666" points="725.5,-239 627.5,-239 627.5,-213 725.5,-213 725.5,-239"/>
<text text-anchor="start" x="635.5" y="-228.6" font-family="SourceSans" font-size="8.00">a60::metadata::get</text>
<text text-anchor="middle" x="676.5" y="-219.6" font-family="SourceSans" font-size="8.00">_metadata_style</text>
</a>
</g>
</g>
<!-- Node2&#45;&gt;Node4 -->
<g id="edge3" class="edge">
<title>Node2&#45;&gt;Node4</title>
<path fill="none" stroke="#63b8ff" d="M235.38,-416.84C254.37,-407.96 280.11,-396.07 303,-386 426.08,-331.86 458.9,-323.1 582,-269 600.77,-260.75 621.5,-251.26 638.66,-243.29"/>
<polygon fill="#63b8ff" stroke="#63b8ff" points="640.2,-246.44 647.79,-239.04 637.25,-240.09 640.2,-246.44"/>
</g>
<!-- Node5 -->
<g id="node5" class="node">
<title>Node5</title>
<g id="a_node5"><a xlink:href="namespacea60_1_1io.html#ac95e5271a27a23bc2336d84b3f821fa2" target="_top" xlink:title="Constant filesystem and run&#45;time resources.">
<polygon fill="white" stroke="#666666" points="418.5,-483 314.5,-483 314.5,-457 418.5,-457 418.5,-483"/>
<text text-anchor="start" x="322.5" y="-472.6" font-family="SourceSans" font-size="8.00">a60::io::get_run_time</text>
<text text-anchor="middle" x="366.5" y="-463.6" font-family="SourceSans" font-size="8.00">_resources</text>
</a>
</g>
</g>
<!-- Node2&#45;&gt;Node5 -->
<g id="edge4" class="edge">
<title>Node2&#45;&gt;Node5</title>
<path fill="none" stroke="#63b8ff" d="M259.24,-443.1C273.78,-446.78 289.73,-450.82 304.75,-454.62"/>
<polygon fill="#63b8ff" stroke="#63b8ff" points="303.9,-458.02 314.46,-457.08 305.62,-451.23 303.9,-458.02"/>
</g>
<!-- Node7 -->
<g id="node7" class="node">
<title>Node7</title>
<g id="a_node7"><a xlink:href="namespacea60_1_1constants.html#ac27c77e4606552ae5f74a1c21dd9258e" target="_top" xlink:title=" ">
<polygon fill="white" stroke="#666666" points="735,-395.5 618,-395.5 618,-378.5 735,-378.5 735,-395.5"/>
<text text-anchor="middle" x="676.5" y="-385.1" font-family="SourceSans" font-size="8.00">a60::constants::newline</text>
</a>
</g>
</g>
<!-- Node6&#45;&gt;Node7 -->
<g id="edge6" class="edge">
<title>Node6&#45;&gt;Node7</title>
<path fill="none" stroke="#63b8ff" d="M257.14,-342.3C341.35,-351.3 512.3,-369.56 607.55,-379.74"/>
<polygon fill="#63b8ff" stroke="#63b8ff" points="607.33,-383.24 617.65,-380.82 608.08,-376.28 607.33,-383.24"/>
</g>
<!-- Node8&#45;&gt;Node4 -->
<g id="edge8" class="edge">
<title>Node8&#45;&gt;Node4</title>
<path fill="none" stroke="#63b8ff" d="M554.36,-152.03C563.35,-156.25 573.19,-161.11 582,-166 604.9,-178.7 629.81,-194.81 648.16,-207.14"/>
<polygon fill="#63b8ff" stroke="#63b8ff" points="646.36,-210.14 656.6,-212.85 650.28,-204.35 646.36,-210.14"/>
</g>
<!-- Node9&#45;&gt;Node4 -->
<g id="edge12" class="edge">
<title>Node9&#45;&gt;Node4</title>
<path fill="none" stroke="#63b8ff" d="M421.68,-246.37C436.01,-249.11 451.52,-251.62 466,-253 517.32,-257.9 530.95,-260.22 582,-253 597.63,-250.79 614.31,-246.59 629.18,-242.16"/>
<polygon fill="#63b8ff" stroke="#63b8ff" points="630.64,-245.37 639.16,-239.07 628.57,-238.68 630.64,-245.37"/>
</g>
<!-- Node9&#45;&gt;Node8 -->
<g id="edge13" class="edge">
<title>Node9&#45;&gt;Node8</title>
<path fill="none" stroke="#63b8ff" d="M410.67,-220.9C417.3,-218.29 423.95,-215.32 430,-212 456.68,-197.35 483.66,-175.18 501.63,-159.12"/>
<polygon fill="#63b8ff" stroke="#63b8ff" points="504.18,-161.53 509.23,-152.21 499.47,-156.35 504.18,-161.53"/>
</g>
<!-- Node10 -->
<g id="node10" class="node">
<title>Node10</title>
<g id="a_node10"><a xlink:href="namespacea60_1_1constants.html#a613cac7d85819a545849f5eefd733896" target="_top" xlink:title=" ">
<polygon fill="white" stroke="#666666" points="574.5,-440 473.5,-440 473.5,-414 574.5,-414 574.5,-440"/>
<text text-anchor="start" x="481.5" y="-429.6" font-family="SourceSans" font-size="8.00">a60::constants::age</text>
<text text-anchor="middle" x="524" y="-420.6" font-family="SourceSans" font-size="8.00">_value_to_multiple</text>
</a>
</g>
</g>
<!-- Node9&#45;&gt;Node10 -->
<g id="edge10" class="edge">
<title>Node9&#45;&gt;Node10</title>
<path fill="none" stroke="#63b8ff" d="M378.19,-247.27C404.72,-280.19 473.76,-365.88 505.98,-405.87"/>
<polygon fill="#63b8ff" stroke="#63b8ff" points="503.44,-408.31 512.44,-413.9 508.89,-403.91 503.44,-408.31"/>
</g>
<!-- Node11 -->
<g id="node11" class="node">
<title>Node11</title>
<g id="a_node11"><a xlink:href="namespacea60.html#a4e8b0cabed112734147b499bf0cc9029" target="_top" xlink:title="Conversion of resolution_mode to string.">
<polygon fill="white" stroke="#666666" points="561,-225.5 487,-225.5 487,-208.5 561,-208.5 561,-225.5"/>
<text text-anchor="middle" x="524" y="-215.1" font-family="SourceSans" font-size="8.00">a60::to_string</text>
</a>
</g>
</g>
<!-- Node9&#45;&gt;Node11 -->
<g id="edge14" class="edge">
<title>Node9&#45;&gt;Node11</title>
<path fill="none" stroke="#63b8ff" d="M421.89,-228.05C439.73,-226.1 459.38,-223.96 476.58,-222.08"/>
<polygon fill="#63b8ff" stroke="#63b8ff" points="477.37,-225.51 486.93,-220.94 476.61,-218.55 477.37,-225.51"/>
</g>
<!-- Node10&#45;&gt;Node7 -->
<g id="edge11" class="edge">
<title>Node10&#45;&gt;Node7</title>
<path fill="none" stroke="#63b8ff" d="M574.28,-413.9C593.37,-408.83 615.01,-403.08 633.37,-398.2"/>
<polygon fill="#63b8ff" stroke="#63b8ff" points="634.43,-401.54 643.19,-395.59 632.63,-394.77 634.43,-401.54"/>
</g>
<!-- Node11&#45;&gt;Node11 -->
<g id="edge15" class="edge">
<title>Node11&#45;&gt;Node11</title>
<path fill="none" stroke="#63b8ff" d="M501.35,-225.69C488.84,-234.17 496.39,-243.5 524,-243.5 542.55,-243.5 552.04,-239.29 552.48,-233.95"/>
<polygon fill="#63b8ff" stroke="#63b8ff" points="555.27,-231.84 546.65,-225.69 549.56,-235.87 555.27,-231.84"/>
</g>
<!-- Node12&#45;&gt;Node9 -->
<g id="edge27" class="edge">
<title>Node12&#45;&gt;Node9</title>
<path fill="none" stroke="#63b8ff" d="M260.55,-259.91C274.04,-256.58 288.67,-252.97 302.6,-249.53"/>
<polygon fill="#63b8ff" stroke="#63b8ff" points="303.72,-252.85 312.59,-247.06 302.04,-246.06 303.72,-252.85"/>
</g>
<!-- Node13 -->
<g id="node13" class="node">
<title>Node13</title>
<g id="a_node13"><a xlink:href="namespacea60_1_1metadata.html#a322c3cae56a5e97a9cb15dcc19be2911" target="_top" xlink:title="Ages and ages playing composited into one ring glyph. Select, sort, and composite if necessary the va...">
<polygon fill="white" stroke="#666666" points="430,-421 303,-421 303,-395 430,-395 430,-421"/>
<text text-anchor="start" x="311" y="-410.6" font-family="SourceSans" font-size="8.00">a60::metadata::composite</text>
<text text-anchor="middle" x="366.5" y="-401.6" font-family="SourceSans" font-size="8.00">_age_glyph</text>
</a>
</g>
</g>
<!-- Node12&#45;&gt;Node13 -->
<g id="edge17" class="edge">
<title>Node12&#45;&gt;Node13</title>
<path fill="none" stroke="#63b8ff" d="M227.58,-286.13C239.37,-294.09 254.38,-304.67 267,-315 295.6,-338.4 326.21,-368.11 345.58,-387.57"/>
<polygon fill="#63b8ff" stroke="#63b8ff" points="343.14,-390.09 352.66,-394.74 348.12,-385.17 343.14,-390.09"/>
</g>
<!-- Node13&#45;&gt;Node4 -->
<g id="edge20" class="edge">
<title>Node13&#45;&gt;Node4</title>
<path fill="none" stroke="#63b8ff" d="M418.17,-394.97C463.62,-381.75 530.86,-358.32 582,-324 613.72,-302.71 642.83,-268.98 659.87,-247.17"/>
<polygon fill="#63b8ff" stroke="#63b8ff" points="662.7,-249.24 666,-239.17 657.14,-244.98 662.7,-249.24"/>
</g>
<!-- Node13&#45;&gt;Node10 -->
<g id="edge18" class="edge">
<title>Node13&#45;&gt;Node10</title>
<path fill="none" stroke="#63b8ff" d="M430.3,-415.67C441.16,-417 452.42,-418.38 463.2,-419.69"/>
<polygon fill="#63b8ff" stroke="#63b8ff" points="463,-423.2 473.35,-420.93 463.85,-416.25 463,-423.2"/>
</g>
<!-- Node13&#45;&gt;Node13 -->
<g id="edge19" class="edge">
<title>Node13&#45;&gt;Node13</title>
<path fill="none" stroke="#63b8ff" d="M340.11,-421.06C332.11,-430.1 340.91,-439 366.5,-439 382.1,-439 391.46,-435.69 394.58,-431.07"/>
<polygon fill="#63b8ff" stroke="#63b8ff" points="398,-430.34 392.89,-421.06 391.1,-431.5 398,-430.34"/>
</g>
<!-- Node14 -->
<g id="node14" class="node">
<title>Node14</title>
<g id="a_node14"><a xlink:href="namespacea60_1_1metadata.html#aa74f3d32a4793b6323d54e93c6c911b9" target="_top" xlink:title="Grows out from center &#39;as if&#39; a tree growing a tree ring. Spans unknown to [00&#45;01,...">
<polygon fill="white" stroke="#666666" points="574,-484 474,-484 474,-458 574,-458 574,-484"/>
<text text-anchor="start" x="482" y="-473.6" font-family="SourceSans" font-size="8.00">a60::metadata::ring</text>
<text text-anchor="middle" x="524" y="-464.6" font-family="SourceSans" font-size="8.00">_glyph</text>
</a>
</g>
</g>
<!-- Node13&#45;&gt;Node14 -->
<g id="edge21" class="edge">
<title>Node13&#45;&gt;Node14</title>
<path fill="none" stroke="#63b8ff" d="M398.47,-421.13C417.83,-429.28 443.31,-439.9 466,-449 470.38,-450.76 474.97,-452.57 479.55,-454.36"/>
<polygon fill="#63b8ff" stroke="#63b8ff" points="478.3,-457.63 488.88,-458 480.84,-451.11 478.3,-457.63"/>
</g>
<!-- Node15 -->
<g id="node15" class="node">
<title>Node15</title>
<g id="a_node15"><a xlink:href="namespacea60_1_1metadata.html#ae3aa31b1fc054034f40b30f22bf0d4b8" target="_top" xlink:title="Find orbit of ring, given radius, rspace, and number ring. Assume: ringsn starts with 1 for values an...">
<polygon fill="white" stroke="#666666" points="726.5,-503 626.5,-503 626.5,-477 726.5,-477 726.5,-503"/>
<text text-anchor="start" x="634.5" y="-492.6" font-family="SourceSans" font-size="8.00">a60::metadata::ring</text>
<text text-anchor="middle" x="676.5" y="-483.6" font-family="SourceSans" font-size="8.00">_radius</text>
</a>
</g>
</g>
<!-- Node13&#45;&gt;Node15 -->
<g id="edge23" class="edge">
<title>Node13&#45;&gt;Node15</title>
<path fill="none" stroke="#63b8ff" d="M391.95,-421.12C404.06,-428.22 418.51,-437.66 430,-448 449.04,-465.13 442.92,-481.9 466,-493 512.84,-515.51 572.65,-511.96 616.36,-504.43"/>
<polygon fill="#63b8ff" stroke="#63b8ff" points="617.07,-507.86 626.27,-502.61 615.8,-500.97 617.07,-507.86"/>
</g>
<!-- Node16 -->
<g id="node16" class="node">
<title>Node16</title>
<g id="a_node16"><a xlink:href="namespacea60_1_1metadata.html#a5156bb42291c8eb54dc6ddef8688be1e" target="_top" xlink:title="Split playing value into actor &#45;&gt; LHS of playing &quot;person&quot; role &#45;&gt; RHS of playing &quot;persona&quot; NB: Each s...">
<polygon fill="white" stroke="#666666" points="574.5,-566 473.5,-566 473.5,-540 574.5,-540 574.5,-566"/>
<text text-anchor="start" x="481.5" y="-555.6" font-family="SourceSans" font-size="8.00">a60::metadata::split</text>
<text text-anchor="middle" x="524" y="-546.6" font-family="SourceSans" font-size="8.00">_playing_value</text>
</a>
</g>
</g>
<!-- Node13&#45;&gt;Node16 -->
<g id="edge24" class="edge">
<title>Node13&#45;&gt;Node16</title>
<path fill="none" stroke="#63b8ff" d="M394.95,-421.05C406.9,-427.79 420.35,-436.93 430,-448 455.09,-476.78 439.14,-498.87 466,-526 469.21,-529.24 472.88,-532.14 476.78,-534.72"/>
<polygon fill="#63b8ff" stroke="#63b8ff" points="475.19,-537.85 485.59,-539.89 478.73,-531.81 475.19,-537.85"/>
</g>
<!-- Node14&#45;&gt;Node15 -->
<g id="edge22" class="edge">
<title>Node14&#45;&gt;Node15</title>
<path fill="none" stroke="#63b8ff" d="M574.28,-477.22C587.73,-478.92 602.44,-480.78 616.38,-482.54"/>
<polygon fill="#63b8ff" stroke="#63b8ff" points="616.01,-486.02 626.37,-483.8 616.88,-479.07 616.01,-486.02"/>
</g>
<!-- Node17 -->
<g id="node17" class="node">
<title>Node17</title>
<g id="a_node17"><a xlink:href="namespacea60_1_1metadata.html#acd47cfb00b07af853234227fdaa04cf9" target="_top" xlink:title="Convert a comma&#45;space&#45;separated list of strings to a vector of strings.">
<polygon fill="white" stroke="#666666" points="727.5,-566 625.5,-566 625.5,-540 727.5,-540 727.5,-566"/>
<text text-anchor="start" x="633.5" y="-555.6" font-family="SourceSans" font-size="8.00">a60::metadata::cssv</text>
<text text-anchor="middle" x="676.5" y="-546.6" font-family="SourceSans" font-size="8.00">_string_to_strings</text>
</a>
</g>
</g>
<!-- Node16&#45;&gt;Node17 -->
<g id="edge25" class="edge">
<title>Node16&#45;&gt;Node17</title>
<path fill="none" stroke="#63b8ff" d="M574.7,-553C587.66,-553 601.77,-553 615.22,-553"/>
<polygon fill="#63b8ff" stroke="#63b8ff" points="615.34,-556.5 625.34,-553 615.34,-549.5 615.34,-556.5"/>
</g>
<!-- Node18 -->
<g id="node18" class="node">
<title>Node18</title>
<g id="a_node18"><a xlink:href="namespacea60_1_1constants.html#a2fd5efb0c88809132a730787d05a080a" target="_top" xlink:title=" ">
<polygon fill="white" stroke="#666666" points="886,-561.5 771,-561.5 771,-544.5 886,-544.5 886,-561.5"/>
<text text-anchor="middle" x="828.5" y="-551.1" font-family="SourceSans" font-size="8.00">a60::constants::comma</text>
</a>
</g>
</g>
<!-- Node17&#45;&gt;Node18 -->
<g id="edge26" class="edge">
<title>Node17&#45;&gt;Node18</title>
<path fill="none" stroke="#63b8ff" d="M727.87,-553C738.42,-553 749.71,-553 760.76,-553"/>
<polygon fill="#63b8ff" stroke="#63b8ff" points="760.81,-556.5 770.81,-553 760.81,-549.5 760.81,-556.5"/>
</g>
<!-- Node19&#45;&gt;Node4 -->
<g id="edge29" class="edge">
<title>Node19&#45;&gt;Node4</title>
<path fill="none" stroke="#63b8ff" d="M421.72,-91.88C467.06,-89.24 532.13,-91.35 582,-117 619.71,-136.4 648.59,-178.15 663.72,-203.97"/>
<polygon fill="#63b8ff" stroke="#63b8ff" points="660.69,-205.73 668.67,-212.7 666.78,-202.27 660.69,-205.73"/>
</g>
<!-- Node19&#45;&gt;Node8 -->
<g id="edge30" class="edge">
<title>Node19&#45;&gt;Node8</title>
<path fill="none" stroke="#63b8ff" d="M417.13,-111.09C432.29,-115.08 449.11,-119.52 464.79,-123.65"/>
<polygon fill="#63b8ff" stroke="#63b8ff" points="464.34,-127.15 474.9,-126.32 466.13,-120.38 464.34,-127.15"/>
</g>
<!-- Node20 -->
<g id="node20" class="node">
<title>Node20</title>
<g id="a_node20"><a xlink:href="namespacea60_1_1metadata.html#ab809b870c71701237f98849a7fe94a35" target="_top" xlink:title="Substitue &quot;&#45;&gt;&quot; for &quot;playing&quot; in input string s.">
<polygon fill="white" stroke="#666666" points="582,-70 466,-70 466,-44 582,-44 582,-70"/>
<text text-anchor="start" x="474" y="-59.6" font-family="SourceSans" font-size="8.00">a60::metadata::shorten</text>
<text text-anchor="middle" x="524" y="-50.6" font-family="SourceSans" font-size="8.00">_playing_value</text>
</a>
</g>
</g>
<!-- Node19&#45;&gt;Node20 -->
<g id="edge31" class="edge">
<title>Node19&#45;&gt;Node20</title>
<path fill="none" stroke="#63b8ff" d="M417.13,-84.91C431.93,-81.01 448.3,-76.7 463.66,-72.65"/>
<polygon fill="#63b8ff" stroke="#63b8ff" points="464.8,-75.97 473.58,-70.03 463.01,-69.2 464.8,-75.97"/>
</g>
<!-- Node21 -->
<g id="node21" class="node">
<title>Node21</title>
<g id="a_node21"><a xlink:href="namespacea60_1_1metadata.html#a841cf4a54bf053a6f8b77d8254053548" target="_top" xlink:title="Text moving up.">
<polygon fill="white" stroke="#666666" points="573.5,-26 474.5,-26 474.5,0 573.5,0 573.5,-26"/>
<text text-anchor="start" x="482.5" y="-15.6" font-family="SourceSans" font-size="8.00">a60::metadata::text</text>
<text text-anchor="middle" x="524" y="-6.6" font-family="SourceSans" font-size="8.00">_grow_up_from</text>
</a>
</g>
</g>
<!-- Node19&#45;&gt;Node21 -->
<g id="edge32" class="edge">
<title>Node19&#45;&gt;Node21</title>
<path fill="none" stroke="#63b8ff" d="M385.72,-84.76C405.01,-71.14 436.66,-49.85 466,-35 469.47,-33.24 473.11,-31.54 476.81,-29.91"/>
<polygon fill="#63b8ff" stroke="#63b8ff" points="478.18,-33.13 486.04,-26.02 475.46,-26.68 478.18,-33.13"/>
</g>
<!-- Node22&#45;&gt;Node9 -->
<g id="edge36" class="edge">
<title>Node22&#45;&gt;Node9</title>
<path fill="none" stroke="#63b8ff" d="M255.33,-204.02C271.81,-208.5 290.44,-213.57 307.63,-218.25"/>
<polygon fill="#63b8ff" stroke="#63b8ff" points="306.99,-221.7 317.56,-220.95 308.83,-214.95 306.99,-221.7"/>
</g>
<!-- Node23 -->
<g id="node23" class="node">
<title>Node23</title>
<g id="a_node23"><a xlink:href="namespacea60_1_1metadata.html#a0f59763af905b28339abf072db876919" target="_top" xlink:title="Typographic defaults for radial diagrams.">
<polygon fill="white" stroke="#666666" points="415.5,-203 317.5,-203 317.5,-177 415.5,-177 415.5,-203"/>
<text text-anchor="start" x="325.5" y="-192.6" font-family="SourceSans" font-size="8.00">a60::metadata::get</text>
<text text-anchor="middle" x="366.5" y="-183.6" font-family="SourceSans" font-size="8.00">_radial_typo</text>
</a>
</g>
</g>
<!-- Node22&#45;&gt;Node23 -->
<g id="edge34" class="edge">
<title>Node22&#45;&gt;Node23</title>
<path fill="none" stroke="#63b8ff" d="M261.87,-190.66C276.53,-190.56 292.43,-190.46 307.28,-190.37"/>
<polygon fill="#63b8ff" stroke="#63b8ff" points="307.39,-193.87 317.37,-190.3 307.35,-186.87 307.39,-193.87"/>
</g>
<!-- Node23&#45;&gt;Node4 -->
<g id="edge35" class="edge">
<title>Node23&#45;&gt;Node4</title>
<path fill="none" stroke="#63b8ff" d="M415.52,-189.17C459.2,-189.14 525.31,-190.92 582,-200 596.46,-202.32 611.88,-206.06 625.93,-209.99"/>
<polygon fill="#63b8ff" stroke="#63b8ff" points="625.32,-213.45 635.9,-212.86 627.26,-206.73 625.32,-213.45"/>
</g>
</g>
</svg>
        <g id="navigator" transform="translate(0 0)" fill="#404254">
                <rect fill="#f2f5e9" fill-opacity="0.5" stroke="#606060" stroke-width=".5" x="0" y="0" width="60" height="60"/>
                <use id="zoomplus" xlink:href="#zoomPlus" x="17" y="9" onmousedown="handleZoom(evt,'in')"/>
                <use id="zoomminus" xlink:href="#zoomMin" x="42" y="9" onmousedown="handleZoom(evt,'out')"/>
                <use id="reset" xlink:href="#resetDef" x="30" y="36" onmousedown="handleReset()"/>
                <g id="arrowUp" xlink:href="#dirArrow" transform="translate(30 24)" onmousedown="handlePan(0,-1)">
                  <use xlink:href="#rim" fill="#404040">
                        <set attributeName="fill" to="#808080" begin="arrowUp.mouseover" end="arrowUp.mouseout"/>
                  </use>
                  <path fill="none" stroke="white" stroke-width="1.5" d="M0,-3.0v7 M-2.5,-0.5L0,-3.0L2.5,-0.5"/>
                </g>
                <g id="arrowRight" xlink:href="#dirArrow" transform="rotate(90) translate(36 -43)" onmousedown="handlePan(1,0)">
                  <use xlink:href="#rim" fill="#404040">
                        <set attributeName="fill" to="#808080" begin="arrowRight.mouseover" end="arrowRight.mouseout"/>
                  </use>
                  <path fill="none" stroke="white" stroke-width="1.5" d="M0,-3.0v7 M-2.5,-0.5L0,-3.0L2.5,-0.5"/>
                </g>
                <g id="arrowDown" xlink:href="#dirArrow" transform="rotate(180) translate(-30 -48)" onmousedown="handlePan(0,1)">
                  <use xlink:href="#rim" fill="#404040">
                        <set attributeName="fill" to="#808080" begin="arrowDown.mouseover" end="arrowDown.mouseout"/>
                  </use>
                  <path fill="none" stroke="white" stroke-width="1.5" d="M0,-3.0v7 M-2.5,-0.5L0,-3.0L2.5,-0.5"/>
                </g>
                <g id="arrowLeft" xlink:href="#dirArrow" transform="rotate(270) translate(-36 17)" onmousedown="handlePan(-1,0)">
                  <use xlink:href="#rim" fill="#404040">
                        <set attributeName="fill" to="#808080" begin="arrowLeft.mouseover" end="arrowLeft.mouseout"/>
                  </use>
                  <path fill="none" stroke="white" stroke-width="1.5" d="M0,-3.0v7 M-2.5,-0.5L0,-3.0L2.5,-0.5"/>
                </g>
        </g>
        <svg viewBox="0 0 15 15" width="100%" height="30px" preserveAspectRatio="xMaxYMin meet">
         <g id="arrow_out" transform="scale(0.3 0.3)">
          <a xlink:href="namespacea60_1_1metadata_a4d18eb239d275df24a48990443d135c3_cgraph_org.svg" target="_base">
           <rect id="button" ry="5" rx="5" y="6" x="6" height="38" width="38"
                fill="#f2f5e9" fill-opacity="0.5" stroke="#606060" stroke-width="1.0"/>
           <path id="arrow"
             d="M 11.500037,31.436501 C 11.940474,20.09759 22.043105,11.32322 32.158766,21.979434 L 37.068811,17.246167 C 37.068811,17.246167 37.088388,32 37.088388,32 L 22.160133,31.978069 C 22.160133,31.978069 26.997745,27.140456 26.997745,27.140456 C 18.528582,18.264221 13.291696,25.230495 11.500037,31.436501 z"
             style="fill:#404040;"/>
          </a>
         </g>
        </svg>
</svg>
