<?xml version="1.0" encoding="UTF-8" standalone="no"?>
<!DOCTYPE svg PUBLIC "-//W3C//DTD SVG 1.1//EN"
 "http://www.w3.org/Graphics/SVG/1.1/DTD/svg11.dtd">
<!-- Generated by graphviz version 5.0.0 (0)
 -->
<!-- Title: a60::augment_wgeo_peers Pages: 1 -->
<svg width="287pt" height="78pt"
 viewBox="0.00 0.00 287.00 78.00" xmlns="http://www.w3.org/2000/svg" xmlns:xlink="http://www.w3.org/1999/xlink">
<g id="graph0" class="graph" transform="scale(1 1) rotate(0) translate(4 74)">
<title>a60::augment_wgeo_peers</title>
<!-- Node1 -->
<g id="node1" class="node">
<title>Node1</title>
<g id="a_node1"><a xlink:title=" ">
<polygon fill="#999999" stroke="#666666" points="128,-43.5 0,-43.5 0,-26.5 128,-26.5 128,-43.5"/>
<text text-anchor="middle" x="64" y="-33.1" font-family="SourceSans" font-size="8.00">a60::augment_wgeo_peers</text>
</a>
</g>
</g>
<!-- Node2 -->
<g id="node2" class="node">
<title>Node2</title>
<g id="a_node2"><a xlink:href="namespacea60_1_1geo.html#ac883e224021a4d5d0ac4c2d307f4808a" target="_top" xlink:title="Error checking for common anomalies.">
<polygon fill="white" stroke="#666666" points="271.5,-70 171.5,-70 171.5,-44 271.5,-44 271.5,-70"/>
<text text-anchor="start" x="179.5" y="-59.6" font-family="SourceSans" font-size="8.00">a60::geo::is_on_null</text>
<text text-anchor="middle" x="221.5" y="-50.6" font-family="SourceSans" font-size="8.00">_island</text>
</a>
</g>
</g>
<!-- Node1&#45;&gt;Node2 -->
<g id="edge1" class="edge">
<title>Node1&#45;&gt;Node2</title>
<path fill="none" stroke="#63b8ff" d="M125.12,-43.51C136.89,-45.17 149.22,-46.92 160.97,-48.58"/>
<polygon fill="#63b8ff" stroke="#63b8ff" points="160.72,-52.08 171.11,-50.01 161.7,-45.15 160.72,-52.08"/>
</g>
<!-- Node3 -->
<g id="node3" class="node">
<title>Node3</title>
<g id="a_node3"><a xlink:href="structa60_1_1carto_1_1cartography.html#a57e14cabb4993189316e369a27752a73" target="_top" xlink:title=" ">
<polygon fill="white" stroke="#666666" points="279,-26 164,-26 164,0 279,0 279,-26"/>
<text text-anchor="start" x="172" y="-15.6" font-family="SourceSans" font-size="8.00">a60::carto::cartography</text>
<text text-anchor="middle" x="221.5" y="-6.6" font-family="SourceSans" font-size="8.00">::to_point_2d</text>
</a>
</g>
</g>
<!-- Node1&#45;&gt;Node3 -->
<g id="edge2" class="edge">
<title>Node1&#45;&gt;Node3</title>
<path fill="none" stroke="#63b8ff" d="M125.12,-26.49C134.47,-25.17 144.18,-23.8 153.67,-22.45"/>
<polygon fill="#63b8ff" stroke="#63b8ff" points="154.44,-25.88 163.85,-21.01 153.46,-18.95 154.44,-25.88"/>
</g>
</g>
</svg>
