<?xml version="1.0" encoding="UTF-8" standalone="no"?>
<!DOCTYPE svg PUBLIC "-//W3C//DTD SVG 1.1//EN"
 "http://www.w3.org/Graphics/SVG/1.1/DTD/svg11.dtd">
<!-- Generated by graphviz version 5.0.0 (0)
 -->
<!-- Title: a60::metadata::render_ids_text_reception Pages: 1 -->
<!--zoomable 214 -->
<svg id="main" version="1.1" xmlns="http://www.w3.org/2000/svg" xmlns:xlink="http://www.w3.org/1999/xlink" xml:space="preserve" onload="init(evt)">
<style type="text/css"><![CDATA[
.edge:hover path { stroke: red; }
.edge:hover polygon { stroke: red; fill: red; }
]]></style>
<script type="text/javascript"><![CDATA[
var edges = document.getElementsByTagName('g');
if (edges && edges.length) {
  for (var i=0;i<edges.length;i++) {
    if (edges[i].id.substr(0,4)=='edge') {
      edges[i].setAttribute('class','edge');
    }
  }
}
]]></script>
        <defs>
                <circle id="rim" cx="0" cy="0" r="7"/>
                <circle id="rim2" cx="0" cy="0" r="3.5"/>
                <g id="zoomPlus">
                        <use xlink:href="#rim" fill="#404040">
                                <set attributeName="fill" to="#808080" begin="zoomplus.mouseover" end="zoomplus.mouseout"/>
                        </use>
                        <path d="M-4,0h8M0,-4v8" fill="none" stroke="white" stroke-width="1.5" pointer-events="none"/>
                </g>
                <g id="zoomMin">
                        <use xlink:href="#rim" fill="#404040">
                                <set attributeName="fill" to="#808080" begin="zoomminus.mouseover" end="zoomminus.mouseout"/>
                        </use>
                        <path d="M-4,0h8" fill="none" stroke="white" stroke-width="1.5" pointer-events="none"/>
                </g>
                <g id="dirArrow">
                        <path fill="none" stroke="white" stroke-width="1.5" d="M0,-3.0v7 M-2.5,-0.5L0,-3.0L2.5,-0.5"/>
                </g>
               <g id="resetDef">
                       <use xlink:href="#rim2" fill="#404040">
                               <set attributeName="fill" to="#808080" begin="reset.mouseover" end="reset.mouseout"/>
                       </use>
               </g>
        </defs>

<script type="text/javascript">
var viewWidth = 558;
var viewHeight = 214;
var sectionId = 'dynsection-56';
</script>
<script xlink:href="svgpan.js"/>
<svg id="graph" class="graph">
<g id="viewport">
<title>a60::metadata::render_ids_text_reception</title>
<!-- Node1 -->
<g id="node1" class="node">
<title>Node1</title>
<g id="a_node1"><a xlink:title="Entry point specialized for recption tags display.">
<polygon fill="#999999" stroke="#666666" points="110,-105 0,-105 0,-79 110,-79 110,-105"/>
<text text-anchor="start" x="8" y="-94.6" font-family="SourceSans" font-size="8.00">a60::metadata::render</text>
<text text-anchor="middle" x="55" y="-85.6" font-family="SourceSans" font-size="8.00">_ids_text_reception</text>
</a>
</g>
</g>
<!-- Node2 -->
<g id="node2" class="node">
<title>Node2</title>
<g id="a_node2"><a xlink:href="namespacea60_1_1metadata.html#a2ab9482eb9c490babd5b19085c76f4ca" target="_top" xlink:title="Find the center points of vertical (top and bottom) diptych circles.">
<polygon fill="white" stroke="#666666" points="260,-162 146,-162 146,-136 260,-136 260,-162"/>
<text text-anchor="start" x="154" y="-151.6" font-family="SourceSans" font-size="8.00">a60::metadata::diptych</text>
<text text-anchor="middle" x="203" y="-142.6" font-family="SourceSans" font-size="8.00">_ydipoles</text>
</a>
</g>
</g>
<!-- Node1&#45;&gt;Node2 -->
<g id="edge1" class="edge">
<title>Node1&#45;&gt;Node2</title>
<path fill="none" stroke="#63b8ff" d="M89.5,-105.08C110.18,-113.15 136.91,-123.59 159.13,-132.26"/>
<polygon fill="#63b8ff" stroke="#63b8ff" points="158.07,-135.61 168.66,-135.98 160.62,-129.09 158.07,-135.61"/>
</g>
<!-- Node6 -->
<g id="node6" class="node">
<title>Node6</title>
<g id="a_node6"><a xlink:href="namespacea60_1_1metadata.html#aeba42336cc4f30ed9ee705111d3e82a9" target="_top" xlink:title="Typographic defaults for text labels.">
<polygon fill="white" stroke="#666666" points="395.5,-26 297.5,-26 297.5,0 395.5,0 395.5,-26"/>
<text text-anchor="start" x="305.5" y="-15.6" font-family="SourceSans" font-size="8.00">a60::metadata::get</text>
<text text-anchor="middle" x="346.5" y="-6.6" font-family="SourceSans" font-size="8.00">_metadata_typo</text>
</a>
</g>
</g>
<!-- Node1&#45;&gt;Node6 -->
<g id="edge5" class="edge">
<title>Node1&#45;&gt;Node6</title>
<path fill="none" stroke="#63b8ff" d="M103.81,-78.95C154.3,-65.17 233.93,-43.45 287.86,-28.73"/>
<polygon fill="#63b8ff" stroke="#63b8ff" points="288.9,-32.07 297.62,-26.06 287.06,-25.32 288.9,-32.07"/>
</g>
<!-- Node8 -->
<g id="node8" class="node">
<title>Node8</title>
<g id="a_node8"><a xlink:href="namespacea60_1_1metadata.html#acac3003bbaeb00d1c2dbfab86874dd04" target="_top" xlink:title="Base Radial Visualization.">
<polygon fill="white" stroke="#666666" points="258,-105 148,-105 148,-79 258,-79 258,-105"/>
<text text-anchor="start" x="156" y="-94.6" font-family="SourceSans" font-size="8.00">a60::metadata::render</text>
<text text-anchor="middle" x="203" y="-85.6" font-family="SourceSans" font-size="8.00">_id_base</text>
</a>
</g>
</g>
<!-- Node1&#45;&gt;Node8 -->
<g id="edge7" class="edge">
<title>Node1&#45;&gt;Node8</title>
<path fill="none" stroke="#63b8ff" d="M110.37,-92C119.2,-92 128.43,-92 137.48,-92"/>
<polygon fill="#63b8ff" stroke="#63b8ff" points="137.59,-95.5 147.59,-92 137.59,-88.5 137.59,-95.5"/>
</g>
<!-- Node3 -->
<g id="node3" class="node">
<title>Node3</title>
<g id="a_node3"><a xlink:href="namespacea60_1_1constants.html#a613cac7d85819a545849f5eefd733896" target="_top" xlink:title=" ">
<polygon fill="white" stroke="#666666" points="397,-162 296,-162 296,-136 397,-136 397,-162"/>
<text text-anchor="start" x="304" y="-151.6" font-family="SourceSans" font-size="8.00">a60::constants::age</text>
<text text-anchor="middle" x="346.5" y="-142.6" font-family="SourceSans" font-size="8.00">_value_to_multiple</text>
</a>
</g>
</g>
<!-- Node2&#45;&gt;Node3 -->
<g id="edge2" class="edge">
<title>Node2&#45;&gt;Node3</title>
<path fill="none" stroke="#63b8ff" d="M260.33,-149C268.66,-149 277.27,-149 285.66,-149"/>
<polygon fill="#63b8ff" stroke="#63b8ff" points="285.77,-152.5 295.77,-149 285.77,-145.5 285.77,-152.5"/>
</g>
<!-- Node5 -->
<g id="node5" class="node">
<title>Node5</title>
<g id="a_node5"><a xlink:href="namespacea60_1_1metadata.html#ae3aa31b1fc054034f40b30f22bf0d4b8" target="_top" xlink:title="Find orbit of ring, given radius, rspace, and number ring. Assume: ringsn starts with 1 for values an...">
<polygon fill="white" stroke="#666666" points="396.5,-206 296.5,-206 296.5,-180 396.5,-180 396.5,-206"/>
<text text-anchor="start" x="304.5" y="-195.6" font-family="SourceSans" font-size="8.00">a60::metadata::ring</text>
<text text-anchor="middle" x="346.5" y="-186.6" font-family="SourceSans" font-size="8.00">_radius</text>
</a>
</g>
</g>
<!-- Node2&#45;&gt;Node5 -->
<g id="edge4" class="edge">
<title>Node2&#45;&gt;Node5</title>
<path fill="none" stroke="#63b8ff" d="M246.07,-162.08C261.05,-166.74 278.09,-172.04 293.78,-176.92"/>
<polygon fill="#63b8ff" stroke="#63b8ff" points="292.76,-180.26 303.35,-179.89 294.84,-173.58 292.76,-180.26"/>
</g>
<!-- Node4 -->
<g id="node4" class="node">
<title>Node4</title>
<g id="a_node4"><a xlink:href="namespacea60_1_1constants.html#ac27c77e4606552ae5f74a1c21dd9258e" target="_top" xlink:title=" ">
<polygon fill="white" stroke="#666666" points="550,-157.5 433,-157.5 433,-140.5 550,-140.5 550,-157.5"/>
<text text-anchor="middle" x="491.5" y="-147.1" font-family="SourceSans" font-size="8.00">a60::constants::newline</text>
</a>
</g>
</g>
<!-- Node3&#45;&gt;Node4 -->
<g id="edge3" class="edge">
<title>Node3&#45;&gt;Node4</title>
<path fill="none" stroke="#63b8ff" d="M397.11,-149C405.35,-149 414.01,-149 422.6,-149"/>
<polygon fill="#63b8ff" stroke="#63b8ff" points="422.62,-152.5 432.62,-149 422.62,-145.5 422.62,-152.5"/>
</g>
<!-- Node7 -->
<g id="node7" class="node">
<title>Node7</title>
<g id="a_node7"><a xlink:href="namespacea60_1_1metadata.html#abcd6d192e6ed0f853c3c6cd9bcf13cad" target="_top" xlink:title=" ">
<polygon fill="white" stroke="#666666" points="540.5,-74 442.5,-74 442.5,-48 540.5,-48 540.5,-74"/>
<text text-anchor="start" x="450.5" y="-63.6" font-family="SourceSans" font-size="8.00">a60::metadata::get</text>
<text text-anchor="middle" x="491.5" y="-54.6" font-family="SourceSans" font-size="8.00">_metadata_style</text>
</a>
</g>
</g>
<!-- Node6&#45;&gt;Node7 -->
<g id="edge6" class="edge">
<title>Node6&#45;&gt;Node7</title>
<path fill="none" stroke="#63b8ff" d="M386.58,-26.12C403.6,-31.83 423.74,-38.59 441.73,-44.63"/>
<polygon fill="#63b8ff" stroke="#63b8ff" points="440.88,-48.04 451.47,-47.9 443.11,-41.4 440.88,-48.04"/>
</g>
<!-- Node8&#45;&gt;Node3 -->
<g id="edge8" class="edge">
<title>Node8&#45;&gt;Node3</title>
<path fill="none" stroke="#63b8ff" d="M236.46,-105.08C256.42,-113.11 282.18,-123.49 303.66,-132.15"/>
<polygon fill="#63b8ff" stroke="#63b8ff" points="302.6,-135.49 313.19,-135.98 305.22,-129 302.6,-135.49"/>
</g>
<!-- Node8&#45;&gt;Node6 -->
<g id="edge10" class="edge">
<title>Node8&#45;&gt;Node6</title>
<path fill="none" stroke="#63b8ff" d="M223.29,-78.98C241.59,-66.87 270.09,-48.7 296,-35 298.91,-33.46 301.95,-31.93 305.03,-30.44"/>
<polygon fill="#63b8ff" stroke="#63b8ff" points="306.73,-33.51 314.3,-26.09 303.76,-27.17 306.73,-33.51"/>
</g>
<!-- Node8&#45;&gt;Node7 -->
<g id="edge9" class="edge">
<title>Node8&#45;&gt;Node7</title>
<path fill="none" stroke="#63b8ff" d="M258.41,-95.12C297.26,-96.39 350.63,-96.16 397,-89 413.07,-86.52 430.24,-81.96 445.41,-77.23"/>
<polygon fill="#63b8ff" stroke="#63b8ff" points="446.62,-80.52 455.07,-74.12 444.48,-73.86 446.62,-80.52"/>
</g>
<!-- Node9 -->
<g id="node9" class="node">
<title>Node9</title>
<g id="a_node9"><a xlink:href="namespacea60.html#a4e8b0cabed112734147b499bf0cc9029" target="_top" xlink:title="Conversion of resolution_mode to string.">
<polygon fill="white" stroke="#666666" points="383.5,-61.5 309.5,-61.5 309.5,-44.5 383.5,-44.5 383.5,-61.5"/>
<text text-anchor="middle" x="346.5" y="-51.1" font-family="SourceSans" font-size="8.00">a60::to_string</text>
</a>
</g>
</g>
<!-- Node8&#45;&gt;Node9 -->
<g id="edge11" class="edge">
<title>Node8&#45;&gt;Node9</title>
<path fill="none" stroke="#63b8ff" d="M251.51,-78.91C268.67,-74.18 287.87,-68.88 304.43,-64.32"/>
<polygon fill="#63b8ff" stroke="#63b8ff" points="305.64,-67.62 314.35,-61.59 303.78,-60.87 305.64,-67.62"/>
</g>
<!-- Node9&#45;&gt;Node9 -->
<g id="edge12" class="edge">
<title>Node9&#45;&gt;Node9</title>
<path fill="none" stroke="#63b8ff" d="M325.34,-61.69C313.65,-70.17 320.71,-79.5 346.5,-79.5 363.43,-79.5 372.28,-75.48 373.07,-70.32"/>
<polygon fill="#63b8ff" stroke="#63b8ff" points="375.93,-68.3 367.66,-61.69 370,-72.02 375.93,-68.3"/>
</g>
</g>
</svg>
        <g id="navigator" transform="translate(0 0)" fill="#404254">
                <rect fill="#f2f5e9" fill-opacity="0.5" stroke="#606060" stroke-width=".5" x="0" y="0" width="60" height="60"/>
                <use id="zoomplus" xlink:href="#zoomPlus" x="17" y="9" onmousedown="handleZoom(evt,'in')"/>
                <use id="zoomminus" xlink:href="#zoomMin" x="42" y="9" onmousedown="handleZoom(evt,'out')"/>
                <use id="reset" xlink:href="#resetDef" x="30" y="36" onmousedown="handleReset()"/>
                <g id="arrowUp" xlink:href="#dirArrow" transform="translate(30 24)" onmousedown="handlePan(0,-1)">
                  <use xlink:href="#rim" fill="#404040">
                        <set attributeName="fill" to="#808080" begin="arrowUp.mouseover" end="arrowUp.mouseout"/>
                  </use>
                  <path fill="none" stroke="white" stroke-width="1.5" d="M0,-3.0v7 M-2.5,-0.5L0,-3.0L2.5,-0.5"/>
                </g>
                <g id="arrowRight" xlink:href="#dirArrow" transform="rotate(90) translate(36 -43)" onmousedown="handlePan(1,0)">
                  <use xlink:href="#rim" fill="#404040">
                        <set attributeName="fill" to="#808080" begin="arrowRight.mouseover" end="arrowRight.mouseout"/>
                  </use>
                  <path fill="none" stroke="white" stroke-width="1.5" d="M0,-3.0v7 M-2.5,-0.5L0,-3.0L2.5,-0.5"/>
                </g>
                <g id="arrowDown" xlink:href="#dirArrow" transform="rotate(180) translate(-30 -48)" onmousedown="handlePan(0,1)">
                  <use xlink:href="#rim" fill="#404040">
                        <set attributeName="fill" to="#808080" begin="arrowDown.mouseover" end="arrowDown.mouseout"/>
                  </use>
                  <path fill="none" stroke="white" stroke-width="1.5" d="M0,-3.0v7 M-2.5,-0.5L0,-3.0L2.5,-0.5"/>
                </g>
                <g id="arrowLeft" xlink:href="#dirArrow" transform="rotate(270) translate(-36 17)" onmousedown="handlePan(-1,0)">
                  <use xlink:href="#rim" fill="#404040">
                        <set attributeName="fill" to="#808080" begin="arrowLeft.mouseover" end="arrowLeft.mouseout"/>
                  </use>
                  <path fill="none" stroke="white" stroke-width="1.5" d="M0,-3.0v7 M-2.5,-0.5L0,-3.0L2.5,-0.5"/>
                </g>
        </g>
        <svg viewBox="0 0 15 15" width="100%" height="30px" preserveAspectRatio="xMaxYMin meet">
         <g id="arrow_out" transform="scale(0.3 0.3)">
          <a xlink:href="namespacea60_1_1metadata_a31e71511446504010db6175ee0f25f1d_cgraph_org.svg" target="_base">
           <rect id="button" ry="5" rx="5" y="6" x="6" height="38" width="38"
                fill="#f2f5e9" fill-opacity="0.5" stroke="#606060" stroke-width="1.0"/>
           <path id="arrow"
             d="M 11.500037,31.436501 C 11.940474,20.09759 22.043105,11.32322 32.158766,21.979434 L 37.068811,17.246167 C 37.068811,17.246167 37.088388,32 37.088388,32 L 22.160133,31.978069 C 22.160133,31.978069 26.997745,27.140456 26.997745,27.140456 C 18.528582,18.264221 13.291696,25.230495 11.500037,31.436501 z"
             style="fill:#404040;"/>
          </a>
         </g>
        </svg>
</svg>
