<?xml version="1.0" encoding="UTF-8" standalone="no"?>
<!DOCTYPE svg PUBLIC "-//W3C//DTD SVG 1.1//EN"
 "http://www.w3.org/Graphics/SVG/1.1/DTD/svg11.dtd">
<!-- Generated by graphviz version 5.0.0 (0)
 -->
<!-- Title: a60::serialize_swarm_json Pages: 1 -->
<svg width="594pt" height="203pt"
 viewBox="0.00 0.00 594.00 202.50" xmlns="http://www.w3.org/2000/svg" xmlns:xlink="http://www.w3.org/1999/xlink">
<g id="graph0" class="graph" transform="scale(1 1) rotate(0) translate(4 198.5)">
<title>a60::serialize_swarm_json</title>
<!-- Node1 -->
<g id="node1" class="node">
<title>Node1</title>
<g id="a_node1"><a xlink:title="Serialization minimal summary info per duration.">
<polygon fill="#999999" stroke="#666666" points="125,-125.5 0,-125.5 0,-108.5 125,-108.5 125,-125.5"/>
<text text-anchor="middle" x="62.5" y="-115.1" font-family="SourceSans" font-size="8.00">a60::serialize_swarm_json</text>
</a>
</g>
</g>
<!-- Node2 -->
<g id="node2" class="node">
<title>Node2</title>
<g id="a_node2"><a xlink:href="structa60_1_1collection.html#ab234addb5725bb5900b44f55ec1aae10" target="_top" xlink:title=" ">
<polygon fill="white" stroke="#666666" points="276.5,-190 161.5,-190 161.5,-164 276.5,-164 276.5,-190"/>
<text text-anchor="start" x="169.5" y="-179.6" font-family="SourceSans" font-size="8.00">a60::collection::mangle</text>
<text text-anchor="middle" x="219" y="-170.6" font-family="SourceSans" font-size="8.00">_with_id</text>
</a>
</g>
</g>
<!-- Node1&#45;&gt;Node2 -->
<g id="edge1" class="edge">
<title>Node1&#45;&gt;Node2</title>
<path fill="none" stroke="#63b8ff" d="M85.56,-125.62C105.32,-133.34 135.09,-144.95 161,-155 165.46,-156.73 170.12,-158.54 174.77,-160.33"/>
<polygon fill="#63b8ff" stroke="#63b8ff" points="173.65,-163.65 184.24,-163.99 176.17,-157.12 173.65,-163.65"/>
</g>
<!-- Node4 -->
<g id="node4" class="node">
<title>Node4</title>
<g id="a_node4"><a xlink:href="namespacea60.html#aba8b47de875bd5bebeed9c57e3b52c06" target="_top" xlink:title="Serialize buffer to output file.">
<polygon fill="white" stroke="#666666" points="269.5,-145.5 168.5,-145.5 168.5,-128.5 269.5,-128.5 269.5,-145.5"/>
<text text-anchor="middle" x="219" y="-135.1" font-family="SourceSans" font-size="8.00">a60::serialize_buffer</text>
</a>
</g>
</g>
<!-- Node1&#45;&gt;Node4 -->
<g id="edge3" class="edge">
<title>Node1&#45;&gt;Node4</title>
<path fill="none" stroke="#63b8ff" d="M125.01,-124.96C135.85,-126.37 147.12,-127.82 157.92,-129.22"/>
<polygon fill="#63b8ff" stroke="#63b8ff" points="157.74,-132.73 168.1,-130.54 158.64,-125.79 157.74,-132.73"/>
</g>
<!-- Node5 -->
<g id="node5" class="node">
<title>Node5</title>
<g id="a_node5"><a xlink:href="namespacea60.html#a5491ff3ca7dc34407696caaa90828819" target="_top" xlink:title="First collection serialization, common for all writing.">
<polygon fill="white" stroke="#666666" points="277,-110 161,-110 161,-84 277,-84 277,-110"/>
<text text-anchor="start" x="169" y="-99.6" font-family="SourceSans" font-size="8.00">a60::serialize_collection</text>
<text text-anchor="middle" x="219" y="-90.6" font-family="SourceSans" font-size="8.00">_base_json</text>
</a>
</g>
</g>
<!-- Node1&#45;&gt;Node5 -->
<g id="edge4" class="edge">
<title>Node1&#45;&gt;Node5</title>
<path fill="none" stroke="#63b8ff" d="M125.01,-109.04C133.47,-107.94 142.21,-106.81 150.77,-105.7"/>
<polygon fill="#63b8ff" stroke="#63b8ff" points="151.25,-109.17 160.72,-104.41 150.35,-102.23 151.25,-109.17"/>
</g>
<!-- Node6 -->
<g id="node6" class="node">
<title>Node6</title>
<g id="a_node6"><a xlink:href="structa60_1_1collection.html#a80993af9aec8238db8e44da1e9a3c994" target="_top" xlink:title=" ">
<polygon fill="white" stroke="#666666" points="270.5,-66 167.5,-66 167.5,-40 270.5,-40 270.5,-66"/>
<text text-anchor="start" x="175.5" y="-55.6" font-family="SourceSans" font-size="8.00">a60::collection::slice</text>
<text text-anchor="middle" x="219" y="-46.6" font-family="SourceSans" font-size="8.00">_name_mangled</text>
</a>
</g>
</g>
<!-- Node1&#45;&gt;Node6 -->
<g id="edge5" class="edge">
<title>Node1&#45;&gt;Node6</title>
<path fill="none" stroke="#63b8ff" d="M82.83,-108.41C102.44,-99.76 133.7,-86.14 161,-75 165.2,-73.29 169.59,-71.53 173.99,-69.79"/>
<polygon fill="#63b8ff" stroke="#63b8ff" points="175.52,-72.95 183.55,-66.05 172.97,-66.43 175.52,-72.95"/>
</g>
<!-- Node3 -->
<g id="node3" class="node">
<title>Node3</title>
<g id="a_node3"><a xlink:href="structa60_1_1collection.html#a899f781ad983b2ec1f0da35a5d3f8b54" target="_top" xlink:title=" ">
<polygon fill="white" stroke="#666666" points="435.5,-194.5 320.5,-194.5 320.5,-159.5 435.5,-159.5 435.5,-194.5"/>
<text text-anchor="start" x="328.5" y="-184.1" font-family="SourceSans" font-size="8.00">a60::collection::mangle</text>
<text text-anchor="start" x="328.5" y="-175.1" font-family="SourceSans" font-size="8.00">_duration_significant</text>
<text text-anchor="middle" x="378" y="-166.1" font-family="SourceSans" font-size="8.00">_digits</text>
</a>
</g>
</g>
<!-- Node2&#45;&gt;Node3 -->
<g id="edge2" class="edge">
<title>Node2&#45;&gt;Node3</title>
<path fill="none" stroke="#63b8ff" d="M276.68,-177C287.57,-177 299.08,-177 310.26,-177"/>
<polygon fill="#63b8ff" stroke="#63b8ff" points="310.4,-180.5 320.4,-177 310.4,-173.5 310.4,-180.5"/>
</g>
<!-- Node7 -->
<g id="node7" class="node">
<title>Node7</title>
<g id="a_node7"><a xlink:href="structa60_1_1collection.html#a25b35cf4ac39da89d868fe2cf41b5acd" target="_top" xlink:title=" ">
<polygon fill="white" stroke="#666666" points="443,-96.5 313,-96.5 313,-79.5 443,-79.5 443,-96.5"/>
<text text-anchor="middle" x="378" y="-86.1" font-family="SourceSans" font-size="8.00">a60::collection::slice_name</text>
</a>
</g>
</g>
<!-- Node6&#45;&gt;Node7 -->
<g id="edge6" class="edge">
<title>Node6&#45;&gt;Node7</title>
<path fill="none" stroke="#63b8ff" d="M270.54,-64.27C289.22,-68.43 310.33,-73.14 328.8,-77.26"/>
<polygon fill="#63b8ff" stroke="#63b8ff" points="328.24,-80.71 338.76,-79.47 329.76,-73.88 328.24,-80.71"/>
</g>
<!-- Node8 -->
<g id="node8" class="node">
<title>Node8</title>
<g id="a_node8"><a xlink:href="namespacea60.html#ac7eddb2e330d8983ddc852edde5335c5" target="_top" xlink:title=" ">
<polygon fill="white" stroke="#666666" points="437.5,-61.5 318.5,-61.5 318.5,-44.5 437.5,-44.5 437.5,-61.5"/>
<text text-anchor="middle" x="378" y="-51.1" font-family="SourceSans" font-size="8.00">a60::to_lowercase_string</text>
</a>
</g>
</g>
<!-- Node6&#45;&gt;Node8 -->
<g id="edge7" class="edge">
<title>Node6&#45;&gt;Node8</title>
<path fill="none" stroke="#63b8ff" d="M270.54,-53C282.56,-53 295.6,-53 308.28,-53"/>
<polygon fill="#63b8ff" stroke="#63b8ff" points="308.35,-56.5 318.35,-53 308.35,-49.5 308.35,-56.5"/>
</g>
<!-- Node9 -->
<g id="node9" class="node">
<title>Node9</title>
<g id="a_node9"><a xlink:href="namespacea60.html#a11d9ffc210e8dca8410e7a5ad62deabc" target="_top" xlink:title=" ">
<polygon fill="white" stroke="#666666" points="434.5,-26 321.5,-26 321.5,0 434.5,0 434.5,-26"/>
<text text-anchor="start" x="329.5" y="-15.6" font-family="SourceSans" font-size="8.00">a60::to_replace_spaces</text>
<text text-anchor="middle" x="378" y="-6.6" font-family="SourceSans" font-size="8.00">_string</text>
</a>
</g>
</g>
<!-- Node6&#45;&gt;Node9 -->
<g id="edge8" class="edge">
<title>Node6&#45;&gt;Node9</title>
<path fill="none" stroke="#63b8ff" d="M270.54,-40.12C285.03,-36.43 300.97,-32.37 316.02,-28.54"/>
<polygon fill="#63b8ff" stroke="#63b8ff" points="316.92,-31.92 325.75,-26.06 315.19,-25.14 316.92,-31.92"/>
</g>
<!-- Node10 -->
<g id="node10" class="node">
<title>Node10</title>
<g id="a_node10"><a xlink:href="namespacea60.html#a751f954fe64233f1dc6517220e4b5692" target="_top" xlink:title=" ">
<polygon fill="white" stroke="#666666" points="586,-21.5 479,-21.5 479,-4.5 586,-4.5 586,-21.5"/>
<text text-anchor="middle" x="532.5" y="-11.1" font-family="SourceSans" font-size="8.00">a60::to_replace_string</text>
</a>
</g>
</g>
<!-- Node9&#45;&gt;Node10 -->
<g id="edge9" class="edge">
<title>Node9&#45;&gt;Node10</title>
<path fill="none" stroke="#63b8ff" d="M434.92,-13C445.92,-13 457.53,-13 468.73,-13"/>
<polygon fill="#63b8ff" stroke="#63b8ff" points="468.88,-16.5 478.88,-13 468.88,-9.5 468.88,-16.5"/>
</g>
</g>
</svg>
