<?xml version="1.0" encoding="UTF-8" standalone="no"?>
<!DOCTYPE svg PUBLIC "-//W3C//DTD SVG 1.1//EN"
 "http://www.w3.org/Graphics/SVG/1.1/DTD/svg11.dtd">
<!-- Generated by graphviz version 5.0.0 (0)
 -->
<!-- Title: a60::make_intertitle Pages: 1 -->
<svg width="915pt" height="432pt"
 viewBox="0.00 0.00 915.00 432.27" xmlns="http://www.w3.org/2000/svg" xmlns:xlink="http://www.w3.org/1999/xlink">
<g id="graph0" class="graph" transform="scale(1 1) rotate(0) translate(4 428.27)">
<title>a60::make_intertitle</title>
<!-- Node1 -->
<g id="node1" class="node">
<title>Node1</title>
<g id="a_node1"><a xlink:title="Add intertitle spacer + page for slices.">
<polygon fill="#999999" stroke="#666666" points="98,-142.5 0,-142.5 0,-125.5 98,-125.5 98,-142.5"/>
<text text-anchor="middle" x="49" y="-132.1" font-family="SourceSans" font-size="8.00">a60::make_intertitle</text>
</a>
</g>
</g>
<!-- Node2 -->
<g id="node2" class="node">
<title>Node2</title>
<g id="a_node2"><a xlink:href="namespacea60.html#afd267ab94266951ec08784e178349e3c" target="_top" xlink:title="Common parts of weighed collections.">
<polygon fill="white" stroke="#666666" points="244.5,-287.5 145.5,-287.5 145.5,-270.5 244.5,-270.5 244.5,-287.5"/>
<text text-anchor="middle" x="195" y="-277.1" font-family="SourceSans" font-size="8.00">a60::augment_base</text>
</a>
</g>
</g>
<!-- Node1&#45;&gt;Node2 -->
<g id="edge1" class="edge">
<title>Node1&#45;&gt;Node2</title>
<path fill="none" stroke="#63b8ff" d="M58.58,-142.64C82.03,-166.25 147.52,-232.2 178.01,-262.9"/>
<polygon fill="#63b8ff" stroke="#63b8ff" points="175.76,-265.6 185.29,-270.23 180.72,-260.66 175.76,-265.6"/>
</g>
<!-- Node6 -->
<g id="node6" class="node">
<title>Node6</title>
<g id="a_node6"><a xlink:href="namespacea60.html#ac7eddb2e330d8983ddc852edde5335c5" target="_top" xlink:title=" ">
<polygon fill="white" stroke="#666666" points="758.5,-295.5 639.5,-295.5 639.5,-278.5 758.5,-278.5 758.5,-295.5"/>
<text text-anchor="middle" x="699" y="-285.1" font-family="SourceSans" font-size="8.00">a60::to_lowercase_string</text>
</a>
</g>
</g>
<!-- Node1&#45;&gt;Node6 -->
<g id="edge22" class="edge">
<title>Node1&#45;&gt;Node6</title>
<path fill="none" stroke="#63b8ff" d="M52.6,-142.77C60.73,-168.93 87.9,-247.59 134,-296 190.04,-354.85 213.55,-366.82 292,-388 423.4,-423.47 485.02,-451.89 598,-376 627.7,-356.05 606.26,-326.59 634,-304 635.6,-302.69 637.3,-301.49 639.07,-300.37"/>
<polygon fill="#63b8ff" stroke="#63b8ff" points="641.12,-303.25 648.38,-295.53 637.89,-297.04 641.12,-303.25"/>
</g>
<!-- Node7 -->
<g id="node7" class="node">
<title>Node7</title>
<g id="a_node7"><a xlink:href="namespacea60.html#a11d9ffc210e8dca8410e7a5ad62deabc" target="_top" xlink:title=" ">
<polygon fill="white" stroke="#666666" points="755.5,-239 642.5,-239 642.5,-213 755.5,-213 755.5,-239"/>
<text text-anchor="start" x="650.5" y="-228.6" font-family="SourceSans" font-size="8.00">a60::to_replace_spaces</text>
<text text-anchor="middle" x="699" y="-219.6" font-family="SourceSans" font-size="8.00">_string</text>
</a>
</g>
</g>
<!-- Node1&#45;&gt;Node7 -->
<g id="edge23" class="edge">
<title>Node1&#45;&gt;Node7</title>
<path fill="none" stroke="#63b8ff" d="M98.14,-132.08C214.17,-128.02 506.45,-121.37 598,-153 629.47,-163.87 659.46,-188.31 678.25,-205.91"/>
<polygon fill="#63b8ff" stroke="#63b8ff" points="675.95,-208.57 685.58,-212.98 680.81,-203.53 675.95,-208.57"/>
</g>
<!-- Node10 -->
<g id="node10" class="node">
<title>Node10</title>
<g id="a_node10"><a xlink:href="namespacea60.html#a4e8b0cabed112734147b499bf0cc9029" target="_top" xlink:title="Conversion of resolution_mode to string.">
<polygon fill="white" stroke="#666666" points="574,-179.5 500,-179.5 500,-162.5 574,-162.5 574,-179.5"/>
<text text-anchor="middle" x="537" y="-169.1" font-family="SourceSans" font-size="8.00">a60::to_string</text>
</a>
</g>
</g>
<!-- Node1&#45;&gt;Node10 -->
<g id="edge24" class="edge">
<title>Node1&#45;&gt;Node10</title>
<path fill="none" stroke="#63b8ff" d="M95.65,-142.53C108.05,-144.59 121.51,-146.61 134,-148 262.39,-162.33 414.91,-167.96 489.81,-169.98"/>
<polygon fill="#63b8ff" stroke="#63b8ff" points="489.77,-173.48 499.86,-170.24 489.95,-166.48 489.77,-173.48"/>
</g>
<!-- Node14 -->
<g id="node14" class="node">
<title>Node14</title>
<g id="a_node14"><a xlink:href="namespacea60.html#a2380126eda3cf01ab57081064d9bd75f" target="_top" xlink:title="Gray mask.">
<polygon fill="white" stroke="#666666" points="248,-106 142,-106 142,-80 248,-80 248,-106"/>
<text text-anchor="start" x="150" y="-95.6" font-family="SourceSans" font-size="8.00">a60::augment_screen</text>
<text text-anchor="middle" x="195" y="-86.6" font-family="SourceSans" font-size="8.00">_start</text>
</a>
</g>
</g>
<!-- Node1&#45;&gt;Node14 -->
<g id="edge19" class="edge">
<title>Node1&#45;&gt;Node14</title>
<path fill="none" stroke="#63b8ff" d="M80.19,-125.41C97.05,-120.6 118.59,-114.47 138.39,-108.83"/>
<polygon fill="#63b8ff" stroke="#63b8ff" points="139.59,-112.13 148.25,-106.03 137.67,-105.4 139.59,-112.13"/>
</g>
<!-- Node15 -->
<g id="node15" class="node">
<title>Node15</title>
<g id="a_node15"><a xlink:href="namespacea60_1_1carto.html#af59ef7858ef576e7f17b781f38436f28" target="_top" xlink:title=" ">
<polygon fill="white" stroke="#666666" points="256,-61.5 134,-61.5 134,-44.5 256,-44.5 256,-61.5"/>
<text text-anchor="middle" x="195" y="-51.1" font-family="SourceSans" font-size="8.00">a60::carto::frame_margin</text>
</a>
</g>
</g>
<!-- Node1&#45;&gt;Node15 -->
<g id="edge20" class="edge">
<title>Node1&#45;&gt;Node15</title>
<path fill="none" stroke="#63b8ff" d="M59.09,-125.44C73.76,-112.05 104.06,-86.12 134,-71 138.56,-68.7 143.46,-66.64 148.42,-64.81"/>
<polygon fill="#63b8ff" stroke="#63b8ff" points="149.64,-68.09 157.98,-61.56 147.39,-61.46 149.64,-68.09"/>
</g>
<!-- Node16 -->
<g id="node16" class="node">
<title>Node16</title>
<g id="a_node16"><a xlink:href="namespacea60.html#ab8e4135bf0b91ea44a27a6fcb7a648e4" target="_top" xlink:title=" ">
<polygon fill="white" stroke="#666666" points="240,-26 150,-26 150,0 240,0 240,-26"/>
<text text-anchor="start" x="158" y="-15.6" font-family="SourceSans" font-size="8.00">a60::get_intertitle</text>
<text text-anchor="middle" x="195" y="-6.6" font-family="SourceSans" font-size="8.00">_render_state</text>
</a>
</g>
</g>
<!-- Node1&#45;&gt;Node16 -->
<g id="edge21" class="edge">
<title>Node1&#45;&gt;Node16</title>
<path fill="none" stroke="#63b8ff" d="M55.17,-125.28C66.86,-106.25 97.22,-60.67 134,-35 136.23,-33.45 138.58,-31.99 141,-30.62"/>
<polygon fill="#63b8ff" stroke="#63b8ff" points="142.7,-33.69 150.06,-26.07 139.55,-27.43 142.7,-33.69"/>
</g>
<!-- Node3 -->
<g id="node3" class="node">
<title>Node3</title>
<g id="a_node3"><a xlink:href="namespacea60.html#a578d5079a62c97b1fb3a1693a82d7430" target="_top" xlink:title="Base name for output for non&#45;map, data/info.">
<polygon fill="white" stroke="#666666" points="439,-269.5 293,-269.5 293,-252.5 439,-252.5 439,-269.5"/>
<text text-anchor="middle" x="366" y="-259.1" font-family="SourceSans" font-size="8.00">a60::augment_base_info_name</text>
</a>
</g>
</g>
<!-- Node2&#45;&gt;Node3 -->
<g id="edge2" class="edge">
<title>Node2&#45;&gt;Node3</title>
<path fill="none" stroke="#63b8ff" d="M244.88,-273.79C256.73,-272.53 269.72,-271.15 282.64,-269.77"/>
<polygon fill="#63b8ff" stroke="#63b8ff" points="283.39,-273.21 292.96,-268.67 282.65,-266.25 283.39,-273.21"/>
</g>
<!-- Node4 -->
<g id="node4" class="node">
<title>Node4</title>
<g id="a_node4"><a xlink:href="structa60_1_1collection.html#a80993af9aec8238db8e44da1e9a3c994" target="_top" xlink:title=" ">
<polygon fill="white" stroke="#666666" points="588.5,-318 485.5,-318 485.5,-292 588.5,-292 588.5,-318"/>
<text text-anchor="start" x="493.5" y="-307.6" font-family="SourceSans" font-size="8.00">a60::collection::slice</text>
<text text-anchor="middle" x="537" y="-298.6" font-family="SourceSans" font-size="8.00">_name_mangled</text>
</a>
</g>
</g>
<!-- Node2&#45;&gt;Node4 -->
<g id="edge18" class="edge">
<title>Node2&#45;&gt;Node4</title>
<path fill="none" stroke="#63b8ff" d="M244.71,-282.73C305.46,-287.37 409.3,-295.31 475.2,-300.35"/>
<polygon fill="#63b8ff" stroke="#63b8ff" points="475.2,-303.86 485.44,-301.13 475.73,-296.88 475.2,-303.86"/>
</g>
<!-- Node9 -->
<g id="node9" class="node">
<title>Node9</title>
<g id="a_node9"><a xlink:href="namespacea60.html#af7680b43cbe9dfe398fb13de46e09895" target="_top" xlink:title="Base name for output with maps.">
<polygon fill="white" stroke="#666666" points="440,-234.5 292,-234.5 292,-217.5 440,-217.5 440,-234.5"/>
<text text-anchor="middle" x="366" y="-224.1" font-family="SourceSans" font-size="8.00">a60::augment_base_map_name</text>
</a>
</g>
</g>
<!-- Node2&#45;&gt;Node9 -->
<g id="edge8" class="edge">
<title>Node2&#45;&gt;Node9</title>
<path fill="none" stroke="#63b8ff" d="M216.33,-270.49C235.59,-262.65 265.42,-251.04 292,-243 299.19,-240.83 306.85,-238.77 314.39,-236.88"/>
<polygon fill="#63b8ff" stroke="#63b8ff" points="315.31,-240.26 324.21,-234.51 313.67,-233.46 315.31,-240.26"/>
</g>
<!-- Node11 -->
<g id="node11" class="node">
<title>Node11</title>
<g id="a_node11"><a xlink:href="namespacea60.html#a1bf91ba66297e089d99c49d6a376c0ad" target="_top" xlink:title="NEW STYLE First composite with map, black on white.">
<polygon fill="white" stroke="#666666" points="419,-343.5 313,-343.5 313,-326.5 419,-326.5 419,-343.5"/>
<text text-anchor="middle" x="366" y="-333.1" font-family="SourceSans" font-size="8.00">a60::make_map_base</text>
</a>
</g>
</g>
<!-- Node2&#45;&gt;Node11 -->
<g id="edge14" class="edge">
<title>Node2&#45;&gt;Node11</title>
<path fill="none" stroke="#63b8ff" d="M220.4,-287.58C239.77,-294.35 267.56,-303.95 292,-312 303.52,-315.79 316.1,-319.81 327.53,-323.4"/>
<polygon fill="#63b8ff" stroke="#63b8ff" points="326.63,-326.78 337.21,-326.43 328.72,-320.1 326.63,-326.78"/>
</g>
<!-- Node13 -->
<g id="node13" class="node">
<title>Node13</title>
<g id="a_node13"><a xlink:href="namespacea60.html#af951ad59a8649d55d5075079447bf0e7" target="_top" xlink:title="First composite with map, white on black.">
<polygon fill="white" stroke="#666666" points="436,-378.5 296,-378.5 296,-361.5 436,-361.5 436,-378.5"/>
<text text-anchor="middle" x="366" y="-368.1" font-family="SourceSans" font-size="8.00">a60::make_map_inverse_base</text>
</a>
</g>
</g>
<!-- Node2&#45;&gt;Node13 -->
<g id="edge16" class="edge">
<title>Node2&#45;&gt;Node13</title>
<path fill="none" stroke="#63b8ff" d="M204.4,-287.56C220.12,-303.06 255.68,-335.78 292,-353 296.33,-355.05 300.92,-356.87 305.61,-358.47"/>
<polygon fill="#63b8ff" stroke="#63b8ff" points="304.74,-361.86 315.33,-361.46 306.81,-355.17 304.74,-361.86"/>
</g>
<!-- Node3&#45;&gt;Node4 -->
<g id="edge3" class="edge">
<title>Node3&#45;&gt;Node4</title>
<path fill="none" stroke="#63b8ff" d="M399.99,-269.59C421.53,-275.2 450.29,-282.68 475.81,-289.33"/>
<polygon fill="#63b8ff" stroke="#63b8ff" points="475.22,-292.79 485.78,-291.93 476.99,-286.02 475.22,-292.79"/>
</g>
<!-- Node5 -->
<g id="node5" class="node">
<title>Node5</title>
<g id="a_node5"><a xlink:href="structa60_1_1collection.html#a25b35cf4ac39da89d868fe2cf41b5acd" target="_top" xlink:title=" ">
<polygon fill="white" stroke="#666666" points="764,-330.5 634,-330.5 634,-313.5 764,-313.5 764,-330.5"/>
<text text-anchor="middle" x="699" y="-320.1" font-family="SourceSans" font-size="8.00">a60::collection::slice_name</text>
</a>
</g>
</g>
<!-- Node4&#45;&gt;Node5 -->
<g id="edge4" class="edge">
<title>Node4&#45;&gt;Node5</title>
<path fill="none" stroke="#63b8ff" d="M588.62,-310.38C599.85,-311.57 611.98,-312.86 623.93,-314.13"/>
<polygon fill="#63b8ff" stroke="#63b8ff" points="623.59,-317.61 633.9,-315.19 624.33,-310.65 623.59,-317.61"/>
</g>
<!-- Node4&#45;&gt;Node6 -->
<g id="edge5" class="edge">
<title>Node4&#45;&gt;Node6</title>
<path fill="none" stroke="#63b8ff" d="M588.62,-299.3C601.47,-297.86 615.48,-296.28 629.06,-294.76"/>
<polygon fill="#63b8ff" stroke="#63b8ff" points="629.78,-298.2 639.33,-293.6 629,-291.24 629.78,-298.2"/>
</g>
<!-- Node4&#45;&gt;Node7 -->
<g id="edge6" class="edge">
<title>Node4&#45;&gt;Node7</title>
<path fill="none" stroke="#63b8ff" d="M564.42,-291.95C591.17,-278.75 632.71,-258.24 662.36,-243.59"/>
<polygon fill="#63b8ff" stroke="#63b8ff" points="664.12,-246.63 671.54,-239.06 661.02,-240.35 664.12,-246.63"/>
</g>
<!-- Node8 -->
<g id="node8" class="node">
<title>Node8</title>
<g id="a_node8"><a xlink:href="namespacea60.html#a751f954fe64233f1dc6517220e4b5692" target="_top" xlink:title=" ">
<polygon fill="white" stroke="#666666" points="907,-234.5 800,-234.5 800,-217.5 907,-217.5 907,-234.5"/>
<text text-anchor="middle" x="853.5" y="-224.1" font-family="SourceSans" font-size="8.00">a60::to_replace_string</text>
</a>
</g>
</g>
<!-- Node7&#45;&gt;Node8 -->
<g id="edge7" class="edge">
<title>Node7&#45;&gt;Node8</title>
<path fill="none" stroke="#63b8ff" d="M755.92,-226C766.92,-226 778.53,-226 789.73,-226"/>
<polygon fill="#63b8ff" stroke="#63b8ff" points="789.88,-229.5 799.88,-226 789.88,-222.5 789.88,-229.5"/>
</g>
<!-- Node9&#45;&gt;Node4 -->
<g id="edge9" class="edge">
<title>Node9&#45;&gt;Node4</title>
<path fill="none" stroke="#63b8ff" d="M419.34,-234.52C426.51,-236.73 433.61,-239.51 440,-243 459.58,-253.7 457.55,-265.45 476,-278 481.02,-281.41 486.55,-284.58 492.15,-287.44"/>
<polygon fill="#63b8ff" stroke="#63b8ff" points="491.04,-290.79 501.57,-291.98 494.08,-284.49 491.04,-290.79"/>
</g>
<!-- Node9&#45;&gt;Node6 -->
<g id="edge10" class="edge">
<title>Node9&#45;&gt;Node6</title>
<path fill="none" stroke="#63b8ff" d="M413.37,-234.55C473.24,-245.58 577.36,-264.77 641.7,-276.62"/>
<polygon fill="#63b8ff" stroke="#63b8ff" points="641.21,-280.09 651.67,-278.46 642.47,-273.21 641.21,-280.09"/>
</g>
<!-- Node9&#45;&gt;Node7 -->
<g id="edge11" class="edge">
<title>Node9&#45;&gt;Node7</title>
<path fill="none" stroke="#63b8ff" d="M440.05,-226C497.49,-226 576.81,-226 632.28,-226"/>
<polygon fill="#63b8ff" stroke="#63b8ff" points="632.34,-229.5 642.34,-226 632.34,-222.5 632.34,-229.5"/>
</g>
<!-- Node9&#45;&gt;Node10 -->
<g id="edge12" class="edge">
<title>Node9&#45;&gt;Node10</title>
<path fill="none" stroke="#63b8ff" d="M393.41,-217.41C422.06,-208.08 467.97,-193.14 499.93,-182.74"/>
<polygon fill="#63b8ff" stroke="#63b8ff" points="501.35,-185.96 509.78,-179.53 499.19,-179.3 501.35,-185.96"/>
</g>
<!-- Node10&#45;&gt;Node10 -->
<g id="edge13" class="edge">
<title>Node10&#45;&gt;Node10</title>
<path fill="none" stroke="#63b8ff" d="M512.86,-179.69C499.53,-188.17 507.57,-197.5 537,-197.5 557.23,-197.5 567.36,-193.09 567.37,-187.58"/>
<polygon fill="#63b8ff" stroke="#63b8ff" points="570.08,-185.36 561.14,-179.69 564.59,-189.7 570.08,-185.36"/>
</g>
<!-- Node12 -->
<g id="node12" class="node">
<title>Node12</title>
<g id="a_node12"><a xlink:href="namespacea60.html#a63203aef78ad674129103340323d3b63" target="_top" xlink:title="First layer.">
<polygon fill="white" stroke="#666666" points="598,-366.5 476,-366.5 476,-349.5 598,-349.5 598,-366.5"/>
<text text-anchor="middle" x="537" y="-356.1" font-family="SourceSans" font-size="8.00">a60::place_map_in_frame</text>
</a>
</g>
</g>
<!-- Node11&#45;&gt;Node12 -->
<g id="edge15" class="edge">
<title>Node11&#45;&gt;Node12</title>
<path fill="none" stroke="#63b8ff" d="M419.08,-342.09C433.8,-344.09 450.07,-346.31 465.67,-348.43"/>
<polygon fill="#63b8ff" stroke="#63b8ff" points="465.42,-351.93 475.8,-349.81 466.37,-344.99 465.42,-351.93"/>
</g>
<!-- Node13&#45;&gt;Node12 -->
<g id="edge17" class="edge">
<title>Node13&#45;&gt;Node12</title>
<path fill="none" stroke="#63b8ff" d="M436.23,-365.08C445.97,-364.39 455.99,-363.68 465.75,-362.99"/>
<polygon fill="#63b8ff" stroke="#63b8ff" points="466.08,-366.47 475.81,-362.27 465.58,-359.49 466.08,-366.47"/>
</g>
</g>
</svg>
