<?xml version="1.0" encoding="UTF-8" standalone="no"?>
<!DOCTYPE svg PUBLIC "-//W3C//DTD SVG 1.1//EN"
 "http://www.w3.org/Graphics/SVG/1.1/DTD/svg11.dtd">
<!-- Generated by graphviz version 5.0.0 (0)
 -->
<!-- Title: a60::make_meta_peers Pages: 1 -->
<svg width="406pt" height="105pt"
 viewBox="0.00 0.00 406.00 104.50" xmlns="http://www.w3.org/2000/svg" xmlns:xlink="http://www.w3.org/1999/xlink">
<g id="graph0" class="graph" transform="scale(1 1) rotate(0) translate(4 100.5)">
<title>a60::make_meta_peers</title>
<!-- Node1 -->
<g id="node1" class="node">
<title>Node1</title>
<g id="a_node1"><a xlink:title="Make from peer_info.">
<polygon fill="#999999" stroke="#666666" points="112,-61.5 0,-61.5 0,-44.5 112,-44.5 112,-61.5"/>
<text text-anchor="middle" x="56" y="-51.1" font-family="SourceSans" font-size="8.00">a60::make_meta_peers</text>
</a>
</g>
</g>
<!-- Node2 -->
<g id="node2" class="node">
<title>Node2</title>
<g id="a_node2"><a xlink:href="namespacea60.html#ad300edc3a7396b9f52a64f37e9443891" target="_top" xlink:title="No GeoIP.">
<polygon fill="white" stroke="#666666" points="256.5,-96.5 149.5,-96.5 149.5,-79.5 256.5,-79.5 256.5,-96.5"/>
<text text-anchor="middle" x="203" y="-86.1" font-family="SourceSans" font-size="8.00">a60::make_meta_peer</text>
</a>
</g>
</g>
<!-- Node1&#45;&gt;Node2 -->
<g id="edge1" class="edge">
<title>Node1&#45;&gt;Node2</title>
<path fill="none" stroke="#63b8ff" d="M92.47,-61.56C111.85,-66.24 136.06,-72.08 156.79,-77.09"/>
<polygon fill="#63b8ff" stroke="#63b8ff" points="156.1,-80.52 166.64,-79.47 157.74,-73.72 156.1,-80.52"/>
</g>
<!-- Node3 -->
<g id="node3" class="node">
<title>Node3</title>
<g id="a_node3"><a xlink:href="namespacea60.html#afa4b02aa30f3ff7828561abb787ede03" target="_top" xlink:title="Less than compare for meta_peer via geo.">
<polygon fill="white" stroke="#666666" points="258,-61.5 148,-61.5 148,-44.5 258,-44.5 258,-61.5"/>
<text text-anchor="middle" x="203" y="-51.1" font-family="SourceSans" font-size="8.00">a60::meta_peer_lt_geo</text>
</a>
</g>
</g>
<!-- Node1&#45;&gt;Node3 -->
<g id="edge2" class="edge">
<title>Node1&#45;&gt;Node3</title>
<path fill="none" stroke="#63b8ff" d="M112.23,-53C120.54,-53 129.17,-53 137.65,-53"/>
<polygon fill="#63b8ff" stroke="#63b8ff" points="137.88,-56.5 147.88,-53 137.88,-49.5 137.88,-56.5"/>
</g>
<!-- Node4 -->
<g id="node4" class="node">
<title>Node4</title>
<g id="a_node4"><a xlink:href="structa60_1_1geo_1_1map__base.html#a9215731f10e2fa8488b0e081c2a5cef4" target="_top" xlink:title=" ">
<polygon fill="white" stroke="#666666" points="254,-26 152,-26 152,0 254,0 254,-26"/>
<text text-anchor="start" x="160" y="-15.6" font-family="SourceSans" font-size="8.00">a60::geo::map_base</text>
<text text-anchor="middle" x="203" y="-6.6" font-family="SourceSans" font-size="8.00">::open</text>
</a>
</g>
</g>
<!-- Node1&#45;&gt;Node4 -->
<g id="edge3" class="edge">
<title>Node1&#45;&gt;Node4</title>
<path fill="none" stroke="#63b8ff" d="M88.11,-44.42C104.69,-39.84 125.63,-34.07 145.01,-28.72"/>
<polygon fill="#63b8ff" stroke="#63b8ff" points="145.96,-32.09 154.67,-26.06 144.1,-25.34 145.96,-32.09"/>
</g>
<!-- Node5 -->
<g id="node5" class="node">
<title>Node5</title>
<g id="a_node5"><a xlink:href="namespacea60_1_1io.html#aa5fbb8ab63397dd45c4a54c0758935ef" target="_top" xlink:title="Sanity check input existence.">
<polygon fill="white" stroke="#666666" points="398,-26 294,-26 294,0 398,0 398,-26"/>
<text text-anchor="start" x="302" y="-15.6" font-family="SourceSans" font-size="8.00">a60::io::sanity_check</text>
<text text-anchor="middle" x="346" y="-6.6" font-family="SourceSans" font-size="8.00">_input</text>
</a>
</g>
</g>
<!-- Node4&#45;&gt;Node5 -->
<g id="edge4" class="edge">
<title>Node4&#45;&gt;Node5</title>
<path fill="none" stroke="#63b8ff" d="M254.11,-13C263.63,-13 273.69,-13 283.51,-13"/>
<polygon fill="#63b8ff" stroke="#63b8ff" points="283.63,-16.5 293.63,-13 283.63,-9.5 283.63,-16.5"/>
</g>
</g>
</svg>
