<?xml version="1.0" encoding="UTF-8" standalone="no"?>
<!DOCTYPE svg PUBLIC "-//W3C//DTD SVG 1.1//EN"
 "http://www.w3.org/Graphics/SVG/1.1/DTD/svg11.dtd">
<!-- Generated by graphviz version 5.0.0 (0)
 -->
<!-- Title: a60::augment_collection_by_partition_colors Pages: 1 -->
<svg width="742pt" height="528pt"
 viewBox="0.00 0.00 742.00 528.00" xmlns="http://www.w3.org/2000/svg" xmlns:xlink="http://www.w3.org/1999/xlink">
<g id="graph0" class="graph" transform="scale(1 1) rotate(0) translate(4 524)">
<title>a60::augment_collection_by_partition_colors</title>
<!-- Node1 -->
<g id="node1" class="node">
<title>Node1</title>
<g id="a_node1"><a xlink:title="Make metadata listing for torrent collection, per partition.">
<polygon fill="#999999" stroke="#666666" points="119,-342 0,-342 0,-316 119,-316 119,-342"/>
<text text-anchor="start" x="8" y="-331.6" font-family="SourceSans" font-size="8.00">a60::augment_collection</text>
<text text-anchor="middle" x="59.5" y="-322.6" font-family="SourceSans" font-size="8.00">_by_partition_colors</text>
</a>
</g>
</g>
<!-- Node2 -->
<g id="node2" class="node">
<title>Node2</title>
<g id="a_node2"><a xlink:href="namespacea60.html#a6c3e0c242287f663d7e80ee91e094e07" target="_top" xlink:title=" ">
<polygon fill="white" stroke="#666666" points="262,-520 164,-520 164,-494 262,-494 262,-520"/>
<text text-anchor="start" x="172" y="-509.6" font-family="SourceSans" font-size="8.00">a60::collection_size</text>
<text text-anchor="middle" x="213" y="-500.6" font-family="SourceSans" font-size="8.00">_and_partition</text>
</a>
</g>
</g>
<!-- Node1&#45;&gt;Node2 -->
<g id="edge1" class="edge">
<title>Node1&#45;&gt;Node2</title>
<path fill="none" stroke="#63b8ff" d="M65.63,-342.04C77.42,-370.54 109.02,-439.1 155,-480 158.69,-483.28 162.85,-486.25 167.2,-488.91"/>
<polygon fill="#63b8ff" stroke="#63b8ff" points="165.86,-492.16 176.31,-493.93 169.24,-486.03 165.86,-492.16"/>
</g>
<!-- Node3 -->
<g id="node3" class="node">
<title>Node3</title>
<g id="a_node3"><a xlink:href="structa60_1_1collection.html#af73cc1411b568c10442a9999f52531b4" target="_top" xlink:title=" ">
<polygon fill="white" stroke="#666666" points="453,-474.5 307,-474.5 307,-457.5 453,-457.5 453,-474.5"/>
<text text-anchor="middle" x="380" y="-464.1" font-family="SourceSans" font-size="8.00">a60::collection::partition_name</text>
</a>
</g>
</g>
<!-- Node1&#45;&gt;Node3 -->
<g id="edge25" class="edge">
<title>Node1&#45;&gt;Node3</title>
<path fill="none" stroke="#63b8ff" d="M67.14,-342.32C80.19,-366.87 111.69,-418.87 155,-442 198.05,-464.99 252.35,-471.27 296.71,-471.67"/>
<polygon fill="#63b8ff" stroke="#63b8ff" points="296.88,-475.17 306.88,-471.66 296.88,-468.17 296.88,-475.17"/>
</g>
<!-- Node4 -->
<g id="node4" class="node">
<title>Node4</title>
<g id="a_node4"><a xlink:href="namespacea60.html#a4e8b0cabed112734147b499bf0cc9029" target="_top" xlink:title="Conversion of resolution_mode to string.">
<polygon fill="white" stroke="#666666" points="585.5,-455.5 511.5,-455.5 511.5,-438.5 585.5,-438.5 585.5,-455.5"/>
<text text-anchor="middle" x="548.5" y="-445.1" font-family="SourceSans" font-size="8.00">a60::to_string</text>
</a>
</g>
</g>
<!-- Node1&#45;&gt;Node4 -->
<g id="edge31" class="edge">
<title>Node1&#45;&gt;Node4</title>
<path fill="none" stroke="#63b8ff" d="M71.38,-342.3C87.47,-360.88 119.55,-394.03 155,-409 216.35,-434.9 411.13,-443.38 501.11,-445.96"/>
<polygon fill="#63b8ff" stroke="#63b8ff" points="501.2,-449.46 511.29,-446.24 501.39,-442.47 501.2,-449.46"/>
</g>
<!-- Node5 -->
<g id="node5" class="node">
<title>Node5</title>
<g id="a_node5"><a xlink:href="namespacea60.html#a01a07073eb94fd95b2daf64dedaa9d80" target="_top" xlink:title="Less than compare for glyph.">
<polygon fill="white" stroke="#666666" points="269.5,-399.5 156.5,-399.5 156.5,-382.5 269.5,-382.5 269.5,-399.5"/>
<text text-anchor="middle" x="213" y="-389.1" font-family="SourceSans" font-size="8.00">a60::color_glyph_lt_hue</text>
</a>
</g>
</g>
<!-- Node1&#45;&gt;Node5 -->
<g id="edge5" class="edge">
<title>Node1&#45;&gt;Node5</title>
<path fill="none" stroke="#63b8ff" d="M86.18,-342.06C104.96,-351.34 131.22,-363.75 155,-373 160.64,-375.19 166.66,-377.32 172.61,-379.3"/>
<polygon fill="#63b8ff" stroke="#63b8ff" points="171.86,-382.73 182.46,-382.47 174.01,-376.07 171.86,-382.73"/>
</g>
<!-- Node6 -->
<g id="node6" class="node">
<title>Node6</title>
<g id="a_node6"><a xlink:href="structa60_1_1carto_1_1cartography.html#ab7156ee4a876cec09fec7e513467ac2d" target="_top" xlink:title=" ">
<polygon fill="white" stroke="#666666" points="270.5,-364 155.5,-364 155.5,-338 270.5,-338 270.5,-364"/>
<text text-anchor="start" x="163.5" y="-353.6" font-family="SourceSans" font-size="8.00">a60::carto::cartography</text>
<text text-anchor="middle" x="213" y="-344.6" font-family="SourceSans" font-size="8.00">::get_frame</text>
</a>
</g>
</g>
<!-- Node1&#45;&gt;Node6 -->
<g id="edge6" class="edge">
<title>Node1&#45;&gt;Node6</title>
<path fill="none" stroke="#63b8ff" d="M119.07,-337.51C127.57,-338.74 136.37,-340.02 145.02,-341.27"/>
<polygon fill="#63b8ff" stroke="#63b8ff" points="144.68,-344.76 155.08,-342.73 145.68,-337.83 144.68,-344.76"/>
</g>
<!-- Node7 -->
<g id="node7" class="node">
<title>Node7</title>
<g id="a_node7"><a xlink:href="namespacea60.html#ab8e4135bf0b91ea44a27a6fcb7a648e4" target="_top" xlink:title=" ">
<polygon fill="white" stroke="#666666" points="258,-320 168,-320 168,-294 258,-294 258,-320"/>
<text text-anchor="start" x="176" y="-309.6" font-family="SourceSans" font-size="8.00">a60::get_intertitle</text>
<text text-anchor="middle" x="213" y="-300.6" font-family="SourceSans" font-size="8.00">_render_state</text>
</a>
</g>
</g>
<!-- Node1&#45;&gt;Node7 -->
<g id="edge7" class="edge">
<title>Node1&#45;&gt;Node7</title>
<path fill="none" stroke="#63b8ff" d="M119.07,-320.49C131.69,-318.66 144.99,-316.73 157.44,-314.92"/>
<polygon fill="#63b8ff" stroke="#63b8ff" points="158.29,-318.34 167.68,-313.44 157.28,-311.41 158.29,-318.34"/>
</g>
<!-- Node8 -->
<g id="node8" class="node">
<title>Node8</title>
<g id="a_node8"><a xlink:href="namespacea60_1_1constants.html#a6338b74a1c5c6dc024b03069e07e34ac" target="_top" xlink:title=" ">
<polygon fill="white" stroke="#666666" points="271,-275.5 155,-275.5 155,-258.5 271,-258.5 271,-275.5"/>
<text text-anchor="middle" x="213" y="-265.1" font-family="SourceSans" font-size="8.00">a60::constants::hyphen</text>
</a>
</g>
</g>
<!-- Node1&#45;&gt;Node8 -->
<g id="edge8" class="edge">
<title>Node1&#45;&gt;Node8</title>
<path fill="none" stroke="#63b8ff" d="M86.18,-315.94C104.96,-306.66 131.22,-294.25 155,-285 160.64,-282.81 166.66,-280.68 172.61,-278.7"/>
<polygon fill="#63b8ff" stroke="#63b8ff" points="174.01,-281.93 182.46,-275.53 171.86,-275.27 174.01,-281.93"/>
</g>
<!-- Node9 -->
<g id="node9" class="node">
<title>Node9</title>
<g id="a_node9"><a xlink:href="namespacea60.html#ae9dd8f5f0bd8cfc07cfc19f957cf2c95" target="_top" xlink:title="Shell for titles page.">
<polygon fill="white" stroke="#666666" points="271,-240.5 155,-240.5 155,-223.5 271,-223.5 271,-240.5"/>
<text text-anchor="middle" x="213" y="-230.1" font-family="SourceSans" font-size="8.00">a60::make_glyphs_basic</text>
</a>
</g>
</g>
<!-- Node1&#45;&gt;Node9 -->
<g id="edge9" class="edge">
<title>Node1&#45;&gt;Node9</title>
<path fill="none" stroke="#63b8ff" d="M72.75,-315.97C89.7,-298.64 121.99,-268.08 155,-250 159,-247.81 163.3,-245.84 167.69,-244.08"/>
<polygon fill="#63b8ff" stroke="#63b8ff" points="169.15,-247.28 177.35,-240.56 166.75,-240.7 169.15,-247.28"/>
</g>
<!-- Node20 -->
<g id="node20" class="node">
<title>Node20</title>
<g id="a_node20"><a xlink:href="namespacea60.html#a1bf91ba66297e089d99c49d6a376c0ad" target="_top" xlink:title="NEW STYLE First composite with map, black on white.">
<polygon fill="white" stroke="#666666" points="266,-181.5 160,-181.5 160,-164.5 266,-164.5 266,-181.5"/>
<text text-anchor="middle" x="213" y="-171.1" font-family="SourceSans" font-size="8.00">a60::make_map_base</text>
</a>
</g>
</g>
<!-- Node1&#45;&gt;Node20 -->
<g id="edge23" class="edge">
<title>Node1&#45;&gt;Node20</title>
<path fill="none" stroke="#63b8ff" d="M69.78,-315.81C85.74,-293.62 120.05,-248.01 155,-215 165.61,-204.98 178.64,-195.22 189.57,-187.63"/>
<polygon fill="#63b8ff" stroke="#63b8ff" points="191.84,-190.32 198.15,-181.81 187.91,-184.53 191.84,-190.32"/>
</g>
<!-- Node22 -->
<g id="node22" class="node">
<title>Node22</title>
<g id="a_node22"><a xlink:href="structa60_1_1collection.html#a80993af9aec8238db8e44da1e9a3c994" target="_top" xlink:title=" ">
<polygon fill="white" stroke="#666666" points="264.5,-85 161.5,-85 161.5,-59 264.5,-59 264.5,-85"/>
<text text-anchor="start" x="169.5" y="-74.6" font-family="SourceSans" font-size="8.00">a60::collection::slice</text>
<text text-anchor="middle" x="213" y="-65.6" font-family="SourceSans" font-size="8.00">_name_mangled</text>
</a>
</g>
</g>
<!-- Node1&#45;&gt;Node22 -->
<g id="edge26" class="edge">
<title>Node1&#45;&gt;Node22</title>
<path fill="none" stroke="#63b8ff" d="M67.19,-315.73C82.09,-286.42 119.51,-214.13 155,-156 168.25,-134.3 184.67,-110.38 196.48,-93.63"/>
<polygon fill="#63b8ff" stroke="#63b8ff" points="199.58,-95.31 202.51,-85.12 193.87,-91.25 199.58,-95.31"/>
</g>
<!-- Node2&#45;&gt;Node3 -->
<g id="edge2" class="edge">
<title>Node2&#45;&gt;Node3</title>
<path fill="none" stroke="#63b8ff" d="M262.17,-495.03C285.1,-489.33 312.34,-482.56 334.74,-477"/>
<polygon fill="#63b8ff" stroke="#63b8ff" points="335.81,-480.34 344.67,-474.53 334.12,-473.55 335.81,-480.34"/>
</g>
<!-- Node3&#45;&gt;Node4 -->
<g id="edge3" class="edge">
<title>Node3&#45;&gt;Node4</title>
<path fill="none" stroke="#63b8ff" d="M453.06,-457.78C469.34,-455.92 486.2,-453.99 501.1,-452.3"/>
<polygon fill="#63b8ff" stroke="#63b8ff" points="501.52,-455.77 511.06,-451.16 500.73,-448.81 501.52,-455.77"/>
</g>
<!-- Node4&#45;&gt;Node4 -->
<g id="edge4" class="edge">
<title>Node4&#45;&gt;Node4</title>
<path fill="none" stroke="#63b8ff" d="M527.64,-455.69C516.12,-464.17 523.07,-473.5 548.5,-473.5 565.19,-473.5 573.92,-469.48 574.69,-464.32"/>
<polygon fill="#63b8ff" stroke="#63b8ff" points="577.59,-462.36 569.36,-455.69 571.64,-466.03 577.59,-462.36"/>
</g>
<!-- Node10 -->
<g id="node10" class="node">
<title>Node10</title>
<g id="a_node10"><a xlink:href="namespacea60.html#a732ca2d85679838beb92881e9f39a999" target="_top" xlink:title="Engage bittorrent, create session.">
<polygon fill="white" stroke="#666666" points="436,-380.5 324,-380.5 324,-363.5 436,-363.5 436,-380.5"/>
<text text-anchor="middle" x="380" y="-370.1" font-family="SourceSans" font-size="8.00">a60::configure_session</text>
</a>
</g>
</g>
<!-- Node9&#45;&gt;Node10 -->
<g id="edge10" class="edge">
<title>Node9&#45;&gt;Node10</title>
<path fill="none" stroke="#63b8ff" d="M256.62,-240.56C261.9,-242.97 266.88,-246.05 271,-250 304.81,-282.39 273.25,-316.56 307,-349 311.3,-353.14 316.35,-356.53 321.74,-359.31"/>
<polygon fill="#63b8ff" stroke="#63b8ff" points="320.51,-362.59 331.07,-363.44 323.34,-356.19 320.51,-362.59"/>
</g>
<!-- Node11 -->
<g id="node11" class="node">
<title>Node11</title>
<g id="a_node11"><a xlink:href="namespacea60_1_1io.html#a16f17ea9e02c1975ca17b77e46cf7629" target="_top" xlink:title="Make sure a path ends in &#39;/&#39;;.">
<polygon fill="white" stroke="#666666" points="734,-284.5 644,-284.5 644,-267.5 734,-267.5 734,-284.5"/>
<text text-anchor="middle" x="689" y="-274.1" font-family="SourceSans" font-size="8.00">a60::io::end_path</text>
</a>
</g>
</g>
<!-- Node9&#45;&gt;Node11 -->
<g id="edge11" class="edge">
<title>Node9&#45;&gt;Node11</title>
<path fill="none" stroke="#63b8ff" d="M254.26,-240.5C260.26,-242.92 266.07,-246.03 271,-250 296.1,-270.25 279.11,-296.81 307,-313 423.73,-380.74 595.01,-317.73 660.85,-288.78"/>
<polygon fill="#63b8ff" stroke="#63b8ff" points="662.44,-291.9 670.13,-284.61 659.57,-285.51 662.44,-291.9"/>
</g>
<!-- Node12 -->
<g id="node12" class="node">
<title>Node12</title>
<g id="a_node12"><a xlink:href="namespacea60_1_1io.html#a89f2bd581ec510ccc0a8cfedccff7bd0" target="_top" xlink:title="Top level of directory for output files.">
<polygon fill="white" stroke="#666666" points="428,-304 332,-304 332,-278 428,-278 428,-304"/>
<text text-anchor="start" x="340" y="-293.6" font-family="SourceSans" font-size="8.00">a60::io::get_output</text>
<text text-anchor="middle" x="380" y="-284.6" font-family="SourceSans" font-size="8.00">_directory</text>
</a>
</g>
</g>
<!-- Node9&#45;&gt;Node12 -->
<g id="edge12" class="edge">
<title>Node9&#45;&gt;Node12</title>
<path fill="none" stroke="#63b8ff" d="M244.54,-240.53C253.21,-243.25 262.57,-246.48 271,-250 287.69,-256.97 290.27,-262.1 307,-269 311.79,-270.97 316.82,-272.86 321.9,-274.65"/>
<polygon fill="#63b8ff" stroke="#63b8ff" points="321.09,-278.07 331.68,-277.94 323.32,-271.43 321.09,-278.07"/>
</g>
<!-- Node14 -->
<g id="node14" class="node">
<title>Node14</title>
<g id="a_node14"><a xlink:href="namespacea60.html#a1ae4660be19d8586055437f379fa4985" target="_top" xlink:title="Configure torrent session.">
<polygon fill="white" stroke="#666666" points="440,-259.5 320,-259.5 320,-242.5 440,-242.5 440,-259.5"/>
<text text-anchor="middle" x="380" y="-249.1" font-family="SourceSans" font-size="8.00">a60::make_settings_pack</text>
</a>
</g>
</g>
<!-- Node9&#45;&gt;Node14 -->
<g id="edge16" class="edge">
<title>Node9&#45;&gt;Node14</title>
<path fill="none" stroke="#63b8ff" d="M271.25,-238.59C283.66,-240.02 296.91,-241.55 309.73,-243.02"/>
<polygon fill="#63b8ff" stroke="#63b8ff" points="309.56,-246.53 319.89,-244.19 310.36,-239.57 309.56,-246.53"/>
</g>
<!-- Node15 -->
<g id="node15" class="node">
<title>Node15</title>
<g id="a_node15"><a xlink:href="structa60_1_1collection.html#a997d47a7fc3ffcabaeba3fd74cce0d82" target="_top" xlink:title=" ">
<polygon fill="white" stroke="#666666" points="435.5,-224 324.5,-224 324.5,-198 435.5,-198 435.5,-224"/>
<text text-anchor="start" x="332.5" y="-213.6" font-family="SourceSans" font-size="8.00">a60::collection::torrent</text>
<text text-anchor="middle" x="380" y="-204.6" font-family="SourceSans" font-size="8.00">_directory</text>
</a>
</g>
</g>
<!-- Node9&#45;&gt;Node15 -->
<g id="edge17" class="edge">
<title>Node9&#45;&gt;Node15</title>
<path fill="none" stroke="#63b8ff" d="M271.25,-224.71C285.1,-222.95 300.01,-221.05 314.19,-219.25"/>
<polygon fill="#63b8ff" stroke="#63b8ff" points="314.88,-222.69 324.36,-217.95 313.99,-215.75 314.88,-222.69"/>
</g>
<!-- Node18 -->
<g id="node18" class="node">
<title>Node18</title>
<g id="a_node18"><a xlink:href="structa60_1_1collection.html#a7f3662085b6407ab2a8916075c984151" target="_top" xlink:title=" ">
<polygon fill="white" stroke="#666666" points="430,-180 330,-180 330,-154 430,-154 430,-180"/>
<text text-anchor="start" x="338" y="-169.6" font-family="SourceSans" font-size="8.00">a60::collection::trim</text>
<text text-anchor="middle" x="380" y="-160.6" font-family="SourceSans" font-size="8.00">_string</text>
</a>
</g>
</g>
<!-- Node9&#45;&gt;Node18 -->
<g id="edge21" class="edge">
<title>Node9&#45;&gt;Node18</title>
<path fill="none" stroke="#63b8ff" d="M230.84,-223.36C249.24,-214.13 279.75,-199.41 307,-189 312.19,-187.02 317.64,-185.09 323.12,-183.25"/>
<polygon fill="#63b8ff" stroke="#63b8ff" points="324.55,-186.46 332.98,-180.04 322.38,-179.81 324.55,-186.46"/>
</g>
<!-- Node12&#45;&gt;Node11 -->
<g id="edge13" class="edge">
<title>Node12&#45;&gt;Node11</title>
<path fill="none" stroke="#63b8ff" d="M428.3,-288.69C483.67,-285.98 575.22,-281.51 633.52,-278.66"/>
<polygon fill="#63b8ff" stroke="#63b8ff" points="633.83,-282.15 643.64,-278.17 633.48,-275.16 633.83,-282.15"/>
</g>
<!-- Node13 -->
<g id="node13" class="node">
<title>Node13</title>
<g id="a_node13"><a xlink:href="namespacea60_1_1io.html#a6ad052ef18cfb1a1ac708f7c69c9050d" target="_top" xlink:title="Assumes argument is full path, no error checking...">
<polygon fill="white" stroke="#666666" points="596.5,-269 500.5,-269 500.5,-243 596.5,-243 596.5,-269"/>
<text text-anchor="start" x="508.5" y="-258.6" font-family="SourceSans" font-size="8.00">a60::io::get_output</text>
<text text-anchor="middle" x="548.5" y="-249.6" font-family="SourceSans" font-size="8.00">_prefix</text>
</a>
</g>
</g>
<!-- Node12&#45;&gt;Node13 -->
<g id="edge14" class="edge">
<title>Node12&#45;&gt;Node13</title>
<path fill="none" stroke="#63b8ff" d="M428.27,-281.06C447.59,-277 470.13,-272.26 490.37,-268.01"/>
<polygon fill="#63b8ff" stroke="#63b8ff" points="491.34,-271.38 500.4,-265.9 489.9,-264.53 491.34,-271.38"/>
</g>
<!-- Node13&#45;&gt;Node11 -->
<g id="edge15" class="edge">
<title>Node13&#45;&gt;Node11</title>
<path fill="none" stroke="#63b8ff" d="M596.78,-262.83C608.65,-264.54 621.49,-266.4 633.68,-268.16"/>
<polygon fill="#63b8ff" stroke="#63b8ff" points="633.34,-271.64 643.74,-269.61 634.34,-264.71 633.34,-271.64"/>
</g>
<!-- Node15&#45;&gt;Node11 -->
<g id="edge18" class="edge">
<title>Node15&#45;&gt;Node11</title>
<path fill="none" stroke="#63b8ff" d="M435.79,-210.75C482.49,-211.9 550.91,-216.83 608,-234 629.02,-240.32 650.97,-252.29 666.55,-261.83"/>
<polygon fill="#63b8ff" stroke="#63b8ff" points="665.03,-265.01 675.36,-267.39 668.77,-259.09 665.03,-265.01"/>
</g>
<!-- Node16 -->
<g id="node16" class="node">
<title>Node16</title>
<g id="a_node16"><a xlink:href="namespacea60_1_1io.html#ac95e5271a27a23bc2336d84b3f821fa2" target="_top" xlink:title="Constant filesystem and run&#45;time resources.">
<polygon fill="white" stroke="#666666" points="600.5,-187 496.5,-187 496.5,-161 600.5,-161 600.5,-187"/>
<text text-anchor="start" x="504.5" y="-176.6" font-family="SourceSans" font-size="8.00">a60::io::get_run_time</text>
<text text-anchor="middle" x="548.5" y="-167.6" font-family="SourceSans" font-size="8.00">_resources</text>
</a>
</g>
</g>
<!-- Node15&#45;&gt;Node16 -->
<g id="edge19" class="edge">
<title>Node15&#45;&gt;Node16</title>
<path fill="none" stroke="#63b8ff" d="M435.52,-198.88C451.7,-195.29 469.53,-191.33 486.11,-187.64"/>
<polygon fill="#63b8ff" stroke="#63b8ff" points="487.25,-190.97 496.25,-185.39 485.73,-184.14 487.25,-190.97"/>
</g>
<!-- Node17 -->
<g id="node17" class="node">
<title>Node17</title>
<g id="a_node17"><a xlink:href="namespacea60_1_1io.html#aa5fbb8ab63397dd45c4a54c0758935ef" target="_top" xlink:title="Sanity check input existence.">
<polygon fill="white" stroke="#666666" points="600.5,-143 496.5,-143 496.5,-117 600.5,-117 600.5,-143"/>
<text text-anchor="start" x="504.5" y="-132.6" font-family="SourceSans" font-size="8.00">a60::io::sanity_check</text>
<text text-anchor="middle" x="548.5" y="-123.6" font-family="SourceSans" font-size="8.00">_input</text>
</a>
</g>
</g>
<!-- Node15&#45;&gt;Node17 -->
<g id="edge20" class="edge">
<title>Node15&#45;&gt;Node17</title>
<path fill="none" stroke="#63b8ff" d="M434.62,-197.95C441.03,-195.43 447.31,-192.47 453,-189 472.59,-177.05 469.8,-164.56 489,-152 491.43,-150.41 493.98,-148.92 496.62,-147.51"/>
<polygon fill="#63b8ff" stroke="#63b8ff" points="498.31,-150.58 505.79,-143.07 495.26,-144.28 498.31,-150.58"/>
</g>
<!-- Node19 -->
<g id="node19" class="node">
<title>Node19</title>
<g id="a_node19"><a xlink:href="namespacea60.html#ac7eddb2e330d8983ddc852edde5335c5" target="_top" xlink:title=" ">
<polygon fill="white" stroke="#666666" points="608,-98.5 489,-98.5 489,-81.5 608,-81.5 608,-98.5"/>
<text text-anchor="middle" x="548.5" y="-88.1" font-family="SourceSans" font-size="8.00">a60::to_lowercase_string</text>
</a>
</g>
</g>
<!-- Node18&#45;&gt;Node19 -->
<g id="edge22" class="edge">
<title>Node18&#45;&gt;Node19</title>
<path fill="none" stroke="#63b8ff" d="M430.08,-155.65C438.04,-152.8 445.97,-149.29 453,-145 472.59,-133.05 469.43,-119.97 489,-108 492.57,-105.82 496.43,-103.88 500.39,-102.16"/>
<polygon fill="#63b8ff" stroke="#63b8ff" points="501.7,-105.41 509.78,-98.55 499.19,-98.88 501.7,-105.41"/>
</g>
<!-- Node21 -->
<g id="node21" class="node">
<title>Node21</title>
<g id="a_node21"><a xlink:href="namespacea60.html#a63203aef78ad674129103340323d3b63" target="_top" xlink:title="First layer.">
<polygon fill="white" stroke="#666666" points="441,-135.5 319,-135.5 319,-118.5 441,-118.5 441,-135.5"/>
<text text-anchor="middle" x="380" y="-125.1" font-family="SourceSans" font-size="8.00">a60::place_map_in_frame</text>
</a>
</g>
</g>
<!-- Node20&#45;&gt;Node21 -->
<g id="edge24" class="edge">
<title>Node20&#45;&gt;Node21</title>
<path fill="none" stroke="#63b8ff" d="M241.17,-164.45C259.66,-158.72 284.73,-151.13 307,-145 315.57,-142.64 324.76,-140.24 333.6,-138"/>
<polygon fill="#63b8ff" stroke="#63b8ff" points="334.54,-141.37 343.39,-135.55 332.84,-134.58 334.54,-141.37"/>
</g>
<!-- Node22&#45;&gt;Node19 -->
<g id="edge28" class="edge">
<title>Node22&#45;&gt;Node19</title>
<path fill="none" stroke="#63b8ff" d="M264.65,-74.73C321.7,-77.81 414.74,-82.83 478.42,-86.27"/>
<polygon fill="#63b8ff" stroke="#63b8ff" points="478.6,-89.79 488.77,-86.83 478.97,-82.8 478.6,-89.79"/>
</g>
<!-- Node23 -->
<g id="node23" class="node">
<title>Node23</title>
<g id="a_node23"><a xlink:href="structa60_1_1collection.html#a25b35cf4ac39da89d868fe2cf41b5acd" target="_top" xlink:title=" ">
<polygon fill="white" stroke="#666666" points="445,-61.5 315,-61.5 315,-44.5 445,-44.5 445,-61.5"/>
<text text-anchor="middle" x="380" y="-51.1" font-family="SourceSans" font-size="8.00">a60::collection::slice_name</text>
</a>
</g>
</g>
<!-- Node22&#45;&gt;Node23 -->
<g id="edge27" class="edge">
<title>Node22&#45;&gt;Node23</title>
<path fill="none" stroke="#63b8ff" d="M264.85,-66.14C277.45,-64.69 291.22,-63.11 304.68,-61.56"/>
<polygon fill="#63b8ff" stroke="#63b8ff" points="305.37,-65 314.9,-60.38 304.57,-58.05 305.37,-65"/>
</g>
<!-- Node24 -->
<g id="node24" class="node">
<title>Node24</title>
<g id="a_node24"><a xlink:href="namespacea60.html#a11d9ffc210e8dca8410e7a5ad62deabc" target="_top" xlink:title=" ">
<polygon fill="white" stroke="#666666" points="436.5,-26 323.5,-26 323.5,0 436.5,0 436.5,-26"/>
<text text-anchor="start" x="331.5" y="-15.6" font-family="SourceSans" font-size="8.00">a60::to_replace_spaces</text>
<text text-anchor="middle" x="380" y="-6.6" font-family="SourceSans" font-size="8.00">_string</text>
</a>
</g>
</g>
<!-- Node22&#45;&gt;Node24 -->
<g id="edge29" class="edge">
<title>Node22&#45;&gt;Node24</title>
<path fill="none" stroke="#63b8ff" d="M245.18,-58.85C263.13,-51.47 286.18,-42.31 307,-35 312.61,-33.03 318.5,-31.07 324.39,-29.17"/>
<polygon fill="#63b8ff" stroke="#63b8ff" points="325.78,-32.4 334.26,-26.05 323.67,-25.73 325.78,-32.4"/>
</g>
<!-- Node25 -->
<g id="node25" class="node">
<title>Node25</title>
<g id="a_node25"><a xlink:href="namespacea60.html#a751f954fe64233f1dc6517220e4b5692" target="_top" xlink:title=" ">
<polygon fill="white" stroke="#666666" points="602,-21.5 495,-21.5 495,-4.5 602,-4.5 602,-21.5"/>
<text text-anchor="middle" x="548.5" y="-11.1" font-family="SourceSans" font-size="8.00">a60::to_replace_string</text>
</a>
</g>
</g>
<!-- Node24&#45;&gt;Node25 -->
<g id="edge30" class="edge">
<title>Node24&#45;&gt;Node25</title>
<path fill="none" stroke="#63b8ff" d="M436.91,-13C452.25,-13 468.99,-13 484.69,-13"/>
<polygon fill="#63b8ff" stroke="#63b8ff" points="484.84,-16.5 494.84,-13 484.84,-9.5 484.84,-16.5"/>
</g>
</g>
</svg>
