<?xml version="1.0" encoding="UTF-8" standalone="no"?>
<!DOCTYPE svg PUBLIC "-//W3C//DTD SVG 1.1//EN"
 "http://www.w3.org/Graphics/SVG/1.1/DTD/svg11.dtd">
<!-- Generated by graphviz version 5.0.0 (0)
 -->
<!-- Title: a60::augment_torrent_collection_glyphs_v4h Pages: 1 -->
<svg width="276pt" height="70pt"
 viewBox="0.00 0.00 276.00 69.50" xmlns="http://www.w3.org/2000/svg" xmlns:xlink="http://www.w3.org/1999/xlink">
<g id="graph0" class="graph" transform="scale(1 1) rotate(0) translate(4 65.5)">
<title>a60::augment_torrent_collection_glyphs_v4h</title>
<!-- Node1 -->
<g id="node1" class="node">
<title>Node1</title>
<g id="a_node1"><a xlink:title="v4h, horizontal fill stagger step info hash long file names">
<polygon fill="#999999" stroke="#666666" points="110,-41.5 0,-41.5 0,-15.5 110,-15.5 110,-41.5"/>
<text text-anchor="start" x="8" y="-31.1" font-family="SourceSans" font-size="8.00">a60::augment_torrent</text>
<text text-anchor="middle" x="55" y="-22.1" font-family="SourceSans" font-size="8.00">_collection_glyphs_v4h</text>
</a>
</g>
</g>
<!-- Node2 -->
<g id="node2" class="node">
<title>Node2</title>
<g id="a_node2"><a xlink:href="namespacea60.html#a16fc823eda0f1e7ba8a80a0a7a2bd413" target="_top" xlink:title="Ziggurat style for infohash datum layout: tid &#45; color &#45; name/btih/private.">
<polygon fill="white" stroke="#666666" points="260,-61.5 154,-61.5 154,-35.5 260,-35.5 260,-61.5"/>
<text text-anchor="start" x="162" y="-51.1" font-family="SourceSans" font-size="8.00">a60::augment_torrent</text>
<text text-anchor="middle" x="207" y="-42.1" font-family="SourceSans" font-size="8.00">_glyph_v4h</text>
</a>
</g>
</g>
<!-- Node1&#45;&gt;Node2 -->
<g id="edge1" class="edge">
<title>Node1&#45;&gt;Node2</title>
<path fill="none" stroke="#63b8ff" d="M110.15,-35.72C121.08,-37.18 132.64,-38.72 143.81,-40.21"/>
<polygon fill="#63b8ff" stroke="#63b8ff" points="143.56,-43.71 153.93,-41.56 144.48,-36.77 143.56,-43.71"/>
</g>
<!-- Node3 -->
<g id="node3" class="node">
<title>Node3</title>
<g id="a_node3"><a xlink:href="namespacea60_1_1carto.html#af59ef7858ef576e7f17b781f38436f28" target="_top" xlink:title=" ">
<polygon fill="white" stroke="#666666" points="268,-17 146,-17 146,0 268,0 268,-17"/>
<text text-anchor="middle" x="207" y="-6.6" font-family="SourceSans" font-size="8.00">a60::carto::frame_margin</text>
</a>
</g>
</g>
<!-- Node1&#45;&gt;Node3 -->
<g id="edge2" class="edge">
<title>Node1&#45;&gt;Node3</title>
<path fill="none" stroke="#63b8ff" d="M110.15,-21.28C118.48,-20.17 127.17,-19.01 135.78,-17.86"/>
<polygon fill="#63b8ff" stroke="#63b8ff" points="136.38,-21.31 145.83,-16.52 135.45,-14.38 136.38,-21.31"/>
</g>
</g>
</svg>
