<?xml version="1.0" encoding="UTF-8" standalone="no"?>
<!DOCTYPE svg PUBLIC "-//W3C//DTD SVG 1.1//EN"
 "http://www.w3.org/Graphics/SVG/1.1/DTD/svg11.dtd">
<!-- Generated by graphviz version 5.0.0 (0)
 -->
<!-- Title: a60::metadata::render_cast_leads Pages: 1 -->
<!--zoomable 858 -->
<svg id="main" version="1.1" xmlns="http://www.w3.org/2000/svg" xmlns:xlink="http://www.w3.org/1999/xlink" xml:space="preserve" onload="init(evt)">
<style type="text/css"><![CDATA[
.edge:hover path { stroke: red; }
.edge:hover polygon { stroke: red; fill: red; }
]]></style>
<script type="text/javascript"><![CDATA[
var edges = document.getElementsByTagName('g');
if (edges && edges.length) {
  for (var i=0;i<edges.length;i++) {
    if (edges[i].id.substr(0,4)=='edge') {
      edges[i].setAttribute('class','edge');
    }
  }
}
]]></script>
        <defs>
                <circle id="rim" cx="0" cy="0" r="7"/>
                <circle id="rim2" cx="0" cy="0" r="3.5"/>
                <g id="zoomPlus">
                        <use xlink:href="#rim" fill="#404040">
                                <set attributeName="fill" to="#808080" begin="zoomplus.mouseover" end="zoomplus.mouseout"/>
                        </use>
                        <path d="M-4,0h8M0,-4v8" fill="none" stroke="white" stroke-width="1.5" pointer-events="none"/>
                </g>
                <g id="zoomMin">
                        <use xlink:href="#rim" fill="#404040">
                                <set attributeName="fill" to="#808080" begin="zoomminus.mouseover" end="zoomminus.mouseout"/>
                        </use>
                        <path d="M-4,0h8" fill="none" stroke="white" stroke-width="1.5" pointer-events="none"/>
                </g>
                <g id="dirArrow">
                        <path fill="none" stroke="white" stroke-width="1.5" d="M0,-3.0v7 M-2.5,-0.5L0,-3.0L2.5,-0.5"/>
                </g>
               <g id="resetDef">
                       <use xlink:href="#rim2" fill="#404040">
                               <set attributeName="fill" to="#808080" begin="reset.mouseover" end="reset.mouseout"/>
                       </use>
               </g>
        </defs>

<script type="text/javascript">
var viewWidth = 1042;
var viewHeight = 858;
var sectionId = 'dynsection-50';
</script>
<script xlink:href="svgpan.js"/>
<svg id="graph" class="graph">
<g id="viewport">
<title>a60::metadata::render_cast_leads</title>
<!-- Node1 -->
<g id="node1" class="node">
<title>Node1</title>
<g id="a_node1"><a xlink:title="Entry point for per&#45;character&#45;leads, each on separate page.">
<polygon fill="#999999" stroke="#666666" points="110,-374.76 0,-374.76 0,-348.76 110,-348.76 110,-374.76"/>
<text text-anchor="start" x="8" y="-364.36" font-family="SourceSans" font-size="8.00">a60::metadata::render</text>
<text text-anchor="middle" x="55" y="-355.36" font-family="SourceSans" font-size="8.00">_cast_leads</text>
</a>
</g>
</g>
<!-- Node2 -->
<g id="node2" class="node">
<title>Node2</title>
<g id="a_node2"><a xlink:href="namespacea60_1_1metadata.html#a576b732b69d9e6438d2bcb7c96962187" target="_top" xlink:title="Base info for per&#45;media object metadata visualizations.">
<polygon fill="white" stroke="#666666" points="267,-513.76 146,-513.76 146,-487.76 267,-487.76 267,-513.76"/>
<text text-anchor="start" x="154" y="-503.36" font-family="SourceSans" font-size="8.00">a60::metadata::augment</text>
<text text-anchor="middle" x="206.5" y="-494.36" font-family="SourceSans" font-size="8.00">_metadata_base_text</text>
</a>
</g>
</g>
<!-- Node1&#45;&gt;Node2 -->
<g id="edge1" class="edge">
<title>Node1&#45;&gt;Node2</title>
<path fill="none" stroke="#63b8ff" d="M70.06,-374.84C96.22,-399.15 152.51,-451.49 183.66,-480.45"/>
<polygon fill="#63b8ff" stroke="#63b8ff" points="181.66,-483.37 191.36,-487.62 186.42,-478.24 181.66,-483.37"/>
</g>
<!-- Node15 -->
<g id="node15" class="node">
<title>Node15</title>
<g id="a_node15"><a xlink:href="namespacea60.html#af45982273a7a2e61b6aaa436081238c0" target="_top" xlink:title="Load JSON file to in&#45;memory DOM.">
<polygon fill="white" stroke="#666666" points="418.5,-598.76 314.5,-598.76 314.5,-572.76 418.5,-572.76 418.5,-598.76"/>
<text text-anchor="start" x="322.5" y="-588.36" font-family="SourceSans" font-size="8.00">a60::deserialize_json</text>
<text text-anchor="middle" x="366.5" y="-579.36" font-family="SourceSans" font-size="8.00">_to_dom_object</text>
</a>
</g>
</g>
<!-- Node1&#45;&gt;Node15 -->
<g id="edge27" class="edge">
<title>Node1&#45;&gt;Node15</title>
<path fill="none" stroke="#63b8ff" d="M59.56,-374.86C68.58,-405.56 95.31,-482.58 146,-522.76 191.44,-558.78 256.61,-574.21 304.13,-580.81"/>
<polygon fill="#63b8ff" stroke="#63b8ff" points="303.93,-584.31 314.29,-582.13 304.83,-577.37 303.93,-584.31"/>
</g>
<!-- Node20 -->
<g id="node20" class="node">
<title>Node20</title>
<g id="a_node20"><a xlink:href="namespacea60_1_1metadata.html#a80da6438996a07a5fa1df5728c004b2a" target="_top" xlink:title="Find name &#39;field&#39; in JSON file and return vector of values.">
<polygon fill="white" stroke="#666666" points="422,-354.76 311,-354.76 311,-328.76 422,-328.76 422,-354.76"/>
<text text-anchor="start" x="319" y="-344.36" font-family="SourceSans" font-size="8.00">a60::metadata::values</text>
<text text-anchor="middle" x="366.5" y="-335.36" font-family="SourceSans" font-size="8.00">_from_field</text>
</a>
</g>
</g>
<!-- Node1&#45;&gt;Node20 -->
<g id="edge58" class="edge">
<title>Node1&#45;&gt;Node20</title>
<path fill="none" stroke="#63b8ff" d="M110.26,-358.25C163.31,-354.82 244.1,-349.6 300.53,-345.96"/>
<polygon fill="#63b8ff" stroke="#63b8ff" points="301.02,-349.43 310.78,-345.29 300.57,-342.45 301.02,-349.43"/>
</g>
<!-- Node21 -->
<g id="node21" class="node">
<title>Node21</title>
<g id="a_node21"><a xlink:href="namespacea60_1_1metadata.html#a5ca0ff78a000647758d7807c7a6b0059" target="_top" xlink:title="Base for metadata visualizations, individual and media object only.">
<polygon fill="white" stroke="#666666" points="267,-395.76 146,-395.76 146,-369.76 267,-369.76 267,-395.76"/>
<text text-anchor="start" x="154" y="-385.36" font-family="SourceSans" font-size="8.00">a60::metadata::augment</text>
<text text-anchor="middle" x="206.5" y="-376.36" font-family="SourceSans" font-size="8.00">_metadata_individual</text>
</a>
</g>
</g>
<!-- Node1&#45;&gt;Node21 -->
<g id="edge22" class="edge">
<title>Node1&#45;&gt;Node21</title>
<path fill="none" stroke="#63b8ff" d="M110.4,-369.4C118.68,-370.56 127.32,-371.78 135.87,-372.98"/>
<polygon fill="#63b8ff" stroke="#63b8ff" points="135.45,-376.45 145.84,-374.38 136.43,-369.52 135.45,-376.45"/>
</g>
<!-- Node22 -->
<g id="node22" class="node">
<title>Node22</title>
<g id="a_node22"><a xlink:href="namespacea60_1_1metadata.html#a2a2fe41343d678592a60609687661b6b" target="_top" xlink:title=" ">
<polygon fill="white" stroke="#666666" points="261.5,-215.76 151.5,-215.76 151.5,-189.76 261.5,-189.76 261.5,-215.76"/>
<text text-anchor="start" x="159.5" y="-205.36" font-family="SourceSans" font-size="8.00">a60::metadata::render</text>
<text text-anchor="middle" x="206.5" y="-196.36" font-family="SourceSans" font-size="8.00">_individual</text>
</a>
</g>
</g>
<!-- Node1&#45;&gt;Node22 -->
<g id="edge28" class="edge">
<title>Node1&#45;&gt;Node22</title>
<path fill="none" stroke="#63b8ff" d="M68.23,-348.75C94.19,-321.14 154.94,-256.54 186.18,-223.3"/>
<polygon fill="#63b8ff" stroke="#63b8ff" points="188.8,-225.63 193.1,-215.95 183.7,-220.84 188.8,-225.63"/>
</g>
<!-- Node41 -->
<g id="node41" class="node">
<title>Node41</title>
<g id="a_node41"><a xlink:href="namespacea60.html#a4e8b0cabed112734147b499bf0cc9029" target="_top" xlink:title="Conversion of resolution_mode to string.">
<polygon fill="white" stroke="#666666" points="243.5,-153.26 169.5,-153.26 169.5,-136.26 243.5,-136.26 243.5,-153.26"/>
<text text-anchor="middle" x="206.5" y="-142.86" font-family="SourceSans" font-size="8.00">a60::to_string</text>
</a>
</g>
</g>
<!-- Node1&#45;&gt;Node41 -->
<g id="edge56" class="edge">
<title>Node1&#45;&gt;Node41</title>
<path fill="none" stroke="#63b8ff" d="M59.77,-348.44C69.43,-316.27 97.75,-233.17 146,-180.76 154.47,-171.55 165.84,-163.9 176.37,-158.05"/>
<polygon fill="#63b8ff" stroke="#63b8ff" points="178.06,-161.11 185.31,-153.38 174.82,-154.91 178.06,-161.11"/>
</g>
<!-- Node3 -->
<g id="node3" class="node">
<title>Node3</title>
<g id="a_node3"><a xlink:href="namespacea60_1_1metadata.html#a826951d79c6be34a2ce4a06abee65fcf" target="_top" xlink:title="Base plate color, identity graphics, svg file.">
<polygon fill="white" stroke="#666666" points="427,-554.76 306,-554.76 306,-528.76 427,-528.76 427,-554.76"/>
<text text-anchor="start" x="314" y="-544.36" font-family="SourceSans" font-size="8.00">a60::metadata::augment</text>
<text text-anchor="middle" x="366.5" y="-535.36" font-family="SourceSans" font-size="8.00">_metadata_background</text>
</a>
</g>
</g>
<!-- Node2&#45;&gt;Node3 -->
<g id="edge2" class="edge">
<title>Node2&#45;&gt;Node3</title>
<path fill="none" stroke="#63b8ff" d="M257.93,-513.84C272.97,-517.75 289.6,-522.06 305.2,-526.11"/>
<polygon fill="#63b8ff" stroke="#63b8ff" points="304.72,-529.6 315.28,-528.73 306.48,-522.83 304.72,-529.6"/>
</g>
<!-- Node7 -->
<g id="node7" class="node">
<title>Node7</title>
<g id="a_node7"><a xlink:href="namespacea60_1_1metadata.html#adefdcf326e3314b557066902a1e2dcf9" target="_top" xlink:title=" ">
<polygon fill="white" stroke="#666666" points="428.5,-731.76 304.5,-731.76 304.5,-705.76 428.5,-705.76 428.5,-731.76"/>
<text text-anchor="start" x="312.5" y="-721.36" font-family="SourceSans" font-size="8.00">a60::metadata::canonical</text>
<text text-anchor="middle" x="366.5" y="-712.36" font-family="SourceSans" font-size="8.00">_media_name</text>
</a>
</g>
</g>
<!-- Node2&#45;&gt;Node7 -->
<g id="edge6" class="edge">
<title>Node2&#45;&gt;Node7</title>
<path fill="none" stroke="#63b8ff" d="M216.12,-514.12C232.48,-539.3 269.4,-595.35 303,-640.76 317.63,-660.53 335.22,-682.32 348.01,-697.83"/>
<polygon fill="#63b8ff" stroke="#63b8ff" points="345.49,-700.28 354.57,-705.75 350.88,-695.82 345.49,-700.28"/>
</g>
<!-- Node11 -->
<g id="node11" class="node">
<title>Node11</title>
<g id="a_node11"><a xlink:href="namespacea60.html#a34d53970ee23a7c014960a2bf1a10e2b" target="_top" xlink:title="Search DOM for string literals.">
<polygon fill="white" stroke="#666666" points="581,-639.76 478,-639.76 478,-613.76 581,-613.76 581,-639.76"/>
<text text-anchor="start" x="486" y="-629.36" font-family="SourceSans" font-size="8.00">a60::search_dom_for</text>
<text text-anchor="middle" x="529.5" y="-620.36" font-family="SourceSans" font-size="8.00">_string_field</text>
</a>
</g>
</g>
<!-- Node2&#45;&gt;Node11 -->
<g id="edge18" class="edge">
<title>Node2&#45;&gt;Node11</title>
<path fill="none" stroke="#63b8ff" d="M214.61,-513.84C228.23,-537.41 260.45,-586.51 303,-607.76 354.25,-633.35 420.27,-635.95 467.61,-633.45"/>
<polygon fill="#63b8ff" stroke="#63b8ff" points="467.95,-636.94 477.71,-632.83 467.52,-629.95 467.95,-636.94"/>
</g>
<!-- Node2&#45;&gt;Node15 -->
<g id="edge14" class="edge">
<title>Node2&#45;&gt;Node15</title>
<path fill="none" stroke="#63b8ff" d="M224.67,-513.96C243.21,-527.76 274,-549.36 303,-563.76 306.71,-565.6 310.61,-567.36 314.58,-569.02"/>
<polygon fill="#63b8ff" stroke="#63b8ff" points="313.31,-572.28 323.89,-572.72 315.89,-565.78 313.31,-572.28"/>
</g>
<!-- Node17 -->
<g id="node17" class="node">
<title>Node17</title>
<g id="a_node17"><a xlink:href="namespacea60_1_1metadata.html#aeba42336cc4f30ed9ee705111d3e82a9" target="_top" xlink:title="Typographic defaults for text labels.">
<polygon fill="white" stroke="#666666" points="578.5,-431.76 480.5,-431.76 480.5,-405.76 578.5,-405.76 578.5,-431.76"/>
<text text-anchor="start" x="488.5" y="-421.36" font-family="SourceSans" font-size="8.00">a60::metadata::get</text>
<text text-anchor="middle" x="529.5" y="-412.36" font-family="SourceSans" font-size="8.00">_metadata_typo</text>
</a>
</g>
</g>
<!-- Node2&#45;&gt;Node17 -->
<g id="edge16" class="edge">
<title>Node2&#45;&gt;Node17</title>
<path fill="none" stroke="#63b8ff" d="M267.32,-505.75C313.71,-507.23 378.55,-503.94 430,-480.76 450.07,-471.72 447.7,-458.98 466,-446.76 471.71,-442.94 478.03,-439.42 484.39,-436.26"/>
<polygon fill="#63b8ff" stroke="#63b8ff" points="486.11,-439.31 493.67,-431.89 483.13,-432.98 486.11,-439.31"/>
</g>
<!-- Node18 -->
<g id="node18" class="node">
<title>Node18</title>
<g id="a_node18"><a xlink:href="namespacea60_1_1constants.html#a4eca9d522711df25806d6dd1ff38e904" target="_top" xlink:title=" ">
<polygon fill="white" stroke="#666666" points="421.5,-472.26 311.5,-472.26 311.5,-455.26 421.5,-455.26 421.5,-472.26"/>
<text text-anchor="middle" x="366.5" y="-461.86" font-family="SourceSans" font-size="8.00">a60::constants::space</text>
</a>
</g>
</g>
<!-- Node2&#45;&gt;Node18 -->
<g id="edge19" class="edge">
<title>Node2&#45;&gt;Node18</title>
<path fill="none" stroke="#63b8ff" d="M263.2,-487.71C281.48,-483.44 301.57,-478.73 319.08,-474.63"/>
<polygon fill="#63b8ff" stroke="#63b8ff" points="320.12,-477.98 329.05,-472.29 318.52,-471.17 320.12,-477.98"/>
</g>
<!-- Node19 -->
<g id="node19" class="node">
<title>Node19</title>
<g id="a_node19"><a xlink:href="namespacea60_1_1metadata.html#adb36743be767a1f1a9947f5b6feff3a8" target="_top" xlink:title="Convert a vector of strings to a flattened and comma&#45;space&#45;separated list of strings.">
<polygon fill="white" stroke="#666666" points="422.5,-436.76 310.5,-436.76 310.5,-410.76 422.5,-410.76 422.5,-436.76"/>
<text text-anchor="start" x="318.5" y="-426.36" font-family="SourceSans" font-size="8.00">a60::metadata::strings</text>
<text text-anchor="middle" x="366.5" y="-417.36" font-family="SourceSans" font-size="8.00">_to_cssv_string</text>
</a>
</g>
</g>
<!-- Node2&#45;&gt;Node19 -->
<g id="edge20" class="edge">
<title>Node2&#45;&gt;Node19</title>
<path fill="none" stroke="#63b8ff" d="M227.78,-487.61C246.73,-475.69 276.05,-458.13 303,-445.76 307.05,-443.9 311.3,-442.1 315.61,-440.38"/>
<polygon fill="#63b8ff" stroke="#63b8ff" points="316.97,-443.61 325.06,-436.77 314.46,-437.07 316.97,-443.61"/>
</g>
<!-- Node2&#45;&gt;Node20 -->
<g id="edge21" class="edge">
<title>Node2&#45;&gt;Node20</title>
<path fill="none" stroke="#63b8ff" d="M220.01,-487.47C238.1,-468.32 272.74,-431.95 303,-401.76 316.45,-388.34 331.85,-373.55 343.99,-362.02"/>
<polygon fill="#63b8ff" stroke="#63b8ff" points="346.6,-364.37 351.45,-354.95 341.78,-359.29 346.6,-364.37"/>
</g>
<!-- Node4 -->
<g id="node4" class="node">
<title>Node4</title>
<g id="a_node4"><a xlink:href="namespacea60_1_1io.html#a16f17ea9e02c1975ca17b77e46cf7629" target="_top" xlink:title="Make sure a path ends in &#39;/&#39;;.">
<polygon fill="white" stroke="#666666" points="574.5,-551.26 484.5,-551.26 484.5,-534.26 574.5,-534.26 574.5,-551.26"/>
<text text-anchor="middle" x="529.5" y="-540.86" font-family="SourceSans" font-size="8.00">a60::io::end_path</text>
</a>
</g>
</g>
<!-- Node3&#45;&gt;Node4 -->
<g id="edge3" class="edge">
<title>Node3&#45;&gt;Node4</title>
<path fill="none" stroke="#63b8ff" d="M427.45,-542.13C442.7,-542.23 459.01,-542.33 473.98,-542.42"/>
<polygon fill="#63b8ff" stroke="#63b8ff" points="474.08,-545.92 484.1,-542.48 474.12,-538.92 474.08,-545.92"/>
</g>
<!-- Node5 -->
<g id="node5" class="node">
<title>Node5</title>
<g id="a_node5"><a xlink:href="namespacea60_1_1metadata.html#abcd6d192e6ed0f853c3c6cd9bcf13cad" target="_top" xlink:title=" ">
<polygon fill="white" stroke="#666666" points="728.5,-390.76 630.5,-390.76 630.5,-364.76 728.5,-364.76 728.5,-390.76"/>
<text text-anchor="start" x="638.5" y="-380.36" font-family="SourceSans" font-size="8.00">a60::metadata::get</text>
<text text-anchor="middle" x="679.5" y="-371.36" font-family="SourceSans" font-size="8.00">_metadata_style</text>
</a>
</g>
</g>
<!-- Node3&#45;&gt;Node5 -->
<g id="edge4" class="edge">
<title>Node3&#45;&gt;Node5</title>
<path fill="none" stroke="#63b8ff" d="M393.53,-528.68C404.94,-522.68 418.36,-515.23 430,-507.76 446.83,-496.95 448.21,-489.89 466,-480.76 518.65,-453.73 540.24,-467.56 593,-440.76 615.96,-429.09 639.31,-411.41 655.8,-397.74"/>
<polygon fill="#63b8ff" stroke="#63b8ff" points="658.38,-400.14 663.75,-391.01 653.86,-394.8 658.38,-400.14"/>
</g>
<!-- Node6 -->
<g id="node6" class="node">
<title>Node6</title>
<g id="a_node6"><a xlink:href="namespacea60_1_1io.html#ac95e5271a27a23bc2336d84b3f821fa2" target="_top" xlink:title="Constant filesystem and run&#45;time resources.">
<polygon fill="white" stroke="#666666" points="581.5,-515.76 477.5,-515.76 477.5,-489.76 581.5,-489.76 581.5,-515.76"/>
<text text-anchor="start" x="485.5" y="-505.36" font-family="SourceSans" font-size="8.00">a60::io::get_run_time</text>
<text text-anchor="middle" x="529.5" y="-496.36" font-family="SourceSans" font-size="8.00">_resources</text>
</a>
</g>
</g>
<!-- Node3&#45;&gt;Node6 -->
<g id="edge5" class="edge">
<title>Node3&#45;&gt;Node6</title>
<path fill="none" stroke="#63b8ff" d="M421.56,-528.66C436.32,-525.09 452.42,-521.19 467.54,-517.53"/>
<polygon fill="#63b8ff" stroke="#63b8ff" points="468.41,-520.92 477.31,-515.16 466.76,-514.11 468.41,-520.92"/>
</g>
<!-- Node8 -->
<g id="node8" class="node">
<title>Node8</title>
<g id="a_node8"><a xlink:href="namespacea60_1_1constants.html#a8a38c40674ec5fbf57af8127a67d1609" target="_top" xlink:title=" ">
<polygon fill="white" stroke="#666666" points="583,-815.26 476,-815.26 476,-798.26 583,-798.26 583,-815.26"/>
<text text-anchor="middle" x="529.5" y="-804.86" font-family="SourceSans" font-size="8.00">a60::constants::colon</text>
</a>
</g>
</g>
<!-- Node7&#45;&gt;Node8 -->
<g id="edge7" class="edge">
<title>Node7&#45;&gt;Node8</title>
<path fill="none" stroke="#63b8ff" d="M382.11,-731.91C400.45,-747.77 433.46,-774.24 466,-789.76 470.11,-791.72 474.48,-793.48 478.93,-795.06"/>
<polygon fill="#63b8ff" stroke="#63b8ff" points="478.12,-798.48 488.71,-798.24 480.28,-791.83 478.12,-798.48"/>
</g>
<!-- Node9 -->
<g id="node9" class="node">
<title>Node9</title>
<g id="a_node9"><a xlink:href="namespacea60_1_1constants.html#a6338b74a1c5c6dc024b03069e07e34ac" target="_top" xlink:title=" ">
<polygon fill="white" stroke="#666666" points="587.5,-780.26 471.5,-780.26 471.5,-763.26 587.5,-763.26 587.5,-780.26"/>
<text text-anchor="middle" x="529.5" y="-769.86" font-family="SourceSans" font-size="8.00">a60::constants::hyphen</text>
</a>
</g>
</g>
<!-- Node7&#45;&gt;Node9 -->
<g id="edge8" class="edge">
<title>Node7&#45;&gt;Node9</title>
<path fill="none" stroke="#63b8ff" d="M400.99,-731.8C419.94,-738.97 444.14,-747.8 466,-754.76 472.12,-756.7 478.62,-758.63 485.02,-760.44"/>
<polygon fill="#63b8ff" stroke="#63b8ff" points="484.37,-763.89 494.94,-763.19 486.24,-757.15 484.37,-763.89"/>
</g>
<!-- Node10 -->
<g id="node10" class="node">
<title>Node10</title>
<g id="a_node10"><a xlink:href="namespacea60_1_1constants.html#a370b70e28b3935e8736cb9e79697ceda" target="_top" xlink:title=" ">
<polygon fill="white" stroke="#666666" points="585,-745.26 474,-745.26 474,-728.26 585,-728.26 585,-745.26"/>
<text text-anchor="middle" x="529.5" y="-734.86" font-family="SourceSans" font-size="8.00">a60::constants::period</text>
</a>
</g>
</g>
<!-- Node7&#45;&gt;Node10 -->
<g id="edge9" class="edge">
<title>Node7&#45;&gt;Node10</title>
<path fill="none" stroke="#63b8ff" d="M428.83,-725.61C440.3,-726.9 452.33,-728.24 463.91,-729.54"/>
<polygon fill="#63b8ff" stroke="#63b8ff" points="463.61,-733.03 473.94,-730.66 464.39,-726.07 463.61,-733.03"/>
</g>
<!-- Node7&#45;&gt;Node11 -->
<g id="edge10" class="edge">
<title>Node7&#45;&gt;Node11</title>
<path fill="none" stroke="#63b8ff" d="M382.99,-705.65C401.68,-690.35 434.52,-665.07 466,-648.76 469.46,-646.96 473.1,-645.26 476.82,-643.65"/>
<polygon fill="#63b8ff" stroke="#63b8ff" points="478.19,-646.87 486.13,-639.86 475.55,-640.39 478.19,-646.87"/>
</g>
<!-- Node12 -->
<g id="node12" class="node">
<title>Node12</title>
<g id="a_node12"><a xlink:href="namespacea60.html#a0022cb8323c9a304730c5d70e4da4e4b" target="_top" xlink:title=" ">
<polygon fill="white" stroke="#666666" points="580,-710.26 479,-710.26 479,-693.26 580,-693.26 580,-710.26"/>
<text text-anchor="middle" x="529.5" y="-699.86" font-family="SourceSans" font-size="8.00">a60::to_erase_string</text>
</a>
</g>
</g>
<!-- Node7&#45;&gt;Node12 -->
<g id="edge11" class="edge">
<title>Node7&#45;&gt;Node12</title>
<path fill="none" stroke="#63b8ff" d="M428.83,-712.28C441.87,-710.91 455.62,-709.45 468.61,-708.08"/>
<polygon fill="#63b8ff" stroke="#63b8ff" points="469.26,-711.53 478.83,-707 468.52,-704.57 469.26,-711.53"/>
</g>
<!-- Node13 -->
<g id="node13" class="node">
<title>Node13</title>
<g id="a_node13"><a xlink:href="namespacea60.html#ac7eddb2e330d8983ddc852edde5335c5" target="_top" xlink:title=" ">
<polygon fill="white" stroke="#666666" points="589,-675.26 470,-675.26 470,-658.26 589,-658.26 589,-675.26"/>
<text text-anchor="middle" x="529.5" y="-664.86" font-family="SourceSans" font-size="8.00">a60::to_lowercase_string</text>
</a>
</g>
</g>
<!-- Node7&#45;&gt;Node13 -->
<g id="edge12" class="edge">
<title>Node7&#45;&gt;Node13</title>
<path fill="none" stroke="#63b8ff" d="M403.84,-705.71C422.37,-699.19 445.3,-691.31 466,-684.76 473.03,-682.53 480.54,-680.27 487.83,-678.14"/>
<polygon fill="#63b8ff" stroke="#63b8ff" points="488.93,-681.46 497.57,-675.32 486.99,-674.74 488.93,-681.46"/>
</g>
<!-- Node14 -->
<g id="node14" class="node">
<title>Node14</title>
<g id="a_node14"><a xlink:href="namespacea60.html#a751f954fe64233f1dc6517220e4b5692" target="_top" xlink:title=" ">
<polygon fill="white" stroke="#666666" points="583,-850.26 476,-850.26 476,-833.26 583,-833.26 583,-850.26"/>
<text text-anchor="middle" x="529.5" y="-839.86" font-family="SourceSans" font-size="8.00">a60::to_replace_string</text>
</a>
</g>
</g>
<!-- Node7&#45;&gt;Node14 -->
<g id="edge13" class="edge">
<title>Node7&#45;&gt;Node14</title>
<path fill="none" stroke="#63b8ff" d="M376.1,-732.05C391.41,-754.61 425.58,-800.32 466,-824.76 468.84,-826.47 471.85,-828.02 474.97,-829.41"/>
<polygon fill="#63b8ff" stroke="#63b8ff" points="473.93,-832.77 484.52,-833.15 476.48,-826.25 473.93,-832.77"/>
</g>
<!-- Node16 -->
<g id="node16" class="node">
<title>Node16</title>
<g id="a_node16"><a xlink:href="namespacea60.html#a538d43bb9bfa488a54cea929736dbe2d" target="_top" xlink:title="Deserialize input file.">
<polygon fill="white" stroke="#666666" points="581.5,-595.76 477.5,-595.76 477.5,-569.76 581.5,-569.76 581.5,-595.76"/>
<text text-anchor="start" x="485.5" y="-585.36" font-family="SourceSans" font-size="8.00">a60::deserialize_json</text>
<text text-anchor="middle" x="529.5" y="-576.36" font-family="SourceSans" font-size="8.00">_to_dom</text>
</a>
</g>
</g>
<!-- Node15&#45;&gt;Node16 -->
<g id="edge15" class="edge">
<title>Node15&#45;&gt;Node16</title>
<path fill="none" stroke="#63b8ff" d="M418.88,-584.8C434.21,-584.52 451.16,-584.2 467.06,-583.9"/>
<polygon fill="#63b8ff" stroke="#63b8ff" points="467.39,-587.4 477.33,-583.71 467.26,-580.4 467.39,-587.4"/>
</g>
<!-- Node17&#45;&gt;Node5 -->
<g id="edge17" class="edge">
<title>Node17&#45;&gt;Node5</title>
<path fill="none" stroke="#63b8ff" d="M577.74,-405.67C591.69,-401.81 607.11,-397.54 621.6,-393.52"/>
<polygon fill="#63b8ff" stroke="#63b8ff" points="622.76,-396.83 631.46,-390.79 620.89,-390.09 622.76,-396.83"/>
</g>
<!-- Node21&#45;&gt;Node15 -->
<g id="edge23" class="edge">
<title>Node21&#45;&gt;Node15</title>
<path fill="none" stroke="#63b8ff" d="M216.65,-396.05C228.96,-414.23 251.13,-448.11 267,-478.76 285.86,-515.19 273.1,-535.66 303,-563.76 304.27,-564.95 305.6,-566.08 307,-567.14"/>
<polygon fill="#63b8ff" stroke="#63b8ff" points="305.19,-570.14 315.49,-572.62 308.98,-564.26 305.19,-570.14"/>
</g>
<!-- Node21&#45;&gt;Node17 -->
<g id="edge24" class="edge">
<title>Node21&#45;&gt;Node17</title>
<path fill="none" stroke="#63b8ff" d="M267.14,-386.46C312.03,-389.58 375.01,-394.68 430,-401.76 443.1,-403.44 457.11,-405.63 470.34,-407.87"/>
<polygon fill="#63b8ff" stroke="#63b8ff" points="469.83,-411.33 480.28,-409.59 471.02,-404.44 469.83,-411.33"/>
</g>
<!-- Node21&#45;&gt;Node19 -->
<g id="edge25" class="edge">
<title>Node21&#45;&gt;Node19</title>
<path fill="none" stroke="#63b8ff" d="M257.93,-395.84C272.97,-399.75 289.6,-404.06 305.2,-408.11"/>
<polygon fill="#63b8ff" stroke="#63b8ff" points="304.72,-411.6 315.28,-410.73 306.48,-404.83 304.72,-411.6"/>
</g>
<!-- Node21&#45;&gt;Node20 -->
<g id="edge26" class="edge">
<title>Node21&#45;&gt;Node20</title>
<path fill="none" stroke="#63b8ff" d="M257.93,-369.67C272.97,-365.77 289.6,-361.45 305.2,-357.4"/>
<polygon fill="#63b8ff" stroke="#63b8ff" points="306.48,-360.69 315.28,-354.79 304.72,-353.91 306.48,-360.69"/>
</g>
<!-- Node23 -->
<g id="node23" class="node">
<title>Node23</title>
<g id="a_node23"><a xlink:href="namespacea60_1_1metadata.html#ac3d8bff60ee108b9a2bf2d10b30bc3ea" target="_top" xlink:title="For invidual, all age values.">
<polygon fill="white" stroke="#666666" points="430,-215.76 303,-215.76 303,-189.76 430,-189.76 430,-215.76"/>
<text text-anchor="start" x="311" y="-205.36" font-family="SourceSans" font-size="8.00">a60::metadata::composite</text>
<text text-anchor="middle" x="366.5" y="-196.36" font-family="SourceSans" font-size="8.00">_age_glyphs</text>
</a>
</g>
</g>
<!-- Node22&#45;&gt;Node23 -->
<g id="edge29" class="edge">
<title>Node22&#45;&gt;Node23</title>
<path fill="none" stroke="#63b8ff" d="M261.87,-202.76C271.78,-202.76 282.27,-202.76 292.61,-202.76"/>
<polygon fill="#63b8ff" stroke="#63b8ff" points="292.88,-206.26 302.88,-202.76 292.88,-199.26 292.88,-206.26"/>
</g>
<!-- Node32 -->
<g id="node32" class="node">
<title>Node32</title>
<g id="a_node32"><a xlink:href="namespacea60_1_1metadata.html#a55e36110e27d916f83d730da5d1cd635" target="_top" xlink:title="Create experimental gender glyph with multiple layers.">
<polygon fill="white" stroke="#666666" points="430,-310.76 303,-310.76 303,-284.76 430,-284.76 430,-310.76"/>
<text text-anchor="start" x="311" y="-300.36" font-family="SourceSans" font-size="8.00">a60::metadata::composite</text>
<text text-anchor="middle" x="366.5" y="-291.36" font-family="SourceSans" font-size="8.00">_gender_glyph</text>
</a>
</g>
</g>
<!-- Node22&#45;&gt;Node32 -->
<g id="edge41" class="edge">
<title>Node22&#45;&gt;Node32</title>
<path fill="none" stroke="#63b8ff" d="M221.71,-215.95C239.54,-231.92 271.61,-258.79 303,-275.76 306.28,-277.53 309.73,-279.21 313.26,-280.78"/>
<polygon fill="#63b8ff" stroke="#63b8ff" points="312.12,-284.1 322.7,-284.72 314.82,-277.64 312.12,-284.1"/>
</g>
<!-- Node33 -->
<g id="node33" class="node">
<title>Node33</title>
<g id="a_node33"><a xlink:href="namespacea60_1_1metadata.html#a102f53bc307750d33f3592c94be9bd62" target="_top" xlink:title="Z/species glyph.">
<polygon fill="white" stroke="#666666" points="430,-133.76 303,-133.76 303,-107.76 430,-107.76 430,-133.76"/>
<text text-anchor="start" x="311" y="-123.36" font-family="SourceSans" font-size="8.00">a60::metadata::composite</text>
<text text-anchor="middle" x="366.5" y="-114.36" font-family="SourceSans" font-size="8.00">_z_glyph</text>
</a>
</g>
</g>
<!-- Node22&#45;&gt;Node33 -->
<g id="edge43" class="edge">
<title>Node22&#45;&gt;Node33</title>
<path fill="none" stroke="#63b8ff" d="M247.18,-189.71C253.99,-186.84 260.85,-183.51 267,-179.76 285.28,-168.61 284.95,-159.26 303,-147.76 308.43,-144.3 314.38,-141.09 320.38,-138.18"/>
<polygon fill="#63b8ff" stroke="#63b8ff" points="322.16,-141.22 329.79,-133.86 319.24,-134.85 322.16,-141.22"/>
</g>
<!-- Node35 -->
<g id="node35" class="node">
<title>Node35</title>
<g id="a_node35"><a xlink:href="namespacea60_1_1metadata.html#adc2e2f567c754963b5e5b5ca3960798e" target="_top" xlink:title="Input string vector @values is the vector of string field values from one field, say character&#45;lead&#45;1...">
<polygon fill="white" stroke="#666666" points="590,-161.76 469,-161.76 469,-135.76 590,-135.76 590,-161.76"/>
<text text-anchor="start" x="477" y="-151.36" font-family="SourceSans" font-size="8.00">a60::metadata::separate</text>
<text text-anchor="middle" x="529.5" y="-142.36" font-family="SourceSans" font-size="8.00">_playing_values</text>
</a>
</g>
</g>
<!-- Node22&#45;&gt;Node35 -->
<g id="edge54" class="edge">
<title>Node22&#45;&gt;Node35</title>
<path fill="none" stroke="#63b8ff" d="M260.37,-189.73C274.2,-186.56 289.12,-183.34 303,-180.76 354.94,-171.11 414.08,-162.82 458.76,-157.09"/>
<polygon fill="#63b8ff" stroke="#63b8ff" points="459.45,-160.53 468.93,-155.8 458.57,-153.59 459.45,-160.53"/>
</g>
<!-- Node36 -->
<g id="node36" class="node">
<title>Node36</title>
<g id="a_node36"><a xlink:href="namespacea60_1_1constants.html#aa2d8262405ba8638e9d38e5a714db26f" target="_top" xlink:title="Find index for specific value in id_dimensions.">
<polygon fill="white" stroke="#666666" points="730,-41.76 629,-41.76 629,-15.76 730,-15.76 730,-41.76"/>
<text text-anchor="start" x="637" y="-31.36" font-family="SourceSans" font-size="8.00">a60::constants::find</text>
<text text-anchor="middle" x="679.5" y="-22.36" font-family="SourceSans" font-size="8.00">_id_index</text>
</a>
</g>
</g>
<!-- Node22&#45;&gt;Node36 -->
<g id="edge47" class="edge">
<title>Node22&#45;&gt;Node36</title>
<path fill="none" stroke="#63b8ff" d="M254.4,-189.65C259.08,-186.94 263.41,-183.68 267,-179.76 306.03,-137.11 258.04,-91.1 303,-54.76 392.92,17.92 537.91,2.56 618.9,-13.87"/>
<polygon fill="#63b8ff" stroke="#63b8ff" points="618.42,-17.34 628.93,-15.97 619.86,-10.49 618.42,-17.34"/>
</g>
<!-- Node37 -->
<g id="node37" class="node">
<title>Node37</title>
<g id="a_node37"><a xlink:href="namespacea60_1_1metadata.html#ac059aaea1bbe1e28b32dabb7dddd16f8" target="_top" xlink:title="Text grow&#45;up columns, horizontal with values (LHS) and values playing (RHS). Entry point specialized ...">
<polygon fill="white" stroke="#666666" points="421.5,-266.76 311.5,-266.76 311.5,-240.76 421.5,-240.76 421.5,-266.76"/>
<text text-anchor="start" x="319.5" y="-256.36" font-family="SourceSans" font-size="8.00">a60::metadata::render</text>
<text text-anchor="middle" x="366.5" y="-247.36" font-family="SourceSans" font-size="8.00">_ids_text_x</text>
</a>
</g>
</g>
<!-- Node22&#45;&gt;Node37 -->
<g id="edge49" class="edge">
<title>Node22&#45;&gt;Node37</title>
<path fill="none" stroke="#63b8ff" d="M247.78,-215.76C268.31,-222.39 293.49,-230.51 315.28,-237.55"/>
<polygon fill="#63b8ff" stroke="#63b8ff" points="314.43,-240.95 325.02,-240.69 316.58,-234.29 314.43,-240.95"/>
</g>
<!-- Node40 -->
<g id="node40" class="node">
<title>Node40</title>
<g id="a_node40"><a xlink:href="namespacea60_1_1metadata.html#a4eb35209c54ffd28eebbfa8e07365b69" target="_top" xlink:title="From string to sids with count n.">
<polygon fill="white" stroke="#666666" points="422.5,-89.76 310.5,-89.76 310.5,-63.76 422.5,-63.76 422.5,-89.76"/>
<text text-anchor="start" x="318.5" y="-79.36" font-family="SourceSans" font-size="8.00">a60::metadata::strings</text>
<text text-anchor="middle" x="366.5" y="-70.36" font-family="SourceSans" font-size="8.00">_to_set_of_ids</text>
</a>
</g>
</g>
<!-- Node22&#45;&gt;Node40 -->
<g id="edge55" class="edge">
<title>Node22&#45;&gt;Node40</title>
<path fill="none" stroke="#63b8ff" d="M252.99,-189.62C258.09,-186.91 262.91,-183.65 267,-179.76 295.54,-152.6 274.05,-125.48 303,-98.76 304.31,-97.55 305.69,-96.41 307.12,-95.33"/>
<polygon fill="#63b8ff" stroke="#63b8ff" points="309.28,-98.1 315.87,-89.8 305.54,-92.19 309.28,-98.1"/>
</g>
<!-- Node24 -->
<g id="node24" class="node">
<title>Node24</title>
<g id="a_node24"><a xlink:href="namespacea60_1_1metadata.html#a322c3cae56a5e97a9cb15dcc19be2911" target="_top" xlink:title="Ages and ages playing composited into one ring glyph. Select, sort, and composite if necessary the va...">
<polygon fill="white" stroke="#666666" points="593,-205.76 466,-205.76 466,-179.76 593,-179.76 593,-205.76"/>
<text text-anchor="start" x="474" y="-195.36" font-family="SourceSans" font-size="8.00">a60::metadata::composite</text>
<text text-anchor="middle" x="529.5" y="-186.36" font-family="SourceSans" font-size="8.00">_age_glyph</text>
</a>
</g>
</g>
<!-- Node23&#45;&gt;Node24 -->
<g id="edge30" class="edge">
<title>Node23&#45;&gt;Node24</title>
<path fill="none" stroke="#63b8ff" d="M430.21,-198.86C438.65,-198.34 447.36,-197.8 455.96,-197.26"/>
<polygon fill="#63b8ff" stroke="#63b8ff" points="456.2,-200.76 465.96,-196.64 455.77,-193.77 456.2,-200.76"/>
</g>
<!-- Node24&#45;&gt;Node5 -->
<g id="edge34" class="edge">
<title>Node24&#45;&gt;Node5</title>
<path fill="none" stroke="#63b8ff" d="M556.83,-205.91C568.82,-212.78 582.63,-222 593,-232.76 628.72,-269.81 655.75,-324.49 669.15,-355.02"/>
<polygon fill="#63b8ff" stroke="#63b8ff" points="666.01,-356.58 673.16,-364.39 672.44,-353.82 666.01,-356.58"/>
</g>
<!-- Node24&#45;&gt;Node24 -->
<g id="edge33" class="edge">
<title>Node24&#45;&gt;Node24</title>
<path fill="none" stroke="#63b8ff" d="M504.12,-205.82C496.43,-214.86 504.89,-223.76 529.5,-223.76 544.5,-223.76 553.5,-220.45 556.5,-215.83"/>
<polygon fill="#63b8ff" stroke="#63b8ff" points="559.93,-215.13 554.88,-205.82 553.02,-216.25 559.93,-215.13"/>
</g>
<!-- Node25 -->
<g id="node25" class="node">
<title>Node25</title>
<g id="a_node25"><a xlink:href="namespacea60_1_1constants.html#a613cac7d85819a545849f5eefd733896" target="_top" xlink:title=" ">
<polygon fill="white" stroke="#666666" points="730,-143.76 629,-143.76 629,-117.76 730,-117.76 730,-143.76"/>
<text text-anchor="start" x="637" y="-133.36" font-family="SourceSans" font-size="8.00">a60::constants::age</text>
<text text-anchor="middle" x="679.5" y="-124.36" font-family="SourceSans" font-size="8.00">_value_to_multiple</text>
</a>
</g>
</g>
<!-- Node24&#45;&gt;Node25 -->
<g id="edge31" class="edge">
<title>Node24&#45;&gt;Node25</title>
<path fill="none" stroke="#63b8ff" d="M569.4,-179.74C577.27,-176.92 585.44,-173.85 593,-170.76 609.71,-163.93 627.87,-155.57 643.13,-148.27"/>
<polygon fill="#63b8ff" stroke="#63b8ff" points="644.74,-151.38 652.23,-143.88 641.7,-145.07 644.74,-151.38"/>
</g>
<!-- Node27 -->
<g id="node27" class="node">
<title>Node27</title>
<g id="a_node27"><a xlink:href="namespacea60_1_1metadata.html#aa74f3d32a4793b6323d54e93c6c911b9" target="_top" xlink:title="Grows out from center &#39;as if&#39; a tree growing a tree ring. Spans unknown to [00&#45;01,...">
<polygon fill="white" stroke="#666666" points="729.5,-227.76 629.5,-227.76 629.5,-201.76 729.5,-201.76 729.5,-227.76"/>
<text text-anchor="start" x="637.5" y="-217.36" font-family="SourceSans" font-size="8.00">a60::metadata::ring</text>
<text text-anchor="middle" x="679.5" y="-208.36" font-family="SourceSans" font-size="8.00">_glyph</text>
</a>
</g>
</g>
<!-- Node24&#45;&gt;Node27 -->
<g id="edge35" class="edge">
<title>Node24&#45;&gt;Node27</title>
<path fill="none" stroke="#63b8ff" d="M593.27,-202.09C601.78,-203.35 610.5,-204.65 618.95,-205.91"/>
<polygon fill="#63b8ff" stroke="#63b8ff" points="618.7,-209.41 629.1,-207.42 619.73,-202.48 618.7,-209.41"/>
</g>
<!-- Node28 -->
<g id="node28" class="node">
<title>Node28</title>
<g id="a_node28"><a xlink:href="namespacea60_1_1metadata.html#ae3aa31b1fc054034f40b30f22bf0d4b8" target="_top" xlink:title="Find orbit of ring, given radius, rspace, and number ring. Assume: ringsn starts with 1 for values an...">
<polygon fill="white" stroke="#666666" points="874.5,-206.76 774.5,-206.76 774.5,-180.76 874.5,-180.76 874.5,-206.76"/>
<text text-anchor="start" x="782.5" y="-196.36" font-family="SourceSans" font-size="8.00">a60::metadata::ring</text>
<text text-anchor="middle" x="824.5" y="-187.36" font-family="SourceSans" font-size="8.00">_radius</text>
</a>
</g>
</g>
<!-- Node24&#45;&gt;Node28 -->
<g id="edge37" class="edge">
<title>Node24&#45;&gt;Node28</title>
<path fill="none" stroke="#63b8ff" d="M593.4,-192.59C632.67,-192.52 684.28,-192.51 730,-192.76 741.06,-192.82 752.86,-192.92 764.22,-193.03"/>
<polygon fill="#63b8ff" stroke="#63b8ff" points="764.45,-196.53 774.49,-193.14 764.53,-189.53 764.45,-196.53"/>
</g>
<!-- Node29 -->
<g id="node29" class="node">
<title>Node29</title>
<g id="a_node29"><a xlink:href="namespacea60_1_1metadata.html#a5156bb42291c8eb54dc6ddef8688be1e" target="_top" xlink:title="Split playing value into actor &#45;&gt; LHS of playing &quot;person&quot; role &#45;&gt; RHS of playing &quot;persona&quot; NB: Each s...">
<polygon fill="white" stroke="#666666" points="730,-94.76 629,-94.76 629,-68.76 730,-68.76 730,-94.76"/>
<text text-anchor="start" x="637" y="-84.36" font-family="SourceSans" font-size="8.00">a60::metadata::split</text>
<text text-anchor="middle" x="679.5" y="-75.36" font-family="SourceSans" font-size="8.00">_playing_value</text>
</a>
</g>
</g>
<!-- Node24&#45;&gt;Node29 -->
<g id="edge38" class="edge">
<title>Node24&#45;&gt;Node29</title>
<path fill="none" stroke="#63b8ff" d="M579.13,-179.61C584.09,-177.13 588.84,-174.21 593,-170.76 617.54,-150.44 606.17,-130.99 629,-108.76 632.2,-105.64 635.84,-102.77 639.65,-100.17"/>
<polygon fill="#63b8ff" stroke="#63b8ff" points="641.52,-103.13 648.18,-94.89 637.83,-97.18 641.52,-103.13"/>
</g>
<!-- Node26 -->
<g id="node26" class="node">
<title>Node26</title>
<g id="a_node26"><a xlink:href="namespacea60_1_1constants.html#ac27c77e4606552ae5f74a1c21dd9258e" target="_top" xlink:title=" ">
<polygon fill="white" stroke="#666666" points="883,-137.26 766,-137.26 766,-120.26 883,-120.26 883,-137.26"/>
<text text-anchor="middle" x="824.5" y="-126.86" font-family="SourceSans" font-size="8.00">a60::constants::newline</text>
</a>
</g>
</g>
<!-- Node25&#45;&gt;Node26 -->
<g id="edge32" class="edge">
<title>Node25&#45;&gt;Node26</title>
<path fill="none" stroke="#63b8ff" d="M730.11,-130.06C738.35,-129.95 747.01,-129.83 755.6,-129.71"/>
<polygon fill="#63b8ff" stroke="#63b8ff" points="755.67,-133.21 765.62,-129.57 755.58,-126.21 755.67,-133.21"/>
</g>
<!-- Node27&#45;&gt;Node28 -->
<g id="edge36" class="edge">
<title>Node27&#45;&gt;Node28</title>
<path fill="none" stroke="#63b8ff" d="M729.71,-207.53C740.84,-205.9 752.76,-204.15 764.24,-202.46"/>
<polygon fill="#63b8ff" stroke="#63b8ff" points="764.81,-205.91 774.2,-201 763.79,-198.99 764.81,-205.91"/>
</g>
<!-- Node30 -->
<g id="node30" class="node">
<title>Node30</title>
<g id="a_node30"><a xlink:href="namespacea60_1_1metadata.html#acd47cfb00b07af853234227fdaa04cf9" target="_top" xlink:title="Convert a comma&#45;space&#45;separated list of strings to a vector of strings.">
<polygon fill="white" stroke="#666666" points="875.5,-94.76 773.5,-94.76 773.5,-68.76 875.5,-68.76 875.5,-94.76"/>
<text text-anchor="start" x="781.5" y="-84.36" font-family="SourceSans" font-size="8.00">a60::metadata::cssv</text>
<text text-anchor="middle" x="824.5" y="-75.36" font-family="SourceSans" font-size="8.00">_string_to_strings</text>
</a>
</g>
</g>
<!-- Node29&#45;&gt;Node30 -->
<g id="edge39" class="edge">
<title>Node29&#45;&gt;Node30</title>
<path fill="none" stroke="#63b8ff" d="M730.11,-81.76C740.86,-81.76 752.34,-81.76 763.44,-81.76"/>
<polygon fill="#63b8ff" stroke="#63b8ff" points="763.49,-85.26 773.49,-81.76 763.49,-78.26 763.49,-85.26"/>
</g>
<!-- Node31 -->
<g id="node31" class="node">
<title>Node31</title>
<g id="a_node31"><a xlink:href="namespacea60_1_1constants.html#a2fd5efb0c88809132a730787d05a080a" target="_top" xlink:title=" ">
<polygon fill="white" stroke="#666666" points="1034,-90.26 919,-90.26 919,-73.26 1034,-73.26 1034,-90.26"/>
<text text-anchor="middle" x="976.5" y="-79.86" font-family="SourceSans" font-size="8.00">a60::constants::comma</text>
</a>
</g>
</g>
<!-- Node30&#45;&gt;Node31 -->
<g id="edge40" class="edge">
<title>Node30&#45;&gt;Node31</title>
<path fill="none" stroke="#63b8ff" d="M875.87,-81.76C886.42,-81.76 897.71,-81.76 908.76,-81.76"/>
<polygon fill="#63b8ff" stroke="#63b8ff" points="908.81,-85.26 918.81,-81.76 908.81,-78.26 908.81,-85.26"/>
</g>
<!-- Node32&#45;&gt;Node5 -->
<g id="edge42" class="edge">
<title>Node32&#45;&gt;Node5</title>
<path fill="none" stroke="#63b8ff" d="M411.94,-310.78C418.2,-313.36 424.4,-316.34 430,-319.76 448.79,-331.22 446.04,-344.49 466,-353.76 514.58,-376.31 575.89,-381.07 620.15,-380.92"/>
<polygon fill="#63b8ff" stroke="#63b8ff" points="620.22,-384.42 630.17,-380.81 620.13,-377.42 620.22,-384.42"/>
</g>
<!-- Node33&#45;&gt;Node29 -->
<g id="edge46" class="edge">
<title>Node33&#45;&gt;Node29</title>
<path fill="none" stroke="#63b8ff" d="M406.02,-107.74C413.99,-104.9 422.3,-101.82 430,-98.76 446.27,-92.29 448.88,-86.43 466,-82.76 516.76,-71.86 575.92,-72.64 618.91,-75.56"/>
<polygon fill="#63b8ff" stroke="#63b8ff" points="618.7,-79.05 628.93,-76.29 619.21,-72.07 618.7,-79.05"/>
</g>
<!-- Node34 -->
<g id="node34" class="node">
<title>Node34</title>
<g id="a_node34"><a xlink:href="namespacea60_1_1metadata.html#a5570579c703597755acb69f31662661b" target="_top" xlink:title="Species (z, the unknown) glyph.">
<polygon fill="white" stroke="#666666" points="584.5,-117.76 474.5,-117.76 474.5,-91.76 584.5,-91.76 584.5,-117.76"/>
<text text-anchor="start" x="482.5" y="-107.36" font-family="SourceSans" font-size="8.00">a60::metadata::render</text>
<text text-anchor="middle" x="529.5" y="-98.36" font-family="SourceSans" font-size="8.00">_z_glyph</text>
</a>
</g>
</g>
<!-- Node33&#45;&gt;Node34 -->
<g id="edge44" class="edge">
<title>Node33&#45;&gt;Node34</title>
<path fill="none" stroke="#63b8ff" d="M430.21,-114.53C441.36,-113.42 453,-112.26 464.19,-111.15"/>
<polygon fill="#63b8ff" stroke="#63b8ff" points="464.72,-114.61 474.33,-110.14 464.03,-107.65 464.72,-114.61"/>
</g>
<!-- Node33&#45;&gt;Node35 -->
<g id="edge45" class="edge">
<title>Node33&#45;&gt;Node35</title>
<path fill="none" stroke="#63b8ff" d="M430.21,-131.66C439.64,-133.31 449.42,-135.01 458.99,-136.67"/>
<polygon fill="#63b8ff" stroke="#63b8ff" points="458.41,-140.12 468.86,-138.39 459.61,-133.23 458.41,-140.12"/>
</g>
<!-- Node36&#45;&gt;Node26 -->
<g id="edge48" class="edge">
<title>Node36&#45;&gt;Node26</title>
<path fill="none" stroke="#63b8ff" d="M704.77,-41.8C713.17,-46.86 722.39,-53.05 730,-59.76 748.96,-76.46 745.85,-88.52 766,-103.76 772.47,-108.65 780.05,-112.82 787.54,-116.26"/>
<polygon fill="#63b8ff" stroke="#63b8ff" points="786.32,-119.54 796.89,-120.24 789.06,-113.1 786.32,-119.54"/>
</g>
<!-- Node37&#45;&gt;Node5 -->
<g id="edge50" class="edge">
<title>Node37&#45;&gt;Node5</title>
<path fill="none" stroke="#63b8ff" d="M414.02,-266.81C419.65,-269.33 425.12,-272.3 430,-275.76 450.89,-290.58 444.51,-306.83 466,-320.76 514.94,-352.48 536.7,-338.54 593,-353.76 602.6,-356.35 612.79,-359.16 622.66,-361.92"/>
<polygon fill="#63b8ff" stroke="#63b8ff" points="621.82,-365.32 632.4,-364.64 623.71,-358.57 621.82,-365.32"/>
</g>
<!-- Node37&#45;&gt;Node17 -->
<g id="edge51" class="edge">
<title>Node37&#45;&gt;Node17</title>
<path fill="none" stroke="#63b8ff" d="M417.08,-266.86C421.76,-269.33 426.17,-272.27 430,-275.76 458.24,-301.46 444.47,-322.23 466,-353.76 477.33,-370.35 493.01,-386.65 505.83,-398.77"/>
<polygon fill="#63b8ff" stroke="#63b8ff" points="503.66,-401.53 513.38,-405.75 508.41,-396.39 503.66,-401.53"/>
</g>
<!-- Node38 -->
<g id="node38" class="node">
<title>Node38</title>
<g id="a_node38"><a xlink:href="namespacea60_1_1metadata.html#ab809b870c71701237f98849a7fe94a35" target="_top" xlink:title="Substitue &quot;&#45;&gt;&quot; for &quot;playing&quot; in input string s.">
<polygon fill="white" stroke="#666666" points="587.5,-267.76 471.5,-267.76 471.5,-241.76 587.5,-241.76 587.5,-267.76"/>
<text text-anchor="start" x="479.5" y="-257.36" font-family="SourceSans" font-size="8.00">a60::metadata::shorten</text>
<text text-anchor="middle" x="529.5" y="-248.36" font-family="SourceSans" font-size="8.00">_playing_value</text>
</a>
</g>
</g>
<!-- Node37&#45;&gt;Node38 -->
<g id="edge52" class="edge">
<title>Node37&#45;&gt;Node38</title>
<path fill="none" stroke="#63b8ff" d="M421.56,-254.09C434.3,-254.17 448.03,-254.26 461.27,-254.34"/>
<polygon fill="#63b8ff" stroke="#63b8ff" points="461.25,-257.84 471.28,-254.4 461.3,-250.84 461.25,-257.84"/>
</g>
<!-- Node39 -->
<g id="node39" class="node">
<title>Node39</title>
<g id="a_node39"><a xlink:href="namespacea60_1_1metadata.html#a841cf4a54bf053a6f8b77d8254053548" target="_top" xlink:title="Text moving up.">
<polygon fill="white" stroke="#666666" points="579,-311.76 480,-311.76 480,-285.76 579,-285.76 579,-311.76"/>
<text text-anchor="start" x="488" y="-301.36" font-family="SourceSans" font-size="8.00">a60::metadata::text</text>
<text text-anchor="middle" x="529.5" y="-292.36" font-family="SourceSans" font-size="8.00">_grow_up_from</text>
</a>
</g>
</g>
<!-- Node37&#45;&gt;Node39 -->
<g id="edge53" class="edge">
<title>Node37&#45;&gt;Node39</title>
<path fill="none" stroke="#63b8ff" d="M414.07,-266.77C432.18,-271.84 453.09,-277.68 472.05,-282.98"/>
<polygon fill="#63b8ff" stroke="#63b8ff" points="471.19,-286.37 481.76,-285.69 473.07,-279.63 471.19,-286.37"/>
</g>
<!-- Node41&#45;&gt;Node41 -->
<g id="edge57" class="edge">
<title>Node41&#45;&gt;Node41</title>
<path fill="none" stroke="#63b8ff" d="M184.15,-153.44C171.8,-161.93 179.25,-171.26 206.5,-171.26 224.81,-171.26 234.18,-167.05 234.61,-161.71"/>
<polygon fill="#63b8ff" stroke="#63b8ff" points="237.44,-159.65 228.85,-153.44 231.69,-163.65 237.44,-159.65"/>
</g>
</g>
</svg>
        <g id="navigator" transform="translate(0 0)" fill="#404254">
                <rect fill="#f2f5e9" fill-opacity="0.5" stroke="#606060" stroke-width=".5" x="0" y="0" width="60" height="60"/>
                <use id="zoomplus" xlink:href="#zoomPlus" x="17" y="9" onmousedown="handleZoom(evt,'in')"/>
                <use id="zoomminus" xlink:href="#zoomMin" x="42" y="9" onmousedown="handleZoom(evt,'out')"/>
                <use id="reset" xlink:href="#resetDef" x="30" y="36" onmousedown="handleReset()"/>
                <g id="arrowUp" xlink:href="#dirArrow" transform="translate(30 24)" onmousedown="handlePan(0,-1)">
                  <use xlink:href="#rim" fill="#404040">
                        <set attributeName="fill" to="#808080" begin="arrowUp.mouseover" end="arrowUp.mouseout"/>
                  </use>
                  <path fill="none" stroke="white" stroke-width="1.5" d="M0,-3.0v7 M-2.5,-0.5L0,-3.0L2.5,-0.5"/>
                </g>
                <g id="arrowRight" xlink:href="#dirArrow" transform="rotate(90) translate(36 -43)" onmousedown="handlePan(1,0)">
                  <use xlink:href="#rim" fill="#404040">
                        <set attributeName="fill" to="#808080" begin="arrowRight.mouseover" end="arrowRight.mouseout"/>
                  </use>
                  <path fill="none" stroke="white" stroke-width="1.5" d="M0,-3.0v7 M-2.5,-0.5L0,-3.0L2.5,-0.5"/>
                </g>
                <g id="arrowDown" xlink:href="#dirArrow" transform="rotate(180) translate(-30 -48)" onmousedown="handlePan(0,1)">
                  <use xlink:href="#rim" fill="#404040">
                        <set attributeName="fill" to="#808080" begin="arrowDown.mouseover" end="arrowDown.mouseout"/>
                  </use>
                  <path fill="none" stroke="white" stroke-width="1.5" d="M0,-3.0v7 M-2.5,-0.5L0,-3.0L2.5,-0.5"/>
                </g>
                <g id="arrowLeft" xlink:href="#dirArrow" transform="rotate(270) translate(-36 17)" onmousedown="handlePan(-1,0)">
                  <use xlink:href="#rim" fill="#404040">
                        <set attributeName="fill" to="#808080" begin="arrowLeft.mouseover" end="arrowLeft.mouseout"/>
                  </use>
                  <path fill="none" stroke="white" stroke-width="1.5" d="M0,-3.0v7 M-2.5,-0.5L0,-3.0L2.5,-0.5"/>
                </g>
        </g>
        <svg viewBox="0 0 15 15" width="100%" height="30px" preserveAspectRatio="xMaxYMin meet">
         <g id="arrow_out" transform="scale(0.3 0.3)">
          <a xlink:href="namespacea60_1_1metadata_a959b3b39d653d1dc59782776690ad6b0_cgraph_org.svg" target="_base">
           <rect id="button" ry="5" rx="5" y="6" x="6" height="38" width="38"
                fill="#f2f5e9" fill-opacity="0.5" stroke="#606060" stroke-width="1.0"/>
           <path id="arrow"
             d="M 11.500037,31.436501 C 11.940474,20.09759 22.043105,11.32322 32.158766,21.979434 L 37.068811,17.246167 C 37.068811,17.246167 37.088388,32 37.088388,32 L 22.160133,31.978069 C 22.160133,31.978069 26.997745,27.140456 26.997745,27.140456 C 18.528582,18.264221 13.291696,25.230495 11.500037,31.436501 z"
             style="fill:#404040;"/>
          </a>
         </g>
        </svg>
</svg>
