<?xml version="1.0" encoding="UTF-8" standalone="no"?>
<!DOCTYPE svg PUBLIC "-//W3C//DTD SVG 1.1//EN"
 "http://www.w3.org/Graphics/SVG/1.1/DTD/svg11.dtd">
<!-- Generated by graphviz version 5.0.0 (0)
 -->
<!-- Title: a60::sample_universe_size_metadata Pages: 1 -->
<svg width="255pt" height="78pt"
 viewBox="0.00 0.00 255.00 78.00" xmlns="http://www.w3.org/2000/svg" xmlns:xlink="http://www.w3.org/1999/xlink">
<g id="graph0" class="graph" transform="scale(1 1) rotate(0) translate(4 74)">
<title>a60::sample_universe_size_metadata</title>
<!-- Node1 -->
<g id="node1" class="node">
<title>Node1</title>
<g id="a_node1"><a xlink:title="Search DOM for sample size metadata.">
<polygon fill="#999999" stroke="#666666" points="107,-48 0,-48 0,-22 107,-22 107,-48"/>
<text text-anchor="start" x="8" y="-37.6" font-family="SourceSans" font-size="8.00">a60::sample_universe</text>
<text text-anchor="middle" x="53.5" y="-28.6" font-family="SourceSans" font-size="8.00">_size_metadata</text>
</a>
</g>
</g>
<!-- Node2 -->
<g id="node2" class="node">
<title>Node2</title>
<g id="a_node2"><a xlink:href="namespacea60.html#a538d43bb9bfa488a54cea929736dbe2d" target="_top" xlink:title="Deserialize input file.">
<polygon fill="white" stroke="#666666" points="247,-70 143,-70 143,-44 247,-44 247,-70"/>
<text text-anchor="start" x="151" y="-59.6" font-family="SourceSans" font-size="8.00">a60::deserialize_json</text>
<text text-anchor="middle" x="195" y="-50.6" font-family="SourceSans" font-size="8.00">_to_dom</text>
</a>
</g>
</g>
<!-- Node1&#45;&gt;Node2 -->
<g id="edge1" class="edge">
<title>Node1&#45;&gt;Node2</title>
<path fill="none" stroke="#63b8ff" d="M107.24,-43.32C115.47,-44.61 124.03,-45.97 132.43,-47.29"/>
<polygon fill="#63b8ff" stroke="#63b8ff" points="132.15,-50.79 142.57,-48.89 133.24,-43.87 132.15,-50.79"/>
</g>
<!-- Node3 -->
<g id="node3" class="node">
<title>Node3</title>
<g id="a_node3"><a xlink:href="namespacea60.html#a800a2e54e8f2d2481c4bb2fb929dba7f" target="_top" xlink:title="Search DOM for integer values.">
<polygon fill="white" stroke="#666666" points="246.5,-26 143.5,-26 143.5,0 246.5,0 246.5,-26"/>
<text text-anchor="start" x="151.5" y="-15.6" font-family="SourceSans" font-size="8.00">a60::search_dom_for</text>
<text text-anchor="middle" x="195" y="-6.6" font-family="SourceSans" font-size="8.00">_int_field</text>
</a>
</g>
</g>
<!-- Node1&#45;&gt;Node3 -->
<g id="edge2" class="edge">
<title>Node1&#45;&gt;Node3</title>
<path fill="none" stroke="#63b8ff" d="M107.24,-26.68C115.78,-25.34 124.68,-23.93 133.39,-22.56"/>
<polygon fill="#63b8ff" stroke="#63b8ff" points="134.16,-25.98 143.49,-20.97 133.07,-19.07 134.16,-25.98"/>
</g>
</g>
</svg>
