<?xml version="1.0" encoding="UTF-8" standalone="no"?>
<!DOCTYPE svg PUBLIC "-//W3C//DTD SVG 1.1//EN"
 "http://www.w3.org/Graphics/SVG/1.1/DTD/svg11.dtd">
<!-- Generated by graphviz version 5.0.0 (0)
 -->
<!-- Title: a60::starlink_gateways_geojson Pages: 1 -->
<svg width="427pt" height="170pt"
 viewBox="0.00 0.00 427.00 169.50" xmlns="http://www.w3.org/2000/svg" xmlns:xlink="http://www.w3.org/1999/xlink">
<g id="graph0" class="graph" transform="scale(1 1) rotate(0) translate(4 165.5)">
<title>a60::starlink_gateways_geojson</title>
<!-- Node1 -->
<g id="node1" class="node">
<title>Node1</title>
<g id="a_node1"><a xlink:title="Create triangles at starlink gateways.">
<polygon fill="#999999" stroke="#666666" points="112,-99.5 0,-99.5 0,-73.5 112,-73.5 112,-99.5"/>
<text text-anchor="start" x="8" y="-89.1" font-family="SourceSans" font-size="8.00">a60::starlink_gateways</text>
<text text-anchor="middle" x="56" y="-80.1" font-family="SourceSans" font-size="8.00">_geojson</text>
</a>
</g>
</g>
<!-- Node2 -->
<g id="node2" class="node">
<title>Node2</title>
<g id="a_node2"><a xlink:href="namespacea60.html#af45982273a7a2e61b6aaa436081238c0" target="_top" xlink:title="Load JSON file to in&#45;memory DOM.">
<polygon fill="white" stroke="#666666" points="259,-161.5 155,-161.5 155,-135.5 259,-135.5 259,-161.5"/>
<text text-anchor="start" x="163" y="-151.1" font-family="SourceSans" font-size="8.00">a60::deserialize_json</text>
<text text-anchor="middle" x="207" y="-142.1" font-family="SourceSans" font-size="8.00">_to_dom_object</text>
</a>
</g>
</g>
<!-- Node1&#45;&gt;Node2 -->
<g id="edge1" class="edge">
<title>Node1&#45;&gt;Node2</title>
<path fill="none" stroke="#63b8ff" d="M88.6,-99.65C111,-108.97 141.24,-121.55 165.43,-131.62"/>
<polygon fill="#63b8ff" stroke="#63b8ff" points="164.13,-134.87 174.7,-135.48 166.81,-128.4 164.13,-134.87"/>
</g>
<!-- Node4 -->
<g id="node4" class="node">
<title>Node4</title>
<g id="a_node4"><a xlink:href="namespacea60_1_1constants.html#ac27c77e4606552ae5f74a1c21dd9258e" target="_top" xlink:title=" ">
<polygon fill="white" stroke="#666666" points="419,-116 302,-116 302,-99 419,-99 419,-116"/>
<text text-anchor="middle" x="360.5" y="-105.6" font-family="SourceSans" font-size="8.00">a60::constants::newline</text>
</a>
</g>
</g>
<!-- Node1&#45;&gt;Node4 -->
<g id="edge3" class="edge">
<title>Node1&#45;&gt;Node4</title>
<path fill="none" stroke="#63b8ff" d="M112.13,-90.33C162.64,-93.83 237.57,-99.04 291.72,-102.79"/>
<polygon fill="#63b8ff" stroke="#63b8ff" points="291.7,-106.3 301.92,-103.5 292.18,-99.32 291.7,-106.3"/>
</g>
<!-- Node5 -->
<g id="node5" class="node">
<title>Node5</title>
<g id="a_node5"><a xlink:href="namespacea60.html#a3fdf876ab1d06c5cfd12a9018c231dd8" target="_top" xlink:title=" ">
<polygon fill="white" stroke="#666666" points="266,-79.5 148,-79.5 148,-53.5 266,-53.5 266,-79.5"/>
<text text-anchor="start" x="156" y="-69.1" font-family="SourceSans" font-size="8.00">a60::point_from_geojson</text>
<text text-anchor="middle" x="207" y="-60.1" font-family="SourceSans" font-size="8.00">_coordinate</text>
</a>
</g>
</g>
<!-- Node1&#45;&gt;Node5 -->
<g id="edge4" class="edge">
<title>Node1&#45;&gt;Node5</title>
<path fill="none" stroke="#63b8ff" d="M112.06,-79.11C120.46,-77.98 129.22,-76.81 137.86,-75.65"/>
<polygon fill="#63b8ff" stroke="#63b8ff" points="138.47,-79.1 147.92,-74.3 137.54,-72.16 138.47,-79.1"/>
</g>
<!-- Node7 -->
<g id="node7" class="node">
<title>Node7</title>
<g id="a_node7"><a xlink:href="namespacea60_1_1constants.html#a01d9786063fb572d9389b0cd207bbe53" target="_top" xlink:title=" ">
<polygon fill="white" stroke="#666666" points="256,-17 158,-17 158,0 256,0 256,-17"/>
<text text-anchor="middle" x="207" y="-6.6" font-family="SourceSans" font-size="8.00">a60::constants::tab</text>
</a>
</g>
</g>
<!-- Node1&#45;&gt;Node7 -->
<g id="edge7" class="edge">
<title>Node1&#45;&gt;Node7</title>
<path fill="none" stroke="#63b8ff" d="M81.94,-73.44C109.36,-59.09 153.17,-36.16 180.72,-21.73"/>
<polygon fill="#63b8ff" stroke="#63b8ff" points="182.5,-24.75 189.74,-17.01 179.26,-18.55 182.5,-24.75"/>
</g>
<!-- Node3 -->
<g id="node3" class="node">
<title>Node3</title>
<g id="a_node3"><a xlink:href="namespacea60.html#a538d43bb9bfa488a54cea929736dbe2d" target="_top" xlink:title="Deserialize input file.">
<polygon fill="white" stroke="#666666" points="412.5,-161.5 308.5,-161.5 308.5,-135.5 412.5,-135.5 412.5,-161.5"/>
<text text-anchor="start" x="316.5" y="-151.1" font-family="SourceSans" font-size="8.00">a60::deserialize_json</text>
<text text-anchor="middle" x="360.5" y="-142.1" font-family="SourceSans" font-size="8.00">_to_dom</text>
</a>
</g>
</g>
<!-- Node2&#45;&gt;Node3 -->
<g id="edge2" class="edge">
<title>Node2&#45;&gt;Node3</title>
<path fill="none" stroke="#63b8ff" d="M259.29,-148.5C271.75,-148.5 285.21,-148.5 298.09,-148.5"/>
<polygon fill="#63b8ff" stroke="#63b8ff" points="298.26,-152 308.26,-148.5 298.26,-145 298.26,-152"/>
</g>
<!-- Node5&#45;&gt;Node4 -->
<g id="edge5" class="edge">
<title>Node5&#45;&gt;Node4</title>
<path fill="none" stroke="#63b8ff" d="M256.35,-79.59C276.17,-84.95 298.88,-91.1 317.94,-96.25"/>
<polygon fill="#63b8ff" stroke="#63b8ff" points="317.26,-99.69 327.82,-98.93 319.08,-92.94 317.26,-99.69"/>
</g>
<!-- Node6 -->
<g id="node6" class="node">
<title>Node6</title>
<g id="a_node6"><a xlink:href="structa60_1_1carto_1_1cartography.html#a57e14cabb4993189316e369a27752a73" target="_top" xlink:title=" ">
<polygon fill="white" stroke="#666666" points="418,-79.5 303,-79.5 303,-53.5 418,-53.5 418,-79.5"/>
<text text-anchor="start" x="311" y="-69.1" font-family="SourceSans" font-size="8.00">a60::carto::cartography</text>
<text text-anchor="middle" x="360.5" y="-60.1" font-family="SourceSans" font-size="8.00">::to_point_2d</text>
</a>
</g>
</g>
<!-- Node5&#45;&gt;Node6 -->
<g id="edge6" class="edge">
<title>Node5&#45;&gt;Node6</title>
<path fill="none" stroke="#63b8ff" d="M266.14,-66.5C274.78,-66.5 283.74,-66.5 292.54,-66.5"/>
<polygon fill="#63b8ff" stroke="#63b8ff" points="292.76,-70 302.76,-66.5 292.76,-63 292.76,-70"/>
</g>
<!-- Node7&#45;&gt;Node7 -->
<g id="edge8" class="edge">
<title>Node7&#45;&gt;Node7</title>
<path fill="none" stroke="#63b8ff" d="M184.65,-17.19C172.3,-25.67 179.75,-35 207,-35 225.31,-35 234.68,-30.79 235.11,-25.45"/>
<polygon fill="#63b8ff" stroke="#63b8ff" points="237.94,-23.39 229.35,-17.19 232.19,-27.39 237.94,-23.39"/>
</g>
</g>
</svg>
