<?xml version="1.0" encoding="UTF-8" standalone="no"?>
<!DOCTYPE svg PUBLIC "-//W3C//DTD SVG 1.1//EN"
 "http://www.w3.org/Graphics/SVG/1.1/DTD/svg11.dtd">
<!-- Generated by graphviz version 5.0.0 (0)
 -->
<!-- Title: a60::geo::deserialize_json_to_iso_3166_2_map Pages: 1 -->
<svg width="279pt" height="194pt"
 viewBox="0.00 0.00 279.00 194.00" xmlns="http://www.w3.org/2000/svg" xmlns:xlink="http://www.w3.org/1999/xlink">
<g id="graph0" class="graph" transform="scale(1 1) rotate(0) translate(4 190)">
<title>a60::geo::deserialize_json_to_iso_3166_2_map</title>
<!-- Node1 -->
<g id="node1" class="node">
<title>Node1</title>
<g id="a_node1"><a xlink:title="ISO&#45;2 to ISO&#45;3.">
<polygon fill="#999999" stroke="#666666" points="121,-106 0,-106 0,-80 121,-80 121,-106"/>
<text text-anchor="start" x="8" y="-95.6" font-family="SourceSans" font-size="8.00">a60::geo::deserialize</text>
<text text-anchor="middle" x="60.5" y="-86.6" font-family="SourceSans" font-size="8.00">_json_to_iso_3166_2_map</text>
</a>
</g>
</g>
<!-- Node2 -->
<g id="node2" class="node">
<title>Node2</title>
<g id="a_node2"><a xlink:href="namespacea60.html#a538d43bb9bfa488a54cea929736dbe2d" target="_top" xlink:title="Deserialize input file.">
<polygon fill="white" stroke="#666666" points="266,-186 162,-186 162,-160 266,-160 266,-186"/>
<text text-anchor="start" x="170" y="-175.6" font-family="SourceSans" font-size="8.00">a60::deserialize_json</text>
<text text-anchor="middle" x="214" y="-166.6" font-family="SourceSans" font-size="8.00">_to_dom</text>
</a>
</g>
</g>
<!-- Node1&#45;&gt;Node2 -->
<g id="edge1" class="edge">
<title>Node1&#45;&gt;Node2</title>
<path fill="none" stroke="#63b8ff" d="M80.7,-106.01C99.6,-118.49 129.54,-137.39 157,-151 160.48,-152.72 164.13,-154.41 167.83,-156.04"/>
<polygon fill="#63b8ff" stroke="#63b8ff" points="166.48,-159.27 177.05,-159.93 169.2,-152.82 166.48,-159.27"/>
</g>
<!-- Node3 -->
<g id="node3" class="node">
<title>Node3</title>
<g id="a_node3"><a xlink:href="namespacea60_1_1io.html#a16f17ea9e02c1975ca17b77e46cf7629" target="_top" xlink:title="Make sure a path ends in &#39;/&#39;;.">
<polygon fill="white" stroke="#666666" points="259,-141.5 169,-141.5 169,-124.5 259,-124.5 259,-141.5"/>
<text text-anchor="middle" x="214" y="-131.1" font-family="SourceSans" font-size="8.00">a60::io::end_path</text>
</a>
</g>
</g>
<!-- Node1&#45;&gt;Node3 -->
<g id="edge2" class="edge">
<title>Node1&#45;&gt;Node3</title>
<path fill="none" stroke="#63b8ff" d="M111.11,-106.1C130.33,-111.17 152.11,-116.92 170.59,-121.8"/>
<polygon fill="#63b8ff" stroke="#63b8ff" points="169.91,-125.24 180.48,-124.41 171.7,-118.48 169.91,-125.24"/>
</g>
<!-- Node4 -->
<g id="node4" class="node">
<title>Node4</title>
<g id="a_node4"><a xlink:href="namespacea60_1_1io.html#ac95e5271a27a23bc2336d84b3f821fa2" target="_top" xlink:title="Constant filesystem and run&#45;time resources.">
<polygon fill="white" stroke="#666666" points="266,-106 162,-106 162,-80 266,-80 266,-106"/>
<text text-anchor="start" x="170" y="-95.6" font-family="SourceSans" font-size="8.00">a60::io::get_run_time</text>
<text text-anchor="middle" x="214" y="-86.6" font-family="SourceSans" font-size="8.00">_resources</text>
</a>
</g>
</g>
<!-- Node1&#45;&gt;Node4 -->
<g id="edge3" class="edge">
<title>Node1&#45;&gt;Node4</title>
<path fill="none" stroke="#63b8ff" d="M121.38,-93C131.32,-93 141.65,-93 151.63,-93"/>
<polygon fill="#63b8ff" stroke="#63b8ff" points="151.87,-96.5 161.87,-93 151.87,-89.5 151.87,-96.5"/>
</g>
<!-- Node5 -->
<g id="node5" class="node">
<title>Node5</title>
<g id="a_node5"><a xlink:href="namespacea60.html#a0fc88c5c87f54b303a1856bc2aa76a45" target="_top" xlink:title=" ">
<polygon fill="white" stroke="#666666" points="271,-61.5 157,-61.5 157,-44.5 271,-44.5 271,-61.5"/>
<text text-anchor="middle" x="214" y="-51.1" font-family="SourceSans" font-size="8.00">a60::insert_to_iso_3166</text>
</a>
</g>
</g>
<!-- Node1&#45;&gt;Node5 -->
<g id="edge4" class="edge">
<title>Node1&#45;&gt;Node5</title>
<path fill="none" stroke="#63b8ff" d="M111.11,-79.9C130.33,-74.83 152.11,-69.08 170.59,-64.2"/>
<polygon fill="#63b8ff" stroke="#63b8ff" points="171.7,-67.52 180.48,-61.59 169.91,-60.76 171.7,-67.52"/>
</g>
<!-- Node6 -->
<g id="node6" class="node">
<title>Node6</title>
<g id="a_node6"><a xlink:href="namespacea60_1_1io.html#aa5fbb8ab63397dd45c4a54c0758935ef" target="_top" xlink:title="Sanity check input existence.">
<polygon fill="white" stroke="#666666" points="266,-26 162,-26 162,0 266,0 266,-26"/>
<text text-anchor="start" x="170" y="-15.6" font-family="SourceSans" font-size="8.00">a60::io::sanity_check</text>
<text text-anchor="middle" x="214" y="-6.6" font-family="SourceSans" font-size="8.00">_input</text>
</a>
</g>
</g>
<!-- Node1&#45;&gt;Node6 -->
<g id="edge5" class="edge">
<title>Node1&#45;&gt;Node6</title>
<path fill="none" stroke="#63b8ff" d="M81.5,-79.87C100.49,-67.7 130.06,-49.48 157,-36 161.02,-33.99 165.26,-32.01 169.54,-30.1"/>
<polygon fill="#63b8ff" stroke="#63b8ff" points="171.08,-33.25 178.88,-26.07 168.31,-26.82 171.08,-33.25"/>
</g>
</g>
</svg>
