<?xml version="1.0" encoding="UTF-8" standalone="no"?>
<!DOCTYPE svg PUBLIC "-//W3C//DTD SVG 1.1//EN"
 "http://www.w3.org/Graphics/SVG/1.1/DTD/svg11.dtd">
<!-- Generated by graphviz version 5.0.0 (0)
 -->
<!-- Title: a60::coalesce_torrents_per_week Pages: 1 -->
<svg width="907pt" height="452pt"
 viewBox="0.00 0.00 907.00 452.00" xmlns="http://www.w3.org/2000/svg" xmlns:xlink="http://www.w3.org/1999/xlink">
<g id="graph0" class="graph" transform="scale(1 1) rotate(0) translate(4 448)">
<title>a60::coalesce_torrents_per_week</title>
<!-- Node1 -->
<g id="node1" class="node">
<title>Node1</title>
<g id="a_node1"><a xlink:title="Coalesce per week.">
<polygon fill="#999999" stroke="#666666" points="110,-194 0,-194 0,-168 110,-168 110,-194"/>
<text text-anchor="start" x="8" y="-183.6" font-family="SourceSans" font-size="8.00">a60::coalesce_torrents</text>
<text text-anchor="middle" x="55" y="-174.6" font-family="SourceSans" font-size="8.00">_per_week</text>
</a>
</g>
</g>
<!-- Node2 -->
<g id="node2" class="node">
<title>Node2</title>
<g id="a_node2"><a xlink:href="structa60_1_1collection.html#a7f30fa0063ad1433476a3fbb3ba689a6" target="_top" xlink:title=" ">
<polygon fill="white" stroke="#666666" points="268,-404 159,-404 159,-378 268,-378 268,-404"/>
<text text-anchor="start" x="167" y="-393.6" font-family="SourceSans" font-size="8.00">a60::collection::cache</text>
<text text-anchor="middle" x="213.5" y="-384.6" font-family="SourceSans" font-size="8.00">_files_by</text>
</a>
</g>
</g>
<!-- Node1&#45;&gt;Node2 -->
<g id="edge1" class="edge">
<title>Node1&#45;&gt;Node2</title>
<path fill="none" stroke="#63b8ff" d="M62.38,-194.05C75.8,-220.82 108.78,-283.29 146,-329 158.55,-344.41 174.83,-359.65 188.15,-371.17"/>
<polygon fill="#63b8ff" stroke="#63b8ff" points="186.1,-374.03 195.99,-377.83 190.63,-368.69 186.1,-374.03"/>
</g>
<!-- Node6 -->
<g id="node6" class="node">
<title>Node6</title>
<g id="a_node6"><a xlink:href="namespacea60.html#af45982273a7a2e61b6aaa436081238c0" target="_top" xlink:title="Load JSON file to in&#45;memory DOM.">
<polygon fill="white" stroke="#666666" points="265.5,-238 161.5,-238 161.5,-212 265.5,-212 265.5,-238"/>
<text text-anchor="start" x="169.5" y="-227.6" font-family="SourceSans" font-size="8.00">a60::deserialize_json</text>
<text text-anchor="middle" x="213.5" y="-218.6" font-family="SourceSans" font-size="8.00">_to_dom_object</text>
</a>
</g>
</g>
<!-- Node1&#45;&gt;Node6 -->
<g id="edge5" class="edge">
<title>Node1&#45;&gt;Node6</title>
<path fill="none" stroke="#63b8ff" d="M102.53,-194.08C119.48,-198.85 138.83,-204.29 156.52,-209.26"/>
<polygon fill="#63b8ff" stroke="#63b8ff" points="155.57,-212.63 166.15,-211.97 157.47,-205.89 155.57,-212.63"/>
</g>
<!-- Node8 -->
<g id="node8" class="node">
<title>Node8</title>
<g id="a_node8"><a xlink:href="structa60_1_1collection.html#af04bc78a8049450c52a9460f5ae6b4cc" target="_top" xlink:title=" ">
<polygon fill="white" stroke="#666666" points="263.5,-194 163.5,-194 163.5,-168 263.5,-168 263.5,-194"/>
<text text-anchor="start" x="171.5" y="-183.6" font-family="SourceSans" font-size="8.00">a60::collection::find</text>
<text text-anchor="middle" x="213.5" y="-174.6" font-family="SourceSans" font-size="8.00">_data_dates</text>
</a>
</g>
</g>
<!-- Node1&#45;&gt;Node8 -->
<g id="edge7" class="edge">
<title>Node1&#45;&gt;Node8</title>
<path fill="none" stroke="#63b8ff" d="M110.3,-181C124.15,-181 139.11,-181 153.2,-181"/>
<polygon fill="#63b8ff" stroke="#63b8ff" points="153.28,-184.5 163.28,-181 153.28,-177.5 153.28,-184.5"/>
</g>
<!-- Node16 -->
<g id="node16" class="node">
<title>Node16</title>
<g id="a_node16"><a xlink:href="namespacea60.html#aaa2333269ae2765996082778d31281c3" target="_top" xlink:title="Assume by&#45;day summary input files. Unique date stamps are: 2017&#45;02&#45;16 (ie each day,...">
<polygon fill="white" stroke="#666666" points="268,-150 159,-150 159,-124 268,-124 268,-150"/>
<text text-anchor="start" x="167" y="-139.6" font-family="SourceSans" font-size="8.00">a60::find_unique_date</text>
<text text-anchor="middle" x="213.5" y="-130.6" font-family="SourceSans" font-size="8.00">_stamps</text>
</a>
</g>
</g>
<!-- Node1&#45;&gt;Node16 -->
<g id="edge19" class="edge">
<title>Node1&#45;&gt;Node16</title>
<path fill="none" stroke="#63b8ff" d="M102.53,-167.92C119.48,-163.15 138.83,-157.71 156.52,-152.74"/>
<polygon fill="#63b8ff" stroke="#63b8ff" points="157.47,-156.11 166.15,-150.03 155.57,-149.37 157.47,-156.11"/>
</g>
<!-- Node18 -->
<g id="node18" class="node">
<title>Node18</title>
<g id="a_node18"><a xlink:href="structa60_1_1collection.html#a899f781ad983b2ec1f0da35a5d3f8b54" target="_top" xlink:title=" ">
<polygon fill="white" stroke="#666666" points="591.5,-299.5 476.5,-299.5 476.5,-264.5 591.5,-264.5 591.5,-299.5"/>
<text text-anchor="start" x="484.5" y="-289.1" font-family="SourceSans" font-size="8.00">a60::collection::mangle</text>
<text text-anchor="start" x="484.5" y="-280.1" font-family="SourceSans" font-size="8.00">_duration_significant</text>
<text text-anchor="middle" x="534" y="-271.1" font-family="SourceSans" font-size="8.00">_digits</text>
</a>
</g>
</g>
<!-- Node1&#45;&gt;Node18 -->
<g id="edge21" class="edge">
<title>Node1&#45;&gt;Node18</title>
<path fill="none" stroke="#63b8ff" d="M68.93,-194.12C85.26,-209.77 115.01,-235.28 146,-247 202.85,-268.49 371.39,-277.07 466.23,-280.26"/>
<polygon fill="#63b8ff" stroke="#63b8ff" points="466.19,-283.76 476.3,-280.59 466.42,-276.77 466.19,-283.76"/>
</g>
<!-- Node19 -->
<g id="node19" class="node">
<title>Node19</title>
<g id="a_node19"><a xlink:href="structa60_1_1collection.html#a3780f3266ff2355e74b737a201c89116" target="_top" xlink:title=" ">
<polygon fill="white" stroke="#666666" points="271,-320 156,-320 156,-294 271,-294 271,-320"/>
<text text-anchor="start" x="164" y="-309.6" font-family="SourceSans" font-size="8.00">a60::collection::mangle</text>
<text text-anchor="middle" x="213.5" y="-300.6" font-family="SourceSans" font-size="8.00">_tid_match_id</text>
</a>
</g>
</g>
<!-- Node1&#45;&gt;Node19 -->
<g id="edge22" class="edge">
<title>Node1&#45;&gt;Node19</title>
<path fill="none" stroke="#63b8ff" d="M65.04,-194.28C79.79,-215.1 110.95,-255.54 146,-280 151.16,-283.6 156.88,-286.84 162.73,-289.7"/>
<polygon fill="#63b8ff" stroke="#63b8ff" points="161.42,-292.95 171.97,-293.91 164.32,-286.58 161.42,-292.95"/>
</g>
<!-- Node25 -->
<g id="node25" class="node">
<title>Node25</title>
<g id="a_node25"><a xlink:href="namespacea60.html#a481196ce0dd2fed071183fa6e47ecd70" target="_top" xlink:title="Write out meta_peers for a specific ID at SUFFIX.">
<polygon fill="white" stroke="#666666" points="281,-105.5 146,-105.5 146,-88.5 281,-88.5 281,-105.5"/>
<text text-anchor="middle" x="213.5" y="-95.1" font-family="SourceSans" font-size="8.00">a60::reserialize_sample_json</text>
</a>
</g>
</g>
<!-- Node1&#45;&gt;Node25 -->
<g id="edge30" class="edge">
<title>Node1&#45;&gt;Node25</title>
<path fill="none" stroke="#63b8ff" d="M70.19,-167.97C87.07,-153.13 116.67,-129.12 146,-115 150.98,-112.6 156.34,-110.48 161.77,-108.62"/>
<polygon fill="#63b8ff" stroke="#63b8ff" points="163.06,-111.88 171.55,-105.54 160.96,-105.2 163.06,-111.88"/>
</g>
<!-- Node32 -->
<g id="node32" class="node">
<title>Node32</title>
<g id="a_node32"><a xlink:href="namespacea60.html#a800a2e54e8f2d2481c4bb2fb929dba7f" target="_top" xlink:title="Search DOM for integer values.">
<polygon fill="white" stroke="#666666" points="265,-70 162,-70 162,-44 265,-44 265,-70"/>
<text text-anchor="start" x="170" y="-59.6" font-family="SourceSans" font-size="8.00">a60::search_dom_for</text>
<text text-anchor="middle" x="213.5" y="-50.6" font-family="SourceSans" font-size="8.00">_int_field</text>
</a>
</g>
</g>
<!-- Node1&#45;&gt;Node32 -->
<g id="edge37" class="edge">
<title>Node1&#45;&gt;Node32</title>
<path fill="none" stroke="#63b8ff" d="M64.35,-167.91C78.61,-146.57 109.65,-104.23 146,-80 149.08,-77.95 152.36,-76.06 155.75,-74.33"/>
<polygon fill="#63b8ff" stroke="#63b8ff" points="157.32,-77.46 164.93,-70.09 154.38,-71.1 157.32,-77.46"/>
</g>
<!-- Node33 -->
<g id="node33" class="node">
<title>Node33</title>
<g id="a_node33"><a xlink:href="namespacea60.html#a6ce8704ec3c4d5e258d062283dd40efb" target="_top" xlink:title="Search DOM for meta_peer(s).">
<polygon fill="white" stroke="#666666" points="265,-26 162,-26 162,0 265,0 265,-26"/>
<text text-anchor="start" x="170" y="-15.6" font-family="SourceSans" font-size="8.00">a60::search_dom_for</text>
<text text-anchor="middle" x="213.5" y="-6.6" font-family="SourceSans" font-size="8.00">_meta_peers</text>
</a>
</g>
</g>
<!-- Node1&#45;&gt;Node33 -->
<g id="edge38" class="edge">
<title>Node1&#45;&gt;Node33</title>
<path fill="none" stroke="#63b8ff" d="M60.49,-167.97C70.92,-139.59 99.52,-71.75 146,-35 148.09,-33.35 150.3,-31.82 152.61,-30.41"/>
<polygon fill="#63b8ff" stroke="#63b8ff" points="154.69,-33.26 161.89,-25.49 151.41,-27.08 154.69,-33.26"/>
</g>
<!-- Node3 -->
<g id="node3" class="node">
<title>Node3</title>
<g id="a_node3"><a xlink:href="namespacea60_1_1io.html#aea30b8fc474f5a7b922516dc1e199037" target="_top" xlink:title="Takes a string representing a directory, returns a sorted list of contents as a std::vector&lt;string&gt;.">
<polygon fill="white" stroke="#666666" points="430,-399.5 320,-399.5 320,-382.5 430,-382.5 430,-399.5"/>
<text text-anchor="middle" x="375" y="-389.1" font-family="SourceSans" font-size="8.00">a60::io::populate_files</text>
</a>
</g>
</g>
<!-- Node2&#45;&gt;Node3 -->
<g id="edge2" class="edge">
<title>Node2&#45;&gt;Node3</title>
<path fill="none" stroke="#63b8ff" d="M268.05,-391C281.32,-391 295.68,-391 309.42,-391"/>
<polygon fill="#63b8ff" stroke="#63b8ff" points="309.77,-394.5 319.77,-391 309.77,-387.5 309.77,-394.5"/>
</g>
<!-- Node4 -->
<g id="node4" class="node">
<title>Node4</title>
<g id="a_node4"><a xlink:href="structa60_1_1collection.html#a481d8e6e9ea5f9cb136846d75b0f50c4" target="_top" xlink:title=" ">
<polygon fill="white" stroke="#666666" points="432,-444 318,-444 318,-418 432,-418 432,-444"/>
<text text-anchor="start" x="326" y="-433.6" font-family="SourceSans" font-size="8.00">a60::collection::remove</text>
<text text-anchor="middle" x="375" y="-424.6" font-family="SourceSans" font-size="8.00">_matching_strings</text>
</a>
</g>
</g>
<!-- Node2&#45;&gt;Node4 -->
<g id="edge3" class="edge">
<title>Node2&#45;&gt;Node4</title>
<path fill="none" stroke="#63b8ff" d="M266.73,-404.1C281.26,-407.74 297.18,-411.74 312.21,-415.5"/>
<polygon fill="#63b8ff" stroke="#63b8ff" points="311.38,-418.9 321.93,-417.94 313.08,-412.11 311.38,-418.9"/>
</g>
<!-- Node5 -->
<g id="node5" class="node">
<title>Node5</title>
<g id="a_node5"><a xlink:href="namespacea60.html#ac7eddb2e330d8983ddc852edde5335c5" target="_top" xlink:title=" ">
<polygon fill="white" stroke="#666666" points="593.5,-437.5 474.5,-437.5 474.5,-420.5 593.5,-420.5 593.5,-437.5"/>
<text text-anchor="middle" x="534" y="-427.1" font-family="SourceSans" font-size="8.00">a60::to_lowercase_string</text>
</a>
</g>
</g>
<!-- Node4&#45;&gt;Node5 -->
<g id="edge4" class="edge">
<title>Node4&#45;&gt;Node5</title>
<path fill="none" stroke="#63b8ff" d="M432.24,-430.28C442.57,-430.15 453.47,-430.01 464.12,-429.88"/>
<polygon fill="#63b8ff" stroke="#63b8ff" points="464.29,-433.38 474.24,-429.75 464.2,-426.38 464.29,-433.38"/>
</g>
<!-- Node7 -->
<g id="node7" class="node">
<title>Node7</title>
<g id="a_node7"><a xlink:href="namespacea60.html#a538d43bb9bfa488a54cea929736dbe2d" target="_top" xlink:title="Deserialize input file.">
<polygon fill="white" stroke="#666666" points="427,-238 323,-238 323,-212 427,-212 427,-238"/>
<text text-anchor="start" x="331" y="-227.6" font-family="SourceSans" font-size="8.00">a60::deserialize_json</text>
<text text-anchor="middle" x="375" y="-218.6" font-family="SourceSans" font-size="8.00">_to_dom</text>
</a>
</g>
</g>
<!-- Node6&#45;&gt;Node7 -->
<g id="edge6" class="edge">
<title>Node6&#45;&gt;Node7</title>
<path fill="none" stroke="#63b8ff" d="M265.84,-225C280.79,-225 297.26,-225 312.74,-225"/>
<polygon fill="#63b8ff" stroke="#63b8ff" points="312.75,-228.5 322.75,-225 312.75,-221.5 312.75,-228.5"/>
</g>
<!-- Node9 -->
<g id="node9" class="node">
<title>Node9</title>
<g id="a_node9"><a xlink:href="structa60_1_1collection.html#a61604643dbeea09b4fb20d6db5658b91" target="_top" xlink:title=" ">
<polygon fill="white" stroke="#666666" points="425,-194 325,-194 325,-168 425,-168 425,-194"/>
<text text-anchor="start" x="333" y="-183.6" font-family="SourceSans" font-size="8.00">a60::collection::find</text>
<text text-anchor="middle" x="375" y="-174.6" font-family="SourceSans" font-size="8.00">_data_dates_times</text>
</a>
</g>
</g>
<!-- Node8&#45;&gt;Node9 -->
<g id="edge8" class="edge">
<title>Node8&#45;&gt;Node9</title>
<path fill="none" stroke="#63b8ff" d="M263.66,-181C279.73,-181 297.75,-181 314.5,-181"/>
<polygon fill="#63b8ff" stroke="#63b8ff" points="314.73,-184.5 324.73,-181 314.73,-177.5 314.73,-184.5"/>
</g>
<!-- Node10 -->
<g id="node10" class="node">
<title>Node10</title>
<g id="a_node10"><a xlink:href="structa60_1_1collection.html#a772cab0c0123491c08a92fce4cf0eacb" target="_top" xlink:title=" ">
<polygon fill="white" stroke="#666666" points="759,-144 635,-144 635,-118 759,-118 759,-144"/>
<text text-anchor="start" x="643" y="-133.6" font-family="SourceSans" font-size="8.00">a60::collection::collection</text>
<text text-anchor="middle" x="697" y="-124.6" font-family="SourceSans" font-size="8.00">_archive_directory</text>
</a>
</g>
</g>
<!-- Node9&#45;&gt;Node10 -->
<g id="edge9" class="edge">
<title>Node9&#45;&gt;Node10</title>
<path fill="none" stroke="#63b8ff" d="M425.3,-173.3C478.69,-164.95 564.34,-151.57 624.98,-142.1"/>
<polygon fill="#63b8ff" stroke="#63b8ff" points="625.53,-145.55 634.87,-140.55 624.45,-138.64 625.53,-145.55"/>
</g>
<!-- Node13 -->
<g id="node13" class="node">
<title>Node13</title>
<g id="a_node13"><a xlink:href="structa60_1_1collection.html#abc4d01b1b17d4622939cb6c5c0f9b38b" target="_top" xlink:title=" ">
<polygon fill="white" stroke="#666666" points="592,-221 476,-221 476,-195 592,-195 592,-221"/>
<text text-anchor="start" x="484" y="-210.6" font-family="SourceSans" font-size="8.00">a60::collection::prune</text>
<text text-anchor="middle" x="534" y="-201.6" font-family="SourceSans" font-size="8.00">_archive_sub_directories</text>
</a>
</g>
</g>
<!-- Node9&#45;&gt;Node13 -->
<g id="edge12" class="edge">
<title>Node9&#45;&gt;Node13</title>
<path fill="none" stroke="#63b8ff" d="M425.25,-189.47C438.2,-191.7 452.39,-194.14 466.1,-196.5"/>
<polygon fill="#63b8ff" stroke="#63b8ff" points="465.53,-199.95 475.98,-198.19 466.71,-193.05 465.53,-199.95"/>
</g>
<!-- Node11 -->
<g id="node11" class="node">
<title>Node11</title>
<g id="a_node11"><a xlink:href="namespacea60_1_1io.html#a16f17ea9e02c1975ca17b77e46cf7629" target="_top" xlink:title="Make sure a path ends in &#39;/&#39;;.">
<polygon fill="white" stroke="#666666" points="892,-257.5 802,-257.5 802,-240.5 892,-240.5 892,-257.5"/>
<text text-anchor="middle" x="847" y="-247.1" font-family="SourceSans" font-size="8.00">a60::io::end_path</text>
</a>
</g>
</g>
<!-- Node10&#45;&gt;Node11 -->
<g id="edge10" class="edge">
<title>Node10&#45;&gt;Node11</title>
<path fill="none" stroke="#63b8ff" d="M714.4,-144.08C742.08,-166.14 797.88,-210.63 827.13,-233.95"/>
<polygon fill="#63b8ff" stroke="#63b8ff" points="824.96,-236.7 834.96,-240.2 829.33,-231.23 824.96,-236.7"/>
</g>
<!-- Node12 -->
<g id="node12" class="node">
<title>Node12</title>
<g id="a_node12"><a xlink:href="namespacea60_1_1io.html#ac95e5271a27a23bc2336d84b3f821fa2" target="_top" xlink:title="Constant filesystem and run&#45;time resources.">
<polygon fill="white" stroke="#666666" points="899,-164 795,-164 795,-138 899,-138 899,-164"/>
<text text-anchor="start" x="803" y="-153.6" font-family="SourceSans" font-size="8.00">a60::io::get_run_time</text>
<text text-anchor="middle" x="847" y="-144.6" font-family="SourceSans" font-size="8.00">_resources</text>
</a>
</g>
</g>
<!-- Node10&#45;&gt;Node12 -->
<g id="edge11" class="edge">
<title>Node10&#45;&gt;Node12</title>
<path fill="none" stroke="#63b8ff" d="M759.05,-139.25C767.64,-140.41 776.46,-141.6 785.04,-142.76"/>
<polygon fill="#63b8ff" stroke="#63b8ff" points="784.6,-146.23 794.98,-144.11 785.54,-139.3 784.6,-146.23"/>
</g>
<!-- Node13&#45;&gt;Node10 -->
<g id="edge13" class="edge">
<title>Node13&#45;&gt;Node10</title>
<path fill="none" stroke="#63b8ff" d="M560.32,-194.93C580.44,-184.64 609.36,-170.08 635,-158 641.84,-154.78 649.16,-151.44 656.28,-148.26"/>
<polygon fill="#63b8ff" stroke="#63b8ff" points="658.06,-151.3 665.78,-144.04 655.22,-144.9 658.06,-151.3"/>
</g>
<!-- Node13&#45;&gt;Node11 -->
<g id="edge14" class="edge">
<title>Node13&#45;&gt;Node11</title>
<path fill="none" stroke="#63b8ff" d="M553.58,-221.19C566.55,-230.58 584.14,-243.67 599,-256 615.7,-269.86 614.77,-281.13 635,-289 686.36,-308.98 705.16,-300.78 759,-289 781.94,-283.98 806.06,-272.32 823.07,-262.87"/>
<polygon fill="#63b8ff" stroke="#63b8ff" points="825.26,-265.65 832.19,-257.64 821.78,-259.58 825.26,-265.65"/>
</g>
<!-- Node13&#45;&gt;Node12 -->
<g id="edge15" class="edge">
<title>Node13&#45;&gt;Node12</title>
<path fill="none" stroke="#63b8ff" d="M592.04,-197.55C646.68,-187.53 728.88,-172.47 784.85,-162.21"/>
<polygon fill="#63b8ff" stroke="#63b8ff" points="785.78,-165.6 794.99,-160.35 784.52,-158.71 785.78,-165.6"/>
</g>
<!-- Node14 -->
<g id="node14" class="node">
<title>Node14</title>
<g id="a_node14"><a xlink:href="namespacea60_1_1constants.html#ac27c77e4606552ae5f74a1c21dd9258e" target="_top" xlink:title=" ">
<polygon fill="white" stroke="#666666" points="755.5,-217.5 638.5,-217.5 638.5,-200.5 755.5,-200.5 755.5,-217.5"/>
<text text-anchor="middle" x="697" y="-207.1" font-family="SourceSans" font-size="8.00">a60::constants::newline</text>
</a>
</g>
</g>
<!-- Node13&#45;&gt;Node14 -->
<g id="edge16" class="edge">
<title>Node13&#45;&gt;Node14</title>
<path fill="none" stroke="#63b8ff" d="M592.22,-208.36C603.94,-208.43 616.38,-208.51 628.43,-208.58"/>
<polygon fill="#63b8ff" stroke="#63b8ff" points="628.4,-212.08 638.43,-208.64 628.45,-205.08 628.4,-212.08"/>
</g>
<!-- Node15 -->
<g id="node15" class="node">
<title>Node15</title>
<g id="a_node15"><a xlink:href="namespacea60_1_1io.html#afbc9bd4e46187119419128390e16a033" target="_top" xlink:title="Takes a string representing a directory, returns a list of contents as a std::vector&lt;string&gt;.">
<polygon fill="white" stroke="#666666" points="750.5,-262 643.5,-262 643.5,-236 750.5,-236 750.5,-262"/>
<text text-anchor="start" x="651.5" y="-251.6" font-family="SourceSans" font-size="8.00">a60::io::populate_sub</text>
<text text-anchor="middle" x="697" y="-242.6" font-family="SourceSans" font-size="8.00">_directories</text>
</a>
</g>
</g>
<!-- Node13&#45;&gt;Node15 -->
<g id="edge17" class="edge">
<title>Node13&#45;&gt;Node15</title>
<path fill="none" stroke="#63b8ff" d="M586.38,-221.09C601.85,-225.03 618.98,-229.39 635.01,-233.47"/>
<polygon fill="#63b8ff" stroke="#63b8ff" points="634.27,-236.89 644.83,-235.97 636,-230.11 634.27,-236.89"/>
</g>
<!-- Node15&#45;&gt;Node15 -->
<g id="edge18" class="edge">
<title>Node15&#45;&gt;Node15</title>
<path fill="none" stroke="#63b8ff" d="M671.62,-262.06C663.93,-271.1 672.39,-280 697,-280 712,-280 721,-276.69 724,-272.07"/>
<polygon fill="#63b8ff" stroke="#63b8ff" points="727.43,-271.37 722.38,-262.06 720.52,-272.49 727.43,-271.37"/>
</g>
<!-- Node17 -->
<g id="node17" class="node">
<title>Node17</title>
<g id="a_node17"><a xlink:href="namespacea60_1_1io.html#af9ba5ecc6e668e47fb2f020216f7b611" target="_top" xlink:title="Strip off path component from full&#45;qualified filename.">
<polygon fill="white" stroke="#666666" points="424,-147.5 326,-147.5 326,-130.5 424,-130.5 424,-147.5"/>
<text text-anchor="middle" x="375" y="-137.1" font-family="SourceSans" font-size="8.00">a60::io::prune_path</text>
</a>
</g>
</g>
<!-- Node16&#45;&gt;Node17 -->
<g id="edge20" class="edge">
<title>Node16&#45;&gt;Node17</title>
<path fill="none" stroke="#63b8ff" d="M268.05,-137.67C283.42,-137.86 300.25,-138.08 315.88,-138.27"/>
<polygon fill="#63b8ff" stroke="#63b8ff" points="315.9,-141.77 325.95,-138.4 315.99,-134.77 315.9,-141.77"/>
</g>
<!-- Node20 -->
<g id="node20" class="node">
<title>Node20</title>
<g id="a_node20"><a xlink:href="structa60_1_1collection.html#ab234addb5725bb5900b44f55ec1aae10" target="_top" xlink:title=" ">
<polygon fill="white" stroke="#666666" points="432.5,-320 317.5,-320 317.5,-294 432.5,-294 432.5,-320"/>
<text text-anchor="start" x="325.5" y="-309.6" font-family="SourceSans" font-size="8.00">a60::collection::mangle</text>
<text text-anchor="middle" x="375" y="-300.6" font-family="SourceSans" font-size="8.00">_with_id</text>
</a>
</g>
</g>
<!-- Node19&#45;&gt;Node20 -->
<g id="edge23" class="edge">
<title>Node19&#45;&gt;Node20</title>
<path fill="none" stroke="#63b8ff" d="M271.18,-307C282.94,-307 295.42,-307 307.49,-307"/>
<polygon fill="#63b8ff" stroke="#63b8ff" points="307.5,-310.5 317.5,-307 307.5,-303.5 307.5,-310.5"/>
</g>
<!-- Node21 -->
<g id="node21" class="node">
<title>Node21</title>
<g id="a_node21"><a xlink:href="structa60_1_1collection.html#a80993af9aec8238db8e44da1e9a3c994" target="_top" xlink:title=" ">
<polygon fill="white" stroke="#666666" points="426.5,-364 323.5,-364 323.5,-338 426.5,-338 426.5,-364"/>
<text text-anchor="start" x="331.5" y="-353.6" font-family="SourceSans" font-size="8.00">a60::collection::slice</text>
<text text-anchor="middle" x="375" y="-344.6" font-family="SourceSans" font-size="8.00">_name_mangled</text>
</a>
</g>
</g>
<!-- Node19&#45;&gt;Node21 -->
<g id="edge25" class="edge">
<title>Node19&#45;&gt;Node21</title>
<path fill="none" stroke="#63b8ff" d="M261.92,-320.08C279.2,-324.85 298.92,-330.29 316.94,-335.26"/>
<polygon fill="#63b8ff" stroke="#63b8ff" points="316.19,-338.68 326.76,-337.97 318.05,-331.93 316.19,-338.68"/>
</g>
<!-- Node20&#45;&gt;Node18 -->
<g id="edge24" class="edge">
<title>Node20&#45;&gt;Node18</title>
<path fill="none" stroke="#63b8ff" d="M432.68,-297.97C443.57,-296.24 455.08,-294.41 466.26,-292.63"/>
<polygon fill="#63b8ff" stroke="#63b8ff" points="467.08,-296.04 476.4,-291.01 465.98,-289.13 467.08,-296.04"/>
</g>
<!-- Node21&#45;&gt;Node5 -->
<g id="edge27" class="edge">
<title>Node21&#45;&gt;Node5</title>
<path fill="none" stroke="#63b8ff" d="M413.7,-364.07C420.33,-366.96 427.01,-370.29 433,-374 451.19,-385.28 450.59,-395.07 469,-406 476.15,-410.24 484.2,-413.89 492.12,-416.95"/>
<polygon fill="#63b8ff" stroke="#63b8ff" points="491.06,-420.29 501.65,-420.39 493.43,-413.7 491.06,-420.29"/>
</g>
<!-- Node22 -->
<g id="node22" class="node">
<title>Node22</title>
<g id="a_node22"><a xlink:href="structa60_1_1collection.html#a25b35cf4ac39da89d868fe2cf41b5acd" target="_top" xlink:title=" ">
<polygon fill="white" stroke="#666666" points="599,-396.5 469,-396.5 469,-379.5 599,-379.5 599,-396.5"/>
<text text-anchor="middle" x="534" y="-386.1" font-family="SourceSans" font-size="8.00">a60::collection::slice_name</text>
</a>
</g>
</g>
<!-- Node21&#45;&gt;Node22 -->
<g id="edge26" class="edge">
<title>Node21&#45;&gt;Node22</title>
<path fill="none" stroke="#63b8ff" d="M426.54,-362.91C445.84,-367.46 467.73,-372.62 486.63,-377.07"/>
<polygon fill="#63b8ff" stroke="#63b8ff" points="485.95,-380.51 496.49,-379.4 487.56,-373.7 485.95,-380.51"/>
</g>
<!-- Node23 -->
<g id="node23" class="node">
<title>Node23</title>
<g id="a_node23"><a xlink:href="namespacea60.html#a11d9ffc210e8dca8410e7a5ad62deabc" target="_top" xlink:title=" ">
<polygon fill="white" stroke="#666666" points="590.5,-361 477.5,-361 477.5,-335 590.5,-335 590.5,-361"/>
<text text-anchor="start" x="485.5" y="-350.6" font-family="SourceSans" font-size="8.00">a60::to_replace_spaces</text>
<text text-anchor="middle" x="534" y="-341.6" font-family="SourceSans" font-size="8.00">_string</text>
</a>
</g>
</g>
<!-- Node21&#45;&gt;Node23 -->
<g id="edge28" class="edge">
<title>Node21&#45;&gt;Node23</title>
<path fill="none" stroke="#63b8ff" d="M426.54,-350.03C439.47,-349.79 453.56,-349.52 467.14,-349.26"/>
<polygon fill="#63b8ff" stroke="#63b8ff" points="467.46,-352.75 477.39,-349.06 467.33,-345.75 467.46,-352.75"/>
</g>
<!-- Node24 -->
<g id="node24" class="node">
<title>Node24</title>
<g id="a_node24"><a xlink:href="namespacea60.html#a751f954fe64233f1dc6517220e4b5692" target="_top" xlink:title=" ">
<polygon fill="white" stroke="#666666" points="750.5,-356.5 643.5,-356.5 643.5,-339.5 750.5,-339.5 750.5,-356.5"/>
<text text-anchor="middle" x="697" y="-346.1" font-family="SourceSans" font-size="8.00">a60::to_replace_string</text>
</a>
</g>
</g>
<!-- Node23&#45;&gt;Node24 -->
<g id="edge29" class="edge">
<title>Node23&#45;&gt;Node24</title>
<path fill="none" stroke="#63b8ff" d="M590.86,-348C604.6,-348 619.4,-348 633.43,-348"/>
<polygon fill="#63b8ff" stroke="#63b8ff" points="633.49,-351.5 643.49,-348 633.49,-344.5 633.49,-351.5"/>
</g>
<!-- Node26 -->
<g id="node26" class="node">
<title>Node26</title>
<g id="a_node26"><a xlink:href="namespacea60.html#aba8b47de875bd5bebeed9c57e3b52c06" target="_top" xlink:title="Serialize buffer to output file.">
<polygon fill="white" stroke="#666666" points="425.5,-112.5 324.5,-112.5 324.5,-95.5 425.5,-95.5 425.5,-112.5"/>
<text text-anchor="middle" x="375" y="-102.1" font-family="SourceSans" font-size="8.00">a60::serialize_buffer</text>
</a>
</g>
</g>
<!-- Node25&#45;&gt;Node26 -->
<g id="edge31" class="edge">
<title>Node25&#45;&gt;Node26</title>
<path fill="none" stroke="#63b8ff" d="M281.22,-99.93C292.09,-100.41 303.29,-100.9 313.98,-101.37"/>
<polygon fill="#63b8ff" stroke="#63b8ff" points="313.91,-104.87 324.05,-101.81 314.22,-97.87 313.91,-104.87"/>
</g>
<!-- Node27 -->
<g id="node27" class="node">
<title>Node27</title>
<g id="a_node27"><a xlink:href="namespacea60.html#a94d004bc4c17246fd2bb76cabb121d9a" target="_top" xlink:title="Per collection metadata for given duration.">
<polygon fill="white" stroke="#666666" points="433,-77 317,-77 317,-51 433,-51 433,-77"/>
<text text-anchor="start" x="325" y="-66.6" font-family="SourceSans" font-size="8.00">a60::serialize_collection</text>
<text text-anchor="middle" x="375" y="-57.6" font-family="SourceSans" font-size="8.00">_metadata_json</text>
</a>
</g>
</g>
<!-- Node25&#45;&gt;Node27 -->
<g id="edge32" class="edge">
<title>Node25&#45;&gt;Node27</title>
<path fill="none" stroke="#63b8ff" d="M255.99,-88.42C271.5,-85.21 289.54,-81.47 306.78,-77.91"/>
<polygon fill="#63b8ff" stroke="#63b8ff" points="307.72,-81.29 316.81,-75.83 306.31,-74.43 307.72,-81.29"/>
</g>
<!-- Node30 -->
<g id="node30" class="node">
<title>Node30</title>
<g id="a_node30"><a xlink:href="namespacea60.html#a87cd73602b7d6cf64ef441200cfda504" target="_top" xlink:title="Serialize vector of meta_peer.">
<polygon fill="white" stroke="#666666" points="424,-33 326,-33 326,-7 424,-7 424,-33"/>
<text text-anchor="start" x="334" y="-22.6" font-family="SourceSans" font-size="8.00">a60::serialize_meta</text>
<text text-anchor="middle" x="375" y="-13.6" font-family="SourceSans" font-size="8.00">_peers_json</text>
</a>
</g>
</g>
<!-- Node25&#45;&gt;Node30 -->
<g id="edge35" class="edge">
<title>Node25&#45;&gt;Node30</title>
<path fill="none" stroke="#63b8ff" d="M259.13,-88.47C266.71,-86.04 274.3,-82.94 281,-79 300.78,-67.37 297.86,-54.65 317,-42 319.41,-40.41 321.94,-38.91 324.56,-37.5"/>
<polygon fill="#63b8ff" stroke="#63b8ff" points="326.22,-40.58 333.66,-33.04 323.14,-34.29 326.22,-40.58"/>
</g>
<!-- Node28 -->
<g id="node28" class="node">
<title>Node28</title>
<g id="a_node28"><a xlink:href="structa60_1_1collection.html#a8ac066ef3bb824d0ecff3b1238e358e4" target="_top" xlink:title=" ">
<polygon fill="white" stroke="#666666" points="583,-121 485,-121 485,-95 583,-95 583,-121"/>
<text text-anchor="start" x="493" y="-110.6" font-family="SourceSans" font-size="8.00">a60::collection::get</text>
<text text-anchor="middle" x="534" y="-101.6" font-family="SourceSans" font-size="8.00">_name_from_tid</text>
</a>
</g>
</g>
<!-- Node27&#45;&gt;Node28 -->
<g id="edge33" class="edge">
<title>Node27&#45;&gt;Node28</title>
<path fill="none" stroke="#63b8ff" d="M422.68,-77.08C439.69,-81.85 459.09,-87.29 476.84,-92.26"/>
<polygon fill="#63b8ff" stroke="#63b8ff" points="475.93,-95.64 486.5,-94.97 477.82,-88.9 475.93,-95.64"/>
</g>
<!-- Node29 -->
<g id="node29" class="node">
<title>Node29</title>
<g id="a_node29"><a xlink:href="namespacea60.html#a5491ff3ca7dc34407696caaa90828819" target="_top" xlink:title="First collection serialization, common for all writing.">
<polygon fill="white" stroke="#666666" points="592,-77 476,-77 476,-51 592,-51 592,-77"/>
<text text-anchor="start" x="484" y="-66.6" font-family="SourceSans" font-size="8.00">a60::serialize_collection</text>
<text text-anchor="middle" x="534" y="-57.6" font-family="SourceSans" font-size="8.00">_base_json</text>
</a>
</g>
</g>
<!-- Node27&#45;&gt;Node29 -->
<g id="edge34" class="edge">
<title>Node27&#45;&gt;Node29</title>
<path fill="none" stroke="#63b8ff" d="M433.12,-64C443.69,-64 454.81,-64 465.65,-64"/>
<polygon fill="#63b8ff" stroke="#63b8ff" points="465.92,-67.5 475.92,-64 465.92,-60.5 465.92,-67.5"/>
</g>
<!-- Node31 -->
<g id="node31" class="node">
<title>Node31</title>
<g id="a_node31"><a xlink:href="namespacea60.html#a2228baa081fe66cea91ed8032bda4732" target="_top" xlink:title="Serialize meta_peer.">
<polygon fill="white" stroke="#666666" points="583,-33 485,-33 485,-7 583,-7 583,-33"/>
<text text-anchor="start" x="493" y="-22.6" font-family="SourceSans" font-size="8.00">a60::serialize_meta</text>
<text text-anchor="middle" x="534" y="-13.6" font-family="SourceSans" font-size="8.00">_peer_json</text>
</a>
</g>
</g>
<!-- Node30&#45;&gt;Node31 -->
<g id="edge36" class="edge">
<title>Node30&#45;&gt;Node31</title>
<path fill="none" stroke="#63b8ff" d="M424.39,-20C440.28,-20 458.11,-20 474.66,-20"/>
<polygon fill="#63b8ff" stroke="#63b8ff" points="474.77,-23.5 484.77,-20 474.77,-16.5 474.77,-23.5"/>
</g>
</g>
</svg>
