<?xml version="1.0" encoding="UTF-8" standalone="no"?>
<!DOCTYPE svg PUBLIC "-//W3C//DTD SVG 1.1//EN"
 "http://www.w3.org/Graphics/SVG/1.1/DTD/svg11.dtd">
<!-- Generated by graphviz version 5.0.0 (0)
 -->
<!-- Title: a60::coalesce_torrents_per_sample Pages: 1 -->
<svg width="764pt" height="595pt"
 viewBox="0.00 0.00 764.00 595.00" xmlns="http://www.w3.org/2000/svg" xmlns:xlink="http://www.w3.org/1999/xlink">
<g id="graph0" class="graph" transform="scale(1 1) rotate(0) translate(4 591)">
<title>a60::coalesce_torrents_per_sample</title>
<!-- Node1 -->
<g id="node1" class="node">
<title>Node1</title>
<g id="a_node1"><a xlink:title=" ">
<polygon fill="#999999" stroke="#666666" points="110,-378 0,-378 0,-352 110,-352 110,-378"/>
<text text-anchor="start" x="8" y="-367.6" font-family="SourceSans" font-size="8.00">a60::coalesce_torrents</text>
<text text-anchor="middle" x="55" y="-358.6" font-family="SourceSans" font-size="8.00">_per_sample</text>
</a>
</g>
</g>
<!-- Node2 -->
<g id="node2" class="node">
<title>Node2</title>
<g id="a_node2"><a xlink:href="structa60_1_1collection.html#a772cab0c0123491c08a92fce4cf0eacb" target="_top" xlink:title=" ">
<polygon fill="white" stroke="#666666" points="593,-587 469,-587 469,-561 593,-561 593,-587"/>
<text text-anchor="start" x="477" y="-576.6" font-family="SourceSans" font-size="8.00">a60::collection::collection</text>
<text text-anchor="middle" x="531" y="-567.6" font-family="SourceSans" font-size="8.00">_archive_directory</text>
</a>
</g>
</g>
<!-- Node1&#45;&gt;Node2 -->
<g id="edge1" class="edge">
<title>Node1&#45;&gt;Node2</title>
<path fill="none" stroke="#63b8ff" d="M59.68,-378.14C68.82,-408.11 95.5,-481.66 146,-517 239.03,-582.1 375.92,-586.2 458.65,-581.4"/>
<polygon fill="#63b8ff" stroke="#63b8ff" points="458.96,-584.89 468.72,-580.75 458.51,-577.9 458.96,-584.89"/>
</g>
<!-- Node5 -->
<g id="node5" class="node">
<title>Node5</title>
<g id="a_node5"><a xlink:href="structa60_1_1collection.html#a61604643dbeea09b4fb20d6db5658b91" target="_top" xlink:title=" ">
<polygon fill="white" stroke="#666666" points="263.5,-508 163.5,-508 163.5,-482 263.5,-482 263.5,-508"/>
<text text-anchor="start" x="171.5" y="-497.6" font-family="SourceSans" font-size="8.00">a60::collection::find</text>
<text text-anchor="middle" x="213.5" y="-488.6" font-family="SourceSans" font-size="8.00">_data_dates_times</text>
</a>
</g>
</g>
<!-- Node1&#45;&gt;Node5 -->
<g id="edge4" class="edge">
<title>Node1&#45;&gt;Node5</title>
<path fill="none" stroke="#63b8ff" d="M64.44,-378.14C78.82,-399.61 110.03,-442.37 146,-468 151.06,-471.61 156.67,-474.83 162.43,-477.69"/>
<polygon fill="#63b8ff" stroke="#63b8ff" points="160.99,-480.88 171.54,-481.88 163.92,-474.52 160.99,-480.88"/>
</g>
<!-- Node8 -->
<g id="node8" class="node">
<title>Node8</title>
<g id="a_node8"><a xlink:href="namespacea60_1_1io.html#afbc9bd4e46187119419128390e16a033" target="_top" xlink:title="Takes a string representing a directory, returns a list of contents as a std::vector&lt;string&gt;.">
<polygon fill="white" stroke="#666666" points="584.5,-413 477.5,-413 477.5,-387 584.5,-387 584.5,-413"/>
<text text-anchor="start" x="485.5" y="-402.6" font-family="SourceSans" font-size="8.00">a60::io::populate_sub</text>
<text text-anchor="middle" x="531" y="-393.6" font-family="SourceSans" font-size="8.00">_directories</text>
</a>
</g>
</g>
<!-- Node1&#45;&gt;Node8 -->
<g id="edge16" class="edge">
<title>Node1&#45;&gt;Node8</title>
<path fill="none" stroke="#63b8ff" d="M79.36,-378.07C97.12,-387.47 122.44,-399.73 146,-407 268.46,-444.81 306.76,-457.08 433,-435 453.24,-431.46 474.82,-424.06 492.48,-416.98"/>
<polygon fill="#63b8ff" stroke="#63b8ff" points="493.95,-420.15 501.85,-413.1 491.27,-413.69 493.95,-420.15"/>
</g>
<!-- Node9 -->
<g id="node9" class="node">
<title>Node9</title>
<g id="a_node9"><a xlink:href="namespacea60.html#aa900ae641408375a5d008580bab781df" target="_top" xlink:title="Input as: /home/bkoz/src/alpha60&#45;data/game&#45;of&#45;thrones&#45;703/2017&#45;07&#45;31&#45;at&#45;22&#45;30 Output as: 2017.">
<polygon fill="white" stroke="#666666" points="429,-425.5 321,-425.5 321,-408.5 429,-408.5 429,-425.5"/>
<text text-anchor="middle" x="375" y="-415.1" font-family="SourceSans" font-size="8.00">a60::find_unique_year</text>
</a>
</g>
</g>
<!-- Node1&#45;&gt;Node9 -->
<g id="edge13" class="edge">
<title>Node1&#45;&gt;Node9</title>
<path fill="none" stroke="#63b8ff" d="M110.17,-376.28C121.96,-378.61 134.38,-380.97 146,-383 201.53,-392.69 264.97,-402.01 310.81,-408.43"/>
<polygon fill="#63b8ff" stroke="#63b8ff" points="310.51,-411.92 320.9,-409.84 311.48,-404.99 310.51,-411.92"/>
</g>
<!-- Node10 -->
<g id="node10" class="node">
<title>Node10</title>
<g id="a_node10"><a xlink:href="structa60_1_1collection.html#a899f781ad983b2ec1f0da35a5d3f8b54" target="_top" xlink:title=" ">
<polygon fill="white" stroke="#666666" points="271,-299.5 156,-299.5 156,-264.5 271,-264.5 271,-299.5"/>
<text text-anchor="start" x="164" y="-289.1" font-family="SourceSans" font-size="8.00">a60::collection::mangle</text>
<text text-anchor="start" x="164" y="-280.1" font-family="SourceSans" font-size="8.00">_duration_significant</text>
<text text-anchor="middle" x="213.5" y="-271.1" font-family="SourceSans" font-size="8.00">_digits</text>
</a>
</g>
</g>
<!-- Node1&#45;&gt;Node10 -->
<g id="edge14" class="edge">
<title>Node1&#45;&gt;Node10</title>
<path fill="none" stroke="#63b8ff" d="M78.33,-351.79C96.4,-341.24 122.61,-326.24 146,-314 152.4,-310.65 159.21,-307.23 165.93,-303.92"/>
<polygon fill="#63b8ff" stroke="#63b8ff" points="167.54,-307.03 175,-299.5 164.48,-300.73 167.54,-307.03"/>
</g>
<!-- Node11 -->
<g id="node11" class="node">
<title>Node11</title>
<g id="a_node11"><a xlink:href="namespacea60_1_1io.html#aea30b8fc474f5a7b922516dc1e199037" target="_top" xlink:title="Takes a string representing a directory, returns a sorted list of contents as a std::vector&lt;string&gt;.">
<polygon fill="white" stroke="#666666" points="430,-263.5 320,-263.5 320,-246.5 430,-246.5 430,-263.5"/>
<text text-anchor="middle" x="375" y="-253.1" font-family="SourceSans" font-size="8.00">a60::io::populate_files</text>
</a>
</g>
</g>
<!-- Node1&#45;&gt;Node11 -->
<g id="edge15" class="edge">
<title>Node1&#45;&gt;Node11</title>
<path fill="none" stroke="#63b8ff" d="M110.12,-355C166.98,-343.89 252.09,-325.35 281,-309 300.7,-297.86 297.66,-284.74 317,-273 320.59,-270.82 324.48,-268.88 328.47,-267.15"/>
<polygon fill="#63b8ff" stroke="#63b8ff" points="329.82,-270.38 337.89,-263.52 327.3,-263.85 329.82,-270.38"/>
</g>
<!-- Node12 -->
<g id="node12" class="node">
<title>Node12</title>
<g id="a_node12"><a xlink:href="structa60_1_1collection.html#a6c09e15effe8e57d54949bbfd8fb9db0" target="_top" xlink:title=" ">
<polygon fill="white" stroke="#666666" points="269,-233 158,-233 158,-207 269,-207 269,-233"/>
<text text-anchor="start" x="166" y="-222.6" font-family="SourceSans" font-size="8.00">a60::collection::rescue</text>
<text text-anchor="middle" x="213.5" y="-213.6" font-family="SourceSans" font-size="8.00">_meta_peers</text>
</a>
</g>
</g>
<!-- Node1&#45;&gt;Node12 -->
<g id="edge17" class="edge">
<title>Node1&#45;&gt;Node12</title>
<path fill="none" stroke="#63b8ff" d="M64.37,-351.87C78.87,-329.88 110.56,-285.15 146,-256 154.3,-249.17 164.09,-243.03 173.57,-237.84"/>
<polygon fill="#63b8ff" stroke="#63b8ff" points="175.27,-240.9 182.5,-233.15 172.02,-234.7 175.27,-240.9"/>
</g>
<!-- Node21 -->
<g id="node21" class="node">
<title>Node21</title>
<g id="a_node21"><a xlink:href="namespacea60.html#a481196ce0dd2fed071183fa6e47ecd70" target="_top" xlink:title="Write out meta_peers for a specific ID at SUFFIX.">
<polygon fill="white" stroke="#666666" points="281,-107.5 146,-107.5 146,-90.5 281,-90.5 281,-107.5"/>
<text text-anchor="middle" x="213.5" y="-97.1" font-family="SourceSans" font-size="8.00">a60::reserialize_sample_json</text>
</a>
</g>
</g>
<!-- Node1&#45;&gt;Node21 -->
<g id="edge27" class="edge">
<title>Node1&#45;&gt;Node21</title>
<path fill="none" stroke="#63b8ff" d="M62.58,-351.77C76.9,-323.2 112.31,-253.84 146,-198 163.83,-168.44 186.64,-135.4 200.38,-115.94"/>
<polygon fill="#63b8ff" stroke="#63b8ff" points="203.4,-117.74 206.34,-107.56 197.69,-113.68 203.4,-117.74"/>
</g>
<!-- Node28 -->
<g id="node28" class="node">
<title>Node28</title>
<g id="a_node28"><a xlink:href="namespacea60.html#a96be6f3a12e16a84ef5b465832f1657c" target="_top" xlink:title="Accumulate peers all files in all subdirectories of dir matching dirm. Where all files matching filem...">
<polygon fill="white" stroke="#666666" points="265.5,-373.5 161.5,-373.5 161.5,-356.5 265.5,-356.5 265.5,-373.5"/>
<text text-anchor="middle" x="213.5" y="-363.1" font-family="SourceSans" font-size="8.00">a60::usunique_peers</text>
</a>
</g>
</g>
<!-- Node1&#45;&gt;Node28 -->
<g id="edge34" class="edge">
<title>Node1&#45;&gt;Node28</title>
<path fill="none" stroke="#63b8ff" d="M110.3,-365C123.52,-365 137.76,-365 151.28,-365"/>
<polygon fill="#63b8ff" stroke="#63b8ff" points="151.46,-368.5 161.46,-365 151.46,-361.5 151.46,-368.5"/>
</g>
<!-- Node3 -->
<g id="node3" class="node">
<title>Node3</title>
<g id="a_node3"><a xlink:href="namespacea60_1_1io.html#a16f17ea9e02c1975ca17b77e46cf7629" target="_top" xlink:title="Make sure a path ends in &#39;/&#39;;.">
<polygon fill="white" stroke="#666666" points="737.5,-572.5 647.5,-572.5 647.5,-555.5 737.5,-555.5 737.5,-572.5"/>
<text text-anchor="middle" x="692.5" y="-562.1" font-family="SourceSans" font-size="8.00">a60::io::end_path</text>
</a>
</g>
</g>
<!-- Node2&#45;&gt;Node3 -->
<g id="edge2" class="edge">
<title>Node2&#45;&gt;Node3</title>
<path fill="none" stroke="#63b8ff" d="M593.21,-570.16C607.63,-569.26 622.91,-568.3 637.01,-567.42"/>
<polygon fill="#63b8ff" stroke="#63b8ff" points="637.28,-570.91 647.04,-566.79 636.84,-563.92 637.28,-570.91"/>
</g>
<!-- Node4 -->
<g id="node4" class="node">
<title>Node4</title>
<g id="a_node4"><a xlink:href="namespacea60_1_1io.html#ac95e5271a27a23bc2336d84b3f821fa2" target="_top" xlink:title="Constant filesystem and run&#45;time resources.">
<polygon fill="white" stroke="#666666" points="744.5,-518 640.5,-518 640.5,-492 744.5,-492 744.5,-518"/>
<text text-anchor="start" x="648.5" y="-507.6" font-family="SourceSans" font-size="8.00">a60::io::get_run_time</text>
<text text-anchor="middle" x="692.5" y="-498.6" font-family="SourceSans" font-size="8.00">_resources</text>
</a>
</g>
</g>
<!-- Node2&#45;&gt;Node4 -->
<g id="edge3" class="edge">
<title>Node2&#45;&gt;Node4</title>
<path fill="none" stroke="#63b8ff" d="M562.38,-560.86C587.76,-549.88 624.16,-534.13 651.84,-522.16"/>
<polygon fill="#63b8ff" stroke="#63b8ff" points="653.45,-525.27 661.24,-518.09 650.67,-518.85 653.45,-525.27"/>
</g>
<!-- Node5&#45;&gt;Node2 -->
<g id="edge5" class="edge">
<title>Node5&#45;&gt;Node2</title>
<path fill="none" stroke="#63b8ff" d="M263.8,-507.34C318.84,-521.13 408.04,-543.46 467.83,-558.43"/>
<polygon fill="#63b8ff" stroke="#63b8ff" points="467.35,-561.92 477.9,-560.95 469.05,-555.13 467.35,-561.92"/>
</g>
<!-- Node6 -->
<g id="node6" class="node">
<title>Node6</title>
<g id="a_node6"><a xlink:href="structa60_1_1collection.html#abc4d01b1b17d4622939cb6c5c0f9b38b" target="_top" xlink:title=" ">
<polygon fill="white" stroke="#666666" points="433,-508 317,-508 317,-482 433,-482 433,-508"/>
<text text-anchor="start" x="325" y="-497.6" font-family="SourceSans" font-size="8.00">a60::collection::prune</text>
<text text-anchor="middle" x="375" y="-488.6" font-family="SourceSans" font-size="8.00">_archive_sub_directories</text>
</a>
</g>
</g>
<!-- Node5&#45;&gt;Node6 -->
<g id="edge6" class="edge">
<title>Node5&#45;&gt;Node6</title>
<path fill="none" stroke="#63b8ff" d="M263.66,-495C277.21,-495 292.15,-495 306.55,-495"/>
<polygon fill="#63b8ff" stroke="#63b8ff" points="306.9,-498.5 316.9,-495 306.9,-491.5 306.9,-498.5"/>
</g>
<!-- Node6&#45;&gt;Node2 -->
<g id="edge7" class="edge">
<title>Node6&#45;&gt;Node2</title>
<path fill="none" stroke="#63b8ff" d="M406.06,-508.11C414.89,-512.26 424.47,-517.06 433,-522 449.86,-531.76 452.02,-537.46 469,-547 475.04,-550.39 481.58,-553.67 488.07,-556.71"/>
<polygon fill="#63b8ff" stroke="#63b8ff" points="486.91,-560.03 497.46,-560.97 489.8,-553.65 486.91,-560.03"/>
</g>
<!-- Node6&#45;&gt;Node3 -->
<g id="edge8" class="edge">
<title>Node6&#45;&gt;Node3</title>
<path fill="none" stroke="#63b8ff" d="M433.13,-507.5C492.94,-520.57 585.85,-540.89 642.44,-553.27"/>
<polygon fill="#63b8ff" stroke="#63b8ff" points="641.71,-556.69 652.23,-555.41 643.21,-549.86 641.71,-556.69"/>
</g>
<!-- Node6&#45;&gt;Node4 -->
<g id="edge9" class="edge">
<title>Node6&#45;&gt;Node4</title>
<path fill="none" stroke="#63b8ff" d="M433.13,-496.81C488.72,-498.57 572.91,-501.24 629.95,-503.05"/>
<polygon fill="#63b8ff" stroke="#63b8ff" points="630.16,-506.56 640.27,-503.38 630.39,-499.56 630.16,-506.56"/>
</g>
<!-- Node7 -->
<g id="node7" class="node">
<title>Node7</title>
<g id="a_node7"><a xlink:href="namespacea60_1_1constants.html#ac27c77e4606552ae5f74a1c21dd9258e" target="_top" xlink:title=" ">
<polygon fill="white" stroke="#666666" points="589.5,-466.5 472.5,-466.5 472.5,-449.5 589.5,-449.5 589.5,-466.5"/>
<text text-anchor="middle" x="531" y="-456.1" font-family="SourceSans" font-size="8.00">a60::constants::newline</text>
</a>
</g>
</g>
<!-- Node6&#45;&gt;Node7 -->
<g id="edge10" class="edge">
<title>Node6&#45;&gt;Node7</title>
<path fill="none" stroke="#63b8ff" d="M430.29,-481.96C448.1,-477.68 467.69,-472.97 484.75,-468.87"/>
<polygon fill="#63b8ff" stroke="#63b8ff" points="485.57,-472.27 494.48,-466.53 483.94,-465.47 485.57,-472.27"/>
</g>
<!-- Node6&#45;&gt;Node8 -->
<g id="edge11" class="edge">
<title>Node6&#45;&gt;Node8</title>
<path fill="none" stroke="#63b8ff" d="M406.47,-481.95C415.22,-477.83 424.66,-473.03 433,-468 450.12,-457.67 452.7,-452.58 469,-441 479.46,-433.57 491.11,-425.65 501.41,-418.77"/>
<polygon fill="#63b8ff" stroke="#63b8ff" points="503.65,-421.49 510.04,-413.04 499.78,-415.66 503.65,-421.49"/>
</g>
<!-- Node8&#45;&gt;Node8 -->
<g id="edge12" class="edge">
<title>Node8&#45;&gt;Node8</title>
<path fill="none" stroke="#63b8ff" d="M504.61,-413.06C496.61,-422.1 505.41,-431 531,-431 546.6,-431 555.96,-427.69 559.08,-423.07"/>
<polygon fill="#63b8ff" stroke="#63b8ff" points="562.5,-422.34 557.39,-413.06 555.6,-423.5 562.5,-422.34"/>
</g>
<!-- Node13 -->
<g id="node13" class="node">
<title>Node13</title>
<g id="a_node13"><a xlink:href="namespacea60.html#a24d75332c6079b3a73c8c69498455c55" target="_top" xlink:title="Try again to get geoip information for peers that are returning (0,0).">
<polygon fill="white" stroke="#666666" points="430.5,-193.5 319.5,-193.5 319.5,-176.5 430.5,-176.5 430.5,-193.5"/>
<text text-anchor="middle" x="375" y="-183.1" font-family="SourceSans" font-size="8.00">a60::rescue_lost_peers</text>
</a>
</g>
</g>
<!-- Node12&#45;&gt;Node13 -->
<g id="edge18" class="edge">
<title>Node12&#45;&gt;Node13</title>
<path fill="none" stroke="#63b8ff" d="M269.39,-207.95C287.47,-203.99 307.44,-199.61 325.05,-195.74"/>
<polygon fill="#63b8ff" stroke="#63b8ff" points="326.09,-199.1 335.11,-193.53 324.59,-192.26 326.09,-199.1"/>
</g>
<!-- Node20 -->
<g id="node20" class="node">
<title>Node20</title>
<g id="a_node20"><a xlink:href="namespacea60.html#a718120588394d0516778b6ad06793bf8" target="_top" xlink:title="See what peers have no country info or latitude/longitude.">
<polygon fill="white" stroke="#666666" points="430.5,-228.5 319.5,-228.5 319.5,-211.5 430.5,-211.5 430.5,-228.5"/>
<text text-anchor="middle" x="375" y="-218.1" font-family="SourceSans" font-size="8.00">a60::survey_lost_peers</text>
</a>
</g>
</g>
<!-- Node12&#45;&gt;Node20 -->
<g id="edge25" class="edge">
<title>Node12&#45;&gt;Node20</title>
<path fill="none" stroke="#63b8ff" d="M269.39,-220C282.12,-220 295.78,-220 308.9,-220"/>
<polygon fill="#63b8ff" stroke="#63b8ff" points="309.28,-223.5 319.28,-220 309.28,-216.5 309.28,-223.5"/>
</g>
<!-- Node14 -->
<g id="node14" class="node">
<title>Node14</title>
<g id="a_node14"><a xlink:href="namespacea60.html#ac39b0d667e2ffa7a1bf2df7cc4e5ac38" target="_top" xlink:title="IFF either of the above is true.">
<polygon fill="white" stroke="#666666" points="586.5,-228.5 475.5,-228.5 475.5,-211.5 586.5,-211.5 586.5,-228.5"/>
<text text-anchor="middle" x="531" y="-218.1" font-family="SourceSans" font-size="8.00">a60::is_meta_peer_lost</text>
</a>
</g>
</g>
<!-- Node13&#45;&gt;Node14 -->
<g id="edge19" class="edge">
<title>Node13&#45;&gt;Node14</title>
<path fill="none" stroke="#63b8ff" d="M413.67,-193.56C434.44,-198.28 460.44,-204.19 482.58,-209.22"/>
<polygon fill="#63b8ff" stroke="#63b8ff" points="481.92,-212.66 492.45,-211.47 483.47,-205.84 481.92,-212.66"/>
</g>
<!-- Node17 -->
<g id="node17" class="node">
<title>Node17</title>
<g id="a_node17"><a xlink:href="namespacea60.html#ad300edc3a7396b9f52a64f37e9443891" target="_top" xlink:title="No GeoIP.">
<polygon fill="white" stroke="#666666" points="584.5,-193.5 477.5,-193.5 477.5,-176.5 584.5,-176.5 584.5,-193.5"/>
<text text-anchor="middle" x="531" y="-183.1" font-family="SourceSans" font-size="8.00">a60::make_meta_peer</text>
</a>
</g>
</g>
<!-- Node13&#45;&gt;Node17 -->
<g id="edge22" class="edge">
<title>Node13&#45;&gt;Node17</title>
<path fill="none" stroke="#63b8ff" d="M430.73,-185C442.55,-185 455.13,-185 467.23,-185"/>
<polygon fill="#63b8ff" stroke="#63b8ff" points="467.26,-188.5 477.26,-185 467.26,-181.5 467.26,-188.5"/>
</g>
<!-- Node18 -->
<g id="node18" class="node">
<title>Node18</title>
<g id="a_node18"><a xlink:href="structa60_1_1geo_1_1map__base.html#a9215731f10e2fa8488b0e081c2a5cef4" target="_top" xlink:title=" ">
<polygon fill="white" stroke="#666666" points="582,-158 480,-158 480,-132 582,-132 582,-158"/>
<text text-anchor="start" x="488" y="-147.6" font-family="SourceSans" font-size="8.00">a60::geo::map_base</text>
<text text-anchor="middle" x="531" y="-138.6" font-family="SourceSans" font-size="8.00">::open</text>
</a>
</g>
</g>
<!-- Node13&#45;&gt;Node18 -->
<g id="edge23" class="edge">
<title>Node13&#45;&gt;Node18</title>
<path fill="none" stroke="#63b8ff" d="M409.04,-176.42C426.81,-171.8 449.29,-165.96 470.03,-160.58"/>
<polygon fill="#63b8ff" stroke="#63b8ff" points="470.93,-163.96 479.73,-158.06 469.17,-157.18 470.93,-163.96"/>
</g>
<!-- Node15 -->
<g id="node15" class="node">
<title>Node15</title>
<g id="a_node15"><a xlink:href="namespacea60.html#a63bf2b0abf68edc3f3e74a0811fe771b" target="_top" xlink:title="Error checking support. Null Island Check (aka latitude and longitude set to zero).">
<polygon fill="white" stroke="#666666" points="746,-218 639,-218 639,-192 746,-192 746,-218"/>
<text text-anchor="start" x="647" y="-207.6" font-family="SourceSans" font-size="8.00">a60::is_meta_peer_on</text>
<text text-anchor="middle" x="692.5" y="-198.6" font-family="SourceSans" font-size="8.00">_null_island</text>
</a>
</g>
</g>
<!-- Node14&#45;&gt;Node15 -->
<g id="edge20" class="edge">
<title>Node14&#45;&gt;Node15</title>
<path fill="none" stroke="#63b8ff" d="M586.89,-214.84C600.45,-213.56 615.08,-212.19 628.97,-210.88"/>
<polygon fill="#63b8ff" stroke="#63b8ff" points="629.3,-214.36 638.93,-209.94 628.65,-207.4 629.3,-214.36"/>
</g>
<!-- Node16 -->
<g id="node16" class="node">
<title>Node16</title>
<g id="a_node16"><a xlink:href="namespacea60.html#a0ff511c579a9f94ffff788b1cd4ae864" target="_top" xlink:title="Null Country Check.">
<polygon fill="white" stroke="#666666" points="756,-262 629,-262 629,-236 756,-236 756,-262"/>
<text text-anchor="start" x="637" y="-251.6" font-family="SourceSans" font-size="8.00">a60::is_meta_peer_without</text>
<text text-anchor="middle" x="692.5" y="-242.6" font-family="SourceSans" font-size="8.00">_country</text>
</a>
</g>
</g>
<!-- Node14&#45;&gt;Node16 -->
<g id="edge21" class="edge">
<title>Node14&#45;&gt;Node16</title>
<path fill="none" stroke="#63b8ff" d="M578.99,-228.54C591.44,-230.81 605.18,-233.31 618.65,-235.75"/>
<polygon fill="#63b8ff" stroke="#63b8ff" points="618.41,-239.27 628.88,-237.61 619.66,-232.38 618.41,-239.27"/>
</g>
<!-- Node19 -->
<g id="node19" class="node">
<title>Node19</title>
<g id="a_node19"><a xlink:href="namespacea60_1_1io.html#aa5fbb8ab63397dd45c4a54c0758935ef" target="_top" xlink:title="Sanity check input existence.">
<polygon fill="white" stroke="#666666" points="744.5,-158 640.5,-158 640.5,-132 744.5,-132 744.5,-158"/>
<text text-anchor="start" x="648.5" y="-147.6" font-family="SourceSans" font-size="8.00">a60::io::sanity_check</text>
<text text-anchor="middle" x="692.5" y="-138.6" font-family="SourceSans" font-size="8.00">_input</text>
</a>
</g>
</g>
<!-- Node18&#45;&gt;Node19 -->
<g id="edge24" class="edge">
<title>Node18&#45;&gt;Node19</title>
<path fill="none" stroke="#63b8ff" d="M582.03,-145C597.24,-145 614.14,-145 630.02,-145"/>
<polygon fill="#63b8ff" stroke="#63b8ff" points="630.27,-148.5 640.27,-145 630.27,-141.5 630.27,-148.5"/>
</g>
<!-- Node20&#45;&gt;Node14 -->
<g id="edge26" class="edge">
<title>Node20&#45;&gt;Node14</title>
<path fill="none" stroke="#63b8ff" d="M430.73,-220C441.96,-220 453.89,-220 465.43,-220"/>
<polygon fill="#63b8ff" stroke="#63b8ff" points="465.45,-223.5 475.45,-220 465.45,-216.5 465.45,-223.5"/>
</g>
<!-- Node22 -->
<g id="node22" class="node">
<title>Node22</title>
<g id="a_node22"><a xlink:href="namespacea60.html#aba8b47de875bd5bebeed9c57e3b52c06" target="_top" xlink:title="Serialize buffer to output file.">
<polygon fill="white" stroke="#666666" points="425.5,-127.5 324.5,-127.5 324.5,-110.5 425.5,-110.5 425.5,-127.5"/>
<text text-anchor="middle" x="375" y="-117.1" font-family="SourceSans" font-size="8.00">a60::serialize_buffer</text>
</a>
</g>
</g>
<!-- Node21&#45;&gt;Node22 -->
<g id="edge28" class="edge">
<title>Node21&#45;&gt;Node22</title>
<path fill="none" stroke="#63b8ff" d="M281.22,-107.37C292.09,-108.73 303.29,-110.13 313.98,-111.47"/>
<polygon fill="#63b8ff" stroke="#63b8ff" points="313.69,-114.97 324.05,-112.74 314.57,-108.02 313.69,-114.97"/>
</g>
<!-- Node23 -->
<g id="node23" class="node">
<title>Node23</title>
<g id="a_node23"><a xlink:href="namespacea60.html#a94d004bc4c17246fd2bb76cabb121d9a" target="_top" xlink:title="Per collection metadata for given duration.">
<polygon fill="white" stroke="#666666" points="433,-92 317,-92 317,-66 433,-66 433,-92"/>
<text text-anchor="start" x="325" y="-81.6" font-family="SourceSans" font-size="8.00">a60::serialize_collection</text>
<text text-anchor="middle" x="375" y="-72.6" font-family="SourceSans" font-size="8.00">_metadata_json</text>
</a>
</g>
</g>
<!-- Node21&#45;&gt;Node23 -->
<g id="edge29" class="edge">
<title>Node21&#45;&gt;Node23</title>
<path fill="none" stroke="#63b8ff" d="M281.22,-90.63C289.59,-89.58 298.17,-88.51 306.55,-87.46"/>
<polygon fill="#63b8ff" stroke="#63b8ff" points="307.18,-90.91 316.66,-86.19 306.31,-83.96 307.18,-90.91"/>
</g>
<!-- Node26 -->
<g id="node26" class="node">
<title>Node26</title>
<g id="a_node26"><a xlink:href="namespacea60.html#a87cd73602b7d6cf64ef441200cfda504" target="_top" xlink:title="Serialize vector of meta_peer.">
<polygon fill="white" stroke="#666666" points="424,-48 326,-48 326,-22 424,-22 424,-48"/>
<text text-anchor="start" x="334" y="-37.6" font-family="SourceSans" font-size="8.00">a60::serialize_meta</text>
<text text-anchor="middle" x="375" y="-28.6" font-family="SourceSans" font-size="8.00">_peers_json</text>
</a>
</g>
</g>
<!-- Node21&#45;&gt;Node26 -->
<g id="edge32" class="edge">
<title>Node21&#45;&gt;Node26</title>
<path fill="none" stroke="#63b8ff" d="M235.26,-90.35C255.93,-81.77 288.59,-68.3 317,-57 321.39,-55.25 325.98,-53.45 330.56,-51.66"/>
<polygon fill="#63b8ff" stroke="#63b8ff" points="331.84,-54.92 339.9,-48.03 329.31,-48.39 331.84,-54.92"/>
</g>
<!-- Node24 -->
<g id="node24" class="node">
<title>Node24</title>
<g id="a_node24"><a xlink:href="structa60_1_1collection.html#a8ac066ef3bb824d0ecff3b1238e358e4" target="_top" xlink:title=" ">
<polygon fill="white" stroke="#666666" points="580,-70 482,-70 482,-44 580,-44 580,-70"/>
<text text-anchor="start" x="490" y="-59.6" font-family="SourceSans" font-size="8.00">a60::collection::get</text>
<text text-anchor="middle" x="531" y="-50.6" font-family="SourceSans" font-size="8.00">_name_from_tid</text>
</a>
</g>
</g>
<!-- Node23&#45;&gt;Node24 -->
<g id="edge30" class="edge">
<title>Node23&#45;&gt;Node24</title>
<path fill="none" stroke="#63b8ff" d="M433.34,-70.81C445.89,-69.02 459.19,-67.12 471.78,-65.32"/>
<polygon fill="#63b8ff" stroke="#63b8ff" points="472.28,-68.78 481.69,-63.9 471.29,-61.85 472.28,-68.78"/>
</g>
<!-- Node25 -->
<g id="node25" class="node">
<title>Node25</title>
<g id="a_node25"><a xlink:href="namespacea60.html#a5491ff3ca7dc34407696caaa90828819" target="_top" xlink:title="First collection serialization, common for all writing.">
<polygon fill="white" stroke="#666666" points="589,-114 473,-114 473,-88 589,-88 589,-114"/>
<text text-anchor="start" x="481" y="-103.6" font-family="SourceSans" font-size="8.00">a60::serialize_collection</text>
<text text-anchor="middle" x="531" y="-94.6" font-family="SourceSans" font-size="8.00">_base_json</text>
</a>
</g>
</g>
<!-- Node23&#45;&gt;Node25 -->
<g id="edge31" class="edge">
<title>Node23&#45;&gt;Node25</title>
<path fill="none" stroke="#63b8ff" d="M433.34,-87.19C442.93,-88.56 452.95,-89.99 462.75,-91.39"/>
<polygon fill="#63b8ff" stroke="#63b8ff" points="462.47,-94.89 472.86,-92.84 463.46,-87.96 462.47,-94.89"/>
</g>
<!-- Node27 -->
<g id="node27" class="node">
<title>Node27</title>
<g id="a_node27"><a xlink:href="namespacea60.html#a2228baa081fe66cea91ed8032bda4732" target="_top" xlink:title="Serialize meta_peer.">
<polygon fill="white" stroke="#666666" points="580,-26 482,-26 482,0 580,0 580,-26"/>
<text text-anchor="start" x="490" y="-15.6" font-family="SourceSans" font-size="8.00">a60::serialize_meta</text>
<text text-anchor="middle" x="531" y="-6.6" font-family="SourceSans" font-size="8.00">_peer_json</text>
</a>
</g>
</g>
<!-- Node26&#45;&gt;Node27 -->
<g id="edge33" class="edge">
<title>Node26&#45;&gt;Node27</title>
<path fill="none" stroke="#63b8ff" d="M424.3,-28.1C439.35,-25.95 456.11,-23.56 471.77,-21.32"/>
<polygon fill="#63b8ff" stroke="#63b8ff" points="472.46,-24.76 481.87,-19.88 471.47,-17.83 472.46,-24.76"/>
</g>
<!-- Node28&#45;&gt;Node8 -->
<g id="edge39" class="edge">
<title>Node28&#45;&gt;Node8</title>
<path fill="none" stroke="#63b8ff" d="M265.54,-370.66C320.61,-376.77 408.33,-386.5 467.49,-393.06"/>
<polygon fill="#63b8ff" stroke="#63b8ff" points="467.13,-396.55 477.45,-394.17 467.9,-389.59 467.13,-396.55"/>
</g>
<!-- Node28&#45;&gt;Node9 -->
<g id="edge37" class="edge">
<title>Node28&#45;&gt;Node9</title>
<path fill="none" stroke="#63b8ff" d="M240.84,-373.59C267.47,-382.27 308.81,-395.75 338.36,-405.38"/>
<polygon fill="#63b8ff" stroke="#63b8ff" points="337.3,-408.71 347.89,-408.49 339.47,-402.06 337.3,-408.71"/>
</g>
<!-- Node28&#45;&gt;Node11 -->
<g id="edge38" class="edge">
<title>Node28&#45;&gt;Node11</title>
<path fill="none" stroke="#63b8ff" d="M255.08,-356.38C264.33,-353.02 273.6,-348.38 281,-342 307.2,-319.42 290.5,-295.23 317,-273 319.13,-271.22 321.43,-269.61 323.85,-268.16"/>
<polygon fill="#63b8ff" stroke="#63b8ff" points="325.64,-271.18 333.02,-263.58 322.51,-264.92 325.64,-271.18"/>
</g>
<!-- Node29 -->
<g id="node29" class="node">
<title>Node29</title>
<g id="a_node29"><a xlink:href="namespacea60.html#af45982273a7a2e61b6aaa436081238c0" target="_top" xlink:title="Load JSON file to in&#45;memory DOM.">
<polygon fill="white" stroke="#666666" points="427,-352 323,-352 323,-326 427,-326 427,-352"/>
<text text-anchor="start" x="331" y="-341.6" font-family="SourceSans" font-size="8.00">a60::deserialize_json</text>
<text text-anchor="middle" x="375" y="-332.6" font-family="SourceSans" font-size="8.00">_to_dom_object</text>
</a>
</g>
</g>
<!-- Node28&#45;&gt;Node29 -->
<g id="edge35" class="edge">
<title>Node28&#45;&gt;Node29</title>
<path fill="none" stroke="#63b8ff" d="M265.84,-356.63C280.79,-354.19 297.26,-351.51 312.74,-348.99"/>
<polygon fill="#63b8ff" stroke="#63b8ff" points="313.44,-352.42 322.75,-347.35 312.32,-345.51 313.44,-352.42"/>
</g>
<!-- Node31 -->
<g id="node31" class="node">
<title>Node31</title>
<g id="a_node31"><a xlink:href="namespacea60.html#a6ce8704ec3c4d5e258d062283dd40efb" target="_top" xlink:title="Search DOM for meta_peer(s).">
<polygon fill="white" stroke="#666666" points="426.5,-308 323.5,-308 323.5,-282 426.5,-282 426.5,-308"/>
<text text-anchor="start" x="331.5" y="-297.6" font-family="SourceSans" font-size="8.00">a60::search_dom_for</text>
<text text-anchor="middle" x="375" y="-288.6" font-family="SourceSans" font-size="8.00">_meta_peers</text>
</a>
</g>
</g>
<!-- Node28&#45;&gt;Node31 -->
<g id="edge40" class="edge">
<title>Node28&#45;&gt;Node31</title>
<path fill="none" stroke="#63b8ff" d="M244.68,-356.5C256.32,-352.72 269.56,-347.81 281,-342 298.37,-333.18 299.79,-326.13 317,-317 320.24,-315.28 323.64,-313.63 327.1,-312.05"/>
<polygon fill="#63b8ff" stroke="#63b8ff" points="328.53,-315.25 336.33,-308.07 325.76,-308.82 328.53,-315.25"/>
</g>
<!-- Node30 -->
<g id="node30" class="node">
<title>Node30</title>
<g id="a_node30"><a xlink:href="namespacea60.html#a538d43bb9bfa488a54cea929736dbe2d" target="_top" xlink:title="Deserialize input file.">
<polygon fill="white" stroke="#666666" points="583,-352 479,-352 479,-326 583,-326 583,-352"/>
<text text-anchor="start" x="487" y="-341.6" font-family="SourceSans" font-size="8.00">a60::deserialize_json</text>
<text text-anchor="middle" x="531" y="-332.6" font-family="SourceSans" font-size="8.00">_to_dom</text>
</a>
</g>
</g>
<!-- Node29&#45;&gt;Node30 -->
<g id="edge36" class="edge">
<title>Node29&#45;&gt;Node30</title>
<path fill="none" stroke="#63b8ff" d="M427.28,-339C440.53,-339 454.92,-339 468.63,-339"/>
<polygon fill="#63b8ff" stroke="#63b8ff" points="468.94,-342.5 478.94,-339 468.94,-335.5 468.94,-342.5"/>
</g>
</g>
</svg>
