<?xml version="1.0" encoding="UTF-8" standalone="no"?>
<!DOCTYPE svg PUBLIC "-//W3C//DTD SVG 1.1//EN"
 "http://www.w3.org/Graphics/SVG/1.1/DTD/svg11.dtd">
<!-- Generated by graphviz version 5.0.0 (0)
 -->
<!-- Title: a60::augment_weighed_demititle_corner Pages: 1 -->
<svg width="443pt" height="174pt"
 viewBox="0.00 0.00 443.00 173.50" xmlns="http://www.w3.org/2000/svg" xmlns:xlink="http://www.w3.org/1999/xlink">
<g id="graph0" class="graph" transform="scale(1 1) rotate(0) translate(4 169.5)">
<title>a60::augment_weighed_demititle_corner</title>
<!-- Node1 -->
<g id="node1" class="node">
<title>Node1</title>
<g id="a_node1"><a xlink:title="Demi&#45; and Sub&#45;titles: maps details, logos, sample details.">
<polygon fill="#999999" stroke="#666666" points="114,-85 0,-85 0,-59 114,-59 114,-85"/>
<text text-anchor="start" x="8" y="-74.6" font-family="SourceSans" font-size="8.00">a60::augment_weighed</text>
<text text-anchor="middle" x="57" y="-65.6" font-family="SourceSans" font-size="8.00">_demititle_corner</text>
</a>
</g>
</g>
<!-- Node2 -->
<g id="node2" class="node">
<title>Node2</title>
<g id="a_node2"><a xlink:href="namespacea60.html#a12bb965ea738f7cc71cbc107d3e60a92" target="_top" xlink:title=" ">
<polygon fill="white" stroke="#666666" points="277,-99.5 150,-99.5 150,-82.5 277,-82.5 277,-99.5"/>
<text text-anchor="middle" x="213.5" y="-89.1" font-family="SourceSans" font-size="8.00">a60::augment_corner_logo</text>
</a>
</g>
</g>
<!-- Node1&#45;&gt;Node2 -->
<g id="edge1" class="edge">
<title>Node1&#45;&gt;Node2</title>
<path fill="none" stroke="#63b8ff" d="M114.22,-78.91C122.52,-79.94 131.19,-81 139.77,-82.06"/>
<polygon fill="#63b8ff" stroke="#63b8ff" points="139.44,-85.54 149.79,-83.29 140.29,-78.59 139.44,-85.54"/>
</g>
<!-- Node3 -->
<g id="node3" class="node">
<title>Node3</title>
<g id="a_node3"><a xlink:href="namespacea60.html#a9a4a56d4df51571fc4799d7320c74c73" target="_top" xlink:title=" ">
<polygon fill="white" stroke="#666666" points="427.5,-165.5 320.5,-165.5 320.5,-148.5 427.5,-148.5 427.5,-165.5"/>
<text text-anchor="middle" x="374" y="-155.1" font-family="SourceSans" font-size="8.00">a60::corner_logo_size</text>
</a>
</g>
</g>
<!-- Node1&#45;&gt;Node3 -->
<g id="edge6" class="edge">
<title>Node1&#45;&gt;Node3</title>
<path fill="none" stroke="#63b8ff" d="M87.83,-85.05C105.63,-92.48 128.83,-101.57 150,-108 204.66,-124.59 268.44,-138.03 313.76,-146.61"/>
<polygon fill="#63b8ff" stroke="#63b8ff" points="313.24,-150.07 323.71,-148.47 314.52,-143.19 313.24,-150.07"/>
</g>
<!-- Node5 -->
<g id="node5" class="node">
<title>Node5</title>
<g id="a_node5"><a xlink:href="namespacea60_1_1carto.html#af59ef7858ef576e7f17b781f38436f28" target="_top" xlink:title=" ">
<polygon fill="white" stroke="#666666" points="435,-50.5 313,-50.5 313,-33.5 435,-33.5 435,-50.5"/>
<text text-anchor="middle" x="374" y="-40.1" font-family="SourceSans" font-size="8.00">a60::carto::frame_margin</text>
</a>
</g>
</g>
<!-- Node1&#45;&gt;Node5 -->
<g id="edge7" class="edge">
<title>Node1&#45;&gt;Node5</title>
<path fill="none" stroke="#63b8ff" d="M114.32,-66.64C167.07,-61.61 246.08,-54.09 302.9,-48.68"/>
<polygon fill="#63b8ff" stroke="#63b8ff" points="303.26,-52.16 312.88,-47.73 302.59,-45.19 303.26,-52.16"/>
</g>
<!-- Node7 -->
<g id="node7" class="node">
<title>Node7</title>
<g id="a_node7"><a xlink:href="structa60_1_1collection.html#a4b5f4e6148e18b08ccc033e200327cdf" target="_top" xlink:title="Display/output name for torrent collection, including partition, episode/multiepisode,...">
<polygon fill="white" stroke="#666666" points="268.5,-26 158.5,-26 158.5,0 268.5,0 268.5,-26"/>
<text text-anchor="start" x="166.5" y="-15.6" font-family="SourceSans" font-size="8.00">a60::collection::media</text>
<text text-anchor="middle" x="213.5" y="-6.6" font-family="SourceSans" font-size="8.00">_object_name</text>
</a>
</g>
</g>
<!-- Node1&#45;&gt;Node7 -->
<g id="edge8" class="edge">
<title>Node1&#45;&gt;Node7</title>
<path fill="none" stroke="#63b8ff" d="M92.29,-58.91C114.89,-50.27 144.69,-38.9 168.96,-29.63"/>
<polygon fill="#63b8ff" stroke="#63b8ff" points="170.21,-32.89 178.31,-26.06 167.72,-26.36 170.21,-32.89"/>
</g>
<!-- Node2&#45;&gt;Node3 -->
<g id="edge2" class="edge">
<title>Node2&#45;&gt;Node3</title>
<path fill="none" stroke="#63b8ff" d="M229.46,-99.54C248.43,-110.11 282.36,-128.16 313,-140 318.11,-141.98 323.55,-143.84 328.98,-145.55"/>
<polygon fill="#63b8ff" stroke="#63b8ff" points="328.1,-148.94 338.69,-148.46 330.12,-142.23 328.1,-148.94"/>
</g>
<!-- Node4 -->
<g id="node4" class="node">
<title>Node4</title>
<g id="a_node4"><a xlink:href="namespacea60_1_1io.html#a16f17ea9e02c1975ca17b77e46cf7629" target="_top" xlink:title="Make sure a path ends in &#39;/&#39;;.">
<polygon fill="white" stroke="#666666" points="419,-130.5 329,-130.5 329,-113.5 419,-113.5 419,-130.5"/>
<text text-anchor="middle" x="374" y="-120.1" font-family="SourceSans" font-size="8.00">a60::io::end_path</text>
</a>
</g>
</g>
<!-- Node2&#45;&gt;Node4 -->
<g id="edge3" class="edge">
<title>Node2&#45;&gt;Node4</title>
<path fill="none" stroke="#63b8ff" d="M258.23,-99.55C277.2,-103.26 299.59,-107.64 319.54,-111.54"/>
<polygon fill="#63b8ff" stroke="#63b8ff" points="318.93,-114.99 329.41,-113.47 320.27,-108.12 318.93,-114.99"/>
</g>
<!-- Node2&#45;&gt;Node5 -->
<g id="edge4" class="edge">
<title>Node2&#45;&gt;Node5</title>
<path fill="none" stroke="#63b8ff" d="M241.23,-82.48C261.02,-76.2 288.67,-67.48 313,-60 320,-57.85 327.48,-55.58 334.69,-53.41"/>
<polygon fill="#63b8ff" stroke="#63b8ff" points="335.72,-56.76 344.29,-50.53 333.7,-50.05 335.72,-56.76"/>
</g>
<!-- Node6 -->
<g id="node6" class="node">
<title>Node6</title>
<g id="a_node6"><a xlink:href="namespacea60_1_1io.html#ac95e5271a27a23bc2336d84b3f821fa2" target="_top" xlink:title="Constant filesystem and run&#45;time resources.">
<polygon fill="white" stroke="#666666" points="426,-95 322,-95 322,-69 426,-69 426,-95"/>
<text text-anchor="start" x="330" y="-84.6" font-family="SourceSans" font-size="8.00">a60::io::get_run_time</text>
<text text-anchor="middle" x="374" y="-75.6" font-family="SourceSans" font-size="8.00">_resources</text>
</a>
</g>
</g>
<!-- Node2&#45;&gt;Node6 -->
<g id="edge5" class="edge">
<title>Node2&#45;&gt;Node6</title>
<path fill="none" stroke="#63b8ff" d="M277.14,-87.44C288.41,-86.8 300.14,-86.14 311.37,-85.5"/>
<polygon fill="#63b8ff" stroke="#63b8ff" points="311.73,-88.98 321.52,-84.92 311.34,-82 311.73,-88.98"/>
</g>
</g>
</svg>
