<?xml version="1.0" encoding="UTF-8" standalone="no"?>
<!DOCTYPE svg PUBLIC "-//W3C//DTD SVG 1.1//EN"
 "http://www.w3.org/Graphics/SVG/1.1/DTD/svg11.dtd">
<!-- Generated by graphviz version 5.0.0 (0)
 -->
<!-- Title: a60::metadata::serialize_ranked_media_object Pages: 1 -->
<svg width="279pt" height="130pt"
 viewBox="0.00 0.00 279.00 130.00" xmlns="http://www.w3.org/2000/svg" xmlns:xlink="http://www.w3.org/1999/xlink">
<g id="graph0" class="graph" transform="scale(1 1) rotate(0) translate(4 126)">
<title>a60::metadata::serialize_ranked_media_object</title>
<!-- Node1 -->
<g id="node1" class="node">
<title>Node1</title>
<g id="a_node1"><a xlink:title="Output ranked list in text format.">
<polygon fill="#999999" stroke="#666666" points="119,-73.5 0,-73.5 0,-47.5 119,-47.5 119,-73.5"/>
<text text-anchor="start" x="8" y="-63.1" font-family="SourceSans" font-size="8.00">a60::metadata::serialize</text>
<text text-anchor="middle" x="59.5" y="-54.1" font-family="SourceSans" font-size="8.00">_ranked_media_object</text>
</a>
</g>
</g>
<!-- Node2 -->
<g id="node2" class="node">
<title>Node2</title>
<g id="a_node2"><a xlink:href="namespacea60_1_1constants.html#a2fd5efb0c88809132a730787d05a080a" target="_top" xlink:title=" ">
<polygon fill="white" stroke="#666666" points="270.5,-122 155.5,-122 155.5,-105 270.5,-105 270.5,-122"/>
<text text-anchor="middle" x="213" y="-111.6" font-family="SourceSans" font-size="8.00">a60::constants::comma</text>
</a>
</g>
</g>
<!-- Node1&#45;&gt;Node2 -->
<g id="edge1" class="edge">
<title>Node1&#45;&gt;Node2</title>
<path fill="none" stroke="#63b8ff" d="M93.08,-73.6C111.2,-80.7 134.22,-89.45 155,-96.5 160.38,-98.32 166.08,-100.15 171.71,-101.89"/>
<polygon fill="#63b8ff" stroke="#63b8ff" points="171.11,-105.36 181.69,-104.92 173.14,-98.67 171.11,-105.36"/>
</g>
<!-- Node3 -->
<g id="node3" class="node">
<title>Node3</title>
<g id="a_node3"><a xlink:href="namespacea60_1_1constants.html#a6338b74a1c5c6dc024b03069e07e34ac" target="_top" xlink:title=" ">
<polygon fill="white" stroke="#666666" points="271,-87 155,-87 155,-70 271,-70 271,-87"/>
<text text-anchor="middle" x="213" y="-76.6" font-family="SourceSans" font-size="8.00">a60::constants::hyphen</text>
</a>
</g>
</g>
<!-- Node1&#45;&gt;Node3 -->
<g id="edge2" class="edge">
<title>Node1&#45;&gt;Node3</title>
<path fill="none" stroke="#63b8ff" d="M119.07,-67.46C127.36,-68.44 135.94,-69.46 144.38,-70.47"/>
<polygon fill="#63b8ff" stroke="#63b8ff" points="144.24,-73.97 154.58,-71.68 145.06,-67.02 144.24,-73.97"/>
</g>
<!-- Node4 -->
<g id="node4" class="node">
<title>Node4</title>
<g id="a_node4"><a xlink:href="namespacea60_1_1constants.html#a4eca9d522711df25806d6dd1ff38e904" target="_top" xlink:title=" ">
<polygon fill="white" stroke="#666666" points="268,-52 158,-52 158,-35 268,-35 268,-52"/>
<text text-anchor="middle" x="213" y="-41.6" font-family="SourceSans" font-size="8.00">a60::constants::space</text>
</a>
</g>
</g>
<!-- Node1&#45;&gt;Node4 -->
<g id="edge3" class="edge">
<title>Node1&#45;&gt;Node4</title>
<path fill="none" stroke="#63b8ff" d="M119.07,-53.93C128.37,-52.88 138.03,-51.8 147.45,-50.74"/>
<polygon fill="#63b8ff" stroke="#63b8ff" points="148.01,-54.2 157.55,-49.61 147.22,-47.25 148.01,-54.2"/>
</g>
<!-- Node5 -->
<g id="node5" class="node">
<title>Node5</title>
<g id="a_node5"><a xlink:href="namespacea60.html#a751f954fe64233f1dc6517220e4b5692" target="_top" xlink:title=" ">
<polygon fill="white" stroke="#666666" points="266.5,-17 159.5,-17 159.5,0 266.5,0 266.5,-17"/>
<text text-anchor="middle" x="213" y="-6.6" font-family="SourceSans" font-size="8.00">a60::to_replace_string</text>
</a>
</g>
</g>
<!-- Node1&#45;&gt;Node5 -->
<g id="edge4" class="edge">
<title>Node1&#45;&gt;Node5</title>
<path fill="none" stroke="#63b8ff" d="M95.84,-47.41C113.54,-40.95 135.34,-33.14 155,-26.5 161.19,-24.41 167.79,-22.26 174.22,-20.2"/>
<polygon fill="#63b8ff" stroke="#63b8ff" points="175.62,-23.43 184.1,-17.07 173.51,-16.75 175.62,-23.43"/>
</g>
</g>
</svg>
