<?xml version="1.0" encoding="UTF-8" standalone="no"?>
<!DOCTYPE svg PUBLIC "-//W3C//DTD SVG 1.1//EN"
 "http://www.w3.org/Graphics/SVG/1.1/DTD/svg11.dtd">
<!-- Generated by graphviz version 5.0.0 (0)
 -->
<!-- Title: a60::io::append_to_files Pages: 1 -->
<svg width="249pt" height="88pt"
 viewBox="0.00 0.00 249.00 87.50" xmlns="http://www.w3.org/2000/svg" xmlns:xlink="http://www.w3.org/1999/xlink">
<g id="graph0" class="graph" transform="scale(1 1) rotate(0) translate(4 83.5)">
<title>a60::io::append_to_files</title>
<!-- Node1 -->
<g id="node1" class="node">
<title>Node1</title>
<g id="a_node1"><a xlink:title=" ">
<polygon fill="#999999" stroke="#666666" points="95,-55 0,-55 0,-29 95,-29 95,-55"/>
<text text-anchor="start" x="8" y="-44.6" font-family="SourceSans" font-size="8.00">a60::io::append_to</text>
<text text-anchor="middle" x="47.5" y="-35.6" font-family="SourceSans" font-size="8.00">_files</text>
</a>
</g>
</g>
<!-- Node2 -->
<g id="node2" class="node">
<title>Node2</title>
<g id="a_node2"><a xlink:href="namespacea60_1_1io.html#aea30b8fc474f5a7b922516dc1e199037" target="_top" xlink:title="Takes a string representing a directory, returns a sorted list of contents as a std::vector&lt;string&gt;.">
<polygon fill="white" stroke="#666666" points="241,-79.5 131,-79.5 131,-62.5 241,-62.5 241,-79.5"/>
<text text-anchor="middle" x="186" y="-69.1" font-family="SourceSans" font-size="8.00">a60::io::populate_files</text>
</a>
</g>
</g>
<!-- Node1&#45;&gt;Node2 -->
<g id="edge1" class="edge">
<title>Node1&#45;&gt;Node2</title>
<path fill="none" stroke="#63b8ff" d="M95.09,-51.9C108.02,-54.64 122.1,-57.64 135.2,-60.42"/>
<polygon fill="#63b8ff" stroke="#63b8ff" points="134.48,-63.84 144.99,-62.5 135.94,-57 134.48,-63.84"/>
</g>
<!-- Node3 -->
<g id="node3" class="node">
<title>Node3</title>
<g id="a_node3"><a xlink:href="namespacea60_1_1io.html#afbc9bd4e46187119419128390e16a033" target="_top" xlink:title="Takes a string representing a directory, returns a list of contents as a std::vector&lt;string&gt;.">
<polygon fill="white" stroke="#666666" points="239.5,-26 132.5,-26 132.5,0 239.5,0 239.5,-26"/>
<text text-anchor="start" x="140.5" y="-15.6" font-family="SourceSans" font-size="8.00">a60::io::populate_sub</text>
<text text-anchor="middle" x="186" y="-6.6" font-family="SourceSans" font-size="8.00">_directories</text>
</a>
</g>
</g>
<!-- Node1&#45;&gt;Node3 -->
<g id="edge2" class="edge">
<title>Node1&#45;&gt;Node3</title>
<path fill="none" stroke="#63b8ff" d="M95.09,-32.1C103.83,-30.25 113.09,-28.28 122.22,-26.34"/>
<polygon fill="#63b8ff" stroke="#63b8ff" points="122.99,-29.75 132.05,-24.25 121.54,-22.9 122.99,-29.75"/>
</g>
<!-- Node3&#45;&gt;Node3 -->
<g id="edge3" class="edge">
<title>Node3&#45;&gt;Node3</title>
<path fill="none" stroke="#63b8ff" d="M162.65,-26.06C155.58,-35.1 163.36,-44 186,-44 199.8,-44 208.08,-40.69 210.84,-36.07"/>
<polygon fill="#63b8ff" stroke="#63b8ff" points="214.28,-35.44 209.35,-26.06 207.36,-36.47 214.28,-35.44"/>
</g>
</g>
</svg>
