<?xml version="1.0" encoding="UTF-8" standalone="no"?>
<!DOCTYPE svg PUBLIC "-//W3C//DTD SVG 1.1//EN"
 "http://www.w3.org/Graphics/SVG/1.1/DTD/svg11.dtd">
<!-- Generated by graphviz version 5.0.0 (0)
 -->
<!-- Title: a60::metadata::print_vvids Pages: 1 -->
<svg width="245pt" height="48pt"
 viewBox="0.00 0.00 245.00 47.50" xmlns="http://www.w3.org/2000/svg" xmlns:xlink="http://www.w3.org/1999/xlink">
<g id="graph0" class="graph" transform="scale(1 1) rotate(0) translate(4 43.5)">
<title>a60::metadata::print_vvids</title>
<!-- Node1 -->
<g id="node1" class="node">
<title>Node1</title>
<g id="a_node1"><a xlink:title="Display contents of vvids/vsids.">
<polygon fill="#999999" stroke="#666666" points="103,-26 0,-26 0,0 103,0 103,-26"/>
<text text-anchor="start" x="8" y="-15.6" font-family="SourceSans" font-size="8.00">a60::metadata::print</text>
<text text-anchor="middle" x="51.5" y="-6.6" font-family="SourceSans" font-size="8.00">_vvids</text>
</a>
</g>
</g>
<!-- Node2 -->
<g id="node2" class="node">
<title>Node2</title>
<g id="a_node2"><a xlink:href="namespacea60_1_1constants.html#a01d9786063fb572d9389b0cd207bbe53" target="_top" xlink:title=" ">
<polygon fill="white" stroke="#666666" points="237,-21.5 139,-21.5 139,-4.5 237,-4.5 237,-21.5"/>
<text text-anchor="middle" x="188" y="-11.1" font-family="SourceSans" font-size="8.00">a60::constants::tab</text>
</a>
</g>
</g>
<!-- Node1&#45;&gt;Node2 -->
<g id="edge1" class="edge">
<title>Node1&#45;&gt;Node2</title>
<path fill="none" stroke="#63b8ff" d="M103.35,-13C111.6,-13 120.2,-13 128.61,-13"/>
<polygon fill="#63b8ff" stroke="#63b8ff" points="128.75,-16.5 138.75,-13 128.75,-9.5 128.75,-16.5"/>
</g>
<!-- Node2&#45;&gt;Node2 -->
<g id="edge2" class="edge">
<title>Node2&#45;&gt;Node2</title>
<path fill="none" stroke="#63b8ff" d="M167.74,-21.69C156.54,-30.17 163.3,-39.5 188,-39.5 204.21,-39.5 212.69,-35.48 213.45,-30.32"/>
<polygon fill="#63b8ff" stroke="#63b8ff" points="216.41,-28.46 208.26,-21.69 210.41,-32.06 216.41,-28.46"/>
</g>
</g>
</svg>
