<?xml version="1.0" encoding="UTF-8" standalone="no"?>
<!DOCTYPE svg PUBLIC "-//W3C//DTD SVG 1.1//EN"
 "http://www.w3.org/Graphics/SVG/1.1/DTD/svg11.dtd">
<!-- Generated by graphviz version 5.0.0 (0)
 -->
<!-- Title: a60::to_string Pages: 1 -->
<svg width="192pt" height="43pt"
 viewBox="0.00 0.00 192.00 43.00" xmlns="http://www.w3.org/2000/svg" xmlns:xlink="http://www.w3.org/1999/xlink">
<g id="graph0" class="graph" transform="scale(1 1) rotate(0) translate(4 39)">
<title>a60::to_string</title>
<!-- Node1 -->
<g id="node1" class="node">
<title>Node1</title>
<g id="a_node1"><a xlink:title="String conversion.">
<polygon fill="#999999" stroke="#666666" points="74,-17 0,-17 0,0 74,0 74,-17"/>
<text text-anchor="middle" x="37" y="-6.6" font-family="SourceSans" font-size="8.00">a60::to_string</text>
</a>
</g>
</g>
<!-- Node2 -->
<g id="node2" class="node">
<title>Node2</title>
<g id="a_node2"><a xlink:href="namespacea60.html#a4e8b0cabed112734147b499bf0cc9029" target="_top" xlink:title="Conversion of resolution_mode to string.">
<polygon fill="white" stroke="#666666" points="184,-17 110,-17 110,0 184,0 184,-17"/>
<text text-anchor="middle" x="147" y="-6.6" font-family="SourceSans" font-size="8.00">a60::to_string</text>
</a>
</g>
</g>
<!-- Node1&#45;&gt;Node2 -->
<g id="edge1" class="edge">
<title>Node1&#45;&gt;Node2</title>
<path fill="none" stroke="#63b8ff" d="M74.26,-8.5C82.37,-8.5 91.07,-8.5 99.52,-8.5"/>
<polygon fill="#63b8ff" stroke="#63b8ff" points="99.65,-12 109.65,-8.5 99.65,-5 99.65,-12"/>
</g>
<!-- Node2&#45;&gt;Node2 -->
<g id="edge2" class="edge">
<title>Node2&#45;&gt;Node2</title>
<path fill="none" stroke="#63b8ff" d="M130.61,-17.19C121.56,-25.67 127.02,-35 147,-35 159.49,-35 166.3,-31.36 167.45,-26.55"/>
<polygon fill="#63b8ff" stroke="#63b8ff" points="170.58,-24.97 163.39,-17.19 164.16,-27.75 170.58,-24.97"/>
</g>
</g>
</svg>
