<?xml version="1.0" encoding="UTF-8" standalone="no"?>
<!DOCTYPE svg PUBLIC "-//W3C//DTD SVG 1.1//EN"
 "http://www.w3.org/Graphics/SVG/1.1/DTD/svg11.dtd">
<!-- Generated by graphviz version 5.0.0 (0)
 -->
<!-- Title: a60::geo::map_alpha_3_code_to_country_name Pages: 1 -->
<svg width="443pt" height="230pt"
 viewBox="0.00 0.00 443.00 229.50" xmlns="http://www.w3.org/2000/svg" xmlns:xlink="http://www.w3.org/1999/xlink">
<g id="graph0" class="graph" transform="scale(1 1) rotate(0) translate(4 225.5)">
<title>a60::geo::map_alpha_3_code_to_country_name</title>
<!-- Node1 -->
<g id="node1" class="node">
<title>Node1</title>
<g id="a_node1"><a xlink:title=" ">
<polygon fill="#999999" stroke="#666666" points="123,-121.5 0,-121.5 0,-95.5 123,-95.5 123,-121.5"/>
<text text-anchor="start" x="8" y="-111.1" font-family="SourceSans" font-size="8.00">a60::geo::map_alpha</text>
<text text-anchor="middle" x="61.5" y="-102.1" font-family="SourceSans" font-size="8.00">_3_code_to_country_name</text>
</a>
</g>
</g>
<!-- Node2 -->
<g id="node2" class="node">
<title>Node2</title>
<g id="a_node2"><a xlink:href="namespacea60_1_1geo.html#a3592e801fc5730fc27bab32d194a7a5b" target="_top" xlink:title="Forward declaration for function in a60&#45;json.h.">
<polygon fill="white" stroke="#666666" points="280,-121.5 159,-121.5 159,-95.5 280,-95.5 280,-121.5"/>
<text text-anchor="start" x="167" y="-111.1" font-family="SourceSans" font-size="8.00">a60::geo::deserialize</text>
<text text-anchor="middle" x="219.5" y="-102.1" font-family="SourceSans" font-size="8.00">_json_to_iso_3166_3_map</text>
</a>
</g>
</g>
<!-- Node1&#45;&gt;Node2 -->
<g id="edge1" class="edge">
<title>Node1&#45;&gt;Node2</title>
<path fill="none" stroke="#63b8ff" d="M123.26,-108.5C131.59,-108.5 140.2,-108.5 148.68,-108.5"/>
<polygon fill="#63b8ff" stroke="#63b8ff" points="148.93,-112 158.93,-108.5 148.93,-105 148.93,-112"/>
</g>
<!-- Node3 -->
<g id="node3" class="node">
<title>Node3</title>
<g id="a_node3"><a xlink:href="namespacea60.html#a538d43bb9bfa488a54cea929736dbe2d" target="_top" xlink:title="Deserialize input file.">
<polygon fill="white" stroke="#666666" points="427.5,-221.5 323.5,-221.5 323.5,-195.5 427.5,-195.5 427.5,-221.5"/>
<text text-anchor="start" x="331.5" y="-211.1" font-family="SourceSans" font-size="8.00">a60::deserialize_json</text>
<text text-anchor="middle" x="375.5" y="-202.1" font-family="SourceSans" font-size="8.00">_to_dom</text>
</a>
</g>
</g>
<!-- Node2&#45;&gt;Node3 -->
<g id="edge2" class="edge">
<title>Node2&#45;&gt;Node3</title>
<path fill="none" stroke="#63b8ff" d="M233.68,-121.66C251.2,-138.56 283.72,-167.92 316,-186.5 318.87,-188.15 321.88,-189.72 324.97,-191.21"/>
<polygon fill="#63b8ff" stroke="#63b8ff" points="323.81,-194.52 334.37,-195.4 326.66,-188.13 323.81,-194.52"/>
</g>
<!-- Node4 -->
<g id="node4" class="node">
<title>Node4</title>
<g id="a_node4"><a xlink:href="namespacea60_1_1io.html#a16f17ea9e02c1975ca17b77e46cf7629" target="_top" xlink:title="Make sure a path ends in &#39;/&#39;;.">
<polygon fill="white" stroke="#666666" points="420.5,-177 330.5,-177 330.5,-160 420.5,-160 420.5,-177"/>
<text text-anchor="middle" x="375.5" y="-166.6" font-family="SourceSans" font-size="8.00">a60::io::end_path</text>
</a>
</g>
</g>
<!-- Node2&#45;&gt;Node4 -->
<g id="edge3" class="edge">
<title>Node2&#45;&gt;Node4</title>
<path fill="none" stroke="#63b8ff" d="M248.15,-121.68C267.03,-130.42 292.75,-141.84 316,-150.5 321.95,-152.71 328.3,-154.87 334.55,-156.89"/>
<polygon fill="#63b8ff" stroke="#63b8ff" points="333.63,-160.26 344.21,-159.91 335.72,-153.58 333.63,-160.26"/>
</g>
<!-- Node5 -->
<g id="node5" class="node">
<title>Node5</title>
<g id="a_node5"><a xlink:href="namespacea60_1_1io.html#ac95e5271a27a23bc2336d84b3f821fa2" target="_top" xlink:title="Constant filesystem and run&#45;time resources.">
<polygon fill="white" stroke="#666666" points="427.5,-141.5 323.5,-141.5 323.5,-115.5 427.5,-115.5 427.5,-141.5"/>
<text text-anchor="start" x="331.5" y="-131.1" font-family="SourceSans" font-size="8.00">a60::io::get_run_time</text>
<text text-anchor="middle" x="375.5" y="-122.1" font-family="SourceSans" font-size="8.00">_resources</text>
</a>
</g>
</g>
<!-- Node2&#45;&gt;Node5 -->
<g id="edge4" class="edge">
<title>Node2&#45;&gt;Node5</title>
<path fill="none" stroke="#63b8ff" d="M280.04,-116.23C290.82,-117.63 302.07,-119.09 312.91,-120.5"/>
<polygon fill="#63b8ff" stroke="#63b8ff" points="312.77,-124.01 323.13,-121.83 313.67,-117.07 312.77,-124.01"/>
</g>
<!-- Node6 -->
<g id="node6" class="node">
<title>Node6</title>
<g id="a_node6"><a xlink:href="namespacea60.html#a0fc88c5c87f54b303a1856bc2aa76a45" target="_top" xlink:title=" ">
<polygon fill="white" stroke="#666666" points="432.5,-97 318.5,-97 318.5,-80 432.5,-80 432.5,-97"/>
<text text-anchor="middle" x="375.5" y="-86.6" font-family="SourceSans" font-size="8.00">a60::insert_to_iso_3166</text>
</a>
</g>
</g>
<!-- Node2&#45;&gt;Node6 -->
<g id="edge5" class="edge">
<title>Node2&#45;&gt;Node6</title>
<path fill="none" stroke="#63b8ff" d="M280.04,-100.77C289.3,-99.56 298.92,-98.32 308.32,-97.1"/>
<polygon fill="#63b8ff" stroke="#63b8ff" points="308.94,-100.54 318.4,-95.79 308.03,-93.6 308.94,-100.54"/>
</g>
<!-- Node7 -->
<g id="node7" class="node">
<title>Node7</title>
<g id="a_node7"><a xlink:href="namespacea60_1_1io.html#aa5fbb8ab63397dd45c4a54c0758935ef" target="_top" xlink:title="Sanity check input existence.">
<polygon fill="white" stroke="#666666" points="427.5,-61.5 323.5,-61.5 323.5,-35.5 427.5,-35.5 427.5,-61.5"/>
<text text-anchor="start" x="331.5" y="-51.1" font-family="SourceSans" font-size="8.00">a60::io::sanity_check</text>
<text text-anchor="middle" x="375.5" y="-42.1" font-family="SourceSans" font-size="8.00">_input</text>
</a>
</g>
</g>
<!-- Node2&#45;&gt;Node7 -->
<g id="edge6" class="edge">
<title>Node2&#45;&gt;Node7</title>
<path fill="none" stroke="#63b8ff" d="M253.92,-95.48C276.64,-86.63 306.92,-74.83 331.45,-65.27"/>
<polygon fill="#63b8ff" stroke="#63b8ff" points="332.84,-68.49 340.88,-61.6 330.3,-61.97 332.84,-68.49"/>
</g>
<!-- Node8 -->
<g id="node8" class="node">
<title>Node8</title>
<g id="a_node8"><a xlink:href="namespacea60.html#ac7eddb2e330d8983ddc852edde5335c5" target="_top" xlink:title=" ">
<polygon fill="white" stroke="#666666" points="435,-17 316,-17 316,0 435,0 435,-17"/>
<text text-anchor="middle" x="375.5" y="-6.6" font-family="SourceSans" font-size="8.00">a60::to_lowercase_string</text>
</a>
</g>
</g>
<!-- Node2&#45;&gt;Node8 -->
<g id="edge7" class="edge">
<title>Node2&#45;&gt;Node8</title>
<path fill="none" stroke="#63b8ff" d="M232.49,-95.23C249.44,-77.23 282.13,-45.18 316,-26.5 319.98,-24.3 324.26,-22.34 328.64,-20.59"/>
<polygon fill="#63b8ff" stroke="#63b8ff" points="330.07,-23.8 338.28,-17.1 327.68,-17.21 330.07,-23.8"/>
</g>
</g>
</svg>
