<?xml version="1.0" encoding="UTF-8" standalone="no"?>
<!DOCTYPE svg PUBLIC "-//W3C//DTD SVG 1.1//EN"
 "http://www.w3.org/Graphics/SVG/1.1/DTD/svg11.dtd">
<!-- Generated by graphviz version 5.0.0 (0)
 -->
<!-- Title: a60::augment_peer_location Pages: 1 -->
<svg width="456pt" height="149pt"
 viewBox="0.00 0.00 456.00 148.50" xmlns="http://www.w3.org/2000/svg" xmlns:xlink="http://www.w3.org/1999/xlink">
<g id="graph0" class="graph" transform="scale(1 1) rotate(0) translate(4 144.5)">
<title>a60::augment_peer_location</title>
<!-- Node1 -->
<g id="node1" class="node">
<title>Node1</title>
<g id="a_node1"><a xlink:title=" ">
<polygon fill="#999999" stroke="#666666" points="134,-85.5 0,-85.5 0,-68.5 134,-68.5 134,-85.5"/>
<text text-anchor="middle" x="67" y="-75.1" font-family="SourceSans" font-size="8.00">a60::augment_peer_location</text>
</a>
</g>
</g>
<!-- Node2 -->
<g id="node2" class="node">
<title>Node2</title>
<g id="a_node2"><a xlink:href="namespacea60.html#a935512b7346e03fbd98295ec07511666" target="_top" xlink:title=" ">
<polygon fill="white" stroke="#666666" points="286,-140.5 170,-140.5 170,-123.5 286,-123.5 286,-140.5"/>
<text text-anchor="middle" x="228" y="-130.1" font-family="SourceSans" font-size="8.00">a60::augment_peer_text</text>
</a>
</g>
</g>
<!-- Node1&#45;&gt;Node2 -->
<g id="edge1" class="edge">
<title>Node1&#45;&gt;Node2</title>
<path fill="none" stroke="#63b8ff" d="M89.74,-85.58C110.29,-93.57 142.05,-105.64 170,-115 175.58,-116.87 181.51,-118.75 187.34,-120.54"/>
<polygon fill="#63b8ff" stroke="#63b8ff" points="186.42,-123.92 197,-123.46 188.44,-117.22 186.42,-123.92"/>
</g>
<!-- Node3 -->
<g id="node3" class="node">
<title>Node3</title>
<g id="a_node3"><a xlink:href="namespacea60.html#a67a216731ae229be675dbcbfa228d865" target="_top" xlink:title=" ">
<polygon fill="white" stroke="#666666" points="278.5,-105.5 177.5,-105.5 177.5,-88.5 278.5,-88.5 278.5,-105.5"/>
<text text-anchor="middle" x="228" y="-95.1" font-family="SourceSans" font-size="8.00">a60::convert_to_utf8</text>
</a>
</g>
</g>
<!-- Node1&#45;&gt;Node3 -->
<g id="edge2" class="edge">
<title>Node1&#45;&gt;Node3</title>
<path fill="none" stroke="#63b8ff" d="M134.05,-85.31C145.04,-86.69 156.39,-88.12 167.21,-89.48"/>
<polygon fill="#63b8ff" stroke="#63b8ff" points="167.04,-92.99 177.4,-90.76 167.92,-86.04 167.04,-92.99"/>
</g>
<!-- Node5 -->
<g id="node5" class="node">
<title>Node5</title>
<g id="a_node5"><a xlink:href="namespacea60_1_1geo.html#ac883e224021a4d5d0ac4c2d307f4808a" target="_top" xlink:title="Error checking for common anomalies.">
<polygon fill="white" stroke="#666666" points="278,-70 178,-70 178,-44 278,-44 278,-70"/>
<text text-anchor="start" x="186" y="-59.6" font-family="SourceSans" font-size="8.00">a60::geo::is_on_null</text>
<text text-anchor="middle" x="228" y="-50.6" font-family="SourceSans" font-size="8.00">_island</text>
</a>
</g>
</g>
<!-- Node1&#45;&gt;Node5 -->
<g id="edge4" class="edge">
<title>Node1&#45;&gt;Node5</title>
<path fill="none" stroke="#63b8ff" d="M134.05,-68.69C145.28,-67.28 156.89,-65.82 167.93,-64.43"/>
<polygon fill="#63b8ff" stroke="#63b8ff" points="168.4,-67.9 177.89,-63.18 167.53,-60.95 168.4,-67.9"/>
</g>
<!-- Node6 -->
<g id="node6" class="node">
<title>Node6</title>
<g id="a_node6"><a xlink:href="structa60_1_1carto_1_1cartography.html#a57e14cabb4993189316e369a27752a73" target="_top" xlink:title=" ">
<polygon fill="white" stroke="#666666" points="285.5,-26 170.5,-26 170.5,0 285.5,0 285.5,-26"/>
<text text-anchor="start" x="178.5" y="-15.6" font-family="SourceSans" font-size="8.00">a60::carto::cartography</text>
<text text-anchor="middle" x="228" y="-6.6" font-family="SourceSans" font-size="8.00">::to_point_2d</text>
</a>
</g>
</g>
<!-- Node1&#45;&gt;Node6 -->
<g id="edge5" class="edge">
<title>Node1&#45;&gt;Node6</title>
<path fill="none" stroke="#63b8ff" d="M88.27,-68.5C108.81,-59.92 141.54,-46.35 170,-35 174.39,-33.25 178.97,-31.44 183.56,-29.65"/>
<polygon fill="#63b8ff" stroke="#63b8ff" points="184.84,-32.91 192.89,-26.02 182.3,-26.38 184.84,-32.91"/>
</g>
<!-- Node4 -->
<g id="node4" class="node">
<title>Node4</title>
<g id="a_node4"><a xlink:href="namespacea60.html#a1c4e23f164dec11b9fee53e2292af224" target="_top" xlink:title="Convert MaxMind GeoIP information from ISO&#45;8859&#45;1 encoding to UTF&#45;8.">
<polygon fill="white" stroke="#666666" points="448,-105.5 322,-105.5 322,-88.5 448,-88.5 448,-105.5"/>
<text text-anchor="middle" x="385" y="-95.1" font-family="SourceSans" font-size="8.00">a60::convert_8859_to_utf8</text>
</a>
</g>
</g>
<!-- Node3&#45;&gt;Node4 -->
<g id="edge3" class="edge">
<title>Node3&#45;&gt;Node4</title>
<path fill="none" stroke="#63b8ff" d="M278.9,-97C289.4,-97 300.68,-97 311.81,-97"/>
<polygon fill="#63b8ff" stroke="#63b8ff" points="311.97,-100.5 321.97,-97 311.97,-93.5 311.97,-100.5"/>
</g>
</g>
</svg>
