<?xml version="1.0" encoding="UTF-8" standalone="no"?>
<!DOCTYPE svg PUBLIC "-//W3C//DTD SVG 1.1//EN"
 "http://www.w3.org/Graphics/SVG/1.1/DTD/svg11.dtd">
<!-- Generated by graphviz version 5.0.0 (0)
 -->
<!-- Title: a60::usunique_peers Pages: 1 -->
<svg width="398pt" height="211pt"
 viewBox="0.00 0.00 398.00 211.00" xmlns="http://www.w3.org/2000/svg" xmlns:xlink="http://www.w3.org/1999/xlink">
<g id="graph0" class="graph" transform="scale(1 1) rotate(0) translate(4 207)">
<title>a60::usunique_peers</title>
<!-- Node1 -->
<g id="node1" class="node">
<title>Node1</title>
<g id="a_node1"><a xlink:title="Accumulate peers all files in all subdirectories of dir matching dirm. Where all files matching filem...">
<polygon fill="#999999" stroke="#666666" points="104,-123.5 0,-123.5 0,-106.5 104,-106.5 104,-123.5"/>
<text text-anchor="middle" x="52" y="-113.1" font-family="SourceSans" font-size="8.00">a60::usunique_peers</text>
</a>
</g>
</g>
<!-- Node2 -->
<g id="node2" class="node">
<title>Node2</title>
<g id="a_node2"><a xlink:href="namespacea60.html#af45982273a7a2e61b6aaa436081238c0" target="_top" xlink:title="Load JSON file to in&#45;memory DOM.">
<polygon fill="white" stroke="#666666" points="247,-203 143,-203 143,-177 247,-177 247,-203"/>
<text text-anchor="start" x="151" y="-192.6" font-family="SourceSans" font-size="8.00">a60::deserialize_json</text>
<text text-anchor="middle" x="195" y="-183.6" font-family="SourceSans" font-size="8.00">_to_dom_object</text>
</a>
</g>
</g>
<!-- Node1&#45;&gt;Node2 -->
<g id="edge1" class="edge">
<title>Node1&#45;&gt;Node2</title>
<path fill="none" stroke="#63b8ff" d="M65.6,-123.57C82.2,-134.64 112.52,-154.14 140,-168 143.31,-169.67 146.79,-171.31 150.3,-172.9"/>
<polygon fill="#63b8ff" stroke="#63b8ff" points="149.07,-176.19 159.64,-176.97 151.87,-169.77 149.07,-176.19"/>
</g>
<!-- Node4 -->
<g id="node4" class="node">
<title>Node4</title>
<g id="a_node4"><a xlink:href="namespacea60.html#aa900ae641408375a5d008580bab781df" target="_top" xlink:title="Input as: /home/bkoz/src/alpha60&#45;data/game&#45;of&#45;thrones&#45;703/2017&#45;07&#45;31&#45;at&#45;22&#45;30 Output as: 2017.">
<polygon fill="white" stroke="#666666" points="249,-158.5 141,-158.5 141,-141.5 249,-141.5 249,-158.5"/>
<text text-anchor="middle" x="195" y="-148.1" font-family="SourceSans" font-size="8.00">a60::find_unique_year</text>
</a>
</g>
</g>
<!-- Node1&#45;&gt;Node4 -->
<g id="edge3" class="edge">
<title>Node1&#45;&gt;Node4</title>
<path fill="none" stroke="#63b8ff" d="M87.49,-123.56C106.18,-128.2 129.49,-133.99 149.53,-138.96"/>
<polygon fill="#63b8ff" stroke="#63b8ff" points="148.83,-142.39 159.37,-141.41 150.51,-135.6 148.83,-142.39"/>
</g>
<!-- Node5 -->
<g id="node5" class="node">
<title>Node5</title>
<g id="a_node5"><a xlink:href="namespacea60_1_1io.html#aea30b8fc474f5a7b922516dc1e199037" target="_top" xlink:title="Takes a string representing a directory, returns a sorted list of contents as a std::vector&lt;string&gt;.">
<polygon fill="white" stroke="#666666" points="250,-123.5 140,-123.5 140,-106.5 250,-106.5 250,-123.5"/>
<text text-anchor="middle" x="195" y="-113.1" font-family="SourceSans" font-size="8.00">a60::io::populate_files</text>
</a>
</g>
</g>
<!-- Node1&#45;&gt;Node5 -->
<g id="edge4" class="edge">
<title>Node1&#45;&gt;Node5</title>
<path fill="none" stroke="#63b8ff" d="M104.3,-115C112.48,-115 121.02,-115 129.45,-115"/>
<polygon fill="#63b8ff" stroke="#63b8ff" points="129.65,-118.5 139.65,-115 129.65,-111.5 129.65,-118.5"/>
</g>
<!-- Node6 -->
<g id="node6" class="node">
<title>Node6</title>
<g id="a_node6"><a xlink:href="namespacea60_1_1io.html#afbc9bd4e46187119419128390e16a033" target="_top" xlink:title="Takes a string representing a directory, returns a list of contents as a std::vector&lt;string&gt;.">
<polygon fill="white" stroke="#666666" points="248.5,-70 141.5,-70 141.5,-44 248.5,-44 248.5,-70"/>
<text text-anchor="start" x="149.5" y="-59.6" font-family="SourceSans" font-size="8.00">a60::io::populate_sub</text>
<text text-anchor="middle" x="195" y="-50.6" font-family="SourceSans" font-size="8.00">_directories</text>
</a>
</g>
</g>
<!-- Node1&#45;&gt;Node6 -->
<g id="edge5" class="edge">
<title>Node1&#45;&gt;Node6</title>
<path fill="none" stroke="#63b8ff" d="M73.81,-106.44C94.45,-97.95 126.68,-84.69 152.56,-74.04"/>
<polygon fill="#63b8ff" stroke="#63b8ff" points="154.22,-77.15 162.14,-70.11 151.56,-70.67 154.22,-77.15"/>
</g>
<!-- Node7 -->
<g id="node7" class="node">
<title>Node7</title>
<g id="a_node7"><a xlink:href="namespacea60.html#a6ce8704ec3c4d5e258d062283dd40efb" target="_top" xlink:title="Search DOM for meta_peer(s).">
<polygon fill="white" stroke="#666666" points="246.5,-26 143.5,-26 143.5,0 246.5,0 246.5,-26"/>
<text text-anchor="start" x="151.5" y="-15.6" font-family="SourceSans" font-size="8.00">a60::search_dom_for</text>
<text text-anchor="middle" x="195" y="-6.6" font-family="SourceSans" font-size="8.00">_meta_peers</text>
</a>
</g>
</g>
<!-- Node1&#45;&gt;Node7 -->
<g id="edge7" class="edge">
<title>Node1&#45;&gt;Node7</title>
<path fill="none" stroke="#63b8ff" d="M60.36,-106.46C74.43,-90.55 106.73,-56.1 140,-35 142.44,-33.45 145.02,-31.97 147.66,-30.57"/>
<polygon fill="#63b8ff" stroke="#63b8ff" points="149.37,-33.63 156.81,-26.09 146.29,-27.34 149.37,-33.63"/>
</g>
<!-- Node3 -->
<g id="node3" class="node">
<title>Node3</title>
<g id="a_node3"><a xlink:href="namespacea60.html#a538d43bb9bfa488a54cea929736dbe2d" target="_top" xlink:title="Deserialize input file.">
<polygon fill="white" stroke="#666666" points="390,-203 286,-203 286,-177 390,-177 390,-203"/>
<text text-anchor="start" x="294" y="-192.6" font-family="SourceSans" font-size="8.00">a60::deserialize_json</text>
<text text-anchor="middle" x="338" y="-183.6" font-family="SourceSans" font-size="8.00">_to_dom</text>
</a>
</g>
</g>
<!-- Node2&#45;&gt;Node3 -->
<g id="edge2" class="edge">
<title>Node2&#45;&gt;Node3</title>
<path fill="none" stroke="#63b8ff" d="M247.3,-190C256.56,-190 266.28,-190 275.79,-190"/>
<polygon fill="#63b8ff" stroke="#63b8ff" points="275.97,-193.5 285.97,-190 275.97,-186.5 275.97,-193.5"/>
</g>
<!-- Node6&#45;&gt;Node6 -->
<g id="edge6" class="edge">
<title>Node6&#45;&gt;Node6</title>
<path fill="none" stroke="#63b8ff" d="M170.98,-70.06C163.69,-79.1 171.7,-88 195,-88 209.2,-88 217.72,-84.69 220.56,-80.07"/>
<polygon fill="#63b8ff" stroke="#63b8ff" points="224,-79.41 219.02,-70.06 217.08,-80.47 224,-79.41"/>
</g>
</g>
</svg>
