<?xml version="1.0" encoding="UTF-8" standalone="no"?>
<!DOCTYPE svg PUBLIC "-//W3C//DTD SVG 1.1//EN"
 "http://www.w3.org/Graphics/SVG/1.1/DTD/svg11.dtd">
<!-- Generated by graphviz version 5.0.0 (0)
 -->
<!-- Title: a60::augment_carto_exit_nodes Pages: 1 -->
<svg width="876pt" height="261pt"
 viewBox="0.00 0.00 876.00 260.50" xmlns="http://www.w3.org/2000/svg" xmlns:xlink="http://www.w3.org/1999/xlink">
<g id="graph0" class="graph" transform="scale(1 1) rotate(0) translate(4 256.5)">
<title>a60::augment_carto_exit_nodes</title>
<!-- Node1 -->
<g id="node1" class="node">
<title>Node1</title>
<g id="a_node1"><a xlink:title="Augment Tor Exit Nodes, object version. len starx 44x30 == 20.">
<polygon fill="#999999" stroke="#666666" points="100,-150 0,-150 0,-124 100,-124 100,-150"/>
<text text-anchor="start" x="8" y="-139.6" font-family="SourceSans" font-size="8.00">a60::augment_carto</text>
<text text-anchor="middle" x="50" y="-130.6" font-family="SourceSans" font-size="8.00">_exit_nodes</text>
</a>
</g>
</g>
<!-- Node2 -->
<g id="node2" class="node">
<title>Node2</title>
<g id="a_node2"><a xlink:href="namespacea60.html#ae300214a10d2da331791de0275d9df6c" target="_top" xlink:title=" ">
<polygon fill="white" stroke="#666666" points="252,-194 136,-194 136,-168 252,-168 252,-194"/>
<text text-anchor="start" x="144" y="-183.6" font-family="SourceSans" font-size="8.00">a60::augment_ray_meta</text>
<text text-anchor="middle" x="194" y="-174.6" font-family="SourceSans" font-size="8.00">_peers</text>
</a>
</g>
</g>
<!-- Node1&#45;&gt;Node2 -->
<g id="edge1" class="edge">
<title>Node1&#45;&gt;Node2</title>
<path fill="none" stroke="#63b8ff" d="M93.22,-150.08C108.25,-154.74 125.35,-160.04 141.1,-164.92"/>
<polygon fill="#63b8ff" stroke="#63b8ff" points="140.11,-168.28 150.7,-167.89 142.18,-161.59 140.11,-168.28"/>
</g>
<!-- Node5 -->
<g id="node5" class="node">
<title>Node5</title>
<g id="a_node5"><a xlink:href="namespacea60.html#a3c58a6378d57386252f6ec31d1fbb808" target="_top" xlink:title="Cache for whois calls.">
<polygon fill="white" stroke="#666666" points="248,-150 140,-150 140,-124 248,-124 248,-150"/>
<text text-anchor="start" x="148" y="-139.6" font-family="SourceSans" font-size="8.00">a60::cached_whois_to</text>
<text text-anchor="middle" x="194" y="-130.6" font-family="SourceSans" font-size="8.00">_meta_peer</text>
</a>
</g>
</g>
<!-- Node1&#45;&gt;Node5 -->
<g id="edge4" class="edge">
<title>Node1&#45;&gt;Node5</title>
<path fill="none" stroke="#63b8ff" d="M100.27,-137C109.78,-137 119.87,-137 129.75,-137"/>
<polygon fill="#63b8ff" stroke="#63b8ff" points="129.95,-140.5 139.95,-137 129.95,-133.5 129.95,-140.5"/>
</g>
<!-- Node15 -->
<g id="node15" class="node">
<title>Node15</title>
<g id="a_node15"><a xlink:href="namespacea60.html#a241f1edd5dab1f67b02a080b2833238c" target="_top" xlink:title="Create list of current Tor Exit Nodes.">
<polygon fill="white" stroke="#666666" points="245,-106 143,-106 143,-80 245,-80 245,-106"/>
<text text-anchor="start" x="151" y="-95.6" font-family="SourceSans" font-size="8.00">a60::exit_node_meta</text>
<text text-anchor="middle" x="194" y="-86.6" font-family="SourceSans" font-size="8.00">_peers</text>
</a>
</g>
</g>
<!-- Node1&#45;&gt;Node15 -->
<g id="edge14" class="edge">
<title>Node1&#45;&gt;Node15</title>
<path fill="none" stroke="#63b8ff" d="M93.22,-123.92C108.25,-119.26 125.35,-113.96 141.1,-109.08"/>
<polygon fill="#63b8ff" stroke="#63b8ff" points="142.18,-112.41 150.7,-106.11 140.11,-105.72 142.18,-112.41"/>
</g>
<!-- Node3 -->
<g id="node3" class="node">
<title>Node3</title>
<g id="a_node3"><a xlink:href="namespacea60.html#a63bf2b0abf68edc3f3e74a0811fe771b" target="_top" xlink:title="Error checking support. Null Island Check (aka latitude and longitude set to zero).">
<polygon fill="white" stroke="#666666" points="402.5,-236 295.5,-236 295.5,-210 402.5,-210 402.5,-236"/>
<text text-anchor="start" x="303.5" y="-225.6" font-family="SourceSans" font-size="8.00">a60::is_meta_peer_on</text>
<text text-anchor="middle" x="349" y="-216.6" font-family="SourceSans" font-size="8.00">_null_island</text>
</a>
</g>
</g>
<!-- Node2&#45;&gt;Node3 -->
<g id="edge2" class="edge">
<title>Node2&#45;&gt;Node3</title>
<path fill="none" stroke="#63b8ff" d="M242.57,-194.06C257.83,-198.25 274.88,-202.93 290.75,-207.29"/>
<polygon fill="#63b8ff" stroke="#63b8ff" points="289.89,-210.68 300.46,-209.95 291.74,-203.93 289.89,-210.68"/>
</g>
<!-- Node4 -->
<g id="node4" class="node">
<title>Node4</title>
<g id="a_node4"><a xlink:href="structa60_1_1carto_1_1cartography.html#a57e14cabb4993189316e369a27752a73" target="_top" xlink:title=" ">
<polygon fill="white" stroke="#666666" points="406.5,-192 291.5,-192 291.5,-166 406.5,-166 406.5,-192"/>
<text text-anchor="start" x="299.5" y="-181.6" font-family="SourceSans" font-size="8.00">a60::carto::cartography</text>
<text text-anchor="middle" x="349" y="-172.6" font-family="SourceSans" font-size="8.00">::to_point_2d</text>
</a>
</g>
</g>
<!-- Node2&#45;&gt;Node4 -->
<g id="edge3" class="edge">
<title>Node2&#45;&gt;Node4</title>
<path fill="none" stroke="#63b8ff" d="M252.41,-180.25C261.75,-180.13 271.49,-180 281.04,-179.88"/>
<polygon fill="#63b8ff" stroke="#63b8ff" points="281.33,-183.37 291.29,-179.74 281.24,-176.37 281.33,-183.37"/>
</g>
<!-- Node6 -->
<g id="node6" class="node">
<title>Node6</title>
<g id="a_node6"><a xlink:href="namespacea60.html#aa5a85040742ee6c68d51e0b91131eac9" target="_top" xlink:title="Use whois service to get more information about the netblock.">
<polygon fill="white" stroke="#666666" points="410,-145.5 288,-145.5 288,-128.5 410,-128.5 410,-145.5"/>
<text text-anchor="middle" x="349" y="-135.1" font-family="SourceSans" font-size="8.00">a60::whois_to_meta_peer</text>
</a>
</g>
</g>
<!-- Node5&#45;&gt;Node6 -->
<g id="edge5" class="edge">
<title>Node5&#45;&gt;Node6</title>
<path fill="none" stroke="#63b8ff" d="M248.08,-137C257.63,-137 267.71,-137 277.65,-137"/>
<polygon fill="#63b8ff" stroke="#63b8ff" points="277.94,-140.5 287.94,-137 277.94,-133.5 277.94,-140.5"/>
</g>
<!-- Node7 -->
<g id="node7" class="node">
<title>Node7</title>
<g id="a_node7"><a xlink:href="namespacea60_1_1geo.html#a5f9ec94084fb0de60a38f64865ae7de6" target="_top" xlink:title="Convert ISO 2 to ISO 3.">
<polygon fill="white" stroke="#666666" points="555.5,-188 451.5,-188 451.5,-162 555.5,-162 555.5,-188"/>
<text text-anchor="start" x="459.5" y="-177.6" font-family="SourceSans" font-size="8.00">a60::geo::alpha_2_to</text>
<text text-anchor="middle" x="503.5" y="-168.6" font-family="SourceSans" font-size="8.00">_alpha_3</text>
</a>
</g>
</g>
<!-- Node6&#45;&gt;Node7 -->
<g id="edge6" class="edge">
<title>Node6&#45;&gt;Node7</title>
<path fill="none" stroke="#63b8ff" d="M384.22,-145.53C401.13,-149.74 422.04,-154.95 441.55,-159.81"/>
<polygon fill="#63b8ff" stroke="#63b8ff" points="440.75,-163.22 451.3,-162.24 442.44,-156.43 440.75,-163.22"/>
</g>
<!-- Node14 -->
<g id="node14" class="node">
<title>Node14</title>
<g id="a_node14"><a xlink:href="namespacea60_1_1constants.html#a2fd5efb0c88809132a730787d05a080a" target="_top" xlink:title=" ">
<polygon fill="white" stroke="#666666" points="561,-143.5 446,-143.5 446,-126.5 561,-126.5 561,-143.5"/>
<text text-anchor="middle" x="503.5" y="-133.1" font-family="SourceSans" font-size="8.00">a60::constants::comma</text>
</a>
</g>
</g>
<!-- Node6&#45;&gt;Node14 -->
<g id="edge13" class="edge">
<title>Node6&#45;&gt;Node14</title>
<path fill="none" stroke="#63b8ff" d="M410.27,-136.21C418.56,-136.1 427.11,-135.99 435.51,-135.88"/>
<polygon fill="#63b8ff" stroke="#63b8ff" points="435.69,-139.38 445.65,-135.75 435.6,-132.38 435.69,-139.38"/>
</g>
<!-- Node8 -->
<g id="node8" class="node">
<title>Node8</title>
<g id="a_node8"><a xlink:href="namespacea60_1_1geo.html#aa72939682c5a6daa05ddeb6103fde043" target="_top" xlink:title="ISO&#45;2 to ISO&#45;3.">
<polygon fill="white" stroke="#666666" points="718,-188 597,-188 597,-162 718,-162 718,-188"/>
<text text-anchor="start" x="605" y="-177.6" font-family="SourceSans" font-size="8.00">a60::geo::deserialize</text>
<text text-anchor="middle" x="657.5" y="-168.6" font-family="SourceSans" font-size="8.00">_json_to_iso_3166_2_map</text>
</a>
</g>
</g>
<!-- Node7&#45;&gt;Node8 -->
<g id="edge7" class="edge">
<title>Node7&#45;&gt;Node8</title>
<path fill="none" stroke="#63b8ff" d="M555.54,-175C565.6,-175 576.32,-175 586.88,-175"/>
<polygon fill="#63b8ff" stroke="#63b8ff" points="586.92,-178.5 596.92,-175 586.92,-171.5 586.92,-178.5"/>
</g>
<!-- Node9 -->
<g id="node9" class="node">
<title>Node9</title>
<g id="a_node9"><a xlink:href="namespacea60.html#a538d43bb9bfa488a54cea929736dbe2d" target="_top" xlink:title="Deserialize input file.">
<polygon fill="white" stroke="#666666" points="863,-217 759,-217 759,-191 863,-191 863,-217"/>
<text text-anchor="start" x="767" y="-206.6" font-family="SourceSans" font-size="8.00">a60::deserialize_json</text>
<text text-anchor="middle" x="811" y="-197.6" font-family="SourceSans" font-size="8.00">_to_dom</text>
</a>
</g>
</g>
<!-- Node8&#45;&gt;Node9 -->
<g id="edge8" class="edge">
<title>Node8&#45;&gt;Node9</title>
<path fill="none" stroke="#63b8ff" d="M718.38,-186.46C728.43,-188.39 738.87,-190.38 748.94,-192.31"/>
<polygon fill="#63b8ff" stroke="#63b8ff" points="748.39,-195.77 758.87,-194.21 749.71,-188.9 748.39,-195.77"/>
</g>
<!-- Node10 -->
<g id="node10" class="node">
<title>Node10</title>
<g id="a_node10"><a xlink:href="namespacea60_1_1io.html#a16f17ea9e02c1975ca17b77e46cf7629" target="_top" xlink:title="Make sure a path ends in &#39;/&#39;;.">
<polygon fill="white" stroke="#666666" points="856,-252.5 766,-252.5 766,-235.5 856,-235.5 856,-252.5"/>
<text text-anchor="middle" x="811" y="-242.1" font-family="SourceSans" font-size="8.00">a60::io::end_path</text>
</a>
</g>
</g>
<!-- Node8&#45;&gt;Node10 -->
<g id="edge9" class="edge">
<title>Node8&#45;&gt;Node10</title>
<path fill="none" stroke="#63b8ff" d="M680.33,-188.11C699.34,-199.17 727.87,-214.93 754,-226 759.17,-228.19 764.71,-230.27 770.21,-232.19"/>
<polygon fill="#63b8ff" stroke="#63b8ff" points="769.4,-235.61 779.99,-235.45 771.61,-228.97 769.4,-235.61"/>
</g>
<!-- Node11 -->
<g id="node11" class="node">
<title>Node11</title>
<g id="a_node11"><a xlink:href="namespacea60_1_1io.html#ac95e5271a27a23bc2336d84b3f821fa2" target="_top" xlink:title="Constant filesystem and run&#45;time resources.">
<polygon fill="white" stroke="#666666" points="863,-137 759,-137 759,-111 863,-111 863,-137"/>
<text text-anchor="start" x="767" y="-126.6" font-family="SourceSans" font-size="8.00">a60::io::get_run_time</text>
<text text-anchor="middle" x="811" y="-117.6" font-family="SourceSans" font-size="8.00">_resources</text>
</a>
</g>
</g>
<!-- Node8&#45;&gt;Node11 -->
<g id="edge10" class="edge">
<title>Node8&#45;&gt;Node11</title>
<path fill="none" stroke="#63b8ff" d="M697.12,-162C716.72,-155.4 740.73,-147.32 761.56,-140.31"/>
<polygon fill="#63b8ff" stroke="#63b8ff" points="762.82,-143.57 771.19,-137.07 760.59,-136.94 762.82,-143.57"/>
</g>
<!-- Node12 -->
<g id="node12" class="node">
<title>Node12</title>
<g id="a_node12"><a xlink:href="namespacea60.html#a0fc88c5c87f54b303a1856bc2aa76a45" target="_top" xlink:title=" ">
<polygon fill="white" stroke="#666666" points="868,-172.5 754,-172.5 754,-155.5 868,-155.5 868,-172.5"/>
<text text-anchor="middle" x="811" y="-162.1" font-family="SourceSans" font-size="8.00">a60::insert_to_iso_3166</text>
</a>
</g>
</g>
<!-- Node8&#45;&gt;Node12 -->
<g id="edge11" class="edge">
<title>Node8&#45;&gt;Node12</title>
<path fill="none" stroke="#63b8ff" d="M718.38,-170.65C726.61,-170.05 735.1,-169.44 743.45,-168.83"/>
<polygon fill="#63b8ff" stroke="#63b8ff" points="743.8,-172.32 753.52,-168.1 743.29,-165.33 743.8,-172.32"/>
</g>
<!-- Node13 -->
<g id="node13" class="node">
<title>Node13</title>
<g id="a_node13"><a xlink:href="namespacea60_1_1io.html#aa5fbb8ab63397dd45c4a54c0758935ef" target="_top" xlink:title="Sanity check input existence.">
<polygon fill="white" stroke="#666666" points="863,-74 759,-74 759,-48 863,-48 863,-74"/>
<text text-anchor="start" x="767" y="-63.6" font-family="SourceSans" font-size="8.00">a60::io::sanity_check</text>
<text text-anchor="middle" x="811" y="-54.6" font-family="SourceSans" font-size="8.00">_input</text>
</a>
</g>
</g>
<!-- Node8&#45;&gt;Node13 -->
<g id="edge12" class="edge">
<title>Node8&#45;&gt;Node13</title>
<path fill="none" stroke="#63b8ff" d="M675.33,-161.97C694.34,-147.29 726.26,-122.75 754,-102 763.68,-94.76 774.37,-86.9 783.79,-80.02"/>
<polygon fill="#63b8ff" stroke="#63b8ff" points="786,-82.73 792.02,-74.02 781.88,-77.08 786,-82.73"/>
</g>
<!-- Node16 -->
<g id="node16" class="node">
<title>Node16</title>
<g id="a_node16"><a xlink:href="namespacea60.html#a55d7f8d5aa523f5270d478a635ee03b4" target="_top" xlink:title="Survey current tor exit nodes and convert into meta_peers. Assume input list is sorted low to high,...">
<polygon fill="white" stroke="#666666" points="555,-106 452,-106 452,-80 555,-80 555,-106"/>
<text text-anchor="start" x="460" y="-95.6" font-family="SourceSans" font-size="8.00">a60::make_exit_node</text>
<text text-anchor="middle" x="503.5" y="-86.6" font-family="SourceSans" font-size="8.00">_meta_peers</text>
</a>
</g>
</g>
<!-- Node15&#45;&gt;Node16 -->
<g id="edge15" class="edge">
<title>Node15&#45;&gt;Node16</title>
<path fill="none" stroke="#63b8ff" d="M245.09,-93C298.87,-93 384.33,-93 441.87,-93"/>
<polygon fill="#63b8ff" stroke="#63b8ff" points="441.92,-96.5 451.92,-93 441.92,-89.5 441.92,-96.5"/>
</g>
<!-- Node16&#45;&gt;Node10 -->
<g id="edge16" class="edge">
<title>Node16&#45;&gt;Node10</title>
<path fill="none" stroke="#63b8ff" d="M545.69,-106.1C551.27,-109.08 556.58,-112.68 561,-117 588.86,-144.28 566.75,-172.41 597,-197 641.8,-233.42 708.79,-243.13 755.65,-245.03"/>
<polygon fill="#63b8ff" stroke="#63b8ff" points="755.82,-248.53 765.92,-245.33 756.02,-241.54 755.82,-248.53"/>
</g>
<!-- Node16&#45;&gt;Node11 -->
<g id="edge17" class="edge">
<title>Node16&#45;&gt;Node11</title>
<path fill="none" stroke="#63b8ff" d="M551.7,-106.06C566.13,-109.56 582.12,-112.94 597,-115 647.8,-122.05 706.02,-124.1 748.73,-124.51"/>
<polygon fill="#63b8ff" stroke="#63b8ff" points="748.95,-128.01 758.97,-124.57 748.99,-121.01 748.95,-128.01"/>
</g>
<!-- Node17 -->
<g id="node17" class="node">
<title>Node17</title>
<g id="a_node17"><a xlink:href="namespacea60.html#a439bb950e8e56f95462cb70ab0bab2f0" target="_top" xlink:title="Pruned line of text that starts with an IP4 address.">
<polygon fill="white" stroke="#666666" points="714,-106 601,-106 601,-80 714,-80 714,-106"/>
<text text-anchor="start" x="609" y="-95.6" font-family="SourceSans" font-size="8.00">a60::line_to_ip_address</text>
<text text-anchor="middle" x="657.5" y="-86.6" font-family="SourceSans" font-size="8.00">_as_string</text>
</a>
</g>
</g>
<!-- Node16&#45;&gt;Node17 -->
<g id="edge18" class="edge">
<title>Node16&#45;&gt;Node17</title>
<path fill="none" stroke="#63b8ff" d="M555.11,-93C566.47,-93 578.68,-93 590.55,-93"/>
<polygon fill="#63b8ff" stroke="#63b8ff" points="590.88,-96.5 600.87,-93 590.87,-89.5 590.88,-96.5"/>
</g>
<!-- Node18 -->
<g id="node18" class="node">
<title>Node18</title>
<g id="a_node18"><a xlink:href="namespacea60.html#ad300edc3a7396b9f52a64f37e9443891" target="_top" xlink:title="No GeoIP.">
<polygon fill="white" stroke="#666666" points="711,-61.5 604,-61.5 604,-44.5 711,-44.5 711,-61.5"/>
<text text-anchor="middle" x="657.5" y="-51.1" font-family="SourceSans" font-size="8.00">a60::make_meta_peer</text>
</a>
</g>
</g>
<!-- Node16&#45;&gt;Node18 -->
<g id="edge19" class="edge">
<title>Node16&#45;&gt;Node18</title>
<path fill="none" stroke="#63b8ff" d="M554.27,-79.9C573.56,-74.83 595.41,-69.08 613.95,-64.2"/>
<polygon fill="#63b8ff" stroke="#63b8ff" points="615.09,-67.52 623.87,-61.59 613.31,-60.75 615.09,-67.52"/>
</g>
<!-- Node19 -->
<g id="node19" class="node">
<title>Node19</title>
<g id="a_node19"><a xlink:href="structa60_1_1geo_1_1map__base.html#a9215731f10e2fa8488b0e081c2a5cef4" target="_top" xlink:title=" ">
<polygon fill="white" stroke="#666666" points="708.5,-26 606.5,-26 606.5,0 708.5,0 708.5,-26"/>
<text text-anchor="start" x="614.5" y="-15.6" font-family="SourceSans" font-size="8.00">a60::geo::map_base</text>
<text text-anchor="middle" x="657.5" y="-6.6" font-family="SourceSans" font-size="8.00">::open</text>
</a>
</g>
</g>
<!-- Node16&#45;&gt;Node19 -->
<g id="edge20" class="edge">
<title>Node16&#45;&gt;Node19</title>
<path fill="none" stroke="#63b8ff" d="M522.97,-79.82C541.19,-67.21 570.13,-48.22 597,-35 600.57,-33.25 604.31,-31.55 608.11,-29.93"/>
<polygon fill="#63b8ff" stroke="#63b8ff" points="609.66,-33.08 617.6,-26.07 607.02,-26.59 609.66,-33.08"/>
</g>
<!-- Node19&#45;&gt;Node13 -->
<g id="edge21" class="edge">
<title>Node19&#45;&gt;Node13</title>
<path fill="none" stroke="#63b8ff" d="M699.9,-26.12C718.26,-31.93 740.04,-38.83 759.36,-44.96"/>
<polygon fill="#63b8ff" stroke="#63b8ff" points="758.32,-48.3 768.91,-47.98 760.44,-41.63 758.32,-48.3"/>
</g>
</g>
</svg>
