<?xml version="1.0" encoding="UTF-8" standalone="no"?>
<!DOCTYPE svg PUBLIC "-//W3C//DTD SVG 1.1//EN"
 "http://www.w3.org/Graphics/SVG/1.1/DTD/svg11.dtd">
<!-- Generated by graphviz version 5.0.0 (0)
 -->
<!-- Title: a60::get_swarm_gcache_matching Pages: 1 -->
<!--zoomable 427 -->
<svg id="main" version="1.1" xmlns="http://www.w3.org/2000/svg" xmlns:xlink="http://www.w3.org/1999/xlink" xml:space="preserve" onload="init(evt)">
<style type="text/css"><![CDATA[
.edge:hover path { stroke: red; }
.edge:hover polygon { stroke: red; fill: red; }
]]></style>
<script type="text/javascript"><![CDATA[
var edges = document.getElementsByTagName('g');
if (edges && edges.length) {
  for (var i=0;i<edges.length;i++) {
    if (edges[i].id.substr(0,4)=='edge') {
      edges[i].setAttribute('class','edge');
    }
  }
}
]]></script>
        <defs>
                <circle id="rim" cx="0" cy="0" r="7"/>
                <circle id="rim2" cx="0" cy="0" r="3.5"/>
                <g id="zoomPlus">
                        <use xlink:href="#rim" fill="#404040">
                                <set attributeName="fill" to="#808080" begin="zoomplus.mouseover" end="zoomplus.mouseout"/>
                        </use>
                        <path d="M-4,0h8M0,-4v8" fill="none" stroke="white" stroke-width="1.5" pointer-events="none"/>
                </g>
                <g id="zoomMin">
                        <use xlink:href="#rim" fill="#404040">
                                <set attributeName="fill" to="#808080" begin="zoomminus.mouseover" end="zoomminus.mouseout"/>
                        </use>
                        <path d="M-4,0h8" fill="none" stroke="white" stroke-width="1.5" pointer-events="none"/>
                </g>
                <g id="dirArrow">
                        <path fill="none" stroke="white" stroke-width="1.5" d="M0,-3.0v7 M-2.5,-0.5L0,-3.0L2.5,-0.5"/>
                </g>
               <g id="resetDef">
                       <use xlink:href="#rim2" fill="#404040">
                               <set attributeName="fill" to="#808080" begin="reset.mouseover" end="reset.mouseout"/>
                       </use>
               </g>
        </defs>

<script type="text/javascript">
var viewWidth = 1222;
var viewHeight = 427;
var sectionId = 'dynsection-125';
</script>
<script xlink:href="svgpan.js"/>
<svg id="graph" class="graph">
<g id="viewport">
<title>a60::get_swarm_gcache_matching</title>
<!-- Node1 -->
<g id="node1" class="node">
<title>Node1</title>
<g id="a_node1"><a xlink:title="Full set of torrents and geographies in torrent collection.">
<polygon fill="#999999" stroke="#666666" points="116,-122 0,-122 0,-96 116,-96 116,-122"/>
<text text-anchor="start" x="8" y="-111.6" font-family="SourceSans" font-size="8.00">a60::get_swarm_gcache</text>
<text text-anchor="middle" x="58" y="-102.6" font-family="SourceSans" font-size="8.00">_matching</text>
</a>
</g>
</g>
<!-- Node2 -->
<g id="node2" class="node">
<title>Node2</title>
<g id="a_node2"><a xlink:href="structa60_1_1swarm__gcache.html#ad76bbadef61afd476e39770ee8ea5856" target="_top" xlink:title=" ">
<polygon fill="white" stroke="#666666" points="292,-151.5 152,-151.5 152,-116.5 292,-116.5 292,-151.5"/>
<text text-anchor="start" x="160" y="-141.1" font-family="SourceSans" font-size="8.00">a60::swarm_gcache::</text>
<text text-anchor="start" x="160" y="-132.1" font-family="SourceSans" font-size="8.00">add_geo_peers_from_directory</text>
<text text-anchor="middle" x="222" y="-123.1" font-family="SourceSans" font-size="8.00">_matching</text>
</a>
</g>
</g>
<!-- Node1&#45;&gt;Node2 -->
<g id="edge1" class="edge">
<title>Node1&#45;&gt;Node2</title>
<path fill="none" stroke="#63b8ff" d="M116.12,-117.81C124.43,-119.1 133.11,-120.44 141.77,-121.77"/>
<polygon fill="#63b8ff" stroke="#63b8ff" points="141.48,-125.27 151.9,-123.34 142.55,-118.35 141.48,-125.27"/>
</g>
<!-- Node29 -->
<g id="node29" class="node">
<title>Node29</title>
<g id="a_node29"><a xlink:href="structa60_1_1swarm__gcache.html#a9528456c3ced6dc8fbc675ad87ea57e3" target="_top" xlink:title=" ">
<polygon fill="white" stroke="#666666" points="274.5,-98 169.5,-98 169.5,-72 274.5,-72 274.5,-98"/>
<text text-anchor="start" x="177.5" y="-87.6" font-family="SourceSans" font-size="8.00">a60::swarm_gcache::</text>
<text text-anchor="middle" x="222" y="-78.6" font-family="SourceSans" font-size="8.00">is_cached</text>
</a>
</g>
</g>
<!-- Node1&#45;&gt;Node29 -->
<g id="edge30" class="edge">
<title>Node1&#45;&gt;Node29</title>
<path fill="none" stroke="#63b8ff" d="M116.12,-100.54C130.04,-98.48 145.01,-96.26 159.14,-94.16"/>
<polygon fill="#63b8ff" stroke="#63b8ff" points="159.88,-97.59 169.26,-92.66 158.86,-90.67 159.88,-97.59"/>
</g>
<!-- Node3 -->
<g id="node3" class="node">
<title>Node3</title>
<g id="a_node3"><a xlink:href="structa60_1_1swarm__gcache.html#a7228b3bc28ecbffa23dfd12728eaa8c6" target="_top" xlink:title="Single datestamp. Add all peers/seeds from files to weighed geos/ranks.">
<polygon fill="white" stroke="#666666" points="450,-179 328,-179 328,-153 450,-153 450,-179"/>
<text text-anchor="start" x="336" y="-168.6" font-family="SourceSans" font-size="8.00">a60::swarm_gcache::</text>
<text text-anchor="middle" x="389" y="-159.6" font-family="SourceSans" font-size="8.00">add_geo_peers_from_files</text>
</a>
</g>
</g>
<!-- Node2&#45;&gt;Node3 -->
<g id="edge2" class="edge">
<title>Node2&#45;&gt;Node3</title>
<path fill="none" stroke="#63b8ff" d="M292.02,-147.39C300.59,-149.05 309.36,-150.75 317.94,-152.41"/>
<polygon fill="#63b8ff" stroke="#63b8ff" points="317.43,-155.88 327.91,-154.35 318.76,-149.01 317.43,-155.88"/>
</g>
<!-- Node27 -->
<g id="node27" class="node">
<title>Node27</title>
<g id="a_node27"><a xlink:href="structa60_1_1swarm__gcache.html#ace151ddae6bb1ddc1818b85b1c550bca" target="_top" xlink:title=" ">
<polygon fill="white" stroke="#666666" points="441.5,-114 336.5,-114 336.5,-88 441.5,-88 441.5,-114"/>
<text text-anchor="start" x="344.5" y="-103.6" font-family="SourceSans" font-size="8.00">a60::swarm_gcache::</text>
<text text-anchor="middle" x="389" y="-94.6" font-family="SourceSans" font-size="8.00">find_files</text>
</a>
</g>
</g>
<!-- Node2&#45;&gt;Node27 -->
<g id="edge28" class="edge">
<title>Node2&#45;&gt;Node27</title>
<path fill="none" stroke="#63b8ff" d="M292.02,-120.2C303.38,-117.92 315.09,-115.58 326.25,-113.35"/>
<polygon fill="#63b8ff" stroke="#63b8ff" points="327.21,-116.73 336.33,-111.33 325.84,-109.86 327.21,-116.73"/>
</g>
<!-- Node4 -->
<g id="node4" class="node">
<title>Node4</title>
<g id="a_node4"><a xlink:href="structa60_1_1swarm__gcache.html#a46e0655dfbf754e20bb9e832c9cc36b7" target="_top" xlink:title="Adds peers, if @detail_lost_p is true, output details on anomalies.">
<polygon fill="white" stroke="#666666" points="596.5,-225 491.5,-225 491.5,-199 596.5,-199 596.5,-225"/>
<text text-anchor="start" x="499.5" y="-214.6" font-family="SourceSans" font-size="8.00">a60::swarm_gcache::</text>
<text text-anchor="middle" x="544" y="-205.6" font-family="SourceSans" font-size="8.00">add_geo_peers</text>
</a>
</g>
</g>
<!-- Node3&#45;&gt;Node4 -->
<g id="edge3" class="edge">
<title>Node3&#45;&gt;Node4</title>
<path fill="none" stroke="#63b8ff" d="M433.43,-179.06C451.03,-184.35 471.52,-190.51 489.99,-196.06"/>
<polygon fill="#63b8ff" stroke="#63b8ff" points="489.14,-199.46 499.72,-198.99 491.15,-192.76 489.14,-199.46"/>
</g>
<!-- Node23 -->
<g id="node23" class="node">
<title>Node23</title>
<g id="a_node23"><a xlink:href="structa60_1_1swarm__gcache.html#ac844e1bb124d31692ecefb61c592cdf3" target="_top" xlink:title="Dig out datestamp from file metadata.">
<polygon fill="white" stroke="#666666" points="602,-111 486,-111 486,-85 602,-85 602,-111"/>
<text text-anchor="start" x="494" y="-100.6" font-family="SourceSans" font-size="8.00">a60::swarm_gcache::</text>
<text text-anchor="middle" x="544" y="-91.6" font-family="SourceSans" font-size="8.00">get_datestamp_from_file</text>
</a>
</g>
</g>
<!-- Node3&#45;&gt;Node23 -->
<g id="edge23" class="edge">
<title>Node3&#45;&gt;Node23</title>
<path fill="none" stroke="#63b8ff" d="M419.5,-152.89C443.63,-142.16 477.94,-126.91 504.28,-115.21"/>
<polygon fill="#63b8ff" stroke="#63b8ff" points="505.87,-118.33 513.59,-111.07 503.03,-111.93 505.87,-118.33"/>
</g>
<!-- Node26 -->
<g id="node26" class="node">
<title>Node26</title>
<g id="a_node26"><a xlink:href="namespacea60_1_1constants.html#a4eca9d522711df25806d6dd1ff38e904" target="_top" xlink:title=" ">
<polygon fill="white" stroke="#666666" points="599,-260.5 489,-260.5 489,-243.5 599,-243.5 599,-260.5"/>
<text text-anchor="middle" x="544" y="-250.1" font-family="SourceSans" font-size="8.00">a60::constants::space</text>
</a>
</g>
</g>
<!-- Node3&#45;&gt;Node26 -->
<g id="edge27" class="edge">
<title>Node3&#45;&gt;Node26</title>
<path fill="none" stroke="#63b8ff" d="M405.34,-179.17C423.53,-194.22 455.27,-218.73 486,-234 490.41,-236.19 495.15,-238.19 499.94,-239.99"/>
<polygon fill="#63b8ff" stroke="#63b8ff" points="499.17,-243.43 509.76,-243.41 501.47,-236.82 499.17,-243.43"/>
</g>
<!-- Node5 -->
<g id="node5" class="node">
<title>Node5</title>
<g id="a_node5"><a xlink:href="namespacea60.html#af45982273a7a2e61b6aaa436081238c0" target="_top" xlink:title="Load JSON file to in&#45;memory DOM.">
<polygon fill="white" stroke="#666666" points="747.5,-152 643.5,-152 643.5,-126 747.5,-126 747.5,-152"/>
<text text-anchor="start" x="651.5" y="-141.6" font-family="SourceSans" font-size="8.00">a60::deserialize_json</text>
<text text-anchor="middle" x="695.5" y="-132.6" font-family="SourceSans" font-size="8.00">_to_dom_object</text>
</a>
</g>
</g>
<!-- Node4&#45;&gt;Node5 -->
<g id="edge4" class="edge">
<title>Node4&#45;&gt;Node5</title>
<path fill="none" stroke="#63b8ff" d="M567.13,-198.8C585.71,-187.97 613.13,-172.6 638,-161 641.76,-159.25 645.69,-157.51 649.67,-155.83"/>
<polygon fill="#63b8ff" stroke="#63b8ff" points="651.01,-159.07 658.94,-152.03 648.36,-152.59 651.01,-159.07"/>
</g>
<!-- Node7 -->
<g id="node7" class="node">
<title>Node7</title>
<g id="a_node7"><a xlink:href="structa60_1_1swarm__gcache.html#ae4920365566dd82a83ef69d8f85b4f5c" target="_top" xlink:title=" ">
<polygon fill="white" stroke="#666666" points="748,-205.5 643,-205.5 643,-170.5 748,-170.5 748,-205.5"/>
<text text-anchor="start" x="651" y="-195.1" font-family="SourceSans" font-size="8.00">a60::swarm_gcache::</text>
<text text-anchor="start" x="651" y="-186.1" font-family="SourceSans" font-size="8.00">insert_meta_peers_by</text>
<text text-anchor="middle" x="695.5" y="-177.1" font-family="SourceSans" font-size="8.00">_meta_mask</text>
</a>
</g>
</g>
<!-- Node4&#45;&gt;Node7 -->
<g id="edge6" class="edge">
<title>Node4&#45;&gt;Node7</title>
<path fill="none" stroke="#63b8ff" d="M596.87,-203.67C608.53,-201.8 621.01,-199.8 633.03,-197.87"/>
<polygon fill="#63b8ff" stroke="#63b8ff" points="633.66,-201.31 642.98,-196.27 632.55,-194.4 633.66,-201.31"/>
</g>
<!-- Node10 -->
<g id="node10" class="node">
<title>Node10</title>
<g id="a_node10"><a xlink:href="structa60_1_1collection.html#a3780f3266ff2355e74b737a201c89116" target="_top" xlink:title=" ">
<polygon fill="white" stroke="#666666" points="753,-250 638,-250 638,-224 753,-224 753,-250"/>
<text text-anchor="start" x="646" y="-239.6" font-family="SourceSans" font-size="8.00">a60::collection::mangle</text>
<text text-anchor="middle" x="695.5" y="-230.6" font-family="SourceSans" font-size="8.00">_tid_match_id</text>
</a>
</g>
</g>
<!-- Node4&#45;&gt;Node10 -->
<g id="edge9" class="edge">
<title>Node4&#45;&gt;Node10</title>
<path fill="none" stroke="#63b8ff" d="M596.87,-220.67C606.9,-222.35 617.54,-224.13 627.97,-225.87"/>
<polygon fill="#63b8ff" stroke="#63b8ff" points="627.43,-229.33 637.87,-227.53 628.59,-222.43 627.43,-229.33"/>
</g>
<!-- Node13 -->
<g id="node13" class="node">
<title>Node13</title>
<g id="a_node13"><a xlink:href="structa60_1_1collection.html#a80993af9aec8238db8e44da1e9a3c994" target="_top" xlink:title=" ">
<polygon fill="white" stroke="#666666" points="898.5,-291 795.5,-291 795.5,-265 898.5,-265 898.5,-291"/>
<text text-anchor="start" x="803.5" y="-280.6" font-family="SourceSans" font-size="8.00">a60::collection::slice</text>
<text text-anchor="middle" x="847" y="-271.6" font-family="SourceSans" font-size="8.00">_name_mangled</text>
</a>
</g>
</g>
<!-- Node4&#45;&gt;Node13 -->
<g id="edge18" class="edge">
<title>Node4&#45;&gt;Node13</title>
<path fill="none" stroke="#63b8ff" d="M582.67,-225.07C589.24,-227.76 595.91,-230.77 602,-234 619.21,-243.13 619.69,-252.34 638,-259 685.38,-276.24 742.65,-280.36 785.09,-280.52"/>
<polygon fill="#63b8ff" stroke="#63b8ff" points="785.28,-284.02 795.27,-280.49 785.26,-277.02 785.28,-284.02"/>
</g>
<!-- Node18 -->
<g id="node18" class="node">
<title>Node18</title>
<g id="a_node18"><a xlink:href="namespacea60.html#a6ce8704ec3c4d5e258d062283dd40efb" target="_top" xlink:title="Search DOM for meta_peer(s).">
<polygon fill="white" stroke="#666666" points="747,-332 644,-332 644,-306 747,-306 747,-332"/>
<text text-anchor="start" x="652" y="-321.6" font-family="SourceSans" font-size="8.00">a60::search_dom_for</text>
<text text-anchor="middle" x="695.5" y="-312.6" font-family="SourceSans" font-size="8.00">_meta_peers</text>
</a>
</g>
</g>
<!-- Node4&#45;&gt;Node18 -->
<g id="edge17" class="edge">
<title>Node4&#45;&gt;Node18</title>
<path fill="none" stroke="#63b8ff" d="M588.1,-225.09C593.07,-227.6 597.83,-230.55 602,-234 625.36,-253.35 615.4,-271.76 638,-292 641.65,-295.27 645.78,-298.23 650.09,-300.88"/>
<polygon fill="#63b8ff" stroke="#63b8ff" points="648.67,-304.1 659.11,-305.9 652.07,-297.98 648.67,-304.1"/>
</g>
<!-- Node19 -->
<g id="node19" class="node">
<title>Node19</title>
<g id="a_node19"><a xlink:href="namespacea60.html#a718120588394d0516778b6ad06793bf8" target="_top" xlink:title="See what peers have no country info or latitude/longitude.">
<polygon fill="white" stroke="#666666" points="751,-369.5 640,-369.5 640,-352.5 751,-352.5 751,-369.5"/>
<text text-anchor="middle" x="695.5" y="-359.1" font-family="SourceSans" font-size="8.00">a60::survey_lost_peers</text>
</a>
</g>
</g>
<!-- Node4&#45;&gt;Node19 -->
<g id="edge19" class="edge">
<title>Node4&#45;&gt;Node19</title>
<path fill="none" stroke="#63b8ff" d="M590.33,-225.01C594.62,-227.51 598.63,-230.48 602,-234 636.69,-270.25 602.8,-305.24 638,-341 640.48,-343.52 643.31,-345.73 646.33,-347.66"/>
<polygon fill="#63b8ff" stroke="#63b8ff" points="644.81,-350.81 655.29,-352.39 648.08,-344.62 644.81,-350.81"/>
</g>
<!-- Node6 -->
<g id="node6" class="node">
<title>Node6</title>
<g id="a_node6"><a xlink:href="namespacea60.html#a538d43bb9bfa488a54cea929736dbe2d" target="_top" xlink:title="Deserialize input file.">
<polygon fill="white" stroke="#666666" points="899,-112 795,-112 795,-86 899,-86 899,-112"/>
<text text-anchor="start" x="803" y="-101.6" font-family="SourceSans" font-size="8.00">a60::deserialize_json</text>
<text text-anchor="middle" x="847" y="-92.6" font-family="SourceSans" font-size="8.00">_to_dom</text>
</a>
</g>
</g>
<!-- Node5&#45;&gt;Node6 -->
<g id="edge5" class="edge">
<title>Node5&#45;&gt;Node6</title>
<path fill="none" stroke="#63b8ff" d="M745.45,-125.9C758.81,-122.33 773.43,-118.42 787.28,-114.71"/>
<polygon fill="#63b8ff" stroke="#63b8ff" points="788.44,-118.02 797.19,-112.06 786.63,-111.26 788.44,-118.02"/>
</g>
<!-- Node8 -->
<g id="node8" class="node">
<title>Node8</title>
<g id="a_node8"><a xlink:href="structa60_1_1swarm__gcache.html#a863e7627b8875d8ed7eafc5bd3c7a480" target="_top" xlink:title=" ">
<polygon fill="white" stroke="#666666" points="904,-201 790,-201 790,-175 904,-175 904,-201"/>
<text text-anchor="start" x="798" y="-190.6" font-family="SourceSans" font-size="8.00">a60::swarm_gcache::</text>
<text text-anchor="middle" x="847" y="-181.6" font-family="SourceSans" font-size="8.00">meta_peer_to_geo_peer</text>
</a>
</g>
</g>
<!-- Node7&#45;&gt;Node8 -->
<g id="edge7" class="edge">
<title>Node7&#45;&gt;Node8</title>
<path fill="none" stroke="#63b8ff" d="M748.37,-188C758.53,-188 769.32,-188 779.87,-188"/>
<polygon fill="#63b8ff" stroke="#63b8ff" points="779.89,-191.5 789.89,-188 779.89,-184.5 779.89,-191.5"/>
</g>
<!-- Node9 -->
<g id="node9" class="node">
<title>Node9</title>
<g id="a_node9"><a xlink:href="structa60_1_1swarm__gcache.html#a5392ca156f233ca3c89778c38ed19a67" target="_top" xlink:title="Make unique string suitable for key via masks on geo data.">
<polygon fill="white" stroke="#666666" points="905,-157 789,-157 789,-131 905,-131 905,-157"/>
<text text-anchor="start" x="797" y="-146.6" font-family="SourceSans" font-size="8.00">a60::swarm_gcache::</text>
<text text-anchor="middle" x="847" y="-137.6" font-family="SourceSans" font-size="8.00">meta_peer_to_string_key</text>
</a>
</g>
</g>
<!-- Node7&#45;&gt;Node9 -->
<g id="edge8" class="edge">
<title>Node7&#45;&gt;Node9</title>
<path fill="none" stroke="#63b8ff" d="M748.37,-172.73C762.48,-168.58 777.8,-164.07 792.03,-159.88"/>
<polygon fill="#63b8ff" stroke="#63b8ff" points="793.08,-163.22 801.68,-157.04 791.1,-156.51 793.08,-163.22"/>
</g>
<!-- Node11 -->
<g id="node11" class="node">
<title>Node11</title>
<g id="a_node11"><a xlink:href="structa60_1_1collection.html#ab234addb5725bb5900b44f55ec1aae10" target="_top" xlink:title=" ">
<polygon fill="white" stroke="#666666" points="904.5,-246 789.5,-246 789.5,-220 904.5,-220 904.5,-246"/>
<text text-anchor="start" x="797.5" y="-235.6" font-family="SourceSans" font-size="8.00">a60::collection::mangle</text>
<text text-anchor="middle" x="847" y="-226.6" font-family="SourceSans" font-size="8.00">_with_id</text>
</a>
</g>
</g>
<!-- Node10&#45;&gt;Node11 -->
<g id="edge10" class="edge">
<title>Node10&#45;&gt;Node11</title>
<path fill="none" stroke="#63b8ff" d="M753.02,-235.49C761.58,-235.26 770.48,-235.02 779.23,-234.79"/>
<polygon fill="#63b8ff" stroke="#63b8ff" points="779.5,-238.28 789.4,-234.51 779.31,-231.28 779.5,-238.28"/>
</g>
<!-- Node10&#45;&gt;Node13 -->
<g id="edge12" class="edge">
<title>Node10&#45;&gt;Node13</title>
<path fill="none" stroke="#63b8ff" d="M744.21,-250.09C758.31,-253.95 773.88,-258.22 788.53,-262.24"/>
<polygon fill="#63b8ff" stroke="#63b8ff" points="787.91,-265.7 798.48,-264.97 789.76,-258.95 787.91,-265.7"/>
</g>
<!-- Node12 -->
<g id="node12" class="node">
<title>Node12</title>
<g id="a_node12"><a xlink:href="structa60_1_1collection.html#a899f781ad983b2ec1f0da35a5d3f8b54" target="_top" xlink:title=" ">
<polygon fill="white" stroke="#666666" points="1063.5,-216.5 948.5,-216.5 948.5,-181.5 1063.5,-181.5 1063.5,-216.5"/>
<text text-anchor="start" x="956.5" y="-206.1" font-family="SourceSans" font-size="8.00">a60::collection::mangle</text>
<text text-anchor="start" x="956.5" y="-197.1" font-family="SourceSans" font-size="8.00">_duration_significant</text>
<text text-anchor="middle" x="1006" y="-188.1" font-family="SourceSans" font-size="8.00">_digits</text>
</a>
</g>
</g>
<!-- Node11&#45;&gt;Node12 -->
<g id="edge11" class="edge">
<title>Node11&#45;&gt;Node12</title>
<path fill="none" stroke="#63b8ff" d="M904.68,-220.73C915.69,-218.34 927.31,-215.82 938.6,-213.38"/>
<polygon fill="#63b8ff" stroke="#63b8ff" points="939.37,-216.79 948.4,-211.26 937.89,-209.95 939.37,-216.79"/>
</g>
<!-- Node14 -->
<g id="node14" class="node">
<title>Node14</title>
<g id="a_node14"><a xlink:href="structa60_1_1collection.html#a25b35cf4ac39da89d868fe2cf41b5acd" target="_top" xlink:title=" ">
<polygon fill="white" stroke="#666666" points="1071,-286.5 941,-286.5 941,-269.5 1071,-269.5 1071,-286.5"/>
<text text-anchor="middle" x="1006" y="-276.1" font-family="SourceSans" font-size="8.00">a60::collection::slice_name</text>
</a>
</g>
</g>
<!-- Node13&#45;&gt;Node14 -->
<g id="edge13" class="edge">
<title>Node13&#45;&gt;Node14</title>
<path fill="none" stroke="#63b8ff" d="M898.54,-278C908.73,-278 919.64,-278 930.45,-278"/>
<polygon fill="#63b8ff" stroke="#63b8ff" points="930.76,-281.5 940.76,-278 930.76,-274.5 930.76,-281.5"/>
</g>
<!-- Node15 -->
<g id="node15" class="node">
<title>Node15</title>
<g id="a_node15"><a xlink:href="namespacea60.html#ac7eddb2e330d8983ddc852edde5335c5" target="_top" xlink:title=" ">
<polygon fill="white" stroke="#666666" points="1065.5,-251.5 946.5,-251.5 946.5,-234.5 1065.5,-234.5 1065.5,-251.5"/>
<text text-anchor="middle" x="1006" y="-241.1" font-family="SourceSans" font-size="8.00">a60::to_lowercase_string</text>
</a>
</g>
</g>
<!-- Node13&#45;&gt;Node15 -->
<g id="edge14" class="edge">
<title>Node13&#45;&gt;Node15</title>
<path fill="none" stroke="#63b8ff" d="M898.54,-266.73C917.22,-262.57 938.33,-257.86 956.8,-253.74"/>
<polygon fill="#63b8ff" stroke="#63b8ff" points="957.76,-257.12 966.76,-251.53 956.24,-250.29 957.76,-257.12"/>
</g>
<!-- Node16 -->
<g id="node16" class="node">
<title>Node16</title>
<g id="a_node16"><a xlink:href="namespacea60.html#a11d9ffc210e8dca8410e7a5ad62deabc" target="_top" xlink:title=" ">
<polygon fill="white" stroke="#666666" points="1062.5,-331 949.5,-331 949.5,-305 1062.5,-305 1062.5,-331"/>
<text text-anchor="start" x="957.5" y="-320.6" font-family="SourceSans" font-size="8.00">a60::to_replace_spaces</text>
<text text-anchor="middle" x="1006" y="-311.6" font-family="SourceSans" font-size="8.00">_string</text>
</a>
</g>
</g>
<!-- Node13&#45;&gt;Node16 -->
<g id="edge15" class="edge">
<title>Node13&#45;&gt;Node16</title>
<path fill="none" stroke="#63b8ff" d="M898.54,-290.88C913.03,-294.57 928.97,-298.63 944.02,-302.46"/>
<polygon fill="#63b8ff" stroke="#63b8ff" points="943.19,-305.86 953.75,-304.94 944.92,-299.08 943.19,-305.86"/>
</g>
<!-- Node17 -->
<g id="node17" class="node">
<title>Node17</title>
<g id="a_node17"><a xlink:href="namespacea60.html#a751f954fe64233f1dc6517220e4b5692" target="_top" xlink:title=" ">
<polygon fill="white" stroke="#666666" points="1214,-326.5 1107,-326.5 1107,-309.5 1214,-309.5 1214,-326.5"/>
<text text-anchor="middle" x="1160.5" y="-316.1" font-family="SourceSans" font-size="8.00">a60::to_replace_string</text>
</a>
</g>
</g>
<!-- Node16&#45;&gt;Node17 -->
<g id="edge16" class="edge">
<title>Node16&#45;&gt;Node17</title>
<path fill="none" stroke="#63b8ff" d="M1062.92,-318C1073.92,-318 1085.53,-318 1096.73,-318"/>
<polygon fill="#63b8ff" stroke="#63b8ff" points="1096.88,-321.5 1106.88,-318 1096.88,-314.5 1096.88,-321.5"/>
</g>
<!-- Node20 -->
<g id="node20" class="node">
<title>Node20</title>
<g id="a_node20"><a xlink:href="namespacea60.html#ac39b0d667e2ffa7a1bf2df7cc4e5ac38" target="_top" xlink:title="IFF either of the above is true.">
<polygon fill="white" stroke="#666666" points="902.5,-370.5 791.5,-370.5 791.5,-353.5 902.5,-353.5 902.5,-370.5"/>
<text text-anchor="middle" x="847" y="-360.1" font-family="SourceSans" font-size="8.00">a60::is_meta_peer_lost</text>
</a>
</g>
</g>
<!-- Node19&#45;&gt;Node20 -->
<g id="edge20" class="edge">
<title>Node19&#45;&gt;Node20</title>
<path fill="none" stroke="#63b8ff" d="M751.32,-361.37C760.97,-361.43 771.09,-361.5 780.99,-361.57"/>
<polygon fill="#63b8ff" stroke="#63b8ff" points="781.16,-365.07 791.19,-361.63 781.21,-358.07 781.16,-365.07"/>
</g>
<!-- Node21 -->
<g id="node21" class="node">
<title>Node21</title>
<g id="a_node21"><a xlink:href="namespacea60.html#a63bf2b0abf68edc3f3e74a0811fe771b" target="_top" xlink:title="Error checking support. Null Island Check (aka latitude and longitude set to zero).">
<polygon fill="white" stroke="#666666" points="1059.5,-419 952.5,-419 952.5,-393 1059.5,-393 1059.5,-419"/>
<text text-anchor="start" x="960.5" y="-408.6" font-family="SourceSans" font-size="8.00">a60::is_meta_peer_on</text>
<text text-anchor="middle" x="1006" y="-399.6" font-family="SourceSans" font-size="8.00">_null_island</text>
</a>
</g>
</g>
<!-- Node20&#45;&gt;Node21 -->
<g id="edge21" class="edge">
<title>Node20&#45;&gt;Node21</title>
<path fill="none" stroke="#63b8ff" d="M878.64,-370.59C898.48,-376.15 924.9,-383.55 948.46,-390.15"/>
<polygon fill="#63b8ff" stroke="#63b8ff" points="947.77,-393.6 958.35,-392.93 949.66,-386.86 947.77,-393.6"/>
</g>
<!-- Node22 -->
<g id="node22" class="node">
<title>Node22</title>
<g id="a_node22"><a xlink:href="namespacea60.html#a0ff511c579a9f94ffff788b1cd4ae864" target="_top" xlink:title="Null Country Check.">
<polygon fill="white" stroke="#666666" points="1069.5,-375 942.5,-375 942.5,-349 1069.5,-349 1069.5,-375"/>
<text text-anchor="start" x="950.5" y="-364.6" font-family="SourceSans" font-size="8.00">a60::is_meta_peer_without</text>
<text text-anchor="middle" x="1006" y="-355.6" font-family="SourceSans" font-size="8.00">_country</text>
</a>
</g>
</g>
<!-- Node20&#45;&gt;Node22 -->
<g id="edge22" class="edge">
<title>Node20&#45;&gt;Node22</title>
<path fill="none" stroke="#63b8ff" d="M902.91,-362C912.36,-362 922.31,-362 932.15,-362"/>
<polygon fill="#63b8ff" stroke="#63b8ff" points="932.33,-365.5 942.33,-362 932.33,-358.5 932.33,-365.5"/>
</g>
<!-- Node23&#45;&gt;Node6 -->
<g id="edge24" class="edge">
<title>Node23&#45;&gt;Node6</title>
<path fill="none" stroke="#63b8ff" d="M602.32,-98.19C654.56,-98.36 731.5,-98.62 784.89,-98.8"/>
<polygon fill="#63b8ff" stroke="#63b8ff" points="784.89,-102.3 794.9,-98.83 784.92,-95.3 784.89,-102.3"/>
</g>
<!-- Node24 -->
<g id="node24" class="node">
<title>Node24</title>
<g id="a_node24"><a xlink:href="namespacea60_1_1io.html#aa5fbb8ab63397dd45c4a54c0758935ef" target="_top" xlink:title="Sanity check input existence.">
<polygon fill="white" stroke="#666666" points="747.5,-70 643.5,-70 643.5,-44 747.5,-44 747.5,-70"/>
<text text-anchor="start" x="651.5" y="-59.6" font-family="SourceSans" font-size="8.00">a60::io::sanity_check</text>
<text text-anchor="middle" x="695.5" y="-50.6" font-family="SourceSans" font-size="8.00">_input</text>
</a>
</g>
</g>
<!-- Node23&#45;&gt;Node24 -->
<g id="edge25" class="edge">
<title>Node23&#45;&gt;Node24</title>
<path fill="none" stroke="#63b8ff" d="M592.71,-84.91C606.81,-81.05 622.38,-76.78 637.03,-72.76"/>
<polygon fill="#63b8ff" stroke="#63b8ff" points="638.26,-76.05 646.98,-70.03 636.41,-69.3 638.26,-76.05"/>
</g>
<!-- Node25 -->
<g id="node25" class="node">
<title>Node25</title>
<g id="a_node25"><a xlink:href="namespacea60.html#a34d53970ee23a7c014960a2bf1a10e2b" target="_top" xlink:title="Search DOM for string literals.">
<polygon fill="white" stroke="#666666" points="747,-26 644,-26 644,0 747,0 747,-26"/>
<text text-anchor="start" x="652" y="-15.6" font-family="SourceSans" font-size="8.00">a60::search_dom_for</text>
<text text-anchor="middle" x="695.5" y="-6.6" font-family="SourceSans" font-size="8.00">_string_field</text>
</a>
</g>
</g>
<!-- Node23&#45;&gt;Node25 -->
<g id="edge26" class="edge">
<title>Node23&#45;&gt;Node25</title>
<path fill="none" stroke="#63b8ff" d="M584.25,-84.93C590.44,-82.1 596.58,-78.79 602,-75 621.59,-61.28 618.32,-48.6 638,-35 640.24,-33.45 642.6,-32 645.03,-30.63"/>
<polygon fill="#63b8ff" stroke="#63b8ff" points="646.76,-33.67 654.1,-26.03 643.6,-27.43 646.76,-33.67"/>
</g>
<!-- Node28 -->
<g id="node28" class="node">
<title>Node28</title>
<g id="a_node28"><a xlink:href="namespacea60_1_1io.html#aea30b8fc474f5a7b922516dc1e199037" target="_top" xlink:title="Takes a string representing a directory, returns a sorted list of contents as a std::vector&lt;string&gt;.">
<polygon fill="white" stroke="#666666" points="599,-66.5 489,-66.5 489,-49.5 599,-49.5 599,-66.5"/>
<text text-anchor="middle" x="544" y="-56.1" font-family="SourceSans" font-size="8.00">a60::io::populate_files</text>
</a>
</g>
</g>
<!-- Node27&#45;&gt;Node28 -->
<g id="edge29" class="edge">
<title>Node27&#45;&gt;Node28</title>
<path fill="none" stroke="#63b8ff" d="M436.32,-87.98C457.39,-82.06 482.09,-75.12 502.42,-69.41"/>
<polygon fill="#63b8ff" stroke="#63b8ff" points="503.63,-72.7 512.31,-66.63 501.73,-65.96 503.63,-72.7"/>
</g>
</g>
</svg>
        <g id="navigator" transform="translate(0 0)" fill="#404254">
                <rect fill="#f2f5e9" fill-opacity="0.5" stroke="#606060" stroke-width=".5" x="0" y="0" width="60" height="60"/>
                <use id="zoomplus" xlink:href="#zoomPlus" x="17" y="9" onmousedown="handleZoom(evt,'in')"/>
                <use id="zoomminus" xlink:href="#zoomMin" x="42" y="9" onmousedown="handleZoom(evt,'out')"/>
                <use id="reset" xlink:href="#resetDef" x="30" y="36" onmousedown="handleReset()"/>
                <g id="arrowUp" xlink:href="#dirArrow" transform="translate(30 24)" onmousedown="handlePan(0,-1)">
                  <use xlink:href="#rim" fill="#404040">
                        <set attributeName="fill" to="#808080" begin="arrowUp.mouseover" end="arrowUp.mouseout"/>
                  </use>
                  <path fill="none" stroke="white" stroke-width="1.5" d="M0,-3.0v7 M-2.5,-0.5L0,-3.0L2.5,-0.5"/>
                </g>
                <g id="arrowRight" xlink:href="#dirArrow" transform="rotate(90) translate(36 -43)" onmousedown="handlePan(1,0)">
                  <use xlink:href="#rim" fill="#404040">
                        <set attributeName="fill" to="#808080" begin="arrowRight.mouseover" end="arrowRight.mouseout"/>
                  </use>
                  <path fill="none" stroke="white" stroke-width="1.5" d="M0,-3.0v7 M-2.5,-0.5L0,-3.0L2.5,-0.5"/>
                </g>
                <g id="arrowDown" xlink:href="#dirArrow" transform="rotate(180) translate(-30 -48)" onmousedown="handlePan(0,1)">
                  <use xlink:href="#rim" fill="#404040">
                        <set attributeName="fill" to="#808080" begin="arrowDown.mouseover" end="arrowDown.mouseout"/>
                  </use>
                  <path fill="none" stroke="white" stroke-width="1.5" d="M0,-3.0v7 M-2.5,-0.5L0,-3.0L2.5,-0.5"/>
                </g>
                <g id="arrowLeft" xlink:href="#dirArrow" transform="rotate(270) translate(-36 17)" onmousedown="handlePan(-1,0)">
                  <use xlink:href="#rim" fill="#404040">
                        <set attributeName="fill" to="#808080" begin="arrowLeft.mouseover" end="arrowLeft.mouseout"/>
                  </use>
                  <path fill="none" stroke="white" stroke-width="1.5" d="M0,-3.0v7 M-2.5,-0.5L0,-3.0L2.5,-0.5"/>
                </g>
        </g>
        <svg viewBox="0 0 15 15" width="100%" height="30px" preserveAspectRatio="xMaxYMin meet">
         <g id="arrow_out" transform="scale(0.3 0.3)">
          <a xlink:href="namespacea60_ab54b448d80f3b4ece089472022ad25de_cgraph_org.svg" target="_base">
           <rect id="button" ry="5" rx="5" y="6" x="6" height="38" width="38"
                fill="#f2f5e9" fill-opacity="0.5" stroke="#606060" stroke-width="1.0"/>
           <path id="arrow"
             d="M 11.500037,31.436501 C 11.940474,20.09759 22.043105,11.32322 32.158766,21.979434 L 37.068811,17.246167 C 37.068811,17.246167 37.088388,32 37.088388,32 L 22.160133,31.978069 C 22.160133,31.978069 26.997745,27.140456 26.997745,27.140456 C 18.528582,18.264221 13.291696,25.230495 11.500037,31.436501 z"
             style="fill:#404040;"/>
          </a>
         </g>
        </svg>
</svg>
