<?xml version="1.0" encoding="UTF-8" standalone="no"?>
<!DOCTYPE svg PUBLIC "-//W3C//DTD SVG 1.1//EN"
 "http://www.w3.org/Graphics/SVG/1.1/DTD/svg11.dtd">
<!-- Generated by graphviz version 5.0.0 (0)
 -->
<!-- Title: a60::make_meta_peer Pages: 1 -->
<svg width="731pt" height="194pt"
 viewBox="0.00 0.00 731.00 194.00" xmlns="http://www.w3.org/2000/svg" xmlns:xlink="http://www.w3.org/1999/xlink">
<g id="graph0" class="graph" transform="scale(1 1) rotate(0) translate(4 190)">
<title>a60::make_meta_peer</title>
<!-- Node1 -->
<g id="node1" class="node">
<title>Node1</title>
<g id="a_node1"><a xlink:title="GeoIP.">
<polygon fill="#999999" stroke="#666666" points="107,-116.5 0,-116.5 0,-99.5 107,-99.5 107,-116.5"/>
<text text-anchor="middle" x="53.5" y="-106.1" font-family="SourceSans" font-size="8.00">a60::make_meta_peer</text>
</a>
</g>
</g>
<!-- Node2 -->
<g id="node2" class="node">
<title>Node2</title>
<g id="a_node2"><a xlink:href="structa60_1_1geo_1_1city__map_1_1record.html#a7b30bf979e46ddb75bc274871e4ab367" target="_top" xlink:title=" ">
<polygon fill="white" stroke="#666666" points="261.5,-161 146.5,-161 146.5,-135 261.5,-135 261.5,-161"/>
<text text-anchor="start" x="154.5" y="-150.6" font-family="SourceSans" font-size="8.00">a60::geo::city_map</text>
<text text-anchor="middle" x="204" y="-141.6" font-family="SourceSans" font-size="8.00">::record::is_record_open</text>
</a>
</g>
</g>
<!-- Node1&#45;&gt;Node2 -->
<g id="edge1" class="edge">
<title>Node1&#45;&gt;Node2</title>
<path fill="none" stroke="#63b8ff" d="M86.36,-116.58C103.34,-121.16 124.78,-126.93 144.63,-132.28"/>
<polygon fill="#63b8ff" stroke="#63b8ff" points="143.96,-135.72 154.53,-134.94 145.78,-128.96 143.96,-135.72"/>
</g>
<!-- Node3 -->
<g id="node3" class="node">
<title>Node3</title>
<g id="a_node3"><a xlink:href="namespacea60_1_1geo.html#a7d8058b0d2e8d5f5c90dfe2cab6fc462" target="_top" xlink:title=" ">
<polygon fill="white" stroke="#666666" points="262,-116.5 146,-116.5 146,-99.5 262,-99.5 262,-116.5"/>
<text text-anchor="middle" x="204" y="-106.1" font-family="SourceSans" font-size="8.00">a60::geo::safe_if_empty</text>
</a>
</g>
</g>
<!-- Node1&#45;&gt;Node3 -->
<g id="edge2" class="edge">
<title>Node1&#45;&gt;Node3</title>
<path fill="none" stroke="#63b8ff" d="M107.27,-108C116.46,-108 126.12,-108 135.63,-108"/>
<polygon fill="#63b8ff" stroke="#63b8ff" points="135.86,-111.5 145.86,-108 135.86,-104.5 135.86,-111.5"/>
</g>
<!-- Node4 -->
<g id="node4" class="node">
<title>Node4</title>
<g id="a_node4"><a xlink:href="namespacea60.html#aa5a85040742ee6c68d51e0b91131eac9" target="_top" xlink:title="Use whois service to get more information about the netblock.">
<polygon fill="white" stroke="#666666" points="265,-81.5 143,-81.5 143,-64.5 265,-64.5 265,-81.5"/>
<text text-anchor="middle" x="204" y="-71.1" font-family="SourceSans" font-size="8.00">a60::whois_to_meta_peer</text>
</a>
</g>
</g>
<!-- Node1&#45;&gt;Node4 -->
<g id="edge3" class="edge">
<title>Node1&#45;&gt;Node4</title>
<path fill="none" stroke="#63b8ff" d="M90.83,-99.44C110.77,-94.74 135.69,-88.86 156.98,-83.85"/>
<polygon fill="#63b8ff" stroke="#63b8ff" points="157.86,-87.23 166.79,-81.53 156.25,-80.42 157.86,-87.23"/>
</g>
<!-- Node5 -->
<g id="node5" class="node">
<title>Node5</title>
<g id="a_node5"><a xlink:href="namespacea60_1_1geo.html#a5f9ec94084fb0de60a38f64865ae7de6" target="_top" xlink:title="Convert ISO 2 to ISO 3.">
<polygon fill="white" stroke="#666666" points="410.5,-106 306.5,-106 306.5,-80 410.5,-80 410.5,-106"/>
<text text-anchor="start" x="314.5" y="-95.6" font-family="SourceSans" font-size="8.00">a60::geo::alpha_2_to</text>
<text text-anchor="middle" x="358.5" y="-86.6" font-family="SourceSans" font-size="8.00">_alpha_3</text>
</a>
</g>
</g>
<!-- Node4&#45;&gt;Node5 -->
<g id="edge4" class="edge">
<title>Node4&#45;&gt;Node5</title>
<path fill="none" stroke="#63b8ff" d="M265.27,-80.9C275.39,-82.23 285.9,-83.61 296.04,-84.94"/>
<polygon fill="#63b8ff" stroke="#63b8ff" points="295.67,-88.42 306.04,-86.25 296.58,-81.48 295.67,-88.42"/>
</g>
<!-- Node12 -->
<g id="node12" class="node">
<title>Node12</title>
<g id="a_node12"><a xlink:href="namespacea60_1_1constants.html#a2fd5efb0c88809132a730787d05a080a" target="_top" xlink:title=" ">
<polygon fill="white" stroke="#666666" points="416,-61.5 301,-61.5 301,-44.5 416,-44.5 416,-61.5"/>
<text text-anchor="middle" x="358.5" y="-51.1" font-family="SourceSans" font-size="8.00">a60::constants::comma</text>
</a>
</g>
</g>
<!-- Node4&#45;&gt;Node12 -->
<g id="edge11" class="edge">
<title>Node4&#45;&gt;Node12</title>
<path fill="none" stroke="#63b8ff" d="M265.27,-65.1C273.56,-64.01 282.11,-62.89 290.51,-61.79"/>
<polygon fill="#63b8ff" stroke="#63b8ff" points="291.19,-65.23 300.65,-60.46 290.28,-58.29 291.19,-65.23"/>
</g>
<!-- Node6 -->
<g id="node6" class="node">
<title>Node6</title>
<g id="a_node6"><a xlink:href="namespacea60_1_1geo.html#aa72939682c5a6daa05ddeb6103fde043" target="_top" xlink:title="ISO&#45;2 to ISO&#45;3.">
<polygon fill="white" stroke="#666666" points="573,-106 452,-106 452,-80 573,-80 573,-106"/>
<text text-anchor="start" x="460" y="-95.6" font-family="SourceSans" font-size="8.00">a60::geo::deserialize</text>
<text text-anchor="middle" x="512.5" y="-86.6" font-family="SourceSans" font-size="8.00">_json_to_iso_3166_2_map</text>
</a>
</g>
</g>
<!-- Node5&#45;&gt;Node6 -->
<g id="edge5" class="edge">
<title>Node5&#45;&gt;Node6</title>
<path fill="none" stroke="#63b8ff" d="M410.54,-93C420.6,-93 431.32,-93 441.88,-93"/>
<polygon fill="#63b8ff" stroke="#63b8ff" points="441.92,-96.5 451.92,-93 441.92,-89.5 441.92,-96.5"/>
</g>
<!-- Node7 -->
<g id="node7" class="node">
<title>Node7</title>
<g id="a_node7"><a xlink:href="namespacea60.html#a538d43bb9bfa488a54cea929736dbe2d" target="_top" xlink:title="Deserialize input file.">
<polygon fill="white" stroke="#666666" points="718,-186 614,-186 614,-160 718,-160 718,-186"/>
<text text-anchor="start" x="622" y="-175.6" font-family="SourceSans" font-size="8.00">a60::deserialize_json</text>
<text text-anchor="middle" x="666" y="-166.6" font-family="SourceSans" font-size="8.00">_to_dom</text>
</a>
</g>
</g>
<!-- Node6&#45;&gt;Node7 -->
<g id="edge6" class="edge">
<title>Node6&#45;&gt;Node7</title>
<path fill="none" stroke="#63b8ff" d="M532.7,-106.01C551.6,-118.49 581.54,-137.39 609,-151 612.48,-152.72 616.13,-154.41 619.83,-156.04"/>
<polygon fill="#63b8ff" stroke="#63b8ff" points="618.48,-159.27 629.05,-159.93 621.2,-152.82 618.48,-159.27"/>
</g>
<!-- Node8 -->
<g id="node8" class="node">
<title>Node8</title>
<g id="a_node8"><a xlink:href="namespacea60_1_1io.html#a16f17ea9e02c1975ca17b77e46cf7629" target="_top" xlink:title="Make sure a path ends in &#39;/&#39;;.">
<polygon fill="white" stroke="#666666" points="711,-141.5 621,-141.5 621,-124.5 711,-124.5 711,-141.5"/>
<text text-anchor="middle" x="666" y="-131.1" font-family="SourceSans" font-size="8.00">a60::io::end_path</text>
</a>
</g>
</g>
<!-- Node6&#45;&gt;Node8 -->
<g id="edge7" class="edge">
<title>Node6&#45;&gt;Node8</title>
<path fill="none" stroke="#63b8ff" d="M563.11,-106.1C582.33,-111.17 604.11,-116.92 622.59,-121.8"/>
<polygon fill="#63b8ff" stroke="#63b8ff" points="621.91,-125.24 632.48,-124.41 623.7,-118.48 621.91,-125.24"/>
</g>
<!-- Node9 -->
<g id="node9" class="node">
<title>Node9</title>
<g id="a_node9"><a xlink:href="namespacea60_1_1io.html#ac95e5271a27a23bc2336d84b3f821fa2" target="_top" xlink:title="Constant filesystem and run&#45;time resources.">
<polygon fill="white" stroke="#666666" points="718,-106 614,-106 614,-80 718,-80 718,-106"/>
<text text-anchor="start" x="622" y="-95.6" font-family="SourceSans" font-size="8.00">a60::io::get_run_time</text>
<text text-anchor="middle" x="666" y="-86.6" font-family="SourceSans" font-size="8.00">_resources</text>
</a>
</g>
</g>
<!-- Node6&#45;&gt;Node9 -->
<g id="edge8" class="edge">
<title>Node6&#45;&gt;Node9</title>
<path fill="none" stroke="#63b8ff" d="M573.38,-93C583.32,-93 593.65,-93 603.63,-93"/>
<polygon fill="#63b8ff" stroke="#63b8ff" points="603.87,-96.5 613.87,-93 603.87,-89.5 603.87,-96.5"/>
</g>
<!-- Node10 -->
<g id="node10" class="node">
<title>Node10</title>
<g id="a_node10"><a xlink:href="namespacea60.html#a0fc88c5c87f54b303a1856bc2aa76a45" target="_top" xlink:title=" ">
<polygon fill="white" stroke="#666666" points="723,-61.5 609,-61.5 609,-44.5 723,-44.5 723,-61.5"/>
<text text-anchor="middle" x="666" y="-51.1" font-family="SourceSans" font-size="8.00">a60::insert_to_iso_3166</text>
</a>
</g>
</g>
<!-- Node6&#45;&gt;Node10 -->
<g id="edge9" class="edge">
<title>Node6&#45;&gt;Node10</title>
<path fill="none" stroke="#63b8ff" d="M563.11,-79.9C582.33,-74.83 604.11,-69.08 622.59,-64.2"/>
<polygon fill="#63b8ff" stroke="#63b8ff" points="623.7,-67.52 632.48,-61.59 621.91,-60.76 623.7,-67.52"/>
</g>
<!-- Node11 -->
<g id="node11" class="node">
<title>Node11</title>
<g id="a_node11"><a xlink:href="namespacea60_1_1io.html#aa5fbb8ab63397dd45c4a54c0758935ef" target="_top" xlink:title="Sanity check input existence.">
<polygon fill="white" stroke="#666666" points="718,-26 614,-26 614,0 718,0 718,-26"/>
<text text-anchor="start" x="622" y="-15.6" font-family="SourceSans" font-size="8.00">a60::io::sanity_check</text>
<text text-anchor="middle" x="666" y="-6.6" font-family="SourceSans" font-size="8.00">_input</text>
</a>
</g>
</g>
<!-- Node6&#45;&gt;Node11 -->
<g id="edge10" class="edge">
<title>Node6&#45;&gt;Node11</title>
<path fill="none" stroke="#63b8ff" d="M533.5,-79.87C552.49,-67.7 582.06,-49.48 609,-36 613.02,-33.99 617.26,-32.01 621.54,-30.1"/>
<polygon fill="#63b8ff" stroke="#63b8ff" points="623.08,-33.25 630.88,-26.07 620.31,-26.82 623.08,-33.25"/>
</g>
</g>
</svg>
