<?xml version="1.0" encoding="UTF-8" standalone="no"?>
<!DOCTYPE svg PUBLIC "-//W3C//DTD SVG 1.1//EN"
 "http://www.w3.org/Graphics/SVG/1.1/DTD/svg11.dtd">
<!-- Generated by graphviz version 5.0.0 (0)
 -->
<!-- Title: a60::augment_carto_starlink_gateways Pages: 1 -->
<svg width="563pt" height="170pt"
 viewBox="0.00 0.00 563.00 169.50" xmlns="http://www.w3.org/2000/svg" xmlns:xlink="http://www.w3.org/1999/xlink">
<g id="graph0" class="graph" transform="scale(1 1) rotate(0) translate(4 165.5)">
<title>a60::augment_carto_starlink_gateways</title>
<!-- Node1 -->
<g id="node1" class="node">
<title>Node1</title>
<g id="a_node1"><a xlink:title="Augment Starlink ground gateways object version.">
<polygon fill="#999999" stroke="#666666" points="100,-121.5 0,-121.5 0,-95.5 100,-95.5 100,-121.5"/>
<text text-anchor="start" x="8" y="-111.1" font-family="SourceSans" font-size="8.00">a60::augment_carto</text>
<text text-anchor="middle" x="50" y="-102.1" font-family="SourceSans" font-size="8.00">_starlink_gateways</text>
</a>
</g>
</g>
<!-- Node2 -->
<g id="node2" class="node">
<title>Node2</title>
<g id="a_node2"><a xlink:href="namespacea60_1_1io.html#ac95e5271a27a23bc2336d84b3f821fa2" target="_top" xlink:title="Constant filesystem and run&#45;time resources.">
<polygon fill="white" stroke="#666666" points="244,-143.5 140,-143.5 140,-117.5 244,-117.5 244,-143.5"/>
<text text-anchor="start" x="148" y="-133.1" font-family="SourceSans" font-size="8.00">a60::io::get_run_time</text>
<text text-anchor="middle" x="192" y="-124.1" font-family="SourceSans" font-size="8.00">_resources</text>
</a>
</g>
</g>
<!-- Node1&#45;&gt;Node2 -->
<g id="edge1" class="edge">
<title>Node1&#45;&gt;Node2</title>
<path fill="none" stroke="#63b8ff" d="M100.36,-116.26C109.82,-117.74 119.84,-119.32 129.63,-120.86"/>
<polygon fill="#63b8ff" stroke="#63b8ff" points="129.3,-124.35 139.72,-122.44 130.38,-117.43 129.3,-124.35"/>
</g>
<!-- Node3 -->
<g id="node3" class="node">
<title>Node3</title>
<g id="a_node3"><a xlink:href="namespacea60.html#a5d00f2b761b78b232d5b3494d85ae4a9" target="_top" xlink:title="Create triangles at starlink gateways.">
<polygon fill="white" stroke="#666666" points="248,-99.5 136,-99.5 136,-73.5 248,-73.5 248,-99.5"/>
<text text-anchor="start" x="144" y="-89.1" font-family="SourceSans" font-size="8.00">a60::starlink_gateways</text>
<text text-anchor="middle" x="192" y="-80.1" font-family="SourceSans" font-size="8.00">_geojson</text>
</a>
</g>
</g>
<!-- Node1&#45;&gt;Node3 -->
<g id="edge2" class="edge">
<title>Node1&#45;&gt;Node3</title>
<path fill="none" stroke="#63b8ff" d="M100.36,-100.74C108.62,-99.45 117.3,-98.08 125.89,-96.73"/>
<polygon fill="#63b8ff" stroke="#63b8ff" points="126.55,-100.17 135.89,-95.16 125.46,-93.26 126.55,-100.17"/>
</g>
<!-- Node4 -->
<g id="node4" class="node">
<title>Node4</title>
<g id="a_node4"><a xlink:href="namespacea60.html#af45982273a7a2e61b6aaa436081238c0" target="_top" xlink:title="Load JSON file to in&#45;memory DOM.">
<polygon fill="white" stroke="#666666" points="395,-161.5 291,-161.5 291,-135.5 395,-135.5 395,-161.5"/>
<text text-anchor="start" x="299" y="-151.1" font-family="SourceSans" font-size="8.00">a60::deserialize_json</text>
<text text-anchor="middle" x="343" y="-142.1" font-family="SourceSans" font-size="8.00">_to_dom_object</text>
</a>
</g>
</g>
<!-- Node3&#45;&gt;Node4 -->
<g id="edge3" class="edge">
<title>Node3&#45;&gt;Node4</title>
<path fill="none" stroke="#63b8ff" d="M225.91,-99.53C233.2,-102.45 240.87,-105.56 248,-108.5 265.82,-115.85 285.44,-124.17 302.14,-131.31"/>
<polygon fill="#63b8ff" stroke="#63b8ff" points="301.02,-134.64 311.59,-135.36 303.78,-128.21 301.02,-134.64"/>
</g>
<!-- Node6 -->
<g id="node6" class="node">
<title>Node6</title>
<g id="a_node6"><a xlink:href="namespacea60_1_1constants.html#ac27c77e4606552ae5f74a1c21dd9258e" target="_top" xlink:title=" ">
<polygon fill="white" stroke="#666666" points="555,-116 438,-116 438,-99 555,-99 555,-116"/>
<text text-anchor="middle" x="496.5" y="-105.6" font-family="SourceSans" font-size="8.00">a60::constants::newline</text>
</a>
</g>
</g>
<!-- Node3&#45;&gt;Node6 -->
<g id="edge5" class="edge">
<title>Node3&#45;&gt;Node6</title>
<path fill="none" stroke="#63b8ff" d="M248.13,-90.33C298.64,-93.83 373.57,-99.04 427.72,-102.79"/>
<polygon fill="#63b8ff" stroke="#63b8ff" points="427.7,-106.3 437.92,-103.5 428.18,-99.32 427.7,-106.3"/>
</g>
<!-- Node7 -->
<g id="node7" class="node">
<title>Node7</title>
<g id="a_node7"><a xlink:href="namespacea60.html#a3fdf876ab1d06c5cfd12a9018c231dd8" target="_top" xlink:title=" ">
<polygon fill="white" stroke="#666666" points="402,-79.5 284,-79.5 284,-53.5 402,-53.5 402,-79.5"/>
<text text-anchor="start" x="292" y="-69.1" font-family="SourceSans" font-size="8.00">a60::point_from_geojson</text>
<text text-anchor="middle" x="343" y="-60.1" font-family="SourceSans" font-size="8.00">_coordinate</text>
</a>
</g>
</g>
<!-- Node3&#45;&gt;Node7 -->
<g id="edge6" class="edge">
<title>Node3&#45;&gt;Node7</title>
<path fill="none" stroke="#63b8ff" d="M248.06,-79.11C256.46,-77.98 265.22,-76.81 273.86,-75.65"/>
<polygon fill="#63b8ff" stroke="#63b8ff" points="274.47,-79.1 283.92,-74.3 273.54,-72.16 274.47,-79.1"/>
</g>
<!-- Node9 -->
<g id="node9" class="node">
<title>Node9</title>
<g id="a_node9"><a xlink:href="namespacea60_1_1constants.html#a01d9786063fb572d9389b0cd207bbe53" target="_top" xlink:title=" ">
<polygon fill="white" stroke="#666666" points="392,-17 294,-17 294,0 392,0 392,-17"/>
<text text-anchor="middle" x="343" y="-6.6" font-family="SourceSans" font-size="8.00">a60::constants::tab</text>
</a>
</g>
</g>
<!-- Node3&#45;&gt;Node9 -->
<g id="edge9" class="edge">
<title>Node3&#45;&gt;Node9</title>
<path fill="none" stroke="#63b8ff" d="M217.94,-73.44C245.36,-59.09 289.17,-36.16 316.72,-21.73"/>
<polygon fill="#63b8ff" stroke="#63b8ff" points="318.5,-24.75 325.74,-17.01 315.26,-18.55 318.5,-24.75"/>
</g>
<!-- Node5 -->
<g id="node5" class="node">
<title>Node5</title>
<g id="a_node5"><a xlink:href="namespacea60.html#a538d43bb9bfa488a54cea929736dbe2d" target="_top" xlink:title="Deserialize input file.">
<polygon fill="white" stroke="#666666" points="548.5,-161.5 444.5,-161.5 444.5,-135.5 548.5,-135.5 548.5,-161.5"/>
<text text-anchor="start" x="452.5" y="-151.1" font-family="SourceSans" font-size="8.00">a60::deserialize_json</text>
<text text-anchor="middle" x="496.5" y="-142.1" font-family="SourceSans" font-size="8.00">_to_dom</text>
</a>
</g>
</g>
<!-- Node4&#45;&gt;Node5 -->
<g id="edge4" class="edge">
<title>Node4&#45;&gt;Node5</title>
<path fill="none" stroke="#63b8ff" d="M395.29,-148.5C407.75,-148.5 421.21,-148.5 434.09,-148.5"/>
<polygon fill="#63b8ff" stroke="#63b8ff" points="434.26,-152 444.26,-148.5 434.26,-145 434.26,-152"/>
</g>
<!-- Node7&#45;&gt;Node6 -->
<g id="edge7" class="edge">
<title>Node7&#45;&gt;Node6</title>
<path fill="none" stroke="#63b8ff" d="M392.35,-79.59C412.17,-84.95 434.88,-91.1 453.94,-96.25"/>
<polygon fill="#63b8ff" stroke="#63b8ff" points="453.26,-99.69 463.82,-98.93 455.08,-92.94 453.26,-99.69"/>
</g>
<!-- Node8 -->
<g id="node8" class="node">
<title>Node8</title>
<g id="a_node8"><a xlink:href="structa60_1_1carto_1_1cartography.html#a57e14cabb4993189316e369a27752a73" target="_top" xlink:title=" ">
<polygon fill="white" stroke="#666666" points="554,-79.5 439,-79.5 439,-53.5 554,-53.5 554,-79.5"/>
<text text-anchor="start" x="447" y="-69.1" font-family="SourceSans" font-size="8.00">a60::carto::cartography</text>
<text text-anchor="middle" x="496.5" y="-60.1" font-family="SourceSans" font-size="8.00">::to_point_2d</text>
</a>
</g>
</g>
<!-- Node7&#45;&gt;Node8 -->
<g id="edge8" class="edge">
<title>Node7&#45;&gt;Node8</title>
<path fill="none" stroke="#63b8ff" d="M402.14,-66.5C410.78,-66.5 419.74,-66.5 428.54,-66.5"/>
<polygon fill="#63b8ff" stroke="#63b8ff" points="428.76,-70 438.76,-66.5 428.76,-63 428.76,-70"/>
</g>
<!-- Node9&#45;&gt;Node9 -->
<g id="edge10" class="edge">
<title>Node9&#45;&gt;Node9</title>
<path fill="none" stroke="#63b8ff" d="M320.65,-17.19C308.3,-25.67 315.75,-35 343,-35 361.31,-35 370.68,-30.79 371.11,-25.45"/>
<polygon fill="#63b8ff" stroke="#63b8ff" points="373.94,-23.39 365.35,-17.19 368.19,-27.39 373.94,-23.39"/>
</g>
</g>
</svg>
