<?xml version="1.0" encoding="UTF-8" standalone="no"?>
<!DOCTYPE svg PUBLIC "-//W3C//DTD SVG 1.1//EN"
 "http://www.w3.org/Graphics/SVG/1.1/DTD/svg11.dtd">
<!-- Generated by graphviz version 5.0.0 (0)
 -->
<!-- Title: a60::augment_weighted_ray_meta_peers Pages: 1 -->
<svg width="276pt" height="122pt"
 viewBox="0.00 0.00 276.00 122.00" xmlns="http://www.w3.org/2000/svg" xmlns:xlink="http://www.w3.org/1999/xlink">
<g id="graph0" class="graph" transform="scale(1 1) rotate(0) translate(4 118)">
<title>a60::augment_weighted_ray_meta_peers</title>
<!-- Node1 -->
<g id="node1" class="node">
<title>Node1</title>
<g id="a_node1"><a xlink:title=" ">
<polygon fill="#999999" stroke="#666666" points="117,-70 0,-70 0,-44 117,-44 117,-70"/>
<text text-anchor="start" x="8" y="-59.6" font-family="SourceSans" font-size="8.00">a60::augment_weighted</text>
<text text-anchor="middle" x="58.5" y="-50.6" font-family="SourceSans" font-size="8.00">_ray_meta_peers</text>
</a>
</g>
</g>
<!-- Node2 -->
<g id="node2" class="node">
<title>Node2</title>
<g id="a_node2"><a xlink:href="namespacea60.html#a63bf2b0abf68edc3f3e74a0811fe771b" target="_top" xlink:title="Error checking support. Null Island Check (aka latitude and longitude set to zero).">
<polygon fill="white" stroke="#666666" points="264,-114 157,-114 157,-88 264,-88 264,-114"/>
<text text-anchor="start" x="165" y="-103.6" font-family="SourceSans" font-size="8.00">a60::is_meta_peer_on</text>
<text text-anchor="middle" x="210.5" y="-94.6" font-family="SourceSans" font-size="8.00">_null_island</text>
</a>
</g>
</g>
<!-- Node1&#45;&gt;Node2 -->
<g id="edge1" class="edge">
<title>Node1&#45;&gt;Node2</title>
<path fill="none" stroke="#63b8ff" d="M104.1,-70.08C120.2,-74.8 138.55,-80.19 155.37,-85.12"/>
<polygon fill="#63b8ff" stroke="#63b8ff" points="154.49,-88.51 165.07,-87.97 156.46,-81.79 154.49,-88.51"/>
</g>
<!-- Node3 -->
<g id="node3" class="node">
<title>Node3</title>
<g id="a_node3"><a xlink:href="structa60_1_1carto_1_1cartography.html#a57e14cabb4993189316e369a27752a73" target="_top" xlink:title=" ">
<polygon fill="white" stroke="#666666" points="268,-70 153,-70 153,-44 268,-44 268,-70"/>
<text text-anchor="start" x="161" y="-59.6" font-family="SourceSans" font-size="8.00">a60::carto::cartography</text>
<text text-anchor="middle" x="210.5" y="-50.6" font-family="SourceSans" font-size="8.00">::to_point_2d</text>
</a>
</g>
</g>
<!-- Node1&#45;&gt;Node3 -->
<g id="edge2" class="edge">
<title>Node1&#45;&gt;Node3</title>
<path fill="none" stroke="#63b8ff" d="M117.06,-57C125.41,-57 134.05,-57 142.56,-57"/>
<polygon fill="#63b8ff" stroke="#63b8ff" points="142.83,-60.5 152.83,-57 142.83,-53.5 142.83,-60.5"/>
</g>
<!-- Node4 -->
<g id="node4" class="node">
<title>Node4</title>
<g id="a_node4"><a xlink:href="namespacea60.html#acc0aae0c4ebc05d286eda7104904fb2a" target="_top" xlink:title="Weigh by similar latitude and logitude.">
<polygon fill="white" stroke="#666666" points="268,-26 153,-26 153,0 268,0 268,-26"/>
<text text-anchor="start" x="161" y="-15.6" font-family="SourceSans" font-size="8.00">a60::weigh_meta_peers</text>
<text text-anchor="middle" x="210.5" y="-6.6" font-family="SourceSans" font-size="8.00">_via_geo_coordinates</text>
</a>
</g>
</g>
<!-- Node1&#45;&gt;Node4 -->
<g id="edge3" class="edge">
<title>Node1&#45;&gt;Node4</title>
<path fill="none" stroke="#63b8ff" d="M104.1,-43.92C120.2,-39.2 138.55,-33.81 155.37,-28.88"/>
<polygon fill="#63b8ff" stroke="#63b8ff" points="156.46,-32.21 165.07,-26.03 154.49,-25.49 156.46,-32.21"/>
</g>
</g>
</svg>
