<?xml version="1.0" encoding="UTF-8" standalone="no"?>
<!DOCTYPE svg PUBLIC "-//W3C//DTD SVG 1.1//EN"
 "http://www.w3.org/Graphics/SVG/1.1/DTD/svg11.dtd">
<!-- Generated by graphviz version 5.0.0 (0)
 -->
<!-- Title: a60::equal_at_and_previous Pages: 1 -->
<svg width="443pt" height="105pt"
 viewBox="0.00 0.00 443.00 105.00" xmlns="http://www.w3.org/2000/svg" xmlns:xlink="http://www.w3.org/1999/xlink">
<g id="graph0" class="graph" transform="scale(1 1) rotate(0) translate(4 101)">
<title>a60::equal_at_and_previous</title>
<!-- Node1 -->
<g id="node1" class="node">
<title>Node1</title>
<g id="a_node1"><a xlink:title="True if s == day&#45;0007 and match &lt;= day&#45;0007 (aka day&#45;0007, day&#45;0006, day&#45;0005, ......">
<polygon fill="#999999" stroke="#666666" points="131,-57 0,-57 0,-40 131,-40 131,-57"/>
<text text-anchor="middle" x="65.5" y="-46.6" font-family="SourceSans" font-size="8.00">a60::equal_at_and_previous</text>
</a>
</g>
</g>
<!-- Node2 -->
<g id="node2" class="node">
<title>Node2</title>
<g id="a_node2"><a xlink:href="namespacea60.html#a8ee87a5f48a866e439bb39595158a0e3" target="_top" xlink:title="True if s == day&#45;0007 and match == day&#45;0007.">
<polygon fill="white" stroke="#666666" points="262.5,-97 188.5,-97 188.5,-80 262.5,-80 262.5,-97"/>
<text text-anchor="middle" x="225.5" y="-86.6" font-family="SourceSans" font-size="8.00">a60::equal_at</text>
</a>
</g>
</g>
<!-- Node1&#45;&gt;Node2 -->
<g id="edge1" class="edge">
<title>Node1&#45;&gt;Node2</title>
<path fill="none" stroke="#63b8ff" d="M100.39,-57.08C123.93,-63.04 155.5,-71.03 180.9,-77.46"/>
<polygon fill="#63b8ff" stroke="#63b8ff" points="180.11,-80.87 190.66,-79.93 181.83,-74.09 180.11,-80.87"/>
</g>
<!-- Node3 -->
<g id="node3" class="node">
<title>Node3</title>
<g id="a_node3"><a xlink:href="structa60_1_1collection.html#ab234addb5725bb5900b44f55ec1aae10" target="_top" xlink:title=" ">
<polygon fill="white" stroke="#666666" points="283,-61.5 168,-61.5 168,-35.5 283,-35.5 283,-61.5"/>
<text text-anchor="start" x="176" y="-51.1" font-family="SourceSans" font-size="8.00">a60::collection::mangle</text>
<text text-anchor="middle" x="225.5" y="-42.1" font-family="SourceSans" font-size="8.00">_with_id</text>
</a>
</g>
</g>
<!-- Node1&#45;&gt;Node3 -->
<g id="edge2" class="edge">
<title>Node1&#45;&gt;Node3</title>
<path fill="none" stroke="#63b8ff" d="M131.22,-48.5C139.98,-48.5 148.98,-48.5 157.77,-48.5"/>
<polygon fill="#63b8ff" stroke="#63b8ff" points="157.98,-52 167.98,-48.5 157.98,-45 157.98,-52"/>
</g>
<!-- Node5 -->
<g id="node5" class="node">
<title>Node5</title>
<g id="a_node5"><a xlink:href="namespacea60_1_1constants.html#ac27c77e4606552ae5f74a1c21dd9258e" target="_top" xlink:title=" ">
<polygon fill="white" stroke="#666666" points="284,-17 167,-17 167,0 284,0 284,-17"/>
<text text-anchor="middle" x="225.5" y="-6.6" font-family="SourceSans" font-size="8.00">a60::constants::newline</text>
</a>
</g>
</g>
<!-- Node1&#45;&gt;Node5 -->
<g id="edge4" class="edge">
<title>Node1&#45;&gt;Node5</title>
<path fill="none" stroke="#63b8ff" d="M100.39,-39.92C123.93,-33.96 155.5,-25.97 180.9,-19.54"/>
<polygon fill="#63b8ff" stroke="#63b8ff" points="181.83,-22.91 190.66,-17.07 180.11,-16.13 181.83,-22.91"/>
</g>
<!-- Node4 -->
<g id="node4" class="node">
<title>Node4</title>
<g id="a_node4"><a xlink:href="structa60_1_1collection.html#a899f781ad983b2ec1f0da35a5d3f8b54" target="_top" xlink:title=" ">
<polygon fill="white" stroke="#666666" points="435,-66 320,-66 320,-31 435,-31 435,-66"/>
<text text-anchor="start" x="328" y="-55.6" font-family="SourceSans" font-size="8.00">a60::collection::mangle</text>
<text text-anchor="start" x="328" y="-46.6" font-family="SourceSans" font-size="8.00">_duration_significant</text>
<text text-anchor="middle" x="377.5" y="-37.6" font-family="SourceSans" font-size="8.00">_digits</text>
</a>
</g>
</g>
<!-- Node3&#45;&gt;Node4 -->
<g id="edge3" class="edge">
<title>Node3&#45;&gt;Node4</title>
<path fill="none" stroke="#63b8ff" d="M283.21,-48.5C291.8,-48.5 300.72,-48.5 309.5,-48.5"/>
<polygon fill="#63b8ff" stroke="#63b8ff" points="309.71,-52 319.71,-48.5 309.71,-45 309.71,-52"/>
</g>
</g>
</svg>
