<?xml version="1.0" encoding="UTF-8" standalone="no"?>
<!DOCTYPE svg PUBLIC "-//W3C//DTD SVG 1.1//EN"
 "http://www.w3.org/Graphics/SVG/1.1/DTD/svg11.dtd">
<!-- Generated by graphviz version 5.0.0 (0)
 -->
<!-- Title: a60::augment_carto_composite Pages: 1 -->
<!--zoomable 782 -->
<svg id="main" version="1.1" xmlns="http://www.w3.org/2000/svg" xmlns:xlink="http://www.w3.org/1999/xlink" xml:space="preserve" onload="init(evt)">
<style type="text/css"><![CDATA[
.edge:hover path { stroke: red; }
.edge:hover polygon { stroke: red; fill: red; }
]]></style>
<script type="text/javascript"><![CDATA[
var edges = document.getElementsByTagName('g');
if (edges && edges.length) {
  for (var i=0;i<edges.length;i++) {
    if (edges[i].id.substr(0,4)=='edge') {
      edges[i].setAttribute('class','edge');
    }
  }
}
]]></script>
        <defs>
                <circle id="rim" cx="0" cy="0" r="7"/>
                <circle id="rim2" cx="0" cy="0" r="3.5"/>
                <g id="zoomPlus">
                        <use xlink:href="#rim" fill="#404040">
                                <set attributeName="fill" to="#808080" begin="zoomplus.mouseover" end="zoomplus.mouseout"/>
                        </use>
                        <path d="M-4,0h8M0,-4v8" fill="none" stroke="white" stroke-width="1.5" pointer-events="none"/>
                </g>
                <g id="zoomMin">
                        <use xlink:href="#rim" fill="#404040">
                                <set attributeName="fill" to="#808080" begin="zoomminus.mouseover" end="zoomminus.mouseout"/>
                        </use>
                        <path d="M-4,0h8" fill="none" stroke="white" stroke-width="1.5" pointer-events="none"/>
                </g>
                <g id="dirArrow">
                        <path fill="none" stroke="white" stroke-width="1.5" d="M0,-3.0v7 M-2.5,-0.5L0,-3.0L2.5,-0.5"/>
                </g>
               <g id="resetDef">
                       <use xlink:href="#rim2" fill="#404040">
                               <set attributeName="fill" to="#808080" begin="reset.mouseover" end="reset.mouseout"/>
                       </use>
               </g>
        </defs>

<script type="text/javascript">
var viewWidth = 1026;
var viewHeight = 782;
var sectionId = 'dynsection-4';
</script>
<script xlink:href="svgpan.js"/>
<svg id="graph" class="graph">
<g id="viewport">
<title>a60::augment_carto_composite</title>
<!-- Node1 -->
<g id="node1" class="node">
<title>Node1</title>
<g id="a_node1"><a xlink:title="Aggregate for composites.">
<polygon fill="#999999" stroke="#666666" points="100,-310.5 0,-310.5 0,-284.5 100,-284.5 100,-310.5"/>
<text text-anchor="start" x="8" y="-300.1" font-family="SourceSans" font-size="8.00">a60::augment_carto</text>
<text text-anchor="middle" x="50" y="-291.1" font-family="SourceSans" font-size="8.00">_composite</text>
</a>
</g>
</g>
<!-- Node2 -->
<g id="node2" class="node">
<title>Node2</title>
<g id="a_node2"><a xlink:href="namespacea60.html#a7689c37750ba7a14c111ca3c52abe5eb" target="_top" xlink:title="Augment Tor Exit Nodes, object version. len starx 44x30 == 20.">
<polygon fill="white" stroke="#666666" points="239,-572.5 139,-572.5 139,-546.5 239,-546.5 239,-572.5"/>
<text text-anchor="start" x="147" y="-562.1" font-family="SourceSans" font-size="8.00">a60::augment_carto</text>
<text text-anchor="middle" x="189" y="-553.1" font-family="SourceSans" font-size="8.00">_exit_nodes</text>
</a>
</g>
</g>
<!-- Node1&#45;&gt;Node2 -->
<g id="edge1" class="edge">
<title>Node1&#45;&gt;Node2</title>
<path fill="none" stroke="#63b8ff" d="M57.98,-310.85C80.11,-353.17 148.85,-484.63 176.4,-537.32"/>
<polygon fill="#63b8ff" stroke="#63b8ff" points="173.46,-539.25 181.19,-546.48 179.66,-536 173.46,-539.25"/>
</g>
<!-- Node21 -->
<g id="node21" class="node">
<title>Node21</title>
<g id="a_node21"><a xlink:href="namespacea60.html#ac8c1102be27b45984c799f968d7960e6" target="_top" xlink:title="Augment Fiber / Submarine cables, object version.">
<polygon fill="white" stroke="#666666" points="239,-197.5 139,-197.5 139,-171.5 239,-171.5 239,-197.5"/>
<text text-anchor="start" x="147" y="-187.1" font-family="SourceSans" font-size="8.00">a60::augment_carto</text>
<text text-anchor="middle" x="189" y="-178.1" font-family="SourceSans" font-size="8.00">_fiber</text>
</a>
</g>
</g>
<!-- Node1&#45;&gt;Node21 -->
<g id="edge23" class="edge">
<title>Node1&#45;&gt;Node21</title>
<path fill="none" stroke="#63b8ff" d="M66.98,-284.32C90.91,-264.58 136.19,-227.23 164.07,-204.24"/>
<polygon fill="#63b8ff" stroke="#63b8ff" points="166.63,-206.66 172.12,-197.6 162.18,-201.26 166.63,-206.66"/>
</g>
<!-- Node33 -->
<g id="node33" class="node">
<title>Node33</title>
<g id="a_node33"><a xlink:href="namespacea60.html#a7151c0e66650e0a838f96f1bc5cf9d64" target="_top" xlink:title="Augment Internet Exchanges object version.">
<polygon fill="white" stroke="#666666" points="239.5,-354.5 138.5,-354.5 138.5,-328.5 239.5,-328.5 239.5,-354.5"/>
<text text-anchor="start" x="146.5" y="-344.1" font-family="SourceSans" font-size="8.00">a60::augment_carto</text>
<text text-anchor="middle" x="189" y="-335.1" font-family="SourceSans" font-size="8.00">_internet_exchanges</text>
</a>
</g>
</g>
<!-- Node1&#45;&gt;Node33 -->
<g id="edge42" class="edge">
<title>Node1&#45;&gt;Node33</title>
<path fill="none" stroke="#63b8ff" d="M91.73,-310.58C106.1,-315.2 122.42,-320.44 137.5,-325.28"/>
<polygon fill="#63b8ff" stroke="#63b8ff" points="136.6,-328.67 147.19,-328.39 138.74,-322 136.6,-328.67"/>
</g>
<!-- Node35 -->
<g id="node35" class="node">
<title>Node35</title>
<g id="a_node35"><a xlink:href="namespacea60.html#a9bd046b95dceb868b8852784c3764562" target="_top" xlink:title="Augment Starlink ground gateways object version.">
<polygon fill="white" stroke="#666666" points="239,-310.5 139,-310.5 139,-284.5 239,-284.5 239,-310.5"/>
<text text-anchor="start" x="147" y="-300.1" font-family="SourceSans" font-size="8.00">a60::augment_carto</text>
<text text-anchor="middle" x="189" y="-291.1" font-family="SourceSans" font-size="8.00">_starlink_gateways</text>
</a>
</g>
</g>
<!-- Node1&#45;&gt;Node35 -->
<g id="edge48" class="edge">
<title>Node1&#45;&gt;Node35</title>
<path fill="none" stroke="#63b8ff" d="M100.07,-297.5C109.32,-297.5 119.08,-297.5 128.61,-297.5"/>
<polygon fill="#63b8ff" stroke="#63b8ff" points="128.81,-301 138.81,-297.5 128.81,-294 128.81,-301"/>
</g>
<!-- Node37 -->
<g id="node37" class="node">
<title>Node37</title>
<g id="a_node37"><a xlink:href="namespacea60.html#a1bf91ba66297e089d99c49d6a376c0ad" target="_top" xlink:title="NEW STYLE First composite with map, black on white.">
<polygon fill="white" stroke="#666666" points="242,-78 136,-78 136,-61 242,-61 242,-78"/>
<text text-anchor="middle" x="189" y="-67.6" font-family="SourceSans" font-size="8.00">a60::make_map_base</text>
</a>
</g>
</g>
<!-- Node1&#45;&gt;Node37 -->
<g id="edge55" class="edge">
<title>Node1&#45;&gt;Node37</title>
<path fill="none" stroke="#63b8ff" d="M58.96,-284.26C82.42,-245.2 151.34,-130.5 177.64,-86.74"/>
<polygon fill="#63b8ff" stroke="#63b8ff" points="180.69,-88.46 182.84,-78.09 174.69,-84.86 180.69,-88.46"/>
</g>
<!-- Node3 -->
<g id="node3" class="node">
<title>Node3</title>
<g id="a_node3"><a xlink:href="namespacea60.html#ae300214a10d2da331791de0275d9df6c" target="_top" xlink:title=" ">
<polygon fill="white" stroke="#666666" points="397,-550.5 281,-550.5 281,-524.5 397,-524.5 397,-550.5"/>
<text text-anchor="start" x="289" y="-540.1" font-family="SourceSans" font-size="8.00">a60::augment_ray_meta</text>
<text text-anchor="middle" x="339" y="-531.1" font-family="SourceSans" font-size="8.00">_peers</text>
</a>
</g>
</g>
<!-- Node2&#45;&gt;Node3 -->
<g id="edge2" class="edge">
<title>Node2&#45;&gt;Node3</title>
<path fill="none" stroke="#63b8ff" d="M239.28,-552.17C249.41,-550.67 260.24,-549.06 270.88,-547.48"/>
<polygon fill="#63b8ff" stroke="#63b8ff" points="271.62,-550.91 281,-545.97 270.59,-543.98 271.62,-550.91"/>
</g>
<!-- Node6 -->
<g id="node6" class="node">
<title>Node6</title>
<g id="a_node6"><a xlink:href="namespacea60.html#a3c58a6378d57386252f6ec31d1fbb808" target="_top" xlink:title="Cache for whois calls.">
<polygon fill="white" stroke="#666666" points="393,-594.5 285,-594.5 285,-568.5 393,-568.5 393,-594.5"/>
<text text-anchor="start" x="293" y="-584.1" font-family="SourceSans" font-size="8.00">a60::cached_whois_to</text>
<text text-anchor="middle" x="339" y="-575.1" font-family="SourceSans" font-size="8.00">_meta_peer</text>
</a>
</g>
</g>
<!-- Node2&#45;&gt;Node6 -->
<g id="edge5" class="edge">
<title>Node2&#45;&gt;Node6</title>
<path fill="none" stroke="#63b8ff" d="M239.28,-566.83C250.71,-568.52 263.03,-570.36 274.96,-572.13"/>
<polygon fill="#63b8ff" stroke="#63b8ff" points="274.46,-575.59 284.87,-573.6 275.49,-568.67 274.46,-575.59"/>
</g>
<!-- Node16 -->
<g id="node16" class="node">
<title>Node16</title>
<g id="a_node16"><a xlink:href="namespacea60.html#a241f1edd5dab1f67b02a080b2833238c" target="_top" xlink:title="Create list of current Tor Exit Nodes.">
<polygon fill="white" stroke="#666666" points="390,-646.5 288,-646.5 288,-620.5 390,-620.5 390,-646.5"/>
<text text-anchor="start" x="296" y="-636.1" font-family="SourceSans" font-size="8.00">a60::exit_node_meta</text>
<text text-anchor="middle" x="339" y="-627.1" font-family="SourceSans" font-size="8.00">_peers</text>
</a>
</g>
</g>
<!-- Node2&#45;&gt;Node16 -->
<g id="edge15" class="edge">
<title>Node2&#45;&gt;Node16</title>
<path fill="none" stroke="#63b8ff" d="M216.12,-572.56C240.17,-584.58 276.05,-602.52 302.65,-615.83"/>
<polygon fill="#63b8ff" stroke="#63b8ff" points="301.13,-618.98 311.64,-620.32 304.27,-612.72 301.13,-618.98"/>
</g>
<!-- Node4 -->
<g id="node4" class="node">
<title>Node4</title>
<g id="a_node4"><a xlink:href="namespacea60.html#a63bf2b0abf68edc3f3e74a0811fe771b" target="_top" xlink:title="Error checking support. Null Island Check (aka latitude and longitude set to zero).">
<polygon fill="white" stroke="#666666" points="550.5,-550.5 443.5,-550.5 443.5,-524.5 550.5,-524.5 550.5,-550.5"/>
<text text-anchor="start" x="451.5" y="-540.1" font-family="SourceSans" font-size="8.00">a60::is_meta_peer_on</text>
<text text-anchor="middle" x="497" y="-531.1" font-family="SourceSans" font-size="8.00">_null_island</text>
</a>
</g>
</g>
<!-- Node3&#45;&gt;Node4 -->
<g id="edge3" class="edge">
<title>Node3&#45;&gt;Node4</title>
<path fill="none" stroke="#63b8ff" d="M397.2,-537.5C408.91,-537.5 421.28,-537.5 433.17,-537.5"/>
<polygon fill="#63b8ff" stroke="#63b8ff" points="433.46,-541 443.46,-537.5 433.46,-534 433.46,-541"/>
</g>
<!-- Node5 -->
<g id="node5" class="node">
<title>Node5</title>
<g id="a_node5"><a xlink:href="structa60_1_1carto_1_1cartography.html#a57e14cabb4993189316e369a27752a73" target="_top" xlink:title=" ">
<polygon fill="white" stroke="#666666" points="710,-352.5 595,-352.5 595,-326.5 710,-326.5 710,-352.5"/>
<text text-anchor="start" x="603" y="-342.1" font-family="SourceSans" font-size="8.00">a60::carto::cartography</text>
<text text-anchor="middle" x="652.5" y="-333.1" font-family="SourceSans" font-size="8.00">::to_point_2d</text>
</a>
</g>
</g>
<!-- Node3&#45;&gt;Node5 -->
<g id="edge4" class="edge">
<title>Node3&#45;&gt;Node5</title>
<path fill="none" stroke="#63b8ff" d="M360.92,-524.2C415.01,-489.82 559.59,-397.92 622.07,-358.21"/>
<polygon fill="#63b8ff" stroke="#63b8ff" points="624.11,-361.06 630.67,-352.74 620.35,-355.15 624.11,-361.06"/>
</g>
<!-- Node7 -->
<g id="node7" class="node">
<title>Node7</title>
<g id="a_node7"><a xlink:href="namespacea60.html#aa5a85040742ee6c68d51e0b91131eac9" target="_top" xlink:title="Use whois service to get more information about the netblock.">
<polygon fill="white" stroke="#666666" points="558,-590 436,-590 436,-573 558,-573 558,-590"/>
<text text-anchor="middle" x="497" y="-579.6" font-family="SourceSans" font-size="8.00">a60::whois_to_meta_peer</text>
</a>
</g>
</g>
<!-- Node6&#45;&gt;Node7 -->
<g id="edge6" class="edge">
<title>Node6&#45;&gt;Node7</title>
<path fill="none" stroke="#63b8ff" d="M393.25,-581.5C403.62,-581.5 414.64,-581.5 425.46,-581.5"/>
<polygon fill="#63b8ff" stroke="#63b8ff" points="425.75,-585 435.75,-581.5 425.75,-578 425.75,-585"/>
</g>
<!-- Node8 -->
<g id="node8" class="node">
<title>Node8</title>
<g id="a_node8"><a xlink:href="namespacea60_1_1geo.html#a5f9ec94084fb0de60a38f64865ae7de6" target="_top" xlink:title="Convert ISO 2 to ISO 3.">
<polygon fill="white" stroke="#666666" points="704.5,-626.5 600.5,-626.5 600.5,-600.5 704.5,-600.5 704.5,-626.5"/>
<text text-anchor="start" x="608.5" y="-616.1" font-family="SourceSans" font-size="8.00">a60::geo::alpha_2_to</text>
<text text-anchor="middle" x="652.5" y="-607.1" font-family="SourceSans" font-size="8.00">_alpha_3</text>
</a>
</g>
</g>
<!-- Node7&#45;&gt;Node8 -->
<g id="edge7" class="edge">
<title>Node7&#45;&gt;Node8</title>
<path fill="none" stroke="#63b8ff" d="M539.14,-590.08C554.87,-593.36 573.18,-597.17 590.39,-600.76"/>
<polygon fill="#63b8ff" stroke="#63b8ff" points="589.86,-604.23 600.37,-602.84 591.29,-597.37 589.86,-604.23"/>
</g>
<!-- Node15 -->
<g id="node15" class="node">
<title>Node15</title>
<g id="a_node15"><a xlink:href="namespacea60_1_1constants.html#a2fd5efb0c88809132a730787d05a080a" target="_top" xlink:title=" ">
<polygon fill="white" stroke="#666666" points="710,-582 595,-582 595,-565 710,-565 710,-582"/>
<text text-anchor="middle" x="652.5" y="-571.6" font-family="SourceSans" font-size="8.00">a60::constants::comma</text>
</a>
</g>
</g>
<!-- Node7&#45;&gt;Node15 -->
<g id="edge14" class="edge">
<title>Node7&#45;&gt;Node15</title>
<path fill="none" stroke="#63b8ff" d="M558.23,-578.36C566.92,-577.91 575.91,-577.44 584.72,-576.98"/>
<polygon fill="#63b8ff" stroke="#63b8ff" points="585.15,-580.46 594.96,-576.45 584.79,-573.47 585.15,-580.46"/>
</g>
<!-- Node9 -->
<g id="node9" class="node">
<title>Node9</title>
<g id="a_node9"><a xlink:href="namespacea60_1_1geo.html#aa72939682c5a6daa05ddeb6103fde043" target="_top" xlink:title="ISO&#45;2 to ISO&#45;3.">
<polygon fill="white" stroke="#666666" points="868,-626.5 747,-626.5 747,-600.5 868,-600.5 868,-626.5"/>
<text text-anchor="start" x="755" y="-616.1" font-family="SourceSans" font-size="8.00">a60::geo::deserialize</text>
<text text-anchor="middle" x="807.5" y="-607.1" font-family="SourceSans" font-size="8.00">_json_to_iso_3166_2_map</text>
</a>
</g>
</g>
<!-- Node8&#45;&gt;Node9 -->
<g id="edge8" class="edge">
<title>Node8&#45;&gt;Node9</title>
<path fill="none" stroke="#63b8ff" d="M704.87,-613.5C715.07,-613.5 725.94,-613.5 736.63,-613.5"/>
<polygon fill="#63b8ff" stroke="#63b8ff" points="736.8,-617 746.8,-613.5 736.8,-610 736.8,-617"/>
</g>
<!-- Node10 -->
<g id="node10" class="node">
<title>Node10</title>
<g id="a_node10"><a xlink:href="namespacea60.html#a538d43bb9bfa488a54cea929736dbe2d" target="_top" xlink:title="Deserialize input file.">
<polygon fill="white" stroke="#666666" points="1013,-586.5 909,-586.5 909,-560.5 1013,-560.5 1013,-586.5"/>
<text text-anchor="start" x="917" y="-576.1" font-family="SourceSans" font-size="8.00">a60::deserialize_json</text>
<text text-anchor="middle" x="961" y="-567.1" font-family="SourceSans" font-size="8.00">_to_dom</text>
</a>
</g>
</g>
<!-- Node9&#45;&gt;Node10 -->
<g id="edge9" class="edge">
<title>Node9&#45;&gt;Node10</title>
<path fill="none" stroke="#63b8ff" d="M858.11,-600.4C871.65,-596.83 886.46,-592.92 900.49,-589.21"/>
<polygon fill="#63b8ff" stroke="#63b8ff" points="901.77,-592.5 910.54,-586.56 899.98,-585.73 901.77,-592.5"/>
</g>
<!-- Node11 -->
<g id="node11" class="node">
<title>Node11</title>
<g id="a_node11"><a xlink:href="namespacea60_1_1io.html#a16f17ea9e02c1975ca17b77e46cf7629" target="_top" xlink:title="Make sure a path ends in &#39;/&#39;;.">
<polygon fill="white" stroke="#666666" points="1006,-765 916,-765 916,-748 1006,-748 1006,-765"/>
<text text-anchor="middle" x="961" y="-754.6" font-family="SourceSans" font-size="8.00">a60::io::end_path</text>
</a>
</g>
</g>
<!-- Node9&#45;&gt;Node11 -->
<g id="edge10" class="edge">
<title>Node9&#45;&gt;Node11</title>
<path fill="none" stroke="#63b8ff" d="M853.99,-626.63C859.09,-629.35 863.91,-632.61 868,-636.5 896.54,-663.66 878.91,-687.13 904,-717.5 912.29,-727.53 923.77,-736.14 934.18,-742.69"/>
<polygon fill="#63b8ff" stroke="#63b8ff" points="932.57,-745.8 942.95,-747.9 936.14,-739.78 932.57,-745.8"/>
</g>
<!-- Node12 -->
<g id="node12" class="node">
<title>Node12</title>
<g id="a_node12"><a xlink:href="namespacea60_1_1io.html#ac95e5271a27a23bc2336d84b3f821fa2" target="_top" xlink:title="Constant filesystem and run&#45;time resources.">
<polygon fill="white" stroke="#666666" points="1013,-509.5 909,-509.5 909,-483.5 1013,-483.5 1013,-509.5"/>
<text text-anchor="start" x="917" y="-499.1" font-family="SourceSans" font-size="8.00">a60::io::get_run_time</text>
<text text-anchor="middle" x="961" y="-490.1" font-family="SourceSans" font-size="8.00">_resources</text>
</a>
</g>
</g>
<!-- Node9&#45;&gt;Node12 -->
<g id="edge11" class="edge">
<title>Node9&#45;&gt;Node12</title>
<path fill="none" stroke="#63b8ff" d="M825.58,-600.31C852.18,-579.77 903.64,-540.03 934.6,-516.12"/>
<polygon fill="#63b8ff" stroke="#63b8ff" points="936.97,-518.71 942.75,-509.83 932.69,-513.17 936.97,-518.71"/>
</g>
<!-- Node13 -->
<g id="node13" class="node">
<title>Node13</title>
<g id="a_node13"><a xlink:href="namespacea60.html#a0fc88c5c87f54b303a1856bc2aa76a45" target="_top" xlink:title=" ">
<polygon fill="white" stroke="#666666" points="1018,-622 904,-622 904,-605 1018,-605 1018,-622"/>
<text text-anchor="middle" x="961" y="-611.6" font-family="SourceSans" font-size="8.00">a60::insert_to_iso_3166</text>
</a>
</g>
</g>
<!-- Node9&#45;&gt;Node13 -->
<g id="edge12" class="edge">
<title>Node9&#45;&gt;Node13</title>
<path fill="none" stroke="#63b8ff" d="M868.38,-613.5C876.61,-613.5 885.1,-613.5 893.45,-613.5"/>
<polygon fill="#63b8ff" stroke="#63b8ff" points="893.52,-617 903.52,-613.5 893.52,-610 893.52,-617"/>
</g>
<!-- Node14 -->
<g id="node14" class="node">
<title>Node14</title>
<g id="a_node14"><a xlink:href="namespacea60_1_1io.html#aa5fbb8ab63397dd45c4a54c0758935ef" target="_top" xlink:title="Sanity check input existence.">
<polygon fill="white" stroke="#666666" points="1013,-708.5 909,-708.5 909,-682.5 1013,-682.5 1013,-708.5"/>
<text text-anchor="start" x="917" y="-698.1" font-family="SourceSans" font-size="8.00">a60::io::sanity_check</text>
<text text-anchor="middle" x="961" y="-689.1" font-family="SourceSans" font-size="8.00">_input</text>
</a>
</g>
</g>
<!-- Node9&#45;&gt;Node14 -->
<g id="edge13" class="edge">
<title>Node9&#45;&gt;Node14</title>
<path fill="none" stroke="#63b8ff" d="M845.82,-626.6C853.29,-629.59 860.99,-632.94 868,-636.5 891.12,-648.23 915.77,-664.25 933.73,-676.63"/>
<polygon fill="#63b8ff" stroke="#63b8ff" points="931.77,-679.53 941.97,-682.39 935.78,-673.79 931.77,-679.53"/>
</g>
<!-- Node17 -->
<g id="node17" class="node">
<title>Node17</title>
<g id="a_node17"><a xlink:href="namespacea60.html#a55d7f8d5aa523f5270d478a635ee03b4" target="_top" xlink:title="Survey current tor exit nodes and convert into meta_peers. Assume input list is sorted low to high,...">
<polygon fill="white" stroke="#666666" points="704,-688.5 601,-688.5 601,-662.5 704,-662.5 704,-688.5"/>
<text text-anchor="start" x="609" y="-678.1" font-family="SourceSans" font-size="8.00">a60::make_exit_node</text>
<text text-anchor="middle" x="652.5" y="-669.1" font-family="SourceSans" font-size="8.00">_meta_peers</text>
</a>
</g>
</g>
<!-- Node16&#45;&gt;Node17 -->
<g id="edge16" class="edge">
<title>Node16&#45;&gt;Node17</title>
<path fill="none" stroke="#63b8ff" d="M390.05,-640.25C444.64,-647.61 532.04,-659.39 590.58,-667.29"/>
<polygon fill="#63b8ff" stroke="#63b8ff" points="590.42,-670.8 600.8,-668.66 591.36,-663.86 590.42,-670.8"/>
</g>
<!-- Node17&#45;&gt;Node11 -->
<g id="edge17" class="edge">
<title>Node17&#45;&gt;Node11</title>
<path fill="none" stroke="#63b8ff" d="M662.88,-688.61C677.96,-708.43 709.71,-745.21 747,-759.5 801.14,-780.25 868.86,-774.46 913.22,-766.85"/>
<polygon fill="#63b8ff" stroke="#63b8ff" points="913.93,-770.28 923.14,-765.05 912.68,-763.39 913.93,-770.28"/>
</g>
<!-- Node17&#45;&gt;Node12 -->
<g id="edge18" class="edge">
<title>Node17&#45;&gt;Node12</title>
<path fill="none" stroke="#63b8ff" d="M675.32,-662.38C686.54,-655.13 700.11,-645.57 711,-635.5 729.55,-618.34 726.92,-606.84 747,-591.5 795.41,-554.52 860.5,-528.19 905.93,-512.77"/>
<polygon fill="#63b8ff" stroke="#63b8ff" points="907.22,-516.03 915.6,-509.55 905,-509.39 907.22,-516.03"/>
</g>
<!-- Node18 -->
<g id="node18" class="node">
<title>Node18</title>
<g id="a_node18"><a xlink:href="namespacea60.html#a439bb950e8e56f95462cb70ab0bab2f0" target="_top" xlink:title="Pruned line of text that starts with an IP4 address.">
<polygon fill="white" stroke="#666666" points="864,-706.5 751,-706.5 751,-680.5 864,-680.5 864,-706.5"/>
<text text-anchor="start" x="759" y="-696.1" font-family="SourceSans" font-size="8.00">a60::line_to_ip_address</text>
<text text-anchor="middle" x="807.5" y="-687.1" font-family="SourceSans" font-size="8.00">_as_string</text>
</a>
</g>
</g>
<!-- Node17&#45;&gt;Node18 -->
<g id="edge19" class="edge">
<title>Node17&#45;&gt;Node18</title>
<path fill="none" stroke="#63b8ff" d="M704.02,-681.44C715.72,-682.82 728.33,-684.3 740.58,-685.74"/>
<polygon fill="#63b8ff" stroke="#63b8ff" points="740.41,-689.25 750.75,-686.94 741.23,-682.3 740.41,-689.25"/>
</g>
<!-- Node19 -->
<g id="node19" class="node">
<title>Node19</title>
<g id="a_node19"><a xlink:href="namespacea60.html#ad300edc3a7396b9f52a64f37e9443891" target="_top" xlink:title="No GeoIP.">
<polygon fill="white" stroke="#666666" points="861,-662 754,-662 754,-645 861,-645 861,-662"/>
<text text-anchor="middle" x="807.5" y="-651.6" font-family="SourceSans" font-size="8.00">a60::make_meta_peer</text>
</a>
</g>
</g>
<!-- Node17&#45;&gt;Node19 -->
<g id="edge20" class="edge">
<title>Node17&#45;&gt;Node19</title>
<path fill="none" stroke="#63b8ff" d="M704.02,-668.24C716.78,-666.4 730.64,-664.41 743.92,-662.5"/>
<polygon fill="#63b8ff" stroke="#63b8ff" points="744.53,-665.95 753.93,-661.06 743.54,-659.02 744.53,-665.95"/>
</g>
<!-- Node20 -->
<g id="node20" class="node">
<title>Node20</title>
<g id="a_node20"><a xlink:href="structa60_1_1geo_1_1map__base.html#a9215731f10e2fa8488b0e081c2a5cef4" target="_top" xlink:title=" ">
<polygon fill="white" stroke="#666666" points="858.5,-750.5 756.5,-750.5 756.5,-724.5 858.5,-724.5 858.5,-750.5"/>
<text text-anchor="start" x="764.5" y="-740.1" font-family="SourceSans" font-size="8.00">a60::geo::map_base</text>
<text text-anchor="middle" x="807.5" y="-731.1" font-family="SourceSans" font-size="8.00">::open</text>
</a>
</g>
</g>
<!-- Node17&#45;&gt;Node20 -->
<g id="edge21" class="edge">
<title>Node17&#45;&gt;Node20</title>
<path fill="none" stroke="#63b8ff" d="M683.24,-688.67C701.53,-696.66 725.51,-706.94 747,-715.5 751.43,-717.27 756.07,-719.07 760.72,-720.84"/>
<polygon fill="#63b8ff" stroke="#63b8ff" points="759.61,-724.16 770.2,-724.41 762.08,-717.61 759.61,-724.16"/>
</g>
<!-- Node20&#45;&gt;Node14 -->
<g id="edge22" class="edge">
<title>Node20&#45;&gt;Node14</title>
<path fill="none" stroke="#63b8ff" d="M855.61,-724.44C870.57,-720.29 887.28,-715.66 902.87,-711.34"/>
<polygon fill="#63b8ff" stroke="#63b8ff" points="904.22,-714.6 912.92,-708.55 902.35,-707.85 904.22,-714.6"/>
</g>
<!-- Node21&#45;&gt;Node12 -->
<g id="edge41" class="edge">
<title>Node21&#45;&gt;Node12</title>
<path fill="none" stroke="#63b8ff" d="M205.75,-171.42C249.09,-136.82 374.93,-45.5 496,-45.5 496,-45.5 496,-45.5 653.5,-45.5 862.73,-45.5 939.14,-381.66 956.11,-473.53"/>
<polygon fill="#63b8ff" stroke="#63b8ff" points="952.69,-474.26 957.9,-483.49 959.58,-473.03 952.69,-474.26"/>
</g>
<!-- Node22 -->
<g id="node22" class="node">
<title>Node22</title>
<g id="a_node22"><a xlink:href="namespacea60.html#a32720df1709c77d01ac8d6100419d1d5" target="_top" xlink:title="Create paths that map out telecom cables from a single geo json file.">
<polygon fill="white" stroke="#666666" points="399.5,-193 278.5,-193 278.5,-176 399.5,-176 399.5,-193"/>
<text text-anchor="middle" x="339" y="-182.6" font-family="SourceSans" font-size="8.00">a60::fiber_paths_geojson</text>
</a>
</g>
</g>
<!-- Node21&#45;&gt;Node22 -->
<g id="edge24" class="edge">
<title>Node21&#45;&gt;Node22</title>
<path fill="none" stroke="#63b8ff" d="M239.28,-184.5C248.58,-184.5 258.47,-184.5 268.26,-184.5"/>
<polygon fill="#63b8ff" stroke="#63b8ff" points="268.39,-188 278.39,-184.5 268.39,-181 268.39,-188"/>
</g>
<!-- Node23 -->
<g id="node23" class="node">
<title>Node23</title>
<g id="a_node23"><a xlink:href="namespacea60.html#af45982273a7a2e61b6aaa436081238c0" target="_top" xlink:title="Load JSON file to in&#45;memory DOM.">
<polygon fill="white" stroke="#666666" points="549,-354.5 445,-354.5 445,-328.5 549,-328.5 549,-354.5"/>
<text text-anchor="start" x="453" y="-344.1" font-family="SourceSans" font-size="8.00">a60::deserialize_json</text>
<text text-anchor="middle" x="497" y="-335.1" font-family="SourceSans" font-size="8.00">_to_dom_object</text>
</a>
</g>
</g>
<!-- Node22&#45;&gt;Node23 -->
<g id="edge25" class="edge">
<title>Node22&#45;&gt;Node23</title>
<path fill="none" stroke="#63b8ff" d="M345.65,-193.06C364.35,-221.27 423.71,-310.12 436,-319.5 437.83,-320.89 439.75,-322.21 441.75,-323.44"/>
<polygon fill="#63b8ff" stroke="#63b8ff" points="440.39,-326.69 450.85,-328.38 443.72,-320.53 440.39,-326.69"/>
</g>
<!-- Node24 -->
<g id="node24" class="node">
<title>Node24</title>
<g id="a_node24"><a xlink:href="namespacea60_1_1carto.html#a970aeb8370891780c15e73fba0dc48bc" target="_top" xlink:title=" ">
<polygon fill="white" stroke="#666666" points="549,-101.5 445,-101.5 445,-75.5 549,-75.5 549,-101.5"/>
<text text-anchor="start" x="453" y="-91.1" font-family="SourceSans" font-size="8.00">a60::carto::fold_path</text>
<text text-anchor="middle" x="497" y="-82.1" font-family="SourceSans" font-size="8.00">_edges</text>
</a>
</g>
</g>
<!-- Node22&#45;&gt;Node24 -->
<g id="edge27" class="edge">
<title>Node22&#45;&gt;Node24</title>
<path fill="none" stroke="#63b8ff" d="M350.47,-175.9C367.62,-162.05 403.1,-134.47 436,-115.5 441.85,-112.13 448.2,-108.87 454.5,-105.86"/>
<polygon fill="#63b8ff" stroke="#63b8ff" points="456.04,-109.01 463.65,-101.63 453.1,-102.65 456.04,-109.01"/>
</g>
<!-- Node26 -->
<g id="node26" class="node">
<title>Node26</title>
<g id="a_node26"><a xlink:href="namespacea60_1_1constants.html#ac27c77e4606552ae5f74a1c21dd9258e" target="_top" xlink:title=" ">
<polygon fill="white" stroke="#666666" points="711,-268 594,-268 594,-251 711,-251 711,-268"/>
<text text-anchor="middle" x="652.5" y="-257.6" font-family="SourceSans" font-size="8.00">a60::constants::newline</text>
</a>
</g>
</g>
<!-- Node22&#45;&gt;Node26 -->
<g id="edge34" class="edge">
<title>Node22&#45;&gt;Node26</title>
<path fill="none" stroke="#63b8ff" d="M354.25,-175.91C391.4,-154.73 492.86,-104.87 558,-149.5 594.56,-174.55 561.4,-212.47 594,-242.5 595.29,-243.69 596.66,-244.79 598.09,-245.82"/>
<polygon fill="#63b8ff" stroke="#63b8ff" points="596.46,-248.92 606.87,-250.91 599.97,-242.87 596.46,-248.92"/>
</g>
<!-- Node30 -->
<g id="node30" class="node">
<title>Node30</title>
<g id="a_node30"><a xlink:href="namespacea60.html#a3fdf876ab1d06c5cfd12a9018c231dd8" target="_top" xlink:title=" ">
<polygon fill="white" stroke="#666666" points="556,-310.5 438,-310.5 438,-284.5 556,-284.5 556,-310.5"/>
<text text-anchor="start" x="446" y="-300.1" font-family="SourceSans" font-size="8.00">a60::point_from_geojson</text>
<text text-anchor="middle" x="497" y="-291.1" font-family="SourceSans" font-size="8.00">_coordinate</text>
</a>
</g>
</g>
<!-- Node22&#45;&gt;Node30 -->
<g id="edge35" class="edge">
<title>Node22&#45;&gt;Node30</title>
<path fill="none" stroke="#63b8ff" d="M351.98,-193.18C377.04,-211.33 435.49,-253.67 469.73,-278.47"/>
<polygon fill="#63b8ff" stroke="#63b8ff" points="467.73,-281.34 477.88,-284.37 471.83,-275.67 467.73,-281.34"/>
</g>
<!-- Node31 -->
<g id="node31" class="node">
<title>Node31</title>
<g id="a_node31"><a xlink:href="namespacea60_1_1constants.html#a4eca9d522711df25806d6dd1ff38e904" target="_top" xlink:title=" ">
<polygon fill="white" stroke="#666666" points="552,-175 442,-175 442,-158 552,-158 552,-175"/>
<text text-anchor="middle" x="497" y="-164.6" font-family="SourceSans" font-size="8.00">a60::constants::space</text>
</a>
</g>
</g>
<!-- Node22&#45;&gt;Node31 -->
<g id="edge38" class="edge">
<title>Node22&#45;&gt;Node31</title>
<path fill="none" stroke="#63b8ff" d="M399.87,-177.59C410.35,-176.38 421.3,-175.12 431.89,-173.9"/>
<polygon fill="#63b8ff" stroke="#63b8ff" points="432.38,-177.36 441.91,-172.74 431.58,-170.41 432.38,-177.36"/>
</g>
<!-- Node32 -->
<g id="node32" class="node">
<title>Node32</title>
<g id="a_node32"><a xlink:href="namespacea60_1_1constants.html#a01d9786063fb572d9389b0cd207bbe53" target="_top" xlink:title=" ">
<polygon fill="white" stroke="#666666" points="546,-210 448,-210 448,-193 546,-193 546,-210"/>
<text text-anchor="middle" x="497" y="-199.6" font-family="SourceSans" font-size="8.00">a60::constants::tab</text>
</a>
</g>
</g>
<!-- Node22&#45;&gt;Node32 -->
<g id="edge39" class="edge">
<title>Node22&#45;&gt;Node32</title>
<path fill="none" stroke="#63b8ff" d="M399.87,-191.02C412.22,-192.37 425.21,-193.79 437.51,-195.13"/>
<polygon fill="#63b8ff" stroke="#63b8ff" points="437.34,-198.63 447.66,-196.23 438.09,-191.67 437.34,-198.63"/>
</g>
<!-- Node23&#45;&gt;Node10 -->
<g id="edge26" class="edge">
<title>Node23&#45;&gt;Node10</title>
<path fill="none" stroke="#63b8ff" d="M524.16,-354.64C602.53,-393.99 835.44,-510.95 924.67,-555.76"/>
<polygon fill="#63b8ff" stroke="#63b8ff" points="923.33,-559 933.84,-560.36 926.47,-552.75 923.33,-559"/>
</g>
<!-- Node25 -->
<g id="node25" class="node">
<title>Node25</title>
<g id="a_node25"><a xlink:href="namespacea60.html#a3c32f6c147e634c4b4c383aa09007d74" target="_top" xlink:title=" ">
<polygon fill="white" stroke="#666666" points="707.5,-233 597.5,-233 597.5,-216 707.5,-216 707.5,-233"/>
<text text-anchor="middle" x="652.5" y="-222.6" font-family="SourceSans" font-size="8.00">a60::distance_point_2t</text>
</a>
</g>
</g>
<!-- Node24&#45;&gt;Node25 -->
<g id="edge28" class="edge">
<title>Node24&#45;&gt;Node25</title>
<path fill="none" stroke="#63b8ff" d="M538.56,-101.55C545.69,-105.21 552.56,-109.8 558,-115.5 588.04,-146.96 562.14,-176.89 594,-206.5 595.71,-208.09 597.56,-209.54 599.52,-210.86"/>
<polygon fill="#63b8ff" stroke="#63b8ff" points="598.17,-214.12 608.62,-215.88 601.55,-207.99 598.17,-214.12"/>
</g>
<!-- Node24&#45;&gt;Node26 -->
<g id="edge29" class="edge">
<title>Node24&#45;&gt;Node26</title>
<path fill="none" stroke="#63b8ff" d="M539.95,-101.61C546.7,-105.23 553.07,-109.79 558,-115.5 596.33,-159.91 552.75,-200.78 594,-242.5 595.08,-243.59 596.22,-244.61 597.41,-245.56"/>
<polygon fill="#63b8ff" stroke="#63b8ff" points="595.66,-248.59 605.98,-250.97 599.39,-242.67 595.66,-248.59"/>
</g>
<!-- Node27 -->
<g id="node27" class="node">
<title>Node27</title>
<g id="a_node27"><a xlink:href="structa60_1_1carto_1_1cartography.html#a228cede7b1b2847024501cfdac0640ca" target="_top" xlink:title=" ">
<polygon fill="white" stroke="#666666" points="710,-197.5 595,-197.5 595,-171.5 710,-171.5 710,-197.5"/>
<text text-anchor="start" x="603" y="-187.1" font-family="SourceSans" font-size="8.00">a60::carto::cartography</text>
<text text-anchor="middle" x="652.5" y="-178.1" font-family="SourceSans" font-size="8.00">::point_to_x_quadrant</text>
</a>
</g>
</g>
<!-- Node24&#45;&gt;Node27 -->
<g id="edge30" class="edge">
<title>Node24&#45;&gt;Node27</title>
<path fill="none" stroke="#63b8ff" d="M534.87,-101.63C542.93,-105.42 551.11,-110.04 558,-115.5 578.62,-131.84 572.92,-146.76 594,-162.5 596.02,-164.01 598.16,-165.43 600.38,-166.76"/>
<polygon fill="#63b8ff" stroke="#63b8ff" points="598.76,-169.87 609.23,-171.47 602.05,-163.69 598.76,-169.87"/>
</g>
<!-- Node28 -->
<g id="node28" class="node">
<title>Node28</title>
<g id="a_node28"><a xlink:href="structa60_1_1carto_1_1cartography.html#a1f7b7d81b342346b52e5c6c9b9e3455a" target="_top" xlink:title="Top (h1) and bottom (h2) vertical.">
<polygon fill="white" stroke="#666666" points="710,-153.5 595,-153.5 595,-127.5 710,-127.5 710,-153.5"/>
<text text-anchor="start" x="603" y="-143.1" font-family="SourceSans" font-size="8.00">a60::carto::cartography</text>
<text text-anchor="middle" x="652.5" y="-134.1" font-family="SourceSans" font-size="8.00">::point_to_y_half</text>
</a>
</g>
</g>
<!-- Node24&#45;&gt;Node28 -->
<g id="edge31" class="edge">
<title>Node24&#45;&gt;Node28</title>
<path fill="none" stroke="#63b8ff" d="M536.73,-101.62C556.99,-108.48 581.97,-116.95 603.45,-124.22"/>
<polygon fill="#63b8ff" stroke="#63b8ff" points="602.45,-127.58 613.04,-127.47 604.7,-120.95 602.45,-127.58"/>
</g>
<!-- Node29 -->
<g id="node29" class="node">
<title>Node29</title>
<g id="a_node29"><a xlink:href="namespacea60.html#a4e8b0cabed112734147b499bf0cc9029" target="_top" xlink:title="Conversion of resolution_mode to string.">
<polygon fill="white" stroke="#666666" points="689.5,-91 615.5,-91 615.5,-74 689.5,-74 689.5,-91"/>
<text text-anchor="middle" x="652.5" y="-80.6" font-family="SourceSans" font-size="8.00">a60::to_string</text>
</a>
</g>
</g>
<!-- Node24&#45;&gt;Node29 -->
<g id="edge32" class="edge">
<title>Node24&#45;&gt;Node29</title>
<path fill="none" stroke="#63b8ff" d="M549.11,-86.5C567.19,-85.8 587.42,-85 605.09,-84.31"/>
<polygon fill="#63b8ff" stroke="#63b8ff" points="605.3,-87.81 615.16,-83.92 605.03,-80.81 605.3,-87.81"/>
</g>
<!-- Node29&#45;&gt;Node29 -->
<g id="edge33" class="edge">
<title>Node29&#45;&gt;Node29</title>
<path fill="none" stroke="#63b8ff" d="M629.55,-91.19C616.88,-99.67 624.53,-109 652.5,-109 671.29,-109 680.91,-104.79 681.36,-99.45"/>
<polygon fill="#63b8ff" stroke="#63b8ff" points="684.11,-97.28 675.45,-91.19 678.42,-101.36 684.11,-97.28"/>
</g>
<!-- Node30&#45;&gt;Node5 -->
<g id="edge37" class="edge">
<title>Node30&#45;&gt;Node5</title>
<path fill="none" stroke="#63b8ff" d="M545.73,-310.56C561.03,-314.75 578.14,-319.43 594.07,-323.79"/>
<polygon fill="#63b8ff" stroke="#63b8ff" points="593.23,-327.19 603.8,-326.45 595.08,-320.43 593.23,-327.19"/>
</g>
<!-- Node30&#45;&gt;Node26 -->
<g id="edge36" class="edge">
<title>Node30&#45;&gt;Node26</title>
<path fill="none" stroke="#63b8ff" d="M550.83,-284.42C569.09,-279.9 589.37,-274.88 606.91,-270.54"/>
<polygon fill="#63b8ff" stroke="#63b8ff" points="608.02,-273.87 616.89,-268.07 606.34,-267.07 608.02,-273.87"/>
</g>
<!-- Node32&#45;&gt;Node32 -->
<g id="edge40" class="edge">
<title>Node32&#45;&gt;Node32</title>
<path fill="none" stroke="#63b8ff" d="M474.05,-210.19C461.38,-218.67 469.03,-228 497,-228 515.79,-228 525.41,-223.79 525.86,-218.45"/>
<polygon fill="#63b8ff" stroke="#63b8ff" points="528.61,-216.28 519.95,-210.19 522.92,-220.36 528.61,-216.28"/>
</g>
<!-- Node33&#45;&gt;Node12 -->
<g id="edge43" class="edge">
<title>Node33&#45;&gt;Node12</title>
<path fill="none" stroke="#63b8ff" d="M194.51,-354.71C204.61,-382.04 231.83,-444.54 278,-472.5 361.38,-522.99 398.53,-496.5 496,-496.5 496,-496.5 496,-496.5 653.5,-496.5 738.38,-496.5 836.49,-496.5 898.38,-496.5"/>
<polygon fill="#63b8ff" stroke="#63b8ff" points="898.75,-500 908.75,-496.5 898.75,-493 898.75,-500"/>
</g>
<!-- Node34 -->
<g id="node34" class="node">
<title>Node34</title>
<g id="a_node34"><a xlink:href="namespacea60.html#a5c255db0f946c551b27e986732315040" target="_top" xlink:title="Create x or cross marks at internet exchanges (ix)">
<polygon fill="white" stroke="#666666" points="398.5,-354.5 279.5,-354.5 279.5,-328.5 398.5,-328.5 398.5,-354.5"/>
<text text-anchor="start" x="287.5" y="-344.1" font-family="SourceSans" font-size="8.00">a60::internet_exchanges</text>
<text text-anchor="middle" x="339" y="-335.1" font-family="SourceSans" font-size="8.00">_geojson</text>
</a>
</g>
</g>
<!-- Node33&#45;&gt;Node34 -->
<g id="edge44" class="edge">
<title>Node33&#45;&gt;Node34</title>
<path fill="none" stroke="#63b8ff" d="M239.69,-341.5C249.17,-341.5 259.24,-341.5 269.18,-341.5"/>
<polygon fill="#63b8ff" stroke="#63b8ff" points="269.47,-345 279.47,-341.5 269.47,-338 269.47,-345"/>
</g>
<!-- Node34&#45;&gt;Node23 -->
<g id="edge45" class="edge">
<title>Node34&#45;&gt;Node23</title>
<path fill="none" stroke="#63b8ff" d="M398.53,-341.5C410.3,-341.5 422.7,-341.5 434.57,-341.5"/>
<polygon fill="#63b8ff" stroke="#63b8ff" points="434.83,-345 444.83,-341.5 434.83,-338 434.83,-345"/>
</g>
<!-- Node34&#45;&gt;Node26 -->
<g id="edge46" class="edge">
<title>Node34&#45;&gt;Node26</title>
<path fill="none" stroke="#63b8ff" d="M371.06,-354.5C415.05,-370.81 496.96,-393.24 558,-363.5 581.34,-352.13 576.83,-336.97 594,-317.5 607.1,-302.64 623.04,-286.72 634.8,-275.32"/>
<polygon fill="#63b8ff" stroke="#63b8ff" points="637.41,-277.68 642.2,-268.23 632.56,-272.62 637.41,-277.68"/>
</g>
<!-- Node34&#45;&gt;Node30 -->
<g id="edge47" class="edge">
<title>Node34&#45;&gt;Node30</title>
<path fill="none" stroke="#63b8ff" d="M386.38,-328.42C403.13,-323.7 422.21,-318.31 439.71,-313.38"/>
<polygon fill="#63b8ff" stroke="#63b8ff" points="441.12,-316.62 449.8,-310.53 439.22,-309.88 441.12,-316.62"/>
</g>
<!-- Node35&#45;&gt;Node12 -->
<g id="edge49" class="edge">
<title>Node35&#45;&gt;Node12</title>
<path fill="none" stroke="#63b8ff" d="M227.03,-310.51C232.29,-313.1 237.45,-316.09 242,-319.5 262.23,-334.64 257.86,-348.25 278,-363.5 362.26,-427.29 390.31,-458.5 496,-458.5 496,-458.5 496,-458.5 653.5,-458.5 739.21,-458.5 837.39,-473.32 899.04,-484.45"/>
<polygon fill="#63b8ff" stroke="#63b8ff" points="898.52,-487.91 908.99,-486.27 899.79,-481.02 898.52,-487.91"/>
</g>
<!-- Node36 -->
<g id="node36" class="node">
<title>Node36</title>
<g id="a_node36"><a xlink:href="namespacea60.html#a5d00f2b761b78b232d5b3494d85ae4a9" target="_top" xlink:title="Create triangles at starlink gateways.">
<polygon fill="white" stroke="#666666" points="395,-310.5 283,-310.5 283,-284.5 395,-284.5 395,-310.5"/>
<text text-anchor="start" x="291" y="-300.1" font-family="SourceSans" font-size="8.00">a60::starlink_gateways</text>
<text text-anchor="middle" x="339" y="-291.1" font-family="SourceSans" font-size="8.00">_geojson</text>
</a>
</g>
</g>
<!-- Node35&#45;&gt;Node36 -->
<g id="edge50" class="edge">
<title>Node35&#45;&gt;Node36</title>
<path fill="none" stroke="#63b8ff" d="M239.28,-297.5C249.97,-297.5 261.43,-297.5 272.63,-297.5"/>
<polygon fill="#63b8ff" stroke="#63b8ff" points="272.81,-301 282.81,-297.5 272.81,-294 272.81,-301"/>
</g>
<!-- Node36&#45;&gt;Node23 -->
<g id="edge51" class="edge">
<title>Node36&#45;&gt;Node23</title>
<path fill="none" stroke="#63b8ff" d="M386.38,-310.58C403.13,-315.3 422.21,-320.69 439.71,-325.62"/>
<polygon fill="#63b8ff" stroke="#63b8ff" points="439.22,-329.12 449.8,-328.47 441.12,-322.38 439.22,-329.12"/>
</g>
<!-- Node36&#45;&gt;Node26 -->
<g id="edge52" class="edge">
<title>Node36&#45;&gt;Node26</title>
<path fill="none" stroke="#63b8ff" d="M390.54,-284.41C405.13,-281.04 421.12,-277.74 436,-275.5 485.01,-268.11 540.82,-264.08 583.37,-261.92"/>
<polygon fill="#63b8ff" stroke="#63b8ff" points="583.79,-265.41 593.61,-261.42 583.45,-258.41 583.79,-265.41"/>
</g>
<!-- Node36&#45;&gt;Node30 -->
<g id="edge53" class="edge">
<title>Node36&#45;&gt;Node30</title>
<path fill="none" stroke="#63b8ff" d="M395.44,-297.5C405.86,-297.5 416.87,-297.5 427.62,-297.5"/>
<polygon fill="#63b8ff" stroke="#63b8ff" points="427.84,-301 437.84,-297.5 427.84,-294 427.84,-301"/>
</g>
<!-- Node36&#45;&gt;Node32 -->
<g id="edge54" class="edge">
<title>Node36&#45;&gt;Node32</title>
<path fill="none" stroke="#63b8ff" d="M361.36,-284.35C390.71,-266.3 443.25,-233.96 473.28,-215.48"/>
<polygon fill="#63b8ff" stroke="#63b8ff" points="475.15,-218.44 481.83,-210.22 471.48,-212.48 475.15,-218.44"/>
</g>
<!-- Node38 -->
<g id="node38" class="node">
<title>Node38</title>
<g id="a_node38"><a xlink:href="namespacea60.html#a63203aef78ad674129103340323d3b63" target="_top" xlink:title="First layer.">
<polygon fill="white" stroke="#666666" points="400,-17 278,-17 278,0 400,0 400,-17"/>
<text text-anchor="middle" x="339" y="-6.6" font-family="SourceSans" font-size="8.00">a60::place_map_in_frame</text>
</a>
</g>
</g>
<!-- Node37&#45;&gt;Node38 -->
<g id="edge56" class="edge">
<title>Node37&#45;&gt;Node38</title>
<path fill="none" stroke="#63b8ff" d="M209.13,-60.97C226.89,-53.11 254.11,-41.23 278,-31.5 286.95,-27.85 296.72,-24.04 305.72,-20.59"/>
<polygon fill="#63b8ff" stroke="#63b8ff" points="307.02,-23.84 315.12,-17.02 304.53,-17.3 307.02,-23.84"/>
</g>
</g>
</svg>
        <g id="navigator" transform="translate(0 0)" fill="#404254">
                <rect fill="#f2f5e9" fill-opacity="0.5" stroke="#606060" stroke-width=".5" x="0" y="0" width="60" height="60"/>
                <use id="zoomplus" xlink:href="#zoomPlus" x="17" y="9" onmousedown="handleZoom(evt,'in')"/>
                <use id="zoomminus" xlink:href="#zoomMin" x="42" y="9" onmousedown="handleZoom(evt,'out')"/>
                <use id="reset" xlink:href="#resetDef" x="30" y="36" onmousedown="handleReset()"/>
                <g id="arrowUp" xlink:href="#dirArrow" transform="translate(30 24)" onmousedown="handlePan(0,-1)">
                  <use xlink:href="#rim" fill="#404040">
                        <set attributeName="fill" to="#808080" begin="arrowUp.mouseover" end="arrowUp.mouseout"/>
                  </use>
                  <path fill="none" stroke="white" stroke-width="1.5" d="M0,-3.0v7 M-2.5,-0.5L0,-3.0L2.5,-0.5"/>
                </g>
                <g id="arrowRight" xlink:href="#dirArrow" transform="rotate(90) translate(36 -43)" onmousedown="handlePan(1,0)">
                  <use xlink:href="#rim" fill="#404040">
                        <set attributeName="fill" to="#808080" begin="arrowRight.mouseover" end="arrowRight.mouseout"/>
                  </use>
                  <path fill="none" stroke="white" stroke-width="1.5" d="M0,-3.0v7 M-2.5,-0.5L0,-3.0L2.5,-0.5"/>
                </g>
                <g id="arrowDown" xlink:href="#dirArrow" transform="rotate(180) translate(-30 -48)" onmousedown="handlePan(0,1)">
                  <use xlink:href="#rim" fill="#404040">
                        <set attributeName="fill" to="#808080" begin="arrowDown.mouseover" end="arrowDown.mouseout"/>
                  </use>
                  <path fill="none" stroke="white" stroke-width="1.5" d="M0,-3.0v7 M-2.5,-0.5L0,-3.0L2.5,-0.5"/>
                </g>
                <g id="arrowLeft" xlink:href="#dirArrow" transform="rotate(270) translate(-36 17)" onmousedown="handlePan(-1,0)">
                  <use xlink:href="#rim" fill="#404040">
                        <set attributeName="fill" to="#808080" begin="arrowLeft.mouseover" end="arrowLeft.mouseout"/>
                  </use>
                  <path fill="none" stroke="white" stroke-width="1.5" d="M0,-3.0v7 M-2.5,-0.5L0,-3.0L2.5,-0.5"/>
                </g>
        </g>
        <svg viewBox="0 0 15 15" width="100%" height="30px" preserveAspectRatio="xMaxYMin meet">
         <g id="arrow_out" transform="scale(0.3 0.3)">
          <a xlink:href="namespacea60_aa94044fcce9d3657a832625897425e2c_cgraph_org.svg" target="_base">
           <rect id="button" ry="5" rx="5" y="6" x="6" height="38" width="38"
                fill="#f2f5e9" fill-opacity="0.5" stroke="#606060" stroke-width="1.0"/>
           <path id="arrow"
             d="M 11.500037,31.436501 C 11.940474,20.09759 22.043105,11.32322 32.158766,21.979434 L 37.068811,17.246167 C 37.068811,17.246167 37.088388,32 37.088388,32 L 22.160133,31.978069 C 22.160133,31.978069 26.997745,27.140456 26.997745,27.140456 C 18.528582,18.264221 13.291696,25.230495 11.500037,31.436501 z"
             style="fill:#404040;"/>
          </a>
         </g>
        </svg>
</svg>
