<?xml version="1.0" encoding="UTF-8" standalone="no"?>
<!DOCTYPE svg PUBLIC "-//W3C//DTD SVG 1.1//EN"
 "http://www.w3.org/Graphics/SVG/1.1/DTD/svg11.dtd">
<!-- Generated by graphviz version 5.0.0 (0)
 -->
<!-- Title: a60::serialize_collection_metadata_json Pages: 1 -->
<svg width="276pt" height="78pt"
 viewBox="0.00 0.00 276.00 78.00" xmlns="http://www.w3.org/2000/svg" xmlns:xlink="http://www.w3.org/1999/xlink">
<g id="graph0" class="graph" transform="scale(1 1) rotate(0) translate(4 74)">
<title>a60::serialize_collection_metadata_json</title>
<!-- Node1 -->
<g id="node1" class="node">
<title>Node1</title>
<g id="a_node1"><a xlink:title="Per collection metadata for given duration.">
<polygon fill="#999999" stroke="#666666" points="116,-48 0,-48 0,-22 116,-22 116,-48"/>
<text text-anchor="start" x="8" y="-37.6" font-family="SourceSans" font-size="8.00">a60::serialize_collection</text>
<text text-anchor="middle" x="58" y="-28.6" font-family="SourceSans" font-size="8.00">_metadata_json</text>
</a>
</g>
</g>
<!-- Node2 -->
<g id="node2" class="node">
<title>Node2</title>
<g id="a_node2"><a xlink:href="structa60_1_1collection.html#a8ac066ef3bb824d0ecff3b1238e358e4" target="_top" xlink:title=" ">
<polygon fill="white" stroke="#666666" points="259,-70 161,-70 161,-44 259,-44 259,-70"/>
<text text-anchor="start" x="169" y="-59.6" font-family="SourceSans" font-size="8.00">a60::collection::get</text>
<text text-anchor="middle" x="210" y="-50.6" font-family="SourceSans" font-size="8.00">_name_from_tid</text>
</a>
</g>
</g>
<!-- Node1&#45;&gt;Node2 -->
<g id="edge1" class="edge">
<title>Node1&#45;&gt;Node2</title>
<path fill="none" stroke="#63b8ff" d="M116.14,-43.38C127.42,-45.03 139.28,-46.77 150.6,-48.43"/>
<polygon fill="#63b8ff" stroke="#63b8ff" points="150.42,-51.95 160.82,-49.93 151.43,-45.02 150.42,-51.95"/>
</g>
<!-- Node3 -->
<g id="node3" class="node">
<title>Node3</title>
<g id="a_node3"><a xlink:href="namespacea60.html#a5491ff3ca7dc34407696caaa90828819" target="_top" xlink:title="First collection serialization, common for all writing.">
<polygon fill="white" stroke="#666666" points="268,-26 152,-26 152,0 268,0 268,-26"/>
<text text-anchor="start" x="160" y="-15.6" font-family="SourceSans" font-size="8.00">a60::serialize_collection</text>
<text text-anchor="middle" x="210" y="-6.6" font-family="SourceSans" font-size="8.00">_base_json</text>
</a>
</g>
</g>
<!-- Node1&#45;&gt;Node3 -->
<g id="edge2" class="edge">
<title>Node1&#45;&gt;Node3</title>
<path fill="none" stroke="#63b8ff" d="M116.14,-26.62C124.47,-25.4 133.11,-24.13 141.62,-22.88"/>
<polygon fill="#63b8ff" stroke="#63b8ff" points="142.14,-26.34 151.53,-21.43 141.12,-19.42 142.14,-26.34"/>
</g>
</g>
</svg>
