<?xml version="1.0" encoding="UTF-8" standalone="no"?>
<!DOCTYPE svg PUBLIC "-//W3C//DTD SVG 1.1//EN"
 "http://www.w3.org/Graphics/SVG/1.1/DTD/svg11.dtd">
<!-- Generated by graphviz version 5.0.0 (0)
 -->
<!-- Title: a60::get_int_field_in_node_across_files Pages: 1 -->
<svg width="258pt" height="105pt"
 viewBox="0.00 0.00 258.00 104.50" xmlns="http://www.w3.org/2000/svg" xmlns:xlink="http://www.w3.org/1999/xlink">
<g id="graph0" class="graph" transform="scale(1 1) rotate(0) translate(4 100.5)">
<title>a60::get_int_field_in_node_across_files</title>
<!-- Node1 -->
<g id="node1" class="node">
<title>Node1</title>
<g id="a_node1"><a xlink:title="Search files for field value, return std::set of tuple&lt;value, name&gt;">
<polygon fill="#999999" stroke="#666666" points="104,-56.5 0,-56.5 0,-30.5 104,-30.5 104,-56.5"/>
<text text-anchor="start" x="8" y="-46.1" font-family="SourceSans" font-size="8.00">a60::get_int_field</text>
<text text-anchor="middle" x="52" y="-37.1" font-family="SourceSans" font-size="8.00">_in_node_across_files</text>
</a>
</g>
</g>
<!-- Node2 -->
<g id="node2" class="node">
<title>Node2</title>
<g id="a_node2"><a xlink:href="namespacea60.html#a538d43bb9bfa488a54cea929736dbe2d" target="_top" xlink:title="Deserialize input file.">
<polygon fill="white" stroke="#666666" points="247,-96.5 143,-96.5 143,-70.5 247,-70.5 247,-96.5"/>
<text text-anchor="start" x="151" y="-86.1" font-family="SourceSans" font-size="8.00">a60::deserialize_json</text>
<text text-anchor="middle" x="195" y="-77.1" font-family="SourceSans" font-size="8.00">_to_dom</text>
</a>
</g>
</g>
<!-- Node1&#45;&gt;Node2 -->
<g id="edge1" class="edge">
<title>Node1&#45;&gt;Node2</title>
<path fill="none" stroke="#63b8ff" d="M99.17,-56.6C111.58,-60.12 125.15,-63.97 138.04,-67.62"/>
<polygon fill="#63b8ff" stroke="#63b8ff" points="137.15,-71.01 147.73,-70.37 139.06,-64.28 137.15,-71.01"/>
</g>
<!-- Node3 -->
<g id="node3" class="node">
<title>Node3</title>
<g id="a_node3"><a xlink:href="namespacea60_1_1io.html#aea30b8fc474f5a7b922516dc1e199037" target="_top" xlink:title="Takes a string representing a directory, returns a sorted list of contents as a std::vector&lt;string&gt;.">
<polygon fill="white" stroke="#666666" points="250,-52 140,-52 140,-35 250,-35 250,-52"/>
<text text-anchor="middle" x="195" y="-41.6" font-family="SourceSans" font-size="8.00">a60::io::populate_files</text>
</a>
</g>
</g>
<!-- Node1&#45;&gt;Node3 -->
<g id="edge2" class="edge">
<title>Node1&#45;&gt;Node3</title>
<path fill="none" stroke="#63b8ff" d="M104.3,-43.5C112.48,-43.5 121.02,-43.5 129.45,-43.5"/>
<polygon fill="#63b8ff" stroke="#63b8ff" points="129.65,-47 139.65,-43.5 129.65,-40 129.65,-47"/>
</g>
<!-- Node4 -->
<g id="node4" class="node">
<title>Node4</title>
<g id="a_node4"><a xlink:href="namespacea60_1_1constants.html#a4eca9d522711df25806d6dd1ff38e904" target="_top" xlink:title=" ">
<polygon fill="white" stroke="#666666" points="250,-17 140,-17 140,0 250,0 250,-17"/>
<text text-anchor="middle" x="195" y="-6.6" font-family="SourceSans" font-size="8.00">a60::constants::space</text>
</a>
</g>
</g>
<!-- Node1&#45;&gt;Node4 -->
<g id="edge3" class="edge">
<title>Node1&#45;&gt;Node4</title>
<path fill="none" stroke="#63b8ff" d="M104.3,-30.77C119.27,-27.05 135.49,-23.02 149.97,-19.43"/>
<polygon fill="#63b8ff" stroke="#63b8ff" points="150.82,-22.83 159.68,-17.02 149.13,-16.03 150.82,-22.83"/>
</g>
</g>
</svg>
