<?xml version="1.0" encoding="UTF-8" standalone="no"?>
<!DOCTYPE svg PUBLIC "-//W3C//DTD SVG 1.1//EN"
 "http://www.w3.org/Graphics/SVG/1.1/DTD/svg11.dtd">
<!-- Generated by graphviz version 5.0.0 (0)
 -->
<!-- Title: a60::demographia::serialize_demography_json Pages: 1 -->
<svg width="624pt" height="237pt"
 viewBox="0.00 0.00 624.00 236.50" xmlns="http://www.w3.org/2000/svg" xmlns:xlink="http://www.w3.org/1999/xlink">
<g id="graph0" class="graph" transform="scale(1 1) rotate(0) translate(4 232.5)">
<title>a60::demographia::serialize_demography_json</title>
<!-- Node1 -->
<g id="node1" class="node">
<title>Node1</title>
<g id="a_node1"><a xlink:title="Serialize.">
<polygon fill="#999999" stroke="#666666" points="134,-162.5 0,-162.5 0,-136.5 134,-136.5 134,-162.5"/>
<text text-anchor="start" x="8" y="-152.1" font-family="SourceSans" font-size="8.00">a60::demographia::serialize</text>
<text text-anchor="middle" x="67" y="-143.1" font-family="SourceSans" font-size="8.00">_demography_json</text>
</a>
</g>
</g>
<!-- Node2 -->
<g id="node2" class="node">
<title>Node2</title>
<g id="a_node2"><a xlink:href="namespacea60_1_1geo.html#ac91599fd17b574d13f0ee8b9e1eff485" target="_top" xlink:title="Tries harder.">
<polygon fill="white" stroke="#666666" points="288.5,-228.5 185.5,-228.5 185.5,-202.5 288.5,-202.5 288.5,-228.5"/>
<text text-anchor="start" x="193.5" y="-218.1" font-family="SourceSans" font-size="8.00">a60::geo::country_to</text>
<text text-anchor="middle" x="237" y="-209.1" font-family="SourceSans" font-size="8.00">_alpha_3</text>
</a>
</g>
</g>
<!-- Node1&#45;&gt;Node2 -->
<g id="edge1" class="edge">
<title>Node1&#45;&gt;Node2</title>
<path fill="none" stroke="#63b8ff" d="M96.75,-162.68C117.04,-171.79 144.95,-183.94 170,-193.5 174.88,-195.36 180,-197.22 185.13,-199.03"/>
<polygon fill="#63b8ff" stroke="#63b8ff" points="184.37,-202.47 194.97,-202.43 186.66,-195.86 184.37,-202.47"/>
</g>
<!-- Node3 -->
<g id="node3" class="node">
<title>Node3</title>
<g id="a_node3"><a xlink:href="namespacea60_1_1io.html#a89f2bd581ec510ccc0a8cfedccff7bd0" target="_top" xlink:title="Top level of directory for output files.">
<polygon fill="white" stroke="#666666" points="285,-184.5 189,-184.5 189,-158.5 285,-158.5 285,-184.5"/>
<text text-anchor="start" x="197" y="-174.1" font-family="SourceSans" font-size="8.00">a60::io::get_output</text>
<text text-anchor="middle" x="237" y="-165.1" font-family="SourceSans" font-size="8.00">_directory</text>
</a>
</g>
</g>
<!-- Node1&#45;&gt;Node3 -->
<g id="edge2" class="edge">
<title>Node1&#45;&gt;Node3</title>
<path fill="none" stroke="#63b8ff" d="M134.4,-158.19C149.08,-160.12 164.52,-162.14 178.81,-164.01"/>
<polygon fill="#63b8ff" stroke="#63b8ff" points="178.61,-167.51 188.98,-165.34 179.51,-160.57 178.61,-167.51"/>
</g>
<!-- Node6 -->
<g id="node6" class="node">
<title>Node6</title>
<g id="a_node6"><a xlink:href="namespacea60_1_1geo.html#a4d85107052cb7de41f19b8dc20535d6a" target="_top" xlink:title=" ">
<polygon fill="white" stroke="#666666" points="295,-140.5 179,-140.5 179,-114.5 295,-114.5 295,-140.5"/>
<text text-anchor="start" x="187" y="-130.1" font-family="SourceSans" font-size="8.00">a60::geo::map_country</text>
<text text-anchor="middle" x="237" y="-121.1" font-family="SourceSans" font-size="8.00">_name_to_alpha_3_code</text>
</a>
</g>
</g>
<!-- Node1&#45;&gt;Node6 -->
<g id="edge6" class="edge">
<title>Node1&#45;&gt;Node6</title>
<path fill="none" stroke="#63b8ff" d="M134.4,-140.81C145.63,-139.33 157.31,-137.8 168.57,-136.33"/>
<polygon fill="#63b8ff" stroke="#63b8ff" points="169.31,-139.76 178.77,-134.99 168.4,-132.82 169.31,-139.76"/>
</g>
<!-- Node13 -->
<g id="node13" class="node">
<title>Node13</title>
<g id="a_node13"><a xlink:href="namespacea60_1_1demographia.html#a20d974dd744c6bdca2e89ecdcbf7de49" target="_top" xlink:title="Serialize.">
<polygon fill="white" stroke="#666666" points="304,-96.5 170,-96.5 170,-70.5 304,-70.5 304,-96.5"/>
<text text-anchor="start" x="178" y="-86.1" font-family="SourceSans" font-size="8.00">a60::demographia::serialize</text>
<text text-anchor="middle" x="237" y="-77.1" font-family="SourceSans" font-size="8.00">_urban_area_meta_json</text>
</a>
</g>
</g>
<!-- Node1&#45;&gt;Node13 -->
<g id="edge14" class="edge">
<title>Node1&#45;&gt;Node13</title>
<path fill="none" stroke="#63b8ff" d="M96.75,-136.32C117.04,-127.21 144.95,-115.06 170,-105.5 174.88,-103.64 180,-101.78 185.13,-99.97"/>
<polygon fill="#63b8ff" stroke="#63b8ff" points="186.66,-103.14 194.97,-96.57 184.37,-96.53 186.66,-103.14"/>
</g>
<!-- Node4 -->
<g id="node4" class="node">
<title>Node4</title>
<g id="a_node4"><a xlink:href="namespacea60_1_1io.html#a16f17ea9e02c1975ca17b77e46cf7629" target="_top" xlink:title="Make sure a path ends in &#39;/&#39;;.">
<polygon fill="white" stroke="#666666" points="601.5,-221 511.5,-221 511.5,-204 601.5,-204 601.5,-221"/>
<text text-anchor="middle" x="556.5" y="-210.6" font-family="SourceSans" font-size="8.00">a60::io::end_path</text>
</a>
</g>
</g>
<!-- Node3&#45;&gt;Node4 -->
<g id="edge3" class="edge">
<title>Node3&#45;&gt;Node4</title>
<path fill="none" stroke="#63b8ff" d="M285,-182.92C302.22,-186.76 321.91,-190.76 340,-193.5 394.49,-201.75 457.32,-206.78 501.02,-209.58"/>
<polygon fill="#63b8ff" stroke="#63b8ff" points="500.95,-213.08 511.15,-210.21 501.38,-206.09 500.95,-213.08"/>
</g>
<!-- Node5 -->
<g id="node5" class="node">
<title>Node5</title>
<g id="a_node5"><a xlink:href="namespacea60_1_1io.html#a6ad052ef18cfb1a1ac708f7c69c9050d" target="_top" xlink:title="Assumes argument is full path, no error checking...">
<polygon fill="white" stroke="#666666" points="448.5,-184.5 352.5,-184.5 352.5,-158.5 448.5,-158.5 448.5,-184.5"/>
<text text-anchor="start" x="360.5" y="-174.1" font-family="SourceSans" font-size="8.00">a60::io::get_output</text>
<text text-anchor="middle" x="400.5" y="-165.1" font-family="SourceSans" font-size="8.00">_prefix</text>
</a>
</g>
</g>
<!-- Node3&#45;&gt;Node5 -->
<g id="edge4" class="edge">
<title>Node3&#45;&gt;Node5</title>
<path fill="none" stroke="#63b8ff" d="M285.15,-171.5C302.98,-171.5 323.47,-171.5 342.14,-171.5"/>
<polygon fill="#63b8ff" stroke="#63b8ff" points="342.29,-175 352.29,-171.5 342.29,-168 342.29,-175"/>
</g>
<!-- Node5&#45;&gt;Node4 -->
<g id="edge5" class="edge">
<title>Node5&#45;&gt;Node4</title>
<path fill="none" stroke="#63b8ff" d="M448.54,-184.02C469.28,-189.54 493.44,-195.98 513.55,-201.33"/>
<polygon fill="#63b8ff" stroke="#63b8ff" points="512.8,-204.75 523.36,-203.94 514.6,-197.99 512.8,-204.75"/>
</g>
<!-- Node7 -->
<g id="node7" class="node">
<title>Node7</title>
<g id="a_node7"><a xlink:href="namespacea60_1_1geo.html#a3592e801fc5730fc27bab32d194a7a5b" target="_top" xlink:title="Forward declaration for function in a60&#45;json.h.">
<polygon fill="white" stroke="#666666" points="461,-140.5 340,-140.5 340,-114.5 461,-114.5 461,-140.5"/>
<text text-anchor="start" x="348" y="-130.1" font-family="SourceSans" font-size="8.00">a60::geo::deserialize</text>
<text text-anchor="middle" x="400.5" y="-121.1" font-family="SourceSans" font-size="8.00">_json_to_iso_3166_3_map</text>
</a>
</g>
</g>
<!-- Node6&#45;&gt;Node7 -->
<g id="edge7" class="edge">
<title>Node6&#45;&gt;Node7</title>
<path fill="none" stroke="#63b8ff" d="M295.39,-127.5C306.43,-127.5 318.1,-127.5 329.49,-127.5"/>
<polygon fill="#63b8ff" stroke="#63b8ff" points="329.83,-131 339.83,-127.5 329.83,-124 329.83,-131"/>
</g>
<!-- Node7&#45;&gt;Node4 -->
<g id="edge9" class="edge">
<title>Node7&#45;&gt;Node4</title>
<path fill="none" stroke="#63b8ff" d="M445.48,-140.62C450.94,-143.14 456.27,-146.08 461,-149.5 481.77,-164.49 475.82,-180.1 497,-194.5 500.08,-196.6 503.41,-198.45 506.88,-200.1"/>
<polygon fill="#63b8ff" stroke="#63b8ff" points="505.67,-203.39 516.24,-203.99 508.35,-196.92 505.67,-203.39"/>
</g>
<!-- Node8 -->
<g id="node8" class="node">
<title>Node8</title>
<g id="a_node8"><a xlink:href="namespacea60.html#a538d43bb9bfa488a54cea929736dbe2d" target="_top" xlink:title="Deserialize input file.">
<polygon fill="white" stroke="#666666" points="608.5,-185.5 504.5,-185.5 504.5,-159.5 608.5,-159.5 608.5,-185.5"/>
<text text-anchor="start" x="512.5" y="-175.1" font-family="SourceSans" font-size="8.00">a60::deserialize_json</text>
<text text-anchor="middle" x="556.5" y="-166.1" font-family="SourceSans" font-size="8.00">_to_dom</text>
</a>
</g>
</g>
<!-- Node7&#45;&gt;Node8 -->
<g id="edge8" class="edge">
<title>Node7&#45;&gt;Node8</title>
<path fill="none" stroke="#63b8ff" d="M446.04,-140.52C463.21,-145.53 483,-151.32 501,-156.58"/>
<polygon fill="#63b8ff" stroke="#63b8ff" points="500.21,-159.99 510.79,-159.44 502.17,-153.27 500.21,-159.99"/>
</g>
<!-- Node9 -->
<g id="node9" class="node">
<title>Node9</title>
<g id="a_node9"><a xlink:href="namespacea60_1_1io.html#ac95e5271a27a23bc2336d84b3f821fa2" target="_top" xlink:title="Constant filesystem and run&#45;time resources.">
<polygon fill="white" stroke="#666666" points="608.5,-141.5 504.5,-141.5 504.5,-115.5 608.5,-115.5 608.5,-141.5"/>
<text text-anchor="start" x="512.5" y="-131.1" font-family="SourceSans" font-size="8.00">a60::io::get_run_time</text>
<text text-anchor="middle" x="556.5" y="-122.1" font-family="SourceSans" font-size="8.00">_resources</text>
</a>
</g>
</g>
<!-- Node7&#45;&gt;Node9 -->
<g id="edge10" class="edge">
<title>Node7&#45;&gt;Node9</title>
<path fill="none" stroke="#63b8ff" d="M461.04,-127.89C471.82,-127.96 483.07,-128.03 493.91,-128.1"/>
<polygon fill="#63b8ff" stroke="#63b8ff" points="494.11,-131.6 504.13,-128.17 494.16,-124.6 494.11,-131.6"/>
</g>
<!-- Node10 -->
<g id="node10" class="node">
<title>Node10</title>
<g id="a_node10"><a xlink:href="namespacea60.html#a0fc88c5c87f54b303a1856bc2aa76a45" target="_top" xlink:title=" ">
<polygon fill="white" stroke="#666666" points="613.5,-97 499.5,-97 499.5,-80 613.5,-80 613.5,-97"/>
<text text-anchor="middle" x="556.5" y="-86.6" font-family="SourceSans" font-size="8.00">a60::insert_to_iso_3166</text>
</a>
</g>
</g>
<!-- Node7&#45;&gt;Node10 -->
<g id="edge11" class="edge">
<title>Node7&#45;&gt;Node10</title>
<path fill="none" stroke="#63b8ff" d="M453.21,-114.41C472.23,-109.59 493.57,-104.18 511.81,-99.56"/>
<polygon fill="#63b8ff" stroke="#63b8ff" points="512.76,-102.93 521.6,-97.09 511.05,-96.15 512.76,-102.93"/>
</g>
<!-- Node11 -->
<g id="node11" class="node">
<title>Node11</title>
<g id="a_node11"><a xlink:href="namespacea60_1_1io.html#aa5fbb8ab63397dd45c4a54c0758935ef" target="_top" xlink:title="Sanity check input existence.">
<polygon fill="white" stroke="#666666" points="608.5,-61.5 504.5,-61.5 504.5,-35.5 608.5,-35.5 608.5,-61.5"/>
<text text-anchor="start" x="512.5" y="-51.1" font-family="SourceSans" font-size="8.00">a60::io::sanity_check</text>
<text text-anchor="middle" x="556.5" y="-42.1" font-family="SourceSans" font-size="8.00">_input</text>
</a>
</g>
</g>
<!-- Node7&#45;&gt;Node11 -->
<g id="edge12" class="edge">
<title>Node7&#45;&gt;Node11</title>
<path fill="none" stroke="#63b8ff" d="M421.05,-114.42C439.96,-102.11 469.69,-83.66 497,-70.5 500.58,-68.77 504.34,-67.09 508.14,-65.48"/>
<polygon fill="#63b8ff" stroke="#63b8ff" points="509.69,-68.62 517.63,-61.61 507.05,-62.14 509.69,-68.62"/>
</g>
<!-- Node12 -->
<g id="node12" class="node">
<title>Node12</title>
<g id="a_node12"><a xlink:href="namespacea60.html#ac7eddb2e330d8983ddc852edde5335c5" target="_top" xlink:title=" ">
<polygon fill="white" stroke="#666666" points="616,-17 497,-17 497,0 616,0 616,-17"/>
<text text-anchor="middle" x="556.5" y="-6.6" font-family="SourceSans" font-size="8.00">a60::to_lowercase_string</text>
</a>
</g>
</g>
<!-- Node7&#45;&gt;Node12 -->
<g id="edge13" class="edge">
<title>Node7&#45;&gt;Node12</title>
<path fill="none" stroke="#63b8ff" d="M410.46,-114.29C425.74,-92.77 458.87,-50.19 497,-26.5 500.41,-24.38 504.08,-22.5 507.87,-20.83"/>
<polygon fill="#63b8ff" stroke="#63b8ff" points="509.39,-23.99 517.43,-17.09 506.84,-17.47 509.39,-23.99"/>
</g>
</g>
</svg>
