<?xml version="1.0" encoding="UTF-8" standalone="no"?>
<!DOCTYPE svg PUBLIC "-//W3C//DTD SVG 1.1//EN"
 "http://www.w3.org/Graphics/SVG/1.1/DTD/svg11.dtd">
<!-- Generated by graphviz version 5.0.0 (0)
 -->
<!-- Title: a60::make_torrent_collection_ovoid_glyph Pages: 1 -->
<svg width="472pt" height="232pt"
 viewBox="0.00 0.00 472.00 231.50" xmlns="http://www.w3.org/2000/svg" xmlns:xlink="http://www.w3.org/1999/xlink">
<g id="graph0" class="graph" transform="scale(1 1) rotate(0) translate(4 227.5)">
<title>a60::make_torrent_collection_ovoid_glyph</title>
<!-- Node1 -->
<g id="node1" class="node">
<title>Node1</title>
<g id="a_node1"><a xlink:title=" ">
<polygon fill="#999999" stroke="#666666" points="134,-121.5 0,-121.5 0,-95.5 134,-95.5 134,-121.5"/>
<text text-anchor="start" x="8" y="-111.1" font-family="SourceSans" font-size="8.00">a60::make_torrent_collection</text>
<text text-anchor="middle" x="67" y="-102.1" font-family="SourceSans" font-size="8.00">_ovoid_glyph</text>
</a>
</g>
</g>
<!-- Node2 -->
<g id="node2" class="node">
<title>Node2</title>
<g id="a_node2"><a xlink:href="namespacea60.html#a04a926d3b0ca9d55ac2fd8b272c65ac5" target="_top" xlink:title="For ovoid representation.">
<polygon fill="white" stroke="#666666" points="295.5,-223.5 181.5,-223.5 181.5,-197.5 295.5,-197.5 295.5,-223.5"/>
<text text-anchor="start" x="189.5" y="-213.1" font-family="SourceSans" font-size="8.00">a60::augment_weighed</text>
<text text-anchor="middle" x="238.5" y="-204.1" font-family="SourceSans" font-size="8.00">_glyph_v2</text>
</a>
</g>
</g>
<!-- Node1&#45;&gt;Node2 -->
<g id="edge1" class="edge">
<title>Node1&#45;&gt;Node2</title>
<path fill="none" stroke="#63b8ff" d="M81.42,-121.59C99.95,-139.03 135.05,-169.86 170,-188.5 173.45,-190.34 177.08,-192.06 180.79,-193.67"/>
<polygon fill="#63b8ff" stroke="#63b8ff" points="179.56,-196.94 190.14,-197.41 182.16,-190.45 179.56,-196.94"/>
</g>
<!-- Node3 -->
<g id="node3" class="node">
<title>Node3</title>
<g id="a_node3"><a xlink:href="namespacea60.html#af9e02e1293a4eadf10ef7ca9f3979c74" target="_top" xlink:title="Eraser.">
<polygon fill="white" stroke="#666666" points="302.5,-179 174.5,-179 174.5,-162 302.5,-162 302.5,-179"/>
<text text-anchor="middle" x="238.5" y="-168.6" font-family="SourceSans" font-size="8.00">a60::remove_empty_glyphs</text>
</a>
</g>
</g>
<!-- Node1&#45;&gt;Node3 -->
<g id="edge2" class="edge">
<title>Node1&#45;&gt;Node3</title>
<path fill="none" stroke="#63b8ff" d="M94.35,-121.6C114.66,-131.33 143.64,-144.44 170,-153.5 176.07,-155.59 182.54,-157.54 188.96,-159.33"/>
<polygon fill="#63b8ff" stroke="#63b8ff" points="188.41,-162.8 198.97,-161.99 190.21,-156.04 188.41,-162.8"/>
</g>
<!-- Node4 -->
<g id="node4" class="node">
<title>Node4</title>
<g id="a_node4"><a xlink:href="namespacea60.html#a75f5d9553ad7cfab9f6af56253bc746d" target="_top" xlink:title="Sum over vector glyphs, return as new summary glyph.">
<polygon fill="white" stroke="#666666" points="281.5,-144 195.5,-144 195.5,-127 281.5,-127 281.5,-144"/>
<text text-anchor="middle" x="238.5" y="-133.6" font-family="SourceSans" font-size="8.00">a60::sum_glyphs</text>
</a>
</g>
</g>
<!-- Node1&#45;&gt;Node4 -->
<g id="edge3" class="edge">
<title>Node1&#45;&gt;Node4</title>
<path fill="none" stroke="#63b8ff" d="M134.02,-119.02C150.95,-121.71 168.92,-124.58 185.06,-127.15"/>
<polygon fill="#63b8ff" stroke="#63b8ff" points="184.95,-130.67 195.37,-128.79 186.05,-123.76 184.95,-130.67"/>
</g>
<!-- Node5 -->
<g id="node5" class="node">
<title>Node5</title>
<g id="a_node5"><a xlink:href="namespacea60.html#a4e8b0cabed112734147b499bf0cc9029" target="_top" xlink:title="Conversion of resolution_mode to string.">
<polygon fill="white" stroke="#666666" points="275.5,-91 201.5,-91 201.5,-74 275.5,-74 275.5,-91"/>
<text text-anchor="middle" x="238.5" y="-80.6" font-family="SourceSans" font-size="8.00">a60::to_string</text>
</a>
</g>
</g>
<!-- Node1&#45;&gt;Node5 -->
<g id="edge4" class="edge">
<title>Node1&#45;&gt;Node5</title>
<path fill="none" stroke="#63b8ff" d="M134.02,-98.37C153.13,-95.44 173.59,-92.3 191.22,-89.6"/>
<polygon fill="#63b8ff" stroke="#63b8ff" points="191.89,-93.04 201.25,-88.06 190.83,-86.12 191.89,-93.04"/>
</g>
<!-- Node6 -->
<g id="node6" class="node">
<title>Node6</title>
<g id="a_node6"><a xlink:href="structa60_1_1glyph.html#ab2b6d99fc50ac7b0a05644091be9738b" target="_top" xlink:title=" ">
<polygon fill="white" stroke="#666666" points="448,-53 359,-53 359,-36 448,-36 448,-53"/>
<text text-anchor="middle" x="403.5" y="-42.6" font-family="SourceSans" font-size="8.00">a60::glyph::value</text>
</a>
</g>
</g>
<!-- Node1&#45;&gt;Node6 -->
<g id="edge6" class="edge">
<title>Node1&#45;&gt;Node6</title>
<path fill="none" stroke="#63b8ff" d="M92.82,-95.47C113.03,-85.5 142.59,-72.34 170,-65.5 230.08,-50.51 301.26,-45.93 348.9,-44.68"/>
<polygon fill="#63b8ff" stroke="#63b8ff" points="349.07,-48.17 358.99,-44.45 348.91,-41.18 349.07,-48.17"/>
</g>
<!-- Node7 -->
<g id="node7" class="node">
<title>Node7</title>
<g id="a_node7"><a xlink:href="namespacea60.html#a44aac8d8dd1c56a7539473d12b2a4f9a" target="_top" xlink:title="Weigh a vector of glyphs via the number of current peers.">
<polygon fill="white" stroke="#666666" points="307,-17 170,-17 170,0 307,0 307,-17"/>
<text text-anchor="middle" x="238.5" y="-6.6" font-family="SourceSans" font-size="8.00">a60::weigh_glyphs_via_mode</text>
</a>
</g>
</g>
<!-- Node1&#45;&gt;Node7 -->
<g id="edge7" class="edge">
<title>Node1&#45;&gt;Node7</title>
<path fill="none" stroke="#63b8ff" d="M82.19,-95.43C101.03,-78.66 135.89,-49.58 170,-31.5 178.11,-27.2 187.18,-23.47 195.97,-20.32"/>
<polygon fill="#63b8ff" stroke="#63b8ff" points="197.37,-23.55 205.72,-17.03 195.13,-16.92 197.37,-23.55"/>
</g>
<!-- Node5&#45;&gt;Node5 -->
<g id="edge5" class="edge">
<title>Node5&#45;&gt;Node5</title>
<path fill="none" stroke="#63b8ff" d="M214.06,-91.19C200.57,-99.67 208.71,-109 238.5,-109 258.98,-109 269.23,-104.59 269.25,-99.08"/>
<polygon fill="#63b8ff" stroke="#63b8ff" points="271.92,-96.81 262.94,-91.19 266.45,-101.18 271.92,-96.81"/>
</g>
<!-- Node7&#45;&gt;Node6 -->
<g id="edge9" class="edge">
<title>Node7&#45;&gt;Node6</title>
<path fill="none" stroke="#63b8ff" d="M278.13,-17.03C300.78,-22.03 329.61,-28.4 353.81,-33.75"/>
<polygon fill="#63b8ff" stroke="#63b8ff" points="353.35,-37.23 363.87,-35.97 354.86,-30.39 353.35,-37.23"/>
</g>
<!-- Node8 -->
<g id="node8" class="node">
<title>Node8</title>
<g id="a_node8"><a xlink:href="namespacea60.html#a0d53d95ed1faf99432c1eaaa0d238732" target="_top" xlink:title="Normalize value from (min, max) on (nfloor, nceil)">
<polygon fill="white" stroke="#666666" points="464,-17 343,-17 343,0 464,0 464,-17"/>
<text text-anchor="middle" x="403.5" y="-6.6" font-family="SourceSans" font-size="8.00">a60::normalize_on_range</text>
</a>
</g>
</g>
<!-- Node7&#45;&gt;Node8 -->
<g id="edge8" class="edge">
<title>Node7&#45;&gt;Node8</title>
<path fill="none" stroke="#63b8ff" d="M307.21,-8.5C315.61,-8.5 324.2,-8.5 332.63,-8.5"/>
<polygon fill="#63b8ff" stroke="#63b8ff" points="332.8,-12 342.8,-8.5 332.8,-5 332.8,-12"/>
</g>
</g>
</svg>
