<?xml version="1.0" encoding="UTF-8" standalone="no"?>
<!DOCTYPE svg PUBLIC "-//W3C//DTD SVG 1.1//EN"
 "http://www.w3.org/Graphics/SVG/1.1/DTD/svg11.dtd">
<!-- Generated by graphviz version 5.0.0 (0)
 -->
<!-- Title: a60::augment_collection_titles Pages: 1 -->
<svg width="722pt" height="175pt"
 viewBox="0.00 0.00 722.00 175.00" xmlns="http://www.w3.org/2000/svg" xmlns:xlink="http://www.w3.org/1999/xlink">
<g id="graph0" class="graph" transform="scale(1 1) rotate(0) translate(4 171)">
<title>a60::augment_collection_titles</title>
<!-- Node1 -->
<g id="node1" class="node">
<title>Node1</title>
<g id="a_node1"><a xlink:title=" ">
<polygon fill="#999999" stroke="#666666" points="119,-81.5 0,-81.5 0,-55.5 119,-55.5 119,-81.5"/>
<text text-anchor="start" x="8" y="-71.1" font-family="SourceSans" font-size="8.00">a60::augment_collection</text>
<text text-anchor="middle" x="59.5" y="-62.1" font-family="SourceSans" font-size="8.00">_titles</text>
</a>
</g>
</g>
<!-- Node2 -->
<g id="node2" class="node">
<title>Node2</title>
<g id="a_node2"><a xlink:href="namespacea60.html#a6988d87e92c20662cfa1e19ad5f4da6f" target="_top" xlink:title="Whole earth, 1x, summary style (classic)">
<polygon fill="white" stroke="#666666" points="274,-81.5 155,-81.5 155,-55.5 274,-55.5 274,-81.5"/>
<text text-anchor="start" x="163" y="-71.1" font-family="SourceSans" font-size="8.00">a60::augment_collection</text>
<text text-anchor="middle" x="214.5" y="-62.1" font-family="SourceSans" font-size="8.00">_titles_2</text>
</a>
</g>
</g>
<!-- Node1&#45;&gt;Node2 -->
<g id="edge1" class="edge">
<title>Node1&#45;&gt;Node2</title>
<path fill="none" stroke="#63b8ff" d="M119.22,-68.5C127.54,-68.5 136.17,-68.5 144.67,-68.5"/>
<polygon fill="#63b8ff" stroke="#63b8ff" points="144.94,-72 154.94,-68.5 144.94,-65 144.94,-72"/>
</g>
<!-- Node3 -->
<g id="node3" class="node">
<title>Node3</title>
<g id="a_node3"><a xlink:href="namespacea60.html#ad8f50fdaa7f0fdee7309f430e72ce72e" target="_top" xlink:title="Swarm_mode dominates.">
<polygon fill="white" stroke="#666666" points="446,-132 310,-132 310,-115 446,-115 446,-132"/>
<text text-anchor="middle" x="378" y="-121.6" font-family="SourceSans" font-size="8.00">a60::augment_sum_glyphs_2</text>
</a>
</g>
</g>
<!-- Node2&#45;&gt;Node3 -->
<g id="edge2" class="edge">
<title>Node2&#45;&gt;Node3</title>
<path fill="none" stroke="#63b8ff" d="M244.92,-81.51C263.38,-89.38 287.81,-99.26 310,-106.5 316.36,-108.58 323.13,-110.55 329.83,-112.38"/>
<polygon fill="#63b8ff" stroke="#63b8ff" points="328.97,-115.77 339.53,-114.94 330.76,-109 328.97,-115.77"/>
</g>
<!-- Node7 -->
<g id="node7" class="node">
<title>Node7</title>
<g id="a_node7"><a xlink:href="namespacea60_1_1carto.html#af59ef7858ef576e7f17b781f38436f28" target="_top" xlink:title=" ">
<polygon fill="white" stroke="#666666" points="439,-97 317,-97 317,-80 439,-80 439,-97"/>
<text text-anchor="middle" x="378" y="-86.6" font-family="SourceSans" font-size="8.00">a60::carto::frame_margin</text>
</a>
</g>
</g>
<!-- Node2&#45;&gt;Node7 -->
<g id="edge7" class="edge">
<title>Node2&#45;&gt;Node7</title>
<path fill="none" stroke="#63b8ff" d="M274.26,-75.78C284.9,-77.09 296.08,-78.48 307,-79.83"/>
<polygon fill="#63b8ff" stroke="#63b8ff" points="306.57,-83.3 316.93,-81.06 307.43,-76.36 306.57,-83.3"/>
</g>
<!-- Node8 -->
<g id="node8" class="node">
<title>Node8</title>
<g id="a_node8"><a xlink:href="structa60_1_1collection.html#a4b5f4e6148e18b08ccc033e200327cdf" target="_top" xlink:title="Display/output name for torrent collection, including partition, episode/multiepisode,...">
<polygon fill="white" stroke="#666666" points="433,-61.5 323,-61.5 323,-35.5 433,-35.5 433,-61.5"/>
<text text-anchor="start" x="331" y="-51.1" font-family="SourceSans" font-size="8.00">a60::collection::media</text>
<text text-anchor="middle" x="378" y="-42.1" font-family="SourceSans" font-size="8.00">_object_name</text>
</a>
</g>
</g>
<!-- Node2&#45;&gt;Node8 -->
<g id="edge8" class="edge">
<title>Node2&#45;&gt;Node8</title>
<path fill="none" stroke="#63b8ff" d="M274.26,-61.22C286.79,-59.67 300.08,-58.03 312.79,-56.45"/>
<polygon fill="#63b8ff" stroke="#63b8ff" points="313.35,-59.91 322.84,-55.21 312.49,-52.96 313.35,-59.91"/>
</g>
<!-- Node9 -->
<g id="node9" class="node">
<title>Node9</title>
<g id="a_node9"><a xlink:href="namespacea60.html#a9d17d06e9d4dfbebc3b6541240b5a6f6" target="_top" xlink:title=" ">
<polygon fill="white" stroke="#666666" points="443,-17 313,-17 313,0 443,0 443,-17"/>
<text text-anchor="middle" x="378" y="-6.6" font-family="SourceSans" font-size="8.00">a60::strip_dir_to_timestamp</text>
</a>
</g>
</g>
<!-- Node2&#45;&gt;Node9 -->
<g id="edge9" class="edge">
<title>Node2&#45;&gt;Node9</title>
<path fill="none" stroke="#63b8ff" d="M241.93,-55.42C260.64,-46.5 286.48,-34.83 310,-26.5 316.87,-24.07 324.23,-21.78 331.48,-19.7"/>
<polygon fill="#63b8ff" stroke="#63b8ff" points="332.51,-23.05 341.22,-17.01 330.65,-16.3 332.51,-23.05"/>
</g>
<!-- Node4 -->
<g id="node4" class="node">
<title>Node4</title>
<g id="a_node4"><a xlink:href="namespacea60.html#ac2702e5ee0d3e84919043e65e486f8cc" target="_top" xlink:title="Swarm_mode dominates.">
<polygon fill="white" stroke="#666666" points="604,-149 482,-149 482,-132 604,-132 604,-149"/>
<text text-anchor="middle" x="543" y="-138.6" font-family="SourceSans" font-size="8.00">a60::augment_sum_glyph</text>
</a>
</g>
</g>
<!-- Node3&#45;&gt;Node4 -->
<g id="edge3" class="edge">
<title>Node3&#45;&gt;Node4</title>
<path fill="none" stroke="#63b8ff" d="M446.24,-130.51C454.66,-131.39 463.28,-132.29 471.74,-133.17"/>
<polygon fill="#63b8ff" stroke="#63b8ff" points="471.65,-136.68 481.96,-134.24 472.37,-129.72 471.65,-136.68"/>
</g>
<!-- Node6 -->
<g id="node6" class="node">
<title>Node6</title>
<g id="a_node6"><a xlink:href="namespacea60.html#a75f5d9553ad7cfab9f6af56253bc746d" target="_top" xlink:title="Sum over vector glyphs, return as new summary glyph.">
<polygon fill="white" stroke="#666666" points="586,-114 500,-114 500,-97 586,-97 586,-114"/>
<text text-anchor="middle" x="543" y="-103.6" font-family="SourceSans" font-size="8.00">a60::sum_glyphs</text>
</a>
</g>
</g>
<!-- Node3&#45;&gt;Node6 -->
<g id="edge6" class="edge">
<title>Node3&#45;&gt;Node6</title>
<path fill="none" stroke="#63b8ff" d="M446.24,-116.07C460.64,-114.49 475.64,-112.83 489.39,-111.31"/>
<polygon fill="#63b8ff" stroke="#63b8ff" points="490.07,-114.76 499.63,-110.18 489.31,-107.8 490.07,-114.76"/>
</g>
<!-- Node5 -->
<g id="node5" class="node">
<title>Node5</title>
<g id="a_node5"><a xlink:href="namespacea60.html#a4e8b0cabed112734147b499bf0cc9029" target="_top" xlink:title="Conversion of resolution_mode to string.">
<polygon fill="white" stroke="#666666" points="714,-149 640,-149 640,-132 714,-132 714,-149"/>
<text text-anchor="middle" x="677" y="-138.6" font-family="SourceSans" font-size="8.00">a60::to_string</text>
</a>
</g>
</g>
<!-- Node4&#45;&gt;Node5 -->
<g id="edge4" class="edge">
<title>Node4&#45;&gt;Node5</title>
<path fill="none" stroke="#63b8ff" d="M604.21,-140.5C612.72,-140.5 621.36,-140.5 629.55,-140.5"/>
<polygon fill="#63b8ff" stroke="#63b8ff" points="629.66,-144 639.66,-140.5 629.66,-137 629.66,-144"/>
</g>
<!-- Node5&#45;&gt;Node5 -->
<g id="edge5" class="edge">
<title>Node5&#45;&gt;Node5</title>
<path fill="none" stroke="#63b8ff" d="M657.03,-149.19C646,-157.67 652.66,-167 677,-167 692.97,-167 701.33,-162.98 702.07,-157.82"/>
<polygon fill="#63b8ff" stroke="#63b8ff" points="705.07,-156.01 696.97,-149.19 699.04,-159.58 705.07,-156.01"/>
</g>
</g>
</svg>
