<?xml version="1.0" encoding="UTF-8" standalone="no"?>
<!DOCTYPE svg PUBLIC "-//W3C//DTD SVG 1.1//EN"
 "http://www.w3.org/Graphics/SVG/1.1/DTD/svg11.dtd">
<!-- Generated by graphviz version 5.0.0 (0)
 -->
<!-- Title: a60::coalesce_torrents_per_hour Pages: 1 -->
<!--zoomable 739 -->
<svg id="main" version="1.1" xmlns="http://www.w3.org/2000/svg" xmlns:xlink="http://www.w3.org/1999/xlink" xml:space="preserve" onload="init(evt)">
<style type="text/css"><![CDATA[
.edge:hover path { stroke: red; }
.edge:hover polygon { stroke: red; fill: red; }
]]></style>
<script type="text/javascript"><![CDATA[
var edges = document.getElementsByTagName('g');
if (edges && edges.length) {
  for (var i=0;i<edges.length;i++) {
    if (edges[i].id.substr(0,4)=='edge') {
      edges[i].setAttribute('class','edge');
    }
  }
}
]]></script>
        <defs>
                <circle id="rim" cx="0" cy="0" r="7"/>
                <circle id="rim2" cx="0" cy="0" r="3.5"/>
                <g id="zoomPlus">
                        <use xlink:href="#rim" fill="#404040">
                                <set attributeName="fill" to="#808080" begin="zoomplus.mouseover" end="zoomplus.mouseout"/>
                        </use>
                        <path d="M-4,0h8M0,-4v8" fill="none" stroke="white" stroke-width="1.5" pointer-events="none"/>
                </g>
                <g id="zoomMin">
                        <use xlink:href="#rim" fill="#404040">
                                <set attributeName="fill" to="#808080" begin="zoomminus.mouseover" end="zoomminus.mouseout"/>
                        </use>
                        <path d="M-4,0h8" fill="none" stroke="white" stroke-width="1.5" pointer-events="none"/>
                </g>
                <g id="dirArrow">
                        <path fill="none" stroke="white" stroke-width="1.5" d="M0,-3.0v7 M-2.5,-0.5L0,-3.0L2.5,-0.5"/>
                </g>
               <g id="resetDef">
                       <use xlink:href="#rim2" fill="#404040">
                               <set attributeName="fill" to="#808080" begin="reset.mouseover" end="reset.mouseout"/>
                       </use>
               </g>
        </defs>

<script type="text/javascript">
var viewWidth = 922;
var viewHeight = 739;
var sectionId = 'dynsection-101';
</script>
<script xlink:href="svgpan.js"/>
<svg id="graph" class="graph">
<g id="viewport">
<title>a60::coalesce_torrents_per_hour</title>
<!-- Node1 -->
<g id="node1" class="node">
<title>Node1</title>
<g id="a_node1"><a xlink:title="In every one&#45;hour sample period, collect files and summarize to hour resolution.">
<polygon fill="#999999" stroke="#666666" points="110,-227.5 0,-227.5 0,-201.5 110,-201.5 110,-227.5"/>
<text text-anchor="start" x="8" y="-217.1" font-family="SourceSans" font-size="8.00">a60::coalesce_torrents</text>
<text text-anchor="middle" x="55" y="-208.1" font-family="SourceSans" font-size="8.00">_per_hour</text>
</a>
</g>
</g>
<!-- Node2 -->
<g id="node2" class="node">
<title>Node2</title>
<g id="a_node2"><a xlink:href="classthread__pool.html#a7a459493866cf961a2c2e1805505afa6" target="_top" xlink:title=" ">
<polygon fill="white" stroke="#666666" points="254.5,-642 159.5,-642 159.5,-625 254.5,-625 254.5,-642"/>
<text text-anchor="middle" x="207" y="-631.6" font-family="SourceSans" font-size="8.00">thread_pool::async</text>
</a>
</g>
</g>
<!-- Node1&#45;&gt;Node2 -->
<g id="edge1" class="edge">
<title>Node1&#45;&gt;Node2</title>
<path fill="none" stroke="#63b8ff" d="M60.82,-227.97C82.86,-289.53 174.03,-544.2 199.42,-615.11"/>
<polygon fill="#63b8ff" stroke="#63b8ff" points="196.24,-616.61 202.9,-624.85 202.83,-614.26 196.24,-616.61"/>
</g>
<!-- Node5 -->
<g id="node5" class="node">
<title>Node5</title>
<g id="a_node5"><a xlink:href="namespacea60.html#abb952a2d5815bf10e6562cd49541fba4" target="_top" xlink:title="Inner loop for routine below, computing a per&#45;hour cache.">
<polygon fill="white" stroke="#666666" points="268,-372 146,-372 146,-355 268,-355 268,-372"/>
<text text-anchor="middle" x="207" y="-361.6" font-family="SourceSans" font-size="8.00">a60::coalesce_each_hour</text>
</a>
</g>
</g>
<!-- Node1&#45;&gt;Node5 -->
<g id="edge4" class="edge">
<title>Node1&#45;&gt;Node5</title>
<path fill="none" stroke="#63b8ff" d="M62.21,-227.87C74.65,-253.26 104.96,-308.76 146,-340.5 151.4,-344.67 157.64,-348.16 164.01,-351.06"/>
<polygon fill="#63b8ff" stroke="#63b8ff" points="162.78,-354.34 173.36,-354.89 165.44,-347.86 162.78,-354.34"/>
</g>
<!-- Node32 -->
<g id="node32" class="node">
<title>Node32</title>
<g id="a_node32"><a xlink:href="namespacea60.html#af871f1f40e1735c2deda28b42b2f9555" target="_top" xlink:title="Calculate hours elapsed from origin.">
<polygon fill="white" stroke="#666666" points="262,-331.5 152,-331.5 152,-305.5 262,-305.5 262,-331.5"/>
<text text-anchor="start" x="160" y="-321.1" font-family="SourceSans" font-size="8.00">a60::cumulative_hours</text>
<text text-anchor="middle" x="207" y="-312.1" font-family="SourceSans" font-size="8.00">_elapsed</text>
</a>
</g>
</g>
<!-- Node1&#45;&gt;Node32 -->
<g id="edge33" class="edge">
<title>Node1&#45;&gt;Node32</title>
<path fill="none" stroke="#63b8ff" d="M68.77,-227.52C85.42,-243.98 115.96,-272.44 146,-291.5 151.38,-294.91 157.27,-298.12 163.18,-301.05"/>
<polygon fill="#63b8ff" stroke="#63b8ff" points="161.89,-304.31 172.43,-305.41 164.88,-297.98 161.89,-304.31"/>
</g>
<!-- Node33 -->
<g id="node33" class="node">
<title>Node33</title>
<g id="a_node33"><a xlink:href="structa60_1_1collection.html#a61604643dbeea09b4fb20d6db5658b91" target="_top" xlink:title=" ">
<polygon fill="white" stroke="#666666" points="257,-249.5 157,-249.5 157,-223.5 257,-223.5 257,-249.5"/>
<text text-anchor="start" x="165" y="-239.1" font-family="SourceSans" font-size="8.00">a60::collection::find</text>
<text text-anchor="middle" x="207" y="-230.1" font-family="SourceSans" font-size="8.00">_data_dates_times</text>
</a>
</g>
</g>
<!-- Node1&#45;&gt;Node33 -->
<g id="edge34" class="edge">
<title>Node1&#45;&gt;Node33</title>
<path fill="none" stroke="#63b8ff" d="M110.15,-222.44C122.09,-224.19 134.78,-226.05 146.9,-227.83"/>
<polygon fill="#63b8ff" stroke="#63b8ff" points="146.51,-231.31 156.91,-229.3 147.52,-224.39 146.51,-231.31"/>
</g>
<!-- Node35 -->
<g id="node35" class="node">
<title>Node35</title>
<g id="a_node35"><a xlink:href="namespacea60_1_1constants.html#ac27c77e4606552ae5f74a1c21dd9258e" target="_top" xlink:title=" ">
<polygon fill="white" stroke="#666666" points="595.5,-114 478.5,-114 478.5,-97 595.5,-97 595.5,-114"/>
<text text-anchor="middle" x="537" y="-103.6" font-family="SourceSans" font-size="8.00">a60::constants::newline</text>
</a>
</g>
</g>
<!-- Node1&#45;&gt;Node35 -->
<g id="edge47" class="edge">
<title>Node1&#45;&gt;Node35</title>
<path fill="none" stroke="#63b8ff" d="M64.62,-201.37C78.8,-181.06 109.19,-142.67 146,-126.5 252.94,-79.51 392.55,-86.25 472.44,-95.69"/>
<polygon fill="#63b8ff" stroke="#63b8ff" points="472.48,-99.22 482.84,-96.97 473.34,-92.27 472.48,-99.22"/>
</g>
<!-- Node36 -->
<g id="node36" class="node">
<title>Node36</title>
<g id="a_node36"><a xlink:href="namespacea60.html#a823693c573000de9c14ceef433e1f6ef" target="_top" xlink:title="Assume list of date_time_stamps. Input as: 2017&#45;10&#45;15&#45;at&#45;12&#45;00. Unique date times stamps are: 2017&#45;10...">
<polygon fill="white" stroke="#666666" points="261.5,-205.5 152.5,-205.5 152.5,-179.5 261.5,-179.5 261.5,-205.5"/>
<text text-anchor="start" x="160.5" y="-195.1" font-family="SourceSans" font-size="8.00">a60::find_unique_date</text>
<text text-anchor="middle" x="207" y="-186.1" font-family="SourceSans" font-size="8.00">_hour_stamps</text>
</a>
</g>
</g>
<!-- Node1&#45;&gt;Node36 -->
<g id="edge42" class="edge">
<title>Node1&#45;&gt;Node36</title>
<path fill="none" stroke="#63b8ff" d="M110.15,-206.56C120.58,-205.03 131.6,-203.41 142.3,-201.84"/>
<polygon fill="#63b8ff" stroke="#63b8ff" points="143.04,-205.27 152.43,-200.36 142.03,-198.35 143.04,-205.27"/>
</g>
<!-- Node37 -->
<g id="node37" class="node">
<title>Node37</title>
<g id="a_node37"><a xlink:href="namespacea60.html#ab2d91fa9f89ff63b0eecb19c7651a42a" target="_top" xlink:title="Assume filenames input files. Unique date times stamps are: 2017&#45;10&#45;15&#45;at&#45;12&#45;00.">
<polygon fill="white" stroke="#666666" points="261.5,-161.5 152.5,-161.5 152.5,-135.5 261.5,-135.5 261.5,-161.5"/>
<text text-anchor="start" x="160.5" y="-151.1" font-family="SourceSans" font-size="8.00">a60::find_unique_date</text>
<text text-anchor="middle" x="207" y="-142.1" font-family="SourceSans" font-size="8.00">_time_stamps</text>
</a>
</g>
</g>
<!-- Node1&#45;&gt;Node37 -->
<g id="edge43" class="edge">
<title>Node1&#45;&gt;Node37</title>
<path fill="none" stroke="#63b8ff" d="M80.89,-201.47C98.79,-192.31 123.6,-180.05 146,-170.5 150.19,-168.71 154.58,-166.93 158.99,-165.21"/>
<polygon fill="#63b8ff" stroke="#63b8ff" points="160.55,-168.36 168.64,-161.52 158.05,-161.82 160.55,-168.36"/>
</g>
<!-- Node39 -->
<g id="node39" class="node">
<title>Node39</title>
<g id="a_node39"><a xlink:href="structa60_1_1collection.html#ab2d0c48edcab0545eeb0b6f263371022" target="_top" xlink:title=" ">
<polygon fill="white" stroke="#666666" points="426.5,-291.5 316.5,-291.5 316.5,-265.5 426.5,-265.5 426.5,-291.5"/>
<text text-anchor="start" x="324.5" y="-281.1" font-family="SourceSans" font-size="8.00">a60::collection::match</text>
<text text-anchor="middle" x="371.5" y="-272.1" font-family="SourceSans" font-size="8.00">_files</text>
</a>
</g>
</g>
<!-- Node1&#45;&gt;Node39 -->
<g id="edge45" class="edge">
<title>Node1&#45;&gt;Node39</title>
<path fill="none" stroke="#63b8ff" d="M77.3,-227.7C95,-237.96 121.2,-251.59 146,-258.5 198.74,-273.2 260.89,-277.8 306.41,-278.96"/>
<polygon fill="#63b8ff" stroke="#63b8ff" points="306.38,-282.46 316.45,-279.16 306.52,-275.46 306.38,-282.46"/>
</g>
<!-- Node40 -->
<g id="node40" class="node">
<title>Node40</title>
<g id="a_node40"><a xlink:href="structa60_1_1collection.html#a481d8e6e9ea5f9cb136846d75b0f50c4" target="_top" xlink:title=" ">
<polygon fill="white" stroke="#666666" points="264,-79.5 150,-79.5 150,-53.5 264,-53.5 264,-79.5"/>
<text text-anchor="start" x="158" y="-69.1" font-family="SourceSans" font-size="8.00">a60::collection::remove</text>
<text text-anchor="middle" x="207" y="-60.1" font-family="SourceSans" font-size="8.00">_matching_strings</text>
</a>
</g>
</g>
<!-- Node1&#45;&gt;Node40 -->
<g id="edge48" class="edge">
<title>Node1&#45;&gt;Node40</title>
<path fill="none" stroke="#63b8ff" d="M62.72,-201.5C75.79,-177.31 106.82,-124.99 146,-93.5 150.28,-90.06 155.08,-86.95 160.04,-84.18"/>
<polygon fill="#63b8ff" stroke="#63b8ff" points="161.77,-87.23 169.07,-79.56 158.58,-81 161.77,-87.23"/>
</g>
<!-- Node42 -->
<g id="node42" class="node">
<title>Node42</title>
<g id="a_node42"><a xlink:href="namespacea60_1_1constants.html#a01d9786063fb572d9389b0cd207bbe53" target="_top" xlink:title=" ">
<polygon fill="white" stroke="#666666" points="256,-17 158,-17 158,0 256,0 256,-17"/>
<text text-anchor="middle" x="207" y="-6.6" font-family="SourceSans" font-size="8.00">a60::constants::tab</text>
</a>
</g>
</g>
<!-- Node1&#45;&gt;Node42 -->
<g id="edge50" class="edge">
<title>Node1&#45;&gt;Node42</title>
<path fill="none" stroke="#63b8ff" d="M60.28,-201.08C70.68,-170.23 99.82,-93.22 146,-44.5 154.73,-35.29 166.31,-27.61 176.98,-21.74"/>
<polygon fill="#63b8ff" stroke="#63b8ff" points="178.75,-24.76 186.02,-17.05 175.53,-18.54 178.75,-24.76"/>
</g>
<!-- Node3 -->
<g id="node3" class="node">
<title>Node3</title>
<g id="a_node3"><a xlink:href="classthread__pool.html#adb81e803e844526177b0f8a72229dda2" target="_top" xlink:title=" ">
<polygon fill="white" stroke="#666666" points="425,-682 318,-682 318,-665 425,-665 425,-682"/>
<text text-anchor="middle" x="371.5" y="-671.6" font-family="SourceSans" font-size="8.00">thread_pool::add_task</text>
</a>
</g>
</g>
<!-- Node2&#45;&gt;Node3 -->
<g id="edge2" class="edge">
<title>Node2&#45;&gt;Node3</title>
<path fill="none" stroke="#63b8ff" d="M242.86,-642.08C267.07,-648.04 299.53,-656.03 325.66,-662.46"/>
<polygon fill="#63b8ff" stroke="#63b8ff" points="325.15,-665.94 335.7,-664.93 326.82,-659.14 325.15,-665.94"/>
</g>
<!-- Node4 -->
<g id="node4" class="node">
<title>Node4</title>
<g id="a_node4"><a xlink:href="classbase__thread__pool.html#ab99cb06ba52430880d337400fedc20d1" target="_top" xlink:title=" ">
<polygon fill="white" stroke="#666666" points="437,-646.5 306,-646.5 306,-620.5 437,-620.5 437,-646.5"/>
<text text-anchor="start" x="314" y="-636.1" font-family="SourceSans" font-size="8.00">base_thread_pool&lt; std</text>
<text text-anchor="middle" x="371.5" y="-627.1" font-family="SourceSans" font-size="8.00">::future&lt; void &gt; &gt;::package</text>
</a>
</g>
</g>
<!-- Node2&#45;&gt;Node4 -->
<g id="edge3" class="edge">
<title>Node2&#45;&gt;Node4</title>
<path fill="none" stroke="#63b8ff" d="M254.57,-633.5C267.4,-633.5 281.65,-633.5 295.64,-633.5"/>
<polygon fill="#63b8ff" stroke="#63b8ff" points="295.76,-637 305.76,-633.5 295.76,-630 295.76,-637"/>
</g>
<!-- Node6 -->
<g id="node6" class="node">
<title>Node6</title>
<g id="a_node6"><a xlink:href="structa60_1_1collection.html#a772cab0c0123491c08a92fce4cf0eacb" target="_top" xlink:title=" ">
<polygon fill="white" stroke="#666666" points="599,-234.5 475,-234.5 475,-208.5 599,-208.5 599,-234.5"/>
<text text-anchor="start" x="483" y="-224.1" font-family="SourceSans" font-size="8.00">a60::collection::collection</text>
<text text-anchor="middle" x="537" y="-215.1" font-family="SourceSans" font-size="8.00">_archive_directory</text>
</a>
</g>
</g>
<!-- Node5&#45;&gt;Node6 -->
<g id="edge5" class="edge">
<title>Node5&#45;&gt;Node6</title>
<path fill="none" stroke="#63b8ff" d="M254.46,-354.97C313.1,-343.5 409.84,-322.07 439,-300.5 463.09,-282.68 451.64,-262.27 475,-243.5 476.75,-242.1 478.59,-240.78 480.51,-239.54"/>
<polygon fill="#63b8ff" stroke="#63b8ff" points="482.28,-242.56 489.28,-234.61 478.85,-236.46 482.28,-242.56"/>
</g>
<!-- Node9 -->
<g id="node9" class="node">
<title>Node9</title>
<g id="a_node9"><a xlink:href="structa60_1_1collection.html#a6c09e15effe8e57d54949bbfd8fb9db0" target="_top" xlink:title=" ">
<polygon fill="white" stroke="#666666" points="427,-602.5 316,-602.5 316,-576.5 427,-576.5 427,-602.5"/>
<text text-anchor="start" x="324" y="-592.1" font-family="SourceSans" font-size="8.00">a60::collection::rescue</text>
<text text-anchor="middle" x="371.5" y="-583.1" font-family="SourceSans" font-size="8.00">_meta_peers</text>
</a>
</g>
</g>
<!-- Node5&#45;&gt;Node9 -->
<g id="edge8" class="edge">
<title>Node5&#45;&gt;Node9</title>
<path fill="none" stroke="#63b8ff" d="M212.06,-372.1C224.08,-397.15 261.38,-471.68 304,-525.5 316.69,-541.52 333.24,-557.46 346.65,-569.43"/>
<polygon fill="#63b8ff" stroke="#63b8ff" points="344.71,-572.38 354.54,-576.33 349.32,-567.11 344.71,-572.38"/>
</g>
<!-- Node18 -->
<g id="node18" class="node">
<title>Node18</title>
<g id="a_node18"><a xlink:href="namespacea60.html#a481196ce0dd2fed071183fa6e47ecd70" target="_top" xlink:title="Write out meta_peers for a specific ID at SUFFIX.">
<polygon fill="white" stroke="#666666" points="439,-516 304,-516 304,-499 439,-499 439,-516"/>
<text text-anchor="middle" x="371.5" y="-505.6" font-family="SourceSans" font-size="8.00">a60::reserialize_sample_json</text>
</a>
</g>
</g>
<!-- Node5&#45;&gt;Node18 -->
<g id="edge18" class="edge">
<title>Node5&#45;&gt;Node18</title>
<path fill="none" stroke="#63b8ff" d="M217.68,-372.08C244.26,-395.63 318.68,-461.58 352.89,-491.89"/>
<polygon fill="#63b8ff" stroke="#63b8ff" points="350.86,-494.77 360.67,-498.79 355.5,-489.53 350.86,-494.77"/>
</g>
<!-- Node25 -->
<g id="node25" class="node">
<title>Node25</title>
<g id="a_node25"><a xlink:href="namespacea60.html#a96be6f3a12e16a84ef5b465832f1657c" target="_top" xlink:title="Accumulate peers all files in all subdirectories of dir matching dirm. Where all files matching filem...">
<polygon fill="white" stroke="#666666" points="423.5,-372 319.5,-372 319.5,-355 423.5,-355 423.5,-372"/>
<text text-anchor="middle" x="371.5" y="-361.6" font-family="SourceSans" font-size="8.00">a60::usunique_peers</text>
</a>
</g>
</g>
<!-- Node5&#45;&gt;Node25 -->
<g id="edge25" class="edge">
<title>Node5&#45;&gt;Node25</title>
<path fill="none" stroke="#63b8ff" d="M268.05,-363.5C281.45,-363.5 295.68,-363.5 309.13,-363.5"/>
<polygon fill="#63b8ff" stroke="#63b8ff" points="309.24,-367 319.24,-363.5 309.24,-360 309.24,-367"/>
</g>
<!-- Node7 -->
<g id="node7" class="node">
<title>Node7</title>
<g id="a_node7"><a xlink:href="namespacea60_1_1io.html#a16f17ea9e02c1975ca17b77e46cf7629" target="_top" xlink:title="Make sure a path ends in &#39;/&#39;;.">
<polygon fill="white" stroke="#666666" points="738,-211 648,-211 648,-194 738,-194 738,-211"/>
<text text-anchor="middle" x="693" y="-200.6" font-family="SourceSans" font-size="8.00">a60::io::end_path</text>
</a>
</g>
</g>
<!-- Node6&#45;&gt;Node7 -->
<g id="edge6" class="edge">
<title>Node6&#45;&gt;Node7</title>
<path fill="none" stroke="#63b8ff" d="M599.31,-213.94C612.02,-212.37 625.33,-210.73 637.77,-209.19"/>
<polygon fill="#63b8ff" stroke="#63b8ff" points="638.48,-212.63 647.98,-207.93 637.62,-205.68 638.48,-212.63"/>
</g>
<!-- Node8 -->
<g id="node8" class="node">
<title>Node8</title>
<g id="a_node8"><a xlink:href="namespacea60_1_1io.html#ac95e5271a27a23bc2336d84b3f821fa2" target="_top" xlink:title="Constant filesystem and run&#45;time resources.">
<polygon fill="white" stroke="#666666" points="745,-165.5 641,-165.5 641,-139.5 745,-139.5 745,-165.5"/>
<text text-anchor="start" x="649" y="-155.1" font-family="SourceSans" font-size="8.00">a60::io::get_run_time</text>
<text text-anchor="middle" x="693" y="-146.1" font-family="SourceSans" font-size="8.00">_resources</text>
</a>
</g>
</g>
<!-- Node6&#45;&gt;Node8 -->
<g id="edge7" class="edge">
<title>Node6&#45;&gt;Node8</title>
<path fill="none" stroke="#63b8ff" d="M567.33,-208.36C591.73,-197.42 626.67,-181.77 653.36,-169.81"/>
<polygon fill="#63b8ff" stroke="#63b8ff" points="655.09,-172.87 662.78,-165.59 652.22,-166.49 655.09,-172.87"/>
</g>
<!-- Node10 -->
<g id="node10" class="node">
<title>Node10</title>
<g id="a_node10"><a xlink:href="namespacea60.html#a24d75332c6079b3a73c8c69498455c55" target="_top" xlink:title="Try again to get geoip information for peers that are returning (0,0).">
<polygon fill="white" stroke="#666666" points="592.5,-640 481.5,-640 481.5,-623 592.5,-623 592.5,-640"/>
<text text-anchor="middle" x="537" y="-629.6" font-family="SourceSans" font-size="8.00">a60::rescue_lost_peers</text>
</a>
</g>
</g>
<!-- Node9&#45;&gt;Node10 -->
<g id="edge9" class="edge">
<title>Node9&#45;&gt;Node10</title>
<path fill="none" stroke="#63b8ff" d="M423.34,-602.56C445.67,-608.3 471.62,-614.96 492.98,-620.45"/>
<polygon fill="#63b8ff" stroke="#63b8ff" points="492.19,-623.86 502.75,-622.96 493.93,-617.08 492.19,-623.86"/>
</g>
<!-- Node17 -->
<g id="node17" class="node">
<title>Node17</title>
<g id="a_node17"><a xlink:href="namespacea60.html#a718120588394d0516778b6ad06793bf8" target="_top" xlink:title="See what peers have no country info or latitude/longitude.">
<polygon fill="white" stroke="#666666" points="592.5,-679 481.5,-679 481.5,-662 592.5,-662 592.5,-679"/>
<text text-anchor="middle" x="537" y="-668.6" font-family="SourceSans" font-size="8.00">a60::survey_lost_peers</text>
</a>
</g>
</g>
<!-- Node9&#45;&gt;Node17 -->
<g id="edge16" class="edge">
<title>Node9&#45;&gt;Node17</title>
<path fill="none" stroke="#63b8ff" d="M421.37,-602.54C427.52,-605.08 433.56,-608.04 439,-611.5 458.64,-623.97 455.44,-636.91 475,-649.5 480.31,-652.92 486.25,-655.86 492.28,-658.35"/>
<polygon fill="#63b8ff" stroke="#63b8ff" points="491.15,-661.67 501.74,-661.92 493.62,-655.11 491.15,-661.67"/>
</g>
<!-- Node11 -->
<g id="node11" class="node">
<title>Node11</title>
<g id="a_node11"><a xlink:href="namespacea60.html#ac39b0d667e2ffa7a1bf2df7cc4e5ac38" target="_top" xlink:title="IFF either of the above is true.">
<polygon fill="white" stroke="#666666" points="748.5,-682 637.5,-682 637.5,-665 748.5,-665 748.5,-682"/>
<text text-anchor="middle" x="693" y="-671.6" font-family="SourceSans" font-size="8.00">a60::is_meta_peer_lost</text>
</a>
</g>
</g>
<!-- Node10&#45;&gt;Node11 -->
<g id="edge10" class="edge">
<title>Node10&#45;&gt;Node11</title>
<path fill="none" stroke="#63b8ff" d="M569.54,-640.1C593.07,-646.52 625.44,-655.35 650.99,-662.32"/>
<polygon fill="#63b8ff" stroke="#63b8ff" points="650.2,-665.73 660.77,-664.98 652.04,-658.97 650.2,-665.73"/>
</g>
<!-- Node14 -->
<g id="node14" class="node">
<title>Node14</title>
<g id="a_node14"><a xlink:href="namespacea60.html#ad300edc3a7396b9f52a64f37e9443891" target="_top" xlink:title="No GeoIP.">
<polygon fill="white" stroke="#666666" points="746.5,-602 639.5,-602 639.5,-585 746.5,-585 746.5,-602"/>
<text text-anchor="middle" x="693" y="-591.6" font-family="SourceSans" font-size="8.00">a60::make_meta_peer</text>
</a>
</g>
</g>
<!-- Node10&#45;&gt;Node14 -->
<g id="edge13" class="edge">
<title>Node10&#45;&gt;Node14</title>
<path fill="none" stroke="#63b8ff" d="M572.56,-622.97C594.68,-617.52 623.58,-610.38 647.42,-604.5"/>
<polygon fill="#63b8ff" stroke="#63b8ff" points="648.42,-607.86 657.29,-602.07 646.74,-601.06 648.42,-607.86"/>
</g>
<!-- Node15 -->
<g id="node15" class="node">
<title>Node15</title>
<g id="a_node15"><a xlink:href="structa60_1_1geo_1_1map__base.html#a9215731f10e2fa8488b0e081c2a5cef4" target="_top" xlink:title=" ">
<polygon fill="white" stroke="#666666" points="744,-646.5 642,-646.5 642,-620.5 744,-620.5 744,-646.5"/>
<text text-anchor="start" x="650" y="-636.1" font-family="SourceSans" font-size="8.00">a60::geo::map_base</text>
<text text-anchor="middle" x="693" y="-627.1" font-family="SourceSans" font-size="8.00">::open</text>
</a>
</g>
</g>
<!-- Node10&#45;&gt;Node15 -->
<g id="edge14" class="edge">
<title>Node10&#45;&gt;Node15</title>
<path fill="none" stroke="#63b8ff" d="M592.73,-632.21C605.35,-632.37 618.84,-632.55 631.68,-632.72"/>
<polygon fill="#63b8ff" stroke="#63b8ff" points="631.77,-636.22 641.82,-632.85 631.86,-629.22 631.77,-636.22"/>
</g>
<!-- Node12 -->
<g id="node12" class="node">
<title>Node12</title>
<g id="a_node12"><a xlink:href="namespacea60.html#a63bf2b0abf68edc3f3e74a0811fe771b" target="_top" xlink:title="Error checking support. Null Island Check (aka latitude and longitude set to zero).">
<polygon fill="white" stroke="#666666" points="904,-686.5 797,-686.5 797,-660.5 904,-660.5 904,-686.5"/>
<text text-anchor="start" x="805" y="-676.1" font-family="SourceSans" font-size="8.00">a60::is_meta_peer_on</text>
<text text-anchor="middle" x="850.5" y="-667.1" font-family="SourceSans" font-size="8.00">_null_island</text>
</a>
</g>
</g>
<!-- Node11&#45;&gt;Node12 -->
<g id="edge11" class="edge">
<title>Node11&#45;&gt;Node12</title>
<path fill="none" stroke="#63b8ff" d="M748.82,-673.5C761.05,-673.5 774.11,-673.5 786.63,-673.5"/>
<polygon fill="#63b8ff" stroke="#63b8ff" points="787,-677 797,-673.5 787,-670 787,-677"/>
</g>
<!-- Node13 -->
<g id="node13" class="node">
<title>Node13</title>
<g id="a_node13"><a xlink:href="namespacea60.html#a0ff511c579a9f94ffff788b1cd4ae864" target="_top" xlink:title="Null Country Check.">
<polygon fill="white" stroke="#666666" points="914,-730.5 787,-730.5 787,-704.5 914,-704.5 914,-730.5"/>
<text text-anchor="start" x="795" y="-720.1" font-family="SourceSans" font-size="8.00">a60::is_meta_peer_without</text>
<text text-anchor="middle" x="850.5" y="-711.1" font-family="SourceSans" font-size="8.00">_country</text>
</a>
</g>
</g>
<!-- Node11&#45;&gt;Node13 -->
<g id="edge12" class="edge">
<title>Node11&#45;&gt;Node13</title>
<path fill="none" stroke="#63b8ff" d="M724.35,-682.09C743.99,-687.65 770.17,-695.05 793.5,-701.65"/>
<polygon fill="#63b8ff" stroke="#63b8ff" points="792.72,-705.07 803.29,-704.43 794.62,-698.34 792.72,-705.07"/>
</g>
<!-- Node16 -->
<g id="node16" class="node">
<title>Node16</title>
<g id="a_node16"><a xlink:href="namespacea60_1_1io.html#aa5fbb8ab63397dd45c4a54c0758935ef" target="_top" xlink:title="Sanity check input existence.">
<polygon fill="white" stroke="#666666" points="902.5,-642.5 798.5,-642.5 798.5,-616.5 902.5,-616.5 902.5,-642.5"/>
<text text-anchor="start" x="806.5" y="-632.1" font-family="SourceSans" font-size="8.00">a60::io::sanity_check</text>
<text text-anchor="middle" x="850.5" y="-623.1" font-family="SourceSans" font-size="8.00">_input</text>
</a>
</g>
</g>
<!-- Node15&#45;&gt;Node16 -->
<g id="edge15" class="edge">
<title>Node15&#45;&gt;Node16</title>
<path fill="none" stroke="#63b8ff" d="M744.06,-632.21C758.2,-631.85 773.74,-631.45 788.45,-631.07"/>
<polygon fill="#63b8ff" stroke="#63b8ff" points="788.56,-634.57 798.47,-630.81 788.38,-627.57 788.56,-634.57"/>
</g>
<!-- Node17&#45;&gt;Node11 -->
<g id="edge17" class="edge">
<title>Node17&#45;&gt;Node11</title>
<path fill="none" stroke="#63b8ff" d="M592.73,-671.57C603.96,-671.78 615.89,-672.02 627.43,-672.24"/>
<polygon fill="#63b8ff" stroke="#63b8ff" points="627.38,-675.74 637.45,-672.44 627.52,-668.74 627.38,-675.74"/>
</g>
<!-- Node19 -->
<g id="node19" class="node">
<title>Node19</title>
<g id="a_node19"><a xlink:href="namespacea60.html#aba8b47de875bd5bebeed9c57e3b52c06" target="_top" xlink:title="Serialize buffer to output file.">
<polygon fill="white" stroke="#666666" points="587.5,-580 486.5,-580 486.5,-563 587.5,-563 587.5,-580"/>
<text text-anchor="middle" x="537" y="-569.6" font-family="SourceSans" font-size="8.00">a60::serialize_buffer</text>
</a>
</g>
</g>
<!-- Node18&#45;&gt;Node19 -->
<g id="edge19" class="edge">
<title>Node18&#45;&gt;Node19</title>
<path fill="none" stroke="#63b8ff" d="M389.61,-516.04C409.73,-525.87 444.27,-542.13 475,-553.5 481.12,-555.76 487.66,-557.94 494.1,-559.95"/>
<polygon fill="#63b8ff" stroke="#63b8ff" points="493.49,-563.42 504.07,-562.96 495.51,-556.72 493.49,-563.42"/>
</g>
<!-- Node20 -->
<g id="node20" class="node">
<title>Node20</title>
<g id="a_node20"><a xlink:href="namespacea60.html#a94d004bc4c17246fd2bb76cabb121d9a" target="_top" xlink:title="Per collection metadata for given duration.">
<polygon fill="white" stroke="#666666" points="595,-544.5 479,-544.5 479,-518.5 595,-518.5 595,-544.5"/>
<text text-anchor="start" x="487" y="-534.1" font-family="SourceSans" font-size="8.00">a60::serialize_collection</text>
<text text-anchor="middle" x="537" y="-525.1" font-family="SourceSans" font-size="8.00">_metadata_json</text>
</a>
</g>
</g>
<!-- Node18&#45;&gt;Node20 -->
<g id="edge20" class="edge">
<title>Node18&#45;&gt;Node20</title>
<path fill="none" stroke="#63b8ff" d="M430.6,-516.03C442.99,-517.85 456.17,-519.78 468.86,-521.64"/>
<polygon fill="#63b8ff" stroke="#63b8ff" points="468.5,-525.13 478.91,-523.12 469.52,-518.2 468.5,-525.13"/>
</g>
<!-- Node23 -->
<g id="node23" class="node">
<title>Node23</title>
<g id="a_node23"><a xlink:href="namespacea60.html#a87cd73602b7d6cf64ef441200cfda504" target="_top" xlink:title="Serialize vector of meta_peer.">
<polygon fill="white" stroke="#666666" points="586,-500.5 488,-500.5 488,-474.5 586,-474.5 586,-500.5"/>
<text text-anchor="start" x="496" y="-490.1" font-family="SourceSans" font-size="8.00">a60::serialize_meta</text>
<text text-anchor="middle" x="537" y="-481.1" font-family="SourceSans" font-size="8.00">_peers_json</text>
</a>
</g>
</g>
<!-- Node18&#45;&gt;Node23 -->
<g id="edge23" class="edge">
<title>Node18&#45;&gt;Node23</title>
<path fill="none" stroke="#63b8ff" d="M439,-499.37C451.71,-497.81 464.93,-496.19 477.37,-494.67"/>
<polygon fill="#63b8ff" stroke="#63b8ff" points="478.11,-498.11 487.61,-493.42 477.26,-491.16 478.11,-498.11"/>
</g>
<!-- Node21 -->
<g id="node21" class="node">
<title>Node21</title>
<g id="a_node21"><a xlink:href="structa60_1_1collection.html#a8ac066ef3bb824d0ecff3b1238e358e4" target="_top" xlink:title=" ">
<polygon fill="white" stroke="#666666" points="742,-566.5 644,-566.5 644,-540.5 742,-540.5 742,-566.5"/>
<text text-anchor="start" x="652" y="-556.1" font-family="SourceSans" font-size="8.00">a60::collection::get</text>
<text text-anchor="middle" x="693" y="-547.1" font-family="SourceSans" font-size="8.00">_name_from_tid</text>
</a>
</g>
</g>
<!-- Node20&#45;&gt;Node21 -->
<g id="edge21" class="edge">
<title>Node20&#45;&gt;Node21</title>
<path fill="none" stroke="#63b8ff" d="M595.34,-539.69C607.89,-541.48 621.19,-543.38 633.78,-545.18"/>
<polygon fill="#63b8ff" stroke="#63b8ff" points="633.29,-548.65 643.69,-546.6 634.28,-541.72 633.29,-548.65"/>
</g>
<!-- Node22 -->
<g id="node22" class="node">
<title>Node22</title>
<g id="a_node22"><a xlink:href="namespacea60.html#a5491ff3ca7dc34407696caaa90828819" target="_top" xlink:title="First collection serialization, common for all writing.">
<polygon fill="white" stroke="#666666" points="751,-522.5 635,-522.5 635,-496.5 751,-496.5 751,-522.5"/>
<text text-anchor="start" x="643" y="-512.1" font-family="SourceSans" font-size="8.00">a60::serialize_collection</text>
<text text-anchor="middle" x="693" y="-503.1" font-family="SourceSans" font-size="8.00">_base_json</text>
</a>
</g>
</g>
<!-- Node20&#45;&gt;Node22 -->
<g id="edge22" class="edge">
<title>Node20&#45;&gt;Node22</title>
<path fill="none" stroke="#63b8ff" d="M595.34,-523.31C604.93,-521.94 614.95,-520.51 624.75,-519.11"/>
<polygon fill="#63b8ff" stroke="#63b8ff" points="625.46,-522.54 634.86,-517.66 624.47,-515.61 625.46,-522.54"/>
</g>
<!-- Node24 -->
<g id="node24" class="node">
<title>Node24</title>
<g id="a_node24"><a xlink:href="namespacea60.html#a2228baa081fe66cea91ed8032bda4732" target="_top" xlink:title="Serialize meta_peer.">
<polygon fill="white" stroke="#666666" points="742,-478.5 644,-478.5 644,-452.5 742,-452.5 742,-478.5"/>
<text text-anchor="start" x="652" y="-468.1" font-family="SourceSans" font-size="8.00">a60::serialize_meta</text>
<text text-anchor="middle" x="693" y="-459.1" font-family="SourceSans" font-size="8.00">_peer_json</text>
</a>
</g>
</g>
<!-- Node23&#45;&gt;Node24 -->
<g id="edge24" class="edge">
<title>Node23&#45;&gt;Node24</title>
<path fill="none" stroke="#63b8ff" d="M586.3,-480.6C601.35,-478.45 618.11,-476.06 633.77,-473.82"/>
<polygon fill="#63b8ff" stroke="#63b8ff" points="634.46,-477.26 643.87,-472.38 633.47,-470.33 634.46,-477.26"/>
</g>
<!-- Node26 -->
<g id="node26" class="node">
<title>Node26</title>
<g id="a_node26"><a xlink:href="namespacea60.html#af45982273a7a2e61b6aaa436081238c0" target="_top" xlink:title="Load JSON file to in&#45;memory DOM.">
<polygon fill="white" stroke="#666666" points="589,-456.5 485,-456.5 485,-430.5 589,-430.5 589,-456.5"/>
<text text-anchor="start" x="493" y="-446.1" font-family="SourceSans" font-size="8.00">a60::deserialize_json</text>
<text text-anchor="middle" x="537" y="-437.1" font-family="SourceSans" font-size="8.00">_to_dom_object</text>
</a>
</g>
</g>
<!-- Node25&#45;&gt;Node26 -->
<g id="edge26" class="edge">
<title>Node25&#45;&gt;Node26</title>
<path fill="none" stroke="#63b8ff" d="M386.04,-372.14C405.29,-384.2 441.93,-406.31 475,-421.5 478.86,-423.27 482.9,-425 486.99,-426.65"/>
<polygon fill="#63b8ff" stroke="#63b8ff" points="485.97,-430.01 496.56,-430.38 488.51,-423.49 485.97,-430.01"/>
</g>
<!-- Node28 -->
<g id="node28" class="node">
<title>Node28</title>
<g id="a_node28"><a xlink:href="namespacea60.html#aa900ae641408375a5d008580bab781df" target="_top" xlink:title="Input as: /home/bkoz/src/alpha60&#45;data/game&#45;of&#45;thrones&#45;703/2017&#45;07&#45;31&#45;at&#45;22&#45;30 Output as: 2017.">
<polygon fill="white" stroke="#666666" points="591,-412 483,-412 483,-395 591,-395 591,-412"/>
<text text-anchor="middle" x="537" y="-401.6" font-family="SourceSans" font-size="8.00">a60::find_unique_year</text>
</a>
</g>
</g>
<!-- Node25&#45;&gt;Node28 -->
<g id="edge28" class="edge">
<title>Node25&#45;&gt;Node28</title>
<path fill="none" stroke="#63b8ff" d="M407.57,-372.08C432.04,-378.07 464.88,-386.1 491.23,-392.55"/>
<polygon fill="#63b8ff" stroke="#63b8ff" points="490.44,-395.96 500.98,-394.93 492.1,-389.16 490.44,-395.96"/>
</g>
<!-- Node29 -->
<g id="node29" class="node">
<title>Node29</title>
<g id="a_node29"><a xlink:href="namespacea60_1_1io.html#aea30b8fc474f5a7b922516dc1e199037" target="_top" xlink:title="Takes a string representing a directory, returns a sorted list of contents as a std::vector&lt;string&gt;.">
<polygon fill="white" stroke="#666666" points="592,-332 482,-332 482,-315 592,-315 592,-332"/>
<text text-anchor="middle" x="537" y="-321.6" font-family="SourceSans" font-size="8.00">a60::io::populate_files</text>
</a>
</g>
</g>
<!-- Node25&#45;&gt;Node29 -->
<g id="edge29" class="edge">
<title>Node25&#45;&gt;Node29</title>
<path fill="none" stroke="#63b8ff" d="M407.57,-354.92C432.04,-348.93 464.88,-340.9 491.23,-334.45"/>
<polygon fill="#63b8ff" stroke="#63b8ff" points="492.1,-337.84 500.98,-332.07 490.44,-331.04 492.1,-337.84"/>
</g>
<!-- Node30 -->
<g id="node30" class="node">
<title>Node30</title>
<g id="a_node30"><a xlink:href="namespacea60_1_1io.html#afbc9bd4e46187119419128390e16a033" target="_top" xlink:title="Takes a string representing a directory, returns a list of contents as a std::vector&lt;string&gt;.">
<polygon fill="white" stroke="#666666" points="590.5,-278.5 483.5,-278.5 483.5,-252.5 590.5,-252.5 590.5,-278.5"/>
<text text-anchor="start" x="491.5" y="-268.1" font-family="SourceSans" font-size="8.00">a60::io::populate_sub</text>
<text text-anchor="middle" x="537" y="-259.1" font-family="SourceSans" font-size="8.00">_directories</text>
</a>
</g>
</g>
<!-- Node25&#45;&gt;Node30 -->
<g id="edge30" class="edge">
<title>Node25&#45;&gt;Node30</title>
<path fill="none" stroke="#63b8ff" d="M397.3,-354.96C410.16,-350.06 425.88,-343.34 439,-335.5 456.64,-324.97 458.46,-318.69 475,-306.5 485.25,-298.95 496.78,-291.06 507.03,-284.23"/>
<polygon fill="#63b8ff" stroke="#63b8ff" points="509.22,-286.98 515.64,-278.55 505.37,-281.14 509.22,-286.98"/>
</g>
<!-- Node31 -->
<g id="node31" class="node">
<title>Node31</title>
<g id="a_node31"><a xlink:href="namespacea60.html#a6ce8704ec3c4d5e258d062283dd40efb" target="_top" xlink:title="Search DOM for meta_peer(s).">
<polygon fill="white" stroke="#666666" points="588.5,-376.5 485.5,-376.5 485.5,-350.5 588.5,-350.5 588.5,-376.5"/>
<text text-anchor="start" x="493.5" y="-366.1" font-family="SourceSans" font-size="8.00">a60::search_dom_for</text>
<text text-anchor="middle" x="537" y="-357.1" font-family="SourceSans" font-size="8.00">_meta_peers</text>
</a>
</g>
</g>
<!-- Node25&#45;&gt;Node31 -->
<g id="edge32" class="edge">
<title>Node25&#45;&gt;Node31</title>
<path fill="none" stroke="#63b8ff" d="M423.78,-363.5C440.07,-363.5 458.24,-363.5 475.13,-363.5"/>
<polygon fill="#63b8ff" stroke="#63b8ff" points="475.46,-367 485.46,-363.5 475.46,-360 475.46,-367"/>
</g>
<!-- Node27 -->
<g id="node27" class="node">
<title>Node27</title>
<g id="a_node27"><a xlink:href="namespacea60.html#a538d43bb9bfa488a54cea929736dbe2d" target="_top" xlink:title="Deserialize input file.">
<polygon fill="white" stroke="#666666" points="745,-434.5 641,-434.5 641,-408.5 745,-408.5 745,-434.5"/>
<text text-anchor="start" x="649" y="-424.1" font-family="SourceSans" font-size="8.00">a60::deserialize_json</text>
<text text-anchor="middle" x="693" y="-415.1" font-family="SourceSans" font-size="8.00">_to_dom</text>
</a>
</g>
</g>
<!-- Node26&#45;&gt;Node27 -->
<g id="edge27" class="edge">
<title>Node26&#45;&gt;Node27</title>
<path fill="none" stroke="#63b8ff" d="M589.28,-436.17C602.66,-434.26 617.21,-432.18 631.03,-430.21"/>
<polygon fill="#63b8ff" stroke="#63b8ff" points="631.54,-433.67 640.94,-428.79 630.55,-426.74 631.54,-433.67"/>
</g>
<!-- Node30&#45;&gt;Node30 -->
<g id="edge31" class="edge">
<title>Node30&#45;&gt;Node30</title>
<path fill="none" stroke="#63b8ff" d="M510.61,-278.56C502.61,-287.6 511.41,-296.5 537,-296.5 552.6,-296.5 561.96,-293.19 565.08,-288.57"/>
<polygon fill="#63b8ff" stroke="#63b8ff" points="568.5,-287.84 563.39,-278.56 561.6,-289 568.5,-287.84"/>
</g>
<!-- Node33&#45;&gt;Node6 -->
<g id="edge35" class="edge">
<title>Node33&#45;&gt;Node6</title>
<path fill="none" stroke="#63b8ff" d="M257.1,-234.25C312.12,-231.74 401.81,-227.64 464.59,-224.77"/>
<polygon fill="#63b8ff" stroke="#63b8ff" points="464.98,-228.25 474.81,-224.3 464.66,-221.26 464.98,-228.25"/>
</g>
<!-- Node34 -->
<g id="node34" class="node">
<title>Node34</title>
<g id="a_node34"><a xlink:href="structa60_1_1collection.html#abc4d01b1b17d4622939cb6c5c0f9b38b" target="_top" xlink:title=" ">
<polygon fill="white" stroke="#666666" points="429.5,-204.5 313.5,-204.5 313.5,-178.5 429.5,-178.5 429.5,-204.5"/>
<text text-anchor="start" x="321.5" y="-194.1" font-family="SourceSans" font-size="8.00">a60::collection::prune</text>
<text text-anchor="middle" x="371.5" y="-185.1" font-family="SourceSans" font-size="8.00">_archive_sub_directories</text>
</a>
</g>
</g>
<!-- Node33&#45;&gt;Node34 -->
<g id="edge36" class="edge">
<title>Node33&#45;&gt;Node34</title>
<path fill="none" stroke="#63b8ff" d="M255,-223.48C273.28,-218.42 294.39,-212.58 313.52,-207.28"/>
<polygon fill="#63b8ff" stroke="#63b8ff" points="314.62,-210.61 323.32,-204.56 312.75,-203.86 314.62,-210.61"/>
</g>
<!-- Node34&#45;&gt;Node6 -->
<g id="edge37" class="edge">
<title>Node34&#45;&gt;Node6</title>
<path fill="none" stroke="#63b8ff" d="M429.68,-201.99C441.12,-204.09 453.27,-206.32 465.11,-208.49"/>
<polygon fill="#63b8ff" stroke="#63b8ff" points="464.49,-211.94 474.96,-210.3 465.75,-205.05 464.49,-211.94"/>
</g>
<!-- Node34&#45;&gt;Node7 -->
<g id="edge38" class="edge">
<title>Node34&#45;&gt;Node7</title>
<path fill="none" stroke="#63b8ff" d="M429.62,-193.47C488.55,-195.5 579.78,-198.64 637.66,-200.63"/>
<polygon fill="#63b8ff" stroke="#63b8ff" points="637.6,-204.13 647.71,-200.98 637.84,-197.13 637.6,-204.13"/>
</g>
<!-- Node34&#45;&gt;Node8 -->
<g id="edge39" class="edge">
<title>Node34&#45;&gt;Node8</title>
<path fill="none" stroke="#63b8ff" d="M429.62,-184.53C486.26,-177.61 572.75,-167.06 630.78,-159.97"/>
<polygon fill="#63b8ff" stroke="#63b8ff" points="631.41,-163.42 640.91,-158.74 630.56,-156.47 631.41,-163.42"/>
</g>
<!-- Node34&#45;&gt;Node30 -->
<g id="edge41" class="edge">
<title>Node34&#45;&gt;Node30</title>
<path fill="none" stroke="#63b8ff" d="M396.13,-204.54C416.65,-215.61 447.34,-231.55 475,-243.5 479.18,-245.31 483.57,-247.09 487.98,-248.82"/>
<polygon fill="#63b8ff" stroke="#63b8ff" points="487.05,-252.21 497.65,-252.48 489.54,-245.66 487.05,-252.21"/>
</g>
<!-- Node34&#45;&gt;Node35 -->
<g id="edge40" class="edge">
<title>Node34&#45;&gt;Node35</title>
<path fill="none" stroke="#63b8ff" d="M416.11,-178.36C424.04,-175.08 432.01,-171.14 439,-166.5 458.38,-153.63 455.62,-141.38 475,-128.5 481.29,-124.32 488.44,-120.76 495.58,-117.78"/>
<polygon fill="#63b8ff" stroke="#63b8ff" points="497.14,-120.92 505.22,-114.06 494.63,-114.39 497.14,-120.92"/>
</g>
<!-- Node38 -->
<g id="node38" class="node">
<title>Node38</title>
<g id="a_node38"><a xlink:href="namespacea60_1_1io.html#af9ba5ecc6e668e47fb2f020216f7b611" target="_top" xlink:title="Strip off path component from full&#45;qualified filename.">
<polygon fill="white" stroke="#666666" points="420.5,-157 322.5,-157 322.5,-140 420.5,-140 420.5,-157"/>
<text text-anchor="middle" x="371.5" y="-146.6" font-family="SourceSans" font-size="8.00">a60::io::prune_path</text>
</a>
</g>
</g>
<!-- Node37&#45;&gt;Node38 -->
<g id="edge44" class="edge">
<title>Node37&#45;&gt;Node38</title>
<path fill="none" stroke="#63b8ff" d="M261.66,-148.5C277.89,-148.5 295.79,-148.5 312.3,-148.5"/>
<polygon fill="#63b8ff" stroke="#63b8ff" points="312.37,-152 322.37,-148.5 312.37,-145 312.37,-152"/>
</g>
<!-- Node39&#45;&gt;Node29 -->
<g id="edge46" class="edge">
<title>Node39&#45;&gt;Node29</title>
<path fill="none" stroke="#63b8ff" d="M419.79,-291.52C443.62,-298.07 472.22,-305.95 495.09,-312.24"/>
<polygon fill="#63b8ff" stroke="#63b8ff" points="494.26,-315.64 504.83,-314.92 496.12,-308.89 494.26,-315.64"/>
</g>
<!-- Node41 -->
<g id="node41" class="node">
<title>Node41</title>
<g id="a_node41"><a xlink:href="namespacea60.html#ac7eddb2e330d8983ddc852edde5335c5" target="_top" xlink:title=" ">
<polygon fill="white" stroke="#666666" points="431,-75 312,-75 312,-58 431,-58 431,-75"/>
<text text-anchor="middle" x="371.5" y="-64.6" font-family="SourceSans" font-size="8.00">a60::to_lowercase_string</text>
</a>
</g>
</g>
<!-- Node40&#45;&gt;Node41 -->
<g id="edge49" class="edge">
<title>Node40&#45;&gt;Node41</title>
<path fill="none" stroke="#63b8ff" d="M264.38,-66.5C276.34,-66.5 289.09,-66.5 301.46,-66.5"/>
<polygon fill="#63b8ff" stroke="#63b8ff" points="301.74,-70 311.74,-66.5 301.74,-63 301.74,-70"/>
</g>
<!-- Node42&#45;&gt;Node42 -->
<g id="edge51" class="edge">
<title>Node42&#45;&gt;Node42</title>
<path fill="none" stroke="#63b8ff" d="M184.35,-17.19C171.84,-25.67 179.39,-35 207,-35 225.55,-35 235.04,-30.79 235.48,-25.45"/>
<polygon fill="#63b8ff" stroke="#63b8ff" points="238.27,-23.34 229.65,-17.19 232.56,-27.37 238.27,-23.34"/>
</g>
</g>
</svg>
        <g id="navigator" transform="translate(0 0)" fill="#404254">
                <rect fill="#f2f5e9" fill-opacity="0.5" stroke="#606060" stroke-width=".5" x="0" y="0" width="60" height="60"/>
                <use id="zoomplus" xlink:href="#zoomPlus" x="17" y="9" onmousedown="handleZoom(evt,'in')"/>
                <use id="zoomminus" xlink:href="#zoomMin" x="42" y="9" onmousedown="handleZoom(evt,'out')"/>
                <use id="reset" xlink:href="#resetDef" x="30" y="36" onmousedown="handleReset()"/>
                <g id="arrowUp" xlink:href="#dirArrow" transform="translate(30 24)" onmousedown="handlePan(0,-1)">
                  <use xlink:href="#rim" fill="#404040">
                        <set attributeName="fill" to="#808080" begin="arrowUp.mouseover" end="arrowUp.mouseout"/>
                  </use>
                  <path fill="none" stroke="white" stroke-width="1.5" d="M0,-3.0v7 M-2.5,-0.5L0,-3.0L2.5,-0.5"/>
                </g>
                <g id="arrowRight" xlink:href="#dirArrow" transform="rotate(90) translate(36 -43)" onmousedown="handlePan(1,0)">
                  <use xlink:href="#rim" fill="#404040">
                        <set attributeName="fill" to="#808080" begin="arrowRight.mouseover" end="arrowRight.mouseout"/>
                  </use>
                  <path fill="none" stroke="white" stroke-width="1.5" d="M0,-3.0v7 M-2.5,-0.5L0,-3.0L2.5,-0.5"/>
                </g>
                <g id="arrowDown" xlink:href="#dirArrow" transform="rotate(180) translate(-30 -48)" onmousedown="handlePan(0,1)">
                  <use xlink:href="#rim" fill="#404040">
                        <set attributeName="fill" to="#808080" begin="arrowDown.mouseover" end="arrowDown.mouseout"/>
                  </use>
                  <path fill="none" stroke="white" stroke-width="1.5" d="M0,-3.0v7 M-2.5,-0.5L0,-3.0L2.5,-0.5"/>
                </g>
                <g id="arrowLeft" xlink:href="#dirArrow" transform="rotate(270) translate(-36 17)" onmousedown="handlePan(-1,0)">
                  <use xlink:href="#rim" fill="#404040">
                        <set attributeName="fill" to="#808080" begin="arrowLeft.mouseover" end="arrowLeft.mouseout"/>
                  </use>
                  <path fill="none" stroke="white" stroke-width="1.5" d="M0,-3.0v7 M-2.5,-0.5L0,-3.0L2.5,-0.5"/>
                </g>
        </g>
        <svg viewBox="0 0 15 15" width="100%" height="30px" preserveAspectRatio="xMaxYMin meet">
         <g id="arrow_out" transform="scale(0.3 0.3)">
          <a xlink:href="namespacea60_aceca270f495b4f8614979e0bab07d42c_cgraph_org.svg" target="_base">
           <rect id="button" ry="5" rx="5" y="6" x="6" height="38" width="38"
                fill="#f2f5e9" fill-opacity="0.5" stroke="#606060" stroke-width="1.0"/>
           <path id="arrow"
             d="M 11.500037,31.436501 C 11.940474,20.09759 22.043105,11.32322 32.158766,21.979434 L 37.068811,17.246167 C 37.068811,17.246167 37.088388,32 37.088388,32 L 22.160133,31.978069 C 22.160133,31.978069 26.997745,27.140456 26.997745,27.140456 C 18.528582,18.264221 13.291696,25.230495 11.500037,31.436501 z"
             style="fill:#404040;"/>
          </a>
         </g>
        </svg>
</svg>
