<?xml version="1.0" encoding="UTF-8" standalone="no"?>
<!DOCTYPE svg PUBLIC "-//W3C//DTD SVG 1.1//EN"
 "http://www.w3.org/Graphics/SVG/1.1/DTD/svg11.dtd">
<!-- Generated by graphviz version 5.0.0 (0)
 -->
<!-- Title: a60::metadata::mangle_aggregate Pages: 1 -->
<svg width="233pt" height="48pt"
 viewBox="0.00 0.00 233.00 47.50" xmlns="http://www.w3.org/2000/svg" xmlns:xlink="http://www.w3.org/1999/xlink">
<g id="graph0" class="graph" transform="scale(1 1) rotate(0) translate(4 43.5)">
<title>a60::metadata::mangle_aggregate</title>
<!-- Node1 -->
<g id="node1" class="node">
<title>Node1</title>
<g id="a_node1"><a xlink:title=" ">
<polygon fill="#999999" stroke="#666666" points="115,-26 0,-26 0,0 115,0 115,-26"/>
<text text-anchor="start" x="8" y="-15.6" font-family="SourceSans" font-size="8.00">a60::metadata::mangle</text>
<text text-anchor="middle" x="57.5" y="-6.6" font-family="SourceSans" font-size="8.00">_aggregate</text>
</a>
</g>
</g>
<!-- Node2 -->
<g id="node2" class="node">
<title>Node2</title>
<g id="a_node2"><a xlink:href="namespacea60.html#a4e8b0cabed112734147b499bf0cc9029" target="_top" xlink:title="Conversion of resolution_mode to string.">
<polygon fill="white" stroke="#666666" points="225,-21.5 151,-21.5 151,-4.5 225,-4.5 225,-21.5"/>
<text text-anchor="middle" x="188" y="-11.1" font-family="SourceSans" font-size="8.00">a60::to_string</text>
</a>
</g>
</g>
<!-- Node1&#45;&gt;Node2 -->
<g id="edge1" class="edge">
<title>Node1&#45;&gt;Node2</title>
<path fill="none" stroke="#63b8ff" d="M115.24,-13C123.75,-13 132.43,-13 140.69,-13"/>
<polygon fill="#63b8ff" stroke="#63b8ff" points="140.87,-16.5 150.87,-13 140.87,-9.5 140.87,-16.5"/>
</g>
<!-- Node2&#45;&gt;Node2 -->
<g id="edge2" class="edge">
<title>Node2&#45;&gt;Node2</title>
<path fill="none" stroke="#63b8ff" d="M168.63,-21.69C157.93,-30.17 164.39,-39.5 188,-39.5 203.13,-39.5 211.21,-35.67 212.26,-30.69"/>
<polygon fill="#63b8ff" stroke="#63b8ff" points="215.22,-28.8 207.37,-21.69 209.07,-32.14 215.22,-28.8"/>
</g>
</g>
</svg>
