<?xml version="1.0" encoding="UTF-8" standalone="no"?>
<!DOCTYPE svg PUBLIC "-//W3C//DTD SVG 1.1//EN"
 "http://www.w3.org/Graphics/SVG/1.1/DTD/svg11.dtd">
<!-- Generated by graphviz version 5.0.0 (0)
 -->
<!-- Title: a60::sample_and_subsample_type_and_size_metadata Pages: 1 -->
<svg width="432pt" height="147pt"
 viewBox="0.00 0.00 432.00 147.00" xmlns="http://www.w3.org/2000/svg" xmlns:xlink="http://www.w3.org/1999/xlink">
<g id="graph0" class="graph" transform="scale(1 1) rotate(0) translate(4 143)">
<title>a60::sample_and_subsample_type_and_size_metadata</title>
<!-- Node1 -->
<g id="node1" class="node">
<title>Node1</title>
<g id="a_node1"><a xlink:title="Search DOM for type and duration metadata.">
<polygon fill="#999999" stroke="#666666" points="137,-87 0,-87 0,-61 137,-61 137,-87"/>
<text text-anchor="start" x="8" y="-76.6" font-family="SourceSans" font-size="8.00">a60::sample_and_subsample</text>
<text text-anchor="middle" x="68.5" y="-67.6" font-family="SourceSans" font-size="8.00">_type_and_size_metadata</text>
</a>
</g>
</g>
<!-- Node2 -->
<g id="node2" class="node">
<title>Node2</title>
<g id="a_node2"><a xlink:href="namespacea60.html#a538d43bb9bfa488a54cea929736dbe2d" target="_top" xlink:title="Deserialize input file.">
<polygon fill="white" stroke="#666666" points="424,-139 320,-139 320,-113 424,-113 424,-139"/>
<text text-anchor="start" x="328" y="-128.6" font-family="SourceSans" font-size="8.00">a60::deserialize_json</text>
<text text-anchor="middle" x="372" y="-119.6" font-family="SourceSans" font-size="8.00">_to_dom</text>
</a>
</g>
</g>
<!-- Node1&#45;&gt;Node2 -->
<g id="edge1" class="edge">
<title>Node1&#45;&gt;Node2</title>
<path fill="none" stroke="#63b8ff" d="M94.21,-87.15C114.69,-97.34 144.89,-110.73 173,-117 218.11,-127.07 270.38,-129.05 309.89,-128.66"/>
<polygon fill="#63b8ff" stroke="#63b8ff" points="309.96,-132.16 319.9,-128.5 309.85,-125.16 309.96,-132.16"/>
</g>
<!-- Node3 -->
<g id="node3" class="node">
<title>Node3</title>
<g id="a_node3"><a xlink:href="namespacea60.html#a8f888faa648ad9139fc0427217f4f24e" target="_top" xlink:title="Search DOM for a range of integer values.">
<polygon fill="white" stroke="#666666" points="284,-108 173,-108 173,-82 284,-82 284,-108"/>
<text text-anchor="start" x="181" y="-97.6" font-family="SourceSans" font-size="8.00">a60::sample_range_for</text>
<text text-anchor="middle" x="228.5" y="-88.6" font-family="SourceSans" font-size="8.00">_field</text>
</a>
</g>
</g>
<!-- Node1&#45;&gt;Node3 -->
<g id="edge2" class="edge">
<title>Node1&#45;&gt;Node3</title>
<path fill="none" stroke="#63b8ff" d="M137.42,-83.03C145.87,-84.15 154.48,-85.3 162.87,-86.41"/>
<polygon fill="#63b8ff" stroke="#63b8ff" points="162.6,-89.9 172.97,-87.75 163.52,-82.97 162.6,-89.9"/>
</g>
<!-- Node4 -->
<g id="node4" class="node">
<title>Node4</title>
<g id="a_node4"><a xlink:href="namespacea60.html#a800a2e54e8f2d2481c4bb2fb929dba7f" target="_top" xlink:title="Search DOM for integer values.">
<polygon fill="white" stroke="#666666" points="423.5,-86 320.5,-86 320.5,-60 423.5,-60 423.5,-86"/>
<text text-anchor="start" x="328.5" y="-75.6" font-family="SourceSans" font-size="8.00">a60::search_dom_for</text>
<text text-anchor="middle" x="372" y="-66.6" font-family="SourceSans" font-size="8.00">_int_field</text>
</a>
</g>
</g>
<!-- Node1&#45;&gt;Node4 -->
<g id="edge5" class="edge">
<title>Node1&#45;&gt;Node4</title>
<path fill="none" stroke="#63b8ff" d="M137.14,-73.25C149.09,-73.15 161.41,-73.06 173,-73 218.91,-72.78 270.81,-72.79 309.96,-72.85"/>
<polygon fill="#63b8ff" stroke="#63b8ff" points="310.13,-76.35 320.13,-72.86 310.14,-69.35 310.13,-76.35"/>
</g>
<!-- Node5 -->
<g id="node5" class="node">
<title>Node5</title>
<g id="a_node5"><a xlink:href="namespacea60.html#a34d53970ee23a7c014960a2bf1a10e2b" target="_top" xlink:title="Search DOM for string literals.">
<polygon fill="white" stroke="#666666" points="280,-26 177,-26 177,0 280,0 280,-26"/>
<text text-anchor="start" x="185" y="-15.6" font-family="SourceSans" font-size="8.00">a60::search_dom_for</text>
<text text-anchor="middle" x="228.5" y="-6.6" font-family="SourceSans" font-size="8.00">_string_field</text>
</a>
</g>
</g>
<!-- Node1&#45;&gt;Node5 -->
<g id="edge6" class="edge">
<title>Node1&#45;&gt;Node5</title>
<path fill="none" stroke="#63b8ff" d="M103.39,-60.91C127.03,-51.79 158.77,-39.53 184.24,-29.7"/>
<polygon fill="#63b8ff" stroke="#63b8ff" points="185.59,-32.93 193.66,-26.06 183.07,-26.4 185.59,-32.93"/>
</g>
<!-- Node3&#45;&gt;Node2 -->
<g id="edge3" class="edge">
<title>Node3&#45;&gt;Node2</title>
<path fill="none" stroke="#63b8ff" d="M284.21,-106.99C292.59,-108.82 301.29,-110.73 309.81,-112.59"/>
<polygon fill="#63b8ff" stroke="#63b8ff" points="309.17,-116.04 319.69,-114.76 310.67,-109.2 309.17,-116.04"/>
</g>
<!-- Node3&#45;&gt;Node4 -->
<g id="edge4" class="edge">
<title>Node3&#45;&gt;Node4</title>
<path fill="none" stroke="#63b8ff" d="M284.21,-86.49C292.7,-85.17 301.53,-83.8 310.15,-82.46"/>
<polygon fill="#63b8ff" stroke="#63b8ff" points="310.8,-85.9 320.15,-80.91 309.73,-78.98 310.8,-85.9"/>
</g>
</g>
</svg>
