<?xml version="1.0" encoding="UTF-8" standalone="no"?>
<!DOCTYPE svg PUBLIC "-//W3C//DTD SVG 1.1//EN"
 "http://www.w3.org/Graphics/SVG/1.1/DTD/svg11.dtd">
<!-- Generated by graphviz version 5.0.0 (0)
 -->
<!-- Title: a60::io::get_output_sub_directory Pages: 1 -->
<svg width="370pt" height="94pt"
 viewBox="0.00 0.00 370.00 93.50" xmlns="http://www.w3.org/2000/svg" xmlns:xlink="http://www.w3.org/1999/xlink">
<g id="graph0" class="graph" transform="scale(1 1) rotate(0) translate(4 89.5)">
<title>a60::io::get_output_sub_directory</title>
<!-- Node1 -->
<g id="node1" class="node">
<title>Node1</title>
<g id="a_node1"><a xlink:title="Make subdirectory for output files.">
<polygon fill="#999999" stroke="#666666" points="96,-70 0,-70 0,-44 96,-44 96,-70"/>
<text text-anchor="start" x="8" y="-59.6" font-family="SourceSans" font-size="8.00">a60::io::get_output</text>
<text text-anchor="middle" x="48" y="-50.6" font-family="SourceSans" font-size="8.00">_sub_directory</text>
</a>
</g>
</g>
<!-- Node2 -->
<g id="node2" class="node">
<title>Node2</title>
<g id="a_node2"><a xlink:href="namespacea60_1_1io.html#a16f17ea9e02c1975ca17b77e46cf7629" target="_top" xlink:title="Make sure a path ends in &#39;/&#39;;.">
<polygon fill="white" stroke="#666666" points="362,-85.5 272,-85.5 272,-68.5 362,-68.5 362,-85.5"/>
<text text-anchor="middle" x="317" y="-75.1" font-family="SourceSans" font-size="8.00">a60::io::end_path</text>
</a>
</g>
</g>
<!-- Node1&#45;&gt;Node2 -->
<g id="edge1" class="edge">
<title>Node1&#45;&gt;Node2</title>
<path fill="none" stroke="#63b8ff" d="M89.95,-70.1C103.22,-73.74 118.1,-77.19 132,-79 175.43,-84.66 225.12,-83.68 261.91,-81.55"/>
<polygon fill="#63b8ff" stroke="#63b8ff" points="262.16,-85.05 271.93,-80.93 261.73,-78.06 262.16,-85.05"/>
</g>
<!-- Node3 -->
<g id="node3" class="node">
<title>Node3</title>
<g id="a_node3"><a xlink:href="namespacea60_1_1io.html#a6ad052ef18cfb1a1ac708f7c69c9050d" target="_top" xlink:title="Assumes argument is full path, no error checking...">
<polygon fill="white" stroke="#666666" points="232,-70 136,-70 136,-44 232,-44 232,-70"/>
<text text-anchor="start" x="144" y="-59.6" font-family="SourceSans" font-size="8.00">a60::io::get_output</text>
<text text-anchor="middle" x="184" y="-50.6" font-family="SourceSans" font-size="8.00">_prefix</text>
</a>
</g>
</g>
<!-- Node1&#45;&gt;Node3 -->
<g id="edge2" class="edge">
<title>Node1&#45;&gt;Node3</title>
<path fill="none" stroke="#63b8ff" d="M96.24,-57C105.75,-57 115.84,-57 125.65,-57"/>
<polygon fill="#63b8ff" stroke="#63b8ff" points="125.73,-60.5 135.73,-57 125.73,-53.5 125.73,-60.5"/>
</g>
<!-- Node4 -->
<g id="node4" class="node">
<title>Node4</title>
<g id="a_node4"><a xlink:href="namespacea60_1_1io.html#ad8339b50abcf6975587ba229c04066e7" target="_top" xlink:title="Check directory exists, else make it.">
<polygon fill="white" stroke="#666666" points="236,-26 132,-26 132,0 236,0 236,-26"/>
<text text-anchor="start" x="140" y="-15.6" font-family="SourceSans" font-size="8.00">a60::io::sanity_check</text>
<text text-anchor="middle" x="184" y="-6.6" font-family="SourceSans" font-size="8.00">_output_directory</text>
</a>
</g>
</g>
<!-- Node1&#45;&gt;Node4 -->
<g id="edge4" class="edge">
<title>Node1&#45;&gt;Node4</title>
<path fill="none" stroke="#63b8ff" d="M88.84,-43.92C102.76,-39.35 118.55,-34.16 133.18,-29.36"/>
<polygon fill="#63b8ff" stroke="#63b8ff" points="134.67,-32.55 143.08,-26.11 132.49,-25.9 134.67,-32.55"/>
</g>
<!-- Node3&#45;&gt;Node2 -->
<g id="edge3" class="edge">
<title>Node3&#45;&gt;Node2</title>
<path fill="none" stroke="#63b8ff" d="M232.29,-64.22C241.87,-65.68 252,-67.23 261.79,-68.72"/>
<polygon fill="#63b8ff" stroke="#63b8ff" points="261.42,-72.21 271.83,-70.26 262.47,-65.29 261.42,-72.21"/>
</g>
</g>
</svg>
