<?xml version="1.0" encoding="UTF-8" standalone="no"?>
<!DOCTYPE svg PUBLIC "-//W3C//DTD SVG 1.1//EN"
 "http://www.w3.org/Graphics/SVG/1.1/DTD/svg11.dtd">
<!-- Generated by graphviz version 5.0.0 (0)
 -->
<!-- Title: a60::scoped_timer::~scoped_timer Pages: 1 -->
<svg width="232pt" height="60pt"
 viewBox="0.00 0.00 232.00 60.00" xmlns="http://www.w3.org/2000/svg" xmlns:xlink="http://www.w3.org/1999/xlink">
<g id="graph0" class="graph" transform="scale(1 1) rotate(0) translate(4 56)">
<title>a60::scoped_timer::~scoped_timer</title>
<!-- Node1 -->
<g id="node1" class="node">
<title>Node1</title>
<g id="a_node1"><a xlink:title=" ">
<polygon fill="#999999" stroke="#666666" points="99,-38.5 0,-38.5 0,-12.5 99,-12.5 99,-38.5"/>
<text text-anchor="start" x="8" y="-28.1" font-family="SourceSans" font-size="8.00">a60::scoped_timer::</text>
<text text-anchor="middle" x="49.5" y="-19.1" font-family="SourceSans" font-size="8.00">~scoped_timer</text>
</a>
</g>
</g>
<!-- Node2 -->
<g id="node2" class="node">
<title>Node2</title>
<g id="a_node2"><a xlink:href="structa60_1_1timer.html#ab1d57c5fbe6396aca57f2494b250f3ab" target="_top" xlink:title=" ">
<polygon fill="white" stroke="#666666" points="224,-52 135,-52 135,-35 224,-35 224,-52"/>
<text text-anchor="middle" x="179.5" y="-41.6" font-family="SourceSans" font-size="8.00">a60::timer::report</text>
</a>
</g>
</g>
<!-- Node1&#45;&gt;Node2 -->
<g id="edge1" class="edge">
<title>Node1&#45;&gt;Node2</title>
<path fill="none" stroke="#63b8ff" d="M99.26,-32.36C107.59,-33.53 116.3,-34.75 124.76,-35.94"/>
<polygon fill="#63b8ff" stroke="#63b8ff" points="124.52,-39.44 134.91,-37.37 125.5,-32.51 124.52,-39.44"/>
</g>
<!-- Node3 -->
<g id="node3" class="node">
<title>Node3</title>
<g id="a_node3"><a xlink:href="structa60_1_1timer.html#aa7427365263681177baf3b4e3781570e" target="_top" xlink:title=" ">
<polygon fill="white" stroke="#666666" points="221,-17 138,-17 138,0 221,0 221,-17"/>
<text text-anchor="middle" x="179.5" y="-6.6" font-family="SourceSans" font-size="8.00">a60::timer::stop</text>
</a>
</g>
</g>
<!-- Node1&#45;&gt;Node3 -->
<g id="edge2" class="edge">
<title>Node1&#45;&gt;Node3</title>
<path fill="none" stroke="#63b8ff" d="M99.26,-19.02C108.6,-17.78 118.39,-16.48 127.79,-15.23"/>
<polygon fill="#63b8ff" stroke="#63b8ff" points="128.34,-18.69 137.79,-13.91 127.42,-11.75 128.34,-18.69"/>
</g>
</g>
</svg>
