<?xml version="1.0" encoding="UTF-8" standalone="no"?>
<!DOCTYPE svg PUBLIC "-//W3C//DTD SVG 1.1//EN"
 "http://www.w3.org/Graphics/SVG/1.1/DTD/svg11.dtd">
<!-- Generated by graphviz version 5.0.0 (0)
 -->
<!-- Title: a60::carto::ckproj::get_cache_per Pages: 1 -->
<svg width="237pt" height="88pt"
 viewBox="0.00 0.00 237.00 87.50" xmlns="http://www.w3.org/2000/svg" xmlns:xlink="http://www.w3.org/1999/xlink">
<g id="graph0" class="graph" transform="scale(1 1) rotate(0) translate(4 83.5)">
<title>a60::carto::ckproj::get_cache_per</title>
<!-- Node1 -->
<g id="node1" class="node">
<title>Node1</title>
<g id="a_node1"><a xlink:title=" ">
<polygon fill="#999999" stroke="#666666" points="89,-50.5 0,-50.5 0,-24.5 89,-24.5 89,-50.5"/>
<text text-anchor="start" x="8" y="-40.1" font-family="SourceSans" font-size="8.00">a60::carto::ckproj</text>
<text text-anchor="middle" x="44.5" y="-31.1" font-family="SourceSans" font-size="8.00">::get_cache_per</text>
</a>
</g>
</g>
<!-- Node2 -->
<g id="node2" class="node">
<title>Node2</title>
<g id="a_node2"><a xlink:href="structa60_1_1carto_1_1ckproj_1_1ckcache.html#a58cf155f993b3d4cc6b9e266fb3dac8d" target="_top" xlink:title=" ">
<polygon fill="white" stroke="#666666" points="229,-79.5 125,-79.5 125,-53.5 229,-53.5 229,-79.5"/>
<text text-anchor="start" x="133" y="-69.1" font-family="SourceSans" font-size="8.00">a60::carto::ckproj</text>
<text text-anchor="middle" x="177" y="-60.1" font-family="SourceSans" font-size="8.00">::ckcache::get_cache</text>
</a>
</g>
</g>
<!-- Node1&#45;&gt;Node2 -->
<g id="edge1" class="edge">
<title>Node1&#45;&gt;Node2</title>
<path fill="none" stroke="#63b8ff" d="M89.32,-47.24C97.51,-49.06 106.22,-50.99 114.83,-52.91"/>
<polygon fill="#63b8ff" stroke="#63b8ff" points="114.33,-56.38 124.85,-55.13 115.85,-49.55 114.33,-56.38"/>
</g>
<!-- Node3 -->
<g id="node3" class="node">
<title>Node3</title>
<g id="a_node3"><a xlink:href="namespacea60.html#a4e8b0cabed112734147b499bf0cc9029" target="_top" xlink:title="Conversion of resolution_mode to string.">
<polygon fill="white" stroke="#666666" points="214,-17 140,-17 140,0 214,0 214,-17"/>
<text text-anchor="middle" x="177" y="-6.6" font-family="SourceSans" font-size="8.00">a60::to_string</text>
</a>
</g>
</g>
<!-- Node1&#45;&gt;Node3 -->
<g id="edge2" class="edge">
<title>Node1&#45;&gt;Node3</title>
<path fill="none" stroke="#63b8ff" d="M89.32,-27.76C102.42,-24.85 116.81,-21.65 130.04,-18.71"/>
<polygon fill="#63b8ff" stroke="#63b8ff" points="130.89,-22.11 139.9,-16.52 129.38,-15.28 130.89,-22.11"/>
</g>
<!-- Node3&#45;&gt;Node3 -->
<g id="edge3" class="edge">
<title>Node3&#45;&gt;Node3</title>
<path fill="none" stroke="#63b8ff" d="M157.33,-17.19C146.47,-25.67 153.02,-35 177,-35 192.36,-35 200.57,-31.17 201.63,-26.19"/>
<polygon fill="#63b8ff" stroke="#63b8ff" points="204.56,-24.25 196.67,-17.19 198.43,-27.63 204.56,-24.25"/>
</g>
</g>
</svg>
