<?xml version="1.0" encoding="UTF-8" standalone="no"?>
<!DOCTYPE svg PUBLIC "-//W3C//DTD SVG 1.1//EN"
 "http://www.w3.org/Graphics/SVG/1.1/DTD/svg11.dtd">
<!-- Generated by graphviz version 5.0.0 (0)
 -->
<!-- Title: a60::media_objects::me_you_cant_see Pages: 1 -->
<svg width="110pt" height="140pt"
 viewBox="0.00 0.00 110.00 140.00" xmlns="http://www.w3.org/2000/svg" xmlns:xlink="http://www.w3.org/1999/xlink">
<g id="graph0" class="graph" transform="scale(1 1) rotate(0) translate(4 136)">
<title>a60::media_objects::me_you_cant_see</title>
<!-- Node1 -->
<g id="node1" class="node">
<title>Node1</title>
<g id="a_node1"><a xlink:title="The Me You Can&#39;t See.">
<polygon fill="#999999" stroke="#666666" points="100,-26 2,-26 2,0 100,0 100,-26"/>
<text text-anchor="start" x="10" y="-15.6" font-family="SourceSans" font-size="8.00">a60::media_objects</text>
<text text-anchor="middle" x="51" y="-6.6" font-family="SourceSans" font-size="8.00">::me_you_cant_see</text>
</a>
</g>
</g>
<!-- Node2 -->
<g id="node2" class="node">
<title>Node2</title>
<g id="a_node2"><a xlink:href="structa60_1_1collection.html" target="_top" xlink:title="All variants of torrents for the same media property.">
<polygon fill="white" stroke="#666666" points="90,-79 12,-79 12,-62 90,-62 90,-79"/>
<text text-anchor="middle" x="51" y="-68.6" font-family="SourceSans" font-size="8.00">a60::collection</text>
</a>
</g>
</g>
<!-- Node2&#45;&gt;Node1 -->
<g id="edge1" class="edge">
<title>Node2&#45;&gt;Node1</title>
<path fill="none" stroke="#63b8ff" d="M44.65,-51.68C43.96,-43.41 44.16,-33.79 45.28,-26.34"/>
<polygon fill="#63b8ff" stroke="#63b8ff" points="41.22,-52.41 46.16,-61.78 48.14,-51.38 41.22,-52.41"/>
</g>
<!-- Node2&#45;&gt;Node1 -->
<g id="edge3" class="edge">
<title>Node2&#45;&gt;Node1</title>
<path fill="none" stroke="#63b8ff" d="M57.35,-51.68C58.04,-43.41 57.84,-33.79 56.72,-26.34"/>
<polygon fill="#63b8ff" stroke="#63b8ff" points="53.86,-51.38 55.84,-61.78 60.78,-52.41 53.86,-51.38"/>
</g>
<!-- Node3 -->
<g id="node3" class="node">
<title>Node3</title>
<g id="a_node3"><a xlink:href="structa60_1_1collection__base.html" target="_top" xlink:title=" ">
<polygon fill="white" stroke="#666666" points="102,-132 0,-132 0,-115 102,-115 102,-132"/>
<text text-anchor="middle" x="51" y="-121.6" font-family="SourceSans" font-size="8.00">a60::collection_base</text>
</a>
</g>
</g>
<!-- Node3&#45;&gt;Node2 -->
<g id="edge2" class="edge">
<title>Node3&#45;&gt;Node2</title>
<path fill="none" stroke="#63b8ff" d="M51,-104.91C51,-96.08 51,-85.85 51,-79.06"/>
<polygon fill="#63b8ff" stroke="#63b8ff" points="47.5,-104.97 51,-114.97 54.5,-104.97 47.5,-104.97"/>
</g>
</g>
</svg>
