<?xml version="1.0" encoding="UTF-8" standalone="no"?>
<!DOCTYPE svg PUBLIC "-//W3C//DTD SVG 1.1//EN"
 "http://www.w3.org/Graphics/SVG/1.1/DTD/svg11.dtd">
<!-- Generated by graphviz version 5.0.0 (0)
 -->
<!-- Title: a60::collection::cache_files_by Pages: 1 -->
<svg width="422pt" height="70pt"
 viewBox="0.00 0.00 422.00 69.50" xmlns="http://www.w3.org/2000/svg" xmlns:xlink="http://www.w3.org/1999/xlink">
<g id="graph0" class="graph" transform="scale(1 1) rotate(0) translate(4 65.5)">
<title>a60::collection::cache_files_by</title>
<!-- Node1 -->
<g id="node1" class="node">
<title>Node1</title>
<g id="a_node1"><a xlink:title=" ">
<polygon fill="#999999" stroke="#666666" points="109,-46 0,-46 0,-20 109,-20 109,-46"/>
<text text-anchor="start" x="8" y="-35.6" font-family="SourceSans" font-size="8.00">a60::collection::cache</text>
<text text-anchor="middle" x="54.5" y="-26.6" font-family="SourceSans" font-size="8.00">_files_by</text>
</a>
</g>
</g>
<!-- Node2 -->
<g id="node2" class="node">
<title>Node2</title>
<g id="a_node2"><a xlink:href="namespacea60_1_1io.html#aea30b8fc474f5a7b922516dc1e199037" target="_top" xlink:title="Takes a string representing a directory, returns a sorted list of contents as a std::vector&lt;string&gt;.">
<polygon fill="white" stroke="#666666" points="257,-61.5 147,-61.5 147,-44.5 257,-44.5 257,-61.5"/>
<text text-anchor="middle" x="202" y="-51.1" font-family="SourceSans" font-size="8.00">a60::io::populate_files</text>
</a>
</g>
</g>
<!-- Node1&#45;&gt;Node2 -->
<g id="edge1" class="edge">
<title>Node1&#45;&gt;Node2</title>
<path fill="none" stroke="#63b8ff" d="M109.27,-40.39C118.3,-41.63 127.76,-42.93 137.02,-44.21"/>
<polygon fill="#63b8ff" stroke="#63b8ff" points="136.59,-47.68 146.97,-45.57 137.54,-40.74 136.59,-47.68"/>
</g>
<!-- Node3 -->
<g id="node3" class="node">
<title>Node3</title>
<g id="a_node3"><a xlink:href="structa60_1_1collection.html#a481d8e6e9ea5f9cb136846d75b0f50c4" target="_top" xlink:title=" ">
<polygon fill="white" stroke="#666666" points="259,-26 145,-26 145,0 259,0 259,-26"/>
<text text-anchor="start" x="153" y="-15.6" font-family="SourceSans" font-size="8.00">a60::collection::remove</text>
<text text-anchor="middle" x="202" y="-6.6" font-family="SourceSans" font-size="8.00">_matching_strings</text>
</a>
</g>
</g>
<!-- Node1&#45;&gt;Node3 -->
<g id="edge2" class="edge">
<title>Node1&#45;&gt;Node3</title>
<path fill="none" stroke="#63b8ff" d="M109.27,-25.61C117.44,-24.49 125.95,-23.32 134.36,-22.16"/>
<polygon fill="#63b8ff" stroke="#63b8ff" points="135.1,-25.59 144.53,-20.76 134.15,-18.66 135.1,-25.59"/>
</g>
<!-- Node4 -->
<g id="node4" class="node">
<title>Node4</title>
<g id="a_node4"><a xlink:href="namespacea60.html#ac7eddb2e330d8983ddc852edde5335c5" target="_top" xlink:title=" ">
<polygon fill="white" stroke="#666666" points="414,-21.5 295,-21.5 295,-4.5 414,-4.5 414,-21.5"/>
<text text-anchor="middle" x="354.5" y="-11.1" font-family="SourceSans" font-size="8.00">a60::to_lowercase_string</text>
</a>
</g>
</g>
<!-- Node3&#45;&gt;Node4 -->
<g id="edge3" class="edge">
<title>Node3&#45;&gt;Node4</title>
<path fill="none" stroke="#63b8ff" d="M259.04,-13C267.45,-13 276.2,-13 284.84,-13"/>
<polygon fill="#63b8ff" stroke="#63b8ff" points="284.9,-16.5 294.9,-13 284.9,-9.5 284.9,-16.5"/>
</g>
</g>
</svg>
