<?xml version="1.0" encoding="UTF-8" standalone="no"?>
<!DOCTYPE svg PUBLIC "-//W3C//DTD SVG 1.1//EN"
 "http://www.w3.org/Graphics/SVG/1.1/DTD/svg11.dtd">
<!-- Generated by graphviz version 5.0.0 (0)
 -->
<!-- Title: a60::swarm_gcache::get_datestamp_from_file Pages: 1 -->
<svg width="264pt" height="122pt"
 viewBox="0.00 0.00 264.00 122.00" xmlns="http://www.w3.org/2000/svg" xmlns:xlink="http://www.w3.org/1999/xlink">
<g id="graph0" class="graph" transform="scale(1 1) rotate(0) translate(4 118)">
<title>a60::swarm_gcache::get_datestamp_from_file</title>
<!-- Node1 -->
<g id="node1" class="node">
<title>Node1</title>
<g id="a_node1"><a xlink:title="Dig out datestamp from file metadata.">
<polygon fill="#999999" stroke="#666666" points="116,-70 0,-70 0,-44 116,-44 116,-70"/>
<text text-anchor="start" x="8" y="-59.6" font-family="SourceSans" font-size="8.00">a60::swarm_gcache::</text>
<text text-anchor="middle" x="58" y="-50.6" font-family="SourceSans" font-size="8.00">get_datestamp_from_file</text>
</a>
</g>
</g>
<!-- Node2 -->
<g id="node2" class="node">
<title>Node2</title>
<g id="a_node2"><a xlink:href="namespacea60.html#a538d43bb9bfa488a54cea929736dbe2d" target="_top" xlink:title="Deserialize input file.">
<polygon fill="white" stroke="#666666" points="256,-114 152,-114 152,-88 256,-88 256,-114"/>
<text text-anchor="start" x="160" y="-103.6" font-family="SourceSans" font-size="8.00">a60::deserialize_json</text>
<text text-anchor="middle" x="204" y="-94.6" font-family="SourceSans" font-size="8.00">_to_dom</text>
</a>
</g>
</g>
<!-- Node1&#45;&gt;Node2 -->
<g id="edge1" class="edge">
<title>Node1&#45;&gt;Node2</title>
<path fill="none" stroke="#63b8ff" d="M101.81,-70.08C117.06,-74.74 134.4,-80.04 150.37,-84.92"/>
<polygon fill="#63b8ff" stroke="#63b8ff" points="149.52,-88.32 160.1,-87.89 151.56,-81.62 149.52,-88.32"/>
</g>
<!-- Node3 -->
<g id="node3" class="node">
<title>Node3</title>
<g id="a_node3"><a xlink:href="namespacea60_1_1io.html#aa5fbb8ab63397dd45c4a54c0758935ef" target="_top" xlink:title="Sanity check input existence.">
<polygon fill="white" stroke="#666666" points="256,-70 152,-70 152,-44 256,-44 256,-70"/>
<text text-anchor="start" x="160" y="-59.6" font-family="SourceSans" font-size="8.00">a60::io::sanity_check</text>
<text text-anchor="middle" x="204" y="-50.6" font-family="SourceSans" font-size="8.00">_input</text>
</a>
</g>
</g>
<!-- Node1&#45;&gt;Node3 -->
<g id="edge2" class="edge">
<title>Node1&#45;&gt;Node3</title>
<path fill="none" stroke="#63b8ff" d="M116.33,-57C124.69,-57 133.33,-57 141.77,-57"/>
<polygon fill="#63b8ff" stroke="#63b8ff" points="141.93,-60.5 151.93,-57 141.93,-53.5 141.93,-60.5"/>
</g>
<!-- Node4 -->
<g id="node4" class="node">
<title>Node4</title>
<g id="a_node4"><a xlink:href="namespacea60.html#a34d53970ee23a7c014960a2bf1a10e2b" target="_top" xlink:title="Search DOM for string literals.">
<polygon fill="white" stroke="#666666" points="255.5,-26 152.5,-26 152.5,0 255.5,0 255.5,-26"/>
<text text-anchor="start" x="160.5" y="-15.6" font-family="SourceSans" font-size="8.00">a60::search_dom_for</text>
<text text-anchor="middle" x="204" y="-6.6" font-family="SourceSans" font-size="8.00">_string_field</text>
</a>
</g>
</g>
<!-- Node1&#45;&gt;Node4 -->
<g id="edge3" class="edge">
<title>Node1&#45;&gt;Node4</title>
<path fill="none" stroke="#63b8ff" d="M101.81,-43.92C117.06,-39.26 134.4,-33.96 150.37,-29.08"/>
<polygon fill="#63b8ff" stroke="#63b8ff" points="151.56,-32.38 160.1,-26.11 149.52,-25.68 151.56,-32.38"/>
</g>
</g>
</svg>
