<?xml version="1.0" encoding="UTF-8" standalone="no"?>
<!DOCTYPE svg PUBLIC "-//W3C//DTD SVG 1.1//EN"
 "http://www.w3.org/Graphics/SVG/1.1/DTD/svg11.dtd">
<!-- Generated by graphviz version 5.0.0 (0)
 -->
<!-- Title: a60::collection::get_encoding Pages: 1 -->
<svg width="216pt" height="48pt"
 viewBox="0.00 0.00 216.00 47.50" xmlns="http://www.w3.org/2000/svg" xmlns:xlink="http://www.w3.org/1999/xlink">
<g id="graph0" class="graph" transform="scale(1 1) rotate(0) translate(4 43.5)">
<title>a60::collection::get_encoding</title>
<!-- Node1 -->
<g id="node1" class="node">
<title>Node1</title>
<g id="a_node1"><a xlink:title=" ">
<polygon fill="#999999" stroke="#666666" points="98,-26 0,-26 0,0 98,0 98,-26"/>
<text text-anchor="start" x="8" y="-15.6" font-family="SourceSans" font-size="8.00">a60::collection::get</text>
<text text-anchor="middle" x="49" y="-6.6" font-family="SourceSans" font-size="8.00">_encoding</text>
</a>
</g>
</g>
<!-- Node2 -->
<g id="node2" class="node">
<title>Node2</title>
<g id="a_node2"><a xlink:href="namespacea60.html#a4e8b0cabed112734147b499bf0cc9029" target="_top" xlink:title="Conversion of resolution_mode to string.">
<polygon fill="white" stroke="#666666" points="208,-21.5 134,-21.5 134,-4.5 208,-4.5 208,-21.5"/>
<text text-anchor="middle" x="171" y="-11.1" font-family="SourceSans" font-size="8.00">a60::to_string</text>
</a>
</g>
</g>
<!-- Node1&#45;&gt;Node2 -->
<g id="edge1" class="edge">
<title>Node1&#45;&gt;Node2</title>
<path fill="none" stroke="#63b8ff" d="M98.12,-13C106.46,-13 115.12,-13 123.43,-13"/>
<polygon fill="#63b8ff" stroke="#63b8ff" points="123.7,-16.5 133.7,-13 123.7,-9.5 123.7,-16.5"/>
</g>
<!-- Node2&#45;&gt;Node2 -->
<g id="edge2" class="edge">
<title>Node2&#45;&gt;Node2</title>
<path fill="none" stroke="#63b8ff" d="M152.82,-21.69C142.78,-30.17 148.84,-39.5 171,-39.5 185.2,-39.5 192.78,-35.67 193.77,-30.69"/>
<polygon fill="#63b8ff" stroke="#63b8ff" points="196.84,-29.01 189.18,-21.69 190.6,-32.18 196.84,-29.01"/>
</g>
</g>
</svg>
