<?xml version="1.0" encoding="UTF-8" standalone="no"?>
<!DOCTYPE svg PUBLIC "-//W3C//DTD SVG 1.1//EN"
 "http://www.w3.org/Graphics/SVG/1.1/DTD/svg11.dtd">
<!-- Generated by graphviz version 5.0.0 (0)
 -->
<!-- Title: a60::demographia::demography::populate Pages: 1 -->
<svg width="537pt" height="114pt"
 viewBox="0.00 0.00 537.00 113.50" xmlns="http://www.w3.org/2000/svg" xmlns:xlink="http://www.w3.org/1999/xlink">
<g id="graph0" class="graph" transform="scale(1 1) rotate(0) translate(4 109.5)">
<title>a60::demographia::demography::populate</title>
<!-- Node1 -->
<g id="node1" class="node">
<title>Node1</title>
<g id="a_node1"><a xlink:title=" ">
<polygon fill="#999999" stroke="#666666" points="151,-70 0,-70 0,-44 151,-44 151,-70"/>
<text text-anchor="start" x="8" y="-59.6" font-family="SourceSans" font-size="8.00">a60::demographia::demography</text>
<text text-anchor="middle" x="75.5" y="-50.6" font-family="SourceSans" font-size="8.00">::populate</text>
</a>
</g>
</g>
<!-- Node2 -->
<g id="node2" class="node">
<title>Node2</title>
<g id="a_node2"><a xlink:href="namespacea60_1_1io.html#a16f17ea9e02c1975ca17b77e46cf7629" target="_top" xlink:title="Make sure a path ends in &#39;/&#39;;.">
<polygon fill="white" stroke="#666666" points="307.5,-105.5 217.5,-105.5 217.5,-88.5 307.5,-88.5 307.5,-105.5"/>
<text text-anchor="middle" x="262.5" y="-95.1" font-family="SourceSans" font-size="8.00">a60::io::end_path</text>
</a>
</g>
</g>
<!-- Node1&#45;&gt;Node2 -->
<g id="edge1" class="edge">
<title>Node1&#45;&gt;Node2</title>
<path fill="none" stroke="#63b8ff" d="M136.82,-70.04C161.16,-75.3 188.9,-81.3 212.02,-86.3"/>
<polygon fill="#63b8ff" stroke="#63b8ff" points="211.44,-89.76 221.96,-88.45 212.92,-82.92 211.44,-89.76"/>
</g>
<!-- Node3 -->
<g id="node3" class="node">
<title>Node3</title>
<g id="a_node3"><a xlink:href="namespacea60_1_1io.html#ac95e5271a27a23bc2336d84b3f821fa2" target="_top" xlink:title="Constant filesystem and run&#45;time resources.">
<polygon fill="white" stroke="#666666" points="314.5,-70 210.5,-70 210.5,-44 314.5,-44 314.5,-70"/>
<text text-anchor="start" x="218.5" y="-59.6" font-family="SourceSans" font-size="8.00">a60::io::get_run_time</text>
<text text-anchor="middle" x="262.5" y="-50.6" font-family="SourceSans" font-size="8.00">_resources</text>
</a>
</g>
</g>
<!-- Node1&#45;&gt;Node3 -->
<g id="edge2" class="edge">
<title>Node1&#45;&gt;Node3</title>
<path fill="none" stroke="#63b8ff" d="M151.21,-57C167.5,-57 184.55,-57 200.25,-57"/>
<polygon fill="#63b8ff" stroke="#63b8ff" points="200.34,-60.5 210.34,-57 200.34,-53.5 200.34,-60.5"/>
</g>
<!-- Node4 -->
<g id="node4" class="node">
<title>Node4</title>
<g id="a_node4"><a xlink:href="structa60_1_1demographia_1_1demography.html#a030a1e4f85413146f3504a0d33272d72" target="_top" xlink:title=" ">
<polygon fill="white" stroke="#666666" points="338,-26 187,-26 187,0 338,0 338,-26"/>
<text text-anchor="start" x="195" y="-15.6" font-family="SourceSans" font-size="8.00">a60::demographia::demography</text>
<text text-anchor="middle" x="262.5" y="-6.6" font-family="SourceSans" font-size="8.00">::parse_line</text>
</a>
</g>
</g>
<!-- Node1&#45;&gt;Node4 -->
<g id="edge3" class="edge">
<title>Node1&#45;&gt;Node4</title>
<path fill="none" stroke="#63b8ff" d="M131.26,-43.98C151.77,-39.1 175.27,-33.51 196.61,-28.43"/>
<polygon fill="#63b8ff" stroke="#63b8ff" points="197.65,-31.78 206.57,-26.07 196.03,-24.97 197.65,-31.78"/>
</g>
<!-- Node5 -->
<g id="node5" class="node">
<title>Node5</title>
<g id="a_node5"><a xlink:href="structa60_1_1demographia_1_1demography.html#aa17b0e6aac5774a78af1f758144cc7e4" target="_top" xlink:title=" ">
<polygon fill="white" stroke="#666666" points="529,-26 374,-26 374,0 529,0 529,-26"/>
<text text-anchor="start" x="382" y="-15.6" font-family="SourceSans" font-size="8.00">a60::demographia::demography</text>
<text text-anchor="middle" x="451.5" y="-6.6" font-family="SourceSans" font-size="8.00">::parse_text_with_potential_space</text>
</a>
</g>
</g>
<!-- Node4&#45;&gt;Node5 -->
<g id="edge4" class="edge">
<title>Node4&#45;&gt;Node5</title>
<path fill="none" stroke="#63b8ff" d="M338.21,-13C346.53,-13 355.06,-13 363.51,-13"/>
<polygon fill="#63b8ff" stroke="#63b8ff" points="363.76,-16.5 373.76,-13 363.76,-9.5 363.76,-16.5"/>
</g>
<!-- Node5&#45;&gt;Node5 -->
<g id="edge5" class="edge">
<title>Node5&#45;&gt;Node5</title>
<path fill="none" stroke="#63b8ff" d="M419.69,-26.06C410.05,-35.1 420.66,-44 451.5,-44 470.3,-44 481.57,-40.69 485.34,-36.07"/>
<polygon fill="#63b8ff" stroke="#63b8ff" points="488.73,-35.16 483.31,-26.06 481.87,-36.56 488.73,-35.16"/>
</g>
</g>
</svg>
