<?xml version="1.0" encoding="UTF-8" standalone="no"?>
<!DOCTYPE svg PUBLIC "-//W3C//DTD SVG 1.1//EN"
 "http://www.w3.org/Graphics/SVG/1.1/DTD/svg11.dtd">
<!-- Generated by graphviz version 5.0.0 (0)
 -->
<!-- Title: a60::swarm_gcache::add_geo_peers Pages: 1 -->
<svg width="725pt" height="338pt"
 viewBox="0.00 0.00 725.00 338.00" xmlns="http://www.w3.org/2000/svg" xmlns:xlink="http://www.w3.org/1999/xlink">
<g id="graph0" class="graph" transform="scale(1 1) rotate(0) translate(4 334)">
<title>a60::swarm_gcache::add_geo_peers</title>
<!-- Node1 -->
<g id="node1" class="node">
<title>Node1</title>
<g id="a_node1"><a xlink:title="Adds peers, if @detail_lost_p is true, output details on anomalies.">
<polygon fill="#999999" stroke="#666666" points="105,-174 0,-174 0,-148 105,-148 105,-174"/>
<text text-anchor="start" x="8" y="-163.6" font-family="SourceSans" font-size="8.00">a60::swarm_gcache::</text>
<text text-anchor="middle" x="52.5" y="-154.6" font-family="SourceSans" font-size="8.00">add_geo_peers</text>
</a>
</g>
</g>
<!-- Node2 -->
<g id="node2" class="node">
<title>Node2</title>
<g id="a_node2"><a xlink:href="namespacea60.html#af45982273a7a2e61b6aaa436081238c0" target="_top" xlink:title="Load JSON file to in&#45;memory DOM.">
<polygon fill="white" stroke="#666666" points="250.5,-312 146.5,-312 146.5,-286 250.5,-286 250.5,-312"/>
<text text-anchor="start" x="154.5" y="-301.6" font-family="SourceSans" font-size="8.00">a60::deserialize_json</text>
<text text-anchor="middle" x="198.5" y="-292.6" font-family="SourceSans" font-size="8.00">_to_dom_object</text>
</a>
</g>
</g>
<!-- Node1&#45;&gt;Node2 -->
<g id="edge1" class="edge">
<title>Node1&#45;&gt;Node2</title>
<path fill="none" stroke="#63b8ff" d="M63.77,-174.03C79.37,-193.43 110.47,-230.55 141,-258 149.69,-265.82 159.86,-273.56 169.15,-280.18"/>
<polygon fill="#63b8ff" stroke="#63b8ff" points="167.17,-283.07 177.37,-285.92 171.17,-277.33 167.17,-283.07"/>
</g>
<!-- Node4 -->
<g id="node4" class="node">
<title>Node4</title>
<g id="a_node4"><a xlink:href="structa60_1_1swarm__gcache.html#ae4920365566dd82a83ef69d8f85b4f5c" target="_top" xlink:title=" ">
<polygon fill="white" stroke="#666666" points="251,-248.5 146,-248.5 146,-213.5 251,-213.5 251,-248.5"/>
<text text-anchor="start" x="154" y="-238.1" font-family="SourceSans" font-size="8.00">a60::swarm_gcache::</text>
<text text-anchor="start" x="154" y="-229.1" font-family="SourceSans" font-size="8.00">insert_meta_peers_by</text>
<text text-anchor="middle" x="198.5" y="-220.1" font-family="SourceSans" font-size="8.00">_meta_mask</text>
</a>
</g>
</g>
<!-- Node1&#45;&gt;Node4 -->
<g id="edge3" class="edge">
<title>Node1&#45;&gt;Node4</title>
<path fill="none" stroke="#63b8ff" d="M79.88,-174.06C97.23,-182.62 120.44,-194.03 141,-204 144.38,-205.64 147.87,-207.32 151.39,-209.02"/>
<polygon fill="#63b8ff" stroke="#63b8ff" points="150.17,-212.31 160.7,-213.48 153.2,-206 150.17,-212.31"/>
</g>
<!-- Node7 -->
<g id="node7" class="node">
<title>Node7</title>
<g id="a_node7"><a xlink:href="structa60_1_1collection.html#a3780f3266ff2355e74b737a201c89116" target="_top" xlink:title=" ">
<polygon fill="white" stroke="#666666" points="256,-195 141,-195 141,-169 256,-169 256,-195"/>
<text text-anchor="start" x="149" y="-184.6" font-family="SourceSans" font-size="8.00">a60::collection::mangle</text>
<text text-anchor="middle" x="198.5" y="-175.6" font-family="SourceSans" font-size="8.00">_tid_match_id</text>
</a>
</g>
</g>
<!-- Node1&#45;&gt;Node7 -->
<g id="edge6" class="edge">
<title>Node1&#45;&gt;Node7</title>
<path fill="none" stroke="#63b8ff" d="M105.08,-168.52C113.43,-169.74 122.19,-171.02 130.83,-172.28"/>
<polygon fill="#63b8ff" stroke="#63b8ff" points="130.51,-175.77 140.91,-173.75 131.52,-168.84 130.51,-175.77"/>
</g>
<!-- Node10 -->
<g id="node10" class="node">
<title>Node10</title>
<g id="a_node10"><a xlink:href="structa60_1_1collection.html#a80993af9aec8238db8e44da1e9a3c994" target="_top" xlink:title=" ">
<polygon fill="white" stroke="#666666" points="401.5,-154 298.5,-154 298.5,-128 401.5,-128 401.5,-154"/>
<text text-anchor="start" x="306.5" y="-143.6" font-family="SourceSans" font-size="8.00">a60::collection::slice</text>
<text text-anchor="middle" x="350" y="-134.6" font-family="SourceSans" font-size="8.00">_name_mangled</text>
</a>
</g>
</g>
<!-- Node1&#45;&gt;Node10 -->
<g id="edge15" class="edge">
<title>Node1&#45;&gt;Node10</title>
<path fill="none" stroke="#63b8ff" d="M105.31,-157.49C156.31,-154.04 234.19,-148.77 288.12,-145.12"/>
<polygon fill="#63b8ff" stroke="#63b8ff" points="288.5,-148.6 298.24,-144.44 288.02,-141.62 288.5,-148.6"/>
</g>
<!-- Node15 -->
<g id="node15" class="node">
<title>Node15</title>
<g id="a_node15"><a xlink:href="namespacea60.html#a6ce8704ec3c4d5e258d062283dd40efb" target="_top" xlink:title="Search DOM for meta_peer(s).">
<polygon fill="white" stroke="#666666" points="250,-113 147,-113 147,-87 250,-87 250,-113"/>
<text text-anchor="start" x="155" y="-102.6" font-family="SourceSans" font-size="8.00">a60::search_dom_for</text>
<text text-anchor="middle" x="198.5" y="-93.6" font-family="SourceSans" font-size="8.00">_meta_peers</text>
</a>
</g>
</g>
<!-- Node1&#45;&gt;Node15 -->
<g id="edge14" class="edge">
<title>Node1&#45;&gt;Node15</title>
<path fill="none" stroke="#63b8ff" d="M84.39,-147.91C105.65,-138.91 134.1,-126.86 157.15,-117.09"/>
<polygon fill="#63b8ff" stroke="#63b8ff" points="158.82,-120.19 166.66,-113.06 156.09,-113.74 158.82,-120.19"/>
</g>
<!-- Node16 -->
<g id="node16" class="node">
<title>Node16</title>
<g id="a_node16"><a xlink:href="namespacea60.html#a718120588394d0516778b6ad06793bf8" target="_top" xlink:title="See what peers have no country info or latitude/longitude.">
<polygon fill="white" stroke="#666666" points="254,-67.5 143,-67.5 143,-50.5 254,-50.5 254,-67.5"/>
<text text-anchor="middle" x="198.5" y="-57.1" font-family="SourceSans" font-size="8.00">a60::survey_lost_peers</text>
</a>
</g>
</g>
<!-- Node1&#45;&gt;Node16 -->
<g id="edge16" class="edge">
<title>Node1&#45;&gt;Node16</title>
<path fill="none" stroke="#63b8ff" d="M64.03,-147.93C79.24,-129.84 109.07,-97.22 141,-78 145.21,-75.47 149.81,-73.22 154.5,-71.24"/>
<polygon fill="#63b8ff" stroke="#63b8ff" points="156.07,-74.38 164.16,-67.54 153.57,-67.84 156.07,-74.38"/>
</g>
<!-- Node3 -->
<g id="node3" class="node">
<title>Node3</title>
<g id="a_node3"><a xlink:href="namespacea60.html#a538d43bb9bfa488a54cea929736dbe2d" target="_top" xlink:title="Deserialize input file.">
<polygon fill="white" stroke="#666666" points="402,-330 298,-330 298,-304 402,-304 402,-330"/>
<text text-anchor="start" x="306" y="-319.6" font-family="SourceSans" font-size="8.00">a60::deserialize_json</text>
<text text-anchor="middle" x="350" y="-310.6" font-family="SourceSans" font-size="8.00">_to_dom</text>
</a>
</g>
</g>
<!-- Node2&#45;&gt;Node3 -->
<g id="edge2" class="edge">
<title>Node2&#45;&gt;Node3</title>
<path fill="none" stroke="#63b8ff" d="M250.53,-305.14C262.49,-306.58 275.36,-308.13 287.72,-309.62"/>
<polygon fill="#63b8ff" stroke="#63b8ff" points="287.6,-313.13 297.95,-310.85 288.44,-306.18 287.6,-313.13"/>
</g>
<!-- Node5 -->
<g id="node5" class="node">
<title>Node5</title>
<g id="a_node5"><a xlink:href="structa60_1_1swarm__gcache.html#a863e7627b8875d8ed7eafc5bd3c7a480" target="_top" xlink:title=" ">
<polygon fill="white" stroke="#666666" points="407,-286 293,-286 293,-260 407,-260 407,-286"/>
<text text-anchor="start" x="301" y="-275.6" font-family="SourceSans" font-size="8.00">a60::swarm_gcache::</text>
<text text-anchor="middle" x="350" y="-266.6" font-family="SourceSans" font-size="8.00">meta_peer_to_geo_peer</text>
</a>
</g>
</g>
<!-- Node4&#45;&gt;Node5 -->
<g id="edge4" class="edge">
<title>Node4&#45;&gt;Node5</title>
<path fill="none" stroke="#63b8ff" d="M251.37,-245.57C264.81,-249.35 279.33,-253.43 292.97,-257.26"/>
<polygon fill="#63b8ff" stroke="#63b8ff" points="292.15,-260.66 302.72,-260 294.04,-253.92 292.15,-260.66"/>
</g>
<!-- Node6 -->
<g id="node6" class="node">
<title>Node6</title>
<g id="a_node6"><a xlink:href="structa60_1_1swarm__gcache.html#a5392ca156f233ca3c89778c38ed19a67" target="_top" xlink:title="Make unique string suitable for key via masks on geo data.">
<polygon fill="white" stroke="#666666" points="408,-242 292,-242 292,-216 408,-216 408,-242"/>
<text text-anchor="start" x="300" y="-231.6" font-family="SourceSans" font-size="8.00">a60::swarm_gcache::</text>
<text text-anchor="middle" x="350" y="-222.6" font-family="SourceSans" font-size="8.00">meta_peer_to_string_key</text>
</a>
</g>
</g>
<!-- Node4&#45;&gt;Node6 -->
<g id="edge5" class="edge">
<title>Node4&#45;&gt;Node6</title>
<path fill="none" stroke="#63b8ff" d="M251.37,-230.31C261.17,-230.17 271.56,-230.04 281.75,-229.9"/>
<polygon fill="#63b8ff" stroke="#63b8ff" points="281.91,-233.4 291.86,-229.76 281.81,-226.4 281.91,-233.4"/>
</g>
<!-- Node8 -->
<g id="node8" class="node">
<title>Node8</title>
<g id="a_node8"><a xlink:href="structa60_1_1collection.html#ab234addb5725bb5900b44f55ec1aae10" target="_top" xlink:title=" ">
<polygon fill="white" stroke="#666666" points="407.5,-198 292.5,-198 292.5,-172 407.5,-172 407.5,-198"/>
<text text-anchor="start" x="300.5" y="-187.6" font-family="SourceSans" font-size="8.00">a60::collection::mangle</text>
<text text-anchor="middle" x="350" y="-178.6" font-family="SourceSans" font-size="8.00">_with_id</text>
</a>
</g>
</g>
<!-- Node7&#45;&gt;Node8 -->
<g id="edge7" class="edge">
<title>Node7&#45;&gt;Node8</title>
<path fill="none" stroke="#63b8ff" d="M256.02,-183.13C264.58,-183.31 273.48,-183.48 282.23,-183.66"/>
<polygon fill="#63b8ff" stroke="#63b8ff" points="282.33,-187.16 292.4,-183.86 282.47,-180.16 282.33,-187.16"/>
</g>
<!-- Node7&#45;&gt;Node10 -->
<g id="edge9" class="edge">
<title>Node7&#45;&gt;Node10</title>
<path fill="none" stroke="#63b8ff" d="M247.21,-168.91C261.31,-165.05 276.88,-160.78 291.53,-156.76"/>
<polygon fill="#63b8ff" stroke="#63b8ff" points="292.76,-160.05 301.48,-154.03 290.91,-153.3 292.76,-160.05"/>
</g>
<!-- Node9 -->
<g id="node9" class="node">
<title>Node9</title>
<g id="a_node9"><a xlink:href="structa60_1_1collection.html#a899f781ad983b2ec1f0da35a5d3f8b54" target="_top" xlink:title=" ">
<polygon fill="white" stroke="#666666" points="566.5,-237.5 451.5,-237.5 451.5,-202.5 566.5,-202.5 566.5,-237.5"/>
<text text-anchor="start" x="459.5" y="-227.1" font-family="SourceSans" font-size="8.00">a60::collection::mangle</text>
<text text-anchor="start" x="459.5" y="-218.1" font-family="SourceSans" font-size="8.00">_duration_significant</text>
<text text-anchor="middle" x="509" y="-209.1" font-family="SourceSans" font-size="8.00">_digits</text>
</a>
</g>
</g>
<!-- Node8&#45;&gt;Node9 -->
<g id="edge8" class="edge">
<title>Node8&#45;&gt;Node9</title>
<path fill="none" stroke="#63b8ff" d="M407.68,-197.64C418.69,-200.09 430.31,-202.68 441.6,-205.2"/>
<polygon fill="#63b8ff" stroke="#63b8ff" points="440.88,-208.62 451.4,-207.38 442.4,-201.79 440.88,-208.62"/>
</g>
<!-- Node11 -->
<g id="node11" class="node">
<title>Node11</title>
<g id="a_node11"><a xlink:href="structa60_1_1collection.html#a25b35cf4ac39da89d868fe2cf41b5acd" target="_top" xlink:title=" ">
<polygon fill="white" stroke="#666666" points="574,-184.5 444,-184.5 444,-167.5 574,-167.5 574,-184.5"/>
<text text-anchor="middle" x="509" y="-174.1" font-family="SourceSans" font-size="8.00">a60::collection::slice_name</text>
</a>
</g>
</g>
<!-- Node10&#45;&gt;Node11 -->
<g id="edge10" class="edge">
<title>Node10&#45;&gt;Node11</title>
<path fill="none" stroke="#63b8ff" d="M401.54,-152.27C420.22,-156.43 441.33,-161.14 459.8,-165.26"/>
<polygon fill="#63b8ff" stroke="#63b8ff" points="459.24,-168.71 469.76,-167.47 460.76,-161.88 459.24,-168.71"/>
</g>
<!-- Node12 -->
<g id="node12" class="node">
<title>Node12</title>
<g id="a_node12"><a xlink:href="namespacea60.html#ac7eddb2e330d8983ddc852edde5335c5" target="_top" xlink:title=" ">
<polygon fill="white" stroke="#666666" points="568.5,-149.5 449.5,-149.5 449.5,-132.5 568.5,-132.5 568.5,-149.5"/>
<text text-anchor="middle" x="509" y="-139.1" font-family="SourceSans" font-size="8.00">a60::to_lowercase_string</text>
</a>
</g>
</g>
<!-- Node10&#45;&gt;Node12 -->
<g id="edge11" class="edge">
<title>Node10&#45;&gt;Node12</title>
<path fill="none" stroke="#63b8ff" d="M401.54,-141C413.56,-141 426.6,-141 439.28,-141"/>
<polygon fill="#63b8ff" stroke="#63b8ff" points="439.35,-144.5 449.35,-141 439.35,-137.5 439.35,-144.5"/>
</g>
<!-- Node13 -->
<g id="node13" class="node">
<title>Node13</title>
<g id="a_node13"><a xlink:href="namespacea60.html#a11d9ffc210e8dca8410e7a5ad62deabc" target="_top" xlink:title=" ">
<polygon fill="white" stroke="#666666" points="565.5,-114 452.5,-114 452.5,-88 565.5,-88 565.5,-114"/>
<text text-anchor="start" x="460.5" y="-103.6" font-family="SourceSans" font-size="8.00">a60::to_replace_spaces</text>
<text text-anchor="middle" x="509" y="-94.6" font-family="SourceSans" font-size="8.00">_string</text>
</a>
</g>
</g>
<!-- Node10&#45;&gt;Node13 -->
<g id="edge12" class="edge">
<title>Node10&#45;&gt;Node13</title>
<path fill="none" stroke="#63b8ff" d="M401.54,-128.12C416.03,-124.43 431.97,-120.37 447.02,-116.54"/>
<polygon fill="#63b8ff" stroke="#63b8ff" points="447.92,-119.92 456.75,-114.06 446.19,-113.14 447.92,-119.92"/>
</g>
<!-- Node14 -->
<g id="node14" class="node">
<title>Node14</title>
<g id="a_node14"><a xlink:href="namespacea60.html#a751f954fe64233f1dc6517220e4b5692" target="_top" xlink:title=" ">
<polygon fill="white" stroke="#666666" points="717,-109.5 610,-109.5 610,-92.5 717,-92.5 717,-109.5"/>
<text text-anchor="middle" x="663.5" y="-99.1" font-family="SourceSans" font-size="8.00">a60::to_replace_string</text>
</a>
</g>
</g>
<!-- Node13&#45;&gt;Node14 -->
<g id="edge13" class="edge">
<title>Node13&#45;&gt;Node14</title>
<path fill="none" stroke="#63b8ff" d="M565.92,-101C576.92,-101 588.53,-101 599.73,-101"/>
<polygon fill="#63b8ff" stroke="#63b8ff" points="599.88,-104.5 609.88,-101 599.88,-97.5 599.88,-104.5"/>
</g>
<!-- Node17 -->
<g id="node17" class="node">
<title>Node17</title>
<g id="a_node17"><a xlink:href="namespacea60.html#ac39b0d667e2ffa7a1bf2df7cc4e5ac38" target="_top" xlink:title="IFF either of the above is true.">
<polygon fill="white" stroke="#666666" points="405.5,-65.5 294.5,-65.5 294.5,-48.5 405.5,-48.5 405.5,-65.5"/>
<text text-anchor="middle" x="350" y="-55.1" font-family="SourceSans" font-size="8.00">a60::is_meta_peer_lost</text>
</a>
</g>
</g>
<!-- Node16&#45;&gt;Node17 -->
<g id="edge17" class="edge">
<title>Node16&#45;&gt;Node17</title>
<path fill="none" stroke="#63b8ff" d="M254.32,-58.27C263.97,-58.14 274.09,-58 283.99,-57.87"/>
<polygon fill="#63b8ff" stroke="#63b8ff" points="284.23,-61.37 294.19,-57.73 284.14,-54.37 284.23,-61.37"/>
</g>
<!-- Node18 -->
<g id="node18" class="node">
<title>Node18</title>
<g id="a_node18"><a xlink:href="namespacea60.html#a63bf2b0abf68edc3f3e74a0811fe771b" target="_top" xlink:title="Error checking support. Null Island Check (aka latitude and longitude set to zero).">
<polygon fill="white" stroke="#666666" points="562.5,-70 455.5,-70 455.5,-44 562.5,-44 562.5,-70"/>
<text text-anchor="start" x="463.5" y="-59.6" font-family="SourceSans" font-size="8.00">a60::is_meta_peer_on</text>
<text text-anchor="middle" x="509" y="-50.6" font-family="SourceSans" font-size="8.00">_null_island</text>
</a>
</g>
</g>
<!-- Node17&#45;&gt;Node18 -->
<g id="edge18" class="edge">
<title>Node17&#45;&gt;Node18</title>
<path fill="none" stroke="#63b8ff" d="M405.91,-57C418.61,-57 432.22,-57 445.22,-57"/>
<polygon fill="#63b8ff" stroke="#63b8ff" points="445.5,-60.5 455.5,-57 445.5,-53.5 445.5,-60.5"/>
</g>
<!-- Node19 -->
<g id="node19" class="node">
<title>Node19</title>
<g id="a_node19"><a xlink:href="namespacea60.html#a0ff511c579a9f94ffff788b1cd4ae864" target="_top" xlink:title="Null Country Check.">
<polygon fill="white" stroke="#666666" points="572.5,-26 445.5,-26 445.5,0 572.5,0 572.5,-26"/>
<text text-anchor="start" x="453.5" y="-15.6" font-family="SourceSans" font-size="8.00">a60::is_meta_peer_without</text>
<text text-anchor="middle" x="509" y="-6.6" font-family="SourceSans" font-size="8.00">_country</text>
</a>
</g>
</g>
<!-- Node17&#45;&gt;Node19 -->
<g id="edge19" class="edge">
<title>Node17&#45;&gt;Node19</title>
<path fill="none" stroke="#63b8ff" d="M381.64,-48.41C401.48,-42.85 427.9,-35.45 451.46,-28.85"/>
<polygon fill="#63b8ff" stroke="#63b8ff" points="452.66,-32.14 461.35,-26.07 450.77,-25.4 452.66,-32.14"/>
</g>
</g>
</svg>
