<?xml version="1.0" encoding="UTF-8" standalone="no"?>
<!DOCTYPE svg PUBLIC "-//W3C//DTD SVG 1.1//EN"
 "http://www.w3.org/Graphics/SVG/1.1/DTD/svg11.dtd">
<!-- Generated by graphviz version 5.0.0 (0)
 -->
<!-- Title: a60::demographia::demography::populate_normalized Pages: 1 -->
<svg width="299pt" height="158pt"
 viewBox="0.00 0.00 299.00 158.00" xmlns="http://www.w3.org/2000/svg" xmlns:xlink="http://www.w3.org/1999/xlink">
<g id="graph0" class="graph" transform="scale(1 1) rotate(0) translate(4 154)">
<title>a60::demographia::demography::populate_normalized</title>
<!-- Node1 -->
<g id="node1" class="node">
<title>Node1</title>
<g id="a_node1"><a xlink:title=" ">
<polygon fill="#999999" stroke="#666666" points="151,-90 0,-90 0,-64 151,-64 151,-90"/>
<text text-anchor="start" x="8" y="-79.6" font-family="SourceSans" font-size="8.00">a60::demographia::demography</text>
<text text-anchor="middle" x="75.5" y="-70.6" font-family="SourceSans" font-size="8.00">::populate_normalized</text>
</a>
</g>
</g>
<!-- Node2 -->
<g id="node2" class="node">
<title>Node2</title>
<g id="a_node2"><a xlink:href="namespacea60.html#a538d43bb9bfa488a54cea929736dbe2d" target="_top" xlink:title="Deserialize input file.">
<polygon fill="white" stroke="#666666" points="291,-150 187,-150 187,-124 291,-124 291,-150"/>
<text text-anchor="start" x="195" y="-139.6" font-family="SourceSans" font-size="8.00">a60::deserialize_json</text>
<text text-anchor="middle" x="239" y="-130.6" font-family="SourceSans" font-size="8.00">_to_dom</text>
</a>
</g>
</g>
<!-- Node1&#45;&gt;Node2 -->
<g id="edge1" class="edge">
<title>Node1&#45;&gt;Node2</title>
<path fill="none" stroke="#63b8ff" d="M111.54,-90.02C135.48,-98.91 167.41,-110.77 193.19,-120.35"/>
<polygon fill="#63b8ff" stroke="#63b8ff" points="192.15,-123.7 202.75,-123.9 194.59,-117.14 192.15,-123.7"/>
</g>
<!-- Node3 -->
<g id="node3" class="node">
<title>Node3</title>
<g id="a_node3"><a xlink:href="namespacea60_1_1io.html#a16f17ea9e02c1975ca17b77e46cf7629" target="_top" xlink:title="Make sure a path ends in &#39;/&#39;;.">
<polygon fill="white" stroke="#666666" points="284,-105.5 194,-105.5 194,-88.5 284,-88.5 284,-105.5"/>
<text text-anchor="middle" x="239" y="-95.1" font-family="SourceSans" font-size="8.00">a60::io::end_path</text>
</a>
</g>
</g>
<!-- Node1&#45;&gt;Node3 -->
<g id="edge2" class="edge">
<title>Node1&#45;&gt;Node3</title>
<path fill="none" stroke="#63b8ff" d="M151.1,-86.24C162.01,-87.59 173.07,-88.96 183.48,-90.25"/>
<polygon fill="#63b8ff" stroke="#63b8ff" points="183.29,-93.75 193.64,-91.51 184.15,-86.8 183.29,-93.75"/>
</g>
<!-- Node4 -->
<g id="node4" class="node">
<title>Node4</title>
<g id="a_node4"><a xlink:href="namespacea60_1_1io.html#ac95e5271a27a23bc2336d84b3f821fa2" target="_top" xlink:title="Constant filesystem and run&#45;time resources.">
<polygon fill="white" stroke="#666666" points="291,-70 187,-70 187,-44 291,-44 291,-70"/>
<text text-anchor="start" x="195" y="-59.6" font-family="SourceSans" font-size="8.00">a60::io::get_run_time</text>
<text text-anchor="middle" x="239" y="-50.6" font-family="SourceSans" font-size="8.00">_resources</text>
</a>
</g>
</g>
<!-- Node1&#45;&gt;Node4 -->
<g id="edge3" class="edge">
<title>Node1&#45;&gt;Node4</title>
<path fill="none" stroke="#63b8ff" d="M151.1,-67.76C159.68,-66.7 168.35,-65.62 176.73,-64.59"/>
<polygon fill="#63b8ff" stroke="#63b8ff" points="177.28,-68.05 186.77,-63.34 176.42,-61.1 177.28,-68.05"/>
</g>
<!-- Node5 -->
<g id="node5" class="node">
<title>Node5</title>
<g id="a_node5"><a xlink:href="namespacea60_1_1io.html#aa5fbb8ab63397dd45c4a54c0758935ef" target="_top" xlink:title="Sanity check input existence.">
<polygon fill="white" stroke="#666666" points="291,-26 187,-26 187,0 291,0 291,-26"/>
<text text-anchor="start" x="195" y="-15.6" font-family="SourceSans" font-size="8.00">a60::io::sanity_check</text>
<text text-anchor="middle" x="239" y="-6.6" font-family="SourceSans" font-size="8.00">_input</text>
</a>
</g>
</g>
<!-- Node1&#45;&gt;Node5 -->
<g id="edge4" class="edge">
<title>Node1&#45;&gt;Node5</title>
<path fill="none" stroke="#63b8ff" d="M109.57,-63.89C134.39,-54.06 168.58,-40.51 195.44,-29.87"/>
<polygon fill="#63b8ff" stroke="#63b8ff" points="196.97,-33.03 204.97,-26.09 194.39,-26.52 196.97,-33.03"/>
</g>
</g>
</svg>
