<?xml version="1.0" encoding="UTF-8" standalone="no"?>
<!DOCTYPE svg PUBLIC "-//W3C//DTD SVG 1.1//EN"
 "http://www.w3.org/Graphics/SVG/1.1/DTD/svg11.dtd">
<!-- Generated by graphviz version 5.0.0 (0)
 -->
<!-- Title: a60::collection::mangle_tid_match_id Pages: 1 -->
<svg width="583pt" height="158pt"
 viewBox="0.00 0.00 583.00 157.50" xmlns="http://www.w3.org/2000/svg" xmlns:xlink="http://www.w3.org/1999/xlink">
<g id="graph0" class="graph" transform="scale(1 1) rotate(0) translate(4 153.5)">
<title>a60::collection::mangle_tid_match_id</title>
<!-- Node1 -->
<g id="node1" class="node">
<title>Node1</title>
<g id="a_node1"><a xlink:title=" ">
<polygon fill="#999999" stroke="#666666" points="115,-105 0,-105 0,-79 115,-79 115,-105"/>
<text text-anchor="start" x="8" y="-94.6" font-family="SourceSans" font-size="8.00">a60::collection::mangle</text>
<text text-anchor="middle" x="57.5" y="-85.6" font-family="SourceSans" font-size="8.00">_tid_match_id</text>
</a>
</g>
</g>
<!-- Node2 -->
<g id="node2" class="node">
<title>Node2</title>
<g id="a_node2"><a xlink:href="structa60_1_1collection.html#ab234addb5725bb5900b44f55ec1aae10" target="_top" xlink:title=" ">
<polygon fill="white" stroke="#666666" points="266,-136 151,-136 151,-110 266,-110 266,-136"/>
<text text-anchor="start" x="159" y="-125.6" font-family="SourceSans" font-size="8.00">a60::collection::mangle</text>
<text text-anchor="middle" x="208.5" y="-116.6" font-family="SourceSans" font-size="8.00">_with_id</text>
</a>
</g>
</g>
<!-- Node1&#45;&gt;Node2 -->
<g id="edge1" class="edge">
<title>Node1&#45;&gt;Node2</title>
<path fill="none" stroke="#63b8ff" d="M115.26,-103.81C123.65,-105.55 132.36,-107.37 140.93,-109.15"/>
<polygon fill="#63b8ff" stroke="#63b8ff" points="140.4,-112.61 150.9,-111.22 141.82,-105.76 140.4,-112.61"/>
</g>
<!-- Node4 -->
<g id="node4" class="node">
<title>Node4</title>
<g id="a_node4"><a xlink:href="structa60_1_1collection.html#a80993af9aec8238db8e44da1e9a3c994" target="_top" xlink:title=" ">
<polygon fill="white" stroke="#666666" points="260,-83 157,-83 157,-57 260,-57 260,-83"/>
<text text-anchor="start" x="165" y="-72.6" font-family="SourceSans" font-size="8.00">a60::collection::slice</text>
<text text-anchor="middle" x="208.5" y="-63.6" font-family="SourceSans" font-size="8.00">_name_mangled</text>
</a>
</g>
</g>
<!-- Node1&#45;&gt;Node4 -->
<g id="edge3" class="edge">
<title>Node1&#45;&gt;Node4</title>
<path fill="none" stroke="#63b8ff" d="M115.26,-83.62C125.49,-82.11 136.21,-80.53 146.56,-79"/>
<polygon fill="#63b8ff" stroke="#63b8ff" points="147.38,-82.41 156.76,-77.49 146.36,-75.49 147.38,-82.41"/>
</g>
<!-- Node3 -->
<g id="node3" class="node">
<title>Node3</title>
<g id="a_node3"><a xlink:href="structa60_1_1collection.html#a899f781ad983b2ec1f0da35a5d3f8b54" target="_top" xlink:title=" ">
<polygon fill="white" stroke="#666666" points="424.5,-149.5 309.5,-149.5 309.5,-114.5 424.5,-114.5 424.5,-149.5"/>
<text text-anchor="start" x="317.5" y="-139.1" font-family="SourceSans" font-size="8.00">a60::collection::mangle</text>
<text text-anchor="start" x="317.5" y="-130.1" font-family="SourceSans" font-size="8.00">_duration_significant</text>
<text text-anchor="middle" x="367" y="-121.1" font-family="SourceSans" font-size="8.00">_digits</text>
</a>
</g>
</g>
<!-- Node2&#45;&gt;Node3 -->
<g id="edge2" class="edge">
<title>Node2&#45;&gt;Node3</title>
<path fill="none" stroke="#63b8ff" d="M266,-126.25C276.79,-126.87 288.18,-127.52 299.26,-128.16"/>
<polygon fill="#63b8ff" stroke="#63b8ff" points="299.14,-131.66 309.32,-128.74 299.54,-124.67 299.14,-131.66"/>
</g>
<!-- Node5 -->
<g id="node5" class="node">
<title>Node5</title>
<g id="a_node5"><a xlink:href="structa60_1_1collection.html#a25b35cf4ac39da89d868fe2cf41b5acd" target="_top" xlink:title=" ">
<polygon fill="white" stroke="#666666" points="432,-96.5 302,-96.5 302,-79.5 432,-79.5 432,-96.5"/>
<text text-anchor="middle" x="367" y="-86.1" font-family="SourceSans" font-size="8.00">a60::collection::slice_name</text>
</a>
</g>
</g>
<!-- Node4&#45;&gt;Node5 -->
<g id="edge4" class="edge">
<title>Node4&#45;&gt;Node5</title>
<path fill="none" stroke="#63b8ff" d="M260.31,-75.84C270.32,-77 281.02,-78.23 291.62,-79.44"/>
<polygon fill="#63b8ff" stroke="#63b8ff" points="291.39,-82.94 301.73,-80.61 292.19,-75.99 291.39,-82.94"/>
</g>
<!-- Node6 -->
<g id="node6" class="node">
<title>Node6</title>
<g id="a_node6"><a xlink:href="namespacea60.html#ac7eddb2e330d8983ddc852edde5335c5" target="_top" xlink:title=" ">
<polygon fill="white" stroke="#666666" points="426.5,-61.5 307.5,-61.5 307.5,-44.5 426.5,-44.5 426.5,-61.5"/>
<text text-anchor="middle" x="367" y="-51.1" font-family="SourceSans" font-size="8.00">a60::to_lowercase_string</text>
</a>
</g>
</g>
<!-- Node4&#45;&gt;Node6 -->
<g id="edge5" class="edge">
<title>Node4&#45;&gt;Node6</title>
<path fill="none" stroke="#63b8ff" d="M260.31,-64.48C272.03,-63.21 284.68,-61.83 297.02,-60.49"/>
<polygon fill="#63b8ff" stroke="#63b8ff" points="297.72,-63.94 307.29,-59.38 296.97,-56.98 297.72,-63.94"/>
</g>
<!-- Node7 -->
<g id="node7" class="node">
<title>Node7</title>
<g id="a_node7"><a xlink:href="namespacea60.html#a11d9ffc210e8dca8410e7a5ad62deabc" target="_top" xlink:title=" ">
<polygon fill="white" stroke="#666666" points="423.5,-26 310.5,-26 310.5,0 423.5,0 423.5,-26"/>
<text text-anchor="start" x="318.5" y="-15.6" font-family="SourceSans" font-size="8.00">a60::to_replace_spaces</text>
<text text-anchor="middle" x="367" y="-6.6" font-family="SourceSans" font-size="8.00">_string</text>
</a>
</g>
</g>
<!-- Node4&#45;&gt;Node7 -->
<g id="edge6" class="edge">
<title>Node4&#45;&gt;Node7</title>
<path fill="none" stroke="#63b8ff" d="M243.24,-56.95C260.72,-50.26 282.46,-42.05 302,-35 307.11,-33.16 312.46,-31.26 317.81,-29.39"/>
<polygon fill="#63b8ff" stroke="#63b8ff" points="319.05,-32.66 327.35,-26.07 316.76,-26.05 319.05,-32.66"/>
</g>
<!-- Node8 -->
<g id="node8" class="node">
<title>Node8</title>
<g id="a_node8"><a xlink:href="namespacea60.html#a751f954fe64233f1dc6517220e4b5692" target="_top" xlink:title=" ">
<polygon fill="white" stroke="#666666" points="575,-21.5 468,-21.5 468,-4.5 575,-4.5 575,-21.5"/>
<text text-anchor="middle" x="521.5" y="-11.1" font-family="SourceSans" font-size="8.00">a60::to_replace_string</text>
</a>
</g>
</g>
<!-- Node7&#45;&gt;Node8 -->
<g id="edge7" class="edge">
<title>Node7&#45;&gt;Node8</title>
<path fill="none" stroke="#63b8ff" d="M423.92,-13C434.92,-13 446.53,-13 457.73,-13"/>
<polygon fill="#63b8ff" stroke="#63b8ff" points="457.88,-16.5 467.88,-13 457.88,-9.5 457.88,-16.5"/>
</g>
</g>
</svg>
