<?xml version="1.0" encoding="UTF-8" standalone="no"?>
<!DOCTYPE svg PUBLIC "-//W3C//DTD SVG 1.1//EN"
 "http://www.w3.org/Graphics/SVG/1.1/DTD/svg11.dtd">
<!-- Generated by graphviz version 5.0.0 (0)
 -->
<!-- Title: a60::swarm_gcache::partition_cache_by_mode Pages: 1 -->
<svg width="283pt" height="123pt"
 viewBox="0.00 0.00 283.00 122.50" xmlns="http://www.w3.org/2000/svg" xmlns:xlink="http://www.w3.org/1999/xlink">
<g id="graph0" class="graph" transform="scale(1 1) rotate(0) translate(4 118.5)">
<title>a60::swarm_gcache::partition_cache_by_mode</title>
<!-- Node1 -->
<g id="node1" class="node">
<title>Node1</title>
<g id="a_node1"><a xlink:title="Return a copy of the current cached collection, but only specific parts of it as determined by resolu...">
<polygon fill="#999999" stroke="#666666" points="120,-74.5 0,-74.5 0,-48.5 120,-48.5 120,-74.5"/>
<text text-anchor="start" x="8" y="-64.1" font-family="SourceSans" font-size="8.00">a60::swarm_gcache::</text>
<text text-anchor="middle" x="60" y="-55.1" font-family="SourceSans" font-size="8.00">partition_cache_by_mode</text>
</a>
</g>
</g>
<!-- Node2 -->
<g id="node2" class="node">
<title>Node2</title>
<g id="a_node2"><a xlink:href="structa60_1_1collection.html#ac65dd0f92ebbcd78b277e48903a2f2b7" target="_top" xlink:title="Adjust internal member data (members) to operate on a subset of the total collection determined by @r...">
<polygon fill="white" stroke="#666666" points="275,-114.5 156,-114.5 156,-88.5 275,-88.5 275,-114.5"/>
<text text-anchor="start" x="164" y="-104.1" font-family="SourceSans" font-size="8.00">a60::collection::partition</text>
<text text-anchor="middle" x="215.5" y="-95.1" font-family="SourceSans" font-size="8.00">_by_mode</text>
</a>
</g>
</g>
<!-- Node1&#45;&gt;Node2 -->
<g id="edge1" class="edge">
<title>Node1&#45;&gt;Node2</title>
<path fill="none" stroke="#63b8ff" d="M111.26,-74.6C125.11,-78.21 140.28,-82.16 154.62,-85.9"/>
<polygon fill="#63b8ff" stroke="#63b8ff" points="153.83,-89.31 164.39,-88.44 155.59,-82.53 153.83,-89.31"/>
</g>
<!-- Node3 -->
<g id="node3" class="node">
<title>Node3</title>
<g id="a_node3"><a xlink:href="namespacea60_1_1constants.html#a4eca9d522711df25806d6dd1ff38e904" target="_top" xlink:title=" ">
<polygon fill="white" stroke="#666666" points="270.5,-70 160.5,-70 160.5,-53 270.5,-53 270.5,-70"/>
<text text-anchor="middle" x="215.5" y="-59.6" font-family="SourceSans" font-size="8.00">a60::constants::space</text>
</a>
</g>
</g>
<!-- Node1&#45;&gt;Node3 -->
<g id="edge2" class="edge">
<title>Node1&#45;&gt;Node3</title>
<path fill="none" stroke="#63b8ff" d="M120.35,-61.5C130.11,-61.5 140.28,-61.5 150.16,-61.5"/>
<polygon fill="#63b8ff" stroke="#63b8ff" points="150.33,-65 160.33,-61.5 150.33,-58 150.33,-65"/>
</g>
<!-- Node4 -->
<g id="node4" class="node">
<title>Node4</title>
<g id="a_node4"><a xlink:href="namespacea60.html#a4e8b0cabed112734147b499bf0cc9029" target="_top" xlink:title="Conversion of resolution_mode to string.">
<polygon fill="white" stroke="#666666" points="252.5,-17 178.5,-17 178.5,0 252.5,0 252.5,-17"/>
<text text-anchor="middle" x="215.5" y="-6.6" font-family="SourceSans" font-size="8.00">a60::to_string</text>
</a>
</g>
</g>
<!-- Node1&#45;&gt;Node4 -->
<g id="edge3" class="edge">
<title>Node1&#45;&gt;Node4</title>
<path fill="none" stroke="#63b8ff" d="M98.94,-48.4C123.76,-39.83 155.91,-28.73 180,-20.41"/>
<polygon fill="#63b8ff" stroke="#63b8ff" points="181.15,-23.72 189.46,-17.15 178.87,-17.1 181.15,-23.72"/>
</g>
<!-- Node4&#45;&gt;Node4 -->
<g id="edge4" class="edge">
<title>Node4&#45;&gt;Node4</title>
<path fill="none" stroke="#63b8ff" d="M192.55,-17.19C179.88,-25.67 187.53,-35 215.5,-35 234.29,-35 243.91,-30.79 244.36,-25.45"/>
<polygon fill="#63b8ff" stroke="#63b8ff" points="247.11,-23.28 238.45,-17.19 241.42,-27.36 247.11,-23.28"/>
</g>
</g>
</svg>
