<?xml version="1.0" encoding="UTF-8" standalone="no"?>
<!DOCTYPE svg PUBLIC "-//W3C//DTD SVG 1.1//EN"
 "http://www.w3.org/Graphics/SVG/1.1/DTD/svg11.dtd">
<!-- Generated by graphviz version 5.0.0 (0)
 -->
<!-- Title: a60::geo::country_map::country_code_via_string Pages: 1 -->
<svg width="280pt" height="123pt"
 viewBox="0.00 0.00 280.00 122.50" xmlns="http://www.w3.org/2000/svg" xmlns:xlink="http://www.w3.org/1999/xlink">
<g id="graph0" class="graph" transform="scale(1 1) rotate(0) translate(4 118.5)">
<title>a60::geo::country_map::country_code_via_string</title>
<!-- Node1 -->
<g id="node1" class="node">
<title>Node1</title>
<g id="a_node1"><a xlink:title=" ">
<polygon fill="#999999" stroke="#666666" points="120,-74.5 0,-74.5 0,-48.5 120,-48.5 120,-74.5"/>
<text text-anchor="start" x="8" y="-64.1" font-family="SourceSans" font-size="8.00">a60::geo::country_map</text>
<text text-anchor="middle" x="60" y="-55.1" font-family="SourceSans" font-size="8.00">::country_code_via_string</text>
</a>
</g>
</g>
<!-- Node2 -->
<g id="node2" class="node">
<title>Node2</title>
<g id="a_node2"><a xlink:href="structa60_1_1geo_1_1map__base.html#ae86685f27b25cdaead9c94752618b2e4" target="_top" xlink:title=" ">
<polygon fill="white" stroke="#666666" points="265,-114.5 163,-114.5 163,-88.5 265,-88.5 265,-114.5"/>
<text text-anchor="start" x="171" y="-104.1" font-family="SourceSans" font-size="8.00">a60::geo::map_base</text>
<text text-anchor="middle" x="214" y="-95.1" font-family="SourceSans" font-size="8.00">::is_map_open</text>
</a>
</g>
</g>
<!-- Node1&#45;&gt;Node2 -->
<g id="edge1" class="edge">
<title>Node1&#45;&gt;Node2</title>
<path fill="none" stroke="#63b8ff" d="M110.77,-74.6C124.49,-78.21 139.51,-82.16 153.7,-85.9"/>
<polygon fill="#63b8ff" stroke="#63b8ff" points="152.82,-89.28 163.38,-88.44 154.6,-82.51 152.82,-89.28"/>
</g>
<!-- Node3 -->
<g id="node3" class="node">
<title>Node3</title>
<g id="a_node3"><a xlink:href="namespacea60_1_1geo.html#a7d8058b0d2e8d5f5c90dfe2cab6fc462" target="_top" xlink:title=" ">
<polygon fill="white" stroke="#666666" points="272,-70 156,-70 156,-53 272,-53 272,-70"/>
<text text-anchor="middle" x="214" y="-59.6" font-family="SourceSans" font-size="8.00">a60::geo::safe_if_empty</text>
</a>
</g>
</g>
<!-- Node1&#45;&gt;Node3 -->
<g id="edge2" class="edge">
<title>Node1&#45;&gt;Node3</title>
<path fill="none" stroke="#63b8ff" d="M120.2,-61.5C128.5,-61.5 137.08,-61.5 145.51,-61.5"/>
<polygon fill="#63b8ff" stroke="#63b8ff" points="145.7,-65 155.7,-61.5 145.7,-58 145.7,-65"/>
</g>
<!-- Node4 -->
<g id="node4" class="node">
<title>Node4</title>
<g id="a_node4"><a xlink:href="namespacea60_1_1constants.html#a01d9786063fb572d9389b0cd207bbe53" target="_top" xlink:title=" ">
<polygon fill="white" stroke="#666666" points="263,-17 165,-17 165,0 263,0 263,-17"/>
<text text-anchor="middle" x="214" y="-6.6" font-family="SourceSans" font-size="8.00">a60::constants::tab</text>
</a>
</g>
</g>
<!-- Node1&#45;&gt;Node4 -->
<g id="edge3" class="edge">
<title>Node1&#45;&gt;Node4</title>
<path fill="none" stroke="#63b8ff" d="M98.57,-48.4C123.03,-39.87 154.7,-28.83 178.52,-20.52"/>
<polygon fill="#63b8ff" stroke="#63b8ff" points="179.92,-23.74 188.21,-17.15 177.61,-17.13 179.92,-23.74"/>
</g>
<!-- Node4&#45;&gt;Node4 -->
<g id="edge4" class="edge">
<title>Node4&#45;&gt;Node4</title>
<path fill="none" stroke="#63b8ff" d="M191.05,-17.19C178.38,-25.67 186.03,-35 214,-35 232.79,-35 242.41,-30.79 242.86,-25.45"/>
<polygon fill="#63b8ff" stroke="#63b8ff" points="245.61,-23.28 236.95,-17.19 239.92,-27.36 245.61,-23.28"/>
</g>
</g>
</svg>
