<?xml version="1.0" encoding="UTF-8" standalone="no"?>
<!DOCTYPE svg PUBLIC "-//W3C//DTD SVG 1.1//EN"
 "http://www.w3.org/Graphics/SVG/1.1/DTD/svg11.dtd">
<!-- Generated by graphviz version 5.0.0 (0)
 -->
<!-- Title: a60::carto::ckproj::meridians_to_point_2d_via_js Pages: 1 -->
<svg width="254pt" height="70pt"
 viewBox="0.00 0.00 254.00 69.50" xmlns="http://www.w3.org/2000/svg" xmlns:xlink="http://www.w3.org/1999/xlink">
<g id="graph0" class="graph" transform="scale(1 1) rotate(0) translate(4 65.5)">
<title>a60::carto::ckproj::meridians_to_point_2d_via_js</title>
<!-- Node1 -->
<g id="node1" class="node">
<title>Node1</title>
<g id="a_node1"><a xlink:title="Use nodejs to run D3 projection via d3&#45;geo&#45;polygon.">
<polygon fill="#999999" stroke="#666666" points="100,-46 0,-46 0,-11 100,-11 100,-46"/>
<text text-anchor="start" x="8" y="-35.6" font-family="SourceSans" font-size="8.00">a60::carto::ckproj</text>
<text text-anchor="start" x="8" y="-26.6" font-family="SourceSans" font-size="8.00">::meridians_to_point</text>
<text text-anchor="middle" x="50" y="-17.6" font-family="SourceSans" font-size="8.00">_2d_via_js</text>
</a>
</g>
</g>
<!-- Node2 -->
<g id="node2" class="node">
<title>Node2</title>
<g id="a_node2"><a xlink:href="namespacea60_1_1io.html#ac95e5271a27a23bc2336d84b3f821fa2" target="_top" xlink:title="Constant filesystem and run&#45;time resources.">
<polygon fill="white" stroke="#666666" points="243,-61.5 139,-61.5 139,-35.5 243,-35.5 243,-61.5"/>
<text text-anchor="start" x="147" y="-51.1" font-family="SourceSans" font-size="8.00">a60::io::get_run_time</text>
<text text-anchor="middle" x="191" y="-42.1" font-family="SourceSans" font-size="8.00">_resources</text>
</a>
</g>
</g>
<!-- Node1&#45;&gt;Node2 -->
<g id="edge1" class="edge">
<title>Node1&#45;&gt;Node2</title>
<path fill="none" stroke="#63b8ff" d="M100.01,-35.55C109.29,-36.89 119.11,-38.3 128.71,-39.68"/>
<polygon fill="#63b8ff" stroke="#63b8ff" points="128.22,-43.15 138.61,-41.11 129.21,-36.22 128.22,-43.15"/>
</g>
<!-- Node3 -->
<g id="node3" class="node">
<title>Node3</title>
<g id="a_node3"><a xlink:href="namespacea60_1_1constants.html#a4eca9d522711df25806d6dd1ff38e904" target="_top" xlink:title=" ">
<polygon fill="white" stroke="#666666" points="246,-17 136,-17 136,0 246,0 246,-17"/>
<text text-anchor="middle" x="191" y="-6.6" font-family="SourceSans" font-size="8.00">a60::constants::space</text>
</a>
</g>
</g>
<!-- Node1&#45;&gt;Node3 -->
<g id="edge2" class="edge">
<title>Node1&#45;&gt;Node3</title>
<path fill="none" stroke="#63b8ff" d="M100.01,-21.45C108.32,-20.25 117.06,-18.99 125.7,-17.75"/>
<polygon fill="#63b8ff" stroke="#63b8ff" points="126.36,-21.19 135.76,-16.3 125.36,-14.26 126.36,-21.19"/>
</g>
</g>
</svg>
