<?xml version="1.0" encoding="UTF-8" standalone="no"?>
<!DOCTYPE svg PUBLIC "-//W3C//DTD SVG 1.1//EN"
 "http://www.w3.org/Graphics/SVG/1.1/DTD/svg11.dtd">
<!-- Generated by graphviz version 5.0.0 (0)
 -->
<!-- Title: a60::collection::get_resolution Pages: 1 -->
<svg width="393pt" height="169pt"
 viewBox="0.00 0.00 393.00 168.50" xmlns="http://www.w3.org/2000/svg" xmlns:xlink="http://www.w3.org/1999/xlink">
<g id="graph0" class="graph" transform="scale(1 1) rotate(0) translate(4 164.5)">
<title>a60::collection::get_resolution</title>
<!-- Node1 -->
<g id="node1" class="node">
<title>Node1</title>
<g id="a_node1"><a xlink:title=" ">
<polygon fill="#999999" stroke="#666666" points="98,-106 0,-106 0,-80 98,-80 98,-106"/>
<text text-anchor="start" x="8" y="-95.6" font-family="SourceSans" font-size="8.00">a60::collection::get</text>
<text text-anchor="middle" x="49" y="-86.6" font-family="SourceSans" font-size="8.00">_resolution</text>
</a>
</g>
</g>
<!-- Node2 -->
<g id="node2" class="node">
<title>Node2</title>
<g id="a_node2"><a xlink:href="structa60_1_1collection.html#afad5eae328d051e2bcbe057d45bef491" target="_top" xlink:title=" ">
<polygon fill="white" stroke="#666666" points="241,-147 138,-147 138,-121 241,-121 241,-147"/>
<text text-anchor="start" x="146" y="-136.6" font-family="SourceSans" font-size="8.00">a60::collection::infer</text>
<text text-anchor="middle" x="189.5" y="-127.6" font-family="SourceSans" font-size="8.00">_resolution</text>
</a>
</g>
</g>
<!-- Node1&#45;&gt;Node2 -->
<g id="edge1" class="edge">
<title>Node1&#45;&gt;Node2</title>
<path fill="none" stroke="#63b8ff" d="M94.2,-106.09C106.95,-109.86 121,-114.02 134.27,-117.95"/>
<polygon fill="#63b8ff" stroke="#63b8ff" points="133.66,-121.42 144.24,-120.9 135.65,-114.7 133.66,-121.42"/>
</g>
<!-- Node4 -->
<g id="node4" class="node">
<title>Node4</title>
<g id="a_node4"><a xlink:href="namespacea60_1_1io.html#aa5fbb8ab63397dd45c4a54c0758935ef" target="_top" xlink:title="Sanity check input existence.">
<polygon fill="white" stroke="#666666" points="385,-106 281,-106 281,-80 385,-80 385,-106"/>
<text text-anchor="start" x="289" y="-95.6" font-family="SourceSans" font-size="8.00">a60::io::sanity_check</text>
<text text-anchor="middle" x="333" y="-86.6" font-family="SourceSans" font-size="8.00">_input</text>
</a>
</g>
</g>
<!-- Node1&#45;&gt;Node4 -->
<g id="edge4" class="edge">
<title>Node1&#45;&gt;Node4</title>
<path fill="none" stroke="#63b8ff" d="M98.16,-93C145.79,-93 218.88,-93 270.65,-93"/>
<polygon fill="#63b8ff" stroke="#63b8ff" points="270.7,-96.5 280.7,-93 270.7,-89.5 270.7,-96.5"/>
</g>
<!-- Node5 -->
<g id="node5" class="node">
<title>Node5</title>
<g id="a_node5"><a xlink:href="structa60_1_1collection.html#a997d47a7fc3ffcabaeba3fd74cce0d82" target="_top" xlink:title=" ">
<polygon fill="white" stroke="#666666" points="245,-65 134,-65 134,-39 245,-39 245,-65"/>
<text text-anchor="start" x="142" y="-54.6" font-family="SourceSans" font-size="8.00">a60::collection::torrent</text>
<text text-anchor="middle" x="189.5" y="-45.6" font-family="SourceSans" font-size="8.00">_directory</text>
</a>
</g>
</g>
<!-- Node1&#45;&gt;Node5 -->
<g id="edge5" class="edge">
<title>Node1&#45;&gt;Node5</title>
<path fill="none" stroke="#63b8ff" d="M94.2,-79.91C106.95,-76.14 121,-71.98 134.27,-68.05"/>
<polygon fill="#63b8ff" stroke="#63b8ff" points="135.65,-71.3 144.24,-65.1 133.66,-64.58 135.65,-71.3"/>
</g>
<!-- Node3 -->
<g id="node3" class="node">
<title>Node3</title>
<g id="a_node3"><a xlink:href="namespacea60.html#a4e8b0cabed112734147b499bf0cc9029" target="_top" xlink:title="Conversion of resolution_mode to string.">
<polygon fill="white" stroke="#666666" points="370,-142.5 296,-142.5 296,-125.5 370,-125.5 370,-142.5"/>
<text text-anchor="middle" x="333" y="-132.1" font-family="SourceSans" font-size="8.00">a60::to_string</text>
</a>
</g>
</g>
<!-- Node2&#45;&gt;Node3 -->
<g id="edge2" class="edge">
<title>Node2&#45;&gt;Node3</title>
<path fill="none" stroke="#63b8ff" d="M241.19,-134C255.73,-134 271.52,-134 285.78,-134"/>
<polygon fill="#63b8ff" stroke="#63b8ff" points="285.86,-137.5 295.86,-134 285.86,-130.5 285.86,-137.5"/>
</g>
<!-- Node3&#45;&gt;Node3 -->
<g id="edge3" class="edge">
<title>Node3&#45;&gt;Node3</title>
<path fill="none" stroke="#63b8ff" d="M311.84,-142.69C300.15,-151.17 307.21,-160.5 333,-160.5 349.93,-160.5 358.78,-156.48 359.57,-151.32"/>
<polygon fill="#63b8ff" stroke="#63b8ff" points="362.43,-149.3 354.16,-142.69 356.5,-153.02 362.43,-149.3"/>
</g>
<!-- Node5&#45;&gt;Node4 -->
<g id="edge8" class="edge">
<title>Node5&#45;&gt;Node4</title>
<path fill="none" stroke="#63b8ff" d="M235.66,-65.09C248.81,-68.89 263.32,-73.1 277,-77.06"/>
<polygon fill="#63b8ff" stroke="#63b8ff" points="276.2,-80.48 286.78,-79.9 278.15,-73.75 276.2,-80.48"/>
</g>
<!-- Node6 -->
<g id="node6" class="node">
<title>Node6</title>
<g id="a_node6"><a xlink:href="namespacea60_1_1io.html#a16f17ea9e02c1975ca17b77e46cf7629" target="_top" xlink:title="Make sure a path ends in &#39;/&#39;;.">
<polygon fill="white" stroke="#666666" points="378,-61.5 288,-61.5 288,-44.5 378,-44.5 378,-61.5"/>
<text text-anchor="middle" x="333" y="-51.1" font-family="SourceSans" font-size="8.00">a60::io::end_path</text>
</a>
</g>
</g>
<!-- Node5&#45;&gt;Node6 -->
<g id="edge6" class="edge">
<title>Node5&#45;&gt;Node6</title>
<path fill="none" stroke="#63b8ff" d="M245.21,-52.39C255.93,-52.46 267.18,-52.54 277.89,-52.62"/>
<polygon fill="#63b8ff" stroke="#63b8ff" points="277.93,-56.12 287.95,-52.69 277.98,-49.12 277.93,-56.12"/>
</g>
<!-- Node7 -->
<g id="node7" class="node">
<title>Node7</title>
<g id="a_node7"><a xlink:href="namespacea60_1_1io.html#ac95e5271a27a23bc2336d84b3f821fa2" target="_top" xlink:title="Constant filesystem and run&#45;time resources.">
<polygon fill="white" stroke="#666666" points="385,-26 281,-26 281,0 385,0 385,-26"/>
<text text-anchor="start" x="289" y="-15.6" font-family="SourceSans" font-size="8.00">a60::io::get_run_time</text>
<text text-anchor="middle" x="333" y="-6.6" font-family="SourceSans" font-size="8.00">_resources</text>
</a>
</g>
</g>
<!-- Node5&#45;&gt;Node7 -->
<g id="edge7" class="edge">
<title>Node5&#45;&gt;Node7</title>
<path fill="none" stroke="#63b8ff" d="M238.01,-38.91C249.68,-35.69 262.29,-32.21 274.38,-28.88"/>
<polygon fill="#63b8ff" stroke="#63b8ff" points="275.66,-32.16 284.37,-26.13 273.8,-25.41 275.66,-32.16"/>
</g>
</g>
</svg>
