<?xml version="1.0" encoding="UTF-8" standalone="no"?>
<!DOCTYPE svg PUBLIC "-//W3C//DTD SVG 1.1//EN"
 "http://www.w3.org/Graphics/SVG/1.1/DTD/svg11.dtd">
<!-- Generated by graphviz version 5.0.0 (0)
 -->
<!-- Title: a60::collection::slice_name_mangled Pages: 1 -->
<svg width="420pt" height="105pt"
 viewBox="0.00 0.00 420.00 104.50" xmlns="http://www.w3.org/2000/svg" xmlns:xlink="http://www.w3.org/1999/xlink">
<g id="graph0" class="graph" transform="scale(1 1) rotate(0) translate(4 100.5)">
<title>a60::collection::slice_name_mangled</title>
<!-- Node1 -->
<g id="node1" class="node">
<title>Node1</title>
<g id="a_node1"><a xlink:title=" ">
<polygon fill="#999999" stroke="#666666" points="103,-66 0,-66 0,-40 103,-40 103,-66"/>
<text text-anchor="start" x="8" y="-55.6" font-family="SourceSans" font-size="8.00">a60::collection::slice</text>
<text text-anchor="middle" x="51.5" y="-46.6" font-family="SourceSans" font-size="8.00">_name_mangled</text>
</a>
</g>
</g>
<!-- Node2 -->
<g id="node2" class="node">
<title>Node2</title>
<g id="a_node2"><a xlink:href="structa60_1_1collection.html#a25b35cf4ac39da89d868fe2cf41b5acd" target="_top" xlink:title=" ">
<polygon fill="white" stroke="#666666" points="269,-96.5 139,-96.5 139,-79.5 269,-79.5 269,-96.5"/>
<text text-anchor="middle" x="204" y="-86.1" font-family="SourceSans" font-size="8.00">a60::collection::slice_name</text>
</a>
</g>
</g>
<!-- Node1&#45;&gt;Node2 -->
<g id="edge1" class="edge">
<title>Node1&#45;&gt;Node2</title>
<path fill="none" stroke="#63b8ff" d="M103.03,-64.75C120.15,-68.73 139.18,-73.16 156.01,-77.07"/>
<polygon fill="#63b8ff" stroke="#63b8ff" points="155.63,-80.58 166.16,-79.43 157.21,-73.76 155.63,-80.58"/>
</g>
<!-- Node3 -->
<g id="node3" class="node">
<title>Node3</title>
<g id="a_node3"><a xlink:href="namespacea60.html#ac7eddb2e330d8983ddc852edde5335c5" target="_top" xlink:title=" ">
<polygon fill="white" stroke="#666666" points="263.5,-61.5 144.5,-61.5 144.5,-44.5 263.5,-44.5 263.5,-61.5"/>
<text text-anchor="middle" x="204" y="-51.1" font-family="SourceSans" font-size="8.00">a60::to_lowercase_string</text>
</a>
</g>
</g>
<!-- Node1&#45;&gt;Node3 -->
<g id="edge2" class="edge">
<title>Node1&#45;&gt;Node3</title>
<path fill="none" stroke="#63b8ff" d="M103.03,-53C113.06,-53 123.75,-53 134.27,-53"/>
<polygon fill="#63b8ff" stroke="#63b8ff" points="134.28,-56.5 144.28,-53 134.28,-49.5 134.28,-56.5"/>
</g>
<!-- Node4 -->
<g id="node4" class="node">
<title>Node4</title>
<g id="a_node4"><a xlink:href="namespacea60.html#a11d9ffc210e8dca8410e7a5ad62deabc" target="_top" xlink:title=" ">
<polygon fill="white" stroke="#666666" points="260.5,-26 147.5,-26 147.5,0 260.5,0 260.5,-26"/>
<text text-anchor="start" x="155.5" y="-15.6" font-family="SourceSans" font-size="8.00">a60::to_replace_spaces</text>
<text text-anchor="middle" x="204" y="-6.6" font-family="SourceSans" font-size="8.00">_string</text>
</a>
</g>
</g>
<!-- Node1&#45;&gt;Node4 -->
<g id="edge3" class="edge">
<title>Node1&#45;&gt;Node4</title>
<path fill="none" stroke="#63b8ff" d="M101.78,-39.9C115.23,-36.33 129.94,-32.42 143.88,-28.71"/>
<polygon fill="#63b8ff" stroke="#63b8ff" points="145.1,-32.01 153.87,-26.06 143.3,-25.24 145.1,-32.01"/>
</g>
<!-- Node5 -->
<g id="node5" class="node">
<title>Node5</title>
<g id="a_node5"><a xlink:href="namespacea60.html#a751f954fe64233f1dc6517220e4b5692" target="_top" xlink:title=" ">
<polygon fill="white" stroke="#666666" points="412,-21.5 305,-21.5 305,-4.5 412,-4.5 412,-21.5"/>
<text text-anchor="middle" x="358.5" y="-11.1" font-family="SourceSans" font-size="8.00">a60::to_replace_string</text>
</a>
</g>
</g>
<!-- Node4&#45;&gt;Node5 -->
<g id="edge4" class="edge">
<title>Node4&#45;&gt;Node5</title>
<path fill="none" stroke="#63b8ff" d="M260.92,-13C271.92,-13 283.53,-13 294.73,-13"/>
<polygon fill="#63b8ff" stroke="#63b8ff" points="294.88,-16.5 304.88,-13 294.88,-9.5 294.88,-16.5"/>
</g>
</g>
</svg>
