<?xml version="1.0" encoding="UTF-8" standalone="no"?>
<!DOCTYPE svg PUBLIC "-//W3C//DTD SVG 1.1//EN"
 "http://www.w3.org/Graphics/SVG/1.1/DTD/svg11.dtd">
<!-- Generated by graphviz version 5.0.0 (0)
 -->
<!-- Title: a60::collection::partition_name Pages: 1 -->
<svg width="264pt" height="43pt"
 viewBox="0.00 0.00 264.00 43.00" xmlns="http://www.w3.org/2000/svg" xmlns:xlink="http://www.w3.org/1999/xlink">
<g id="graph0" class="graph" transform="scale(1 1) rotate(0) translate(4 39)">
<title>a60::collection::partition_name</title>
<!-- Node1 -->
<g id="node1" class="node">
<title>Node1</title>
<g id="a_node1"><a xlink:title=" ">
<polygon fill="#999999" stroke="#666666" points="146,-17 0,-17 0,0 146,0 146,-17"/>
<text text-anchor="middle" x="73" y="-6.6" font-family="SourceSans" font-size="8.00">a60::collection::partition_name</text>
</a>
</g>
</g>
<!-- Node2 -->
<g id="node2" class="node">
<title>Node2</title>
<g id="a_node2"><a xlink:href="namespacea60.html#a4e8b0cabed112734147b499bf0cc9029" target="_top" xlink:title="Conversion of resolution_mode to string.">
<polygon fill="white" stroke="#666666" points="256,-17 182,-17 182,0 256,0 256,-17"/>
<text text-anchor="middle" x="219" y="-6.6" font-family="SourceSans" font-size="8.00">a60::to_string</text>
</a>
</g>
</g>
<!-- Node1&#45;&gt;Node2 -->
<g id="edge1" class="edge">
<title>Node1&#45;&gt;Node2</title>
<path fill="none" stroke="#63b8ff" d="M146.42,-8.5C155.09,-8.5 163.75,-8.5 171.9,-8.5"/>
<polygon fill="#63b8ff" stroke="#63b8ff" points="171.91,-12 181.91,-8.5 171.91,-5 171.91,-12"/>
</g>
<!-- Node2&#45;&gt;Node2 -->
<g id="edge2" class="edge">
<title>Node2&#45;&gt;Node2</title>
<path fill="none" stroke="#63b8ff" d="M197.25,-17.19C185.23,-25.67 192.48,-35 219,-35 236.4,-35 245.51,-30.98 246.32,-25.82"/>
<polygon fill="#63b8ff" stroke="#63b8ff" points="249.11,-23.7 240.75,-17.19 243.23,-27.49 249.11,-23.7"/>
</g>
</g>
</svg>
